<?xml version="1.0" encoding="utf-8"?>
<!-- Generator: Adobe Illustrator 16.0.0, SVG Export Plug-In . SVG Version: 6.00 Build 0)  -->
<!DOCTYPE svg PUBLIC "-//W3C//DTD SVG 1.1//EN" "http://www.w3.org/Graphics/SVG/1.1/DTD/svg11.dtd">
<svg version="1.1" id="Capa_1" xmlns="http://www.w3.org/2000/svg" xmlns:xlink="http://www.w3.org/1999/xlink" x="0px" y="0px"
	 width="778px" height="358px" viewBox="0 0 778 358" enable-background="new 0 0 778 358" xml:space="preserve">
<g id="global-estimates">
	<g>
		<rect x="122.532" y="210.811" fill="#199598" width="100.493" height="122.967"/>
		<rect x="122.532" y="85.746" fill="#DD9B2B" width="100.493" height="125.064"/>
	</g>
	<g>
		<path fill="#666565" d="M62.333,39.421c0-1.549,0.311-2.906,0.932-4.071s1.519-2.055,2.687-2.67
			c1.168-0.615,2.536-0.922,4.105-0.922c1.59,0,3.07,0.292,4.443,0.876l-0.672,1.529c-1.347-0.571-2.642-0.856-3.885-0.856
			c-1.813,0-3.229,0.54-4.249,1.62c-1.019,1.08-1.527,2.578-1.527,4.494c0,2.018,0.491,3.548,1.473,4.591
			c0.981,1.043,2.423,1.564,4.326,1.564c1.033,0,2.042-0.12,3.026-0.358v-4.604H69.66v-1.549h5.063v7.255
			c-0.788,0.248-1.59,0.436-2.405,0.563c-0.813,0.127-1.76,0.191-2.833,0.191c-2.255,0-4.012-0.67-5.268-2.012
			C62.961,43.72,62.333,41.84,62.333,39.421z"/>
		<path fill="#666565" d="M78.047,46.87V31.014h1.689V46.87H78.047z"/>
		<path fill="#666565" d="M82.704,41.266c0-1.817,0.454-3.233,1.359-4.247c0.908-1.014,2.167-1.521,3.78-1.521
			c1.558,0,2.795,0.519,3.713,1.556c0.917,1.038,1.376,2.441,1.376,4.211c0,1.824-0.457,3.248-1.372,4.272s-2.178,1.536-3.79,1.536
			c-0.996,0-1.88-0.234-2.65-0.704c-0.772-0.47-1.368-1.144-1.788-2.021S82.704,42.443,82.704,41.266z M84.436,41.266
			c0,1.43,0.286,2.52,0.857,3.269c0.572,0.749,1.412,1.124,2.521,1.124c1.109,0,1.951-0.373,2.526-1.119s0.862-1.837,0.862-3.273
			c0-1.423-0.288-2.504-0.862-3.243c-0.574-0.739-1.424-1.108-2.546-1.108c-1.109,0-1.946,0.364-2.51,1.093
			C84.718,38.736,84.436,39.822,84.436,41.266z"/>
		<path fill="#666565" d="M95.931,46.87V31.014h1.691v3.852c0,0.863-0.027,1.637-0.082,2.323h0.082
			c0.788-1.114,1.957-1.671,3.506-1.671c1.46,0,2.595,0.501,3.401,1.503c0.811,1.002,1.214,2.42,1.214,4.254
			s-0.407,3.259-1.224,4.274c-0.813,1.016-1.944,1.523-3.394,1.523c-0.729,0-1.393-0.134-1.992-0.402
			c-0.602-0.268-1.106-0.681-1.514-1.238H97.5l-0.356,1.437L95.931,46.87L95.931,46.87z M97.622,41.276
			c0,1.569,0.262,2.692,0.785,3.368c0.521,0.676,1.36,1.014,2.517,1.014c1.04,0,1.813-0.379,2.323-1.136
			c0.51-0.758,0.765-1.846,0.765-3.266c0-1.454-0.255-2.538-0.765-3.251c-0.511-0.713-1.297-1.07-2.364-1.07
			c-1.155,0-1.987,0.331-2.497,0.994C97.877,38.59,97.622,39.707,97.622,41.276z"/>
		<path fill="#666565" d="M107.884,43.794c0-2.25,1.806-3.429,5.418-3.537l1.898-0.062v-0.702c0-0.887-0.188-1.542-0.564-1.965
			c-0.376-0.423-0.978-0.634-1.806-0.634c-0.931,0-1.98,0.289-3.153,0.866l-0.526-1.298c0.552-0.294,1.153-0.525,1.811-0.692
			s1.313-0.251,1.972-0.251c1.33,0,2.315,0.295,2.957,0.887c0.641,0.591,0.962,1.539,0.962,2.843v7.622h-1.253l-0.336-1.571h-0.082
			c-0.556,0.693-1.11,1.162-1.663,1.407c-0.552,0.246-1.242,0.368-2.07,0.368c-1.11,0-1.982-0.284-2.614-0.853
			C108.199,45.652,107.884,44.843,107.884,43.794z M109.677,43.814c0,0.615,0.185,1.082,0.554,1.403
			c0.37,0.321,0.889,0.481,1.553,0.481c1.051,0,1.876-0.29,2.477-0.87c0.6-0.581,0.9-1.393,0.9-2.437v-1.014l-1.688,0.071
			c-1.343,0.048-2.311,0.258-2.904,0.63S109.677,43.029,109.677,43.814z"/>
		<path fill="#666565" d="M120.326,46.87V31.014h1.689V46.87H120.326z"/>
		<path fill="#666565" d="M130.404,41.377c0-1.8,0.442-3.23,1.326-4.29s2.071-1.589,3.563-1.589c1.395,0,2.498,0.46,3.311,1.38
			c0.813,0.921,1.219,2.135,1.219,3.643v1.07h-7.684c0.034,1.311,0.366,2.306,0.995,2.985c0.629,0.68,1.516,1.019,2.659,1.019
			c1.199,0,2.384-0.251,3.556-0.754v1.508c-0.596,0.258-1.16,0.443-1.692,0.555c-0.53,0.112-1.173,0.168-1.925,0.168
			c-1.646,0-2.944-0.502-3.896-1.508C130.88,44.561,130.404,43.165,130.404,41.377z M132.177,40.216h5.849
			c0-1.066-0.236-1.883-0.714-2.451c-0.477-0.567-1.157-0.851-2.042-0.851c-0.896,0-1.615,0.292-2.147,0.876
			C132.587,38.375,132.272,39.183,132.177,40.216z"/>
		<path fill="#666565" d="M142.021,38.446c0-0.911,0.37-1.63,1.109-2.158c0.74-0.527,1.754-0.791,3.044-0.791
			c1.195,0,2.363,0.244,3.504,0.733l-0.59,1.377c-1.117-0.463-2.13-0.695-3.037-0.695c-0.803,0-1.409,0.126-1.818,0.378
			c-0.406,0.251-0.61,0.599-0.61,1.042c0,0.3,0.076,0.555,0.229,0.766c0.153,0.211,0.4,0.412,0.741,0.603
			c0.34,0.191,0.994,0.467,1.96,0.828c1.324,0.483,2.215,0.97,2.671,1.46c0.457,0.49,0.687,1.104,0.687,1.849
			c0,1.034-0.387,1.832-1.155,2.393c-0.771,0.561-1.853,0.841-3.243,0.841c-1.479,0-2.631-0.23-3.458-0.693V44.82
			c0.536,0.272,1.11,0.487,1.724,0.644c0.614,0.157,1.206,0.235,1.775,0.235c0.885,0,1.565-0.141,2.042-0.424
			c0.477-0.283,0.715-0.713,0.715-1.292c0-0.436-0.188-0.809-0.565-1.119c-0.379-0.31-1.115-0.676-2.212-1.098
			c-1.042-0.388-1.78-0.727-2.218-1.017c-0.436-0.29-0.76-0.618-0.974-0.986C142.127,39.396,142.021,38.957,142.021,38.446z"/>
		<path fill="#666565" d="M151.212,37.016v-0.815l1.6-0.703l0.713-2.385h0.979v2.588h3.24v1.314h-3.24v6.588
			c0,0.674,0.16,1.191,0.479,1.552c0.319,0.361,0.759,0.542,1.314,0.542c0.299,0,0.587-0.022,0.866-0.066
			c0.276-0.044,0.499-0.09,0.662-0.138v1.278c-0.185,0.087-0.453,0.159-0.812,0.216c-0.354,0.057-0.678,0.085-0.963,0.085
			c-2.16,0-3.241-1.138-3.241-3.414v-6.644h-1.599L151.212,37.016L151.212,37.016z"/>
		<path fill="#666565" d="M159.915,32.675c0-0.387,0.087-0.671,0.263-0.851c0.175-0.18,0.395-0.27,0.658-0.27
			c0.293,0,0.545,0.092,0.758,0.275c0.212,0.184,0.318,0.466,0.318,0.846c0,0.38-0.106,0.664-0.318,0.851s-0.465,0.28-0.758,0.28
			c-0.265,0-0.482-0.093-0.658-0.28S159.915,33.056,159.915,32.675z M160.058,46.87V35.702h1.549V46.87H160.058z"/>
		<path fill="#666565" d="M165.336,46.87V35.702h1.375l0.273,1.509h0.082c0.319-0.537,0.771-0.957,1.352-1.259
			c0.581-0.302,1.229-0.453,1.952-0.453c1.746,0,2.887,0.625,3.424,1.876h0.082c0.333-0.579,0.813-1.036,1.445-1.372
			c0.634-0.336,1.354-0.504,2.161-0.504c1.265,0,2.209,0.324,2.838,0.973c0.63,0.648,0.942,1.687,0.942,3.113v7.286h-1.691V39.59
			c0-0.892-0.188-1.561-0.569-2.006s-0.974-0.669-1.773-0.669c-1.053,0-1.831,0.303-2.333,0.909
			c-0.503,0.605-0.754,1.538-0.754,2.798v6.249h-1.689V39.59c0-0.892-0.19-1.561-0.571-2.006s-0.977-0.669-1.783-0.669
			c-1.06,0-1.836,0.318-2.329,0.955c-0.492,0.637-0.739,1.68-0.739,3.13v5.871L165.336,46.87L165.336,46.87z"/>
		<path fill="#666565" d="M183.913,43.794c0-2.25,1.806-3.429,5.418-3.537l1.896-0.062v-0.702c0-0.887-0.188-1.542-0.563-1.965
			c-0.376-0.423-0.979-0.634-1.808-0.634c-0.929,0-1.979,0.289-3.151,0.866l-0.526-1.298c0.55-0.294,1.153-0.525,1.809-0.692
			c0.656-0.167,1.313-0.251,1.974-0.251c1.33,0,2.313,0.295,2.957,0.887c0.641,0.591,0.962,1.539,0.962,2.843v7.622h-1.253
			l-0.336-1.571h-0.082c-0.558,0.693-1.11,1.162-1.663,1.407c-0.552,0.246-1.242,0.368-2.07,0.368c-1.111,0-1.982-0.284-2.616-0.853
			C184.229,45.652,183.913,44.843,183.913,43.794z M185.707,43.814c0,0.615,0.185,1.082,0.554,1.403
			c0.37,0.321,0.887,0.481,1.551,0.481c1.051,0,1.876-0.29,2.479-0.87c0.6-0.581,0.898-1.393,0.898-2.437v-1.014l-1.688,0.071
			c-1.343,0.048-2.313,0.258-2.904,0.63S185.707,43.029,185.707,43.814z"/>
		<path fill="#666565" d="M194.877,37.016v-0.815l1.6-0.703l0.713-2.385h0.979v2.588h3.24v1.314h-3.24v6.588
			c0,0.674,0.16,1.191,0.479,1.552c0.319,0.361,0.757,0.542,1.314,0.542c0.299,0,0.587-0.022,0.866-0.066
			c0.276-0.044,0.499-0.09,0.662-0.138v1.278c-0.185,0.087-0.453,0.159-0.812,0.216c-0.354,0.057-0.678,0.085-0.963,0.085
			c-2.16,0-3.241-1.138-3.241-3.414v-6.644h-1.599L194.877,37.016L194.877,37.016z"/>
		<path fill="#666565" d="M203.101,41.377c0-1.8,0.442-3.23,1.326-4.29s2.071-1.589,3.561-1.589c1.396,0,2.498,0.46,3.313,1.38
			c0.812,0.921,1.219,2.135,1.219,3.643v1.07h-7.684c0.034,1.311,0.366,2.306,0.995,2.985c0.629,0.68,1.516,1.019,2.657,1.019
			c1.199,0,2.386-0.251,3.558-0.754v1.508c-0.598,0.258-1.16,0.443-1.692,0.555c-0.532,0.112-1.173,0.168-1.925,0.168
			c-1.646,0-2.946-0.502-3.898-1.508C203.577,44.561,203.101,43.165,203.101,41.377z M204.874,40.216h5.849
			c0-1.066-0.238-1.883-0.714-2.451c-0.479-0.567-1.157-0.851-2.042-0.851c-0.898,0-1.615,0.292-2.149,0.876
			C205.284,38.375,204.969,39.183,204.874,40.216z"/>
		<path fill="#666565" d="M214.718,38.446c0-0.911,0.37-1.63,1.109-2.158c0.738-0.527,1.754-0.791,3.044-0.791
			c1.193,0,2.361,0.244,3.504,0.733l-0.59,1.377c-1.117-0.463-2.132-0.695-3.037-0.695c-0.805,0-1.409,0.126-1.818,0.378
			c-0.408,0.251-0.612,0.599-0.612,1.042c0,0.3,0.077,0.555,0.229,0.766c0.153,0.211,0.398,0.412,0.741,0.603
			c0.34,0.191,0.994,0.467,1.96,0.828c1.322,0.483,2.215,0.97,2.671,1.46c0.457,0.49,0.685,1.104,0.685,1.849
			c0,1.034-0.385,1.832-1.153,2.393c-0.771,0.561-1.853,0.841-3.243,0.841c-1.479,0-2.631-0.23-3.458-0.693V44.82
			c0.536,0.272,1.108,0.487,1.724,0.644c0.614,0.157,1.206,0.235,1.775,0.235c0.885,0,1.563-0.141,2.042-0.424
			c0.477-0.283,0.715-0.713,0.715-1.292c0-0.436-0.189-0.809-0.567-1.119c-0.378-0.31-1.114-0.676-2.211-1.098
			c-1.042-0.388-1.781-0.727-2.217-1.017s-0.76-0.618-0.974-0.986C214.824,39.396,214.718,38.957,214.718,38.446z"/>
	</g>
	<g>
		<path fill="#9A999E" d="M33.949,91.011v-1.199l3.27-3.299c0.996-1.012,1.653-1.734,1.97-2.166
			c0.317-0.432,0.557-0.853,0.713-1.262c0.159-0.409,0.238-0.85,0.238-1.321c0-0.665-0.201-1.192-0.603-1.582
			c-0.402-0.39-0.96-0.584-1.675-0.584c-0.516,0-1.004,0.085-1.465,0.256c-0.462,0.17-0.976,0.48-1.542,0.93L34.11,79.82
			c1.145-0.935,2.391-1.402,3.736-1.402c1.166,0,2.081,0.297,2.743,0.891c0.663,0.594,0.994,1.393,0.994,2.396
			c0,0.79-0.223,1.572-0.663,2.345c-0.441,0.773-1.27,1.751-2.479,2.934l-2.717,2.669v0.068h6.386v1.291H33.95L33.949,91.011
			L33.949,91.011z"/>
		<path fill="#9A999E" d="M48.02,88.166v-1.239l5.896-8.399h1.494v8.347h1.858v1.291h-1.858v2.845h-1.333v-2.845H48.02z
			 M49.447,86.875h4.63v-4.127c0-0.81,0.026-1.724,0.084-2.743h-0.068c-0.271,0.543-0.526,0.994-0.764,1.35L49.447,86.875z"/>
		<path fill="#9A999E" d="M57.964,88.166v-1.239l5.894-8.399h1.494v8.347h1.86v1.291h-1.86v2.845h-1.333v-2.845H57.964z
			 M59.391,86.875h4.628v-4.127c0-0.81,0.028-1.724,0.084-2.743h-0.066c-0.271,0.543-0.526,0.994-0.766,1.35L59.391,86.875z"/>
		<path fill="#9A999E" d="M68.443,87.843c0-1.421,0.871-2.528,2.614-3.32c-0.79-0.441-1.354-0.918-1.7-1.431
			c-0.343-0.513-0.515-1.086-0.515-1.72c0-0.9,0.334-1.618,1.003-2.153c0.669-0.535,1.564-0.802,2.688-0.802
			c1.136,0,2.034,0.263,2.699,0.79c0.665,0.526,0.997,1.254,0.997,2.183c0,0.611-0.189,1.169-0.571,1.673
			c-0.384,0.504-0.991,0.962-1.829,1.375c1.013,0.481,1.731,0.986,2.158,1.516c0.429,0.53,0.642,1.143,0.642,1.839
			c0,1.03-0.361,1.853-1.082,2.467c-0.721,0.614-1.709,0.921-2.964,0.921c-1.329,0-2.353-0.29-3.066-0.871
			C68.801,89.73,68.443,88.908,68.443,87.843z M69.853,87.877c0,0.679,0.236,1.208,0.708,1.588c0.474,0.379,1.135,0.569,1.988,0.569
			c0.842,0,1.498-0.198,1.967-0.594s0.704-0.94,0.704-1.631c0-0.549-0.221-1.037-0.661-1.465c-0.439-0.427-1.21-0.842-2.306-1.244
			c-0.842,0.362-1.453,0.763-1.832,1.202C70.042,86.741,69.853,87.266,69.853,87.877z M70.252,81.432c0,0.521,0.167,0.968,0.5,1.341
			c0.333,0.374,0.949,0.748,1.848,1.121c0.81-0.34,1.38-0.705,1.717-1.095c0.336-0.391,0.504-0.847,0.504-1.367
			c0-0.572-0.203-1.026-0.613-1.363c-0.41-0.336-0.976-0.505-1.691-0.505c-0.707,0-1.26,0.17-1.662,0.51
			C70.453,80.413,70.252,80.866,70.252,81.432z"/>
		<g>
			<path fill="#9A999E" d="M43.734,93.319c0.141-0.542,0.295-1.211,0.465-2.008c0.169-0.797,0.288-1.435,0.355-1.914h1.415
				l0.117,0.18c-0.135,0.521-0.329,1.126-0.583,1.816s-0.518,1.332-0.793,1.926H43.734z"/>
		</g>
	</g>
	<g>
		<path fill="#9A999E" d="M68.426,327.548c0-2.161,0.338-3.765,1.014-4.812c0.678-1.047,1.707-1.57,3.094-1.57
			c1.346,0,2.366,0.546,3.064,1.638c0.699,1.093,1.048,2.673,1.048,4.744c0,2.147-0.338,3.75-1.014,4.81
			c-0.676,1.062-1.709,1.59-3.103,1.59c-1.34,0-2.358-0.543-3.058-1.627C68.775,331.234,68.426,329.645,68.426,327.548z
			 M69.87,327.548c0,1.802,0.212,3.113,0.636,3.935c0.424,0.822,1.099,1.232,2.026,1.232c0.938,0,1.616-0.417,2.037-1.25
			c0.423-0.833,0.634-2.139,0.634-3.918c0-1.777-0.21-3.082-0.634-3.908c-0.421-0.828-1.101-1.242-2.037-1.242
			c-0.929,0-1.604,0.408-2.026,1.226C70.082,324.438,69.87,325.747,69.87,327.548z"/>
	</g>
	<g>
		<path fill="#FFFFFF" d="M154.6,272.294h-3.147v-8.621l0.029-1.417l0.053-1.549c-0.523,0.523-0.889,0.866-1.092,1.029l-1.712,1.375
			l-1.519-1.896l4.8-3.82h2.588V272.294z"/>
		<path fill="#FFFFFF" d="M175.092,272.294h-10.415v-2.19l3.74-3.78c1.105-1.136,1.831-1.921,2.171-2.359
			c0.339-0.438,0.584-0.844,0.731-1.218c0.149-0.374,0.226-0.762,0.226-1.162c0-0.6-0.165-1.042-0.494-1.335
			c-0.33-0.292-0.769-0.438-1.319-0.438c-0.578,0-1.138,0.131-1.682,0.396c-0.543,0.266-1.111,0.643-1.702,1.131l-1.712-2.027
			c0.733-0.625,1.341-1.065,1.824-1.326c0.48-0.258,1.009-0.456,1.58-0.596c0.569-0.139,1.209-0.209,1.916-0.209
			c0.931,0,1.752,0.17,2.466,0.51c0.714,0.342,1.267,0.815,1.661,1.429c0.394,0.61,0.591,1.312,0.591,2.099
			c0,0.688-0.121,1.33-0.361,1.932c-0.242,0.602-0.613,1.218-1.121,1.85c-0.506,0.632-1.396,1.531-2.675,2.701l-1.916,1.804v0.144
			h6.491V272.294L175.092,272.294z"/>
		<path fill="#FFFFFF" d="M187.005,272.294H176.59v-2.19l3.74-3.78c1.105-1.136,1.831-1.921,2.171-2.359
			c0.339-0.438,0.584-0.844,0.731-1.218c0.149-0.374,0.226-0.762,0.226-1.162c0-0.6-0.165-1.042-0.494-1.335
			c-0.33-0.292-0.771-0.438-1.319-0.438c-0.578,0-1.138,0.131-1.682,0.396c-0.543,0.266-1.111,0.643-1.702,1.131l-1.712-2.027
			c0.733-0.625,1.341-1.065,1.824-1.326c0.48-0.258,1.009-0.456,1.58-0.596c0.569-0.139,1.209-0.209,1.916-0.209
			c0.931,0,1.752,0.17,2.466,0.51c0.714,0.342,1.267,0.815,1.661,1.429c0.394,0.61,0.591,1.312,0.591,2.099
			c0,0.688-0.121,1.33-0.361,1.932c-0.242,0.602-0.615,1.218-1.121,1.85s-1.396,1.531-2.675,2.701l-1.916,1.804v0.144h6.491V272.294
			z"/>
		<path fill="#FFFFFF" d="M198.336,260.729c0,0.932-0.282,1.723-0.846,2.375c-0.564,0.651-1.355,1.102-2.374,1.346v0.062
			c1.2,0.149,2.111,0.517,2.729,1.097s0.927,1.363,0.927,2.349c0,1.433-0.52,2.549-1.559,3.347c-1.04,0.799-2.524,1.197-4.453,1.197
			c-1.617,0-3.05-0.268-4.3-0.805v-2.68c0.577,0.291,1.212,0.528,1.905,0.713c0.691,0.184,1.379,0.273,2.059,0.273
			c1.04,0,1.807-0.176,2.303-0.529s0.744-0.921,0.744-1.701c0-0.701-0.285-1.196-0.854-1.488c-0.571-0.292-1.481-0.438-2.731-0.438
			h-1.131v-2.416h1.152c1.153,0,1.997-0.151,2.53-0.453c0.533-0.303,0.8-0.819,0.8-1.555c0-1.127-0.705-1.691-2.118-1.691
			c-0.489,0-0.987,0.082-1.493,0.246c-0.506,0.162-1.068,0.444-1.688,0.847l-1.457-2.17c1.358-0.979,2.979-1.47,4.86-1.47
			c1.542,0,2.76,0.313,3.653,0.938C197.887,258.747,198.336,259.614,198.336,260.729z"/>
		<g>
			<path fill="#FFFFFF" d="M157.839,274.563c0.141-0.543,0.295-1.211,0.465-2.008c0.169-0.797,0.288-1.436,0.355-1.914h1.415
				l0.117,0.18c-0.135,0.521-0.329,1.126-0.583,1.816c-0.254,0.689-0.518,1.332-0.793,1.926H157.839z"/>
		</g>
	</g>
	<g>
		<path fill="#FFFFFF" d="M154.6,156.528h-3.147v-8.621l0.029-1.417l0.053-1.549c-0.523,0.523-0.889,0.866-1.092,1.029l-1.712,1.375
			l-1.519-1.895l4.8-3.821h2.588V156.528z"/>
		<path fill="#FFFFFF" d="M175.092,156.528h-10.415v-2.191l3.74-3.781c1.105-1.134,1.831-1.92,2.171-2.359
			c0.339-0.438,0.584-0.844,0.731-1.218c0.149-0.374,0.226-0.761,0.226-1.162c0-0.598-0.165-1.042-0.494-1.335
			c-0.33-0.292-0.769-0.438-1.319-0.438c-0.578,0-1.138,0.132-1.682,0.397c-0.543,0.265-1.111,0.642-1.702,1.131l-1.712-2.028
			c0.733-0.625,1.341-1.066,1.824-1.325c0.48-0.258,1.009-0.457,1.58-0.596c0.569-0.139,1.209-0.209,1.916-0.209
			c0.931,0,1.752,0.17,2.466,0.51c0.714,0.34,1.267,0.815,1.661,1.427c0.394,0.611,0.591,1.311,0.591,2.099
			c0,0.686-0.121,1.33-0.361,1.931c-0.242,0.601-0.613,1.217-1.121,1.849c-0.506,0.632-1.396,1.532-2.675,2.701l-1.916,1.804v0.143
			h6.491V156.528L175.092,156.528z"/>
		<path fill="#FFFFFF" d="M187.005,156.528H176.59v-2.191l3.74-3.781c1.105-1.134,1.831-1.92,2.171-2.359
			c0.339-0.438,0.584-0.844,0.731-1.218c0.149-0.374,0.226-0.761,0.226-1.162c0-0.598-0.165-1.042-0.494-1.335
			c-0.33-0.292-0.771-0.438-1.319-0.438c-0.578,0-1.138,0.132-1.682,0.397c-0.543,0.265-1.111,0.642-1.702,1.131l-1.712-2.028
			c0.733-0.625,1.341-1.066,1.824-1.325c0.48-0.258,1.009-0.457,1.58-0.596c0.569-0.139,1.209-0.209,1.916-0.209
			c0.931,0,1.752,0.17,2.466,0.51c0.714,0.34,1.267,0.815,1.661,1.427c0.394,0.611,0.591,1.311,0.591,2.099
			c0,0.686-0.121,1.33-0.361,1.931c-0.242,0.601-0.615,1.217-1.121,1.849s-1.396,1.532-2.675,2.701l-1.916,1.804v0.143h6.491
			V156.528z"/>
		<path fill="#FFFFFF" d="M193.924,147.011c1.438,0,2.586,0.404,3.438,1.212c0.854,0.809,1.279,1.916,1.279,3.322
			c0,1.665-0.513,2.945-1.539,3.842c-1.024,0.896-2.493,1.345-4.4,1.345c-1.658,0-2.996-0.268-4.017-0.805v-2.721
			c0.537,0.285,1.162,0.518,1.875,0.698c0.713,0.18,1.391,0.27,2.028,0.27c1.922,0,2.884-0.788,2.884-2.364
			c0-1.501-0.995-2.252-2.986-2.252c-0.358,0-0.757,0.036-1.19,0.107c-0.437,0.071-0.789,0.148-1.062,0.229l-1.253-0.672
			l0.563-7.592h8.081v2.669h-5.319l-0.275,2.925l0.357-0.071C192.799,147.058,193.313,147.011,193.924,147.011z"/>
		<g>
			<path fill="#FFFFFF" d="M157.839,158.794c0.141-0.542,0.295-1.211,0.465-2.008c0.169-0.797,0.288-1.435,0.355-1.914h1.415
				l0.117,0.18c-0.135,0.521-0.329,1.126-0.583,1.816s-0.518,1.332-0.793,1.926H157.839z"/>
		</g>
	</g>
	<g>
		<path fill="#87868A" d="M61.059,226.451H46.161v-4.208c0-1.978,0.295-3.407,0.885-4.29c0.591-0.885,1.521-1.325,2.799-1.325
			c0.883,0,1.611,0.246,2.186,0.739c0.573,0.492,0.945,1.211,1.115,2.154h0.104c0.388-2.248,1.578-3.373,3.569-3.373
			c1.332,0,2.371,0.449,3.118,1.349c0.748,0.897,1.121,2.153,1.121,3.769V226.451z M52.529,224.719v-2.853
			c0-1.224-0.189-2.103-0.572-2.64c-0.385-0.537-1.028-0.807-1.938-0.807c-0.834,0-1.436,0.299-1.805,0.896s-0.555,1.55-0.555,2.854
			v2.547L52.529,224.719L52.529,224.719z M59.581,224.719v-3.107c0-1.2-0.232-2.105-0.698-2.715
			c-0.465-0.607-1.193-0.912-2.188-0.912c-0.924,0-1.604,0.312-2.036,0.934c-0.437,0.621-0.652,1.566-0.652,2.838v2.965
			L59.581,224.719L59.581,224.719z"/>
		<path fill="#87868A" d="M46.864,213.326c-0.388,0-0.671-0.087-0.852-0.264c-0.18-0.177-0.27-0.396-0.27-0.657
			c0-0.294,0.092-0.546,0.272-0.759c0.186-0.211,0.466-0.317,0.847-0.317c0.382,0,0.664,0.106,0.853,0.317
			c0.187,0.213,0.28,0.465,0.28,0.759c0,0.264-0.096,0.48-0.28,0.657C47.528,213.239,47.244,213.326,46.864,213.326z
			 M61.059,213.184H49.891v-1.549h11.168V213.184z"/>
		<path fill="#87868A" d="M61.059,207.905H45.203v-1.691h15.854L61.059,207.905L61.059,207.905z"/>
		<path fill="#87868A" d="M61.059,202.627H45.203v-1.691h15.854L61.059,202.627L61.059,202.627z"/>
		<path fill="#87868A" d="M46.864,197.491c-0.388,0-0.671-0.089-0.852-0.265c-0.18-0.176-0.27-0.396-0.27-0.656
			c0-0.293,0.092-0.547,0.272-0.758c0.186-0.213,0.466-0.318,0.847-0.318c0.382,0,0.664,0.105,0.853,0.318
			c0.187,0.211,0.28,0.465,0.28,0.758c0,0.263-0.096,0.48-0.28,0.656C47.528,197.402,47.244,197.491,46.864,197.491z M61.059,197.35
			H49.891v-1.55h11.168V197.35z"/>
		<path fill="#87868A" d="M55.454,192.691c-1.817,0-3.232-0.455-4.247-1.361c-1.016-0.908-1.521-2.168-1.521-3.78
			c0-1.558,0.521-2.795,1.559-3.713c1.035-0.918,2.439-1.377,4.211-1.377c1.822,0,3.248,0.457,4.271,1.372
			c1.024,0.914,1.536,2.178,1.536,3.789c0,0.996-0.234,1.88-0.704,2.652c-0.47,0.771-1.144,1.367-2.021,1.787
			S56.632,192.691,55.454,192.691z M55.454,190.959c1.43,0,2.52-0.286,3.269-0.857c0.749-0.569,1.124-1.412,1.124-2.521
			s-0.373-1.951-1.119-2.526c-0.745-0.574-1.837-0.861-3.271-0.861c-1.423,0-2.504,0.287-3.243,0.861
			c-0.738,0.575-1.108,1.424-1.108,2.547c0,1.108,0.364,1.945,1.096,2.51C52.925,190.677,54.011,190.959,55.454,190.959z"/>
		<path fill="#87868A" d="M61.059,179.465H49.891v-1.376l1.509-0.275v-0.081c-0.544-0.347-0.966-0.832-1.265-1.457
			s-0.448-1.321-0.448-2.089c0-1.346,0.324-2.357,0.976-3.037c0.646-0.68,1.687-1.02,3.11-1.02h7.286v1.692H53.82
			c-0.91,0-1.593,0.207-2.042,0.621c-0.447,0.415-0.675,1.063-0.675,1.946c0,1.169,0.317,2.024,0.95,2.568
			c0.633,0.543,1.678,0.815,3.135,0.815h5.871V179.465z"/>
		<path fill="#87868A" d="M52.635,167.369c-0.911,0-1.63-0.37-2.157-1.109c-0.525-0.74-0.791-1.755-0.791-3.044
			c0-1.195,0.244-2.363,0.733-3.504l1.378,0.59c-0.463,1.117-0.695,2.13-0.695,3.037c0,0.803,0.127,1.409,0.379,1.817
			c0.251,0.408,0.601,0.612,1.041,0.612c0.3,0,0.558-0.076,0.769-0.229c0.211-0.153,0.412-0.399,0.603-0.74
			c0.191-0.341,0.467-0.994,0.827-1.961c0.483-1.324,0.971-2.215,1.461-2.671c0.49-0.457,1.106-0.686,1.849-0.686
			c1.034,0,1.832,0.386,2.395,1.155c0.562,0.771,0.842,1.852,0.842,3.243c0,1.479-0.229,2.631-0.692,3.458h-1.562
			c0.272-0.535,0.486-1.11,0.645-1.724c0.155-0.614,0.233-1.206,0.233-1.775c0-0.885-0.141-1.565-0.424-2.043
			c-0.282-0.477-0.713-0.715-1.292-0.715c-0.438,0-0.81,0.189-1.118,0.567c-0.308,0.378-0.676,1.114-1.098,2.211
			c-0.391,1.041-0.729,1.78-1.019,2.217c-0.29,0.436-0.618,0.76-0.984,0.974C53.585,167.263,53.146,167.369,52.635,167.369z"/>
		<path fill="#87868A" d="M59.321,151.736h-1.595c0.252-0.563,0.457-1.214,0.616-1.951c0.16-0.737,0.24-1.408,0.24-2.013h-4.484
			c-0.439,1.393-0.954,2.369-1.538,2.93c-0.585,0.561-1.339,0.841-2.263,0.841c-0.89,0-1.62-0.345-2.19-1.034
			c-0.569-0.689-0.918-1.602-1.04-2.736h-1.854v-1.335h1.834c0.034-1.246,0.286-2.448,0.755-3.607l1.335,0.53
			c-0.401,1.009-0.639,2.035-0.714,3.077h4.423c0.34-1.063,0.671-1.859,0.993-2.389c0.323-0.528,0.693-0.918,1.111-1.169
			c0.417-0.25,0.926-0.376,1.521-0.376c0.924,0,1.688,0.346,2.292,1.037c0.604,0.691,0.984,1.656,1.144,2.896h2.354v1.335h-2.263
			c0,0.761-0.062,1.498-0.182,2.212C59.7,150.697,59.534,151.281,59.321,151.736z M50.288,149.811c0.516,0,0.931-0.152,1.241-0.456
			c0.313-0.304,0.607-0.831,0.889-1.582h-3.944c0.109,0.669,0.321,1.177,0.637,1.521C49.427,149.639,49.819,149.811,50.288,149.811z
			 M58.48,146.438c-0.203-1.467-0.828-2.201-1.875-2.201c-0.487,0-0.885,0.15-1.187,0.452c-0.303,0.301-0.604,0.884-0.902,1.749
			H58.48z"/>
	</g>
	
		<line fill="none" stroke="#666666" stroke-width="0.25" stroke-miterlimit="10" x1="92.317" y1="85.746" x2="92.317" y2="333.777"/>
	
		<line fill="none" stroke="#666666" stroke-width="0.25" stroke-miterlimit="10" x1="223.027" y1="333.777" x2="78.597" y2="333.777"/>
	
		<line fill="none" stroke="#666666" stroke-width="0.25" stroke-miterlimit="10" x1="223.027" y1="85.746" x2="78.597" y2="85.746"/>
</g>
<g id="EU28-estimates">
	<g>
		<rect x="384.258" y="214.99" fill="#199598" width="100.497" height="118.787"/>
		<rect x="384.258" y="85.796" fill="#DD9B2B" width="100.497" height="129.194"/>
	</g>
	<g>
		<path fill="#9A999E" d="M306.778,88.166v-1.239l5.895-8.399h1.495v8.347h1.857v1.291h-1.857v2.845h-1.335v-2.845H306.778z
			 M308.202,86.875h4.629v-4.127c0-0.81,0.027-1.724,0.085-2.743h-0.066c-0.271,0.543-0.526,0.994-0.765,1.35L308.202,86.875z"/>
		<path fill="#9A999E" d="M317.274,82.583c0-1.287,0.361-2.303,1.086-3.048c0.727-0.745,1.677-1.118,2.858-1.118
			c0.846,0,1.586,0.216,2.219,0.649s1.12,1.063,1.461,1.892c0.341,0.828,0.511,1.805,0.511,2.931c0,4.861-1.883,7.292-5.646,7.292
			c-0.659,0-1.183-0.057-1.566-0.17v-1.229c0.454,0.17,0.97,0.255,1.549,0.255c1.356,0,2.381-0.422,3.073-1.266
			s1.07-2.138,1.133-3.882h-0.103c-0.313,0.476-0.726,0.838-1.237,1.088c-0.515,0.25-1.094,0.374-1.738,0.374
			c-1.103,0-1.978-0.331-2.625-0.993C317.598,84.694,317.274,83.77,317.274,82.583z M318.684,82.566c0,0.819,0.204,1.463,0.61,1.932
			c0.405,0.469,1.024,0.704,1.855,0.704c0.514,0,0.987-0.105,1.42-0.315c0.434-0.21,0.772-0.498,1.021-0.862
			c0.248-0.364,0.373-0.745,0.373-1.143c0-0.597-0.116-1.148-0.35-1.655c-0.229-0.506-0.556-0.904-0.971-1.194
			s-0.892-0.435-1.429-0.435c-0.811,0-1.435,0.262-1.874,0.785C318.904,80.906,318.684,81.634,318.684,82.566z"/>
		<path fill="#9A999E" d="M327.447,90.5v-1.364c0.396,0.254,0.891,0.453,1.479,0.597c0.588,0.144,1.169,0.216,1.738,0.216
			c0.996,0,1.771-0.234,2.322-0.703c0.553-0.468,0.828-1.146,0.828-2.031c0-1.727-1.063-2.59-3.188-2.59
			c-0.538,0-1.26,0.082-2.158,0.245l-0.731-0.466l0.475-5.808h6.174v1.291h-4.972l-0.313,3.736c0.651-0.119,1.3-0.178,1.945-0.178
			c1.309,0,2.338,0.322,3.089,0.966c0.75,0.644,1.126,1.525,1.126,2.644c0,1.288-0.409,2.297-1.229,3.029
			c-0.816,0.732-1.944,1.098-3.384,1.098C329.25,91.181,328.183,90.954,327.447,90.5z"/>
	</g>
	<g>
		<path fill="#9A999E" d="M327.184,327.548c0-2.161,0.338-3.765,1.014-4.812s1.706-1.57,3.092-1.57c1.349,0,2.368,0.546,3.067,1.638
			c0.698,1.093,1.047,2.673,1.047,4.744c0,2.147-0.338,3.75-1.014,4.81c-0.676,1.062-1.709,1.59-3.103,1.59
			c-1.34,0-2.357-0.543-3.058-1.627C327.531,331.234,327.184,329.645,327.184,327.548z M328.627,327.548
			c0,1.802,0.212,3.113,0.636,3.935c0.424,0.822,1.1,1.232,2.024,1.232c0.938,0,1.618-0.417,2.039-1.25s0.634-2.139,0.634-3.918
			c0-1.777-0.213-3.082-0.634-3.908c-0.421-0.828-1.101-1.242-2.039-1.242c-0.927,0-1.603,0.408-2.024,1.226
			C328.839,324.438,328.627,325.747,328.627,327.548z"/>
	</g>
	<g>
		<path fill="#FFFFFF" d="M427.075,272.294h-10.414v-2.19l3.739-3.78c1.107-1.136,1.831-1.921,2.171-2.359s0.584-0.844,0.733-1.218
			c0.147-0.374,0.225-0.762,0.225-1.162c0-0.6-0.165-1.042-0.494-1.335c-0.329-0.292-0.77-0.438-1.318-0.438
			c-0.577,0-1.14,0.131-1.683,0.396c-0.544,0.266-1.109,0.643-1.7,1.131l-1.714-2.027c0.733-0.625,1.344-1.065,1.824-1.326
			c0.482-0.258,1.009-0.456,1.579-0.596c0.57-0.139,1.209-0.209,1.916-0.209c0.931,0,1.753,0.17,2.466,0.51
			c0.714,0.342,1.269,0.815,1.661,1.429c0.396,0.61,0.591,1.312,0.591,2.099c0,0.688-0.12,1.33-0.359,1.932
			c-0.241,0.602-0.615,1.218-1.121,1.85s-1.397,1.531-2.675,2.701l-1.916,1.804v0.144h6.489V272.294L427.075,272.294z"/>
		<path fill="#FFFFFF" d="M438.406,260.729c0,0.932-0.281,1.723-0.846,2.375c-0.563,0.651-1.355,1.102-2.374,1.346v0.062
			c1.202,0.149,2.112,0.517,2.73,1.097c0.616,0.58,0.928,1.363,0.928,2.349c0,1.433-0.521,2.549-1.562,3.347
			c-1.039,0.799-2.521,1.197-4.453,1.197c-1.614,0-3.05-0.268-4.3-0.805v-2.68c0.577,0.291,1.213,0.528,1.905,0.713
			c0.693,0.184,1.379,0.273,2.059,0.273c1.039,0,1.809-0.176,2.305-0.529s0.744-0.921,0.744-1.701c0-0.701-0.285-1.196-0.855-1.488
			c-0.571-0.292-1.481-0.438-2.731-0.438h-1.131v-2.416h1.151c1.154,0,1.999-0.151,2.532-0.453c0.532-0.303,0.8-0.819,0.8-1.555
			c0-1.127-0.707-1.691-2.119-1.691c-0.489,0-0.987,0.082-1.493,0.246c-0.506,0.162-1.066,0.444-1.687,0.847l-1.457-2.17
			c1.356-0.979,2.979-1.47,4.858-1.47c1.542,0,2.762,0.313,3.653,0.938C437.962,258.745,438.406,259.614,438.406,260.729z"/>
		<path fill="#FFFFFF" d="M445.622,257.202c1.429,0,2.576,0.325,3.449,0.973c0.873,0.649,1.312,1.523,1.312,2.624
			c0,0.762-0.211,1.438-0.632,2.033c-0.424,0.594-1.103,1.126-2.038,1.595c1.112,0.599,1.914,1.222,2.397,1.87
			c0.486,0.648,0.729,1.36,0.729,2.135c0,1.223-0.479,2.207-1.438,2.95c-0.958,0.744-2.218,1.116-3.78,1.116
			c-1.631,0-2.909-0.346-3.842-1.039c-0.931-0.693-1.396-1.675-1.396-2.945c0-0.849,0.227-1.603,0.678-2.262
			c0.452-0.659,1.177-1.24,2.176-1.742c-0.85-0.537-1.461-1.111-1.834-1.722c-0.374-0.612-0.561-1.281-0.561-2.008
			c0-1.066,0.439-1.929,1.324-2.589C443.053,257.532,444.202,257.202,445.622,257.202z M443.301,268.33
			c0,0.584,0.203,1.039,0.609,1.365c0.407,0.326,0.964,0.488,1.671,0.488c0.781,0,1.365-0.168,1.755-0.505
			c0.387-0.336,0.579-0.778,0.579-1.329c0-0.455-0.19-0.882-0.574-1.279c-0.386-0.397-1.008-0.819-1.87-1.27
			C444.024,266.469,443.301,267.311,443.301,268.33z M445.604,259.505c-0.537,0-0.97,0.138-1.3,0.413
			c-0.329,0.275-0.494,0.645-0.494,1.105c0,0.408,0.131,0.771,0.393,1.096c0.264,0.322,0.735,0.654,1.424,0.993
			c0.663-0.313,1.131-0.632,1.396-0.958c0.266-0.326,0.397-0.703,0.397-1.131c0-0.469-0.171-0.84-0.511-1.111
			C446.568,259.641,446.134,259.505,445.604,259.505z"/>
	</g>
	<g>
		<path fill="#FFFFFF" d="M427.075,156.528h-10.414v-2.191l3.739-3.781c1.107-1.134,1.831-1.92,2.171-2.359
			c0.34-0.439,0.584-0.844,0.733-1.218c0.147-0.374,0.225-0.761,0.225-1.162c0-0.598-0.165-1.042-0.494-1.335
			c-0.329-0.292-0.77-0.438-1.318-0.438c-0.577,0-1.14,0.132-1.683,0.397c-0.544,0.265-1.109,0.642-1.7,1.131l-1.714-2.028
			c0.733-0.625,1.344-1.066,1.824-1.325c0.482-0.258,1.009-0.457,1.579-0.596c0.57-0.139,1.209-0.209,1.916-0.209
			c0.931,0,1.753,0.17,2.466,0.51c0.714,0.34,1.269,0.815,1.661,1.427c0.396,0.611,0.591,1.311,0.591,2.099
			c0,0.686-0.12,1.33-0.359,1.931c-0.241,0.601-0.615,1.217-1.121,1.849s-1.397,1.532-2.675,2.701l-1.916,1.804v0.143h6.489V156.528
			L427.075,156.528z"/>
		<path fill="#FFFFFF" d="M433.994,147.011c1.44,0,2.587,0.404,3.439,1.212c0.853,0.809,1.278,1.916,1.278,3.322
			c0,1.665-0.515,2.945-1.538,3.842c-1.026,0.896-2.493,1.345-4.402,1.345c-1.658,0-2.996-0.268-4.016-0.805v-2.721
			c0.537,0.285,1.162,0.518,1.875,0.698c0.714,0.18,1.39,0.27,2.026,0.27c1.925,0,2.886-0.788,2.886-2.364
			c0-1.501-0.995-2.252-2.985-2.252c-0.36,0-0.758,0.036-1.192,0.107c-0.434,0.071-0.788,0.148-1.06,0.229l-1.254-0.672l0.561-7.592
			h8.081v2.669h-5.317l-0.275,2.925l0.356-0.071C432.87,147.058,433.385,147.011,433.994,147.011z"/>
		<path fill="#FFFFFF" d="M441.966,156.528l5.594-12.229h-7.347v-2.649h10.688v1.977l-5.635,12.901H441.966z"/>
	</g>
	<g>
		<path fill="#87868A" d="M323.217,226.451h-14.898v-4.208c0-1.978,0.296-3.407,0.886-4.29c0.593-0.885,1.523-1.325,2.801-1.325
			c0.883,0,1.609,0.246,2.185,0.739c0.574,0.492,0.946,1.211,1.116,2.154h0.103c0.39-2.248,1.578-3.373,3.571-3.373
			c1.332,0,2.371,0.449,3.118,1.349s1.121,2.153,1.121,3.769L323.217,226.451L323.217,226.451z M314.688,224.719v-2.853
			c0-1.224-0.191-2.103-0.574-2.64s-1.027-0.807-1.938-0.807c-0.834,0-1.438,0.299-1.807,0.896c-0.367,0.598-0.555,1.55-0.555,2.854
			v2.547L314.688,224.719L314.688,224.719z M321.739,224.719v-3.107c0-1.2-0.23-2.105-0.696-2.715
			c-0.467-0.608-1.193-0.912-2.188-0.912c-0.924,0-1.604,0.312-2.038,0.934c-0.435,0.621-0.652,1.566-0.652,2.838v2.965
			L321.739,224.719L321.739,224.719z"/>
		<path fill="#87868A" d="M309.021,213.326c-0.387,0-0.671-0.087-0.851-0.264c-0.182-0.177-0.271-0.396-0.271-0.657
			c0-0.294,0.091-0.546,0.274-0.759c0.184-0.211,0.466-0.317,0.846-0.317c0.381,0,0.664,0.106,0.852,0.317
			c0.188,0.213,0.28,0.465,0.28,0.759c0,0.264-0.094,0.48-0.28,0.657C309.686,213.239,309.402,213.326,309.021,213.326z
			 M323.217,213.184h-11.169v-1.549h11.169V213.184z"/>
		<path fill="#87868A" d="M323.217,207.905H307.36v-1.691h15.856L323.217,207.905L323.217,207.905z"/>
		<path fill="#87868A" d="M323.217,202.627H307.36v-1.691h15.856L323.217,202.627L323.217,202.627z"/>
		<path fill="#87868A" d="M309.021,197.491c-0.387,0-0.671-0.089-0.851-0.265c-0.182-0.176-0.271-0.396-0.271-0.656
			c0-0.293,0.091-0.547,0.274-0.758c0.184-0.213,0.466-0.318,0.846-0.318c0.381,0,0.664,0.105,0.852,0.318
			c0.188,0.211,0.28,0.465,0.28,0.758c0,0.263-0.094,0.48-0.28,0.656C309.686,197.402,309.402,197.491,309.021,197.491z
			 M323.217,197.35h-11.169v-1.55h11.169V197.35z"/>
		<path fill="#87868A" d="M317.612,192.691c-1.815,0-3.231-0.455-4.247-1.361c-1.014-0.908-1.521-2.168-1.521-3.78
			c0-1.558,0.519-2.795,1.557-3.713c1.037-0.918,2.44-1.377,4.211-1.377c1.824,0,3.248,0.457,4.271,1.372
			c1.022,0.914,1.537,2.178,1.537,3.789c0,0.996-0.235,1.88-0.705,2.652c-0.471,0.771-1.145,1.367-2.021,1.787
			S318.787,192.691,317.612,192.691z M317.612,190.959c1.43,0,2.521-0.286,3.271-0.857c0.749-0.569,1.123-1.412,1.123-2.521
			s-0.372-1.951-1.118-2.526c-0.745-0.574-1.837-0.861-3.273-0.861c-1.423,0-2.504,0.287-3.243,0.861
			c-0.737,0.575-1.106,1.424-1.106,2.547c0,1.108,0.363,1.945,1.093,2.51C315.08,190.677,316.169,190.959,317.612,190.959z"/>
		<path fill="#87868A" d="M323.217,179.465h-11.169v-1.376l1.509-0.275v-0.081c-0.543-0.347-0.965-0.832-1.264-1.457
			c-0.301-0.625-0.448-1.321-0.448-2.089c0-1.346,0.324-2.357,0.973-3.037c0.649-0.68,1.688-1.02,3.113-1.02h7.286v1.692h-7.239
			c-0.913,0-1.594,0.207-2.043,0.621c-0.449,0.415-0.674,1.063-0.674,1.946c0,1.169,0.314,2.024,0.95,2.568
			c0.633,0.543,1.678,0.815,3.135,0.815h5.871V179.465z"/>
		<path fill="#87868A" d="M314.793,167.369c-0.911,0-1.633-0.37-2.158-1.109c-0.526-0.74-0.79-1.755-0.79-3.044
			c0-1.195,0.244-2.363,0.731-3.504l1.377,0.59c-0.463,1.117-0.692,2.13-0.692,3.037c0,0.803,0.126,1.409,0.378,1.817
			c0.252,0.408,0.6,0.612,1.042,0.612c0.3,0,0.555-0.076,0.766-0.229c0.212-0.153,0.412-0.399,0.604-0.74
			c0.188-0.341,0.466-0.994,0.827-1.961c0.481-1.324,0.97-2.215,1.46-2.671c0.489-0.457,1.105-0.686,1.849-0.686
			c1.035,0,1.832,0.386,2.394,1.155c0.563,0.771,0.844,1.852,0.844,3.243c0,1.479-0.231,2.631-0.693,3.458h-1.562
			c0.271-0.535,0.485-1.11,0.645-1.724c0.156-0.614,0.234-1.206,0.234-1.775c0-0.885-0.144-1.565-0.426-2.043
			c-0.28-0.477-0.713-0.715-1.292-0.715c-0.436,0-0.809,0.189-1.116,0.567c-0.313,0.378-0.678,1.114-1.101,2.211
			c-0.388,1.041-0.727,1.78-1.016,2.217c-0.29,0.436-0.618,0.76-0.986,0.974C315.741,167.263,315.304,167.369,314.793,167.369z"/>
		<path fill="#87868A" d="M321.479,151.736h-1.595c0.251-0.563,0.457-1.214,0.616-1.951c0.158-0.737,0.237-1.408,0.237-2.013h-4.481
			c-0.441,1.393-0.954,2.369-1.539,2.93c-0.584,0.561-1.338,0.841-2.264,0.841c-0.89,0-1.618-0.345-2.189-1.034
			c-0.57-0.689-0.917-1.602-1.039-2.736h-1.854v-1.335h1.834c0.034-1.246,0.285-2.448,0.756-3.607l1.335,0.53
			c-0.4,1.009-0.641,2.035-0.715,3.077h4.425c0.339-1.063,0.671-1.859,0.991-2.389c0.322-0.528,0.693-0.918,1.11-1.169
			c0.418-0.25,0.926-0.376,1.523-0.376c0.924,0,1.688,0.346,2.292,1.037c0.604,0.691,0.983,1.656,1.143,2.896h2.354v1.335h-2.264
			c0,0.761-0.061,1.498-0.18,2.212C321.857,150.697,321.691,151.281,321.479,151.736z M312.445,149.811
			c0.519,0,0.934-0.152,1.243-0.456c0.313-0.304,0.608-0.831,0.887-1.582h-3.941c0.106,0.669,0.319,1.177,0.637,1.521
			C311.585,149.639,311.977,149.811,312.445,149.811z M320.639,146.438c-0.204-1.467-0.829-2.201-1.875-2.201
			c-0.489,0-0.885,0.15-1.188,0.452c-0.302,0.301-0.603,0.884-0.899,1.749H320.639z"/>
	</g>
	<g>
		<path fill="#666565" d="M332.814,46.87V31.972h8.306v1.549h-6.571v4.769h6.176v1.549h-6.176v5.482h6.571v1.549H332.814z"/>
		<path fill="#666565" d="M344.269,41.571v-9.599h1.732v9.736c0,1.245,0.34,2.201,1.019,2.868c0.68,0.667,1.678,1,2.996,1
			c1.257,0,2.225-0.335,2.904-1.005c0.68-0.67,1.019-1.631,1.019-2.883v-9.715h1.732v9.64c0,1.699-0.515,3.034-1.538,4.005
			c-1.026,0.972-2.438,1.457-4.229,1.457s-3.181-0.489-4.162-1.467C344.759,44.628,344.269,43.283,344.269,41.571z"/>
		<path fill="#666565" d="M358.585,46.87v-1.438l3.924-3.959c1.193-1.214,1.981-2.08,2.362-2.599
			c0.382-0.518,0.665-1.023,0.855-1.514c0.19-0.491,0.285-1.02,0.285-1.586c0-0.798-0.241-1.431-0.725-1.898
			c-0.48-0.467-1.15-0.701-2.008-0.701c-0.618,0-1.204,0.103-1.758,0.307s-1.17,0.577-1.85,1.115l-0.896-1.156
			c1.372-1.122,2.866-1.683,4.483-1.683c1.397,0,2.497,0.357,3.291,1.07c0.795,0.713,1.19,1.671,1.19,2.875
			c0,0.948-0.265,1.886-0.795,2.814c-0.527,0.928-1.521,2.102-2.976,3.521l-3.261,3.203v0.082h7.662v1.549h-9.79V46.87H358.585z"/>
		<path fill="#666565" d="M370.56,43.069c0-1.705,1.046-3.033,3.137-3.984c-0.946-0.53-1.627-1.103-2.039-1.717
			c-0.412-0.614-0.618-1.303-0.618-2.063c0-1.08,0.401-1.941,1.204-2.583c0.805-0.642,1.877-0.963,3.226-0.963
			c1.361,0,2.441,0.316,3.241,0.948c0.798,0.632,1.194,1.505,1.194,2.619c0,0.733-0.229,1.403-0.688,2.007
			c-0.458,0.605-1.189,1.155-2.194,1.651c1.216,0.578,2.08,1.184,2.593,1.819c0.514,0.635,0.77,1.371,0.77,2.206
			c0,1.237-0.435,2.224-1.298,2.96c-0.865,0.737-2.054,1.105-3.56,1.105c-1.595,0-2.821-0.348-3.68-1.044
			C370.989,45.333,370.56,44.347,370.56,43.069z M372.251,43.11c0,0.815,0.281,1.451,0.85,1.906s1.362,0.683,2.386,0.683
			c1.011,0,1.798-0.238,2.36-0.713c0.563-0.476,0.845-1.127,0.845-1.957c0-0.659-0.265-1.245-0.793-1.758
			c-0.529-0.513-1.452-1.01-2.768-1.493c-1.013,0.435-1.743,0.916-2.198,1.442C372.479,41.746,372.251,42.376,372.251,43.11z
			 M372.73,35.375c0,0.625,0.2,1.162,0.6,1.61c0.4,0.449,1.142,0.897,2.22,1.345c0.97-0.407,1.654-0.846,2.06-1.314
			c0.404-0.468,0.605-1.016,0.605-1.641c0-0.686-0.246-1.231-0.737-1.635c-0.492-0.404-1.169-0.606-2.029-0.606
			c-0.848,0-1.513,0.204-1.994,0.611C372.972,34.152,372.73,34.696,372.73,35.375z"/>
		<path fill="#666565" d="M388.025,41.377c0-1.8,0.441-3.23,1.326-4.29c0.884-1.06,2.07-1.589,3.561-1.589
			c1.396,0,2.498,0.46,3.313,1.38c0.813,0.921,1.219,2.135,1.219,3.643v1.07h-7.684c0.032,1.311,0.363,2.306,0.995,2.985
			c0.63,0.68,1.516,1.019,2.657,1.019c1.198,0,2.386-0.251,3.558-0.754v1.508c-0.599,0.258-1.16,0.443-1.691,0.555
			c-0.532,0.112-1.174,0.168-1.926,0.168c-1.646,0-2.945-0.502-3.897-1.508S388.025,43.165,388.025,41.377z M389.799,40.216h5.849
			c0-1.066-0.238-1.883-0.715-2.451c-0.478-0.567-1.156-0.851-2.041-0.851c-0.898,0-1.614,0.292-2.148,0.876
			C390.206,38.375,389.894,39.183,389.799,40.216z"/>
		<path fill="#666565" d="M399.643,38.446c0-0.911,0.37-1.63,1.109-2.158c0.738-0.527,1.754-0.791,3.044-0.791
			c1.193,0,2.361,0.244,3.504,0.733l-0.59,1.377c-1.117-0.463-2.132-0.695-3.037-0.695c-0.806,0-1.409,0.126-1.817,0.378
			c-0.409,0.251-0.613,0.599-0.613,1.042c0,0.3,0.077,0.555,0.23,0.766c0.152,0.211,0.397,0.412,0.74,0.603
			c0.34,0.191,0.994,0.467,1.961,0.828c1.324,0.483,2.215,0.97,2.671,1.46c0.457,0.49,0.686,1.104,0.686,1.849
			c0,1.034-0.386,1.832-1.153,2.393c-0.771,0.561-1.854,0.841-3.243,0.841c-1.479,0-2.631-0.23-3.459-0.693V44.82
			c0.536,0.272,1.108,0.487,1.725,0.644c0.613,0.157,1.205,0.235,1.775,0.235c0.885,0,1.563-0.141,2.042-0.424
			c0.477-0.283,0.715-0.713,0.715-1.292c0-0.436-0.188-0.809-0.566-1.119c-0.378-0.31-1.113-0.676-2.211-1.098
			c-1.042-0.388-1.779-0.727-2.217-1.017s-0.761-0.618-0.974-0.986C399.747,39.396,399.643,38.957,399.643,38.446z"/>
		<path fill="#666565" d="M408.831,37.016v-0.815l1.603-0.703l0.713-2.385h0.979v2.588h3.238v1.314h-3.238v6.588
			c0,0.674,0.157,1.191,0.479,1.552c0.319,0.361,0.758,0.542,1.314,0.542c0.299,0,0.588-0.022,0.864-0.066
			c0.279-0.044,0.5-0.09,0.663-0.138v1.278c-0.184,0.087-0.454,0.159-0.811,0.216c-0.356,0.057-0.679,0.085-0.963,0.085
			c-2.16,0-3.24-1.138-3.24-3.414v-6.644h-1.603L408.831,37.016L408.831,37.016z"/>
		<path fill="#666565" d="M417.534,32.675c0-0.387,0.088-0.671,0.266-0.851c0.175-0.18,0.395-0.27,0.657-0.27
			c0.293,0,0.546,0.092,0.758,0.275c0.213,0.184,0.317,0.466,0.317,0.846c0,0.38-0.104,0.664-0.317,0.851
			c-0.212,0.187-0.465,0.28-0.758,0.28c-0.265,0-0.482-0.093-0.657-0.28C417.622,33.339,417.534,33.056,417.534,32.675z
			 M417.68,46.87V35.702h1.549V46.87H417.68z"/>
		<path fill="#666565" d="M422.956,46.87V35.702h1.375l0.275,1.509h0.081c0.319-0.537,0.771-0.957,1.351-1.259
			c0.581-0.302,1.231-0.453,1.951-0.453c1.746,0,2.89,0.625,3.424,1.876h0.082c0.333-0.579,0.815-1.036,1.447-1.372
			s1.354-0.504,2.16-0.504c1.264,0,2.209,0.324,2.838,0.973c0.628,0.648,0.942,1.687,0.942,3.113v7.286h-1.691V39.59
			c0-0.892-0.188-1.561-0.57-2.006c-0.381-0.446-0.972-0.669-1.771-0.669c-1.053,0-1.831,0.303-2.334,0.909
			c-0.503,0.605-0.754,1.538-0.754,2.798v6.249h-1.691V39.59c0-0.892-0.188-1.561-0.57-2.006c-0.381-0.446-0.976-0.669-1.781-0.669
			c-1.063,0-1.836,0.318-2.329,0.955c-0.492,0.637-0.738,1.68-0.738,3.13v5.871L422.956,46.87L422.956,46.87z"/>
		<path fill="#666565" d="M441.532,43.794c0-2.25,1.808-3.429,5.418-3.537l1.898-0.062v-0.702c0-0.887-0.188-1.542-0.564-1.965
			c-0.377-0.423-0.979-0.634-1.806-0.634c-0.929,0-1.979,0.289-3.153,0.866l-0.523-1.298c0.551-0.294,1.151-0.525,1.809-0.692
			c0.655-0.167,1.313-0.251,1.972-0.251c1.33,0,2.316,0.295,2.957,0.887c0.644,0.591,0.964,1.539,0.964,2.843v7.622h-1.255
			l-0.336-1.571h-0.082c-0.556,0.693-1.108,1.162-1.661,1.407c-0.555,0.246-1.242,0.368-2.069,0.368
			c-1.113,0-1.985-0.284-2.616-0.853C441.85,45.652,441.532,44.843,441.532,43.794z M443.325,43.814
			c0,0.615,0.188,1.082,0.557,1.403c0.368,0.321,0.887,0.481,1.551,0.481c1.052,0,1.877-0.29,2.477-0.87
			c0.603-0.581,0.9-1.393,0.9-2.437v-1.014l-1.688,0.071c-1.343,0.048-2.311,0.258-2.901,0.63
			C443.622,42.451,443.325,43.029,443.325,43.814z"/>
		<path fill="#666565" d="M452.496,37.016v-0.815l1.603-0.703l0.713-2.385h0.979v2.588h3.238v1.314h-3.238v6.588
			c0,0.674,0.157,1.191,0.479,1.552c0.319,0.361,0.758,0.542,1.314,0.542c0.299,0,0.588-0.022,0.864-0.066
			c0.279-0.044,0.5-0.09,0.663-0.138v1.278c-0.184,0.087-0.454,0.159-0.811,0.216c-0.356,0.057-0.68,0.085-0.963,0.085
			c-2.16,0-3.24-1.138-3.24-3.414v-6.644h-1.603L452.496,37.016L452.496,37.016z"/>
		<path fill="#666565" d="M460.723,41.377c0-1.8,0.439-3.23,1.326-4.29c0.884-1.06,2.068-1.589,3.561-1.589
			c1.396,0,2.498,0.46,3.313,1.38c0.813,0.921,1.219,2.135,1.219,3.643v1.07h-7.686c0.034,1.311,0.365,2.306,0.995,2.985
			c0.63,0.68,1.518,1.019,2.659,1.019c1.198,0,2.384-0.251,3.556-0.754v1.508c-0.597,0.258-1.158,0.443-1.689,0.555
			c-0.532,0.112-1.174,0.168-1.926,0.168c-1.646,0-2.945-0.502-3.897-1.508S460.723,43.165,460.723,41.377z M462.494,40.216h5.851
			c0-1.066-0.238-1.883-0.715-2.451c-0.478-0.567-1.156-0.851-2.041-0.851c-0.898,0-1.614,0.292-2.148,0.876
			C462.905,38.375,462.591,39.183,462.494,40.216z"/>
		<path fill="#666565" d="M472.339,38.446c0-0.911,0.37-1.63,1.107-2.158c0.74-0.527,1.754-0.791,3.044-0.791
			c1.195,0,2.363,0.244,3.504,0.733l-0.59,1.377c-1.117-0.463-2.13-0.695-3.037-0.695c-0.804,0-1.407,0.126-1.815,0.378
			c-0.409,0.251-0.613,0.599-0.613,1.042c0,0.3,0.077,0.555,0.23,0.766c0.15,0.211,0.397,0.412,0.738,0.603
			c0.34,0.191,0.994,0.467,1.961,0.828c1.324,0.483,2.217,0.97,2.673,1.46c0.455,0.49,0.686,1.104,0.686,1.849
			c0,1.034-0.386,1.832-1.155,2.393c-0.771,0.561-1.852,0.841-3.243,0.841c-1.479,0-2.631-0.23-3.459-0.693V44.82
			c0.536,0.272,1.11,0.487,1.727,0.644c0.611,0.157,1.205,0.235,1.773,0.235c0.887,0,1.565-0.141,2.042-0.424
			c0.479-0.283,0.717-0.713,0.717-1.292c0-0.436-0.188-0.809-0.566-1.119c-0.378-0.31-1.115-0.676-2.211-1.098
			c-1.042-0.388-1.78-0.727-2.217-1.017c-0.438-0.29-0.763-0.618-0.976-0.986C472.445,39.396,472.339,38.957,472.339,38.446z"/>
	</g>
	
		<line fill="none" stroke="#666666" stroke-width="0.25" stroke-miterlimit="10" x1="354.045" y1="85.746" x2="354.045" y2="333.777"/>
	
		<line fill="none" stroke="#666666" stroke-width="0.25" stroke-miterlimit="10" x1="484.756" y1="333.777" x2="340.323" y2="333.777"/>
	
		<line fill="none" stroke="#666666" stroke-width="0.25" stroke-miterlimit="10" x1="484.756" y1="85.746" x2="340.323" y2="85.746"/>
</g>
<g id="legend">
	<g>
		<path fill="#5B5B5F" d="M592.47,179.413c0-1.278,0.234-2.398,0.71-3.36c0.473-0.961,1.16-1.703,2.063-2.223
			c0.902-0.521,1.965-0.781,3.188-0.781c1.303,0,2.438,0.238,3.414,0.713l-0.611,1.239c-0.938-0.441-1.88-0.662-2.819-0.662
			c-1.362,0-2.439,0.454-3.229,1.362c-0.789,0.908-1.187,2.151-1.187,3.729c0,1.624,0.383,2.878,1.145,3.763
			c0.761,0.885,1.847,1.328,3.257,1.328c0.865,0,1.854-0.155,2.963-0.468v1.271c-0.858,0.325-1.922,0.487-3.185,0.487
			c-1.828,0-3.236-0.557-4.227-1.666C592.964,183.036,592.47,181.458,592.47,179.413z"/>
		<path fill="#5B5B5F" d="M603.356,180.971c0-1.515,0.378-2.694,1.135-3.539c0.756-0.845,1.808-1.268,3.149-1.268
			c1.298,0,2.33,0.433,3.095,1.297c0.766,0.864,1.146,2.034,1.146,3.509c0,1.521-0.381,2.707-1.145,3.56
			c-0.762,0.854-1.813,1.281-3.158,1.281c-0.83,0-1.564-0.195-2.21-0.588c-0.644-0.392-1.14-0.953-1.487-1.685
			C603.531,182.809,603.356,181.952,603.356,180.971z M604.8,180.971c0,1.191,0.236,2.1,0.715,2.725
			c0.476,0.623,1.176,0.937,2.101,0.937c0.924,0,1.626-0.312,2.104-0.932c0.479-0.622,0.719-1.531,0.719-2.729
			c0-1.186-0.239-2.087-0.719-2.703c-0.479-0.616-1.188-0.923-2.122-0.923c-0.924,0-1.621,0.303-2.092,0.911
			C605.033,178.863,604.8,179.768,604.8,180.971z"/>
		<path fill="#5B5B5F" d="M613.782,178.622c0-0.759,0.31-1.359,0.925-1.798c0.616-0.439,1.463-0.659,2.536-0.659
			c0.995,0,1.971,0.204,2.92,0.611l-0.49,1.148c-0.933-0.386-1.774-0.579-2.53-0.579c-0.67,0-1.175,0.105-1.516,0.315
			c-0.342,0.21-0.512,0.499-0.512,0.868c0,0.25,0.063,0.462,0.191,0.638s0.333,0.343,0.617,0.502
			c0.281,0.159,0.826,0.389,1.634,0.689c1.104,0.401,1.846,0.809,2.227,1.217c0.38,0.408,0.57,0.922,0.57,1.541
			c0,0.861-0.32,1.527-0.963,1.994c-0.644,0.468-1.542,0.701-2.702,0.701c-1.231,0-2.192-0.191-2.882-0.578v-1.301
			c0.444,0.228,0.925,0.405,1.437,0.535c0.514,0.133,1.005,0.196,1.479,0.196c0.735,0,1.305-0.118,1.702-0.354
			c0.396-0.233,0.596-0.594,0.596-1.076c0-0.362-0.157-0.674-0.473-0.933c-0.314-0.258-0.931-0.563-1.844-0.915
			c-0.867-0.324-1.482-0.605-1.848-0.847c-0.365-0.242-0.634-0.515-0.813-0.821C613.871,179.414,613.782,179.047,613.782,178.622z"
			/>
		<path fill="#5B5B5F" d="M621.444,177.43v-0.68l1.333-0.586l0.594-1.987h0.815v2.157h2.7v1.096h-2.7v5.49
			c0,0.563,0.133,0.993,0.398,1.294c0.267,0.302,0.632,0.451,1.097,0.451c0.249,0,0.489-0.019,0.722-0.056
			c0.231-0.036,0.416-0.074,0.552-0.114v1.065c-0.15,0.071-0.378,0.133-0.675,0.181c-0.298,0.047-0.563,0.071-0.803,0.071
			c-1.8,0-2.7-0.948-2.7-2.847v-5.537L621.444,177.43L621.444,177.43z"/>
		<path fill="#5B5B5F" d="M633.33,185.643v-9.308h1.146l0.229,1.257h0.068c0.288-0.453,0.693-0.804,1.214-1.054
			c0.521-0.249,1.104-0.374,1.741-0.374c1.121,0,1.964,0.271,2.53,0.811c0.564,0.54,0.85,1.405,0.85,2.593v6.072h-1.41v-6.033
			c0-0.759-0.173-1.326-0.518-1.701c-0.346-0.375-0.887-0.563-1.622-0.563c-0.974,0-1.688,0.264-2.14,0.791
			c-0.453,0.528-0.682,1.398-0.682,2.613v4.894h-1.408L633.33,185.643L633.33,185.643z"/>
		<path fill="#5B5B5F" d="M643.488,180.971c0-1.515,0.378-2.694,1.135-3.539c0.758-0.845,1.808-1.268,3.149-1.268
			c1.298,0,2.33,0.433,3.095,1.297c0.767,0.864,1.146,2.034,1.146,3.509c0,1.521-0.381,2.707-1.145,3.56
			c-0.762,0.854-1.813,1.281-3.157,1.281c-0.829,0-1.565-0.195-2.211-0.588c-0.644-0.392-1.14-0.953-1.487-1.685
			C643.661,182.809,643.488,181.952,643.488,180.971z M644.932,180.971c0,1.191,0.238,2.1,0.715,2.725
			c0.477,0.623,1.176,0.937,2.102,0.937c0.925,0,1.625-0.312,2.104-0.932c0.479-0.622,0.719-1.531,0.719-2.729
			c0-1.186-0.237-2.087-0.719-2.703c-0.479-0.616-1.188-0.923-2.122-0.923c-0.924,0-1.621,0.303-2.092,0.911
			C645.166,178.863,644.932,179.768,644.932,180.971z"/>
		<path fill="#5B5B5F" d="M654.511,185.643v-9.308h1.146l0.229,1.257h0.066c0.288-0.453,0.693-0.804,1.216-1.054
			c0.521-0.249,1.102-0.374,1.739-0.374c1.121,0,1.964,0.271,2.53,0.811s0.85,1.405,0.85,2.593v6.072h-1.408v-6.033
			c0-0.759-0.175-1.326-0.52-1.701c-0.346-0.375-0.887-0.563-1.622-0.563c-0.974,0-1.688,0.264-2.14,0.791
			c-0.453,0.528-0.68,1.398-0.68,2.613v4.894h-1.408L654.511,185.643L654.511,185.643z"/>
		<path fill="#5B5B5F" d="M664.403,181.625v-1.291h4.17v1.291H664.403z"/>
		<path fill="#5B5B5F" d="M669.531,177.43v-0.637l1.665-0.509v-0.516c0-2.277,0.999-3.416,2.997-3.416
			c0.492,0,1.07,0.098,1.732,0.292l-0.365,1.117c-0.543-0.176-1.008-0.264-1.393-0.264c-0.532,0-0.928,0.177-1.183,0.531
			s-0.382,0.921-0.382,1.703v0.603h2.369v1.096h-2.369v8.21h-1.409v-8.21H669.531z"/>
		<path fill="#5B5B5F" d="M675.979,183.078c0-1.875,1.506-2.857,4.516-2.948l1.582-0.052v-0.584c0-0.739-0.155-1.285-0.471-1.637
			s-0.815-0.529-1.505-0.529c-0.773,0-1.649,0.241-2.627,0.722l-0.438-1.082c0.459-0.246,0.961-0.438,1.508-0.577
			c0.548-0.14,1.096-0.209,1.645-0.209c1.107,0,1.93,0.246,2.465,0.739c0.534,0.493,0.802,1.282,0.802,2.369v6.353h-1.045
			l-0.278-1.311h-0.068c-0.463,0.578-0.925,0.968-1.386,1.173c-0.46,0.204-1.035,0.308-1.727,0.308c-0.927,0-1.652-0.236-2.18-0.711
			C676.24,184.626,675.979,183.953,675.979,183.078z M677.474,183.095c0,0.513,0.153,0.901,0.462,1.169
			c0.308,0.269,0.738,0.401,1.292,0.401c0.876,0,1.563-0.242,2.063-0.726c0.5-0.484,0.75-1.16,0.75-2.03v-0.845l-1.405,0.061
			c-1.118,0.04-1.927,0.215-2.42,0.525C677.721,181.96,677.474,182.441,677.474,183.095z"/>
		<path fill="#5B5B5F" d="M685.115,177.43v-0.68l1.333-0.586l0.596-1.987h0.813v2.157h2.7v1.096h-2.7v5.49
			c0,0.563,0.133,0.993,0.399,1.294c0.266,0.302,0.631,0.451,1.096,0.451c0.249,0,0.489-0.019,0.722-0.056
			c0.231-0.036,0.416-0.074,0.554-0.114v1.065c-0.152,0.071-0.38,0.133-0.677,0.181c-0.298,0.047-0.563,0.071-0.803,0.071
			c-1.8,0-2.7-0.948-2.7-2.847v-5.537L685.115,177.43L685.115,177.43z"/>
		<path fill="#5B5B5F" d="M691.788,183.078c0-1.875,1.508-2.857,4.518-2.948l1.582-0.052v-0.584c0-0.739-0.157-1.285-0.472-1.637
			c-0.313-0.352-0.814-0.529-1.506-0.529c-0.771,0-1.647,0.241-2.627,0.722l-0.438-1.082c0.459-0.246,0.961-0.438,1.508-0.577
			c0.546-0.14,1.094-0.209,1.643-0.209c1.108,0,1.932,0.246,2.467,0.739c0.532,0.493,0.802,1.282,0.802,2.369v6.353h-1.045
			l-0.28-1.311h-0.068c-0.463,0.578-0.925,0.968-1.386,1.173c-0.46,0.204-1.035,0.308-1.725,0.308c-0.927,0-1.654-0.236-2.182-0.711
			C692.054,184.626,691.788,183.953,691.788,183.078z M693.283,183.095c0,0.513,0.153,0.901,0.462,1.169
			c0.31,0.269,0.738,0.401,1.292,0.401c0.876,0,1.564-0.242,2.064-0.726c0.5-0.484,0.75-1.16,0.75-2.03v-0.845l-1.407,0.061
			c-1.118,0.04-1.926,0.215-2.42,0.525C693.531,181.96,693.283,182.441,693.283,183.095z"/>
		<path fill="#5B5B5F" d="M702.156,185.643V172.43h1.41v13.212H702.156z"/>
		<path fill="#5B5B5F" d="M710.558,181.047c0-1.557,0.372-2.76,1.116-3.609c0.745-0.849,1.811-1.274,3.195-1.274
			c0.447,0,0.896,0.048,1.344,0.145c0.445,0.097,0.799,0.209,1.054,0.34l-0.435,1.197c-0.313-0.125-0.65-0.228-1.02-0.31
			s-0.694-0.123-0.977-0.123c-1.894,0-2.837,1.206-2.837,3.618c0,1.144,0.229,2.021,0.69,2.632c0.461,0.61,1.146,0.917,2.051,0.917
			c0.775,0,1.571-0.167,2.388-0.501v1.249c-0.622,0.322-1.406,0.484-2.354,0.484c-1.348,0-2.388-0.416-3.121-1.244
			C710.924,183.738,710.558,182.564,710.558,181.047z"/>
		<path fill="#5B5B5F" d="M718.656,183.078c0-1.875,1.506-2.857,4.518-2.948l1.582-0.052v-0.584c0-0.739-0.157-1.285-0.473-1.637
			c-0.313-0.352-0.813-0.529-1.505-0.529c-0.771,0-1.647,0.241-2.627,0.722l-0.438-1.082c0.459-0.246,0.961-0.438,1.508-0.577
			c0.546-0.14,1.094-0.209,1.643-0.209c1.108,0,1.932,0.246,2.465,0.739c0.534,0.493,0.804,1.282,0.804,2.369v6.353h-1.045
			l-0.28-1.311h-0.068c-0.463,0.578-0.925,0.968-1.386,1.173c-0.46,0.204-1.035,0.308-1.725,0.308c-0.929,0-1.654-0.236-2.182-0.711
			C718.922,184.626,718.656,183.953,718.656,183.078z M720.153,183.095c0,0.513,0.153,0.901,0.462,1.169
			c0.31,0.269,0.738,0.401,1.292,0.401c0.876,0,1.564-0.242,2.064-0.726c0.5-0.484,0.75-1.16,0.75-2.03v-0.845l-1.407,0.061
			c-1.118,0.04-1.926,0.215-2.42,0.525C720.4,181.96,720.153,182.441,720.153,183.095z"/>
		<path fill="#5B5B5F" d="M728.433,178.622c0-0.759,0.308-1.359,0.924-1.798c0.617-0.439,1.462-0.659,2.537-0.659
			c0.995,0,1.969,0.204,2.92,0.611l-0.492,1.148c-0.931-0.386-1.772-0.579-2.53-0.579c-0.67,0-1.175,0.105-1.515,0.315
			c-0.341,0.21-0.511,0.499-0.511,0.868c0,0.25,0.063,0.462,0.189,0.638s0.333,0.343,0.617,0.502
			c0.283,0.159,0.828,0.389,1.634,0.689c1.104,0.401,1.848,0.809,2.229,1.217c0.38,0.408,0.569,0.922,0.569,1.541
			c0,0.861-0.319,1.527-0.964,1.994c-0.642,0.468-1.542,0.701-2.7,0.701c-1.231,0-2.192-0.191-2.884-0.578v-1.301
			c0.446,0.228,0.927,0.405,1.438,0.535c0.512,0.133,1.005,0.196,1.479,0.196c0.737,0,1.307-0.118,1.702-0.354
			c0.397-0.233,0.598-0.594,0.598-1.076c0-0.362-0.157-0.674-0.475-0.933c-0.313-0.258-0.929-0.563-1.842-0.915
			c-0.868-0.324-1.484-0.605-1.848-0.847c-0.364-0.241-0.636-0.515-0.813-0.821C728.521,179.414,728.433,179.047,728.433,178.622z"
			/>
		<path fill="#5B5B5F" d="M736.806,181.064c0-1.5,0.368-2.692,1.104-3.575c0.736-0.883,1.728-1.325,2.97-1.325
			c1.16,0,2.082,0.384,2.759,1.151s1.016,1.779,1.016,3.037v0.893h-6.401c0.026,1.093,0.305,1.922,0.828,2.486
			c0.524,0.566,1.265,0.851,2.218,0.851c0.999,0,1.984-0.209,2.963-0.628v1.257c-0.497,0.215-0.967,0.37-1.41,0.463
			c-0.443,0.095-0.979,0.142-1.604,0.142c-1.37,0-2.452-0.42-3.248-1.258C737.203,183.718,736.806,182.555,736.806,181.064z
			 M738.281,180.096h4.874c0-0.889-0.196-1.569-0.595-2.042c-0.396-0.473-0.965-0.709-1.702-0.709c-0.748,0-1.345,0.243-1.79,0.73
			C738.625,178.563,738.362,179.236,738.281,180.096z"/>
		<path fill="#5B5B5F" d="M746.486,178.622c0-0.759,0.31-1.359,0.924-1.798c0.617-0.439,1.462-0.659,2.537-0.659
			c0.995,0,1.97,0.204,2.92,0.611l-0.491,1.148c-0.932-0.386-1.773-0.579-2.529-0.579c-0.67,0-1.175,0.105-1.517,0.315
			c-0.341,0.21-0.511,0.499-0.511,0.868c0,0.25,0.063,0.462,0.191,0.638s0.333,0.343,0.617,0.502
			c0.281,0.159,0.826,0.389,1.634,0.689c1.104,0.401,1.846,0.809,2.227,1.217c0.38,0.408,0.57,0.922,0.57,1.541
			c0,0.861-0.32,1.527-0.963,1.994c-0.644,0.468-1.542,0.701-2.702,0.701c-1.231,0-2.192-0.191-2.882-0.578v-1.301
			c0.444,0.228,0.925,0.405,1.437,0.535c0.512,0.133,1.005,0.196,1.479,0.196c0.735,0,1.305-0.118,1.702-0.354
			c0.396-0.233,0.596-0.594,0.596-1.076c0-0.362-0.157-0.674-0.475-0.933c-0.313-0.258-0.929-0.563-1.842-0.915
			c-0.868-0.324-1.482-0.605-1.848-0.847c-0.365-0.242-0.634-0.515-0.813-0.821C746.573,179.414,746.486,179.047,746.486,178.622z"
			/>
	</g>
	<g>
		<path fill="#5B5B5F" d="M592.47,222.102c0-1.276,0.234-2.396,0.71-3.358c0.473-0.961,1.16-1.703,2.063-2.224
			s1.965-0.78,3.188-0.78c1.303,0,2.438,0.237,3.414,0.713l-0.611,1.237c-0.938-0.439-1.88-0.662-2.819-0.662
			c-1.362,0-2.439,0.455-3.229,1.363c-0.789,0.907-1.187,2.15-1.187,3.729c0,1.624,0.383,2.878,1.145,3.763
			c0.761,0.887,1.847,1.328,3.257,1.328c0.865,0,1.854-0.154,2.963-0.466v1.271c-0.858,0.324-1.922,0.486-3.185,0.486
			c-1.828,0-3.236-0.556-4.227-1.666C592.964,225.725,592.47,224.146,592.47,222.102z"/>
		<path fill="#5B5B5F" d="M603.356,223.661c0-1.515,0.378-2.694,1.135-3.539c0.756-0.845,1.808-1.269,3.149-1.269
			c1.298,0,2.33,0.434,3.095,1.297c0.766,0.865,1.146,2.035,1.146,3.51c0,1.52-0.381,2.707-1.145,3.56
			c-0.762,0.854-1.813,1.28-3.158,1.28c-0.83,0-1.564-0.196-2.21-0.587c-0.644-0.392-1.14-0.953-1.487-1.685
			C603.531,225.498,603.356,224.643,603.356,223.661z M604.8,223.661c0,1.19,0.236,2.1,0.715,2.724
			c0.476,0.624,1.176,0.936,2.101,0.936c0.924,0,1.626-0.311,2.104-0.932c0.478-0.621,0.719-1.531,0.719-2.728
			c0-1.187-0.239-2.087-0.719-2.703c-0.48-0.616-1.188-0.923-2.122-0.923c-0.924,0-1.621,0.303-2.092,0.91
			C605.033,221.552,604.8,222.458,604.8,223.661z"/>
		<path fill="#5B5B5F" d="M613.782,221.311c0-0.759,0.31-1.357,0.925-1.797c0.616-0.438,1.463-0.66,2.536-0.66
			c0.995,0,1.971,0.205,2.92,0.611l-0.49,1.148c-0.933-0.387-1.774-0.579-2.53-0.579c-0.67,0-1.175,0.104-1.516,0.315
			c-0.342,0.209-0.512,0.498-0.512,0.866c0,0.25,0.063,0.464,0.191,0.64s0.333,0.343,0.617,0.502
			c0.281,0.158,0.826,0.389,1.634,0.688c1.104,0.403,1.846,0.811,2.227,1.219c0.38,0.407,0.57,0.922,0.57,1.539
			c0,0.862-0.32,1.527-0.963,1.995c-0.644,0.468-1.542,0.701-2.702,0.701c-1.231,0-2.192-0.19-2.882-0.578v-1.301
			c0.444,0.228,0.925,0.405,1.437,0.536c0.514,0.131,1.005,0.195,1.479,0.195c0.735,0,1.305-0.119,1.702-0.354
			c0.396-0.234,0.596-0.594,0.596-1.077c0-0.362-0.157-0.673-0.473-0.932c-0.314-0.259-0.931-0.563-1.844-0.915
			c-0.867-0.324-1.482-0.606-1.848-0.848c-0.364-0.24-0.634-0.516-0.813-0.82C613.871,222.104,613.782,221.736,613.782,221.311z"/>
		<path fill="#5B5B5F" d="M621.444,220.12v-0.681l1.333-0.586l0.594-1.986h0.815v2.156h2.7v1.097h-2.7v5.489
			c0,0.563,0.133,0.994,0.398,1.295c0.267,0.301,0.632,0.451,1.097,0.451c0.249,0,0.489-0.021,0.722-0.057
			c0.231-0.035,0.416-0.074,0.552-0.113v1.064c-0.15,0.072-0.378,0.132-0.675,0.182c-0.298,0.047-0.563,0.069-0.803,0.069
			c-1.8,0-2.7-0.946-2.7-2.845v-5.537L621.444,220.12L621.444,220.12z"/>
		<path fill="#5B5B5F" d="M632.084,220.12v-0.638l1.663-0.508v-0.518c0-2.275,0.999-3.416,2.997-3.416c0.492,0,1.07,0.1,1.732,0.292
			l-0.365,1.117c-0.543-0.177-1.008-0.265-1.393-0.265c-0.532,0-0.928,0.178-1.183,0.53c-0.255,0.354-0.382,0.921-0.382,1.703v0.603
			h2.369v1.098h-2.369v8.211h-1.409v-8.211L632.084,220.12L632.084,220.12z"/>
		<path fill="#5B5B5F" d="M638.529,225.768c0-1.875,1.506-2.855,4.518-2.947l1.582-0.053v-0.584c0-0.738-0.157-1.285-0.473-1.637
			c-0.313-0.352-0.813-0.529-1.505-0.529c-0.772,0-1.647,0.241-2.627,0.724l-0.438-1.082c0.459-0.246,0.961-0.438,1.508-0.577
			c0.546-0.141,1.094-0.209,1.643-0.209c1.108,0,1.93,0.246,2.465,0.738c0.534,0.492,0.804,1.281,0.804,2.369v6.353h-1.045
			l-0.28-1.312h-0.068c-0.463,0.578-0.925,0.97-1.386,1.175c-0.46,0.202-1.035,0.307-1.725,0.307c-0.929,0-1.654-0.235-2.182-0.711
			C638.793,227.316,638.529,226.643,638.529,225.768z M640.024,225.785c0,0.512,0.153,0.9,0.462,1.169
			c0.308,0.267,0.738,0.401,1.292,0.401c0.876,0,1.564-0.242,2.064-0.727s0.75-1.161,0.75-2.029v-0.846l-1.407,0.061
			c-1.118,0.041-1.926,0.216-2.42,0.524C640.271,224.65,640.024,225.13,640.024,225.785z"/>
		<path fill="#5B5B5F" d="M647.666,220.12v-0.681l1.334-0.586l0.594-1.986h0.813v2.156h2.7v1.097h-2.7v5.489
			c0,0.563,0.134,0.994,0.399,1.295s0.631,0.451,1.096,0.451c0.249,0,0.489-0.021,0.723-0.057c0.23-0.035,0.416-0.074,0.553-0.113
			v1.064c-0.152,0.072-0.378,0.132-0.675,0.182c-0.3,0.047-0.565,0.069-0.805,0.069c-1.8,0-2.698-0.946-2.698-2.845v-5.537
			L647.666,220.12L647.666,220.12z"/>
		<path fill="#5B5B5F" d="M654.341,225.768c0-1.875,1.506-2.855,4.516-2.947l1.582-0.053v-0.584c0-0.738-0.157-1.285-0.471-1.637
			c-0.314-0.352-0.815-0.529-1.505-0.529c-0.773,0-1.649,0.241-2.627,0.724l-0.438-1.082c0.459-0.246,0.961-0.438,1.508-0.577
			c0.546-0.141,1.094-0.209,1.645-0.209c1.106,0,1.93,0.246,2.465,0.738c0.534,0.492,0.802,1.281,0.802,2.369v6.353h-1.045
			l-0.28-1.312h-0.066c-0.464,0.578-0.927,0.97-1.388,1.175c-0.46,0.202-1.033,0.307-1.725,0.307c-0.927,0-1.654-0.235-2.18-0.711
			C654.604,227.316,654.341,226.643,654.341,225.768z M655.836,225.785c0,0.512,0.151,0.9,0.462,1.169
			c0.308,0.267,0.736,0.401,1.292,0.401c0.876,0,1.563-0.242,2.063-0.727s0.75-1.161,0.75-2.029v-0.846l-1.407,0.061
			c-1.116,0.041-1.926,0.216-2.42,0.524C656.082,224.65,655.836,225.13,655.836,225.785z"/>
		<path fill="#5B5B5F" d="M664.709,228.331v-13.213h1.408v13.213H664.709z"/>
		<path fill="#5B5B5F" d="M673.108,223.736c0-1.558,0.372-2.76,1.116-3.608c0.745-0.849,1.811-1.274,3.197-1.274
			c0.445,0,0.895,0.049,1.342,0.146c0.446,0.098,0.799,0.209,1.054,0.34l-0.434,1.197c-0.313-0.125-0.651-0.229-1.021-0.311
			s-0.692-0.123-0.977-0.123c-1.894,0-2.837,1.205-2.837,3.617c0,1.146,0.229,2.021,0.69,2.633c0.461,0.61,1.146,0.916,2.052,0.916
			c0.774,0,1.57-0.166,2.387-0.5v1.248c-0.622,0.322-1.406,0.484-2.354,0.484c-1.348,0-2.388-0.415-3.12-1.244
			C673.475,226.428,673.108,225.254,673.108,223.736z"/>
		<path fill="#5B5B5F" d="M681.209,225.768c0-1.875,1.506-2.855,4.516-2.947l1.582-0.053v-0.584c0-0.738-0.157-1.285-0.471-1.637
			c-0.314-0.352-0.815-0.529-1.507-0.529c-0.771,0-1.647,0.241-2.627,0.724l-0.438-1.082c0.459-0.246,0.961-0.438,1.508-0.577
			c0.546-0.141,1.094-0.209,1.643-0.209c1.108,0,1.932,0.246,2.467,0.738c0.532,0.492,0.802,1.281,0.802,2.369v6.353h-1.045
			l-0.28-1.312h-0.068c-0.463,0.578-0.925,0.97-1.386,1.175c-0.46,0.202-1.035,0.307-1.725,0.307c-0.927,0-1.654-0.235-2.18-0.711
			C681.473,227.316,681.209,226.643,681.209,225.768z M682.702,225.785c0,0.512,0.153,0.9,0.462,1.169
			c0.31,0.267,0.738,0.401,1.292,0.401c0.876,0,1.564-0.242,2.064-0.727s0.75-1.161,0.75-2.029v-0.846l-1.407,0.061
			c-1.118,0.041-1.926,0.216-2.42,0.524C682.949,224.65,682.702,225.13,682.702,225.785z"/>
		<path fill="#5B5B5F" d="M690.984,221.311c0-0.759,0.308-1.357,0.924-1.797c0.617-0.438,1.462-0.66,2.537-0.66
			c0.995,0,1.969,0.205,2.92,0.611l-0.492,1.148c-0.931-0.387-1.772-0.579-2.528-0.579c-0.67,0-1.175,0.104-1.517,0.315
			c-0.341,0.209-0.511,0.498-0.511,0.866c0,0.25,0.063,0.464,0.191,0.64s0.333,0.343,0.615,0.502
			c0.283,0.158,0.828,0.389,1.636,0.688c1.104,0.403,1.846,0.811,2.227,1.219c0.38,0.407,0.57,0.922,0.57,1.539
			c0,0.862-0.32,1.527-0.963,1.995c-0.644,0.468-1.542,0.701-2.702,0.701c-1.231,0-2.192-0.19-2.882-0.578v-1.301
			c0.444,0.228,0.925,0.405,1.437,0.536s1.005,0.195,1.479,0.195c0.735,0,1.305-0.119,1.7-0.354
			c0.397-0.234,0.598-0.594,0.598-1.077c0-0.362-0.157-0.673-0.475-0.932c-0.313-0.259-0.929-0.563-1.842-0.915
			c-0.868-0.324-1.482-0.606-1.848-0.848c-0.364-0.24-0.634-0.516-0.813-0.82C691.073,222.104,690.984,221.736,690.984,221.311z"/>
		<path fill="#5B5B5F" d="M699.356,223.754c0-1.5,0.368-2.691,1.104-3.574c0.734-0.884,1.726-1.326,2.968-1.326
			c1.162,0,2.082,0.386,2.759,1.151c0.677,0.767,1.016,1.779,1.016,3.036v0.893H700.8c0.026,1.092,0.305,1.922,0.83,2.487
			c0.522,0.565,1.263,0.849,2.216,0.849c0.999,0,1.986-0.209,2.963-0.627v1.256c-0.497,0.217-0.967,0.371-1.41,0.463
			c-0.443,0.095-0.978,0.142-1.604,0.142c-1.372,0-2.454-0.419-3.248-1.257C699.753,226.406,699.356,225.243,699.356,223.754z
			 M700.834,222.786h4.872c0-0.89-0.196-1.569-0.595-2.042c-0.396-0.473-0.965-0.709-1.702-0.709c-0.748,0-1.345,0.242-1.79,0.73
			C701.176,221.252,700.911,221.925,700.834,222.786z"/>
		<path fill="#5B5B5F" d="M709.035,221.311c0-0.759,0.31-1.357,0.926-1.797c0.615-0.438,1.462-0.66,2.535-0.66
			c0.995,0,1.971,0.205,2.922,0.611l-0.492,1.148c-0.933-0.387-1.774-0.579-2.53-0.579c-0.67,0-1.175,0.104-1.515,0.315
			c-0.343,0.209-0.513,0.498-0.513,0.866c0,0.25,0.063,0.464,0.191,0.64s0.333,0.343,0.617,0.502
			c0.282,0.158,0.828,0.389,1.634,0.688c1.104,0.403,1.846,0.811,2.227,1.219c0.38,0.407,0.57,0.922,0.57,1.539
			c0,0.862-0.32,1.527-0.963,1.995c-0.644,0.468-1.542,0.701-2.702,0.701c-1.231,0-2.192-0.19-2.882-0.578v-1.301
			c0.445,0.228,0.925,0.405,1.437,0.536c0.514,0.131,1.005,0.195,1.479,0.195c0.736,0,1.305-0.119,1.702-0.354
			c0.396-0.234,0.596-0.594,0.596-1.077c0-0.362-0.157-0.673-0.473-0.932c-0.314-0.259-0.931-0.563-1.844-0.915
			c-0.866-0.324-1.482-0.606-1.848-0.848c-0.364-0.24-0.634-0.516-0.812-0.82C709.125,222.104,709.035,221.736,709.035,221.311z"/>
	</g>
	<rect x="563.448" y="171.321" fill="#DD9B2B" width="17.803" height="17.8"/>
	<rect x="563.448" y="214.011" fill="#199598" width="17.803" height="17.8"/>
</g>
</svg>
