<?xml version="1.0" encoding="utf-8"?>
<!-- Generator: Adobe Illustrator 16.0.0, SVG Export Plug-In . SVG Version: 6.00 Build 0)  -->
<!DOCTYPE svg PUBLIC "-//W3C//DTD SVG 1.1//EN" "http://www.w3.org/Graphics/SVG/1.1/DTD/svg11.dtd">
<svg version="1.1" id="Capa_1" xmlns="http://www.w3.org/2000/svg" xmlns:xlink="http://www.w3.org/1999/xlink" x="0px" y="0px"
	 width="510.236px" height="382.676px" viewBox="0 0 510.236 382.676" enable-background="new 0 0 510.236 382.676"
	 xml:space="preserve">
<g>
	<rect x="382.05" y="204.811" fill="#449FA2" width="100.492" height="110.943"/>
	<rect x="382.05" y="67.773" fill="#F2C466" width="100.492" height="137.038"/>
</g>
<g>
	<path fill="#9A999E" d="M302.852,70.02v-1.283l6.1-8.693h1.547v8.64h1.927v1.336h-1.927v2.944h-1.379V70.02H302.852z
		 M304.329,68.684h4.791v-4.271c0-0.838,0.029-1.784,0.088-2.839h-0.069c-0.281,0.563-0.545,1.028-0.791,1.397L304.329,68.684z"/>
	<path fill="#9A999E" d="M313.61,61.45v-1.336h8.553v1.161l-5.256,11.688h-1.617l5.326-11.514L313.61,61.45L313.61,61.45z"/>
	<path fill="#9A999E" d="M324.104,67.475c0-2.526,0.49-4.416,1.473-5.667c0.98-1.251,2.435-1.877,4.355-1.877
		c0.664,0,1.188,0.056,1.57,0.167v1.274c-0.453-0.17-0.972-0.255-1.554-0.255c-1.377,0-2.43,0.431-3.155,1.292
		c-0.728,0.862-1.125,2.215-1.195,4.062h0.104c0.646-0.997,1.664-1.495,3.06-1.495c1.16,0,2.074,0.348,2.742,1.043
		s1.002,1.64,1.002,2.832c0,1.333-0.365,2.382-1.099,3.145c-0.733,0.763-1.725,1.145-2.971,1.145c-1.33,0-2.385-0.499-3.164-1.498
		C324.495,70.644,324.104,69.255,324.104,67.475z M325.598,68.524c0,0.605,0.117,1.169,0.352,1.693
		c0.234,0.523,0.568,0.937,0.998,1.243c0.433,0.306,0.922,0.458,1.474,0.458c0.832,0,1.477-0.263,1.938-0.789
		c0.459-0.526,0.689-1.286,0.689-2.279c0-0.852-0.214-1.522-0.642-2.01c-0.428-0.487-1.065-0.731-1.916-0.731
		c-0.526,0-1.012,0.109-1.451,0.326c-0.438,0.217-0.789,0.517-1.049,0.899C325.729,67.716,325.598,68.113,325.598,68.524z"/>
</g>
<g>
	<path fill="#FFFFFF" d="M424.434,137.775h-10.258v-2.158l3.684-3.724c1.092-1.118,1.803-1.892,2.139-2.324
		c0.334-0.432,0.574-0.831,0.724-1.199c0.146-0.368,0.221-0.75,0.221-1.145c0-0.588-0.162-1.027-0.486-1.315
		c-0.325-0.288-0.758-0.432-1.301-0.432c-0.567,0-1.121,0.131-1.655,0.392c-0.535,0.261-1.095,0.632-1.677,1.114l-1.686-1.998
		c0.723-0.615,1.319-1.05,1.795-1.305c0.477-0.254,0.994-0.45,1.557-0.587c0.563-0.137,1.191-0.206,1.888-0.206
		c0.918,0,1.727,0.167,2.43,0.502s1.248,0.803,1.637,1.405c0.387,0.602,0.582,1.292,0.582,2.067c0,0.676-0.119,1.31-0.356,1.902
		c-0.236,0.592-0.605,1.199-1.104,1.822c-0.498,0.622-1.377,1.509-2.635,2.66l-1.887,1.777v0.14h6.393v2.612H424.434z"/>
	<path fill="#FFFFFF" d="M425.809,131.542c0-2.904,0.615-5.065,1.842-6.484c1.229-1.418,3.066-2.128,5.516-2.128
		c0.837,0,1.492,0.05,1.968,0.15v2.479c-0.595-0.134-1.185-0.201-1.767-0.201c-1.063,0-1.932,0.161-2.604,0.481
		c-0.672,0.321-1.176,0.797-1.51,1.425c-0.334,0.629-0.531,1.522-0.593,2.68h0.131c0.662-1.138,1.724-1.707,3.183-1.707
		c1.311,0,2.338,0.412,3.08,1.235c0.744,0.823,1.115,1.96,1.115,3.413c0,1.566-0.441,2.806-1.326,3.719
		c-0.883,0.914-2.107,1.37-3.672,1.37c-1.084,0-2.029-0.251-2.836-0.753c-0.808-0.501-1.431-1.234-1.867-2.198
		C426.028,134.062,425.809,132.901,425.809,131.542z M431.11,135.497c0.662,0,1.17-0.223,1.525-0.667
		c0.354-0.445,0.53-1.079,0.53-1.902c0-0.716-0.165-1.28-0.495-1.691c-0.332-0.412-0.832-0.618-1.5-0.618
		c-0.632,0-1.166,0.205-1.611,0.612c-0.445,0.408-0.668,0.883-0.668,1.425c0,0.796,0.209,1.469,0.627,2.018
		C429.936,135.223,430.469,135.497,431.11,135.497z"/>
	<path fill="#FFFFFF" d="M447.821,130.438c0,2.563-0.42,4.46-1.26,5.691s-2.133,1.847-3.879,1.847c-1.693,0-2.969-0.636-3.83-1.907
		c-0.859-1.271-1.289-3.148-1.289-5.631c0-2.589,0.418-4.498,1.254-5.726c0.838-1.228,2.125-1.842,3.865-1.842
		c1.693,0,2.973,0.642,3.84,1.927C447.387,126.082,447.821,127.962,447.821,130.438z M440.645,130.438c0,1.8,0.154,3.09,0.467,3.87
		c0.312,0.779,0.834,1.169,1.57,1.169c0.723,0,1.244-0.395,1.565-1.185c0.32-0.79,0.48-2.074,0.48-3.854
		c0-1.8-0.162-3.093-0.486-3.879c-0.323-0.786-0.844-1.179-1.561-1.179c-0.729,0-1.252,0.393-1.566,1.179
		C440.802,127.345,440.645,128.638,440.645,130.438z"/>
</g>
<g>
	<path fill="#FFFFFF" d="M424.434,254.034h-10.258v-2.158l3.684-3.724c1.092-1.117,1.803-1.894,2.139-2.324
		c0.334-0.432,0.574-0.83,0.724-1.199c0.146-0.367,0.221-0.749,0.221-1.145c0-0.588-0.162-1.026-0.486-1.314
		c-0.325-0.287-0.758-0.432-1.301-0.432c-0.567,0-1.121,0.131-1.655,0.392c-0.535,0.261-1.095,0.632-1.677,1.114l-1.686-1.998
		c0.723-0.615,1.319-1.051,1.795-1.305c0.477-0.254,0.994-0.449,1.557-0.588c0.563-0.137,1.191-0.205,1.888-0.205
		c0.918,0,1.727,0.168,2.43,0.502s1.248,0.803,1.637,1.406c0.387,0.602,0.582,1.291,0.582,2.065c0,0.677-0.119,1.312-0.356,1.901
		c-0.236,0.593-0.605,1.199-1.104,1.822c-0.498,0.622-1.377,1.51-2.635,2.66l-1.887,1.776v0.14h6.393v2.612H424.434z"/>
	<path fill="#FFFFFF" d="M433.579,254.034h-3.102v-8.491l0.029-1.396l0.051-1.525c-0.516,0.516-0.873,0.854-1.074,1.015
		l-1.686,1.354l-1.496-1.867l4.729-3.764h2.549V254.034z"/>
	<path fill="#FFFFFF" d="M437.545,247.801c0-2.904,0.612-5.064,1.842-6.484c1.227-1.418,3.065-2.127,5.516-2.127
		c0.836,0,1.492,0.051,1.967,0.15v2.479c-0.596-0.133-1.184-0.199-1.768-0.199c-1.063,0-1.932,0.161-2.604,0.48
		c-0.672,0.321-1.176,0.797-1.512,1.426c-0.334,0.63-0.531,1.521-0.592,2.681h0.131c0.662-1.138,1.723-1.707,3.182-1.707
		c1.313,0,2.341,0.412,3.082,1.235c0.742,0.822,1.113,1.959,1.113,3.412c0,1.565-0.44,2.806-1.324,3.72
		c-0.883,0.913-2.106,1.368-3.674,1.368c-1.084,0-2.029-0.25-2.836-0.752s-1.428-1.233-1.867-2.197
		C437.762,250.32,437.545,249.16,437.545,247.801z M442.844,251.756c0.662,0,1.172-0.223,1.524-0.668
		c0.355-0.445,0.533-1.078,0.533-1.902c0-0.715-0.166-1.278-0.498-1.689c-0.33-0.411-0.83-0.618-1.5-0.618
		c-0.629,0-1.166,0.205-1.611,0.613c-0.444,0.407-0.668,0.883-0.668,1.425c0,0.796,0.212,1.47,0.63,2.018
		C441.672,251.48,442.2,251.756,442.844,251.756z"/>
</g>
<rect x="120.319" y="181.787" fill="#449FA2" width="100.49" height="133.97"/>
<rect x="120.319" y="67.726" fill="#F2C466" width="100.49" height="114.061"/>
<path fill="#87868A" d="M55.182,145.019h-1.313v-1.529l-0.428,0.021h-0.448l-0.813-0.021v1.528h-1.313v-1.652
	c-1.771-0.265-3.146-0.894-4.146-1.885c-0.992-0.992-1.484-2.292-1.484-3.902c0-1.365,0.334-2.608,1.002-3.729l1.42,0.724
	c-0.582,1.128-0.872,2.13-0.872,3.006c0,2.167,1.357,3.519,4.086,4.055v-5.195h1.312v5.319l0.581,0.021h0.646l0.458-0.021v-4.698
	h1.313v4.554c1.229-0.251,2.185-0.721,2.854-1.41c0.675-0.689,1.015-1.611,1.015-2.767c0-1.06-0.229-2.109-0.682-3.148h1.521
	c0.438,0.992,0.65,2.068,0.65,3.23c0,1.609-0.457,2.905-1.371,3.887c-0.913,0.981-2.24,1.628-3.986,1.94L55.182,145.019
	L55.182,145.019z"/>
<line fill="none" stroke="#000000" stroke-width="0.25" stroke-miterlimit="10" x1="220.81" y1="315.754" x2="76.381" y2="315.754"/>
<line fill="none" stroke="#000000" stroke-width="0.25" stroke-miterlimit="10" x1="90.1" y1="67.725" x2="90.1" y2="315.754"/>
<line fill="none" stroke="#000000" stroke-width="0.25" stroke-miterlimit="10" x1="220.81" y1="67.725" x2="76.381" y2="67.725"/>
<path fill="#87868A" d="M321.846,144.387h-1.314v-1.528l-0.428,0.021h-0.449l-0.813-0.021v1.528h-1.314v-1.652
	c-1.77-0.265-3.146-0.894-4.146-1.885c-0.991-0.992-1.487-2.292-1.487-3.902c0-1.365,0.334-2.608,1.002-3.729l1.418,0.724
	c-0.58,1.128-0.871,2.13-0.871,3.006c0,2.167,1.361,3.519,4.086,4.055v-5.195h1.314v5.319l0.582,0.021h0.645l0.461-0.021v-4.698
	h1.313v4.554c1.229-0.251,2.182-0.721,2.854-1.41c0.682-0.689,1.018-1.611,1.018-2.767c0-1.06-0.229-2.109-0.688-3.148h1.521
	c0.436,0.992,0.646,2.068,0.646,3.23c0,1.609-0.452,2.905-1.366,3.887c-0.912,0.981-2.241,1.628-3.987,1.94v1.671H321.846z"/>
<line fill="none" stroke="#000000" stroke-width="0.25" stroke-miterlimit="10" x1="351.839" y1="67.724" x2="351.839" y2="315.754"/>
<line fill="none" stroke="#000000" stroke-width="0.25" stroke-miterlimit="10" x1="482.549" y1="315.754" x2="338.108" y2="315.754"/>
<g>
	
		<line fill="none" stroke="#000000" stroke-width="0.25" stroke-miterlimit="10" x1="482.549" y1="67.724" x2="338.108" y2="67.724"/>
</g>
<rect x="106.538" y="347.105" fill="#F2C466" width="17.804" height="17.801"/>
<g>
	<path fill="#666666" d="M131.177,357.125c0-1.027,0.188-1.932,0.568-2.705c0.382-0.773,0.938-1.371,1.66-1.791
		c0.729-0.418,1.582-0.627,2.566-0.627c1.049,0,1.965,0.189,2.748,0.574l-0.492,0.996c-0.756-0.354-1.515-0.531-2.271-0.531
		c-1.099,0-1.966,0.365-2.601,1.098c-0.637,0.729-0.955,1.729-0.955,3.002c0,1.31,0.308,2.314,0.92,3.027
		c0.613,0.713,1.486,1.068,2.621,1.068c0.697,0,1.492-0.125,2.387-0.375v1.021c-0.689,0.263-1.547,0.394-2.563,0.394
		c-1.474,0-2.605-0.445-3.4-1.342C131.574,360.04,131.177,358.771,131.177,357.125z"/>
	<path fill="#666666" d="M139.942,358.379c0-1.219,0.305-2.168,0.913-2.85c0.606-0.68,1.454-1.021,2.535-1.021
		c1.046,0,1.876,0.35,2.488,1.044c0.615,0.696,0.927,1.64,0.927,2.825c0,1.225-0.311,2.18-0.923,2.865
		c-0.61,0.688-1.461,1.029-2.542,1.029c-0.669,0-1.263-0.156-1.776-0.476c-0.521-0.313-0.918-0.767-1.199-1.354
		C140.083,359.857,139.942,359.168,139.942,358.379z M141.104,358.379c0,0.959,0.188,1.689,0.575,2.191
		c0.383,0.504,0.943,0.756,1.688,0.756c0.743,0,1.313-0.25,1.694-0.75c0.385-0.502,0.578-1.232,0.578-2.197
		c0-0.955-0.193-1.68-0.578-2.176c-0.388-0.494-0.955-0.742-1.708-0.742c-0.744,0-1.309,0.244-1.688,0.732
		C141.295,356.684,141.104,357.411,141.104,358.379z"/>
	<path fill="#666666" d="M148.337,356.489c0-0.611,0.247-1.095,0.743-1.447c0.496-0.354,1.178-0.53,2.042-0.53
		c0.803,0,1.585,0.163,2.354,0.491l-0.396,0.925c-0.75-0.312-1.429-0.466-2.037-0.466c-0.539,0-0.941,0.084-1.22,0.252
		c-0.273,0.171-0.411,0.402-0.411,0.699c0,0.201,0.053,0.373,0.154,0.515c0.103,0.146,0.269,0.276,0.496,0.403
		c0.229,0.129,0.667,0.313,1.313,0.558c0.893,0.323,1.486,0.649,1.792,0.979c0.311,0.329,0.46,0.741,0.46,1.239
		c0,0.691-0.259,1.229-0.771,1.604c-0.52,0.375-1.241,0.563-2.175,0.563c-0.992,0-1.77-0.152-2.32-0.465v-1.047
		c0.356,0.183,0.745,0.323,1.156,0.433c0.41,0.104,0.81,0.155,1.188,0.155c0.595,0,1.051-0.097,1.37-0.283
		c0.319-0.188,0.479-0.479,0.479-0.865c0-0.293-0.13-0.543-0.383-0.75c-0.255-0.209-0.748-0.453-1.48-0.734
		c-0.699-0.264-1.194-0.488-1.487-0.684c-0.292-0.195-0.51-0.416-0.65-0.662C148.408,357.126,148.337,356.831,148.337,356.489z"/>
	<path fill="#666666" d="M154.503,355.529v-0.547l1.072-0.475l0.479-1.6h0.653v1.732h2.174v0.883h-2.174v4.418
		c0,0.453,0.106,0.805,0.32,1.043c0.214,0.242,0.508,0.363,0.882,0.363c0.2,0,0.396-0.017,0.581-0.045
		c0.188-0.029,0.335-0.062,0.444-0.095v0.858c-0.123,0.06-0.308,0.104-0.543,0.146c-0.24,0.037-0.455,0.058-0.646,0.058
		c-1.448,0-2.174-0.765-2.174-2.289v-4.457L154.503,355.529L154.503,355.529z"/>
	<path fill="#666666" d="M164.072,362.141v-7.492h0.923l0.188,1.015h0.055c0.229-0.365,0.559-0.646,0.979-0.851
		c0.421-0.203,0.89-0.303,1.4-0.303c0.902,0,1.581,0.219,2.037,0.652c0.456,0.438,0.684,1.133,0.684,2.09v4.889H169.2v-4.854
		c0-0.611-0.139-1.068-0.417-1.369c-0.277-0.302-0.713-0.453-1.306-0.453c-0.784,0-1.358,0.213-1.726,0.642
		c-0.361,0.424-0.548,1.125-0.548,2.104v3.938L164.072,362.141L164.072,362.141z"/>
	<path fill="#666666" d="M172.25,358.379c0-1.219,0.308-2.168,0.913-2.85c0.608-0.68,1.453-1.021,2.534-1.021
		c1.046,0,1.876,0.35,2.491,1.044c0.616,0.696,0.924,1.64,0.924,2.825c0,1.225-0.307,2.18-0.92,2.865
		c-0.612,0.688-1.461,1.029-2.542,1.029c-0.669,0-1.262-0.156-1.778-0.476c-0.519-0.313-0.918-0.767-1.199-1.354
		C172.389,359.857,172.25,359.168,172.25,358.379z M173.412,358.379c0,0.959,0.19,1.689,0.574,2.191
		c0.384,0.504,0.947,0.756,1.691,0.756c0.74,0,1.309-0.25,1.691-0.75c0.385-0.502,0.578-1.232,0.578-2.197
		c0-0.955-0.193-1.68-0.578-2.176c-0.387-0.494-0.955-0.742-1.708-0.742c-0.744,0-1.307,0.244-1.686,0.732
		C173.6,356.684,173.412,357.411,173.412,358.379z"/>
	<path fill="#666666" d="M181.122,362.141v-7.492h0.923l0.188,1.015h0.055c0.232-0.365,0.563-0.646,0.979-0.851
		c0.417-0.203,0.887-0.303,1.398-0.303c0.901,0,1.581,0.219,2.036,0.652c0.456,0.438,0.688,1.133,0.688,2.09v4.889h-1.138v-4.854
		c0-0.611-0.14-1.068-0.417-1.369c-0.275-0.302-0.713-0.453-1.307-0.453c-0.784,0-1.357,0.213-1.723,0.642
		c-0.364,0.424-0.55,1.125-0.55,2.104v3.938L181.122,362.141L181.122,362.141z"/>
	<path fill="#666666" d="M189.087,358.906v-1.038h3.355v1.038H189.087z"/>
	<path fill="#666666" d="M193.214,355.529v-0.514l1.343-0.41v-0.414c0-1.834,0.805-2.75,2.41-2.75c0.396,0,0.861,0.078,1.396,0.232
		l-0.294,0.898c-0.438-0.145-0.813-0.215-1.121-0.215c-0.429,0-0.744,0.146-0.949,0.432c-0.205,0.281-0.309,0.738-0.309,1.369v0.482
		h1.907v0.883h-1.907v6.608h-1.135v-6.608L193.214,355.529L193.214,355.529z"/>
	<path fill="#666666" d="M198.402,360.077c0-1.511,1.212-2.302,3.636-2.373l1.272-0.043v-0.472c0-0.594-0.126-1.032-0.379-1.315
		c-0.252-0.285-0.656-0.426-1.211-0.426c-0.623,0-1.328,0.192-2.115,0.579l-0.354-0.87c0.369-0.197,0.772-0.353,1.213-0.466
		c0.439-0.11,0.884-0.168,1.323-0.168c0.896,0,1.554,0.199,1.982,0.597c0.432,0.396,0.646,1.03,0.646,1.905v5.113h-0.841
		l-0.227-1.057h-0.058c-0.373,0.465-0.745,0.777-1.114,0.941s-0.835,0.246-1.39,0.246c-0.747,0-1.332-0.188-1.755-0.568
		C198.609,361.32,198.402,360.779,198.402,360.077z M199.605,360.09c0,0.412,0.124,0.727,0.372,0.939
		c0.248,0.217,0.595,0.322,1.04,0.322c0.705,0,1.259-0.193,1.662-0.584c0.399-0.392,0.604-0.937,0.604-1.638v-0.68l-1.134,0.049
		c-0.899,0.03-1.55,0.172-1.947,0.422C199.804,359.174,199.605,359.563,199.605,360.09z"/>
	<path fill="#666666" d="M205.759,355.529v-0.547l1.073-0.475l0.479-1.6h0.653v1.732h2.177v0.883h-2.177v4.418
		c0,0.453,0.106,0.805,0.321,1.043c0.214,0.242,0.508,0.363,0.882,0.363c0.2,0,0.396-0.017,0.581-0.045
		c0.188-0.029,0.335-0.062,0.443-0.095v0.858c-0.123,0.06-0.305,0.104-0.543,0.146c-0.239,0.037-0.455,0.058-0.646,0.058
		c-1.446,0-2.174-0.765-2.174-2.289v-4.457L205.759,355.529L205.759,355.529z"/>
	<path fill="#666666" d="M211.131,360.077c0-1.511,1.212-2.302,3.638-2.373l1.271-0.043v-0.472c0-0.594-0.126-1.032-0.379-1.315
		c-0.253-0.285-0.656-0.426-1.212-0.426c-0.622,0-1.327,0.192-2.114,0.579l-0.354-0.87c0.369-0.197,0.771-0.353,1.213-0.466
		c0.438-0.11,0.882-0.168,1.323-0.168c0.894,0,1.554,0.199,1.98,0.597c0.434,0.396,0.646,1.03,0.646,1.905v5.113h-0.842
		l-0.228-1.057h-0.056c-0.373,0.465-0.745,0.777-1.114,0.941c-0.371,0.164-0.834,0.246-1.39,0.246c-0.747,0-1.332-0.188-1.757-0.568
		C211.343,361.323,211.131,360.779,211.131,360.077z M212.335,360.09c0,0.412,0.124,0.727,0.372,0.939
		c0.248,0.217,0.598,0.322,1.04,0.322c0.705,0,1.259-0.193,1.662-0.584c0.401-0.392,0.604-0.937,0.604-1.638v-0.68l-1.136,0.049
		c-0.897,0.03-1.55,0.172-1.945,0.422C212.534,359.173,212.335,359.563,212.335,360.09z"/>
	<path fill="#666666" d="M219.478,362.141v-10.639h1.135v10.639H219.478z"/>
	<path fill="#666666" d="M226.239,358.441c0-1.254,0.301-2.225,0.899-2.905c0.598-0.683,1.457-1.024,2.57-1.024
		c0.359,0,0.723,0.038,1.08,0.116c0.359,0.076,0.646,0.168,0.851,0.272l-0.352,0.964c-0.251-0.101-0.521-0.185-0.817-0.25
		c-0.299-0.064-0.562-0.099-0.786-0.099c-1.521,0-2.283,0.971-2.283,2.908c0,0.924,0.187,1.631,0.559,2.119
		c0.371,0.492,0.921,0.738,1.649,0.738c0.624,0,1.266-0.137,1.921-0.402v1.004c-0.501,0.264-1.133,0.393-1.894,0.393
		c-1.088,0-1.925-0.334-2.515-1.002C226.534,360.607,226.239,359.663,226.239,358.441z"/>
	<path fill="#666666" d="M232.76,360.077c0-1.511,1.215-2.302,3.638-2.373l1.271-0.043v-0.472c0-0.594-0.126-1.032-0.379-1.315
		c-0.252-0.285-0.656-0.426-1.211-0.426c-0.623,0-1.328,0.192-2.115,0.579l-0.354-0.87c0.369-0.197,0.771-0.353,1.213-0.466
		c0.44-0.11,0.882-0.168,1.323-0.168c0.894,0,1.555,0.199,1.98,0.597c0.434,0.396,0.646,1.03,0.646,1.905v5.113h-0.841l-0.229-1.057
		h-0.056c-0.373,0.465-0.745,0.777-1.114,0.941c-0.371,0.164-0.834,0.246-1.39,0.246c-0.747,0-1.332-0.188-1.755-0.568
		C232.971,361.323,232.76,360.779,232.76,360.077z M233.963,360.09c0,0.412,0.124,0.727,0.372,0.939
		c0.248,0.217,0.598,0.322,1.04,0.322c0.705,0,1.259-0.193,1.662-0.584c0.401-0.392,0.604-0.937,0.604-1.638v-0.68l-1.136,0.049
		c-0.897,0.03-1.55,0.172-1.945,0.422C234.163,359.174,233.963,359.563,233.963,360.09z"/>
	<path fill="#666666" d="M240.629,356.489c0-0.611,0.248-1.095,0.744-1.447c0.495-0.354,1.177-0.53,2.042-0.53
		c0.802,0,1.585,0.163,2.354,0.491l-0.396,0.925c-0.75-0.312-1.43-0.466-2.037-0.466c-0.539,0-0.942,0.084-1.221,0.252
		c-0.273,0.171-0.41,0.402-0.41,0.699c0,0.201,0.052,0.373,0.153,0.515c0.104,0.146,0.27,0.276,0.496,0.403
		c0.229,0.129,0.667,0.313,1.313,0.558c0.892,0.323,1.485,0.649,1.792,0.979c0.31,0.329,0.46,0.741,0.46,1.239
		c0,0.691-0.26,1.229-0.772,1.604c-0.519,0.375-1.241,0.563-2.175,0.563c-0.992,0-1.769-0.152-2.32-0.465v-1.047
		c0.356,0.183,0.745,0.323,1.156,0.433c0.409,0.104,0.81,0.155,1.188,0.155c0.594,0,1.05-0.097,1.369-0.283
		c0.319-0.188,0.479-0.479,0.479-0.865c0-0.293-0.13-0.543-0.383-0.75c-0.254-0.209-0.748-0.453-1.48-0.734
		c-0.699-0.264-1.193-0.488-1.486-0.684c-0.292-0.195-0.511-0.416-0.653-0.662C240.7,357.125,240.629,356.831,240.629,356.489z"/>
	<path fill="#666666" d="M247.369,358.456c0-1.209,0.297-2.168,0.89-2.879c0.596-0.711,1.392-1.066,2.392-1.066
		c0.937,0,1.676,0.31,2.222,0.927c0.545,0.619,0.816,1.436,0.816,2.444v0.718h-5.154c0.022,0.879,0.245,1.547,0.669,2.004
		c0.422,0.455,1.019,0.686,1.782,0.686c0.806,0,1.601-0.168,2.387-0.507v1.013c-0.397,0.174-0.777,0.299-1.136,0.373
		c-0.356,0.073-0.787,0.109-1.292,0.109c-1.104,0-1.979-0.338-2.613-1.012C247.689,360.59,247.369,359.652,247.369,358.456z
		 M248.557,357.676h3.924c0-0.717-0.16-1.264-0.479-1.645c-0.316-0.381-0.773-0.57-1.369-0.57c-0.604,0-1.083,0.195-1.438,0.588
		C248.836,356.441,248.622,356.982,248.557,357.676z"/>
	<path fill="#666666" d="M255.163,356.489c0-0.611,0.248-1.095,0.743-1.447c0.496-0.354,1.178-0.53,2.042-0.53
		c0.803,0,1.585,0.163,2.352,0.491l-0.396,0.925c-0.75-0.312-1.429-0.466-2.037-0.466c-0.538,0-0.944,0.084-1.22,0.252
		c-0.273,0.171-0.411,0.402-0.411,0.699c0,0.201,0.053,0.373,0.154,0.515c0.104,0.146,0.27,0.276,0.496,0.403
		c0.229,0.129,0.667,0.313,1.313,0.558c0.89,0.323,1.486,0.649,1.793,0.979s0.46,0.741,0.46,1.239c0,0.691-0.26,1.229-0.772,1.604
		c-0.519,0.375-1.241,0.563-2.178,0.563c-0.989,0-1.767-0.152-2.317-0.465v-1.047c0.356,0.183,0.745,0.323,1.153,0.433
		c0.412,0.104,0.813,0.155,1.19,0.155c0.595,0,1.051-0.097,1.37-0.283c0.317-0.188,0.479-0.479,0.479-0.865
		c0-0.293-0.127-0.543-0.38-0.75c-0.254-0.209-0.748-0.453-1.48-0.734c-0.699-0.264-1.194-0.488-1.487-0.684
		c-0.292-0.195-0.51-0.416-0.652-0.662C255.234,357.126,255.163,356.831,255.163,356.489z"/>
</g>
<rect x="301.083" y="347.021" fill="#449FA2" width="17.806" height="17.804"/>
<g>
	<path fill="#666666" d="M326.556,357.208c0-1.028,0.188-1.933,0.572-2.705c0.381-0.774,0.934-1.371,1.657-1.791
		c0.729-0.418,1.582-0.627,2.565-0.627c1.049,0,1.965,0.19,2.748,0.574l-0.492,0.996c-0.756-0.354-1.512-0.531-2.27-0.531
		c-1.101,0-1.968,0.365-2.604,1.097c-0.637,0.729-0.954,1.729-0.954,3.002c0,1.31,0.31,2.315,0.92,3.028
		c0.612,0.713,1.485,1.067,2.621,1.067c0.696,0,1.491-0.125,2.39-0.375v1.021c-0.693,0.263-1.55,0.394-2.564,0.394
		c-1.471,0-2.604-0.445-3.399-1.34C326.954,360.123,326.556,358.855,326.556,357.208z"/>
	<path fill="#666666" d="M335.322,358.461c0-1.219,0.309-2.168,0.912-2.85c0.609-0.68,1.455-1.021,2.535-1.021
		c1.047,0,1.877,0.35,2.492,1.043c0.614,0.697,0.924,1.641,0.924,2.826c0,1.225-0.307,2.18-0.92,2.865
		c-0.613,0.688-1.461,1.029-2.543,1.029c-0.668,0-1.262-0.158-1.779-0.476c-0.518-0.313-0.918-0.767-1.198-1.354
		C335.466,359.939,335.322,359.25,335.322,358.461z M336.484,358.461c0,0.959,0.191,1.689,0.574,2.191
		c0.383,0.504,0.947,0.756,1.688,0.756c0.744,0,1.312-0.25,1.694-0.75c0.386-0.502,0.578-1.232,0.578-2.197
		c0-0.955-0.192-1.68-0.578-2.176c-0.387-0.494-0.955-0.742-1.709-0.742c-0.744,0-1.305,0.244-1.684,0.732
		C336.677,356.766,336.484,357.493,336.484,358.461z"/>
	<path fill="#666666" d="M343.718,356.57c0-0.61,0.248-1.094,0.744-1.446c0.493-0.354,1.178-0.531,2.043-0.531
		c0.801,0,1.584,0.164,2.35,0.492l-0.396,0.924c-0.75-0.311-1.431-0.465-2.034-0.465c-0.539,0-0.945,0.084-1.225,0.252
		c-0.271,0.17-0.409,0.402-0.409,0.699c0,0.2,0.054,0.373,0.153,0.515c0.104,0.146,0.271,0.276,0.496,0.403
		c0.229,0.129,0.666,0.313,1.314,0.558c0.889,0.323,1.482,0.649,1.793,0.979c0.307,0.329,0.459,0.741,0.459,1.239
		c0,0.691-0.261,1.229-0.775,1.604c-0.516,0.377-1.24,0.563-2.174,0.563c-0.992,0-1.768-0.152-2.32-0.465v-1.047
		c0.359,0.182,0.744,0.323,1.156,0.432c0.412,0.107,0.809,0.156,1.191,0.156c0.594,0,1.049-0.097,1.366-0.283
		c0.319-0.188,0.479-0.479,0.479-0.865c0-0.293-0.127-0.543-0.381-0.75c-0.254-0.209-0.748-0.453-1.482-0.736
		c-0.698-0.262-1.191-0.486-1.487-0.682c-0.29-0.195-0.511-0.416-0.649-0.662C343.788,357.208,343.718,356.913,343.718,356.57z"/>
	<path fill="#666666" d="M349.885,355.611v-0.547l1.069-0.475l0.479-1.6h0.656v1.732h2.174v0.883h-2.174v4.418
		c0,0.453,0.104,0.805,0.319,1.043c0.216,0.242,0.511,0.363,0.884,0.363c0.198,0,0.395-0.017,0.582-0.045
		c0.186-0.029,0.334-0.063,0.439-0.095v0.858c-0.123,0.06-0.305,0.104-0.543,0.146c-0.239,0.037-0.455,0.058-0.646,0.058
		c-1.449,0-2.177-0.765-2.177-2.289v-4.457L349.885,355.611L349.885,355.611z"/>
	<path fill="#666666" d="M358.447,355.611v-0.514l1.341-0.41v-0.414c0-1.834,0.808-2.75,2.411-2.75c0.396,0,0.861,0.078,1.396,0.232
		l-0.293,0.896c-0.438-0.143-0.813-0.213-1.121-0.213c-0.43,0-0.746,0.146-0.951,0.432c-0.205,0.281-0.307,0.738-0.307,1.369v0.482
		h1.903v0.883h-1.903v6.608h-1.138v-6.608L358.447,355.611L358.447,355.611z"/>
	<path fill="#666666" d="M363.635,360.159c0-1.511,1.213-2.302,3.635-2.373l1.273-0.043v-0.472c0-0.594-0.125-1.032-0.382-1.315
		c-0.252-0.285-0.653-0.427-1.211-0.427c-0.623,0-1.325,0.193-2.112,0.58l-0.354-0.871c0.369-0.196,0.773-0.352,1.213-0.465
		c0.439-0.11,0.882-0.168,1.322-0.168c0.895,0,1.556,0.199,1.984,0.597c0.429,0.396,0.645,1.03,0.645,1.905v5.113h-0.84
		l-0.229-1.057h-0.057c-0.373,0.465-0.743,0.775-1.114,0.941c-0.37,0.164-0.834,0.246-1.39,0.246c-0.746,0-1.332-0.188-1.754-0.568
		C363.844,361.402,363.635,360.861,363.635,360.159z M364.841,360.172c0,0.412,0.125,0.727,0.373,0.939
		c0.247,0.217,0.594,0.322,1.037,0.322c0.704,0,1.262-0.193,1.661-0.584c0.401-0.392,0.604-0.937,0.604-1.638v-0.68l-1.133,0.049
		c-0.9,0.03-1.549,0.172-1.947,0.422C365.038,359.256,364.841,359.646,364.841,360.172z"/>
	<path fill="#666666" d="M370.993,355.611v-0.547l1.071-0.475l0.479-1.6h0.652v1.732h2.175v0.883h-2.175v4.418
		c0,0.453,0.107,0.805,0.322,1.043c0.213,0.242,0.508,0.363,0.881,0.363c0.201,0,0.396-0.017,0.582-0.045
		c0.188-0.029,0.334-0.063,0.443-0.095v0.858c-0.123,0.06-0.308,0.104-0.543,0.146c-0.24,0.037-0.455,0.058-0.646,0.058
		c-1.448,0-2.174-0.765-2.174-2.289v-4.457L370.993,355.611L370.993,355.611z"/>
	<path fill="#666666" d="M376.363,360.159c0-1.511,1.214-2.302,3.636-2.373l1.272-0.043v-0.472c0-0.594-0.125-1.032-0.379-1.315
		c-0.252-0.285-0.656-0.427-1.211-0.427c-0.623,0-1.328,0.193-2.115,0.58l-0.352-0.871c0.368-0.196,0.771-0.352,1.213-0.465
		c0.438-0.11,0.881-0.168,1.321-0.168c0.894,0,1.556,0.199,1.981,0.597c0.43,0.396,0.646,1.03,0.646,1.905v5.113h-0.843
		l-0.228-1.057h-0.055c-0.373,0.465-0.744,0.775-1.115,0.941c-0.371,0.164-0.834,0.246-1.39,0.246c-0.745,0-1.332-0.188-1.756-0.568
		C376.575,361.404,376.363,360.861,376.363,360.159z M377.566,360.172c0,0.412,0.125,0.727,0.373,0.939
		c0.248,0.217,0.594,0.322,1.039,0.322c0.705,0,1.26-0.193,1.662-0.584c0.399-0.392,0.604-0.937,0.604-1.638v-0.68l-1.134,0.049
		c-0.896,0.03-1.549,0.172-1.946,0.422C377.765,359.256,377.566,359.646,377.566,360.172z"/>
	<path fill="#666666" d="M384.715,362.223v-10.639h1.135v10.639H384.715z"/>
	<path fill="#666666" d="M391.472,358.523c0-1.254,0.299-2.225,0.896-2.905c0.602-0.683,1.456-1.025,2.573-1.025
		c0.359,0,0.72,0.039,1.08,0.117c0.359,0.076,0.644,0.168,0.849,0.272l-0.351,0.963c-0.25-0.1-0.522-0.184-0.819-0.25
		c-0.296-0.063-0.56-0.098-0.785-0.098c-1.521,0-2.28,0.971-2.28,2.908c0,0.924,0.186,1.628,0.557,2.119
		c0.371,0.492,0.922,0.738,1.65,0.738c0.625,0,1.266-0.137,1.922-0.402v1.004c-0.502,0.264-1.133,0.393-1.896,0.393
		c-1.084,0-1.923-0.334-2.513-1.002C391.767,360.689,391.472,359.745,391.472,358.523z"/>
	<path fill="#666666" d="M397.993,360.159c0-1.511,1.213-2.302,3.638-2.373l1.271-0.043v-0.472c0-0.594-0.125-1.032-0.379-1.315
		c-0.252-0.285-0.656-0.427-1.211-0.427c-0.623,0-1.328,0.193-2.115,0.58l-0.352-0.871c0.369-0.196,0.771-0.352,1.213-0.465
		c0.438-0.11,0.881-0.168,1.322-0.168c0.893,0,1.555,0.199,1.98,0.597c0.433,0.396,0.646,1.03,0.646,1.905v5.113h-0.84l-0.229-1.057
		h-0.055c-0.373,0.465-0.744,0.775-1.115,0.941c-0.371,0.164-0.834,0.246-1.389,0.246c-0.746,0-1.332-0.188-1.756-0.568
		C398.204,361.404,397.993,360.861,397.993,360.159z M399.195,360.172c0,0.412,0.125,0.727,0.373,0.939
		c0.248,0.217,0.595,0.322,1.039,0.322c0.705,0,1.261-0.193,1.662-0.584c0.402-0.392,0.604-0.937,0.604-1.638v-0.68l-1.134,0.049
		c-0.896,0.03-1.549,0.172-1.943,0.422C399.394,359.256,399.195,359.646,399.195,360.172z"/>
	<path fill="#666666" d="M405.861,356.57c0-0.61,0.248-1.094,0.744-1.446c0.496-0.354,1.179-0.531,2.043-0.531
		c0.802,0,1.584,0.164,2.351,0.492l-0.396,0.924c-0.75-0.311-1.43-0.465-2.037-0.465c-0.539,0-0.944,0.084-1.221,0.252
		c-0.273,0.17-0.41,0.402-0.41,0.699c0,0.2,0.051,0.373,0.154,0.515c0.102,0.146,0.268,0.276,0.496,0.403
		c0.229,0.129,0.665,0.313,1.313,0.558c0.89,0.323,1.486,0.649,1.793,0.979c0.308,0.329,0.459,0.741,0.459,1.239
		c0,0.691-0.258,1.229-0.771,1.604c-0.519,0.376-1.24,0.563-2.177,0.563c-0.989,0-1.767-0.152-2.317-0.465v-1.047
		c0.355,0.182,0.743,0.323,1.153,0.432c0.411,0.104,0.812,0.156,1.19,0.156c0.594,0,1.049-0.097,1.369-0.283
		c0.317-0.188,0.479-0.479,0.479-0.865c0-0.293-0.127-0.543-0.382-0.75c-0.254-0.209-0.747-0.453-1.479-0.736
		c-0.699-0.262-1.195-0.486-1.488-0.682c-0.291-0.195-0.51-0.416-0.651-0.662C405.934,357.208,405.861,356.913,405.861,356.57z"/>
	<path fill="#666666" d="M412.601,358.538c0-1.209,0.297-2.168,0.889-2.879c0.598-0.711,1.393-1.066,2.393-1.066
		c0.936,0,1.676,0.31,2.221,0.927c0.545,0.619,0.818,1.436,0.818,2.444v0.718h-5.154c0.021,0.879,0.244,1.547,0.668,2.004
		c0.422,0.455,1.016,0.686,1.783,0.686c0.805,0,1.6-0.169,2.385-0.508v1.014c-0.4,0.174-0.777,0.299-1.135,0.373
		c-0.358,0.072-0.787,0.109-1.291,0.109c-1.105,0-1.979-0.338-2.615-1.012C412.925,360.672,412.601,359.734,412.601,358.538z
		 M413.792,357.758h3.927c0-0.717-0.16-1.264-0.48-1.645c-0.314-0.381-0.771-0.57-1.369-0.57c-0.602,0-1.081,0.195-1.438,0.588
		C414.066,356.521,413.853,357.064,413.792,357.758z"/>
	<path fill="#666666" d="M420.394,356.57c0-0.61,0.248-1.094,0.744-1.446c0.496-0.354,1.178-0.531,2.043-0.531
		c0.801,0,1.584,0.164,2.35,0.492l-0.395,0.924c-0.75-0.311-1.433-0.465-2.037-0.465c-0.539,0-0.945,0.084-1.221,0.252
		c-0.273,0.17-0.41,0.402-0.41,0.699c0,0.2,0.051,0.373,0.151,0.515c0.104,0.146,0.271,0.276,0.495,0.403
		c0.229,0.129,0.666,0.313,1.314,0.558c0.889,0.323,1.483,0.649,1.793,0.979c0.307,0.329,0.459,0.741,0.459,1.239
		c0,0.691-0.258,1.229-0.775,1.604c-0.516,0.377-1.236,0.563-2.174,0.563c-0.992,0-1.766-0.152-2.319-0.465v-1.047
		c0.358,0.182,0.743,0.323,1.155,0.432c0.412,0.107,0.813,0.156,1.191,0.156c0.594,0,1.049-0.097,1.369-0.283
		c0.317-0.188,0.479-0.479,0.479-0.865c0-0.293-0.127-0.543-0.381-0.75c-0.254-0.209-0.748-0.453-1.481-0.736
		c-0.696-0.262-1.192-0.486-1.485-0.682c-0.291-0.195-0.511-0.416-0.652-0.662C420.469,357.208,420.394,356.913,420.394,356.57z"/>
</g>
<g>
	<path fill="#666666" d="M59.391,28.996c0-1.633,0.322-3.063,0.979-4.292c0.655-1.228,1.604-2.166,2.831-2.814
		c1.231-0.648,2.675-0.972,4.329-0.972c1.676,0,3.237,0.308,4.684,0.924l-0.709,1.611c-1.418-0.602-2.776-0.902-4.093-0.902
		c-1.912,0-3.405,0.569-4.479,1.708c-1.074,1.139-1.611,2.718-1.611,4.737c0,2.127,0.517,3.74,1.552,4.839
		c1.035,1.1,2.561,1.649,4.563,1.649c1.088,0,2.146-0.125,3.188-0.377v-4.854h-3.513V28.62h5.339v7.648
		c-0.831,0.262-1.676,0.459-2.535,0.594c-0.854,0.134-1.854,0.201-2.98,0.201c-2.378,0-4.229-0.707-5.56-2.122
		C60.052,33.527,59.391,31.545,59.391,28.996z"/>
	<path fill="#666666" d="M75.954,36.849V20.133h1.783v16.715L75.954,36.849L75.954,36.849z"/>
	<path fill="#666666" d="M80.865,30.939c0-1.916,0.479-3.408,1.435-4.477c0.956-1.069,2.285-1.603,3.984-1.603
		c1.642,0,2.947,0.547,3.915,1.641s1.451,2.574,1.451,4.439c0,1.923-0.482,3.424-1.446,4.503c-0.964,1.08-2.296,1.62-3.995,1.62
		c-1.05,0-1.979-0.248-2.795-0.743c-0.813-0.495-1.438-1.205-1.885-2.13C81.085,33.265,80.865,32.182,80.865,30.939z M82.691,30.939
		c0,1.507,0.301,2.656,0.904,3.445c0.602,0.79,1.482,1.185,2.651,1.185s2.063-0.393,2.663-1.179
		c0.606-0.786,0.909-1.937,0.909-3.451c0-1.5-0.303-2.64-0.909-3.419c-0.604-0.778-1.501-1.168-2.684-1.168
		c-1.169,0-2.053,0.384-2.646,1.152C82.988,28.272,82.691,29.418,82.691,30.939z"/>
	<path fill="#666666" d="M94.808,36.849V20.133h1.777v4.061c0,0.91-0.023,1.726-0.086,2.449h0.086
		c0.831-1.174,2.063-1.762,3.695-1.762c1.54,0,2.736,0.528,3.588,1.584c0.854,1.057,1.278,2.551,1.278,4.485
		c0,1.934-0.432,3.436-1.289,4.506c-0.859,1.071-2.052,1.606-3.578,1.606c-0.767,0-1.466-0.142-2.1-0.424
		c-0.64-0.282-1.166-0.718-1.601-1.305h-0.12l-0.376,1.515L94.808,36.849L94.808,36.849z M96.59,30.951
		c0,1.654,0.275,2.838,0.827,3.55c0.551,0.713,1.438,1.069,2.653,1.069c1.096,0,1.912-0.399,2.449-1.198
		c0.537-0.798,0.806-1.946,0.806-3.443c0-1.532-0.269-2.675-0.806-3.427s-1.368-1.128-2.492-1.128c-1.218,0-2.095,0.349-2.632,1.047
		C96.859,28.119,96.59,29.296,96.59,30.951z"/>
	<path fill="#666666" d="M107.407,33.604c0-2.371,1.904-3.614,5.712-3.729l2.001-0.065v-0.739c0-0.935-0.198-1.625-0.595-2.071
		c-0.397-0.446-1.031-0.669-1.903-0.669c-0.979,0-2.087,0.305-3.324,0.914l-0.554-1.369c0.58-0.311,1.215-0.554,1.907-0.73
		c0.688-0.176,1.384-0.265,2.079-0.265c1.396,0,2.438,0.312,3.117,0.935c0.676,0.623,1.014,1.622,1.014,2.997v8.035h-1.321
		l-0.354-1.656H115.1c-0.586,0.73-1.17,1.225-1.753,1.483c-0.583,0.259-1.313,0.388-2.188,0.388c-1.173,0-2.092-0.3-2.758-0.899
		C107.74,35.564,107.407,34.711,107.407,33.604z M109.298,33.626c0,0.648,0.195,1.141,0.584,1.479
		c0.395,0.338,0.938,0.507,1.641,0.507c1.104,0,1.979-0.306,2.605-0.917c0.639-0.612,0.949-1.468,0.949-2.569v-1.068l-1.78,0.075
		c-1.416,0.05-2.436,0.272-3.062,0.664C109.61,32.189,109.298,32.799,109.298,33.626z"/>
	<path fill="#666666" d="M120.525,36.849V20.133h1.783v16.715L120.525,36.849L120.525,36.849z"/>
	<path fill="#666666" d="M131.149,31.059c0-1.897,0.466-3.405,1.396-4.522c0.937-1.117,2.188-1.676,3.754-1.676
		c1.476,0,2.639,0.485,3.49,1.456c0.856,0.971,1.285,2.25,1.285,3.84v1.128h-8.1c0.035,1.382,0.386,2.432,1.049,3.147
		c0.664,0.716,1.598,1.074,2.803,1.074c1.264,0,2.513-0.265,3.748-0.795v1.59c-0.628,0.272-1.223,0.467-1.783,0.585
		c-0.561,0.118-1.231,0.177-2.024,0.177c-1.735,0-3.105-0.53-4.108-1.59C131.65,34.414,131.149,32.941,131.149,31.059z
		 M133.018,29.833h6.166c0-1.124-0.251-1.985-0.753-2.583s-1.225-0.897-2.152-0.897c-0.947,0-1.702,0.308-2.266,0.924
		C133.449,27.894,133.117,28.746,133.018,29.833z"/>
	<path fill="#666666" d="M143.395,27.968c0-0.961,0.39-1.719,1.169-2.275c0.773-0.556,1.849-0.833,3.208-0.833
		c1.26,0,2.491,0.258,3.688,0.773l-0.622,1.452c-1.178-0.488-2.239-0.732-3.196-0.732c-0.853,0-1.485,0.133-1.916,0.398
		c-0.437,0.265-0.646,0.632-0.646,1.098c0,0.316,0.081,0.585,0.242,0.808c0.161,0.223,0.422,0.434,0.78,0.635
		c0.354,0.201,1.048,0.492,2.063,0.872c1.396,0.51,2.334,1.023,2.816,1.54c0.479,0.517,0.722,1.167,0.722,1.949
		c0,1.09-0.406,1.931-1.218,2.522c-0.813,0.592-1.952,0.887-3.418,0.887c-1.562,0-2.774-0.243-3.646-0.73v-1.646
		c0.564,0.287,1.176,0.513,1.817,0.678c0.647,0.165,1.271,0.248,1.872,0.248c0.933,0,1.649-0.149,2.153-0.447
		c0.502-0.298,0.753-0.752,0.753-1.362c0-0.459-0.199-0.852-0.604-1.179c-0.396-0.327-1.175-0.712-2.331-1.158
		c-1.098-0.409-1.877-0.766-2.336-1.071c-0.46-0.305-0.802-0.651-1.021-1.039C143.504,28.968,143.395,28.506,143.395,27.968z"/>
	<path fill="#666666" d="M153.083,26.46v-0.859l1.688-0.741l0.752-2.514h1.031v2.729h3.416v1.386h-3.416v6.945
		c0,0.711,0.168,1.256,0.505,1.637c0.336,0.381,0.798,0.571,1.386,0.571c0.313,0,0.619-0.023,0.913-0.07
		c0.293-0.047,0.521-0.095,0.698-0.146v1.348c-0.193,0.092-0.479,0.167-0.854,0.228c-0.376,0.06-0.714,0.09-1.015,0.09
		c-2.277,0-3.416-1.199-3.416-3.599V26.46H153.083z"/>
	<path fill="#666666" d="M162.257,21.884c0-0.408,0.098-0.707,0.277-0.897c0.188-0.189,0.416-0.285,0.693-0.285
		c0.309,0,0.569,0.097,0.799,0.29c0.224,0.193,0.336,0.491,0.336,0.892c0,0.401-0.112,0.7-0.336,0.897
		c-0.229,0.197-0.49,0.295-0.799,0.295c-0.277,0-0.508-0.098-0.693-0.295C162.35,22.584,162.257,22.286,162.257,21.884z
		 M162.407,36.849V25.075h1.633v11.773L162.407,36.849L162.407,36.849z"/>
	<path fill="#666666" d="M167.973,36.849V25.075h1.444l0.29,1.59h0.086c0.336-0.566,0.813-1.009,1.429-1.327
		c0.606-0.319,1.298-0.478,2.057-0.478c1.839,0,3.042,0.659,3.609,1.978h0.086c0.351-0.609,0.854-1.091,1.521-1.446
		s1.425-0.532,2.277-0.532c1.332,0,2.329,0.342,2.992,1.026c0.66,0.684,0.99,1.778,0.99,3.282v7.681h-1.779v-7.675
		c0-0.94-0.201-1.645-0.604-2.115c-0.396-0.47-1.021-0.705-1.869-0.705c-1.104,0-1.93,0.319-2.46,0.958
		c-0.524,0.639-0.795,1.622-0.795,2.949v6.588h-1.783v-7.675c0-0.94-0.195-1.645-0.602-2.115c-0.401-0.47-1.028-0.705-1.879-0.705
		c-1.117,0-1.938,0.335-2.455,1.006c-0.521,0.671-0.779,1.771-0.779,3.299v6.189L167.973,36.849L167.973,36.849z"/>
	<path fill="#666666" d="M187.555,33.604c0-2.371,1.898-3.614,5.712-3.729l2.001-0.065v-0.739c0-0.935-0.198-1.625-0.601-2.071
		c-0.396-0.446-1.025-0.669-1.897-0.669c-0.979,0-2.087,0.305-3.324,0.914l-0.554-1.369c0.58-0.311,1.215-0.554,1.901-0.73
		c0.691-0.176,1.39-0.265,2.079-0.265c1.402,0,2.441,0.312,3.117,0.935s1.014,1.622,1.014,2.997v8.035h-1.315l-0.354-1.656h-0.086
		c-0.586,0.73-1.17,1.225-1.753,1.483c-0.583,0.259-1.31,0.388-2.182,0.388c-1.173,0-2.092-0.3-2.758-0.899
		C187.887,35.564,187.555,34.711,187.555,33.604z M189.446,33.626c0,0.648,0.195,1.141,0.584,1.479s0.935,0.507,1.635,0.507
		c1.108,0,1.979-0.306,2.611-0.917c0.633-0.612,0.949-1.468,0.949-2.569v-1.068l-1.78,0.075c-1.416,0.05-2.438,0.272-3.063,0.664
		C189.757,32.189,189.446,32.799,189.446,33.626z"/>
	<path fill="#666666" d="M199.114,26.46v-0.859l1.687-0.741l0.758-2.514h1.025v2.729H206v1.386h-3.416v6.945
		c0,0.711,0.168,1.256,0.505,1.637c0.336,0.381,0.804,0.571,1.392,0.571c0.313,0,0.619-0.023,0.913-0.07
		c0.293-0.047,0.521-0.095,0.692-0.146v1.348c-0.188,0.092-0.478,0.167-0.854,0.228c-0.376,0.06-0.714,0.09-1.021,0.09
		c-2.271,0-3.416-1.199-3.416-3.599V26.46H199.114z"/>
	<path fill="#666666" d="M207.782,31.059c0-1.897,0.466-3.405,1.397-4.522c0.931-1.117,2.183-1.676,3.754-1.676
		c1.47,0,2.633,0.485,3.484,1.456c0.856,0.971,1.285,2.25,1.285,3.84v1.128h-8.1c0.036,1.382,0.386,2.432,1.049,3.147
		c0.664,0.716,1.598,1.074,2.803,1.074c1.27,0,2.519-0.265,3.748-0.795v1.59c-0.628,0.272-1.223,0.467-1.783,0.585
		c-0.561,0.118-1.231,0.177-2.024,0.177c-1.735,0-3.105-0.53-4.108-1.59C208.284,34.414,207.782,32.941,207.782,31.059z
		 M209.652,29.833h6.166c0-1.124-0.251-1.985-0.753-2.583s-1.219-0.897-2.152-0.897c-0.947,0-1.702,0.308-2.266,0.924
		C210.084,27.894,209.752,28.746,209.652,29.833z"/>
</g>
<g>
	<path fill="#666666" d="M334.219,36.849V21.144h8.755v1.633h-6.929v5.027h6.51v1.633h-6.51v5.779h6.929v1.633H334.219z"/>
	<path fill="#666666" d="M346.29,31.263V21.144h1.826v10.264c0,1.313,0.358,2.32,1.074,3.023c0.716,0.703,1.771,1.054,3.158,1.054
		c1.325,0,2.345-0.353,3.062-1.06c0.722-0.707,1.074-1.72,1.074-3.04V21.144h1.826v10.162c0,1.791-0.541,3.198-1.622,4.222
		c-1.082,1.024-2.567,1.536-4.458,1.536s-3.354-0.516-4.388-1.547C346.807,34.484,346.29,33.066,346.29,31.263z"/>
	<path fill="#666666" d="M361.385,36.849v-1.516l4.136-4.174c1.26-1.28,2.091-2.193,2.492-2.74c0.396-0.546,0.702-1.079,0.896-1.596
		c0.2-0.518,0.307-1.075,0.307-1.672c0-0.841-0.254-1.508-0.769-2c-0.509-0.493-1.214-0.739-2.11-0.739
		c-0.652,0-1.271,0.108-1.854,0.324c-0.584,0.216-1.234,0.607-1.95,1.176l-0.939-1.219c1.44-1.182,3.021-1.773,4.727-1.773
		c1.478,0,2.632,0.376,3.47,1.127c0.84,0.752,1.26,1.762,1.26,3.03c0,1-0.276,1.988-0.84,2.966c-0.56,0.979-1.604,2.215-3.138,3.711
		l-3.438,3.376v0.086h8.072v1.633H361.385z"/>
	<path fill="#666666" d="M374.01,32.841c0-1.797,1.102-3.197,3.307-4.2c-0.999-0.559-1.716-1.162-2.148-1.81
		c-0.436-0.648-0.647-1.373-0.647-2.175c0-1.139,0.423-2.046,1.271-2.723c0.852-0.677,1.979-1.015,3.397-1.015
		c1.438,0,2.576,0.333,3.417,0.999s1.261,1.586,1.261,2.761c0,0.773-0.241,1.479-0.724,2.116c-0.483,0.638-1.254,1.218-2.313,1.74
		c1.282,0.609,2.192,1.248,2.732,1.917c0.54,0.67,0.81,1.445,0.81,2.326c0,1.304-0.455,2.344-1.367,3.121
		c-0.91,0.777-2.16,1.166-3.75,1.166c-1.683,0-2.976-0.367-3.881-1.101C374.458,35.229,374.01,34.188,374.01,32.841z
		 M375.788,32.884c0,0.859,0.304,1.529,0.896,2.009s1.436,0.72,2.515,0.72c1.065,0,1.896-0.25,2.488-0.752
		c0.593-0.501,0.89-1.188,0.89-2.063c0-0.694-0.273-1.312-0.836-1.853c-0.558-0.541-1.524-1.065-2.917-1.574
		c-1.063,0.458-1.837,0.965-2.313,1.52C376.028,31.446,375.788,32.11,375.788,32.884z M376.299,24.73
		c0,0.659,0.211,1.225,0.633,1.697c0.421,0.473,1.201,0.945,2.337,1.418c1.021-0.43,1.746-0.892,2.171-1.386s0.638-1.07,0.638-1.729
		c0-0.723-0.259-1.298-0.771-1.724c-0.521-0.426-1.231-0.639-2.145-0.639c-0.894,0-1.594,0.215-2.102,0.645
		C376.552,23.441,376.299,24.016,376.299,24.73z"/>
	<path fill="#666666" d="M392.417,31.059c0-1.897,0.472-3.405,1.397-4.522c0.931-1.117,2.183-1.676,3.754-1.676
		c1.47,0,2.633,0.485,3.49,1.456c0.854,0.971,1.285,2.25,1.285,3.84v1.128h-8.104c0.036,1.382,0.392,2.432,1.049,3.147
		c0.664,0.716,1.604,1.074,2.809,1.074c1.264,0,2.513-0.265,3.748-0.795v1.59c-0.628,0.272-1.229,0.467-1.783,0.585
		c-0.563,0.118-1.237,0.177-2.03,0.177c-1.729,0-3.104-0.53-4.104-1.59C392.925,34.414,392.417,32.941,392.417,31.059z
		 M394.286,29.833h6.166c0-1.124-0.251-1.985-0.753-2.583s-1.219-0.897-2.146-0.897c-0.947,0-1.702,0.308-2.271,0.924
		C394.719,27.894,394.387,28.746,394.286,29.833z"/>
	<path fill="#666666" d="M404.663,27.968c0-0.961,0.396-1.719,1.169-2.275c0.779-0.556,1.854-0.833,3.208-0.833
		c1.266,0,2.492,0.258,3.695,0.773l-0.623,1.452c-1.178-0.488-2.244-0.732-3.201-0.732c-0.847,0-1.479,0.133-1.916,0.398
		c-0.431,0.265-0.646,0.632-0.646,1.098c0,0.316,0.081,0.585,0.242,0.808c0.161,0.223,0.422,0.434,0.775,0.635
		c0.358,0.201,1.053,0.492,2.066,0.872c1.396,0.51,2.335,1.023,2.816,1.54c0.479,0.517,0.723,1.167,0.723,1.949
		c0,1.09-0.406,1.931-1.219,2.522c-0.813,0.592-1.951,0.887-3.418,0.887c-1.563,0-2.774-0.243-3.646-0.73v-1.646
		c0.564,0.287,1.17,0.513,1.817,0.678c0.646,0.165,1.271,0.248,1.872,0.248c0.934,0,1.646-0.149,2.147-0.447
		c0.504-0.298,0.754-0.752,0.754-1.362c0-0.459-0.194-0.852-0.599-1.179c-0.396-0.327-1.175-0.712-2.33-1.158
		c-1.098-0.409-1.877-0.766-2.336-1.071c-0.46-0.305-0.802-0.651-1.022-1.039C404.775,28.968,404.663,28.506,404.663,27.968z"/>
	<path fill="#666666" d="M414.353,26.46v-0.859l1.686-0.741l0.753-2.514h1.03v2.729h3.416v1.386h-3.416v6.945
		c0,0.711,0.168,1.256,0.506,1.637c0.336,0.381,0.804,0.571,1.391,0.571c0.313,0,0.614-0.023,0.914-0.07
		c0.293-0.047,0.521-0.095,0.691-0.146v1.348c-0.188,0.092-0.478,0.167-0.854,0.228c-0.376,0.06-0.715,0.09-1.021,0.09
		c-2.271,0-3.416-1.199-3.416-3.599V26.46H414.353z"/>
	<path fill="#666666" d="M423.526,21.884c0-0.408,0.092-0.707,0.277-0.897c0.186-0.189,0.416-0.285,0.688-0.285
		c0.313,0,0.574,0.097,0.804,0.29c0.225,0.193,0.336,0.491,0.336,0.892c0,0.401-0.111,0.7-0.336,0.897
		c-0.229,0.197-0.49,0.295-0.804,0.295c-0.272,0-0.51-0.098-0.688-0.295C423.618,22.584,423.526,22.286,423.526,21.884z
		 M423.677,36.849V25.075h1.633v11.773L423.677,36.849L423.677,36.849z"/>
	<path fill="#666666" d="M429.241,36.849V25.075h1.449l0.291,1.59h0.086c0.336-0.566,0.813-1.009,1.423-1.327
		c0.612-0.319,1.298-0.478,2.063-0.478c1.84,0,3.043,0.659,3.604,1.978h0.086c0.354-0.609,0.859-1.091,1.525-1.446
		s1.424-0.532,2.277-0.532c1.332,0,2.322,0.342,2.985,1.026c0.662,0.684,0.993,1.778,0.993,3.282v7.681h-1.783v-7.675
		c0-0.94-0.194-1.645-0.602-2.115c-0.4-0.47-1.023-0.705-1.869-0.705c-1.104,0-1.93,0.319-2.459,0.958
		c-0.531,0.639-0.795,1.622-0.795,2.949v6.588h-1.783v-7.675c0-0.94-0.201-1.645-0.602-2.115c-0.402-0.47-1.028-0.705-1.881-0.705
		c-1.117,0-1.938,0.335-2.454,1.006c-0.521,0.671-0.777,1.771-0.777,3.299v6.189L429.241,36.849L429.241,36.849z"/>
	<path fill="#666666" d="M448.823,33.604c0-2.371,1.904-3.614,5.713-3.729l2-0.065v-0.739c0-0.935-0.191-1.625-0.595-2.071
		c-0.396-0.446-1.031-0.669-1.903-0.669c-0.979,0-2.088,0.305-3.318,0.914l-0.56-1.369c0.58-0.311,1.222-0.554,1.907-0.73
		c0.69-0.176,1.383-0.265,2.078-0.265c1.402,0,2.441,0.312,3.117,0.935s1.014,1.622,1.014,2.997v8.035h-1.314l-0.355-1.656h-0.086
		c-0.586,0.73-1.17,1.225-1.752,1.483c-0.584,0.259-1.313,0.388-2.188,0.388c-1.173,0-2.093-0.3-2.758-0.899
		C449.156,35.564,448.823,34.711,448.823,33.604z M450.719,33.626c0,0.648,0.189,1.141,0.585,1.479
		c0.39,0.338,0.935,0.507,1.635,0.507c1.108,0,1.979-0.306,2.61-0.917c0.633-0.612,0.943-1.468,0.943-2.569v-1.068l-1.773,0.075
		c-1.416,0.05-2.438,0.272-3.063,0.664C451.026,32.189,450.719,32.799,450.719,33.626z"/>
	<path fill="#666666" d="M460.385,26.46v-0.859l1.688-0.741l0.752-2.514h1.031v2.729h3.416v1.386h-3.416v6.945
		c0,0.711,0.168,1.256,0.504,1.637c0.337,0.381,0.799,0.571,1.387,0.571c0.314,0,0.619-0.023,0.912-0.07
		c0.294-0.047,0.527-0.095,0.699-0.146v1.348c-0.193,0.092-0.479,0.167-0.854,0.228c-0.378,0.06-0.72,0.09-1.021,0.09
		c-2.272,0-3.416-1.199-3.416-3.599V26.46H460.385z"/>
	<path fill="#666666" d="M469.052,31.059c0-1.897,0.465-3.405,1.396-4.522c0.937-1.117,2.188-1.676,3.754-1.676
		c1.477,0,2.64,0.485,3.49,1.456c0.856,0.971,1.285,2.25,1.285,3.84v1.128h-8.1c0.029,1.382,0.385,2.432,1.049,3.147
		c0.664,0.716,1.598,1.074,2.803,1.074c1.264,0,2.514-0.265,3.748-0.795v1.59c-0.628,0.272-1.223,0.467-1.783,0.585
		c-0.56,0.118-1.236,0.177-2.029,0.177c-1.729,0-3.104-0.53-4.104-1.59C469.552,34.414,469.052,32.941,469.052,31.059z
		 M470.927,29.833h6.166c0-1.124-0.252-1.985-0.754-2.583c-0.508-0.598-1.225-0.897-2.152-0.897c-0.947,0-1.701,0.308-2.271,0.924
		C471.352,27.894,471.02,28.746,470.927,29.833z"/>
</g>
<path fill="#9A999E" d="M64.026,309.484c0-2.236,0.35-3.896,1.049-4.979c0.7-1.083,1.767-1.625,3.201-1.625
	c1.393,0,2.451,0.565,3.174,1.695s1.084,2.767,1.084,4.909c0,2.223-0.35,3.882-1.049,4.979c-0.699,1.098-1.771,1.645-3.209,1.645
	c-1.387,0-2.442-0.562-3.165-1.685C64.387,313.301,64.026,311.654,64.026,309.484z M65.52,309.484c0,1.865,0.219,3.223,0.658,4.072
	c0.438,0.852,1.138,1.273,2.097,1.273c0.971,0,1.674-0.434,2.107-1.293c0.438-0.862,0.654-2.214,0.654-4.059
	c0-1.84-0.218-3.188-0.654-4.045c-0.436-0.855-1.139-1.285-2.107-1.285c-0.959,0-1.659,0.425-2.097,1.27
	C65.74,306.266,65.52,307.62,65.52,309.484z"/>
<path fill="#9A999E" d="M323.612,309.484c0-2.236,0.353-3.896,1.049-4.979c0.7-1.083,1.771-1.625,3.201-1.625
	c1.396,0,2.451,0.565,3.174,1.695c0.726,1.13,1.084,2.767,1.084,4.909c0,2.223-0.35,3.882-1.049,4.979
	c-0.699,1.098-1.77,1.645-3.209,1.645c-1.387,0-2.439-0.562-3.165-1.685C323.973,313.301,323.612,311.654,323.612,309.484z
	 M325.106,309.484c0,1.865,0.22,3.223,0.658,4.072c0.438,0.852,1.139,1.273,2.098,1.273c0.971,0,1.674-0.434,2.11-1.293
	c0.436-0.862,0.65-2.214,0.65-4.059c0-1.84-0.217-3.188-0.65-4.045c-0.438-0.855-1.143-1.285-2.11-1.285
	c-0.959,0-1.658,0.425-2.098,1.27C325.326,306.266,325.106,307.62,325.106,309.484z"/>
<g>
	<path fill="#87868A" d="M58.841,208.43H43.944v-4.207c0-1.979,0.295-3.408,0.885-4.291c0.596-0.887,1.521-1.324,2.804-1.324
		c0.889,0,1.606,0.246,2.188,0.738c0.573,0.49,0.945,1.211,1.115,2.152h0.104c0.396-2.248,1.578-3.373,3.566-3.373
		c1.332,0,2.371,0.449,3.118,1.352c0.748,0.896,1.115,2.15,1.115,3.771L58.841,208.43L58.841,208.43z M50.312,206.698v-2.854
		c0-1.225-0.188-2.104-0.569-2.641c-0.388-0.537-1.021-0.813-1.938-0.813c-0.834,0-1.438,0.299-1.813,0.896
		c-0.364,0.603-0.555,1.553-0.555,2.854v2.547L50.312,206.698L50.312,206.698z M57.364,206.698v-3.107
		c0-1.192-0.229-2.104-0.698-2.715c-0.465-0.604-1.188-0.912-2.188-0.912c-0.924,0-1.604,0.313-2.033,0.938
		c-0.438,0.621-0.652,1.563-0.652,2.839v2.969L57.364,206.698L57.364,206.698z"/>
	<path fill="#87868A" d="M44.647,195.305c-0.394,0-0.671-0.088-0.854-0.266c-0.185-0.184-0.271-0.396-0.271-0.656
		c0-0.295,0.092-0.547,0.271-0.76c0.188-0.211,0.466-0.314,0.853-0.314c0.385,0,0.664,0.104,0.854,0.314
		c0.188,0.213,0.28,0.465,0.28,0.76c0,0.266-0.104,0.479-0.28,0.656C45.311,195.217,45.027,195.305,44.647,195.305z M58.841,195.163
		H47.673v-1.55h11.168V195.163z"/>
	<path fill="#87868A" d="M58.841,189.883H42.986v-1.689H58.84L58.841,189.883L58.841,189.883z"/>
	<path fill="#87868A" d="M58.841,184.605H42.986v-1.69H58.84L58.841,184.605L58.841,184.605z"/>
	<path fill="#87868A" d="M44.647,179.47c-0.394,0-0.671-0.09-0.854-0.266c-0.185-0.183-0.271-0.396-0.271-0.656
		c0-0.293,0.092-0.547,0.271-0.758c0.188-0.213,0.466-0.317,0.853-0.317c0.385,0,0.664,0.104,0.854,0.317
		c0.188,0.211,0.28,0.465,0.28,0.758c0,0.264-0.104,0.479-0.28,0.656C45.311,179.38,45.027,179.47,44.647,179.47z M58.841,179.329
		H47.673v-1.551h11.168V179.329z"/>
	<path fill="#87868A" d="M53.237,174.669c-1.813,0-3.229-0.455-4.247-1.36c-1.019-0.908-1.521-2.168-1.521-3.78
		c0-1.558,0.521-2.795,1.563-3.713c1.032-0.918,2.438-1.377,4.211-1.377c1.819,0,3.248,0.457,4.271,1.372
		c1.021,0.914,1.53,2.178,1.53,3.789c0,0.996-0.229,1.88-0.698,2.651c-0.479,0.771-1.146,1.367-2.021,1.787
		S54.413,174.669,53.237,174.669z M53.237,172.938c1.43,0,2.521-0.286,3.271-0.856c0.749-0.563,1.124-1.412,1.124-2.521
		s-0.373-1.951-1.113-2.524c-0.745-0.574-1.843-0.858-3.271-0.858c-1.423,0-2.504,0.284-3.243,0.858
		c-0.729,0.573-1.104,1.424-1.104,2.547c0,1.106,0.358,1.943,1.099,2.513C50.706,172.655,51.793,172.938,53.237,172.938z"/>
	<path fill="#87868A" d="M58.841,161.443H47.673v-1.376l1.515-0.275v-0.081c-0.544-0.347-0.972-0.832-1.271-1.457
		c-0.299-0.625-0.438-1.321-0.438-2.089c0-1.346,0.318-2.357,0.979-3.037c0.646-0.68,1.688-1.02,3.107-1.02h7.282v1.692h-7.235
		c-0.907,0-1.596,0.207-2.042,0.621c-0.444,0.415-0.677,1.063-0.677,1.946c0,1.169,0.313,2.024,0.946,2.568
		c0.637,0.543,1.684,0.815,3.141,0.815h5.867L58.841,161.443L58.841,161.443z"/>
</g>
<g>
	<path fill="#87868A" d="M327.009,208.43h-14.899v-4.209c0-1.979,0.296-3.406,0.886-4.289c0.604-0.887,1.523-1.326,2.813-1.326
		c0.883,0,1.604,0.246,2.185,0.74c0.574,0.49,0.946,1.211,1.116,2.152h0.104c0.396-2.248,1.574-3.373,3.567-3.373
		c1.332,0,2.371,0.449,3.118,1.35c0.747,0.901,1.121,2.152,1.121,3.771L327.009,208.43L327.009,208.43z M318.471,206.695v-2.854
		c0-1.225-0.191-2.104-0.574-2.641c-0.383-0.537-1.021-0.813-1.938-0.813c-0.834,0-1.438,0.299-1.813,0.896
		c-0.359,0.603-0.557,1.553-0.557,2.854v2.547L318.471,206.695L318.471,206.695z M325.522,206.695v-3.104
		c0-1.192-0.229-2.104-0.688-2.715c-0.479-0.604-1.193-0.912-2.188-0.912c-0.924,0-1.604,0.313-2.038,0.938
		c-0.435,0.621-0.646,1.563-0.646,2.838v2.971L325.522,206.695L325.522,206.695z"/>
	<path fill="#87868A" d="M312.804,195.305c-0.393,0-0.673-0.088-0.854-0.266c-0.188-0.186-0.271-0.396-0.271-0.656
		c0-0.295,0.091-0.547,0.271-0.76c0.188-0.211,0.467-0.316,0.85-0.316s0.664,0.105,0.854,0.316c0.188,0.213,0.28,0.465,0.28,0.76
		c0,0.264-0.097,0.479-0.28,0.656S313.185,195.305,312.804,195.305z M327.009,195.163H315.84v-1.552h11.169V195.163z"/>
	<path fill="#87868A" d="M327.009,189.883h-15.859v-1.691h15.855L327.009,189.883L327.009,189.883z"/>
	<path fill="#87868A" d="M327.009,184.604h-15.859v-1.69h15.855L327.009,184.604L327.009,184.604z"/>
	<path fill="#87868A" d="M312.804,179.469c-0.393,0-0.673-0.09-0.854-0.266c-0.188-0.183-0.271-0.396-0.271-0.656
		c0-0.293,0.091-0.547,0.271-0.758c0.188-0.213,0.467-0.317,0.85-0.317s0.664,0.104,0.854,0.317c0.188,0.211,0.28,0.465,0.28,0.758
		c0,0.264-0.097,0.479-0.28,0.656C313.469,179.379,313.185,179.469,312.804,179.469z M327.009,179.328H315.84v-1.551h11.169V179.328
		z"/>
	<path fill="#87868A" d="M321.395,174.668c-1.813,0-3.229-0.455-4.247-1.36c-1.014-0.908-1.521-2.168-1.521-3.78
		c0-1.558,0.519-2.795,1.557-3.713c1.037-0.918,2.438-1.377,4.211-1.377c1.824,0,3.248,0.457,4.271,1.372
		c1.021,0.914,1.537,2.178,1.537,3.789c0,0.996-0.229,1.88-0.705,2.651c-0.479,0.771-1.146,1.367-2.021,1.787
		S322.567,174.668,321.395,174.668z M321.395,172.937c1.43,0,2.521-0.286,3.271-0.856c0.749-0.563,1.123-1.412,1.123-2.521
		s-0.372-1.951-1.112-2.524c-0.745-0.574-1.839-0.858-3.273-0.858c-1.423,0-2.504,0.284-3.243,0.858
		c-0.729,0.573-1.104,1.424-1.104,2.547c0,1.106,0.357,1.943,1.093,2.513C318.86,172.654,319.957,172.937,321.395,172.937z"/>
	<path fill="#87868A" d="M327.009,161.442H315.84v-1.376l1.509-0.275v-0.081c-0.543-0.347-0.965-0.832-1.27-1.457
		c-0.309-0.625-0.442-1.321-0.442-2.089c0-1.346,0.318-2.357,0.973-3.037c0.649-0.68,1.688-1.02,3.113-1.02h7.286v1.692h-7.239
		c-0.913,0-1.594,0.207-2.043,0.621c-0.449,0.415-0.674,1.063-0.674,1.946c0,1.169,0.313,2.024,0.944,2.568
		c0.639,0.543,1.684,0.815,3.141,0.815h5.871V161.442L327.009,161.442z"/>
</g>
<g>
	<path fill="#9A999E" d="M28.284,72.964v-1.241l3.384-3.415c1.031-1.047,1.711-1.794,2.039-2.241
		c0.328-0.447,0.574-0.882,0.738-1.306c0.164-0.423,0.246-0.879,0.246-1.368c0-0.688-0.208-1.234-0.624-1.637
		c-0.416-0.403-0.993-0.604-1.731-0.604c-0.532,0-1.039,0.088-1.516,0.265c-0.479,0.177-1.009,0.498-1.595,0.962l-0.773-0.997
		c1.185-0.967,2.473-1.451,3.867-1.451c1.207,0,2.153,0.308,2.839,0.922c0.687,0.615,1.028,1.442,1.028,2.479
		c0,0.818-0.229,1.627-0.687,2.427c-0.457,0.8-1.313,1.812-2.565,3.036l-2.813,2.762v0.071h6.609v1.336H28.284z"/>
	<path fill="#9A999E" d="M38.251,75.284c0.158-0.609,0.332-1.362,0.522-2.259c0.189-0.897,0.324-1.614,0.399-2.153h1.593
		l0.131,0.202c-0.151,0.586-0.37,1.267-0.655,2.043c-0.286,0.776-0.583,1.499-0.893,2.167H38.251z"/>
	<path fill="#9A999E" d="M43.138,67.475c0-2.526,0.489-4.416,1.472-5.667c0.98-1.251,2.434-1.877,4.354-1.877
		c0.664,0,1.188,0.056,1.57,0.167v1.274c-0.453-0.17-0.971-0.255-1.553-0.255c-1.377,0-2.429,0.431-3.155,1.292
		c-0.727,0.862-1.125,2.215-1.195,4.062h0.105c0.645-0.997,1.664-1.495,3.059-1.495c1.159,0,2.073,0.348,2.742,1.043
		c0.668,0.695,1.002,1.64,1.002,2.832c0,1.333-0.366,2.382-1.099,3.145c-0.733,0.763-1.725,1.145-2.971,1.145
		c-1.33,0-2.386-0.499-3.164-1.498S43.138,69.255,43.138,67.475z M44.632,68.524c0,0.605,0.117,1.169,0.353,1.693
		c0.233,0.523,0.566,0.937,0.997,1.243c0.432,0.306,0.922,0.458,1.473,0.458c0.832,0,1.479-0.263,1.938-0.789
		c0.46-0.526,0.689-1.286,0.689-2.279c0-0.852-0.214-1.522-0.642-2.01c-0.428-0.487-1.066-0.731-1.916-0.731
		c-0.527,0-1.011,0.109-1.45,0.326c-0.439,0.217-0.79,0.517-1.05,0.899C44.762,67.716,44.632,68.113,44.632,68.524z"/>
	<path fill="#9A999E" d="M53.316,69.686c0-1.471,0.9-2.616,2.705-3.437c-0.817-0.457-1.403-0.951-1.759-1.481
		c-0.356-0.53-0.533-1.124-0.533-1.78c0-0.932,0.347-1.674,1.039-2.228c0.691-0.554,1.619-0.831,2.779-0.831
		c1.177,0,2.107,0.272,2.795,0.817c0.688,0.545,1.032,1.298,1.032,2.259c0,0.633-0.196,1.21-0.593,1.731
		c-0.395,0.521-1.025,0.996-1.893,1.424c1.049,0.498,1.794,1.021,2.234,1.569c0.442,0.548,0.663,1.182,0.663,1.903
		c0,1.066-0.373,1.917-1.12,2.553C59.922,72.822,58.9,73.14,57.6,73.14c-1.375,0-2.434-0.3-3.175-0.901
		C53.686,71.638,53.316,70.787,53.316,69.686z M54.775,69.721c0,0.703,0.244,1.251,0.731,1.644c0.488,0.393,1.176,0.589,2.06,0.589
		c0.871,0,1.55-0.205,2.035-0.615c0.484-0.41,0.729-0.973,0.729-1.688c0-0.568-0.229-1.074-0.685-1.516
		c-0.456-0.442-1.252-0.872-2.388-1.288c-0.871,0.375-1.504,0.79-1.896,1.244S54.775,69.088,54.775,69.721z M55.188,63.05
		c0,0.539,0.173,1.002,0.518,1.389s0.982,0.773,1.912,1.16c0.837-0.352,1.429-0.729,1.776-1.134
		c0.349-0.404,0.521-0.876,0.521-1.415c0-0.592-0.212-1.062-0.636-1.411c-0.425-0.349-1.008-0.523-1.75-0.523
		c-0.731,0-1.305,0.176-1.72,0.527C55.395,61.995,55.188,62.464,55.188,63.05z"/>
	<path fill="#9A999E" d="M63.59,66.517c0-2.237,0.351-3.897,1.05-4.98c0.698-1.083,1.767-1.625,3.2-1.625
		c1.394,0,2.45,0.565,3.175,1.695c0.723,1.13,1.084,2.767,1.084,4.91c0,2.222-0.351,3.881-1.05,4.978
		c-0.699,1.096-1.77,1.645-3.209,1.645c-1.388,0-2.441-0.562-3.166-1.684C63.951,70.333,63.59,68.687,63.59,66.517z M65.084,66.517
		c0,1.865,0.221,3.222,0.658,4.072c0.438,0.851,1.138,1.276,2.098,1.276c0.972,0,1.675-0.431,2.109-1.293
		c0.438-0.862,0.654-2.214,0.654-4.055c0-1.841-0.219-3.19-0.654-4.046s-1.139-1.285-2.109-1.285c-0.96,0-1.658,0.422-2.098,1.267
		C65.304,63.298,65.084,64.652,65.084,66.517z"/>
</g>
<g>
	<path fill="#FFFFFF" d="M150.868,137.775h-3.102v-8.492l0.029-1.395l0.052-1.526c-0.517,0.516-0.874,0.854-1.074,1.014
		l-1.688,1.355l-1.495-1.867l4.729-3.764h2.549V137.775L150.868,137.775z"/>
	<path fill="#FFFFFF" d="M158.718,135.617c-0.349,1.352-0.938,2.955-1.767,4.808h-2.208c0.436-1.78,0.772-3.459,1.014-5.039h2.812
		L158.718,135.617z"/>
	<path fill="#FFFFFF" d="M171.154,137.775h-10.258v-2.158l3.684-3.724c1.091-1.118,1.803-1.892,2.139-2.324
		c0.335-0.432,0.574-0.831,0.723-1.199c0.147-0.368,0.221-0.75,0.221-1.145c0-0.588-0.162-1.027-0.485-1.315
		c-0.325-0.288-0.759-0.432-1.301-0.432c-0.568,0-1.121,0.131-1.655,0.392c-0.535,0.261-1.095,0.632-1.678,1.114l-1.686-1.998
		c0.723-0.615,1.321-1.05,1.796-1.305c0.476-0.254,0.994-0.45,1.557-0.587c0.563-0.137,1.19-0.206,1.888-0.206
		c0.917,0,1.727,0.167,2.429,0.502c0.703,0.334,1.248,0.803,1.637,1.405c0.388,0.602,0.582,1.292,0.582,2.067
		c0,0.676-0.119,1.31-0.355,1.902c-0.237,0.592-0.605,1.199-1.104,1.822c-0.498,0.622-1.377,1.509-2.635,2.66l-1.887,1.777v0.14
		h6.394v2.612H171.154z"/>
	<path fill="#FFFFFF" d="M182.807,130.438c0,2.563-0.42,4.46-1.261,5.691c-0.84,1.231-2.133,1.847-3.88,1.847
		c-1.691,0-2.969-0.636-3.829-1.907c-0.858-1.271-1.289-3.148-1.289-5.631c0-2.589,0.418-4.498,1.255-5.726s2.125-1.842,3.863-1.842
		c1.693,0,2.974,0.642,3.84,1.927C182.373,126.082,182.807,127.962,182.807,130.438z M175.63,130.438c0,1.8,0.155,3.09,0.468,3.87
		c0.312,0.779,0.835,1.169,1.569,1.169c0.724,0,1.245-0.395,1.566-1.185s0.48-2.074,0.48-3.854c0-1.8-0.161-3.093-0.485-3.879
		c-0.325-0.786-0.846-1.179-1.563-1.179c-0.729,0-1.251,0.393-1.564,1.179C175.787,127.345,175.63,128.638,175.63,130.438z"/>
	<path fill="#FFFFFF" d="M185.818,137.775l5.511-12.045h-7.237v-2.609h10.529v1.947l-5.551,12.707H185.818z"/>
</g>
<g>
	<path fill="#FFFFFF" d="M150.868,254.273h-3.102v-8.492l0.029-1.396l0.052-1.524c-0.517,0.516-0.874,0.854-1.074,1.014
		l-1.688,1.355l-1.495-1.867l4.729-3.764h2.549V254.273L150.868,254.273z"/>
	<path fill="#FFFFFF" d="M158.718,252.115c-0.349,1.352-0.938,2.955-1.767,4.809h-2.208c0.436-1.781,0.772-3.46,1.014-5.039h2.812
		L158.718,252.115z"/>
	<path fill="#FFFFFF" d="M171.485,251.232h-1.768v3.041h-3.03v-3.041h-6.264v-2.158l6.435-9.475h2.859v9.224h1.768V251.232z
		 M166.687,248.823v-2.489c0-0.415,0.017-1.018,0.051-1.807c0.033-0.789,0.06-1.248,0.08-1.375h-0.08
		c-0.248,0.549-0.546,1.084-0.894,1.604l-2.69,4.065L166.687,248.823L166.687,248.823z"/>
	<path fill="#FFFFFF" d="M174.084,254.273l5.512-12.045h-7.237v-2.609h10.529v1.947l-5.552,12.707H174.084z"/>
	<path fill="#FFFFFF" d="M194.048,242.881c0,0.917-0.276,1.697-0.833,2.339c-0.556,0.644-1.335,1.085-2.339,1.325v0.061
		c1.186,0.146,2.081,0.506,2.69,1.078c0.607,0.572,0.913,1.344,0.913,2.314c0,1.412-0.513,2.511-1.535,3.297
		c-1.024,0.786-2.486,1.18-4.387,1.18c-1.594,0-3.005-0.265-4.235-0.793v-2.641c0.568,0.288,1.194,0.521,1.877,0.703
		c0.683,0.181,1.358,0.271,2.027,0.271c1.022,0,1.779-0.175,2.269-0.522c0.489-0.349,0.732-0.907,0.732-1.677
		c0-0.688-0.281-1.178-0.844-1.465s-1.459-0.433-2.689-0.433h-1.114v-2.379h1.135c1.139,0,1.97-0.147,2.494-0.447
		c0.525-0.297,0.788-0.808,0.788-1.53c0-1.109-0.696-1.666-2.088-1.666c-0.482,0-0.973,0.08-1.471,0.241
		c-0.498,0.16-1.054,0.438-1.661,0.833l-1.437-2.138c1.34-0.964,2.936-1.445,4.788-1.445c1.52,0,2.72,0.308,3.6,0.923
		C193.608,240.927,194.048,241.783,194.048,242.881z"/>
</g>
</svg>
