<?xml version="1.0" encoding="utf-8"?>
<!-- Generator: Adobe Illustrator 16.0.0, SVG Export Plug-In . SVG Version: 6.00 Build 0)  -->
<!DOCTYPE svg PUBLIC "-//W3C//DTD SVG 1.1//EN" "http://www.w3.org/Graphics/SVG/1.1/DTD/svg11.dtd">
<svg version="1.1" id="Capa_1" xmlns="http://www.w3.org/2000/svg" xmlns:xlink="http://www.w3.org/1999/xlink" x="0px" y="0px"
	 width="779.527px" height="357.166px" viewBox="0 0 779.527 357.166" enable-background="new 0 0 779.527 357.166"
	 xml:space="preserve">
<g id="global-estimates">
	<g>
		<rect x="122.532" y="210.812" fill="#199598" width="100.49" height="122.967"/>
		<rect x="122.532" y="85.746" fill="#DD9B2B" width="100.49" height="125.063"/>
	</g>
	<g>
		<path fill="#666565" d="M62.333,39.421c0-1.549,0.313-2.906,0.934-4.071s1.521-2.055,2.688-2.67
			c1.168-0.615,2.533-0.922,4.104-0.922c1.59,0,3.068,0.292,4.441,0.876l-0.672,1.529c-1.35-0.571-2.645-0.856-3.888-0.856
			c-1.813,0-3.229,0.54-4.249,1.62c-1.021,1.08-1.524,2.578-1.524,4.494c0,2.018,0.491,3.548,1.475,4.591
			c0.979,1.043,2.423,1.564,4.324,1.564c1.033,0,2.042-0.12,3.026-0.358v-4.604H69.66v-1.549h5.063v7.255
			c-0.788,0.248-1.592,0.436-2.405,0.563s-1.76,0.191-2.833,0.191c-2.255,0-4.012-0.67-5.27-2.012
			C62.961,43.72,62.333,41.84,62.333,39.421z"/>
		<path fill="#666565" d="M78.047,46.87V31.014h1.688V46.87H78.047z"/>
		<path fill="#666565" d="M82.704,41.266c0-1.817,0.454-3.233,1.356-4.247c0.906-1.014,2.167-1.521,3.778-1.521
			c1.56,0,2.795,0.519,3.715,1.556c0.917,1.038,1.376,2.441,1.376,4.211c0,1.824-0.457,3.248-1.372,4.272s-2.18,1.536-3.79,1.536
			c-0.996,0-1.88-0.234-2.647-0.704c-0.771-0.47-1.368-1.144-1.788-2.021S82.704,42.443,82.704,41.266z M84.436,41.266
			c0,1.43,0.286,2.52,0.855,3.269c0.572,0.749,1.412,1.124,2.521,1.124c1.107,0,1.951-0.373,2.524-1.119
			c0.575-0.746,0.862-1.837,0.862-3.273c0-1.423-0.288-2.504-0.862-3.243c-0.572-0.739-1.424-1.108-2.546-1.108
			c-1.107,0-1.944,0.364-2.51,1.093C84.718,38.736,84.436,39.822,84.436,41.266z"/>
		<path fill="#666565" d="M95.931,46.87V31.014h1.689v3.852c0,0.863-0.025,1.637-0.082,2.323h0.082
			c0.788-1.114,1.957-1.671,3.506-1.671c1.46,0,2.597,0.501,3.398,1.503c0.813,1.002,1.217,2.42,1.217,4.254
			s-0.407,3.259-1.227,4.274c-0.813,1.016-1.941,1.523-3.396,1.523c-0.729,0-1.396-0.134-1.992-0.402
			c-0.604-0.268-1.104-0.681-1.514-1.238H97.5l-0.354,1.437L95.931,46.87L95.931,46.87z M97.622,41.276
			c0,1.569,0.262,2.692,0.785,3.368c0.521,0.676,1.357,1.014,2.517,1.014c1.04,0,1.813-0.379,2.323-1.136
			c0.51-0.758,0.767-1.846,0.767-3.266c0-1.454-0.257-2.538-0.767-3.251c-0.514-0.713-1.297-1.07-2.364-1.07
			c-1.153,0-1.985,0.331-2.495,0.994C97.877,38.59,97.622,39.707,97.622,41.276z"/>
		<path fill="#666565" d="M107.884,43.794c0-2.25,1.808-3.429,5.42-3.537l1.896-0.062v-0.702c0-0.887-0.188-1.542-0.563-1.965
			c-0.378-0.423-0.979-0.634-1.808-0.634c-0.934,0-1.979,0.289-3.151,0.866l-0.526-1.298c0.555-0.294,1.153-0.525,1.813-0.692
			c0.66-0.167,1.313-0.251,1.974-0.251c1.33,0,2.313,0.295,2.957,0.887c0.644,0.591,0.962,1.539,0.962,2.843v7.622H115.6
			l-0.336-1.571h-0.082c-0.558,0.693-1.11,1.162-1.663,1.407c-0.554,0.246-1.242,0.368-2.067,0.368c-1.11,0-1.98-0.284-2.614-0.853
			C108.199,45.652,107.884,44.843,107.884,43.794z M109.677,43.814c0,0.615,0.185,1.082,0.554,1.403
			c0.37,0.321,0.892,0.481,1.556,0.481c1.051,0,1.876-0.29,2.479-0.87c0.6-0.581,0.898-1.393,0.898-2.437v-1.014l-1.688,0.071
			c-1.345,0.048-2.313,0.258-2.904,0.63C109.978,42.45,109.677,43.029,109.677,43.814z"/>
		<path fill="#666565" d="M120.326,46.87V31.014h1.688V46.87H120.326z"/>
		<path fill="#666565" d="M130.404,41.377c0-1.8,0.442-3.23,1.326-4.29s2.069-1.589,3.563-1.589c1.396,0,2.498,0.46,3.313,1.38
			c0.813,0.921,1.222,2.135,1.222,3.643v1.07h-7.687c0.032,1.311,0.364,2.306,0.993,2.985c0.631,0.68,1.518,1.019,2.659,1.019
			c1.199,0,2.386-0.251,3.558-0.754v1.508c-0.598,0.258-1.16,0.443-1.689,0.555c-0.53,0.112-1.176,0.168-1.928,0.168
			c-1.646,0-2.941-0.502-3.896-1.508C130.88,44.561,130.404,43.165,130.404,41.377z M132.177,40.216h5.849
			c0-1.066-0.233-1.883-0.714-2.451c-0.479-0.567-1.157-0.851-2.042-0.851c-0.896,0-1.615,0.292-2.146,0.876
			C132.587,38.375,132.272,39.183,132.177,40.216z"/>
		<path fill="#666565" d="M142.021,38.446c0-0.911,0.37-1.63,1.107-2.158c0.74-0.527,1.754-0.791,3.044-0.791
			c1.195,0,2.363,0.244,3.506,0.733l-0.592,1.377c-1.115-0.463-2.13-0.695-3.037-0.695c-0.803,0-1.407,0.126-1.816,0.378
			c-0.403,0.251-0.607,0.599-0.607,1.042c0,0.3,0.076,0.555,0.229,0.766c0.151,0.211,0.398,0.412,0.741,0.603
			c0.34,0.191,0.992,0.467,1.96,0.828c1.322,0.483,2.215,0.97,2.671,1.46c0.457,0.49,0.688,1.104,0.688,1.849
			c0,1.034-0.39,1.832-1.153,2.393c-0.771,0.561-1.854,0.841-3.243,0.841c-1.479,0-2.631-0.23-3.458-0.693V44.82
			c0.536,0.272,1.108,0.487,1.726,0.644c0.612,0.157,1.204,0.235,1.773,0.235c0.885,0,1.563-0.141,2.042-0.424
			c0.479-0.283,0.715-0.713,0.715-1.292c0-0.436-0.188-0.809-0.563-1.119c-0.379-0.31-1.113-0.676-2.212-1.098
			c-1.042-0.388-1.778-0.727-2.221-1.017c-0.438-0.29-0.76-0.618-0.974-0.986C142.127,39.396,142.021,38.957,142.021,38.446z"/>
		<path fill="#666565" d="M151.212,37.016v-0.815l1.602-0.703l0.713-2.385h0.979v2.588h3.24v1.314h-3.24v6.588
			c0,0.674,0.16,1.191,0.479,1.552c0.319,0.361,0.762,0.542,1.313,0.542c0.301,0,0.587-0.022,0.866-0.066
			c0.273-0.044,0.499-0.09,0.662-0.138v1.278c-0.188,0.087-0.453,0.159-0.813,0.216c-0.354,0.057-0.68,0.085-0.965,0.085
			c-2.158,0-3.239-1.138-3.239-3.414v-6.644h-1.601L151.212,37.016L151.212,37.016z"/>
		<path fill="#666565" d="M159.915,32.675c0-0.387,0.087-0.671,0.265-0.851c0.175-0.18,0.395-0.27,0.656-0.27
			c0.293,0,0.545,0.092,0.76,0.275c0.212,0.184,0.316,0.466,0.316,0.846c0,0.38-0.104,0.664-0.316,0.851
			c-0.214,0.187-0.467,0.28-0.76,0.28c-0.268,0-0.48-0.093-0.656-0.28C160.002,33.339,159.915,33.056,159.915,32.675z
			 M160.058,46.87V35.702h1.549V46.87H160.058z"/>
		<path fill="#666565" d="M165.336,46.87V35.702h1.375l0.271,1.509h0.082c0.317-0.537,0.771-0.957,1.354-1.259
			c0.581-0.302,1.229-0.453,1.952-0.453c1.746,0,2.887,0.625,3.424,1.876h0.082c0.333-0.579,0.813-1.036,1.442-1.372
			c0.637-0.336,1.354-0.504,2.161-0.504c1.268,0,2.209,0.324,2.838,0.973c0.633,0.648,0.94,1.687,0.94,3.113v7.286h-1.689V39.59
			c0-0.892-0.188-1.561-0.566-2.006s-0.977-0.669-1.771-0.669c-1.055,0-1.831,0.303-2.333,0.909
			c-0.503,0.605-0.754,1.538-0.754,2.798v6.249h-1.688V39.59c0-0.892-0.188-1.561-0.571-2.006c-0.381-0.445-0.979-0.669-1.781-0.669
			c-1.062,0-1.836,0.318-2.329,0.955c-0.492,0.637-0.736,1.68-0.736,3.13v5.871L165.336,46.87L165.336,46.87z"/>
		<path fill="#666565" d="M183.913,43.794c0-2.25,1.808-3.429,5.418-3.537l1.896-0.062v-0.702c0-0.887-0.188-1.542-0.563-1.965
			c-0.376-0.423-0.979-0.634-1.811-0.634c-0.931,0-1.979,0.289-3.148,0.866l-0.524-1.298c0.55-0.294,1.151-0.525,1.809-0.692
			s1.313-0.251,1.977-0.251c1.33,0,2.313,0.295,2.957,0.887c0.643,0.591,0.963,1.539,0.963,2.843v7.622h-1.254l-0.336-1.571h-0.082
			c-0.561,0.693-1.108,1.162-1.663,1.407c-0.552,0.246-1.24,0.368-2.068,0.368c-1.108,0-1.979-0.284-2.616-0.853
			C184.229,45.652,183.913,44.843,183.913,43.794z M185.707,43.814c0,0.615,0.187,1.082,0.556,1.403
			c0.368,0.321,0.887,0.481,1.551,0.481c1.051,0,1.876-0.29,2.479-0.87c0.602-0.581,0.896-1.393,0.896-2.437v-1.014l-1.688,0.071
			c-1.344,0.048-2.313,0.258-2.902,0.63C186.004,42.45,185.707,43.029,185.707,43.814z"/>
		<path fill="#666565" d="M194.877,37.016v-0.815l1.602-0.703l0.713-2.385h0.979v2.588h3.24v1.314h-3.24v6.588
			c0,0.674,0.16,1.191,0.479,1.552c0.317,0.361,0.757,0.542,1.313,0.542c0.301,0,0.587-0.022,0.866-0.066
			c0.273-0.044,0.499-0.09,0.662-0.138v1.278c-0.188,0.087-0.453,0.159-0.813,0.216c-0.354,0.057-0.68,0.085-0.965,0.085
			c-2.158,0-3.239-1.138-3.239-3.414v-6.644h-1.601L194.877,37.016L194.877,37.016z"/>
		<path fill="#666565" d="M203.101,41.377c0-1.8,0.44-3.23,1.326-4.29c0.884-1.06,2.069-1.589,3.561-1.589
			c1.396,0,2.498,0.46,3.313,1.38c0.813,0.921,1.221,2.135,1.221,3.643v1.07h-7.686c0.034,1.311,0.366,2.306,0.995,2.985
			c0.629,0.68,1.518,1.019,2.654,1.019c1.199,0,2.389-0.251,3.561-0.754v1.508c-0.601,0.258-1.158,0.443-1.69,0.555
			c-0.532,0.112-1.173,0.168-1.925,0.168c-1.646,0-2.946-0.502-3.898-1.508C203.577,44.561,203.101,43.165,203.101,41.377z
			 M204.874,40.216h5.851c0-1.066-0.238-1.883-0.716-2.451c-0.479-0.567-1.155-0.851-2.042-0.851c-0.896,0-1.613,0.292-2.147,0.876
			C205.284,38.375,204.969,39.183,204.874,40.216z"/>
		<path fill="#666565" d="M214.718,38.446c0-0.911,0.37-1.63,1.109-2.158c0.735-0.527,1.754-0.791,3.044-0.791
			c1.19,0,2.358,0.244,3.504,0.733l-0.59,1.377c-1.117-0.463-2.135-0.695-3.037-0.695c-0.808,0-1.409,0.126-1.816,0.378
			c-0.408,0.251-0.612,0.599-0.612,1.042c0,0.3,0.077,0.555,0.229,0.766c0.153,0.211,0.396,0.412,0.741,0.603
			c0.34,0.191,0.994,0.467,1.96,0.828c1.319,0.483,2.215,0.97,2.671,1.46c0.457,0.49,0.687,1.104,0.687,1.849
			c0,1.034-0.385,1.832-1.15,2.393c-0.771,0.561-1.854,0.841-3.243,0.841c-1.479,0-2.631-0.23-3.458-0.693V44.82
			c0.536,0.272,1.105,0.487,1.726,0.644c0.613,0.157,1.206,0.235,1.773,0.235c0.887,0,1.563-0.141,2.042-0.424
			c0.479-0.283,0.717-0.713,0.717-1.292c0-0.436-0.189-0.809-0.567-1.119c-0.378-0.31-1.111-0.676-2.211-1.098
			c-1.042-0.388-1.779-0.727-2.217-1.017s-0.762-0.618-0.976-0.986C214.824,39.396,214.718,38.957,214.718,38.446z"/>
	</g>
	<g>
		<path fill="#9A999E" d="M33.949,91.011v-1.199l3.271-3.299c0.994-1.012,1.651-1.734,1.97-2.166
			c0.315-0.432,0.56-0.853,0.713-1.262c0.159-0.409,0.238-0.85,0.238-1.321c0-0.665-0.201-1.192-0.604-1.582
			s-0.96-0.584-1.678-0.584c-0.518,0-1.004,0.085-1.465,0.256c-0.462,0.17-0.978,0.48-1.542,0.93L34.11,79.82
			c1.146-0.935,2.394-1.402,3.736-1.402c1.166,0,2.081,0.297,2.741,0.891c0.663,0.594,0.994,1.393,0.994,2.396
			c0,0.79-0.226,1.572-0.663,2.345c-0.439,0.773-1.271,1.751-2.479,2.934l-2.717,2.669v0.068h6.386v1.291h-8.16V91.011
			L33.949,91.011z"/>
		<path fill="#9A999E" d="M48.02,88.166v-1.239l5.896-8.399h1.494v8.347h1.855v1.291H55.41v2.845h-1.333v-2.845H48.02z
			 M49.447,86.875h4.633v-4.127c0-0.81,0.023-1.724,0.084-2.743h-0.066c-0.271,0.543-0.526,0.994-0.766,1.35L49.447,86.875z"/>
		<path fill="#9A999E" d="M57.964,88.166v-1.239l5.896-8.399h1.494v8.347h1.858v1.291h-1.858v2.845H64.02v-2.845H57.964z
			 M59.391,86.875h4.628v-4.127c0-0.81,0.026-1.724,0.084-2.743H64.04c-0.271,0.543-0.524,0.994-0.769,1.35L59.391,86.875z"/>
		<path fill="#9A999E" d="M68.443,87.843c0-1.421,0.871-2.528,2.614-3.32c-0.79-0.441-1.354-0.918-1.7-1.431
			c-0.343-0.513-0.517-1.086-0.517-1.72c0-0.9,0.334-1.618,1.005-2.153c0.669-0.535,1.563-0.802,2.688-0.802
			c1.136,0,2.031,0.263,2.696,0.79c0.665,0.526,0.997,1.254,0.997,2.183c0,0.611-0.188,1.169-0.568,1.673
			c-0.387,0.504-0.991,0.962-1.829,1.375c1.013,0.481,1.729,0.986,2.155,1.516c0.432,0.53,0.645,1.143,0.645,1.839
			c0,1.03-0.359,1.853-1.082,2.467c-0.721,0.614-1.709,0.921-2.964,0.921c-1.329,0-2.354-0.29-3.064-0.871
			C68.801,89.73,68.443,88.908,68.443,87.843z M69.853,87.877c0,0.679,0.234,1.208,0.708,1.588c0.477,0.379,1.135,0.569,1.986,0.569
			c0.844,0,1.498-0.198,1.969-0.594c0.469-0.396,0.704-0.94,0.704-1.631c0-0.549-0.223-1.037-0.661-1.465
			c-0.438-0.427-1.21-0.842-2.308-1.244c-0.842,0.362-1.453,0.763-1.832,1.202C70.042,86.741,69.853,87.266,69.853,87.877z
			 M70.252,81.432c0,0.521,0.167,0.968,0.5,1.341c0.333,0.374,0.949,0.748,1.85,1.121c0.813-0.34,1.38-0.705,1.717-1.095
			c0.336-0.391,0.504-0.847,0.504-1.367c0-0.572-0.2-1.026-0.61-1.363c-0.41-0.336-0.979-0.505-1.689-0.505
			c-0.707,0-1.261,0.17-1.662,0.51C70.453,80.413,70.252,80.866,70.252,81.432z"/>
		<g>
			<path fill="#9A999E" d="M43.734,93.319c0.144-0.542,0.295-1.211,0.468-2.008c0.169-0.797,0.285-1.435,0.354-1.914h1.415
				l0.115,0.18c-0.135,0.521-0.329,1.126-0.583,1.816s-0.521,1.332-0.793,1.926H43.734z"/>
		</g>
	</g>
	<g>
		<path fill="#9A999E" d="M68.426,327.548c0-2.161,0.34-3.765,1.016-4.813c0.681-1.047,1.707-1.569,3.097-1.569
			c1.346,0,2.363,0.546,3.063,1.638c0.697,1.094,1.048,2.674,1.048,4.744c0,2.146-0.338,3.75-1.016,4.811
			c-0.676,1.063-1.709,1.591-3.104,1.591c-1.34,0-2.355-0.543-3.058-1.628C68.775,331.233,68.426,329.646,68.426,327.548z
			 M69.87,327.548c0,1.803,0.212,3.113,0.636,3.936c0.426,0.822,1.101,1.231,2.026,1.231c0.938,0,1.613-0.417,2.034-1.25
			c0.426-0.833,0.637-2.139,0.637-3.918c0-1.776-0.21-3.082-0.637-3.907c-0.421-0.828-1.103-1.242-2.034-1.242
			s-1.604,0.408-2.026,1.229C70.082,324.438,69.87,325.747,69.87,327.548z"/>
	</g>
	<g>
		<path fill="#FFFFFF" d="M154.6,272.294h-3.146v-8.621l0.026-1.417l0.056-1.549c-0.521,0.522-0.892,0.866-1.095,1.028l-1.712,1.375
			l-1.521-1.896l4.801-3.818h2.589L154.6,272.294L154.6,272.294z"/>
		<path fill="#FFFFFF" d="M175.092,272.294h-10.413v-2.189l3.738-3.776c1.104-1.14,1.831-1.925,2.171-2.359
			c0.341-0.438,0.584-0.844,0.729-1.218c0.147-0.374,0.229-0.766,0.229-1.162c0-0.604-0.165-1.042-0.492-1.335
			c-0.33-0.292-0.771-0.438-1.319-0.438c-0.578,0-1.138,0.133-1.684,0.396c-0.543,0.27-1.109,0.646-1.7,1.131l-1.712-2.023
			c0.731-0.625,1.341-1.064,1.822-1.325c0.479-0.259,1.011-0.456,1.58-0.597c0.566-0.143,1.209-0.209,1.916-0.209
			c0.933,0,1.752,0.17,2.466,0.511c0.716,0.342,1.269,0.813,1.661,1.429c0.396,0.609,0.591,1.313,0.591,2.1
			c0,0.688-0.119,1.33-0.359,1.935c-0.242,0.604-0.61,1.219-1.121,1.851c-0.506,0.635-1.396,1.531-2.675,2.701l-1.916,1.805v0.146
			h6.491v2.633h-0.003V272.294z"/>
		<path fill="#FFFFFF" d="M187.005,272.294H176.59v-2.189l3.74-3.776c1.104-1.14,1.831-1.925,2.171-2.359
			c0.339-0.438,0.584-0.844,0.729-1.218c0.147-0.374,0.229-0.766,0.229-1.162c0-0.604-0.165-1.042-0.494-1.335
			c-0.328-0.292-0.771-0.438-1.317-0.438c-0.578,0-1.14,0.133-1.684,0.396c-0.543,0.27-1.109,0.646-1.7,1.131l-1.714-2.023
			c0.733-0.625,1.343-1.064,1.824-1.325c0.479-0.259,1.009-0.456,1.58-0.597c0.566-0.143,1.209-0.209,1.916-0.209
			c0.932,0,1.752,0.17,2.466,0.511c0.714,0.342,1.269,0.813,1.661,1.429c0.396,0.609,0.591,1.313,0.591,2.1
			c0,0.688-0.121,1.33-0.359,1.935c-0.242,0.604-0.615,1.219-1.121,1.851c-0.506,0.635-1.396,1.531-2.675,2.701l-1.916,1.805v0.146
			h6.489L187.005,272.294L187.005,272.294z"/>
		<path fill="#FFFFFF" d="M198.336,260.729c0,0.935-0.28,1.726-0.846,2.375c-0.564,0.649-1.354,1.104-2.374,1.349v0.063
			c1.197,0.146,2.108,0.518,2.729,1.098c0.619,0.58,0.927,1.363,0.927,2.349c0,1.433-0.521,2.549-1.561,3.347
			c-1.04,0.799-2.522,1.197-4.451,1.197c-1.617,0-3.052-0.268-4.302-0.805v-2.68c0.577,0.291,1.212,0.523,1.905,0.713
			c0.688,0.184,1.379,0.271,2.059,0.271c1.04,0,1.809-0.176,2.305-0.526c0.496-0.354,0.744-0.924,0.744-1.701
			c0-0.699-0.285-1.194-0.854-1.486c-0.571-0.292-1.479-0.438-2.729-0.438h-1.133v-2.416h1.152c1.15,0,1.994-0.15,2.527-0.453
			c0.531-0.307,0.8-0.818,0.8-1.559c0-1.127-0.702-1.688-2.115-1.688c-0.489,0-0.987,0.08-1.493,0.244
			c-0.506,0.162-1.066,0.441-1.688,0.849l-1.457-2.17c1.356-0.979,2.979-1.472,4.858-1.472c1.542,0,2.762,0.313,3.653,0.938
			C197.887,258.747,198.336,259.614,198.336,260.729z"/>
		<g>
			<path fill="#FFFFFF" d="M157.839,274.563c0.143-0.543,0.295-1.211,0.467-2.008c0.169-0.799,0.286-1.438,0.354-1.914h1.415
				l0.114,0.18c-0.135,0.521-0.329,1.129-0.583,1.814c-0.254,0.689-0.52,1.332-0.793,1.928H157.839z"/>
		</g>
	</g>
	<g>
		<path fill="#FFFFFF" d="M154.6,156.528h-3.146v-8.621l0.026-1.417l0.056-1.549c-0.521,0.523-0.892,0.866-1.095,1.029l-1.712,1.375
			l-1.521-1.895l4.801-3.821h2.589L154.6,156.528L154.6,156.528z"/>
		<path fill="#FFFFFF" d="M175.092,156.528h-10.413v-2.191l3.738-3.781c1.104-1.134,1.831-1.92,2.171-2.359
			c0.341-0.439,0.584-0.844,0.729-1.218c0.147-0.374,0.229-0.761,0.229-1.162c0-0.598-0.165-1.042-0.492-1.335
			c-0.33-0.292-0.771-0.438-1.319-0.438c-0.578,0-1.138,0.132-1.684,0.397c-0.543,0.265-1.109,0.642-1.7,1.131l-1.712-2.028
			c0.731-0.625,1.341-1.066,1.822-1.325c0.479-0.258,1.011-0.457,1.58-0.596c0.566-0.139,1.209-0.209,1.916-0.209
			c0.933,0,1.752,0.17,2.466,0.51c0.716,0.34,1.269,0.815,1.661,1.427c0.396,0.611,0.591,1.311,0.591,2.099
			c0,0.686-0.119,1.33-0.359,1.931c-0.242,0.601-0.61,1.217-1.121,1.849c-0.506,0.632-1.396,1.532-2.675,2.701l-1.916,1.804v0.143
			h6.491v2.65H175.092z"/>
		<path fill="#FFFFFF" d="M187.005,156.528H176.59v-2.191l3.74-3.781c1.104-1.134,1.831-1.92,2.171-2.359
			c0.339-0.438,0.584-0.844,0.729-1.218c0.147-0.374,0.229-0.761,0.229-1.162c0-0.598-0.165-1.042-0.494-1.335
			c-0.328-0.292-0.771-0.438-1.317-0.438c-0.578,0-1.14,0.132-1.684,0.397c-0.543,0.265-1.109,0.642-1.7,1.131l-1.714-2.028
			c0.733-0.625,1.343-1.066,1.824-1.325c0.479-0.258,1.009-0.457,1.58-0.596c0.566-0.139,1.209-0.209,1.916-0.209
			c0.932,0,1.752,0.17,2.466,0.51c0.714,0.34,1.269,0.815,1.661,1.427c0.396,0.611,0.591,1.311,0.591,2.099
			c0,0.686-0.121,1.33-0.359,1.931c-0.242,0.601-0.615,1.217-1.121,1.849s-1.396,1.532-2.675,2.701l-1.916,1.804v0.143h6.489
			L187.005,156.528L187.005,156.528z"/>
		<path fill="#FFFFFF" d="M193.924,147.011c1.438,0,2.586,0.404,3.438,1.212c0.854,0.809,1.279,1.916,1.279,3.322
			c0,1.665-0.515,2.945-1.539,3.842c-1.021,0.896-2.493,1.345-4.397,1.345c-1.658,0-2.996-0.268-4.02-0.805v-2.721
			c0.537,0.285,1.162,0.518,1.875,0.698c0.713,0.18,1.394,0.27,2.026,0.27c1.922,0,2.886-0.788,2.886-2.364
			c0-1.501-0.995-2.252-2.986-2.252c-0.355,0-0.757,0.036-1.188,0.107c-0.438,0.071-0.789,0.148-1.063,0.229l-1.253-0.672
			l0.563-7.592h8.081v2.669h-5.317l-0.273,2.925l0.355-0.071C192.799,147.058,193.313,147.011,193.924,147.011z"/>
		<g>
			<path fill="#FFFFFF" d="M157.839,158.794c0.143-0.542,0.295-1.211,0.467-2.008c0.169-0.797,0.286-1.435,0.354-1.914h1.415
				l0.114,0.18c-0.135,0.521-0.329,1.126-0.583,1.816c-0.254,0.69-0.52,1.332-0.793,1.926H157.839z"/>
		</g>
	</g>
	<g>
		<path fill="#87868A" d="M61.059,226.451H46.161v-4.208c0-1.979,0.295-3.407,0.885-4.29c0.593-0.886,1.521-1.325,2.801-1.325
			c0.883,0,1.609,0.246,2.186,0.739c0.573,0.491,0.945,1.211,1.115,2.153h0.104c0.39-2.248,1.578-3.373,3.566-3.373
			c1.332,0,2.371,0.449,3.118,1.35c0.748,0.896,1.121,2.152,1.121,3.77L61.059,226.451L61.059,226.451z M52.529,224.719v-2.853
			c0-1.225-0.188-2.104-0.569-2.641c-0.388-0.537-1.026-0.811-1.938-0.811c-0.834,0-1.438,0.299-1.807,0.896
			c-0.367,0.599-0.555,1.553-0.555,2.854v2.547L52.529,224.719L52.529,224.719z M59.581,224.719v-3.106
			c0-1.196-0.23-2.104-0.698-2.715c-0.465-0.604-1.191-0.912-2.188-0.912c-0.924,0-1.604,0.313-2.033,0.938
			c-0.438,0.621-0.652,1.563-0.652,2.838v2.969L59.581,224.719L59.581,224.719z"/>
		<path fill="#87868A" d="M46.864,213.326c-0.388,0-0.671-0.087-0.852-0.265c-0.182-0.181-0.271-0.396-0.271-0.656
			c0-0.295,0.092-0.547,0.271-0.76c0.188-0.211,0.466-0.316,0.847-0.316c0.385,0,0.664,0.105,0.854,0.316
			c0.188,0.213,0.28,0.465,0.28,0.76c0,0.264-0.099,0.479-0.28,0.656C47.528,213.239,47.244,213.326,46.864,213.326z
			 M61.059,213.185H49.891v-1.55h11.168V213.185z"/>
		<path fill="#87868A" d="M61.059,207.905H45.203v-1.691h15.854L61.059,207.905L61.059,207.905z"/>
		<path fill="#87868A" d="M61.059,202.627H45.203v-1.69h15.854L61.059,202.627L61.059,202.627z"/>
		<path fill="#87868A" d="M46.864,197.491c-0.388,0-0.671-0.09-0.852-0.266c-0.182-0.18-0.271-0.396-0.271-0.656
			c0-0.293,0.092-0.547,0.271-0.758c0.188-0.213,0.466-0.317,0.847-0.317c0.385,0,0.664,0.104,0.854,0.317
			c0.188,0.211,0.28,0.465,0.28,0.758c0,0.264-0.099,0.479-0.28,0.656C47.528,197.401,47.244,197.491,46.864,197.491z
			 M61.059,197.351H49.891V195.8h11.168V197.351z"/>
		<path fill="#87868A" d="M55.454,192.69c-1.815,0-3.23-0.455-4.247-1.36c-1.019-0.908-1.521-2.168-1.521-3.78
			c0-1.558,0.521-2.795,1.562-3.713c1.032-0.918,2.438-1.377,4.211-1.377c1.819,0,3.248,0.457,4.271,1.372
			c1.022,0.914,1.536,2.178,1.536,3.789c0,0.996-0.234,1.88-0.704,2.651c-0.472,0.771-1.146,1.367-2.021,1.787
			S56.632,192.69,55.454,192.69z M55.454,190.959c1.43,0,2.521-0.286,3.271-0.856c0.749-0.565,1.124-1.412,1.124-2.521
			s-0.373-1.951-1.119-2.524c-0.745-0.574-1.837-0.861-3.271-0.861c-1.423,0-2.504,0.287-3.243,0.861
			c-0.736,0.573-1.106,1.424-1.106,2.547c0,1.106,0.364,1.943,1.099,2.51C52.925,190.677,54.011,190.959,55.454,190.959z"/>
		<path fill="#87868A" d="M61.059,179.465H49.891v-1.376l1.509-0.275v-0.081c-0.544-0.347-0.966-0.832-1.267-1.457
			c-0.299-0.625-0.446-1.321-0.446-2.089c0-1.346,0.324-2.357,0.979-3.037c0.646-0.68,1.688-1.02,3.107-1.02h7.286v1.692H53.82
			c-0.907,0-1.593,0.207-2.042,0.621c-0.444,0.415-0.675,1.063-0.675,1.946c0,1.169,0.315,2.024,0.95,2.568
			c0.633,0.543,1.678,0.815,3.135,0.815h5.871V179.465z"/>
		<path fill="#87868A" d="M52.635,167.369c-0.909,0-1.63-0.37-2.155-1.109c-0.522-0.74-0.791-1.755-0.791-3.044
			c0-1.195,0.244-2.363,0.731-3.504l1.378,0.59c-0.463,1.117-0.693,2.13-0.693,3.037c0,0.803,0.127,1.409,0.379,1.817
			c0.251,0.408,0.604,0.612,1.041,0.612c0.3,0,0.561-0.076,0.771-0.229c0.211-0.153,0.412-0.399,0.604-0.74
			c0.189-0.341,0.467-0.994,0.827-1.961c0.481-1.324,0.971-2.215,1.461-2.671c0.488-0.457,1.104-0.686,1.852-0.686
			c1.031,0,1.831,0.386,2.396,1.155c0.563,0.771,0.842,1.852,0.842,3.243c0,1.479-0.229,2.631-0.689,3.458H59.02
			c0.271-0.535,0.484-1.11,0.646-1.724c0.152-0.614,0.23-1.206,0.23-1.775c0-0.885-0.143-1.565-0.424-2.043
			c-0.282-0.477-0.715-0.715-1.292-0.715c-0.438,0-0.812,0.189-1.118,0.567c-0.31,0.378-0.676,1.114-1.1,2.211
			c-0.394,1.041-0.729,1.78-1.021,2.217c-0.29,0.436-0.615,0.76-0.981,0.974C53.585,167.263,53.146,167.369,52.635,167.369z"/>
		<path fill="#87868A" d="M59.321,151.736h-1.595c0.252-0.563,0.457-1.214,0.614-1.951c0.16-0.737,0.24-1.408,0.24-2.013h-4.482
			c-0.438,1.393-0.954,2.369-1.538,2.93c-0.585,0.561-1.339,0.841-2.265,0.841c-0.89,0-1.618-0.345-2.188-1.034
			c-0.566-0.689-0.918-1.602-1.04-2.736h-1.854v-1.335h1.834c0.034-1.246,0.286-2.448,0.757-3.607l1.335,0.53
			c-0.401,1.009-0.641,2.035-0.716,3.077h4.425c0.34-1.063,0.671-1.859,0.991-2.389c0.323-0.528,0.693-0.918,1.111-1.169
			c0.417-0.25,0.926-0.376,1.521-0.376c0.924,0,1.688,0.346,2.292,1.037c0.604,0.691,0.982,1.656,1.146,2.896h2.354v1.335H60
			c0,0.761-0.063,1.498-0.185,2.212C59.7,150.697,59.534,151.281,59.321,151.736z M50.288,149.811c0.518,0,0.933-0.152,1.238-0.456
			c0.313-0.304,0.605-0.831,0.892-1.582h-3.942c0.107,0.669,0.319,1.177,0.637,1.521C49.427,149.639,49.819,149.811,50.288,149.811z
			 M58.48,146.438c-0.203-1.467-0.828-2.201-1.875-2.201c-0.484,0-0.885,0.15-1.188,0.452c-0.303,0.301-0.604,0.884-0.9,1.749H58.48
			z"/>
	</g>
	
		<line fill="none" stroke="#666666" stroke-width="0.25" stroke-miterlimit="10" x1="92.317" y1="85.746" x2="92.317" y2="333.776"/>
	
		<line fill="none" stroke="#666666" stroke-width="0.25" stroke-miterlimit="10" x1="223.027" y1="333.776" x2="78.597" y2="333.776"/>
	
		<line fill="none" stroke="#666666" stroke-width="0.25" stroke-miterlimit="10" x1="223.027" y1="85.746" x2="78.597" y2="85.746"/>
</g>
<g id="EU28-estimates">
	<g>
		<rect x="384.26" y="214.99" fill="#199598" width="100.497" height="118.786"/>
		<rect x="384.26" y="85.796" fill="#DD9B2B" width="100.497" height="129.194"/>
	</g>
	<g>
		<path fill="#9A999E" d="M306.778,88.166v-1.239l5.896-8.399h1.495v8.347h1.854v1.291h-1.854v2.845h-1.34v-2.845H306.778z
			 M308.199,86.875h4.629v-4.127c0-0.81,0.027-1.724,0.085-2.743h-0.063c-0.271,0.543-0.526,0.994-0.766,1.35L308.199,86.875z"/>
		<path fill="#9A999E" d="M317.274,82.583c0-1.287,0.361-2.303,1.086-3.048c0.729-0.745,1.677-1.118,2.858-1.118
			c0.846,0,1.586,0.216,2.219,0.649s1.12,1.063,1.461,1.892c0.341,0.828,0.511,1.805,0.511,2.931c0,4.861-1.883,7.292-5.646,7.292
			c-0.659,0-1.188-0.057-1.566-0.17v-1.229c0.454,0.17,0.97,0.255,1.549,0.255c1.356,0,2.386-0.422,3.073-1.266
			c0.692-0.844,1.07-2.138,1.133-3.882h-0.103c-0.313,0.476-0.729,0.838-1.237,1.088c-0.515,0.25-1.094,0.374-1.738,0.374
			c-1.103,0-1.978-0.331-2.625-0.993C317.598,84.694,317.274,83.77,317.274,82.583z M318.684,82.566c0,0.819,0.204,1.463,0.61,1.932
			c0.4,0.469,1.021,0.704,1.854,0.704c0.514,0,0.987-0.105,1.42-0.315c0.438-0.21,0.772-0.498,1.021-0.862
			c0.248-0.364,0.373-0.745,0.373-1.143c0-0.597-0.116-1.148-0.354-1.655c-0.229-0.506-0.556-0.904-0.971-1.194
			s-0.896-0.435-1.43-0.435c-0.813,0-1.438,0.262-1.873,0.785C318.904,80.906,318.684,81.634,318.684,82.566z"/>
		<path fill="#9A999E" d="M327.447,90.5v-1.364c0.396,0.254,0.896,0.453,1.479,0.597s1.169,0.216,1.733,0.216
			c0.996,0,1.771-0.234,2.322-0.703c0.553-0.468,0.828-1.146,0.828-2.031c0-1.727-1.063-2.59-3.188-2.59
			c-0.535,0-1.262,0.082-2.155,0.245l-0.731-0.466l0.479-5.808h6.174v1.291h-4.975l-0.313,3.736c0.651-0.119,1.3-0.178,1.945-0.178
			c1.309,0,2.338,0.322,3.089,0.966c0.75,0.644,1.126,1.525,1.126,2.644c0,1.288-0.409,2.297-1.229,3.029
			c-0.813,0.732-1.939,1.098-3.384,1.098C329.252,91.181,328.183,90.954,327.447,90.5z"/>
	</g>
	<g>
		<path fill="#9A999E" d="M327.184,327.548c0-2.161,0.338-3.765,1.014-4.813c0.676-1.047,1.706-1.569,3.092-1.569
			c1.354,0,2.368,0.546,3.067,1.638c0.698,1.094,1.047,2.674,1.047,4.744c0,2.146-0.338,3.75-1.014,4.811
			c-0.676,1.063-1.709,1.591-3.104,1.591c-1.34,0-2.354-0.543-3.058-1.628C327.531,331.233,327.184,329.646,327.184,327.548z
			 M328.629,327.548c0,1.803,0.212,3.113,0.636,3.936c0.424,0.824,1.1,1.231,2.021,1.231c0.938,0,1.618-0.417,2.039-1.25
			s0.639-2.139,0.639-3.918c0-1.776-0.218-3.082-0.639-3.907c-0.421-0.828-1.101-1.242-2.039-1.242
			c-0.927,0-1.603,0.408-2.021,1.229C328.841,324.438,328.629,325.747,328.629,327.548z"/>
	</g>
	<g>
		<path fill="#FFFFFF" d="M427.073,272.294h-10.414v-2.189l3.739-3.776c1.107-1.14,1.831-1.925,2.171-2.359s0.584-0.844,0.733-1.218
			c0.146-0.374,0.225-0.766,0.225-1.162c0-0.604-0.165-1.042-0.494-1.335c-0.329-0.292-0.77-0.438-1.313-0.438
			c-0.577,0-1.145,0.133-1.688,0.396c-0.544,0.27-1.104,0.646-1.695,1.131l-1.719-2.023c0.733-0.625,1.349-1.064,1.824-1.325
			c0.482-0.259,1.009-0.456,1.579-0.597c0.57-0.143,1.209-0.209,1.916-0.209c0.931,0,1.753,0.17,2.466,0.511
			c0.714,0.342,1.271,0.813,1.661,1.429c0.396,0.609,0.591,1.313,0.591,2.1c0,0.688-0.12,1.33-0.354,1.935
			c-0.241,0.604-0.615,1.219-1.121,1.851c-0.506,0.635-1.397,1.531-2.675,2.701l-1.916,1.805v0.146h6.484V272.294L427.073,272.294z"
			/>
		<path fill="#FFFFFF" d="M438.406,260.729c0,0.935-0.276,1.726-0.846,2.375c-0.563,0.649-1.355,1.104-2.374,1.349v0.063
			c1.202,0.146,2.112,0.518,2.73,1.098c0.611,0.58,0.928,1.363,0.928,2.349c0,1.433-0.521,2.549-1.563,3.347
			c-1.039,0.799-2.521,1.197-4.453,1.197c-1.609,0-3.05-0.268-4.3-0.805v-2.68c0.577,0.291,1.213,0.523,1.905,0.713
			c0.693,0.184,1.379,0.271,2.059,0.271c1.039,0,1.813-0.176,2.31-0.526c0.496-0.354,0.743-0.924,0.743-1.701
			c0-0.699-0.284-1.194-0.854-1.486c-0.571-0.292-1.479-0.438-2.729-0.438h-1.134v-2.416h1.151c1.154,0,1.999-0.15,2.532-0.453
			c0.531-0.307,0.8-0.818,0.8-1.559c0-1.127-0.707-1.688-2.119-1.688c-0.489,0-0.987,0.08-1.493,0.244
			c-0.506,0.162-1.063,0.441-1.687,0.849l-1.457-2.17c1.354-0.979,2.979-1.472,4.854-1.472c1.542,0,2.767,0.313,3.653,0.938
			C437.964,258.745,438.406,259.614,438.406,260.729z"/>
		<path fill="#FFFFFF" d="M445.619,257.202c1.434,0,2.576,0.324,3.449,0.973c0.873,0.649,1.313,1.523,1.313,2.624
			c0,0.763-0.211,1.438-0.634,2.033c-0.427,0.594-1.104,1.126-2.036,1.595c1.107,0.6,1.914,1.223,2.396,1.87
			c0.486,0.647,0.729,1.36,0.729,2.136c0,1.223-0.479,2.207-1.438,2.949c-0.958,0.744-2.218,1.116-3.78,1.116
			c-1.631,0-2.904-0.347-3.842-1.039c-0.931-0.692-1.396-1.675-1.396-2.944c0-0.85,0.227-1.604,0.678-2.263
			c0.452-0.659,1.177-1.24,2.176-1.742c-0.85-0.536-1.461-1.11-1.834-1.722c-0.374-0.612-0.561-1.281-0.561-2.008
			c0-1.066,0.438-1.93,1.32-2.59C443.053,257.532,444.199,257.202,445.619,257.202z M443.302,268.33
			c0,0.584,0.203,1.039,0.604,1.364c0.407,0.326,0.964,0.488,1.671,0.488c0.781,0,1.365-0.168,1.76-0.509
			c0.387-0.336,0.574-0.774,0.574-1.325c0-0.455-0.188-0.886-0.569-1.279c-0.391-0.396-1.013-0.818-1.87-1.271
			C444.024,266.469,443.302,267.312,443.302,268.33z M445.604,259.505c-0.537,0-0.97,0.139-1.3,0.413
			c-0.329,0.274-0.494,0.646-0.494,1.104c0,0.408,0.131,0.771,0.393,1.097c0.269,0.321,0.735,0.653,1.429,0.993
			c0.658-0.313,1.131-0.633,1.396-0.959c0.269-0.325,0.397-0.702,0.397-1.131c0-0.47-0.171-0.84-0.516-1.11
			C446.568,259.642,446.135,259.505,445.604,259.505z"/>
	</g>
	<g>
		<path fill="#FFFFFF" d="M427.073,156.528h-10.414v-2.191l3.739-3.781c1.107-1.134,1.831-1.92,2.171-2.359
			c0.34-0.439,0.584-0.844,0.733-1.218c0.146-0.374,0.225-0.761,0.225-1.162c0-0.598-0.165-1.042-0.494-1.335
			c-0.329-0.292-0.77-0.438-1.313-0.438c-0.577,0-1.145,0.132-1.688,0.397c-0.544,0.265-1.104,0.642-1.695,1.131l-1.719-2.028
			c0.733-0.625,1.349-1.066,1.824-1.325c0.482-0.258,1.009-0.457,1.579-0.596c0.57-0.139,1.209-0.209,1.916-0.209
			c0.931,0,1.753,0.17,2.466,0.51c0.714,0.34,1.271,0.815,1.661,1.427c0.396,0.611,0.591,1.311,0.591,2.099
			c0,0.686-0.12,1.33-0.354,1.931c-0.241,0.601-0.615,1.217-1.121,1.849s-1.397,1.532-2.675,2.701l-1.916,1.804v0.143h6.484V156.528
			L427.073,156.528z"/>
		<path fill="#FFFFFF" d="M433.991,147.011c1.44,0,2.587,0.404,3.439,1.212c0.853,0.809,1.276,1.916,1.276,3.322
			c0,1.665-0.518,2.945-1.536,3.842c-1.026,0.896-2.493,1.345-4.402,1.345c-1.658,0-2.996-0.268-4.016-0.805v-2.721
			c0.532,0.285,1.157,0.518,1.875,0.698c0.714,0.18,1.39,0.27,2.021,0.27c1.925,0,2.886-0.788,2.886-2.364
			c0-1.501-0.99-2.252-2.98-2.252c-0.36,0-0.758,0.036-1.192,0.107c-0.434,0.071-0.788,0.148-1.06,0.229l-1.254-0.672l0.561-7.592
			h8.081v2.669h-5.313l-0.275,2.925l0.354-0.071C432.867,147.058,433.385,147.011,433.991,147.011z"/>
		<path fill="#FFFFFF" d="M441.968,156.528l5.594-12.229h-7.347v-2.649h10.688v1.977l-5.635,12.901H441.968z"/>
	</g>
	<g>
		<path fill="#87868A" d="M323.219,226.451H308.32v-4.208c0-1.979,0.296-3.407,0.886-4.29c0.598-0.886,1.523-1.325,2.806-1.325
			c0.883,0,1.604,0.246,2.185,0.739c0.574,0.491,0.946,1.211,1.116,2.153h0.103c0.395-2.248,1.578-3.373,3.571-3.373
			c1.332,0,2.371,0.449,3.118,1.35s1.121,2.152,1.121,3.77L323.219,226.451L323.219,226.451z M314.688,224.719v-2.853
			c0-1.225-0.191-2.104-0.574-2.641c-0.383-0.537-1.022-0.811-1.938-0.811c-0.834,0-1.438,0.299-1.812,0.896
			c-0.362,0.601-0.555,1.553-0.555,2.854v2.547L314.688,224.719L314.688,224.719z M321.739,224.719v-3.106
			c0-1.196-0.229-2.104-0.691-2.715c-0.472-0.604-1.193-0.912-2.188-0.912c-0.924,0-1.604,0.313-2.038,0.938
			c-0.435,0.621-0.648,1.563-0.648,2.838v2.969L321.739,224.719L321.739,224.719z"/>
		<path fill="#87868A" d="M309.021,213.326c-0.387,0-0.671-0.087-0.851-0.265c-0.187-0.181-0.271-0.396-0.271-0.656
			c0-0.295,0.091-0.547,0.274-0.76c0.184-0.211,0.466-0.316,0.846-0.316c0.381,0,0.664,0.105,0.852,0.316
			c0.188,0.213,0.28,0.465,0.28,0.76c0,0.264-0.094,0.479-0.28,0.656C309.686,213.239,309.402,213.326,309.021,213.326z
			 M323.219,213.185H312.05v-1.55h11.169V213.185z"/>
		<path fill="#87868A" d="M323.219,207.905H307.36v-1.691h15.856L323.219,207.905L323.219,207.905z"/>
		<path fill="#87868A" d="M323.219,202.627H307.36v-1.69h15.856L323.219,202.627L323.219,202.627z"/>
		<path fill="#87868A" d="M309.021,197.491c-0.387,0-0.671-0.09-0.851-0.266c-0.187-0.18-0.271-0.396-0.271-0.656
			c0-0.293,0.091-0.547,0.274-0.758c0.184-0.213,0.466-0.317,0.846-0.317c0.381,0,0.664,0.104,0.852,0.317
			c0.188,0.211,0.28,0.465,0.28,0.758c0,0.264-0.094,0.479-0.28,0.656C309.686,197.401,309.402,197.491,309.021,197.491z
			 M323.219,197.351H312.05V195.8h11.169V197.351z"/>
		<path fill="#87868A" d="M317.612,192.69c-1.813,0-3.229-0.455-4.247-1.36c-1.014-0.908-1.521-2.168-1.521-3.78
			c0-1.558,0.519-2.795,1.557-3.713c1.037-0.918,2.44-1.377,4.211-1.377c1.824,0,3.248,0.457,4.271,1.372
			c1.021,0.914,1.537,2.178,1.537,3.789c0,0.996-0.235,1.88-0.705,2.651c-0.476,0.771-1.146,1.367-2.021,1.787
			S318.784,192.69,317.612,192.69z M317.612,190.959c1.43,0,2.521-0.286,3.271-0.856c0.749-0.565,1.123-1.412,1.123-2.521
			s-0.372-1.951-1.118-2.524c-0.745-0.574-1.837-0.861-3.273-0.861c-1.423,0-2.504,0.287-3.243,0.861
			c-0.732,0.573-1.104,1.424-1.104,2.547c0,1.106,0.363,1.943,1.093,2.51C315.077,190.677,316.171,190.959,317.612,190.959z"/>
		<path fill="#87868A" d="M323.219,179.465H312.05v-1.376l1.509-0.275v-0.081c-0.543-0.347-0.965-0.832-1.264-1.457
			c-0.306-0.625-0.448-1.321-0.448-2.089c0-1.346,0.324-2.357,0.973-3.037c0.649-0.68,1.688-1.02,3.113-1.02h7.286v1.692h-7.239
			c-0.913,0-1.594,0.207-2.043,0.621c-0.449,0.415-0.674,1.063-0.674,1.946c0,1.169,0.313,2.024,0.95,2.568
			c0.633,0.543,1.678,0.815,3.135,0.815h5.871V179.465z"/>
		<path fill="#87868A" d="M314.795,167.369c-0.911,0-1.638-0.37-2.158-1.109c-0.526-0.74-0.79-1.755-0.79-3.044
			c0-1.195,0.244-2.363,0.729-3.504l1.377,0.59c-0.463,1.117-0.688,2.13-0.688,3.037c0,0.803,0.126,1.409,0.378,1.817
			c0.252,0.408,0.6,0.612,1.042,0.612c0.3,0,0.555-0.076,0.766-0.229c0.212-0.153,0.412-0.399,0.604-0.74
			c0.188-0.341,0.466-0.994,0.827-1.961c0.479-1.324,0.97-2.215,1.46-2.671c0.484-0.457,1.104-0.686,1.849-0.686
			c1.035,0,1.832,0.386,2.395,1.155c0.563,0.771,0.848,1.852,0.848,3.243c0,1.479-0.231,2.631-0.693,3.458h-1.562
			c0.271-0.535,0.48-1.11,0.645-1.724c0.156-0.614,0.234-1.206,0.234-1.775c0-0.885-0.146-1.565-0.43-2.043
			c-0.276-0.477-0.714-0.715-1.292-0.715c-0.437,0-0.81,0.189-1.112,0.567c-0.313,0.378-0.683,1.114-1.104,2.211
			c-0.388,1.041-0.727,1.78-1.016,2.217c-0.29,0.436-0.618,0.76-0.986,0.974C315.74,167.263,315.304,167.369,314.795,167.369z"/>
		<path fill="#87868A" d="M321.479,151.736h-1.595c0.251-0.563,0.457-1.214,0.616-1.951c0.153-0.737,0.232-1.408,0.232-2.013h-4.479
			c-0.441,1.393-0.954,2.369-1.539,2.93c-0.584,0.561-1.338,0.841-2.269,0.841c-0.89,0-1.616-0.345-2.188-1.034
			c-0.57-0.689-0.917-1.602-1.039-2.736h-1.854v-1.335h1.834c0.034-1.246,0.285-2.448,0.761-3.607l1.335,0.53
			c-0.4,1.009-0.646,2.035-0.72,3.077h4.43c0.339-1.063,0.671-1.859,0.986-2.389c0.322-0.528,0.693-0.918,1.11-1.169
			c0.418-0.25,0.926-0.376,1.523-0.376c0.924,0,1.688,0.346,2.291,1.037c0.604,0.691,0.979,1.656,1.144,2.896h2.354v1.335h-2.267
			c0,0.761-0.061,1.498-0.18,2.212C321.857,150.697,321.691,151.281,321.479,151.736z M312.445,149.811
			c0.521,0,0.938-0.152,1.243-0.456c0.313-0.304,0.608-0.831,0.887-1.582h-3.938c0.104,0.669,0.314,1.177,0.637,1.521
			C311.587,149.639,311.977,149.811,312.445,149.811z M320.639,146.438c-0.204-1.467-0.829-2.201-1.875-2.201
			c-0.489,0-0.885,0.15-1.188,0.452c-0.302,0.301-0.603,0.884-0.896,1.749H320.639z"/>
	</g>
	<g>
		<path fill="#666565" d="M332.814,46.87V31.972h8.306v1.549h-6.566v4.769h6.176v1.549h-6.176v5.482h6.566v1.549H332.814z"/>
		<path fill="#666565" d="M344.269,41.571v-9.599h1.732v9.736c0,1.245,0.34,2.201,1.019,2.868c0.68,0.667,1.678,1,2.996,1
			c1.257,0,2.225-0.335,2.904-1.005c0.68-0.67,1.019-1.631,1.019-2.883v-9.715h1.732v9.64c0,1.699-0.52,3.034-1.538,4.005
			c-1.026,0.972-2.438,1.457-4.229,1.457s-3.181-0.489-4.162-1.467C344.76,44.628,344.269,43.283,344.269,41.571z"/>
		<path fill="#666565" d="M358.587,46.87v-1.438l3.924-3.959c1.188-1.214,1.979-2.08,2.357-2.599
			c0.387-0.518,0.665-1.023,0.855-1.514c0.188-0.491,0.285-1.02,0.285-1.586c0-0.798-0.241-1.431-0.729-1.898
			c-0.479-0.467-1.146-0.701-2.008-0.701c-0.618,0-1.204,0.103-1.758,0.307s-1.17,0.577-1.852,1.115l-0.896-1.156
			c1.372-1.122,2.866-1.683,4.482-1.683c1.396,0,2.497,0.357,3.291,1.07c0.796,0.713,1.188,1.671,1.188,2.875
			c0,0.948-0.265,1.886-0.795,2.814c-0.527,0.928-1.521,2.102-2.977,3.521l-3.265,3.203v0.082h7.662v1.549h-9.79V46.87H358.587z"/>
		<path fill="#666565" d="M370.56,43.069c0-1.705,1.046-3.033,3.137-3.984c-0.946-0.53-1.627-1.103-2.039-1.717
			c-0.412-0.614-0.618-1.303-0.618-2.063c0-1.08,0.401-1.941,1.204-2.583c0.81-0.642,1.877-0.963,3.229-0.963
			c1.356,0,2.438,0.316,3.241,0.948c0.798,0.632,1.189,1.505,1.189,2.619c0,0.733-0.229,1.403-0.688,2.007
			c-0.458,0.605-1.189,1.155-2.194,1.651c1.216,0.578,2.08,1.184,2.593,1.819c0.519,0.635,0.771,1.371,0.771,2.206
			c0,1.237-0.438,2.224-1.298,2.96c-0.865,0.737-2.059,1.105-3.563,1.105c-1.595,0-2.821-0.348-3.68-1.044
			C370.989,45.333,370.56,44.347,370.56,43.069z M372.253,43.11c0,0.815,0.276,1.451,0.85,1.906s1.362,0.683,2.386,0.683
			c1.011,0,1.798-0.238,2.36-0.713c0.563-0.476,0.845-1.127,0.845-1.957c0-0.659-0.265-1.245-0.793-1.758
			c-0.529-0.513-1.452-1.01-2.768-1.493c-1.018,0.435-1.743,0.916-2.198,1.442C372.479,41.746,372.253,42.376,372.253,43.11z
			 M372.73,35.375c0,0.625,0.2,1.162,0.6,1.61c0.4,0.449,1.146,0.897,2.225,1.345c0.97-0.407,1.649-0.846,2.06-1.314
			c0.404-0.468,0.605-1.016,0.605-1.641c0-0.686-0.246-1.231-0.737-1.635c-0.492-0.404-1.169-0.606-2.029-0.606
			c-0.848,0-1.513,0.204-1.991,0.611C372.972,34.152,372.73,34.696,372.73,35.375z"/>
		<path fill="#666565" d="M388.025,41.377c0-1.8,0.441-3.23,1.326-4.29c0.884-1.06,2.07-1.589,3.561-1.589
			c1.396,0,2.498,0.46,3.313,1.38c0.813,0.921,1.219,2.135,1.219,3.643v1.07h-7.684c0.027,1.311,0.358,2.306,0.995,2.985
			c0.63,0.68,1.516,1.019,2.652,1.019c1.198,0,2.391-0.251,3.563-0.754v1.508c-0.604,0.258-1.16,0.443-1.691,0.555
			c-0.532,0.112-1.174,0.168-1.926,0.168c-1.646,0-2.945-0.502-3.897-1.508C388.506,44.558,388.025,43.165,388.025,41.377z
			 M389.801,40.216h5.849c0-1.066-0.238-1.883-0.715-2.451c-0.479-0.567-1.156-0.851-2.041-0.851c-0.898,0-1.614,0.292-2.148,0.876
			C390.203,38.375,389.894,39.183,389.801,40.216z"/>
		<path fill="#666565" d="M399.643,38.446c0-0.911,0.37-1.63,1.109-2.158c0.733-0.527,1.754-0.791,3.044-0.791
			c1.188,0,2.356,0.244,3.504,0.733l-0.59,1.377c-1.117-0.463-2.137-0.695-3.037-0.695c-0.811,0-1.409,0.126-1.817,0.378
			c-0.409,0.251-0.613,0.599-0.613,1.042c0,0.3,0.077,0.555,0.23,0.766c0.152,0.211,0.396,0.412,0.74,0.603
			c0.34,0.191,0.994,0.467,1.961,0.828c1.324,0.483,2.215,0.97,2.671,1.46c0.457,0.49,0.686,1.104,0.686,1.849
			c0,1.034-0.386,1.832-1.148,2.393c-0.771,0.561-1.854,0.841-3.243,0.841c-1.479,0-2.631-0.23-3.459-0.693V44.82
			c0.536,0.272,1.104,0.487,1.725,0.644c0.613,0.157,1.205,0.235,1.775,0.235c0.885,0,1.563-0.141,2.042-0.424
			c0.477-0.283,0.715-0.713,0.715-1.292c0-0.436-0.188-0.809-0.566-1.119c-0.378-0.31-1.108-0.676-2.211-1.098
			c-1.042-0.388-1.774-0.727-2.217-1.017s-0.761-0.618-0.974-0.986C399.744,39.396,399.643,38.957,399.643,38.446z"/>
		<path fill="#666565" d="M408.828,37.016v-0.815l1.604-0.703l0.713-2.385h0.979v2.588h3.235v1.314h-3.235v6.588
			c0,0.674,0.154,1.191,0.479,1.552c0.319,0.361,0.758,0.542,1.314,0.542c0.299,0,0.588-0.022,0.859-0.066
			c0.279-0.044,0.5-0.09,0.663-0.138v1.278c-0.184,0.087-0.454,0.159-0.811,0.216c-0.356,0.057-0.684,0.085-0.965,0.085
			c-2.158,0-3.238-1.138-3.238-3.414v-6.644h-1.604L408.828,37.016L408.828,37.016z"/>
		<path fill="#666565" d="M417.531,32.675c0-0.387,0.088-0.671,0.271-0.851c0.175-0.18,0.395-0.27,0.652-0.27
			c0.298,0,0.551,0.092,0.763,0.275c0.213,0.184,0.313,0.466,0.313,0.846c0,0.38-0.104,0.664-0.313,0.851s-0.465,0.28-0.763,0.28
			c-0.265,0-0.479-0.093-0.652-0.28C417.619,33.339,417.531,33.056,417.531,32.675z M417.68,46.87V35.702h1.549V46.87H417.68z"/>
		<path fill="#666565" d="M422.953,46.87V35.702h1.375l0.275,1.509h0.081c0.319-0.537,0.771-0.957,1.351-1.259
			c0.581-0.302,1.231-0.453,1.951-0.453c1.746,0,2.895,0.625,3.424,1.876h0.082c0.333-0.579,0.815-1.036,1.447-1.372
			s1.354-0.504,2.16-0.504c1.264,0,2.209,0.324,2.838,0.973c0.628,0.648,0.942,1.687,0.942,3.113v7.286h-1.691V39.59
			c0-0.892-0.188-1.561-0.57-2.006c-0.381-0.446-0.972-0.669-1.771-0.669c-1.053,0-1.831,0.303-2.334,0.909
			c-0.503,0.605-0.754,1.538-0.754,2.798v6.249h-1.691V39.59c0-0.892-0.188-1.561-0.57-2.006c-0.381-0.446-0.976-0.669-1.776-0.669
			c-1.063,0-1.836,0.318-2.329,0.955c-0.492,0.637-0.738,1.68-0.738,3.13v5.871L422.953,46.87L422.953,46.87z"/>
		<path fill="#666565" d="M441.531,43.794c0-2.25,1.813-3.429,5.418-3.537l1.898-0.062v-0.702c0-0.887-0.188-1.542-0.564-1.965
			c-0.377-0.423-0.979-0.634-1.806-0.634c-0.929,0-1.979,0.289-3.153,0.866l-0.521-1.298c0.551-0.294,1.146-0.525,1.809-0.692
			c0.655-0.167,1.313-0.251,1.975-0.251c1.327,0,2.313,0.295,2.954,0.887c0.646,0.591,0.969,1.539,0.969,2.843v7.622h-1.257
			l-0.339-1.571h-0.082c-0.556,0.693-1.104,1.162-1.656,1.407c-0.56,0.246-1.242,0.368-2.069,0.368
			c-1.113,0-1.985-0.284-2.616-0.853C441.85,45.652,441.531,44.843,441.531,43.794z M443.323,43.814
			c0,0.615,0.188,1.082,0.562,1.403c0.368,0.321,0.887,0.481,1.551,0.481c1.052,0,1.877-0.29,2.477-0.87
			c0.604-0.581,0.9-1.393,0.9-2.437v-1.014l-1.688,0.071c-1.343,0.048-2.311,0.258-2.896,0.63
			C443.619,42.451,443.323,43.029,443.323,43.814z"/>
		<path fill="#666565" d="M452.493,37.016v-0.815l1.604-0.703l0.713-2.385h0.979v2.588h3.236v1.314h-3.236v6.588
			c0,0.674,0.155,1.191,0.479,1.552c0.319,0.361,0.758,0.542,1.313,0.542c0.302,0,0.591-0.022,0.862-0.066
			c0.279-0.044,0.5-0.09,0.663-0.138v1.278c-0.184,0.087-0.454,0.159-0.811,0.216c-0.356,0.057-0.685,0.085-0.965,0.085
			c-2.158,0-3.238-1.138-3.238-3.414v-6.644h-1.604L452.493,37.016L452.493,37.016z"/>
		<path fill="#666565" d="M460.723,41.377c0-1.8,0.438-3.23,1.326-4.29c0.884-1.06,2.063-1.589,3.561-1.589
			c1.396,0,2.498,0.46,3.313,1.38c0.813,0.921,1.219,2.135,1.219,3.643v1.07h-7.688c0.034,1.311,0.365,2.306,0.995,2.985
			c0.63,0.68,1.521,1.019,2.659,1.019c1.198,0,2.384-0.251,3.556-0.754v1.508c-0.597,0.258-1.153,0.443-1.688,0.555
			c-0.532,0.112-1.174,0.168-1.926,0.168c-1.646,0-2.945-0.502-3.897-1.508S460.723,43.165,460.723,41.377z M462.491,40.216h5.854
			c0-1.066-0.238-1.883-0.715-2.451c-0.479-0.567-1.156-0.851-2.041-0.851c-0.898,0-1.614,0.292-2.148,0.876
			C462.905,38.375,462.593,39.183,462.491,40.216z"/>
		<path fill="#666565" d="M472.341,38.446c0-0.911,0.37-1.63,1.104-2.158c0.74-0.527,1.754-0.791,3.044-0.791
			c1.195,0,2.363,0.244,3.504,0.733l-0.59,1.377c-1.117-0.463-2.13-0.695-3.037-0.695c-0.804,0-1.402,0.126-1.813,0.378
			c-0.409,0.251-0.613,0.599-0.613,1.042c0,0.3,0.077,0.555,0.23,0.766c0.146,0.211,0.396,0.412,0.733,0.603
			c0.34,0.191,0.994,0.467,1.961,0.828c1.324,0.483,2.222,0.97,2.676,1.46c0.452,0.49,0.688,1.104,0.688,1.849
			c0,1.034-0.386,1.832-1.155,2.393c-0.771,0.561-1.852,0.841-3.243,0.841c-1.479,0-2.631-0.23-3.459-0.693V44.82
			c0.536,0.272,1.11,0.487,1.729,0.644c0.606,0.157,1.205,0.235,1.771,0.235c0.892,0,1.565-0.141,2.042-0.424
			c0.479-0.283,0.722-0.713,0.722-1.292c0-0.436-0.188-0.809-0.566-1.119c-0.378-0.31-1.115-0.676-2.211-1.098
			c-1.042-0.388-1.78-0.727-2.217-1.017c-0.438-0.29-0.768-0.618-0.979-0.986C472.445,39.396,472.341,38.957,472.341,38.446z"/>
	</g>
	
		<line fill="none" stroke="#666666" stroke-width="0.25" stroke-miterlimit="10" x1="354.047" y1="85.746" x2="354.047" y2="333.776"/>
	
		<line fill="none" stroke="#666666" stroke-width="0.25" stroke-miterlimit="10" x1="484.758" y1="333.776" x2="340.323" y2="333.776"/>
	
		<line fill="none" stroke="#666666" stroke-width="0.25" stroke-miterlimit="10" x1="484.758" y1="85.746" x2="340.323" y2="85.746"/>
</g>
<g id="legend">
	<rect x="563.448" y="184.116" fill="#DD9B2B" width="17.803" height="17.801"/>
	<rect x="563.448" y="211.714" fill="#199598" width="17.803" height="17.803"/>
	<g>
		<path fill="#5B5B5F" d="M594.687,196.817c-0.448,0.225-1.345,0.448-2.493,0.448c-2.661,0-4.665-1.681-4.665-4.776
			c0-2.955,2.004-4.958,4.931-4.958c1.177,0,1.919,0.252,2.241,0.42l-0.294,0.994c-0.462-0.224-1.12-0.392-1.905-0.392
			c-2.213,0-3.684,1.414-3.684,3.894c0,2.312,1.331,3.796,3.628,3.796c0.742,0,1.499-0.153,1.989-0.392L594.687,196.817z"/>
		<path fill="#5B5B5F" d="M602.149,193.68c0,2.508-1.737,3.601-3.376,3.601c-1.835,0-3.25-1.345-3.25-3.488
			c0-2.269,1.484-3.6,3.362-3.6C600.832,190.192,602.149,191.607,602.149,193.68z M596.77,193.75c0,1.485,0.854,2.605,2.059,2.605
			c1.177,0,2.06-1.106,2.06-2.634c0-1.148-0.574-2.604-2.031-2.604S596.77,192.462,596.77,193.75z"/>
		<path fill="#5B5B5F" d="M603.532,195.865c0.364,0.238,1.009,0.49,1.625,0.49c0.896,0,1.316-0.448,1.316-1.009
			c0-0.588-0.35-0.91-1.261-1.246c-1.219-0.435-1.793-1.106-1.793-1.919c0-1.093,0.883-1.989,2.34-1.989
			c0.686,0,1.288,0.196,1.667,0.42l-0.309,0.896c-0.267-0.168-0.757-0.392-1.387-0.392c-0.729,0-1.135,0.42-1.135,0.924
			c0,0.561,0.406,0.813,1.289,1.148c1.177,0.448,1.778,1.037,1.778,2.046c0,1.19-0.924,2.03-2.535,2.03
			c-0.742,0-1.429-0.182-1.905-0.462L603.532,195.865z"/>
		<path fill="#5B5B5F" d="M610.729,188.399v1.947h1.765v0.938h-1.765v3.655c0,0.841,0.237,1.317,0.924,1.317
			c0.322,0,0.561-0.042,0.715-0.084l0.056,0.924c-0.238,0.099-0.616,0.168-1.093,0.168c-0.574,0-1.036-0.182-1.33-0.518
			c-0.351-0.364-0.477-0.967-0.477-1.766v-3.697h-1.051v-0.938h1.051v-1.625L610.729,188.399z"/>
		<path fill="#5B5B5F" d="M616.845,192.182c0-0.701-0.014-1.275-0.056-1.835h1.093l0.069,1.12h0.028
			c0.336-0.645,1.12-1.274,2.241-1.274c0.938,0,2.396,0.561,2.396,2.886v4.048h-1.233v-3.908c0-1.093-0.405-2.003-1.568-2.003
			c-0.813,0-1.442,0.574-1.653,1.261c-0.056,0.154-0.084,0.364-0.084,0.574v4.076h-1.232V192.182z"/>
		<path fill="#5B5B5F" d="M630.751,193.68c0,2.508-1.737,3.601-3.376,3.601c-1.835,0-3.25-1.345-3.25-3.488
			c0-2.269,1.484-3.6,3.362-3.6C629.433,190.192,630.751,191.607,630.751,193.68z M625.372,193.75c0,1.485,0.854,2.605,2.059,2.605
			c1.177,0,2.06-1.106,2.06-2.634c0-1.148-0.574-2.604-2.031-2.604S625.372,192.462,625.372,193.75z"/>
		<path fill="#5B5B5F" d="M632.302,192.182c0-0.701-0.014-1.275-0.056-1.835h1.093l0.069,1.12h0.028
			c0.336-0.645,1.12-1.274,2.241-1.274c0.938,0,2.396,0.561,2.396,2.886v4.048h-1.233v-3.908c0-1.093-0.406-2.003-1.568-2.003
			c-0.813,0-1.442,0.574-1.653,1.261c-0.056,0.154-0.084,0.364-0.084,0.574v4.076h-1.232V192.182z"/>
		<path fill="#5B5B5F" d="M642.928,192.882v0.91h-3.46v-0.91H642.928z"/>
		<path fill="#5B5B5F" d="M644.495,197.126v-5.841h-0.952v-0.938h0.952v-0.322c0-0.953,0.21-1.821,0.784-2.367
			c0.463-0.448,1.079-0.631,1.653-0.631c0.435,0,0.813,0.099,1.051,0.196l-0.168,0.952c-0.183-0.084-0.435-0.153-0.785-0.153
			c-1.05,0-1.316,0.924-1.316,1.961v0.364h1.639v0.938h-1.639v5.841H644.495z"/>
		<path fill="#5B5B5F" d="M652.211,197.126l-0.098-0.854h-0.042c-0.378,0.532-1.106,1.009-2.073,1.009
			c-1.373,0-2.073-0.967-2.073-1.947c0-1.639,1.457-2.535,4.076-2.521v-0.14c0-0.561-0.154-1.569-1.541-1.569
			c-0.63,0-1.288,0.196-1.765,0.505l-0.28-0.813c0.561-0.364,1.373-0.603,2.228-0.603c2.073,0,2.577,1.415,2.577,2.773v2.535
			c0,0.589,0.028,1.163,0.112,1.625H652.211z M652.029,193.666c-1.345-0.028-2.872,0.21-2.872,1.527
			c0,0.798,0.532,1.176,1.163,1.176c0.882,0,1.442-0.56,1.639-1.134c0.042-0.126,0.07-0.267,0.07-0.393V193.666z"/>
		<path fill="#5B5B5F" d="M656.635,188.399v1.947h1.765v0.938h-1.765v3.655c0,0.841,0.237,1.317,0.924,1.317
			c0.322,0,0.561-0.042,0.715-0.084l0.056,0.924c-0.238,0.099-0.616,0.168-1.093,0.168c-0.574,0-1.036-0.182-1.33-0.518
			c-0.351-0.364-0.477-0.967-0.477-1.766v-3.697h-1.051v-0.938h1.051v-1.625L656.635,188.399z"/>
		<path fill="#5B5B5F" d="M663.537,197.126l-0.098-0.854h-0.042c-0.378,0.532-1.106,1.009-2.073,1.009
			c-1.373,0-2.073-0.967-2.073-1.947c0-1.639,1.457-2.535,4.076-2.521v-0.14c0-0.561-0.154-1.569-1.541-1.569
			c-0.63,0-1.288,0.196-1.765,0.505l-0.28-0.813c0.561-0.364,1.373-0.603,2.228-0.603c2.073,0,2.577,1.415,2.577,2.773v2.535
			c0,0.589,0.028,1.163,0.112,1.625H663.537z M663.355,193.666c-1.345-0.028-2.872,0.21-2.872,1.527
			c0,0.798,0.532,1.176,1.163,1.176c0.882,0,1.442-0.56,1.639-1.134c0.042-0.126,0.07-0.267,0.07-0.393V193.666z"/>
		<path fill="#5B5B5F" d="M666.531,187.181h1.232v9.945h-1.232V187.181z"/>
		<path fill="#5B5B5F" d="M677.635,196.874c-0.322,0.168-1.037,0.392-1.947,0.392c-2.045,0-3.376-1.387-3.376-3.459
			c0-2.088,1.429-3.601,3.642-3.601c0.729,0,1.373,0.183,1.709,0.351l-0.28,0.952c-0.294-0.168-0.756-0.322-1.429-0.322
			c-1.555,0-2.395,1.148-2.395,2.563c0,1.569,1.008,2.535,2.353,2.535c0.701,0,1.163-0.182,1.514-0.336L677.635,196.874z"/>
		<path fill="#5B5B5F" d="M682.828,197.126l-0.098-0.854h-0.042c-0.378,0.532-1.106,1.009-2.073,1.009
			c-1.373,0-2.073-0.967-2.073-1.947c0-1.639,1.457-2.535,4.076-2.521v-0.14c0-0.561-0.154-1.569-1.541-1.569
			c-0.63,0-1.288,0.196-1.765,0.505l-0.28-0.813c0.561-0.364,1.373-0.603,2.228-0.603c2.073,0,2.577,1.415,2.577,2.773v2.535
			c0,0.589,0.028,1.163,0.112,1.625H682.828z M682.646,193.666c-1.345-0.028-2.872,0.21-2.872,1.527
			c0,0.798,0.532,1.176,1.163,1.176c0.882,0,1.442-0.56,1.639-1.134c0.042-0.126,0.07-0.267,0.07-0.393V193.666z"/>
		<path fill="#5B5B5F" d="M685.654,195.865c0.364,0.238,1.009,0.49,1.625,0.49c0.896,0,1.316-0.448,1.316-1.009
			c0-0.588-0.35-0.91-1.261-1.246c-1.219-0.435-1.793-1.106-1.793-1.919c0-1.093,0.883-1.989,2.34-1.989
			c0.686,0,1.288,0.196,1.667,0.42l-0.309,0.896c-0.267-0.168-0.757-0.392-1.387-0.392c-0.729,0-1.135,0.42-1.135,0.924
			c0,0.561,0.406,0.813,1.289,1.148c1.177,0.448,1.778,1.037,1.778,2.046c0,1.19-0.924,2.03-2.535,2.03
			c-0.742,0-1.429-0.182-1.905-0.462L685.654,195.865z"/>
		<path fill="#5B5B5F" d="M692.052,193.96c0.028,1.667,1.093,2.354,2.325,2.354c0.883,0,1.415-0.154,1.877-0.351l0.21,0.883
			c-0.434,0.196-1.177,0.42-2.255,0.42c-2.087,0-3.334-1.372-3.334-3.417c0-2.046,1.205-3.656,3.18-3.656
			c2.213,0,2.802,1.947,2.802,3.193c0,0.252-0.028,0.448-0.042,0.574H692.052z M695.667,193.078
			c0.014-0.785-0.322-2.004-1.709-2.004c-1.247,0-1.793,1.149-1.892,2.004H695.667z"/>
		<path fill="#5B5B5F" d="M698.212,195.865c0.364,0.238,1.009,0.49,1.625,0.49c0.896,0,1.316-0.448,1.316-1.009
			c0-0.588-0.35-0.91-1.261-1.246c-1.219-0.435-1.793-1.106-1.793-1.919c0-1.093,0.883-1.989,2.34-1.989
			c0.686,0,1.288,0.196,1.667,0.42l-0.309,0.896c-0.267-0.168-0.757-0.392-1.387-0.392c-0.729,0-1.135,0.42-1.135,0.924
			c0,0.561,0.406,0.813,1.289,1.148c1.177,0.448,1.778,1.037,1.778,2.046c0,1.19-0.924,2.03-2.535,2.03
			c-0.742,0-1.429-0.182-1.905-0.462L698.212,195.865z"/>
	</g>
	<g>
		<path fill="#5B5B5F" d="M594.687,224.416c-0.448,0.225-1.345,0.448-2.493,0.448c-2.661,0-4.665-1.681-4.665-4.776
			c0-2.955,2.004-4.958,4.931-4.958c1.177,0,1.919,0.252,2.241,0.42l-0.294,0.994c-0.462-0.224-1.12-0.392-1.905-0.392
			c-2.213,0-3.684,1.414-3.684,3.894c0,2.312,1.331,3.796,3.628,3.796c0.742,0,1.499-0.153,1.989-0.392L594.687,224.416z"/>
		<path fill="#5B5B5F" d="M602.149,221.278c0,2.508-1.737,3.601-3.376,3.601c-1.835,0-3.25-1.345-3.25-3.488
			c0-2.269,1.484-3.6,3.362-3.6C600.832,217.791,602.149,219.206,602.149,221.278z M596.77,221.349c0,1.485,0.854,2.605,2.059,2.605
			c1.177,0,2.06-1.106,2.06-2.634c0-1.148-0.574-2.604-2.031-2.604S596.77,220.061,596.77,221.349z"/>
		<path fill="#5B5B5F" d="M603.532,223.464c0.364,0.238,1.009,0.49,1.625,0.49c0.896,0,1.316-0.448,1.316-1.009
			c0-0.588-0.35-0.91-1.261-1.246c-1.219-0.435-1.793-1.106-1.793-1.919c0-1.093,0.883-1.989,2.34-1.989
			c0.686,0,1.288,0.196,1.667,0.42l-0.309,0.896c-0.267-0.168-0.757-0.392-1.387-0.392c-0.729,0-1.135,0.42-1.135,0.924
			c0,0.561,0.406,0.813,1.289,1.148c1.177,0.448,1.778,1.037,1.778,2.046c0,1.19-0.924,2.03-2.535,2.03
			c-0.742,0-1.429-0.182-1.905-0.462L603.532,223.464z"/>
		<path fill="#5B5B5F" d="M610.729,215.998v1.947h1.765v0.938h-1.765v3.655c0,0.841,0.237,1.317,0.924,1.317
			c0.322,0,0.561-0.042,0.715-0.084l0.056,0.924c-0.238,0.099-0.616,0.168-1.093,0.168c-0.574,0-1.036-0.182-1.33-0.518
			c-0.351-0.364-0.477-0.967-0.477-1.766v-3.697h-1.051v-0.938h1.051v-1.625L610.729,215.998z"/>
		<path fill="#5B5B5F" d="M616.971,224.725v-5.841h-0.952v-0.938h0.952v-0.322c0-0.953,0.21-1.821,0.784-2.367
			c0.463-0.448,1.079-0.631,1.653-0.631c0.435,0,0.813,0.099,1.051,0.196l-0.168,0.952c-0.183-0.084-0.435-0.153-0.785-0.153
			c-1.05,0-1.316,0.924-1.316,1.961v0.364h1.639v0.938h-1.639v5.841H616.971z"/>
		<path fill="#5B5B5F" d="M624.687,224.725l-0.098-0.854h-0.042c-0.378,0.532-1.106,1.009-2.073,1.009
			c-1.373,0-2.073-0.967-2.073-1.947c0-1.639,1.457-2.535,4.076-2.521v-0.14c0-0.561-0.154-1.569-1.541-1.569
			c-0.63,0-1.288,0.196-1.765,0.505l-0.28-0.813c0.561-0.364,1.373-0.603,2.228-0.603c2.073,0,2.577,1.415,2.577,2.773v2.535
			c0,0.589,0.028,1.163,0.112,1.625H624.687z M624.506,221.265c-1.345-0.028-2.872,0.21-2.872,1.527
			c0,0.798,0.532,1.176,1.163,1.176c0.882,0,1.442-0.56,1.639-1.134c0.042-0.126,0.07-0.267,0.07-0.393V221.265z"/>
		<path fill="#5B5B5F" d="M629.11,215.998v1.947h1.765v0.938h-1.765v3.655c0,0.841,0.237,1.317,0.924,1.317
			c0.322,0,0.561-0.042,0.715-0.084l0.056,0.924c-0.238,0.099-0.616,0.168-1.093,0.168c-0.574,0-1.036-0.182-1.33-0.518
			c-0.351-0.364-0.477-0.967-0.477-1.766v-3.697h-1.051v-0.938h1.051v-1.625L629.11,215.998z"/>
		<path fill="#5B5B5F" d="M636.012,224.725l-0.098-0.854h-0.042c-0.379,0.532-1.106,1.009-2.073,1.009
			c-1.373,0-2.073-0.967-2.073-1.947c0-1.639,1.457-2.535,4.076-2.521v-0.14c0-0.561-0.154-1.569-1.541-1.569
			c-0.63,0-1.288,0.196-1.765,0.505l-0.28-0.813c0.561-0.364,1.373-0.603,2.228-0.603c2.073,0,2.577,1.415,2.577,2.773v2.535
			c0,0.589,0.028,1.163,0.112,1.625H636.012z M635.831,221.265c-1.345-0.028-2.872,0.21-2.872,1.527
			c0,0.798,0.532,1.176,1.163,1.176c0.882,0,1.442-0.56,1.639-1.134c0.042-0.126,0.07-0.267,0.07-0.393V221.265z"/>
		<path fill="#5B5B5F" d="M639.007,214.779h1.232v9.945h-1.232V214.779z"/>
		<path fill="#5B5B5F" d="M650.112,224.473c-0.322,0.168-1.037,0.392-1.947,0.392c-2.045,0-3.376-1.387-3.376-3.459
			c0-2.088,1.429-3.601,3.642-3.601c0.729,0,1.373,0.183,1.709,0.351l-0.28,0.952c-0.294-0.168-0.756-0.322-1.429-0.322
			c-1.555,0-2.395,1.148-2.395,2.563c0,1.569,1.008,2.535,2.353,2.535c0.701,0,1.163-0.182,1.514-0.336L650.112,224.473z"/>
		<path fill="#5B5B5F" d="M655.304,224.725l-0.098-0.854h-0.042c-0.378,0.532-1.106,1.009-2.073,1.009
			c-1.373,0-2.073-0.967-2.073-1.947c0-1.639,1.457-2.535,4.076-2.521v-0.14c0-0.561-0.154-1.569-1.541-1.569
			c-0.63,0-1.288,0.196-1.765,0.505l-0.28-0.813c0.561-0.364,1.373-0.603,2.228-0.603c2.073,0,2.577,1.415,2.577,2.773v2.535
			c0,0.589,0.028,1.163,0.112,1.625H655.304z M655.123,221.265c-1.345-0.028-2.872,0.21-2.872,1.527
			c0,0.798,0.532,1.176,1.163,1.176c0.882,0,1.442-0.56,1.639-1.134c0.042-0.126,0.07-0.267,0.07-0.393V221.265z"/>
		<path fill="#5B5B5F" d="M658.131,223.464c0.364,0.238,1.009,0.49,1.625,0.49c0.896,0,1.316-0.448,1.316-1.009
			c0-0.588-0.35-0.91-1.261-1.246c-1.219-0.435-1.793-1.106-1.793-1.919c0-1.093,0.883-1.989,2.34-1.989
			c0.686,0,1.288,0.196,1.667,0.42l-0.309,0.896c-0.267-0.168-0.757-0.392-1.387-0.392c-0.729,0-1.135,0.42-1.135,0.924
			c0,0.561,0.406,0.813,1.289,1.148c1.177,0.448,1.778,1.037,1.778,2.046c0,1.19-0.924,2.03-2.535,2.03
			c-0.742,0-1.429-0.182-1.905-0.462L658.131,223.464z"/>
		<path fill="#5B5B5F" d="M664.529,221.559c0.028,1.667,1.093,2.354,2.325,2.354c0.883,0,1.415-0.154,1.877-0.351l0.21,0.883
			c-0.434,0.196-1.177,0.42-2.255,0.42c-2.087,0-3.334-1.372-3.334-3.417c0-2.046,1.205-3.656,3.18-3.656
			c2.213,0,2.802,1.947,2.802,3.193c0,0.252-0.028,0.448-0.042,0.574H664.529z M668.143,220.677
			c0.014-0.785-0.322-2.004-1.709-2.004c-1.247,0-1.793,1.149-1.892,2.004H668.143z"/>
		<path fill="#5B5B5F" d="M670.688,223.464c0.364,0.238,1.009,0.49,1.625,0.49c0.896,0,1.316-0.448,1.316-1.009
			c0-0.588-0.35-0.91-1.261-1.246c-1.219-0.435-1.793-1.106-1.793-1.919c0-1.093,0.883-1.989,2.34-1.989
			c0.686,0,1.288,0.196,1.667,0.42l-0.309,0.896c-0.267-0.168-0.757-0.392-1.387-0.392c-0.729,0-1.135,0.42-1.135,0.924
			c0,0.561,0.406,0.813,1.289,1.148c1.177,0.448,1.778,1.037,1.778,2.046c0,1.19-0.924,2.03-2.535,2.03
			c-0.742,0-1.429-0.182-1.905-0.462L670.688,223.464z"/>
	</g>
</g>
</svg>
