<?xml version="1.0" encoding="utf-8"?>
<!-- Generator: Adobe Illustrator 17.0.0, SVG Export Plug-In . SVG Version: 6.00 Build 0)  -->
<!DOCTYPE svg PUBLIC "-//W3C//DTD SVG 1.1//EN" "http://www.w3.org/Graphics/SVG/1.1/DTD/svg11.dtd">
<svg version="1.1" id="Capa_1" xmlns="http://www.w3.org/2000/svg" xmlns:xlink="http://www.w3.org/1999/xlink" x="0px" y="0px"
	 width="510.236px" height="382.676px" viewBox="0 0 510.236 382.676" enable-background="new 0 0 510.236 382.676"
	 xml:space="preserve">
<rect x="110.319" y="188.787" fill="#449FA2" width="100.49" height="133.97"/>
<rect x="110.319" y="74.726" fill="#F2C466" width="100.49" height="114.061"/>
<path fill="#87868A" d="M48.841,215.43H33.944v-4.207c0-1.979,0.295-3.408,0.885-4.291c0.596-0.887,1.521-1.324,2.804-1.324
	c0.888,0,1.606,0.246,2.188,0.738c0.573,0.49,0.945,1.211,1.115,2.152h0.104c0.396-2.248,1.578-3.373,3.566-3.373
	c1.332,0,2.371,0.449,3.118,1.352c0.748,0.896,1.116,2.15,1.116,3.771L48.841,215.43L48.841,215.43z M40.312,213.698v-2.854
	c0-1.225-0.188-2.104-0.569-2.641c-0.388-0.537-1.021-0.813-1.938-0.813c-0.834,0-1.438,0.299-1.813,0.896
	c-0.364,0.603-0.555,1.553-0.555,2.854v2.547L40.312,213.698L40.312,213.698z M47.364,213.698v-3.107
	c0-1.192-0.229-2.104-0.698-2.715c-0.465-0.604-1.188-0.912-2.188-0.912c-0.924,0-1.604,0.313-2.033,0.938
	c-0.438,0.621-0.652,1.563-0.652,2.839v2.969L47.364,213.698L47.364,213.698z"/>
<path fill="#87868A" d="M34.647,202.305c-0.393,0-0.671-0.088-0.854-0.266c-0.185-0.184-0.271-0.396-0.271-0.656
	c0-0.295,0.092-0.547,0.271-0.76c0.188-0.211,0.466-0.314,0.852-0.314c0.385,0,0.664,0.104,0.854,0.314
	c0.188,0.213,0.28,0.465,0.28,0.76c0,0.266-0.104,0.479-0.28,0.656C35.311,202.217,35.027,202.305,34.647,202.305z M48.841,202.163
	H37.673v-1.55h11.168V202.163z"/>
<path fill="#87868A" d="M48.841,196.883H32.986v-1.689H48.84L48.841,196.883L48.841,196.883z"/>
<path fill="#87868A" d="M48.841,191.605H32.986v-1.69H48.84L48.841,191.605L48.841,191.605z"/>
<path fill="#87868A" d="M34.647,186.47c-0.393,0-0.671-0.09-0.854-0.266c-0.185-0.183-0.271-0.396-0.271-0.656
	c0-0.293,0.092-0.547,0.271-0.758c0.188-0.213,0.466-0.317,0.852-0.317c0.385,0,0.664,0.104,0.854,0.317
	c0.188,0.211,0.28,0.465,0.28,0.758c0,0.264-0.104,0.479-0.28,0.656C35.311,186.38,35.027,186.47,34.647,186.47z M48.841,186.329
	H37.673v-1.551h11.168V186.329z"/>
<path fill="#87868A" d="M43.237,181.669c-1.813,0-3.229-0.455-4.247-1.36c-1.019-0.908-1.521-2.168-1.521-3.78
	c0-1.558,0.521-2.795,1.563-3.713c1.032-0.918,2.438-1.377,4.211-1.377c1.819,0,3.248,0.457,4.271,1.372
	c1.021,0.914,1.531,2.178,1.531,3.789c0,0.996-0.229,1.88-0.699,2.651c-0.479,0.771-1.146,1.367-2.021,1.787
	S44.413,181.669,43.237,181.669z M43.237,179.938c1.43,0,2.521-0.286,3.271-0.856c0.749-0.563,1.124-1.412,1.124-2.521
	s-0.373-1.951-1.114-2.524c-0.745-0.574-1.842-0.858-3.271-0.858c-1.423,0-2.504,0.284-3.243,0.858
	c-0.729,0.573-1.104,1.424-1.104,2.547c0,1.106,0.359,1.943,1.099,2.513C40.706,179.655,41.793,179.938,43.237,179.938z"/>
<path fill="#87868A" d="M48.841,168.443H37.673v-1.376l1.514-0.275v-0.081c-0.544-0.347-0.971-0.832-1.271-1.457
	c-0.299-0.625-0.438-1.321-0.438-2.089c0-1.346,0.319-2.357,0.979-3.037c0.646-0.68,1.688-1.02,3.107-1.02h7.282v1.692h-7.235
	c-0.907,0-1.596,0.207-2.042,0.621c-0.444,0.415-0.677,1.063-0.677,1.946c0,1.169,0.313,2.024,0.947,2.568
	c0.636,0.543,1.683,0.815,3.14,0.815h5.867L48.841,168.443L48.841,168.443z"/>
<path fill="#87868A" d="M47.104,150.714h-1.6c0.252-0.563,0.457-1.214,0.611-1.951c0.16-0.737,0.24-1.408,0.24-2.013H41.88
	c-0.438,1.393-0.954,2.369-1.538,2.93c-0.585,0.561-1.339,0.841-2.268,0.841c-0.89,0-1.615-0.345-2.188-1.034
	c-0.566-0.689-0.923-1.602-1.04-2.736h-1.854v-1.335h1.834c0.034-1.246,0.286-2.448,0.76-3.607l1.335,0.53
	c-0.396,1.009-0.644,2.035-0.719,3.077h4.428c0.345-1.063,0.671-1.859,0.988-2.389c0.323-0.528,0.693-0.918,1.111-1.169
	c0.417-0.25,0.926-0.376,1.521-0.376c0.924,0,1.688,0.346,2.292,1.037c0.604,0.691,0.979,1.656,1.146,2.896h2.354v1.335H47.78
	c0,0.761-0.063,1.498-0.185,2.212C47.483,149.676,47.317,150.26,47.104,150.714z M38.071,148.79c0.521,0,0.936-0.152,1.238-0.456
	c0.313-0.304,0.604-0.831,0.892-1.582h-3.938c0.104,0.669,0.313,1.177,0.638,1.521C37.208,148.618,37.602,148.79,38.071,148.79z
	 M46.263,145.417c-0.203-1.467-0.828-2.201-1.875-2.201c-0.484,0-0.89,0.15-1.188,0.452c-0.303,0.301-0.604,0.884-0.896,1.749
	L46.263,145.417L46.263,145.417z"/>
<line fill="none" stroke="#000000" stroke-width="0.25" stroke-miterlimit="10" x1="80.1" y1="74.774" x2="80.1" y2="322.629"/>
<line fill="none" stroke="#000000" stroke-width="0.25" stroke-miterlimit="10" x1="210.809" y1="322.754" x2="66.379" y2="322.754"/>
<line fill="none" stroke="#000000" stroke-width="0.25" stroke-miterlimit="10" x1="66.673" y1="74.774" x2="210.809" y2="74.774"/>
<path fill="#9A999E" d="M54.026,316.484c0-2.236,0.35-3.896,1.049-4.979c0.7-1.083,1.767-1.625,3.201-1.625
	c1.393,0,2.451,0.565,3.174,1.695s1.084,2.767,1.084,4.909c0,2.223-0.35,3.882-1.049,4.979c-0.699,1.098-1.771,1.645-3.209,1.645
	c-1.387,0-2.442-0.562-3.165-1.685C54.387,320.301,54.026,318.654,54.026,316.484z M55.52,316.484c0,1.865,0.219,3.223,0.658,4.072
	c0.438,0.852,1.138,1.274,2.097,1.274c0.971,0,1.674-0.433,2.108-1.293c0.438-0.862,0.654-2.214,0.654-4.058
	c0-1.84-0.218-3.188-0.654-4.045c-0.436-0.856-1.139-1.285-2.108-1.285c-0.959,0-1.659,0.424-2.097,1.269
	C55.74,313.266,55.52,314.62,55.52,316.484z"/>
<g>
	<rect x="372.049" y="211.811" fill="#449FA2" width="100.493" height="110.943"/>
	<rect x="372.049" y="74.773" fill="#F2C466" width="100.493" height="137.038"/>
</g>
<path fill="#87868A" d="M317.008,215.43h-14.899v-4.209c0-1.979,0.296-3.406,0.886-4.289c0.604-0.887,1.523-1.326,2.813-1.326
	c0.883,0,1.604,0.246,2.185,0.74c0.574,0.49,0.946,1.211,1.116,2.152h0.104c0.396-2.248,1.575-3.373,3.568-3.373
	c1.332,0,2.371,0.449,3.118,1.35s1.121,2.152,1.121,3.771L317.008,215.43L317.008,215.43z M308.471,213.695v-2.854
	c0-1.225-0.191-2.104-0.574-2.641s-1.021-0.813-1.938-0.813c-0.834,0-1.438,0.299-1.813,0.896c-0.359,0.603-0.557,1.553-0.557,2.854
	v2.547L308.471,213.695L308.471,213.695z M315.522,213.695v-3.104c0-1.192-0.229-2.104-0.688-2.715
	c-0.479-0.604-1.193-0.912-2.188-0.912c-0.924,0-1.604,0.313-2.038,0.938c-0.435,0.621-0.646,1.563-0.646,2.838v2.971
	L315.522,213.695L315.522,213.695z"/>
<path fill="#87868A" d="M302.804,202.305c-0.392,0-0.673-0.088-0.854-0.266c-0.188-0.186-0.271-0.396-0.271-0.656
	c0-0.295,0.091-0.547,0.271-0.76c0.188-0.211,0.467-0.316,0.849-0.316c0.383,0,0.664,0.105,0.854,0.316
	c0.188,0.213,0.28,0.465,0.28,0.76c0,0.264-0.097,0.479-0.28,0.656C303.469,202.217,303.185,202.305,302.804,202.305z
	 M317.008,202.163h-11.169v-1.552h11.169V202.163z"/>
<path fill="#87868A" d="M317.008,196.883h-15.859v-1.691h15.855L317.008,196.883L317.008,196.883z"/>
<path fill="#87868A" d="M317.008,191.604h-15.859v-1.69h15.855L317.008,191.604L317.008,191.604z"/>
<path fill="#87868A" d="M302.804,186.469c-0.392,0-0.673-0.09-0.854-0.266c-0.188-0.183-0.271-0.396-0.271-0.656
	c0-0.293,0.091-0.547,0.271-0.758c0.188-0.213,0.467-0.317,0.849-0.317c0.383,0,0.664,0.104,0.854,0.317
	c0.188,0.211,0.28,0.465,0.28,0.758c0,0.264-0.097,0.479-0.28,0.656C303.469,186.379,303.185,186.469,302.804,186.469z
	 M317.008,186.328h-11.169v-1.551h11.169V186.328z"/>
<path fill="#87868A" d="M311.395,181.668c-1.813,0-3.229-0.455-4.247-1.36c-1.014-0.908-1.521-2.168-1.521-3.78
	c0-1.558,0.519-2.795,1.557-3.713c1.037-0.918,2.438-1.377,4.211-1.377c1.824,0,3.248,0.457,4.271,1.372
	c1.021,0.914,1.537,2.178,1.537,3.789c0,0.996-0.23,1.88-0.705,2.651c-0.479,0.771-1.146,1.367-2.021,1.787
	S312.567,181.668,311.395,181.668z M311.395,179.937c1.43,0,2.521-0.286,3.271-0.856c0.749-0.563,1.123-1.412,1.123-2.521
	s-0.372-1.951-1.113-2.524c-0.745-0.574-1.839-0.858-3.273-0.858c-1.423,0-2.504,0.284-3.243,0.858
	c-0.729,0.573-1.104,1.424-1.104,2.547c0,1.106,0.358,1.943,1.093,2.513C308.86,179.654,309.957,179.937,311.395,179.937z"/>
<path fill="#87868A" d="M317.008,168.442h-11.169v-1.376l1.509-0.275v-0.081c-0.543-0.347-0.965-0.832-1.269-1.457
	c-0.309-0.625-0.443-1.321-0.443-2.089c0-1.346,0.319-2.357,0.973-3.037c0.649-0.68,1.688-1.02,3.113-1.02h7.286v1.692h-7.239
	c-0.913,0-1.594,0.207-2.043,0.621c-0.449,0.415-0.674,1.063-0.674,1.946c0,1.169,0.313,2.024,0.945,2.568
	c0.638,0.543,1.683,0.815,3.14,0.815h5.871V168.442L317.008,168.442z"/>
<path fill="#87868A" d="M315.262,150.713h-1.6c0.256-0.563,0.457-1.214,0.616-1.951c0.15-0.737,0.229-1.408,0.229-2.013h-4.479
	c-0.438,1.393-0.954,2.369-1.539,2.93c-0.584,0.563-1.341,0.841-2.271,0.841c-0.895,0-1.616-0.345-2.188-1.034
	c-0.567-0.689-0.917-1.602-1.039-2.736h-1.854v-1.335h1.834c0.033-1.246,0.285-2.448,0.762-3.607l1.337,0.53
	c-0.396,1.009-0.646,2.035-0.723,3.077h4.433c0.339-1.063,0.671-1.859,0.983-2.389c0.322-0.528,0.693-0.918,1.109-1.169
	c0.419-0.25,0.927-0.376,1.521-0.376c0.927,0,1.688,0.346,2.291,1.037s0.979,1.656,1.146,2.896h2.354v1.335h-2.267
	c0,0.761-0.063,1.498-0.185,2.212C315.64,149.675,315.474,150.259,315.262,150.713z M306.228,148.789
	c0.521,0,0.938-0.152,1.243-0.456c0.313-0.304,0.604-0.831,0.887-1.582h-3.938c0.104,0.669,0.313,1.177,0.637,1.521
	C305.373,148.617,305.76,148.789,306.228,148.789z M314.427,145.416c-0.204-1.467-0.829-2.201-1.875-2.201
	c-0.489,0-0.89,0.15-1.188,0.452c-0.302,0.301-0.603,0.884-0.896,1.749L314.427,145.416L314.427,145.416z"/>
<line fill="none" stroke="#000000" stroke-width="0.25" stroke-miterlimit="10" x1="341.833" y1="74.725" x2="341.833" y2="322.754"/>
<line fill="none" stroke="#000000" stroke-width="0.25" stroke-miterlimit="10" x1="472.548" y1="322.754" x2="328.106" y2="322.754"/>
<line fill="none" stroke="#000000" stroke-width="0.25" stroke-miterlimit="10" x1="472.548" y1="74.725" x2="328.106" y2="74.725"/>
<path fill="#9A999E" d="M313.612,316.484c0-2.236,0.352-3.896,1.049-4.979c0.7-1.083,1.77-1.625,3.201-1.625
	c1.395,0,2.451,0.565,3.174,1.695c0.725,1.13,1.084,2.767,1.084,4.909c0,2.223-0.35,3.882-1.049,4.979
	c-0.699,1.098-1.77,1.645-3.209,1.645c-1.387,0-2.44-0.562-3.165-1.685C313.973,320.301,313.612,318.654,313.612,316.484z
	 M315.106,316.484c0,1.865,0.22,3.223,0.658,4.072c0.438,0.852,1.139,1.274,2.098,1.274c0.971,0,1.674-0.433,2.11-1.293
	c0.436-0.862,0.651-2.214,0.651-4.058c0-1.84-0.217-3.188-0.651-4.045c-0.438-0.856-1.142-1.285-2.11-1.285
	c-0.959,0-1.658,0.424-2.098,1.269C315.326,313.266,315.106,314.62,315.106,316.484z"/>
<path fill="#666666" d="M49.391,35.996c0-1.633,0.323-3.063,0.979-4.292c0.655-1.228,1.604-2.166,2.831-2.814
	c1.231-0.648,2.675-0.972,4.329-0.972c1.676,0,3.237,0.308,4.684,0.924l-0.709,1.611c-1.418-0.602-2.777-0.902-4.093-0.902
	c-1.912,0-3.405,0.569-4.479,1.708s-1.611,2.718-1.611,4.737c0,2.127,0.517,3.74,1.552,4.839c1.035,1.1,2.56,1.649,4.563,1.649
	c1.088,0,2.147-0.125,3.188-0.377v-4.854h-3.513V35.62h5.339v7.648c-0.831,0.262-1.676,0.459-2.535,0.594
	c-0.854,0.134-1.854,0.201-2.981,0.201c-2.378,0-4.229-0.707-5.559-2.122C50.052,40.527,49.391,38.545,49.391,35.996z"/>
<path fill="#666666" d="M65.954,43.849V27.133h1.783v16.715L65.954,43.849L65.954,43.849z"/>
<path fill="#666666" d="M70.865,37.939c0-1.916,0.479-3.408,1.435-4.477s2.285-1.603,3.984-1.603c1.642,0,2.947,0.547,3.915,1.641
	s1.451,2.574,1.451,4.439c0,1.923-0.482,3.424-1.446,4.503c-0.964,1.08-2.296,1.62-3.995,1.62c-1.05,0-1.979-0.248-2.795-0.743
	c-0.813-0.495-1.438-1.205-1.885-2.13C71.085,40.265,70.865,39.182,70.865,37.939z M72.691,37.939c0,1.507,0.301,2.656,0.904,3.445
	c0.602,0.79,1.483,1.185,2.652,1.185s2.062-0.393,2.663-1.179c0.606-0.786,0.909-1.937,0.909-3.451c0-1.5-0.303-2.64-0.909-3.419
	c-0.604-0.778-1.501-1.168-2.684-1.168c-1.169,0-2.052,0.384-2.646,1.152C72.988,35.272,72.691,36.418,72.691,37.939z"/>
<path fill="#666666" d="M84.808,43.849V27.133h1.778v4.061c0,0.91-0.024,1.726-0.086,2.449h0.086
	c0.831-1.174,2.063-1.762,3.695-1.762c1.54,0,2.736,0.528,3.588,1.584c0.854,1.057,1.278,2.551,1.278,4.485
	c0,1.934-0.431,3.436-1.289,4.506c-0.859,1.071-2.052,1.606-3.578,1.606c-0.767,0-1.466-0.142-2.1-0.424
	c-0.639-0.282-1.166-0.718-1.6-1.305h-0.12l-0.376,1.515L84.808,43.849L84.808,43.849z M86.59,37.951
	c0,1.654,0.275,2.838,0.827,3.55c0.551,0.713,1.438,1.069,2.653,1.069c1.096,0,1.912-0.399,2.449-1.198
	c0.537-0.798,0.806-1.946,0.806-3.443c0-1.532-0.269-2.675-0.806-3.427s-1.368-1.128-2.492-1.128c-1.218,0-2.095,0.349-2.632,1.047
	C86.859,35.119,86.59,36.296,86.59,37.951z"/>
<path fill="#666666" d="M97.407,40.604c0-2.371,1.904-3.614,5.712-3.729l2.001-0.065v-0.739c0-0.935-0.198-1.625-0.595-2.071
	s-1.031-0.669-1.903-0.669c-0.979,0-2.087,0.305-3.324,0.914l-0.554-1.369c0.58-0.311,1.215-0.554,1.907-0.73
	c0.688-0.176,1.384-0.265,2.079-0.265c1.397,0,2.438,0.312,3.117,0.935c0.676,0.623,1.014,1.622,1.014,2.997v8.035h-1.321
	l-0.354-1.656H105.1c-0.586,0.73-1.17,1.225-1.753,1.483c-0.583,0.259-1.313,0.388-2.187,0.388c-1.173,0-2.092-0.3-2.758-0.899
	C97.74,42.564,97.407,41.711,97.407,40.604z M99.298,40.626c0,0.648,0.195,1.141,0.584,1.479c0.394,0.338,0.938,0.507,1.64,0.507
	c1.104,0,1.979-0.306,2.606-0.917c0.638-0.612,0.949-1.468,0.949-2.569v-1.068l-1.78,0.075c-1.416,0.05-2.436,0.272-3.062,0.664
	C99.61,39.189,99.298,39.799,99.298,40.626z"/>
<path fill="#666666" d="M110.525,43.849V27.133h1.783v16.715L110.525,43.849L110.525,43.849z"/>
<path fill="#666666" d="M121.149,38.059c0-1.897,0.466-3.405,1.396-4.522c0.936-1.117,2.188-1.676,3.754-1.676
	c1.475,0,2.638,0.485,3.49,1.456c0.856,0.971,1.285,2.25,1.285,3.84v1.128h-8.1c0.036,1.382,0.386,2.432,1.049,3.147
	c0.664,0.716,1.598,1.074,2.803,1.074c1.264,0,2.513-0.265,3.748-0.795v1.59c-0.628,0.272-1.223,0.467-1.783,0.585
	c-0.561,0.118-1.232,0.177-2.025,0.177c-1.735,0-3.105-0.53-4.108-1.59C121.65,41.414,121.149,39.941,121.149,38.059z
	 M123.018,36.833h6.166c0-1.124-0.251-1.985-0.753-2.583s-1.224-0.897-2.152-0.897c-0.947,0-1.702,0.308-2.266,0.924
	C123.449,34.894,123.117,35.746,123.018,36.833z"/>
<path fill="#666666" d="M133.395,34.968c0-0.961,0.39-1.719,1.169-2.275c0.774-0.556,1.849-0.833,3.208-0.833
	c1.26,0,2.491,0.258,3.689,0.773l-0.622,1.452c-1.178-0.488-2.24-0.732-3.197-0.732c-0.852,0-1.485,0.133-1.916,0.398
	c-0.436,0.265-0.646,0.632-0.646,1.098c0,0.316,0.081,0.585,0.242,0.808c0.161,0.223,0.422,0.434,0.78,0.635
	c0.354,0.201,1.048,0.492,2.063,0.872c1.396,0.51,2.334,1.023,2.816,1.54c0.479,0.517,0.722,1.167,0.722,1.949
	c0,1.09-0.406,1.931-1.218,2.522c-0.813,0.592-1.952,0.887-3.418,0.887c-1.561,0-2.774-0.243-3.646-0.73v-1.646
	c0.564,0.287,1.175,0.513,1.817,0.678c0.647,0.165,1.271,0.248,1.872,0.248c0.933,0,1.65-0.149,2.153-0.447
	c0.502-0.298,0.753-0.752,0.753-1.362c0-0.459-0.199-0.852-0.603-1.179c-0.396-0.327-1.175-0.712-2.331-1.158
	c-1.098-0.409-1.877-0.766-2.336-1.071c-0.46-0.305-0.802-0.651-1.021-1.039C133.504,35.968,133.395,35.506,133.395,34.968z"/>
<path fill="#666666" d="M143.083,33.46v-0.859l1.688-0.741l0.752-2.514h1.031v2.729h3.416v1.386h-3.416v6.945
	c0,0.711,0.168,1.256,0.505,1.637c0.336,0.381,0.798,0.571,1.386,0.571c0.313,0,0.619-0.023,0.913-0.07
	c0.293-0.047,0.521-0.095,0.698-0.146v1.348c-0.193,0.092-0.479,0.167-0.854,0.228c-0.376,0.06-0.714,0.09-1.015,0.09
	c-2.277,0-3.416-1.199-3.416-3.599V33.46H143.083z"/>
<path fill="#666666" d="M152.257,28.884c0-0.408,0.097-0.707,0.277-0.897c0.188-0.189,0.416-0.285,0.693-0.285
	c0.309,0,0.57,0.097,0.799,0.29c0.224,0.193,0.336,0.491,0.336,0.892c0,0.401-0.112,0.7-0.336,0.897
	c-0.229,0.197-0.49,0.295-0.799,0.295c-0.277,0-0.508-0.098-0.693-0.295C152.35,29.584,152.257,29.286,152.257,28.884z
	 M152.407,43.849V32.075h1.633v11.773L152.407,43.849L152.407,43.849z"/>
<path fill="#666666" d="M157.973,43.849V32.075h1.445l0.29,1.59h0.086c0.336-0.566,0.813-1.009,1.428-1.327
	c0.607-0.319,1.298-0.478,2.057-0.478c1.839,0,3.042,0.659,3.609,1.978h0.086c0.351-0.609,0.854-1.091,1.521-1.446
	s1.425-0.532,2.277-0.532c1.332,0,2.329,0.342,2.992,1.026c0.661,0.684,0.991,1.778,0.991,3.282v7.681h-1.78v-7.675
	c0-0.94-0.201-1.645-0.604-2.115c-0.396-0.47-1.021-0.705-1.869-0.705c-1.105,0-1.93,0.319-2.46,0.958
	c-0.525,0.639-0.795,1.622-0.795,2.949v6.588h-1.783v-7.675c0-0.94-0.196-1.645-0.602-2.115c-0.401-0.47-1.028-0.705-1.879-0.705
	c-1.117,0-1.938,0.335-2.455,1.006c-0.521,0.671-0.779,1.771-0.779,3.299v6.189L157.973,43.849L157.973,43.849z"/>
<path fill="#666666" d="M177.555,40.604c0-2.371,1.899-3.614,5.712-3.729l2.001-0.065v-0.739c0-0.935-0.198-1.625-0.6-2.071
	c-0.396-0.446-1.026-0.669-1.898-0.669c-0.979,0-2.087,0.305-3.324,0.914l-0.554-1.369c0.58-0.311,1.215-0.554,1.902-0.73
	c0.691-0.176,1.389-0.265,2.079-0.265c1.402,0,2.441,0.312,3.117,0.935s1.014,1.622,1.014,2.997v8.035h-1.316l-0.354-1.656h-0.086
	c-0.586,0.73-1.17,1.225-1.753,1.483c-0.583,0.259-1.31,0.388-2.182,0.388c-1.173,0-2.092-0.3-2.758-0.899
	C177.887,42.564,177.555,41.711,177.555,40.604z M179.446,40.626c0,0.648,0.195,1.141,0.584,1.479s0.935,0.507,1.635,0.507
	c1.108,0,1.979-0.306,2.611-0.917c0.633-0.612,0.949-1.468,0.949-2.569v-1.068l-1.78,0.075c-1.416,0.05-2.438,0.272-3.063,0.664
	C179.757,39.189,179.446,39.799,179.446,40.626z"/>
<path fill="#666666" d="M189.114,33.46v-0.859l1.687-0.741l0.757-2.514h1.026v2.729H196v1.386h-3.416v6.945
	c0,0.711,0.168,1.256,0.505,1.637c0.336,0.381,0.803,0.571,1.391,0.571c0.313,0,0.619-0.023,0.913-0.07
	c0.293-0.047,0.521-0.095,0.693-0.146v1.348c-0.188,0.092-0.478,0.167-0.854,0.228c-0.376,0.06-0.714,0.09-1.02,0.09
	c-2.272,0-3.416-1.199-3.416-3.599V33.46H189.114z"/>
<path fill="#666666" d="M197.782,38.059c0-1.897,0.466-3.405,1.397-4.522s2.183-1.676,3.754-1.676c1.47,0,2.633,0.485,3.485,1.456
	c0.856,0.971,1.285,2.25,1.285,3.84v1.128h-8.1c0.036,1.382,0.386,2.432,1.049,3.147c0.664,0.716,1.598,1.074,2.803,1.074
	c1.269,0,2.518-0.265,3.748-0.795v1.59c-0.628,0.272-1.223,0.467-1.783,0.585c-0.561,0.118-1.232,0.177-2.025,0.177
	c-1.735,0-3.105-0.53-4.108-1.59C198.284,41.414,197.782,39.941,197.782,38.059z M199.652,36.833h6.166
	c0-1.124-0.251-1.985-0.753-2.583s-1.219-0.897-2.152-0.897c-0.947,0-1.702,0.308-2.266,0.924
	C200.084,34.894,199.752,35.746,199.652,36.833z"/>
<path fill="#666666" d="M324.219,43.849V28.144h8.755v1.633h-6.929v5.027h6.51v1.633h-6.51v5.779h6.929v1.633
	C332.974,43.849,324.219,43.849,324.219,43.849z"/>
<path fill="#666666" d="M336.29,38.263V28.144h1.826v10.264c0,1.313,0.358,2.32,1.074,3.023s1.771,1.054,3.158,1.054
	c1.325,0,2.345-0.353,3.062-1.06c0.721-0.707,1.074-1.72,1.074-3.04V28.144h1.826v10.162c0,1.791-0.541,3.198-1.622,4.222
	c-1.082,1.024-2.567,1.536-4.458,1.536s-3.354-0.516-4.388-1.547C336.807,41.484,336.29,40.066,336.29,38.263z"/>
<path fill="#666666" d="M351.385,43.849v-1.516l4.136-4.174c1.26-1.28,2.091-2.193,2.492-2.74c0.396-0.546,0.702-1.079,0.897-1.596
	c0.2-0.518,0.306-1.075,0.306-1.672c0-0.841-0.254-1.508-0.768-2c-0.509-0.493-1.214-0.739-2.111-0.739
	c-0.652,0-1.271,0.108-1.854,0.324c-0.584,0.216-1.234,0.607-1.95,1.176l-0.94-1.219c1.441-1.182,3.021-1.773,4.727-1.773
	c1.477,0,2.632,0.376,3.47,1.127c0.839,0.752,1.259,1.762,1.259,3.03c0,1-0.276,1.988-0.84,2.966
	c-0.559,0.979-1.604,2.215-3.137,3.711l-3.438,3.376v0.086h8.073v1.633C361.707,43.849,351.385,43.849,351.385,43.849z"/>
<path fill="#666666" d="M364.01,39.841c0-1.797,1.102-3.197,3.307-4.2c-0.999-0.559-1.716-1.162-2.149-1.81
	c-0.435-0.648-0.647-1.373-0.647-2.175c0-1.139,0.423-2.046,1.27-2.723c0.852-0.677,1.979-1.015,3.398-1.015
	c1.437,0,2.576,0.333,3.417,0.999s1.261,1.586,1.261,2.761c0,0.773-0.242,1.479-0.724,2.116c-0.483,0.638-1.254,1.218-2.313,1.74
	c1.282,0.609,2.192,1.248,2.732,1.917c0.54,0.67,0.81,1.445,0.81,2.326c0,1.304-0.456,2.344-1.368,3.121
	c-0.91,0.777-2.16,1.166-3.75,1.166c-1.682,0-2.975-0.367-3.88-1.101C364.458,42.229,364.01,41.188,364.01,39.841z M365.788,39.884
	c0,0.859,0.303,1.529,0.896,2.009s1.436,0.72,2.515,0.72c1.065,0,1.896-0.25,2.488-0.752c0.593-0.501,0.89-1.188,0.89-2.063
	c0-0.694-0.274-1.312-0.836-1.853c-0.558-0.541-1.525-1.065-2.917-1.574c-1.063,0.458-1.837,0.965-2.313,1.52
	C366.028,38.446,365.788,39.11,365.788,39.884z M366.298,31.73c0,0.659,0.211,1.225,0.633,1.697
	c0.421,0.473,1.201,0.945,2.337,1.418c1.021-0.43,1.746-0.892,2.171-1.386s0.638-1.07,0.638-1.729c0-0.723-0.259-1.298-0.772-1.724
	c-0.521-0.426-1.231-0.639-2.144-0.639c-0.894,0-1.594,0.215-2.102,0.645C366.552,30.441,366.298,31.016,366.298,31.73z"/>
<path fill="#666666" d="M382.417,38.059c0-1.897,0.471-3.405,1.397-4.522c0.931-1.117,2.183-1.676,3.754-1.676
	c1.47,0,2.633,0.485,3.49,1.456c0.854,0.971,1.285,2.25,1.285,3.84v1.128h-8.104c0.036,1.382,0.391,2.432,1.049,3.147
	c0.664,0.716,1.603,1.074,2.808,1.074c1.264,0,2.513-0.265,3.748-0.795v1.59c-0.628,0.272-1.228,0.467-1.783,0.585
	c-0.563,0.118-1.237,0.177-2.03,0.177c-1.73,0-3.104-0.53-4.104-1.59C382.924,41.414,382.417,39.941,382.417,38.059z
	 M384.286,36.833h6.166c0-1.124-0.251-1.985-0.753-2.583s-1.219-0.897-2.147-0.897c-0.947,0-1.702,0.308-2.271,0.924
	C384.719,34.894,384.387,35.746,384.286,36.833z"/>
<path fill="#666666" d="M394.663,34.968c0-0.961,0.395-1.719,1.169-2.275c0.779-0.556,1.854-0.833,3.208-0.833
	c1.265,0,2.492,0.258,3.695,0.773l-0.623,1.452c-1.178-0.488-2.244-0.732-3.201-0.732c-0.847,0-1.48,0.133-1.916,0.398
	c-0.431,0.265-0.646,0.632-0.646,1.098c0,0.316,0.081,0.585,0.242,0.808s0.422,0.434,0.776,0.635
	c0.358,0.201,1.052,0.492,2.066,0.872c1.396,0.51,2.335,1.023,2.816,1.54c0.479,0.517,0.723,1.167,0.723,1.949
	c0,1.09-0.406,1.931-1.219,2.522c-0.813,0.592-1.951,0.887-3.418,0.887c-1.563,0-2.774-0.243-3.646-0.73v-1.646
	c0.564,0.287,1.17,0.513,1.817,0.678c0.646,0.165,1.271,0.248,1.872,0.248c0.934,0,1.646-0.149,2.148-0.447
	c0.504-0.298,0.754-0.752,0.754-1.362c0-0.459-0.195-0.852-0.599-1.179c-0.396-0.327-1.175-0.712-2.33-1.158
	c-1.098-0.409-1.877-0.766-2.336-1.071c-0.46-0.305-0.802-0.651-1.022-1.039C394.775,35.968,394.663,35.506,394.663,34.968z"/>
<path fill="#666666" d="M404.353,33.46v-0.859l1.686-0.741l0.753-2.514h1.03v2.729h3.416v1.386h-3.416v6.945
	c0,0.711,0.168,1.256,0.506,1.637c0.336,0.381,0.803,0.571,1.39,0.571c0.313,0,0.615-0.023,0.914-0.07
	c0.293-0.047,0.521-0.095,0.692-0.146v1.348c-0.188,0.092-0.478,0.167-0.854,0.228c-0.376,0.06-0.715,0.09-1.021,0.09
	c-2.272,0-3.416-1.199-3.416-3.599V33.46H404.353z"/>
<path fill="#666666" d="M413.526,28.884c0-0.408,0.092-0.707,0.277-0.897c0.186-0.189,0.416-0.285,0.689-0.285
	c0.313,0,0.574,0.097,0.803,0.29c0.225,0.193,0.336,0.491,0.336,0.892c0,0.401-0.111,0.7-0.336,0.897
	c-0.229,0.197-0.49,0.295-0.803,0.295c-0.273,0-0.51-0.098-0.689-0.295C413.618,29.584,413.526,29.286,413.526,28.884z
	 M413.677,43.849V32.075h1.633v11.773L413.677,43.849L413.677,43.849z"/>
<path fill="#666666" d="M419.241,43.849V32.075h1.449l0.291,1.59h0.086c0.336-0.566,0.813-1.009,1.423-1.327
	c0.612-0.319,1.298-0.478,2.063-0.478c1.84,0,3.043,0.659,3.604,1.978h0.086c0.354-0.609,0.859-1.091,1.525-1.446
	s1.424-0.532,2.277-0.532c1.332,0,2.323,0.342,2.986,1.026c0.662,0.684,0.993,1.778,0.993,3.282v7.681h-1.783v-7.675
	c0-0.94-0.195-1.645-0.602-2.115c-0.4-0.47-1.023-0.705-1.869-0.705c-1.104,0-1.93,0.319-2.459,0.958
	c-0.531,0.639-0.795,1.622-0.795,2.949v6.588h-1.783v-7.675c0-0.94-0.201-1.645-0.602-2.115c-0.402-0.47-1.028-0.705-1.881-0.705
	c-1.117,0-1.938,0.335-2.454,1.006c-0.521,0.671-0.777,1.771-0.777,3.299v6.189L419.241,43.849L419.241,43.849z"/>
<path fill="#666666" d="M438.823,40.604c0-2.371,1.904-3.614,5.713-3.729l2-0.065v-0.739c0-0.935-0.192-1.625-0.595-2.071
	c-0.396-0.446-1.031-0.669-1.903-0.669c-0.979,0-2.088,0.305-3.319,0.914l-0.559-1.369c0.58-0.311,1.221-0.554,1.907-0.73
	c0.69-0.176,1.383-0.265,2.078-0.265c1.402,0,2.441,0.312,3.117,0.935s1.014,1.622,1.014,2.997v8.035h-1.315l-0.355-1.656h-0.086
	c-0.586,0.73-1.17,1.225-1.752,1.483c-0.584,0.259-1.313,0.388-2.188,0.388c-1.173,0-2.093-0.3-2.758-0.899
	C439.156,42.564,438.823,41.711,438.823,40.604z M440.719,40.626c0,0.648,0.19,1.141,0.585,1.479
	c0.39,0.338,0.935,0.507,1.635,0.507c1.108,0,1.979-0.306,2.61-0.917c0.633-0.612,0.944-1.468,0.944-2.569v-1.068l-1.774,0.075
	c-1.416,0.05-2.438,0.272-3.063,0.664C441.026,39.189,440.719,39.799,440.719,40.626z"/>
<path fill="#666666" d="M450.385,33.46v-0.859l1.688-0.741l0.752-2.514h1.031v2.729h3.416v1.386h-3.416v6.945
	c0,0.711,0.168,1.256,0.504,1.637c0.337,0.381,0.799,0.571,1.387,0.571c0.314,0,0.619-0.023,0.912-0.07
	c0.294-0.047,0.527-0.095,0.699-0.146v1.348c-0.193,0.092-0.479,0.167-0.854,0.228c-0.378,0.06-0.719,0.09-1.02,0.09
	c-2.273,0-3.416-1.199-3.416-3.599V33.46H450.385z"/>
<path fill="#666666" d="M459.052,38.059c0-1.897,0.465-3.405,1.396-4.522c0.936-1.117,2.188-1.676,3.754-1.676
	c1.476,0,2.639,0.485,3.49,1.456c0.856,0.971,1.285,2.25,1.285,3.84v1.128h-8.1c0.03,1.382,0.385,2.432,1.049,3.147
	c0.664,0.716,1.598,1.074,2.803,1.074c1.264,0,2.514-0.265,3.748-0.795v1.59c-0.628,0.272-1.223,0.467-1.783,0.585
	s-1.236,0.177-2.029,0.177c-1.73,0-3.104-0.53-4.104-1.59C459.552,41.414,459.052,39.941,459.052,38.059z M460.926,36.833h6.166
	c0-1.124-0.252-1.985-0.754-2.583c-0.507-0.598-1.224-0.897-2.152-0.897c-0.947,0-1.701,0.308-2.271,0.924
	C461.352,34.894,461.02,35.746,460.926,36.833z"/>
<rect x="96.537" y="354.104" fill="#F2C466" width="17.803" height="17.801"/>
<path fill="#666666" d="M121.178,364.125c0-1.029,0.188-1.932,0.567-2.705c0.381-0.775,0.938-1.371,1.66-1.791
	c0.729-0.418,1.582-0.629,2.566-0.629c1.049,0,1.965,0.191,2.748,0.574l-0.492,0.998c-0.756-0.355-1.515-0.533-2.271-0.533
	c-1.098,0-1.965,0.367-2.6,1.098c-0.637,0.73-0.955,1.73-0.955,3.002c0,1.313,0.307,2.316,0.92,3.029
	c0.613,0.711,1.486,1.068,2.621,1.068c0.697,0,1.492-0.125,2.387-0.377v1.021c-0.688,0.265-1.547,0.396-2.563,0.396
	c-1.476,0-2.605-0.446-3.4-1.342C121.575,367.042,121.178,365.77,121.178,364.125z"/>
<path fill="#666666" d="M129.942,365.379c0-1.219,0.305-2.17,0.913-2.85c0.604-0.68,1.454-1.021,2.535-1.021
	c1.046,0,1.876,0.35,2.486,1.043c0.616,0.697,0.929,1.641,0.929,2.826c0,1.225-0.312,2.18-0.925,2.865
	c-0.608,0.688-1.461,1.027-2.542,1.027c-0.669,0-1.262-0.154-1.774-0.475c-0.521-0.313-0.918-0.77-1.199-1.354
	C130.082,366.857,129.942,366.168,129.942,365.379z M131.104,365.379c0,0.959,0.188,1.689,0.575,2.191
	c0.383,0.504,0.942,0.754,1.688,0.754c0.743,0,1.313-0.25,1.694-0.75s0.578-1.232,0.578-2.195c0-0.955-0.193-1.68-0.578-2.176
	c-0.391-0.496-0.955-0.744-1.708-0.744c-0.744,0-1.311,0.244-1.688,0.734C131.293,363.682,131.104,364.411,131.104,365.379z"/>
<path fill="#666666" d="M138.335,363.486c0-0.608,0.248-1.094,0.744-1.446c0.496-0.352,1.177-0.528,2.042-0.528
	c0.802,0,1.585,0.163,2.354,0.491l-0.396,0.925c-0.75-0.313-1.429-0.468-2.037-0.468c-0.539,0-0.94,0.086-1.22,0.254
	c-0.275,0.17-0.411,0.402-0.411,0.699c0,0.2,0.052,0.373,0.154,0.515c0.102,0.143,0.269,0.276,0.496,0.403
	c0.229,0.129,0.667,0.313,1.313,0.556c0.894,0.323,1.486,0.651,1.792,0.979c0.312,0.327,0.46,0.741,0.46,1.239
	c0,0.69-0.259,1.229-0.771,1.604c-0.521,0.375-1.241,0.563-2.175,0.563c-0.992,0-1.771-0.151-2.32-0.465v-1.047
	c0.354,0.182,0.745,0.325,1.156,0.432c0.407,0.105,0.81,0.156,1.188,0.156c0.594,0,1.05-0.095,1.37-0.283
	c0.319-0.188,0.479-0.479,0.479-0.862c0-0.293-0.132-0.543-0.385-0.75c-0.254-0.209-0.748-0.453-1.479-0.736
	c-0.699-0.262-1.194-0.485-1.487-0.684c-0.292-0.193-0.51-0.414-0.652-0.66C138.406,364.125,138.335,363.831,138.335,363.486z"/>
<path fill="#666666" d="M144.502,362.527v-0.547l1.073-0.474l0.479-1.6h0.651v1.731h2.174v0.881h-2.174v4.422
	c0,0.451,0.107,0.802,0.321,1.039c0.214,0.242,0.508,0.363,0.882,0.363c0.2,0,0.396-0.015,0.581-0.043
	c0.188-0.031,0.335-0.062,0.444-0.095v0.856c-0.123,0.06-0.31,0.104-0.543,0.146c-0.24,0.037-0.455,0.058-0.646,0.058
	c-1.449,0-2.174-0.765-2.174-2.291v-4.457h-1.07L144.502,362.527L144.502,362.527z"/>
<path fill="#666666" d="M154.072,369.139v-7.492h0.923l0.188,1.018h0.055c0.229-0.365,0.559-0.646,0.978-0.854
	c0.421-0.201,0.892-0.301,1.401-0.301c0.902,0,1.581,0.217,2.037,0.652s0.684,1.131,0.684,2.088v4.889h-1.135v-4.854
	c0-0.611-0.139-1.068-0.417-1.369c-0.278-0.304-0.713-0.453-1.306-0.453c-0.784,0-1.358,0.213-1.728,0.639
	c-0.36,0.426-0.547,1.127-0.547,2.104v3.938h-1.135L154.072,369.139L154.072,369.139z"/>
<path fill="#666666" d="M162.248,365.379c0-1.219,0.31-2.17,0.913-2.85c0.609-0.68,1.454-1.021,2.535-1.021
	c1.046,0,1.876,0.35,2.491,1.043c0.616,0.697,0.924,1.641,0.924,2.826c0,1.225-0.307,2.18-0.92,2.865
	c-0.613,0.685-1.461,1.027-2.542,1.027c-0.669,0-1.262-0.154-1.779-0.475c-0.518-0.313-0.918-0.77-1.199-1.354
	C162.388,366.857,162.248,366.168,162.248,365.379z M163.41,365.379c0,0.959,0.191,1.689,0.575,2.191
	c0.383,0.504,0.947,0.754,1.688,0.754c0.743,0,1.313-0.25,1.694-0.75s0.578-1.232,0.578-2.195c0-0.955-0.193-1.68-0.578-2.176
	c-0.386-0.496-0.955-0.744-1.708-0.744c-0.744,0-1.306,0.244-1.685,0.734C163.599,363.682,163.41,364.411,163.41,365.379z"/>
<path fill="#666666" d="M171.12,369.139v-7.492h0.923l0.188,1.018h0.055c0.232-0.365,0.562-0.646,0.979-0.854
	c0.419-0.201,0.887-0.301,1.396-0.301c0.902,0,1.581,0.217,2.037,0.652s0.684,1.131,0.684,2.088v4.889h-1.135v-4.854
	c0-0.611-0.139-1.068-0.417-1.369c-0.273-0.304-0.713-0.453-1.306-0.453c-0.784,0-1.358,0.213-1.725,0.639
	c-0.363,0.426-0.55,1.127-0.55,2.104v3.938h-1.135L171.12,369.139L171.12,369.139z"/>
<path fill="#666666" d="M179.085,365.904v-1.038h3.356v1.038H179.085z"/>
<path fill="#666666" d="M183.213,362.527v-0.512l1.345-0.41v-0.416c0-1.834,0.805-2.75,2.408-2.75c0.396,0,0.861,0.078,1.396,0.233
	l-0.294,0.898c-0.438-0.146-0.813-0.214-1.121-0.214c-0.429,0-0.745,0.146-0.95,0.429c-0.205,0.285-0.308,0.741-0.308,1.371v0.481
	h1.907v0.881h-1.907v6.611h-1.135v-6.611h-1.345L183.213,362.527L183.213,362.527z"/>
<path fill="#666666" d="M188.401,367.075c0-1.511,1.212-2.302,3.635-2.373l1.273-0.041v-0.472c0-0.596-0.126-1.032-0.379-1.317
	c-0.252-0.283-0.656-0.426-1.211-0.426c-0.623,0-1.328,0.192-2.115,0.581l-0.354-0.87c0.369-0.197,0.773-0.354,1.213-0.466
	c0.44-0.11,0.886-0.168,1.323-0.168c0.896,0,1.554,0.197,1.983,0.595c0.431,0.396,0.646,1.032,0.646,1.907v5.113h-0.841
	l-0.226-1.058h-0.06c-0.373,0.465-0.745,0.778-1.113,0.938c-0.368,0.166-0.835,0.248-1.391,0.248c-0.747,0-1.332-0.188-1.755-0.567
	C188.613,368.32,188.401,367.777,188.401,367.075z M189.604,367.088c0,0.412,0.124,0.727,0.372,0.941
	c0.248,0.214,0.595,0.322,1.04,0.322c0.705,0,1.259-0.193,1.662-0.584c0.397-0.393,0.604-0.938,0.604-1.639v-0.68l-1.133,0.049
	c-0.9,0.031-1.55,0.172-1.948,0.422C189.803,366.174,189.604,366.563,189.604,367.088z"/>
<path fill="#666666" d="M195.758,362.527v-0.547l1.073-0.474l0.479-1.6h0.651v1.731h2.179v0.881h-2.179v4.422
	c0,0.451,0.107,0.802,0.321,1.039c0.214,0.242,0.508,0.363,0.882,0.363c0.2,0,0.396-0.015,0.581-0.043
	c0.188-0.031,0.335-0.062,0.444-0.095v0.856c-0.123,0.06-0.306,0.104-0.543,0.146c-0.24,0.037-0.455,0.058-0.646,0.058
	c-1.444,0-2.174-0.765-2.174-2.291v-4.457h-1.073L195.758,362.527L195.758,362.527z"/>
<path fill="#666666" d="M201.13,367.075c0-1.511,1.212-2.302,3.64-2.373l1.271-0.041v-0.472c0-0.596-0.126-1.032-0.379-1.317
	c-0.252-0.283-0.656-0.426-1.211-0.426c-0.623,0-1.328,0.192-2.115,0.581l-0.353-0.87c0.369-0.197,0.771-0.354,1.213-0.466
	c0.438-0.11,0.881-0.168,1.323-0.168c0.893,0,1.554,0.197,1.979,0.595c0.436,0.396,0.646,1.032,0.646,1.907v5.113H206.3
	l-0.228-1.058h-0.055c-0.373,0.465-0.745,0.778-1.115,0.938c-0.371,0.166-0.834,0.248-1.389,0.248c-0.747,0-1.332-0.188-1.758-0.567
	C201.342,368.32,201.13,367.777,201.13,367.075z M202.333,367.088c0,0.412,0.124,0.727,0.372,0.941
	c0.248,0.214,0.595,0.322,1.04,0.322c0.705,0,1.259-0.193,1.662-0.584c0.402-0.393,0.604-0.938,0.604-1.639v-0.68l-1.138,0.049
	c-0.896,0.031-1.55,0.172-1.943,0.422C202.532,366.174,202.333,366.563,202.333,367.088z"/>
<path fill="#666666" d="M209.477,369.139v-10.637h1.135v10.637H209.477z"/>
<path fill="#666666" d="M216.238,365.439c0-1.254,0.3-2.224,0.899-2.903c0.599-0.685,1.457-1.024,2.568-1.024
	c0.36,0,0.725,0.038,1.08,0.114c0.36,0.078,0.646,0.17,0.853,0.272l-0.354,0.966c-0.251-0.103-0.521-0.185-0.815-0.25
	c-0.301-0.066-0.563-0.101-0.786-0.101c-1.522,0-2.283,0.971-2.283,2.909c0,0.923,0.186,1.627,0.558,2.119
	c0.371,0.492,0.921,0.737,1.65,0.737c0.624,0,1.265-0.137,1.921-0.401v1.004c-0.501,0.263-1.133,0.394-1.894,0.394
	c-1.09,0-1.927-0.334-2.517-1.002C216.528,367.605,216.238,366.663,216.238,365.439z"/>
<path fill="#666666" d="M222.759,367.075c0-1.511,1.217-2.302,3.64-2.373l1.271-0.041v-0.472c0-0.596-0.126-1.032-0.379-1.317
	c-0.252-0.283-0.656-0.426-1.211-0.426c-0.623,0-1.328,0.192-2.115,0.581l-0.353-0.87c0.369-0.197,0.771-0.354,1.213-0.466
	c0.441-0.11,0.881-0.168,1.323-0.168c0.893,0,1.554,0.197,1.979,0.595c0.436,0.396,0.646,1.032,0.646,1.907v5.113h-0.841
	l-0.229-1.058h-0.055c-0.373,0.465-0.745,0.778-1.115,0.938c-0.371,0.166-0.834,0.248-1.389,0.248c-0.747,0-1.332-0.188-1.755-0.567
	C222.97,368.32,222.759,367.777,222.759,367.075z M223.962,367.088c0,0.412,0.124,0.727,0.372,0.941
	c0.248,0.214,0.6,0.322,1.04,0.322c0.705,0,1.259-0.193,1.662-0.584c0.402-0.393,0.604-0.938,0.604-1.639v-0.68l-1.138,0.049
	c-0.896,0.031-1.55,0.172-1.943,0.422C224.161,366.174,223.962,366.563,223.962,367.088z"/>
<path fill="#666666" d="M230.628,363.486c0-0.608,0.248-1.094,0.744-1.446c0.496-0.352,1.177-0.528,2.042-0.528
	c0.802,0,1.585,0.163,2.354,0.491l-0.396,0.925c-0.75-0.313-1.429-0.468-2.037-0.468c-0.539,0-0.94,0.086-1.22,0.254
	c-0.275,0.17-0.411,0.402-0.411,0.699c0,0.2,0.052,0.373,0.154,0.515c0.102,0.143,0.269,0.276,0.496,0.403
	c0.229,0.129,0.667,0.313,1.313,0.556c0.894,0.323,1.486,0.651,1.792,0.979c0.312,0.327,0.46,0.741,0.46,1.239
	c0,0.69-0.259,1.229-0.771,1.604c-0.521,0.375-1.241,0.563-2.175,0.563c-0.992,0-1.771-0.151-2.32-0.465v-1.047
	c0.354,0.182,0.745,0.325,1.156,0.432c0.409,0.105,0.81,0.156,1.188,0.156c0.594,0,1.05-0.095,1.37-0.283
	c0.319-0.188,0.479-0.479,0.479-0.862c0-0.293-0.127-0.543-0.385-0.75c-0.254-0.209-0.748-0.453-1.479-0.736
	c-0.699-0.262-1.194-0.485-1.487-0.684c-0.292-0.193-0.51-0.414-0.651-0.66C230.699,364.125,230.628,363.831,230.628,363.486z"/>
<path fill="#666666" d="M237.367,365.454c0-1.207,0.297-2.166,0.89-2.877c0.598-0.711,1.394-1.066,2.394-1.066
	c0.936,0,1.676,0.31,2.221,0.927s0.817,1.437,0.817,2.442v0.72h-5.154c0.021,0.879,0.245,1.547,0.668,2.002
	c0.422,0.457,1.018,0.688,1.783,0.688c0.805,0,1.6-0.168,2.386-0.511v1.017c-0.397,0.174-0.778,0.297-1.135,0.373
	c-0.357,0.074-0.787,0.108-1.292,0.108c-1.104,0-1.979-0.338-2.614-1.012C237.686,367.59,237.367,366.652,237.367,365.454z
	 M238.556,364.674h3.924c0-0.715-0.16-1.264-0.479-1.645c-0.314-0.379-0.771-0.57-1.369-0.57c-0.603,0-1.083,0.195-1.438,0.588
	C238.832,363.439,238.62,363.98,238.556,364.674z"/>
<path fill="#666666" d="M245.161,363.486c0-0.608,0.248-1.094,0.744-1.446c0.496-0.352,1.177-0.528,2.042-0.528
	c0.802,0,1.585,0.163,2.351,0.491l-0.396,0.925c-0.75-0.313-1.429-0.468-2.037-0.468c-0.539,0-0.945,0.086-1.22,0.254
	c-0.275,0.17-0.411,0.402-0.411,0.699c0,0.2,0.052,0.373,0.154,0.515c0.102,0.143,0.269,0.276,0.491,0.403
	c0.229,0.129,0.668,0.313,1.315,0.556c0.889,0.323,1.486,0.651,1.792,0.979c0.307,0.327,0.46,0.741,0.46,1.239
	c0,0.69-0.259,1.229-0.771,1.604c-0.521,0.375-1.241,0.563-2.18,0.563c-0.987,0-1.766-0.151-2.315-0.465v-1.047
	c0.354,0.182,0.745,0.325,1.151,0.432c0.412,0.104,0.813,0.156,1.191,0.156c0.594,0,1.05-0.095,1.37-0.283
	c0.314-0.188,0.479-0.479,0.479-0.862c0-0.293-0.127-0.543-0.38-0.75c-0.254-0.209-0.748-0.453-1.479-0.736
	c-0.699-0.262-1.194-0.485-1.487-0.684c-0.292-0.193-0.51-0.414-0.653-0.66C245.232,364.125,245.161,363.831,245.161,363.486z"/>
<rect x="291.081" y="354.02" fill="#449FA2" width="17.808" height="17.809"/>
<path fill="#666666" d="M316.556,364.208c0-1.028,0.188-1.933,0.572-2.705c0.381-0.774,0.934-1.371,1.655-1.791
	c0.729-0.418,1.582-0.629,2.566-0.629c1.049,0,1.965,0.19,2.748,0.574l-0.492,0.998c-0.756-0.355-1.512-0.533-2.27-0.533
	c-1.103,0-1.969,0.364-2.604,1.099c-0.637,0.729-0.955,1.729-0.955,3.002c0,1.31,0.312,2.315,0.92,3.028
	c0.613,0.711,1.486,1.067,2.621,1.067c0.697,0,1.492-0.125,2.392-0.377v1.021c-0.693,0.265-1.551,0.396-2.564,0.396
	c-1.471,0-2.604-0.446-3.4-1.342C316.954,367.124,316.556,365.854,316.556,364.208z"/>
<path fill="#666666" d="M325.321,365.461c0-1.219,0.31-2.17,0.913-2.85c0.609-0.68,1.454-1.021,2.535-1.021
	c1.046,0,1.876,0.35,2.491,1.043c0.616,0.697,0.924,1.641,0.924,2.826c0,1.225-0.307,2.18-0.92,2.865s-1.461,1.027-2.542,1.027
	c-0.669,0-1.262-0.156-1.779-0.475c-0.518-0.313-0.918-0.77-1.199-1.354C325.466,366.939,325.321,366.25,325.321,365.461z
	 M326.483,365.461c0,0.959,0.191,1.689,0.575,2.191c0.383,0.504,0.947,0.754,1.688,0.754c0.743,0,1.313-0.25,1.694-0.75
	s0.578-1.232,0.578-2.195c0-0.955-0.193-1.68-0.578-2.176c-0.386-0.496-0.955-0.744-1.708-0.744c-0.744,0-1.306,0.244-1.685,0.734
	C326.677,363.764,326.483,364.493,326.483,365.461z"/>
<path fill="#666666" d="M333.719,363.568c0-0.608,0.248-1.094,0.739-1.446c0.496-0.354,1.182-0.529,2.046-0.529
	c0.803,0,1.585,0.164,2.352,0.492l-0.396,0.924c-0.75-0.311-1.43-0.467-2.033-0.467c-0.539,0-0.945,0.086-1.225,0.254
	c-0.271,0.17-0.411,0.402-0.411,0.699c0,0.2,0.057,0.373,0.154,0.514c0.104,0.144,0.271,0.277,0.496,0.404
	c0.229,0.129,0.667,0.313,1.315,0.555c0.889,0.324,1.481,0.652,1.792,0.98c0.307,0.327,0.46,0.741,0.46,1.239
	c0,0.69-0.264,1.229-0.775,1.604c-0.517,0.375-1.241,0.563-2.175,0.563c-0.992,0-1.771-0.151-2.32-0.465v-1.048
	c0.359,0.183,0.745,0.326,1.156,0.433c0.412,0.104,0.81,0.156,1.188,0.156c0.599,0,1.055-0.095,1.37-0.283
	c0.319-0.188,0.479-0.479,0.479-0.862c0-0.293-0.127-0.543-0.38-0.75c-0.254-0.209-0.748-0.453-1.483-0.736
	c-0.699-0.262-1.194-0.485-1.487-0.684c-0.292-0.193-0.51-0.414-0.648-0.66C333.786,364.208,333.719,363.913,333.719,363.568z"/>
<path fill="#666666" d="M339.885,362.609v-0.547l1.068-0.474l0.479-1.6h0.656v1.731h2.174v0.881h-2.174v4.42
	c0,0.453,0.104,0.804,0.316,1.041c0.214,0.242,0.513,0.363,0.886,0.363c0.196,0,0.396-0.015,0.577-0.043
	c0.188-0.031,0.335-0.063,0.444-0.095v0.856c-0.123,0.06-0.305,0.104-0.543,0.146c-0.24,0.037-0.455,0.058-0.646,0.058
	c-1.448,0-2.178-0.765-2.178-2.291V362.6h-1.068v0.004h0.004v0.004h0.004v0.001H339.885z"/>
<path fill="#666666" d="M348.446,362.609v-0.512l1.34-0.41v-0.416c0-1.834,0.81-2.75,2.413-2.75c0.396,0,0.861,0.078,1.396,0.233
	l-0.294,0.897c-0.438-0.145-0.813-0.215-1.121-0.215c-0.429,0-0.745,0.146-0.95,0.431c-0.205,0.285-0.308,0.737-0.308,1.371v0.481
	h1.902v0.881h-1.902v6.61h-1.14v-6.61h-1.34L348.446,362.609L348.446,362.609z"/>
<path fill="#666666" d="M353.635,367.157c0-1.511,1.212-2.302,3.635-2.373l1.273-0.041v-0.472c0-0.599-0.126-1.032-0.384-1.317
	c-0.252-0.283-0.651-0.427-1.211-0.427c-0.623,0-1.328,0.193-2.11,0.582l-0.354-0.87c0.369-0.197,0.773-0.354,1.213-0.466
	c0.44-0.11,0.881-0.168,1.323-0.168c0.893,0,1.554,0.197,1.983,0.595c0.431,0.396,0.646,1.032,0.646,1.907v5.113h-0.841
	l-0.229-1.058h-0.056c-0.373,0.465-0.745,0.774-1.115,0.938c-0.366,0.166-0.834,0.248-1.389,0.248c-0.747,0-1.332-0.188-1.755-0.567
	C353.846,368.402,353.635,367.859,353.635,367.157z M354.842,367.17c0,0.412,0.124,0.727,0.372,0.941
	c0.248,0.214,0.595,0.322,1.035,0.322c0.705,0,1.264-0.193,1.662-0.584c0.402-0.393,0.604-0.938,0.604-1.639v-0.68l-1.133,0.049
	c-0.9,0.029-1.553,0.172-1.948,0.422C355.036,366.254,354.842,366.645,354.842,367.17z"/>
<path fill="#666666" d="M360.99,362.609v-0.547l1.073-0.474l0.479-1.6h0.656v1.731h2.174v0.881h-2.174v4.42
	c0,0.453,0.107,0.804,0.321,1.041c0.214,0.242,0.508,0.363,0.882,0.363c0.2,0,0.396-0.015,0.581-0.043
	c0.188-0.031,0.335-0.063,0.444-0.095v0.856c-0.123,0.06-0.31,0.104-0.543,0.146c-0.24,0.037-0.455,0.058-0.646,0.058
	c-1.449,0-2.174-0.765-2.174-2.291V362.6h-1.073V362.609z"/>
<path fill="#666666" d="M366.363,367.157c0-1.511,1.212-2.302,3.635-2.373l1.273-0.041v-0.472c0-0.599-0.126-1.032-0.379-1.317
	c-0.252-0.283-0.656-0.427-1.211-0.427c-0.623,0-1.328,0.193-2.115,0.582l-0.353-0.87c0.369-0.197,0.771-0.354,1.213-0.466
	c0.438-0.11,0.881-0.168,1.323-0.168c0.893,0,1.554,0.197,1.979,0.595c0.431,0.396,0.646,1.032,0.646,1.907v5.113h-0.846
	l-0.226-1.058h-0.055c-0.373,0.465-0.745,0.774-1.115,0.938c-0.371,0.166-0.834,0.248-1.391,0.248c-0.746,0-1.331-0.188-1.758-0.567
	C366.574,368.402,366.363,367.859,366.363,367.157z M367.566,367.17c0,0.412,0.124,0.727,0.372,0.941
	c0.248,0.214,0.595,0.322,1.04,0.322c0.705,0,1.259-0.193,1.662-0.584c0.402-0.393,0.604-0.938,0.604-1.639v-0.68l-1.133,0.049
	c-0.896,0.029-1.55,0.172-1.948,0.422C367.765,366.256,367.566,366.645,367.566,367.17z"/>
<path fill="#666666" d="M374.715,369.221v-10.637h1.135v10.637H374.715z"/>
<path fill="#666666" d="M381.471,365.521c0-1.254,0.3-2.224,0.896-2.903c0.604-0.685,1.457-1.025,2.573-1.025
	c0.36,0,0.72,0.039,1.08,0.115c0.36,0.078,0.643,0.17,0.848,0.272l-0.349,0.965c-0.251-0.104-0.524-0.187-0.82-0.25
	c-0.296-0.065-0.559-0.103-0.786-0.103c-1.521,0-2.278,0.974-2.278,2.912c0,0.92,0.186,1.627,0.558,2.119
	c0.371,0.492,0.921,0.735,1.65,0.735c0.624,0,1.265-0.135,1.921-0.399v1.004c-0.501,0.263-1.133,0.394-1.896,0.394
	c-1.085,0-1.922-0.334-2.512-1.002C381.766,367.687,381.471,366.745,381.471,365.521z"/>
<path fill="#666666" d="M387.991,367.157c0-1.511,1.212-2.302,3.64-2.373l1.271-0.041v-0.472c0-0.599-0.127-1.032-0.379-1.317
	c-0.252-0.283-0.656-0.427-1.211-0.427c-0.623,0-1.329,0.193-2.116,0.582l-0.353-0.87c0.369-0.197,0.771-0.354,1.213-0.466
	c0.438-0.11,0.88-0.168,1.324-0.168c0.893,0,1.553,0.197,1.979,0.595c0.437,0.396,0.646,1.032,0.646,1.907v5.113h-0.847
	l-0.225-1.058h-0.055c-0.373,0.465-0.746,0.774-1.115,0.938c-0.371,0.166-0.834,0.248-1.391,0.248c-0.746,0-1.331-0.188-1.758-0.567
	C388.203,368.402,387.991,367.859,387.991,367.157z M389.195,367.17c0,0.412,0.124,0.727,0.372,0.941
	c0.248,0.214,0.595,0.322,1.041,0.322c0.705,0,1.258-0.193,1.662-0.584c0.402-0.393,0.604-0.938,0.604-1.639v-0.68l-1.133,0.049
	c-0.896,0.029-1.55,0.172-1.949,0.422C389.394,366.256,389.195,366.645,389.195,367.17z"/>
<path fill="#666666" d="M395.861,363.568c0-0.608,0.248-1.094,0.744-1.446c0.496-0.352,1.176-0.529,2.041-0.529
	c0.803,0,1.586,0.164,2.352,0.492l-0.396,0.924c-0.75-0.311-1.428-0.467-2.037-0.467c-0.539,0-0.945,0.086-1.219,0.254
	c-0.275,0.17-0.412,0.402-0.412,0.699c0,0.2,0.053,0.373,0.154,0.514c0.104,0.144,0.27,0.277,0.496,0.404
	c0.229,0.129,0.668,0.313,1.313,0.555c0.889,0.324,1.486,0.652,1.791,0.98c0.307,0.327,0.461,0.741,0.461,1.239
	c0,0.69-0.26,1.229-0.771,1.604c-0.521,0.375-1.242,0.563-2.181,0.563c-0.99,0-1.766-0.151-2.315-0.465v-1.048
	c0.354,0.183,0.746,0.326,1.151,0.433c0.412,0.104,0.813,0.156,1.191,0.156c0.594,0,1.051-0.095,1.371-0.283
	c0.313-0.188,0.479-0.479,0.479-0.862c0-0.293-0.127-0.543-0.379-0.75c-0.254-0.209-0.748-0.453-1.479-0.736
	c-0.699-0.262-1.193-0.485-1.486-0.684c-0.293-0.199-0.51-0.414-0.654-0.66C395.932,364.209,395.861,363.913,395.861,363.568z"/>
<path fill="#666666" d="M402.599,365.536c0-1.207,0.297-2.166,0.891-2.877c0.592-0.711,1.394-1.066,2.394-1.066
	c0.936,0,1.676,0.31,2.221,0.927c0.545,0.616,0.816,1.437,0.816,2.442v0.72h-5.154c0.021,0.879,0.246,1.547,0.668,2.002
	c0.422,0.457,1.018,0.688,1.783,0.688c0.805,0,1.6-0.168,2.387-0.511v1.017c-0.4,0.174-0.779,0.297-1.135,0.373
	c-0.357,0.074-0.787,0.108-1.293,0.108c-1.105,0-1.979-0.338-2.613-1.012C402.925,367.672,402.599,366.734,402.599,365.536z
	 M403.789,364.756h3.929c0-0.715-0.16-1.264-0.48-1.645c-0.32-0.379-0.775-0.57-1.369-0.57c-0.604,0-1.084,0.195-1.438,0.588
	C404.064,363.521,403.853,364.063,403.789,364.756z"/>
<path fill="#666666" d="M410.393,363.568c0-0.608,0.248-1.094,0.744-1.446c0.496-0.352,1.176-0.529,2.041-0.529
	c0.803,0,1.586,0.164,2.352,0.492l-0.396,0.924c-0.749-0.311-1.433-0.467-2.036-0.467c-0.539,0-0.945,0.086-1.219,0.254
	c-0.275,0.17-0.412,0.402-0.412,0.699c0,0.2,0.053,0.373,0.148,0.514c0.105,0.144,0.271,0.277,0.496,0.404
	c0.23,0.129,0.668,0.313,1.316,0.555c0.889,0.324,1.482,0.652,1.791,0.98c0.307,0.327,0.461,0.741,0.461,1.239
	c0,0.69-0.26,1.229-0.775,1.604c-0.518,0.375-1.236,0.563-2.176,0.563c-0.992,0-1.766-0.151-2.32-0.465v-1.048
	c0.359,0.183,0.746,0.326,1.156,0.433c0.412,0.104,0.813,0.156,1.191,0.156c0.594,0,1.051-0.095,1.371-0.283
	c0.314-0.188,0.479-0.479,0.479-0.862c0-0.293-0.127-0.543-0.379-0.75c-0.254-0.209-0.748-0.453-1.484-0.736
	c-0.693-0.262-1.188-0.485-1.48-0.684c-0.292-0.199-0.51-0.414-0.654-0.66C410.469,364.208,410.393,363.913,410.393,363.568z"/>
<circle id="more3" fill="none" stroke="#67ABAD" stroke-miterlimit="10" cx="493.702" cy="13.898" r="7.626"/>
<rect id="more1" x="498.549" y="20.387" transform="matrix(-0.7814 -0.624 0.624 -0.7814 882.8548 351.3297)" fill="#67ABAD" width="8.828" height="1.292"/>
<g>
	<path fill="#9A999E" d="M293.661,79.436v-1.411c0.41,0.263,0.92,0.469,1.529,0.618s1.211,0.223,1.803,0.223
		c1.031,0,1.832-0.242,2.404-0.727c0.57-0.485,0.855-1.186,0.855-2.103c0-1.788-1.1-2.681-3.299-2.681
		c-0.557,0-1.301,0.085-2.234,0.254l-0.756-0.483l0.488-6.011h6.391v1.336h-5.145l-0.326,3.867c0.674-0.123,1.346-0.184,2.014-0.184
		c1.354,0,2.42,0.333,3.197,1c0.775,0.667,1.164,1.579,1.164,2.737c0,1.333-0.424,2.377-1.27,3.135
		c-0.848,0.757-2.014,1.136-3.502,1.136C295.528,80.14,294.423,79.905,293.661,79.436z"/>
	<path fill="#9A999E" d="M303.663,79.964v-1.241l3.385-3.415c1.031-1.047,1.711-1.794,2.039-2.241s0.574-0.882,0.738-1.306
		c0.164-0.423,0.246-0.879,0.246-1.368c0-0.688-0.209-1.234-0.625-1.637s-0.992-0.604-1.73-0.604c-0.533,0-1.039,0.088-1.518,0.265
		c-0.477,0.177-1.008,0.498-1.594,0.962l-0.773-0.997c1.184-0.967,2.473-1.451,3.867-1.451c1.207,0,2.152,0.308,2.838,0.922
		c0.686,0.615,1.029,1.442,1.029,2.479c0,0.818-0.229,1.627-0.686,2.427s-1.313,1.812-2.566,3.036l-2.813,2.762v0.071h6.609v1.336
		C312.109,79.964,303.663,79.964,303.663,79.964z"/>
	<path fill="#9A999E" d="M313.991,76.686c0-1.471,0.9-2.616,2.705-3.437c-0.818-0.457-1.404-0.951-1.76-1.481
		s-0.533-1.124-0.533-1.78c0-0.932,0.348-1.674,1.039-2.228c0.693-0.554,1.619-0.831,2.781-0.831c1.176,0,2.107,0.272,2.795,0.817
		s1.031,1.298,1.031,2.259c0,0.633-0.197,1.21-0.592,1.731s-1.025,0.996-1.893,1.424c1.049,0.498,1.793,1.021,2.234,1.569
		c0.443,0.548,0.664,1.182,0.664,1.903c0,1.066-0.373,1.917-1.121,2.553c-0.746,0.636-1.768,0.954-3.068,0.954
		c-1.375,0-2.432-0.3-3.174-0.901C314.36,78.638,313.991,77.787,313.991,76.686z M315.45,76.721c0,0.703,0.244,1.251,0.732,1.644
		s1.174,0.589,2.059,0.589c0.871,0,1.549-0.205,2.035-0.615c0.484-0.41,0.729-0.973,0.729-1.688c0-0.568-0.229-1.074-0.686-1.516
		c-0.455-0.442-1.252-0.872-2.387-1.288c-0.871,0.375-1.504,0.79-1.895,1.244C315.645,75.544,315.45,76.088,315.45,76.721z
		 M315.862,70.05c0,0.539,0.174,1.002,0.518,1.389c0.346,0.387,0.982,0.773,1.912,1.16c0.838-0.352,1.43-0.729,1.777-1.134
		s0.521-0.876,0.521-1.415c0-0.592-0.211-1.062-0.635-1.411c-0.426-0.349-1.008-0.523-1.75-0.523c-0.732,0-1.305,0.176-1.721,0.527
		S315.862,69.464,315.862,70.05z"/>
</g>
<g>
	<path fill="#9A999E" d="M18.284,79.964v-1.241l3.384-3.415c1.031-1.047,1.711-1.794,2.039-2.241s0.574-0.882,0.738-1.306
		c0.164-0.423,0.246-0.879,0.246-1.368c0-0.688-0.208-1.234-0.624-1.637s-0.993-0.604-1.731-0.604c-0.533,0-1.039,0.088-1.516,0.265
		c-0.478,0.177-1.009,0.498-1.595,0.962l-0.773-0.997c1.184-0.967,2.473-1.451,3.867-1.451c1.207,0,2.153,0.308,2.839,0.922
		c0.686,0.615,1.028,1.442,1.028,2.479c0,0.818-0.229,1.627-0.686,2.427s-1.313,1.812-2.566,3.036l-2.813,2.762v0.071h6.609v1.336
		C26.73,79.964,18.284,79.964,18.284,79.964z"/>
	<path fill="#9A999E" d="M28.251,82.284c0.158-0.609,0.332-1.362,0.522-2.259s0.324-1.614,0.4-2.153h1.592l0.131,0.202
		c-0.151,0.586-0.37,1.267-0.655,2.043c-0.286,0.776-0.583,1.499-0.893,2.167H28.251z"/>
	<path fill="#9A999E" d="M33.041,71.242c0-1.332,0.375-2.384,1.124-3.155c0.75-0.771,1.736-1.157,2.959-1.157
		c0.875,0,1.641,0.224,2.296,0.672c0.655,0.447,1.159,1.1,1.512,1.958s0.529,1.869,0.529,3.033c0,5.032-1.949,7.547-5.847,7.547
		c-0.682,0-1.222-0.059-1.621-0.176V78.69c0.47,0.176,1.004,0.264,1.604,0.264c1.404,0,2.465-0.437,3.181-1.31
		c0.717-0.873,1.107-2.212,1.172-4.018h-0.105c-0.321,0.493-0.749,0.868-1.281,1.126s-1.132,0.387-1.799,0.387
		c-1.141,0-2.047-0.342-2.717-1.027C33.376,73.426,33.041,72.47,33.041,71.242z M34.5,71.224c0,0.848,0.211,1.514,0.632,2
		s1.062,0.729,1.922,0.729c0.532,0,1.022-0.109,1.47-0.327s0.8-0.515,1.058-0.892c0.257-0.377,0.386-0.771,0.386-1.183
		c0-0.618-0.12-1.189-0.359-1.713c-0.24-0.524-0.575-0.936-1.005-1.236c-0.431-0.3-0.923-0.45-1.479-0.45
		c-0.837,0-1.483,0.271-1.939,0.813S34.5,70.259,34.5,71.224z"/>
	<path fill="#9A999E" d="M43.43,74.475c0-2.526,0.49-4.416,1.472-5.667c0.981-1.251,2.434-1.877,4.355-1.877
		c0.664,0,1.188,0.056,1.57,0.167v1.274c-0.453-0.17-0.971-0.255-1.553-0.255c-1.377,0-2.429,0.431-3.155,1.292
		c-0.727,0.862-1.125,2.215-1.195,4.062h0.105c0.645-0.997,1.664-1.495,3.059-1.495c1.159,0,2.073,0.348,2.742,1.043
		c0.668,0.695,1.002,1.64,1.002,2.832c0,1.333-0.366,2.382-1.099,3.145C50,79.758,49.01,80.14,47.763,80.14
		c-1.33,0-2.385-0.499-3.164-1.498C43.82,77.644,43.43,76.255,43.43,74.475z M44.924,75.524c0,0.605,0.117,1.169,0.352,1.693
		c0.234,0.523,0.567,0.937,0.997,1.243c0.432,0.306,0.922,0.458,1.473,0.458c0.832,0,1.478-0.263,1.938-0.789s0.69-1.286,0.69-2.279
		c0-0.852-0.214-1.522-0.642-2.01c-0.428-0.487-1.066-0.731-1.916-0.731c-0.527,0-1.011,0.109-1.45,0.326s-0.79,0.517-1.05,0.899
		C45.054,74.716,44.924,75.113,44.924,75.524z"/>
	<path fill="#9A999E" d="M53.722,74.475c0-2.526,0.49-4.416,1.472-5.667c0.981-1.251,2.434-1.877,4.355-1.877
		c0.664,0,1.188,0.056,1.57,0.167v1.274c-0.453-0.17-0.971-0.255-1.553-0.255c-1.377,0-2.429,0.431-3.155,1.292
		c-0.727,0.862-1.125,2.215-1.195,4.062h0.105c0.645-0.997,1.664-1.495,3.059-1.495c1.159,0,2.073,0.348,2.742,1.043
		c0.668,0.695,1.002,1.64,1.002,2.832c0,1.333-0.366,2.382-1.099,3.145c-0.733,0.763-1.724,1.145-2.971,1.145
		c-1.33,0-2.385-0.499-3.164-1.498C54.112,77.644,53.722,76.255,53.722,74.475z M55.216,75.524c0,0.605,0.117,1.169,0.352,1.693
		c0.234,0.523,0.567,0.937,0.997,1.243c0.432,0.306,0.922,0.458,1.473,0.458c0.832,0,1.478-0.263,1.938-0.789s0.69-1.286,0.69-2.279
		c0-0.852-0.214-1.522-0.642-2.01c-0.428-0.487-1.066-0.731-1.916-0.731c-0.527,0-1.011,0.109-1.45,0.326s-0.79,0.517-1.05,0.899
		C55.346,74.716,55.216,75.113,55.216,75.524z"/>
</g>
<g>
	<path fill="#FFFFFF" d="M414.434,144.775h-10.258v-2.158l3.684-3.724c1.092-1.118,1.803-1.892,2.139-2.324
		c0.334-0.432,0.574-0.831,0.723-1.199c0.146-0.368,0.221-0.75,0.221-1.145c0-0.588-0.162-1.027-0.486-1.315
		c-0.326-0.288-0.758-0.432-1.301-0.432c-0.568,0-1.121,0.131-1.656,0.392s-1.094,0.632-1.676,1.114l-1.686-1.998
		c0.723-0.615,1.32-1.05,1.795-1.305c0.477-0.254,0.994-0.45,1.557-0.587c0.563-0.137,1.191-0.206,1.887-0.206
		c0.918,0,1.727,0.167,2.43,0.502s1.248,0.803,1.637,1.405c0.387,0.602,0.582,1.292,0.582,2.067c0,0.676-0.119,1.31-0.357,1.902
		c-0.236,0.592-0.605,1.199-1.104,1.822c-0.498,0.622-1.377,1.509-2.635,2.66l-1.887,1.777v0.14h6.393v2.612H414.434z"/>
	<path fill="#FFFFFF" d="M420.969,129.91c1.404,0,2.537,0.32,3.396,0.958c0.861,0.639,1.291,1.5,1.291,2.584
		c0,0.75-0.209,1.417-0.623,2.002c-0.414,0.586-1.084,1.109-2.008,1.571c1.098,0.589,1.887,1.203,2.365,1.842
		c0.477,0.639,0.717,1.34,0.717,2.103c0,1.205-0.473,2.173-1.416,2.906s-2.184,1.099-3.723,1.099c-1.605,0-2.867-0.341-3.785-1.024
		c-0.916-0.682-1.375-1.649-1.375-2.9c0-0.836,0.223-1.58,0.668-2.229s1.16-1.221,2.143-1.716c-0.836-0.528-1.438-1.094-1.807-1.696
		c-0.367-0.602-0.551-1.261-0.551-1.978c0-1.05,0.434-1.9,1.305-2.549C418.436,130.235,419.571,129.91,420.969,129.91z
		 M418.68,140.871c0,0.575,0.201,1.023,0.602,1.345c0.402,0.321,0.951,0.482,1.646,0.482c0.77,0,1.346-0.166,1.727-0.497
		c0.381-0.331,0.572-0.768,0.572-1.31c0-0.448-0.189-0.868-0.566-1.26c-0.379-0.392-0.992-0.808-1.842-1.25
		C419.393,139.038,418.68,139.867,418.68,140.871z M420.948,132.179c-0.527,0-0.955,0.135-1.279,0.406s-0.486,0.634-0.486,1.089
		c0,0.401,0.129,0.761,0.387,1.079s0.725,0.645,1.4,0.979c0.654-0.308,1.113-0.623,1.375-0.944c0.26-0.321,0.391-0.692,0.391-1.114
		c0-0.462-0.166-0.827-0.502-1.094C421.899,132.313,421.471,132.179,420.948,132.179z"/>
	<path fill="#FFFFFF" d="M437.841,136.364c0,2.891-0.607,5.049-1.826,6.474c-1.217,1.425-3.061,2.138-5.529,2.138
		c-0.871,0-1.529-0.047-1.979-0.141v-2.489c0.563,0.141,1.15,0.211,1.768,0.211c1.037,0,1.889-0.152,2.559-0.457
		c0.67-0.305,1.182-0.783,1.535-1.436c0.355-0.652,0.559-1.551,0.613-2.695h-0.121c-0.389,0.629-0.836,1.071-1.344,1.325
		c-0.51,0.254-1.145,0.381-1.908,0.381c-1.277,0-2.285-0.41-3.021-1.229s-1.104-1.958-1.104-3.417c0-1.573,0.447-2.815,1.34-3.729
		s2.109-1.37,3.648-1.37c1.084,0,2.033,0.254,2.846,0.763c0.813,0.509,1.438,1.247,1.871,2.213
		C437.624,133.874,437.841,135.026,437.841,136.364z M432.532,132.419c-0.643,0-1.145,0.221-1.506,0.663
		c-0.361,0.441-0.541,1.077-0.541,1.907c0,0.709,0.162,1.271,0.49,1.686s0.826,0.623,1.496,0.623c0.629,0,1.168-0.206,1.615-0.618
		c0.449-0.412,0.674-0.885,0.674-1.42c0-0.796-0.209-1.469-0.627-2.018C433.714,132.694,433.18,132.419,432.532,132.419z"/>
</g>
<g>
	<path fill="#FFFFFF" d="M414.434,261.035h-10.258v-2.158l3.684-3.725c1.092-1.117,1.803-1.892,2.139-2.323
		c0.334-0.432,0.574-0.831,0.723-1.199c0.146-0.368,0.221-0.749,0.221-1.145c0-0.589-0.162-1.026-0.486-1.315
		c-0.326-0.287-0.758-0.432-1.301-0.432c-0.568,0-1.121,0.131-1.656,0.393c-0.535,0.261-1.094,0.632-1.676,1.113l-1.686-1.997
		c0.723-0.615,1.32-1.05,1.795-1.305c0.477-0.255,0.994-0.45,1.557-0.587s1.191-0.206,1.887-0.206c0.918,0,1.727,0.167,2.43,0.502
		s1.248,0.803,1.637,1.405c0.387,0.602,0.582,1.291,0.582,2.067c0,0.677-0.119,1.31-0.357,1.902
		c-0.236,0.592-0.605,1.199-1.104,1.821c-0.498,0.623-1.377,1.51-2.635,2.66l-1.887,1.777v0.14h6.393v2.612H414.434z"/>
	<path fill="#FFFFFF" d="M425.596,249.643c0,0.916-0.277,1.696-0.834,2.338c-0.555,0.643-1.334,1.084-2.338,1.326v0.06
		c1.184,0.147,2.08,0.507,2.689,1.079s0.914,1.344,0.914,2.313c0,1.412-0.512,2.511-1.535,3.298
		c-1.025,0.785-2.486,1.179-4.387,1.179c-1.594,0-3.006-0.265-4.236-0.793v-2.64c0.568,0.287,1.195,0.521,1.877,0.703
		c0.684,0.18,1.359,0.271,2.027,0.271c1.023,0,1.781-0.174,2.27-0.522c0.488-0.348,0.732-0.906,0.732-1.676
		c0-0.689-0.281-1.178-0.844-1.465c-0.563-0.288-1.459-0.432-2.689-0.432h-1.115v-2.379h1.135c1.139,0,1.969-0.149,2.494-0.447
		c0.525-0.297,0.789-0.809,0.789-1.531c0-1.109-0.697-1.666-2.088-1.666c-0.482,0-0.973,0.08-1.471,0.241s-1.053,0.438-1.662,0.833
		l-1.436-2.138c1.34-0.964,2.936-1.445,4.789-1.445c1.518,0,2.719,0.308,3.598,0.923
		C425.157,247.688,425.596,248.545,425.596,249.643z"/>
	<path fill="#FFFFFF" d="M437.841,252.623c0,2.891-0.607,5.049-1.826,6.475c-1.217,1.426-3.061,2.138-5.529,2.138
		c-0.871,0-1.529-0.047-1.979-0.141v-2.489c0.563,0.141,1.15,0.211,1.768,0.211c1.037,0,1.889-0.152,2.559-0.457
		s1.182-0.783,1.535-1.436c0.355-0.652,0.559-1.551,0.613-2.694h-0.121c-0.389,0.629-0.836,1.071-1.344,1.325
		c-0.51,0.254-1.145,0.381-1.908,0.381c-1.277,0-2.285-0.41-3.021-1.229s-1.104-1.958-1.104-3.417c0-1.573,0.447-2.816,1.34-3.729
		s2.109-1.37,3.648-1.37c1.084,0,2.033,0.254,2.846,0.763s1.438,1.247,1.871,2.214C437.624,250.133,437.841,251.285,437.841,252.623
		z M432.532,248.679c-0.643,0-1.145,0.221-1.506,0.663c-0.361,0.441-0.541,1.076-0.541,1.906c0,0.709,0.162,1.271,0.49,1.687
		s0.826,0.622,1.496,0.622c0.629,0,1.168-0.205,1.615-0.617c0.449-0.412,0.674-0.885,0.674-1.42c0-0.797-0.209-1.469-0.627-2.018
		C433.714,248.953,433.18,248.679,432.532,248.679z"/>
</g>
<g>
	<path fill="#FFFFFF" d="M140.868,144.775h-3.102v-8.492l0.03-1.395l0.051-1.526c-0.516,0.516-0.874,0.854-1.074,1.014l-1.687,1.355
		l-1.495-1.867l4.728-3.764h2.549L140.868,144.775L140.868,144.775z"/>
	<path fill="#FFFFFF" d="M148.718,142.617c-0.349,1.352-0.938,2.955-1.767,4.808h-2.208c0.435-1.78,0.772-3.459,1.014-5.039h2.811
		L148.718,142.617z"/>
	<path fill="#FFFFFF" d="M160.581,133.383c0,0.917-0.277,1.696-0.833,2.338c-0.556,0.643-1.335,1.084-2.339,1.325v0.06
		c1.185,0.147,2.081,0.507,2.69,1.079c0.608,0.572,0.913,1.343,0.913,2.313c0,1.412-0.512,2.511-1.535,3.297
		c-1.024,0.786-2.486,1.179-4.387,1.179c-1.593,0-3.005-0.264-4.235-0.793v-2.64c0.568,0.288,1.194,0.522,1.877,0.703
		s1.358,0.271,2.027,0.271c1.023,0,1.78-0.174,2.269-0.522s0.732-0.907,0.732-1.676c0-0.689-0.281-1.178-0.843-1.465
		c-0.563-0.288-1.459-0.432-2.69-0.432h-1.114v-2.379h1.135c1.138,0,1.969-0.149,2.494-0.447c0.525-0.297,0.788-0.808,0.788-1.531
		c0-1.11-0.696-1.666-2.088-1.666c-0.482,0-0.973,0.08-1.471,0.241s-1.053,0.438-1.661,0.833l-1.436-2.138
		c1.339-0.963,2.935-1.445,4.788-1.445c1.519,0,2.719,0.308,3.599,0.923S160.581,132.286,160.581,133.383z"/>
	<path fill="#FFFFFF" d="M172.316,133.383c0,0.917-0.277,1.696-0.833,2.338c-0.556,0.643-1.335,1.084-2.339,1.325v0.06
		c1.185,0.147,2.081,0.507,2.69,1.079c0.608,0.572,0.913,1.343,0.913,2.313c0,1.412-0.512,2.511-1.535,3.297
		c-1.024,0.786-2.486,1.179-4.387,1.179c-1.593,0-3.005-0.264-4.235-0.793v-2.64c0.568,0.288,1.194,0.522,1.877,0.703
		s1.358,0.271,2.027,0.271c1.023,0,1.78-0.174,2.269-0.522s0.732-0.907,0.732-1.676c0-0.689-0.281-1.178-0.843-1.465
		c-0.563-0.288-1.459-0.432-2.69-0.432h-1.114v-2.379h1.135c1.138,0,1.969-0.149,2.494-0.447c0.525-0.297,0.788-0.808,0.788-1.531
		c0-1.11-0.696-1.666-2.088-1.666c-0.482,0-0.973,0.08-1.471,0.241s-1.053,0.438-1.661,0.833l-1.436-2.138
		c1.339-0.963,2.935-1.445,4.788-1.445c1.519,0,2.719,0.308,3.599,0.923S172.316,132.286,172.316,133.383z"/>
	<path fill="#FFFFFF" d="M174.263,138.542c0-2.904,0.614-5.065,1.842-6.484c1.228-1.418,3.066-2.128,5.516-2.128
		c0.836,0,1.492,0.05,1.967,0.15v2.479c-0.595-0.134-1.184-0.201-1.767-0.201c-1.063,0-1.932,0.161-2.604,0.481
		c-0.672,0.321-1.176,0.797-1.511,1.425c-0.334,0.629-0.531,1.522-0.592,2.68h0.131c0.662-1.138,1.723-1.707,3.182-1.707
		c1.312,0,2.339,0.412,3.081,1.235c0.743,0.823,1.114,1.96,1.114,3.413c0,1.566-0.441,2.806-1.325,3.719
		c-0.883,0.914-2.107,1.37-3.673,1.37c-1.084,0-2.029-0.251-2.836-0.753c-0.807-0.501-1.429-1.234-1.867-2.198
		C174.482,141.062,174.263,139.901,174.263,138.542z M179.563,142.497c0.662,0,1.171-0.223,1.525-0.667
		c0.354-0.445,0.532-1.079,0.532-1.902c0-0.716-0.166-1.28-0.497-1.691c-0.331-0.412-0.831-0.618-1.5-0.618
		c-0.63,0-1.166,0.205-1.611,0.612c-0.445,0.408-0.668,0.883-0.668,1.425c0,0.796,0.21,1.469,0.628,2.018
		C178.39,142.223,178.92,142.497,179.563,142.497z"/>
</g>
<g>
	<path fill="#FFFFFF" d="M140.868,261.273h-3.102v-8.492l0.03-1.395l0.051-1.525c-0.516,0.516-0.874,0.854-1.074,1.014l-1.687,1.355
		l-1.495-1.867l4.728-3.764h2.549L140.868,261.273L140.868,261.273z"/>
	<path fill="#FFFFFF" d="M148.718,259.115c-0.349,1.352-0.938,2.955-1.767,4.809h-2.208c0.435-1.781,0.772-3.46,1.014-5.039h2.811
		L148.718,259.115z"/>
	<path fill="#FFFFFF" d="M150.795,255.04c0-2.903,0.614-5.065,1.842-6.483c1.228-1.419,3.066-2.129,5.516-2.129
		c0.836,0,1.492,0.051,1.967,0.15v2.48c-0.595-0.135-1.184-0.201-1.767-0.201c-1.063,0-1.932,0.16-2.604,0.481
		s-1.176,0.797-1.511,1.425c-0.334,0.63-0.531,1.523-0.592,2.681h0.131c0.662-1.138,1.723-1.706,3.182-1.706
		c1.312,0,2.339,0.411,3.081,1.234c0.743,0.823,1.114,1.961,1.114,3.412c0,1.566-0.441,2.807-1.325,3.719
		c-0.883,0.914-2.107,1.371-3.673,1.371c-1.084,0-2.029-0.252-2.836-0.754c-0.807-0.501-1.429-1.234-1.867-2.197
		C151.014,257.56,150.795,256.398,150.795,255.04z M156.095,258.995c0.662,0,1.171-0.223,1.525-0.667
		c0.354-0.445,0.532-1.08,0.532-1.902c0-0.717-0.166-1.28-0.497-1.691c-0.331-0.412-0.831-0.617-1.5-0.617
		c-0.63,0-1.166,0.204-1.611,0.611c-0.445,0.408-0.668,0.884-0.668,1.426c0,0.797,0.21,1.469,0.628,2.018
		S155.452,258.995,156.095,258.995z"/>
	<path fill="#FFFFFF" d="M172.316,249.881c0,0.917-0.277,1.697-0.833,2.339c-0.556,0.643-1.335,1.084-2.339,1.325v0.061
		c1.185,0.146,2.081,0.506,2.69,1.078c0.608,0.572,0.913,1.344,0.913,2.314c0,1.412-0.512,2.511-1.535,3.297
		c-1.024,0.786-2.486,1.18-4.387,1.18c-1.593,0-3.005-0.265-4.235-0.793v-2.641c0.568,0.288,1.194,0.522,1.877,0.703
		c0.683,0.181,1.358,0.271,2.027,0.271c1.023,0,1.78-0.174,2.269-0.522c0.489-0.348,0.732-0.907,0.732-1.677
		c0-0.688-0.281-1.178-0.843-1.465c-0.563-0.287-1.459-0.432-2.69-0.432h-1.114v-2.379h1.135c1.138,0,1.969-0.148,2.494-0.447
		c0.525-0.297,0.788-0.808,0.788-1.53c0-1.11-0.696-1.666-2.088-1.666c-0.482,0-0.973,0.08-1.471,0.241
		c-0.498,0.16-1.053,0.438-1.661,0.833l-1.436-2.138c1.339-0.964,2.935-1.445,4.788-1.445c1.519,0,2.719,0.307,3.599,0.923
		S172.316,248.783,172.316,249.881z"/>
	<path fill="#FFFFFF" d="M184.541,253.936c0,2.563-0.42,4.461-1.26,5.691c-0.84,1.231-2.133,1.848-3.88,1.848
		c-1.692,0-2.969-0.637-3.829-1.908c-0.859-1.271-1.289-3.147-1.289-5.631c0-2.589,0.418-4.498,1.254-5.726
		c0.837-1.228,2.125-1.842,3.864-1.842c1.693,0,2.973,0.642,3.84,1.927C184.108,249.58,184.541,251.461,184.541,253.936z
		 M177.365,253.936c0,1.801,0.155,3.09,0.467,3.87c0.312,0.779,0.835,1.169,1.57,1.169c0.723,0,1.245-0.395,1.566-1.184
		c0.321-0.79,0.481-2.074,0.481-3.855c0-1.799-0.162-3.092-0.486-3.879c-0.325-0.786-0.845-1.18-1.562-1.18
		c-0.729,0-1.251,0.394-1.565,1.18C177.522,250.844,177.365,252.137,177.365,253.936z"/>
</g>
</svg>
