<?xml version="1.0" encoding="utf-8"?>
<!-- Generator: Adobe Illustrator 16.0.0, SVG Export Plug-In . SVG Version: 6.00 Build 0)  -->
<!DOCTYPE svg PUBLIC "-//W3C//DTD SVG 1.1//EN" "http://www.w3.org/Graphics/SVG/1.1/DTD/svg11.dtd">
<svg version="1.1" id="Capa_1" xmlns="http://www.w3.org/2000/svg" xmlns:xlink="http://www.w3.org/1999/xlink" x="0px" y="0px"
	 width="510.236px" height="382.676px" viewBox="0 0 510.236 382.676" enable-background="new 0 0 510.236 382.676"
	 xml:space="preserve">
<g>
	<rect x="110.319" y="199.79" fill="#449FA2" width="100.49" height="122.967"/>
	<rect x="110.319" y="74.726" fill="#F2C466" width="100.49" height="125.062"/>
	<g>
		<path fill="#87868A" d="M48.841,215.43H33.944v-4.207c0-1.979,0.295-3.408,0.885-4.291c0.596-0.887,1.521-1.324,2.804-1.324
			c0.887,0,1.606,0.246,2.188,0.738c0.573,0.49,0.945,1.211,1.115,2.152h0.104c0.396-2.248,1.578-3.373,3.566-3.373
			c1.332,0,2.371,0.449,3.118,1.352c0.748,0.896,1.117,2.15,1.117,3.771L48.841,215.43L48.841,215.43z M40.312,213.698v-2.854
			c0-1.225-0.188-2.104-0.569-2.641c-0.388-0.537-1.021-0.813-1.938-0.813c-0.834,0-1.438,0.299-1.813,0.896
			c-0.364,0.603-0.555,1.553-0.555,2.854v2.547L40.312,213.698L40.312,213.698z M47.364,213.698v-3.107
			c0-1.192-0.229-2.104-0.698-2.715c-0.465-0.604-1.188-0.912-2.188-0.912c-0.924,0-1.604,0.313-2.033,0.938
			c-0.438,0.621-0.652,1.563-0.652,2.839v2.969L47.364,213.698L47.364,213.698z"/>
		<path fill="#87868A" d="M34.647,202.305c-0.392,0-0.671-0.088-0.854-0.266c-0.185-0.184-0.271-0.396-0.271-0.656
			c0-0.295,0.092-0.547,0.271-0.76c0.188-0.211,0.466-0.314,0.851-0.314s0.664,0.104,0.854,0.314c0.188,0.213,0.28,0.465,0.28,0.76
			c0,0.266-0.103,0.479-0.28,0.656C35.311,202.217,35.027,202.305,34.647,202.305z M48.841,202.163H37.673v-1.55h11.168V202.163z"/>
		<path fill="#87868A" d="M48.841,196.883H32.986v-1.689H48.84L48.841,196.883L48.841,196.883z"/>
		<path fill="#87868A" d="M48.841,191.605H32.986v-1.69H48.84L48.841,191.605L48.841,191.605z"/>
		<path fill="#87868A" d="M34.647,186.47c-0.392,0-0.671-0.09-0.854-0.266c-0.185-0.183-0.271-0.396-0.271-0.656
			c0-0.293,0.092-0.547,0.271-0.758c0.188-0.213,0.466-0.317,0.851-0.317s0.664,0.104,0.854,0.317
			c0.188,0.211,0.28,0.465,0.28,0.758c0,0.264-0.103,0.479-0.28,0.656C35.311,186.38,35.027,186.47,34.647,186.47z M48.841,186.329
			H37.673v-1.551h11.168V186.329z"/>
		<path fill="#87868A" d="M43.237,181.669c-1.813,0-3.229-0.455-4.247-1.36c-1.019-0.908-1.521-2.168-1.521-3.78
			c0-1.558,0.521-2.795,1.563-3.713c1.032-0.918,2.438-1.377,4.211-1.377c1.819,0,3.248,0.457,4.271,1.372
			c1.021,0.914,1.532,2.178,1.532,3.789c0,0.996-0.23,1.88-0.7,2.651c-0.479,0.771-1.146,1.367-2.021,1.787
			S44.413,181.669,43.237,181.669z M43.237,179.938c1.43,0,2.521-0.286,3.271-0.856c0.749-0.563,1.124-1.412,1.124-2.521
			s-0.373-1.951-1.115-2.524c-0.745-0.574-1.841-0.858-3.271-0.858c-1.423,0-2.504,0.284-3.243,0.858
			c-0.729,0.573-1.104,1.424-1.104,2.547c0,1.106,0.36,1.943,1.099,2.513C40.706,179.655,41.793,179.938,43.237,179.938z"/>
		<path fill="#87868A" d="M48.841,168.443H37.673v-1.376l1.513-0.275v-0.081c-0.544-0.347-0.97-0.832-1.271-1.457
			c-0.299-0.625-0.439-1.321-0.439-2.089c0-1.346,0.32-2.357,0.979-3.037c0.646-0.68,1.688-1.02,3.107-1.02h7.282v1.692h-7.235
			c-0.907,0-1.596,0.207-2.042,0.621c-0.444,0.415-0.677,1.063-0.677,1.946c0,1.169,0.313,2.024,0.948,2.568
			c0.635,0.543,1.682,0.815,3.139,0.815h5.867L48.841,168.443L48.841,168.443z"/>
		<path fill="#87868A" d="M47.104,150.714h-1.599c0.252-0.563,0.457-1.214,0.611-1.951c0.16-0.737,0.24-1.408,0.24-2.013H41.88
			c-0.438,1.393-0.954,2.369-1.538,2.93c-0.585,0.561-1.339,0.841-2.268,0.841c-0.89,0-1.615-0.345-2.188-1.034
			c-0.566-0.689-0.922-1.602-1.04-2.736h-1.854v-1.335h1.834c0.034-1.246,0.286-2.448,0.76-3.607l1.335,0.53
			c-0.397,1.009-0.644,2.035-0.719,3.077h4.428c0.344-1.063,0.671-1.859,0.988-2.389c0.323-0.528,0.693-0.918,1.111-1.169
			c0.417-0.25,0.926-0.376,1.521-0.376c0.924,0,1.688,0.346,2.292,1.037c0.604,0.691,0.979,1.656,1.146,2.896h2.354v1.335H47.78
			c0,0.761-0.063,1.498-0.185,2.212C47.483,149.676,47.317,150.26,47.104,150.714z M38.071,148.79c0.521,0,0.936-0.152,1.238-0.456
			c0.313-0.304,0.604-0.831,0.892-1.582h-3.938c0.104,0.669,0.313,1.177,0.638,1.521C37.208,148.618,37.602,148.79,38.071,148.79z
			 M46.263,145.417c-0.203-1.467-0.828-2.201-1.875-2.201c-0.484,0-0.889,0.15-1.188,0.452c-0.303,0.301-0.604,0.884-0.896,1.749
			H46.263z"/>
	</g>
	<line fill="none" stroke="#000000" stroke-width="0.25" stroke-miterlimit="10" x1="80.1" y1="74.774" x2="80.1" y2="322.629"/>
	
		<line fill="none" stroke="#000000" stroke-width="0.25" stroke-miterlimit="10" x1="210.809" y1="322.754" x2="66.379" y2="322.754"/>
	
		<line fill="none" stroke="#000000" stroke-width="0.25" stroke-miterlimit="10" x1="66.673" y1="74.774" x2="210.809" y2="74.774"/>
	<path fill="#FFFFFF" d="M142.378,145.128h-3.018v-8.262l0.029-1.357l0.049-1.484c-0.501,0.501-0.851,0.83-1.045,0.986l-1.642,1.318
		l-1.455-1.816l4.601-3.662h2.479L142.378,145.128L142.378,145.128z"/>
	<path fill="#FFFFFF" d="M150.015,143.028c-0.338,1.315-0.912,2.874-1.72,4.678h-2.147c0.423-1.731,0.752-3.366,0.985-4.902h2.734
		L150.015,143.028z"/>
	<path fill="#FFFFFF" d="M162.115,145.128h-9.979v-2.1l3.584-3.623c1.061-1.087,1.754-1.841,2.079-2.261
		c0.326-0.42,0.561-0.809,0.703-1.167c0.144-0.358,0.215-0.729,0.215-1.113c0-0.573-0.157-0.999-0.474-1.279
		c-0.315-0.28-0.737-0.42-1.265-0.42c-0.554,0-1.09,0.127-1.611,0.381c-0.521,0.254-1.063,0.615-1.631,1.084l-1.641-1.943
		c0.702-0.599,1.285-1.022,1.748-1.27c0.462-0.248,0.967-0.438,1.514-0.571c0.547-0.133,1.159-0.2,1.836-0.2
		c0.892,0,1.68,0.163,2.363,0.488c0.683,0.325,1.214,0.781,1.592,1.367s0.565,1.257,0.565,2.012c0,0.657-0.115,1.274-0.347,1.851
		c-0.23,0.577-0.589,1.167-1.074,1.771c-0.484,0.605-1.339,1.468-2.563,2.588l-1.836,1.729v0.137h6.221V145.128z"/>
	<path fill="#FFFFFF" d="M173.531,145.128h-9.98v-2.1l3.585-3.623c1.061-1.087,1.754-1.841,2.079-2.261
		c0.326-0.42,0.561-0.809,0.703-1.167c0.144-0.358,0.215-0.729,0.215-1.113c0-0.573-0.157-0.999-0.474-1.279
		c-0.315-0.28-0.737-0.42-1.265-0.42c-0.554,0-1.09,0.127-1.611,0.381c-0.521,0.254-1.063,0.615-1.631,1.084l-1.641-1.943
		c0.702-0.599,1.285-1.022,1.747-1.27c0.463-0.248,0.968-0.438,1.515-0.571c0.547-0.133,1.159-0.2,1.836-0.2
		c0.892,0,1.68,0.163,2.363,0.488c0.683,0.325,1.214,0.781,1.592,1.367s0.565,1.257,0.565,2.012c0,0.657-0.115,1.274-0.347,1.851
		c-0.23,0.577-0.589,1.167-1.074,1.771c-0.484,0.605-1.339,1.468-2.563,2.588l-1.836,1.729v0.137h6.221V145.128z"/>
	<path fill="#FFFFFF" d="M180.161,136.007c1.38,0,2.479,0.388,3.296,1.162c0.817,0.774,1.227,1.836,1.227,3.184
		c0,1.595-0.492,2.822-1.476,3.682c-0.982,0.86-2.389,1.289-4.219,1.289c-1.588,0-2.871-0.257-3.848-0.771v-2.607
		c0.514,0.272,1.112,0.496,1.797,0.669c0.684,0.173,1.332,0.259,1.942,0.259c1.843,0,2.765-0.755,2.765-2.266
		c0-1.438-0.954-2.158-2.861-2.158c-0.345,0-0.726,0.034-1.143,0.103c-0.417,0.069-0.755,0.142-1.017,0.22l-1.201-0.645l0.537-7.275
		h7.744v2.559h-5.098l-0.265,2.803l0.343-0.068C179.084,136.053,179.575,136.007,180.161,136.007z"/>
	<path fill="#FFFFFF" d="M142.378,261.488h-3.018v-8.262l0.029-1.357l0.049-1.484c-0.501,0.502-0.851,0.83-1.045,0.986l-1.642,1.318
		l-1.455-1.816l4.601-3.662h2.479L142.378,261.488L142.378,261.488z"/>
	<path fill="#FFFFFF" d="M150.015,259.389c-0.338,1.315-0.912,2.875-1.72,4.678h-2.147c0.423-1.73,0.752-3.365,0.985-4.901h2.734
		L150.015,259.389z"/>
	<path fill="#FFFFFF" d="M162.115,261.488h-9.979v-2.1l3.584-3.623c1.061-1.088,1.754-1.842,2.079-2.262
		c0.326-0.42,0.561-0.809,0.703-1.167c0.144-0.358,0.215-0.729,0.215-1.112c0-0.574-0.157-1-0.474-1.279
		c-0.315-0.28-0.737-0.42-1.265-0.42c-0.554,0-1.09,0.127-1.611,0.381c-0.521,0.254-1.063,0.615-1.631,1.084l-1.641-1.943
		c0.702-0.599,1.285-1.021,1.748-1.27c0.462-0.248,0.967-0.438,1.514-0.571s1.159-0.2,1.836-0.2c0.892,0,1.68,0.163,2.363,0.488
		c0.683,0.324,1.214,0.781,1.592,1.367s0.565,1.257,0.565,2.012c0,0.656-0.115,1.273-0.347,1.852
		c-0.23,0.576-0.589,1.166-1.074,1.771c-0.484,0.605-1.339,1.468-2.563,2.588l-1.836,1.729v0.138h6.221V261.488z"/>
	<path fill="#FFFFFF" d="M173.531,261.488h-9.98v-2.1l3.585-3.623c1.061-1.088,1.754-1.842,2.079-2.262
		c0.326-0.42,0.561-0.809,0.703-1.167c0.144-0.358,0.215-0.729,0.215-1.112c0-0.574-0.157-1-0.474-1.279
		c-0.315-0.28-0.737-0.42-1.265-0.42c-0.554,0-1.09,0.127-1.611,0.381c-0.521,0.254-1.063,0.615-1.631,1.084l-1.641-1.943
		c0.702-0.599,1.285-1.021,1.747-1.27c0.463-0.248,0.968-0.438,1.515-0.571s1.159-0.2,1.836-0.2c0.892,0,1.68,0.163,2.363,0.488
		c0.683,0.324,1.214,0.781,1.592,1.367s0.565,1.257,0.565,2.012c0,0.656-0.115,1.273-0.347,1.852
		c-0.23,0.576-0.589,1.166-1.074,1.771c-0.484,0.605-1.339,1.468-2.563,2.588l-1.836,1.729v0.138h6.221V261.488z"/>
	<path fill="#FFFFFF" d="M184.39,250.404c0,0.892-0.271,1.65-0.812,2.275s-1.299,1.055-2.274,1.288v0.06
		c1.151,0.144,2.024,0.492,2.616,1.05c0.593,0.557,0.89,1.307,0.89,2.251c0,1.374-0.498,2.443-1.494,3.208s-2.418,1.147-4.269,1.147
		c-1.549,0-2.923-0.258-4.12-0.771v-2.568c0.553,0.28,1.161,0.508,1.825,0.684c0.664,0.177,1.322,0.265,1.974,0.265
		c0.996,0,1.731-0.169,2.207-0.508c0.475-0.339,0.713-0.882,0.713-1.632c0-0.67-0.273-1.146-0.82-1.426
		c-0.547-0.279-1.419-0.42-2.617-0.42h-1.084v-2.313h1.104c1.106,0,1.916-0.146,2.427-0.435c0.511-0.291,0.767-0.787,0.767-1.49
		c0-1.08-0.677-1.62-2.03-1.62c-0.47,0-0.946,0.077-1.432,0.233c-0.484,0.156-1.023,0.428-1.615,0.812l-1.396-2.08
		c1.302-0.938,2.855-1.406,4.658-1.406c1.478,0,2.645,0.3,3.501,0.898C183.964,248.503,184.39,249.337,184.39,250.404z"/>
	<g>
		<path fill="#9A999E" d="M18.72,78.963v-1.24l3.384-3.415c1.03-1.047,1.711-1.795,2.039-2.241c0.328-0.447,0.573-0.883,0.737-1.307
			c0.164-0.424,0.246-0.879,0.246-1.367c0-0.688-0.208-1.234-0.624-1.638c-0.416-0.404-0.993-0.604-1.73-0.604
			c-0.533,0-1.039,0.088-1.517,0.265c-0.477,0.177-1.009,0.497-1.595,0.962l-0.772-0.997c1.184-0.968,2.473-1.451,3.866-1.451
			c1.207,0,2.153,0.308,2.84,0.923c0.686,0.615,1.027,1.441,1.027,2.479c0,0.818-0.229,1.627-0.686,2.428
			c-0.457,0.8-1.313,1.813-2.566,3.036l-2.813,2.763v0.07h6.608v1.336H18.72V78.963z"/>
		<path fill="#9A999E" d="M28.687,81.283c0.158-0.609,0.333-1.362,0.522-2.259c0.19-0.897,0.324-1.614,0.4-2.153h1.591l0.131,0.202
			c-0.15,0.586-0.37,1.268-0.656,2.044c-0.285,0.775-0.583,1.498-0.892,2.166H28.687z"/>
		<path fill="#9A999E" d="M32.906,76.019v-1.283l6.1-8.692h1.548v8.64h1.925v1.336h-1.925v2.944h-1.381V76.02L32.906,76.019
			L32.906,76.019z M34.383,74.683h4.79v-4.271c0-0.838,0.029-1.784,0.087-2.839H39.19c-0.281,0.563-0.544,1.028-0.791,1.397
			L34.383,74.683z"/>
		<path fill="#9A999E" d="M43.198,76.019v-1.283l6.1-8.692h1.548v8.64h1.925v1.336h-1.925v2.944h-1.381V76.02L43.198,76.019
			L43.198,76.019z M44.675,74.683h4.79v-4.271c0-0.838,0.029-1.784,0.088-2.839h-0.07c-0.281,0.563-0.544,1.028-0.791,1.397
			L44.675,74.683z"/>
		<path fill="#9A999E" d="M54.044,75.685c0-1.471,0.902-2.616,2.706-3.437c-0.816-0.457-1.403-0.95-1.759-1.48
			c-0.354-0.53-0.533-1.124-0.533-1.78c0-0.932,0.347-1.675,1.039-2.228c0.692-0.555,1.619-0.831,2.78-0.831
			c1.176,0,2.107,0.272,2.796,0.817s1.032,1.298,1.032,2.259c0,0.633-0.198,1.21-0.593,1.731c-0.396,0.521-1.026,0.996-1.894,1.424
			c1.049,0.498,1.794,1.021,2.236,1.568c0.44,0.549,0.663,1.183,0.663,1.903c0,1.066-0.373,1.918-1.12,2.554
			s-1.771,0.953-3.068,0.953c-1.375,0-2.434-0.3-3.174-0.9C54.414,77.638,54.044,76.786,54.044,75.685z M55.503,75.72
			c0,0.703,0.244,1.251,0.732,1.645c0.489,0.393,1.175,0.589,2.058,0.589c0.872,0,1.55-0.205,2.036-0.615s0.729-0.973,0.729-1.688
			c0-0.568-0.229-1.073-0.686-1.517c-0.456-0.441-1.252-0.871-2.387-1.287c-0.872,0.375-1.503,0.79-1.896,1.244
			C55.697,74.544,55.503,75.087,55.503,75.72z M55.916,69.049c0,0.539,0.172,1.002,0.519,1.389c0.346,0.387,0.981,0.773,1.913,1.16
			c0.836-0.352,1.428-0.729,1.775-1.134c0.349-0.405,0.522-0.876,0.522-1.415c0-0.592-0.212-1.062-0.637-1.41
			c-0.424-0.349-1.007-0.523-1.75-0.523c-0.73,0-1.304,0.176-1.72,0.527S55.916,68.463,55.916,69.049z"/>
	</g>
	<path fill="#9A999E" d="M54.026,316.484c0-2.236,0.35-3.896,1.049-4.979c0.7-1.083,1.767-1.625,3.201-1.625
		c1.393,0,2.451,0.565,3.174,1.695s1.084,2.767,1.084,4.909c0,2.223-0.35,3.882-1.049,4.979c-0.699,1.098-1.77,1.645-3.209,1.645
		c-1.387,0-2.442-0.562-3.165-1.685C54.387,320.301,54.026,318.654,54.026,316.484z M55.52,316.484c0,1.865,0.219,3.223,0.658,4.072
		c0.438,0.852,1.138,1.275,2.097,1.275c0.971,0,1.674-0.432,2.109-1.293c0.437-0.862,0.654-2.214,0.654-4.057
		c0-1.84-0.218-3.188-0.654-4.045c-0.436-0.857-1.139-1.285-2.109-1.285c-0.959,0-1.659,0.423-2.097,1.268
		C55.74,313.266,55.52,314.62,55.52,316.484z"/>
	<rect x="372.048" y="203.967" fill="#449FA2" width="100.494" height="118.787"/>
	<rect x="372.048" y="74.773" fill="#F2C466" width="100.494" height="129.194"/>
	<g>
		<path fill="#87868A" d="M317.007,215.43h-14.899v-4.209c0-1.979,0.296-3.406,0.886-4.289c0.603-0.887,1.523-1.326,2.813-1.326
			c0.883,0,1.604,0.246,2.185,0.74c0.574,0.49,0.946,1.211,1.116,2.152h0.104c0.396-2.248,1.576-3.373,3.569-3.373
			c1.332,0,2.371,0.449,3.118,1.35c0.747,0.901,1.121,2.152,1.121,3.771L317.007,215.43L317.007,215.43z M308.471,213.695v-2.854
			c0-1.225-0.191-2.104-0.574-2.641c-0.383-0.537-1.021-0.813-1.938-0.813c-0.834,0-1.438,0.299-1.813,0.896
			c-0.359,0.603-0.557,1.553-0.557,2.854v2.547L308.471,213.695L308.471,213.695z M315.522,213.695v-3.104
			c0-1.192-0.229-2.104-0.688-2.715c-0.479-0.604-1.193-0.912-2.188-0.912c-0.924,0-1.604,0.313-2.038,0.938
			c-0.435,0.621-0.646,1.563-0.646,2.838v2.971L315.522,213.695L315.522,213.695z"/>
		<path fill="#87868A" d="M302.804,202.305c-0.391,0-0.673-0.088-0.854-0.266c-0.188-0.186-0.271-0.396-0.271-0.656
			c0-0.295,0.091-0.547,0.271-0.76c0.188-0.211,0.467-0.316,0.848-0.316c0.383,0,0.664,0.105,0.854,0.316
			c0.188,0.213,0.28,0.465,0.28,0.76c0,0.264-0.097,0.479-0.28,0.656C303.469,202.217,303.185,202.305,302.804,202.305z
			 M317.007,202.163h-11.169v-1.552h11.169V202.163z"/>
		<path fill="#87868A" d="M317.007,196.883h-15.859v-1.691h15.855L317.007,196.883L317.007,196.883z"/>
		<path fill="#87868A" d="M317.007,191.604h-15.859v-1.69h15.855L317.007,191.604L317.007,191.604z"/>
		<path fill="#87868A" d="M302.804,186.469c-0.391,0-0.673-0.09-0.854-0.266c-0.188-0.183-0.271-0.396-0.271-0.656
			c0-0.293,0.091-0.547,0.271-0.758c0.188-0.213,0.467-0.317,0.848-0.317c0.383,0,0.664,0.104,0.854,0.317
			c0.188,0.211,0.28,0.465,0.28,0.758c0,0.264-0.097,0.479-0.28,0.656C303.469,186.379,303.185,186.469,302.804,186.469z
			 M317.007,186.328h-11.169v-1.551h11.169V186.328z"/>
		<path fill="#87868A" d="M311.395,181.668c-1.813,0-3.229-0.455-4.247-1.36c-1.014-0.908-1.521-2.168-1.521-3.78
			c0-1.558,0.519-2.795,1.557-3.713c1.037-0.918,2.438-1.377,4.211-1.377c1.824,0,3.248,0.457,4.271,1.372
			c1.021,0.914,1.537,2.178,1.537,3.789c0,0.996-0.231,1.88-0.705,2.651c-0.479,0.771-1.146,1.367-2.021,1.787
			S312.567,181.668,311.395,181.668z M311.395,179.937c1.43,0,2.521-0.286,3.271-0.856c0.749-0.563,1.123-1.412,1.123-2.521
			s-0.372-1.951-1.114-2.524c-0.745-0.574-1.839-0.858-3.273-0.858c-1.423,0-2.504,0.284-3.243,0.858
			c-0.729,0.573-1.104,1.424-1.104,2.547c0,1.106,0.359,1.943,1.093,2.513C308.86,179.654,309.957,179.937,311.395,179.937z"/>
		<path fill="#87868A" d="M317.007,168.442h-11.169v-1.376l1.509-0.275v-0.081c-0.543-0.347-0.965-0.832-1.268-1.457
			c-0.309-0.625-0.444-1.321-0.444-2.089c0-1.346,0.32-2.357,0.973-3.037c0.649-0.68,1.688-1.02,3.113-1.02h7.286v1.692h-7.239
			c-0.913,0-1.594,0.207-2.043,0.621c-0.449,0.415-0.674,1.063-0.674,1.946c0,1.169,0.313,2.024,0.946,2.568
			c0.637,0.543,1.682,0.815,3.139,0.815h5.871V168.442L317.007,168.442z"/>
		<path fill="#87868A" d="M315.262,150.713h-1.599c0.255-0.563,0.457-1.214,0.616-1.951c0.15-0.737,0.229-1.408,0.229-2.013h-4.479
			c-0.438,1.393-0.954,2.369-1.539,2.93c-0.584,0.563-1.341,0.841-2.271,0.841c-0.894,0-1.616-0.345-2.188-1.034
			c-0.568-0.689-0.917-1.602-1.039-2.736h-1.854v-1.335h1.834c0.033-1.246,0.285-2.448,0.762-3.607l1.337,0.53
			c-0.396,1.009-0.646,2.035-0.723,3.077h4.433c0.339-1.063,0.671-1.859,0.983-2.389c0.322-0.528,0.693-0.918,1.11-1.169
			c0.418-0.25,0.926-0.376,1.521-0.376c0.927,0,1.688,0.346,2.291,1.037c0.604,0.691,0.979,1.656,1.146,2.896h2.354v1.335h-2.267
			c0,0.761-0.063,1.498-0.184,2.212C315.64,149.675,315.474,150.259,315.262,150.713z M306.228,148.789
			c0.521,0,0.938-0.152,1.243-0.456c0.313-0.304,0.604-0.831,0.887-1.582h-3.938c0.104,0.669,0.313,1.177,0.637,1.521
			C305.373,148.617,305.76,148.789,306.228,148.789z M314.427,145.416c-0.204-1.467-0.829-2.201-1.875-2.201
			c-0.489,0-0.889,0.15-1.188,0.452c-0.302,0.301-0.603,0.884-0.896,1.749H314.427z"/>
	</g>
	
		<line fill="none" stroke="#000000" stroke-width="0.25" stroke-miterlimit="10" x1="341.833" y1="74.725" x2="341.833" y2="322.754"/>
	
		<line fill="none" stroke="#000000" stroke-width="0.25" stroke-miterlimit="10" x1="472.547" y1="322.754" x2="328.106" y2="322.754"/>
	
		<line fill="none" stroke="#000000" stroke-width="0.25" stroke-miterlimit="10" x1="472.547" y1="74.725" x2="328.106" y2="74.725"/>
	<path fill="#FFFFFF" d="M414.624,145.128h-9.979v-2.1l3.584-3.623c1.061-1.087,1.754-1.841,2.08-2.261s0.561-0.809,0.703-1.167
		c0.142-0.358,0.215-0.729,0.215-1.113c0-0.573-0.158-0.999-0.474-1.279c-0.316-0.28-0.737-0.42-1.266-0.42
		c-0.553,0-1.09,0.127-1.611,0.381c-0.521,0.254-1.063,0.615-1.631,1.084l-1.641-1.943c0.703-0.599,1.285-1.022,1.748-1.27
		s0.967-0.438,1.514-0.571c0.547-0.133,1.158-0.2,1.836-0.2c0.894,0,1.681,0.163,2.363,0.488c0.683,0.325,1.215,0.781,1.592,1.367
		s0.566,1.257,0.566,2.012c0,0.657-0.115,1.274-0.347,1.851c-0.232,0.577-0.59,1.167-1.074,1.771
		c-0.485,0.605-1.339,1.468-2.563,2.588l-1.836,1.729v0.137h6.221V145.128L414.624,145.128z"/>
	<path fill="#FFFFFF" d="M421.256,136.007c1.381,0,2.479,0.388,3.296,1.162c0.816,0.774,1.226,1.836,1.226,3.184
		c0,1.595-0.492,2.822-1.475,3.682c-0.983,0.86-2.39,1.289-4.22,1.289c-1.588,0-2.87-0.257-3.848-0.771v-2.607
		c0.514,0.272,1.113,0.496,1.797,0.669c0.685,0.173,1.332,0.259,1.943,0.259c1.842,0,2.764-0.755,2.764-2.266
		c0-1.438-0.953-2.158-2.86-2.158c-0.347,0-0.728,0.034-1.144,0.103c-0.416,0.069-0.756,0.142-1.016,0.22l-1.201-0.645l0.537-7.275
		h7.744v2.559h-5.099l-0.264,2.803l0.342-0.068C420.177,136.053,420.67,136.007,421.256,136.007z"/>
	<path fill="#FFFFFF" d="M437.397,136.944c0,2.813-0.592,4.912-1.777,6.299c-1.185,1.387-2.979,2.08-5.381,2.08
		c-0.846,0-1.488-0.046-1.924-0.137v-2.422c0.547,0.137,1.119,0.205,1.719,0.205c1.011,0,1.84-0.147,2.49-0.444
		c0.65-0.296,1.148-0.762,1.494-1.396c0.346-0.634,0.543-1.509,0.596-2.622h-0.117c-0.377,0.612-0.813,1.042-1.309,1.289
		s-1.113,0.371-1.855,0.371c-1.243,0-2.223-0.398-2.938-1.196c-0.716-0.798-1.074-1.906-1.074-3.325c0-1.53,0.436-2.739,1.304-3.628
		c0.869-0.889,2.053-1.333,3.551-1.333c1.055,0,1.978,0.247,2.769,0.742c0.791,0.495,1.397,1.213,1.821,2.153
		S437.397,135.643,437.397,136.944z M432.231,133.106c-0.625,0-1.113,0.215-1.465,0.645c-0.353,0.43-0.527,1.048-0.527,1.855
		c0,0.69,0.16,1.237,0.479,1.641c0.318,0.404,0.805,0.605,1.455,0.605c0.61,0,1.137-0.2,1.571-0.601
		c0.436-0.401,0.654-0.861,0.654-1.382c0-0.774-0.203-1.429-0.61-1.963C433.383,133.372,432.862,133.106,432.231,133.106z"/>
	<path fill="#FFFFFF" d="M414.624,261.488h-9.979v-2.1l3.584-3.623c1.061-1.088,1.754-1.842,2.08-2.262s0.561-0.809,0.703-1.167
		c0.142-0.358,0.215-0.729,0.215-1.112c0-0.574-0.158-1-0.474-1.279c-0.316-0.28-0.737-0.42-1.266-0.42
		c-0.553,0-1.09,0.127-1.611,0.381c-0.521,0.254-1.063,0.615-1.631,1.084l-1.641-1.943c0.703-0.599,1.285-1.021,1.748-1.27
		s0.967-0.438,1.514-0.571s1.158-0.2,1.836-0.2c0.894,0,1.681,0.163,2.363,0.488c0.683,0.324,1.215,0.781,1.592,1.367
		s0.566,1.257,0.566,2.012c0,0.656-0.115,1.273-0.347,1.852c-0.232,0.576-0.59,1.166-1.074,1.771
		c-0.485,0.605-1.339,1.468-2.563,2.588l-1.836,1.729v0.138h6.221V261.488L414.624,261.488z"/>
	<path fill="#FFFFFF" d="M425.483,250.404c0,0.892-0.27,1.65-0.811,2.275s-1.3,1.055-2.275,1.288v0.06
		c1.152,0.144,2.025,0.492,2.617,1.05c0.592,0.557,0.889,1.307,0.889,2.251c0,1.374-0.498,2.443-1.494,3.208
		s-2.418,1.147-4.268,1.147c-1.549,0-2.924-0.258-4.121-0.771v-2.568c0.553,0.28,1.162,0.508,1.826,0.684
		c0.664,0.177,1.322,0.265,1.973,0.265c0.996,0,1.732-0.169,2.207-0.508c0.476-0.339,0.713-0.882,0.713-1.632
		c0-0.67-0.272-1.146-0.819-1.426c-0.548-0.279-1.421-0.42-2.617-0.42h-1.084v-2.313h1.104c1.107,0,1.916-0.146,2.427-0.435
		c0.512-0.291,0.768-0.787,0.768-1.49c0-1.08-0.678-1.62-2.031-1.62c-0.469,0-0.945,0.077-1.431,0.233
		c-0.486,0.156-1.024,0.428-1.616,0.812l-1.396-2.08c1.304-0.938,2.855-1.406,4.658-1.406c1.479,0,2.646,0.3,3.501,0.898
		C425.057,248.503,425.483,249.337,425.483,250.404z"/>
	<path fill="#FFFFFF" d="M437.397,253.305c0,2.813-0.592,4.912-1.777,6.299c-1.185,1.388-2.979,2.08-5.381,2.08
		c-0.846,0-1.488-0.045-1.924-0.137v-2.422c0.547,0.137,1.119,0.205,1.719,0.205c1.011,0,1.84-0.148,2.49-0.444
		s1.148-0.762,1.494-1.396c0.346-0.635,0.543-1.51,0.596-2.622h-0.117c-0.377,0.612-0.813,1.042-1.309,1.289s-1.113,0.37-1.855,0.37
		c-1.243,0-2.223-0.397-2.938-1.195s-1.074-1.906-1.074-3.325c0-1.53,0.436-2.739,1.304-3.628c0.869-0.889,2.053-1.333,3.551-1.333
		c1.055,0,1.978,0.247,2.769,0.742s1.397,1.213,1.821,2.153C437.188,250.881,437.397,252.003,437.397,253.305z M432.231,249.467
		c-0.625,0-1.113,0.215-1.465,0.645c-0.353,0.431-0.527,1.049-0.527,1.855c0,0.69,0.16,1.237,0.479,1.641
		c0.318,0.404,0.805,0.605,1.455,0.605c0.61,0,1.137-0.199,1.571-0.602c0.436-0.4,0.654-0.86,0.654-1.381
		c0-0.774-0.203-1.43-0.61-1.963C433.383,249.732,432.862,249.467,432.231,249.467z"/>
	<path fill="#9A999E" d="M292.493,77.019v-1.283l6.101-8.692h1.547v8.64h1.926v1.336h-1.926v2.944h-1.379V77.02L292.493,77.019
		L292.493,77.019z M293.969,75.683h4.791v-4.271c0-0.838,0.028-1.784,0.087-2.839h-0.07c-0.28,0.563-0.544,1.028-0.79,1.397
		L293.969,75.683z"/>
	<path fill="#9A999E" d="M303.356,71.24c0-1.332,0.375-2.384,1.125-3.154c0.749-0.771,1.735-1.157,2.958-1.157
		c0.876,0,1.642,0.224,2.296,0.672c0.656,0.447,1.16,1.1,1.513,1.958c0.354,0.857,0.528,1.868,0.528,3.033
		c0,5.031-1.948,7.547-5.846,7.547c-0.683,0-1.224-0.059-1.621-0.176v-1.274c0.469,0.176,1.004,0.264,1.604,0.264
		c1.404,0,2.465-0.437,3.182-1.31c0.716-0.873,1.105-2.213,1.171-4.019h-0.105c-0.32,0.493-0.748,0.868-1.28,1.127
		c-0.531,0.258-1.132,0.387-1.8,0.387c-1.141,0-2.046-0.343-2.717-1.027C303.692,73.426,303.356,72.469,303.356,71.24z
		 M304.815,71.223c0,0.848,0.211,1.515,0.633,2c0.42,0.485,1.062,0.729,1.922,0.729c0.531,0,1.021-0.109,1.47-0.327
		c0.447-0.218,0.801-0.515,1.058-0.892c0.257-0.376,0.386-0.771,0.386-1.183c0-0.618-0.119-1.189-0.358-1.713
		c-0.24-0.524-0.574-0.936-1.004-1.236c-0.432-0.3-0.925-0.45-1.479-0.45c-0.837,0-1.483,0.271-1.938,0.813
		C305.045,69.504,304.815,70.258,304.815,71.223z"/>
	<path fill="#9A999E" d="M313.633,76.685c0-1.471,0.9-2.616,2.705-3.437c-0.817-0.457-1.404-0.95-1.761-1.48
		c-0.355-0.53-0.532-1.124-0.532-1.78c0-0.932,0.347-1.675,1.038-2.228c0.692-0.555,1.619-0.831,2.78-0.831
		c1.176,0,2.108,0.272,2.796,0.817c0.688,0.545,1.031,1.298,1.031,2.259c0,0.633-0.197,1.21-0.592,1.731
		c-0.396,0.521-1.026,0.996-1.894,1.424c1.05,0.498,1.793,1.021,2.235,1.568c0.441,0.549,0.663,1.183,0.663,1.903
		c0,1.066-0.373,1.918-1.12,2.554s-1.77,0.953-3.068,0.953c-1.376,0-2.434-0.3-3.174-0.9
		C314.002,78.638,313.633,77.786,313.633,76.685z M315.092,76.72c0,0.703,0.244,1.251,0.731,1.645
		c0.488,0.393,1.174,0.589,2.059,0.589c0.872,0,1.55-0.205,2.036-0.615c0.484-0.41,0.729-0.973,0.729-1.688
		c0-0.568-0.229-1.073-0.686-1.517c-0.455-0.441-1.253-0.871-2.388-1.287c-0.871,0.375-1.503,0.79-1.895,1.244
		C315.286,75.544,315.092,76.087,315.092,76.72z M315.504,70.049c0,0.539,0.173,1.002,0.518,1.389
		c0.346,0.387,0.982,0.773,1.913,1.16c0.837-0.352,1.429-0.729,1.776-1.134c0.347-0.405,0.521-0.876,0.521-1.415
		c0-0.592-0.211-1.062-0.636-1.41c-0.424-0.349-1.007-0.523-1.75-0.523c-0.731,0-1.304,0.176-1.72,0.527
		C315.712,68.994,315.504,69.463,315.504,70.049z"/>
	<path fill="#9A999E" d="M313.612,316.484c0-2.236,0.351-3.896,1.049-4.979c0.7-1.083,1.769-1.625,3.201-1.625
		c1.394,0,2.451,0.565,3.174,1.695c0.724,1.13,1.084,2.767,1.084,4.909c0,2.223-0.35,3.882-1.049,4.979
		c-0.699,1.098-1.77,1.645-3.209,1.645c-1.387,0-2.441-0.562-3.165-1.685C313.973,320.301,313.612,318.654,313.612,316.484z
		 M315.106,316.484c0,1.865,0.22,3.223,0.658,4.072c0.438,0.852,1.139,1.275,2.098,1.275c0.971,0,1.674-0.432,2.11-1.293
		c0.436-0.862,0.652-2.214,0.652-4.057c0-1.84-0.217-3.188-0.652-4.045c-0.437-0.857-1.141-1.285-2.11-1.285
		c-0.959,0-1.658,0.423-2.098,1.268C315.326,313.266,315.106,314.62,315.106,316.484z"/>
	<g>
		<path fill="#666666" d="M49.391,35.996c0-1.633,0.324-3.063,0.979-4.292c0.655-1.228,1.603-2.166,2.831-2.814
			c1.231-0.648,2.675-0.972,4.329-0.972c1.676,0,3.237,0.308,4.684,0.924l-0.709,1.611c-1.418-0.602-2.778-0.902-4.093-0.902
			c-1.912,0-3.405,0.569-4.479,1.708c-1.074,1.139-1.611,2.718-1.611,4.737c0,2.127,0.517,3.74,1.552,4.839
			c1.035,1.1,2.559,1.649,4.563,1.649c1.088,0,2.148-0.125,3.188-0.377v-4.854h-3.513V35.62h5.339v7.648
			c-0.831,0.262-1.676,0.459-2.535,0.594c-0.855,0.134-1.854,0.201-2.982,0.201c-2.378,0-4.229-0.707-5.558-2.122
			C50.052,40.527,49.391,38.545,49.391,35.996z"/>
		<path fill="#666666" d="M65.954,43.849V27.133h1.783v16.715L65.954,43.849L65.954,43.849z"/>
		<path fill="#666666" d="M70.865,37.939c0-1.916,0.479-3.408,1.435-4.477c0.956-1.069,2.285-1.603,3.984-1.603
			c1.642,0,2.947,0.547,3.915,1.641s1.451,2.574,1.451,4.439c0,1.923-0.482,3.424-1.446,4.503c-0.964,1.08-2.296,1.62-3.995,1.62
			c-1.05,0-1.979-0.248-2.795-0.743c-0.813-0.495-1.438-1.205-1.885-2.13C71.085,40.265,70.865,39.182,70.865,37.939z
			 M72.691,37.939c0,1.507,0.301,2.656,0.904,3.445c0.602,0.79,1.484,1.185,2.653,1.185s2.061-0.393,2.663-1.179
			c0.606-0.786,0.909-1.937,0.909-3.451c0-1.5-0.303-2.64-0.909-3.419c-0.604-0.778-1.501-1.168-2.684-1.168
			c-1.169,0-2.051,0.384-2.646,1.152C72.988,35.272,72.691,36.418,72.691,37.939z"/>
		<path fill="#666666" d="M84.808,43.849V27.133h1.779v4.061c0,0.91-0.025,1.726-0.086,2.449h0.086
			c0.831-1.174,2.063-1.762,3.695-1.762c1.54,0,2.736,0.528,3.588,1.584c0.854,1.057,1.278,2.551,1.278,4.485
			c0,1.934-0.43,3.436-1.289,4.506c-0.859,1.071-2.052,1.606-3.578,1.606c-0.767,0-1.466-0.142-2.1-0.424
			c-0.638-0.282-1.166-0.718-1.599-1.305H86.46l-0.376,1.515L84.808,43.849L84.808,43.849z M86.59,37.951
			c0,1.654,0.275,2.838,0.827,3.55c0.551,0.713,1.438,1.069,2.653,1.069c1.096,0,1.912-0.399,2.449-1.198
			c0.537-0.798,0.806-1.946,0.806-3.443c0-1.532-0.269-2.675-0.806-3.427s-1.368-1.128-2.492-1.128
			c-1.218,0-2.095,0.349-2.632,1.047C86.859,35.119,86.59,36.296,86.59,37.951z"/>
		<path fill="#666666" d="M97.407,40.604c0-2.371,1.904-3.614,5.712-3.729l2.001-0.065v-0.739c0-0.935-0.198-1.625-0.595-2.071
			c-0.397-0.446-1.031-0.669-1.903-0.669c-0.979,0-2.087,0.305-3.324,0.914l-0.554-1.369c0.58-0.311,1.215-0.554,1.907-0.73
			c0.688-0.176,1.384-0.265,2.079-0.265c1.398,0,2.438,0.312,3.117,0.935c0.676,0.623,1.014,1.622,1.014,2.997v8.035h-1.321
			l-0.354-1.656H105.1c-0.586,0.73-1.17,1.225-1.753,1.483c-0.583,0.259-1.313,0.388-2.186,0.388c-1.173,0-2.092-0.3-2.758-0.899
			C97.74,42.564,97.407,41.711,97.407,40.604z M99.298,40.626c0,0.648,0.195,1.141,0.584,1.479c0.393,0.338,0.938,0.507,1.639,0.507
			c1.104,0,1.979-0.306,2.607-0.917c0.637-0.612,0.949-1.468,0.949-2.569v-1.068l-1.78,0.075c-1.416,0.05-2.436,0.272-3.062,0.664
			C99.61,39.189,99.298,39.799,99.298,40.626z"/>
		<path fill="#666666" d="M110.525,43.849V27.133h1.783v16.715L110.525,43.849L110.525,43.849z"/>
		<path fill="#666666" d="M121.149,38.059c0-1.897,0.466-3.405,1.396-4.522c0.935-1.117,2.187-1.676,3.754-1.676
			c1.474,0,2.637,0.485,3.49,1.456c0.856,0.971,1.285,2.25,1.285,3.84v1.128h-8.1c0.036,1.382,0.386,2.432,1.049,3.147
			c0.664,0.716,1.598,1.074,2.803,1.074c1.264,0,2.513-0.265,3.748-0.795v1.59c-0.628,0.272-1.223,0.467-1.783,0.585
			c-0.561,0.118-1.233,0.177-2.026,0.177c-1.735,0-3.105-0.53-4.108-1.59C121.65,41.414,121.149,39.941,121.149,38.059z
			 M123.018,36.833h6.166c0-1.124-0.251-1.985-0.753-2.583s-1.223-0.897-2.152-0.897c-0.947,0-1.702,0.308-2.266,0.924
			C123.449,34.894,123.117,35.746,123.018,36.833z"/>
		<path fill="#666666" d="M133.395,34.968c0-0.961,0.39-1.719,1.169-2.275c0.775-0.556,1.849-0.833,3.208-0.833
			c1.26,0,2.491,0.258,3.69,0.773l-0.622,1.452c-1.178-0.488-2.241-0.732-3.198-0.732c-0.851,0-1.485,0.133-1.916,0.398
			c-0.435,0.265-0.646,0.632-0.646,1.098c0,0.316,0.081,0.585,0.242,0.808c0.161,0.223,0.422,0.434,0.78,0.635
			c0.355,0.201,1.048,0.492,2.063,0.872c1.396,0.51,2.334,1.023,2.816,1.54c0.479,0.517,0.722,1.167,0.722,1.949
			c0,1.09-0.406,1.931-1.218,2.522c-0.813,0.592-1.952,0.887-3.418,0.887c-1.56,0-2.774-0.243-3.646-0.73v-1.646
			c0.564,0.287,1.174,0.513,1.817,0.678c0.647,0.165,1.271,0.248,1.872,0.248c0.933,0,1.65-0.149,2.153-0.447
			c0.502-0.298,0.753-0.752,0.753-1.362c0-0.459-0.199-0.852-0.602-1.179c-0.396-0.327-1.175-0.712-2.331-1.158
			c-1.098-0.409-1.877-0.766-2.336-1.071c-0.46-0.305-0.802-0.651-1.022-1.039C133.504,35.968,133.395,35.506,133.395,34.968z"/>
		<path fill="#666666" d="M143.083,33.46v-0.859l1.688-0.741l0.752-2.514h1.031v2.729h3.416v1.386h-3.416v6.945
			c0,0.711,0.168,1.256,0.505,1.637c0.336,0.381,0.798,0.571,1.386,0.571c0.313,0,0.619-0.023,0.913-0.07
			c0.293-0.047,0.522-0.095,0.698-0.146v1.348c-0.193,0.092-0.479,0.167-0.854,0.228c-0.376,0.06-0.714,0.09-1.015,0.09
			c-2.277,0-3.416-1.199-3.416-3.599V33.46H143.083z"/>
		<path fill="#666666" d="M152.257,28.884c0-0.408,0.096-0.707,0.277-0.897c0.188-0.189,0.416-0.285,0.693-0.285
			c0.309,0,0.571,0.097,0.799,0.29c0.224,0.193,0.336,0.491,0.336,0.892c0,0.401-0.112,0.7-0.336,0.897
			c-0.228,0.197-0.49,0.295-0.799,0.295c-0.277,0-0.508-0.098-0.693-0.295C152.35,29.584,152.257,29.286,152.257,28.884z
			 M152.407,43.849V32.075h1.633v11.773L152.407,43.849L152.407,43.849z"/>
		<path fill="#666666" d="M157.973,43.849V32.075h1.446l0.29,1.59h0.086c0.336-0.566,0.813-1.009,1.427-1.327
			c0.608-0.319,1.298-0.478,2.057-0.478c1.839,0,3.042,0.659,3.609,1.978h0.086c0.351-0.609,0.855-1.091,1.521-1.446
			s1.425-0.532,2.277-0.532c1.332,0,2.329,0.342,2.992,1.026c0.662,0.684,0.992,1.778,0.992,3.282v7.681h-1.781v-7.675
			c0-0.94-0.201-1.645-0.604-2.115c-0.397-0.47-1.021-0.705-1.869-0.705c-1.106,0-1.93,0.319-2.46,0.958
			c-0.526,0.639-0.795,1.622-0.795,2.949v6.588h-1.783v-7.675c0-0.94-0.197-1.645-0.602-2.115c-0.401-0.47-1.028-0.705-1.879-0.705
			c-1.117,0-1.938,0.335-2.455,1.006c-0.521,0.671-0.779,1.771-0.779,3.299v6.189L157.973,43.849L157.973,43.849z"/>
		<path fill="#666666" d="M177.555,40.604c0-2.371,1.9-3.614,5.712-3.729l2.001-0.065v-0.739c0-0.935-0.198-1.625-0.599-2.071
			c-0.396-0.446-1.027-0.669-1.899-0.669c-0.979,0-2.087,0.305-3.324,0.914l-0.554-1.369c0.58-0.311,1.215-0.554,1.903-0.73
			c0.691-0.176,1.388-0.265,2.079-0.265c1.402,0,2.441,0.312,3.117,0.935s1.014,1.622,1.014,2.997v8.035h-1.317l-0.354-1.656h-0.086
			c-0.586,0.73-1.17,1.225-1.753,1.483c-0.583,0.259-1.31,0.388-2.182,0.388c-1.173,0-2.092-0.3-2.758-0.899
			C177.887,42.564,177.555,41.711,177.555,40.604z M179.446,40.626c0,0.648,0.195,1.141,0.584,1.479s0.935,0.507,1.635,0.507
			c1.108,0,1.979-0.306,2.611-0.917c0.633-0.612,0.949-1.468,0.949-2.569v-1.068l-1.78,0.075c-1.416,0.05-2.438,0.272-3.063,0.664
			C179.757,39.189,179.446,39.799,179.446,40.626z"/>
		<path fill="#666666" d="M189.114,33.46v-0.859l1.687-0.741l0.756-2.514h1.027v2.729H196v1.386h-3.416v6.945
			c0,0.711,0.168,1.256,0.505,1.637c0.336,0.381,0.802,0.571,1.39,0.571c0.313,0,0.619-0.023,0.913-0.07
			c0.293-0.047,0.522-0.095,0.694-0.146v1.348c-0.189,0.092-0.478,0.167-0.854,0.228c-0.376,0.06-0.714,0.09-1.019,0.09
			c-2.273,0-3.416-1.199-3.416-3.599V33.46H189.114z"/>
		<path fill="#666666" d="M197.782,38.059c0-1.897,0.466-3.405,1.397-4.522c0.931-1.117,2.183-1.676,3.754-1.676
			c1.47,0,2.633,0.485,3.486,1.456c0.856,0.971,1.285,2.25,1.285,3.84v1.128h-8.1c0.036,1.382,0.386,2.432,1.049,3.147
			c0.664,0.716,1.598,1.074,2.803,1.074c1.268,0,2.517-0.265,3.748-0.795v1.59c-0.628,0.272-1.223,0.467-1.783,0.585
			c-0.561,0.118-1.233,0.177-2.026,0.177c-1.735,0-3.105-0.53-4.108-1.59C198.284,41.414,197.782,39.941,197.782,38.059z
			 M199.652,36.833h6.166c0-1.124-0.251-1.985-0.753-2.583s-1.219-0.897-2.152-0.897c-0.947,0-1.702,0.308-2.266,0.924
			C200.084,34.894,199.752,35.746,199.652,36.833z"/>
	</g>
	<g>
		<path fill="#666666" d="M324.219,43.849V28.144h8.755v1.633h-6.929v5.027h6.51v1.633h-6.51v5.779h6.929v1.633H324.219z"/>
		<path fill="#666666" d="M336.29,38.263V28.144h1.826v10.264c0,1.313,0.358,2.32,1.074,3.023c0.716,0.703,1.771,1.054,3.158,1.054
			c1.325,0,2.345-0.353,3.062-1.06c0.72-0.707,1.074-1.72,1.074-3.04V28.144h1.826v10.162c0,1.791-0.541,3.198-1.622,4.222
			c-1.082,1.024-2.567,1.536-4.458,1.536s-3.354-0.516-4.388-1.547C336.807,41.484,336.29,40.066,336.29,38.263z"/>
		<path fill="#666666" d="M351.385,43.849v-1.516l4.136-4.174c1.26-1.28,2.091-2.193,2.492-2.74
			c0.397-0.546,0.702-1.079,0.898-1.596c0.2-0.518,0.305-1.075,0.305-1.672c0-0.841-0.254-1.508-0.767-2
			c-0.509-0.493-1.214-0.739-2.112-0.739c-0.652,0-1.271,0.108-1.854,0.324c-0.584,0.216-1.234,0.607-1.95,1.176l-0.941-1.219
			c1.442-1.182,3.021-1.773,4.727-1.773c1.476,0,2.632,0.376,3.47,1.127c0.838,0.752,1.258,1.762,1.258,3.03
			c0,1-0.276,1.988-0.839,2.966c-0.559,0.979-1.604,2.215-3.137,3.711l-3.438,3.376v0.086h8.074v1.633H351.385z"/>
		<path fill="#666666" d="M364.009,39.841c0-1.797,1.102-3.197,3.307-4.2c-0.999-0.559-1.716-1.162-2.15-1.81
			c-0.434-0.648-0.647-1.373-0.647-2.175c0-1.139,0.423-2.046,1.27-2.723c0.851-0.677,1.979-1.015,3.398-1.015
			c1.437,0,2.576,0.333,3.417,0.999s1.261,1.586,1.261,2.761c0,0.773-0.242,1.479-0.724,2.116c-0.483,0.638-1.254,1.218-2.313,1.74
			c1.282,0.609,2.192,1.248,2.732,1.917c0.54,0.67,0.81,1.445,0.81,2.326c0,1.304-0.456,2.344-1.369,3.121
			c-0.91,0.777-2.16,1.166-3.75,1.166c-1.681,0-2.974-0.367-3.879-1.101C364.458,42.229,364.009,41.188,364.009,39.841z
			 M365.788,39.884c0,0.859,0.302,1.529,0.896,2.009s1.436,0.72,2.515,0.72c1.065,0,1.896-0.25,2.488-0.752
			c0.593-0.501,0.89-1.188,0.89-2.063c0-0.694-0.275-1.312-0.836-1.853c-0.558-0.541-1.526-1.065-2.917-1.574
			c-1.063,0.458-1.837,0.965-2.313,1.52C366.028,38.446,365.788,39.11,365.788,39.884z M366.297,31.73
			c0,0.659,0.211,1.225,0.633,1.697c0.421,0.473,1.201,0.945,2.337,1.418c1.021-0.43,1.746-0.892,2.171-1.386
			s0.638-1.07,0.638-1.729c0-0.723-0.259-1.298-0.773-1.724c-0.521-0.426-1.231-0.639-2.143-0.639c-0.894,0-1.594,0.215-2.102,0.645
			C366.551,30.441,366.297,31.016,366.297,31.73z"/>
		<path fill="#666666" d="M382.417,38.059c0-1.897,0.47-3.405,1.397-4.522c0.931-1.117,2.183-1.676,3.754-1.676
			c1.47,0,2.633,0.485,3.49,1.456c0.854,0.971,1.285,2.25,1.285,3.84v1.128h-8.104c0.036,1.382,0.39,2.432,1.049,3.147
			c0.664,0.716,1.602,1.074,2.807,1.074c1.264,0,2.513-0.265,3.748-0.795v1.59c-0.628,0.272-1.227,0.467-1.783,0.585
			c-0.563,0.118-1.237,0.177-2.03,0.177c-1.731,0-3.104-0.53-4.104-1.59C382.923,41.414,382.417,39.941,382.417,38.059z
			 M384.286,36.833h6.166c0-1.124-0.251-1.985-0.753-2.583s-1.219-0.897-2.148-0.897c-0.947,0-1.702,0.308-2.27,0.924
			C384.719,34.894,384.387,35.746,384.286,36.833z"/>
		<path fill="#666666" d="M394.663,34.968c0-0.961,0.394-1.719,1.169-2.275c0.779-0.556,1.853-0.833,3.208-0.833
			c1.264,0,2.492,0.258,3.695,0.773l-0.623,1.452c-1.178-0.488-2.244-0.732-3.201-0.732c-0.847,0-1.481,0.133-1.916,0.398
			c-0.431,0.265-0.646,0.632-0.646,1.098c0,0.316,0.081,0.585,0.242,0.808c0.161,0.223,0.422,0.434,0.777,0.635
			c0.358,0.201,1.051,0.492,2.066,0.872c1.396,0.51,2.335,1.023,2.816,1.54c0.479,0.517,0.723,1.167,0.723,1.949
			c0,1.09-0.406,1.931-1.219,2.522c-0.813,0.592-1.951,0.887-3.418,0.887c-1.563,0-2.774-0.243-3.646-0.73v-1.646
			c0.564,0.287,1.17,0.513,1.817,0.678c0.646,0.165,1.271,0.248,1.872,0.248c0.934,0,1.646-0.149,2.149-0.447
			c0.504-0.298,0.754-0.752,0.754-1.362c0-0.459-0.196-0.852-0.599-1.179c-0.396-0.327-1.175-0.712-2.33-1.158
			c-1.098-0.409-1.877-0.766-2.336-1.071c-0.46-0.305-0.802-0.651-1.022-1.039C394.775,35.968,394.663,35.506,394.663,34.968z"/>
		<path fill="#666666" d="M404.353,33.46v-0.859l1.686-0.741l0.753-2.514h1.03v2.729h3.416v1.386h-3.416v6.945
			c0,0.711,0.168,1.256,0.506,1.637c0.336,0.381,0.802,0.571,1.389,0.571c0.313,0,0.616-0.023,0.914-0.07
			c0.293-0.047,0.521-0.095,0.693-0.146v1.348c-0.189,0.092-0.478,0.167-0.854,0.228c-0.376,0.06-0.715,0.09-1.02,0.09
			c-2.273,0-3.416-1.199-3.416-3.599V33.46H404.353z"/>
		<path fill="#666666" d="M413.526,28.884c0-0.408,0.092-0.707,0.277-0.897c0.186-0.189,0.416-0.285,0.69-0.285
			c0.312,0,0.574,0.097,0.802,0.29c0.225,0.193,0.336,0.491,0.336,0.892c0,0.401-0.111,0.7-0.336,0.897
			c-0.228,0.197-0.49,0.295-0.802,0.295c-0.274,0-0.51-0.098-0.69-0.295C413.618,29.584,413.526,29.286,413.526,28.884z
			 M413.677,43.849V32.075h1.633v11.773L413.677,43.849L413.677,43.849z"/>
		<path fill="#666666" d="M419.241,43.849V32.075h1.449l0.291,1.59h0.086c0.336-0.566,0.813-1.009,1.423-1.327
			c0.612-0.319,1.298-0.478,2.062-0.478c1.84,0,3.043,0.659,3.605,1.978h0.086c0.354-0.609,0.859-1.091,1.525-1.446
			s1.424-0.532,2.277-0.532c1.332,0,2.324,0.342,2.987,1.026c0.662,0.684,0.993,1.778,0.993,3.282v7.681h-1.783v-7.675
			c0-0.94-0.196-1.645-0.602-2.115c-0.4-0.47-1.023-0.705-1.869-0.705c-1.105,0-1.93,0.319-2.459,0.958
			c-0.531,0.639-0.795,1.622-0.795,2.949v6.588h-1.783v-7.675c0-0.94-0.201-1.645-0.602-2.115c-0.402-0.47-1.028-0.705-1.881-0.705
			c-1.117,0-1.938,0.335-2.454,1.006c-0.521,0.671-0.777,1.771-0.777,3.299v6.189L419.241,43.849L419.241,43.849z"/>
		<path fill="#666666" d="M438.823,40.604c0-2.371,1.904-3.614,5.713-3.729l2-0.065v-0.739c0-0.935-0.193-1.625-0.595-2.071
			c-0.396-0.446-1.031-0.669-1.903-0.669c-0.979,0-2.088,0.305-3.32,0.914l-0.558-1.369c0.58-0.311,1.22-0.554,1.907-0.73
			c0.69-0.176,1.383-0.265,2.078-0.265c1.402,0,2.441,0.312,3.117,0.935s1.014,1.622,1.014,2.997v8.035h-1.316l-0.355-1.656h-0.086
			c-0.586,0.73-1.17,1.225-1.752,1.483c-0.584,0.259-1.313,0.388-2.187,0.388c-1.173,0-2.093-0.3-2.758-0.899
			C439.156,42.564,438.823,41.711,438.823,40.604z M440.718,40.626c0,0.648,0.191,1.141,0.585,1.479
			c0.39,0.338,0.935,0.507,1.635,0.507c1.108,0,1.979-0.306,2.61-0.917c0.633-0.612,0.945-1.468,0.945-2.569v-1.068l-1.775,0.075
			c-1.416,0.05-2.438,0.272-3.063,0.664C441.026,39.189,440.718,39.799,440.718,40.626z"/>
		<path fill="#666666" d="M450.385,33.46v-0.859l1.688-0.741l0.752-2.514h1.031v2.729h3.416v1.386h-3.416v6.945
			c0,0.711,0.168,1.256,0.504,1.637c0.337,0.381,0.799,0.571,1.387,0.571c0.314,0,0.619-0.023,0.912-0.07
			c0.294-0.047,0.527-0.095,0.699-0.146v1.348c-0.193,0.092-0.479,0.167-0.854,0.228c-0.378,0.06-0.718,0.09-1.019,0.09
			c-2.274,0-3.416-1.199-3.416-3.599V33.46H450.385z"/>
		<path fill="#666666" d="M459.052,38.059c0-1.897,0.465-3.405,1.396-4.522c0.935-1.117,2.188-1.676,3.754-1.676
			c1.475,0,2.638,0.485,3.49,1.456c0.856,0.971,1.285,2.25,1.285,3.84v1.128h-8.1c0.031,1.382,0.385,2.432,1.049,3.147
			c0.664,0.716,1.598,1.074,2.803,1.074c1.264,0,2.514-0.265,3.748-0.795v1.59c-0.628,0.272-1.223,0.467-1.783,0.585
			c-0.56,0.118-1.236,0.177-2.029,0.177c-1.731,0-3.104-0.53-4.104-1.59C459.552,41.414,459.052,39.941,459.052,38.059z
			 M460.925,36.833h6.166c0-1.124-0.252-1.985-0.754-2.583c-0.506-0.598-1.223-0.897-2.152-0.897c-0.947,0-1.701,0.308-2.27,0.924
			C461.352,34.894,461.02,35.746,460.925,36.833z"/>
	</g>
	<g>
		<rect x="96.537" y="354.104" fill="#F2C466" width="17.803" height="17.801"/>
		<path fill="#666666" d="M121.178,364.125c0-1.029,0.188-1.932,0.568-2.705c0.381-0.775,0.938-1.371,1.66-1.791
			c0.729-0.418,1.582-0.629,2.566-0.629c1.049,0,1.965,0.191,2.748,0.574l-0.492,0.998c-0.756-0.355-1.514-0.533-2.271-0.533
			c-1.098,0-1.965,0.367-2.6,1.098c-0.637,0.73-0.955,1.73-0.955,3.002c0,1.312,0.307,2.316,0.92,3.029
			c0.613,0.711,1.486,1.068,2.621,1.068c0.697,0,1.492-0.125,2.387-0.377v1.021c-0.689,0.265-1.547,0.396-2.563,0.396
			c-1.475,0-2.605-0.447-3.4-1.342C121.575,367.042,121.178,365.77,121.178,364.125z"/>
		<path fill="#666666" d="M129.942,365.379c0-1.219,0.305-2.17,0.913-2.85c0.605-0.68,1.454-1.021,2.535-1.021
			c1.046,0,1.876,0.35,2.487,1.043c0.616,0.697,0.928,1.641,0.928,2.826c0,1.225-0.311,2.18-0.924,2.865
			c-0.609,0.688-1.461,1.027-2.542,1.027c-0.669,0-1.262-0.154-1.775-0.474c-0.521-0.313-0.918-0.769-1.199-1.354
			C130.082,366.857,129.942,366.168,129.942,365.379z M131.104,365.379c0,0.959,0.188,1.689,0.575,2.191
			c0.383,0.504,0.943,0.754,1.688,0.754c0.743,0,1.313-0.25,1.694-0.75s0.578-1.232,0.578-2.195c0-0.955-0.193-1.68-0.578-2.176
			c-0.39-0.496-0.955-0.744-1.708-0.744c-0.744,0-1.31,0.244-1.688,0.734C131.293,363.682,131.104,364.411,131.104,365.379z"/>
		<path fill="#666666" d="M138.335,363.486c0-0.608,0.248-1.094,0.744-1.446s1.177-0.528,2.042-0.528
			c0.802,0,1.585,0.163,2.354,0.491l-0.396,0.925c-0.75-0.313-1.429-0.468-2.037-0.468c-0.539,0-0.941,0.086-1.22,0.254
			c-0.275,0.17-0.411,0.402-0.411,0.699c0,0.2,0.052,0.373,0.154,0.515c0.102,0.143,0.269,0.276,0.496,0.403
			c0.229,0.129,0.667,0.313,1.313,0.556c0.893,0.323,1.486,0.651,1.792,0.979c0.311,0.327,0.46,0.741,0.46,1.239
			c0,0.691-0.259,1.229-0.771,1.604c-0.521,0.375-1.241,0.563-2.175,0.563c-0.992,0-1.77-0.152-2.32-0.465v-1.047
			c0.355,0.182,0.745,0.325,1.156,0.432c0.408,0.105,0.81,0.156,1.188,0.156c0.594,0,1.05-0.095,1.37-0.283
			c0.319-0.188,0.479-0.479,0.479-0.863c0-0.293-0.131-0.543-0.384-0.75c-0.254-0.209-0.748-0.453-1.479-0.736
			c-0.699-0.262-1.194-0.486-1.487-0.684c-0.292-0.193-0.51-0.414-0.653-0.66C138.406,364.125,138.335,363.831,138.335,363.486z"/>
		<path fill="#666666" d="M144.502,362.527v-0.547l1.073-0.473l0.479-1.6h0.652v1.732h2.174v0.881h-2.174v4.422
			c0,0.451,0.107,0.801,0.321,1.039c0.214,0.242,0.508,0.363,0.882,0.363c0.2,0,0.396-0.015,0.581-0.043
			c0.188-0.031,0.335-0.062,0.444-0.095v0.856c-0.123,0.06-0.309,0.105-0.543,0.146c-0.24,0.037-0.455,0.058-0.646,0.058
			c-1.449,0-2.174-0.765-2.174-2.291v-4.457H144.5L144.502,362.527L144.502,362.527z"/>
		<path fill="#666666" d="M154.072,369.139v-7.492h0.923l0.188,1.017h0.055c0.229-0.365,0.559-0.646,0.978-0.853
			c0.42-0.201,0.891-0.301,1.401-0.301c0.902,0,1.581,0.217,2.037,0.652s0.684,1.131,0.684,2.088v4.889h-1.135v-4.854
			c0-0.611-0.139-1.068-0.417-1.369c-0.278-0.304-0.713-0.453-1.306-0.453c-0.784,0-1.358,0.213-1.727,0.639
			c-0.361,0.426-0.547,1.127-0.547,2.104v3.938h-1.135V369.139L154.072,369.139z"/>
		<path fill="#666666" d="M162.248,365.379c0-1.219,0.309-2.17,0.913-2.85c0.609-0.68,1.454-1.021,2.535-1.021
			c1.046,0,1.876,0.35,2.491,1.043c0.616,0.697,0.924,1.641,0.924,2.826c0,1.225-0.307,2.18-0.92,2.865
			c-0.613,0.685-1.461,1.027-2.542,1.027c-0.669,0-1.262-0.154-1.779-0.474c-0.518-0.313-0.918-0.769-1.199-1.354
			C162.388,366.857,162.248,366.168,162.248,365.379z M163.41,365.379c0,0.959,0.191,1.689,0.575,2.191
			c0.383,0.504,0.947,0.754,1.688,0.754c0.743,0,1.313-0.25,1.694-0.75s0.578-1.232,0.578-2.195c0-0.955-0.193-1.68-0.578-2.176
			c-0.386-0.496-0.955-0.744-1.708-0.744c-0.744,0-1.306,0.244-1.685,0.734C163.599,363.682,163.41,364.411,163.41,365.379z"/>
		<path fill="#666666" d="M171.12,369.139v-7.492h0.923l0.188,1.017h0.055c0.232-0.365,0.561-0.646,0.979-0.853
			c0.419-0.201,0.887-0.301,1.397-0.301c0.902,0,1.581,0.217,2.037,0.652s0.684,1.131,0.684,2.088v4.889h-1.135v-4.854
			c0-0.611-0.139-1.068-0.417-1.369c-0.274-0.304-0.713-0.453-1.306-0.453c-0.784,0-1.358,0.213-1.724,0.639
			c-0.364,0.426-0.55,1.127-0.55,2.104v3.938h-1.135L171.12,369.139L171.12,369.139z"/>
		<path fill="#666666" d="M179.085,365.904v-1.038h3.356v1.038H179.085z"/>
		<path fill="#666666" d="M183.213,362.527v-0.512l1.344-0.41v-0.416c0-1.834,0.805-2.75,2.409-2.75
			c0.396,0,0.861,0.078,1.396,0.234l-0.294,0.898c-0.438-0.145-0.813-0.213-1.121-0.213c-0.429,0-0.745,0.145-0.95,0.428
			c-0.205,0.285-0.308,0.742-0.308,1.371v0.482h1.907v0.881h-1.907v6.611h-1.135v-6.611h-1.344L183.213,362.527L183.213,362.527z"/>
		<path fill="#666666" d="M188.401,367.075c0-1.511,1.212-2.302,3.635-2.373l1.273-0.041v-0.472c0-0.596-0.126-1.032-0.379-1.317
			c-0.252-0.283-0.656-0.426-1.211-0.426c-0.623,0-1.328,0.192-2.115,0.581l-0.354-0.87c0.369-0.197,0.773-0.354,1.213-0.466
			c0.44-0.11,0.885-0.168,1.323-0.168c0.896,0,1.554,0.197,1.983,0.595c0.431,0.396,0.646,1.032,0.646,1.907v5.113h-0.841
			l-0.226-1.057h-0.059c-0.373,0.465-0.745,0.779-1.113,0.939c-0.369,0.166-0.835,0.248-1.391,0.248
			c-0.747,0-1.332-0.188-1.755-0.568C188.613,368.32,188.401,367.777,188.401,367.075z M189.604,367.088
			c0,0.412,0.124,0.727,0.372,0.941c0.248,0.214,0.595,0.322,1.04,0.322c0.705,0,1.259-0.193,1.662-0.584
			c0.398-0.392,0.604-0.937,0.604-1.638v-0.68l-1.133,0.049c-0.9,0.031-1.55,0.172-1.948,0.422
			C189.803,366.174,189.604,366.563,189.604,367.088z"/>
		<path fill="#666666" d="M195.758,362.527v-0.547l1.073-0.473l0.479-1.6h0.652v1.732h2.178v0.881h-2.178v4.422
			c0,0.451,0.107,0.801,0.321,1.039c0.214,0.242,0.508,0.363,0.882,0.363c0.2,0,0.396-0.015,0.581-0.043
			c0.188-0.031,0.335-0.062,0.444-0.095v0.856c-0.123,0.06-0.305,0.105-0.543,0.146c-0.24,0.037-0.455,0.058-0.646,0.058
			c-1.445,0-2.174-0.765-2.174-2.291v-4.457h-1.073L195.758,362.527L195.758,362.527z"/>
		<path fill="#666666" d="M201.13,367.075c0-1.511,1.212-2.302,3.639-2.373l1.271-0.041v-0.472c0-0.596-0.126-1.032-0.379-1.317
			c-0.252-0.283-0.656-0.426-1.211-0.426c-0.623,0-1.328,0.192-2.115,0.581l-0.353-0.87c0.369-0.197,0.771-0.354,1.213-0.466
			c0.438-0.11,0.881-0.168,1.323-0.168c0.893,0,1.554,0.197,1.979,0.595c0.435,0.396,0.646,1.032,0.646,1.907v5.113h-0.843
			l-0.228-1.057h-0.055c-0.373,0.465-0.745,0.779-1.115,0.939c-0.371,0.166-0.834,0.248-1.389,0.248
			c-0.747,0-1.332-0.188-1.757-0.568C201.342,368.32,201.13,367.777,201.13,367.075z M202.333,367.088
			c0,0.412,0.124,0.727,0.372,0.941c0.248,0.214,0.595,0.322,1.04,0.322c0.705,0,1.259-0.193,1.662-0.584
			c0.402-0.392,0.604-0.937,0.604-1.638v-0.68l-1.137,0.049c-0.896,0.031-1.55,0.172-1.944,0.422
			C202.532,366.174,202.333,366.563,202.333,367.088z"/>
		<path fill="#666666" d="M209.477,369.139v-10.637h1.135v10.637H209.477z"/>
		<path fill="#666666" d="M216.238,365.439c0-1.254,0.3-2.223,0.899-2.903c0.599-0.685,1.457-1.024,2.569-1.024
			c0.36,0,0.724,0.038,1.08,0.114c0.36,0.078,0.646,0.17,0.852,0.272l-0.353,0.966c-0.251-0.103-0.521-0.185-0.816-0.25
			c-0.3-0.066-0.563-0.101-0.786-0.101c-1.522,0-2.283,0.971-2.283,2.91c0,0.922,0.186,1.627,0.558,2.119
			c0.371,0.492,0.921,0.738,1.65,0.738c0.624,0,1.265-0.137,1.921-0.402v1.004c-0.501,0.262-1.133,0.393-1.894,0.393
			c-1.089,0-1.926-0.334-2.516-1.002S216.238,366.663,216.238,365.439z"/>
		<path fill="#666666" d="M222.759,367.075c0-1.511,1.216-2.302,3.639-2.373l1.271-0.041v-0.472c0-0.596-0.126-1.032-0.379-1.317
			c-0.252-0.283-0.656-0.426-1.211-0.426c-0.623,0-1.328,0.192-2.115,0.581l-0.353-0.87c0.369-0.197,0.771-0.354,1.213-0.466
			c0.441-0.11,0.881-0.168,1.323-0.168c0.893,0,1.554,0.197,1.979,0.595c0.435,0.396,0.646,1.032,0.646,1.907v5.113h-0.841
			l-0.229-1.057h-0.055c-0.373,0.465-0.745,0.779-1.115,0.939c-0.371,0.166-0.834,0.248-1.389,0.248
			c-0.747,0-1.332-0.188-1.755-0.568C222.97,368.32,222.759,367.777,222.759,367.075z M223.962,367.088
			c0,0.412,0.124,0.727,0.372,0.941c0.248,0.214,0.599,0.322,1.04,0.322c0.705,0,1.259-0.193,1.662-0.584
			c0.402-0.392,0.604-0.937,0.604-1.638v-0.68l-1.137,0.049c-0.896,0.031-1.55,0.172-1.944,0.422
			C224.161,366.174,223.962,366.563,223.962,367.088z"/>
		<path fill="#666666" d="M230.628,363.486c0-0.608,0.248-1.094,0.744-1.446s1.177-0.528,2.042-0.528
			c0.802,0,1.585,0.163,2.354,0.491l-0.396,0.925c-0.75-0.313-1.429-0.468-2.037-0.468c-0.539,0-0.941,0.086-1.22,0.254
			c-0.275,0.17-0.411,0.402-0.411,0.699c0,0.2,0.052,0.373,0.154,0.515c0.102,0.143,0.269,0.276,0.496,0.403
			c0.229,0.129,0.667,0.313,1.313,0.556c0.893,0.323,1.486,0.651,1.792,0.979c0.311,0.327,0.46,0.741,0.46,1.239
			c0,0.691-0.259,1.229-0.771,1.604c-0.521,0.375-1.241,0.563-2.175,0.563c-0.992,0-1.77-0.152-2.32-0.465v-1.047
			c0.355,0.182,0.745,0.325,1.156,0.432c0.409,0.105,0.81,0.156,1.188,0.156c0.594,0,1.05-0.095,1.37-0.283
			c0.319-0.188,0.479-0.479,0.479-0.863c0-0.293-0.127-0.543-0.384-0.75c-0.254-0.209-0.748-0.453-1.479-0.736
			c-0.699-0.262-1.194-0.486-1.487-0.684c-0.292-0.193-0.51-0.414-0.652-0.66C230.699,364.125,230.628,363.831,230.628,363.486z"/>
		<path fill="#666666" d="M237.367,365.454c0-1.207,0.297-2.166,0.89-2.877c0.597-0.711,1.393-1.066,2.393-1.066
			c0.936,0,1.676,0.31,2.221,0.927s0.817,1.436,0.817,2.442v0.72h-5.154c0.021,0.879,0.245,1.547,0.668,2.002
			c0.422,0.457,1.017,0.688,1.783,0.688c0.805,0,1.6-0.168,2.386-0.51v1.016c-0.398,0.174-0.778,0.297-1.135,0.373
			c-0.357,0.074-0.787,0.109-1.292,0.109c-1.104,0-1.979-0.338-2.614-1.012C237.686,367.59,237.367,366.652,237.367,365.454z
			 M238.556,364.674h3.924c0-0.715-0.16-1.264-0.479-1.645c-0.315-0.379-0.772-0.57-1.369-0.57c-0.603,0-1.083,0.195-1.438,0.588
			C238.832,363.439,238.62,363.98,238.556,364.674z"/>
		<path fill="#666666" d="M245.161,363.486c0-0.608,0.248-1.094,0.744-1.446s1.177-0.528,2.042-0.528
			c0.802,0,1.585,0.163,2.351,0.491l-0.396,0.925c-0.75-0.313-1.429-0.468-2.037-0.468c-0.539,0-0.945,0.086-1.22,0.254
			c-0.275,0.17-0.411,0.402-0.411,0.699c0,0.2,0.052,0.373,0.154,0.515c0.102,0.143,0.269,0.276,0.492,0.403
			c0.229,0.129,0.668,0.313,1.315,0.556c0.889,0.323,1.486,0.651,1.792,0.979c0.307,0.327,0.46,0.741,0.46,1.239
			c0,0.691-0.259,1.229-0.771,1.604c-0.521,0.375-1.241,0.563-2.179,0.563c-0.988,0-1.766-0.152-2.316-0.465v-1.047
			c0.355,0.182,0.745,0.325,1.152,0.432c0.412,0.104,0.813,0.156,1.191,0.156c0.594,0,1.05-0.095,1.37-0.283
			c0.315-0.188,0.479-0.479,0.479-0.863c0-0.293-0.127-0.543-0.38-0.75c-0.254-0.209-0.748-0.453-1.479-0.736
			c-0.699-0.262-1.194-0.486-1.487-0.684c-0.292-0.193-0.51-0.414-0.653-0.66C245.232,364.125,245.161,363.831,245.161,363.486z"/>
	</g>
	<g>
		<rect x="291.081" y="354.02" fill="#449FA2" width="17.807" height="17.808"/>
		<path fill="#666666" d="M316.556,364.208c0-1.028,0.188-1.933,0.572-2.705c0.381-0.774,0.934-1.371,1.656-1.791
			c0.729-0.418,1.582-0.629,2.566-0.629c1.049,0,1.965,0.19,2.748,0.574l-0.492,0.998c-0.756-0.355-1.512-0.533-2.27-0.533
			c-1.102,0-1.968,0.364-2.604,1.099c-0.637,0.729-0.955,1.729-0.955,3.002c0,1.309,0.311,2.315,0.92,3.028
			c0.613,0.711,1.486,1.067,2.621,1.067c0.697,0,1.492-0.125,2.391-0.377v1.021c-0.693,0.264-1.55,0.395-2.564,0.395
			c-1.471,0-2.604-0.446-3.4-1.342C316.954,367.124,316.556,365.854,316.556,364.208z"/>
		<path fill="#666666" d="M325.321,365.461c0-1.219,0.309-2.17,0.913-2.85c0.609-0.68,1.454-1.021,2.535-1.021
			c1.046,0,1.876,0.35,2.491,1.043c0.616,0.697,0.924,1.641,0.924,2.826c0,1.225-0.307,2.18-0.92,2.865
			c-0.613,0.685-1.461,1.027-2.542,1.027c-0.669,0-1.262-0.156-1.779-0.474c-0.518-0.313-0.918-0.769-1.199-1.354
			C325.465,366.939,325.321,366.25,325.321,365.461z M326.483,365.461c0,0.959,0.191,1.689,0.575,2.191
			c0.383,0.504,0.947,0.754,1.688,0.754c0.743,0,1.313-0.25,1.694-0.75s0.578-1.232,0.578-2.195c0-0.955-0.193-1.68-0.578-2.176
			c-0.386-0.496-0.955-0.744-1.708-0.744c-0.744,0-1.306,0.244-1.685,0.734C326.676,363.764,326.483,364.493,326.483,365.461z"/>
		<path fill="#666666" d="M333.718,363.568c0-0.608,0.248-1.094,0.74-1.446c0.496-0.354,1.181-0.529,2.045-0.529
			c0.803,0,1.585,0.164,2.352,0.492l-0.396,0.924c-0.75-0.311-1.429-0.467-2.033-0.467c-0.539,0-0.945,0.086-1.224,0.254
			c-0.271,0.17-0.411,0.402-0.411,0.699c0,0.2,0.056,0.373,0.154,0.514c0.104,0.144,0.271,0.277,0.496,0.404
			c0.229,0.129,0.667,0.313,1.315,0.555c0.889,0.324,1.482,0.652,1.792,0.98c0.307,0.327,0.46,0.741,0.46,1.239
			c0,0.691-0.263,1.229-0.775,1.604c-0.517,0.375-1.241,0.563-2.175,0.563c-0.992,0-1.77-0.152-2.32-0.465v-1.048
			c0.359,0.183,0.745,0.326,1.156,0.433c0.412,0.104,0.81,0.156,1.188,0.156c0.598,0,1.054-0.095,1.37-0.283
			c0.319-0.188,0.479-0.479,0.479-0.863c0-0.293-0.127-0.543-0.38-0.75c-0.254-0.209-0.748-0.453-1.483-0.736
			c-0.699-0.262-1.194-0.486-1.487-0.684c-0.292-0.193-0.51-0.414-0.649-0.66C333.786,364.208,333.718,363.913,333.718,363.568z"/>
		<path fill="#666666" d="M339.885,362.609v-0.547l1.069-0.473l0.479-1.6h0.656v1.732h2.174v0.881h-2.174v4.42
			c0,0.453,0.104,0.803,0.317,1.041c0.214,0.242,0.512,0.363,0.885,0.363c0.197,0,0.396-0.015,0.578-0.043
			c0.188-0.031,0.335-0.062,0.444-0.095v0.856c-0.123,0.06-0.305,0.105-0.543,0.146c-0.24,0.037-0.455,0.058-0.646,0.058
			c-1.449,0-2.178-0.765-2.178-2.291v-4.457h-1.069v0.004h0.004v0.004H339.885z"/>
		<path fill="#666666" d="M348.446,362.609v-0.512l1.34-0.41v-0.416c0-1.834,0.809-2.75,2.413-2.75c0.396,0,0.861,0.078,1.396,0.234
			l-0.294,0.898c-0.438-0.145-0.813-0.215-1.121-0.215c-0.429,0-0.745,0.146-0.95,0.43c-0.205,0.285-0.308,0.738-0.308,1.371v0.482
			h1.903v0.881h-1.903v6.61h-1.139v-6.61h-1.34L348.446,362.609L348.446,362.609z"/>
		<path fill="#666666" d="M353.635,367.157c0-1.511,1.212-2.302,3.635-2.373l1.273-0.041v-0.472c0-0.598-0.126-1.032-0.383-1.317
			c-0.252-0.283-0.652-0.427-1.211-0.427c-0.623,0-1.328,0.193-2.111,0.582l-0.354-0.87c0.369-0.197,0.773-0.354,1.213-0.466
			c0.44-0.11,0.881-0.168,1.323-0.168c0.893,0,1.554,0.197,1.983,0.595c0.431,0.396,0.646,1.032,0.646,1.907v5.113h-0.841
			l-0.229-1.057h-0.056c-0.373,0.465-0.745,0.775-1.115,0.939c-0.367,0.166-0.834,0.248-1.389,0.248
			c-0.747,0-1.332-0.188-1.755-0.568C353.846,368.402,353.635,367.859,353.635,367.157z M354.841,367.17
			c0,0.412,0.124,0.727,0.372,0.941c0.248,0.214,0.595,0.322,1.036,0.322c0.705,0,1.263-0.193,1.662-0.584
			c0.402-0.392,0.604-0.937,0.604-1.638v-0.68l-1.133,0.049c-0.9,0.03-1.552,0.172-1.948,0.422
			C355.036,366.254,354.841,366.645,354.841,367.17z"/>
		<path fill="#666666" d="M360.99,362.609v-0.547l1.073-0.473l0.479-1.6h0.656v1.732h2.174v0.881h-2.174v4.42
			c0,0.453,0.107,0.803,0.321,1.041c0.214,0.242,0.508,0.363,0.882,0.363c0.2,0,0.396-0.015,0.581-0.043
			c0.188-0.031,0.335-0.062,0.444-0.095v0.856c-0.123,0.06-0.309,0.105-0.543,0.146c-0.24,0.037-0.455,0.058-0.646,0.058
			c-1.449,0-2.174-0.765-2.174-2.291v-4.457h-1.073V362.609z"/>
		<path fill="#666666" d="M366.363,367.157c0-1.511,1.212-2.302,3.635-2.373l1.273-0.041v-0.472c0-0.598-0.126-1.032-0.379-1.317
			c-0.252-0.283-0.656-0.427-1.211-0.427c-0.623,0-1.328,0.193-2.115,0.582l-0.353-0.87c0.369-0.197,0.771-0.354,1.213-0.466
			c0.438-0.11,0.881-0.168,1.323-0.168c0.893,0,1.554,0.197,1.979,0.595c0.431,0.396,0.646,1.032,0.646,1.907v5.113h-0.845
			l-0.226-1.057h-0.055c-0.373,0.465-0.745,0.775-1.115,0.939c-0.371,0.166-0.834,0.248-1.39,0.248
			c-0.746,0-1.331-0.188-1.758-0.568C366.574,368.402,366.363,367.859,366.363,367.157z M367.566,367.17
			c0,0.412,0.124,0.727,0.372,0.941c0.248,0.214,0.595,0.322,1.04,0.322c0.705,0,1.259-0.193,1.662-0.584
			c0.402-0.392,0.604-0.937,0.604-1.638v-0.68l-1.133,0.049c-0.896,0.03-1.55,0.172-1.948,0.422
			C367.765,366.256,367.566,366.645,367.566,367.17z"/>
		<path fill="#666666" d="M374.714,369.221v-10.637h1.135v10.637H374.714z"/>
		<path fill="#666666" d="M381.471,365.521c0-1.254,0.3-2.223,0.896-2.903c0.603-0.685,1.457-1.025,2.573-1.025
			c0.36,0,0.72,0.039,1.08,0.115c0.36,0.078,0.643,0.17,0.848,0.272l-0.349,0.965c-0.251-0.104-0.524-0.186-0.82-0.25
			c-0.296-0.065-0.559-0.102-0.786-0.102c-1.521,0-2.279,0.973-2.279,2.912c0,0.92,0.186,1.627,0.558,2.119
			c0.371,0.492,0.921,0.736,1.65,0.736c0.624,0,1.265-0.135,1.921-0.4v1.004c-0.501,0.262-1.133,0.393-1.896,0.393
			c-1.085,0-1.922-0.334-2.512-1.002S381.471,366.745,381.471,365.521z"/>
		<path fill="#666666" d="M387.991,367.157c0-1.511,1.212-2.302,3.639-2.373l1.271-0.041v-0.472c0-0.598-0.127-1.032-0.379-1.317
			c-0.252-0.283-0.656-0.427-1.211-0.427c-0.623,0-1.329,0.193-2.116,0.582l-0.353-0.87c0.369-0.197,0.771-0.354,1.213-0.466
			c0.438-0.11,0.88-0.168,1.324-0.168c0.893,0,1.553,0.197,1.979,0.595c0.436,0.396,0.646,1.032,0.646,1.907v5.113h-0.846
			l-0.225-1.057h-0.055c-0.373,0.465-0.746,0.775-1.115,0.939c-0.371,0.166-0.834,0.248-1.39,0.248
			c-0.747,0-1.332-0.188-1.758-0.568C388.203,368.402,387.991,367.859,387.991,367.157z M389.195,367.17
			c0,0.412,0.124,0.727,0.372,0.941c0.248,0.214,0.595,0.322,1.041,0.322c0.705,0,1.258-0.193,1.662-0.584
			c0.402-0.392,0.604-0.937,0.604-1.638v-0.68l-1.133,0.049c-0.896,0.03-1.55,0.172-1.949,0.422
			C389.394,366.256,389.195,366.645,389.195,367.17z"/>
		<path fill="#666666" d="M395.861,363.568c0-0.608,0.248-1.094,0.744-1.446s1.176-0.529,2.041-0.529
			c0.803,0,1.586,0.164,2.352,0.492l-0.396,0.924c-0.75-0.311-1.428-0.467-2.037-0.467c-0.539,0-0.945,0.086-1.219,0.254
			c-0.275,0.17-0.412,0.402-0.412,0.699c0,0.2,0.053,0.373,0.154,0.514c0.104,0.144,0.27,0.277,0.496,0.404
			c0.229,0.129,0.668,0.313,1.313,0.555c0.889,0.324,1.486,0.652,1.791,0.98c0.307,0.327,0.461,0.741,0.461,1.239
			c0,0.691-0.26,1.229-0.771,1.604c-0.521,0.375-1.242,0.563-2.18,0.563c-0.99,0-1.766-0.152-2.316-0.465v-1.048
			c0.355,0.183,0.746,0.326,1.152,0.433c0.412,0.104,0.813,0.156,1.191,0.156c0.594,0,1.051-0.095,1.371-0.283
			c0.314-0.188,0.479-0.479,0.479-0.863c0-0.293-0.127-0.543-0.379-0.75c-0.254-0.209-0.748-0.453-1.48-0.736
			c-0.699-0.262-1.193-0.486-1.486-0.684s-0.51-0.414-0.654-0.66C395.931,364.208,395.861,363.913,395.861,363.568z"/>
		<path fill="#666666" d="M402.599,365.536c0-1.207,0.297-2.166,0.891-2.877c0.592-0.711,1.393-1.066,2.393-1.066
			c0.936,0,1.676,0.31,2.221,0.927c0.545,0.616,0.816,1.436,0.816,2.442v0.72h-5.154c0.021,0.879,0.246,1.547,0.668,2.002
			c0.422,0.457,1.018,0.688,1.783,0.688c0.805,0,1.6-0.168,2.387-0.51v1.016c-0.4,0.174-0.779,0.297-1.135,0.373
			c-0.357,0.074-0.787,0.109-1.293,0.109c-1.105,0-1.979-0.338-2.613-1.012C402.924,367.672,402.599,366.734,402.599,365.536z
			 M403.789,364.756h3.928c0-0.715-0.16-1.264-0.48-1.645c-0.32-0.379-0.776-0.57-1.369-0.57c-0.604,0-1.084,0.195-1.438,0.588
			C404.064,363.521,403.853,364.063,403.789,364.756z"/>
		<path fill="#666666" d="M410.393,363.568c0-0.608,0.248-1.094,0.744-1.446s1.176-0.529,2.041-0.529
			c0.803,0,1.586,0.164,2.352,0.492l-0.396,0.924c-0.749-0.311-1.432-0.467-2.036-0.467c-0.539,0-0.945,0.086-1.219,0.254
			c-0.275,0.17-0.412,0.402-0.412,0.699c0,0.2,0.053,0.373,0.149,0.514c0.105,0.144,0.271,0.277,0.496,0.404
			c0.23,0.129,0.668,0.313,1.316,0.555c0.889,0.324,1.483,0.652,1.791,0.98c0.307,0.327,0.461,0.741,0.461,1.239
			c0,0.691-0.26,1.229-0.775,1.604c-0.518,0.375-1.237,0.563-2.176,0.563c-0.992,0-1.766-0.152-2.32-0.465v-1.048
			c0.359,0.183,0.746,0.326,1.156,0.433c0.412,0.104,0.813,0.156,1.191,0.156c0.594,0,1.051-0.095,1.371-0.283
			c0.315-0.188,0.479-0.479,0.479-0.863c0-0.293-0.127-0.543-0.379-0.75c-0.254-0.209-0.748-0.453-1.484-0.736
			c-0.694-0.262-1.188-0.486-1.481-0.684s-0.51-0.414-0.654-0.66C410.469,364.208,410.393,363.913,410.393,363.568z"/>
	</g>
	<g id="more">
		<circle id="more3" fill="none" stroke="#67ABAD" stroke-miterlimit="10" cx="495.515" cy="12.711" r="9.439"/>
		<rect id="more2" x="494.815" y="8.679" fill="#67ABAD" width="1.292" height="8.122"/>
		<rect id="more1" x="491.4" y="12.094" fill="#67ABAD" width="8.122" height="1.292"/>
	</g>
</g>
</svg>
