<?xml version="1.0" encoding="utf-8"?>
<!-- Generator: Adobe Illustrator 16.0.0, SVG Export Plug-In . SVG Version: 6.00 Build 0)  -->
<!DOCTYPE svg PUBLIC "-//W3C//DTD SVG 1.1//EN" "http://www.w3.org/Graphics/SVG/1.1/DTD/svg11.dtd">
<svg version="1.1" id="Capa_1" xmlns="http://www.w3.org/2000/svg" xmlns:xlink="http://www.w3.org/1999/xlink" x="0px" y="0px"
	 width="291.969px" height="850.394px" viewBox="0 0 291.969 850.394" enable-background="new 0 0 291.969 850.394"
	 xml:space="preserve">
<g id="global-estimates">
	<g>
		<rect x="125.494" y="216.192" fill="#199598" width="100.491" height="122.966"/>
		<rect x="125.494" y="91.127" fill="#DD9B2B" width="100.491" height="125.064"/>
	</g>
	<g>
		<path fill="#666565" d="M65.295,44.802c0-1.549,0.313-2.906,0.934-4.071s1.521-2.055,2.688-2.67
			c1.168-0.615,2.537-0.922,4.104-0.922c1.59,0,3.07,0.292,4.443,0.876l-0.672,1.529c-1.351-0.571-2.646-0.856-3.888-0.856
			c-1.813,0-3.229,0.54-4.25,1.62c-1.02,1.08-1.524,2.578-1.524,4.494c0,2.018,0.492,3.548,1.475,4.591
			c0.98,1.043,2.422,1.564,4.324,1.564c1.033,0,2.043-0.12,3.027-0.358v-4.604h-3.332v-1.549h5.063v7.255
			c-0.787,0.248-1.59,0.436-2.401,0.563c-0.814,0.127-1.763,0.191-2.836,0.191c-2.255,0-4.013-0.67-5.269-2.012
			C65.922,49.101,65.295,47.221,65.295,44.802z"/>
		<path fill="#666565" d="M81.008,52.251V36.395h1.688v15.856H81.008z"/>
		<path fill="#666565" d="M85.666,46.647c0-1.817,0.455-3.233,1.356-4.247c0.908-1.014,2.168-1.521,3.779-1.521
			c1.559,0,2.797,0.519,3.715,1.556c0.916,1.038,1.375,2.441,1.375,4.211c0,1.824-0.457,3.248-1.371,4.272
			c-0.916,1.024-2.18,1.536-3.791,1.536c-0.996,0-1.879-0.234-2.647-0.704c-0.771-0.47-1.367-1.144-1.787-2.021
			S85.666,47.824,85.666,46.647z M87.398,46.647c0,1.43,0.285,2.52,0.855,3.269c0.572,0.749,1.412,1.124,2.521,1.124
			c1.109,0,1.951-0.373,2.525-1.119c0.576-0.746,0.863-1.837,0.863-3.273c0-1.423-0.289-2.504-0.863-3.243
			c-0.572-0.739-1.424-1.108-2.545-1.108c-1.109,0-1.945,0.364-2.51,1.093C87.68,44.117,87.398,45.203,87.398,46.647z"/>
		<path fill="#666565" d="M98.893,52.251V36.395h1.691v3.852c0,0.863-0.027,1.637-0.082,2.323h0.082
			c0.787-1.114,1.957-1.671,3.506-1.671c1.459,0,2.596,0.501,3.4,1.503c0.811,1.002,1.215,2.42,1.215,4.254
			s-0.408,3.259-1.228,4.274c-0.813,1.016-1.94,1.523-3.395,1.523c-0.729,0-1.396-0.134-1.992-0.402
			c-0.603-0.268-1.105-0.681-1.514-1.238h-0.119l-0.355,1.437L98.893,52.251L98.893,52.251z M100.584,46.657
			c0,1.569,0.262,2.692,0.785,3.368c0.521,0.676,1.358,1.014,2.518,1.014c1.039,0,1.813-0.379,2.322-1.136
			c0.51-0.758,0.766-1.846,0.766-3.266c0-1.454-0.256-2.538-0.766-3.251c-0.51-0.713-1.297-1.07-2.363-1.07
			c-1.154,0-1.986,0.331-2.498,0.994C100.838,43.971,100.584,45.088,100.584,46.657z"/>
		<path fill="#666565" d="M110.846,49.175c0-2.25,1.807-3.429,5.418-3.537l1.898-0.062v-0.702c0-0.887-0.188-1.542-0.564-1.965
			c-0.376-0.423-0.979-0.634-1.807-0.634c-0.933,0-1.979,0.289-3.152,0.866l-0.525-1.298c0.554-0.294,1.152-0.525,1.813-0.692
			S115.24,40.9,115.9,40.9c1.33,0,2.314,0.295,2.957,0.887c0.644,0.591,0.961,1.539,0.961,2.843v7.622h-1.252l-0.336-1.571h-0.082
			c-0.557,0.693-1.108,1.162-1.664,1.407c-0.553,0.246-1.239,0.368-2.067,0.368c-1.109,0-1.982-0.284-2.613-0.853
			C111.162,51.033,110.846,50.224,110.846,49.175z M112.639,49.195c0,0.615,0.188,1.082,0.555,1.403
			c0.369,0.321,0.892,0.481,1.556,0.481c1.051,0,1.875-0.29,2.477-0.87c0.603-0.581,0.9-1.393,0.9-2.437v-1.014l-1.688,0.071
			c-1.344,0.048-2.313,0.258-2.901,0.63C112.938,47.831,112.639,48.41,112.639,49.195z"/>
		<path fill="#666565" d="M123.289,52.251V36.395h1.688v15.856H123.289z"/>
		<path fill="#666565" d="M133.365,46.758c0-1.8,0.44-3.23,1.323-4.29c0.888-1.06,2.07-1.589,3.563-1.589
			c1.396,0,2.498,0.46,3.313,1.38c0.813,0.921,1.225,2.135,1.225,3.643v1.07h-7.687c0.033,1.311,0.365,2.306,0.994,2.985
			c0.629,0.68,1.519,1.019,2.658,1.019c1.199,0,2.387-0.251,3.559-0.754v1.508c-0.598,0.258-1.157,0.443-1.688,0.555
			c-0.531,0.112-1.175,0.168-1.927,0.168c-1.646,0-2.942-0.502-3.896-1.508C133.842,49.942,133.365,48.546,133.365,46.758z
			 M135.139,45.597h5.849c0-1.066-0.232-1.883-0.715-2.451c-0.479-0.567-1.152-0.851-2.041-0.851c-0.896,0-1.611,0.292-2.146,0.876
			C135.549,43.756,135.234,44.564,135.139,45.597z"/>
		<path fill="#666565" d="M144.982,43.827c0-0.911,0.371-1.63,1.106-2.158c0.74-0.527,1.757-0.791,3.043-0.791
			c1.195,0,2.363,0.244,3.509,0.733l-0.595,1.377c-1.112-0.463-2.129-0.695-3.034-0.695c-0.806,0-1.408,0.126-1.816,0.378
			c-0.403,0.251-0.608,0.599-0.608,1.042c0,0.3,0.076,0.555,0.229,0.766c0.149,0.211,0.396,0.412,0.74,0.603
			c0.34,0.191,0.991,0.467,1.961,0.828c1.319,0.483,2.215,0.97,2.67,1.46c0.457,0.49,0.688,1.104,0.688,1.849
			c0,1.034-0.39,1.832-1.156,2.393c-0.771,0.561-1.852,0.841-3.242,0.841c-1.479,0-2.631-0.23-3.457-0.693v-1.559
			c0.535,0.272,1.109,0.487,1.729,0.644c0.609,0.157,1.203,0.235,1.771,0.235c0.885,0,1.564-0.141,2.043-0.424
			c0.479-0.283,0.715-0.713,0.715-1.292c0-0.438-0.188-0.809-0.563-1.119c-0.379-0.31-1.114-0.676-2.211-1.098
			c-1.043-0.388-1.781-0.727-2.225-1.017c-0.436-0.29-0.76-0.618-0.975-0.986C145.088,44.777,144.982,44.338,144.982,43.827z"/>
		<path fill="#666565" d="M154.174,42.397v-0.815l1.6-0.703l0.713-2.385h0.979v2.588h3.24v1.314h-3.24v6.588
			c0,0.674,0.16,1.191,0.479,1.552c0.318,0.361,0.762,0.542,1.313,0.542c0.303,0,0.59-0.022,0.867-0.066
			c0.271-0.044,0.498-0.09,0.662-0.138v1.278c-0.188,0.087-0.453,0.159-0.813,0.216c-0.354,0.057-0.68,0.085-0.963,0.085
			c-2.16,0-3.24-1.138-3.24-3.414v-6.644h-1.602L154.174,42.397L154.174,42.397z"/>
		<path fill="#666565" d="M162.877,38.056c0-0.387,0.088-0.671,0.264-0.851c0.176-0.18,0.396-0.27,0.658-0.27
			c0.293,0,0.545,0.092,0.758,0.275c0.213,0.184,0.318,0.466,0.318,0.846c0,0.38-0.105,0.664-0.318,0.851
			c-0.213,0.187-0.465,0.28-0.758,0.28c-0.266,0-0.482-0.093-0.658-0.28C162.965,38.72,162.877,38.437,162.877,38.056z
			 M163.02,52.251V41.083h1.549v11.168H163.02z"/>
		<path fill="#666565" d="M168.297,52.251V41.083h1.375l0.271,1.509h0.082c0.318-0.537,0.771-0.957,1.354-1.259
			s1.229-0.453,1.953-0.453c1.746,0,2.887,0.625,3.424,1.876h0.082c0.332-0.579,0.813-1.036,1.445-1.372
			c0.632-0.336,1.354-0.504,2.157-0.504c1.269,0,2.209,0.324,2.838,0.973c0.634,0.648,0.943,1.687,0.943,3.113v7.286h-1.688v-7.281
			c0-0.892-0.189-1.561-0.57-2.006c-0.381-0.445-0.976-0.669-1.771-0.669c-1.055,0-1.832,0.303-2.334,0.909
			c-0.502,0.605-0.754,1.538-0.754,2.798v6.249h-1.688v-7.281c0-0.892-0.188-1.561-0.568-2.006
			c-0.383-0.445-0.979-0.669-1.783-0.669c-1.063,0-1.836,0.318-2.328,0.955c-0.488,0.637-0.736,1.68-0.736,3.13v5.871
			L168.297,52.251L168.297,52.251z"/>
		<path fill="#666565" d="M186.875,49.175c0-2.25,1.807-3.429,5.418-3.537l1.896-0.062v-0.702c0-0.887-0.188-1.542-0.563-1.965
			c-0.377-0.423-0.979-0.634-1.813-0.634c-0.928,0-1.979,0.289-3.146,0.866l-0.524-1.298c0.549-0.294,1.151-0.525,1.813-0.692
			c0.651-0.167,1.313-0.251,1.973-0.251c1.33,0,2.313,0.295,2.957,0.887c0.645,0.591,0.965,1.539,0.965,2.843v7.622h-1.256
			l-0.336-1.571h-0.082c-0.557,0.693-1.107,1.162-1.66,1.407c-0.555,0.246-1.242,0.368-2.07,0.368c-1.107,0-1.979-0.284-2.611-0.853
			C187.191,51.033,186.875,50.224,186.875,49.175z M188.67,49.195c0,0.615,0.186,1.082,0.553,1.403
			c0.371,0.321,0.889,0.481,1.553,0.481c1.057,0,1.875-0.29,2.479-0.87c0.601-0.581,0.896-1.393,0.896-2.437v-1.014l-1.688,0.071
			c-1.342,0.048-2.313,0.258-2.901,0.63C188.969,47.831,188.67,48.41,188.67,49.195z"/>
		<path fill="#666565" d="M197.838,42.397v-0.815l1.602-0.703l0.713-2.385h0.979v2.588h3.24v1.314h-3.24v6.588
			c0,0.674,0.16,1.191,0.479,1.552c0.318,0.361,0.761,0.542,1.313,0.542c0.301,0,0.588-0.022,0.865-0.066
			c0.272-0.044,0.5-0.09,0.662-0.138v1.278c-0.188,0.087-0.453,0.159-0.813,0.216c-0.354,0.057-0.68,0.085-0.965,0.085
			c-2.156,0-3.238-1.138-3.238-3.414v-6.644h-1.602L197.838,42.397L197.838,42.397z"/>
		<path fill="#666565" d="M206.063,46.758c0-1.8,0.441-3.23,1.326-4.29c0.885-1.06,2.07-1.589,3.563-1.589
			c1.396,0,2.498,0.46,3.313,1.38c0.813,0.921,1.221,2.135,1.221,3.643v1.07h-7.688c0.035,1.311,0.367,2.306,0.996,2.985
			c0.629,0.68,1.518,1.019,2.656,1.019c1.194,0,2.387-0.251,3.559-0.754v1.508c-0.598,0.258-1.158,0.443-1.689,0.555
			c-0.529,0.112-1.174,0.168-1.926,0.168c-1.646,0-2.941-0.502-3.896-1.508C206.539,49.942,206.063,48.546,206.063,46.758z
			 M207.836,45.597h5.85c0-1.066-0.238-1.883-0.715-2.451c-0.479-0.567-1.156-0.851-2.041-0.851c-0.896,0-1.615,0.292-2.146,0.876
			C208.246,43.756,207.93,44.564,207.836,45.597z"/>
		<path fill="#666565" d="M217.68,43.827c0-0.911,0.369-1.63,1.109-2.158c0.735-0.527,1.754-0.791,3.043-0.791
			c1.19,0,2.358,0.244,3.504,0.733l-0.59,1.377c-1.117-0.463-2.134-0.695-3.037-0.695c-0.808,0-1.408,0.126-1.816,0.378
			c-0.408,0.251-0.613,0.599-0.613,1.042c0,0.3,0.078,0.555,0.229,0.766c0.154,0.211,0.396,0.412,0.742,0.603
			c0.34,0.191,0.994,0.467,1.959,0.828c1.322,0.483,2.215,0.97,2.672,1.46c0.457,0.49,0.687,1.104,0.687,1.849
			c0,1.034-0.387,1.832-1.149,2.393c-0.771,0.561-1.854,0.841-3.242,0.841c-1.479,0-2.631-0.23-3.459-0.693v-1.559
			c0.537,0.272,1.104,0.487,1.727,0.644c0.611,0.157,1.207,0.235,1.773,0.235c0.887,0,1.563-0.141,2.041-0.424
			c0.479-0.283,0.717-0.713,0.717-1.292c0-0.438-0.188-0.809-0.563-1.119c-0.379-0.31-1.112-0.676-2.213-1.098
			c-1.041-0.388-1.778-0.727-2.218-1.017c-0.438-0.29-0.762-0.618-0.977-0.986C217.787,44.777,217.68,44.338,217.68,43.827z"/>
	</g>
	<g>
		<path fill="#9A999E" d="M36.912,96.392v-1.199l3.27-3.299c0.996-1.012,1.652-1.734,1.971-2.166
			c0.316-0.432,0.56-0.853,0.716-1.262c0.155-0.409,0.235-0.85,0.235-1.321c0-0.665-0.201-1.192-0.604-1.582
			c-0.403-0.39-0.961-0.584-1.676-0.584c-0.519,0-1.007,0.085-1.468,0.256c-0.462,0.17-0.976,0.48-1.541,0.93l-0.746-0.964
			c1.146-0.935,2.394-1.402,3.735-1.402c1.166,0,2.081,0.297,2.743,0.891c0.662,0.594,0.994,1.393,0.994,2.396
			c0,0.79-0.226,1.572-0.664,2.345c-0.439,0.773-1.271,1.751-2.479,2.934l-2.717,2.669v0.068h6.387v1.291L36.912,96.392
			L36.912,96.392L36.912,96.392z"/>
		<path fill="#9A999E" d="M50.982,93.547v-1.239l5.896-8.399h1.494v8.347h1.856v1.291h-1.856v2.845H57.04v-2.845H50.982z
			 M52.408,92.256h4.631v-4.127c0-0.81,0.022-1.724,0.084-2.743h-0.068c-0.271,0.543-0.525,0.994-0.764,1.35L52.408,92.256z"/>
		<path fill="#9A999E" d="M60.926,93.547v-1.239l5.895-8.399h1.494v8.347h1.859v1.291h-1.859v2.845H66.98v-2.845H60.926z
			 M62.354,92.256h4.627v-4.127c0-0.81,0.027-1.724,0.084-2.743H67c-0.271,0.543-0.525,0.994-0.769,1.35L62.354,92.256z"/>
		<path fill="#9A999E" d="M71.404,93.224c0-1.421,0.871-2.528,2.615-3.32c-0.791-0.441-1.354-0.918-1.701-1.431
			c-0.342-0.513-0.516-1.086-0.516-1.72c0-0.9,0.334-1.618,1.004-2.153c0.67-0.535,1.564-0.802,2.688-0.802
			c1.137,0,2.032,0.263,2.696,0.79c0.666,0.526,0.998,1.254,0.998,2.183c0,0.611-0.188,1.169-0.569,1.673
			c-0.386,0.504-0.99,0.962-1.828,1.375c1.012,0.481,1.729,0.986,2.158,1.516c0.428,0.53,0.641,1.143,0.641,1.839
			c0,1.03-0.359,1.853-1.082,2.467c-0.721,0.614-1.709,0.921-2.963,0.921c-1.33,0-2.354-0.29-3.066-0.871
			C71.762,95.111,71.404,94.289,71.404,93.224z M72.814,93.258c0,0.679,0.236,1.208,0.709,1.588
			c0.476,0.379,1.138,0.569,1.986,0.569c0.844,0,1.498-0.198,1.969-0.594c0.469-0.396,0.703-0.94,0.703-1.631
			c0-0.549-0.221-1.037-0.66-1.465c-0.438-0.427-1.211-0.842-2.307-1.244c-0.842,0.362-1.453,0.763-1.832,1.202
			S72.814,92.647,72.814,93.258z M73.213,86.813c0,0.521,0.168,0.968,0.5,1.341c0.334,0.374,0.949,0.748,1.85,1.121
			c0.812-0.34,1.379-0.705,1.717-1.095c0.339-0.391,0.507-0.847,0.507-1.367c0-0.572-0.203-1.026-0.613-1.363
			c-0.41-0.336-0.979-0.505-1.691-0.505c-0.707,0-1.26,0.17-1.662,0.51C73.416,85.794,73.213,86.247,73.213,86.813z"/>
		<g>
			<path fill="#9A999E" d="M46.942,99.017c0.144-0.542,0.295-1.211,0.468-2.008c0.169-0.797,0.285-1.435,0.354-1.914h1.415
				l0.117,0.18c-0.135,0.521-0.329,1.126-0.583,1.816c-0.254,0.69-0.521,1.332-0.793,1.926H46.942z"/>
		</g>
	</g>
	<g>
		<path fill="#9A999E" d="M71.387,332.929c0-2.161,0.34-3.765,1.016-4.812c0.681-1.047,1.707-1.57,3.097-1.57
			c1.346,0,2.362,0.546,3.063,1.638c0.697,1.093,1.047,2.673,1.047,4.744c0,2.147-0.338,3.75-1.014,4.81
			c-0.676,1.063-1.709,1.59-3.104,1.59c-1.343,0-2.357-0.543-3.06-1.627C71.736,336.616,71.387,335.026,71.387,332.929z
			 M72.832,332.929c0,1.802,0.213,3.112,0.637,3.936c0.424,0.823,1.1,1.231,2.025,1.231c0.938,0,1.614-0.417,2.034-1.25
			c0.427-0.833,0.638-2.139,0.638-3.918c0-1.777-0.211-3.082-0.638-3.908c-0.42-0.828-1.102-1.242-2.034-1.242
			c-0.931,0-1.604,0.408-2.025,1.227C73.045,329.819,72.832,331.127,72.832,332.929z"/>
	</g>
	<g>
		<path fill="#FFFFFF" d="M157.563,277.675h-3.146v-8.621l0.023-1.417l0.059-1.549c-0.521,0.523-0.895,0.866-1.098,1.029
			l-1.711,1.375l-1.52-1.896l4.799-3.82h2.59L157.563,277.675L157.563,277.675z"/>
		<path fill="#FFFFFF" d="M178.053,277.675h-10.414v-2.19l3.74-3.78c1.104-1.136,1.83-1.921,2.17-2.359s0.584-0.844,0.729-1.218
			c0.148-0.374,0.228-0.762,0.228-1.162c0-0.6-0.164-1.042-0.494-1.335c-0.328-0.292-0.768-0.438-1.318-0.438
			c-0.572,0-1.139,0.131-1.682,0.396c-0.543,0.266-1.111,0.643-1.701,1.131l-1.713-2.027c0.732-0.625,1.342-1.065,1.824-1.326
			c0.479-0.258,1.008-0.456,1.58-0.596c0.565-0.139,1.209-0.209,1.916-0.209c0.93,0,1.752,0.17,2.465,0.51
			c0.715,0.342,1.268,0.815,1.662,1.429c0.395,0.61,0.59,1.312,0.59,2.099c0,0.688-0.121,1.33-0.359,1.932
			c-0.236,0.602-0.607,1.218-1.121,1.85c-0.506,0.632-1.396,1.531-2.676,2.701l-1.916,1.804v0.146h6.49V277.675L178.053,277.675z"/>
		<path fill="#FFFFFF" d="M189.967,277.675h-10.416v-2.19l3.74-3.78c1.104-1.136,1.832-1.921,2.172-2.359
			c0.338-0.438,0.584-0.844,0.729-1.218c0.146-0.374,0.229-0.762,0.229-1.162c0-0.6-0.166-1.042-0.494-1.335
			c-0.33-0.292-0.771-0.438-1.318-0.438c-0.578,0-1.139,0.131-1.684,0.396c-0.543,0.266-1.109,0.643-1.701,1.131l-1.713-2.027
			c0.734-0.625,1.342-1.065,1.824-1.326c0.479-0.258,1.01-0.456,1.58-0.596c0.567-0.139,1.209-0.209,1.916-0.209
			c0.932,0,1.752,0.17,2.467,0.51c0.713,0.342,1.268,0.815,1.66,1.429c0.395,0.61,0.592,1.312,0.592,2.099
			c0,0.688-0.121,1.33-0.361,1.932c-0.242,0.602-0.614,1.218-1.121,1.85c-0.506,0.632-1.396,1.531-2.674,2.701l-1.916,1.804v0.146
			h6.49L189.967,277.675L189.967,277.675z"/>
		<path fill="#FFFFFF" d="M201.297,266.11c0,0.932-0.281,1.723-0.846,2.375c-0.564,0.651-1.355,1.102-2.373,1.346v0.062
			c1.196,0.149,2.108,0.517,2.729,1.097c0.618,0.58,0.928,1.363,0.928,2.349c0,1.433-0.521,2.549-1.561,3.347
			c-1.039,0.799-2.523,1.197-4.453,1.197c-1.615,0-3.049-0.268-4.299-0.805v-2.68c0.576,0.291,1.211,0.528,1.904,0.713
			c0.688,0.184,1.379,0.273,2.059,0.273c1.041,0,1.809-0.176,2.305-0.529s0.744-0.921,0.744-1.701c0-0.701-0.285-1.196-0.854-1.488
			c-0.57-0.292-1.479-0.438-2.729-0.438h-1.131v-2.416h1.149c1.146,0,1.996-0.151,2.523-0.453c0.533-0.303,0.807-0.819,0.807-1.555
			c0-1.127-0.705-1.691-2.119-1.691c-0.488,0-0.983,0.082-1.492,0.246c-0.506,0.162-1.065,0.444-1.688,0.847l-1.457-2.17
			c1.356-0.979,2.979-1.47,4.859-1.47c1.541,0,2.76,0.313,3.651,0.938C200.85,264.128,201.297,264.995,201.297,266.11z"/>
		<g>
			<path fill="#FFFFFF" d="M161.154,279.945c0.144-0.542,0.298-1.211,0.468-2.008c0.169-0.797,0.284-1.435,0.354-1.914h1.414
				l0.115,0.18c-0.135,0.521-0.329,1.126-0.583,1.816s-0.521,1.332-0.793,1.926H161.154z"/>
		</g>
	</g>
	<g>
		<path fill="#FFFFFF" d="M157.563,161.909h-3.146v-8.621l0.023-1.417l0.059-1.549c-0.521,0.521-0.895,0.866-1.098,1.029
			l-1.711,1.375l-1.52-1.895l4.799-3.821h2.59L157.563,161.909L157.563,161.909z"/>
		<path fill="#FFFFFF" d="M178.053,161.909h-10.414v-2.191l3.74-3.781c1.104-1.134,1.83-1.92,2.17-2.359
			c0.34-0.438,0.584-0.844,0.729-1.218c0.148-0.374,0.228-0.761,0.228-1.162c0-0.598-0.164-1.042-0.494-1.335
			c-0.328-0.292-0.768-0.438-1.318-0.438c-0.572,0-1.139,0.132-1.682,0.397c-0.543,0.265-1.111,0.642-1.701,1.131l-1.713-2.028
			c0.732-0.625,1.342-1.066,1.824-1.325c0.479-0.258,1.008-0.457,1.58-0.596c0.565-0.139,1.209-0.209,1.916-0.209
			c0.93,0,1.752,0.17,2.465,0.51c0.715,0.34,1.268,0.815,1.662,1.427c0.395,0.611,0.59,1.311,0.59,2.099
			c0,0.686-0.121,1.33-0.359,1.931c-0.236,0.601-0.607,1.217-1.121,1.849c-0.506,0.632-1.396,1.532-2.676,2.701l-1.916,1.804v0.143
			h6.49V161.909L178.053,161.909z"/>
		<path fill="#FFFFFF" d="M189.967,161.909h-10.416v-2.191l3.74-3.781c1.104-1.134,1.832-1.92,2.172-2.359
			c0.338-0.438,0.584-0.844,0.729-1.218c0.146-0.374,0.229-0.761,0.229-1.162c0-0.598-0.166-1.042-0.494-1.335
			c-0.33-0.292-0.771-0.438-1.318-0.438c-0.578,0-1.139,0.132-1.684,0.397c-0.543,0.265-1.109,0.642-1.701,1.131l-1.713-2.028
			c0.734-0.625,1.342-1.066,1.824-1.325c0.479-0.258,1.01-0.457,1.58-0.596c0.567-0.139,1.209-0.209,1.916-0.209
			c0.932,0,1.752,0.17,2.467,0.51c0.713,0.34,1.268,0.815,1.66,1.427c0.395,0.611,0.592,1.311,0.592,2.099
			c0,0.686-0.121,1.33-0.361,1.931c-0.242,0.601-0.614,1.217-1.121,1.849c-0.506,0.632-1.396,1.532-2.674,2.701l-1.916,1.804v0.143
			h6.49L189.967,161.909L189.967,161.909z"/>
		<path fill="#FFFFFF" d="M196.885,152.392c1.439,0,2.586,0.404,3.439,1.212c0.854,0.809,1.276,1.916,1.276,3.322
			c0,1.665-0.517,2.945-1.539,3.842c-1.022,0.896-2.494,1.345-4.397,1.345c-1.658,0-2.996-0.271-4.021-0.805v-2.721
			c0.537,0.285,1.162,0.518,1.875,0.698c0.713,0.18,1.394,0.27,2.024,0.27c1.925,0,2.888-0.788,2.888-2.364
			c0-1.501-0.994-2.252-2.986-2.252c-0.354,0-0.756,0.036-1.188,0.107c-0.438,0.071-0.789,0.148-1.063,0.229l-1.252-0.672
			l0.563-7.592h8.08v2.669h-5.318l-0.271,2.925l0.354-0.071C195.76,152.439,196.275,152.392,196.885,152.392z"/>
		<g>
			<path fill="#FFFFFF" d="M161.154,164.176c0.144-0.542,0.298-1.211,0.468-2.008c0.169-0.797,0.284-1.435,0.354-1.914h1.414
				l0.115,0.18c-0.135,0.521-0.329,1.126-0.583,1.816s-0.521,1.332-0.793,1.926H161.154L161.154,164.176z"/>
		</g>
	</g>
	<g>
		<path fill="#87868A" d="M64.021,231.832H49.123v-4.208c0-1.978,0.295-3.407,0.885-4.29c0.592-0.885,1.521-1.325,2.801-1.325
			c0.883,0,1.609,0.246,2.188,0.739c0.569,0.492,0.942,1.211,1.112,2.154h0.104c0.389-2.248,1.578-3.373,3.568-3.373
			c1.329,0,2.368,0.449,3.116,1.349c0.748,0.897,1.121,2.153,1.121,3.769L64.021,231.832L64.021,231.832z M55.49,230.1v-2.853
			c0-1.224-0.189-2.103-0.572-2.64c-0.385-0.537-1.027-0.807-1.938-0.807c-0.834,0-1.436,0.299-1.805,0.896
			c-0.369,0.597-0.555,1.55-0.555,2.854v2.547L55.49,230.1L55.49,230.1z M62.543,230.1v-3.107c0-1.2-0.23-2.105-0.697-2.715
			c-0.465-0.607-1.193-0.912-2.188-0.912c-0.927,0-1.605,0.312-2.037,0.934c-0.438,0.621-0.652,1.566-0.652,2.838v2.965
			L62.543,230.1L62.543,230.1z"/>
		<path fill="#87868A" d="M49.826,218.707c-0.392,0-0.675-0.087-0.854-0.264c-0.182-0.177-0.271-0.396-0.271-0.657
			c0-0.294,0.092-0.546,0.271-0.759c0.188-0.211,0.465-0.317,0.846-0.317c0.386,0,0.664,0.106,0.854,0.317
			c0.188,0.213,0.279,0.465,0.279,0.759c0,0.264-0.099,0.48-0.279,0.657C50.49,218.62,50.207,218.707,49.826,218.707z
			 M64.021,218.565H52.854v-1.549h11.168L64.021,218.565L64.021,218.565z"/>
		<path fill="#87868A" d="M64.021,213.286H48.166v-1.691H64.02L64.021,213.286L64.021,213.286z"/>
		<path fill="#87868A" d="M64.021,208.008H48.166v-1.691H64.02L64.021,208.008L64.021,208.008z"/>
		<path fill="#87868A" d="M49.826,202.872c-0.392,0-0.675-0.089-0.854-0.265c-0.182-0.176-0.271-0.396-0.271-0.656
			c0-0.293,0.092-0.547,0.271-0.758c0.188-0.213,0.465-0.318,0.846-0.318c0.386,0,0.664,0.105,0.854,0.318
			c0.188,0.211,0.279,0.465,0.279,0.758c0,0.263-0.099,0.48-0.279,0.656C50.49,202.784,50.207,202.872,49.826,202.872z
			 M64.021,202.731H52.854v-1.55h11.168L64.021,202.731L64.021,202.731z"/>
		<path fill="#87868A" d="M58.416,198.073c-1.816,0-3.23-0.455-4.246-1.361c-1.019-0.908-1.521-2.168-1.521-3.78
			c0-1.558,0.521-2.795,1.562-3.713c1.035-0.918,2.438-1.377,4.211-1.377c1.822,0,3.248,0.457,4.271,1.372
			c1.023,0.914,1.537,2.178,1.537,3.789c0,0.996-0.231,1.88-0.705,2.652c-0.471,0.771-1.145,1.367-2.021,1.787
			C60.623,197.862,59.594,198.073,58.416,198.073z M58.416,196.34c1.43,0,2.521-0.286,3.27-0.857
			c0.75-0.569,1.125-1.412,1.125-2.521s-0.373-1.951-1.119-2.526c-0.746-0.574-1.838-0.861-3.271-0.861
			c-1.424,0-2.504,0.287-3.244,0.861c-0.736,0.575-1.107,1.424-1.107,2.547c0,1.108,0.365,1.945,1.099,2.51
			C55.887,196.058,56.973,196.34,58.416,196.34z"/>
		<path fill="#87868A" d="M64.021,184.846H52.854v-1.376l1.508-0.275v-0.081c-0.543-0.347-0.965-0.832-1.266-1.457
			c-0.299-0.625-0.447-1.321-0.447-2.089c0-1.346,0.324-2.357,0.979-3.037c0.646-0.68,1.688-1.021,3.106-1.021h7.287v1.692h-7.237
			c-0.91,0-1.595,0.207-2.041,0.621c-0.447,0.415-0.679,1.063-0.679,1.946c0,1.169,0.316,2.024,0.951,2.568
			c0.633,0.543,1.678,0.815,3.135,0.815h5.871L64.021,184.846L64.021,184.846z"/>
		<path fill="#87868A" d="M62.283,167.117h-1.599c0.252-0.563,0.457-1.214,0.615-1.951c0.16-0.737,0.24-1.408,0.24-2.013h-4.48
			c-0.438,1.393-0.955,2.369-1.539,2.93s-1.338,0.841-2.264,0.841c-0.889,0-1.619-0.345-2.189-1.034
			c-0.565-0.689-0.918-1.602-1.039-2.736h-1.854v-1.335h1.834c0.035-1.246,0.287-2.448,0.756-3.607l1.334,0.53
			c-0.398,1.009-0.639,2.035-0.713,3.077h4.424c0.34-1.063,0.67-1.859,0.992-2.389c0.322-0.528,0.693-0.918,1.111-1.169
			c0.416-0.25,0.926-0.376,1.521-0.376c0.924,0,1.688,0.346,2.291,1.037c0.604,0.691,0.984,1.656,1.146,2.896h2.354v1.335h-2.264
			c0,0.761-0.063,1.498-0.185,2.212C62.662,166.078,62.496,166.662,62.283,167.117z M53.25,165.192c0.518,0,0.932-0.152,1.242-0.456
			c0.313-0.304,0.604-0.831,0.889-1.582h-3.943c0.107,0.669,0.32,1.177,0.64,1.521C52.389,165.02,52.781,165.192,53.25,165.192z
			 M61.441,161.819c-0.203-1.467-0.828-2.201-1.875-2.201c-0.483,0-0.885,0.15-1.188,0.452c-0.303,0.301-0.604,0.884-0.9,1.749
			H61.441z"/>
	</g>
	
		<line fill="none" stroke="#666666" stroke-width="0.25" stroke-miterlimit="10" x1="95.279" y1="91.127" x2="95.279" y2="339.159"/>
	
		<line fill="none" stroke="#666666" stroke-width="0.25" stroke-miterlimit="10" x1="225.988" y1="339.159" x2="81.559" y2="339.159"/>
	
		<line fill="none" stroke="#666666" stroke-width="0.25" stroke-miterlimit="10" x1="225.988" y1="91.127" x2="81.559" y2="91.127"/>
</g>
<g id="EU28-estimates">
	<g>
		<rect x="125.488" y="587.417" fill="#199598" width="100.499" height="118.787"/>
		<rect x="125.488" y="458.224" fill="#DD9B2B" width="100.499" height="129.193"/>
	</g>
	<g>
		<path fill="#9A999E" d="M48.008,460.593v-1.234l5.895-8.4h1.496v8.35h1.855v1.291h-1.855v2.852h-1.336v-2.852h-6.055V460.593z
			 M49.434,459.302h4.629v-4.127c0-0.811,0.025-1.725,0.084-2.742H54.08c-0.271,0.543-0.525,0.994-0.767,1.354L49.434,459.302z"/>
		<path fill="#9A999E" d="M58.504,455.011c0-1.287,0.361-2.305,1.086-3.049c0.727-0.744,1.678-1.117,2.854-1.117
			c0.849,0,1.589,0.215,2.222,0.646c0.633,0.436,1.121,1.063,1.461,1.895c0.342,0.826,0.512,1.809,0.512,2.934
			c0,4.857-1.883,7.293-5.646,7.293c-0.658,0-1.185-0.061-1.566-0.17v-1.23c0.455,0.17,0.971,0.256,1.551,0.256
			c1.355,0,2.381-0.422,3.072-1.268c0.691-0.848,1.07-2.141,1.133-3.881h-0.104c-0.313,0.477-0.728,0.838-1.236,1.088
			c-0.516,0.25-1.094,0.373-1.738,0.373c-1.104,0-1.979-0.33-2.625-0.992C58.828,457.121,58.504,456.197,58.504,455.011z
			 M59.914,454.992c0,0.816,0.205,1.463,0.608,1.934c0.404,0.469,1.023,0.705,1.854,0.705c0.516,0,0.988-0.104,1.42-0.313
			c0.436-0.209,0.771-0.498,1.021-0.861s0.373-0.744,0.373-1.146c0-0.598-0.112-1.145-0.35-1.648
			c-0.229-0.506-0.557-0.902-0.971-1.193c-0.416-0.289-0.896-0.436-1.433-0.436c-0.811,0-1.436,0.262-1.873,0.777
			C60.132,453.333,59.914,454.06,59.914,454.992z"/>
		<path fill="#9A999E" d="M68.676,462.927v-1.359c0.396,0.254,0.893,0.449,1.479,0.596c0.591,0.146,1.171,0.217,1.738,0.217
			c0.996,0,1.771-0.229,2.32-0.701c0.555-0.471,0.828-1.145,0.828-2.023c0-1.73-1.063-2.598-3.188-2.598
			c-0.537,0-1.26,0.082-2.158,0.244l-0.729-0.467l0.475-5.809h6.177v1.291h-4.974l-0.313,3.732c0.649-0.119,1.301-0.18,1.942-0.18
			c1.312,0,2.338,0.322,3.093,0.967c0.75,0.646,1.125,1.525,1.125,2.646c0,1.289-0.408,2.297-1.229,3.021
			c-0.816,0.73-1.943,1.105-3.385,1.105C70.48,463.607,69.414,463.382,68.676,462.927z"/>
	</g>
	<g>
		<path fill="#9A999E" d="M68.414,699.974c0-2.156,0.338-3.766,1.014-4.813c0.678-1.047,1.707-1.57,3.094-1.57
			c1.351,0,2.367,0.547,3.066,1.643c0.697,1.094,1.047,2.674,1.047,4.74c0,2.146-0.338,3.75-1.014,4.814
			c-0.679,1.061-1.709,1.59-3.104,1.59c-1.34,0-2.354-0.543-3.059-1.627C68.76,703.662,68.414,702.072,68.414,699.974z
			 M69.857,699.974c0,1.807,0.213,3.113,0.64,3.939c0.424,0.822,1.1,1.229,2.021,1.229c0.938,0,1.617-0.416,2.039-1.25
			c0.422-0.832,0.635-2.139,0.635-3.918c0-1.771-0.213-3.082-0.635-3.902c-0.422-0.828-1.102-1.242-2.039-1.242
			c-0.928,0-1.604,0.408-2.021,1.225C70.07,696.865,69.857,698.173,69.857,699.974z"/>
	</g>
	<g>
		<path fill="#FFFFFF" d="M168.305,644.72h-10.412v-2.188l3.738-3.779c1.104-1.137,1.83-1.922,2.17-2.355
			c0.342-0.439,0.584-0.848,0.734-1.223c0.146-0.373,0.225-0.762,0.225-1.162c0-0.6-0.166-1.041-0.494-1.334
			s-0.77-0.438-1.318-0.438c-0.57,0-1.139,0.131-1.682,0.395c-0.545,0.271-1.104,0.646-1.701,1.137l-1.713-2.027
			c0.732-0.625,1.344-1.066,1.822-1.326c0.479-0.258,1.01-0.457,1.58-0.596c0.57-0.145,1.209-0.209,1.916-0.209
			c0.932,0,1.752,0.17,2.465,0.51c0.715,0.342,1.27,0.814,1.662,1.428c0.396,0.611,0.59,1.314,0.59,2.105
			c0,0.688-0.119,1.33-0.357,1.932c-0.236,0.605-0.609,1.223-1.115,1.855c-0.512,0.633-1.396,1.525-2.682,2.697l-1.916,1.809v0.145
			h6.49v2.646h-0.002V644.72L168.305,644.72z"/>
		<path fill="#FFFFFF" d="M179.637,633.156c0,0.932-0.281,1.723-0.846,2.375c-0.563,0.646-1.355,1.102-2.375,1.346v0.064
			c1.203,0.145,2.11,0.516,2.729,1.096c0.615,0.58,0.931,1.363,0.931,2.35c0,1.439-0.521,2.553-1.563,3.355
			c-1.037,0.799-2.521,1.188-4.451,1.188c-1.615,0-3.054-0.268-4.304-0.805v-2.68c0.576,0.291,1.216,0.523,1.904,0.713
			c0.688,0.184,1.379,0.27,2.063,0.27c1.037,0,1.812-0.176,2.305-0.521c0.496-0.355,0.744-0.92,0.744-1.701
			c0-0.701-0.285-1.195-0.854-1.488c-0.572-0.291-1.48-0.438-2.73-0.438h-1.133v-2.416h1.152c1.151,0,1.998-0.15,2.528-0.453
			c0.533-0.305,0.804-0.818,0.804-1.559c0-1.131-0.707-1.689-2.119-1.689c-0.49,0-0.986,0.082-1.494,0.246
			c-0.506,0.162-1.064,0.441-1.688,0.848l-1.455-2.17c1.354-0.979,2.979-1.471,4.855-1.471c1.541,0,2.762,0.313,3.649,0.938
			C179.193,631.171,179.637,632.041,179.637,633.156z"/>
		<path fill="#FFFFFF" d="M186.854,629.628c1.434,0,2.574,0.326,3.447,0.979c0.873,0.646,1.313,1.521,1.313,2.621
			c0,0.764-0.211,1.438-0.631,2.031c-0.424,0.598-1.104,1.125-2.039,1.6c1.113,0.598,1.914,1.221,2.396,1.865
			c0.486,0.648,0.729,1.359,0.729,2.139c0,1.223-0.479,2.207-1.438,2.951c-0.957,0.738-2.217,1.111-3.779,1.111
			c-1.631,0-2.908-0.346-3.842-1.039c-0.932-0.689-1.396-1.676-1.396-2.941c0-0.854,0.23-1.604,0.684-2.266
			c0.453-0.654,1.181-1.236,2.177-1.738c-0.851-0.537-1.462-1.111-1.834-1.727c-0.371-0.611-0.563-1.275-0.563-2.008
			c0-1.064,0.438-1.928,1.319-2.588C184.283,629.958,185.434,629.628,186.854,629.628z M184.531,640.757
			c0,0.584,0.203,1.039,0.609,1.365c0.403,0.326,0.965,0.488,1.672,0.488c0.776,0,1.36-0.168,1.754-0.514
			c0.39-0.336,0.58-0.77,0.58-1.32c0-0.455-0.188-0.891-0.574-1.279c-0.387-0.396-1.008-0.82-1.868-1.271
			C185.254,638.896,184.531,639.738,184.531,640.757z M186.834,631.931c-0.537,0-0.969,0.143-1.299,0.412
			c-0.33,0.275-0.494,0.646-0.494,1.105c0,0.408,0.131,0.77,0.393,1.096c0.27,0.322,0.734,0.654,1.424,0.994
			c0.664-0.314,1.131-0.633,1.396-0.959c0.265-0.326,0.396-0.703,0.396-1.131c0-0.469-0.17-0.84-0.51-1.111
			C187.797,632.068,187.365,631.931,186.834,631.931z"/>
	</g>
	<g>
		<path fill="#FFFFFF" d="M168.305,528.955h-10.412v-2.189l3.738-3.773c1.104-1.143,1.83-1.92,2.17-2.359
			c0.342-0.438,0.584-0.844,0.734-1.219c0.146-0.373,0.225-0.76,0.225-1.162c0-0.598-0.166-1.041-0.494-1.334
			s-0.77-0.438-1.318-0.438c-0.57,0-1.139,0.135-1.682,0.395c-0.545,0.268-1.104,0.645-1.701,1.133l-1.713-2.023
			c0.732-0.625,1.344-1.064,1.822-1.324c0.479-0.26,1.01-0.457,1.58-0.602c0.57-0.141,1.209-0.209,1.916-0.209
			c0.932,0,1.752,0.172,2.465,0.516c0.715,0.34,1.27,0.813,1.662,1.428c0.396,0.609,0.59,1.314,0.59,2.1
			c0,0.689-0.119,1.33-0.357,1.938c-0.236,0.6-0.609,1.217-1.115,1.848c-0.512,0.633-1.396,1.533-2.682,2.701l-1.916,1.805v0.146
			h6.49v2.645h-0.002V528.955L168.305,528.955z"/>
		<path fill="#FFFFFF" d="M175.225,519.439c1.439,0,2.588,0.4,3.439,1.213c0.854,0.809,1.274,1.916,1.274,3.318
			c0,1.664-0.519,2.943-1.537,3.846c-1.024,0.895-2.491,1.344-4.399,1.344c-1.658,0-2.996-0.271-4.019-0.807v-2.723
			c0.537,0.285,1.162,0.521,1.875,0.697c0.716,0.182,1.392,0.27,2.025,0.27c1.926,0,2.887-0.787,2.887-2.361
			c0-1.5-0.996-2.252-2.983-2.252c-0.359,0-0.761,0.035-1.191,0.104c-0.433,0.07-0.787,0.146-1.061,0.23l-1.257-0.674l0.563-7.594
			h8.082v2.67h-5.316l-0.271,2.928l0.354-0.07C174.102,519.484,174.615,519.439,175.225,519.439z"/>
		<path fill="#FFFFFF" d="M183.197,528.955l5.597-12.229h-7.351v-2.646h10.688v1.979l-5.635,12.9L183.197,528.955L183.197,528.955z"
			/>
	</g>
	<g>
		<path fill="#87868A" d="M64.447,598.878H49.549v-4.209c0-1.977,0.297-3.406,0.887-4.289c0.594-0.885,1.523-1.326,2.801-1.326
			c0.886,0,1.609,0.246,2.188,0.74c0.574,0.492,0.945,1.211,1.115,2.154h0.104c0.394-2.248,1.578-3.373,3.57-3.373
			c1.332,0,2.371,0.449,3.119,1.348c0.746,0.9,1.121,2.154,1.121,3.771L64.447,598.878L64.447,598.878z M55.918,597.146v-2.854
			c0-1.225-0.189-2.104-0.574-2.641c-0.383-0.537-1.025-0.814-1.938-0.814c-0.834,0-1.438,0.299-1.807,0.896
			c-0.367,0.598-0.555,1.549-0.555,2.854v2.547L55.918,597.146L55.918,597.146z M62.969,597.146v-3.104
			c0-1.201-0.23-2.104-0.695-2.715c-0.469-0.609-1.19-0.912-2.188-0.912c-0.924,0-1.604,0.313-2.037,0.934
			c-0.438,0.621-0.652,1.566-0.652,2.84v2.967L62.969,597.146L62.969,597.146z"/>
		<path fill="#87868A" d="M50.252,585.753c-0.387,0-0.672-0.088-0.854-0.264c-0.182-0.178-0.271-0.396-0.271-0.658
			c0-0.293,0.092-0.545,0.272-0.758c0.187-0.211,0.468-0.318,0.849-0.318s0.664,0.107,0.852,0.318
			c0.188,0.213,0.279,0.465,0.279,0.758c0,0.264-0.094,0.479-0.279,0.658C50.916,585.666,50.631,585.753,50.252,585.753z
			 M64.447,585.611H53.279v-1.549h11.168V585.611z"/>
		<path fill="#87868A" d="M64.447,580.332H48.59v-1.689h15.854L64.447,580.332L64.447,580.332z"/>
		<path fill="#87868A" d="M64.447,575.054H48.59v-1.688h15.854L64.447,575.054L64.447,575.054z"/>
		<path fill="#87868A" d="M50.252,569.917c-0.387,0-0.672-0.088-0.854-0.264c-0.182-0.18-0.271-0.396-0.271-0.656
			c0-0.293,0.092-0.547,0.272-0.758c0.187-0.213,0.468-0.318,0.849-0.318s0.664,0.105,0.852,0.318
			c0.188,0.211,0.279,0.465,0.279,0.758c0,0.262-0.094,0.479-0.279,0.656C50.917,569.83,50.631,569.917,50.252,569.917z
			 M64.447,569.777H53.279v-1.555h11.168V569.777z"/>
		<path fill="#87868A" d="M58.842,565.119c-1.814,0-3.23-0.455-4.248-1.361c-1.014-0.908-1.52-2.168-1.52-3.773
			c0-1.564,0.518-2.803,1.557-3.721c1.037-0.918,2.438-1.377,4.211-1.377c1.824,0,3.248,0.457,4.271,1.373
			c1.021,0.914,1.537,2.182,1.537,3.789c0,0.996-0.233,1.879-0.705,2.652c-0.473,0.77-1.146,1.367-2.021,1.787
			C61.047,564.908,60.018,565.119,58.842,565.119z M58.842,563.386c1.43,0,2.521-0.283,3.271-0.854
			c0.748-0.568,1.123-1.412,1.123-2.521c0-1.104-0.373-1.945-1.116-2.521c-0.744-0.574-1.837-0.861-3.273-0.861
			c-1.422,0-2.504,0.287-3.242,0.861c-0.733,0.576-1.104,1.424-1.104,2.547c0,1.104,0.36,1.943,1.092,2.51
			C56.311,563.105,57.4,563.386,58.842,563.386z"/>
		<path fill="#87868A" d="M64.447,551.892H53.279v-1.377l1.511-0.271v-0.08c-0.543-0.35-0.968-0.832-1.267-1.457
			c-0.301-0.625-0.444-1.32-0.444-2.09c0-1.35,0.321-2.355,0.973-3.037c0.646-0.68,1.688-1.021,3.113-1.021h7.282v1.691H57.21
			c-0.914,0-1.594,0.207-2.043,0.621s-0.674,1.063-0.674,1.943c0,1.172,0.313,2.023,0.946,2.566
			c0.635,0.543,1.681,0.814,3.138,0.814h5.868L64.447,551.892L64.447,551.892z"/>
		<path fill="#87868A" d="M62.709,534.162h-1.594c0.25-0.563,0.454-1.213,0.612-1.949c0.158-0.73,0.236-1.408,0.236-2.014h-4.48
			c-0.438,1.395-0.95,2.369-1.539,2.93c-0.584,0.564-1.338,0.842-2.264,0.842c-0.891,0-1.617-0.346-2.188-1.025
			c-0.57-0.689-0.916-1.605-1.039-2.736H48.6v-1.336h1.834c0.033-1.246,0.285-2.447,0.756-3.605l1.336,0.529
			c-0.397,1.01-0.643,2.035-0.715,3.076h4.424c0.343-1.064,0.675-1.857,0.992-2.396c0.32-0.52,0.691-0.918,1.109-1.168
			s0.926-0.377,1.521-0.377c0.927,0,1.688,0.354,2.291,1.037c0.604,0.689,0.982,1.654,1.146,2.896h2.354v1.334h-2.266
			c0,0.762-0.063,1.498-0.18,2.213C63.086,533.125,62.92,533.708,62.709,534.162z M53.674,532.238c0.52,0,0.936-0.152,1.244-0.457
			c0.313-0.307,0.604-0.83,0.887-1.582h-3.941c0.105,0.67,0.32,1.178,0.64,1.521C52.816,532.066,53.207,532.238,53.674,532.238z
			 M61.869,528.865c-0.203-1.467-0.828-2.201-1.875-2.201c-0.488,0-0.888,0.15-1.188,0.451c-0.303,0.303-0.604,0.885-0.896,1.75
			H61.869z"/>
	</g>
	<g>
		<path fill="#666565" d="M74.045,419.297v-14.896h8.307v1.549H75.78v4.77h6.179v1.549H75.78v5.48h6.572v1.551h-8.307V419.297z"/>
		<path fill="#666565" d="M85.5,413.999v-9.6h1.729v9.736c0,1.244,0.34,2.201,1.021,2.867c0.68,0.668,1.678,1,2.996,1
			c1.258,0,2.225-0.334,2.901-1.006c0.683-0.67,1.021-1.631,1.021-2.883v-9.715h1.729v9.641c0,1.699-0.516,3.033-1.539,4.006
			c-1.022,0.972-2.438,1.457-4.229,1.457s-3.182-0.489-4.162-1.469C85.99,417.056,85.5,415.711,85.5,413.999z"/>
		<path fill="#666565" d="M99.816,419.297v-1.438l3.927-3.959c1.19-1.214,1.979-2.08,2.358-2.599
			c0.383-0.519,0.666-1.022,0.855-1.515c0.188-0.49,0.285-1.021,0.285-1.586c0-0.799-0.242-1.432-0.728-1.897
			c-0.479-0.468-1.147-0.701-2.01-0.701c-0.617,0-1.203,0.103-1.758,0.308c-0.556,0.203-1.17,0.576-1.853,1.115L100,405.869
			c1.373-1.123,2.867-1.684,4.481-1.684c1.396,0,2.496,0.357,3.291,1.07s1.189,1.671,1.189,2.875c0,0.947-0.268,1.886-0.795,2.813
			c-0.527,0.928-1.521,2.104-2.979,3.521l-3.26,3.203v0.082h7.66v1.549h-9.789v-0.002L99.816,419.297L99.816,419.297z"/>
		<path fill="#666565" d="M111.791,415.497c0-1.705,1.045-3.033,3.137-3.983c-0.945-0.53-1.627-1.104-2.039-1.718
			c-0.412-0.614-0.617-1.303-0.617-2.063c0-1.08,0.4-1.939,1.203-2.582c0.805-0.643,1.877-0.964,3.229-0.964
			c1.358,0,2.438,0.315,3.237,0.948c0.802,0.632,1.193,1.505,1.193,2.619c0,0.732-0.229,1.402-0.688,2.007
			c-0.456,0.604-1.188,1.153-2.19,1.649c1.215,0.578,2.08,1.186,2.592,1.819c0.516,0.636,0.771,1.371,0.771,2.206
			c0,1.236-0.438,2.225-1.302,2.96c-0.862,0.737-2.055,1.104-3.561,1.104c-1.594,0-2.82-0.348-3.68-1.043
			C112.219,417.761,111.791,416.774,111.791,415.497z M113.482,415.538c0,0.814,0.279,1.451,0.853,1.906
			c0.565,0.455,1.358,0.684,2.385,0.684c1.012,0,1.799-0.238,2.361-0.715c0.561-0.476,0.844-1.127,0.844-1.957
			c0-0.657-0.264-1.244-0.793-1.758c-0.527-0.513-1.451-1.01-2.771-1.492c-1.014,0.436-1.739,0.916-2.194,1.441
			C113.709,414.174,113.482,414.804,113.482,415.538z M113.961,407.803c0,0.625,0.199,1.162,0.6,1.609
			c0.4,0.449,1.146,0.896,2.224,1.346c0.969-0.407,1.651-0.848,2.059-1.314c0.404-0.468,0.604-1.016,0.604-1.641
			c0-0.688-0.243-1.23-0.733-1.635c-0.492-0.404-1.17-0.606-2.029-0.606c-0.848,0-1.514,0.204-1.994,0.611
			C114.203,406.579,113.961,407.124,113.961,407.803z"/>
		<path fill="#666565" d="M129.254,413.805c0-1.801,0.438-3.23,1.326-4.29c0.885-1.062,2.067-1.589,3.563-1.589
			c1.396,0,2.496,0.46,3.313,1.38c0.813,0.921,1.219,2.136,1.219,3.644v1.069h-7.684c0.028,1.312,0.36,2.306,0.991,2.985
			c0.634,0.679,1.519,1.019,2.658,1.019c1.197,0,2.385-0.251,3.56-0.754v1.509c-0.601,0.258-1.16,0.442-1.691,0.555
			c-0.531,0.111-1.174,0.168-1.926,0.168c-1.646,0-2.945-0.502-3.896-1.508C129.736,416.987,129.254,415.593,129.254,413.805z
			 M131.029,412.643h5.853c0-1.066-0.238-1.883-0.715-2.451c-0.479-0.566-1.156-0.851-2.041-0.851c-0.898,0-1.615,0.292-2.148,0.876
			C131.438,410.803,131.125,411.61,131.029,412.643z"/>
		<path fill="#666565" d="M140.873,410.874c0-0.91,0.371-1.631,1.106-2.157c0.738-0.527,1.754-0.791,3.045-0.791
			c1.188,0,2.359,0.243,3.504,0.731l-0.59,1.377c-1.114-0.463-2.133-0.693-3.037-0.693c-0.807,0-1.407,0.126-1.815,0.378
			c-0.408,0.251-0.611,0.599-0.611,1.042c0,0.3,0.076,0.555,0.229,0.766c0.15,0.211,0.396,0.412,0.736,0.604
			c0.344,0.191,0.994,0.468,1.961,0.828c1.324,0.482,2.219,0.971,2.676,1.461c0.457,0.488,0.687,1.104,0.687,1.849
			c0,1.034-0.388,1.832-1.152,2.394c-0.771,0.562-1.854,0.842-3.239,0.842c-1.479,0-2.636-0.23-3.459-0.693v-1.561
			c0.532,0.272,1.104,0.488,1.725,0.646c0.613,0.157,1.205,0.235,1.775,0.235c0.885,0,1.563-0.143,2.043-0.426
			c0.479-0.281,0.715-0.713,0.715-1.291c0-0.437-0.188-0.81-0.564-1.119c-0.379-0.311-1.11-0.676-2.211-1.098
			c-1.043-0.389-1.776-0.728-2.219-1.018s-0.762-0.618-0.975-0.986C140.979,411.823,140.873,411.385,140.873,410.874z"/>
		<path fill="#666565" d="M150.063,409.444v-0.814l1.604-0.703l0.713-2.387h0.979v2.59h3.236v1.313h-3.236v6.588
			c0,0.674,0.156,1.191,0.479,1.553c0.313,0.361,0.76,0.543,1.313,0.543c0.304,0,0.588-0.022,0.863-0.066
			c0.278-0.044,0.5-0.09,0.661-0.139v1.277c-0.184,0.088-0.452,0.159-0.813,0.217c-0.354,0.058-0.678,0.086-0.963,0.086
			c-2.156,0-3.236-1.139-3.236-3.414v-6.645h-1.604L150.063,409.444L150.063,409.444z"/>
		<path fill="#666565" d="M158.764,405.102c0-0.387,0.09-0.671,0.271-0.852c0.174-0.18,0.396-0.271,0.65-0.271
			c0.293,0,0.547,0.093,0.758,0.274c0.219,0.185,0.316,0.467,0.316,0.847s-0.104,0.664-0.316,0.851
			c-0.211,0.188-0.465,0.28-0.758,0.28c-0.266,0-0.479-0.093-0.65-0.28C158.854,405.766,158.764,405.483,158.764,405.102z
			 M158.91,419.297v-11.168h1.549v11.168H158.91z"/>
		<path fill="#666565" d="M164.188,419.297v-11.168h1.375l0.273,1.51h0.082c0.315-0.537,0.771-0.957,1.352-1.26
			c0.582-0.303,1.23-0.452,1.949-0.452c1.746,0,2.891,0.625,3.426,1.876h0.082c0.332-0.579,0.814-1.036,1.445-1.372
			c0.633-0.336,1.354-0.504,2.16-0.504c1.264,0,2.209,0.323,2.838,0.974c0.629,0.646,0.94,1.688,0.94,3.112v7.286h-1.688v-7.281
			c0-0.893-0.188-1.563-0.57-2.006c-0.381-0.446-0.973-0.669-1.771-0.669c-1.057,0-1.83,0.303-2.334,0.909
			c-0.502,0.604-0.754,1.537-0.754,2.798v6.249h-1.69v-7.281c0-0.893-0.189-1.563-0.568-2.006c-0.383-0.446-0.978-0.669-1.776-0.669
			c-1.063,0-1.836,0.317-2.33,0.954c-0.492,0.638-0.736,1.681-0.736,3.131v5.871L164.188,419.297L164.188,419.297z"/>
		<path fill="#666565" d="M182.762,416.222c0-2.25,1.809-3.429,5.418-3.537l1.898-0.063v-0.701c0-0.887-0.188-1.541-0.563-1.965
			c-0.379-0.424-0.979-0.635-1.81-0.635c-0.936,0-1.979,0.289-3.151,0.866l-0.521-1.298c0.551-0.294,1.147-0.525,1.809-0.691
			c0.654-0.168,1.313-0.252,1.973-0.252c1.33,0,2.314,0.295,2.957,0.889c0.646,0.591,0.963,1.537,0.963,2.843v7.622h-1.254
			l-0.336-1.571h-0.082c-0.557,0.692-1.104,1.162-1.662,1.407c-0.555,0.246-1.236,0.367-2.063,0.367
			c-1.11,0-1.983-0.283-2.617-0.854C183.08,418.079,182.762,417.27,182.762,416.222z M184.555,416.241
			c0,0.615,0.189,1.082,0.559,1.403c0.367,0.321,0.893,0.481,1.557,0.481c1.051,0,1.877-0.291,2.479-0.871
			c0.604-0.58,0.897-1.393,0.897-2.438v-1.014l-1.688,0.07c-1.344,0.049-2.313,0.259-2.897,0.631
			C184.854,414.879,184.555,415.456,184.555,416.241z"/>
		<path fill="#666565" d="M193.727,409.444v-0.814l1.604-0.703l0.713-2.387h0.979v2.59h3.238v1.313h-3.238v6.588
			c0,0.674,0.156,1.191,0.479,1.553c0.317,0.361,0.758,0.543,1.313,0.543c0.302,0,0.588-0.022,0.863-0.066
			c0.276-0.044,0.5-0.09,0.664-0.139v1.277c-0.188,0.088-0.455,0.159-0.814,0.217c-0.354,0.058-0.682,0.086-0.965,0.086
			c-2.154,0-3.234-1.139-3.234-3.414v-6.645h-1.604L193.727,409.444L193.727,409.444z"/>
		<path fill="#666565" d="M201.953,413.805c0-1.801,0.438-3.23,1.323-4.29c0.888-1.062,2.068-1.589,3.563-1.589
			c1.396,0,2.498,0.46,3.313,1.38c0.813,0.921,1.222,2.136,1.222,3.644v1.069h-7.688c0.033,1.312,0.36,2.306,0.994,2.985
			c0.631,0.679,1.521,1.019,2.655,1.019c1.199,0,2.388-0.251,3.56-0.754v1.509c-0.601,0.258-1.158,0.442-1.688,0.555
			c-0.531,0.111-1.174,0.168-1.929,0.168c-1.646,0-2.942-0.502-3.896-1.508C202.432,416.987,201.953,415.593,201.953,413.805z
			 M203.725,412.643h5.854c0-1.066-0.238-1.883-0.721-2.451c-0.479-0.566-1.15-0.851-2.041-0.851c-0.896,0-1.609,0.292-2.146,0.876
			C204.135,410.803,203.822,411.61,203.725,412.643z"/>
		<path fill="#666565" d="M213.57,410.874c0-0.91,0.369-1.631,1.104-2.157c0.74-0.527,1.756-0.791,3.047-0.791
			c1.193,0,2.361,0.243,3.504,0.731l-0.592,1.377c-1.115-0.463-2.131-0.693-3.035-0.693c-0.807,0-1.406,0.126-1.813,0.378
			c-0.41,0.251-0.613,0.599-0.613,1.042c0,0.3,0.076,0.555,0.229,0.766c0.146,0.211,0.396,0.412,0.736,0.604
			c0.342,0.191,0.992,0.468,1.963,0.828c1.32,0.482,2.217,0.971,2.672,1.461c0.455,0.488,0.688,1.104,0.688,1.849
			c0,1.034-0.389,1.832-1.153,2.394c-0.771,0.562-1.853,0.842-3.242,0.842c-1.479,0-2.633-0.23-3.459-0.693v-1.561
			c0.535,0.272,1.108,0.488,1.729,0.646c0.606,0.157,1.205,0.235,1.771,0.235c0.89,0,1.563-0.143,2.041-0.426
			c0.479-0.281,0.717-0.713,0.717-1.291c0-0.437-0.188-0.81-0.563-1.119c-0.377-0.311-1.113-0.676-2.211-1.098
			c-1.041-0.389-1.777-0.728-2.217-1.018c-0.44-0.29-0.767-0.618-0.979-0.986C213.674,411.823,213.57,411.385,213.57,410.874z"/>
	</g>
	
		<line fill="none" stroke="#666666" stroke-width="0.25" stroke-miterlimit="10" x1="95.275" y1="458.173" x2="95.275" y2="706.205"/>
	
		<line fill="none" stroke="#666666" stroke-width="0.25" stroke-miterlimit="10" x1="225.986" y1="706.205" x2="81.553" y2="706.205"/>
	
		<line fill="none" stroke="#666666" stroke-width="0.25" stroke-miterlimit="10" x1="225.986" y1="458.173" x2="81.553" y2="458.173"/>
</g>
<g id="legend">
	<g>
		<g>
			<path fill="#5B5B5F" d="M82.98,765.044c0-1.275,0.234-2.395,0.709-3.355c0.478-0.963,1.16-1.703,2.064-2.225
				c0.897-0.521,1.965-0.781,3.188-0.781c1.306,0,2.438,0.236,3.414,0.715l-0.608,1.236c-0.938-0.438-1.884-0.66-2.818-0.66
				c-1.363,0-2.439,0.453-3.229,1.359c-0.787,0.908-1.187,2.15-1.187,3.729c0,1.625,0.383,2.879,1.146,3.766
				c0.764,0.885,1.85,1.328,3.258,1.328c0.862,0,1.854-0.156,2.965-0.471v1.271c-0.859,0.324-1.924,0.486-3.188,0.486
				c-1.828,0-3.233-0.563-4.227-1.666C83.475,768.667,82.98,767.089,82.98,765.044z"/>
			<path fill="#5B5B5F" d="M93.865,766.603c0-1.518,0.377-2.693,1.135-3.537c0.756-0.848,1.809-1.271,3.146-1.271
				c1.299,0,2.33,0.439,3.099,1.297c0.766,0.865,1.146,2.035,1.146,3.516c0,1.52-0.381,2.707-1.145,3.563
				c-0.767,0.854-1.814,1.279-3.158,1.279c-0.83,0-1.564-0.193-2.211-0.588c-0.646-0.396-1.144-0.953-1.486-1.689
				C94.041,768.441,93.865,767.583,93.865,766.603z M95.311,766.603c0,1.188,0.236,2.102,0.715,2.727
				c0.479,0.623,1.179,0.938,2.104,0.938c0.924,0,1.625-0.313,2.104-0.934c0.479-0.621,0.722-1.529,0.722-2.729
				c0-1.189-0.238-2.088-0.722-2.703c-0.479-0.615-1.188-0.922-2.123-0.922c-0.924,0-1.621,0.303-2.092,0.908
				C95.543,764.496,95.311,765.4,95.311,766.603z"/>
			<path fill="#5B5B5F" d="M104.293,764.253c0-0.758,0.309-1.354,0.924-1.797c0.617-0.439,1.463-0.658,2.537-0.658
				c0.994,0,1.971,0.203,2.92,0.609l-0.49,1.145c-0.934-0.389-1.772-0.578-2.531-0.578c-0.67,0-1.174,0.105-1.516,0.314
				s-0.512,0.498-0.512,0.867c0,0.25,0.063,0.463,0.188,0.641c0.127,0.176,0.332,0.342,0.617,0.502
				c0.281,0.156,0.826,0.393,1.633,0.689c1.105,0.395,1.851,0.811,2.229,1.217c0.379,0.408,0.565,0.922,0.565,1.541
				c0,0.861-0.315,1.527-0.963,1.994c-0.643,0.467-1.541,0.701-2.699,0.701c-1.229,0-2.19-0.191-2.885-0.578v-1.307
				c0.445,0.23,0.929,0.404,1.438,0.535c0.514,0.133,1.006,0.193,1.479,0.193c0.736,0,1.31-0.117,1.703-0.354
				c0.396-0.232,0.598-0.594,0.598-1.074c0-0.363-0.155-0.676-0.475-0.936c-0.313-0.258-0.932-0.563-1.844-0.914
				c-0.867-0.322-1.482-0.604-1.849-0.85c-0.365-0.242-0.637-0.516-0.813-0.818C104.381,765.048,104.293,764.679,104.293,764.253z"
				/>
			<path fill="#5B5B5F" d="M111.953,763.064v-0.682l1.334-0.588l0.594-1.986h0.813v2.158h2.699v1.096h-2.699v5.49
				c0,0.563,0.136,0.99,0.398,1.293c0.265,0.305,0.631,0.449,1.096,0.449c0.25,0,0.49-0.018,0.726-0.055
				c0.229-0.037,0.416-0.074,0.553-0.115v1.066c-0.15,0.064-0.379,0.133-0.676,0.18c-0.299,0.047-0.563,0.072-0.806,0.072
				c-1.801,0-2.698-0.949-2.698-2.854v-5.537L111.953,763.064L111.953,763.064z"/>
			<path fill="#5B5B5F" d="M123.84,771.275v-9.311h1.146l0.229,1.258h0.068c0.284-0.453,0.69-0.807,1.215-1.057
				c0.52-0.25,1.104-0.375,1.737-0.375c1.121,0,1.966,0.271,2.529,0.813c0.564,0.543,0.853,1.406,0.853,2.596v6.07h-1.408v-6.031
				c0-0.762-0.174-1.326-0.521-1.701c-0.346-0.375-0.887-0.564-1.621-0.564c-0.975,0-1.688,0.27-2.141,0.791
				c-0.453,0.525-0.682,1.396-0.682,2.613v4.896h-1.408L123.84,771.275L123.84,771.275z"/>
			<path fill="#5B5B5F" d="M133.998,766.603c0-1.518,0.377-2.693,1.135-3.537c0.758-0.848,1.807-1.271,3.146-1.271
				c1.302,0,2.33,0.439,3.099,1.297c0.766,0.865,1.145,2.035,1.145,3.516c0,1.52-0.381,2.707-1.145,3.563
				c-0.765,0.854-1.813,1.279-3.156,1.279c-0.83,0-1.566-0.193-2.211-0.588c-0.646-0.396-1.141-0.953-1.488-1.689
				C134.172,768.441,133.998,767.583,133.998,766.603z M135.441,766.603c0,1.188,0.238,2.102,0.715,2.727
				c0.479,0.623,1.179,0.938,2.104,0.938s1.625-0.313,2.104-0.934c0.48-0.621,0.727-1.529,0.727-2.729
				c0-1.189-0.235-2.088-0.727-2.703c-0.479-0.615-1.188-0.922-2.115-0.922c-0.927,0-1.621,0.303-2.095,0.908
				C135.676,764.496,135.441,765.4,135.441,766.603z"/>
			<path fill="#5B5B5F" d="M145.021,771.275v-9.311h1.146l0.229,1.258h0.063c0.287-0.453,0.688-0.807,1.215-1.057
				c0.521-0.25,1.104-0.375,1.74-0.375c1.121,0,1.963,0.271,2.523,0.813c0.566,0.541,0.854,1.406,0.854,2.596v6.07h-1.405v-6.031
				c0-0.762-0.177-1.326-0.521-1.701c-0.351-0.375-0.892-0.564-1.621-0.564c-0.979,0-1.688,0.27-2.146,0.791
				c-0.453,0.525-0.681,1.396-0.681,2.613v4.896h-1.407L145.021,771.275L145.021,771.275z"/>
			<path fill="#5B5B5F" d="M154.912,767.257v-1.291h4.17v1.291H154.912z"/>
			<path fill="#5B5B5F" d="M160.041,763.064v-0.639l1.666-0.512v-0.518c0-2.275,0.998-3.416,2.996-3.416
				c0.489,0,1.067,0.1,1.729,0.295l-0.365,1.109c-0.543-0.176-1.008-0.266-1.396-0.266c-0.53,0-0.928,0.18-1.187,0.531
				c-0.259,0.354-0.386,0.922-0.386,1.701v0.605h2.369v1.096H163.1v8.209H161.7v-8.209L160.041,763.064L160.041,763.064z"/>
			<path fill="#5B5B5F" d="M166.488,768.71c0-1.875,1.509-2.854,4.519-2.945l1.582-0.055v-0.584c0-0.736-0.154-1.283-0.471-1.637
				c-0.317-0.355-0.814-0.529-1.509-0.529c-0.771,0-1.646,0.24-2.627,0.725l-0.438-1.082c0.459-0.244,0.961-0.438,1.509-0.576
				c0.549-0.143,1.096-0.209,1.646-0.209c1.104,0,1.932,0.246,2.467,0.738c0.533,0.492,0.801,1.281,0.801,2.367v6.355h-1.045
				l-0.275-1.314h-0.064c-0.464,0.576-0.93,0.967-1.391,1.172c-0.459,0.205-1.032,0.313-1.729,0.313c-0.928,0-1.65-0.236-2.18-0.711
				C166.75,770.257,166.488,769.585,166.488,768.71z M167.982,768.728c0,0.514,0.154,0.898,0.463,1.17
				c0.312,0.27,0.738,0.396,1.291,0.396c0.877,0,1.563-0.238,2.063-0.725c0.5-0.488,0.75-1.16,0.75-2.031v-0.844l-1.404,0.063
				c-1.117,0.039-1.928,0.215-2.42,0.523C168.23,767.591,167.982,768.074,167.982,768.728z"/>
			<path fill="#5B5B5F" d="M175.625,763.064v-0.682l1.332-0.588l0.596-1.986h0.813v2.158h2.697v1.096h-2.697v5.49
				c0,0.563,0.135,0.99,0.396,1.293c0.266,0.305,0.631,0.449,1.096,0.449c0.248,0,0.488-0.018,0.727-0.055
				c0.229-0.037,0.416-0.074,0.554-0.115v1.066c-0.152,0.064-0.38,0.133-0.677,0.18c-0.299,0.047-0.563,0.072-0.805,0.072
				c-1.803,0-2.699-0.949-2.699-2.854v-5.537L175.625,763.064L175.625,763.064z"/>
			<path fill="#5B5B5F" d="M182.299,768.71c0-1.875,1.508-2.854,4.518-2.945l1.582-0.055v-0.584c0-0.736-0.152-1.283-0.473-1.637
				c-0.313-0.355-0.814-0.529-1.506-0.529c-0.771,0-1.646,0.24-2.627,0.725l-0.438-1.082c0.459-0.244,0.961-0.438,1.508-0.576
				c0.548-0.143,1.097-0.209,1.646-0.209c1.104,0,1.932,0.246,2.467,0.738c0.533,0.492,0.803,1.281,0.803,2.367v6.355h-1.045
				l-0.275-1.314h-0.065c-0.464,0.576-0.927,0.967-1.388,1.172c-0.459,0.205-1.035,0.313-1.729,0.313
				c-0.928,0-1.648-0.236-2.182-0.711C182.564,770.257,182.299,769.585,182.299,768.71z M183.793,768.728
				c0,0.514,0.149,0.898,0.463,1.17c0.309,0.27,0.736,0.396,1.291,0.396c0.877,0,1.563-0.238,2.063-0.725
				c0.5-0.488,0.75-1.16,0.75-2.031v-0.844l-1.403,0.063c-1.119,0.039-1.931,0.215-2.422,0.523
				C184.041,767.591,183.793,768.074,183.793,768.728z"/>
			<path fill="#5B5B5F" d="M192.666,771.275V758.06h1.41v13.215H192.666z"/>
			<path fill="#5B5B5F" d="M201.066,766.679c0-1.559,0.373-2.762,1.117-3.607c0.744-0.848,1.813-1.271,3.192-1.271
				c0.441,0,0.896,0.049,1.347,0.146c0.442,0.098,0.799,0.209,1.053,0.34l-0.437,1.197c-0.313-0.125-0.647-0.229-1.021-0.313
				c-0.365-0.082-0.689-0.123-0.979-0.123c-1.896,0-2.836,1.207-2.836,3.617c0,1.146,0.229,2.021,0.688,2.633
				c0.461,0.609,1.146,0.918,2.056,0.918c0.771,0,1.565-0.168,2.39-0.502v1.25c-0.622,0.32-1.405,0.482-2.354,0.482
				c-1.348,0-2.387-0.416-3.115-1.244C201.434,769.371,201.066,768.197,201.066,766.679z"/>
			<path fill="#5B5B5F" d="M209.166,768.71c0-1.875,1.506-2.854,4.518-2.945l1.582-0.055v-0.584c0-0.736-0.156-1.283-0.473-1.637
				c-0.313-0.355-0.813-0.529-1.504-0.529c-0.771,0-1.648,0.24-2.627,0.725l-0.439-1.082c0.459-0.244,0.961-0.438,1.508-0.576
				c0.547-0.143,1.1-0.209,1.646-0.209c1.104,0,1.934,0.246,2.465,0.738c0.533,0.492,0.805,1.281,0.805,2.367v6.355H215.6
				l-0.279-1.314h-0.063c-0.463,0.576-0.926,0.967-1.387,1.172c-0.459,0.205-1.033,0.313-1.729,0.313
				c-0.929,0-1.654-0.236-2.183-0.711C209.432,770.257,209.166,769.585,209.166,768.71z M210.662,768.728
				c0,0.514,0.149,0.898,0.463,1.17c0.309,0.27,0.733,0.396,1.291,0.396c0.877,0,1.563-0.238,2.063-0.725
				c0.5-0.488,0.75-1.16,0.75-2.031v-0.844l-1.408,0.063c-1.114,0.039-1.926,0.215-2.42,0.523
				C210.908,767.591,210.662,768.074,210.662,768.728z"/>
			<path fill="#5B5B5F" d="M218.941,764.253c0-0.758,0.312-1.354,0.924-1.797c0.617-0.439,1.466-0.658,2.537-0.658
				c0.996,0,1.974,0.203,2.92,0.609l-0.487,1.145c-0.935-0.389-1.773-0.578-2.531-0.578c-0.67,0-1.174,0.105-1.514,0.314
				c-0.345,0.209-0.515,0.498-0.515,0.867c0,0.25,0.063,0.463,0.188,0.641c0.125,0.176,0.332,0.342,0.617,0.502
				c0.276,0.156,0.821,0.393,1.633,0.689c1.104,0.395,1.85,0.811,2.229,1.217c0.381,0.408,0.57,0.922,0.57,1.541
				c0,0.861-0.32,1.527-0.966,1.994c-0.646,0.467-1.541,0.701-2.698,0.701c-1.229,0-2.193-0.191-2.886-0.578v-1.307
				c0.447,0.23,0.929,0.404,1.438,0.535c0.517,0.133,1.006,0.193,1.479,0.193c0.733,0,1.309-0.117,1.701-0.354
				c0.396-0.232,0.6-0.594,0.6-1.074c0-0.363-0.156-0.676-0.477-0.936c-0.313-0.258-0.935-0.563-1.847-0.914
				c-0.862-0.322-1.479-0.604-1.848-0.85c-0.365-0.238-0.638-0.516-0.814-0.818C219.029,765.048,218.941,764.679,218.941,764.253z"
				/>
			<path fill="#5B5B5F" d="M227.316,766.697c0-1.5,0.367-2.691,1.104-3.576c0.737-0.883,1.729-1.322,2.971-1.322
				c1.16,0,2.082,0.385,2.758,1.148c0.684,0.77,1.021,1.777,1.021,3.037v0.895h-6.399c0.024,1.094,0.308,1.922,0.826,2.484
				c0.522,0.564,1.268,0.854,2.221,0.854c0.998,0,1.981-0.209,2.963-0.629v1.258c-0.495,0.219-0.967,0.369-1.407,0.463
				c-0.443,0.102-0.979,0.146-1.604,0.146c-1.371,0-2.453-0.42-3.248-1.258C227.713,769.351,227.316,768.187,227.316,766.697z
				 M228.791,765.728h4.875c0-0.893-0.197-1.568-0.599-2.041c-0.396-0.477-0.965-0.709-1.7-0.709c-0.746,0-1.347,0.24-1.789,0.729
				C229.135,764.197,228.871,764.869,228.791,765.728z"/>
			<path fill="#5B5B5F" d="M236.996,764.253c0-0.758,0.309-1.354,0.924-1.797c0.617-0.439,1.461-0.658,2.537-0.658
				c0.994,0,1.969,0.203,2.92,0.609l-0.492,1.145c-0.932-0.389-1.773-0.578-2.529-0.578c-0.67,0-1.174,0.105-1.516,0.314
				s-0.512,0.498-0.512,0.867c0,0.25,0.063,0.463,0.188,0.641c0.127,0.176,0.332,0.342,0.617,0.502
				c0.278,0.156,0.823,0.393,1.633,0.689c1.104,0.395,1.846,0.811,2.229,1.217c0.379,0.408,0.565,0.922,0.565,1.541
				c0,0.861-0.315,1.527-0.963,1.994c-0.646,0.467-1.541,0.701-2.701,0.701c-1.229,0-2.188-0.191-2.883-0.578v-1.307
				c0.442,0.23,0.926,0.404,1.438,0.535c0.512,0.133,1.006,0.193,1.479,0.193c0.736,0,1.311-0.117,1.703-0.354
				c0.396-0.232,0.596-0.594,0.596-1.074c0-0.363-0.15-0.676-0.475-0.936c-0.314-0.258-0.93-0.563-1.842-0.914
				c-0.869-0.322-1.482-0.604-1.853-0.85c-0.36-0.24-0.633-0.516-0.813-0.818C237.084,765.048,236.996,764.679,236.996,764.253z"/>
		</g>
		<rect x="53.957" y="755.816" fill="#DD9B2B" width="17.803" height="17.803"/>
	</g>
	<g>
		<g>
			<path fill="#5B5B5F" d="M82.98,792.734c0-1.275,0.234-2.396,0.709-3.357c0.478-0.961,1.16-1.703,2.064-2.225
				c0.899-0.521,1.965-0.779,3.188-0.779c1.306,0,2.438,0.236,3.414,0.713l-0.608,1.238c-0.938-0.439-1.884-0.662-2.818-0.662
				c-1.363,0-2.439,0.455-3.229,1.361c-0.787,0.906-1.187,2.146-1.187,3.729c0,1.623,0.383,2.877,1.146,3.77
				c0.764,0.889,1.85,1.322,3.258,1.322c0.862,0,1.854-0.146,2.965-0.467v1.271c-0.859,0.322-1.924,0.482-3.188,0.482
				c-1.828,0-3.233-0.555-4.227-1.666C83.475,796.357,82.98,794.781,82.98,792.734z"/>
			<path fill="#5B5B5F" d="M93.865,794.294c0-1.514,0.377-2.691,1.135-3.539c0.756-0.844,1.809-1.27,3.146-1.27
				c1.299,0,2.33,0.436,3.099,1.299c0.766,0.863,1.146,2.033,1.146,3.51c0,1.521-0.381,2.707-1.145,3.563
				c-0.767,0.854-1.814,1.279-3.158,1.279c-0.83,0-1.564-0.195-2.211-0.59c-0.646-0.391-1.144-0.951-1.486-1.686
				C94.041,796.132,93.865,795.275,93.865,794.294z M95.311,794.294c0,1.189,0.236,2.104,0.715,2.727
				c0.479,0.625,1.179,0.938,2.104,0.938c0.924,0,1.625-0.313,2.104-0.932c0.479-0.621,0.722-1.531,0.722-2.73
				c0-1.186-0.238-2.086-0.722-2.703c-0.479-0.607-1.188-0.922-2.123-0.922c-0.924,0-1.621,0.305-2.092,0.91
				C95.543,792.185,95.311,793.089,95.311,794.294z"/>
			<path fill="#5B5B5F" d="M104.293,791.943c0-0.76,0.309-1.355,0.924-1.797c0.617-0.439,1.463-0.66,2.537-0.66
				c0.994,0,1.971,0.205,2.92,0.609l-0.49,1.146c-0.934-0.387-1.772-0.578-2.531-0.578c-0.67,0-1.174,0.104-1.516,0.314
				c-0.342,0.209-0.512,0.494-0.512,0.861c0,0.25,0.063,0.465,0.188,0.645c0.127,0.176,0.332,0.344,0.617,0.502
				c0.281,0.158,0.826,0.391,1.633,0.688c1.105,0.402,1.851,0.814,2.229,1.223c0.379,0.404,0.565,0.922,0.565,1.537
				c0,0.861-0.315,1.523-0.963,1.994c-0.643,0.471-1.541,0.701-2.699,0.701c-1.229,0-2.19-0.188-2.885-0.578v-1.303
				c0.445,0.23,0.929,0.404,1.438,0.535c0.514,0.131,1.006,0.195,1.479,0.195c0.736,0,1.31-0.119,1.703-0.355
				c0.396-0.234,0.598-0.594,0.598-1.076c0-0.357-0.155-0.674-0.475-0.934c-0.313-0.26-0.932-0.564-1.844-0.914
				c-0.867-0.324-1.482-0.605-1.849-0.852c-0.364-0.236-0.637-0.52-0.813-0.816C104.381,792.736,104.293,792.371,104.293,791.943z"
				/>
			<path fill="#5B5B5F" d="M111.953,790.753v-0.68l1.334-0.588l0.594-1.984h0.813v2.156h2.699v1.096h-2.699v5.49
				c0,0.563,0.136,0.994,0.398,1.295c0.265,0.303,0.631,0.451,1.096,0.451c0.25,0,0.49-0.021,0.726-0.064
				c0.229-0.033,0.416-0.068,0.553-0.107v1.063c-0.15,0.07-0.379,0.133-0.676,0.186c-0.299,0.047-0.563,0.066-0.806,0.066
				c-1.801,0-2.698-0.945-2.698-2.848v-5.537L111.953,790.753L111.953,790.753z"/>
			<path fill="#5B5B5F" d="M122.594,790.753v-0.637l1.664-0.51v-0.521c0-2.27,0.998-3.416,2.996-3.416
				c0.492,0,1.07,0.105,1.729,0.295l-0.362,1.115c-0.543-0.178-1.011-0.27-1.396-0.27c-0.533,0-0.928,0.182-1.184,0.529
				c-0.254,0.355-0.381,0.92-0.381,1.701v0.605h2.364v1.098h-2.364v8.211h-1.41v-8.211L122.594,790.753L122.594,790.753z"/>
			<path fill="#5B5B5F" d="M129.039,796.4c0-1.875,1.506-2.854,4.518-2.945l1.582-0.055v-0.584c0-0.736-0.158-1.283-0.473-1.639
				c-0.315-0.354-0.814-0.527-1.506-0.527c-0.771,0-1.646,0.24-2.627,0.725l-0.438-1.082c0.459-0.246,0.961-0.438,1.508-0.574
				c0.545-0.143,1.094-0.209,1.646-0.209c1.104,0,1.93,0.244,2.465,0.736c0.535,0.49,0.805,1.279,0.805,2.369v6.354h-1.045
				l-0.281-1.313h-0.063c-0.465,0.576-0.928,0.969-1.39,1.174c-0.461,0.203-1.032,0.314-1.725,0.314
				c-0.93,0-1.654-0.234-2.182-0.717C129.303,797.951,129.039,797.275,129.039,796.4z M130.533,796.419
				c0,0.514,0.149,0.898,0.463,1.168c0.307,0.271,0.733,0.402,1.291,0.402c0.877,0,1.563-0.242,2.063-0.73
				c0.5-0.484,0.75-1.16,0.75-2.027v-0.848l-1.408,0.064c-1.114,0.041-1.926,0.215-2.42,0.52
				C130.779,795.285,130.533,795.763,130.533,796.419z"/>
			<path fill="#5B5B5F" d="M138.176,790.753v-0.68l1.334-0.588l0.594-1.984h0.814v2.156h2.699v1.096h-2.699v5.49
				c0,0.563,0.133,0.994,0.396,1.295c0.268,0.303,0.631,0.451,1.099,0.451c0.248,0,0.485-0.021,0.723-0.064
				c0.229-0.033,0.416-0.068,0.553-0.107v1.063c-0.146,0.07-0.377,0.133-0.674,0.186c-0.301,0.047-0.566,0.066-0.805,0.066
				c-1.801,0-2.699-0.945-2.699-2.848v-5.537L138.176,790.753L138.176,790.753z"/>
			<path fill="#5B5B5F" d="M144.852,796.4c0-1.875,1.506-2.854,4.521-2.945l1.582-0.055v-0.584c0-0.736-0.156-1.283-0.477-1.639
				c-0.313-0.354-0.813-0.527-1.506-0.527c-0.771,0-1.646,0.24-2.627,0.725l-0.438-1.082c0.459-0.246,0.961-0.438,1.508-0.574
				c0.547-0.143,1.094-0.209,1.645-0.209c1.107,0,1.936,0.244,2.465,0.736c0.535,0.49,0.809,1.279,0.809,2.369v6.354h-1.045
				l-0.279-1.313h-0.063c-0.465,0.576-0.928,0.969-1.392,1.174c-0.459,0.203-1.03,0.314-1.725,0.314
				c-0.934,0-1.654-0.234-2.186-0.717C145.113,797.951,144.852,797.275,144.852,796.4z M146.346,796.419
				c0,0.514,0.152,0.898,0.463,1.168c0.313,0.271,0.736,0.402,1.291,0.402c0.877,0,1.564-0.242,2.064-0.73
				c0.5-0.484,0.75-1.16,0.75-2.027v-0.848l-1.408,0.064c-1.115,0.041-1.926,0.215-2.42,0.52
				C146.592,795.285,146.346,795.763,146.346,796.419z"/>
			<path fill="#5B5B5F" d="M155.219,798.964v-13.213h1.408v13.213H155.219z"/>
			<path fill="#5B5B5F" d="M163.617,794.371c0-1.561,0.368-2.762,1.112-3.607c0.746-0.85,1.813-1.27,3.197-1.27
				c0.442,0,0.896,0.049,1.342,0.145c0.444,0.102,0.799,0.209,1.058,0.342l-0.437,1.195c-0.313-0.125-0.649-0.229-1.021-0.313
				s-0.691-0.123-0.979-0.123c-1.896,0-2.838,1.205-2.838,3.617c0,1.145,0.229,2.02,0.688,2.633
				c0.461,0.607,1.146,0.916,2.051,0.916c0.771,0,1.568-0.166,2.39-0.5v1.248c-0.621,0.318-1.406,0.48-2.354,0.48
				c-1.352,0-2.393-0.414-3.119-1.244C163.984,797.062,163.617,795.888,163.617,794.371z"/>
			<path fill="#5B5B5F" d="M171.719,796.4c0-1.875,1.506-2.854,4.516-2.945l1.582-0.055v-0.584c0-0.736-0.15-1.283-0.471-1.639
				c-0.313-0.354-0.813-0.527-1.506-0.527c-0.771,0-1.648,0.24-2.627,0.725l-0.439-1.082c0.459-0.246,0.961-0.438,1.514-0.574
				c0.547-0.143,1.096-0.209,1.646-0.209c1.105,0,1.933,0.244,2.467,0.736c0.529,0.49,0.804,1.279,0.804,2.369v6.354h-1.048
				l-0.275-1.313h-0.067c-0.464,0.576-0.925,0.969-1.386,1.174c-0.461,0.203-1.034,0.314-1.729,0.314
				c-0.926,0-1.648-0.234-2.18-0.717C171.982,797.951,171.719,797.275,171.719,796.4z M173.213,796.419
				c0,0.514,0.149,0.898,0.461,1.168c0.311,0.271,0.738,0.402,1.293,0.402c0.875,0,1.563-0.242,2.063-0.73
				c0.5-0.484,0.75-1.16,0.75-2.027v-0.848l-1.4,0.064c-1.117,0.041-1.93,0.215-2.42,0.52
				C173.459,795.285,173.213,795.763,173.213,796.419z"/>
			<path fill="#5B5B5F" d="M181.492,791.943c0-0.76,0.309-1.355,0.926-1.797c0.615-0.439,1.461-0.66,2.537-0.66
				c0.994,0,1.969,0.205,2.92,0.609l-0.492,1.146c-0.932-0.387-1.773-0.578-2.529-0.578c-0.67,0-1.174,0.104-1.516,0.314
				c-0.342,0.209-0.512,0.494-0.512,0.861c0,0.25,0.063,0.465,0.188,0.645c0.127,0.176,0.332,0.344,0.612,0.502
				c0.283,0.158,0.828,0.391,1.638,0.688c1.104,0.402,1.846,0.814,2.229,1.223c0.379,0.404,0.565,0.922,0.565,1.537
				c0,0.861-0.315,1.523-0.963,1.994c-0.646,0.471-1.541,0.701-2.701,0.701c-1.229,0-2.188-0.188-2.883-0.578v-1.303
				c0.442,0.23,0.926,0.404,1.438,0.535c0.512,0.131,1.006,0.195,1.479,0.195c0.736,0,1.305-0.119,1.701-0.355
				c0.396-0.234,0.598-0.594,0.598-1.076c0-0.357-0.152-0.674-0.475-0.934c-0.314-0.26-0.93-0.564-1.842-0.914
				c-0.869-0.324-1.482-0.605-1.853-0.852c-0.36-0.236-0.633-0.52-0.813-0.816C181.582,792.736,181.492,792.371,181.492,791.943z"/>
			<path fill="#5B5B5F" d="M189.865,794.388c0-1.5,0.364-2.689,1.104-3.572c0.734-0.887,1.727-1.326,2.969-1.326
				c1.162,0,2.082,0.387,2.758,1.148c0.684,0.77,1.021,1.777,1.021,3.037v0.895h-6.399c0.022,1.092,0.308,1.922,0.83,2.484
				c0.521,0.564,1.265,0.852,2.215,0.852c1,0,1.984-0.209,2.966-0.627v1.256c-0.496,0.217-0.97,0.371-1.41,0.463
				c-0.441,0.098-0.979,0.145-1.604,0.145c-1.371,0-2.453-0.42-3.248-1.26C190.264,797.041,189.865,795.876,189.865,794.388z
				 M191.344,793.419h4.873c0-0.889-0.197-1.566-0.596-2.041c-0.396-0.473-0.968-0.709-1.701-0.709
				c-0.748,0-1.346,0.242-1.791,0.729C191.686,791.886,191.422,792.558,191.344,793.419z"/>
			<path fill="#5B5B5F" d="M199.545,791.943c0-0.76,0.311-1.355,0.926-1.797c0.615-0.439,1.463-0.66,2.535-0.66
				c0.996,0,1.971,0.205,2.922,0.609l-0.492,1.146c-0.932-0.387-1.771-0.578-2.529-0.578c-0.67,0-1.176,0.104-1.516,0.314
				c-0.342,0.209-0.512,0.494-0.512,0.861c0,0.25,0.063,0.465,0.188,0.645c0.129,0.176,0.334,0.344,0.617,0.502
				c0.28,0.158,0.828,0.391,1.635,0.688c1.104,0.402,1.849,0.814,2.229,1.223c0.381,0.404,0.57,0.922,0.57,1.537
				c0,0.861-0.32,1.523-0.966,1.994s-1.543,0.701-2.7,0.701c-1.23,0-2.191-0.188-2.884-0.578v-1.303
				c0.445,0.23,0.929,0.404,1.438,0.535c0.514,0.131,1.004,0.195,1.479,0.195c0.736,0,1.311-0.119,1.701-0.355
				c0.396-0.234,0.602-0.594,0.602-1.076c0-0.357-0.156-0.674-0.479-0.934c-0.313-0.26-0.93-0.564-1.844-0.914
				c-0.865-0.324-1.482-0.605-1.848-0.852c-0.363-0.236-0.638-0.52-0.813-0.816C199.635,792.736,199.545,792.371,199.545,791.943z"
				/>
		</g>
		<rect x="53.957" y="783.505" fill="#199598" width="17.803" height="17.801"/>
	</g>
</g>
</svg>
