<?xml version="1.0" encoding="utf-8"?>
<!-- Generator: Adobe Illustrator 16.0.0, SVG Export Plug-In . SVG Version: 6.00 Build 0)  -->
<!DOCTYPE svg PUBLIC "-//W3C//DTD SVG 1.1//EN" "http://www.w3.org/Graphics/SVG/1.1/DTD/svg11.dtd">
<svg version="1.1" id="Capa_1" xmlns="http://www.w3.org/2000/svg" xmlns:xlink="http://www.w3.org/1999/xlink" x="0px" y="0px"
	 width="779.527px" height="357.166px" viewBox="-27.263 -13.833 779.527 357.166"
	 enable-background="new -27.263 -13.833 779.527 357.166" xml:space="preserve">
<g>
	<g>
		<path fill="#666565" d="M90.424,237.002c0-1.378,0.215-2.402,0.646-3.074c0.433-0.669,1.09-1.002,1.977-1.002
			c0.862,0,1.514,0.351,1.959,1.048c0.446,0.697,0.671,1.708,0.671,3.03c0,1.375-0.215,2.397-0.648,3.072
			c-0.434,0.677-1.094,1.013-1.981,1.013c-0.856,0-1.508-0.346-1.954-1.037C90.645,239.358,90.424,238.342,90.424,237.002z
			 M91.345,237.002c0,1.151,0.136,1.988,0.404,2.513c0.271,0.524,0.705,0.787,1.294,0.787c0.6,0,1.034-0.265,1.303-0.798
			c0.269-0.531,0.403-1.365,0.403-2.502c0-1.135-0.134-1.969-0.403-2.494c-0.269-0.532-0.703-0.793-1.303-0.793
			c-0.59,0-1.023,0.259-1.294,0.778C91.481,235.016,91.345,235.851,91.345,237.002z"/>
	</g>
	<g>
		<path fill="#666565" d="M135.442,240.981v-0.771l2.089-2.106c0.635-0.646,1.054-1.104,1.259-1.38
			c0.202-0.277,0.352-0.546,0.453-0.81c0.101-0.259,0.154-0.541,0.154-0.844c0-0.426-0.129-0.766-0.387-1.008
			c-0.257-0.252-0.613-0.374-1.069-0.374c-0.329,0-0.639,0.055-0.935,0.163c-0.296,0.109-0.624,0.307-0.984,0.593l-0.478-0.616
			c0.731-0.597,1.526-0.897,2.387-0.897c0.745,0,1.329,0.189,1.751,0.572c0.423,0.38,0.632,0.89,0.632,1.527
			c0,0.505-0.141,1.003-0.423,1.501c-0.282,0.493-0.811,1.119-1.584,1.873l-1.737,1.702v0.043h4.08v0.824h-5.212v0.006
			L135.442,240.981L135.442,240.981z"/>
		<path fill="#666565" d="M141.804,237.002c0-1.378,0.215-2.402,0.648-3.074c0.432-0.669,1.089-1.002,1.978-1.002
			c0.861,0,1.513,0.351,1.959,1.048c0.444,0.697,0.668,1.708,0.668,3.03c0,1.375-0.215,2.397-0.647,3.072
			c-0.433,0.677-1.092,1.013-1.981,1.013c-0.858,0-1.509-0.346-1.954-1.037C142.028,239.358,141.804,238.342,141.804,237.002z
			 M142.727,237.002c0,1.151,0.134,1.988,0.405,2.513s0.702,0.787,1.292,0.787c0.6,0,1.036-0.265,1.302-0.798
			c0.27-0.531,0.404-1.365,0.404-2.502c0-1.135-0.135-1.969-0.404-2.494c-0.267-0.532-0.703-0.793-1.302-0.793
			c-0.59,0-1.021,0.259-1.292,0.778C142.862,235.016,142.727,235.851,142.727,237.002z"/>
	</g>
	<g>
		<path fill="#666565" d="M183.325,239.163v-0.791l3.765-5.364h0.956v5.331h1.189v0.824h-1.189v1.818h-0.852v-1.818H183.325z
			 M184.237,238.339h2.959v-2.637c0-0.516,0.018-1.099,0.054-1.749h-0.043c-0.174,0.351-0.337,0.632-0.49,0.861L184.237,238.339z"/>
		<path fill="#666565" d="M190.009,237.002c0-1.378,0.215-2.402,0.648-3.074c0.432-0.669,1.091-1.002,1.978-1.002
			c0.861,0,1.513,0.351,1.958,1.048c0.445,0.697,0.67,1.708,0.67,3.03c0,1.375-0.216,2.397-0.648,3.072
			c-0.433,0.677-1.092,1.013-1.982,1.013c-0.857,0-1.509-0.346-1.953-1.037C190.231,239.358,190.009,238.342,190.009,237.002z
			 M190.932,237.002c0,1.151,0.135,1.988,0.405,2.513c0.271,0.524,0.702,0.787,1.294,0.787c0.598,0,1.034-0.265,1.302-0.798
			c0.268-0.531,0.402-1.365,0.402-2.502c0-1.135-0.135-1.969-0.402-2.494c-0.269-0.532-0.705-0.793-1.302-0.793
			c-0.592,0-1.023,0.259-1.294,0.778C191.067,235.016,190.932,235.851,190.932,237.002z"/>
	</g>
	<g>
		<path fill="#666565" d="M231.945,237.592c0-1.558,0.304-2.725,0.909-3.496c0.606-0.773,1.503-1.16,2.688-1.16
			c0.41,0,0.732,0.035,0.968,0.103v0.787c-0.28-0.105-0.598-0.157-0.957-0.157c-0.85,0-1.499,0.267-1.946,0.797
			c-0.449,0.533-0.695,1.368-0.737,2.509h0.065c0.396-0.616,1.027-0.924,1.888-0.924c0.716,0,1.28,0.214,1.691,0.645
			c0.413,0.428,0.62,1.012,0.62,1.748c0,0.821-0.226,1.47-0.676,1.94c-0.451,0.472-1.063,0.705-1.835,0.705
			c-0.819,0-1.47-0.308-1.954-0.924C232.185,239.55,231.945,238.691,231.945,237.592z M232.866,238.241
			c0,0.373,0.071,0.721,0.215,1.044s0.35,0.583,0.617,0.771c0.266,0.188,0.568,0.282,0.909,0.282c0.514,0,0.911-0.163,1.195-0.488
			c0.283-0.326,0.425-0.796,0.425-1.407c0-0.527-0.131-0.94-0.396-1.241c-0.262-0.302-0.658-0.449-1.182-0.449
			c-0.326,0-0.625,0.071-0.896,0.206c-0.271,0.13-0.489,0.316-0.647,0.553C232.947,237.74,232.866,237.987,232.866,238.241z"/>
		<path fill="#666565" d="M238.215,237.002c0-1.378,0.216-2.402,0.648-3.074c0.434-0.669,1.091-1.002,1.978-1.002
			c0.861,0,1.513,0.351,1.959,1.048c0.444,0.697,0.669,1.708,0.669,3.03c0,1.375-0.215,2.397-0.648,3.072
			c-0.431,0.677-1.092,1.013-1.981,1.013c-0.858,0-1.509-0.346-1.954-1.037C238.437,239.358,238.215,238.342,238.215,237.002z
			 M239.137,237.002c0,1.151,0.135,1.988,0.405,2.513c0.271,0.524,0.704,0.787,1.294,0.787c0.6,0,1.034-0.265,1.302-0.798
			c0.268-0.531,0.402-1.365,0.402-2.502c0-1.135-0.135-1.969-0.402-2.494c-0.269-0.532-0.703-0.793-1.302-0.793
			c-0.591,0-1.023,0.259-1.294,0.778C239.272,235.016,239.137,235.851,239.137,237.002z"/>
	</g>
	<g>
		<path fill="#666565" d="M280.08,238.958c0-0.909,0.555-1.611,1.667-2.121c-0.503-0.281-0.864-0.584-1.085-0.913
			c-0.219-0.328-0.33-0.691-0.33-1.096c0-0.577,0.214-1.036,0.641-1.376c0.427-0.343,1-0.514,1.714-0.514
			c0.725,0,1.301,0.169,1.725,0.505c0.425,0.338,0.637,0.802,0.637,1.395c0,0.395-0.122,0.747-0.366,1.068s-0.632,0.616-1.168,0.875
			c0.647,0.309,1.107,0.632,1.378,0.968c0.272,0.343,0.408,0.73,0.408,1.176c0,0.661-0.229,1.188-0.689,1.575
			c-0.461,0.396-1.094,0.588-1.894,0.588c-0.85,0-1.502-0.184-1.958-0.555C280.307,240.162,280.08,239.638,280.08,238.958z
			 M280.98,238.979c0,0.433,0.152,0.771,0.453,1.014c0.301,0.243,0.723,0.363,1.27,0.363c0.536,0,0.956-0.127,1.254-0.384
			c0.303-0.251,0.45-0.596,0.45-1.04c0-0.351-0.141-0.665-0.423-0.936c-0.281-0.272-0.771-0.539-1.473-0.796
			c-0.535,0.231-0.926,0.488-1.168,0.768C281.1,238.254,280.98,238.589,280.98,238.979z M281.235,234.863
			c0,0.332,0.108,0.621,0.32,0.859s0.606,0.477,1.18,0.716c0.516-0.214,0.882-0.448,1.097-0.699c0.212-0.25,0.321-0.538,0.321-0.87
			c0-0.367-0.13-0.655-0.395-0.871c-0.26-0.215-0.622-0.324-1.079-0.324c-0.449,0-0.804,0.109-1.06,0.326
			C281.363,234.212,281.235,234.5,281.235,234.863z"/>
		<path fill="#666565" d="M286.419,237.002c0-1.378,0.216-2.402,0.648-3.074c0.431-0.669,1.091-1.002,1.978-1.002
			c0.861,0,1.513,0.351,1.958,1.048c0.445,0.697,0.67,1.708,0.67,3.03c0,1.375-0.216,2.397-0.648,3.072
			c-0.432,0.677-1.092,1.013-1.982,1.013c-0.857,0-1.509-0.346-1.953-1.037C286.642,239.358,286.419,238.342,286.419,237.002z
			 M287.342,237.002c0,1.151,0.136,1.988,0.407,2.513c0.27,0.524,0.703,0.787,1.293,0.787c0.598,0,1.035-0.265,1.302-0.798
			c0.268-0.531,0.402-1.365,0.402-2.502c0-1.135-0.135-1.969-0.402-2.494c-0.268-0.532-0.705-0.793-1.302-0.793
			c-0.591,0-1.024,0.259-1.293,0.778C287.477,235.016,287.342,235.851,287.342,237.002z"/>
	</g>
</g>
<line fill="none" stroke="#666666" stroke-miterlimit="10" x1="93.046" y1="229.565" x2="285.865" y2="229.565"/>
<g>
	<g>
		<line fill="none" stroke="#666666" stroke-miterlimit="10" x1="93.046" y1="229.565" x2="93.046" y2="225.954"/>
		<line fill="none" stroke="#666666" stroke-miterlimit="10" x1="117.147" y1="229.565" x2="117.147" y2="225.954"/>
		<line fill="none" stroke="#666666" stroke-miterlimit="10" x1="141.251" y1="229.565" x2="141.251" y2="225.954"/>
		<line fill="none" stroke="#666666" stroke-miterlimit="10" x1="165.353" y1="229.565" x2="165.353" y2="225.954"/>
		<line fill="none" stroke="#666666" stroke-miterlimit="10" x1="189.456" y1="229.565" x2="189.456" y2="225.954"/>
		<line fill="none" stroke="#666666" stroke-miterlimit="10" x1="213.559" y1="229.565" x2="213.559" y2="225.954"/>
		<line fill="none" stroke="#666666" stroke-miterlimit="10" x1="237.662" y1="229.565" x2="237.662" y2="225.954"/>
		<line fill="none" stroke="#666666" stroke-miterlimit="10" x1="261.764" y1="229.565" x2="261.764" y2="225.954"/>
		<line fill="none" stroke="#666666" stroke-miterlimit="10" x1="285.865" y1="229.565" x2="285.865" y2="225.954"/>
	</g>
</g>
<line fill="none" stroke="#666666" stroke-miterlimit="10" x1="93.046" y1="229.565" x2="93.046" y2="85.146"/>
<g>
	<g>
		<line fill="none" stroke="#000000" stroke-miterlimit="10" x1="93.046" y1="193.46" x2="97.867" y2="193.46"/>
		<line fill="none" stroke="#000000" stroke-miterlimit="10" x1="93.046" y1="121.251" x2="97.867" y2="121.251"/>
	</g>
</g>
<g>
	<rect x="137.732" y="95.255" fill="#1F9B9C" width="117.548" height="51.991"/>
</g>
<rect x="93.046" y="95.255" fill="#C7DFDF" width="44.686" height="51.991"/>
<rect x="93.046" y="167.464" fill="#E9BF64" width="116.15" height="51.991"/>
<rect x="394.296" y="274.98" fill="#E9BF64" width="18.592" height="18.592"/>
<rect x="84.438" y="274.428" fill="#1F9B9C" width="18.592" height="18.594"/>
<rect x="84.438" y="300.206" fill="#C7DFDF" width="18.592" height="18.594"/>
<g>
	<path fill="#666565" d="M426.198,277.949h1.271l2.639,4.996l2.658-4.996h1.258l-3.336,6.117v3.877h-1.162v-3.82L426.198,277.949z"
		/>
	<path fill="#666565" d="M435.411,287.943v-9.994h1.162v8.955h4.408v1.039H435.411z"/>
	<path fill="#666565" d="M442.68,287.943v-9.994h3.063c1.558,0,2.765,0.432,3.623,1.291c0.861,0.861,1.293,2.063,1.293,3.609
		c0,1.647-0.444,2.909-1.344,3.782c-0.895,0.873-2.184,1.312-3.865,1.312H442.68L442.68,287.943z M443.842,286.939h1.416
		c1.385,0,2.426-0.342,3.123-1.021c0.694-0.682,1.047-1.688,1.047-3.023c0-1.305-0.328-2.285-0.98-2.944
		c-0.651-0.66-1.627-0.99-2.916-0.99h-1.688L443.842,286.939L443.842,286.939z"/>
	<path fill="#666565" d="M452.086,284.711v-1.039h3.354v1.039H452.086z"/>
	<path fill="#666565" d="M457.391,287.943v-9.994h1.313l5.447,8.354h0.055c-0.008-0.127-0.026-0.522-0.061-1.188
		c-0.023-0.521-0.033-0.923-0.033-1.209c0-0.082,0-0.154,0-0.22v-5.733h1.072v9.991h-1.313l-5.461-8.387h-0.055
		c0.072,0.984,0.109,1.887,0.109,2.707v5.68H457.391L457.391,287.943z"/>
	<path fill="#666565" d="M467.357,284.184c0-1.219,0.305-2.168,0.914-2.848c0.609-0.682,1.453-1.021,2.535-1.021
		c1.045,0,1.875,0.349,2.49,1.043c0.614,0.695,0.924,1.64,0.924,2.826c0,1.224-0.31,2.178-0.92,2.865
		c-0.613,0.688-1.461,1.029-2.541,1.029c-0.67,0-1.265-0.156-1.779-0.475c-0.518-0.313-0.918-0.767-1.199-1.354
		C467.495,285.664,467.357,284.975,467.357,284.184z M468.52,284.184c0,0.959,0.191,1.691,0.576,2.193
		c0.383,0.502,0.947,0.754,1.688,0.754c0.742,0,1.312-0.25,1.693-0.75s0.578-1.232,0.578-2.197c0-0.955-0.193-1.68-0.578-2.176
		c-0.385-0.494-0.955-0.742-1.707-0.742c-0.744,0-1.307,0.244-1.687,0.732C468.709,282.486,468.52,283.215,468.52,284.184z"/>
	<path fill="#666565" d="M476.23,287.943v-7.492h0.924l0.187,1.012h0.055c0.232-0.363,0.559-0.646,0.979-0.848
		c0.42-0.199,0.89-0.301,1.4-0.301c0.902,0,1.582,0.217,2.037,0.649c0.457,0.438,0.684,1.134,0.684,2.09v4.89h-1.135v-4.855
		c0-0.613-0.139-1.068-0.416-1.371c-0.279-0.301-0.713-0.451-1.307-0.451c-0.783,0-1.357,0.211-1.726,0.637
		c-0.36,0.427-0.547,1.125-0.547,2.105v3.938h-1.135V287.943L476.23,287.943z"/>
	<path fill="#666565" d="M487.452,281.334v-0.514l1.343-0.41v-0.414c0-1.834,0.805-2.75,2.414-2.75c0.396,0,0.858,0.078,1.395,0.234
		l-0.295,0.897c-0.438-0.146-0.813-0.213-1.121-0.213c-0.428,0-0.744,0.146-0.949,0.428c-0.205,0.285-0.309,0.742-0.309,1.371v0.482
		h1.908v0.885h-1.908v6.606h-1.135v-6.606L487.452,281.334L487.452,281.334z"/>
	<path fill="#666565" d="M492.645,285.881c0-1.51,1.211-2.301,3.635-2.373l1.273-0.043v-0.469c0-0.598-0.127-1.035-0.379-1.318
		c-0.252-0.285-0.656-0.426-1.211-0.426c-0.623,0-1.328,0.191-2.115,0.58l-0.354-0.871c0.369-0.197,0.773-0.354,1.214-0.465
		c0.441-0.111,0.883-0.168,1.323-0.168c0.896,0,1.556,0.197,1.982,0.596c0.432,0.395,0.646,1.031,0.646,1.906v5.113h-0.842
		l-0.225-1.055h-0.058c-0.373,0.465-0.745,0.778-1.112,0.942c-0.371,0.164-0.834,0.246-1.392,0.246
		c-0.748,0-1.332-0.188-1.756-0.572C492.852,287.125,492.645,286.584,492.645,285.881z M493.848,285.895
		c0,0.412,0.123,0.728,0.371,0.939c0.248,0.217,0.596,0.322,1.041,0.322c0.705,0,1.258-0.193,1.662-0.584
		c0.399-0.389,0.604-0.935,0.604-1.635v-0.681l-1.133,0.047c-0.9,0.033-1.551,0.175-1.949,0.425
		C494.047,284.979,493.848,285.367,493.848,285.895z"/>
	<path fill="#666565" d="M500,281.334v-0.547l1.069-0.473l0.479-1.603h0.653v1.734h2.177v0.885h-2.177v4.42
		c0,0.451,0.107,0.799,0.322,1.041c0.213,0.242,0.508,0.361,0.881,0.361c0.201,0,0.396-0.017,0.582-0.046
		c0.188-0.026,0.334-0.061,0.443-0.092v0.857c-0.123,0.059-0.305,0.105-0.543,0.145c-0.24,0.037-0.455,0.06-0.646,0.06
		c-1.446,0-2.174-0.767-2.174-2.289v-4.457L500,281.334L500,281.334z"/>
	<path fill="#666565" d="M505.37,285.881c0-1.51,1.214-2.301,3.638-2.373l1.271-0.043v-0.469c0-0.598-0.127-1.035-0.379-1.318
		c-0.252-0.285-0.656-0.426-1.211-0.426c-0.623,0-1.328,0.191-2.115,0.58l-0.354-0.871c0.369-0.197,0.771-0.354,1.213-0.465
		s0.881-0.168,1.324-0.168c0.893,0,1.553,0.197,1.979,0.596c0.435,0.395,0.646,1.031,0.646,1.906v5.113h-0.842l-0.228-1.055h-0.055
		c-0.373,0.465-0.746,0.778-1.115,0.942c-0.371,0.164-0.834,0.246-1.389,0.246c-0.748,0-1.332-0.188-1.757-0.572
		C505.578,287.125,505.37,286.584,505.37,285.881z M506.573,285.895c0,0.412,0.123,0.728,0.371,0.939
		c0.248,0.217,0.599,0.322,1.041,0.322c0.705,0,1.258-0.193,1.662-0.584c0.402-0.389,0.604-0.935,0.604-1.635v-0.681l-1.136,0.047
		c-0.897,0.033-1.551,0.175-1.946,0.425C506.774,284.979,506.573,285.367,506.573,285.895z"/>
	<path fill="#666565" d="M513.719,287.943v-10.64h1.135v10.64H513.719z"/>
	<path fill="#666565" d="M520.801,278.422c0-0.26,0.059-0.451,0.178-0.572c0.117-0.119,0.264-0.18,0.441-0.18
		c0.192,0,0.362,0.061,0.508,0.184c0.143,0.123,0.213,0.314,0.213,0.568s-0.07,0.445-0.213,0.57
		c-0.146,0.125-0.313,0.188-0.508,0.188c-0.181,0-0.324-0.063-0.441-0.188C520.859,278.865,520.801,278.676,520.801,278.422z
		 M520.896,287.943v-7.492h1.039v7.492H520.896z"/>
	<path fill="#666565" d="M524.438,287.943v-7.492h0.924l0.187,1.012h0.055c0.229-0.363,0.559-0.646,0.979-0.848
		c0.421-0.199,0.89-0.301,1.4-0.301c0.902,0,1.582,0.217,2.037,0.649c0.457,0.438,0.684,1.134,0.684,2.09v4.89h-1.135v-4.855
		c0-0.613-0.139-1.068-0.416-1.371c-0.279-0.301-0.713-0.451-1.307-0.451c-0.783,0-1.357,0.211-1.726,0.637
		c-0.36,0.427-0.547,1.125-0.547,2.105v3.938h-1.135V287.943z"/>
	<path fill="#666565" d="M531.068,290.221c0.314,0.09,0.625,0.137,0.93,0.137c0.355,0,0.617-0.098,0.783-0.291
		c0.166-0.19,0.25-0.487,0.25-0.887v-8.729h1.136v8.641c0,1.477-0.683,2.215-2.046,2.215c-0.432,0-0.78-0.057-1.053-0.17V290.221
		L531.068,290.221z M532.936,278.422c0-0.26,0.063-0.451,0.191-0.572c0.127-0.119,0.284-0.18,0.479-0.18
		c0.207,0,0.387,0.061,0.539,0.184c0.15,0.123,0.227,0.314,0.227,0.568s-0.073,0.445-0.227,0.57s-0.332,0.188-0.539,0.188
		c-0.191,0-0.352-0.063-0.479-0.188C532.995,278.865,532.936,278.676,532.936,278.422z"/>
	<path fill="#666565" d="M536.49,285.354v-4.899h1.162v4.858c0,0.609,0.139,1.066,0.416,1.367s0.711,0.451,1.303,0.451
		c0.783,0,1.355-0.215,1.72-0.645c0.359-0.428,0.543-1.127,0.543-2.101v-3.938h1.135v7.489h-0.924l-0.178-1.004h-0.063
		c-0.232,0.369-0.555,0.65-0.967,0.851c-0.41,0.192-0.881,0.293-1.408,0.293c-0.916,0-1.604-0.22-2.057-0.647
		C536.716,286.998,536.49,286.305,536.49,285.354z"/>
	<path fill="#666565" d="M545.161,287.943v-7.492h0.927l0.139,1.395h0.059c0.277-0.49,0.613-0.867,1.006-1.133
		c0.394-0.266,0.822-0.398,1.291-0.398c0.334,0,0.634,0.027,0.896,0.084l-0.158,1.062c-0.309-0.067-0.582-0.104-0.82-0.104
		c-0.604,0-1.125,0.246-1.555,0.737c-0.432,0.492-0.646,1.104-0.646,1.836v4.017h-1.139V287.943z"/>
	<path fill="#666565" d="M550.781,278.422c0-0.26,0.062-0.451,0.181-0.572c0.114-0.119,0.264-0.18,0.438-0.18
		c0.195,0,0.365,0.061,0.508,0.184c0.146,0.123,0.213,0.314,0.213,0.568s-0.067,0.445-0.213,0.57
		c-0.143,0.125-0.313,0.188-0.508,0.188c-0.178,0-0.324-0.063-0.438-0.188C550.842,278.865,550.781,278.676,550.781,278.422z
		 M550.879,287.943v-7.492h1.039v7.492H550.879z"/>
	<path fill="#666565" d="M554.004,284.26c0-1.209,0.297-2.168,0.889-2.879c0.594-0.711,1.389-1.066,2.389-1.066
		c0.938,0,1.676,0.312,2.224,0.927c0.545,0.618,0.815,1.436,0.815,2.444v0.717h-5.154c0.021,0.884,0.244,1.55,0.671,2.005
		c0.422,0.454,1.016,0.686,1.78,0.686c0.808,0,1.603-0.17,2.388-0.506v1.013c-0.4,0.174-0.777,0.299-1.138,0.37
		c-0.354,0.076-0.787,0.113-1.291,0.113c-1.104,0-1.977-0.336-2.612-1.015C554.323,286.395,554.004,285.457,554.004,284.26z
		 M555.193,283.48h3.924c0-0.717-0.159-1.265-0.479-1.646c-0.318-0.381-0.775-0.569-1.369-0.569c-0.604,0-1.082,0.194-1.441,0.588
		C555.469,282.244,555.256,282.787,555.193,283.48z"/>
	<path fill="#666565" d="M561.797,282.293c0-0.611,0.248-1.096,0.744-1.447c0.493-0.354,1.176-0.531,2.041-0.531
		c0.803,0,1.586,0.164,2.352,0.492l-0.396,0.924c-0.75-0.311-1.428-0.465-2.034-0.465c-0.539,0-0.945,0.084-1.222,0.254
		c-0.272,0.168-0.412,0.4-0.412,0.697c0,0.201,0.056,0.373,0.154,0.514c0.104,0.146,0.271,0.277,0.496,0.404
		c0.229,0.129,0.668,0.313,1.316,0.557c0.889,0.324,1.483,0.65,1.791,0.98c0.307,0.328,0.461,0.742,0.461,1.24
		c0,0.691-0.263,1.229-0.775,1.604c-0.518,0.375-1.242,0.564-2.176,0.564c-0.992,0-1.769-0.156-2.32-0.467v-1.047
		c0.359,0.184,0.746,0.326,1.156,0.434c0.412,0.104,0.811,0.156,1.188,0.156c0.597,0,1.054-0.096,1.371-0.283
		c0.318-0.189,0.479-0.48,0.479-0.867c0-0.293-0.127-0.543-0.379-0.75c-0.256-0.209-0.748-0.453-1.484-0.736
		c-0.699-0.262-1.193-0.487-1.486-0.682c-0.293-0.195-0.51-0.416-0.651-0.662C561.865,282.93,561.797,282.635,561.797,282.293z"/>
	<path fill="#666565" d="M572.029,285.881c0-1.51,1.213-2.301,3.635-2.373l1.273-0.043v-0.469c0-0.598-0.125-1.035-0.379-1.318
		c-0.252-0.285-0.656-0.426-1.211-0.426c-0.623,0-1.328,0.191-2.115,0.58l-0.352-0.871c0.366-0.197,0.771-0.354,1.213-0.465
		c0.438-0.111,0.881-0.168,1.319-0.168c0.896,0,1.558,0.197,1.984,0.596c0.428,0.396,0.646,1.031,0.646,1.906v5.113H577.2
		l-0.227-1.055h-0.055c-0.373,0.465-0.744,0.778-1.115,0.942s-0.834,0.246-1.389,0.246c-0.746,0-1.332-0.188-1.756-0.572
		C572.24,287.127,572.029,286.584,572.029,285.881z M573.232,285.895c0,0.412,0.125,0.728,0.373,0.939
		c0.248,0.217,0.594,0.322,1.039,0.322c0.705,0,1.26-0.193,1.662-0.584c0.399-0.389,0.604-0.935,0.604-1.635v-0.681l-1.133,0.047
		c-0.897,0.033-1.549,0.175-1.947,0.425C573.432,284.979,573.232,285.367,573.232,285.895z"/>
	<path fill="#666565" d="M580.377,287.943v-7.492h0.922l0.186,1.012h0.055c0.232-0.363,0.562-0.646,0.979-0.848
		c0.42-0.199,0.887-0.301,1.401-0.301c0.9,0,1.578,0.217,2.035,0.649c0.455,0.438,0.687,1.134,0.687,2.09v4.89h-1.135v-4.855
		c0-0.613-0.142-1.068-0.419-1.371c-0.276-0.301-0.715-0.451-1.307-0.451c-0.785,0-1.356,0.211-1.723,0.637
		c-0.366,0.427-0.547,1.125-0.547,2.105v3.938h-1.136L580.377,287.943L580.377,287.943z"/>
	<path fill="#666565" d="M588.553,284.219c0-1.236,0.271-2.195,0.813-2.879s1.308-1.025,2.275-1.025c1.02,0,1.799,0.369,2.342,1.107
		h0.09l-0.049-0.539L594,280.355v-3.049h1.135v10.637h-0.922l-0.15-1.004H594c-0.525,0.762-1.312,1.143-2.355,1.143
		c-0.977,0-1.736-0.334-2.277-1.004C588.823,286.404,588.553,285.453,588.553,284.219z M589.715,284.232
		c0,0.957,0.176,1.682,0.524,2.166c0.354,0.487,0.867,0.731,1.547,0.731c0.775,0,1.341-0.211,1.688-0.633
		c0.35-0.422,0.521-1.104,0.521-2.041v-0.238c0-1.063-0.177-1.819-0.527-2.272c-0.355-0.451-0.92-0.68-1.695-0.68
		c-0.666,0-1.176,0.258-1.531,0.774C589.891,282.559,589.715,283.289,589.715,284.232z"/>
	<path fill="#666565" d="M601.09,278.422c0-0.26,0.059-0.451,0.176-0.572c0.117-0.119,0.266-0.18,0.441-0.18
		c0.194,0,0.362,0.061,0.508,0.184c0.143,0.123,0.215,0.314,0.215,0.568s-0.072,0.445-0.215,0.57
		c-0.146,0.125-0.313,0.188-0.508,0.188c-0.179,0-0.324-0.063-0.441-0.188C601.148,278.865,601.09,278.676,601.09,278.422z
		 M601.186,287.943v-7.492h1.039v7.492H601.186z"/>
	<path fill="#666565" d="M604.727,287.943v-10.64h1.135v10.64H604.727z"/>
	<path fill="#666565" d="M608.268,287.943v-10.64h1.135v10.64H608.268z"/>
	<path fill="#666565" d="M611.809,287.943v-7.492h0.922l0.186,1.012h0.058c0.229-0.363,0.559-0.646,0.977-0.848
		c0.42-0.199,0.89-0.301,1.402-0.301c0.901,0,1.58,0.217,2.037,0.649c0.455,0.438,0.684,1.134,0.684,2.09v4.89h-1.135v-4.855
		c0-0.613-0.139-1.068-0.418-1.371c-0.277-0.301-0.713-0.451-1.305-0.451c-0.785,0-1.359,0.211-1.726,0.637
		c-0.365,0.427-0.547,1.125-0.547,2.105v3.938h-1.135V287.943L611.809,287.943z"/>
	<path fill="#666565" d="M619.984,284.26c0-1.209,0.297-2.168,0.889-2.879c0.597-0.711,1.392-1.066,2.392-1.066
		c0.936,0,1.676,0.312,2.221,0.927c0.545,0.618,0.818,1.436,0.818,2.444v0.717h-5.154c0.021,0.884,0.244,1.55,0.668,2.005
		c0.422,0.454,1.018,0.686,1.783,0.686c0.805,0,1.6-0.17,2.385-0.506v1.013c-0.398,0.174-0.775,0.299-1.135,0.37
		c-0.357,0.076-0.787,0.113-1.291,0.113c-1.105,0-1.979-0.336-2.615-1.015C620.304,286.395,619.984,285.457,619.984,284.26z
		 M621.174,283.48h3.924c0-0.717-0.16-1.265-0.48-1.646c-0.315-0.381-0.772-0.569-1.369-0.569c-0.602,0-1.079,0.194-1.438,0.588
		C621.448,282.244,621.236,282.787,621.174,283.48z"/>
	<path fill="#666565" d="M627.777,282.293c0-0.611,0.248-1.096,0.744-1.447c0.496-0.351,1.176-0.531,2.041-0.531
		c0.803,0,1.586,0.164,2.352,0.492l-0.396,0.924c-0.75-0.311-1.428-0.465-2.037-0.465c-0.539,0-0.945,0.084-1.219,0.254
		c-0.275,0.168-0.412,0.4-0.412,0.697c0,0.201,0.053,0.373,0.154,0.514c0.104,0.146,0.27,0.277,0.496,0.404
		c0.229,0.129,0.668,0.313,1.313,0.557c0.889,0.324,1.486,0.65,1.791,0.98c0.307,0.328,0.461,0.742,0.461,1.24
		c0,0.691-0.26,1.229-0.772,1.604c-0.521,0.375-1.242,0.564-2.179,0.564c-0.991,0-1.766-0.156-2.317-0.467v-1.047
		c0.356,0.184,0.745,0.326,1.153,0.434c0.412,0.104,0.813,0.156,1.191,0.156c0.594,0,1.051-0.096,1.371-0.283
		c0.315-0.189,0.479-0.48,0.479-0.867c0-0.293-0.127-0.543-0.379-0.75c-0.254-0.209-0.748-0.453-1.481-0.736
		c-0.699-0.262-1.193-0.487-1.486-0.682c-0.293-0.195-0.51-0.416-0.654-0.662C627.848,282.93,627.777,282.635,627.777,282.293z"/>
	<path fill="#666565" d="M634.452,282.293c0-0.611,0.248-1.096,0.744-1.447c0.496-0.351,1.181-0.531,2.043-0.531
		c0.804,0,1.584,0.164,2.353,0.492l-0.396,0.924c-0.75-0.311-1.43-0.465-2.037-0.465c-0.539,0-0.942,0.084-1.221,0.254
		c-0.271,0.168-0.41,0.4-0.41,0.697c0,0.201,0.053,0.373,0.154,0.514c0.102,0.146,0.268,0.277,0.496,0.404
		c0.229,0.129,0.666,0.313,1.313,0.557c0.892,0.324,1.486,0.65,1.793,0.98c0.31,0.328,0.459,0.742,0.459,1.24
		c0,0.691-0.258,1.229-0.772,1.604c-0.518,0.375-1.24,0.564-2.174,0.564c-0.992,0-1.769-0.156-2.32-0.467v-1.047
		c0.359,0.184,0.744,0.326,1.156,0.434c0.412,0.104,0.809,0.156,1.188,0.156c0.594,0,1.049-0.096,1.369-0.283
		c0.32-0.189,0.48-0.48,0.48-0.867c0-0.293-0.127-0.543-0.381-0.75c-0.257-0.209-0.748-0.453-1.482-0.736
		c-0.699-0.262-1.195-0.487-1.488-0.682c-0.291-0.195-0.51-0.416-0.649-0.662C634.527,282.93,634.452,282.635,634.452,282.293z"/>
	<path fill="#666565" d="M641.195,284.26c0-1.209,0.297-2.168,0.894-2.879c0.592-0.711,1.389-1.066,2.389-1.066
		c0.936,0,1.676,0.312,2.221,0.927c0.545,0.618,0.816,1.436,0.816,2.444v0.717h-5.154c0.023,0.884,0.246,1.55,0.668,2.005
		c0.422,0.454,1.021,0.686,1.783,0.686c0.805,0,1.6-0.17,2.387-0.506v1.013c-0.397,0.174-0.776,0.299-1.135,0.37
		c-0.355,0.076-0.787,0.113-1.293,0.113c-1.104,0-1.975-0.336-2.613-1.015C641.517,286.395,641.195,285.457,641.195,284.26z
		 M642.385,283.48h3.924c0-0.717-0.16-1.265-0.479-1.646c-0.317-0.381-0.774-0.569-1.366-0.569c-0.604,0-1.084,0.194-1.441,0.588
		C642.657,282.244,642.448,282.787,642.385,283.48z"/>
	<path fill="#666565" d="M648.988,282.293c0-0.611,0.248-1.096,0.744-1.447c0.496-0.351,1.178-0.531,2.043-0.531
		c0.801,0,1.584,0.164,2.353,0.492l-0.396,0.924c-0.75-0.311-1.43-0.465-2.037-0.465c-0.539,0-0.943,0.084-1.221,0.254
		c-0.273,0.168-0.41,0.4-0.41,0.697c0,0.201,0.051,0.373,0.154,0.514c0.102,0.146,0.268,0.277,0.496,0.404
		c0.229,0.129,0.666,0.313,1.313,0.557c0.889,0.324,1.486,0.65,1.793,0.98c0.31,0.328,0.459,0.742,0.459,1.24
		c0,0.691-0.258,1.229-0.772,1.604c-0.518,0.375-1.24,0.564-2.177,0.564c-0.989,0-1.766-0.156-2.317-0.467v-1.047
		c0.356,0.184,0.744,0.326,1.155,0.434c0.41,0.104,0.81,0.156,1.189,0.156c0.594,0,1.049-0.096,1.369-0.283
		c0.32-0.189,0.479-0.48,0.479-0.867c0-0.293-0.128-0.543-0.382-0.75c-0.254-0.209-0.748-0.453-1.479-0.736
		c-0.699-0.262-1.195-0.487-1.488-0.682c-0.291-0.195-0.51-0.416-0.651-0.662S648.988,282.635,648.988,282.293z"/>
</g>
<g>
	<path fill="#666565" d="M116.341,277.973h1.271l2.64,4.996l2.659-4.996h1.258l-3.336,6.117v3.876h-1.162v-3.821L116.341,277.973z"
		/>
	<path fill="#666565" d="M124.27,284.281c0-1.207,0.297-2.166,0.891-2.877c0.593-0.713,1.391-1.065,2.391-1.065
		c0.936,0,1.676,0.31,2.221,0.927s0.815,1.435,0.815,2.441v0.72h-5.152c0.021,0.88,0.245,1.548,0.668,2.003
		c0.422,0.456,1.018,0.687,1.783,0.687c0.805,0,1.6-0.171,2.386-0.509v1.015c-0.399,0.172-0.777,0.297-1.135,0.371
		c-0.357,0.075-0.787,0.112-1.292,0.112c-1.104,0-1.978-0.338-2.614-1.013C124.591,286.416,124.27,285.479,124.27,284.281z
		 M125.459,283.502h3.926c0-0.717-0.16-1.264-0.479-1.646c-0.318-0.381-0.775-0.568-1.368-0.568c-0.604,0-1.083,0.193-1.439,0.588
		C125.737,282.268,125.523,282.811,125.459,283.502z"/>
	<path fill="#666565" d="M131.981,285.902c0-1.51,1.212-2.301,3.636-2.373l1.272-0.041v-0.471c0-0.597-0.126-1.035-0.379-1.318
		c-0.252-0.283-0.656-0.426-1.211-0.426c-0.623,0-1.328,0.192-2.115,0.58l-0.354-0.871c0.369-0.195,0.772-0.353,1.213-0.465
		c0.439-0.109,0.883-0.168,1.323-0.168c0.895,0,1.554,0.198,1.982,0.596c0.431,0.396,0.646,1.031,0.646,1.906v5.113h-0.842
		l-0.226-1.054h-0.057c-0.373,0.463-0.745,0.776-1.113,0.94c-0.371,0.166-0.835,0.248-1.391,0.248c-0.747,0-1.332-0.188-1.756-0.571
		C132.193,287.148,131.981,286.605,131.981,285.902z M133.184,285.916c0,0.412,0.124,0.727,0.372,0.938
		c0.248,0.219,0.595,0.323,1.04,0.323c0.705,0,1.259-0.194,1.662-0.584c0.4-0.391,0.604-0.936,0.604-1.637v-0.681l-1.133,0.05
		c-0.899,0.03-1.55,0.172-1.948,0.422C133.384,285,133.184,285.391,133.184,285.916z"/>
	<path fill="#666565" d="M140.327,287.966v-7.491h0.923l0.141,1.394h0.06c0.277-0.487,0.613-0.865,1.006-1.132
		c0.394-0.267,0.821-0.396,1.292-0.396c0.333,0,0.631,0.026,0.896,0.083l-0.157,1.06c-0.31-0.066-0.583-0.104-0.819-0.104
		c-0.604,0-1.125,0.245-1.556,0.735c-0.432,0.491-0.646,1.104-0.646,1.838v4.017L140.327,287.966L140.327,287.966z"/>
	<path fill="#666565" d="M145.564,282.314c0-0.611,0.248-1.095,0.744-1.447c0.496-0.354,1.177-0.528,2.042-0.528
		c0.802,0,1.585,0.163,2.352,0.491l-0.396,0.925c-0.75-0.313-1.431-0.468-2.037-0.468c-0.539,0-0.945,0.086-1.222,0.254
		c-0.273,0.171-0.409,0.4-0.409,0.699c0,0.199,0.052,0.371,0.152,0.515c0.104,0.144,0.271,0.274,0.496,0.403
		c0.229,0.129,0.667,0.313,1.314,0.557c0.889,0.322,1.484,0.648,1.792,0.979s0.46,0.742,0.46,1.24c0,0.694-0.259,1.229-0.774,1.604
		c-0.517,0.377-1.241,0.563-2.176,0.563c-0.991,0-1.766-0.153-2.319-0.465v-1.047c0.358,0.184,0.745,0.326,1.155,0.432
		c0.412,0.104,0.813,0.158,1.191,0.158c0.594,0,1.05-0.096,1.37-0.285c0.317-0.188,0.479-0.479,0.479-0.866
		c0-0.291-0.127-0.541-0.38-0.75c-0.254-0.207-0.748-0.453-1.482-0.736c-0.697-0.26-1.192-0.485-1.485-0.683
		c-0.292-0.192-0.512-0.413-0.653-0.661C145.636,282.951,145.564,282.658,145.564,282.314z"/>
	<path fill="#666565" d="M155.941,284.205c0-1.219,0.306-2.168,0.913-2.85s1.454-1.021,2.535-1.021c1.046,0,1.876,0.35,2.489,1.045
		c0.616,0.695,0.926,1.639,0.926,2.824c0,1.225-0.309,2.18-0.92,2.865c-0.613,0.688-1.463,1.029-2.542,1.029
		c-0.671,0-1.264-0.156-1.779-0.474c-0.52-0.313-0.918-0.767-1.199-1.354C156.081,285.686,155.941,284.996,155.941,284.205z
		 M157.103,284.205c0,0.959,0.189,1.689,0.575,2.191c0.383,0.502,0.945,0.756,1.689,0.756c0.742,0,1.311-0.25,1.693-0.75
		s0.578-1.232,0.578-2.197c0-0.955-0.193-1.682-0.578-2.176c-0.386-0.494-0.955-0.742-1.708-0.742c-0.744,0-1.307,0.244-1.687,0.73
		C157.292,282.509,157.103,283.238,157.103,284.205z"/>
	<path fill="#666565" d="M163.809,281.355v-0.514l1.34-0.41v-0.414c0-1.834,0.806-2.75,2.413-2.75c0.396,0,0.859,0.078,1.396,0.234
		l-0.294,0.898c-0.438-0.144-0.813-0.213-1.121-0.213c-0.43,0-0.745,0.144-0.948,0.429c-0.205,0.282-0.31,0.739-0.31,1.37v0.483
		h1.906v0.882h-1.906v6.61h-1.136v-6.61L163.809,281.355L163.809,281.355z"/>
	<path fill="#666565" d="M173.195,287.966v-10.638h1.136v10.638H173.195z"/>
	<path fill="#666565" d="M176.641,278.443c0-0.26,0.06-0.449,0.177-0.57c0.117-0.119,0.266-0.182,0.441-0.182
		c0.194,0,0.363,0.063,0.508,0.186c0.144,0.123,0.214,0.313,0.214,0.566s-0.07,0.445-0.214,0.57
		c-0.145,0.125-0.313,0.188-0.508,0.188c-0.179,0-0.324-0.063-0.441-0.188C176.698,278.889,176.641,278.699,176.641,278.443z
		 M176.736,287.966v-7.491h1.039v7.491H176.736z"/>
	<path fill="#666565" d="M179.272,281.355v-0.514l1.34-0.41v-0.414c0-1.834,0.806-2.75,2.413-2.75c0.396,0,0.861,0.078,1.396,0.234
		l-0.294,0.898c-0.438-0.144-0.813-0.213-1.121-0.213c-0.429,0-0.743,0.144-0.948,0.429c-0.205,0.282-0.31,0.739-0.31,1.37v0.483
		h1.906v0.882h-1.906v6.61h-1.136v-6.61L179.272,281.355L179.272,281.355z"/>
	<path fill="#666565" d="M184.604,284.281c0-1.207,0.297-2.166,0.891-2.877c0.593-0.713,1.391-1.065,2.391-1.065
		c0.936,0,1.676,0.31,2.221,0.927s0.815,1.435,0.815,2.441v0.72h-5.152c0.021,0.88,0.245,1.548,0.668,2.003
		c0.422,0.456,1.018,0.687,1.783,0.687c0.805,0,1.6-0.171,2.386-0.509v1.015c-0.399,0.172-0.777,0.297-1.135,0.371
		c-0.356,0.075-0.787,0.112-1.292,0.112c-1.104,0-1.978-0.338-2.614-1.013C184.925,286.416,184.604,285.479,184.604,284.281z
		 M185.793,283.502h3.926c0-0.717-0.16-1.264-0.479-1.646c-0.318-0.381-0.775-0.568-1.368-0.568c-0.604,0-1.083,0.193-1.439,0.588
		C186.071,282.268,185.857,282.811,185.793,283.502z"/>
	<path fill="#666565" d="M196.513,287.966v-10.638h1.135v10.638H196.513z"/>
	<path fill="#666565" d="M199.637,284.205c0-1.219,0.305-2.168,0.913-2.85c0.606-0.682,1.452-1.021,2.533-1.021
		c1.046,0,1.876,0.35,2.491,1.045s0.924,1.639,0.924,2.824c0,1.225-0.308,2.18-0.92,2.865c-0.611,0.688-1.461,1.029-2.542,1.029
		c-0.669,0-1.263-0.156-1.777-0.474c-0.521-0.313-0.92-0.767-1.199-1.354C199.777,285.686,199.637,284.996,199.637,284.205z
		 M200.799,284.205c0,0.959,0.188,1.689,0.573,2.191c0.383,0.502,0.946,0.756,1.69,0.756c0.743,0,1.31-0.25,1.694-0.75
		s0.576-1.232,0.576-2.197c0-0.955-0.191-1.682-0.576-2.176c-0.388-0.494-0.955-0.742-1.708-0.742c-0.744,0-1.308,0.244-1.688,0.73
		C200.988,282.509,200.799,283.238,200.799,284.205z"/>
	<path fill="#666565" d="M208.031,282.314c0-0.611,0.248-1.095,0.744-1.447c0.496-0.354,1.178-0.528,2.042-0.528
		c0.803,0,1.585,0.163,2.352,0.491l-0.396,0.925c-0.75-0.313-1.429-0.468-2.037-0.468c-0.539,0-0.944,0.086-1.22,0.254
		c-0.274,0.171-0.411,0.4-0.411,0.699c0,0.199,0.053,0.371,0.154,0.515s0.269,0.274,0.494,0.403
		c0.229,0.129,0.667,0.313,1.314,0.557c0.89,0.322,1.486,0.648,1.792,0.979c0.308,0.33,0.46,0.742,0.46,1.24
		c0,0.694-0.259,1.229-0.774,1.604c-0.517,0.377-1.239,0.563-2.175,0.563c-0.992,0-1.767-0.153-2.318-0.465v-1.047
		c0.357,0.184,0.743,0.326,1.154,0.432c0.412,0.104,0.812,0.158,1.19,0.158c0.595,0,1.051-0.096,1.37-0.285
		c0.317-0.188,0.479-0.479,0.479-0.866c0-0.291-0.127-0.541-0.38-0.75c-0.255-0.207-0.748-0.453-1.481-0.736
		c-0.699-0.26-1.194-0.485-1.487-0.683c-0.292-0.192-0.51-0.413-0.652-0.661C208.102,282.951,208.031,282.658,208.031,282.314z"/>
	<path fill="#666565" d="M214.197,281.355v-0.547l1.073-0.473l0.479-1.602h0.655v1.735h2.175v0.882h-2.175v4.42
		c0,0.453,0.107,0.802,0.321,1.041c0.214,0.242,0.508,0.363,0.882,0.363c0.2,0,0.396-0.016,0.581-0.045
		c0.187-0.029,0.335-0.063,0.444-0.094v0.857c-0.123,0.059-0.307,0.105-0.545,0.145s-0.453,0.061-0.646,0.061
		c-1.448,0-2.174-0.765-2.174-2.291v-4.457L214.197,281.355L214.197,281.355z"/>
	<path fill="#666565" d="M223.124,284.131c0-1.208,0.181-2.338,0.536-3.391c0.355-1.055,0.868-1.979,1.534-2.771h1.107
		c-0.656,0.881-1.149,1.846-1.479,2.897c-0.33,1.054-0.495,2.135-0.495,3.246c0,1.094,0.169,2.161,0.506,3.206
		c0.337,1.044,0.821,1.996,1.456,2.856h-1.095c-0.671-0.774-1.184-1.681-1.539-2.714
		C223.303,286.434,223.124,285.32,223.124,284.131z"/>
	<path fill="#666565" d="M226.706,277.973h1.271l2.64,4.996l2.658-4.996h1.259l-3.337,6.117v3.876h-1.161v-3.821L226.706,277.973z"
		/>
	<path fill="#666565" d="M235.921,287.966v-9.993h1.162v8.954h4.409v1.039H235.921z"/>
	<path fill="#666565" d="M243.188,287.966v-9.993h1.162v8.954h4.409v1.039H243.188z"/>
	<path fill="#666565" d="M249.497,277.973h1.106c0.671,0.797,1.185,1.723,1.539,2.777c0.354,1.057,0.532,2.184,0.532,3.381
		s-0.181,2.314-0.536,3.35c-0.356,1.035-0.869,1.937-1.535,2.701h-1.094c0.634-0.856,1.117-1.811,1.456-2.854
		c0.337-1.047,0.506-2.114,0.506-3.209c0-1.111-0.165-2.193-0.496-3.248C250.647,279.816,250.154,278.852,249.497,277.973z"/>
	<path fill="#666565" d="M257.434,284.732v-1.039h3.354v1.039H257.434z"/>
	<path fill="#666565" d="M266.375,287.966v-9.993h5.57v1.038h-4.408v3.649h4.145v1.039h-4.145v4.267H266.375z"/>
	<path fill="#666565" d="M272.869,285.902c0-1.51,1.212-2.301,3.635-2.373l1.272-0.041v-0.471c0-0.597-0.126-1.035-0.379-1.318
		c-0.252-0.283-0.655-0.426-1.211-0.426c-0.623,0-1.328,0.192-2.115,0.58l-0.353-0.871c0.367-0.195,0.771-0.353,1.213-0.465
		c0.438-0.109,0.881-0.168,1.323-0.168c0.893,0,1.554,0.198,1.98,0.596c0.432,0.396,0.646,1.031,0.646,1.906v5.113h-0.843
		l-0.227-1.054h-0.055c-0.373,0.463-0.745,0.776-1.115,0.94c-0.371,0.166-0.834,0.248-1.389,0.248c-0.747,0-1.332-0.188-1.757-0.571
		C273.081,287.148,272.869,286.605,272.869,285.902z M274.073,285.916c0,0.412,0.124,0.727,0.372,0.938
		c0.248,0.219,0.596,0.323,1.04,0.323c0.705,0,1.26-0.194,1.662-0.584c0.402-0.391,0.604-0.936,0.604-1.637v-0.681l-1.133,0.05
		c-0.898,0.03-1.551,0.172-1.948,0.422C274.272,285,274.073,285.391,274.073,285.916z"/>
	<path fill="#666565" d="M280.225,281.355v-0.547l1.071-0.473l0.479-1.602h0.656v1.735h2.174v0.882h-2.174v4.42
		c0,0.453,0.105,0.802,0.319,1.041c0.216,0.242,0.51,0.363,0.884,0.363c0.198,0,0.395-0.016,0.581-0.045
		c0.186-0.029,0.335-0.063,0.442-0.094v0.857c-0.123,0.059-0.306,0.105-0.544,0.145c-0.239,0.039-0.454,0.061-0.646,0.061
		c-1.449,0-2.176-0.765-2.176-2.291v-4.457L280.225,281.355L280.225,281.355z"/>
	<path fill="#666565" d="M285.599,285.902c0-1.51,1.212-2.301,3.635-2.373l1.271-0.041v-0.471c0-0.597-0.126-1.035-0.379-1.318
		c-0.252-0.283-0.656-0.426-1.211-0.426c-0.623,0-1.328,0.192-2.113,0.58l-0.354-0.871c0.369-0.195,0.773-0.353,1.214-0.465
		c0.439-0.109,0.881-0.168,1.322-0.168c0.894,0,1.555,0.198,1.981,0.596c0.433,0.396,0.646,1.031,0.646,1.906v5.113h-0.841
		l-0.228-1.054h-0.056c-0.373,0.463-0.744,0.776-1.114,0.94c-0.371,0.166-0.834,0.248-1.39,0.248c-0.747,0-1.332-0.188-1.755-0.571
		C285.81,287.148,285.599,286.605,285.599,285.902z M286.802,285.916c0,0.412,0.124,0.727,0.372,0.938
		c0.246,0.219,0.595,0.323,1.038,0.323c0.705,0,1.259-0.194,1.662-0.584c0.401-0.391,0.604-0.936,0.604-1.637v-0.681l-1.135,0.05
		c-0.898,0.03-1.55,0.172-1.946,0.422C287,285,286.802,285.391,286.802,285.916z"/>
	<path fill="#666565" d="M293.945,287.966v-10.638h1.136v10.638H293.945z"/>
	<path fill="#666565" d="M301.027,278.443c0-0.26,0.06-0.449,0.177-0.57c0.117-0.119,0.266-0.182,0.441-0.182
		c0.194,0,0.363,0.063,0.508,0.186c0.144,0.123,0.214,0.313,0.214,0.566s-0.07,0.445-0.214,0.57
		c-0.145,0.125-0.313,0.188-0.508,0.188c-0.179,0-0.324-0.063-0.441-0.188C301.085,278.889,301.027,278.699,301.027,278.443z
		 M301.121,287.966v-7.491h1.039v7.491H301.121z"/>
	<path fill="#666565" d="M304.662,287.966v-10.638h1.136v10.638H304.662z"/>
	<path fill="#666565" d="M308.203,287.966v-10.638h1.136v10.638H308.203z"/>
	<path fill="#666565" d="M311.744,287.966v-7.491h0.924l0.187,1.012h0.055c0.23-0.364,0.56-0.646,0.979-0.848
		c0.419-0.203,0.889-0.302,1.4-0.302c0.902,0,1.581,0.218,2.037,0.651c0.456,0.437,0.685,1.133,0.685,2.09v4.888h-1.136v-4.856
		c0-0.61-0.139-1.067-0.417-1.368c-0.277-0.304-0.713-0.453-1.306-0.453c-0.784,0-1.357,0.213-1.725,0.639
		c-0.363,0.425-0.547,1.126-0.547,2.104v3.938L311.744,287.966L311.744,287.966z"/>
	<path fill="#666565" d="M319.921,284.281c0-1.207,0.297-2.166,0.892-2.877c0.593-0.713,1.389-1.065,2.389-1.065
		c0.937,0,1.677,0.31,2.222,0.927s0.816,1.435,0.816,2.441v0.72h-5.153c0.021,0.88,0.244,1.548,0.668,2.003
		c0.422,0.456,1.019,0.687,1.782,0.687c0.806,0,1.601-0.171,2.387-0.509v1.015c-0.398,0.172-0.776,0.297-1.136,0.371
		c-0.356,0.075-0.787,0.112-1.292,0.112c-1.104,0-1.976-0.338-2.613-1.013C320.241,286.416,319.921,285.479,319.921,284.281z
		 M321.111,283.502h3.924c0-0.717-0.159-1.264-0.479-1.646c-0.317-0.381-0.774-0.568-1.367-0.568c-0.604,0-1.083,0.193-1.441,0.588
		C321.386,282.268,321.173,282.811,321.111,283.502z"/>
	<path fill="#666565" d="M327.714,282.314c0-0.611,0.248-1.095,0.743-1.447c0.496-0.354,1.178-0.528,2.042-0.528
		c0.803,0,1.585,0.163,2.354,0.491l-0.396,0.925c-0.75-0.313-1.429-0.468-2.036-0.468c-0.539,0-0.945,0.086-1.221,0.254
		c-0.274,0.171-0.411,0.4-0.411,0.699c0,0.199,0.053,0.371,0.154,0.515c0.103,0.144,0.27,0.274,0.496,0.403
		c0.229,0.129,0.667,0.313,1.313,0.557c0.89,0.322,1.485,0.648,1.791,0.979c0.31,0.33,0.461,0.742,0.461,1.24
		c0,0.694-0.26,1.229-0.773,1.604c-0.518,0.377-1.241,0.563-2.177,0.563c-0.99,0-1.767-0.153-2.318-0.465v-1.047
		c0.357,0.184,0.745,0.326,1.154,0.432c0.412,0.104,0.812,0.158,1.19,0.158c0.595,0,1.051-0.096,1.37-0.285
		c0.319-0.188,0.479-0.479,0.479-0.866c0-0.291-0.127-0.541-0.38-0.75c-0.254-0.207-0.748-0.453-1.481-0.736
		c-0.699-0.26-1.194-0.485-1.487-0.683c-0.292-0.192-0.51-0.413-0.652-0.661C327.784,282.951,327.714,282.658,327.714,282.314z"/>
	<path fill="#666565" d="M334.393,282.314c0-0.611,0.246-1.095,0.742-1.447c0.496-0.354,1.179-0.528,2.042-0.528
		c0.804,0,1.585,0.163,2.353,0.491l-0.396,0.925c-0.75-0.313-1.43-0.468-2.037-0.468c-0.537,0-0.943,0.086-1.22,0.254
		c-0.273,0.171-0.411,0.4-0.411,0.699c0,0.199,0.054,0.371,0.153,0.515c0.104,0.144,0.27,0.274,0.496,0.403
		c0.229,0.129,0.667,0.313,1.313,0.557c0.891,0.322,1.485,0.648,1.792,0.979c0.309,0.33,0.46,0.742,0.46,1.24
		c0,0.694-0.259,1.229-0.773,1.604c-0.516,0.377-1.241,0.563-2.175,0.563c-0.992,0-1.768-0.153-2.32-0.465v-1.047
		c0.359,0.184,0.745,0.326,1.156,0.432c0.412,0.104,0.811,0.158,1.189,0.158c0.596,0,1.052-0.096,1.37-0.285
		c0.318-0.188,0.479-0.479,0.479-0.866c0-0.291-0.127-0.541-0.38-0.75c-0.256-0.207-0.748-0.453-1.483-0.736
		c-0.698-0.26-1.193-0.485-1.486-0.683c-0.292-0.192-0.511-0.413-0.651-0.661C334.464,282.951,334.393,282.658,334.393,282.314z"/>
	<path fill="#666565" d="M341.132,284.281c0-1.207,0.297-2.166,0.892-2.877c0.593-0.713,1.389-1.065,2.389-1.065
		c0.938,0,1.677,0.31,2.222,0.927s0.816,1.435,0.816,2.441v0.72h-5.153c0.021,0.88,0.244,1.548,0.668,2.003
		c0.422,0.456,1.019,0.687,1.782,0.687c0.806,0,1.601-0.171,2.387-0.509v1.015c-0.398,0.172-0.776,0.297-1.136,0.371
		c-0.355,0.075-0.786,0.112-1.292,0.112c-1.104,0-1.976-0.338-2.613-1.013C341.453,286.416,341.132,285.479,341.132,284.281z
		 M342.323,283.502h3.924c0-0.717-0.159-1.264-0.479-1.646c-0.319-0.381-0.776-0.568-1.369-0.568c-0.604,0-1.083,0.193-1.441,0.588
		C342.598,282.268,342.385,282.811,342.323,283.502z"/>
	<path fill="#666565" d="M348.925,282.314c0-0.611,0.248-1.095,0.744-1.447c0.495-0.354,1.177-0.528,2.042-0.528
		c0.802,0,1.585,0.163,2.353,0.491l-0.396,0.925c-0.75-0.313-1.43-0.468-2.037-0.468c-0.539,0-0.943,0.086-1.221,0.254
		c-0.274,0.171-0.411,0.4-0.411,0.699c0,0.199,0.053,0.371,0.154,0.515c0.103,0.144,0.27,0.274,0.496,0.403
		c0.229,0.129,0.667,0.313,1.313,0.557c0.891,0.322,1.485,0.648,1.792,0.979c0.309,0.33,0.46,0.742,0.46,1.24
		c0,0.694-0.26,1.229-0.773,1.604c-0.518,0.377-1.241,0.563-2.176,0.563c-0.991,0-1.768-0.153-2.319-0.465v-1.047
		c0.357,0.184,0.745,0.326,1.156,0.432c0.41,0.104,0.81,0.158,1.188,0.158c0.595,0,1.051-0.096,1.37-0.285
		c0.319-0.188,0.479-0.479,0.479-0.866c0-0.291-0.128-0.541-0.381-0.75c-0.254-0.207-0.748-0.453-1.481-0.736
		c-0.699-0.26-1.194-0.485-1.487-0.683c-0.292-0.192-0.51-0.413-0.652-0.661C348.996,282.951,348.925,282.658,348.925,282.314z"/>
</g>
<g>
	<path fill="#666565" d="M116.341,303.177h1.271l2.64,4.996l2.659-4.996h1.258l-3.336,6.117v3.877h-1.162v-3.821L116.341,303.177z"
		/>
	<path fill="#666565" d="M124.27,309.486c0-1.209,0.297-2.168,0.891-2.879c0.593-0.711,1.391-1.065,2.391-1.065
		c0.936,0,1.676,0.312,2.221,0.928c0.545,0.617,0.815,1.433,0.815,2.443v0.717h-5.152c0.021,0.882,0.245,1.55,0.668,2.005
		c0.422,0.454,1.018,0.684,1.783,0.684c0.805,0,1.6-0.168,2.386-0.506v1.013c-0.399,0.175-0.777,0.3-1.135,0.372
		c-0.357,0.076-0.787,0.113-1.292,0.113c-1.104,0-1.978-0.338-2.614-1.015C124.591,311.622,124.27,310.686,124.27,309.486z
		 M125.459,308.708h3.926c0-0.717-0.16-1.267-0.479-1.646c-0.318-0.381-0.775-0.569-1.368-0.569c-0.604,0-1.083,0.194-1.439,0.588
		C125.737,307.473,125.523,308.016,125.459,308.708z"/>
	<path fill="#666565" d="M131.981,311.107c0-1.51,1.212-2.301,3.636-2.373l1.272-0.043v-0.469c0-0.598-0.126-1.035-0.379-1.318
		c-0.252-0.284-0.656-0.426-1.211-0.426c-0.623,0-1.328,0.191-2.115,0.58l-0.354-0.871c0.369-0.196,0.772-0.354,1.213-0.465
		c0.439-0.11,0.883-0.168,1.323-0.168c0.895,0,1.554,0.197,1.982,0.596c0.431,0.396,0.646,1.031,0.646,1.906v5.113h-0.842
		l-0.226-1.056h-0.057c-0.373,0.466-0.745,0.778-1.113,0.942c-0.371,0.166-0.835,0.248-1.391,0.248c-0.747,0-1.332-0.19-1.756-0.572
		C132.193,312.354,131.981,311.813,131.981,311.107z M133.184,311.122c0,0.412,0.124,0.728,0.372,0.938
		c0.248,0.217,0.595,0.323,1.04,0.323c0.705,0,1.259-0.194,1.662-0.584c0.4-0.39,0.604-0.936,0.604-1.636v-0.682l-1.133,0.051
		c-0.899,0.029-1.55,0.172-1.948,0.422C133.384,310.206,133.184,310.595,133.184,311.122z"/>
	<path fill="#666565" d="M140.327,313.171v-7.492h0.923l0.141,1.395h0.06c0.277-0.489,0.613-0.866,1.006-1.132
		c0.394-0.267,0.821-0.398,1.292-0.398c0.333,0,0.631,0.027,0.896,0.084l-0.157,1.061c-0.31-0.067-0.583-0.104-0.819-0.104
		c-0.604,0-1.125,0.246-1.556,0.737c-0.432,0.492-0.646,1.104-0.646,1.837v4.016h-1.139V313.171z"/>
	<path fill="#666565" d="M145.564,307.52c0-0.609,0.248-1.094,0.744-1.446c0.496-0.354,1.177-0.53,2.042-0.53
		c0.802,0,1.585,0.164,2.352,0.492l-0.396,0.924c-0.75-0.311-1.431-0.465-2.037-0.465c-0.539,0-0.945,0.084-1.222,0.254
		c-0.273,0.168-0.409,0.4-0.409,0.697c0,0.201,0.052,0.371,0.152,0.514c0.104,0.145,0.271,0.275,0.496,0.404
		c0.229,0.129,0.667,0.313,1.314,0.557c0.889,0.324,1.484,0.648,1.792,0.979s0.46,0.742,0.46,1.24c0,0.692-0.259,1.229-0.774,1.604
		c-0.517,0.375-1.241,0.563-2.176,0.563c-0.991,0-1.766-0.156-2.319-0.466v-1.048c0.358,0.184,0.745,0.326,1.155,0.434
		c0.412,0.104,0.813,0.156,1.191,0.156c0.594,0,1.05-0.096,1.37-0.283c0.317-0.188,0.479-0.479,0.479-0.867
		c0-0.293-0.127-0.543-0.38-0.75c-0.254-0.209-0.748-0.453-1.482-0.735c-0.697-0.263-1.192-0.487-1.485-0.683
		c-0.292-0.194-0.512-0.416-0.653-0.662C145.636,308.157,145.564,307.861,145.564,307.52z"/>
	<path fill="#666565" d="M155.941,309.411c0-1.22,0.306-2.168,0.913-2.849c0.607-0.682,1.454-1.021,2.535-1.021
		c1.046,0,1.876,0.348,2.489,1.043c0.616,0.697,0.926,1.639,0.926,2.826c0,1.224-0.309,2.178-0.92,2.863
		c-0.613,0.688-1.463,1.031-2.542,1.031c-0.671,0-1.264-0.158-1.779-0.476c-0.52-0.313-0.918-0.767-1.199-1.354
		C156.081,310.891,155.941,310.202,155.941,309.411z M157.103,309.411c0,0.959,0.189,1.69,0.575,2.192
		c0.383,0.502,0.945,0.754,1.689,0.754c0.742,0,1.311-0.25,1.693-0.75s0.578-1.231,0.578-2.196c0-0.955-0.193-1.681-0.578-2.177
		c-0.386-0.494-0.955-0.741-1.708-0.741c-0.744,0-1.307,0.243-1.687,0.731C157.292,307.714,157.103,308.441,157.103,309.411z"/>
	<path fill="#666565" d="M163.809,306.561v-0.513l1.34-0.409v-0.416c0-1.832,0.806-2.75,2.413-2.75c0.396,0,0.859,0.079,1.396,0.235
		l-0.294,0.897c-0.438-0.145-0.813-0.213-1.121-0.213c-0.43,0-0.745,0.146-0.948,0.428c-0.205,0.285-0.31,0.742-0.31,1.371v0.484
		h1.906v0.883h-1.906v6.607h-1.136v-6.607L163.809,306.561L163.809,306.561z"/>
	<path fill="#666565" d="M173.195,313.171v-10.637h1.136v10.637H173.195z"/>
	<path fill="#666565" d="M176.641,303.648c0-0.26,0.06-0.45,0.177-0.571c0.117-0.119,0.266-0.181,0.441-0.181
		c0.194,0,0.363,0.062,0.508,0.185c0.144,0.123,0.214,0.313,0.214,0.567s-0.07,0.444-0.214,0.57
		c-0.145,0.125-0.313,0.188-0.508,0.188c-0.179,0-0.324-0.063-0.441-0.188C176.698,304.094,176.641,303.902,176.641,303.648z
		 M176.736,313.171v-7.492h1.039v7.492H176.736z"/>
	<path fill="#666565" d="M179.272,306.561v-0.513l1.34-0.409v-0.416c0-1.832,0.806-2.75,2.413-2.75c0.396,0,0.861,0.079,1.396,0.235
		l-0.294,0.897c-0.438-0.145-0.813-0.213-1.121-0.213c-0.429,0-0.743,0.146-0.948,0.428c-0.205,0.285-0.31,0.742-0.31,1.371v0.484
		h1.906v0.883h-1.906v6.607h-1.136v-6.607L179.272,306.561L179.272,306.561z"/>
	<path fill="#666565" d="M184.604,309.486c0-1.209,0.297-2.168,0.891-2.879c0.593-0.711,1.391-1.065,2.391-1.065
		c0.936,0,1.676,0.312,2.221,0.928c0.545,0.617,0.815,1.433,0.815,2.443v0.717h-5.152c0.021,0.882,0.245,1.55,0.668,2.005
		c0.422,0.454,1.018,0.684,1.783,0.684c0.805,0,1.6-0.168,2.386-0.506v1.013c-0.399,0.175-0.777,0.3-1.135,0.372
		c-0.356,0.076-0.787,0.113-1.292,0.113c-1.104,0-1.978-0.338-2.614-1.015C184.925,311.622,184.604,310.686,184.604,309.486z
		 M185.793,308.708h3.926c0-0.717-0.16-1.267-0.479-1.646c-0.318-0.381-0.775-0.569-1.368-0.569c-0.604,0-1.083,0.194-1.439,0.588
		C186.071,307.473,185.857,308.016,185.793,308.708z"/>
	<path fill="#666565" d="M196.513,313.171v-10.637h1.135v10.637H196.513z"/>
	<path fill="#666565" d="M199.637,309.411c0-1.22,0.305-2.168,0.913-2.849c0.606-0.682,1.452-1.021,2.533-1.021
		c1.046,0,1.876,0.348,2.491,1.043c0.615,0.697,0.924,1.639,0.924,2.826c0,1.224-0.308,2.178-0.92,2.863
		c-0.611,0.688-1.461,1.031-2.542,1.031c-0.669,0-1.263-0.158-1.777-0.476c-0.521-0.313-0.92-0.767-1.199-1.354
		C199.777,310.891,199.637,310.202,199.637,309.411z M200.799,309.411c0,0.959,0.188,1.69,0.573,2.192
		c0.383,0.502,0.946,0.754,1.69,0.754c0.743,0,1.31-0.25,1.694-0.75s0.576-1.231,0.576-2.196c0-0.955-0.191-1.681-0.576-2.177
		c-0.388-0.494-0.955-0.741-1.708-0.741c-0.744,0-1.308,0.243-1.688,0.731C200.988,307.714,200.799,308.441,200.799,309.411z"/>
	<path fill="#666565" d="M208.031,307.52c0-0.609,0.248-1.094,0.744-1.446c0.496-0.354,1.178-0.53,2.042-0.53
		c0.803,0,1.585,0.164,2.352,0.492l-0.396,0.924c-0.75-0.311-1.429-0.465-2.037-0.465c-0.539,0-0.944,0.084-1.22,0.254
		c-0.274,0.168-0.411,0.4-0.411,0.697c0,0.201,0.053,0.371,0.154,0.514c0.103,0.145,0.269,0.275,0.494,0.404
		c0.229,0.129,0.667,0.313,1.314,0.557c0.89,0.324,1.486,0.648,1.792,0.979c0.308,0.33,0.46,0.742,0.46,1.24
		c0,0.692-0.259,1.229-0.774,1.604c-0.517,0.375-1.239,0.563-2.175,0.563c-0.992,0-1.767-0.156-2.318-0.466v-1.048
		c0.357,0.184,0.743,0.326,1.154,0.434c0.412,0.104,0.812,0.156,1.19,0.156c0.595,0,1.051-0.096,1.37-0.283
		c0.317-0.188,0.479-0.479,0.479-0.867c0-0.293-0.127-0.543-0.38-0.75c-0.255-0.209-0.748-0.453-1.481-0.735
		c-0.699-0.263-1.194-0.487-1.487-0.683c-0.292-0.194-0.51-0.416-0.652-0.662C208.102,308.157,208.031,307.861,208.031,307.52z"/>
	<path fill="#666565" d="M214.197,306.561v-0.547l1.073-0.472l0.479-1.603h0.655v1.736h2.175v0.883h-2.175v4.42
		c0,0.451,0.107,0.799,0.321,1.041c0.214,0.241,0.508,0.361,0.882,0.361c0.2,0,0.396-0.016,0.581-0.045
		c0.187-0.027,0.335-0.063,0.444-0.092v0.855c-0.123,0.061-0.307,0.106-0.545,0.146c-0.238,0.037-0.453,0.059-0.646,0.059
		c-1.448,0-2.174-0.766-2.174-2.289v-4.457L214.197,306.561L214.197,306.561z"/>
	<path fill="#666565" d="M223.124,309.335c0-1.207,0.181-2.338,0.536-3.392c0.355-1.053,0.868-1.977,1.534-2.77h1.107
		c-0.656,0.88-1.149,1.846-1.479,2.896c-0.33,1.053-0.495,2.135-0.495,3.246c0,1.096,0.169,2.162,0.506,3.207
		c0.337,1.043,0.821,1.996,1.456,2.856h-1.095c-0.671-0.774-1.184-1.68-1.539-2.715
		C223.303,311.639,223.124,310.525,223.124,309.335z"/>
	<path fill="#666565" d="M226.706,303.177h1.271l2.64,4.996l2.658-4.996h1.259l-3.337,6.117v3.877h-1.161v-3.821L226.706,303.177z"
		/>
	<path fill="#666565" d="M235.921,313.171v-9.994h1.162v8.955h4.409v1.039H235.921z"/>
	<path fill="#666565" d="M243.188,313.171v-9.994h1.162v8.955h4.409v1.039H243.188z"/>
	<path fill="#666565" d="M249.497,303.177h1.106c0.671,0.798,1.185,1.724,1.539,2.779c0.354,1.055,0.532,2.183,0.532,3.379
		c0,1.199-0.181,2.313-0.536,3.351c-0.356,1.035-0.869,1.936-1.535,2.7h-1.094c0.634-0.855,1.117-1.809,1.456-2.854
		c0.337-1.05,0.506-2.117,0.506-3.212c0-1.11-0.165-2.192-0.496-3.245C250.647,305.021,250.154,304.057,249.497,303.177z"/>
	<path fill="#666565" d="M257.434,309.938v-1.039h3.354v1.039H257.434z"/>
	<path fill="#666565" d="M266.375,313.171v-9.994h5.57v1.039h-4.408v3.65h4.145v1.036h-4.145v4.269H266.375z"/>
	<path fill="#666565" d="M272.869,311.107c0-1.51,1.212-2.301,3.635-2.373l1.272-0.043v-0.469c0-0.598-0.126-1.035-0.379-1.318
		c-0.252-0.284-0.655-0.426-1.211-0.426c-0.623,0-1.328,0.191-2.115,0.58l-0.353-0.871c0.367-0.196,0.771-0.354,1.213-0.465
		c0.438-0.11,0.881-0.168,1.323-0.168c0.893,0,1.554,0.197,1.98,0.596c0.432,0.396,0.646,1.031,0.646,1.906v5.113h-0.843
		l-0.227-1.056h-0.055c-0.373,0.466-0.745,0.778-1.115,0.942c-0.371,0.166-0.834,0.248-1.389,0.248c-0.747,0-1.332-0.19-1.757-0.572
		C273.081,312.354,272.869,311.813,272.869,311.107z M274.073,311.122c0,0.412,0.124,0.728,0.372,0.938
		c0.248,0.217,0.596,0.323,1.04,0.323c0.705,0,1.26-0.194,1.662-0.584s0.604-0.936,0.604-1.636v-0.682l-1.133,0.051
		c-0.898,0.029-1.551,0.172-1.948,0.422C274.272,310.206,274.073,310.595,274.073,311.122z"/>
	<path fill="#666565" d="M280.225,306.561v-0.547l1.071-0.472l0.479-1.603h0.656v1.736h2.174v0.883h-2.174v4.42
		c0,0.451,0.105,0.799,0.319,1.041c0.216,0.241,0.51,0.361,0.884,0.361c0.198,0,0.395-0.016,0.581-0.045
		c0.186-0.027,0.335-0.063,0.442-0.092v0.855c-0.123,0.061-0.306,0.106-0.544,0.146c-0.239,0.037-0.454,0.059-0.646,0.059
		c-1.449,0-2.176-0.766-2.176-2.289v-4.457L280.225,306.561L280.225,306.561z"/>
	<path fill="#666565" d="M285.599,311.107c0-1.51,1.212-2.301,3.635-2.373l1.271-0.043v-0.469c0-0.598-0.126-1.035-0.379-1.318
		c-0.252-0.284-0.656-0.426-1.211-0.426c-0.623,0-1.328,0.191-2.113,0.58l-0.354-0.871c0.369-0.196,0.773-0.354,1.214-0.465
		c0.439-0.11,0.881-0.168,1.322-0.168c0.894,0,1.555,0.197,1.981,0.596c0.433,0.396,0.646,1.031,0.646,1.906v5.113h-0.841
		l-0.228-1.056h-0.056c-0.373,0.466-0.744,0.778-1.114,0.942c-0.371,0.166-0.834,0.248-1.39,0.248c-0.747,0-1.332-0.19-1.755-0.572
		C285.81,312.354,285.599,311.813,285.599,311.107z M286.802,311.122c0,0.412,0.124,0.728,0.372,0.938
		c0.246,0.217,0.595,0.323,1.038,0.323c0.705,0,1.259-0.194,1.662-0.584c0.401-0.39,0.604-0.936,0.604-1.636v-0.682l-1.135,0.051
		c-0.898,0.029-1.55,0.172-1.946,0.422C287,310.206,286.802,310.595,286.802,311.122z"/>
	<path fill="#666565" d="M293.945,313.171v-10.637h1.136v10.637H293.945z"/>
	<path fill="#666565" d="M301.027,303.648c0-0.26,0.06-0.45,0.177-0.571c0.117-0.119,0.266-0.181,0.441-0.181
		c0.194,0,0.363,0.062,0.508,0.185c0.144,0.123,0.214,0.313,0.214,0.567s-0.07,0.444-0.214,0.57
		c-0.145,0.125-0.313,0.188-0.508,0.188c-0.179,0-0.324-0.063-0.441-0.188C301.085,304.094,301.027,303.902,301.027,303.648z
		 M301.121,313.171v-7.492h1.039v7.492H301.121z"/>
	<path fill="#666565" d="M304.662,313.171v-7.492h0.924l0.187,1.013h0.055c0.23-0.363,0.56-0.646,0.979-0.849s0.889-0.301,1.4-0.301
		c0.902,0,1.581,0.218,2.037,0.649c0.456,0.438,0.685,1.134,0.685,2.09v4.89h-1.135v-4.856c0-0.611-0.14-1.066-0.418-1.369
		c-0.277-0.303-0.713-0.451-1.306-0.451c-0.784,0-1.357,0.211-1.725,0.637c-0.363,0.426-0.547,1.125-0.547,2.104v3.938h-1.136
		V313.171L304.662,313.171z"/>
	<path fill="#666565" d="M311.294,315.447c0.313,0.091,0.624,0.138,0.93,0.138c0.354,0,0.616-0.099,0.782-0.291
		c0.167-0.192,0.25-0.487,0.25-0.887v-8.729h1.137v8.641c0,1.478-0.684,2.216-2.046,2.216c-0.434,0-0.782-0.058-1.053-0.17V315.447
		L311.294,315.447z M313.159,303.648c0-0.26,0.063-0.45,0.191-0.571c0.128-0.119,0.285-0.181,0.479-0.181
		c0.208,0,0.389,0.062,0.539,0.185c0.151,0.123,0.228,0.313,0.228,0.567s-0.073,0.444-0.228,0.57
		c-0.15,0.125-0.331,0.188-0.539,0.188c-0.19,0-0.351-0.063-0.479-0.188S313.159,303.902,313.159,303.648z"/>
	<path fill="#666565" d="M316.714,310.581v-4.899h1.161v4.858c0,0.608,0.142,1.065,0.416,1.366c0.277,0.302,0.713,0.451,1.305,0.451
		c0.782,0,1.354-0.215,1.718-0.645c0.36-0.428,0.543-1.127,0.543-2.1v-3.938h1.135v7.49h-0.923l-0.178-1.004h-0.063
		c-0.231,0.368-0.554,0.649-0.966,0.849c-0.411,0.194-0.881,0.294-1.409,0.294c-0.915,0-1.601-0.219-2.056-0.648
		C316.942,312.225,316.714,311.532,316.714,310.581z"/>
	<path fill="#666565" d="M325.389,313.171v-7.492h0.925l0.139,1.395h0.06c0.277-0.489,0.614-0.866,1.008-1.132
		c0.392-0.267,0.82-0.398,1.292-0.398c0.333,0,0.631,0.027,0.896,0.084l-0.156,1.061c-0.311-0.067-0.583-0.104-0.818-0.104
		c-0.605,0-1.125,0.246-1.557,0.737c-0.433,0.492-0.646,1.104-0.646,1.837v4.016h-1.141V313.171z"/>
	<path fill="#666565" d="M331.008,303.648c0-0.26,0.061-0.45,0.179-0.571c0.115-0.119,0.265-0.181,0.438-0.181
		c0.196,0,0.365,0.062,0.509,0.185c0.145,0.123,0.214,0.313,0.214,0.567s-0.069,0.444-0.214,0.57
		c-0.144,0.125-0.313,0.188-0.509,0.188c-0.177,0-0.323-0.063-0.438-0.188C331.068,304.094,331.008,303.902,331.008,303.648z
		 M331.105,313.171v-7.492h1.039v7.492H331.105z"/>
	<path fill="#666565" d="M334.229,309.486c0-1.209,0.297-2.168,0.89-2.879c0.594-0.711,1.39-1.065,2.39-1.065
		c0.938,0,1.678,0.312,2.223,0.928c0.545,0.617,0.815,1.433,0.815,2.443v0.717h-5.152c0.021,0.882,0.243,1.55,0.668,2.005
		c0.422,0.454,1.017,0.684,1.781,0.684c0.807,0,1.602-0.168,2.388-0.506v1.013c-0.4,0.175-0.778,0.3-1.137,0.372
		c-0.355,0.076-0.786,0.113-1.292,0.113c-1.104,0-1.977-0.338-2.612-1.015C334.548,311.622,334.229,310.686,334.229,309.486z
		 M335.418,308.708h3.924c0-0.717-0.158-1.267-0.479-1.646c-0.318-0.381-0.775-0.569-1.369-0.569c-0.603,0-1.083,0.194-1.44,0.588
		C335.696,307.473,335.482,308.016,335.418,308.708z"/>
	<path fill="#666565" d="M342.022,307.52c0-0.609,0.248-1.094,0.742-1.446c0.496-0.354,1.179-0.53,2.042-0.53
		c0.804,0,1.586,0.164,2.353,0.492l-0.396,0.924c-0.75-0.311-1.429-0.465-2.035-0.465c-0.539,0-0.945,0.084-1.222,0.254
		c-0.273,0.168-0.411,0.4-0.411,0.697c0,0.201,0.054,0.371,0.153,0.514c0.104,0.145,0.271,0.275,0.496,0.404
		c0.229,0.129,0.667,0.313,1.315,0.557c0.889,0.324,1.484,0.648,1.791,0.979c0.308,0.33,0.461,0.742,0.461,1.24
		c0,0.692-0.261,1.229-0.775,1.604c-0.516,0.375-1.24,0.563-2.175,0.563c-0.992,0-1.768-0.156-2.32-0.466v-1.048
		c0.359,0.184,0.745,0.326,1.156,0.434c0.412,0.104,0.811,0.156,1.189,0.156c0.596,0,1.052-0.096,1.37-0.283
		c0.318-0.188,0.479-0.479,0.479-0.867c0-0.293-0.127-0.543-0.38-0.75c-0.254-0.209-0.748-0.453-1.483-0.735
		c-0.698-0.263-1.193-0.487-1.486-0.683c-0.292-0.194-0.511-0.416-0.651-0.662C342.092,308.157,342.022,307.861,342.022,307.52z"/>
</g>
<g>
	<path fill="#666565" d="M99.306,82.965l2.96-2.287h1.096v11.181h-1.27V83.89c0-0.663,0.023-1.29,0.064-1.882
		c-0.109,0.107-0.228,0.219-0.358,0.336c-0.133,0.118-0.74,0.615-1.821,1.491L99.306,82.965z"/>
	<path fill="#666565" d="M107.617,89.006c0-1.28,0.785-2.277,2.354-2.99c-0.711-0.397-1.221-0.827-1.532-1.289
		c-0.308-0.462-0.464-0.978-0.464-1.549c0-0.811,0.304-1.457,0.906-1.938c0.603-0.482,1.411-0.723,2.42-0.723
		c1.024,0,1.834,0.237,2.433,0.711c0.598,0.475,0.898,1.129,0.898,1.966c0,0.55-0.17,1.053-0.516,1.506
		c-0.344,0.455-0.893,0.868-1.648,1.239c0.91,0.433,1.562,0.888,1.946,1.364c0.385,0.477,0.578,1.028,0.578,1.656
		c0,0.929-0.326,1.668-0.975,2.222c-0.649,0.554-1.539,0.831-2.67,0.831c-1.196,0-2.12-0.261-2.762-0.785
		C107.94,90.706,107.617,89.965,107.617,89.006z M108.886,89.037c0,0.612,0.212,1.089,0.637,1.43
		c0.425,0.341,1.022,0.512,1.792,0.512c0.758,0,1.349-0.179,1.771-0.536c0.421-0.357,0.632-0.846,0.632-1.469
		c0-0.495-0.201-0.934-0.595-1.319c-0.397-0.385-1.089-0.758-2.076-1.12c-0.758,0.327-1.308,0.687-1.649,1.083
		C109.058,88.014,108.886,88.487,108.886,89.037z M109.246,83.232c0,0.469,0.15,0.872,0.448,1.208
		c0.303,0.337,0.856,0.673,1.665,1.009c0.727-0.305,1.242-0.634,1.546-0.986c0.303-0.352,0.455-0.762,0.455-1.232
		c0-0.515-0.185-0.924-0.554-1.227c-0.37-0.303-0.877-0.456-1.521-0.456c-0.637,0-1.136,0.153-1.498,0.459
		C109.427,82.315,109.246,82.724,109.246,83.232z"/>
	<path fill="#666565" d="M116.939,91.049c0-0.341,0.076-0.601,0.233-0.776c0.156-0.176,0.378-0.264,0.67-0.264
		c0.295,0,0.526,0.088,0.692,0.264c0.165,0.176,0.248,0.435,0.248,0.776c0,0.331-0.082,0.586-0.253,0.766
		c-0.168,0.179-0.396,0.267-0.687,0.267c-0.258,0-0.477-0.081-0.647-0.24C117.024,91.681,116.939,91.416,116.939,91.049z"/>
	<path fill="#666565" d="M120.962,91.399v-1.229c0.356,0.229,0.8,0.408,1.33,0.537c0.531,0.129,1.051,0.195,1.565,0.195
		c0.898,0,1.594-0.21,2.092-0.632c0.497-0.421,0.746-1.031,0.746-1.83c0-1.555-0.956-2.333-2.869-2.333
		c-0.486,0-1.135,0.074-1.945,0.221l-0.658-0.42l0.425-5.23h5.561v1.163h-4.476l-0.283,3.365c0.585-0.107,1.17-0.161,1.751-0.161
		c1.178,0,2.105,0.29,2.78,0.869c0.675,0.58,1.014,1.374,1.014,2.381c0,1.16-0.368,2.07-1.105,2.728
		c-0.738,0.658-1.75,0.987-3.048,0.987C122.588,92.012,121.624,91.807,120.962,91.399z"/>
	<path fill="#666565" d="M129.214,89.297v-1.117l5.308-7.564h1.345v7.519h1.675v1.163h-1.675v2.562h-1.2v-2.562H129.214z
		 M130.5,88.135h4.169v-3.717c0-0.729,0.024-1.553,0.075-2.47h-0.063c-0.245,0.49-0.474,0.895-0.686,1.216L130.5,88.135z"/>
</g>
<g>
	<path fill="#666565" d="M182.072,89.297v-1.117l5.307-7.564h1.346v7.519h1.675v1.163h-1.675v2.562h-1.2v-2.562H182.072z
		 M183.357,88.135h4.169v-3.717c0-0.729,0.024-1.553,0.076-2.47h-0.063c-0.245,0.49-0.474,0.895-0.686,1.216L183.357,88.135z"/>
	<path fill="#666565" d="M191.509,89.006c0-1.28,0.786-2.277,2.354-2.99c-0.712-0.397-1.223-0.827-1.532-1.289
		c-0.311-0.462-0.464-0.978-0.464-1.549c0-0.811,0.303-1.457,0.906-1.938c0.603-0.482,1.409-0.723,2.417-0.723
		c1.024,0,1.835,0.237,2.435,0.711c0.598,0.475,0.898,1.129,0.898,1.966c0,0.55-0.171,1.053-0.516,1.506
		c-0.344,0.455-0.893,0.868-1.646,1.239c0.91,0.433,1.561,0.888,1.943,1.364c0.387,0.477,0.579,1.028,0.579,1.656
		c0,0.929-0.326,1.668-0.975,2.222c-0.649,0.554-1.539,0.831-2.67,0.831c-1.196,0-2.119-0.261-2.763-0.785
		C191.831,90.706,191.509,89.965,191.509,89.006z M192.779,89.037c0,0.612,0.211,1.089,0.636,1.43
		c0.427,0.341,1.023,0.512,1.793,0.512c0.759,0,1.35-0.179,1.771-0.536c0.422-0.357,0.632-0.846,0.632-1.469
		c0-0.495-0.199-0.934-0.593-1.319c-0.397-0.385-1.092-0.758-2.076-1.12c-0.759,0.327-1.308,0.687-1.651,1.083
		C192.948,88.012,192.779,88.487,192.779,89.037z M193.137,83.232c0,0.469,0.152,0.872,0.45,1.208
		c0.303,0.337,0.854,0.673,1.664,1.009c0.725-0.305,1.241-0.634,1.546-0.986c0.304-0.352,0.455-0.762,0.455-1.232
		c0-0.515-0.185-0.924-0.554-1.227s-0.876-0.456-1.522-0.456c-0.635,0-1.135,0.153-1.496,0.459
		C193.319,82.315,193.137,82.724,193.137,83.232z"/>
	<path fill="#666565" d="M200.831,91.049c0-0.341,0.078-0.601,0.232-0.776c0.158-0.176,0.38-0.264,0.671-0.264
		c0.296,0,0.528,0.088,0.693,0.264c0.164,0.176,0.249,0.435,0.249,0.776c0,0.331-0.084,0.586-0.253,0.766
		c-0.168,0.179-0.396,0.267-0.688,0.267c-0.259,0-0.475-0.081-0.646-0.24C200.917,91.681,200.831,91.416,200.831,91.049z"/>
	<path fill="#666565" d="M204.555,81.841v-1.163h7.441v1.01l-4.574,10.171h-1.407l4.636-10.019H204.555z"/>
	<path fill="#666565" d="M213.512,81.841v-1.163h7.439v1.01l-4.573,10.171h-1.408l4.635-10.019H213.512z"/>
</g>
<g>
	<path fill="#666565" d="M129.49,162.641v-1.117l5.307-7.563h1.346v7.518h1.675v1.163h-1.675v2.562h-1.2v-2.562H129.49z
		 M130.775,161.478h4.169v-3.715c0-0.729,0.024-1.554,0.075-2.471h-0.063c-0.245,0.49-0.474,0.896-0.686,1.217L130.775,161.478z"/>
	<path fill="#666565" d="M138.927,162.351c0-1.281,0.786-2.277,2.354-2.99c-0.712-0.398-1.222-0.827-1.532-1.29
		c-0.31-0.462-0.464-0.978-0.464-1.548c0-0.812,0.303-1.458,0.906-1.938c0.603-0.483,1.41-0.723,2.418-0.723
		c1.023,0,1.835,0.237,2.434,0.711c0.598,0.475,0.898,1.129,0.898,1.966c0,0.55-0.171,1.052-0.516,1.507
		c-0.344,0.455-0.893,0.866-1.646,1.237c0.91,0.435,1.562,0.888,1.944,1.365c0.387,0.477,0.579,1.029,0.579,1.656
		c0,0.929-0.326,1.668-0.975,2.222c-0.649,0.553-1.54,0.831-2.67,0.831c-1.196,0-2.118-0.261-2.763-0.785
		C139.249,164.049,138.927,163.309,138.927,162.351z M140.198,162.381c0,0.612,0.211,1.089,0.636,1.429
		c0.427,0.341,1.022,0.512,1.793,0.512c0.759,0,1.349-0.177,1.771-0.535c0.421-0.358,0.631-0.847,0.631-1.47
		c0-0.493-0.199-0.934-0.593-1.318c-0.396-0.386-1.091-0.76-2.076-1.12c-0.759,0.327-1.308,0.686-1.651,1.082
		C140.367,161.356,140.198,161.831,140.198,162.381z M140.556,156.576c0,0.469,0.152,0.872,0.45,1.208
		c0.303,0.336,0.854,0.673,1.664,1.009c0.726-0.305,1.241-0.634,1.546-0.987c0.304-0.351,0.455-0.762,0.455-1.232
		c0-0.515-0.185-0.924-0.554-1.228c-0.37-0.303-0.876-0.455-1.522-0.455c-0.635,0-1.135,0.153-1.496,0.459
		C140.737,155.659,140.556,156.067,140.556,156.576z"/>
	<path fill="#666565" d="M148.249,164.393c0-0.343,0.078-0.601,0.233-0.777c0.157-0.174,0.38-0.264,0.671-0.264
		c0.296,0,0.527,0.089,0.692,0.264c0.164,0.176,0.249,0.436,0.249,0.777c0,0.331-0.084,0.586-0.253,0.765
		c-0.168,0.179-0.396,0.268-0.688,0.268c-0.259,0-0.476-0.081-0.646-0.241C148.334,165.026,148.249,164.758,148.249,164.393z"/>
	<path fill="#666565" d="M152.695,156.31l2.96-2.288h1.096v11.181h-1.27v-7.969c0-0.662,0.021-1.289,0.063-1.881
		c-0.108,0.107-0.227,0.218-0.359,0.336c-0.133,0.118-0.74,0.614-1.82,1.492L152.695,156.31z"/>
	<path fill="#666565" d="M161.021,157.614c0-1.16,0.327-2.074,0.979-2.747c0.652-0.671,1.512-1.006,2.576-1.006
		c0.763,0,1.426,0.195,1.998,0.584c0.57,0.39,1.007,0.957,1.315,1.702c0.305,0.746,0.461,1.627,0.461,2.639
		c0,4.379-1.698,6.566-5.087,6.566c-0.593,0-1.064-0.051-1.413-0.153v-1.107c0.41,0.153,0.875,0.228,1.396,0.228
		c1.221,0,2.145-0.379,2.77-1.14c0.624-0.761,0.961-1.926,1.017-3.496h-0.091c-0.279,0.428-0.651,0.755-1.113,0.979
		c-0.464,0.225-0.987,0.336-1.564,0.336c-0.993,0-1.782-0.298-2.364-0.894C161.314,159.514,161.021,158.682,161.021,157.614z
		 M162.292,157.599c0,0.737,0.184,1.317,0.547,1.742c0.367,0.422,0.924,0.632,1.673,0.632c0.463,0,0.889-0.094,1.281-0.284
		c0.39-0.189,0.696-0.449,0.92-0.777c0.222-0.328,0.335-0.671,0.335-1.029c0-0.537-0.104-1.035-0.313-1.491
		c-0.209-0.455-0.5-0.814-0.875-1.075c-0.374-0.26-0.803-0.393-1.285-0.393c-0.727,0-1.289,0.236-1.689,0.708
		C162.489,156.104,162.292,156.758,162.292,157.599z"/>
</g>
<g>
	<g>
		<g>
			<path fill="#666565" d="M403.532,237.894c0-1.379,0.214-2.403,0.647-3.072c0.432-0.672,1.09-1.003,1.976-1.003
				c0.861,0,1.513,0.348,1.959,1.047c0.444,0.697,0.67,1.706,0.67,3.028c0,1.376-0.215,2.4-0.648,3.072
				c-0.432,0.678-1.092,1.016-1.981,1.016c-0.857,0-1.507-0.347-1.952-1.04C403.755,240.249,403.532,239.233,403.532,237.894z
				 M404.453,237.894c0,1.148,0.136,1.985,0.406,2.515c0.27,0.524,0.703,0.787,1.294,0.787c0.6,0,1.034-0.267,1.302-0.801
				c0.271-0.533,0.402-1.368,0.402-2.501c0-1.139-0.132-1.972-0.402-2.495c-0.268-0.529-0.702-0.793-1.302-0.793
				c-0.591,0-1.024,0.26-1.294,0.782C404.589,235.907,404.453,236.744,404.453,237.894z"/>
		</g>
		<g>
			<path fill="#666565" d="M471.142,235.564l2.1-1.621h0.778v7.93h-0.903v-5.651c0-0.472,0.018-0.915,0.046-1.335
				c-0.074,0.076-0.163,0.155-0.257,0.238s-0.524,0.438-1.29,1.058L471.142,235.564z"/>
			<path fill="#666565" d="M477.296,241.298c0-0.242,0.055-0.426,0.164-0.551c0.109-0.124,0.267-0.188,0.476-0.188
				c0.211,0,0.372,0.063,0.49,0.188c0.117,0.125,0.176,0.309,0.176,0.551c0,0.236-0.06,0.415-0.179,0.539
				c-0.117,0.126-0.282,0.189-0.489,0.189c-0.186,0-0.339-0.057-0.458-0.167C477.354,241.746,477.296,241.558,477.296,241.298z"/>
			<path fill="#666565" d="M479.983,237.894c0-1.379,0.213-2.403,0.646-3.072c0.432-0.672,1.092-1.003,1.976-1.003
				c0.861,0,1.514,0.348,1.959,1.047c0.444,0.697,0.671,1.706,0.671,3.028c0,1.376-0.214,2.4-0.647,3.072
				c-0.432,0.678-1.092,1.016-1.982,1.016c-0.856,0-1.508-0.347-1.952-1.04C480.207,240.249,479.983,239.233,479.983,237.894z
				 M480.903,237.894c0,1.148,0.136,1.985,0.405,2.515c0.271,0.524,0.703,0.787,1.294,0.787c0.599,0,1.034-0.267,1.302-0.801
				c0.27-0.533,0.402-1.368,0.402-2.501c0-1.139-0.133-1.972-0.402-2.495c-0.268-0.529-0.703-0.793-1.302-0.793
				c-0.591,0-1.023,0.26-1.294,0.782C481.038,235.907,480.903,236.744,480.903,237.894z"/>
		</g>
		<g>
			<path fill="#666565" d="M542.456,241.873v-0.766l2.089-2.111c0.634-0.642,1.054-1.103,1.259-1.38
				c0.203-0.275,0.352-0.544,0.453-0.81c0.104-0.257,0.154-0.539,0.154-0.844c0-0.424-0.128-0.763-0.388-1.006
				c-0.256-0.253-0.613-0.374-1.066-0.374c-0.331,0-0.641,0.055-0.938,0.163c-0.295,0.108-0.623,0.305-0.984,0.591l-0.478-0.614
				c0.729-0.599,1.525-0.897,2.387-0.897c0.745,0,1.328,0.192,1.751,0.57c0.423,0.38,0.634,0.892,0.634,1.531
				c0,0.503-0.143,1.002-0.424,1.497c-0.283,0.491-0.812,1.119-1.584,1.875l-1.736,1.702v0.044h4.078v0.823h-5.211v0.003h0.004
				V241.873z"/>
			<path fill="#666565" d="M549.091,241.298c0-0.242,0.055-0.426,0.164-0.551c0.11-0.124,0.267-0.188,0.476-0.188
				c0.21,0,0.372,0.063,0.49,0.188c0.117,0.125,0.176,0.309,0.176,0.551c0,0.236-0.06,0.415-0.179,0.539
				c-0.117,0.126-0.282,0.189-0.488,0.189c-0.184,0-0.338-0.057-0.458-0.167C549.151,241.746,549.091,241.558,549.091,241.298z"/>
			<path fill="#666565" d="M551.776,237.894c0-1.379,0.215-2.403,0.648-3.072c0.433-0.672,1.091-1.003,1.977-1.003
				c0.859,0,1.514,0.348,1.958,1.047c0.445,0.697,0.669,1.706,0.669,3.028c0,1.376-0.213,2.4-0.646,3.072
				c-0.433,0.678-1.094,1.016-1.98,1.016c-0.858,0-1.509-0.347-1.954-1.04C552.002,240.249,551.776,239.233,551.776,237.894z
				 M552.699,237.894c0,1.148,0.133,1.985,0.404,2.515c0.271,0.524,0.702,0.787,1.294,0.787c0.598,0,1.034-0.267,1.302-0.801
				c0.269-0.533,0.402-1.368,0.402-2.501c0-1.139-0.134-1.972-0.402-2.495c-0.268-0.529-0.704-0.793-1.302-0.793
				c-0.592,0-1.023,0.26-1.294,0.782C552.832,235.907,552.699,236.744,552.699,237.894z"/>
		</g>
		<g>
			<path fill="#666565" d="M614.221,241.561v-0.854c0.346,0.17,0.711,0.299,1.098,0.389c0.386,0.09,0.758,0.134,1.103,0.134
				c1.372,0,2.057-0.54,2.057-1.617c0-0.966-0.76-1.449-2.276-1.449h-0.782v-0.786h0.796c0.621,0,1.112-0.136,1.474-0.409
				c0.364-0.271,0.543-0.653,0.543-1.141c0-0.387-0.131-0.69-0.396-0.911c-0.266-0.22-0.628-0.332-1.084-0.332
				c-0.349,0-0.675,0.046-0.98,0.143c-0.308,0.094-0.659,0.267-1.053,0.52l-0.455-0.607c0.325-0.251,0.701-0.446,1.128-0.591
				c0.426-0.143,0.87-0.211,1.34-0.211c0.77,0,1.37,0.172,1.793,0.524c0.423,0.35,0.633,0.83,0.633,1.442
				c0,0.507-0.143,0.922-0.427,1.242c-0.283,0.323-0.684,0.539-1.207,0.648v0.044c0.636,0.081,1.109,0.284,1.418,0.612
				c0.305,0.325,0.461,0.759,0.461,1.286c0,0.754-0.259,1.33-0.781,1.74c-0.52,0.406-1.264,0.609-2.228,0.609
				c-0.419,0-0.805-0.027-1.152-0.094C614.89,241.827,614.55,241.715,614.221,241.561z"/>
			<path fill="#666565" d="M620.888,241.298c0-0.242,0.057-0.426,0.164-0.551c0.107-0.124,0.269-0.188,0.476-0.188
				c0.21,0,0.373,0.063,0.49,0.188c0.116,0.125,0.174,0.309,0.174,0.551c0,0.236-0.06,0.415-0.18,0.539
				c-0.116,0.126-0.282,0.189-0.487,0.189c-0.185,0-0.339-0.057-0.459-0.167C620.948,241.746,620.888,241.558,620.888,241.298z"/>
			<path fill="#666565" d="M623.574,237.894c0-1.379,0.215-2.403,0.646-3.072c0.433-0.672,1.092-1.003,1.977-1.003
				c0.862,0,1.515,0.348,1.959,1.047c0.444,0.697,0.671,1.706,0.671,3.028c0,1.376-0.214,2.4-0.646,3.072
				c-0.435,0.678-1.095,1.016-1.981,1.016c-0.857,0-1.509-0.347-1.953-1.04C623.8,240.249,623.574,239.233,623.574,237.894z
				 M624.495,237.894c0,1.148,0.136,1.985,0.404,2.515c0.271,0.524,0.704,0.787,1.295,0.787c0.599,0,1.033-0.267,1.302-0.801
				c0.269-0.533,0.402-1.368,0.402-2.501c0-1.139-0.134-1.972-0.402-2.495c-0.269-0.529-0.703-0.793-1.302-0.793
				c-0.591,0-1.024,0.26-1.295,0.782C624.631,235.907,624.495,236.744,624.495,237.894z"/>
		</g>
		<g>
			<path fill="#666565" d="M650.118,241.561v-0.854c0.346,0.17,0.712,0.299,1.099,0.389c0.386,0.09,0.757,0.134,1.102,0.134
				c1.373,0,2.057-0.54,2.057-1.617c0-0.966-0.758-1.449-2.274-1.449h-0.783v-0.786h0.795c0.623,0,1.112-0.136,1.474-0.409
				c0.364-0.271,0.545-0.653,0.545-1.141c0-0.387-0.133-0.69-0.397-0.911c-0.266-0.22-0.628-0.332-1.084-0.332
				c-0.348,0-0.675,0.046-0.98,0.143c-0.308,0.094-0.659,0.267-1.053,0.52l-0.455-0.607c0.325-0.251,0.702-0.446,1.129-0.591
				c0.425-0.143,0.869-0.211,1.339-0.211c0.77,0,1.37,0.172,1.793,0.524c0.423,0.35,0.633,0.83,0.633,1.442
				c0,0.507-0.143,0.922-0.426,1.242c-0.284,0.323-0.686,0.539-1.208,0.648v0.044c0.638,0.081,1.109,0.284,1.418,0.612
				c0.306,0.325,0.462,0.759,0.462,1.286c0,0.754-0.26,1.33-0.781,1.74c-0.521,0.406-1.265,0.609-2.229,0.609
				c-0.419,0-0.805-0.027-1.152-0.094C650.787,241.827,650.449,241.715,650.118,241.561z"/>
			<path fill="#666565" d="M656.785,241.298c0-0.242,0.057-0.426,0.165-0.551c0.106-0.124,0.268-0.188,0.476-0.188
				c0.209,0,0.372,0.063,0.489,0.188c0.116,0.125,0.174,0.309,0.174,0.551c0,0.236-0.06,0.415-0.178,0.539
				c-0.117,0.126-0.282,0.189-0.489,0.189c-0.185,0-0.339-0.057-0.459-0.167C656.846,241.746,656.785,241.558,656.785,241.298z"/>
			<path fill="#666565" d="M659.639,241.547v-0.872c0.255,0.164,0.568,0.291,0.944,0.383c0.377,0.092,0.748,0.138,1.112,0.138
				c0.635,0,1.132-0.15,1.483-0.444c0.351-0.303,0.53-0.732,0.53-1.298c0-1.103-0.679-1.655-2.037-1.655
				c-0.344,0-0.803,0.052-1.377,0.158l-0.466-0.299l0.303-3.709h3.942v0.823H660.9l-0.203,2.387c0.416-0.074,0.83-0.117,1.242-0.117
				c0.836,0,1.493,0.208,1.974,0.621c0.481,0.408,0.721,0.975,0.721,1.69c0,0.82-0.26,1.466-0.782,1.934
				c-0.524,0.469-1.243,0.702-2.163,0.702C660.79,241.981,660.11,241.838,659.639,241.547z"/>
		</g>
	</g>
	<line fill="none" stroke="#666666" stroke-miterlimit="10" x1="406.155" y1="230.714" x2="657.44" y2="230.714"/>
	<g>
		<g>
			<line fill="none" stroke="#666666" stroke-miterlimit="10" x1="406.155" y1="230.714" x2="406.155" y2="226.985"/>
			<line fill="none" stroke="#666666" stroke-miterlimit="10" x1="442.053" y1="230.714" x2="442.053" y2="226.985"/>
			<line fill="none" stroke="#666666" stroke-miterlimit="10" x1="477.95" y1="230.714" x2="477.95" y2="226.985"/>
			<line fill="none" stroke="#666666" stroke-miterlimit="10" x1="513.848" y1="230.714" x2="513.848" y2="226.985"/>
			<line fill="none" stroke="#666666" stroke-miterlimit="10" x1="549.747" y1="230.714" x2="549.747" y2="226.985"/>
			<line fill="none" stroke="#666666" stroke-miterlimit="10" x1="585.643" y1="230.714" x2="585.643" y2="226.985"/>
			<line fill="none" stroke="#666666" stroke-miterlimit="10" x1="621.541" y1="230.714" x2="621.541" y2="226.985"/>
			<line fill="none" stroke="#666666" stroke-miterlimit="10" x1="657.44" y1="230.714" x2="657.44" y2="226.985"/>
		</g>
	</g>
	<g>
		<line fill="none" stroke="#666666" stroke-miterlimit="10" x1="406.155" y1="230.714" x2="406.155" y2="81.719"/>
		<g>
			<g>
				<line fill="none" stroke="#666666" stroke-miterlimit="10" x1="406.155" y1="193.467" x2="412.438" y2="193.467"/>
				<line fill="none" stroke="#666666" stroke-miterlimit="10" x1="406.155" y1="118.967" x2="412.438" y2="118.967"/>
			</g>
		</g>
	</g>
	<g>
		<g>
			<g>
				<rect x="416.924" y="92.149" fill="#1F9B9C" width="234.056" height="53.636"/>
			</g>
		</g>
		<g>
			<g>
				<rect x="406.155" y="92.149" fill="#C7DFDF" width="10.77" height="53.636"/>
				<rect x="406.155" y="166.645" fill="#E9BF64" width="242.671" height="53.639"/>
			</g>
		</g>
	</g>
	<g>
		<path fill="#666565" d="M365.73,106.189h1.625l3.374,6.389l3.4-6.389h1.609l-4.267,7.823v4.956h-1.485v-4.885L365.73,106.189z"/>
		<path fill="#666565" d="M377.509,118.967v-12.778h1.486v11.45h5.637v1.329L377.509,118.967L377.509,118.967z"/>
		<path fill="#666565" d="M386.801,118.967v-12.778h1.486v11.45h5.637v1.329L386.801,118.967L386.801,118.967z"/>
	</g>
	<g>
		<path fill="#666565" d="M410.076,81.774c0-1.947,0.304-3.391,0.912-4.334c0.609-0.942,1.537-1.414,2.783-1.414
			c1.212,0,2.133,0.491,2.764,1.475c0.63,0.983,0.943,2.407,0.943,4.272c0,1.935-0.304,3.377-0.912,4.332
			c-0.608,0.954-1.54,1.431-2.793,1.431c-1.207,0-2.123-0.489-2.754-1.466C410.39,85.095,410.076,83.663,410.076,81.774z
			 M411.375,81.774c0,1.622,0.191,2.804,0.574,3.543c0.381,0.741,0.989,1.11,1.824,1.11c0.845,0,1.459-0.375,1.839-1.125
			c0.379-0.75,0.569-1.926,0.569-3.528s-0.19-2.775-0.569-3.521s-0.993-1.118-1.839-1.118c-0.835,0-1.443,0.369-1.824,1.102
			C411.568,78.971,411.375,80.152,411.375,81.774z"/>
		<path fill="#666565" d="M419.412,86.574c0-0.342,0.078-0.601,0.232-0.777c0.157-0.175,0.378-0.264,0.671-0.264
			c0.296,0,0.528,0.089,0.691,0.264c0.165,0.176,0.25,0.435,0.25,0.777c0,0.331-0.083,0.586-0.255,0.765
			c-0.167,0.179-0.396,0.267-0.687,0.267c-0.259,0-0.478-0.08-0.646-0.24C419.497,87.206,419.412,86.94,419.412,86.574z"/>
		<path fill="#666565" d="M423.859,78.49l2.961-2.287h1.096v11.181h-1.271v-7.969c0-0.663,0.024-1.29,0.064-1.882
			c-0.106,0.107-0.226,0.219-0.358,0.336c-0.133,0.118-0.739,0.615-1.82,1.492L423.859,78.49z"/>
		<path fill="#666565" d="M432.392,86.924v-1.229c0.355,0.229,0.8,0.408,1.329,0.537c0.532,0.129,1.053,0.195,1.567,0.195
			c0.897,0,1.595-0.21,2.092-0.632c0.496-0.421,0.746-1.031,0.746-1.83c0-1.555-0.956-2.333-2.87-2.333
			c-0.484,0-1.134,0.074-1.944,0.221l-0.658-0.42l0.426-5.23h5.562v1.163h-4.476l-0.283,3.365c0.584-0.107,1.17-0.161,1.75-0.161
			c1.179,0,2.105,0.29,2.78,0.869c0.677,0.58,1.015,1.374,1.015,2.381c0,1.16-0.368,2.07-1.106,2.728
			c-0.736,0.658-1.751,0.988-3.048,0.988C434.017,87.537,433.055,87.332,432.392,86.924z"/>
	</g>
	<g>
		<path fill="#666565" d="M514.569,162.974v-1.204c0.486,0.24,1.002,0.421,1.549,0.548c0.548,0.125,1.066,0.188,1.557,0.188
			c1.935,0,2.898-0.76,2.898-2.279c0-1.362-1.069-2.043-3.206-2.043h-1.104v-1.107h1.121c0.874,0,1.566-0.193,2.08-0.58
			c0.509-0.386,0.768-0.92,0.768-1.605c0-0.546-0.188-0.976-0.562-1.285c-0.376-0.313-0.884-0.468-1.526-0.468
			c-0.49,0-0.952,0.067-1.382,0.199c-0.434,0.131-0.929,0.378-1.483,0.734l-0.642-0.858c0.458-0.354,0.988-0.632,1.587-0.835
			c0.6-0.204,1.229-0.303,1.892-0.303c1.087,0,1.929,0.249,2.524,0.741c0.595,0.493,0.896,1.171,0.896,2.032
			c0,0.717-0.201,1.303-0.601,1.758c-0.4,0.455-0.967,0.76-1.702,0.913v0.062c0.897,0.114,1.563,0.399,1.995,0.862
			c0.435,0.462,0.649,1.067,0.649,1.816c0,1.064-0.367,1.883-1.099,2.452c-0.733,0.574-1.784,0.86-3.146,0.86
			c-0.59,0-1.133-0.043-1.626-0.132C515.509,163.35,515.031,163.195,514.569,162.974z"/>
		<path fill="#666565" d="M523.966,162.607c0-0.343,0.077-0.601,0.233-0.776c0.158-0.176,0.379-0.265,0.672-0.265
			c0.297,0,0.527,0.089,0.689,0.265c0.166,0.175,0.251,0.435,0.251,0.776c0,0.33-0.083,0.585-0.255,0.765
			c-0.167,0.179-0.396,0.266-0.686,0.266c-0.26,0-0.478-0.079-0.646-0.24C524.052,163.237,523.966,162.974,523.966,162.607z"/>
		<path fill="#666565" d="M527.691,162.974v-1.204c0.487,0.24,1.002,0.421,1.55,0.548c0.547,0.125,1.065,0.188,1.558,0.188
			c1.933,0,2.899-0.76,2.899-2.279c0-1.362-1.069-2.043-3.209-2.043h-1.104v-1.107h1.121c0.875,0,1.567-0.193,2.081-0.58
			c0.512-0.386,0.77-0.92,0.77-1.605c0-0.546-0.189-0.976-0.563-1.285c-0.377-0.313-0.883-0.468-1.525-0.468
			c-0.489,0-0.954,0.067-1.383,0.199c-0.433,0.131-0.929,0.378-1.484,0.734l-0.641-0.858c0.457-0.354,0.988-0.632,1.586-0.835
			c0.599-0.204,1.232-0.303,1.893-0.303c1.086,0,1.927,0.249,2.523,0.741c0.597,0.493,0.896,1.171,0.896,2.032
			c0,0.717-0.2,1.303-0.6,1.758c-0.398,0.455-0.966,0.76-1.701,0.913v0.062c0.897,0.114,1.563,0.399,1.996,0.862
			c0.433,0.463,0.65,1.067,0.65,1.816c0,1.064-0.367,1.883-1.102,2.452c-0.732,0.574-1.781,0.86-3.143,0.86
			c-0.593,0-1.137-0.043-1.626-0.132C528.631,163.35,528.154,163.195,527.691,162.974z"/>
		<path fill="#666565" d="M536.723,160.563c0-1.28,0.785-2.275,2.354-2.989c-0.713-0.397-1.222-0.826-1.529-1.289
			c-0.309-0.462-0.464-0.978-0.464-1.55c0-0.811,0.303-1.455,0.905-1.938c0.601-0.482,1.409-0.723,2.419-0.723
			c1.022,0,1.834,0.238,2.433,0.713c0.599,0.474,0.898,1.128,0.898,1.965c0,0.551-0.171,1.052-0.516,1.507
			c-0.345,0.454-0.894,0.867-1.649,1.238c0.914,0.433,1.563,0.888,1.946,1.365c0.384,0.478,0.578,1.028,0.578,1.654
			c0,0.929-0.325,1.669-0.975,2.222c-0.65,0.554-1.54,0.83-2.671,0.83c-1.196,0-2.118-0.26-2.762-0.784
			C537.045,162.263,536.723,161.523,536.723,160.563z M537.992,160.594c0,0.612,0.212,1.089,0.636,1.43
			c0.426,0.341,1.022,0.512,1.793,0.512c0.758,0,1.348-0.179,1.771-0.536c0.423-0.357,0.633-0.846,0.633-1.469
			c0-0.494-0.201-0.934-0.594-1.319c-0.398-0.385-1.091-0.758-2.077-1.121c-0.76,0.328-1.308,0.688-1.649,1.083
			C538.162,159.572,537.992,160.044,537.992,160.594z M538.352,154.791c0,0.469,0.152,0.872,0.448,1.208
			c0.304,0.337,0.856,0.673,1.665,1.009c0.727-0.305,1.241-0.634,1.545-0.988c0.303-0.351,0.454-0.761,0.454-1.231
			c0-0.515-0.185-0.924-0.553-1.228c-0.369-0.303-0.877-0.457-1.521-0.457c-0.638,0-1.138,0.154-1.499,0.458
			C538.533,153.872,538.352,154.28,538.352,154.791z"/>
	</g>
	<g>
		<path fill="#666565" d="M506.49,86.941v-1.204c0.487,0.24,1.001,0.423,1.551,0.549c0.545,0.125,1.064,0.188,1.557,0.188
			c1.932,0,2.898-0.759,2.898-2.28c0-1.36-1.069-2.042-3.208-2.042h-1.103v-1.108h1.121c0.873,0,1.565-0.192,2.079-0.578
			c0.511-0.386,0.769-0.921,0.769-1.605c0-0.546-0.188-0.976-0.562-1.287c-0.376-0.312-0.884-0.468-1.524-0.468
			c-0.491,0-0.954,0.067-1.385,0.199c-0.431,0.132-0.929,0.378-1.483,0.735l-0.641-0.858c0.459-0.355,0.989-0.633,1.587-0.836
			c0.6-0.203,1.23-0.303,1.891-0.303c1.088,0,1.93,0.248,2.525,0.741c0.595,0.493,0.896,1.171,0.896,2.032
			c0,0.717-0.202,1.303-0.601,1.758c-0.399,0.456-0.966,0.76-1.701,0.913v0.063c0.899,0.113,1.563,0.399,1.996,0.862
			c0.433,0.462,0.649,1.067,0.649,1.815c0,1.064-0.366,1.882-1.101,2.454c-0.732,0.573-1.782,0.859-3.144,0.859
			c-0.592,0-1.134-0.043-1.626-0.132C507.434,87.318,506.954,87.164,506.49,86.941z"/>
		<path fill="#666565" d="M515.891,86.574c0-0.342,0.077-0.601,0.233-0.777c0.156-0.175,0.379-0.264,0.67-0.264
			c0.298,0,0.528,0.089,0.691,0.264c0.165,0.176,0.251,0.435,0.251,0.777c0,0.331-0.084,0.586-0.255,0.765
			c-0.169,0.179-0.396,0.267-0.688,0.267c-0.258,0-0.476-0.08-0.645-0.24C515.976,87.205,515.891,86.94,515.891,86.574z"/>
		<path fill="#666565" d="M519.66,87.384v-1.08l2.945-2.971c0.897-0.911,1.488-1.562,1.774-1.95
			c0.285-0.388,0.498-0.769,0.642-1.137c0.144-0.369,0.212-0.766,0.212-1.19c0-0.6-0.178-1.074-0.541-1.424
			c-0.361-0.351-0.863-0.526-1.509-0.526c-0.462,0-0.903,0.078-1.318,0.23c-0.416,0.154-0.879,0.433-1.389,0.837l-0.674-0.867
			c1.031-0.841,2.152-1.263,3.366-1.263c1.049,0,1.873,0.267,2.47,0.803c0.596,0.535,0.895,1.254,0.895,2.157
			c0,0.711-0.198,1.415-0.594,2.112c-0.396,0.697-1.142,1.578-2.233,2.642l-2.447,2.404v0.062h5.753v1.163L519.66,87.384
			L519.66,87.384z"/>
		<path fill="#666565" d="M528.746,82.607c0-2.198,0.427-3.842,1.281-4.931c0.856-1.09,2.12-1.633,3.792-1.633
			c0.579,0,1.034,0.048,1.367,0.146v1.109c-0.396-0.148-0.846-0.222-1.352-0.222c-1.197,0-2.116,0.375-2.744,1.125
			c-0.632,0.75-0.979,1.927-1.041,3.534h0.091c0.563-0.867,1.449-1.301,2.662-1.301c1.007,0,1.803,0.303,2.387,0.909
			c0.581,0.605,0.871,1.426,0.871,2.465c0,1.16-0.319,2.073-0.956,2.736c-0.637,0.665-1.499,0.997-2.585,0.997
			c-1.157,0-2.073-0.434-2.753-1.303C529.086,85.367,528.746,84.156,528.746,82.607z M530.047,83.521
			c0,0.526,0.103,1.018,0.304,1.472c0.204,0.454,0.493,0.815,0.866,1.082c0.376,0.267,0.804,0.398,1.283,0.398
			c0.724,0,1.285-0.229,1.686-0.687c0.401-0.458,0.601-1.119,0.601-1.982c0-0.742-0.186-1.325-0.558-1.749
			c-0.373-0.425-0.928-0.636-1.665-0.636c-0.459,0-0.88,0.094-1.262,0.284c-0.385,0.189-0.688,0.449-0.913,0.782
			C530.16,82.817,530.047,83.163,530.047,83.521z"/>
	</g>
	<g>
		<path fill="#666565" d="M365.73,192.824h1.625l3.374,6.389l3.4-6.389h1.609l-4.267,7.822v4.956h-1.485v-4.886L365.73,192.824z"/>
		<path fill="#666565" d="M377.509,205.603v-12.778h1.486v11.446h5.637v1.33L377.509,205.603L377.509,205.603z"/>
		<path fill="#666565" d="M386.801,205.603v-12.778h3.916c1.985,0,3.528,0.551,4.633,1.651c1.102,1.103,1.652,2.64,1.652,4.615
			c0,2.108-0.572,3.722-1.715,4.838c-1.145,1.115-2.793,1.674-4.943,1.674H386.801z M388.288,204.317h1.807
			c1.771,0,3.102-0.436,3.994-1.307c0.892-0.872,1.337-2.161,1.337-3.867c0-1.667-0.419-2.922-1.255-3.768
			c-0.837-0.846-2.078-1.267-3.728-1.267h-2.159L388.288,204.317L388.288,204.317z"/>
	</g>
</g>
<g>
	<path fill="#666565" d="M54.432,106.189h1.625l3.375,6.389l3.4-6.389h1.608l-4.265,7.823v4.956H58.69v-4.885L54.432,106.189z"/>
	<path fill="#666565" d="M66.214,118.967v-12.778h1.484v11.45h5.638v1.329L66.214,118.967L66.214,118.967z"/>
	<path fill="#666565" d="M75.505,118.967v-12.778h1.486v11.45h5.638v1.329L75.505,118.967L75.505,118.967z"/>
</g>
<g>
	<path fill="#666565" d="M54.432,192.824h1.625l3.375,6.389l3.4-6.389h1.608l-4.265,7.822v4.956H58.69v-4.886L54.432,192.824z"/>
	<path fill="#666565" d="M66.214,205.603v-12.778h1.484v11.446h5.638v1.33L66.214,205.603L66.214,205.603z"/>
	<path fill="#666565" d="M75.505,205.603v-12.778h3.916c1.987,0,3.531,0.551,4.633,1.651c1.103,1.103,1.654,2.64,1.654,4.615
		c0,2.108-0.575,3.722-1.717,4.838c-1.145,1.115-2.792,1.674-4.943,1.674H75.505z M76.99,204.317h1.81
		c1.771,0,3.101-0.436,3.992-1.307c0.891-0.872,1.336-2.161,1.336-3.867c0-1.667-0.417-2.922-1.253-3.768
		c-0.837-0.846-2.079-1.267-3.728-1.267h-2.16L76.99,204.317L76.99,204.317z"/>
</g>
<g>
	<path fill="#666565" d="M447.094,47.007V32.109h8.305v1.549h-6.57v4.769h6.176v1.549h-6.176v5.481h6.57v1.55H447.094z"/>
	<path fill="#666565" d="M458.549,41.707v-9.598h1.731v9.736c0,1.245,0.34,2.201,1.019,2.868c0.68,0.667,1.678,1,2.995,1
		c1.259,0,2.226-0.335,2.904-1.006c0.68-0.67,1.021-1.631,1.021-2.883V32.11h1.731v9.64c0,1.699-0.516,3.033-1.539,4.005
		c-1.024,0.972-2.438,1.457-4.229,1.457s-3.183-0.489-4.162-1.468C459.038,44.764,458.549,43.42,458.549,41.707z"/>
	<path fill="#666565" d="M472.865,47.007v-1.439l3.924-3.959c1.191-1.214,1.98-2.08,2.361-2.599
		c0.383-0.518,0.664-1.023,0.855-1.514c0.188-0.491,0.284-1.02,0.284-1.586c0-0.798-0.241-1.431-0.727-1.898
		c-0.479-0.467-1.148-0.701-2.008-0.701c-0.617,0-1.203,0.103-1.758,0.307c-0.554,0.204-1.171,0.577-1.851,1.115l-0.896-1.156
		c1.373-1.122,2.866-1.683,4.483-1.683c1.396,0,2.496,0.357,3.291,1.07c0.795,0.713,1.189,1.671,1.189,2.875
		c0,0.948-0.267,1.886-0.795,2.814c-0.527,0.928-1.521,2.102-2.978,3.521l-3.262,3.203v0.082h7.662v1.549h-9.789v-0.002
		L472.865,47.007L472.865,47.007z"/>
	<path fill="#666565" d="M484.84,43.205c0-1.704,1.045-3.032,3.137-3.983c-0.947-0.53-1.627-1.103-2.039-1.717
		c-0.412-0.614-0.619-1.303-0.619-2.063c0-1.08,0.402-1.941,1.205-2.583c0.805-0.642,1.877-0.963,3.227-0.963
		c1.359,0,2.439,0.316,3.24,0.948c0.799,0.632,1.193,1.505,1.193,2.619c0,0.733-0.229,1.403-0.688,2.007
		c-0.457,0.605-1.188,1.155-2.192,1.651c1.215,0.579,2.08,1.184,2.592,1.819c0.516,0.635,0.771,1.371,0.771,2.206
		c0,1.237-0.436,2.224-1.299,2.96c-0.865,0.737-2.055,1.104-3.561,1.104c-1.595,0-2.82-0.348-3.681-1.044
		C485.268,45.47,484.84,44.484,484.84,43.205z M486.531,43.246c0,0.815,0.279,1.451,0.851,1.906c0.567,0.455,1.36,0.684,2.385,0.684
		c1.012,0,1.799-0.238,2.36-0.713c0.563-0.477,0.845-1.127,0.845-1.957c0-0.659-0.265-1.245-0.793-1.758
		c-0.529-0.514-1.451-1.011-2.769-1.494c-1.014,0.436-1.742,0.916-2.196,1.442C486.759,41.882,486.531,42.512,486.531,43.246z
		 M487.01,35.512c0,0.625,0.198,1.162,0.6,1.61c0.4,0.449,1.143,0.897,2.221,1.345c0.97-0.407,1.652-0.846,2.06-1.314
		c0.403-0.468,0.604-1.016,0.604-1.641c0-0.686-0.246-1.231-0.735-1.635c-0.492-0.404-1.17-0.605-2.029-0.605
		c-0.848,0-1.514,0.204-1.994,0.611C487.251,34.288,487.01,34.832,487.01,35.512z"/>
	<path fill="#666565" d="M502.305,41.513c0-1.8,0.44-3.23,1.325-4.29c0.884-1.06,2.07-1.589,3.562-1.589
		c1.396,0,2.498,0.46,3.313,1.38c0.813,0.921,1.22,2.135,1.22,3.644v1.069h-7.685c0.031,1.312,0.363,2.306,0.996,2.985
		c0.629,0.68,1.517,1.019,2.656,1.019c1.197,0,2.387-0.251,3.559-0.754v1.509c-0.6,0.258-1.159,0.442-1.69,0.555
		c-0.533,0.111-1.174,0.168-1.926,0.168c-1.646,0-2.945-0.502-3.898-1.508C502.783,44.695,502.305,43.302,502.305,41.513z
		 M504.078,40.352h5.851c0-1.066-0.238-1.883-0.715-2.451c-0.479-0.567-1.156-0.851-2.041-0.851c-0.898,0-1.615,0.292-2.148,0.876
		C504.485,38.512,504.174,39.32,504.078,40.352z"/>
	<path fill="#666565" d="M513.921,38.582c0-0.911,0.371-1.63,1.109-2.158c0.738-0.527,1.754-0.791,3.045-0.791
		c1.191,0,2.359,0.244,3.504,0.733l-0.59,1.377c-1.117-0.463-2.133-0.695-3.037-0.695c-0.807,0-1.41,0.126-1.817,0.378
		c-0.408,0.251-0.613,0.599-0.613,1.042c0,0.3,0.078,0.555,0.229,0.766c0.152,0.211,0.396,0.412,0.74,0.603
		c0.34,0.191,0.994,0.467,1.961,0.828c1.324,0.482,2.215,0.97,2.672,1.46c0.457,0.489,0.687,1.104,0.687,1.849
		c0,1.034-0.388,1.832-1.152,2.393c-0.771,0.562-1.854,0.842-3.244,0.842c-1.479,0-2.631-0.23-3.459-0.693v-1.559
		c0.537,0.271,1.107,0.486,1.726,0.644c0.612,0.157,1.205,0.235,1.774,0.235c0.886,0,1.563-0.141,2.043-0.424
		c0.478-0.283,0.716-0.713,0.716-1.293c0-0.436-0.189-0.809-0.566-1.118c-0.379-0.31-1.113-0.677-2.211-1.099
		c-1.043-0.388-1.779-0.727-2.217-1.017c-0.439-0.29-0.763-0.618-0.976-0.985C514.026,39.533,513.921,39.094,513.921,38.582z"/>
	<path fill="#666565" d="M523.11,37.153v-0.815l1.604-0.703l0.713-2.385h0.979v2.588h3.236v1.314h-3.236v6.588
		c0,0.674,0.156,1.19,0.479,1.552c0.317,0.36,0.758,0.542,1.313,0.542c0.299,0,0.588-0.022,0.863-0.066
		c0.279-0.044,0.5-0.09,0.662-0.138v1.278c-0.185,0.086-0.453,0.158-0.812,0.215c-0.354,0.058-0.68,0.086-0.963,0.086
		c-2.16,0-3.24-1.139-3.24-3.414v-6.644h-1.604L523.11,37.153L523.11,37.153z"/>
	<path fill="#666565" d="M531.814,32.811c0-0.387,0.088-0.671,0.266-0.851c0.176-0.18,0.396-0.27,0.656-0.27
		c0.295,0,0.547,0.092,0.76,0.275c0.213,0.184,0.316,0.466,0.316,0.846c0,0.38-0.104,0.664-0.316,0.851s-0.465,0.28-0.76,0.28
		c-0.264,0-0.48-0.093-0.656-0.28C531.902,33.475,531.814,33.193,531.814,32.811z M531.959,47.007V35.839h1.55v11.168H531.959z"/>
	<path fill="#666565" d="M537.236,47.007V35.839h1.375l0.275,1.509h0.08c0.319-0.537,0.771-0.957,1.352-1.259
		c0.58-0.302,1.23-0.453,1.951-0.453c1.746,0,2.891,0.625,3.424,1.876h0.082c0.332-0.579,0.814-1.036,1.447-1.372
		c0.631-0.336,1.354-0.504,2.16-0.504c1.264,0,2.209,0.324,2.838,0.973c0.627,0.648,0.94,1.687,0.94,3.113v7.286h-1.69v-7.281
		c0-0.892-0.188-1.561-0.57-2.006c-0.381-0.446-0.971-0.669-1.771-0.669c-1.053,0-1.831,0.303-2.334,0.909
		c-0.504,0.605-0.754,1.538-0.754,2.798v6.249h-1.69v-7.281c0-0.892-0.188-1.561-0.57-2.006c-0.381-0.446-0.977-0.669-1.781-0.669
		c-1.063,0-1.836,0.318-2.328,0.955c-0.491,0.637-0.737,1.68-0.737,3.13v5.871L537.236,47.007L537.236,47.007z"/>
	<path fill="#666565" d="M555.812,43.93c0-2.25,1.809-3.429,5.418-3.537l1.898-0.062v-0.702c0-0.887-0.189-1.542-0.564-1.965
		c-0.377-0.423-0.979-0.634-1.807-0.634c-0.929,0-1.979,0.289-3.152,0.866l-0.523-1.298c0.552-0.294,1.15-0.525,1.81-0.692
		c0.656-0.167,1.313-0.251,1.973-0.251c1.33,0,2.316,0.295,2.957,0.887c0.646,0.591,0.965,1.539,0.965,2.843v7.623h-1.256
		l-0.336-1.571h-0.082c-0.557,0.693-1.106,1.162-1.66,1.407c-0.557,0.246-1.241,0.368-2.069,0.368c-1.113,0-1.984-0.284-2.615-0.853
		C556.13,45.789,555.812,44.979,555.812,43.93z M557.605,43.951c0,0.615,0.188,1.082,0.557,1.402
		c0.369,0.321,0.888,0.481,1.551,0.481c1.054,0,1.878-0.29,2.478-0.87c0.604-0.581,0.9-1.393,0.9-2.438v-1.014l-1.688,0.071
		c-1.344,0.048-2.311,0.258-2.9,0.63C557.902,42.588,557.605,43.166,557.605,43.951z"/>
	<path fill="#666565" d="M566.775,37.153v-0.815l1.604-0.703l0.714-2.385h0.979v2.588h3.236v1.314h-3.236v6.588
		c0,0.674,0.156,1.19,0.479,1.552c0.317,0.36,0.758,0.542,1.313,0.542c0.299,0,0.588-0.022,0.863-0.066
		c0.279-0.044,0.5-0.09,0.662-0.138v1.278c-0.185,0.086-0.453,0.158-0.812,0.215c-0.354,0.058-0.68,0.086-0.963,0.086
		c-2.16,0-3.24-1.139-3.24-3.414v-6.644h-1.604L566.775,37.153L566.775,37.153z"/>
	<path fill="#666565" d="M575.002,41.513c0-1.8,0.438-3.23,1.326-4.29c0.883-1.06,2.066-1.589,3.562-1.589
		c1.396,0,2.498,0.46,3.313,1.38c0.813,0.921,1.219,2.135,1.219,3.644v1.069h-7.686c0.033,1.312,0.365,2.306,0.994,2.985
		c0.631,0.68,1.52,1.019,2.66,1.019c1.196,0,2.383-0.251,3.555-0.754v1.509c-0.596,0.258-1.156,0.442-1.688,0.555
		c-0.533,0.111-1.175,0.168-1.927,0.168c-1.646,0-2.944-0.502-3.897-1.508C575.482,44.695,575.002,43.302,575.002,41.513z
		 M576.773,40.352h5.852c0-1.066-0.237-1.883-0.715-2.451c-0.479-0.567-1.156-0.851-2.041-0.851c-0.897,0-1.613,0.292-2.147,0.876
		C577.185,38.512,576.869,39.32,576.773,40.352z"/>
	<path fill="#666565" d="M586.618,38.582c0-0.911,0.371-1.63,1.107-2.158c0.74-0.527,1.754-0.791,3.043-0.791
		c1.195,0,2.363,0.244,3.504,0.733l-0.59,1.377c-1.117-0.463-2.129-0.695-3.037-0.695c-0.803,0-1.406,0.126-1.814,0.378
		c-0.407,0.251-0.612,0.599-0.612,1.042c0,0.3,0.078,0.555,0.229,0.766c0.15,0.211,0.396,0.412,0.738,0.603
		c0.34,0.191,0.994,0.467,1.961,0.828c1.324,0.482,2.217,0.97,2.674,1.46c0.453,0.489,0.687,1.104,0.687,1.849
		c0,1.034-0.388,1.832-1.156,2.393c-0.771,0.562-1.853,0.842-3.242,0.842c-1.479,0-2.631-0.23-3.459-0.693v-1.559
		c0.535,0.271,1.109,0.486,1.727,0.644c0.611,0.157,1.205,0.235,1.773,0.235c0.887,0,1.564-0.141,2.041-0.424
		c0.479-0.283,0.719-0.713,0.719-1.293c0-0.436-0.188-0.809-0.565-1.118c-0.379-0.31-1.115-0.677-2.211-1.099
		c-1.043-0.388-1.781-0.727-2.218-1.017c-0.438-0.29-0.764-0.618-0.977-0.985C586.724,39.533,586.618,39.094,586.618,38.582z"/>
</g>
<g>
	<path fill="#666565" d="M124.846,39.725c0-1.549,0.312-2.906,0.933-4.071s1.52-2.055,2.688-2.67
		c1.168-0.615,2.535-0.922,4.104-0.922c1.59,0,3.069,0.292,4.442,0.876l-0.672,1.529c-1.348-0.571-2.643-0.856-3.886-0.856
		c-1.813,0-3.229,0.54-4.249,1.62c-1.019,1.08-1.526,2.578-1.526,4.494c0,2.019,0.491,3.548,1.474,4.591
		c0.981,1.043,2.423,1.564,4.326,1.564c1.032,0,2.042-0.121,3.025-0.359v-4.603h-3.332v-1.549h5.063v7.256
		c-0.788,0.248-1.59,0.436-2.405,0.563c-0.813,0.127-1.76,0.191-2.833,0.191c-2.255,0-4.012-0.67-5.268-2.012
		C125.474,44.023,124.846,42.144,124.846,39.725z"/>
	<path fill="#666565" d="M140.56,47.174V31.318h1.688v15.855L140.56,47.174L140.56,47.174z"/>
	<path fill="#666565" d="M145.217,41.57c0-1.817,0.454-3.233,1.358-4.247c0.908-1.014,2.167-1.521,3.78-1.521
		c1.558,0,2.795,0.519,3.713,1.556c0.917,1.038,1.376,2.441,1.376,4.212c0,1.822-0.457,3.248-1.372,4.271s-2.179,1.535-3.79,1.535
		c-0.996,0-1.88-0.234-2.649-0.703c-0.771-0.471-1.368-1.145-1.788-2.021S145.217,42.748,145.217,41.57z M146.948,41.57
		c0,1.43,0.286,2.52,0.856,3.27c0.572,0.748,1.412,1.123,2.521,1.123c1.108,0,1.951-0.373,2.525-1.119
		c0.575-0.746,0.862-1.836,0.862-3.271c0-1.424-0.288-2.505-0.862-3.244c-0.573-0.739-1.424-1.108-2.546-1.108
		c-1.108,0-1.945,0.364-2.51,1.093C147.231,39.04,146.948,40.125,146.948,41.57z"/>
	<path fill="#666565" d="M158.444,47.174V31.318h1.69v3.852c0,0.863-0.026,1.637-0.082,2.323h0.082
		c0.788-1.114,1.957-1.671,3.506-1.671c1.46,0,2.596,0.501,3.4,1.503c0.812,1.002,1.215,2.42,1.215,4.255
		c0,1.834-0.407,3.258-1.225,4.273c-0.813,1.016-1.943,1.523-3.395,1.523c-0.729,0-1.394-0.135-1.992-0.402
		c-0.603-0.268-1.105-0.682-1.514-1.238h-0.119l-0.355,1.438H158.444L158.444,47.174z M160.135,41.58
		c0,1.568,0.263,2.691,0.785,3.369c0.521,0.676,1.359,1.014,2.517,1.014c1.04,0,1.813-0.379,2.323-1.137s0.766-1.846,0.766-3.266
		c0-1.455-0.256-2.539-0.766-3.251c-0.512-0.713-1.297-1.07-2.363-1.07c-1.155,0-1.987,0.331-2.497,0.994
		C160.39,38.894,160.135,40.011,160.135,41.58z"/>
	<path fill="#666565" d="M170.397,44.097c0-2.25,1.806-3.428,5.418-3.537l1.897-0.061v-0.703c0-0.887-0.188-1.542-0.563-1.965
		c-0.376-0.423-0.979-0.634-1.807-0.634c-0.932,0-1.979,0.289-3.152,0.866l-0.526-1.298c0.553-0.294,1.153-0.525,1.812-0.692
		c0.659-0.167,1.313-0.251,1.973-0.251c1.33,0,2.314,0.295,2.957,0.887c0.642,0.591,0.962,1.539,0.962,2.843v7.623h-1.253
		l-0.336-1.572h-0.082c-0.557,0.693-1.11,1.162-1.663,1.408c-0.552,0.246-1.242,0.367-2.069,0.367c-1.11,0-1.981-0.283-2.614-0.852
		C170.712,45.957,170.397,45.146,170.397,44.097z M172.19,44.119c0,0.615,0.185,1.082,0.554,1.402c0.37,0.32,0.89,0.48,1.554,0.48
		c1.051,0,1.876-0.289,2.478-0.869c0.6-0.582,0.899-1.393,0.899-2.438V41.68l-1.688,0.07c-1.344,0.049-2.312,0.258-2.904,0.631
		C172.489,42.754,172.19,43.333,172.19,44.119z"/>
	<path fill="#666565" d="M182.839,47.174V31.318h1.688v15.855L182.839,47.174L182.839,47.174z"/>
	<path fill="#666565" d="M192.916,41.681c0-1.8,0.442-3.23,1.326-4.291s2.071-1.589,3.563-1.589c1.396,0,2.498,0.46,3.312,1.38
		c0.813,0.921,1.22,2.135,1.22,3.644v1.068h-7.685c0.033,1.313,0.365,2.307,0.995,2.986c0.629,0.679,1.516,1.018,2.658,1.018
		c1.199,0,2.385-0.25,3.557-0.754v1.51c-0.597,0.258-1.16,0.441-1.691,0.555c-0.53,0.111-1.174,0.168-1.926,0.168
		c-1.646,0-2.943-0.502-3.896-1.508C193.393,44.865,192.916,43.469,192.916,41.681z M194.69,40.519h5.849
		c0-1.065-0.235-1.882-0.714-2.45c-0.478-0.567-1.157-0.851-2.042-0.851c-0.896,0-1.615,0.292-2.146,0.876
		C195.1,38.679,194.784,39.487,194.69,40.519z"/>
	<path fill="#666565" d="M204.533,38.75c0-0.911,0.37-1.63,1.108-2.158c0.74-0.527,1.754-0.791,3.044-0.791
		c1.195,0,2.363,0.244,3.505,0.733l-0.591,1.377c-1.116-0.463-2.13-0.695-3.036-0.695c-0.804,0-1.409,0.126-1.818,0.378
		c-0.405,0.251-0.609,0.599-0.609,1.042c0,0.3,0.076,0.555,0.229,0.766c0.152,0.211,0.399,0.412,0.741,0.603
		c0.34,0.191,0.993,0.467,1.96,0.829c1.323,0.482,2.215,0.969,2.671,1.459c0.457,0.49,0.688,1.104,0.688,1.85
		c0,1.033-0.388,1.832-1.154,2.393c-0.771,0.561-1.854,0.842-3.243,0.842c-1.479,0-2.631-0.229-3.458-0.693v-1.559
		c0.536,0.271,1.109,0.486,1.724,0.643c0.614,0.158,1.206,0.236,1.775,0.236c0.885,0,1.564-0.141,2.042-0.424
		c0.478-0.283,0.715-0.713,0.715-1.293c0-0.436-0.188-0.809-0.564-1.119c-0.379-0.309-1.114-0.676-2.212-1.098
		c-1.042-0.389-1.78-0.727-2.219-1.018c-0.437-0.289-0.76-0.617-0.974-0.985C204.64,39.7,204.533,39.261,204.533,38.75z"/>
	<path fill="#666565" d="M213.725,37.32v-0.815l1.601-0.703l0.713-2.385h0.979v2.588h3.24v1.314h-3.24v6.589
		c0,0.674,0.16,1.189,0.479,1.551c0.319,0.361,0.76,0.543,1.313,0.543c0.3,0,0.588-0.023,0.866-0.066
		c0.275-0.045,0.499-0.09,0.662-0.139v1.279c-0.186,0.086-0.453,0.158-0.813,0.215c-0.354,0.057-0.679,0.086-0.964,0.086
		c-2.159,0-3.24-1.139-3.24-3.414v-6.645h-1.6L213.725,37.32L213.725,37.32z"/>
	<path fill="#666565" d="M222.428,32.979c0-0.387,0.087-0.671,0.264-0.851c0.175-0.18,0.395-0.27,0.657-0.27
		c0.293,0,0.545,0.092,0.759,0.275c0.212,0.184,0.317,0.466,0.317,0.846c0,0.38-0.105,0.664-0.317,0.851
		c-0.213,0.187-0.466,0.28-0.759,0.28c-0.266,0-0.481-0.093-0.657-0.28C222.515,33.643,222.428,33.36,222.428,32.979z
		 M222.571,47.174V36.006h1.549v11.167L222.571,47.174L222.571,47.174z"/>
	<path fill="#666565" d="M227.849,47.174V36.006h1.375l0.272,1.509h0.082c0.319-0.537,0.771-0.957,1.353-1.259
		c0.581-0.302,1.229-0.453,1.952-0.453c1.746,0,2.887,0.625,3.424,1.876h0.082c0.333-0.579,0.813-1.036,1.444-1.372
		c0.635-0.336,1.354-0.504,2.161-0.504c1.266,0,2.209,0.324,2.838,0.973c0.631,0.648,0.942,1.687,0.942,3.113v7.287h-1.691v-7.282
		c0-0.892-0.188-1.561-0.568-2.006s-0.975-0.669-1.772-0.669c-1.053,0-1.831,0.303-2.333,0.909
		c-0.503,0.605-0.754,1.538-0.754,2.797v6.25h-1.688v-7.282c0-0.892-0.189-1.561-0.57-2.006c-0.382-0.445-0.979-0.669-1.783-0.669
		c-1.061,0-1.836,0.318-2.329,0.955c-0.492,0.637-0.738,1.68-0.738,3.13v5.871H227.849L227.849,47.174z"/>
	<path fill="#666565" d="M246.426,44.097c0-2.25,1.807-3.428,5.418-3.537l1.896-0.061v-0.703c0-0.887-0.188-1.542-0.563-1.965
		c-0.376-0.423-0.979-0.634-1.809-0.634c-0.929,0-1.979,0.289-3.15,0.866l-0.525-1.298c0.55-0.294,1.152-0.525,1.809-0.692
		s1.313-0.251,1.975-0.251c1.33,0,2.313,0.295,2.957,0.887c0.642,0.591,0.963,1.539,0.963,2.843v7.623h-1.254l-0.336-1.572h-0.082
		c-0.559,0.693-1.109,1.162-1.662,1.408s-1.242,0.367-2.07,0.367c-1.11,0-1.981-0.283-2.616-0.852
		C246.741,45.957,246.426,45.146,246.426,44.097z M248.22,44.119c0,0.615,0.186,1.082,0.555,1.402c0.369,0.32,0.887,0.48,1.551,0.48
		c1.051,0,1.876-0.289,2.479-0.869c0.601-0.582,0.897-1.393,0.897-2.438V41.68l-1.688,0.07c-1.343,0.049-2.313,0.258-2.903,0.631
		S248.22,43.333,248.22,44.119z"/>
	<path fill="#666565" d="M257.39,37.32v-0.815l1.601-0.703l0.713-2.385h0.979v2.588h3.24v1.314h-3.24v6.589
		c0,0.674,0.16,1.189,0.479,1.551c0.319,0.361,0.757,0.543,1.313,0.543c0.3,0,0.588-0.023,0.866-0.066
		c0.275-0.045,0.499-0.09,0.662-0.139v1.279c-0.186,0.086-0.453,0.158-0.813,0.215c-0.354,0.057-0.679,0.086-0.964,0.086
		c-2.159,0-3.24-1.139-3.24-3.414v-6.645h-1.6L257.39,37.32L257.39,37.32z"/>
	<path fill="#666565" d="M265.614,41.681c0-1.8,0.441-3.23,1.326-4.291c0.884-1.061,2.07-1.589,3.561-1.589
		c1.396,0,2.498,0.46,3.313,1.38c0.813,0.921,1.22,2.135,1.22,3.644v1.068h-7.685c0.034,1.313,0.366,2.307,0.995,2.986
		c0.629,0.679,1.517,1.018,2.656,1.018c1.199,0,2.387-0.25,3.559-0.754v1.51c-0.599,0.258-1.159,0.441-1.691,0.555
		c-0.532,0.111-1.173,0.168-1.925,0.168c-1.646,0-2.946-0.502-3.898-1.508C266.09,44.865,265.614,43.469,265.614,41.681z
		 M267.387,40.519h5.85c0-1.065-0.238-1.882-0.714-2.45c-0.479-0.567-1.157-0.851-2.042-0.851c-0.898,0-1.615,0.292-2.149,0.876
		C267.797,38.679,267.482,39.487,267.387,40.519z"/>
	<path fill="#666565" d="M277.231,38.75c0-0.911,0.369-1.63,1.108-2.158c0.737-0.527,1.754-0.791,3.044-0.791
		c1.192,0,2.36,0.244,3.504,0.733l-0.59,1.377c-1.117-0.463-2.133-0.695-3.037-0.695c-0.806,0-1.409,0.126-1.817,0.378
		c-0.408,0.251-0.612,0.599-0.612,1.042c0,0.3,0.077,0.555,0.229,0.766c0.153,0.211,0.397,0.412,0.741,0.603
		c0.34,0.191,0.994,0.467,1.96,0.829c1.321,0.482,2.215,0.969,2.671,1.459c0.457,0.49,0.686,1.104,0.686,1.85
		c0,1.033-0.385,1.832-1.152,2.393c-0.771,0.561-1.854,0.842-3.243,0.842c-1.479,0-2.631-0.229-3.458-0.693v-1.559
		c0.536,0.271,1.107,0.486,1.725,0.643c0.613,0.158,1.206,0.236,1.774,0.236c0.886,0,1.563-0.141,2.042-0.424
		c0.478-0.283,0.715-0.713,0.715-1.293c0-0.436-0.188-0.809-0.566-1.119c-0.378-0.309-1.113-0.676-2.211-1.098
		c-1.042-0.389-1.781-0.727-2.217-1.018c-0.437-0.289-0.761-0.617-0.975-0.985C277.337,39.7,277.231,39.261,277.231,38.75z"/>
</g>
</svg>
