<?xml version="1.0" encoding="utf-8"?>
<!-- Generator: Adobe Illustrator 16.0.0, SVG Export Plug-In . SVG Version: 6.00 Build 0)  -->
<!DOCTYPE svg PUBLIC "-//W3C//DTD SVG 1.1//EN" "http://www.w3.org/Graphics/SVG/1.1/DTD/svg11.dtd">
<svg version="1.1" id="Capa_1" xmlns="http://www.w3.org/2000/svg" xmlns:xlink="http://www.w3.org/1999/xlink" x="0px" y="0px"
	 width="510.236px" height="382.676px" viewBox="0 0 510.236 382.676" enable-background="new 0 0 510.236 382.676"
	 xml:space="preserve">
<g>
	<g id="global-estimates">
		<g>
			<rect x="110.315" y="199.791" fill="#449FA2" width="100.491" height="122.966"/>
			<rect x="110.315" y="74.725" fill="#F2C466" width="100.491" height="125.063"/>
		</g>
		<g>
			<path fill="#9A999E" d="M21.732,79.989V78.79l3.271-3.299c0.99-1.012,1.647-1.734,1.97-2.166
				c0.313-0.432,0.559-0.853,0.713-1.262c0.159-0.409,0.238-0.85,0.238-1.321c0-0.665-0.201-1.192-0.604-1.582
				c-0.403-0.39-0.96-0.584-1.677-0.584c-0.517,0-1.004,0.085-1.465,0.256c-0.462,0.17-0.979,0.48-1.542,0.93l-0.743-0.964
				c1.146-0.935,2.393-1.402,3.736-1.402c1.166,0,2.08,0.297,2.737,0.891c0.663,0.594,0.994,1.393,0.994,2.396
				c0,0.79-0.225,1.572-0.663,2.345c-0.438,0.773-1.271,1.751-2.479,2.934l-2.717,2.669v0.068h6.386v1.291h-8.16L21.732,79.989
				L21.732,79.989z"/>
			<path fill="#9A999E" d="M36.304,79.989V78.79l3.271-3.299c0.996-1.012,1.649-1.734,1.976-2.166
				c0.313-0.432,0.555-0.853,0.713-1.262c0.153-0.409,0.232-0.85,0.232-1.321c0-0.665-0.195-1.192-0.604-1.582
				c-0.398-0.39-0.96-0.584-1.673-0.584c-0.521,0-1.004,0.085-1.465,0.256c-0.468,0.17-0.979,0.48-1.542,0.93l-0.747-0.964
				c1.146-0.935,2.389-1.402,3.73-1.402c1.166,0,2.081,0.297,2.743,0.891c0.663,0.594,0.99,1.393,0.99,2.396
				c0,0.79-0.223,1.572-0.659,2.345c-0.441,0.773-1.271,1.751-2.479,2.934l-2.72,2.669v0.068h6.392v1.291h-8.16L36.304,79.989
				L36.304,79.989z"/>
			<path fill="#9A999E" d="M46.265,73.761c0-2.161,0.338-3.765,1.018-4.813c0.676-1.046,1.707-1.57,3.092-1.57
				c1.352,0,2.368,0.546,3.063,1.638c0.699,1.092,1.052,2.673,1.052,4.744c0,2.146-0.342,3.75-1.018,4.81s-1.709,1.589-3.104,1.589
				c-1.34,0-2.354-0.542-3.062-1.627C46.614,77.446,46.265,75.856,46.265,73.761z M47.708,73.761c0,1.802,0.218,3.113,0.642,3.935
				c0.424,0.822,1.103,1.232,2.021,1.232c0.938,0,1.618-0.417,2.039-1.25s0.632-2.139,0.632-3.918c0-1.778-0.21-3.082-0.632-3.909
				c-0.421-0.827-1.104-1.241-2.039-1.241c-0.927,0-1.604,0.408-2.021,1.224C47.922,70.65,47.708,71.959,47.708,73.761z"/>
			<path fill="#9A999E" d="M56.338,74.687c0-2.441,0.474-4.267,1.422-5.476c0.942-1.209,2.354-1.814,4.208-1.814
				c0.646,0,1.146,0.054,1.521,0.161v1.231c-0.438-0.164-0.938-0.247-1.5-0.247c-1.331,0-2.351,0.417-3.052,1.249
				c-0.698,0.833-1.087,2.141-1.151,3.924h0.104c0.623-0.963,1.604-1.445,2.955-1.445c1.121,0,2.003,0.336,2.646,1.008
				c0.646,0.672,0.969,1.584,0.969,2.736c0,1.288-0.354,2.301-1.063,3.039c-0.708,0.738-1.665,1.106-2.866,1.106
				c-1.285,0-2.308-0.482-3.061-1.447C56.715,77.747,56.338,76.405,56.338,74.687z M57.779,75.7c0,0.585,0.109,1.13,0.34,1.636
				c0.229,0.506,0.548,0.906,0.964,1.201s0.892,0.442,1.424,0.442c0.804,0,1.428-0.254,1.873-0.762
				c0.438-0.508,0.667-1.242,0.667-2.202c0-0.823-0.207-1.471-0.62-1.942c-0.413-0.472-1.03-0.707-1.854-0.707
				c-0.509,0-0.979,0.105-1.396,0.315s-0.769,0.5-1.021,0.869C57.905,74.918,57.779,75.303,57.779,75.7z"/>
			<g>
				<path fill="#9A999E" d="M31.399,82.636c0.141-0.542,0.295-1.211,0.465-2.008c0.169-0.797,0.288-1.435,0.354-1.914h1.415
					l0.111,0.18c-0.135,0.521-0.323,1.126-0.583,1.816c-0.254,0.69-0.518,1.332-0.793,1.926H31.399z"/>
			</g>
		</g>
		<g>
			<path fill="#9A999E" d="M56.208,316.526c0-2.16,0.344-3.766,1.02-4.813c0.68-1.047,1.707-1.569,3.096-1.569
				c1.348,0,2.364,0.546,3.063,1.638c0.693,1.094,1.048,2.674,1.048,4.744c0,2.146-0.338,3.75-1.02,4.811
				c-0.676,1.063-1.709,1.595-3.104,1.595c-1.34,0-2.356-0.544-3.058-1.628C56.558,320.211,56.208,318.624,56.208,316.526z
				 M57.652,316.526c0,1.803,0.212,3.113,0.636,3.936c0.43,0.822,1.104,1.231,2.026,1.231c0.938,0,1.614-0.417,2.035-1.25
				c0.425-0.833,0.636-2.14,0.636-3.918c0-1.776-0.21-3.082-0.636-3.907c-0.421-0.828-1.104-1.242-2.035-1.242
				s-1.604,0.408-2.026,1.229C57.864,313.417,57.652,314.726,57.652,316.526z"/>
		</g>
		<g>
			<path fill="#FFFFFF" d="M142.384,261.272h-3.146v-8.621l0.027-1.417l0.055-1.549c-0.521,0.522-0.891,0.866-1.094,1.028
				l-1.712,1.375l-1.521-1.896l4.806-3.818h2.588L142.384,261.272L142.384,261.272z"/>
			<path fill="#FFFFFF" d="M160.245,261.272h-3.146v-8.621l0.031-1.417l0.051-1.549c-0.521,0.522-0.893,0.866-1.09,1.028
				l-1.712,1.375l-1.521-1.896l4.8-3.818h2.588L160.245,261.272L160.245,261.272z"/>
			<path fill="#FFFFFF" d="M174.706,253.823c0,2.604-0.427,4.528-1.274,5.778c-0.854,1.25-2.166,1.875-3.938,1.875
				c-1.724,0-3.02-0.646-3.893-1.937s-1.313-3.195-1.313-5.726c0-2.629,0.43-4.563,1.271-5.813c0.853-1.244,2.156-1.867,3.926-1.867
				c1.72,0,3.021,0.646,3.896,1.955C174.266,249.4,174.706,251.311,174.706,253.823z M167.421,253.823
				c0,1.828,0.152,3.139,0.474,3.93c0.313,0.793,0.852,1.188,1.6,1.188c0.729,0,1.269-0.397,1.589-1.203
				c0.325-0.801,0.488-2.104,0.488-3.913c0-1.824-0.165-3.14-0.493-3.938c-0.33-0.801-0.854-1.197-1.584-1.197
				c-0.736,0-1.271,0.396-1.591,1.197C167.58,250.684,167.421,251.997,167.421,253.823z"/>
			<path fill="#FFFFFF" d="M186.699,261.272h-10.415v-2.189l3.74-3.773c1.104-1.143,1.831-1.926,2.171-2.357
				c0.339-0.438,0.584-0.846,0.729-1.22c0.145-0.374,0.228-0.769,0.228-1.162c0-0.604-0.165-1.042-0.494-1.335
				c-0.329-0.292-0.771-0.438-1.313-0.438c-0.578,0-1.143,0.135-1.688,0.396c-0.543,0.271-1.105,0.646-1.701,1.132l-1.713-2.021
				c0.729-0.625,1.347-1.064,1.824-1.325c0.479-0.259,1.01-0.456,1.58-0.597c0.567-0.146,1.209-0.209,1.916-0.209
				c0.932,0,1.752,0.17,2.466,0.511c0.714,0.342,1.271,0.813,1.661,1.429c0.396,0.609,0.591,1.313,0.591,2.1
				c0,0.688-0.12,1.33-0.355,1.938c-0.242,0.604-0.615,1.221-1.121,1.854c-0.506,0.635-1.396,1.529-2.676,2.699l-1.915,1.809v0.146
				h6.485V261.272L186.699,261.272z"/>
			<g>
				<path fill="#FFFFFF" d="M147.358,263.54c0.141-0.543,0.295-1.211,0.465-2.008c0.169-0.798,0.288-1.438,0.354-1.914h1.415
					l0.116,0.18c-0.14,0.521-0.328,1.134-0.583,1.815c-0.259,0.688-0.521,1.332-0.798,1.927H147.358z"/>
			</g>
		</g>
		<g>
			<path fill="#FFFFFF" d="M142.384,145.506h-3.146v-8.621l0.027-1.417l0.055-1.549c-0.521,0.523-0.891,0.866-1.094,1.029
				l-1.712,1.375l-1.521-1.896l4.806-3.821h2.588L142.384,145.506L142.384,145.506z"/>
			<path fill="#FFFFFF" d="M160.245,145.506h-3.146v-8.621l0.031-1.417l0.051-1.549c-0.521,0.523-0.893,0.866-1.09,1.029
				l-1.712,1.375l-1.521-1.896l4.8-3.821h2.588L160.245,145.506L160.245,145.506z"/>
			<path fill="#FFFFFF" d="M174.706,138.058c0,2.602-0.427,4.528-1.274,5.778c-0.854,1.25-2.166,1.875-3.938,1.875
				c-1.724,0-3.02-0.645-3.893-1.936s-1.313-3.196-1.313-5.717c0-2.629,0.43-4.567,1.271-5.813c0.853-1.246,2.156-1.87,3.926-1.87
				c1.72,0,3.021,0.652,3.896,1.957C174.266,133.636,174.706,135.544,174.706,138.058z M167.421,138.058
				c0,1.828,0.152,3.137,0.474,3.929c0.313,0.792,0.852,1.187,1.6,1.187c0.729,0,1.269-0.401,1.589-1.203
				c0.325-0.801,0.488-2.105,0.488-3.913c0-1.827-0.165-3.14-0.493-3.938c-0.33-0.798-0.854-1.197-1.584-1.197
				c-0.736,0-1.271,0.399-1.591,1.197C167.58,134.917,167.421,136.23,167.421,138.058z"/>
			<path fill="#FFFFFF" d="M187.036,142.419h-1.793v3.087h-3.078v-3.087h-6.354v-2.191l6.532-9.62h2.898v9.365h1.793
				L187.036,142.419L187.036,142.419z M182.165,139.974v-2.527c0-0.421,0.021-1.033,0.056-1.834
				c0.029-0.802,0.063-1.267,0.082-1.396h-0.082c-0.251,0.557-0.559,1.101-0.907,1.631l-2.729,4.127L182.165,139.974
				L182.165,139.974z"/>
			<g>
				<path fill="#FFFFFF" d="M147.358,147.568c0.141-0.542,0.295-1.211,0.465-2.008c0.169-0.797,0.288-1.435,0.354-1.914h1.415
					l0.116,0.18c-0.14,0.521-0.328,1.126-0.583,1.816c-0.259,0.69-0.521,1.332-0.798,1.926H147.358z"/>
			</g>
		</g>
		<g>
			<path fill="#87868A" d="M48.843,215.43H33.944v-4.208c0-1.979,0.295-3.407,0.885-4.29c0.597-0.886,1.521-1.325,2.805-1.325
				c0.883,0,1.605,0.246,2.186,0.739c0.573,0.491,0.945,1.211,1.115,2.153h0.104c0.394-2.248,1.578-3.373,3.567-3.373
				c1.332,0,2.371,0.449,3.118,1.35c0.748,0.896,1.121,2.152,1.121,3.771L48.843,215.43L48.843,215.43z M40.312,213.698v-2.854
				c0-1.225-0.188-2.104-0.57-2.641c-0.387-0.537-1.022-0.813-1.938-0.813c-0.834,0-1.438,0.299-1.811,0.896
				c-0.363,0.599-0.555,1.551-0.555,2.854v2.547L40.312,213.698L40.312,213.698z M47.363,213.698v-3.106
				c0-1.194-0.229-2.104-0.698-2.715c-0.465-0.604-1.188-0.912-2.188-0.912c-0.924,0-1.604,0.313-2.034,0.938
				c-0.438,0.621-0.652,1.563-0.652,2.839v2.97L47.363,213.698L47.363,213.698z"/>
			<path fill="#87868A" d="M34.647,202.305c-0.388,0-0.671-0.087-0.852-0.265c-0.186-0.184-0.271-0.396-0.271-0.656
				c0-0.295,0.092-0.547,0.271-0.76c0.188-0.211,0.466-0.316,0.847-0.316c0.384,0,0.664,0.105,0.854,0.316
				c0.188,0.213,0.28,0.465,0.28,0.76c0,0.264-0.098,0.479-0.28,0.656C35.311,202.218,35.026,202.305,34.647,202.305z
				 M48.843,202.164H37.675v-1.551h11.168V202.164z"/>
			<path fill="#87868A" d="M48.843,196.884H32.986v-1.691h15.854L48.843,196.884L48.843,196.884z"/>
			<path fill="#87868A" d="M48.843,191.605H32.986v-1.69h15.854L48.843,191.605L48.843,191.605z"/>
			<path fill="#87868A" d="M34.647,186.47c-0.388,0-0.671-0.09-0.852-0.266c-0.186-0.18-0.271-0.396-0.271-0.656
				c0-0.293,0.092-0.547,0.271-0.758c0.188-0.213,0.466-0.317,0.847-0.317c0.384,0,0.664,0.104,0.854,0.317
				c0.188,0.211,0.28,0.465,0.28,0.758c0,0.264-0.098,0.479-0.28,0.656C35.311,186.379,35.026,186.47,34.647,186.47z M48.843,186.33
				H37.675v-1.551h11.168V186.33z"/>
			<path fill="#87868A" d="M43.236,181.668c-1.813,0-3.229-0.455-4.247-1.36c-1.018-0.908-1.521-2.168-1.521-3.78
				c0-1.558,0.521-2.795,1.561-3.713c1.033-0.918,2.438-1.377,4.211-1.377c1.82,0,3.248,0.457,4.271,1.372
				c1.021,0.914,1.536,2.178,1.536,3.789c0,0.996-0.234,1.88-0.704,2.651c-0.476,0.771-1.146,1.367-2.021,1.787
				S44.414,181.668,43.236,181.668z M43.236,179.938c1.43,0,2.521-0.286,3.271-0.856c0.749-0.565,1.124-1.412,1.124-2.521
				s-0.373-1.951-1.119-2.524c-0.745-0.574-1.837-0.86-3.271-0.86c-1.423,0-2.504,0.286-3.243,0.86
				c-0.732,0.573-1.104,1.424-1.104,2.547c0,1.106,0.364,1.943,1.098,2.511C40.707,179.655,41.795,179.938,43.236,179.938z"/>
			<path fill="#87868A" d="M48.843,168.443H37.675v-1.376l1.509-0.275v-0.081c-0.544-0.347-0.966-0.832-1.271-1.457
				c-0.299-0.625-0.442-1.321-0.442-2.089c0-1.346,0.324-2.357,0.978-3.037c0.646-0.68,1.688-1.02,3.108-1.02h7.286v1.692h-7.239
				c-0.908,0-1.593,0.207-2.042,0.621c-0.445,0.415-0.675,1.063-0.675,1.946c0,1.169,0.313,2.024,0.95,2.568
				c0.633,0.543,1.678,0.815,3.135,0.815h5.871V168.443L48.843,168.443z"/>
			<path fill="#87868A" d="M43.685,151.388h-1.313v-1.529l-0.428,0.021h-0.448l-0.813-0.021v1.528H39.37v-1.652
				c-1.771-0.265-3.149-0.894-4.146-1.885c-0.992-0.992-1.484-2.292-1.484-3.902c0-1.365,0.334-2.608,1.002-3.729l1.42,0.724
				c-0.582,1.128-0.872,2.13-0.872,3.006c0,2.167,1.357,3.519,4.086,4.055v-5.195h1.309v5.319l0.581,0.021h0.646l0.458-0.021v-4.698
				h1.313v4.554c1.229-0.251,2.185-0.721,2.854-1.41c0.675-0.689,1.015-1.611,1.015-2.767c0-1.06-0.229-2.109-0.682-3.148h1.521
				c0.438,0.992,0.653,2.068,0.653,3.23c0,1.609-0.457,2.905-1.371,3.887c-0.913,0.981-2.243,1.628-3.989,1.94L43.685,151.388
				L43.685,151.388z"/>
		</g>
		
			<line fill="none" stroke="#000000" stroke-width="0.25" stroke-miterlimit="10" x1="210.81" y1="322.754" x2="66.381" y2="322.754"/>
		<line fill="none" stroke="#000000" stroke-width="0.25" stroke-miterlimit="10" x1="80.1" y1="74.725" x2="80.1" y2="322.754"/>
		
			<line fill="none" stroke="#000000" stroke-width="0.25" stroke-miterlimit="10" x1="210.81" y1="74.725" x2="66.381" y2="74.725"/>
	</g>
	<g id="EU28-estimates">
		<g>
			<rect x="372.046" y="203.968" fill="#449FA2" width="100.496" height="118.786"/>
			<rect x="372.046" y="74.774" fill="#F2C466" width="100.496" height="129.194"/>
		</g>
		<g>
			<path fill="#9A999E" d="M294.563,77.144v-1.239l5.896-8.399h1.494v8.347h1.854v1.291h-1.854v2.845h-1.343v-2.845H294.563z
				 M295.985,75.853h4.629v-4.127c0-0.81,0.027-1.724,0.084-2.743h-0.063c-0.271,0.543-0.525,0.994-0.766,1.35L295.985,75.853z"/>
			<path fill="#9A999E" d="M304.509,77.144v-1.239l5.893-8.399h1.494v8.347h1.859v1.291h-1.859v2.845h-1.332v-2.845H304.509z
				 M305.932,75.853h4.629v-4.127c0-0.81,0.027-1.724,0.084-2.743h-0.063c-0.271,0.543-0.525,0.994-0.771,1.35L305.932,75.853z"/>
			<path fill="#9A999E" d="M315.096,74.686c0-2.441,0.475-4.267,1.422-5.476c0.949-1.209,2.355-1.814,4.209-1.814
				c0.646,0,1.146,0.054,1.521,0.161v1.231c-0.439-0.164-0.939-0.247-1.5-0.247c-1.33,0-2.355,0.417-3.06,1.249
				c-0.692,0.833-1.086,2.141-1.145,3.924h0.102c0.623-0.963,1.607-1.445,2.955-1.445c1.119,0,2.004,0.336,2.648,1.008
				c0.645,0.672,0.969,1.584,0.969,2.736c0,1.288-0.355,2.301-1.064,3.039c-0.707,0.738-1.664,1.106-2.864,1.106
				c-1.281,0-2.31-0.482-3.062-1.447C315.473,77.746,315.096,76.405,315.096,74.686z M316.545,75.699c0,0.585,0.104,1.13,0.34,1.636
				c0.227,0.505,0.547,0.906,0.963,1.201c0.418,0.295,0.891,0.443,1.424,0.443c0.804,0,1.429-0.254,1.871-0.762
				c0.445-0.508,0.668-1.242,0.668-2.202c0-0.823-0.207-1.471-0.621-1.942c-0.412-0.472-1.028-0.707-1.85-0.707
				c-0.521,0-0.98,0.105-1.402,0.315c-0.424,0.21-0.764,0.5-1.014,0.869C316.671,74.918,316.545,75.302,316.545,75.699z"/>
		</g>
		<g>
			<path fill="#9A999E" d="M314.969,316.525c0-2.161,0.338-3.765,1.014-4.813c0.676-1.047,1.705-1.568,3.092-1.568
				c1.354,0,2.367,0.546,3.066,1.639c0.699,1.094,1.047,2.674,1.047,4.743c0,2.146-0.338,3.75-1.014,4.812
				c-0.676,1.063-1.709,1.594-3.104,1.594c-1.34,0-2.354-0.543-3.059-1.629C315.315,320.211,314.969,318.624,314.969,316.525z
				 M316.418,316.525c0,1.804,0.211,3.113,0.635,3.937c0.424,0.824,1.1,1.23,2.021,1.23c0.938,0,1.617-0.417,2.039-1.25
				c0.42-0.833,0.642-2.139,0.642-3.918c0-1.775-0.222-3.082-0.642-3.906c-0.422-0.828-1.102-1.242-2.039-1.242
				c-0.928,0-1.604,0.408-2.021,1.229C316.628,313.417,316.418,314.725,316.418,316.525z"/>
		</g>
		<g>
			<path fill="#FFFFFF" d="M414.858,261.272h-10.414v-2.189l3.738-3.773c1.107-1.143,1.832-1.926,2.172-2.357
				c0.34-0.435,0.584-0.846,0.732-1.22c0.146-0.374,0.225-0.769,0.225-1.162c0-0.604-0.164-1.042-0.494-1.335
				c-0.328-0.292-0.77-0.438-1.313-0.438c-0.576,0-1.146,0.135-1.688,0.396c-0.545,0.271-1.104,0.646-1.692,1.132l-1.722-2.021
				c0.732-0.625,1.351-1.064,1.824-1.325c0.482-0.259,1.008-0.456,1.578-0.597c0.57-0.146,1.209-0.209,1.916-0.209
				c0.932,0,1.754,0.17,2.467,0.511c0.713,0.342,1.271,0.813,1.66,1.429c0.396,0.609,0.592,1.313,0.592,2.1
				c0,0.688-0.121,1.33-0.354,1.938c-0.242,0.604-0.615,1.221-1.121,1.854c-0.506,0.635-1.398,1.529-2.677,2.699l-1.916,1.809v0.146
				h6.482v2.619h0.004V261.272z"/>
			<path fill="#FFFFFF" d="M424.145,261.272H421v-8.621l0.022-1.417l0.06-1.549c-0.523,0.522-0.896,0.866-1.101,1.028l-1.711,1.375
				l-1.518-1.896l4.799-3.818h2.588L424.145,261.272L424.145,261.272z"/>
			<path fill="#FFFFFF" d="M439.022,258.185h-1.793v3.087h-3.076v-3.087H427.8v-2.19l6.531-9.619h2.896v9.363h1.793L439.022,258.185
				L439.022,258.185z M434.149,255.738v-2.524c0-0.422,0.021-1.026,0.062-1.834c0.022-0.803,0.061-1.27,0.078-1.396h-0.078
				c-0.259,0.561-0.563,1.104-0.908,1.633l-2.73,4.129L434.149,255.738L434.149,255.738z"/>
		</g>
		<g>
			<path fill="#FFFFFF" d="M414.858,145.506h-10.414v-2.191l3.738-3.781c1.107-1.134,1.832-1.92,2.172-2.359
				c0.34-0.439,0.584-0.844,0.732-1.218c0.146-0.374,0.225-0.761,0.225-1.162c0-0.598-0.164-1.042-0.494-1.335
				c-0.328-0.292-0.77-0.438-1.313-0.438c-0.576,0-1.146,0.132-1.688,0.397c-0.545,0.265-1.104,0.642-1.692,1.131l-1.722-2.028
				c0.732-0.625,1.351-1.066,1.824-1.325c0.482-0.258,1.008-0.457,1.578-0.596s1.209-0.209,1.916-0.209
				c0.932,0,1.754,0.17,2.467,0.51c0.713,0.34,1.271,0.815,1.66,1.427c0.396,0.611,0.592,1.311,0.592,2.099
				c0,0.686-0.121,1.33-0.354,1.931c-0.242,0.601-0.615,1.217-1.121,1.849s-1.398,1.532-2.677,2.701l-1.916,1.804v0.143h6.482v2.65
				H414.858z"/>
			<path fill="#FFFFFF" d="M426.19,133.94c0,0.931-0.272,1.722-0.846,2.375c-0.563,0.652-1.355,1.101-2.373,1.345v0.062
				c1.201,0.149,2.111,0.515,2.73,1.095c0.608,0.581,0.928,1.364,0.928,2.349c0,1.433-0.521,2.549-1.564,3.347
				c-1.039,0.798-2.52,1.197-4.453,1.197c-1.606,0-3.049-0.268-4.299-0.805v-2.68c0.576,0.292,1.213,0.53,1.904,0.713
				c0.692,0.184,1.379,0.275,2.059,0.275c1.039,0,1.814-0.176,2.313-0.53c0.496-0.353,0.742-0.92,0.742-1.702
				c0-0.7-0.283-1.196-0.854-1.488c-0.572-0.292-1.479-0.438-2.729-0.438h-1.138v-2.416h1.152c1.154,0,1.998-0.151,2.531-0.453
				c0.532-0.302,0.801-0.82,0.801-1.554c0-1.127-0.707-1.691-2.119-1.691c-0.49,0-0.988,0.082-1.494,0.245s-1.063,0.445-1.686,0.846
				l-1.457-2.17c1.354-0.979,2.979-1.468,4.854-1.468c1.541,0,2.769,0.313,3.652,0.938
				C425.752,131.957,426.19,132.826,426.19,133.94z"/>
			<path fill="#FFFFFF" d="M438.686,145.506h-10.414v-2.191l3.74-3.781c1.107-1.134,1.83-1.92,2.17-2.359
				c0.34-0.439,0.584-0.844,0.734-1.218c0.145-0.374,0.225-0.761,0.225-1.162c0-0.598-0.166-1.042-0.494-1.335
				c-0.33-0.292-0.77-0.438-1.313-0.438c-0.578,0-1.146,0.132-1.689,0.397s-1.104,0.642-1.701,1.131l-1.713-2.028
				c0.734-0.625,1.344-1.066,1.824-1.325c0.481-0.258,1.01-0.457,1.58-0.596s1.209-0.209,1.916-0.209c0.93,0,1.752,0.17,2.465,0.51
				c0.715,0.34,1.271,0.815,1.662,1.427c0.393,0.611,0.59,1.311,0.59,2.099c0,0.686-0.119,1.33-0.354,1.931
				c-0.24,0.601-0.615,1.217-1.121,1.849c-0.515,0.632-1.396,1.532-2.685,2.701l-1.916,1.804v0.143h6.492L438.686,145.506
				L438.686,145.506z"/>
		</g>
		<g>
			<path fill="#87868A" d="M311.005,215.429h-14.9v-4.208c0-1.979,0.297-3.407,0.887-4.29c0.601-0.886,1.523-1.325,2.808-1.325
				c0.883,0,1.604,0.246,2.186,0.739c0.574,0.491,0.945,1.211,1.115,2.153h0.104c0.396-2.248,1.577-3.373,3.569-3.373
				c1.332,0,2.371,0.449,3.119,1.35c0.746,0.9,1.121,2.152,1.121,3.771L311.005,215.429L311.005,215.429z M302.473,213.696v-2.853
				c0-1.225-0.191-2.104-0.574-2.641s-1.021-0.813-1.938-0.813c-0.834,0-1.439,0.299-1.814,0.896
				c-0.358,0.601-0.555,1.551-0.555,2.854v2.547L302.473,213.696L302.473,213.696z M309.524,213.696v-3.105
				c0-1.194-0.229-2.104-0.688-2.715c-0.476-0.604-1.193-0.912-2.189-0.912c-0.924,0-1.604,0.313-2.037,0.938
				c-0.436,0.621-0.646,1.563-0.646,2.839v2.97L309.524,213.696L309.524,213.696z"/>
			<path fill="#87868A" d="M296.805,202.304c-0.387,0-0.67-0.087-0.85-0.265c-0.189-0.184-0.271-0.396-0.271-0.656
				c0-0.295,0.09-0.547,0.273-0.76c0.184-0.211,0.467-0.316,0.846-0.316c0.381,0,0.664,0.105,0.852,0.316
				c0.189,0.213,0.281,0.465,0.281,0.76c0,0.264-0.094,0.479-0.281,0.656C297.471,202.217,297.186,202.304,296.805,202.304z
				 M311.005,202.164h-11.17v-1.551h11.17V202.164z"/>
			<path fill="#87868A" d="M311.005,196.883h-15.859v-1.691h15.855L311.005,196.883L311.005,196.883z"/>
			<path fill="#87868A" d="M311.005,191.605h-15.859v-1.69h15.855L311.005,191.605L311.005,191.605z"/>
			<path fill="#87868A" d="M296.805,186.469c-0.387,0-0.67-0.09-0.85-0.266c-0.189-0.18-0.271-0.396-0.271-0.656
				c0-0.293,0.09-0.547,0.273-0.758c0.184-0.213,0.467-0.317,0.846-0.317c0.381,0,0.664,0.104,0.852,0.317
				c0.189,0.211,0.281,0.465,0.281,0.758c0,0.264-0.094,0.479-0.281,0.656C297.471,186.379,297.186,186.469,296.805,186.469z
				 M311.005,186.329h-11.17v-1.551h11.17V186.329z"/>
			<path fill="#87868A" d="M305.397,181.668c-1.813,0-3.229-0.455-4.248-1.36c-1.014-0.908-1.52-2.168-1.52-3.78
				c0-1.558,0.518-2.795,1.557-3.713c1.037-0.918,2.439-1.377,4.211-1.377c1.824,0,3.248,0.457,4.271,1.372
				c1.02,0.914,1.537,2.178,1.537,3.789c0,0.996-0.236,1.88-0.705,2.651c-0.479,0.771-1.146,1.367-2.021,1.787
				S306.569,181.668,305.397,181.668z M305.397,179.937c1.431,0,2.521-0.286,3.271-0.856c0.748-0.565,1.123-1.412,1.123-2.521
				s-0.373-1.951-1.119-2.524c-0.744-0.574-1.836-0.86-3.273-0.86c-1.422,0-2.504,0.286-3.242,0.86
				c-0.729,0.573-1.104,1.424-1.104,2.547c0,1.106,0.363,1.943,1.092,2.511C302.862,179.655,303.959,179.937,305.397,179.937z"/>
			<path fill="#87868A" d="M311.005,168.443h-11.17v-1.376l1.51-0.275v-0.081c-0.543-0.347-0.965-0.832-1.264-1.457
				c-0.31-0.625-0.449-1.321-0.449-2.089c0-1.346,0.324-2.357,0.973-3.037c0.65-0.68,1.689-1.02,3.113-1.02h7.287v1.692h-7.24
				c-0.912,0-1.594,0.207-2.043,0.621c-0.449,0.415-0.674,1.063-0.674,1.946c0,1.169,0.313,2.024,0.951,2.568
				c0.633,0.543,1.678,0.815,3.135,0.815h5.871V168.443L311.005,168.443z"/>
			<path fill="#87868A" d="M305.846,151.387h-1.314v-1.528l-0.428,0.021h-0.449l-0.813-0.021v1.528h-1.314v-1.652
				c-1.77-0.265-3.146-0.894-4.145-1.885c-0.992-0.992-1.488-2.292-1.488-3.902c0-1.365,0.334-2.608,1.002-3.729l1.418,0.724
				c-0.58,1.128-0.871,2.13-0.871,3.006c0,2.167,1.361,3.519,4.086,4.055v-5.195h1.314v5.319l0.582,0.021h0.645l0.461-0.021v-4.698
				h1.313v4.554c1.229-0.251,2.182-0.721,2.854-1.41c0.679-0.689,1.015-1.611,1.015-2.767c0-1.06-0.229-2.109-0.687-3.148h1.521
				c0.436,0.992,0.649,2.068,0.649,3.23c0,1.609-0.452,2.905-1.366,3.887c-0.914,0.981-2.244,1.628-3.99,1.94v1.671H305.846z"/>
		</g>
		
			<line fill="none" stroke="#000000" stroke-width="0.25" stroke-miterlimit="10" x1="341.836" y1="74.724" x2="341.836" y2="322.754"/>
		
			<line fill="none" stroke="#000000" stroke-width="0.25" stroke-miterlimit="10" x1="472.546" y1="322.754" x2="328.108" y2="322.754"/>
		
			<line fill="none" stroke="#000000" stroke-width="0.25" stroke-miterlimit="10" x1="472.546" y1="74.724" x2="328.108" y2="74.724"/>
	</g>
	<g>
		<path fill="#666666" d="M46.391,35.996c0-1.633,0.328-3.063,0.982-4.292c0.655-1.228,1.6-2.166,2.831-2.814
			s2.676-0.972,4.329-0.972c1.676,0,3.237,0.308,4.685,0.924l-0.709,1.611c-1.418-0.602-2.782-0.902-4.094-0.902
			c-1.911,0-3.404,0.569-4.479,1.708c-1.074,1.139-1.611,2.718-1.611,4.737c0,2.127,0.518,3.74,1.553,4.839
			c1.034,1.1,2.555,1.649,4.56,1.649c1.088,0,2.152-0.125,3.19-0.377v-4.855h-3.514V35.62h5.339v7.648
			c-0.831,0.262-1.676,0.459-2.534,0.594c-0.859,0.134-1.855,0.201-2.986,0.201c-2.378,0-4.229-0.707-5.554-2.122
			C47.053,40.527,46.391,38.545,46.391,35.996z"/>
		<path fill="#666666" d="M62.955,43.848V27.133h1.783v16.715H62.955z"/>
		<path fill="#666666" d="M67.864,37.94c0-1.916,0.479-3.408,1.436-4.477c0.956-1.069,2.284-1.603,3.983-1.603
			c1.643,0,2.947,0.547,3.915,1.641s1.451,2.574,1.451,4.439c0,1.923-0.482,3.424-1.446,4.503c-0.964,1.08-2.296,1.62-3.995,1.62
			c-1.05,0-1.98-0.248-2.795-0.743c-0.813-0.495-1.441-1.205-1.885-2.13C68.087,40.264,67.864,39.181,67.864,37.94z M69.69,37.94
			c0,1.507,0.301,2.656,0.904,3.445c0.602,0.79,1.487,1.185,2.656,1.185c1.17,0,2.058-0.393,2.663-1.179
			c0.606-0.786,0.909-1.937,0.909-3.451c0-1.5-0.303-2.64-0.909-3.419c-0.605-0.778-1.501-1.168-2.684-1.168
			c-1.169,0-2.051,0.384-2.646,1.152S69.69,36.418,69.69,37.94z"/>
		<path fill="#666666" d="M81.808,43.848V27.133h1.783v4.061c0,0.91-0.029,1.726-0.086,2.449h0.086
			c0.831-1.174,2.063-1.762,3.694-1.762c1.54,0,2.736,0.528,3.588,1.584c0.853,1.057,1.278,2.551,1.278,4.485
			c0,1.934-0.43,3.436-1.289,4.506c-0.858,1.071-2.052,1.606-3.578,1.606c-0.767,0-1.466-0.142-2.1-0.424
			c-0.634-0.282-1.166-0.718-1.595-1.305h-0.129l-0.377,1.515H81.808z M83.592,37.951c0,1.654,0.274,2.838,0.826,3.55
			c0.552,0.713,1.437,1.069,2.653,1.069c1.096,0,1.912-0.399,2.449-1.198c0.537-0.798,0.806-1.946,0.806-3.443
			c0-1.532-0.269-2.675-0.806-3.427s-1.368-1.128-2.492-1.128c-1.218,0-2.095,0.349-2.632,1.047
			C83.859,35.119,83.592,36.296,83.592,37.951z"/>
		<path fill="#666666" d="M94.408,40.605c0-2.371,1.904-3.614,5.712-3.729l2.001-0.065v-0.739c0-0.935-0.197-1.625-0.595-2.071
			c-0.396-0.446-1.031-0.669-1.903-0.669c-0.979,0-2.087,0.305-3.323,0.914l-0.555-1.369c0.58-0.311,1.215-0.554,1.907-0.73
			c0.691-0.176,1.384-0.265,2.079-0.265c1.402,0,2.441,0.312,3.117,0.935s1.014,1.622,1.014,2.997v8.035h-1.321l-0.354-1.656h-0.086
			c-0.586,0.73-1.17,1.225-1.753,1.483c-0.583,0.259-1.311,0.388-2.183,0.388c-1.173,0-2.092-0.3-2.758-0.899
			C94.741,42.564,94.408,41.711,94.408,40.605z M96.3,40.626c0,0.648,0.194,1.141,0.584,1.479c0.389,0.338,0.935,0.507,1.635,0.507
			c1.107,0,1.979-0.306,2.611-0.917c0.633-0.612,0.948-1.468,0.948-2.569v-1.068l-1.779,0.075c-1.416,0.05-2.437,0.272-3.063,0.664
			S96.3,39.799,96.3,40.626z"/>
		<path fill="#666666" d="M107.524,43.848V27.133h1.783v16.715H107.524z"/>
		<path fill="#666666" d="M118.148,38.058c0-1.897,0.466-3.405,1.397-4.522c0.931-1.117,2.183-1.676,3.754-1.676
			c1.47,0,2.633,0.485,3.489,1.456s1.285,2.25,1.285,3.84v1.128h-8.1c0.036,1.382,0.386,2.432,1.049,3.147
			c0.664,0.716,1.598,1.074,2.803,1.074c1.265,0,2.514-0.265,3.748-0.795v1.59c-0.628,0.272-1.223,0.467-1.783,0.585
			c-0.561,0.118-1.236,0.177-2.029,0.177c-1.735,0-3.105-0.53-4.108-1.59C118.65,41.414,118.148,39.942,118.148,38.058z
			 M120.018,36.834h6.166c0-1.124-0.251-1.985-0.753-2.583s-1.219-0.897-2.152-0.897c-0.947,0-1.702,0.308-2.266,0.924
			C120.45,34.893,120.118,35.745,120.018,36.834z"/>
		<path fill="#666666" d="M130.395,34.968c0-0.961,0.39-1.719,1.169-2.275s1.849-0.833,3.208-0.833c1.26,0,2.491,0.258,3.694,0.773
			l-0.622,1.452c-1.179-0.488-2.245-0.732-3.202-0.732c-0.847,0-1.485,0.133-1.916,0.398s-0.646,0.632-0.646,1.098
			c0,0.316,0.081,0.585,0.242,0.808c0.161,0.223,0.422,0.434,0.78,0.635c0.359,0.201,1.048,0.492,2.067,0.872
			c1.396,0.51,2.334,1.023,2.815,1.54s0.722,1.167,0.722,1.949c0,1.09-0.405,1.931-1.218,2.522
			c-0.812,0.592-1.952,0.887-3.418,0.887c-1.559,0-2.773-0.243-3.646-0.73v-1.646c0.563,0.287,1.17,0.513,1.816,0.678
			c0.647,0.165,1.271,0.248,1.872,0.248c0.934,0,1.65-0.149,2.153-0.447c0.502-0.298,0.753-0.752,0.753-1.362
			c0-0.459-0.199-0.852-0.598-1.179s-1.176-0.712-2.331-1.158c-1.099-0.409-1.877-0.766-2.336-1.071
			c-0.46-0.305-0.803-0.651-1.026-1.039S130.395,35.506,130.395,34.968z"/>
		<path fill="#666666" d="M140.084,33.46v-0.859l1.688-0.741l0.752-2.514h1.031v2.729h3.416v1.386h-3.416v6.945
			c0,0.711,0.168,1.256,0.505,1.637c0.336,0.381,0.798,0.571,1.386,0.571c0.315,0,0.619-0.023,0.913-0.07
			c0.293-0.047,0.526-0.095,0.698-0.146v1.348c-0.193,0.092-0.479,0.167-0.854,0.228c-0.376,0.06-0.714,0.09-1.015,0.09
			c-2.277,0-3.416-1.199-3.416-3.599V33.46H140.084z"/>
		<path fill="#666666" d="M149.259,28.884c0-0.408,0.092-0.707,0.276-0.897c0.186-0.189,0.416-0.285,0.693-0.285
			c0.309,0,0.575,0.097,0.799,0.29c0.224,0.193,0.336,0.491,0.336,0.892c0,0.401-0.112,0.7-0.336,0.897
			c-0.224,0.197-0.49,0.295-0.799,0.295c-0.277,0-0.508-0.098-0.693-0.295C149.35,29.584,149.259,29.286,149.259,28.884z
			 M149.408,43.848V32.075h1.633v11.773H149.408z"/>
		<path fill="#666666" d="M154.973,43.848V32.075h1.45l0.29,1.59h0.086c0.336-0.566,0.811-1.009,1.423-1.327
			c0.611-0.319,1.298-0.478,2.057-0.478c1.841,0,3.043,0.659,3.609,1.978h0.086c0.352-0.609,0.859-1.091,1.525-1.446
			s1.425-0.532,2.276-0.532c1.332,0,2.329,0.342,2.992,1.026c0.662,0.684,0.994,1.778,0.994,3.282v7.681h-1.783v-7.676
			c0-0.94-0.201-1.645-0.602-2.115c-0.401-0.47-1.024-0.705-1.869-0.705c-1.11,0-1.93,0.319-2.46,0.958s-0.795,1.622-0.795,2.949
			v6.588h-1.783v-7.675c0-0.94-0.201-1.645-0.603-2.115c-0.4-0.47-1.027-0.705-1.88-0.705c-1.117,0-1.936,0.335-2.455,1.006
			s-0.778,1.771-0.778,3.299v6.189L154.973,43.848L154.973,43.848z"/>
		<path fill="#666666" d="M174.556,40.605c0-2.371,1.904-3.614,5.712-3.729l2.001-0.065v-0.739c0-0.935-0.198-1.625-0.595-2.071
			c-0.397-0.446-1.031-0.669-1.903-0.669c-0.979,0-2.087,0.305-3.324,0.914l-0.554-1.369c0.58-0.311,1.215-0.554,1.907-0.73
			c0.69-0.176,1.384-0.265,2.079-0.265c1.401,0,2.44,0.312,3.117,0.935c0.676,0.623,1.014,1.622,1.014,2.997v8.035h-1.321
			l-0.354-1.656h-0.086c-0.586,0.73-1.17,1.225-1.753,1.483c-0.583,0.259-1.311,0.388-2.183,0.388c-1.173,0-2.092-0.3-2.758-0.899
			C174.888,42.564,174.556,41.711,174.556,40.605z M176.446,40.626c0,0.648,0.195,1.141,0.584,1.479
			c0.39,0.338,0.936,0.507,1.636,0.507c1.107,0,1.979-0.306,2.61-0.917c0.634-0.612,0.949-1.468,0.949-2.569v-1.068l-1.78,0.075
			c-1.416,0.05-2.436,0.272-3.062,0.664S176.446,39.799,176.446,40.626z"/>
		<path fill="#666666" d="M186.114,33.46v-0.859l1.688-0.741l0.752-2.514h1.031v2.729h3.416v1.386h-3.416v6.945
			c0,0.711,0.168,1.256,0.505,1.637c0.336,0.381,0.798,0.571,1.386,0.571c0.315,0,0.619-0.023,0.913-0.07
			c0.293-0.047,0.526-0.095,0.698-0.146v1.348c-0.193,0.092-0.479,0.167-0.854,0.228c-0.376,0.06-0.714,0.09-1.015,0.09
			c-2.277,0-3.416-1.199-3.416-3.599V33.46H186.114z"/>
		<path fill="#666666" d="M194.783,38.058c0-1.897,0.467-3.405,1.397-4.522c0.931-1.117,2.183-1.676,3.754-1.676
			c1.47,0,2.633,0.485,3.49,1.456c0.855,0.971,1.285,2.25,1.285,3.84v1.128h-8.101c0.036,1.382,0.387,2.432,1.049,3.147
			c0.664,0.716,1.599,1.074,2.804,1.074c1.264,0,2.513-0.265,3.748-0.795v1.59c-0.628,0.272-1.224,0.467-1.783,0.585
			c-0.562,0.118-1.237,0.177-2.03,0.177c-1.734,0-3.104-0.53-4.107-1.59C195.286,41.414,194.783,39.942,194.783,38.058z
			 M196.652,36.834h6.166c0-1.124-0.251-1.985-0.753-2.583s-1.219-0.897-2.151-0.897c-0.947,0-1.702,0.308-2.267,0.924
			C197.086,34.893,196.754,35.745,196.652,36.834z"/>
		<path fill="#666666" d="M207.029,34.968c0-0.961,0.391-1.719,1.169-2.275c0.779-0.556,1.85-0.833,3.208-0.833
			c1.261,0,2.491,0.258,3.694,0.773l-0.622,1.452c-1.178-0.488-2.245-0.732-3.202-0.732c-0.847,0-1.484,0.133-1.916,0.398
			c-0.431,0.265-0.646,0.632-0.646,1.098c0,0.316,0.081,0.585,0.242,0.808c0.161,0.223,0.422,0.434,0.779,0.635
			c0.359,0.201,1.049,0.492,2.067,0.872c1.396,0.51,2.334,1.023,2.816,1.54c0.48,0.517,0.722,1.167,0.722,1.949
			c0,1.09-0.406,1.931-1.218,2.522c-0.813,0.592-1.952,0.887-3.418,0.887c-1.56,0-2.774-0.243-3.646-0.73v-1.646
			c0.564,0.287,1.17,0.513,1.817,0.678c0.646,0.165,1.271,0.248,1.872,0.248c0.933,0,1.649-0.149,2.152-0.447
			c0.502-0.298,0.753-0.752,0.753-1.362c0-0.459-0.198-0.852-0.598-1.179c-0.397-0.327-1.175-0.712-2.331-1.158
			c-1.098-0.409-1.877-0.766-2.336-1.071c-0.46-0.305-0.802-0.651-1.026-1.039C207.139,35.968,207.029,35.506,207.029,34.968z"/>
	</g>
	<g>
		<path fill="#666666" d="M317.217,43.848V28.143h8.756v1.633h-6.93v5.027h6.51v1.633h-6.51v5.779h6.93v1.633H317.217z"/>
		<path fill="#666666" d="M329.292,38.262V28.143h1.826v10.264c0,1.313,0.357,2.32,1.073,3.023c0.718,0.703,1.771,1.054,3.158,1.054
			c1.325,0,2.346-0.353,3.063-1.06c0.715-0.707,1.073-1.72,1.073-3.04V28.143h1.826v10.162c0,1.791-0.541,3.198-1.623,4.222
			c-1.081,1.024-2.565,1.536-4.457,1.536c-1.891,0-3.354-0.516-4.389-1.547C329.808,41.485,329.292,40.067,329.292,38.262z"/>
		<path fill="#666666" d="M344.385,43.848v-1.516l4.135-4.174c1.261-1.28,2.092-2.193,2.492-2.74
			c0.401-0.546,0.702-1.079,0.902-1.596c0.2-0.518,0.301-1.075,0.301-1.672c0-0.841-0.254-1.508-0.762-2
			c-0.511-0.493-1.216-0.739-2.117-0.739c-0.651,0-1.271,0.108-1.854,0.324c-0.584,0.216-1.232,0.607-1.95,1.176l-0.944-1.219
			c1.446-1.182,3.021-1.773,4.727-1.773c1.477,0,2.633,0.376,3.472,1.127c0.838,0.752,1.256,1.762,1.256,3.03
			c0,1-0.279,1.988-0.838,2.966c-0.56,0.979-1.604,2.215-3.138,3.711l-3.438,3.376v0.086h8.078v1.633H344.385z"/>
		<path fill="#666666" d="M357.006,39.841c0-1.797,1.103-3.197,3.307-4.2c-0.998-0.559-1.715-1.162-2.149-1.81
			s-0.65-1.373-0.65-2.175c0-1.139,0.423-2.046,1.27-2.723c0.847-0.677,1.979-1.015,3.397-1.015c1.437,0,2.576,0.333,3.417,0.999
			s1.262,1.586,1.262,2.761c0,0.773-0.242,1.479-0.725,2.116c-0.482,0.638-1.254,1.218-2.313,1.74
			c1.282,0.609,2.192,1.248,2.732,1.917c0.54,0.67,0.81,1.445,0.81,2.326c0,1.304-0.455,2.344-1.367,3.121
			c-0.913,0.777-2.163,1.166-3.75,1.166c-1.682,0-2.975-0.367-3.881-1.101C357.46,42.228,357.006,41.188,357.006,39.841z
			 M358.79,39.884c0,0.859,0.299,1.529,0.896,2.009s1.437,0.72,2.515,0.72c1.065,0,1.896-0.25,2.488-0.752
			c0.593-0.501,0.891-1.188,0.891-2.063c0-0.694-0.278-1.312-0.836-1.853c-0.56-0.541-1.53-1.065-2.918-1.574
			c-1.064,0.458-1.838,0.965-2.316,1.52C359.029,38.447,358.79,39.111,358.79,39.884z M359.295,31.731
			c0,0.659,0.211,1.225,0.633,1.697c0.421,0.473,1.2,0.945,2.337,1.418c1.022-0.43,1.745-0.892,2.171-1.386s0.639-1.07,0.639-1.729
			c0-0.723-0.26-1.298-0.776-1.724c-0.521-0.426-1.232-0.639-2.141-0.639c-0.894,0-1.595,0.215-2.102,0.645
			C359.548,30.442,359.295,31.015,359.295,31.731z"/>
		<path fill="#666666" d="M375.419,38.058c0-1.897,0.467-3.405,1.397-4.522c0.932-1.117,2.184-1.676,3.754-1.676
			c1.471,0,2.634,0.485,3.489,1.456c0.856,0.971,1.284,2.25,1.284,3.84v1.128h-8.1c0.036,1.382,0.387,2.432,1.05,3.147
			c0.663,0.716,1.598,1.074,2.804,1.074c1.264,0,2.512-0.265,3.748-0.795v1.59c-0.629,0.272-1.224,0.467-1.783,0.585
			c-0.561,0.118-1.237,0.177-2.03,0.177c-1.734,0-3.104-0.53-4.107-1.59C375.92,41.414,375.419,39.942,375.419,38.058z
			 M377.288,36.834h6.166c0-1.124-0.25-1.985-0.754-2.583c-0.502-0.598-1.22-0.897-2.15-0.897c-0.947,0-1.703,0.308-2.266,0.924
			C377.719,34.893,377.388,35.745,377.288,36.834z"/>
		<path fill="#666666" d="M387.665,34.968c0-0.961,0.391-1.719,1.17-2.275c0.778-0.556,1.85-0.833,3.209-0.833
			c1.26,0,2.489,0.258,3.692,0.773l-0.621,1.452c-1.178-0.488-2.245-0.732-3.201-0.732c-0.848,0-1.485,0.133-1.916,0.398
			c-0.432,0.265-0.646,0.632-0.646,1.098c0,0.316,0.08,0.585,0.242,0.808c0.161,0.223,0.422,0.434,0.779,0.635
			c0.358,0.201,1.049,0.492,2.067,0.872c1.396,0.51,2.334,1.023,2.815,1.54c0.48,0.517,0.722,1.167,0.722,1.949
			c0,1.09-0.406,1.931-1.217,2.522c-0.813,0.592-1.952,0.887-3.419,0.887c-1.56,0-2.774-0.243-3.646-0.73v-1.646
			c0.564,0.287,1.17,0.513,1.816,0.678c0.646,0.165,1.271,0.248,1.872,0.248c0.933,0,1.649-0.149,2.152-0.447
			s0.755-0.752,0.755-1.362c0-0.459-0.199-0.852-0.599-1.179c-0.398-0.327-1.176-0.712-2.331-1.158
			c-1.099-0.409-1.877-0.766-2.337-1.071c-0.459-0.305-0.801-0.651-1.024-1.039C387.775,35.968,387.665,35.506,387.665,34.968z"/>
		<path fill="#666666" d="M397.353,33.46v-0.859l1.688-0.741l0.752-2.514h1.031v2.729h3.416v1.386h-3.416v6.945
			c0,0.711,0.168,1.256,0.504,1.637c0.337,0.381,0.799,0.571,1.387,0.571c0.314,0,0.619-0.023,0.912-0.07
			c0.294-0.047,0.526-0.095,0.699-0.146v1.348c-0.193,0.092-0.479,0.167-0.854,0.228c-0.376,0.06-0.714,0.09-1.015,0.09
			c-2.277,0-3.416-1.199-3.416-3.599V33.46H397.353z"/>
		<path fill="#666666" d="M406.527,28.884c0-0.408,0.094-0.707,0.277-0.897c0.186-0.189,0.416-0.285,0.693-0.285
			c0.309,0,0.575,0.097,0.799,0.29c0.225,0.193,0.336,0.491,0.336,0.892c0,0.401-0.111,0.7-0.336,0.897
			c-0.224,0.197-0.49,0.295-0.799,0.295c-0.277,0-0.509-0.098-0.693-0.295C406.621,29.584,406.527,29.286,406.527,28.884z
			 M406.677,43.848V32.075h1.633v11.773H406.677z"/>
		<path fill="#666666" d="M412.243,43.848V32.075h1.45l0.289,1.59h0.086c0.337-0.566,0.813-1.009,1.425-1.327
			c0.611-0.319,1.298-0.478,2.057-0.478c1.841,0,3.044,0.659,3.609,1.978h0.086c0.352-0.609,0.858-1.091,1.524-1.446
			s1.426-0.532,2.277-0.532c1.332,0,2.33,0.342,2.992,1.026c0.661,0.684,0.993,1.778,0.993,3.282v7.681h-1.782v-7.676
			c0-0.94-0.201-1.645-0.603-2.115c-0.401-0.47-1.024-0.705-1.869-0.705c-1.11,0-1.931,0.319-2.461,0.958
			c-0.528,0.639-0.795,1.622-0.795,2.949v6.588h-1.783v-7.675c0-0.94-0.199-1.645-0.602-2.115c-0.4-0.47-1.027-0.705-1.879-0.705
			c-1.117,0-1.937,0.335-2.455,1.006c-0.521,0.671-0.779,1.771-0.779,3.299v6.189L412.243,43.848L412.243,43.848z"/>
		<path fill="#666666" d="M431.827,40.605c0-2.371,1.902-3.614,5.711-3.729l2.002-0.065v-0.739c0-0.935-0.199-1.625-0.597-2.071
			c-0.396-0.446-1.03-0.669-1.902-0.669c-0.979,0-2.087,0.305-3.323,0.914l-0.555-1.369c0.58-0.311,1.215-0.554,1.905-0.73
			c0.691-0.176,1.386-0.265,2.079-0.265c1.402,0,2.44,0.312,3.117,0.935s1.015,1.622,1.015,2.997v8.035h-1.321l-0.354-1.656h-0.086
			c-0.586,0.73-1.171,1.225-1.754,1.483c-0.582,0.259-1.31,0.388-2.182,0.388c-1.174,0-2.093-0.3-2.759-0.899
			C432.159,42.564,431.827,41.711,431.827,40.605z M433.717,40.626c0,0.648,0.194,1.141,0.584,1.479
			c0.389,0.338,0.935,0.507,1.635,0.507c1.107,0,1.979-0.306,2.611-0.917c0.632-0.611,0.949-1.468,0.949-2.569v-1.068l-1.78,0.075
			c-1.415,0.05-2.438,0.272-3.063,0.664S433.717,39.799,433.717,40.626z"/>
		<path fill="#666666" d="M443.385,33.46v-0.859l1.686-0.741l0.752-2.514h1.031v2.729h3.416v1.386h-3.416v6.945
			c0,0.711,0.168,1.256,0.506,1.637c0.336,0.381,0.798,0.571,1.386,0.571c0.314,0,0.618-0.023,0.914-0.07
			c0.293-0.047,0.524-0.095,0.696-0.146v1.348c-0.192,0.092-0.478,0.167-0.854,0.228c-0.376,0.06-0.715,0.09-1.017,0.09
			c-2.276,0-3.416-1.199-3.416-3.599V33.46H443.385z"/>
		<path fill="#666666" d="M452.052,38.058c0-1.897,0.467-3.405,1.397-4.522c0.932-1.117,2.184-1.676,3.755-1.676
			c1.47,0,2.633,0.485,3.488,1.456c0.856,0.971,1.284,2.25,1.284,3.84v1.128h-8.1c0.037,1.382,0.387,2.432,1.05,3.147
			c0.663,0.716,1.598,1.074,2.804,1.074c1.265,0,2.513-0.265,3.748-0.795v1.59c-0.629,0.272-1.224,0.467-1.783,0.585
			c-0.561,0.118-1.237,0.177-2.029,0.177c-1.735,0-3.104-0.53-4.108-1.59C452.554,41.414,452.052,39.942,452.052,38.058z
			 M453.922,36.834h6.166c0-1.124-0.25-1.985-0.753-2.583c-0.502-0.598-1.221-0.897-2.151-0.897c-0.947,0-1.703,0.308-2.266,0.924
			C454.354,34.893,454.023,35.745,453.922,36.834z"/>
		<path fill="#666666" d="M464.299,34.968c0-0.961,0.391-1.719,1.17-2.275s1.85-0.833,3.209-0.833c1.26,0,2.49,0.258,3.693,0.773
			l-0.621,1.452c-1.179-0.488-2.246-0.732-3.202-0.732c-0.848,0-1.485,0.133-1.916,0.398c-0.432,0.265-0.646,0.632-0.646,1.098
			c0,0.316,0.08,0.585,0.242,0.808c0.161,0.223,0.422,0.434,0.779,0.635c0.358,0.201,1.049,0.492,2.067,0.872
			c1.396,0.51,2.334,1.023,2.815,1.54s0.722,1.167,0.722,1.949c0,1.09-0.405,1.931-1.217,2.522
			c-0.813,0.592-1.952,0.887-3.419,0.887c-1.559,0-2.773-0.243-3.646-0.73v-1.646c0.563,0.287,1.17,0.513,1.815,0.678
			c0.647,0.165,1.271,0.248,1.872,0.248c0.933,0,1.65-0.149,2.153-0.447c0.502-0.298,0.754-0.752,0.754-1.362
			c0-0.459-0.199-0.852-0.598-1.179c-0.399-0.327-1.177-0.712-2.331-1.158c-1.1-0.409-1.878-0.766-2.337-1.071
			s-0.802-0.651-1.025-1.039C464.409,35.968,464.299,35.506,464.299,34.968z"/>
	</g>
	<rect x="96.538" y="354.105" fill="#F2C466" width="17.804" height="17.801"/>
	<g>
		<path fill="#666666" d="M121.177,364.125c0-1.028,0.19-1.932,0.571-2.705c0.382-0.774,0.935-1.371,1.66-1.791
			c0.728-0.418,1.582-0.627,2.566-0.627c1.049,0,1.965,0.19,2.748,0.574l-0.492,0.996c-0.756-0.354-1.512-0.531-2.27-0.531
			c-1.099,0-1.966,0.365-2.601,1.097c-0.637,0.729-0.955,1.729-0.955,3.002c0,1.308,0.308,2.315,0.92,3.028
			c0.613,0.713,1.486,1.068,2.621,1.068c0.697,0,1.492-0.125,2.387-0.375v1.021c-0.692,0.262-1.547,0.393-2.563,0.393
			c-1.471,0-2.605-0.447-3.4-1.341S121.177,365.772,121.177,364.125z"/>
		<path fill="#666666" d="M129.942,365.379c0-1.219,0.305-2.168,0.913-2.85c0.609-0.68,1.454-1.02,2.535-1.02
			c1.046,0,1.876,0.348,2.491,1.044s0.924,1.638,0.924,2.825c0,1.224-0.308,2.179-0.92,2.865c-0.613,0.688-1.461,1.03-2.542,1.03
			c-0.669,0-1.263-0.157-1.779-0.474c-0.518-0.313-0.918-0.766-1.199-1.354C130.083,366.858,129.942,366.168,129.942,365.379z
			 M131.104,365.379c0,0.959,0.191,1.69,0.575,2.192c0.383,0.503,0.946,0.755,1.69,0.755c0.743,0,1.31-0.25,1.694-0.75
			c0.385-0.502,0.578-1.232,0.578-2.197c0-0.955-0.193-1.68-0.578-2.176c-0.386-0.494-0.955-0.742-1.708-0.742
			c-0.744,0-1.306,0.244-1.685,0.732C131.295,363.683,131.104,364.411,131.104,365.379z"/>
		<path fill="#666666" d="M138.337,363.489c0-0.611,0.247-1.094,0.743-1.447c0.496-0.354,1.178-0.531,2.042-0.531
			c0.803,0,1.585,0.164,2.352,0.492l-0.396,0.924c-0.75-0.311-1.429-0.465-2.037-0.465c-0.539,0-0.944,0.084-1.22,0.252
			c-0.273,0.17-0.411,0.402-0.411,0.699c0,0.201,0.053,0.373,0.154,0.514c0.103,0.144,0.269,0.277,0.496,0.404
			c0.229,0.129,0.667,0.313,1.314,0.557c0.89,0.324,1.486,0.65,1.792,0.979c0.308,0.329,0.46,0.742,0.46,1.24
			c0,0.693-0.259,1.229-0.774,1.605c-0.517,0.375-1.241,0.563-2.175,0.563c-0.992,0-1.767-0.153-2.32-0.465v-1.047
			c0.359,0.182,0.745,0.325,1.156,0.432c0.412,0.104,0.81,0.157,1.19,0.157c0.595,0,1.051-0.096,1.37-0.284s0.479-0.479,0.479-0.866
			c0-0.293-0.127-0.543-0.38-0.75c-0.255-0.209-0.748-0.453-1.483-0.736c-0.699-0.262-1.194-0.488-1.487-0.682
			c-0.292-0.195-0.51-0.416-0.652-0.662S138.337,363.831,138.337,363.489z"/>
		<path fill="#666666" d="M144.503,362.529v-0.547l1.072-0.472l0.479-1.6h0.656v1.735h2.174v0.882h-2.174v4.419
			c0,0.453,0.106,0.802,0.32,1.042c0.214,0.242,0.508,0.363,0.882,0.363c0.2,0,0.396-0.016,0.581-0.044
			c0.188-0.03,0.335-0.062,0.444-0.095v0.858c-0.123,0.06-0.305,0.106-0.543,0.146c-0.24,0.037-0.455,0.058-0.646,0.058
			c-1.448,0-2.174-0.765-2.174-2.29v-4.457L144.503,362.529L144.503,362.529z"/>
		<path fill="#666666" d="M154.072,369.14v-7.492h0.923l0.186,1.013h0.055c0.232-0.365,0.559-0.646,0.979-0.849
			c0.419-0.202,0.887-0.302,1.4-0.302c0.902,0,1.581,0.219,2.037,0.652c0.456,0.437,0.684,1.133,0.684,2.09v4.888H159.2v-4.856
			c0-0.611-0.139-1.068-0.417-1.369c-0.277-0.302-0.713-0.453-1.306-0.453c-0.784,0-1.358,0.213-1.723,0.639
			c-0.364,0.424-0.548,1.125-0.548,2.104v3.938L154.072,369.14L154.072,369.14z"/>
		<path fill="#666666" d="M162.25,365.379c0-1.219,0.305-2.168,0.913-2.85c0.608-0.68,1.453-1.02,2.534-1.02
			c1.046,0,1.876,0.348,2.491,1.044c0.616,0.696,0.924,1.638,0.924,2.825c0,1.224-0.307,2.179-0.92,2.865
			c-0.612,0.688-1.461,1.03-2.542,1.03c-0.669,0-1.262-0.157-1.778-0.474c-0.519-0.313-0.918-0.766-1.199-1.354
			C162.389,366.858,162.25,366.168,162.25,365.379z M163.412,365.379c0,0.959,0.19,1.69,0.574,2.192
			c0.384,0.503,0.947,0.755,1.691,0.755c0.743,0,1.309-0.25,1.694-0.75c0.385-0.502,0.578-1.232,0.578-2.197
			c0-0.955-0.193-1.68-0.578-2.176c-0.387-0.494-0.955-0.742-1.708-0.742c-0.744,0-1.307,0.244-1.686,0.732
			C163.6,363.683,163.412,364.411,163.412,365.379z"/>
		<path fill="#666666" d="M171.122,369.14v-7.492h0.923l0.185,1.013h0.055c0.232-0.365,0.56-0.646,0.979-0.849
			s0.887-0.302,1.401-0.302c0.901,0,1.581,0.219,2.036,0.652c0.456,0.437,0.685,1.133,0.685,2.09v4.888h-1.135v-4.856
			c0-0.611-0.14-1.068-0.417-1.369c-0.278-0.302-0.713-0.453-1.307-0.453c-0.784,0-1.357,0.213-1.723,0.639
			c-0.364,0.424-0.547,1.125-0.547,2.104v3.938L171.122,369.14L171.122,369.14z"/>
		<path fill="#666666" d="M179.087,365.906v-1.038h3.355v1.038H179.087z"/>
		<path fill="#666666" d="M183.214,362.529v-0.513l1.34-0.41v-0.415c0-1.833,0.805-2.75,2.413-2.75c0.396,0,0.861,0.079,1.395,0.235
			l-0.294,0.898c-0.438-0.142-0.812-0.212-1.121-0.212c-0.429,0-0.744,0.144-0.949,0.429c-0.205,0.283-0.309,0.74-0.309,1.369v0.485
			h1.907v0.882h-1.907v6.609h-1.135v-6.609L183.214,362.529L183.214,362.529z"/>
		<path fill="#666666" d="M188.402,367.077c0-1.51,1.212-2.301,3.636-2.373l1.272-0.043v-0.471c0-0.594-0.126-1.033-0.379-1.316
			c-0.252-0.285-0.656-0.426-1.211-0.426c-0.623,0-1.328,0.193-2.115,0.58l-0.353-0.871c0.369-0.197,0.772-0.352,1.213-0.465
			c0.439-0.111,0.881-0.168,1.323-0.168c0.893,0,1.554,0.198,1.982,0.596c0.432,0.396,0.646,1.031,0.646,1.906v5.113h-0.841
			l-0.227-1.055h-0.055c-0.373,0.465-0.745,0.779-1.115,0.943c-0.371,0.165-0.834,0.247-1.389,0.247
			c-0.747,0-1.332-0.19-1.755-0.571S188.402,367.78,188.402,367.077z M189.605,367.09c0,0.412,0.124,0.726,0.372,0.939
			c0.248,0.217,0.595,0.323,1.04,0.323c0.705,0,1.259-0.194,1.662-0.584c0.402-0.39,0.604-0.935,0.604-1.636v-0.68l-1.134,0.049
			c-0.899,0.031-1.55,0.172-1.947,0.422C189.804,366.174,189.605,366.563,189.605,367.09z"/>
		<path fill="#666666" d="M195.759,362.529v-0.547l1.073-0.472l0.479-1.6h0.656v1.735h2.174v0.882h-2.174v4.419
			c0,0.453,0.106,0.802,0.321,1.042c0.214,0.242,0.508,0.363,0.882,0.363c0.2,0,0.395-0.016,0.581-0.044
			c0.187-0.03,0.335-0.062,0.443-0.095v0.858c-0.123,0.06-0.305,0.106-0.543,0.146c-0.239,0.037-0.455,0.058-0.646,0.058
			c-1.449,0-2.174-0.765-2.174-2.29v-4.457L195.759,362.529L195.759,362.529z"/>
		<path fill="#666666" d="M201.131,367.077c0-1.51,1.212-2.301,3.635-2.373l1.273-0.043v-0.471c0-0.594-0.126-1.033-0.379-1.316
			c-0.253-0.285-0.656-0.426-1.212-0.426c-0.622,0-1.327,0.193-2.114,0.58l-0.354-0.871c0.369-0.197,0.773-0.352,1.213-0.465
			c0.44-0.111,0.882-0.168,1.323-0.168c0.894,0,1.554,0.198,1.983,0.596c0.431,0.396,0.646,1.031,0.646,1.906v5.113h-0.841
			l-0.226-1.055h-0.056c-0.373,0.465-0.745,0.779-1.114,0.943c-0.371,0.165-0.834,0.247-1.39,0.247c-0.747,0-1.332-0.19-1.755-0.571
			C201.343,368.323,201.131,367.78,201.131,367.077z M202.335,367.09c0,0.412,0.124,0.726,0.372,0.939
			c0.248,0.217,0.595,0.323,1.04,0.323c0.705,0,1.259-0.194,1.662-0.584c0.401-0.39,0.604-0.935,0.604-1.636v-0.68l-1.133,0.049
			c-0.9,0.031-1.55,0.172-1.948,0.422S202.335,366.563,202.335,367.09z"/>
		<path fill="#666666" d="M209.478,369.14v-10.638h1.135v10.638H209.478z"/>
		<path fill="#666666" d="M216.239,365.441c0-1.253,0.301-2.222,0.899-2.905s1.457-1.025,2.573-1.025c0.359,0,0.72,0.039,1.08,0.117
			c0.359,0.076,0.643,0.168,0.848,0.272l-0.349,0.964c-0.251-0.1-0.524-0.184-0.82-0.25c-0.296-0.064-0.559-0.099-0.786-0.099
			c-1.521,0-2.283,0.971-2.283,2.911c0,0.922,0.187,1.628,0.559,2.119c0.371,0.492,0.921,0.738,1.649,0.738
			c0.624,0,1.266-0.134,1.921-0.402v1.004c-0.501,0.261-1.133,0.391-1.894,0.391c-1.085,0-1.922-0.334-2.512-1.002
			C216.534,367.607,216.239,366.663,216.239,365.441z"/>
		<path fill="#666666" d="M222.76,367.077c0-1.51,1.212-2.301,3.635-2.373l1.273-0.043v-0.471c0-0.594-0.126-1.033-0.379-1.316
			c-0.252-0.285-0.656-0.426-1.211-0.426c-0.623,0-1.328,0.193-2.115,0.58l-0.354-0.871c0.369-0.197,0.773-0.352,1.213-0.465
			c0.44-0.111,0.882-0.168,1.323-0.168c0.894,0,1.555,0.198,1.983,0.596c0.431,0.396,0.646,1.031,0.646,1.906v5.113h-0.841
			l-0.226-1.055h-0.056c-0.373,0.465-0.745,0.779-1.114,0.943c-0.371,0.165-0.834,0.247-1.39,0.247c-0.747,0-1.332-0.19-1.755-0.571
			C222.971,368.323,222.76,367.78,222.76,367.077z M223.963,367.09c0,0.412,0.124,0.726,0.372,0.939
			c0.248,0.217,0.595,0.323,1.04,0.323c0.705,0,1.259-0.194,1.662-0.584c0.401-0.39,0.604-0.935,0.604-1.636v-0.68l-1.133,0.049
			c-0.9,0.031-1.55,0.172-1.948,0.422C224.163,366.174,223.963,366.563,223.963,367.09z"/>
		<path fill="#666666" d="M230.629,363.489c0-0.611,0.248-1.094,0.744-1.447c0.495-0.354,1.177-0.531,2.042-0.531
			c0.802,0,1.585,0.164,2.351,0.492l-0.396,0.924c-0.75-0.311-1.43-0.465-2.037-0.465c-0.539,0-0.945,0.084-1.221,0.252
			c-0.273,0.17-0.41,0.402-0.41,0.699c0,0.201,0.052,0.373,0.153,0.514c0.104,0.144,0.27,0.277,0.496,0.404
			c0.229,0.129,0.667,0.313,1.315,0.557c0.889,0.324,1.485,0.65,1.792,0.979c0.307,0.329,0.46,0.742,0.46,1.24
			c0,0.693-0.26,1.229-0.775,1.605c-0.516,0.375-1.241,0.563-2.175,0.563c-0.992,0-1.766-0.153-2.32-0.465v-1.047
			c0.359,0.182,0.745,0.325,1.156,0.432c0.412,0.104,0.81,0.157,1.191,0.157c0.594,0,1.05-0.096,1.369-0.284
			s0.479-0.479,0.479-0.866c0-0.293-0.127-0.543-0.38-0.75c-0.254-0.209-0.748-0.453-1.483-0.736
			c-0.699-0.262-1.193-0.488-1.486-0.682c-0.292-0.195-0.511-0.416-0.653-0.662C230.7,364.125,230.629,363.831,230.629,363.489z"/>
		<path fill="#666666" d="M237.369,365.456c0-1.209,0.297-2.168,0.89-2.879s1.389-1.066,2.389-1.066c0.937,0,1.676,0.31,2.222,0.927
			c0.545,0.618,0.816,1.433,0.816,2.444v0.718h-5.154c0.022,0.879,0.245,1.547,0.669,2.003c0.422,0.456,1.017,0.684,1.782,0.684
			c0.806,0,1.601-0.168,2.387-0.506v1.012c-0.4,0.174-0.778,0.299-1.136,0.373c-0.356,0.075-0.787,0.112-1.292,0.112
			c-1.104,0-1.976-0.338-2.613-1.012C237.689,367.59,237.369,366.653,237.369,365.456z M238.557,364.676h3.924
			c0-0.717-0.16-1.264-0.479-1.645c-0.319-0.381-0.776-0.57-1.369-0.57c-0.604,0-1.083,0.195-1.441,0.588
			C238.835,363.441,238.622,363.983,238.557,364.676z"/>
		<path fill="#666666" d="M245.163,363.489c0-0.611,0.248-1.094,0.743-1.447c0.496-0.354,1.178-0.531,2.042-0.531
			c0.803,0,1.585,0.164,2.352,0.492l-0.396,0.924c-0.75-0.311-1.429-0.465-2.037-0.465c-0.538,0-0.944,0.084-1.22,0.252
			c-0.273,0.17-0.411,0.402-0.411,0.699c0,0.201,0.053,0.373,0.154,0.514c0.104,0.144,0.27,0.277,0.496,0.404
			c0.229,0.129,0.667,0.313,1.314,0.557c0.89,0.324,1.486,0.65,1.793,0.979c0.307,0.329,0.46,0.742,0.46,1.24
			c0,0.693-0.26,1.229-0.775,1.605c-0.516,0.375-1.241,0.563-2.175,0.563c-0.992,0-1.767-0.153-2.32-0.465v-1.047
			c0.359,0.182,0.745,0.325,1.156,0.432c0.412,0.104,0.81,0.157,1.19,0.157c0.595,0,1.051-0.096,1.37-0.284s0.479-0.479,0.479-0.866
			c0-0.293-0.127-0.543-0.38-0.75c-0.254-0.209-0.748-0.453-1.483-0.736c-0.699-0.262-1.194-0.488-1.487-0.682
			c-0.292-0.195-0.51-0.416-0.652-0.662S245.163,363.831,245.163,363.489z"/>
	</g>
	<rect x="291.083" y="354.021" fill="#449FA2" width="17.803" height="17.804"/>
	<g>
		<path fill="#666666" d="M316.556,364.208c0-1.028,0.191-1.932,0.572-2.705c0.381-0.774,0.934-1.371,1.66-1.791
			c0.727-0.418,1.582-0.627,2.565-0.627c1.049,0,1.965,0.19,2.748,0.574l-0.492,0.996c-0.756-0.354-1.512-0.531-2.27-0.531
			c-1.098,0-1.965,0.365-2.601,1.096c-0.637,0.73-0.954,1.73-0.954,3.003c0,1.307,0.307,2.315,0.92,3.028
			c0.612,0.713,1.485,1.068,2.621,1.068c0.696,0,1.491-0.125,2.387-0.375v1.021c-0.693,0.262-1.547,0.393-2.564,0.393
			c-1.471,0-2.604-0.447-3.399-1.341S316.556,365.855,316.556,364.208z"/>
		<path fill="#666666" d="M325.322,365.461c0-1.219,0.306-2.168,0.912-2.85c0.609-0.68,1.455-1.02,2.535-1.02
			c1.047,0,1.877,0.348,2.492,1.043c0.615,0.697,0.924,1.639,0.924,2.826c0,1.224-0.307,2.179-0.92,2.865
			c-0.613,0.688-1.461,1.03-2.543,1.03c-0.668,0-1.262-0.157-1.779-0.474c-0.518-0.313-0.918-0.766-1.198-1.354
			C325.463,366.94,325.322,366.25,325.322,365.461z M326.484,365.461c0,0.959,0.191,1.69,0.574,2.192
			c0.383,0.503,0.947,0.755,1.691,0.755s1.309-0.25,1.694-0.75c0.386-0.502,0.578-1.232,0.578-2.197c0-0.955-0.192-1.68-0.578-2.176
			c-0.387-0.494-0.955-0.742-1.709-0.742c-0.744,0-1.305,0.244-1.684,0.732C326.674,363.765,326.484,364.493,326.484,365.461z"/>
		<path fill="#666666" d="M333.715,363.571c0-0.611,0.248-1.094,0.744-1.447c0.496-0.354,1.178-0.531,2.043-0.531
			c0.801,0,1.584,0.164,2.35,0.492l-0.395,0.924c-0.75-0.311-1.431-0.465-2.037-0.465c-0.539,0-0.945,0.084-1.222,0.252
			c-0.272,0.17-0.409,0.402-0.409,0.699c0,0.201,0.051,0.373,0.153,0.514c0.103,0.144,0.269,0.277,0.496,0.404
			c0.229,0.129,0.666,0.313,1.314,0.557c0.889,0.324,1.485,0.65,1.793,0.979c0.307,0.329,0.459,0.742,0.459,1.24
			c0,0.693-0.258,1.229-0.775,1.605c-0.516,0.377-1.24,0.563-2.174,0.563c-0.992,0-1.766-0.153-2.32-0.465v-1.047
			c0.359,0.182,0.744,0.325,1.156,0.432s0.809,0.157,1.191,0.157c0.594,0,1.049-0.096,1.369-0.284
			c0.319-0.188,0.479-0.479,0.479-0.866c0-0.293-0.127-0.543-0.381-0.75c-0.254-0.209-0.748-0.453-1.482-0.736
			c-0.698-0.262-1.194-0.488-1.487-0.682c-0.291-0.195-0.511-0.416-0.652-0.662C333.788,364.208,333.715,363.913,333.715,363.571z"
			/>
		<path fill="#666666" d="M339.883,362.611v-0.547l1.072-0.472l0.479-1.6h0.656v1.735h2.174v0.882h-2.174v4.419
			c0,0.453,0.106,0.802,0.322,1.042c0.213,0.242,0.508,0.363,0.881,0.363c0.201,0,0.395-0.016,0.582-0.044
			c0.186-0.03,0.334-0.062,0.442-0.095v0.858c-0.123,0.06-0.305,0.106-0.543,0.146c-0.239,0.037-0.455,0.058-0.646,0.058
			c-1.449,0-2.174-0.765-2.174-2.29v-4.457L339.883,362.611L339.883,362.611z"/>
		<path fill="#666666" d="M348.447,362.611v-0.513l1.341-0.41v-0.415c0-1.833,0.805-2.75,2.411-2.75
			c0.396,0,0.861,0.079,1.396,0.235l-0.293,0.898c-0.438-0.142-0.813-0.212-1.121-0.212c-0.43,0-0.746,0.144-0.951,0.429
			c-0.205,0.283-0.307,0.74-0.307,1.369v0.485h1.906v0.882h-1.906v6.609h-1.135v-6.609L348.447,362.611L348.447,362.611z"/>
		<path fill="#666666" d="M353.635,367.159c0-1.51,1.213-2.301,3.635-2.373l1.273-0.043v-0.471c0-0.594-0.125-1.033-0.379-1.316
			c-0.252-0.285-0.656-0.427-1.211-0.427c-0.623,0-1.328,0.194-2.115,0.581l-0.353-0.871c0.369-0.197,0.773-0.352,1.213-0.465
			c0.439-0.111,0.882-0.168,1.322-0.168c0.894,0,1.556,0.198,1.984,0.596c0.429,0.396,0.645,1.031,0.645,1.906v5.113h-0.84
			l-0.227-1.055h-0.056c-0.373,0.465-0.743,0.778-1.114,0.943s-0.834,0.247-1.39,0.247c-0.746,0-1.332-0.19-1.754-0.571
			S353.635,367.862,353.635,367.159z M354.838,367.172c0,0.412,0.125,0.726,0.373,0.939c0.248,0.217,0.594,0.323,1.039,0.323
			c0.705,0,1.26-0.194,1.662-0.584c0.401-0.39,0.604-0.935,0.604-1.636v-0.68l-1.133,0.049c-0.9,0.031-1.549,0.172-1.947,0.422
			C355.038,366.256,354.838,366.646,354.838,367.172z"/>
		<path fill="#666666" d="M360.993,362.611v-0.547l1.071-0.472l0.479-1.6h0.655v1.735h2.175v0.882h-2.175v4.419
			c0,0.453,0.107,0.802,0.322,1.042c0.213,0.242,0.508,0.363,0.881,0.363c0.201,0,0.396-0.016,0.582-0.044
			c0.187-0.03,0.334-0.062,0.443-0.095v0.858c-0.123,0.06-0.305,0.106-0.543,0.146c-0.24,0.037-0.455,0.058-0.646,0.058
			c-1.448,0-2.174-0.765-2.174-2.29v-4.457L360.993,362.611L360.993,362.611z"/>
		<path fill="#666666" d="M366.363,367.159c0-1.51,1.214-2.301,3.636-2.373l1.272-0.043v-0.471c0-0.594-0.125-1.033-0.379-1.316
			c-0.252-0.285-0.656-0.427-1.211-0.427c-0.623,0-1.328,0.194-2.115,0.581l-0.352-0.871c0.369-0.197,0.772-0.352,1.213-0.465
			c0.439-0.111,0.881-0.168,1.322-0.168c0.893,0,1.555,0.198,1.983,0.596c0.43,0.396,0.646,1.031,0.646,1.906v5.113h-0.84
			l-0.228-1.055h-0.055c-0.373,0.465-0.744,0.778-1.115,0.943s-0.834,0.247-1.389,0.247c-0.746,0-1.332-0.19-1.754-0.571
			S366.363,367.862,366.363,367.159z M367.566,367.172c0,0.412,0.125,0.726,0.373,0.939c0.248,0.217,0.594,0.323,1.039,0.323
			c0.705,0,1.26-0.194,1.662-0.584s0.604-0.935,0.604-1.636v-0.68l-1.134,0.049c-0.899,0.031-1.549,0.172-1.946,0.422
			C367.765,366.256,367.566,366.646,367.566,367.172z"/>
		<path fill="#666666" d="M374.712,369.222v-10.638h1.135v10.638H374.712z"/>
		<path fill="#666666" d="M381.472,365.523c0-1.253,0.299-2.222,0.898-2.905c0.599-0.683,1.456-1.025,2.573-1.025
			c0.359,0,0.72,0.039,1.08,0.117c0.359,0.076,0.644,0.168,0.849,0.272l-0.351,0.964c-0.25-0.1-0.522-0.184-0.819-0.25
			c-0.296-0.064-0.56-0.099-0.785-0.099c-1.523,0-2.283,0.971-2.283,2.911c0,0.922,0.186,1.627,0.557,2.119s0.922,0.738,1.65,0.738
			c0.625,0,1.266-0.134,1.922-0.402v1.004c-0.502,0.261-1.133,0.391-1.895,0.391c-1.084,0-1.923-0.334-2.513-1.002
			C381.767,367.689,381.472,366.745,381.472,365.523z"/>
		<path fill="#666666" d="M387.993,367.159c0-1.51,1.213-2.301,3.635-2.373l1.272-0.043v-0.471c0-0.594-0.125-1.033-0.379-1.316
			c-0.252-0.285-0.656-0.427-1.211-0.427c-0.623,0-1.328,0.194-2.115,0.581l-0.352-0.871c0.369-0.197,0.772-0.352,1.213-0.465
			c0.439-0.111,0.881-0.168,1.322-0.168c0.893,0,1.555,0.198,1.983,0.596c0.43,0.396,0.646,1.031,0.646,1.906v5.113h-0.84
			l-0.228-1.055h-0.055c-0.373,0.465-0.744,0.778-1.115,0.943s-0.834,0.247-1.389,0.247c-0.746,0-1.332-0.19-1.754-0.571
			S387.993,367.862,387.993,367.159z M389.195,367.172c0,0.412,0.125,0.726,0.373,0.939c0.248,0.217,0.595,0.323,1.039,0.323
			c0.705,0,1.261-0.194,1.662-0.584c0.402-0.39,0.604-0.935,0.604-1.636v-0.68l-1.134,0.049c-0.899,0.031-1.549,0.172-1.946,0.422
			C389.394,366.256,389.195,366.646,389.195,367.172z"/>
		<path fill="#666666" d="M395.861,363.571c0-0.611,0.248-1.094,0.744-1.447c0.496-0.354,1.179-0.531,2.043-0.531
			c0.802,0,1.584,0.164,2.351,0.492l-0.396,0.924c-0.75-0.311-1.43-0.465-2.037-0.465c-0.539,0-0.944,0.084-1.221,0.252
			c-0.273,0.17-0.41,0.402-0.41,0.699c0,0.201,0.051,0.373,0.154,0.514c0.102,0.144,0.268,0.277,0.496,0.404
			c0.229,0.129,0.666,0.313,1.313,0.557c0.89,0.324,1.486,0.65,1.793,0.979c0.308,0.329,0.459,0.742,0.459,1.24
			c0,0.693-0.258,1.229-0.774,1.605s-1.24,0.563-2.174,0.563c-0.992,0-1.767-0.153-2.32-0.465v-1.047
			c0.358,0.182,0.744,0.325,1.156,0.432c0.411,0.106,0.809,0.157,1.19,0.157c0.594,0,1.049-0.096,1.369-0.284s0.48-0.479,0.48-0.866
			c0-0.293-0.127-0.543-0.382-0.75c-0.254-0.209-0.747-0.453-1.481-0.736c-0.699-0.262-1.195-0.488-1.488-0.682
			c-0.291-0.195-0.51-0.416-0.651-0.662C395.933,364.208,395.861,363.913,395.861,363.571z"/>
		<path fill="#666666" d="M402.601,365.538c0-1.209,0.297-2.168,0.889-2.879c0.595-0.711,1.39-1.066,2.39-1.066
			c0.936,0,1.676,0.31,2.221,0.927c0.545,0.618,0.818,1.433,0.818,2.444v0.718h-5.154c0.021,0.879,0.244,1.547,0.668,2.003
			c0.422,0.456,1.016,0.684,1.783,0.684c0.805,0,1.6-0.169,2.385-0.506v1.012c-0.4,0.174-0.777,0.299-1.135,0.373
			c-0.357,0.075-0.787,0.112-1.291,0.112c-1.105,0-1.978-0.338-2.615-1.012C402.922,367.672,402.601,366.735,402.601,365.538z
			 M403.792,364.758h3.924c0-0.717-0.16-1.264-0.48-1.645c-0.317-0.381-0.774-0.57-1.369-0.57c-0.602,0-1.081,0.195-1.44,0.588
			C404.066,363.522,403.853,364.065,403.792,364.758z"/>
		<path fill="#666666" d="M410.394,363.571c0-0.611,0.248-1.094,0.744-1.447c0.496-0.354,1.178-0.531,2.043-0.531
			c0.801,0,1.584,0.164,2.35,0.492l-0.395,0.924c-0.75-0.311-1.43-0.465-2.037-0.465c-0.539,0-0.945,0.084-1.221,0.252
			c-0.273,0.17-0.41,0.402-0.41,0.699c0,0.201,0.051,0.373,0.154,0.514c0.102,0.144,0.268,0.277,0.495,0.404
			c0.229,0.129,0.666,0.313,1.314,0.557c0.889,0.324,1.486,0.65,1.793,0.979c0.307,0.329,0.459,0.742,0.459,1.24
			c0,0.693-0.258,1.229-0.775,1.605c-0.516,0.377-1.239,0.563-2.174,0.563c-0.992,0-1.766-0.153-2.319-0.465v-1.047
			c0.358,0.182,0.743,0.325,1.155,0.432s0.81,0.157,1.191,0.157c0.594,0,1.049-0.096,1.369-0.284s0.479-0.479,0.479-0.866
			c0-0.293-0.127-0.543-0.381-0.75c-0.254-0.209-0.748-0.453-1.481-0.736c-0.699-0.262-1.195-0.488-1.488-0.682
			c-0.291-0.195-0.51-0.416-0.652-0.662C410.467,364.208,410.394,363.913,410.394,363.571z"/>
	</g>
</g>
<g id="more">
	<circle id="more3" fill="none" stroke="#67ABAD" stroke-miterlimit="10" cx="495.515" cy="12.711" r="9.439"/>
	<rect id="more2" x="494.815" y="8.679" fill="#67ABAD" width="1.292" height="8.122"/>
	<rect id="more1" x="491.4" y="12.094" fill="#67ABAD" width="8.122" height="1.292"/>
</g>
</svg>
