<?xml version="1.0" encoding="utf-8"?>
<!-- Generator: Adobe Illustrator 16.0.0, SVG Export Plug-In . SVG Version: 6.00 Build 0)  -->
<!DOCTYPE svg PUBLIC "-//W3C//DTD SVG 1.1//EN" "http://www.w3.org/Graphics/SVG/1.1/DTD/svg11.dtd">
<svg version="1.1" id="Capa_1" xmlns="http://www.w3.org/2000/svg" xmlns:xlink="http://www.w3.org/1999/xlink" x="0px" y="0px"
	 width="510.236px" height="382.676px" viewBox="0 0 510.236 382.676" enable-background="new 0 0 510.236 382.676"
	 xml:space="preserve">
<g>
	<rect x="372.049" y="211.811" fill="#449FA2" width="100.493" height="110.943"/>
	<rect x="372.049" y="74.773" fill="#F2C466" width="100.493" height="137.038"/>
</g>
<g>
	<path fill="#9A999E" d="M292.852,77.02v-1.283l6.1-8.693h1.547v8.64h1.926v1.336h-1.926v2.944h-1.379V77.02H292.852z
		 M294.329,75.684h4.791v-4.271c0-0.838,0.029-1.784,0.088-2.839h-0.07c-0.281,0.563-0.545,1.028-0.791,1.397L294.329,75.684z"/>
	<path fill="#9A999E" d="M303.61,68.45v-1.336h8.553v1.161l-5.256,11.688h-1.617l5.326-11.514H303.61z"/>
	<path fill="#9A999E" d="M314.104,74.475c0-2.526,0.49-4.416,1.473-5.667c0.98-1.251,2.434-1.877,4.355-1.877
		c0.664,0,1.188,0.056,1.57,0.167v1.274c-0.453-0.17-0.971-0.255-1.553-0.255c-1.377,0-2.43,0.431-3.156,1.292
		c-0.727,0.862-1.125,2.215-1.195,4.062h0.105c0.645-0.997,1.664-1.495,3.059-1.495c1.16,0,2.074,0.348,2.742,1.043
		c0.668,0.695,1.002,1.64,1.002,2.832c0,1.333-0.365,2.382-1.098,3.145c-0.734,0.763-1.725,1.145-2.971,1.145
		c-1.33,0-2.385-0.499-3.164-1.498C314.495,77.644,314.104,76.255,314.104,74.475z M315.598,75.524c0,0.605,0.117,1.169,0.352,1.693
		c0.234,0.523,0.568,0.937,0.998,1.243c0.432,0.306,0.922,0.458,1.473,0.458c0.832,0,1.477-0.263,1.938-0.789
		c0.459-0.526,0.689-1.286,0.689-2.279c0-0.852-0.213-1.522-0.641-2.01c-0.428-0.487-1.066-0.731-1.916-0.731
		c-0.527,0-1.012,0.109-1.451,0.326s-0.789,0.517-1.049,0.899C315.729,74.716,315.598,75.113,315.598,75.524z"/>
</g>
<g>
	<path fill="#FFFFFF" d="M414.434,144.775h-10.258v-2.158l3.684-3.724c1.092-1.118,1.803-1.892,2.139-2.324
		c0.334-0.432,0.574-0.831,0.723-1.199c0.146-0.368,0.221-0.75,0.221-1.145c0-0.588-0.162-1.027-0.486-1.315
		c-0.326-0.288-0.758-0.432-1.301-0.432c-0.568,0-1.121,0.131-1.656,0.392c-0.535,0.261-1.094,0.632-1.676,1.114l-1.686-1.998
		c0.723-0.615,1.32-1.05,1.795-1.305c0.477-0.254,0.994-0.45,1.557-0.587c0.563-0.137,1.191-0.206,1.887-0.206
		c0.918,0,1.727,0.167,2.43,0.502s1.248,0.803,1.637,1.405c0.387,0.602,0.582,1.292,0.582,2.067c0,0.676-0.119,1.31-0.357,1.902
		c-0.236,0.592-0.605,1.199-1.104,1.822c-0.498,0.622-1.377,1.509-2.635,2.66l-1.887,1.777v0.14h6.393V144.775z"/>
	<path fill="#FFFFFF" d="M415.809,138.542c0-2.904,0.615-5.065,1.842-6.484c1.229-1.418,3.066-2.128,5.516-2.128
		c0.836,0,1.492,0.05,1.967,0.15v2.479c-0.594-0.134-1.184-0.201-1.766-0.201c-1.064,0-1.932,0.161-2.605,0.481
		c-0.672,0.321-1.176,0.797-1.51,1.425c-0.334,0.629-0.531,1.522-0.592,2.68h0.131c0.662-1.138,1.723-1.707,3.182-1.707
		c1.311,0,2.338,0.412,3.08,1.235c0.744,0.823,1.115,1.96,1.115,3.413c0,1.566-0.441,2.806-1.326,3.719
		c-0.883,0.914-2.107,1.37-3.672,1.37c-1.084,0-2.029-0.251-2.836-0.753c-0.807-0.501-1.43-1.234-1.867-2.198
		C416.028,141.062,415.809,139.901,415.809,138.542z M421.11,142.497c0.662,0,1.17-0.223,1.525-0.667
		c0.354-0.445,0.531-1.079,0.531-1.902c0-0.716-0.166-1.28-0.496-1.691c-0.332-0.412-0.832-0.618-1.5-0.618
		c-0.631,0-1.166,0.205-1.611,0.612c-0.445,0.408-0.668,0.883-0.668,1.425c0,0.796,0.209,1.469,0.627,2.018
		C419.936,142.223,420.468,142.497,421.11,142.497z"/>
	<path fill="#FFFFFF" d="M437.821,137.438c0,2.563-0.42,4.46-1.26,5.691c-0.84,1.231-2.133,1.847-3.879,1.847
		c-1.693,0-2.969-0.636-3.83-1.907c-0.859-1.271-1.289-3.148-1.289-5.631c0-2.589,0.418-4.498,1.254-5.726
		c0.838-1.228,2.125-1.842,3.865-1.842c1.693,0,2.973,0.642,3.84,1.927C437.387,133.082,437.821,134.962,437.821,137.438z
		 M430.645,137.438c0,1.8,0.154,3.09,0.467,3.87c0.311,0.779,0.834,1.169,1.57,1.169c0.723,0,1.244-0.395,1.566-1.185
		c0.32-0.79,0.48-2.074,0.48-3.854c0-1.8-0.162-3.093-0.486-3.879c-0.324-0.786-0.844-1.179-1.561-1.179
		c-0.729,0-1.252,0.393-1.566,1.179C430.802,134.345,430.645,135.638,430.645,137.438z"/>
</g>
<g>
	<path fill="#FFFFFF" d="M414.434,261.034h-10.258v-2.158l3.684-3.724c1.092-1.117,1.803-1.893,2.139-2.324
		c0.334-0.432,0.574-0.83,0.723-1.199c0.146-0.367,0.221-0.749,0.221-1.145c0-0.588-0.162-1.026-0.486-1.314
		c-0.326-0.287-0.758-0.432-1.301-0.432c-0.568,0-1.121,0.131-1.656,0.392s-1.094,0.632-1.676,1.114l-1.686-1.998
		c0.723-0.615,1.32-1.05,1.795-1.305c0.477-0.254,0.994-0.449,1.557-0.587c0.563-0.137,1.191-0.206,1.887-0.206
		c0.918,0,1.727,0.168,2.43,0.502c0.703,0.335,1.248,0.803,1.637,1.406c0.387,0.602,0.582,1.291,0.582,2.066
		c0,0.677-0.119,1.311-0.357,1.902c-0.236,0.592-0.605,1.199-1.104,1.822c-0.498,0.622-1.377,1.509-2.635,2.66l-1.887,1.776v0.14
		h6.393V261.034z"/>
	<path fill="#FFFFFF" d="M423.579,261.034h-3.102v-8.491l0.029-1.396l0.051-1.526c-0.516,0.516-0.873,0.854-1.074,1.015
		l-1.686,1.354l-1.496-1.867l4.729-3.764h2.549V261.034z"/>
	<path fill="#FFFFFF" d="M427.544,254.801c0-2.904,0.613-5.064,1.842-6.484c1.227-1.418,3.066-2.127,5.516-2.127
		c0.836,0,1.492,0.05,1.967,0.15v2.479c-0.596-0.133-1.184-0.2-1.768-0.2c-1.063,0-1.932,0.161-2.604,0.481
		c-0.672,0.321-1.176,0.797-1.512,1.426c-0.334,0.629-0.531,1.521-0.592,2.68h0.131c0.662-1.138,1.723-1.707,3.182-1.707
		c1.313,0,2.34,0.412,3.082,1.235s1.113,1.96,1.113,3.413c0,1.565-0.441,2.805-1.324,3.719c-0.883,0.913-2.107,1.369-3.674,1.369
		c-1.084,0-2.029-0.25-2.836-0.752s-1.428-1.234-1.867-2.198C427.762,257.32,427.544,256.16,427.544,254.801z M432.843,258.756
		c0.662,0,1.172-0.223,1.525-0.668c0.355-0.445,0.533-1.078,0.533-1.902c0-0.715-0.166-1.279-0.498-1.69
		c-0.33-0.411-0.83-0.618-1.5-0.618c-0.629,0-1.166,0.205-1.611,0.613s-0.668,0.883-0.668,1.425c0,0.796,0.211,1.47,0.629,2.018
		C431.671,258.481,432.2,258.756,432.843,258.756z"/>
</g>
<rect x="110.319" y="188.787" fill="#449FA2" width="100.49" height="133.97"/>
<rect x="110.319" y="74.726" fill="#F2C466" width="100.49" height="114.061"/>
<path fill="#87868A" d="M45.182,152.019h-1.313v-1.529l-0.428,0.021h-0.448l-0.813-0.021v1.528h-1.313v-1.652
	c-1.771-0.265-3.147-0.894-4.146-1.885c-0.992-0.992-1.484-2.292-1.484-3.902c0-1.365,0.334-2.608,1.002-3.729l1.42,0.724
	c-0.582,1.128-0.872,2.13-0.872,3.006c0,2.167,1.357,3.519,4.086,4.055v-5.195h1.311v5.319l0.581,0.021h0.646l0.458-0.021v-4.698
	h1.313v4.554c1.229-0.251,2.185-0.721,2.854-1.41c0.675-0.689,1.015-1.611,1.015-2.767c0-1.06-0.229-2.109-0.682-3.148h1.521
	c0.438,0.992,0.651,2.068,0.651,3.23c0,1.609-0.457,2.905-1.371,3.887c-0.913,0.981-2.241,1.628-3.987,1.94V152.019L45.182,152.019z
	"/>
<line fill="none" stroke="#000000" stroke-width="0.25" stroke-miterlimit="10" x1="210.81" y1="322.754" x2="66.381" y2="322.754"/>
<line fill="none" stroke="#000000" stroke-width="0.25" stroke-miterlimit="10" x1="80.1" y1="74.725" x2="80.1" y2="322.754"/>
<line fill="none" stroke="#000000" stroke-width="0.25" stroke-miterlimit="10" x1="210.81" y1="74.725" x2="66.381" y2="74.725"/>
<path fill="#87868A" d="M311.846,151.387h-1.314v-1.528l-0.428,0.021h-0.449l-0.813-0.021v1.528h-1.314v-1.652
	c-1.77-0.265-3.146-0.894-4.146-1.885c-0.991-0.992-1.487-2.292-1.487-3.902c0-1.365,0.334-2.608,1.002-3.729l1.418,0.724
	c-0.58,1.128-0.871,2.13-0.871,3.006c0,2.167,1.361,3.519,4.086,4.055v-5.195h1.314v5.319l0.582,0.021h0.645l0.461-0.021v-4.698
	h1.313v4.554c1.229-0.251,2.182-0.721,2.854-1.41c0.681-0.689,1.017-1.611,1.017-2.767c0-1.06-0.229-2.109-0.688-3.148h1.521
	c0.436,0.992,0.647,2.068,0.647,3.23c0,1.609-0.452,2.905-1.366,3.887c-0.913,0.981-2.242,1.628-3.988,1.94v1.671H311.846z"/>
<line fill="none" stroke="#000000" stroke-width="0.25" stroke-miterlimit="10" x1="341.838" y1="74.724" x2="341.838" y2="322.754"/>
<line fill="none" stroke="#000000" stroke-width="0.25" stroke-miterlimit="10" x1="472.548" y1="322.754" x2="328.108" y2="322.754"/>
<g>
	<line fill="none" x1="472.548" y1="74.724" x2="328.108" y2="74.724"/>
</g>
<rect x="96.538" y="354.105" fill="#F2C466" width="17.804" height="17.801"/>
<g>
	<path fill="#666666" d="M121.177,364.125c0-1.027,0.188-1.932,0.569-2.705c0.382-0.773,0.937-1.371,1.66-1.791
		c0.729-0.418,1.582-0.627,2.566-0.627c1.049,0,1.965,0.189,2.748,0.574l-0.492,0.996c-0.756-0.354-1.514-0.531-2.271-0.531
		c-1.099,0-1.966,0.365-2.601,1.098c-0.637,0.729-0.955,1.729-0.955,3.002c0,1.309,0.308,2.314,0.92,3.027
		c0.613,0.713,1.486,1.068,2.621,1.068c0.697,0,1.492-0.125,2.387-0.375v1.021c-0.69,0.263-1.547,0.394-2.563,0.394
		c-1.473,0-2.605-0.446-3.4-1.342C121.574,367.04,121.177,365.771,121.177,364.125z"/>
	<path fill="#666666" d="M129.942,365.379c0-1.219,0.305-2.168,0.913-2.85c0.607-0.68,1.454-1.021,2.535-1.021
		c1.046,0,1.876,0.35,2.489,1.044c0.615,0.696,0.926,1.64,0.926,2.825c0,1.225-0.31,2.18-0.922,2.865
		c-0.611,0.688-1.461,1.029-2.542,1.029c-0.669,0-1.263-0.156-1.777-0.475c-0.52-0.313-0.918-0.766-1.199-1.354
		C130.083,366.857,129.942,366.168,129.942,365.379z M131.104,365.379c0,0.959,0.189,1.689,0.575,2.191
		c0.383,0.504,0.944,0.756,1.688,0.756c0.743,0,1.312-0.25,1.694-0.75c0.385-0.502,0.578-1.232,0.578-2.197
		c0-0.955-0.193-1.68-0.578-2.176c-0.387-0.494-0.955-0.742-1.708-0.742c-0.744,0-1.308,0.244-1.687,0.732
		C131.295,363.684,131.104,364.411,131.104,365.379z"/>
	<path fill="#666666" d="M138.337,363.489c0-0.611,0.247-1.095,0.743-1.447c0.496-0.354,1.178-0.53,2.042-0.53
		c0.803,0,1.585,0.163,2.354,0.491l-0.396,0.925c-0.75-0.312-1.429-0.466-2.037-0.466c-0.539,0-0.942,0.084-1.22,0.252
		c-0.273,0.171-0.411,0.402-0.411,0.699c0,0.201,0.053,0.373,0.154,0.515c0.103,0.145,0.269,0.276,0.496,0.403
		c0.229,0.129,0.667,0.313,1.313,0.558c0.892,0.323,1.486,0.649,1.792,0.979c0.31,0.329,0.46,0.741,0.46,1.239
		c0,0.692-0.259,1.229-0.772,1.604c-0.519,0.375-1.241,0.563-2.175,0.563c-0.992,0-1.769-0.153-2.32-0.465v-1.047
		c0.357,0.182,0.745,0.323,1.156,0.432c0.41,0.104,0.81,0.156,1.188,0.156c0.595,0,1.051-0.097,1.37-0.283
		c0.319-0.188,0.479-0.479,0.479-0.866c0-0.293-0.129-0.543-0.382-0.75c-0.255-0.209-0.748-0.453-1.481-0.735
		c-0.699-0.263-1.194-0.488-1.487-0.683c-0.292-0.195-0.51-0.416-0.651-0.662C138.408,364.126,138.337,363.831,138.337,363.489z"/>
	<path fill="#666666" d="M144.503,362.529v-0.547l1.072-0.474l0.479-1.6h0.654v1.733h2.174v0.883h-2.174v4.418
		c0,0.453,0.106,0.804,0.32,1.043c0.214,0.242,0.508,0.363,0.882,0.363c0.2,0,0.396-0.017,0.581-0.045
		c0.188-0.029,0.335-0.062,0.444-0.095v0.858c-0.123,0.06-0.307,0.104-0.543,0.146c-0.24,0.037-0.455,0.058-0.646,0.058
		c-1.448,0-2.174-0.765-2.174-2.289v-4.457L144.503,362.529L144.503,362.529z"/>
	<path fill="#666666" d="M154.072,369.141v-7.492h0.923l0.188,1.014h0.055c0.23-0.365,0.559-0.646,0.979-0.85s0.889-0.303,1.4-0.303
		c0.902,0,1.581,0.219,2.037,0.652c0.456,0.438,0.684,1.133,0.684,2.09v4.889H159.2v-4.855c0-0.611-0.139-1.068-0.417-1.369
		c-0.277-0.302-0.713-0.453-1.306-0.453c-0.784,0-1.358,0.213-1.725,0.641c-0.362,0.424-0.548,1.125-0.548,2.104v3.938
		L154.072,369.141L154.072,369.141z"/>
	<path fill="#666666" d="M162.25,365.379c0-1.219,0.307-2.168,0.913-2.85c0.608-0.68,1.453-1.021,2.534-1.021
		c1.046,0,1.876,0.35,2.491,1.044c0.616,0.696,0.924,1.64,0.924,2.825c0,1.225-0.307,2.18-0.92,2.865
		c-0.612,0.688-1.461,1.029-2.542,1.029c-0.669,0-1.262-0.156-1.778-0.475c-0.519-0.313-0.918-0.766-1.199-1.354
		C162.389,366.857,162.25,366.168,162.25,365.379z M163.412,365.379c0,0.959,0.19,1.689,0.574,2.191
		c0.384,0.504,0.947,0.756,1.691,0.756c0.741,0,1.309-0.25,1.692-0.75c0.385-0.502,0.578-1.232,0.578-2.197
		c0-0.955-0.193-1.68-0.578-2.176c-0.387-0.494-0.955-0.742-1.708-0.742c-0.744,0-1.307,0.244-1.686,0.732
		C163.6,363.684,163.412,364.411,163.412,365.379z"/>
	<path fill="#666666" d="M171.122,369.141v-7.492h0.923l0.187,1.014h0.055c0.232-0.365,0.562-0.646,0.979-0.85
		s0.887-0.303,1.399-0.303c0.901,0,1.581,0.219,2.036,0.652c0.456,0.438,0.687,1.133,0.687,2.09v4.889h-1.137v-4.855
		c0-0.611-0.14-1.068-0.417-1.369c-0.276-0.302-0.713-0.453-1.307-0.453c-0.784,0-1.357,0.213-1.723,0.641
		c-0.364,0.424-0.549,1.125-0.549,2.104v3.938L171.122,369.141L171.122,369.141z"/>
	<path fill="#666666" d="M179.087,365.906v-1.038h3.355v1.038H179.087z"/>
	<path fill="#666666" d="M183.214,362.529v-0.514l1.342-0.41v-0.414c0-1.834,0.805-2.75,2.411-2.75c0.396,0,0.861,0.078,1.396,0.233
		l-0.294,0.898c-0.438-0.144-0.813-0.214-1.121-0.214c-0.429,0-0.744,0.146-0.949,0.431c-0.205,0.282-0.309,0.739-0.309,1.369v0.483
		h1.907v0.883h-1.907v6.608h-1.135v-6.608L183.214,362.529L183.214,362.529z"/>
	<path fill="#666666" d="M188.402,367.077c0-1.511,1.212-2.302,3.636-2.373l1.272-0.043v-0.472c0-0.594-0.126-1.032-0.379-1.315
		c-0.252-0.285-0.656-0.426-1.211-0.426c-0.623,0-1.328,0.192-2.115,0.579l-0.354-0.87c0.369-0.197,0.772-0.353,1.213-0.466
		c0.439-0.11,0.883-0.168,1.323-0.168c0.895,0,1.554,0.199,1.982,0.597c0.432,0.396,0.646,1.03,0.646,1.905v5.113h-0.841
		l-0.227-1.056h-0.057c-0.373,0.465-0.745,0.778-1.114,0.942c-0.37,0.164-0.835,0.246-1.39,0.246c-0.747,0-1.332-0.188-1.755-0.569
		C188.609,368.32,188.402,367.779,188.402,367.077z M189.605,367.09c0,0.412,0.124,0.727,0.372,0.939
		c0.248,0.217,0.595,0.322,1.04,0.322c0.705,0,1.259-0.193,1.662-0.584c0.4-0.391,0.604-0.936,0.604-1.637v-0.68l-1.134,0.049
		c-0.899,0.031-1.55,0.172-1.947,0.422C189.804,366.174,189.605,366.563,189.605,367.09z"/>
	<path fill="#666666" d="M195.759,362.529v-0.547l1.073-0.474l0.479-1.6h0.654v1.733h2.176v0.883h-2.176v4.418
		c0,0.453,0.106,0.804,0.321,1.043c0.214,0.242,0.508,0.363,0.882,0.363c0.2,0,0.396-0.017,0.581-0.045
		c0.188-0.029,0.335-0.062,0.443-0.095v0.858c-0.123,0.06-0.305,0.104-0.543,0.146c-0.239,0.037-0.455,0.058-0.646,0.058
		c-1.447,0-2.174-0.765-2.174-2.289v-4.457L195.759,362.529L195.759,362.529z"/>
	<path fill="#666666" d="M201.131,367.077c0-1.511,1.212-2.302,3.637-2.373l1.271-0.043v-0.472c0-0.594-0.126-1.032-0.379-1.315
		c-0.253-0.285-0.656-0.426-1.212-0.426c-0.622,0-1.327,0.192-2.114,0.579l-0.354-0.87c0.369-0.197,0.771-0.353,1.213-0.466
		c0.438-0.11,0.882-0.168,1.323-0.168c0.894,0,1.554,0.199,1.981,0.597c0.433,0.396,0.646,1.03,0.646,1.905v5.113h-0.841
		l-0.228-1.056h-0.056c-0.373,0.465-0.745,0.778-1.114,0.942c-0.371,0.164-0.834,0.246-1.39,0.246c-0.747,0-1.332-0.188-1.756-0.569
		C201.343,368.323,201.131,367.779,201.131,367.077z M202.335,367.09c0,0.412,0.124,0.727,0.372,0.939
		c0.248,0.217,0.597,0.322,1.04,0.322c0.705,0,1.259-0.193,1.662-0.584c0.401-0.391,0.604-0.936,0.604-1.637v-0.68l-1.135,0.049
		c-0.898,0.031-1.55,0.172-1.946,0.422C202.534,366.173,202.335,366.563,202.335,367.09z"/>
	<path fill="#666666" d="M209.478,369.141v-10.639h1.135v10.639H209.478z"/>
	<path fill="#666666" d="M216.239,365.441c0-1.254,0.301-2.224,0.899-2.905c0.598-0.683,1.457-1.024,2.571-1.024
		c0.359,0,0.722,0.038,1.08,0.116c0.359,0.076,0.645,0.168,0.85,0.272l-0.351,0.964c-0.251-0.101-0.522-0.185-0.818-0.25
		c-0.298-0.064-0.561-0.099-0.786-0.099c-1.521,0-2.283,0.971-2.283,2.909c0,0.923,0.187,1.63,0.559,2.119
		c0.371,0.492,0.921,0.738,1.649,0.738c0.624,0,1.266-0.136,1.921-0.402v1.004c-0.501,0.263-1.133,0.392-1.894,0.392
		c-1.087,0-1.924-0.334-2.514-1.002C216.534,367.607,216.239,366.663,216.239,365.441z"/>
	<path fill="#666666" d="M222.76,367.077c0-1.511,1.214-2.302,3.637-2.373l1.271-0.043v-0.472c0-0.594-0.126-1.032-0.379-1.315
		c-0.252-0.285-0.656-0.426-1.211-0.426c-0.623,0-1.328,0.192-2.115,0.579l-0.354-0.87c0.369-0.197,0.771-0.353,1.213-0.466
		c0.44-0.11,0.882-0.168,1.323-0.168c0.894,0,1.555,0.199,1.981,0.597c0.433,0.396,0.646,1.03,0.646,1.905v5.113h-0.841
		l-0.228-1.056h-0.056c-0.373,0.465-0.745,0.778-1.114,0.942c-0.371,0.164-0.834,0.246-1.39,0.246c-0.747,0-1.332-0.188-1.755-0.569
		C222.971,368.323,222.76,367.779,222.76,367.077z M223.963,367.09c0,0.412,0.124,0.727,0.372,0.939
		c0.248,0.217,0.597,0.322,1.04,0.322c0.705,0,1.259-0.193,1.662-0.584c0.401-0.391,0.604-0.936,0.604-1.637v-0.68l-1.135,0.049
		c-0.898,0.031-1.55,0.172-1.946,0.422C224.163,366.174,223.963,366.563,223.963,367.09z"/>
	<path fill="#666666" d="M230.629,363.489c0-0.611,0.248-1.095,0.744-1.447c0.495-0.354,1.177-0.53,2.042-0.53
		c0.802,0,1.585,0.163,2.353,0.491l-0.396,0.925c-0.75-0.312-1.43-0.466-2.037-0.466c-0.539,0-0.943,0.084-1.221,0.252
		c-0.273,0.171-0.41,0.402-0.41,0.699c0,0.201,0.052,0.373,0.153,0.515c0.104,0.145,0.27,0.276,0.496,0.403
		c0.229,0.129,0.667,0.313,1.313,0.558c0.891,0.323,1.485,0.649,1.792,0.979c0.309,0.329,0.46,0.741,0.46,1.239
		c0,0.692-0.26,1.229-0.773,1.604c-0.518,0.375-1.241,0.563-2.175,0.563c-0.992,0-1.768-0.153-2.32-0.465v-1.047
		c0.357,0.182,0.745,0.323,1.156,0.432c0.41,0.104,0.81,0.156,1.189,0.156c0.594,0,1.05-0.097,1.369-0.283
		c0.319-0.188,0.479-0.479,0.479-0.866c0-0.293-0.129-0.543-0.382-0.75c-0.254-0.209-0.748-0.453-1.481-0.735
		c-0.699-0.263-1.193-0.488-1.486-0.683c-0.292-0.195-0.511-0.416-0.653-0.662C230.7,364.125,230.629,363.831,230.629,363.489z"/>
	<path fill="#666666" d="M237.369,365.456c0-1.209,0.297-2.168,0.89-2.879c0.595-0.711,1.391-1.066,2.391-1.066
		c0.937,0,1.676,0.31,2.222,0.927c0.545,0.619,0.816,1.435,0.816,2.444v0.718h-5.154c0.022,0.879,0.245,1.547,0.669,2.004
		c0.422,0.455,1.018,0.685,1.782,0.685c0.806,0,1.601-0.168,2.387-0.507v1.013c-0.398,0.174-0.778,0.299-1.136,0.373
		c-0.356,0.073-0.787,0.11-1.292,0.11c-1.104,0-1.978-0.338-2.613-1.012C237.689,367.59,237.369,366.652,237.369,365.456z
		 M238.557,364.676h3.924c0-0.717-0.16-1.264-0.479-1.645c-0.317-0.381-0.774-0.57-1.369-0.57c-0.604,0-1.083,0.195-1.439,0.588
		C238.836,363.441,238.622,363.982,238.557,364.676z"/>
	<path fill="#666666" d="M245.163,363.489c0-0.611,0.248-1.095,0.743-1.447c0.496-0.354,1.178-0.53,2.042-0.53
		c0.803,0,1.585,0.163,2.352,0.491l-0.396,0.925c-0.75-0.312-1.429-0.466-2.037-0.466c-0.538,0-0.944,0.084-1.22,0.252
		c-0.273,0.171-0.411,0.402-0.411,0.699c0,0.201,0.053,0.373,0.154,0.515c0.104,0.145,0.27,0.276,0.496,0.403
		c0.229,0.129,0.667,0.313,1.313,0.558c0.89,0.323,1.486,0.649,1.793,0.979s0.46,0.741,0.46,1.239c0,0.692-0.26,1.229-0.773,1.604
		c-0.518,0.375-1.241,0.563-2.177,0.563c-0.99,0-1.767-0.153-2.318-0.465v-1.047c0.357,0.182,0.745,0.323,1.154,0.432
		c0.412,0.104,0.812,0.156,1.19,0.156c0.595,0,1.051-0.097,1.37-0.283c0.318-0.188,0.479-0.479,0.479-0.866
		c0-0.293-0.127-0.543-0.38-0.75c-0.254-0.209-0.748-0.453-1.481-0.735c-0.699-0.263-1.194-0.488-1.487-0.683
		c-0.292-0.195-0.51-0.416-0.652-0.662C245.234,364.126,245.163,363.831,245.163,363.489z"/>
</g>
<rect x="291.083" y="354.021" fill="#449FA2" width="17.805" height="17.804"/>
<g>
	<path fill="#666666" d="M316.556,364.208c0-1.028,0.189-1.933,0.572-2.705c0.381-0.774,0.934-1.371,1.658-1.791
		c0.729-0.418,1.582-0.627,2.565-0.627c1.049,0,1.965,0.19,2.748,0.574l-0.492,0.996c-0.756-0.354-1.512-0.531-2.27-0.531
		c-1.1,0-1.967,0.365-2.603,1.097c-0.637,0.729-0.954,1.729-0.954,3.002c0,1.309,0.309,2.315,0.92,3.028
		c0.612,0.713,1.485,1.067,2.621,1.067c0.696,0,1.491-0.125,2.389-0.375v1.021c-0.693,0.263-1.549,0.394-2.564,0.394
		c-1.471,0-2.604-0.446-3.399-1.34C316.954,367.123,316.556,365.855,316.556,364.208z"/>
	<path fill="#666666" d="M325.322,365.461c0-1.219,0.308-2.168,0.912-2.85c0.609-0.68,1.455-1.021,2.535-1.021
		c1.047,0,1.877,0.35,2.492,1.043c0.614,0.697,0.924,1.641,0.924,2.826c0,1.225-0.307,2.18-0.92,2.865
		c-0.613,0.688-1.461,1.029-2.543,1.029c-0.668,0-1.262-0.158-1.779-0.475c-0.518-0.313-0.918-0.766-1.198-1.354
		C325.465,366.939,325.322,366.25,325.322,365.461z M326.484,365.461c0,0.959,0.191,1.689,0.574,2.191
		c0.383,0.504,0.947,0.756,1.689,0.756c0.744,0,1.311-0.25,1.694-0.75c0.386-0.502,0.578-1.232,0.578-2.197
		c0-0.955-0.192-1.68-0.578-2.176c-0.387-0.494-0.955-0.742-1.709-0.742c-0.744,0-1.305,0.244-1.684,0.732
		C326.676,363.766,326.484,364.493,326.484,365.461z"/>
	<path fill="#666666" d="M333.717,363.57c0-0.61,0.248-1.094,0.744-1.446c0.494-0.354,1.178-0.531,2.043-0.531
		c0.801,0,1.584,0.164,2.35,0.492l-0.396,0.924c-0.75-0.311-1.431-0.465-2.035-0.465c-0.539,0-0.945,0.084-1.224,0.252
		c-0.271,0.17-0.409,0.402-0.409,0.699c0,0.2,0.053,0.373,0.153,0.515c0.104,0.145,0.271,0.276,0.496,0.403
		c0.229,0.129,0.666,0.313,1.314,0.558c0.889,0.323,1.483,0.649,1.793,0.979c0.307,0.329,0.459,0.741,0.459,1.239
		c0,0.692-0.26,1.229-0.775,1.604c-0.516,0.377-1.24,0.563-2.174,0.563c-0.992,0-1.767-0.153-2.32-0.465v-1.047
		c0.359,0.182,0.744,0.323,1.156,0.432c0.412,0.107,0.809,0.156,1.191,0.156c0.594,0,1.049-0.097,1.367-0.283
		c0.319-0.188,0.479-0.479,0.479-0.866c0-0.293-0.127-0.543-0.381-0.75c-0.254-0.209-0.748-0.453-1.482-0.736
		c-0.698-0.262-1.192-0.487-1.487-0.682c-0.29-0.195-0.511-0.416-0.65-0.662C333.788,364.208,333.717,363.913,333.717,363.57z"/>
	<path fill="#666666" d="M339.885,362.611v-0.547l1.07-0.474l0.479-1.6h0.656v1.733h2.174v0.883h-2.174v4.418
		c0,0.453,0.104,0.804,0.32,1.043c0.215,0.242,0.51,0.363,0.883,0.363c0.199,0,0.395-0.017,0.582-0.045
		c0.186-0.029,0.334-0.062,0.44-0.095v0.858c-0.123,0.06-0.305,0.104-0.543,0.146c-0.239,0.037-0.455,0.058-0.646,0.058
		c-1.449,0-2.176-0.765-2.176-2.289v-4.457L339.885,362.611L339.885,362.611z"/>
	<path fill="#666666" d="M348.447,362.611v-0.514l1.341-0.41v-0.414c0-1.834,0.807-2.75,2.411-2.75c0.396,0,0.861,0.078,1.396,0.233
		l-0.293,0.897c-0.438-0.143-0.813-0.213-1.121-0.213c-0.43,0-0.746,0.146-0.951,0.431c-0.205,0.282-0.307,0.739-0.307,1.369v0.483
		h1.904v0.883h-1.904v6.608h-1.137v-6.608L348.447,362.611L348.447,362.611z"/>
	<path fill="#666666" d="M353.635,367.159c0-1.511,1.213-2.302,3.635-2.373l1.273-0.043v-0.472c0-0.594-0.125-1.032-0.381-1.315
		c-0.252-0.285-0.654-0.427-1.211-0.427c-0.623,0-1.326,0.193-2.113,0.58l-0.354-0.871c0.369-0.196,0.773-0.352,1.213-0.465
		c0.439-0.11,0.882-0.168,1.322-0.168c0.895,0,1.556,0.199,1.984,0.597c0.429,0.396,0.645,1.03,0.645,1.905v5.113h-0.84
		l-0.228-1.056h-0.057c-0.373,0.465-0.743,0.776-1.114,0.942c-0.37,0.164-0.834,0.246-1.39,0.246c-0.746,0-1.332-0.188-1.754-0.569
		C353.844,368.402,353.635,367.861,353.635,367.159z M354.84,367.172c0,0.412,0.125,0.727,0.373,0.939
		c0.247,0.217,0.594,0.322,1.038,0.322c0.704,0,1.261-0.193,1.661-0.584c0.401-0.391,0.604-0.936,0.604-1.637v-0.68l-1.133,0.049
		c-0.9,0.031-1.549,0.172-1.947,0.422C355.038,366.256,354.84,366.646,354.84,367.172z"/>
	<path fill="#666666" d="M360.993,362.611v-0.547l1.071-0.474l0.479-1.6h0.653v1.733h2.175v0.883h-2.175v4.418
		c0,0.453,0.107,0.804,0.322,1.043c0.213,0.242,0.508,0.363,0.881,0.363c0.201,0,0.396-0.017,0.582-0.045
		c0.188-0.029,0.334-0.062,0.443-0.095v0.858c-0.123,0.06-0.307,0.104-0.543,0.146c-0.24,0.037-0.455,0.058-0.646,0.058
		c-1.448,0-2.174-0.765-2.174-2.289v-4.457L360.993,362.611L360.993,362.611z"/>
	<path fill="#666666" d="M366.363,367.159c0-1.511,1.214-2.302,3.636-2.373l1.272-0.043v-0.472c0-0.594-0.125-1.032-0.379-1.315
		c-0.252-0.285-0.656-0.427-1.211-0.427c-0.623,0-1.328,0.193-2.115,0.58l-0.352-0.871c0.368-0.196,0.771-0.352,1.213-0.465
		c0.438-0.11,0.881-0.168,1.321-0.168c0.894,0,1.556,0.199,1.982,0.597c0.43,0.396,0.646,1.03,0.646,1.905v5.113h-0.842
		l-0.228-1.056h-0.055c-0.373,0.465-0.744,0.776-1.115,0.942c-0.371,0.164-0.834,0.246-1.389,0.246
		c-0.746,0-1.332-0.188-1.756-0.569C366.575,368.404,366.363,367.861,366.363,367.159z M367.566,367.172
		c0,0.412,0.125,0.727,0.373,0.939c0.248,0.217,0.594,0.322,1.039,0.322c0.705,0,1.26-0.193,1.662-0.584
		c0.4-0.391,0.604-0.936,0.604-1.637v-0.68l-1.134,0.049c-0.897,0.031-1.549,0.172-1.946,0.422
		C367.765,366.256,367.566,366.646,367.566,367.172z"/>
	<path fill="#666666" d="M374.714,369.223v-10.639h1.135v10.639H374.714z"/>
	<path fill="#666666" d="M381.472,365.523c0-1.254,0.299-2.224,0.896-2.905c0.601-0.683,1.456-1.025,2.573-1.025
		c0.359,0,0.72,0.039,1.08,0.117c0.359,0.076,0.644,0.168,0.849,0.272l-0.351,0.963c-0.25-0.1-0.522-0.184-0.819-0.25
		c-0.296-0.063-0.56-0.098-0.785-0.098c-1.521,0-2.281,0.971-2.281,2.909c0,0.923,0.186,1.628,0.557,2.119
		c0.371,0.492,0.922,0.738,1.65,0.738c0.625,0,1.266-0.136,1.922-0.402v1.004c-0.502,0.263-1.133,0.392-1.896,0.392
		c-1.084,0-1.923-0.334-2.513-1.002C381.767,367.689,381.472,366.745,381.472,365.523z"/>
	<path fill="#666666" d="M387.993,367.159c0-1.511,1.213-2.302,3.637-2.373l1.271-0.043v-0.472c0-0.594-0.125-1.032-0.379-1.315
		c-0.252-0.285-0.656-0.427-1.211-0.427c-0.623,0-1.328,0.193-2.115,0.58l-0.352-0.871c0.369-0.196,0.771-0.352,1.213-0.465
		c0.438-0.11,0.881-0.168,1.322-0.168c0.893,0,1.555,0.199,1.981,0.597c0.432,0.396,0.646,1.03,0.646,1.905v5.113h-0.84
		l-0.229-1.056h-0.055c-0.373,0.465-0.744,0.776-1.115,0.942c-0.371,0.164-0.834,0.246-1.389,0.246
		c-0.746,0-1.332-0.188-1.755-0.569C388.204,368.404,387.993,367.861,387.993,367.159z M389.195,367.172
		c0,0.412,0.125,0.727,0.373,0.939c0.248,0.217,0.595,0.322,1.039,0.322c0.705,0,1.261-0.193,1.662-0.584
		c0.402-0.391,0.604-0.936,0.604-1.637v-0.68l-1.134,0.049c-0.897,0.031-1.549,0.172-1.944,0.422
		C389.394,366.256,389.195,366.646,389.195,367.172z"/>
	<path fill="#666666" d="M395.861,363.57c0-0.61,0.248-1.094,0.744-1.446c0.496-0.354,1.179-0.531,2.043-0.531
		c0.802,0,1.584,0.164,2.351,0.492l-0.396,0.924c-0.75-0.311-1.43-0.465-2.037-0.465c-0.539,0-0.944,0.084-1.221,0.252
		c-0.273,0.17-0.41,0.402-0.41,0.699c0,0.2,0.051,0.373,0.154,0.515c0.102,0.145,0.268,0.276,0.496,0.403
		c0.229,0.129,0.665,0.313,1.313,0.558c0.89,0.323,1.486,0.649,1.793,0.979c0.308,0.329,0.459,0.741,0.459,1.239
		c0,0.692-0.258,1.229-0.772,1.604c-0.518,0.376-1.24,0.563-2.176,0.563c-0.99,0-1.767-0.153-2.318-0.465v-1.047
		c0.356,0.182,0.743,0.323,1.154,0.432c0.411,0.104,0.811,0.156,1.19,0.156c0.594,0,1.049-0.097,1.369-0.283
		c0.318-0.188,0.479-0.479,0.479-0.866c0-0.293-0.127-0.543-0.382-0.75c-0.254-0.209-0.747-0.453-1.479-0.736
		c-0.699-0.262-1.195-0.487-1.488-0.682c-0.291-0.195-0.51-0.416-0.651-0.662C395.934,364.208,395.861,363.913,395.861,363.57z"/>
	<path fill="#666666" d="M402.601,365.538c0-1.209,0.297-2.168,0.889-2.879c0.597-0.711,1.392-1.066,2.392-1.066
		c0.936,0,1.676,0.31,2.221,0.927c0.545,0.619,0.818,1.435,0.818,2.444v0.718h-5.154c0.021,0.879,0.244,1.547,0.668,2.004
		c0.422,0.455,1.016,0.685,1.783,0.685c0.805,0,1.6-0.169,2.385-0.507v1.013c-0.4,0.174-0.777,0.299-1.135,0.373
		c-0.358,0.073-0.787,0.11-1.291,0.11c-1.105,0-1.979-0.338-2.615-1.012C402.924,367.672,402.601,366.734,402.601,365.538z
		 M403.792,364.758h3.926c0-0.717-0.16-1.264-0.48-1.645c-0.315-0.381-0.772-0.57-1.369-0.57c-0.602,0-1.081,0.195-1.438,0.588
		C404.066,363.521,403.853,364.064,403.792,364.758z"/>
	<path fill="#666666" d="M410.394,363.57c0-0.61,0.248-1.094,0.744-1.446c0.496-0.354,1.178-0.531,2.043-0.531
		c0.801,0,1.584,0.164,2.35,0.492l-0.395,0.924c-0.75-0.311-1.432-0.465-2.037-0.465c-0.539,0-0.945,0.084-1.221,0.252
		c-0.273,0.17-0.41,0.402-0.41,0.699c0,0.2,0.051,0.373,0.152,0.515c0.104,0.145,0.27,0.276,0.495,0.403
		c0.229,0.129,0.666,0.313,1.314,0.558c0.889,0.323,1.484,0.649,1.793,0.979c0.307,0.329,0.459,0.741,0.459,1.239
		c0,0.692-0.258,1.229-0.775,1.604c-0.516,0.377-1.237,0.563-2.174,0.563c-0.992,0-1.766-0.153-2.319-0.465v-1.047
		c0.358,0.182,0.743,0.323,1.155,0.432c0.412,0.107,0.812,0.156,1.191,0.156c0.594,0,1.049-0.097,1.369-0.283
		c0.318-0.188,0.479-0.479,0.479-0.866c0-0.293-0.127-0.543-0.381-0.75c-0.254-0.209-0.748-0.453-1.481-0.736
		c-0.697-0.262-1.193-0.487-1.486-0.682c-0.291-0.195-0.511-0.416-0.652-0.662C410.469,364.208,410.394,363.913,410.394,363.57z"/>
</g>
<g id="more">
	<circle id="more3" fill="none" stroke="#67ABAD" stroke-miterlimit="10" cx="495.515" cy="12.711" r="9.439"/>
	<rect id="more2" x="494.815" y="8.679" fill="#67ABAD" width="1.292" height="8.122"/>
	<rect id="more1" x="491.4" y="12.094" fill="#67ABAD" width="8.122" height="1.292"/>
</g>
<g>
	<path fill="#666666" d="M49.391,35.996c0-1.633,0.323-3.063,0.979-4.292c0.655-1.228,1.604-2.166,2.831-2.814
		c1.231-0.648,2.675-0.972,4.329-0.972c1.676,0,3.237,0.308,4.684,0.924l-0.709,1.611c-1.418-0.602-2.777-0.902-4.093-0.902
		c-1.912,0-3.405,0.569-4.479,1.708c-1.074,1.139-1.611,2.718-1.611,4.737c0,2.127,0.517,3.74,1.552,4.839
		c1.035,1.1,2.56,1.649,4.563,1.649c1.088,0,2.147-0.125,3.188-0.377v-4.854h-3.513V35.62h5.339v7.648
		c-0.831,0.262-1.676,0.459-2.535,0.594c-0.854,0.134-1.854,0.201-2.981,0.201c-2.378,0-4.229-0.707-5.559-2.122
		C50.052,40.527,49.391,38.545,49.391,35.996z"/>
	<path fill="#666666" d="M65.954,43.849V27.133h1.783v16.715L65.954,43.849L65.954,43.849z"/>
	<path fill="#666666" d="M70.865,37.939c0-1.916,0.479-3.408,1.435-4.477c0.956-1.069,2.285-1.603,3.984-1.603
		c1.642,0,2.947,0.547,3.915,1.641s1.451,2.574,1.451,4.439c0,1.923-0.482,3.424-1.446,4.503c-0.964,1.08-2.296,1.62-3.995,1.62
		c-1.05,0-1.979-0.248-2.795-0.743c-0.813-0.495-1.438-1.205-1.885-2.13C71.085,40.265,70.865,39.182,70.865,37.939z M72.691,37.939
		c0,1.507,0.301,2.656,0.904,3.445c0.602,0.79,1.483,1.185,2.652,1.185s2.062-0.393,2.663-1.179
		c0.606-0.786,0.909-1.937,0.909-3.451c0-1.5-0.303-2.64-0.909-3.419c-0.604-0.778-1.501-1.168-2.684-1.168
		c-1.169,0-2.052,0.384-2.646,1.152C72.988,35.272,72.691,36.418,72.691,37.939z"/>
	<path fill="#666666" d="M84.808,43.849V27.133h1.778v4.061c0,0.91-0.024,1.726-0.086,2.449h0.086
		c0.831-1.174,2.063-1.762,3.695-1.762c1.54,0,2.736,0.528,3.588,1.584c0.854,1.057,1.278,2.551,1.278,4.485
		c0,1.934-0.431,3.436-1.289,4.506c-0.859,1.071-2.052,1.606-3.578,1.606c-0.767,0-1.466-0.142-2.1-0.424
		c-0.639-0.282-1.166-0.718-1.6-1.305H86.46l-0.376,1.515L84.808,43.849L84.808,43.849z M86.59,37.951
		c0,1.654,0.275,2.838,0.827,3.55c0.551,0.713,1.438,1.069,2.653,1.069c1.096,0,1.912-0.399,2.449-1.198
		c0.537-0.798,0.806-1.946,0.806-3.443c0-1.532-0.269-2.675-0.806-3.427s-1.368-1.128-2.492-1.128c-1.218,0-2.095,0.349-2.632,1.047
		C86.859,35.119,86.59,36.296,86.59,37.951z"/>
	<path fill="#666666" d="M97.407,40.604c0-2.371,1.904-3.614,5.712-3.729l2.001-0.065v-0.739c0-0.935-0.198-1.625-0.595-2.071
		c-0.397-0.446-1.031-0.669-1.903-0.669c-0.979,0-2.087,0.305-3.324,0.914l-0.554-1.369c0.58-0.311,1.215-0.554,1.907-0.73
		c0.688-0.176,1.384-0.265,2.079-0.265c1.397,0,2.438,0.312,3.117,0.935c0.676,0.623,1.014,1.622,1.014,2.997v8.035h-1.321
		l-0.354-1.656H105.1c-0.586,0.73-1.17,1.225-1.753,1.483c-0.583,0.259-1.313,0.388-2.187,0.388c-1.173,0-2.092-0.3-2.758-0.899
		C97.74,42.564,97.407,41.711,97.407,40.604z M99.298,40.626c0,0.648,0.195,1.141,0.584,1.479c0.394,0.338,0.938,0.507,1.64,0.507
		c1.104,0,1.979-0.306,2.606-0.917c0.638-0.612,0.949-1.468,0.949-2.569v-1.068l-1.78,0.075c-1.416,0.05-2.436,0.272-3.062,0.664
		C99.61,39.189,99.298,39.799,99.298,40.626z"/>
	<path fill="#666666" d="M110.525,43.849V27.133h1.783v16.715L110.525,43.849L110.525,43.849z"/>
	<path fill="#666666" d="M121.149,38.059c0-1.897,0.466-3.405,1.396-4.522c0.936-1.117,2.188-1.676,3.754-1.676
		c1.475,0,2.638,0.485,3.49,1.456c0.856,0.971,1.285,2.25,1.285,3.84v1.128h-8.1c0.036,1.382,0.386,2.432,1.049,3.147
		c0.664,0.716,1.598,1.074,2.803,1.074c1.264,0,2.513-0.265,3.748-0.795v1.59c-0.628,0.272-1.223,0.467-1.783,0.585
		c-0.561,0.118-1.232,0.177-2.025,0.177c-1.735,0-3.105-0.53-4.108-1.59C121.65,41.414,121.149,39.941,121.149,38.059z
		 M123.018,36.833h6.166c0-1.124-0.251-1.985-0.753-2.583s-1.224-0.897-2.152-0.897c-0.947,0-1.702,0.308-2.266,0.924
		C123.449,34.894,123.117,35.746,123.018,36.833z"/>
	<path fill="#666666" d="M133.395,34.968c0-0.961,0.39-1.719,1.169-2.275c0.774-0.556,1.849-0.833,3.208-0.833
		c1.26,0,2.491,0.258,3.689,0.773l-0.622,1.452c-1.178-0.488-2.24-0.732-3.197-0.732c-0.852,0-1.485,0.133-1.916,0.398
		c-0.436,0.265-0.646,0.632-0.646,1.098c0,0.316,0.081,0.585,0.242,0.808c0.161,0.223,0.422,0.434,0.78,0.635
		c0.354,0.201,1.048,0.492,2.063,0.872c1.396,0.51,2.334,1.023,2.816,1.54c0.479,0.517,0.722,1.167,0.722,1.949
		c0,1.09-0.406,1.931-1.218,2.522c-0.813,0.592-1.952,0.887-3.418,0.887c-1.561,0-2.774-0.243-3.646-0.73v-1.646
		c0.564,0.287,1.175,0.513,1.817,0.678c0.647,0.165,1.271,0.248,1.872,0.248c0.933,0,1.65-0.149,2.153-0.447
		c0.502-0.298,0.753-0.752,0.753-1.362c0-0.459-0.199-0.852-0.603-1.179c-0.396-0.327-1.175-0.712-2.331-1.158
		c-1.098-0.409-1.877-0.766-2.336-1.071c-0.46-0.305-0.802-0.651-1.021-1.039C133.504,35.968,133.395,35.506,133.395,34.968z"/>
	<path fill="#666666" d="M143.083,33.46v-0.859l1.688-0.741l0.752-2.514h1.031v2.729h3.416v1.386h-3.416v6.945
		c0,0.711,0.168,1.256,0.505,1.637c0.336,0.381,0.798,0.571,1.386,0.571c0.313,0,0.619-0.023,0.913-0.07
		c0.293-0.047,0.521-0.095,0.698-0.146v1.348c-0.193,0.092-0.479,0.167-0.854,0.228c-0.376,0.06-0.714,0.09-1.015,0.09
		c-2.277,0-3.416-1.199-3.416-3.599V33.46H143.083z"/>
	<path fill="#666666" d="M152.257,28.884c0-0.408,0.097-0.707,0.277-0.897c0.188-0.189,0.416-0.285,0.693-0.285
		c0.309,0,0.57,0.097,0.799,0.29c0.224,0.193,0.336,0.491,0.336,0.892c0,0.401-0.112,0.7-0.336,0.897
		c-0.229,0.197-0.49,0.295-0.799,0.295c-0.277,0-0.508-0.098-0.693-0.295C152.35,29.584,152.257,29.286,152.257,28.884z
		 M152.407,43.849V32.075h1.633v11.773L152.407,43.849L152.407,43.849z"/>
	<path fill="#666666" d="M157.973,43.849V32.075h1.445l0.29,1.59h0.086c0.336-0.566,0.813-1.009,1.428-1.327
		c0.607-0.319,1.298-0.478,2.057-0.478c1.839,0,3.042,0.659,3.609,1.978h0.086c0.351-0.609,0.854-1.091,1.521-1.446
		s1.425-0.532,2.277-0.532c1.332,0,2.329,0.342,2.992,1.026c0.661,0.684,0.991,1.778,0.991,3.282v7.681h-1.78v-7.675
		c0-0.94-0.201-1.645-0.604-2.115c-0.396-0.47-1.021-0.705-1.869-0.705c-1.105,0-1.93,0.319-2.46,0.958
		c-0.525,0.639-0.795,1.622-0.795,2.949v6.588h-1.783v-7.675c0-0.94-0.196-1.645-0.602-2.115c-0.401-0.47-1.028-0.705-1.879-0.705
		c-1.117,0-1.938,0.335-2.455,1.006c-0.521,0.671-0.779,1.771-0.779,3.299v6.189L157.973,43.849L157.973,43.849z"/>
	<path fill="#666666" d="M177.555,40.604c0-2.371,1.899-3.614,5.712-3.729l2.001-0.065v-0.739c0-0.935-0.198-1.625-0.6-2.071
		c-0.396-0.446-1.026-0.669-1.898-0.669c-0.979,0-2.087,0.305-3.324,0.914l-0.554-1.369c0.58-0.311,1.215-0.554,1.902-0.73
		c0.691-0.176,1.389-0.265,2.079-0.265c1.402,0,2.441,0.312,3.117,0.935s1.014,1.622,1.014,2.997v8.035h-1.316l-0.354-1.656h-0.086
		c-0.586,0.73-1.17,1.225-1.753,1.483c-0.583,0.259-1.31,0.388-2.182,0.388c-1.173,0-2.092-0.3-2.758-0.899
		C177.887,42.564,177.555,41.711,177.555,40.604z M179.446,40.626c0,0.648,0.195,1.141,0.584,1.479s0.935,0.507,1.635,0.507
		c1.108,0,1.979-0.306,2.611-0.917c0.633-0.612,0.949-1.468,0.949-2.569v-1.068l-1.78,0.075c-1.416,0.05-2.438,0.272-3.063,0.664
		C179.757,39.189,179.446,39.799,179.446,40.626z"/>
	<path fill="#666666" d="M189.114,33.46v-0.859l1.687-0.741l0.757-2.514h1.026v2.729H196v1.386h-3.416v6.945
		c0,0.711,0.168,1.256,0.505,1.637c0.336,0.381,0.803,0.571,1.391,0.571c0.313,0,0.619-0.023,0.913-0.07
		c0.293-0.047,0.521-0.095,0.693-0.146v1.348c-0.188,0.092-0.478,0.167-0.854,0.228c-0.376,0.06-0.714,0.09-1.02,0.09
		c-2.272,0-3.416-1.199-3.416-3.599V33.46H189.114z"/>
	<path fill="#666666" d="M197.782,38.059c0-1.897,0.466-3.405,1.397-4.522c0.931-1.117,2.183-1.676,3.754-1.676
		c1.47,0,2.633,0.485,3.485,1.456c0.856,0.971,1.285,2.25,1.285,3.84v1.128h-8.1c0.036,1.382,0.386,2.432,1.049,3.147
		c0.664,0.716,1.598,1.074,2.803,1.074c1.269,0,2.518-0.265,3.748-0.795v1.59c-0.628,0.272-1.223,0.467-1.783,0.585
		c-0.561,0.118-1.232,0.177-2.025,0.177c-1.735,0-3.105-0.53-4.108-1.59C198.284,41.414,197.782,39.941,197.782,38.059z
		 M199.652,36.833h6.166c0-1.124-0.251-1.985-0.753-2.583s-1.219-0.897-2.152-0.897c-0.947,0-1.702,0.308-2.266,0.924
		C200.084,34.894,199.752,35.746,199.652,36.833z"/>
</g>
<g>
	<path fill="#666666" d="M324.219,43.849V28.144h8.755v1.633h-6.929v5.027h6.51v1.633h-6.51v5.779h6.929v1.633H324.219z"/>
	<path fill="#666666" d="M336.29,38.263V28.144h1.826v10.264c0,1.313,0.358,2.32,1.074,3.023c0.716,0.703,1.771,1.054,3.158,1.054
		c1.325,0,2.345-0.353,3.062-1.06c0.721-0.707,1.074-1.72,1.074-3.04V28.144h1.826v10.162c0,1.791-0.541,3.198-1.622,4.222
		c-1.082,1.024-2.567,1.536-4.458,1.536s-3.354-0.516-4.388-1.547C336.807,41.484,336.29,40.066,336.29,38.263z"/>
	<path fill="#666666" d="M351.385,43.849v-1.516l4.136-4.174c1.26-1.28,2.091-2.193,2.492-2.74c0.396-0.546,0.702-1.079,0.897-1.596
		c0.2-0.518,0.306-1.075,0.306-1.672c0-0.841-0.254-1.508-0.768-2c-0.509-0.493-1.214-0.739-2.111-0.739
		c-0.652,0-1.271,0.108-1.854,0.324c-0.584,0.216-1.234,0.607-1.95,1.176l-0.94-1.219c1.441-1.182,3.021-1.773,4.727-1.773
		c1.477,0,2.632,0.376,3.47,1.127c0.839,0.752,1.259,1.762,1.259,3.03c0,1-0.276,1.988-0.84,2.966
		c-0.559,0.979-1.604,2.215-3.137,3.711l-3.438,3.376v0.086h8.073v1.633H351.385z"/>
	<path fill="#666666" d="M364.01,39.841c0-1.797,1.102-3.197,3.307-4.2c-0.999-0.559-1.716-1.162-2.149-1.81
		c-0.435-0.648-0.647-1.373-0.647-2.175c0-1.139,0.423-2.046,1.27-2.723c0.852-0.677,1.979-1.015,3.398-1.015
		c1.437,0,2.576,0.333,3.417,0.999s1.261,1.586,1.261,2.761c0,0.773-0.242,1.479-0.724,2.116c-0.483,0.638-1.254,1.218-2.313,1.74
		c1.282,0.609,2.192,1.248,2.732,1.917c0.54,0.67,0.81,1.445,0.81,2.326c0,1.304-0.456,2.344-1.368,3.121
		c-0.91,0.777-2.16,1.166-3.75,1.166c-1.682,0-2.975-0.367-3.88-1.101C364.458,42.229,364.01,41.188,364.01,39.841z M365.788,39.884
		c0,0.859,0.303,1.529,0.896,2.009s1.436,0.72,2.515,0.72c1.065,0,1.896-0.25,2.488-0.752c0.593-0.501,0.89-1.188,0.89-2.063
		c0-0.694-0.274-1.312-0.836-1.853c-0.558-0.541-1.525-1.065-2.917-1.574c-1.063,0.458-1.837,0.965-2.313,1.52
		C366.028,38.446,365.788,39.11,365.788,39.884z M366.298,31.73c0,0.659,0.211,1.225,0.633,1.697
		c0.421,0.473,1.201,0.945,2.337,1.418c1.021-0.43,1.746-0.892,2.171-1.386s0.638-1.07,0.638-1.729c0-0.723-0.259-1.298-0.772-1.724
		c-0.521-0.426-1.231-0.639-2.144-0.639c-0.894,0-1.594,0.215-2.102,0.645C366.552,30.441,366.298,31.016,366.298,31.73z"/>
	<path fill="#666666" d="M382.417,38.059c0-1.897,0.471-3.405,1.397-4.522c0.931-1.117,2.183-1.676,3.754-1.676
		c1.47,0,2.633,0.485,3.49,1.456c0.854,0.971,1.285,2.25,1.285,3.84v1.128h-8.104c0.036,1.382,0.391,2.432,1.049,3.147
		c0.664,0.716,1.603,1.074,2.808,1.074c1.264,0,2.513-0.265,3.748-0.795v1.59c-0.628,0.272-1.228,0.467-1.783,0.585
		c-0.563,0.118-1.237,0.177-2.03,0.177c-1.73,0-3.104-0.53-4.104-1.59C382.924,41.414,382.417,39.941,382.417,38.059z
		 M384.286,36.833h6.166c0-1.124-0.251-1.985-0.753-2.583s-1.219-0.897-2.147-0.897c-0.947,0-1.702,0.308-2.271,0.924
		C384.719,34.894,384.387,35.746,384.286,36.833z"/>
	<path fill="#666666" d="M394.663,34.968c0-0.961,0.395-1.719,1.169-2.275c0.779-0.556,1.854-0.833,3.208-0.833
		c1.265,0,2.492,0.258,3.695,0.773l-0.623,1.452c-1.178-0.488-2.244-0.732-3.201-0.732c-0.847,0-1.48,0.133-1.916,0.398
		c-0.431,0.265-0.646,0.632-0.646,1.098c0,0.316,0.081,0.585,0.242,0.808c0.161,0.223,0.422,0.434,0.776,0.635
		c0.358,0.201,1.052,0.492,2.066,0.872c1.396,0.51,2.335,1.023,2.816,1.54c0.479,0.517,0.723,1.167,0.723,1.949
		c0,1.09-0.406,1.931-1.219,2.522c-0.813,0.592-1.951,0.887-3.418,0.887c-1.563,0-2.774-0.243-3.646-0.73v-1.646
		c0.564,0.287,1.17,0.513,1.817,0.678c0.646,0.165,1.271,0.248,1.872,0.248c0.934,0,1.646-0.149,2.148-0.447
		c0.504-0.298,0.754-0.752,0.754-1.362c0-0.459-0.195-0.852-0.599-1.179c-0.396-0.327-1.175-0.712-2.33-1.158
		c-1.098-0.409-1.877-0.766-2.336-1.071c-0.46-0.305-0.802-0.651-1.022-1.039C394.775,35.968,394.663,35.506,394.663,34.968z"/>
	<path fill="#666666" d="M404.353,33.46v-0.859l1.686-0.741l0.753-2.514h1.03v2.729h3.416v1.386h-3.416v6.945
		c0,0.711,0.168,1.256,0.506,1.637c0.336,0.381,0.803,0.571,1.39,0.571c0.313,0,0.615-0.023,0.914-0.07
		c0.293-0.047,0.521-0.095,0.692-0.146v1.348c-0.188,0.092-0.478,0.167-0.854,0.228c-0.376,0.06-0.715,0.09-1.021,0.09
		c-2.272,0-3.416-1.199-3.416-3.599V33.46H404.353z"/>
	<path fill="#666666" d="M413.526,28.884c0-0.408,0.092-0.707,0.277-0.897c0.186-0.189,0.416-0.285,0.689-0.285
		c0.313,0,0.574,0.097,0.803,0.29c0.225,0.193,0.336,0.491,0.336,0.892c0,0.401-0.111,0.7-0.336,0.897
		c-0.229,0.197-0.49,0.295-0.803,0.295c-0.273,0-0.51-0.098-0.689-0.295C413.618,29.584,413.526,29.286,413.526,28.884z
		 M413.677,43.849V32.075h1.633v11.773L413.677,43.849L413.677,43.849z"/>
	<path fill="#666666" d="M419.241,43.849V32.075h1.449l0.291,1.59h0.086c0.336-0.566,0.813-1.009,1.423-1.327
		c0.612-0.319,1.298-0.478,2.063-0.478c1.84,0,3.043,0.659,3.604,1.978h0.086c0.354-0.609,0.859-1.091,1.525-1.446
		s1.424-0.532,2.277-0.532c1.332,0,2.323,0.342,2.986,1.026c0.662,0.684,0.993,1.778,0.993,3.282v7.681h-1.783v-7.675
		c0-0.94-0.195-1.645-0.602-2.115c-0.4-0.47-1.023-0.705-1.869-0.705c-1.104,0-1.93,0.319-2.459,0.958
		c-0.531,0.639-0.795,1.622-0.795,2.949v6.588h-1.783v-7.675c0-0.94-0.201-1.645-0.602-2.115c-0.402-0.47-1.028-0.705-1.881-0.705
		c-1.117,0-1.938,0.335-2.454,1.006c-0.521,0.671-0.777,1.771-0.777,3.299v6.189L419.241,43.849L419.241,43.849z"/>
	<path fill="#666666" d="M438.823,40.604c0-2.371,1.904-3.614,5.713-3.729l2-0.065v-0.739c0-0.935-0.192-1.625-0.595-2.071
		c-0.396-0.446-1.031-0.669-1.903-0.669c-0.979,0-2.088,0.305-3.319,0.914l-0.559-1.369c0.58-0.311,1.221-0.554,1.907-0.73
		c0.69-0.176,1.383-0.265,2.078-0.265c1.402,0,2.441,0.312,3.117,0.935s1.014,1.622,1.014,2.997v8.035h-1.315l-0.355-1.656h-0.086
		c-0.586,0.73-1.17,1.225-1.752,1.483c-0.584,0.259-1.313,0.388-2.188,0.388c-1.173,0-2.093-0.3-2.758-0.899
		C439.156,42.564,438.823,41.711,438.823,40.604z M440.719,40.626c0,0.648,0.19,1.141,0.585,1.479
		c0.39,0.338,0.935,0.507,1.635,0.507c1.108,0,1.979-0.306,2.61-0.917c0.633-0.612,0.944-1.468,0.944-2.569v-1.068l-1.774,0.075
		c-1.416,0.05-2.438,0.272-3.063,0.664C441.026,39.189,440.719,39.799,440.719,40.626z"/>
	<path fill="#666666" d="M450.385,33.46v-0.859l1.688-0.741l0.752-2.514h1.031v2.729h3.416v1.386h-3.416v6.945
		c0,0.711,0.168,1.256,0.504,1.637c0.337,0.381,0.799,0.571,1.387,0.571c0.314,0,0.619-0.023,0.912-0.07
		c0.294-0.047,0.527-0.095,0.699-0.146v1.348c-0.193,0.092-0.479,0.167-0.854,0.228c-0.378,0.06-0.719,0.09-1.02,0.09
		c-2.273,0-3.416-1.199-3.416-3.599V33.46H450.385z"/>
	<path fill="#666666" d="M459.052,38.059c0-1.897,0.465-3.405,1.396-4.522c0.936-1.117,2.188-1.676,3.754-1.676
		c1.476,0,2.639,0.485,3.49,1.456c0.856,0.971,1.285,2.25,1.285,3.84v1.128h-8.1c0.03,1.382,0.385,2.432,1.049,3.147
		c0.664,0.716,1.598,1.074,2.803,1.074c1.264,0,2.514-0.265,3.748-0.795v1.59c-0.628,0.272-1.223,0.467-1.783,0.585
		c-0.56,0.118-1.236,0.177-2.029,0.177c-1.73,0-3.104-0.53-4.104-1.59C459.552,41.414,459.052,39.941,459.052,38.059z
		 M460.926,36.833h6.166c0-1.124-0.252-1.985-0.754-2.583c-0.507-0.598-1.224-0.897-2.152-0.897c-0.947,0-1.701,0.308-2.271,0.924
		C461.352,34.894,461.02,35.746,460.926,36.833z"/>
</g>
<path fill="#9A999E" d="M54.026,316.484c0-2.236,0.35-3.896,1.049-4.979c0.7-1.083,1.767-1.625,3.201-1.625
	c1.393,0,2.451,0.565,3.174,1.695s1.084,2.767,1.084,4.909c0,2.223-0.35,3.882-1.049,4.979c-0.699,1.098-1.771,1.645-3.209,1.645
	c-1.387,0-2.442-0.562-3.165-1.685C54.387,320.301,54.026,318.654,54.026,316.484z M55.52,316.484c0,1.865,0.219,3.223,0.658,4.072
	c0.438,0.852,1.138,1.274,2.097,1.274c0.971,0,1.674-0.433,2.108-1.293c0.438-0.862,0.654-2.214,0.654-4.058
	c0-1.84-0.218-3.188-0.654-4.045c-0.436-0.856-1.139-1.285-2.108-1.285c-0.959,0-1.659,0.424-2.097,1.269
	C55.74,313.266,55.52,314.62,55.52,316.484z"/>
<path fill="#9A999E" d="M313.612,316.484c0-2.236,0.352-3.896,1.049-4.979c0.7-1.083,1.77-1.625,3.201-1.625
	c1.395,0,2.451,0.565,3.174,1.695c0.725,1.13,1.084,2.767,1.084,4.909c0,2.223-0.35,3.882-1.049,4.979
	c-0.699,1.098-1.77,1.645-3.209,1.645c-1.387,0-2.44-0.562-3.165-1.685C313.973,320.301,313.612,318.654,313.612,316.484z
	 M315.106,316.484c0,1.865,0.22,3.223,0.658,4.072c0.438,0.852,1.139,1.274,2.098,1.274c0.971,0,1.674-0.433,2.11-1.293
	c0.436-0.862,0.651-2.214,0.651-4.058c0-1.84-0.217-3.188-0.651-4.045c-0.438-0.856-1.142-1.285-2.11-1.285
	c-0.959,0-1.658,0.424-2.098,1.269C315.326,313.266,315.106,314.62,315.106,316.484z"/>
<g>
	<path fill="#87868A" d="M48.841,215.43H33.944v-4.207c0-1.979,0.295-3.408,0.885-4.291c0.596-0.887,1.521-1.324,2.804-1.324
		c0.888,0,1.606,0.246,2.188,0.738c0.573,0.49,0.945,1.211,1.115,2.152h0.104c0.396-2.248,1.578-3.373,3.566-3.373
		c1.332,0,2.371,0.449,3.118,1.352c0.748,0.896,1.116,2.15,1.116,3.771V215.43L48.841,215.43z M40.312,213.698v-2.854
		c0-1.225-0.188-2.104-0.569-2.641c-0.388-0.537-1.021-0.813-1.938-0.813c-0.834,0-1.438,0.299-1.813,0.896
		c-0.364,0.603-0.555,1.553-0.555,2.854v2.547L40.312,213.698L40.312,213.698z M47.364,213.698v-3.107
		c0-1.192-0.229-2.104-0.698-2.715c-0.465-0.604-1.188-0.912-2.188-0.912c-0.924,0-1.604,0.313-2.033,0.938
		c-0.438,0.621-0.652,1.563-0.652,2.839v2.969L47.364,213.698L47.364,213.698z"/>
	<path fill="#87868A" d="M34.647,202.305c-0.393,0-0.671-0.088-0.854-0.266c-0.185-0.184-0.271-0.396-0.271-0.656
		c0-0.295,0.092-0.547,0.271-0.76c0.188-0.211,0.466-0.314,0.852-0.314c0.385,0,0.664,0.104,0.854,0.314
		c0.188,0.213,0.28,0.465,0.28,0.76c0,0.266-0.104,0.479-0.28,0.656C35.311,202.217,35.027,202.305,34.647,202.305z M48.841,202.163
		H37.673v-1.55h11.168V202.163z"/>
	<path fill="#87868A" d="M48.841,196.883H32.986v-1.689H48.84L48.841,196.883L48.841,196.883z"/>
	<path fill="#87868A" d="M48.841,191.605H32.986v-1.69H48.84L48.841,191.605L48.841,191.605z"/>
	<path fill="#87868A" d="M34.647,186.47c-0.393,0-0.671-0.09-0.854-0.266c-0.185-0.183-0.271-0.396-0.271-0.656
		c0-0.293,0.092-0.547,0.271-0.758c0.188-0.213,0.466-0.317,0.852-0.317c0.385,0,0.664,0.104,0.854,0.317
		c0.188,0.211,0.28,0.465,0.28,0.758c0,0.264-0.104,0.479-0.28,0.656C35.311,186.38,35.027,186.47,34.647,186.47z M48.841,186.329
		H37.673v-1.551h11.168V186.329z"/>
	<path fill="#87868A" d="M43.237,181.669c-1.813,0-3.229-0.455-4.247-1.36c-1.019-0.908-1.521-2.168-1.521-3.78
		c0-1.558,0.521-2.795,1.563-3.713c1.032-0.918,2.438-1.377,4.211-1.377c1.819,0,3.248,0.457,4.271,1.372
		c1.021,0.914,1.531,2.178,1.531,3.789c0,0.996-0.229,1.88-0.699,2.651c-0.479,0.771-1.146,1.367-2.021,1.787
		S44.413,181.669,43.237,181.669z M43.237,179.938c1.43,0,2.521-0.286,3.271-0.856c0.749-0.563,1.124-1.412,1.124-2.521
		s-0.373-1.951-1.114-2.524c-0.745-0.574-1.842-0.858-3.271-0.858c-1.423,0-2.504,0.284-3.243,0.858
		c-0.729,0.573-1.104,1.424-1.104,2.547c0,1.106,0.359,1.943,1.099,2.513C40.706,179.655,41.793,179.938,43.237,179.938z"/>
	<path fill="#87868A" d="M48.841,168.443H37.673v-1.376l1.514-0.275v-0.081c-0.544-0.347-0.971-0.832-1.271-1.457
		c-0.299-0.625-0.438-1.321-0.438-2.089c0-1.346,0.319-2.357,0.979-3.037c0.646-0.68,1.688-1.02,3.107-1.02h7.282v1.692h-7.235
		c-0.907,0-1.596,0.207-2.042,0.621c-0.444,0.415-0.677,1.063-0.677,1.946c0,1.169,0.313,2.024,0.947,2.568
		c0.636,0.543,1.683,0.815,3.14,0.815h5.867L48.841,168.443L48.841,168.443z"/>
</g>
<g>
	<path fill="#87868A" d="M317.008,215.43h-14.899v-4.209c0-1.979,0.296-3.406,0.886-4.289c0.604-0.887,1.523-1.326,2.813-1.326
		c0.883,0,1.604,0.246,2.185,0.74c0.574,0.49,0.946,1.211,1.116,2.152h0.104c0.396-2.248,1.575-3.373,3.568-3.373
		c1.332,0,2.371,0.449,3.118,1.35c0.747,0.901,1.121,2.152,1.121,3.771L317.008,215.43L317.008,215.43z M308.471,213.695v-2.854
		c0-1.225-0.191-2.104-0.574-2.641c-0.383-0.537-1.021-0.813-1.938-0.813c-0.834,0-1.438,0.299-1.813,0.896
		c-0.359,0.603-0.557,1.553-0.557,2.854v2.547L308.471,213.695L308.471,213.695z M315.522,213.695v-3.104
		c0-1.192-0.229-2.104-0.688-2.715c-0.479-0.604-1.193-0.912-2.188-0.912c-0.924,0-1.604,0.313-2.038,0.938
		c-0.435,0.621-0.646,1.563-0.646,2.838v2.971L315.522,213.695L315.522,213.695z"/>
	<path fill="#87868A" d="M302.804,202.305c-0.392,0-0.673-0.088-0.854-0.266c-0.188-0.186-0.271-0.396-0.271-0.656
		c0-0.295,0.091-0.547,0.271-0.76c0.188-0.211,0.467-0.316,0.849-0.316c0.383,0,0.664,0.105,0.854,0.316
		c0.188,0.213,0.28,0.465,0.28,0.76c0,0.264-0.097,0.479-0.28,0.656C303.469,202.217,303.185,202.305,302.804,202.305z
		 M317.008,202.163h-11.169v-1.552h11.169V202.163z"/>
	<path fill="#87868A" d="M317.008,196.883h-15.859v-1.691h15.855L317.008,196.883L317.008,196.883z"/>
	<path fill="#87868A" d="M317.008,191.604h-15.859v-1.69h15.855L317.008,191.604L317.008,191.604z"/>
	<path fill="#87868A" d="M302.804,186.469c-0.392,0-0.673-0.09-0.854-0.266c-0.188-0.183-0.271-0.396-0.271-0.656
		c0-0.293,0.091-0.547,0.271-0.758c0.188-0.213,0.467-0.317,0.849-0.317c0.383,0,0.664,0.104,0.854,0.317
		c0.188,0.211,0.28,0.465,0.28,0.758c0,0.264-0.097,0.479-0.28,0.656C303.469,186.379,303.185,186.469,302.804,186.469z
		 M317.008,186.328h-11.169v-1.551h11.169V186.328z"/>
	<path fill="#87868A" d="M311.395,181.668c-1.813,0-3.229-0.455-4.247-1.36c-1.014-0.908-1.521-2.168-1.521-3.78
		c0-1.558,0.519-2.795,1.557-3.713c1.037-0.918,2.438-1.377,4.211-1.377c1.824,0,3.248,0.457,4.271,1.372
		c1.021,0.914,1.537,2.178,1.537,3.789c0,0.996-0.23,1.88-0.705,2.651c-0.479,0.771-1.146,1.367-2.021,1.787
		S312.567,181.668,311.395,181.668z M311.395,179.937c1.43,0,2.521-0.286,3.271-0.856c0.749-0.563,1.123-1.412,1.123-2.521
		s-0.372-1.951-1.113-2.524c-0.745-0.574-1.839-0.858-3.273-0.858c-1.423,0-2.504,0.284-3.243,0.858
		c-0.729,0.573-1.104,1.424-1.104,2.547c0,1.106,0.358,1.943,1.093,2.513C308.86,179.654,309.957,179.937,311.395,179.937z"/>
	<path fill="#87868A" d="M317.008,168.442h-11.169v-1.376l1.509-0.275v-0.081c-0.543-0.347-0.965-0.832-1.269-1.457
		c-0.309-0.625-0.443-1.321-0.443-2.089c0-1.346,0.319-2.357,0.973-3.037c0.649-0.68,1.688-1.02,3.113-1.02h7.286v1.692h-7.239
		c-0.913,0-1.594,0.207-2.043,0.621c-0.449,0.415-0.674,1.063-0.674,1.946c0,1.169,0.313,2.024,0.945,2.568
		c0.638,0.543,1.683,0.815,3.14,0.815h5.871V168.442L317.008,168.442z"/>
</g>
<g>
	<path fill="#9A999E" d="M18.284,79.964v-1.241l3.384-3.415c1.031-1.047,1.711-1.794,2.039-2.241s0.574-0.882,0.738-1.306
		c0.164-0.423,0.246-0.879,0.246-1.368c0-0.688-0.208-1.234-0.624-1.637c-0.416-0.403-0.993-0.604-1.731-0.604
		c-0.533,0-1.039,0.088-1.516,0.265c-0.478,0.177-1.009,0.498-1.595,0.962l-0.773-0.997c1.184-0.967,2.473-1.451,3.867-1.451
		c1.207,0,2.153,0.308,2.839,0.922c0.686,0.615,1.028,1.442,1.028,2.479c0,0.818-0.229,1.627-0.686,2.427s-1.313,1.812-2.566,3.036
		l-2.813,2.762v0.071h6.609v1.336H18.284z"/>
	<path fill="#9A999E" d="M28.251,82.284c0.158-0.609,0.332-1.362,0.522-2.259s0.324-1.614,0.4-2.153h1.592l0.131,0.202
		c-0.151,0.586-0.37,1.267-0.655,2.043c-0.286,0.776-0.583,1.499-0.893,2.167H28.251z"/>
	<path fill="#9A999E" d="M33.138,74.475c0-2.526,0.49-4.416,1.472-5.667c0.981-1.251,2.434-1.877,4.355-1.877
		c0.664,0,1.188,0.056,1.57,0.167v1.274c-0.453-0.17-0.971-0.255-1.553-0.255c-1.377,0-2.429,0.431-3.155,1.292
		c-0.727,0.862-1.125,2.215-1.195,4.062h0.105c0.645-0.997,1.664-1.495,3.059-1.495c1.159,0,2.073,0.348,2.742,1.043
		c0.668,0.695,1.002,1.64,1.002,2.832c0,1.333-0.366,2.382-1.099,3.145c-0.733,0.763-1.724,1.145-2.971,1.145
		c-1.33,0-2.385-0.499-3.164-1.498C33.528,77.644,33.138,76.255,33.138,74.475z M34.632,75.524c0,0.605,0.117,1.169,0.352,1.693
		c0.234,0.523,0.567,0.937,0.997,1.243c0.432,0.306,0.922,0.458,1.473,0.458c0.832,0,1.478-0.263,1.938-0.789s0.69-1.286,0.69-2.279
		c0-0.852-0.214-1.522-0.642-2.01c-0.428-0.487-1.066-0.731-1.916-0.731c-0.527,0-1.011,0.109-1.45,0.326s-0.79,0.517-1.05,0.899
		C34.762,74.716,34.632,75.113,34.632,75.524z"/>
	<path fill="#9A999E" d="M43.316,76.686c0-1.471,0.901-2.616,2.705-3.437c-0.817-0.457-1.403-0.951-1.759-1.481
		s-0.533-1.124-0.533-1.78c0-0.932,0.347-1.674,1.039-2.228s1.619-0.831,2.78-0.831c1.176,0,2.107,0.272,2.795,0.817
		c0.688,0.545,1.032,1.298,1.032,2.259c0,0.633-0.197,1.21-0.593,1.731c-0.395,0.521-1.025,0.996-1.893,1.424
		c1.049,0.498,1.794,1.021,2.235,1.569c0.442,0.548,0.663,1.182,0.663,1.903c0,1.066-0.373,1.917-1.12,2.553
		C49.922,79.822,48.9,80.14,47.6,80.14c-1.375,0-2.433-0.3-3.174-0.901C43.686,78.638,43.316,77.787,43.316,76.686z M44.775,76.721
		c0,0.703,0.244,1.251,0.732,1.644s1.175,0.589,2.059,0.589c0.871,0,1.55-0.205,2.035-0.615s0.729-0.973,0.729-1.688
		c0-0.568-0.229-1.074-0.685-1.516s-1.252-0.872-2.387-1.288c-0.872,0.375-1.504,0.79-1.896,1.244S44.775,76.088,44.775,76.721z
		 M45.188,70.05c0,0.539,0.173,1.002,0.518,1.389s0.982,0.773,1.912,1.16c0.837-0.352,1.429-0.729,1.776-1.134
		c0.349-0.404,0.522-0.876,0.522-1.415c0-0.592-0.212-1.062-0.636-1.411c-0.425-0.349-1.008-0.523-1.75-0.523
		c-0.731,0-1.305,0.176-1.72,0.527C45.395,68.995,45.188,69.464,45.188,70.05z"/>
	<path fill="#9A999E" d="M53.59,73.517c0-2.237,0.35-3.897,1.049-4.98c0.699-1.083,1.767-1.625,3.201-1.625
		c1.393,0,2.45,0.565,3.174,1.695c0.723,1.13,1.084,2.767,1.084,4.91c0,2.222-0.35,3.881-1.049,4.978
		c-0.7,1.096-1.77,1.645-3.209,1.645c-1.388,0-2.442-0.562-3.166-1.684C53.951,77.333,53.59,75.687,53.59,73.517z M55.084,73.517
		c0,1.865,0.22,3.222,0.658,4.072c0.438,0.851,1.138,1.276,2.098,1.276c0.971,0,1.674-0.431,2.109-1.293
		c0.437-0.862,0.654-2.214,0.654-4.055c0-1.841-0.218-3.19-0.654-4.046c-0.436-0.856-1.139-1.285-2.109-1.285
		c-0.96,0-1.659,0.422-2.098,1.267C55.304,70.298,55.084,71.652,55.084,73.517z"/>
</g>
<g>
	<path fill="#FFFFFF" d="M140.868,144.775h-3.102v-8.492l0.03-1.395l0.051-1.526c-0.516,0.516-0.874,0.854-1.074,1.014l-1.687,1.355
		l-1.495-1.867l4.728-3.764h2.549V144.775z"/>
	<path fill="#FFFFFF" d="M148.718,142.617c-0.349,1.352-0.938,2.955-1.767,4.808h-2.208c0.435-1.78,0.772-3.459,1.014-5.039h2.811
		L148.718,142.617z"/>
	<path fill="#FFFFFF" d="M161.154,144.775h-10.258v-2.158l3.684-3.724c1.091-1.118,1.803-1.892,2.138-2.324s0.575-0.831,0.723-1.199
		s0.221-0.75,0.221-1.145c0-0.588-0.162-1.027-0.486-1.315c-0.325-0.288-0.758-0.432-1.3-0.432c-0.569,0-1.121,0.131-1.656,0.392
		c-0.535,0.261-1.094,0.632-1.677,1.114l-1.686-1.998c0.723-0.615,1.321-1.05,1.796-1.305c0.476-0.254,0.994-0.45,1.557-0.587
		c0.562-0.137,1.19-0.206,1.887-0.206c0.917,0,1.727,0.167,2.429,0.502c0.703,0.334,1.248,0.803,1.637,1.405
		c0.388,0.602,0.582,1.292,0.582,2.067c0,0.676-0.119,1.31-0.356,1.902c-0.237,0.592-0.605,1.199-1.104,1.822
		c-0.498,0.622-1.377,1.509-2.635,2.66l-1.887,1.777v0.14h6.394V144.775z"/>
	<path fill="#FFFFFF" d="M172.807,137.438c0,2.563-0.42,4.46-1.26,5.691c-0.84,1.231-2.133,1.847-3.88,1.847
		c-1.692,0-2.969-0.636-3.829-1.907c-0.859-1.271-1.289-3.148-1.289-5.631c0-2.589,0.418-4.498,1.254-5.726
		c0.837-1.228,2.125-1.842,3.864-1.842c1.693,0,2.973,0.642,3.84,1.927C172.373,133.082,172.807,134.962,172.807,137.438z
		 M165.63,137.438c0,1.8,0.155,3.09,0.467,3.87c0.312,0.779,0.835,1.169,1.57,1.169c0.723,0,1.245-0.395,1.566-1.185
		s0.481-2.074,0.481-3.854c0-1.8-0.162-3.093-0.486-3.879c-0.325-0.786-0.845-1.179-1.562-1.179c-0.729,0-1.251,0.393-1.565,1.179
		C165.787,134.345,165.63,135.638,165.63,137.438z"/>
	<path fill="#FFFFFF" d="M175.818,144.775l5.511-12.045h-7.237v-2.609h10.529v1.947l-5.551,12.707H175.818z"/>
</g>
<g>
	<path fill="#FFFFFF" d="M140.868,261.273h-3.102v-8.492l0.03-1.395l0.051-1.525c-0.516,0.516-0.874,0.854-1.074,1.014l-1.687,1.355
		l-1.495-1.867l4.728-3.764h2.549V261.273z"/>
	<path fill="#FFFFFF" d="M148.718,259.115c-0.349,1.352-0.938,2.955-1.767,4.809h-2.208c0.435-1.781,0.772-3.46,1.014-5.039h2.811
		L148.718,259.115z"/>
	<path fill="#FFFFFF" d="M161.485,258.232h-1.767v3.041h-3.031v-3.041h-6.263v-2.158l6.434-9.475h2.86v9.224h1.767V258.232z
		 M156.687,255.823v-2.489c0-0.415,0.017-1.018,0.051-1.807c0.033-0.789,0.06-1.248,0.08-1.375h-0.08
		c-0.248,0.549-0.546,1.084-0.894,1.605l-2.69,4.065H156.687z"/>
	<path fill="#FFFFFF" d="M164.084,261.273l5.511-12.045h-7.237v-2.609h10.529v1.947l-5.551,12.707H164.084z"/>
	<path fill="#FFFFFF" d="M184.048,249.881c0,0.917-0.277,1.697-0.833,2.339c-0.556,0.643-1.335,1.084-2.339,1.325v0.061
		c1.185,0.146,2.081,0.506,2.69,1.078c0.608,0.572,0.913,1.344,0.913,2.314c0,1.412-0.512,2.511-1.535,3.297
		c-1.024,0.786-2.486,1.18-4.387,1.18c-1.593,0-3.005-0.265-4.235-0.793v-2.641c0.568,0.288,1.194,0.522,1.877,0.703
		s1.358,0.271,2.027,0.271c1.023,0,1.78-0.174,2.269-0.522s0.732-0.907,0.732-1.677c0-0.688-0.281-1.178-0.843-1.465
		c-0.563-0.287-1.459-0.432-2.69-0.432h-1.114v-2.379h1.135c1.138,0,1.969-0.148,2.494-0.447c0.525-0.297,0.788-0.808,0.788-1.53
		c0-1.11-0.696-1.666-2.088-1.666c-0.482,0-0.973,0.08-1.471,0.241c-0.498,0.16-1.053,0.438-1.661,0.833l-1.436-2.138
		c1.339-0.964,2.935-1.445,4.788-1.445c1.519,0,2.719,0.307,3.599,0.923S184.048,248.783,184.048,249.881z"/>
</g>
</svg>
