<?xml version="1.0" encoding="utf-8"?>
<!-- Generator: Adobe Illustrator 16.0.0, SVG Export Plug-In . SVG Version: 6.00 Build 0)  -->
<!DOCTYPE svg PUBLIC "-//W3C//DTD SVG 1.1//EN" "http://www.w3.org/Graphics/SVG/1.1/DTD/svg11.dtd">
<svg version="1.1" id="Capa_1" xmlns="http://www.w3.org/2000/svg" xmlns:xlink="http://www.w3.org/1999/xlink" x="0px" y="0px"
	 width="291.969px" height="850.394px" viewBox="12.516 -133.697 291.969 850.394"
	 enable-background="new 12.516 -133.697 291.969 850.394" xml:space="preserve">
<rect x="22.011" y="528.944" fill="#E9BF64" width="18.592" height="18.595"/>
<rect x="22.011" y="553.691" fill="#1F9B9C" width="18.592" height="18.592"/>
<rect x="22.011" y="579.468" fill="#C7DFDF" width="18.592" height="18.596"/>
<g>
	<path fill="#666565" d="M53.914,531.915h1.271l2.642,4.996l2.656-4.996h1.261l-3.339,6.117v3.876h-1.159v-3.818L53.914,531.915z"/>
	<path fill="#666565" d="M63.128,541.909v-9.993h1.162v8.954h4.41v1.039H63.128z"/>
	<path fill="#666565" d="M70.395,541.909v-9.993h3.063c1.554,0,2.762,0.433,3.623,1.292c0.858,0.86,1.292,2.063,1.292,3.608
		c0,1.649-0.447,2.911-1.347,3.784c-0.895,0.872-2.184,1.309-3.862,1.309H70.395z M71.557,540.904h1.415
		c1.386,0,2.427-0.341,3.124-1.021c0.697-0.684,1.046-1.689,1.046-3.024c0-1.304-0.327-2.285-0.979-2.945
		c-0.654-0.66-1.626-0.989-2.916-0.989h-1.688L71.557,540.904L71.557,540.904z"/>
	<path fill="#666565" d="M79.801,538.676v-1.039h3.356v1.039H79.801z"/>
	<path fill="#666565" d="M85.106,541.909v-9.993h1.313l5.447,8.354h0.055c-0.009-0.128-0.029-0.523-0.063-1.188
		c-0.021-0.521-0.031-0.924-0.031-1.21c0-0.082,0-0.153,0-0.22v-5.732h1.07v9.991h-1.313l-5.462-8.388H86.07
		c0.073,0.984,0.109,1.887,0.109,2.707v5.681L85.106,541.909L85.106,541.909z"/>
	<path fill="#666565" d="M95.073,538.149c0-1.219,0.308-2.169,0.913-2.849c0.609-0.684,1.454-1.021,2.535-1.021
		c1.046,0,1.876,0.351,2.491,1.044c0.616,0.696,0.924,1.641,0.924,2.825c0,1.225-0.307,2.179-0.92,2.866
		c-0.613,0.687-1.461,1.03-2.542,1.03c-0.669,0-1.262-0.157-1.779-0.476c-0.518-0.313-0.918-0.767-1.196-1.354
		C95.213,539.629,95.073,538.939,95.073,538.149z M96.235,538.149c0,0.959,0.191,1.69,0.575,2.192
		c0.383,0.503,0.947,0.754,1.691,0.754c0.743,0,1.309-0.25,1.691-0.75c0.388-0.5,0.578-1.232,0.578-2.196
		c0-0.955-0.19-1.68-0.578-2.176c-0.386-0.495-0.952-0.743-1.708-0.743c-0.741,0-1.306,0.244-1.685,0.733
		C96.424,536.452,96.235,537.181,96.235,538.149z"/>
	<path fill="#666565" d="M103.946,541.909v-7.491h0.926l0.185,1.014h0.055c0.232-0.364,0.562-0.647,0.979-0.85
		c0.419-0.199,0.887-0.302,1.398-0.302c0.902,0,1.581,0.219,2.037,0.652c0.456,0.436,0.687,1.132,0.687,2.089v4.888h-1.135v-4.854
		c0-0.612-0.142-1.068-0.417-1.37c-0.278-0.302-0.716-0.452-1.309-0.452c-0.784,0-1.355,0.212-1.723,0.637
		c-0.365,0.428-0.547,1.126-0.547,2.104v3.938L103.946,541.909L103.946,541.909z"/>
	<path fill="#666565" d="M115.17,535.299v-0.516l1.34-0.407v-0.415c0-1.833,0.805-2.75,2.413-2.75c0.396,0,0.861,0.076,1.395,0.232
		l-0.294,0.899c-0.438-0.145-0.812-0.212-1.121-0.212c-0.429,0-0.742,0.143-0.947,0.428c-0.205,0.284-0.311,0.741-0.311,1.37v0.482
		h1.907v0.885h-1.907v6.607h-1.135v-6.607L115.17,535.299L115.17,535.299z"/>
	<path fill="#666565" d="M120.359,539.846c0-1.51,1.212-2.301,3.638-2.373l1.271-0.042v-0.47c0-0.599-0.126-1.035-0.379-1.318
		c-0.252-0.284-0.656-0.426-1.211-0.426c-0.623,0-1.328,0.19-2.115,0.581l-0.353-0.871c0.369-0.197,0.771-0.354,1.213-0.465
		c0.438-0.111,0.881-0.168,1.323-0.168c0.893,0,1.554,0.195,1.98,0.595c0.434,0.396,0.646,1.032,0.646,1.907v5.11h-0.841
		l-0.229-1.054h-0.055c-0.373,0.464-0.745,0.779-1.115,0.943c-0.371,0.165-0.834,0.247-1.389,0.247c-0.747,0-1.332-0.19-1.755-0.572
		C120.571,541.092,120.359,540.55,120.359,539.846z M121.562,539.859c0,0.412,0.124,0.729,0.372,0.94
		c0.248,0.216,0.595,0.32,1.04,0.32c0.705,0,1.259-0.191,1.662-0.584c0.402-0.389,0.604-0.934,0.604-1.635v-0.68l-1.136,0.048
		c-0.897,0.032-1.55,0.173-1.945,0.423C121.761,538.944,121.562,539.333,121.562,539.859z"/>
	<path fill="#666565" d="M127.714,535.299v-0.547l1.073-0.475l0.479-1.6h0.656v1.733h2.174v0.885h-2.174v4.42
		c0,0.452,0.104,0.799,0.321,1.041c0.214,0.239,0.508,0.36,0.882,0.36c0.2,0,0.395-0.015,0.581-0.045
		c0.187-0.026,0.335-0.061,0.441-0.092v0.857c-0.123,0.059-0.305,0.104-0.543,0.145c-0.237,0.038-0.455,0.06-0.646,0.06
		c-1.449,0-2.174-0.766-2.174-2.29v-4.456L127.714,535.299L127.714,535.299z"/>
	<path fill="#666565" d="M133.087,539.846c0-1.51,1.212-2.301,3.635-2.373l1.273-0.042v-0.47c0-0.599-0.126-1.035-0.379-1.318
		c-0.255-0.284-0.656-0.426-1.214-0.426c-0.62,0-1.325,0.19-2.112,0.581l-0.354-0.871c0.369-0.197,0.773-0.354,1.213-0.465
		c0.44-0.111,0.881-0.168,1.323-0.168c0.896,0,1.554,0.195,1.983,0.595c0.431,0.396,0.646,1.032,0.646,1.907v5.11h-0.841
		l-0.226-1.054h-0.058c-0.373,0.464-0.745,0.779-1.115,0.943c-0.368,0.165-0.834,0.247-1.389,0.247c-0.747,0-1.332-0.19-1.755-0.572
		C133.299,541.092,133.087,540.55,133.087,539.846z M134.291,539.859c0,0.412,0.124,0.729,0.372,0.94
		c0.248,0.216,0.595,0.32,1.04,0.32c0.705,0,1.259-0.191,1.659-0.584c0.402-0.389,0.604-0.934,0.604-1.635v-0.68l-1.133,0.048
		c-0.9,0.032-1.55,0.173-1.948,0.423C134.49,538.944,134.291,539.333,134.291,539.859z"/>
	<path fill="#666565" d="M141.434,541.909v-10.637h1.135v10.637H141.434z"/>
	<path fill="#666565" d="M148.516,532.387c0-0.261,0.062-0.45,0.177-0.571c0.117-0.12,0.268-0.181,0.441-0.181
		c0.196,0,0.365,0.062,0.508,0.185c0.146,0.123,0.214,0.313,0.214,0.567s-0.068,0.442-0.214,0.568
		c-0.143,0.125-0.312,0.188-0.508,0.188c-0.177,0-0.324-0.063-0.441-0.188C148.576,532.83,148.516,532.642,148.516,532.387z
		 M148.612,541.909v-7.491h1.039v7.491H148.612z"/>
	<path fill="#666565" d="M152.153,541.909v-7.491h0.926l0.185,1.014h0.055c0.232-0.364,0.562-0.647,0.979-0.85
		c0.419-0.199,0.887-0.302,1.398-0.302c0.902,0,1.581,0.219,2.037,0.652c0.456,0.436,0.687,1.132,0.687,2.089v4.888h-1.137v-4.854
		c0-0.612-0.14-1.068-0.417-1.37c-0.276-0.302-0.714-0.452-1.307-0.452c-0.784,0-1.355,0.212-1.723,0.637
		c-0.365,0.428-0.547,1.126-0.547,2.104v3.938L152.153,541.909L152.153,541.909z"/>
	<path fill="#666565" d="M158.784,544.186c0.313,0.091,0.624,0.137,0.93,0.137c0.354,0,0.616-0.097,0.782-0.291
		c0.167-0.19,0.25-0.488,0.25-0.886v-8.729h1.135v8.641c0,1.477-0.685,2.215-2.044,2.215c-0.436,0-0.784-0.057-1.053-0.17V544.186
		L158.784,544.186z M160.65,532.387c0-0.261,0.063-0.45,0.191-0.571c0.128-0.12,0.287-0.181,0.479-0.181
		c0.208,0,0.391,0.062,0.539,0.185c0.151,0.123,0.229,0.313,0.229,0.567s-0.075,0.442-0.229,0.568
		c-0.148,0.125-0.331,0.188-0.539,0.188c-0.188,0-0.351-0.063-0.479-0.188S160.65,532.642,160.65,532.387z"/>
	<path fill="#666565" d="M164.205,539.318v-4.9h1.162v4.859c0,0.61,0.139,1.066,0.416,1.367c0.274,0.301,0.712,0.451,1.304,0.451
		c0.782,0,1.354-0.214,1.716-0.646c0.362-0.429,0.543-1.128,0.543-2.099v-3.938h1.135v7.491h-0.923l-0.176-1.005h-0.063
		c-0.229,0.369-0.554,0.651-0.966,0.849c-0.411,0.195-0.881,0.296-1.409,0.296c-0.915,0-1.601-0.22-2.056-0.649
		S164.205,540.271,164.205,539.318z"/>
	<path fill="#666565" d="M172.879,541.909v-7.491h0.923l0.139,1.396H174c0.275-0.489,0.611-0.866,1.006-1.132
		c0.392-0.268,0.822-0.398,1.292-0.398c0.333,0,0.631,0.027,0.896,0.083l-0.154,1.062c-0.313-0.068-0.583-0.104-0.82-0.104
		c-0.606,0-1.125,0.246-1.555,0.737c-0.435,0.492-0.646,1.104-0.646,1.837v4.017L172.879,541.909L172.879,541.909z"/>
	<path fill="#666565" d="M178.499,532.387c0-0.261,0.059-0.45,0.177-0.571c0.117-0.12,0.265-0.181,0.441-0.181
		c0.193,0,0.362,0.062,0.508,0.185c0.143,0.123,0.214,0.313,0.214,0.567s-0.071,0.442-0.214,0.568
		c-0.146,0.125-0.313,0.188-0.508,0.188c-0.18,0-0.324-0.063-0.441-0.188C178.557,532.832,178.499,532.642,178.499,532.387z
		 M178.594,541.909v-7.491h1.039v7.491H178.594z"/>
	<path fill="#666565" d="M181.718,538.225c0-1.208,0.297-2.167,0.89-2.878c0.596-0.711,1.392-1.066,2.392-1.066
		c0.936,0,1.676,0.312,2.221,0.927c0.545,0.617,0.817,1.435,0.817,2.443v0.718h-5.154c0.021,0.881,0.245,1.548,0.668,2.003
		c0.422,0.456,1.017,0.687,1.783,0.687c0.805,0,1.6-0.169,2.386-0.506v1.012c-0.4,0.173-0.778,0.298-1.135,0.372
		c-0.357,0.076-0.787,0.113-1.292,0.113c-1.104,0-1.979-0.339-2.614-1.015C182.043,540.359,181.718,539.423,181.718,538.225z
		 M182.908,537.445h3.924c0-0.716-0.16-1.264-0.479-1.644c-0.316-0.381-0.773-0.571-1.369-0.571c-0.603,0-1.083,0.196-1.438,0.588
		C183.185,536.211,182.971,536.753,182.908,537.445z"/>
	<path fill="#666565" d="M189.511,536.258c0-0.611,0.248-1.097,0.744-1.447c0.496-0.354,1.177-0.53,2.042-0.53
		c0.802,0,1.585,0.164,2.351,0.492l-0.396,0.924c-0.75-0.311-1.429-0.466-2.037-0.466c-0.539,0-0.945,0.085-1.22,0.254
		c-0.275,0.169-0.411,0.401-0.411,0.698c0,0.201,0.052,0.372,0.151,0.514c0.104,0.146,0.271,0.276,0.496,0.404
		c0.229,0.129,0.667,0.313,1.315,0.556c0.889,0.324,1.486,0.65,1.792,0.979c0.307,0.329,0.46,0.742,0.46,1.24
		c0,0.691-0.259,1.229-0.775,1.604c-0.516,0.376-1.238,0.564-2.175,0.564c-0.992,0-1.766-0.155-2.317-0.468v-1.047
		c0.356,0.186,0.742,0.326,1.153,0.435c0.412,0.104,0.813,0.154,1.191,0.154c0.594,0,1.05-0.095,1.37-0.281
		c0.316-0.189,0.479-0.479,0.479-0.867c0-0.292-0.127-0.542-0.38-0.75c-0.254-0.208-0.748-0.453-1.48-0.736
		c-0.699-0.261-1.194-0.488-1.487-0.682c-0.292-0.194-0.51-0.415-0.653-0.662C189.583,536.896,189.511,536.601,189.511,536.258z"/>
	<path fill="#666565" d="M199.745,539.846c0-1.51,1.212-2.301,3.635-2.373l1.271-0.042v-0.47c0-0.599-0.126-1.035-0.379-1.318
		c-0.252-0.284-0.653-0.426-1.211-0.426c-0.623,0-1.328,0.19-2.115,0.581l-0.353-0.871c0.369-0.197,0.773-0.354,1.213-0.465
		c0.44-0.111,0.881-0.168,1.323-0.168c0.893,0,1.554,0.195,1.98,0.595c0.434,0.396,0.646,1.032,0.646,1.907v5.11h-0.841
		l-0.229-1.054h-0.055c-0.373,0.464-0.745,0.779-1.115,0.943c-0.371,0.165-0.834,0.247-1.389,0.247c-0.747,0-1.332-0.19-1.755-0.572
		C199.957,541.092,199.745,540.55,199.745,539.846z M200.948,539.859c0,0.412,0.124,0.729,0.372,0.94
		c0.248,0.216,0.598,0.32,1.04,0.32c0.705,0,1.262-0.191,1.662-0.584c0.402-0.389,0.604-0.934,0.604-1.635v-0.68l-1.133,0.048
		c-0.9,0.032-1.553,0.173-1.948,0.423C201.147,538.944,200.948,539.333,200.948,539.859z"/>
	<path fill="#666565" d="M208.091,541.909v-7.491h0.923l0.188,1.014h0.055c0.229-0.364,0.559-0.647,0.978-0.85
		c0.419-0.199,0.89-0.302,1.401-0.302c0.902,0,1.581,0.219,2.037,0.652c0.456,0.436,0.684,1.132,0.684,2.089v4.888h-1.135v-4.854
		c0-0.612-0.139-1.068-0.417-1.37s-0.713-0.452-1.306-0.452c-0.784,0-1.358,0.212-1.726,0.637c-0.362,0.428-0.547,1.126-0.547,2.104
		v3.938L208.091,541.909L208.091,541.909z"/>
	<path fill="#666565" d="M216.267,538.184c0-1.235,0.272-2.194,0.817-2.878c0.545-0.687,1.304-1.025,2.272-1.025
		c1.021,0,1.802,0.369,2.345,1.107h0.089l-0.048-0.54l-0.027-0.526v-3.049h1.135v10.637h-0.923l-0.15-1.005h-0.062
		c-0.525,0.762-1.313,1.145-2.355,1.145c-0.977,0-1.733-0.335-2.275-1.007C216.539,540.371,216.267,539.419,216.267,538.184z
		 M217.429,538.197c0,0.957,0.176,1.683,0.527,2.167c0.351,0.487,0.864,0.731,1.547,0.731c0.773,0,1.339-0.211,1.688-0.632
		c0.352-0.425,0.523-1.104,0.523-2.041v-0.239c0-1.063-0.177-1.819-0.53-2.272s-0.919-0.681-1.695-0.681
		c-0.666,0-1.176,0.259-1.527,0.776C217.606,536.523,217.429,537.254,217.429,538.197z"/>
	<path fill="#666565" d="M228.804,532.387c0-0.261,0.059-0.45,0.177-0.571c0.117-0.12,0.268-0.181,0.441-0.181
		c0.196,0,0.365,0.062,0.508,0.185s0.214,0.313,0.214,0.567s-0.071,0.442-0.214,0.568c-0.143,0.125-0.312,0.188-0.508,0.188
		c-0.177,0-0.324-0.063-0.441-0.188C228.863,532.832,228.804,532.642,228.804,532.387z M228.9,541.909v-7.491h1.039v7.491H228.9z"/>
	<path fill="#666565" d="M232.441,541.909v-10.637h1.138v10.637H232.441z"/>
	<path fill="#666565" d="M235.982,541.909v-10.637h1.138v10.637H235.982z"/>
	<path fill="#666565" d="M239.523,541.909v-7.491h0.923l0.188,1.014h0.055c0.232-0.364,0.562-0.647,0.979-0.85
		c0.419-0.199,0.887-0.302,1.398-0.302c0.902,0,1.581,0.219,2.037,0.652c0.456,0.436,0.687,1.132,0.687,2.089v4.888h-1.138v-4.854
		c0-0.612-0.139-1.068-0.417-1.37c-0.275-0.302-0.713-0.452-1.306-0.452c-0.784,0-1.358,0.212-1.723,0.637
		c-0.365,0.428-0.547,1.126-0.547,2.104v3.938L239.523,541.909L239.523,541.909z"/>
	<path fill="#666565" d="M247.699,538.225c0-1.208,0.297-2.167,0.89-2.878s1.389-1.066,2.389-1.066c0.938,0,1.676,0.312,2.224,0.927
		c0.545,0.617,0.814,1.435,0.814,2.443v0.718h-5.154c0.022,0.881,0.245,1.548,0.668,2.003c0.425,0.456,1.02,0.687,1.783,0.687
		c0.808,0,1.603-0.169,2.389-0.506v1.012c-0.4,0.173-0.778,0.298-1.138,0.372c-0.354,0.076-0.787,0.113-1.292,0.113
		c-1.104,0-1.976-0.339-2.611-1.015C248.02,540.359,247.699,539.423,247.699,538.225z M248.888,537.445h3.924
		c0-0.716-0.16-1.264-0.479-1.644c-0.319-0.381-0.776-0.571-1.369-0.571c-0.604,0-1.083,0.196-1.441,0.588
		C249.165,536.211,248.952,536.753,248.888,537.445z"/>
	<path fill="#666565" d="M255.492,536.258c0-0.611,0.248-1.097,0.741-1.447c0.496-0.354,1.18-0.53,2.042-0.53
		c0.805,0,1.585,0.164,2.354,0.492l-0.396,0.924c-0.75-0.311-1.429-0.466-2.037-0.466c-0.536,0-0.942,0.085-1.22,0.254
		c-0.272,0.169-0.411,0.401-0.411,0.698c0,0.201,0.055,0.372,0.154,0.514c0.103,0.146,0.269,0.276,0.496,0.404
		c0.229,0.129,0.667,0.313,1.313,0.556c0.892,0.324,1.486,0.65,1.792,0.979c0.31,0.329,0.46,0.742,0.46,1.24
		c0,0.691-0.259,1.229-0.772,1.604s-1.241,0.564-2.175,0.564c-0.992,0-1.769-0.155-2.32-0.468v-1.047
		c0.359,0.186,0.745,0.326,1.156,0.435c0.412,0.104,0.81,0.154,1.188,0.154c0.597,0,1.053-0.095,1.37-0.281
		c0.319-0.189,0.479-0.479,0.479-0.867c0-0.292-0.127-0.542-0.38-0.75c-0.256-0.208-0.748-0.453-1.483-0.736
		c-0.699-0.261-1.194-0.488-1.487-0.682c-0.292-0.194-0.51-0.415-0.65-0.662C255.563,536.896,255.492,536.601,255.492,536.258z"/>
	<path fill="#666565" d="M262.17,536.258c0-0.611,0.248-1.097,0.744-1.447c0.496-0.354,1.177-0.53,2.042-0.53
		c0.802,0,1.585,0.164,2.351,0.492l-0.396,0.924c-0.75-0.311-1.432-0.466-2.037-0.466c-0.539,0-0.945,0.085-1.223,0.254
		c-0.272,0.169-0.408,0.401-0.408,0.698c0,0.201,0.052,0.372,0.151,0.514c0.104,0.146,0.271,0.276,0.496,0.404
		c0.229,0.129,0.667,0.313,1.315,0.556c0.889,0.324,1.483,0.65,1.792,0.979c0.307,0.329,0.46,0.742,0.46,1.24
		c0,0.691-0.259,1.229-0.775,1.604c-0.516,0.376-1.241,0.564-2.175,0.564c-0.992,0-1.766-0.155-2.32-0.468v-1.047
		c0.359,0.186,0.745,0.326,1.156,0.435c0.412,0.104,0.81,0.154,1.191,0.154c0.594,0,1.05-0.095,1.37-0.281
		c0.316-0.189,0.479-0.479,0.479-0.867c0-0.292-0.127-0.542-0.38-0.75c-0.254-0.208-0.748-0.453-1.483-0.736
		c-0.696-0.261-1.191-0.488-1.484-0.682c-0.292-0.194-0.513-0.415-0.653-0.662C262.242,536.896,262.17,536.601,262.17,536.258z"/>
	<path fill="#666565" d="M268.911,538.225c0-1.208,0.297-2.167,0.89-2.878s1.389-1.066,2.389-1.066c0.938,0,1.679,0.312,2.224,0.927
		c0.545,0.617,0.814,1.435,0.814,2.443v0.718h-5.151c0.021,0.881,0.242,1.548,0.668,2.003c0.422,0.456,1.017,0.687,1.78,0.687
		c0.808,0,1.603-0.169,2.389-0.506v1.012c-0.4,0.173-0.778,0.298-1.138,0.372c-0.354,0.076-0.785,0.113-1.292,0.113
		c-1.104,0-1.976-0.339-2.611-1.015C269.232,540.359,268.911,539.423,268.911,538.225z M270.1,537.445h3.924
		c0-0.716-0.16-1.264-0.479-1.644c-0.319-0.381-0.776-0.571-1.369-0.571c-0.603,0-1.083,0.196-1.441,0.588
		C270.377,536.211,270.164,536.753,270.1,537.445z"/>
	<path fill="#666565" d="M276.704,536.258c0-0.611,0.248-1.097,0.741-1.447c0.496-0.354,1.18-0.53,2.042-0.53
		c0.805,0,1.588,0.164,2.354,0.492l-0.396,0.924c-0.75-0.311-1.429-0.466-2.034-0.466c-0.539,0-0.945,0.085-1.223,0.254
		c-0.272,0.169-0.411,0.401-0.411,0.698c0,0.201,0.055,0.372,0.154,0.514c0.104,0.146,0.271,0.276,0.496,0.404
		c0.229,0.129,0.667,0.313,1.315,0.556c0.889,0.324,1.483,0.65,1.792,0.979c0.307,0.329,0.46,0.742,0.46,1.24
		c0,0.691-0.262,1.229-0.775,1.604s-1.241,0.564-2.175,0.564c-0.992,0-1.769-0.155-2.32-0.468v-1.047
		c0.359,0.186,0.745,0.326,1.156,0.435c0.412,0.104,0.81,0.154,1.188,0.154c0.597,0,1.053-0.095,1.37-0.281
		c0.319-0.189,0.479-0.479,0.479-0.867c0-0.292-0.127-0.542-0.38-0.75c-0.254-0.208-0.748-0.453-1.483-0.736
		c-0.699-0.261-1.194-0.488-1.487-0.682c-0.292-0.194-0.51-0.415-0.65-0.662C276.775,536.896,276.704,536.601,276.704,536.258z"/>
</g>
<g>
	<path fill="#666565" d="M53.914,557.234h1.271l2.642,4.997l2.656-4.997h1.261l-3.339,6.118v3.876h-1.159v-3.821L53.914,557.234z"/>
	<path fill="#666565" d="M61.843,563.544c0-1.208,0.297-2.167,0.89-2.878c0.596-0.711,1.392-1.064,2.392-1.064
		c0.936,0,1.676,0.309,2.221,0.926c0.545,0.618,0.817,1.434,0.817,2.444v0.718h-5.154c0.021,0.88,0.245,1.547,0.668,2.003
		c0.422,0.456,1.017,0.685,1.783,0.685c0.805,0,1.6-0.169,2.386-0.506v1.013c-0.4,0.174-0.778,0.299-1.135,0.371
		c-0.357,0.075-0.787,0.112-1.292,0.112c-1.104,0-1.979-0.337-2.614-1.012S61.843,564.742,61.843,563.544z M63.033,562.765h3.924
		c0-0.718-0.16-1.266-0.479-1.646c-0.316-0.381-0.773-0.57-1.369-0.57c-0.603,0-1.083,0.195-1.438,0.589
		C63.31,561.529,63.096,562.072,63.033,562.765z"/>
	<path fill="#666565" d="M69.554,565.164c0-1.51,1.212-2.301,3.635-2.372l1.273-0.042v-0.471c0-0.596-0.126-1.035-0.379-1.317
		c-0.252-0.282-0.656-0.427-1.211-0.427c-0.623,0-1.328,0.193-2.115,0.581l-0.354-0.87c0.369-0.197,0.773-0.354,1.216-0.466
		c0.438-0.11,0.881-0.168,1.32-0.168c0.896,0,1.557,0.198,1.983,0.595c0.431,0.396,0.646,1.032,0.646,1.907v5.113h-0.841
		l-0.226-1.056h-0.058c-0.37,0.466-0.742,0.778-1.112,0.942c-0.371,0.165-0.834,0.247-1.392,0.247c-0.747,0-1.332-0.189-1.755-0.572
		C69.766,566.411,69.554,565.869,69.554,565.164z M70.757,565.178c0,0.411,0.124,0.727,0.372,0.938
		c0.248,0.217,0.595,0.323,1.04,0.323c0.705,0,1.259-0.193,1.662-0.584c0.399-0.39,0.604-0.936,0.604-1.635v-0.682l-1.133,0.048
		c-0.9,0.031-1.55,0.174-1.948,0.424C70.957,564.264,70.757,564.652,70.757,565.178z"/>
	<path fill="#666565" d="M77.901,567.229v-7.492h0.926l0.139,1.395h0.059c0.278-0.487,0.614-0.864,1.006-1.133
		c0.395-0.266,0.822-0.396,1.292-0.396c0.333,0,0.634,0.025,0.896,0.083l-0.157,1.059c-0.31-0.067-0.583-0.103-0.818-0.103
		c-0.605,0-1.125,0.244-1.557,0.735s-0.646,1.104-0.646,1.837v4.018L77.901,567.229L77.901,567.229z"/>
	<path fill="#666565" d="M83.137,561.577c0-0.61,0.248-1.094,0.744-1.446c0.496-0.354,1.177-0.528,2.042-0.528
		c0.802,0,1.585,0.164,2.351,0.49l-0.396,0.926c-0.75-0.313-1.429-0.467-2.037-0.467c-0.539,0-0.945,0.085-1.22,0.255
		c-0.275,0.169-0.411,0.398-0.411,0.696c0,0.2,0.052,0.372,0.151,0.516c0.104,0.143,0.271,0.274,0.496,0.402
		c0.229,0.13,0.667,0.313,1.315,0.558c0.889,0.323,1.486,0.648,1.792,0.979c0.307,0.329,0.46,0.742,0.46,1.24
		c0,0.694-0.259,1.229-0.775,1.604c-0.516,0.376-1.238,0.563-2.175,0.563c-0.992,0-1.766-0.155-2.317-0.465v-1.047
		c0.356,0.183,0.742,0.325,1.153,0.432c0.412,0.104,0.813,0.157,1.191,0.157c0.594,0,1.05-0.095,1.37-0.284
		c0.316-0.188,0.479-0.479,0.479-0.867c0-0.292-0.127-0.542-0.38-0.75c-0.254-0.208-0.748-0.452-1.483-0.733
		c-0.696-0.264-1.191-0.488-1.484-0.685c-0.292-0.192-0.51-0.415-0.653-0.661C83.208,562.215,83.137,561.92,83.137,561.577z"/>
	<path fill="#666565" d="M93.514,563.469c0-1.219,0.305-2.169,0.913-2.85c0.609-0.681,1.454-1.021,2.535-1.021
		c1.046,0,1.876,0.348,2.491,1.044c0.613,0.694,0.924,1.638,0.924,2.825c0,1.224-0.31,2.179-0.92,2.864
		c-0.613,0.688-1.461,1.029-2.542,1.029c-0.669,0-1.265-0.156-1.779-0.473c-0.518-0.314-0.918-0.77-1.199-1.355
		C93.655,564.948,93.514,564.259,93.514,563.469z M94.676,563.469c0,0.959,0.191,1.689,0.575,2.191
		c0.383,0.504,0.944,0.755,1.688,0.755c0.743,0,1.312-0.25,1.694-0.75s0.578-1.23,0.578-2.194c0-0.955-0.193-1.682-0.578-2.178
		c-0.386-0.495-0.955-0.742-1.708-0.742c-0.744,0-1.306,0.243-1.685,0.731C94.866,561.771,94.676,562.5,94.676,563.469z"/>
	<path fill="#666565" d="M101.382,560.618v-0.513l1.34-0.41v-0.415c0-1.833,0.805-2.75,2.413-2.75c0.396,0,0.861,0.079,1.395,0.235
		l-0.294,0.896c-0.438-0.142-0.812-0.212-1.118-0.212c-0.432,0-0.745,0.144-0.95,0.429c-0.205,0.283-0.311,0.74-0.311,1.37v0.484
		h1.907v0.882h-1.907v6.61h-1.135v-6.61L101.382,560.618L101.382,560.618z"/>
	<path fill="#666565" d="M110.768,567.229V556.59h1.135v10.639H110.768z"/>
	<path fill="#666565" d="M114.213,557.705c0-0.26,0.059-0.449,0.177-0.57c0.117-0.118,0.265-0.182,0.441-0.182
		c0.193,0,0.362,0.063,0.508,0.188c0.143,0.122,0.214,0.313,0.214,0.564c0,0.253-0.071,0.445-0.214,0.571
		c-0.146,0.125-0.313,0.188-0.508,0.188c-0.18,0-0.324-0.063-0.441-0.188C114.272,558.151,114.213,557.961,114.213,557.705z
		 M114.309,567.229v-7.492h1.039v7.492H114.309z"/>
	<path fill="#666565" d="M116.845,560.618v-0.513l1.34-0.41v-0.415c0-1.833,0.808-2.75,2.413-2.75c0.396,0,0.861,0.079,1.396,0.235
		l-0.294,0.896c-0.438-0.142-0.813-0.212-1.121-0.212c-0.432,0-0.745,0.144-0.95,0.429c-0.205,0.283-0.311,0.74-0.311,1.37v0.484
		h1.907v0.882h-1.907v6.61h-1.135v-6.61L116.845,560.618L116.845,560.618z"/>
	<path fill="#666565" d="M122.177,563.544c0-1.208,0.297-2.167,0.89-2.878c0.596-0.711,1.392-1.064,2.392-1.064
		c0.936,0,1.676,0.309,2.221,0.926c0.545,0.618,0.817,1.434,0.817,2.444v0.718h-5.154c0.021,0.88,0.245,1.547,0.668,2.003
		c0.422,0.456,1.017,0.685,1.783,0.685c0.805,0,1.6-0.169,2.386-0.506v1.013c-0.4,0.174-0.778,0.299-1.135,0.371
		c-0.357,0.075-0.787,0.112-1.292,0.112c-1.104,0-1.979-0.337-2.614-1.012S122.177,564.742,122.177,563.544z M123.367,562.765h3.924
		c0-0.718-0.16-1.266-0.479-1.646c-0.316-0.381-0.773-0.57-1.369-0.57c-0.603,0-1.083,0.195-1.438,0.589
		C123.644,561.529,123.43,562.072,123.367,562.765z"/>
	<path fill="#666565" d="M134.085,567.229V556.59h1.135v10.639H134.085z"/>
	<path fill="#666565" d="M137.209,563.469c0-1.219,0.305-2.169,0.913-2.85c0.606-0.681,1.454-1.021,2.535-1.021
		c1.046,0,1.876,0.348,2.488,1.044c0.616,0.694,0.924,1.638,0.924,2.825c0,1.224-0.307,2.179-0.92,2.864
		c-0.61,0.688-1.461,1.029-2.542,1.029c-0.669,0-1.262-0.156-1.776-0.473c-0.521-0.314-0.918-0.77-1.199-1.355
		C137.35,564.948,137.209,564.259,137.209,563.469z M138.372,563.469c0,0.959,0.188,1.689,0.572,2.191
		c0.386,0.504,0.947,0.755,1.691,0.755c0.743,0,1.309-0.25,1.694-0.75c0.385-0.5,0.578-1.23,0.578-2.194
		c0-0.955-0.193-1.682-0.578-2.178c-0.389-0.495-0.955-0.742-1.708-0.742c-0.744,0-1.309,0.243-1.688,0.731
		C138.561,561.771,138.372,562.5,138.372,563.469z"/>
	<path fill="#666565" d="M145.604,561.577c0-0.61,0.248-1.094,0.744-1.446c0.496-0.354,1.177-0.528,2.042-0.528
		c0.802,0,1.585,0.164,2.354,0.49l-0.396,0.926c-0.75-0.313-1.429-0.467-2.037-0.467c-0.539,0-0.944,0.085-1.22,0.255
		c-0.275,0.169-0.411,0.398-0.411,0.696c0,0.2,0.052,0.372,0.154,0.516c0.102,0.143,0.269,0.274,0.496,0.402
		c0.229,0.13,0.667,0.313,1.313,0.558c0.892,0.323,1.486,0.648,1.792,0.979c0.31,0.329,0.46,0.742,0.46,1.24
		c0,0.694-0.259,1.229-0.772,1.604c-0.519,0.376-1.241,0.563-2.178,0.563c-0.989,0-1.766-0.155-2.317-0.465v-1.047
		c0.356,0.183,0.745,0.325,1.156,0.432c0.409,0.104,0.81,0.157,1.188,0.157c0.594,0,1.05-0.095,1.37-0.284
		c0.319-0.188,0.479-0.479,0.479-0.867c0-0.292-0.127-0.542-0.38-0.75c-0.254-0.208-0.748-0.452-1.48-0.733
		c-0.699-0.264-1.194-0.488-1.487-0.685c-0.292-0.192-0.51-0.415-0.653-0.661S145.604,561.92,145.604,561.577z"/>
	<path fill="#666565" d="M151.77,560.618v-0.547l1.073-0.472l0.479-1.602h0.656v1.735h2.174v0.882h-2.174v4.42
		c0,0.452,0.107,0.8,0.321,1.041c0.214,0.242,0.508,0.363,0.882,0.363c0.2,0,0.396-0.017,0.581-0.045
		c0.188-0.029,0.335-0.063,0.444-0.093v0.855c-0.123,0.061-0.308,0.106-0.543,0.146c-0.24,0.038-0.455,0.058-0.646,0.058
		c-1.449,0-2.174-0.764-2.174-2.29v-4.457L151.77,560.618L151.77,560.618z"/>
	<path fill="#666565" d="M160.698,563.394c0-1.208,0.182-2.338,0.536-3.393c0.356-1.054,0.869-1.977,1.535-2.77h1.107
		c-0.656,0.88-1.149,1.846-1.479,2.896c-0.331,1.055-0.496,2.137-0.496,3.247c0,1.095,0.169,2.161,0.506,3.205
		c0.34,1.045,0.822,1.996,1.456,2.857h-1.094c-0.671-0.773-1.184-1.681-1.539-2.714
		C160.875,565.695,160.698,564.583,160.698,563.394z"/>
	<path fill="#666565" d="M164.28,557.234h1.271l2.639,4.997l2.659-4.997h1.258l-3.336,6.118v3.876h-1.162v-3.821L164.28,557.234z"/>
	<path fill="#666565" d="M173.495,567.229v-9.994h1.162v8.955h4.406v1.039H173.495z"/>
	<path fill="#666565" d="M180.761,567.229v-9.994h1.162v8.955h4.409v1.039H180.761z"/>
	<path fill="#666565" d="M187.071,557.234h1.107c0.671,0.798,1.184,1.725,1.539,2.779c0.354,1.055,0.532,2.182,0.532,3.38
		c0,1.196-0.182,2.313-0.536,3.35c-0.357,1.035-0.869,1.936-1.535,2.7h-1.094c0.634-0.855,1.119-1.811,1.456-2.854
		c0.337-1.047,0.506-2.114,0.506-3.21c0-1.11-0.165-2.192-0.496-3.247C188.22,559.08,187.727,558.114,187.071,557.234z"/>
	<path fill="#666565" d="M195.007,563.995v-1.038h3.354v1.038H195.007z"/>
	<path fill="#666565" d="M203.949,567.229v-9.994h5.568v1.039h-4.409v3.648h4.146v1.039h-4.146v4.268H203.949L203.949,567.229z"/>
	<path fill="#666565" d="M210.443,565.164c0-1.51,1.212-2.301,3.638-2.372l1.271-0.042v-0.471c0-0.596-0.126-1.035-0.379-1.317
		c-0.252-0.282-0.656-0.427-1.211-0.427c-0.623,0-1.328,0.193-2.115,0.581l-0.353-0.87c0.369-0.197,0.771-0.354,1.213-0.466
		c0.438-0.11,0.881-0.168,1.323-0.168c0.893,0,1.554,0.198,1.98,0.595c0.434,0.396,0.646,1.032,0.646,1.907v5.113h-0.842
		l-0.228-1.056h-0.055c-0.373,0.466-0.745,0.778-1.115,0.942c-0.371,0.165-0.834,0.247-1.389,0.247
		c-0.747,0-1.332-0.189-1.756-0.572C210.655,566.411,210.443,565.869,210.443,565.164z M211.646,565.178
		c0,0.411,0.124,0.727,0.372,0.938c0.248,0.217,0.595,0.323,1.04,0.323c0.705,0,1.259-0.193,1.662-0.584
		c0.402-0.39,0.604-0.936,0.604-1.635v-0.682l-1.136,0.048c-0.897,0.031-1.55,0.174-1.945,0.424
		C211.845,564.264,211.646,564.652,211.646,565.178z"/>
	<path fill="#666565" d="M217.798,560.618v-0.547l1.073-0.472l0.479-1.602h0.656v1.735h2.174v0.882h-2.174v4.42
		c0,0.452,0.104,0.8,0.321,1.041c0.214,0.242,0.508,0.363,0.882,0.363c0.2,0,0.395-0.017,0.581-0.045
		c0.186-0.029,0.335-0.063,0.441-0.093v0.855c-0.123,0.061-0.305,0.106-0.543,0.146c-0.237,0.038-0.455,0.058-0.646,0.058
		c-1.449,0-2.174-0.764-2.174-2.29v-4.457L217.798,560.618L217.798,560.618z"/>
	<path fill="#666565" d="M223.171,565.164c0-1.51,1.212-2.301,3.635-2.372l1.273-0.042v-0.471c0-0.596-0.126-1.035-0.379-1.317
		c-0.255-0.282-0.656-0.427-1.214-0.427c-0.62,0-1.325,0.193-2.112,0.581l-0.354-0.87c0.369-0.197,0.773-0.354,1.213-0.466
		c0.44-0.11,0.881-0.168,1.323-0.168c0.896,0,1.554,0.198,1.983,0.595c0.431,0.396,0.646,1.032,0.646,1.907v5.113h-0.841
		l-0.226-1.056h-0.058c-0.373,0.466-0.745,0.778-1.114,0.942c-0.369,0.165-0.835,0.247-1.39,0.247c-0.747,0-1.332-0.189-1.755-0.572
		C223.383,566.411,223.171,565.869,223.171,565.164z M224.375,565.178c0,0.411,0.124,0.727,0.372,0.938
		c0.248,0.217,0.595,0.323,1.04,0.323c0.705,0,1.259-0.193,1.662-0.584c0.399-0.39,0.604-0.936,0.604-1.635v-0.682l-1.133,0.048
		c-0.9,0.031-1.55,0.174-1.948,0.424C224.574,564.264,224.375,564.652,224.375,565.178z"/>
	<path fill="#666565" d="M231.518,567.229V556.59h1.135v10.639H231.518z"/>
	<path fill="#666565" d="M238.6,557.705c0-0.26,0.062-0.449,0.177-0.57c0.117-0.118,0.268-0.182,0.441-0.182
		c0.196,0,0.365,0.063,0.508,0.188c0.146,0.122,0.214,0.313,0.214,0.564c0,0.253-0.068,0.445-0.214,0.571
		c-0.143,0.125-0.312,0.188-0.508,0.188c-0.177,0-0.324-0.063-0.441-0.188S238.6,557.961,238.6,557.705z M238.696,567.229v-7.492
		h1.039v7.492H238.696z"/>
	<path fill="#666565" d="M242.237,567.229V556.59h1.138v10.639H242.237z"/>
	<path fill="#666565" d="M245.778,567.229V556.59h1.138v10.639H245.778z"/>
	<path fill="#666565" d="M249.319,567.229v-7.492h0.926l0.185,1.013h0.055c0.232-0.362,0.562-0.646,0.979-0.849
		s0.887-0.301,1.398-0.301c0.902,0,1.581,0.218,2.037,0.65c0.456,0.438,0.687,1.133,0.687,2.089v4.89h-1.137v-4.855
		c0-0.612-0.14-1.066-0.418-1.37c-0.275-0.303-0.713-0.452-1.306-0.452c-0.784,0-1.355,0.212-1.723,0.639
		c-0.365,0.425-0.547,1.126-0.547,2.104v3.938L249.319,567.229L249.319,567.229z"/>
	<path fill="#666565" d="M257.495,563.544c0-1.208,0.297-2.167,0.89-2.878s1.389-1.064,2.389-1.064c0.938,0,1.679,0.309,2.224,0.926
		c0.545,0.618,0.814,1.434,0.814,2.444v0.718h-5.151c0.021,0.88,0.242,1.547,0.668,2.003c0.422,0.456,1.017,0.685,1.78,0.685
		c0.808,0,1.603-0.169,2.389-0.506v1.013c-0.4,0.174-0.778,0.299-1.138,0.371c-0.354,0.075-0.785,0.112-1.292,0.112
		c-1.104,0-1.976-0.337-2.611-1.012C257.816,565.68,257.495,564.742,257.495,563.544z M258.684,562.765h3.924
		c0-0.718-0.16-1.266-0.479-1.646c-0.319-0.381-0.776-0.57-1.369-0.57c-0.603,0-1.083,0.195-1.441,0.589
		C258.961,561.529,258.748,562.072,258.684,562.765z"/>
	<path fill="#666565" d="M265.288,561.577c0-0.61,0.248-1.094,0.741-1.446c0.496-0.354,1.18-0.528,2.042-0.528
		c0.805,0,1.588,0.164,2.354,0.49l-0.396,0.926c-0.75-0.313-1.429-0.467-2.034-0.467c-0.539,0-0.945,0.085-1.223,0.255
		c-0.272,0.169-0.411,0.398-0.411,0.696c0,0.2,0.055,0.372,0.154,0.516c0.104,0.143,0.271,0.274,0.496,0.402
		c0.229,0.13,0.667,0.313,1.315,0.558c0.889,0.323,1.483,0.648,1.792,0.979c0.307,0.33,0.46,0.742,0.46,1.24
		c0,0.694-0.262,1.229-0.775,1.604s-1.241,0.563-2.175,0.563c-0.992,0-1.769-0.155-2.32-0.465v-1.047
		c0.359,0.183,0.745,0.325,1.156,0.432c0.412,0.104,0.81,0.157,1.188,0.157c0.597,0,1.053-0.095,1.37-0.284
		c0.319-0.188,0.479-0.479,0.479-0.867c0-0.292-0.127-0.542-0.38-0.75c-0.254-0.208-0.748-0.452-1.483-0.733
		c-0.699-0.264-1.194-0.488-1.487-0.685c-0.292-0.192-0.51-0.415-0.65-0.661C265.359,562.215,265.288,561.92,265.288,561.577z"/>
	<path fill="#666565" d="M271.966,561.577c0-0.61,0.248-1.094,0.744-1.446c0.496-0.354,1.177-0.528,2.042-0.528
		c0.802,0,1.585,0.164,2.351,0.49l-0.396,0.926c-0.75-0.313-1.432-0.467-2.037-0.467c-0.539,0-0.945,0.085-1.22,0.255
		c-0.275,0.169-0.411,0.398-0.411,0.696c0,0.2,0.052,0.372,0.151,0.516c0.104,0.143,0.271,0.274,0.496,0.402
		c0.229,0.13,0.667,0.313,1.315,0.558c0.889,0.323,1.483,0.648,1.792,0.979c0.307,0.33,0.46,0.742,0.46,1.24
		c0,0.694-0.259,1.229-0.775,1.604c-0.516,0.376-1.241,0.563-2.175,0.563c-0.992,0-1.766-0.155-2.32-0.465v-1.047
		c0.359,0.183,0.745,0.325,1.156,0.432c0.412,0.104,0.813,0.157,1.191,0.157c0.594,0,1.05-0.095,1.37-0.284
		c0.316-0.188,0.479-0.479,0.479-0.867c0-0.292-0.127-0.542-0.38-0.75c-0.254-0.208-0.748-0.452-1.483-0.733
		c-0.696-0.264-1.191-0.488-1.484-0.685c-0.292-0.192-0.513-0.415-0.653-0.661S271.966,561.92,271.966,561.577z"/>
	<path fill="#666565" d="M278.707,563.544c0-1.208,0.297-2.167,0.89-2.878s1.389-1.064,2.389-1.064c0.938,0,1.679,0.309,2.224,0.926
		c0.545,0.618,0.814,1.434,0.814,2.444v0.718h-5.151c0.021,0.88,0.245,1.547,0.668,2.003c0.422,0.456,1.017,0.685,1.78,0.685
		c0.808,0,1.603-0.169,2.389-0.506v1.013c-0.4,0.174-0.778,0.299-1.136,0.371c-0.356,0.075-0.786,0.112-1.292,0.112
		c-1.104,0-1.978-0.337-2.613-1.012C279.028,565.68,278.707,564.742,278.707,563.544z M279.896,562.765h3.924
		c0-0.718-0.157-1.266-0.479-1.646c-0.319-0.381-0.776-0.57-1.369-0.57c-0.603,0-1.083,0.195-1.441,0.589
		C280.173,561.529,279.959,562.072,279.896,562.765z"/>
	<path fill="#666565" d="M286.5,561.577c0-0.61,0.248-1.094,0.744-1.446c0.493-0.354,1.177-0.528,2.042-0.528
		c0.802,0,1.585,0.164,2.351,0.49l-0.396,0.926c-0.75-0.313-1.432-0.467-2.037-0.467c-0.539,0-0.945,0.085-1.223,0.255
		c-0.272,0.169-0.411,0.398-0.411,0.696c0,0.2,0.055,0.372,0.154,0.516c0.104,0.143,0.271,0.274,0.496,0.402
		c0.229,0.13,0.667,0.313,1.315,0.558c0.889,0.323,1.483,0.648,1.792,0.979c0.307,0.33,0.46,0.742,0.46,1.24
		c0,0.694-0.262,1.229-0.775,1.604s-1.241,0.563-2.175,0.563c-0.992,0-1.768-0.155-2.32-0.465v-1.047
		c0.359,0.183,0.745,0.325,1.156,0.432c0.412,0.104,0.81,0.157,1.191,0.157c0.594,0,1.05-0.095,1.367-0.284
		c0.319-0.188,0.479-0.479,0.479-0.867c0-0.292-0.127-0.542-0.38-0.75c-0.254-0.208-0.748-0.452-1.483-0.733
		c-0.699-0.264-1.191-0.488-1.486-0.685c-0.292-0.192-0.511-0.415-0.651-0.661S286.5,561.92,286.5,561.577z"/>
</g>
<g>
	<path fill="#666565" d="M53.914,582.439h1.271l2.642,4.997l2.656-4.997h1.261l-3.339,6.116v3.876h-1.159v-3.819L53.914,582.439z"/>
	<path fill="#666565" d="M61.843,588.749c0-1.208,0.297-2.167,0.89-2.878c0.596-0.712,1.392-1.066,2.392-1.066
		c0.936,0,1.676,0.311,2.221,0.928c0.545,0.616,0.817,1.434,0.817,2.442v0.72h-5.154c0.021,0.88,0.245,1.547,0.668,2.003
		c0.422,0.456,1.017,0.685,1.783,0.685c0.805,0,1.6-0.17,2.386-0.507v1.013c-0.4,0.173-0.778,0.298-1.135,0.372
		c-0.357,0.075-0.787,0.112-1.292,0.112c-1.104,0-1.979-0.337-2.614-1.012C62.164,590.884,61.843,589.947,61.843,588.749z
		 M63.033,587.97h3.924c0-0.716-0.16-1.265-0.479-1.645c-0.316-0.381-0.773-0.57-1.369-0.57c-0.603,0-1.083,0.195-1.438,0.588
		C63.31,586.735,63.096,587.277,63.033,587.97z"/>
	<path fill="#666565" d="M69.554,590.37c0-1.51,1.212-2.301,3.635-2.372l1.273-0.043v-0.47c0-0.596-0.126-1.035-0.379-1.317
		c-0.252-0.284-0.656-0.427-1.211-0.427c-0.623,0-1.328,0.193-2.115,0.581l-0.354-0.871c0.369-0.196,0.773-0.353,1.216-0.465
		c0.438-0.11,0.881-0.168,1.32-0.168c0.896,0,1.557,0.198,1.983,0.595c0.431,0.396,0.646,1.032,0.646,1.907v5.111h-0.841
		l-0.226-1.054h-0.058c-0.37,0.464-0.742,0.778-1.112,0.942c-0.371,0.165-0.834,0.247-1.392,0.247c-0.747,0-1.332-0.189-1.755-0.572
		C69.766,591.616,69.554,591.074,69.554,590.37z M70.757,590.384c0,0.412,0.124,0.728,0.372,0.939
		c0.248,0.216,0.595,0.323,1.04,0.323c0.705,0,1.259-0.194,1.662-0.584c0.399-0.391,0.604-0.936,0.604-1.637v-0.681l-1.133,0.049
		c-0.9,0.031-1.55,0.173-1.948,0.423C70.957,589.469,70.757,589.857,70.757,590.384z"/>
	<path fill="#666565" d="M77.901,592.433v-7.49h0.926l0.139,1.395h0.059c0.278-0.489,0.614-0.866,1.006-1.133
		c0.395-0.266,0.822-0.397,1.292-0.397c0.333,0,0.634,0.027,0.896,0.083l-0.157,1.061c-0.31-0.067-0.583-0.104-0.818-0.104
		c-0.605,0-1.125,0.246-1.557,0.737s-0.646,1.104-0.646,1.837v4.016L77.901,592.433L77.901,592.433z"/>
	<path fill="#666565" d="M83.137,586.782c0-0.61,0.248-1.094,0.744-1.446c0.496-0.354,1.177-0.53,2.042-0.53
		c0.802,0,1.585,0.164,2.351,0.492l-0.396,0.924c-0.75-0.312-1.429-0.466-2.037-0.466c-0.539,0-0.945,0.085-1.22,0.254
		c-0.275,0.169-0.411,0.4-0.411,0.698c0,0.2,0.052,0.372,0.151,0.514c0.104,0.145,0.271,0.276,0.496,0.404
		c0.229,0.129,0.667,0.313,1.315,0.556c0.889,0.324,1.486,0.65,1.792,0.979c0.307,0.329,0.46,0.742,0.46,1.24
		c0,0.692-0.259,1.229-0.775,1.604c-0.516,0.376-1.238,0.563-2.175,0.563c-0.992,0-1.766-0.154-2.317-0.465v-1.049
		c0.356,0.185,0.742,0.326,1.153,0.434c0.412,0.104,0.813,0.157,1.191,0.157c0.594,0,1.05-0.097,1.37-0.284
		c0.316-0.188,0.479-0.479,0.479-0.867c0-0.292-0.127-0.542-0.38-0.75c-0.254-0.208-0.748-0.452-1.483-0.735
		c-0.696-0.261-1.191-0.486-1.484-0.683c-0.292-0.193-0.51-0.415-0.653-0.662C83.208,587.42,83.137,587.125,83.137,586.782z"/>
	<path fill="#666565" d="M93.514,588.674c0-1.219,0.305-2.169,0.913-2.85c0.609-0.681,1.454-1.021,2.535-1.021
		c1.046,0,1.876,0.35,2.491,1.045c0.613,0.695,0.924,1.639,0.924,2.824c0,1.226-0.31,2.181-0.92,2.866
		c-0.613,0.688-1.461,1.029-2.542,1.029c-0.669,0-1.265-0.156-1.779-0.474c-0.518-0.313-0.918-0.769-1.199-1.354
		C93.655,590.153,93.514,589.464,93.514,588.674z M94.676,588.674c0,0.959,0.191,1.689,0.575,2.191
		c0.383,0.503,0.944,0.754,1.688,0.754c0.743,0,1.312-0.25,1.694-0.75s0.578-1.231,0.578-2.195c0-0.955-0.193-1.68-0.578-2.176
		c-0.386-0.495-0.955-0.743-1.708-0.743c-0.744,0-1.306,0.244-1.685,0.732C94.866,586.977,94.676,587.705,94.676,588.674z"/>
	<path fill="#666565" d="M101.382,585.823v-0.513l1.34-0.41v-0.415c0-1.833,0.805-2.75,2.413-2.75c0.396,0,0.861,0.079,1.395,0.233
		l-0.294,0.898c-0.438-0.142-0.812-0.212-1.118-0.212c-0.432,0-0.745,0.144-0.95,0.429c-0.205,0.283-0.311,0.74-0.311,1.369v0.485
		h1.907v0.882h-1.907v6.609h-1.135v-6.609L101.382,585.823L101.382,585.823z"/>
	<path fill="#666565" d="M110.768,592.433v-10.637h1.135v10.637H110.768z"/>
	<path fill="#666565" d="M114.213,582.911c0-0.26,0.059-0.449,0.177-0.57c0.117-0.12,0.265-0.182,0.441-0.182
		c0.193,0,0.362,0.063,0.508,0.186c0.143,0.123,0.214,0.313,0.214,0.566c0,0.255-0.071,0.445-0.214,0.571
		c-0.146,0.125-0.313,0.188-0.508,0.188c-0.18,0-0.324-0.063-0.441-0.188C114.272,583.356,114.213,583.166,114.213,582.911z
		 M114.309,592.433v-7.49h1.039v7.49H114.309z"/>
	<path fill="#666565" d="M116.845,585.823v-0.513l1.34-0.41v-0.415c0-1.833,0.808-2.75,2.413-2.75c0.396,0,0.861,0.079,1.396,0.233
		l-0.294,0.898c-0.438-0.142-0.813-0.212-1.121-0.212c-0.432,0-0.745,0.144-0.95,0.429c-0.205,0.283-0.311,0.74-0.311,1.369v0.485
		h1.907v0.882h-1.907v6.609h-1.135v-6.609L116.845,585.823L116.845,585.823z"/>
	<path fill="#666565" d="M122.177,588.749c0-1.208,0.297-2.167,0.89-2.878c0.596-0.712,1.392-1.066,2.392-1.066
		c0.936,0,1.676,0.311,2.221,0.928c0.545,0.616,0.817,1.434,0.817,2.442v0.72h-5.154c0.021,0.88,0.245,1.547,0.668,2.003
		c0.422,0.456,1.017,0.685,1.783,0.685c0.805,0,1.6-0.17,2.386-0.507v1.013c-0.4,0.173-0.778,0.298-1.135,0.372
		c-0.357,0.075-0.787,0.112-1.292,0.112c-1.104,0-1.979-0.337-2.614-1.012C122.498,590.884,122.177,589.947,122.177,588.749z
		 M123.367,587.97h3.924c0-0.716-0.16-1.265-0.479-1.645c-0.316-0.381-0.773-0.57-1.369-0.57c-0.603,0-1.083,0.195-1.438,0.588
		C123.644,586.735,123.43,587.277,123.367,587.97z"/>
	<path fill="#666565" d="M134.085,592.433v-10.637h1.135v10.637H134.085z"/>
	<path fill="#666565" d="M137.209,588.674c0-1.219,0.305-2.169,0.913-2.85c0.606-0.681,1.454-1.021,2.535-1.021
		c1.046,0,1.876,0.35,2.488,1.045c0.616,0.695,0.924,1.639,0.924,2.824c0,1.226-0.307,2.181-0.92,2.866
		c-0.61,0.688-1.461,1.029-2.542,1.029c-0.669,0-1.262-0.156-1.776-0.474c-0.521-0.313-0.918-0.769-1.199-1.354
		C137.35,590.153,137.209,589.464,137.209,588.674z M138.372,588.674c0,0.959,0.188,1.689,0.572,2.191
		c0.386,0.503,0.947,0.754,1.691,0.754c0.743,0,1.309-0.25,1.694-0.75c0.385-0.5,0.578-1.231,0.578-2.195
		c0-0.955-0.193-1.68-0.578-2.176c-0.389-0.495-0.955-0.743-1.708-0.743c-0.744,0-1.309,0.244-1.688,0.732
		C138.561,586.977,138.372,587.705,138.372,588.674z"/>
	<path fill="#666565" d="M145.604,586.782c0-0.61,0.248-1.094,0.744-1.446c0.496-0.354,1.177-0.53,2.042-0.53
		c0.802,0,1.585,0.164,2.354,0.492l-0.396,0.924c-0.75-0.312-1.429-0.466-2.037-0.466c-0.539,0-0.944,0.085-1.22,0.254
		s-0.411,0.4-0.411,0.698c0,0.2,0.052,0.372,0.154,0.514c0.103,0.145,0.269,0.276,0.496,0.404c0.229,0.129,0.667,0.313,1.313,0.556
		c0.892,0.324,1.486,0.65,1.792,0.979c0.31,0.329,0.46,0.742,0.46,1.24c0,0.692-0.259,1.229-0.772,1.604
		c-0.519,0.376-1.241,0.563-2.178,0.563c-0.989,0-1.766-0.154-2.317-0.465v-1.049c0.356,0.185,0.745,0.326,1.156,0.434
		c0.409,0.104,0.81,0.157,1.188,0.157c0.594,0,1.05-0.097,1.37-0.284c0.319-0.188,0.479-0.479,0.479-0.867
		c0-0.292-0.127-0.542-0.38-0.75c-0.254-0.208-0.748-0.452-1.48-0.735c-0.699-0.261-1.194-0.486-1.487-0.683
		c-0.292-0.193-0.51-0.415-0.653-0.662C145.675,587.42,145.604,587.125,145.604,586.782z"/>
	<path fill="#666565" d="M151.77,585.823v-0.547l1.073-0.474l0.479-1.601h0.656v1.736h2.174v0.882h-2.174v4.42
		c0,0.452,0.107,0.8,0.321,1.041c0.214,0.242,0.508,0.363,0.882,0.363c0.2,0,0.396-0.017,0.581-0.045
		c0.188-0.029,0.335-0.063,0.444-0.094v0.856c-0.123,0.06-0.308,0.105-0.543,0.146c-0.24,0.038-0.455,0.06-0.646,0.06
		c-1.449,0-2.174-0.765-2.174-2.29v-4.457L151.77,585.823L151.77,585.823z"/>
	<path fill="#666565" d="M160.698,588.599c0-1.206,0.182-2.338,0.536-3.391c0.356-1.054,0.869-1.977,1.535-2.77h1.107
		c-0.656,0.88-1.149,1.846-1.479,2.896c-0.331,1.053-0.496,2.135-0.496,3.247c0,1.094,0.169,2.161,0.506,3.205
		c0.34,1.045,0.822,1.996,1.456,2.857h-1.094c-0.671-0.773-1.184-1.682-1.539-2.714C160.875,590.9,160.698,589.789,160.698,588.599z
		"/>
	<path fill="#666565" d="M164.28,582.439h1.271l2.639,4.997l2.659-4.997h1.258l-3.336,6.116v3.876h-1.162v-3.819L164.28,582.439z"/>
	<path fill="#666565" d="M173.495,592.433v-9.992h1.162v8.955h4.406v1.038L173.495,592.433L173.495,592.433z"/>
	<path fill="#666565" d="M180.761,592.433v-9.992h1.162v8.955h4.409v1.038L180.761,592.433L180.761,592.433z"/>
	<path fill="#666565" d="M187.071,582.439h1.107c0.671,0.798,1.184,1.725,1.539,2.777c0.354,1.057,0.532,2.184,0.532,3.38
		c0,1.198-0.182,2.314-0.536,3.352c-0.357,1.035-0.869,1.936-1.535,2.7h-1.094c0.634-0.855,1.119-1.811,1.456-2.854
		c0.337-1.047,0.506-2.116,0.506-3.21c0-1.112-0.165-2.194-0.496-3.247C188.22,584.285,187.727,583.319,187.071,582.439z"/>
	<path fill="#666565" d="M195.007,589.2v-1.039h3.354v1.039H195.007z"/>
	<path fill="#666565" d="M203.949,592.433v-9.992h5.568v1.039h-4.409v3.648h4.146v1.039h-4.146v4.266H203.949z"/>
	<path fill="#666565" d="M210.443,590.37c0-1.51,1.212-2.301,3.638-2.372l1.271-0.043v-0.47c0-0.596-0.126-1.035-0.379-1.317
		c-0.252-0.284-0.656-0.427-1.211-0.427c-0.623,0-1.328,0.193-2.115,0.581l-0.353-0.871c0.369-0.196,0.771-0.353,1.213-0.465
		c0.438-0.11,0.881-0.168,1.323-0.168c0.893,0,1.554,0.198,1.98,0.595c0.434,0.396,0.646,1.032,0.646,1.907v5.111h-0.842
		l-0.228-1.054h-0.055c-0.373,0.464-0.745,0.778-1.115,0.942c-0.371,0.165-0.834,0.247-1.389,0.247
		c-0.747,0-1.332-0.189-1.756-0.572C210.655,591.616,210.443,591.074,210.443,590.37z M211.646,590.384
		c0,0.412,0.124,0.728,0.372,0.939c0.248,0.216,0.595,0.323,1.04,0.323c0.705,0,1.259-0.194,1.662-0.584
		c0.402-0.391,0.604-0.936,0.604-1.637v-0.681l-1.136,0.049c-0.897,0.031-1.55,0.173-1.945,0.423
		C211.845,589.469,211.646,589.857,211.646,590.384z"/>
	<path fill="#666565" d="M217.798,585.823v-0.547l1.073-0.474l0.479-1.601h0.656v1.736h2.174v0.882h-2.174v4.42
		c0,0.452,0.104,0.8,0.321,1.041c0.214,0.242,0.508,0.363,0.882,0.363c0.2,0,0.395-0.017,0.581-0.045
		c0.186-0.029,0.335-0.063,0.441-0.094v0.856c-0.123,0.06-0.305,0.105-0.543,0.146c-0.237,0.038-0.455,0.06-0.646,0.06
		c-1.449,0-2.174-0.765-2.174-2.29v-4.457L217.798,585.823L217.798,585.823z"/>
	<path fill="#666565" d="M223.171,590.37c0-1.51,1.212-2.301,3.635-2.372l1.273-0.043v-0.47c0-0.596-0.126-1.035-0.379-1.317
		c-0.255-0.284-0.656-0.427-1.214-0.427c-0.62,0-1.325,0.193-2.112,0.581l-0.354-0.871c0.369-0.196,0.773-0.353,1.213-0.465
		c0.44-0.11,0.881-0.168,1.323-0.168c0.896,0,1.554,0.198,1.983,0.595c0.431,0.396,0.646,1.032,0.646,1.907v5.111h-0.841
		l-0.226-1.054h-0.058c-0.373,0.464-0.745,0.778-1.114,0.942c-0.369,0.165-0.835,0.247-1.39,0.247c-0.747,0-1.332-0.189-1.755-0.572
		C223.383,591.616,223.171,591.074,223.171,590.37z M224.375,590.384c0,0.412,0.124,0.728,0.372,0.939
		c0.248,0.216,0.595,0.323,1.04,0.323c0.705,0,1.259-0.194,1.662-0.584c0.399-0.391,0.604-0.936,0.604-1.637v-0.681l-1.133,0.049
		c-0.9,0.031-1.55,0.173-1.948,0.423C224.574,589.469,224.375,589.857,224.375,590.384z"/>
	<path fill="#666565" d="M231.518,592.433v-10.637h1.135v10.637H231.518z"/>
	<path fill="#666565" d="M238.6,582.911c0-0.26,0.062-0.449,0.177-0.57c0.117-0.12,0.268-0.182,0.441-0.182
		c0.196,0,0.365,0.063,0.508,0.186c0.146,0.123,0.214,0.313,0.214,0.566c0,0.255-0.068,0.445-0.214,0.571
		c-0.143,0.125-0.312,0.188-0.508,0.188c-0.177,0-0.324-0.063-0.441-0.188C238.659,583.356,238.6,583.166,238.6,582.911z
		 M238.696,592.433v-7.49h1.039v7.49H238.696z"/>
	<path fill="#666565" d="M242.237,592.433v-7.49h0.926l0.185,1.013h0.055c0.232-0.364,0.562-0.646,0.979-0.849
		s0.887-0.303,1.398-0.303c0.902,0,1.581,0.22,2.037,0.651c0.456,0.437,0.687,1.133,0.687,2.09v4.888h-1.135v-4.854
		c0-0.611-0.142-1.067-0.418-1.369c-0.277-0.303-0.715-0.452-1.308-0.452c-0.784,0-1.355,0.212-1.723,0.638
		c-0.365,0.426-0.547,1.125-0.547,2.104v3.938L242.237,592.433L242.237,592.433z"/>
	<path fill="#666565" d="M248.868,594.71c0.313,0.091,0.624,0.137,0.93,0.137c0.354,0,0.616-0.097,0.782-0.291
		c0.167-0.191,0.25-0.487,0.25-0.886v-8.729h1.135v8.642c0,1.479-0.682,2.215-2.044,2.215c-0.436,0-0.784-0.058-1.053-0.17V594.71
		L248.868,594.71z M250.734,582.911c0-0.26,0.063-0.449,0.191-0.57c0.128-0.12,0.287-0.182,0.479-0.182
		c0.208,0,0.391,0.063,0.539,0.186c0.151,0.123,0.229,0.313,0.229,0.566c0,0.255-0.075,0.445-0.229,0.571
		c-0.148,0.125-0.331,0.188-0.539,0.188c-0.188,0-0.351-0.063-0.479-0.188C250.797,583.356,250.734,583.166,250.734,582.911z"/>
	<path fill="#666565" d="M254.289,589.843v-4.899h1.162v4.858c0,0.609,0.139,1.065,0.416,1.367c0.274,0.301,0.712,0.45,1.304,0.45
		c0.782,0,1.354-0.214,1.716-0.643c0.362-0.431,0.543-1.13,0.543-2.101v-3.938h1.135v7.491h-0.923l-0.176-1.006h-0.063
		c-0.229,0.369-0.554,0.65-0.966,0.85c-0.411,0.194-0.881,0.294-1.409,0.294c-0.915,0-1.601-0.217-2.056-0.648
		C254.517,591.488,254.289,590.795,254.289,589.843z"/>
	<path fill="#666565" d="M262.963,592.433v-7.49h0.923l0.139,1.395h0.062c0.275-0.489,0.614-0.866,1.006-1.133
		c0.392-0.266,0.822-0.397,1.292-0.397c0.333,0,0.631,0.027,0.896,0.083l-0.154,1.061c-0.313-0.067-0.583-0.104-0.82-0.104
		c-0.605,0-1.125,0.246-1.555,0.737c-0.435,0.491-0.646,1.104-0.646,1.837v4.016L262.963,592.433L262.963,592.433z"/>
	<path fill="#666565" d="M268.583,582.911c0-0.26,0.059-0.449,0.177-0.57c0.117-0.12,0.265-0.182,0.441-0.182
		c0.193,0,0.362,0.063,0.508,0.186c0.143,0.123,0.214,0.313,0.214,0.566c0,0.255-0.071,0.445-0.214,0.571
		c-0.146,0.125-0.313,0.188-0.508,0.188c-0.18,0-0.324-0.063-0.441-0.188C268.641,583.356,268.583,583.166,268.583,582.911z
		 M268.678,592.433v-7.49h1.039v7.49H268.678z"/>
	<path fill="#666565" d="M271.802,588.749c0-1.208,0.297-2.167,0.89-2.878c0.596-0.712,1.392-1.066,2.392-1.066
		c0.936,0,1.676,0.311,2.221,0.928c0.545,0.616,0.817,1.434,0.817,2.442v0.72h-5.154c0.021,0.88,0.245,1.547,0.668,2.003
		c0.422,0.456,1.017,0.685,1.783,0.685c0.805,0,1.6-0.17,2.386-0.507v1.013c-0.4,0.173-0.778,0.298-1.135,0.372
		c-0.357,0.075-0.787,0.112-1.292,0.112c-1.104,0-1.979-0.337-2.614-1.012C272.123,590.884,271.802,589.947,271.802,588.749z
		 M272.992,587.97h3.924c0-0.716-0.16-1.265-0.479-1.645c-0.316-0.381-0.773-0.57-1.369-0.57c-0.603,0-1.083,0.195-1.438,0.588
		C273.269,586.735,273.055,587.277,272.992,587.97z"/>
	<path fill="#666565" d="M279.595,586.782c0-0.61,0.248-1.094,0.744-1.446c0.496-0.354,1.177-0.53,2.042-0.53
		c0.802,0,1.585,0.164,2.351,0.492l-0.396,0.924c-0.75-0.312-1.429-0.466-2.037-0.466c-0.539,0-0.945,0.085-1.22,0.254
		c-0.275,0.169-0.411,0.4-0.411,0.698c0,0.2,0.052,0.372,0.151,0.514c0.104,0.145,0.271,0.276,0.496,0.404
		c0.229,0.129,0.667,0.313,1.315,0.556c0.889,0.324,1.486,0.65,1.792,0.979c0.307,0.329,0.46,0.742,0.46,1.24
		c0,0.692-0.259,1.229-0.775,1.604c-0.516,0.376-1.238,0.563-2.175,0.563c-0.992,0-1.766-0.154-2.32-0.465v-1.049
		c0.359,0.185,0.745,0.326,1.156,0.434c0.412,0.104,0.813,0.157,1.191,0.157c0.594,0,1.05-0.097,1.37-0.284
		c0.316-0.188,0.479-0.479,0.479-0.867c0-0.292-0.127-0.542-0.38-0.75c-0.254-0.208-0.748-0.452-1.483-0.735
		c-0.696-0.261-1.191-0.486-1.484-0.683c-0.292-0.193-0.51-0.415-0.653-0.662C279.667,587.42,279.595,587.125,279.595,586.782z"/>
</g>
<g>
	<g>
		<g>
			<path fill="#666565" d="M55.337,451.006c0-1.241,0.191-2.163,0.583-2.768c0.388-0.602,0.979-0.902,1.775-0.902
				c0.774,0,1.362,0.313,1.766,0.941c0.4,0.628,0.603,1.537,0.603,2.729c0,1.234-0.193,2.156-0.583,2.768
				c-0.389,0.61-0.982,0.914-1.782,0.914c-0.771,0-1.355-0.313-1.759-0.938C55.537,453.124,55.337,452.211,55.337,451.006z
				 M56.167,451.006c0,1.035,0.12,1.791,0.363,2.263c0.244,0.475,0.633,0.711,1.165,0.711c0.54,0,0.933-0.239,1.173-0.722
				c0.241-0.479,0.362-1.229,0.362-2.252c0-1.021-0.121-1.771-0.362-2.248c-0.24-0.476-0.634-0.713-1.173-0.713
				c-0.532,0-0.921,0.233-1.165,0.703C56.288,449.218,56.167,449.969,56.167,451.006z"/>
		</g>
		<g>
			<path fill="#666565" d="M115.741,448.908l1.893-1.46h0.701v7.14h-0.813V449.5c0-0.424,0.014-0.823,0.04-1.2
				c-0.067,0.066-0.145,0.141-0.229,0.215c-0.084,0.073-0.475,0.394-1.162,0.95L115.741,448.908z"/>
			<path fill="#666565" d="M121.282,454.069c0-0.218,0.05-0.383,0.148-0.496c0.099-0.11,0.242-0.168,0.427-0.168
				c0.189,0,0.336,0.058,0.442,0.168c0.104,0.113,0.159,0.278,0.159,0.496c0,0.212-0.057,0.374-0.161,0.487
				c-0.107,0.114-0.254,0.172-0.439,0.172c-0.166,0-0.304-0.054-0.413-0.153C121.338,454.471,121.282,454.303,121.282,454.069z"/>
			<path fill="#666565" d="M123.699,451.006c0-1.241,0.193-2.163,0.583-2.768c0.39-0.602,0.98-0.902,1.777-0.902
				c0.774,0,1.362,0.313,1.763,0.941c0.402,0.628,0.604,1.537,0.604,2.729c0,1.234-0.194,2.156-0.583,2.768
				c-0.391,0.607-0.983,0.914-1.783,0.914c-0.771,0-1.356-0.313-1.758-0.938C123.901,453.125,123.699,452.211,123.699,451.006z
				 M124.531,451.006c0,1.035,0.122,1.791,0.366,2.263c0.244,0.475,0.632,0.711,1.165,0.711c0.54,0,0.931-0.239,1.172-0.722
				c0.242-0.479,0.363-1.229,0.363-2.252c0-1.021-0.121-1.771-0.363-2.248c-0.241-0.476-0.633-0.713-1.172-0.713
				c-0.533,0-0.921,0.233-1.165,0.703S124.531,449.969,124.531,451.006z"/>
		</g>
		<g>
			<path fill="#666565" d="M179.485,454.588V453.9l1.881-1.896c0.572-0.582,0.949-0.995,1.133-1.245
				c0.185-0.248,0.318-0.49,0.41-0.728c0.091-0.237,0.139-0.486,0.139-0.76c0-0.383-0.115-0.688-0.349-0.909
				c-0.23-0.224-0.553-0.336-0.963-0.336c-0.296,0-0.576,0.049-0.843,0.146c-0.265,0.101-0.563,0.276-0.886,0.534l-0.432-0.554
				c0.656-0.538,1.374-0.807,2.147-0.807c0.671,0,1.196,0.17,1.577,0.513c0.381,0.342,0.569,0.801,0.569,1.377
				c0,0.455-0.127,0.903-0.382,1.349c-0.254,0.446-0.729,1.009-1.426,1.688l-1.563,1.534v0.039h3.672v0.741L179.485,454.588
				L179.485,454.588z"/>
			<path fill="#666565" d="M185.456,454.069c0-0.218,0.052-0.383,0.147-0.496c0.101-0.11,0.242-0.168,0.428-0.168
				c0.188,0,0.337,0.058,0.441,0.168c0.104,0.113,0.159,0.278,0.159,0.496c0,0.212-0.056,0.374-0.161,0.487
				c-0.107,0.114-0.254,0.172-0.439,0.172c-0.165,0-0.304-0.054-0.411-0.153C185.511,454.471,185.456,454.303,185.456,454.069z"/>
			<path fill="#666565" d="M187.873,451.006c0-1.241,0.193-2.163,0.583-2.768c0.391-0.602,0.98-0.902,1.777-0.902
				c0.773,0,1.361,0.313,1.764,0.941c0.401,0.628,0.604,1.537,0.604,2.729c0,1.234-0.193,2.156-0.583,2.768
				c-0.389,0.61-0.981,0.914-1.782,0.914c-0.771,0-1.354-0.313-1.759-0.938S187.873,452.211,187.873,451.006z M188.703,451.006
				c0,1.035,0.122,1.791,0.364,2.263c0.244,0.475,0.634,0.711,1.166,0.711c0.539,0,0.931-0.239,1.172-0.722
				c0.242-0.479,0.363-1.229,0.363-2.252c0-1.021-0.121-1.771-0.363-2.248c-0.241-0.476-0.633-0.713-1.172-0.713
				c-0.532,0-0.922,0.233-1.166,0.703C188.825,449.218,188.703,449.969,188.703,451.006z"/>
		</g>
		<g>
			<path fill="#666565" d="M243.632,454.305v-0.771c0.31,0.154,0.639,0.271,0.986,0.353c0.353,0.079,0.684,0.12,0.993,0.12
				c1.233,0,1.854-0.484,1.854-1.454c0-0.869-0.686-1.307-2.048-1.307h-0.706v-0.707h0.716c0.559,0,1.001-0.122,1.328-0.368
				c0.325-0.246,0.488-0.588,0.488-1.023c0-0.352-0.117-0.623-0.357-0.821c-0.238-0.197-0.563-0.299-0.976-0.299
				c-0.313,0-0.605,0.042-0.885,0.127c-0.274,0.085-0.593,0.24-0.946,0.47l-0.408-0.548c0.293-0.229,0.631-0.402,1.014-0.532
				c0.382-0.131,0.785-0.193,1.208-0.193c0.693,0,1.229,0.157,1.611,0.474c0.381,0.315,0.568,0.748,0.568,1.297
				c0,0.458-0.128,0.832-0.383,1.123c-0.256,0.29-0.618,0.485-1.087,0.583v0.04c0.573,0.071,0.998,0.255,1.274,0.55
				c0.273,0.295,0.415,0.683,0.415,1.159c0,0.679-0.234,1.201-0.703,1.565c-0.471,0.364-1.14,0.549-2.008,0.549
				c-0.379,0-0.726-0.028-1.036-0.084C244.233,454.545,243.927,454.445,243.632,454.305z"/>
			<path fill="#666565" d="M249.633,454.069c0-0.218,0.05-0.383,0.146-0.496c0.103-0.11,0.242-0.168,0.429-0.168
				c0.188,0,0.338,0.058,0.44,0.168c0.106,0.113,0.159,0.278,0.159,0.496c0,0.212-0.054,0.374-0.161,0.487
				c-0.106,0.114-0.254,0.172-0.438,0.172c-0.164,0-0.305-0.054-0.41-0.153C249.687,454.471,249.633,454.303,249.633,454.069z"/>
			<path fill="#666565" d="M252.05,451.006c0-1.241,0.192-2.163,0.583-2.768c0.389-0.602,0.979-0.902,1.776-0.902
				c0.772,0,1.36,0.313,1.765,0.941c0.4,0.628,0.603,1.537,0.603,2.729c0,1.234-0.193,2.156-0.583,2.768
				c-0.389,0.61-0.979,0.914-1.781,0.914c-0.771,0-1.355-0.313-1.76-0.938C252.249,453.124,252.05,452.211,252.05,451.006z
				 M252.88,451.006c0,1.035,0.122,1.791,0.363,2.263c0.243,0.475,0.635,0.711,1.166,0.711c0.539,0,0.932-0.239,1.172-0.722
				c0.242-0.479,0.362-1.229,0.362-2.252c0-1.021-0.12-1.771-0.362-2.248c-0.24-0.476-0.633-0.713-1.172-0.713
				c-0.531,0-0.923,0.233-1.166,0.703C253.002,449.218,252.88,449.969,252.88,451.006z"/>
		</g>
		<g>
			<path fill="#666565" d="M275.719,454.305v-0.771c0.31,0.154,0.639,0.271,0.986,0.353c0.353,0.079,0.684,0.12,0.993,0.12
				c1.233,0,1.854-0.484,1.854-1.454c0-0.869-0.685-1.307-2.048-1.307h-0.706v-0.707h0.716c0.559,0,1.001-0.122,1.328-0.368
				s0.488-0.588,0.488-1.023c0-0.352-0.117-0.623-0.357-0.821c-0.238-0.197-0.563-0.299-0.976-0.299
				c-0.313,0-0.605,0.042-0.885,0.127c-0.274,0.085-0.593,0.24-0.945,0.47l-0.409-0.548c0.293-0.229,0.631-0.402,1.014-0.532
				c0.382-0.131,0.785-0.193,1.208-0.193c0.693,0,1.23,0.157,1.611,0.474s0.569,0.748,0.569,1.297c0,0.458-0.129,0.832-0.384,1.123
				c-0.256,0.29-0.617,0.485-1.087,0.583v0.04c0.573,0.071,0.998,0.255,1.274,0.55c0.273,0.295,0.415,0.683,0.415,1.159
				c0,0.679-0.234,1.201-0.703,1.565c-0.47,0.364-1.14,0.549-2.007,0.549c-0.379,0-0.727-0.028-1.037-0.084
				C276.321,454.545,276.015,454.445,275.719,454.305z"/>
			<path fill="#666565" d="M281.72,454.069c0-0.218,0.05-0.383,0.146-0.496c0.102-0.11,0.241-0.168,0.43-0.168
				c0.188,0,0.336,0.058,0.438,0.168c0.106,0.113,0.159,0.278,0.159,0.496c0,0.212-0.054,0.374-0.161,0.487
				c-0.104,0.114-0.254,0.172-0.438,0.172c-0.166,0-0.307-0.054-0.412-0.153C281.775,454.471,281.72,454.303,281.72,454.069z"/>
			<path fill="#666565" d="M284.288,454.293v-0.782c0.229,0.146,0.513,0.262,0.852,0.345c0.339,0.082,0.672,0.122,1.001,0.122
				c0.573,0,1.019-0.135,1.336-0.402c0.316-0.27,0.477-0.658,0.477-1.168c0-0.993-0.609-1.489-1.833-1.489
				c-0.311,0-0.724,0.048-1.239,0.145l-0.421-0.271l0.271-3.34h3.55v0.742h-2.854l-0.184,2.146c0.375-0.066,0.747-0.104,1.118-0.104
				c0.752,0,1.345,0.186,1.775,0.557c0.431,0.369,0.646,0.877,0.646,1.521c0,0.739-0.232,1.319-0.705,1.741
				c-0.471,0.42-1.118,0.632-1.943,0.632C285.325,454.684,284.712,454.553,284.288,454.293z"/>
		</g>
	</g>
	<line fill="none" stroke="#666666" stroke-miterlimit="10" x1="57.698" y1="444.611" x2="282.307" y2="444.611"/>
	<g>
		<g>
			<line fill="none" stroke="#666666" stroke-miterlimit="10" x1="57.698" y1="444.611" x2="57.698" y2="441.281"/>
			<line fill="none" stroke="#666666" stroke-miterlimit="10" x1="89.784" y1="444.611" x2="89.784" y2="441.281"/>
			<line fill="none" stroke="#666666" stroke-miterlimit="10" x1="121.872" y1="444.611" x2="121.872" y2="441.281"/>
			<line fill="none" stroke="#666666" stroke-miterlimit="10" x1="153.96" y1="444.611" x2="153.96" y2="441.281"/>
			<line fill="none" stroke="#666666" stroke-miterlimit="10" x1="186.048" y1="444.611" x2="186.048" y2="441.281"/>
			<line fill="none" stroke="#666666" stroke-miterlimit="10" x1="218.134" y1="444.611" x2="218.134" y2="441.281"/>
			<line fill="none" stroke="#666666" stroke-miterlimit="10" x1="250.221" y1="444.611" x2="250.221" y2="441.281"/>
			<line fill="none" stroke="#666666" stroke-miterlimit="10" x1="282.307" y1="444.611" x2="282.307" y2="441.281"/>
		</g>
	</g>
	<g>
		<line fill="none" stroke="#666666" stroke-miterlimit="10" x1="57.698" y1="444.611" x2="57.698" y2="311.435"/>
		<g>
			<g>
				<line fill="none" stroke="#666666" stroke-miterlimit="10" x1="57.698" y1="411.317" x2="63.313" y2="411.317"/>
				<line fill="none" stroke="#666666" stroke-miterlimit="10" x1="57.698" y1="344.728" x2="63.313" y2="344.728"/>
			</g>
		</g>
	</g>
	<g>
		<g>
			<g>
				<rect x="67.323" y="320.758" fill="#1F9B9C" width="209.209" height="47.942"/>
			</g>
		</g>
		<g>
			<g>
				<rect x="57.698" y="320.758" fill="#C7DFDF" width="9.626" height="47.942"/>
				<rect x="57.698" y="387.344" fill="#E9BF64" width="216.909" height="47.941"/>
			</g>
		</g>
	</g>
	<g>
		<path fill="#666565" d="M21.563,333.307h1.453l3.017,5.711l3.038-5.711h1.438l-3.813,6.992v4.431h-1.327v-4.367L21.563,333.307z"
			/>
		<path fill="#666565" d="M32.094,344.729v-11.422h1.328v10.232h5.039v1.188h-6.367V344.729z"/>
		<path fill="#666565" d="M40.399,344.729v-11.422h1.328v10.232h5.039v1.188h-6.367V344.729z"/>
	</g>
	<g>
		<path fill="#666565" d="M61.202,311.483c0-1.739,0.271-3.03,0.815-3.874c0.544-0.842,1.374-1.264,2.489-1.264
			c1.083,0,1.904,0.438,2.469,1.316c0.563,0.88,0.843,2.152,0.843,3.819c0,1.729-0.271,3.02-0.813,3.872
			c-0.543,0.852-1.376,1.277-2.496,1.277c-1.079,0-1.899-0.438-2.462-1.311C61.484,314.451,61.202,313.172,61.202,311.483z
			 M62.365,311.483c0,1.45,0.17,2.507,0.514,3.167c0.341,0.662,0.885,0.992,1.631,0.992c0.755,0,1.302-0.334,1.642-1.006
			c0.34-0.67,0.509-1.723,0.509-3.153c0-1.433-0.169-2.481-0.509-3.147c-0.339-0.666-0.886-0.998-1.642-0.998
			c-0.746,0-1.29,0.328-1.631,0.984C62.534,308.979,62.365,310.033,62.365,311.483z"/>
		<path fill="#666565" d="M69.55,315.773c0-0.307,0.067-0.537,0.208-0.694c0.139-0.157,0.338-0.235,0.598-0.235
			c0.265,0,0.472,0.078,0.619,0.235c0.146,0.157,0.222,0.39,0.222,0.694c0,0.296-0.074,0.523-0.226,0.684
			c-0.15,0.159-0.354,0.238-0.615,0.238c-0.231,0-0.425-0.071-0.578-0.215C69.624,316.336,69.55,316.102,69.55,315.773z"/>
		<path fill="#666565" d="M73.523,308.547l2.648-2.043h0.979v9.994h-1.135v-7.123c0-0.593,0.02-1.152,0.056-1.682
			c-0.096,0.096-0.202,0.195-0.318,0.301c-0.119,0.104-0.661,0.549-1.629,1.332L73.523,308.547z"/>
		<path fill="#666565" d="M81.15,316.086v-1.098c0.319,0.205,0.716,0.365,1.189,0.48c0.474,0.114,0.938,0.174,1.398,0.174
			c0.805,0,1.426-0.188,1.87-0.564c0.445-0.376,0.667-0.923,0.667-1.637c0-1.389-0.854-2.084-2.563-2.084
			c-0.436,0-1.016,0.064-1.738,0.197l-0.588-0.377l0.38-4.674h4.97v1.038h-4.001l-0.253,3.009c0.524-0.098,1.046-0.146,1.566-0.146
			c1.053,0,1.882,0.26,2.484,0.775c0.604,0.521,0.905,1.229,0.905,2.131c0,1.035-0.329,1.85-0.987,2.438
			c-0.657,0.59-1.564,0.885-2.725,0.885C82.602,316.635,81.741,316.451,81.15,316.086z"/>
	</g>
	<g>
		<path fill="#666565" d="M154.602,384.063v-1.077c0.434,0.216,0.896,0.379,1.384,0.491c0.489,0.112,0.954,0.168,1.394,0.168
			c1.727,0,2.591-0.679,2.591-2.038c0-1.217-0.956-1.824-2.868-1.824h-0.988v-0.99h1.003c0.781,0,1.401-0.174,1.859-0.518
			c0.457-0.346,0.687-0.824,0.687-1.436c0-0.488-0.167-0.873-0.502-1.15c-0.335-0.279-0.79-0.418-1.362-0.418
			c-0.438,0-0.853,0.06-1.237,0.178c-0.387,0.119-0.83,0.338-1.326,0.658l-0.573-0.768c0.409-0.316,0.883-0.566,1.418-0.748
			c0.534-0.183,1.102-0.271,1.691-0.271c0.972,0,1.724,0.223,2.256,0.661c0.533,0.44,0.801,1.047,0.801,1.815
			c0,0.642-0.18,1.164-0.537,1.57c-0.356,0.406-0.863,0.68-1.521,0.816v0.055c0.802,0.104,1.396,0.355,1.784,0.771
			c0.387,0.414,0.581,0.955,0.581,1.623c0,0.951-0.328,1.683-0.984,2.191c-0.655,0.512-1.593,0.77-2.81,0.77
			c-0.529,0-1.015-0.039-1.453-0.117C155.444,384.399,155.017,384.262,154.602,384.063z"/>
		<path fill="#666565" d="M163.004,383.734c0-0.305,0.066-0.537,0.208-0.693c0.139-0.158,0.338-0.236,0.598-0.236
			c0.265,0,0.471,0.078,0.619,0.236c0.146,0.156,0.222,0.389,0.222,0.693c0,0.297-0.074,0.523-0.226,0.684
			c-0.151,0.161-0.355,0.239-0.615,0.239c-0.231,0-0.425-0.071-0.578-0.216C163.079,384.299,163.004,384.063,163.004,383.734z"/>
		<path fill="#666565" d="M166.332,384.063v-1.077c0.435,0.216,0.896,0.379,1.386,0.491c0.487,0.112,0.954,0.168,1.391,0.168
			c1.729,0,2.592-0.679,2.592-2.038c0-1.217-0.956-1.824-2.868-1.824h-0.986v-0.99h1.002c0.782,0,1.4-0.174,1.858-0.518
			c0.457-0.346,0.688-0.824,0.688-1.436c0-0.488-0.167-0.873-0.502-1.15c-0.335-0.279-0.79-0.418-1.364-0.418
			c-0.438,0-0.85,0.06-1.236,0.178c-0.388,0.119-0.828,0.338-1.324,0.658l-0.574-0.768c0.41-0.316,0.883-0.566,1.418-0.748
			c0.535-0.183,1.101-0.271,1.69-0.271c0.973,0,1.725,0.223,2.258,0.661c0.531,0.44,0.8,1.047,0.8,1.815
			c0,0.642-0.179,1.164-0.537,1.57c-0.357,0.406-0.864,0.68-1.521,0.816v0.055c0.804,0.104,1.396,0.355,1.784,0.771
			c0.389,0.414,0.581,0.955,0.581,1.623c0,0.951-0.328,1.683-0.982,2.191c-0.656,0.512-1.595,0.77-2.813,0.77
			c-0.528,0-1.013-0.039-1.452-0.117C167.175,384.399,166.746,384.262,166.332,384.063z"/>
		<path fill="#666565" d="M174.406,381.909c0-1.144,0.702-2.034,2.104-2.673c-0.638-0.355-1.092-0.739-1.369-1.152
			c-0.275-0.412-0.415-0.873-0.415-1.384c0-0.726,0.27-1.302,0.809-1.733c0.539-0.43,1.262-0.646,2.162-0.646
			c0.915,0,1.642,0.212,2.175,0.636c0.534,0.424,0.805,1.01,0.805,1.758c0,0.491-0.154,0.939-0.461,1.346
			c-0.31,0.408-0.8,0.775-1.474,1.107c0.814,0.387,1.396,0.795,1.738,1.221c0.345,0.429,0.517,0.92,0.517,1.479
			c0,0.829-0.291,1.491-0.871,1.985c-0.579,0.494-1.376,0.742-2.387,0.742c-1.067,0-1.893-0.233-2.469-0.701
			C174.694,383.428,174.406,382.766,174.406,381.909z M175.54,381.937c0,0.547,0.189,0.974,0.569,1.278
			c0.381,0.303,0.914,0.457,1.604,0.457c0.678,0,1.206-0.158,1.583-0.479c0.377-0.317,0.563-0.757,0.563-1.313
			c0-0.44-0.178-0.836-0.531-1.18c-0.354-0.345-0.975-0.678-1.854-1.002c-0.678,0.291-1.169,0.614-1.477,0.967
			C175.693,381.021,175.54,381.444,175.54,381.937z M175.862,376.748c0,0.42,0.135,0.779,0.402,1.08
			c0.269,0.301,0.764,0.602,1.488,0.902c0.647-0.273,1.108-0.567,1.382-0.883c0.271-0.313,0.404-0.68,0.404-1.103
			c0-0.461-0.164-0.823-0.493-1.098c-0.33-0.271-0.784-0.406-1.361-0.406c-0.568,0-1.014,0.14-1.337,0.41
			C176.024,375.928,175.862,376.293,175.862,376.748z"/>
	</g>
	<g>
		<path fill="#666565" d="M147.384,316.102v-1.076c0.433,0.215,0.895,0.379,1.384,0.49c0.49,0.111,0.954,0.168,1.392,0.168
			c1.729,0,2.593-0.68,2.593-2.037c0-1.217-0.956-1.824-2.868-1.824h-0.988v-0.992h1.002c0.782,0,1.402-0.172,1.86-0.517
			c0.457-0.345,0.686-0.823,0.686-1.435c0-0.488-0.167-0.873-0.502-1.15c-0.335-0.279-0.79-0.418-1.363-0.418
			c-0.438,0-0.851,0.059-1.235,0.178c-0.389,0.119-0.83,0.338-1.326,0.657l-0.574-0.767c0.41-0.317,0.884-0.566,1.418-0.748
			c0.536-0.183,1.102-0.271,1.692-0.271c0.971,0,1.723,0.221,2.256,0.662s0.8,1.047,0.8,1.816c0,0.641-0.179,1.164-0.537,1.569
			c-0.355,0.407-0.864,0.681-1.521,0.816v0.056c0.802,0.102,1.396,0.355,1.782,0.771c0.389,0.412,0.581,0.953,0.581,1.623
			c0,0.951-0.326,1.682-0.982,2.191s-1.593,0.77-2.812,0.77c-0.527,0-1.014-0.039-1.453-0.119
			C148.225,316.438,147.798,316.301,147.384,316.102z"/>
		<path fill="#666565" d="M155.784,315.773c0-0.307,0.068-0.537,0.208-0.694c0.141-0.157,0.338-0.235,0.6-0.235
			c0.264,0,0.471,0.078,0.619,0.235c0.146,0.157,0.222,0.39,0.222,0.694c0,0.296-0.075,0.523-0.228,0.684
			c-0.148,0.159-0.354,0.238-0.613,0.238c-0.232,0-0.427-0.071-0.578-0.215C155.86,316.336,155.784,316.102,155.784,315.773z"/>
		<path fill="#666565" d="M159.155,316.498v-0.965l2.633-2.656c0.804-0.813,1.331-1.396,1.586-1.744
			c0.257-0.348,0.446-0.686,0.573-1.016c0.128-0.329,0.191-0.684,0.191-1.063c0-0.536-0.162-0.961-0.485-1.273
			c-0.322-0.313-0.771-0.47-1.347-0.47c-0.415,0-0.81,0.067-1.179,0.204c-0.372,0.139-0.785,0.388-1.241,0.748l-0.604-0.774
			c0.92-0.752,1.923-1.129,3.008-1.129c0.938,0,1.677,0.239,2.208,0.719c0.532,0.478,0.802,1.121,0.802,1.929
			c0,0.638-0.18,1.267-0.533,1.889c-0.354,0.622-1.021,1.408-1.996,2.359l-2.188,2.149v0.056h5.143v1.038L159.155,316.498
			L159.155,316.498z"/>
		<path fill="#666565" d="M167.276,312.229c0-1.965,0.383-3.438,1.146-4.408c0.763-0.975,1.893-1.461,3.387-1.461
			c0.518,0,0.924,0.044,1.221,0.131v0.99c-0.352-0.133-0.755-0.197-1.208-0.197c-1.069,0-1.889,0.334-2.453,1.004
			c-0.563,0.67-0.875,1.725-0.931,3.16h0.082c0.501-0.775,1.294-1.164,2.379-1.164c0.902,0,1.613,0.271,2.132,0.813
			c0.521,0.541,0.78,1.275,0.78,2.203c0,1.037-0.285,1.854-0.854,2.445c-0.568,0.594-1.34,0.891-2.311,0.891
			c-1.035,0-1.854-0.389-2.461-1.164C167.577,314.694,167.276,313.613,167.276,312.229z M168.438,313.045
			c0,0.471,0.091,0.909,0.273,1.316c0.182,0.406,0.438,0.729,0.773,0.967c0.335,0.237,0.718,0.355,1.146,0.355
			c0.646,0,1.146-0.204,1.507-0.613c0.356-0.409,0.537-1,0.537-1.771c0-0.664-0.167-1.186-0.499-1.563s-0.83-0.566-1.49-0.566
			c-0.41,0-0.786,0.084-1.128,0.254c-0.342,0.168-0.614,0.399-0.816,0.697C168.539,312.416,168.438,312.725,168.438,313.045z"/>
	</g>
	<g>
		<path fill="#666565" d="M21.563,410.744h1.453l3.017,5.711l3.038-5.711h1.438l-3.813,6.992v4.43h-1.327v-4.367L21.563,410.744z"/>
		<path fill="#666565" d="M32.094,422.166v-11.422h1.328v10.234h5.039v1.188H32.094z"/>
		<path fill="#666565" d="M40.399,422.166v-11.422h3.5c1.776,0,3.156,0.492,4.142,1.477c0.984,0.985,1.479,2.359,1.479,4.125
			c0,1.889-0.512,3.328-1.535,4.324c-1.021,0.998-2.496,1.496-4.418,1.496H40.399z M41.727,421.018h1.617
			c1.583,0,2.771-0.39,3.568-1.168c0.799-0.778,1.194-1.932,1.194-3.457c0-1.489-0.374-2.611-1.121-3.367
			c-0.748-0.755-1.855-1.133-3.332-1.133h-1.93L41.727,421.018L41.727,421.018z"/>
	</g>
</g>
<g>
	<g>
		<g>
			<path fill="#666565" d="M70.101,178.52c0-1.242,0.194-2.164,0.583-2.767c0.391-0.602,0.981-0.902,1.778-0.902
				c0.773,0,1.362,0.313,1.763,0.941c0.402,0.628,0.604,1.537,0.604,2.728c0,1.235-0.194,2.157-0.583,2.766
				c-0.392,0.609-0.983,0.914-1.783,0.914c-0.771,0-1.357-0.312-1.758-0.936C70.302,180.64,70.101,179.726,70.101,178.52z
				 M70.931,178.52c0,1.036,0.122,1.791,0.366,2.263c0.244,0.473,0.632,0.709,1.165,0.709c0.54,0,0.93-0.239,1.172-0.719
				c0.242-0.48,0.363-1.229,0.363-2.253c0-1.022-0.121-1.771-0.363-2.247c-0.242-0.476-0.633-0.714-1.172-0.714
				c-0.533,0-0.921,0.234-1.165,0.704C71.053,176.732,70.931,177.485,70.931,178.52z"/>
		</g>
		<g>
			<path fill="#666565" d="M117.309,182.102v-0.689l1.88-1.897c0.573-0.581,0.951-0.996,1.136-1.245
				c0.182-0.248,0.316-0.49,0.409-0.726c0.092-0.236,0.138-0.488,0.138-0.76c0-0.382-0.116-0.686-0.35-0.909
				c-0.229-0.223-0.552-0.336-0.962-0.336c-0.296,0-0.575,0.049-0.842,0.147c-0.265,0.098-0.561,0.276-0.886,0.534l-0.431-0.554
				c0.656-0.538,1.374-0.807,2.146-0.807c0.67,0,1.196,0.171,1.577,0.513c0.381,0.342,0.57,0.801,0.57,1.377
				c0,0.455-0.127,0.904-0.381,1.349c-0.256,0.445-0.729,1.007-1.428,1.687l-1.563,1.535v0.039h3.672v0.742H117.309L117.309,182.102
				z"/>
			<path fill="#666565" d="M123.037,178.52c0-1.242,0.191-2.164,0.583-2.767c0.388-0.602,0.979-0.902,1.775-0.902
				c0.774,0,1.362,0.313,1.766,0.941c0.4,0.628,0.603,1.537,0.603,2.728c0,1.235-0.192,2.157-0.583,2.766
				c-0.389,0.609-0.98,0.914-1.783,0.914c-0.771,0-1.354-0.312-1.758-0.936C123.239,180.64,123.037,179.726,123.037,178.52z
				 M123.867,178.52c0,1.036,0.121,1.791,0.365,2.263c0.242,0.473,0.633,0.709,1.163,0.709c0.54,0,0.933-0.239,1.174-0.719
				c0.24-0.479,0.361-1.229,0.361-2.253c0-1.022-0.121-1.771-0.361-2.247c-0.241-0.476-0.635-0.714-1.174-0.714
				c-0.53,0-0.921,0.234-1.163,0.704C123.99,176.732,123.867,177.485,123.867,178.52z"/>
		</g>
		<g>
			<path fill="#666565" d="M167.097,180.467v-0.713l3.391-4.829h0.857v4.8h1.069v0.742h-1.069v1.636h-0.767v-1.636H167.097
				L167.097,180.467z M167.918,179.724h2.661v-2.373c0-0.466,0.016-0.991,0.049-1.577h-0.039c-0.156,0.313-0.303,0.571-0.438,0.776
				L167.918,179.724z"/>
			<path fill="#666565" d="M173.114,178.52c0-1.242,0.192-2.164,0.583-2.767c0.389-0.602,0.979-0.902,1.776-0.902
				c0.774,0,1.362,0.313,1.765,0.941c0.401,0.628,0.604,1.537,0.604,2.728c0,1.235-0.194,2.157-0.583,2.766
				c-0.389,0.609-0.981,0.914-1.783,0.914c-0.771,0-1.354-0.312-1.758-0.936S173.114,179.726,173.114,178.52z M173.944,178.52
				c0,1.036,0.12,1.791,0.364,2.263c0.244,0.473,0.634,0.709,1.165,0.709c0.54,0,0.932-0.239,1.172-0.719
				c0.242-0.479,0.363-1.229,0.363-2.253c0-1.022-0.121-1.771-0.363-2.247c-0.24-0.476-0.633-0.714-1.172-0.714
				c-0.531,0-0.921,0.234-1.165,0.704C174.065,176.732,173.944,177.485,173.944,178.52z"/>
		</g>
		<g>
			<path fill="#666565" d="M217.545,179.053c0-1.403,0.271-2.453,0.817-3.148c0.547-0.695,1.353-1.043,2.42-1.043
				c0.368,0,0.659,0.031,0.871,0.093v0.708c-0.251-0.095-0.539-0.142-0.861-0.142c-0.766,0-1.35,0.239-1.753,0.718
				c-0.404,0.479-0.625,1.23-0.664,2.257h0.059c0.358-0.554,0.926-0.831,1.699-0.831c0.646,0,1.152,0.193,1.522,0.58
				c0.371,0.386,0.558,0.91,0.558,1.573c0,0.74-0.204,1.323-0.61,1.747c-0.405,0.424-0.958,0.636-1.647,0.636
				c-0.739,0-1.325-0.277-1.759-0.832C217.762,180.814,217.545,180.042,217.545,179.053z M218.375,179.636
				c0,0.337,0.063,0.65,0.194,0.94c0.131,0.291,0.313,0.521,0.555,0.69s0.512,0.255,0.817,0.255c0.462,0,0.819-0.146,1.075-0.438
				c0.258-0.292,0.385-0.714,0.385-1.266c0-0.474-0.118-0.846-0.355-1.117c-0.238-0.271-0.592-0.406-1.063-0.406
				c-0.294,0-0.563,0.062-0.807,0.182c-0.244,0.12-0.438,0.287-0.583,0.499C218.448,179.187,218.375,179.407,218.375,179.636z"/>
			<path fill="#666565" d="M223.189,178.52c0-1.242,0.194-2.164,0.583-2.767c0.391-0.602,0.981-0.902,1.778-0.902
				c0.774,0,1.362,0.313,1.763,0.941c0.402,0.628,0.604,1.537,0.604,2.728c0,1.235-0.194,2.157-0.583,2.766
				c-0.39,0.609-0.983,0.914-1.783,0.914c-0.771,0-1.355-0.312-1.758-0.936C223.39,180.64,223.189,179.726,223.189,178.52z
				 M224.019,178.52c0,1.036,0.122,1.791,0.366,2.263c0.244,0.473,0.632,0.709,1.165,0.709c0.54,0,0.93-0.239,1.172-0.719
				c0.242-0.48,0.363-1.229,0.363-2.253c0-1.022-0.121-1.771-0.363-2.247c-0.242-0.476-0.633-0.714-1.172-0.714
				c-0.533,0-0.921,0.234-1.165,0.704C224.141,176.732,224.019,177.485,224.019,178.52z"/>
		</g>
		<g>
			<path fill="#666565" d="M267.558,180.281c0-0.817,0.501-1.453,1.503-1.909c-0.454-0.254-0.777-0.528-0.977-0.822
				c-0.198-0.295-0.296-0.625-0.296-0.989c0-0.518,0.189-0.931,0.577-1.237c0.385-0.309,0.896-0.462,1.544-0.462
				c0.65,0,1.171,0.151,1.553,0.454c0.382,0.303,0.573,0.721,0.573,1.255c0,0.352-0.11,0.672-0.329,0.962
				c-0.221,0.29-0.57,0.554-1.053,0.791c0.583,0.276,0.997,0.567,1.24,0.871c0.246,0.305,0.368,0.657,0.368,1.058
				c0,0.593-0.208,1.065-0.622,1.419c-0.415,0.353-0.98,0.529-1.705,0.529c-0.764,0-1.352-0.167-1.763-0.5
				C267.764,181.366,267.558,180.893,267.558,180.281z M268.369,180.301c0,0.391,0.136,0.695,0.406,0.913
				c0.271,0.218,0.65,0.327,1.144,0.327c0.483,0,0.86-0.114,1.131-0.342s0.405-0.54,0.405-0.938c0-0.315-0.127-0.597-0.38-0.843
				c-0.254-0.245-0.695-0.483-1.326-0.715c-0.484,0.208-0.835,0.438-1.054,0.691C268.478,179.647,268.369,179.949,268.369,180.301z
				 M268.598,176.595c0,0.3,0.098,0.557,0.288,0.771c0.191,0.215,0.546,0.43,1.063,0.645c0.465-0.195,0.794-0.405,0.985-0.63
				c0.194-0.225,0.29-0.486,0.29-0.786c0-0.329-0.118-0.59-0.354-0.783c-0.235-0.194-0.563-0.291-0.974-0.291
				c-0.404,0-0.726,0.098-0.954,0.293C268.714,176.009,268.598,176.269,268.598,176.595z"/>
			<path fill="#666565" d="M273.266,178.52c0-1.242,0.194-2.164,0.583-2.767c0.39-0.602,0.981-0.902,1.778-0.902
				c0.773,0,1.361,0.313,1.763,0.941c0.402,0.628,0.604,1.537,0.604,2.728c0,1.235-0.194,2.157-0.583,2.766
				c-0.392,0.609-0.983,0.914-1.783,0.914c-0.771,0-1.357-0.312-1.758-0.936C273.467,180.64,273.266,179.726,273.266,178.52z
				 M274.096,178.52c0,1.036,0.122,1.791,0.366,2.263c0.244,0.473,0.632,0.709,1.165,0.709c0.54,0,0.93-0.239,1.172-0.719
				c0.242-0.48,0.363-1.229,0.363-2.253c0-1.022-0.121-1.771-0.363-2.247c-0.242-0.476-0.633-0.714-1.172-0.714
				c-0.533,0-0.921,0.234-1.165,0.704C274.219,176.732,274.096,177.485,274.096,178.52z"/>
		</g>
	</g>
	<line fill="none" stroke="#666666" stroke-miterlimit="10" x1="72.461" y1="170.243" x2="272.767" y2="170.243"/>
	<g>
		<g>
			<line fill="none" stroke="#666666" stroke-miterlimit="10" x1="72.461" y1="170.243" x2="72.461" y2="166.492"/>
			<line fill="none" stroke="#666666" stroke-miterlimit="10" x1="97.499" y1="170.243" x2="97.499" y2="166.492"/>
			<line fill="none" stroke="#666666" stroke-miterlimit="10" x1="122.538" y1="170.243" x2="122.538" y2="166.492"/>
			<line fill="none" stroke="#666666" stroke-miterlimit="10" x1="147.576" y1="170.243" x2="147.576" y2="166.492"/>
			<line fill="none" stroke="#666666" stroke-miterlimit="10" x1="172.615" y1="170.243" x2="172.615" y2="166.492"/>
			<line fill="none" stroke="#666666" stroke-miterlimit="10" x1="197.653" y1="170.243" x2="197.653" y2="166.492"/>
			<line fill="none" stroke="#666666" stroke-miterlimit="10" x1="222.692" y1="170.243" x2="222.692" y2="166.492"/>
			<line fill="none" stroke="#666666" stroke-miterlimit="10" x1="247.729" y1="170.243" x2="247.729" y2="166.492"/>
			<line fill="none" stroke="#666666" stroke-miterlimit="10" x1="272.767" y1="170.243" x2="272.767" y2="166.492"/>
		</g>
	</g>
	<line fill="none" stroke="#666666" stroke-miterlimit="10" x1="72.461" y1="170.243" x2="72.461" y2="20.22"/>
	<g>
		<g>
			<line fill="none" stroke="#000000" stroke-miterlimit="10" x1="72.461" y1="132.737" x2="77.469" y2="132.737"/>
			<line fill="none" stroke="#000000" stroke-miterlimit="10" x1="72.461" y1="57.726" x2="77.469" y2="57.726"/>
		</g>
	</g>
	<g>
		<rect x="118.882" y="30.721" fill="#1F9B9C" width="122.111" height="54.009"/>
	</g>
	<rect x="72.461" y="30.721" fill="#C7DFDF" width="46.421" height="54.009"/>
	<rect x="72.461" y="105.733" fill="#E9BF64" width="120.659" height="54.009"/>
	<g>
		<path fill="#666565" d="M78.757,19.243l2.647-2.044h0.979v9.994h-1.135V20.07c0-0.592,0.019-1.153,0.056-1.682
			c-0.096,0.096-0.203,0.196-0.319,0.301c-0.118,0.104-0.66,0.549-1.627,1.333L78.757,19.243z"/>
		<path fill="#666565" d="M86.186,24.644c0-1.144,0.702-2.035,2.104-2.673c-0.637-0.355-1.093-0.739-1.369-1.152
			c-0.277-0.413-0.415-0.874-0.415-1.384c0-0.725,0.271-1.302,0.808-1.733c0.539-0.431,1.263-0.646,2.163-0.646
			c0.915,0,1.642,0.212,2.176,0.636c0.533,0.424,0.804,1.009,0.804,1.757c0,0.492-0.154,0.941-0.461,1.347
			c-0.31,0.406-0.799,0.775-1.475,1.107c0.815,0.387,1.396,0.794,1.739,1.22c0.344,0.426,0.518,0.919,0.518,1.48
			c0,0.83-0.291,1.491-0.87,1.986c-0.58,0.495-1.377,0.742-2.389,0.742c-1.067,0-1.893-0.233-2.469-0.701
			C86.474,26.162,86.186,25.501,86.186,24.644z M87.322,24.671c0,0.547,0.188,0.973,0.568,1.278s0.914,0.458,1.604,0.458
			c0.678,0,1.206-0.16,1.583-0.479s0.563-0.756,0.563-1.313c0-0.442-0.178-0.835-0.53-1.179c-0.354-0.344-0.976-0.678-1.855-1.001
			c-0.678,0.292-1.169,0.614-1.476,0.967C87.473,23.756,87.322,24.179,87.322,24.671z M87.642,19.483
			c0,0.419,0.136,0.779,0.402,1.08c0.269,0.301,0.764,0.602,1.488,0.902c0.647-0.273,1.108-0.567,1.382-0.882
			c0.271-0.314,0.405-0.681,0.405-1.101c0-0.46-0.165-0.826-0.494-1.097c-0.33-0.271-0.784-0.407-1.361-0.407
			c-0.569,0-1.014,0.137-1.337,0.41C87.804,18.662,87.642,19.027,87.642,19.483z"/>
		<path fill="#666565" d="M94.519,26.469c0-0.305,0.069-0.537,0.208-0.694c0.142-0.157,0.338-0.236,0.601-0.236
			c0.264,0,0.471,0.079,0.618,0.236c0.146,0.157,0.223,0.389,0.223,0.694c0,0.296-0.075,0.524-0.227,0.684
			c-0.15,0.16-0.354,0.239-0.614,0.239c-0.232,0-0.426-0.072-0.578-0.215C94.596,27.034,94.519,26.797,94.519,26.469z"/>
		<path fill="#666565" d="M98.115,26.783v-1.098c0.316,0.205,0.715,0.365,1.188,0.48c0.476,0.115,0.941,0.174,1.401,0.174
			c0.802,0,1.425-0.188,1.87-0.565c0.442-0.377,0.667-0.922,0.667-1.636c0-1.39-0.855-2.085-2.566-2.085
			c-0.433,0-1.013,0.066-1.738,0.198l-0.588-0.376l0.38-4.675h4.973v1.039H99.7l-0.254,3.008c0.522-0.096,1.047-0.144,1.564-0.144
			c1.055,0,1.882,0.259,2.486,0.777c0.604,0.518,0.905,1.228,0.905,2.128c0,1.037-0.328,1.85-0.987,2.438s-1.566,0.883-2.725,0.883
			C99.567,27.33,98.707,27.148,98.115,26.783z"/>
		<path fill="#666565" d="M105.491,24.904v-0.998l4.743-6.761h1.201v6.72h1.497v1.039h-1.497v2.29h-1.07v-2.29H105.491z
			 M106.639,23.865h3.729v-3.323c0-0.652,0.021-1.388,0.065-2.208h-0.055c-0.219,0.438-0.424,0.8-0.615,1.087L106.639,23.865z"/>
	</g>
	<g>
		<path fill="#666565" d="M164.9,24.904v-0.998l4.742-6.761h1.203v6.72h1.497v1.039h-1.497v2.29h-1.073v-2.29H164.9z
			 M166.047,23.865h3.726v-3.323c0-0.652,0.022-1.388,0.068-2.208h-0.055c-0.22,0.438-0.425,0.8-0.615,1.087L166.047,23.865z"/>
		<path fill="#666565" d="M173.334,24.644c0-1.144,0.702-2.035,2.104-2.673c-0.636-0.355-1.092-0.739-1.367-1.152
			c-0.276-0.413-0.415-0.874-0.415-1.384c0-0.725,0.27-1.302,0.809-1.733c0.539-0.431,1.26-0.646,2.163-0.646
			c0.915,0,1.639,0.212,2.174,0.636c0.535,0.424,0.803,1.009,0.803,1.757c0,0.492-0.151,0.941-0.461,1.347
			c-0.307,0.406-0.798,0.775-1.472,1.107c0.814,0.387,1.395,0.794,1.739,1.22c0.344,0.426,0.516,0.919,0.516,1.48
			c0,0.83-0.291,1.491-0.871,1.986c-0.58,0.495-1.376,0.742-2.386,0.742c-1.07,0-1.895-0.233-2.469-0.701
			C173.622,26.162,173.334,25.501,173.334,24.644z M174.469,24.671c0,0.547,0.19,0.973,0.57,1.278s0.914,0.458,1.601,0.458
			c0.68,0,1.206-0.16,1.583-0.479s0.566-0.756,0.566-1.313c0-0.442-0.179-0.835-0.532-1.179c-0.354-0.344-0.974-0.678-1.854-1.001
			c-0.68,0.292-1.17,0.614-1.477,0.967C174.621,23.756,174.469,24.179,174.469,24.671z M174.79,19.483
			c0,0.419,0.134,0.779,0.401,1.08c0.27,0.301,0.765,0.602,1.486,0.902c0.65-0.273,1.111-0.567,1.382-0.882
			c0.271-0.314,0.406-0.681,0.406-1.101c0-0.46-0.165-0.826-0.495-1.097s-0.784-0.407-1.359-0.407c-0.568,0-1.016,0.137-1.337,0.41
			C174.952,18.662,174.79,19.027,174.79,19.483z"/>
		<path fill="#666565" d="M181.667,26.469c0-0.305,0.068-0.537,0.208-0.694c0.139-0.157,0.338-0.236,0.598-0.236
			c0.266,0,0.473,0.079,0.619,0.236c0.148,0.157,0.222,0.389,0.222,0.694c0,0.296-0.072,0.524-0.226,0.684
			c-0.151,0.16-0.354,0.239-0.615,0.239c-0.229,0-0.425-0.072-0.578-0.215C181.742,27.034,181.667,26.797,181.667,26.469z"/>
		<path fill="#666565" d="M184.996,18.239V17.2h6.648v0.903l-4.088,9.091H186.3l4.145-8.955H184.996z"/>
		<path fill="#666565" d="M193.001,18.239V17.2h6.65v0.903l-4.09,9.091h-1.258l4.146-8.955H193.001z"/>
	</g>
	<g>
		<path fill="#666565" d="M110.277,101.094v-0.998l4.742-6.761h1.203v6.72h1.497v1.039h-1.497v2.29h-1.071v-2.29H110.277z
			 M111.425,100.055h3.728v-3.322c0-0.652,0.021-1.388,0.066-2.208h-0.055c-0.22,0.438-0.424,0.8-0.615,1.087L111.425,100.055z"/>
		<path fill="#666565" d="M118.712,100.834c0-1.144,0.702-2.035,2.104-2.673c-0.638-0.355-1.094-0.739-1.369-1.152
			c-0.276-0.413-0.414-0.874-0.414-1.384c0-0.725,0.269-1.302,0.808-1.733s1.26-0.646,2.163-0.646c0.915,0,1.639,0.212,2.174,0.636
			c0.535,0.424,0.803,1.009,0.803,1.757c0,0.492-0.151,0.941-0.461,1.347c-0.307,0.406-0.798,0.775-1.472,1.107
			c0.814,0.387,1.396,0.794,1.739,1.22c0.344,0.426,0.516,0.919,0.516,1.479c0,0.83-0.291,1.491-0.871,1.986
			s-1.376,0.742-2.386,0.742c-1.07,0-1.894-0.233-2.469-0.701C119,102.353,118.712,101.691,118.712,100.834z M119.846,100.862
			c0,0.547,0.19,0.973,0.57,1.278s0.914,0.458,1.601,0.458c0.68,0,1.206-0.16,1.583-0.479c0.377-0.319,0.566-0.756,0.566-1.313
			c0-0.442-0.179-0.835-0.532-1.179c-0.354-0.344-0.974-0.678-1.854-1.001c-0.68,0.292-1.169,0.614-1.477,0.967
			C119.999,99.947,119.846,100.369,119.846,100.862z M120.168,95.673c0,0.419,0.134,0.779,0.401,1.08
			c0.27,0.301,0.765,0.602,1.486,0.902c0.65-0.273,1.111-0.567,1.382-0.882c0.271-0.314,0.406-0.681,0.406-1.101
			c0-0.46-0.165-0.826-0.495-1.097s-0.782-0.407-1.358-0.407c-0.569,0-1.017,0.137-1.338,0.41
			C120.329,94.853,120.168,95.218,120.168,95.673z"/>
		<path fill="#666565" d="M127.045,102.659c0-0.305,0.068-0.537,0.208-0.694c0.139-0.157,0.338-0.236,0.598-0.236
			c0.267,0,0.474,0.079,0.619,0.236c0.148,0.157,0.224,0.389,0.224,0.694c0,0.296-0.074,0.524-0.228,0.684
			c-0.149,0.16-0.354,0.239-0.615,0.239c-0.229,0-0.425-0.072-0.578-0.215C127.12,103.224,127.045,102.988,127.045,102.659z"/>
		<path fill="#666565" d="M131.018,95.434l2.648-2.044h0.979v9.994h-1.135v-7.123c0-0.592,0.021-1.153,0.058-1.682
			c-0.098,0.096-0.202,0.196-0.32,0.301c-0.119,0.105-0.661,0.549-1.627,1.333L131.018,95.434z"/>
		<path fill="#666565" d="M138.461,96.6c0-1.036,0.292-1.854,0.875-2.454c0.583-0.6,1.35-0.9,2.301-0.9
			c0.683,0,1.276,0.174,1.786,0.522c0.51,0.348,0.902,0.856,1.176,1.522c0.274,0.667,0.412,1.454,0.412,2.359
			c0,3.914-1.516,5.87-4.547,5.87c-0.53,0-0.951-0.045-1.261-0.137v-0.991c0.365,0.137,0.781,0.205,1.248,0.205
			c1.092,0,1.917-0.339,2.474-1.019c0.557-0.679,0.861-1.721,0.911-3.125h-0.082c-0.25,0.383-0.583,0.675-0.996,0.875
			c-0.415,0.201-0.881,0.301-1.397,0.301c-0.889,0-1.594-0.266-2.112-0.799C138.721,98.299,138.461,97.555,138.461,96.6z
			 M139.596,96.586c0,0.659,0.164,1.178,0.491,1.556c0.328,0.377,0.826,0.566,1.495,0.566c0.414,0,0.795-0.084,1.144-0.254
			c0.351-0.169,0.622-0.401,0.822-0.694s0.3-0.6,0.3-0.92c0-0.481-0.093-0.925-0.278-1.333c-0.188-0.407-0.446-0.728-0.781-0.961
			c-0.334-0.233-0.719-0.35-1.15-0.35c-0.647,0-1.151,0.21-1.508,0.632C139.773,95.25,139.596,95.836,139.596,96.586z"/>
	</g>
	<g>
		<path fill="#666565" d="M32.349,43.932h1.453l3.018,5.711l3.039-5.711h1.438l-3.813,6.992v4.43h-1.328v-4.367L32.349,43.932z"/>
		<path fill="#666565" d="M42.881,55.354V43.932h1.328v10.234h5.039v1.188L42.881,55.354L42.881,55.354z"/>
		<path fill="#666565" d="M51.185,55.354V43.932h1.328v10.234h5.039v1.188L51.185,55.354L51.185,55.354z"/>
	</g>
	<g>
		<path fill="#666565" d="M32.349,133.93h1.453l3.018,5.711l3.039-5.711h1.438l-3.813,6.992v4.43h-1.328v-4.367L32.349,133.93z"/>
		<path fill="#666565" d="M42.881,145.351v-11.422h1.328v10.234h5.039v1.188H42.881z"/>
		<path fill="#666565" d="M51.185,145.351v-11.422h3.5c1.776,0,3.156,0.492,4.144,1.477c0.982,0.985,1.477,2.359,1.477,4.125
			c0,1.886-0.512,3.327-1.535,4.324c-1.021,0.997-2.496,1.496-4.418,1.496H51.185z M52.513,144.203h1.617
			c1.583,0,2.772-0.39,3.57-1.168c0.797-0.778,1.192-1.931,1.192-3.457c0-1.489-0.374-2.612-1.119-3.367
			c-0.748-0.755-1.857-1.133-3.332-1.133H52.51L52.513,144.203L52.513,144.203z"/>
	</g>
</g>
<g>
	<path fill="#666565" d="M81.466,275.892v-14.898h8.305v1.549H83.2v4.769h6.176v1.549H83.2v5.481h6.569v1.55H81.466z"/>
	<path fill="#666565" d="M92.921,270.592v-9.598h1.731v9.736c0,1.245,0.341,2.201,1.019,2.868c0.68,0.667,1.678,1,2.996,1
		c1.258,0,2.225-0.335,2.903-1.006c0.681-0.67,1.021-1.631,1.021-2.883v-9.714h1.731v9.64c0,1.699-0.516,3.033-1.538,4.005
		c-1.025,0.972-2.438,1.457-4.229,1.457s-3.182-0.489-4.162-1.468C93.411,273.65,92.921,272.305,92.921,270.592z"/>
	<path fill="#666565" d="M107.237,275.892v-1.438l3.925-3.959c1.19-1.214,1.979-2.08,2.36-2.599
		c0.383-0.518,0.664-1.023,0.855-1.514c0.188-0.491,0.285-1.02,0.285-1.586c0-0.798-0.242-1.431-0.728-1.898
		c-0.479-0.467-1.147-0.701-2.008-0.701c-0.617,0-1.203,0.103-1.758,0.307c-0.553,0.204-1.17,0.577-1.851,1.115l-0.896-1.156
		c1.373-1.122,2.867-1.683,4.484-1.683c1.396,0,2.495,0.357,3.291,1.07c0.795,0.713,1.188,1.671,1.188,2.875
		c0,0.948-0.266,1.886-0.795,2.814c-0.527,0.928-1.521,2.102-2.977,3.521l-3.263,3.203v0.082h7.662v1.549h-9.789v-0.002H107.237
		L107.237,275.892z"/>
	<path fill="#666565" d="M119.212,272.091c0-1.704,1.045-3.032,3.137-3.983c-0.947-0.53-1.627-1.103-2.039-1.717
		c-0.412-0.614-0.619-1.303-0.619-2.063c0-1.08,0.402-1.941,1.205-2.583c0.806-0.642,1.877-0.963,3.228-0.963
		c1.358,0,2.438,0.316,3.239,0.948c0.8,0.632,1.193,1.505,1.193,2.619c0,0.733-0.229,1.403-0.688,2.007
		c-0.457,0.605-1.189,1.155-2.193,1.651c1.215,0.579,2.08,1.184,2.592,1.819c0.517,0.635,0.771,1.371,0.771,2.206
		c0,1.237-0.437,2.224-1.3,2.96c-0.864,0.737-2.055,1.105-3.561,1.105c-1.594,0-2.82-0.348-3.68-1.044
		C119.639,274.355,119.212,273.37,119.212,272.091z M120.903,272.132c0,0.815,0.279,1.451,0.851,1.906
		c0.567,0.455,1.36,0.684,2.385,0.684c1.012,0,1.799-0.238,2.361-0.713c0.563-0.477,0.844-1.127,0.844-1.957
		c0-0.659-0.264-1.245-0.793-1.758c-0.529-0.514-1.451-1.011-2.768-1.494c-1.015,0.436-1.742,0.916-2.197,1.442
		C121.13,270.769,120.903,271.398,120.903,272.132z M121.382,264.397c0,0.625,0.199,1.162,0.6,1.61
		c0.4,0.449,1.144,0.897,2.222,1.345c0.969-0.407,1.651-0.846,2.059-1.314c0.404-0.468,0.605-1.016,0.605-1.641
		c0-0.686-0.246-1.231-0.736-1.635c-0.492-0.404-1.17-0.606-2.029-0.606c-0.848,0-1.514,0.204-1.994,0.611
		C121.624,263.174,121.382,263.718,121.382,264.397z"/>
	<path fill="#666565" d="M136.677,270.399c0-1.8,0.441-3.23,1.326-4.29c0.883-1.06,2.07-1.589,3.561-1.589
		c1.396,0,2.498,0.46,3.313,1.38c0.813,0.921,1.219,2.135,1.219,3.644v1.069h-7.684c0.03,1.312,0.362,2.306,0.996,2.985
		c0.629,0.68,1.516,1.019,2.655,1.019c1.197,0,2.388-0.251,3.56-0.754v1.509c-0.601,0.258-1.16,0.442-1.691,0.555
		c-0.533,0.111-1.174,0.168-1.926,0.168c-1.646,0-2.945-0.502-3.898-1.508C137.155,273.581,136.677,272.188,136.677,270.399z
		 M138.45,269.238h5.85c0-1.066-0.238-1.883-0.715-2.451c-0.479-0.567-1.156-0.851-2.041-0.851c-0.898,0-1.615,0.292-2.148,0.876
		C138.856,267.397,138.546,268.205,138.45,269.238z"/>
	<path fill="#666565" d="M148.294,267.468c0-0.911,0.371-1.63,1.108-2.158c0.738-0.527,1.755-0.791,3.045-0.791
		c1.191,0,2.359,0.244,3.505,0.733l-0.591,1.377c-1.116-0.463-2.133-0.695-3.036-0.695c-0.808,0-1.41,0.126-1.818,0.378
		c-0.408,0.251-0.613,0.599-0.613,1.042c0,0.3,0.078,0.555,0.23,0.766c0.151,0.21,0.396,0.412,0.739,0.603
		c0.341,0.191,0.994,0.467,1.962,0.828c1.323,0.482,2.215,0.97,2.672,1.46c0.457,0.489,0.686,1.104,0.686,1.849
		c0,1.034-0.387,1.832-1.152,2.393c-0.771,0.562-1.854,0.842-3.243,0.842c-1.479,0-2.632-0.23-3.459-0.693v-1.559
		c0.537,0.271,1.106,0.486,1.725,0.644c0.613,0.157,1.205,0.235,1.775,0.235c0.885,0,1.563-0.141,2.043-0.424
		c0.477-0.283,0.715-0.713,0.715-1.293c0-0.436-0.189-0.809-0.566-1.118c-0.379-0.31-1.112-0.677-2.211-1.099
		c-1.043-0.388-1.779-0.727-2.217-1.017c-0.439-0.29-0.762-0.618-0.975-0.985C148.397,268.419,148.294,267.979,148.294,267.468z"/>
	<path fill="#666565" d="M157.482,266.038v-0.815l1.604-0.703l0.713-2.385h0.979v2.588h3.236v1.314h-3.236v6.588
		c0,0.674,0.156,1.19,0.479,1.552c0.318,0.36,0.758,0.542,1.313,0.542c0.3,0,0.589-0.022,0.863-0.066
		c0.279-0.044,0.5-0.09,0.662-0.138v1.278c-0.184,0.086-0.453,0.158-0.811,0.215c-0.355,0.058-0.681,0.086-0.964,0.086
		c-2.159,0-3.239-1.139-3.239-3.414v-6.644h-1.604L157.482,266.038L157.482,266.038z"/>
	<path fill="#666565" d="M166.185,261.697c0-0.387,0.088-0.671,0.267-0.851c0.176-0.18,0.395-0.27,0.655-0.27
		c0.295,0,0.547,0.092,0.761,0.275c0.213,0.184,0.315,0.466,0.315,0.846s-0.104,0.664-0.315,0.851
		c-0.213,0.187-0.466,0.28-0.761,0.28c-0.264,0-0.479-0.093-0.655-0.28C166.273,262.361,166.185,262.078,166.185,261.697z
		 M166.331,275.892v-11.168h1.549v11.168H166.331z"/>
	<path fill="#666565" d="M171.607,275.892v-11.168h1.375l0.275,1.509h0.08c0.32-0.537,0.771-0.957,1.352-1.259
		c0.58-0.302,1.23-0.453,1.951-0.453c1.746,0,2.891,0.625,3.424,1.876h0.082c0.332-0.579,0.814-1.036,1.447-1.372
		c0.631-0.336,1.354-0.504,2.16-0.504c1.264,0,2.209,0.324,2.838,0.973c0.627,0.648,0.941,1.687,0.941,3.113v7.286h-1.691v-7.281
		c0-0.892-0.188-1.561-0.57-2.006c-0.381-0.446-0.971-0.669-1.77-0.669c-1.054,0-1.832,0.303-2.334,0.909
		c-0.504,0.605-0.754,1.537-0.754,2.798v6.249h-1.691v-7.281c0-0.892-0.188-1.561-0.57-2.006c-0.381-0.446-0.977-0.669-1.78-0.669
		c-1.063,0-1.836,0.318-2.328,0.955c-0.492,0.637-0.738,1.68-0.738,3.13v5.871L171.607,275.892L171.607,275.892z"/>
	<path fill="#666565" d="M190.183,272.816c0-2.25,1.81-3.429,5.418-3.537l1.898-0.062v-0.702c0-0.887-0.189-1.542-0.564-1.965
		c-0.377-0.423-0.979-0.634-1.807-0.634c-0.928,0-1.979,0.289-3.152,0.866l-0.522-1.298c0.551-0.294,1.149-0.525,1.809-0.692
		c0.656-0.167,1.314-0.251,1.973-0.251c1.33,0,2.316,0.295,2.957,0.887c0.646,0.591,0.966,1.539,0.966,2.843v7.622H197.9
		l-0.336-1.571h-0.082c-0.557,0.693-1.106,1.162-1.66,1.407c-0.557,0.246-1.241,0.368-2.069,0.368c-1.113,0-1.984-0.284-2.615-0.853
		C190.501,274.675,190.183,273.865,190.183,272.816z M191.976,272.837c0,0.615,0.188,1.082,0.558,1.402
		c0.368,0.321,0.887,0.481,1.551,0.481c1.053,0,1.877-0.29,2.477-0.87c0.604-0.581,0.9-1.393,0.9-2.438v-1.014l-1.688,0.071
		c-1.344,0.048-2.311,0.258-2.899,0.63C192.273,271.473,191.976,272.051,191.976,272.837z"/>
	<path fill="#666565" d="M201.146,266.038v-0.815l1.604-0.703l0.713-2.385h0.979v2.588h3.236v1.314h-3.236v6.588
		c0,0.674,0.156,1.19,0.479,1.552c0.317,0.36,0.758,0.542,1.313,0.542c0.3,0,0.589-0.022,0.863-0.066
		c0.279-0.044,0.5-0.09,0.662-0.138v1.278c-0.184,0.086-0.453,0.158-0.811,0.215c-0.355,0.058-0.681,0.086-0.964,0.086
		c-2.159,0-3.239-1.139-3.239-3.414v-6.644h-1.604L201.146,266.038L201.146,266.038z"/>
	<path fill="#666565" d="M209.374,270.399c0-1.8,0.438-3.23,1.326-4.29c0.883-1.06,2.065-1.589,3.561-1.589
		c1.396,0,2.498,0.46,3.313,1.38c0.813,0.921,1.219,2.135,1.219,3.644v1.069h-7.687c0.033,1.312,0.365,2.306,0.994,2.985
		c0.631,0.68,1.521,1.019,2.66,1.019c1.197,0,2.383-0.251,3.555-0.754v1.509c-0.596,0.258-1.155,0.442-1.688,0.555
		c-0.533,0.111-1.174,0.168-1.926,0.168c-1.646,0-2.945-0.502-3.898-1.508C209.853,273.581,209.374,272.188,209.374,270.399z
		 M211.144,269.238h5.853c0-1.066-0.238-1.883-0.716-2.451c-0.479-0.567-1.155-0.851-2.04-0.851c-0.898,0-1.613,0.292-2.148,0.876
		C211.556,267.397,211.241,268.205,211.144,269.238z"/>
	<path fill="#666565" d="M220.99,267.468c0-0.911,0.37-1.63,1.106-2.158c0.74-0.527,1.754-0.791,3.043-0.791
		c1.195,0,2.363,0.244,3.504,0.733l-0.59,1.377c-1.117-0.463-2.129-0.695-3.037-0.695c-0.803,0-1.406,0.126-1.813,0.378
		c-0.408,0.251-0.613,0.599-0.613,1.042c0,0.3,0.078,0.555,0.229,0.766c0.15,0.21,0.396,0.412,0.738,0.603
		c0.34,0.191,0.994,0.467,1.961,0.828c1.324,0.482,2.217,0.97,2.674,1.46c0.453,0.489,0.687,1.104,0.687,1.849
		c0,1.034-0.387,1.832-1.156,2.393c-0.77,0.562-1.852,0.842-3.242,0.842c-1.479,0-2.631-0.23-3.459-0.693v-1.559
		c0.535,0.271,1.109,0.486,1.728,0.644c0.61,0.157,1.205,0.235,1.772,0.235c0.888,0,1.564-0.141,2.041-0.424
		c0.48-0.283,0.719-0.713,0.719-1.293c0-0.436-0.188-0.809-0.565-1.118c-0.379-0.31-1.115-0.677-2.211-1.099
		c-1.043-0.388-1.781-0.727-2.217-1.017c-0.439-0.29-0.765-0.618-0.978-0.985C221.095,268.419,220.99,267.979,220.99,267.468z"/>
</g>
<g>
	<path fill="#666565" d="M75.036-19.586c0-1.548,0.311-2.905,0.932-4.07s1.52-2.055,2.688-2.67c1.169-0.615,2.535-0.922,4.104-0.922
		c1.59,0,3.07,0.292,4.443,0.876l-0.672,1.529c-1.349-0.571-2.644-0.856-3.887-0.856c-1.813,0-3.229,0.54-4.249,1.62
		c-1.019,1.08-1.525,2.578-1.525,4.494c0,2.02,0.49,3.549,1.473,4.592s2.423,1.564,4.326,1.564c1.033,0,2.042-0.121,3.025-0.359
		v-4.604h-3.332v-1.549h5.063v7.256c-0.788,0.248-1.59,0.436-2.405,0.563c-0.813,0.127-1.76,0.191-2.833,0.191
		c-2.255,0-4.012-0.67-5.268-2.012C75.664-15.287,75.036-17.166,75.036-19.586z"/>
	<path fill="#666565" d="M90.75-12.136v-15.856h1.688v15.855L90.75-12.136L90.75-12.136z"/>
	<path fill="#666565" d="M95.407-17.74c0-1.816,0.453-3.233,1.357-4.247c0.908-1.014,2.167-1.521,3.78-1.521
		c1.558,0,2.795,0.519,3.713,1.556c0.917,1.038,1.376,2.44,1.376,4.212c0,1.822-0.457,3.248-1.372,4.271s-2.178,1.535-3.79,1.535
		c-0.996,0-1.88-0.234-2.649-0.703c-0.771-0.471-1.367-1.145-1.787-2.021C95.615-15.534,95.407-16.562,95.407-17.74z M97.139-17.74
		c0,1.43,0.286,2.52,0.857,3.27c0.571,0.748,1.412,1.123,2.521,1.123c1.109,0,1.951-0.373,2.526-1.119s0.861-1.836,0.861-3.271
		c0-1.424-0.287-2.505-0.861-3.244c-0.574-0.739-1.424-1.108-2.546-1.108c-1.109,0-1.946,0.364-2.511,1.093
		C97.421-20.27,97.139-19.183,97.139-17.74z"/>
	<path fill="#666565" d="M108.634-12.136v-15.856h1.691v3.852c0,0.863-0.027,1.637-0.082,2.323h0.082
		c0.787-1.114,1.957-1.671,3.506-1.671c1.46,0,2.595,0.501,3.399,1.503c0.813,1.002,1.215,2.42,1.215,4.255
		c0,1.834-0.406,3.258-1.225,4.273c-0.813,1.016-1.943,1.523-3.394,1.523c-0.729,0-1.395-0.135-1.992-0.402
		c-0.604-0.268-1.106-0.682-1.515-1.238h-0.118l-0.356,1.438H108.634L108.634-12.136z M110.325-17.73
		c0,1.568,0.262,2.691,0.784,3.369c0.521,0.676,1.359,1.014,2.518,1.014c1.04,0,1.813-0.379,2.323-1.137
		c0.51-0.758,0.765-1.846,0.765-3.266c0-1.455-0.255-2.539-0.765-3.251c-0.513-0.713-1.298-1.07-2.364-1.07
		c-1.155,0-1.987,0.331-2.497,0.994C110.58-20.416,110.325-19.299,110.325-17.73z"/>
	<path fill="#666565" d="M120.587-15.213c0-2.25,1.806-3.428,5.418-3.537l1.897-0.061v-0.703c0-0.887-0.188-1.542-0.563-1.965
		c-0.376-0.423-0.979-0.634-1.806-0.634c-0.933,0-1.98,0.289-3.153,0.866l-0.526-1.298c0.554-0.294,1.153-0.525,1.813-0.692
		s1.313-0.251,1.972-0.251c1.33,0,2.315,0.295,2.957,0.887c0.642,0.591,0.962,1.539,0.962,2.842v7.623h-1.253l-0.336-1.572h-0.082
		c-0.556,0.693-1.11,1.162-1.663,1.408c-0.552,0.246-1.242,0.367-2.069,0.367c-1.109,0-1.981-0.283-2.613-0.852
		C120.903-13.353,120.587-14.164,120.587-15.213z M122.38-15.191c0,0.615,0.185,1.082,0.554,1.402c0.37,0.32,0.891,0.48,1.554,0.48
		c1.052,0,1.876-0.289,2.478-0.869c0.6-0.582,0.9-1.393,0.9-2.438v-1.014l-1.688,0.07c-1.343,0.049-2.311,0.258-2.904,0.631
		S122.38-15.976,122.38-15.191z"/>
	<path fill="#666565" d="M133.03-12.136v-15.856h1.688v15.855L133.03-12.136L133.03-12.136z"/>
	<path fill="#666565" d="M143.107-17.629c0-1.801,0.442-3.23,1.326-4.291s2.071-1.589,3.563-1.589c1.395,0,2.498,0.46,3.311,1.38
		c0.813,0.921,1.22,2.135,1.22,3.644v1.068h-7.685c0.034,1.313,0.366,2.307,0.995,2.986c0.629,0.679,1.516,1.018,2.659,1.018
		c1.198,0,2.384-0.25,3.556-0.754v1.51c-0.596,0.258-1.16,0.441-1.691,0.555c-0.529,0.111-1.174,0.168-1.926,0.168
		c-1.646,0-2.942-0.502-3.896-1.508C143.583-14.445,143.107-15.842,143.107-17.629z M144.88-18.791h5.849
		c0-1.065-0.234-1.882-0.714-2.45c-0.477-0.567-1.157-0.851-2.042-0.851c-0.896,0-1.615,0.292-2.146,0.876
		C145.29-20.631,144.975-19.823,144.88-18.791z"/>
	<path fill="#666565" d="M154.724-20.56c0-0.911,0.37-1.63,1.109-2.158c0.739-0.527,1.754-0.791,3.044-0.791
		c1.194,0,2.363,0.244,3.504,0.733l-0.59,1.377c-1.117-0.463-2.13-0.695-3.037-0.695c-0.803,0-1.409,0.126-1.818,0.378
		c-0.405,0.251-0.608,0.599-0.608,1.042c0,0.3,0.075,0.555,0.229,0.766s0.4,0.412,0.741,0.604c0.34,0.191,0.994,0.467,1.96,0.828
		c1.324,0.482,2.215,0.969,2.671,1.459c0.457,0.49,0.688,1.104,0.688,1.85c0,1.033-0.389,1.832-1.155,2.393
		c-0.771,0.561-1.854,0.842-3.243,0.842c-1.479,0-2.631-0.23-3.458-0.693v-1.559c0.536,0.271,1.11,0.486,1.724,0.643
		c0.614,0.158,1.206,0.236,1.775,0.236c0.885,0,1.565-0.141,2.042-0.424c0.478-0.283,0.715-0.713,0.715-1.293
		c0-0.436-0.188-0.809-0.563-1.119c-0.379-0.309-1.115-0.676-2.212-1.098c-1.042-0.389-1.78-0.727-2.22-1.018
		c-0.436-0.289-0.76-0.617-0.974-0.984C154.83-19.61,154.724-20.049,154.724-20.56z"/>
	<path fill="#666565" d="M163.915-21.99v-0.815l1.6-0.703l0.713-2.385h0.979v2.588h3.239v1.314h-3.239v6.589
		c0,0.674,0.16,1.189,0.479,1.551c0.319,0.361,0.76,0.543,1.314,0.543c0.299,0,0.587-0.023,0.866-0.066
		c0.274-0.045,0.498-0.09,0.661-0.139v1.279c-0.186,0.086-0.452,0.158-0.813,0.215c-0.354,0.057-0.678,0.086-0.963,0.086
		c-2.16,0-3.241-1.139-3.241-3.414v-6.645h-1.599L163.915-21.99L163.915-21.99z"/>
	<path fill="#666565" d="M172.618-26.331c0-0.387,0.087-0.671,0.263-0.851c0.175-0.18,0.395-0.27,0.658-0.27
		c0.293,0,0.545,0.092,0.758,0.275c0.212,0.184,0.317,0.466,0.317,0.846c0,0.38-0.105,0.664-0.317,0.851s-0.465,0.28-0.758,0.28
		c-0.267,0-0.482-0.093-0.658-0.28S172.618-25.95,172.618-26.331z M172.761-12.136v-11.168h1.549v11.167L172.761-12.136
		L172.761-12.136z"/>
	<path fill="#666565" d="M178.039-12.136v-11.168h1.375l0.271,1.509h0.082c0.319-0.537,0.771-0.957,1.354-1.259
		c0.581-0.302,1.229-0.453,1.951-0.453c1.746,0,2.888,0.625,3.425,1.876h0.082c0.333-0.579,0.813-1.036,1.443-1.372
		c0.636-0.336,1.354-0.504,2.161-0.504c1.267,0,2.209,0.324,2.838,0.973c0.631,0.648,0.942,1.687,0.942,3.112v7.287h-1.691v-7.281
		c0-0.892-0.188-1.562-0.567-2.006c-0.38-0.444-0.976-0.669-1.773-0.669c-1.053,0-1.831,0.303-2.333,0.909
		c-0.503,0.605-0.754,1.538-0.754,2.797v6.25h-1.688v-7.281c0-0.892-0.19-1.562-0.571-2.006c-0.381-0.444-0.979-0.669-1.783-0.669
		c-1.06,0-1.836,0.318-2.329,0.955c-0.492,0.637-0.738,1.679-0.738,3.13v5.871L178.039-12.136L178.039-12.136z"/>
	<path fill="#666565" d="M196.616-15.213c0-2.25,1.806-3.428,5.418-3.537l1.896-0.061v-0.703c0-0.887-0.188-1.542-0.563-1.965
		c-0.376-0.423-0.979-0.634-1.81-0.634c-0.929,0-1.979,0.289-3.149,0.866l-0.526-1.298c0.55-0.294,1.153-0.525,1.809-0.692
		c0.656-0.167,1.313-0.251,1.976-0.251c1.33,0,2.313,0.295,2.957,0.887c0.641,0.591,0.962,1.539,0.962,2.842v7.623h-1.253
		l-0.336-1.572h-0.082c-0.56,0.693-1.11,1.162-1.663,1.408c-0.552,0.246-1.242,0.367-2.07,0.367c-1.11,0-1.98-0.283-2.616-0.852
		C196.932-13.353,196.616-14.164,196.616-15.213z M198.41-15.191c0,0.615,0.185,1.082,0.554,1.402c0.37,0.32,0.887,0.48,1.551,0.48
		c1.051,0,1.876-0.289,2.479-0.869c0.6-0.582,0.896-1.393,0.896-2.438v-1.014l-1.688,0.07c-1.344,0.049-2.313,0.258-2.904,0.631
		C198.709-16.556,198.41-15.976,198.41-15.191z"/>
	<path fill="#666565" d="M207.58-21.99v-0.815l1.6-0.703l0.713-2.385h0.979v2.588h3.239v1.314h-3.239v6.589
		c0,0.674,0.16,1.189,0.479,1.551c0.319,0.361,0.757,0.543,1.314,0.543c0.299,0,0.587-0.023,0.865-0.066
		c0.275-0.045,0.499-0.09,0.662-0.139v1.279c-0.186,0.086-0.452,0.158-0.813,0.215c-0.354,0.057-0.678,0.086-0.963,0.086
		c-2.16,0-3.241-1.139-3.241-3.414v-6.645h-1.599L207.58-21.99L207.58-21.99z"/>
	<path fill="#666565" d="M215.804-17.629c0-1.801,0.442-3.23,1.326-4.291s2.071-1.589,3.561-1.589c1.396,0,2.498,0.46,3.313,1.38
		c0.812,0.921,1.219,2.135,1.219,3.644v1.068h-7.684c0.033,1.313,0.365,2.307,0.995,2.986c0.629,0.679,1.516,1.018,2.655,1.018
		c1.199,0,2.388-0.25,3.56-0.754v1.51c-0.6,0.258-1.16,0.441-1.692,0.555c-0.532,0.111-1.173,0.168-1.925,0.168
		c-1.646,0-2.946-0.502-3.898-1.508C216.281-14.445,215.804-15.842,215.804-17.629z M217.577-18.791h5.849
		c0-1.065-0.238-1.882-0.714-2.45c-0.479-0.567-1.157-0.851-2.042-0.851c-0.898,0-1.615,0.292-2.149,0.876
		C217.988-20.631,217.672-19.823,217.577-18.791z"/>
	<path fill="#666565" d="M227.421-20.56c0-0.911,0.37-1.63,1.108-2.158c0.737-0.527,1.755-0.791,3.045-0.791
		c1.191,0,2.359,0.244,3.504,0.733l-0.591,1.377c-1.116-0.463-2.133-0.695-3.036-0.695c-0.807,0-1.409,0.126-1.818,0.378
		c-0.408,0.251-0.612,0.599-0.612,1.042c0,0.3,0.077,0.555,0.229,0.766s0.396,0.412,0.741,0.604c0.34,0.191,0.993,0.467,1.96,0.828
		c1.32,0.482,2.215,0.969,2.671,1.459c0.457,0.49,0.685,1.104,0.685,1.85c0,1.033-0.385,1.832-1.152,2.393
		c-0.771,0.561-1.854,0.842-3.242,0.842c-1.479,0-2.631-0.23-3.458-0.693v-1.559c0.536,0.271,1.106,0.486,1.724,0.643
		c0.614,0.158,1.206,0.236,1.775,0.236c0.885,0,1.563-0.141,2.042-0.424c0.477-0.283,0.715-0.713,0.715-1.293
		c0-0.436-0.189-0.809-0.567-1.119c-0.378-0.309-1.113-0.676-2.211-1.098c-1.042-0.389-1.781-0.727-2.217-1.018
		c-0.437-0.289-0.76-0.617-0.974-0.984C227.528-19.61,227.421-20.049,227.421-20.56z"/>
</g>
</svg>
