<?xml version="1.0" encoding="utf-8"?>
<!-- Generator: Adobe Illustrator 16.0.0, SVG Export Plug-In . SVG Version: 6.00 Build 0)  -->
<!DOCTYPE svg PUBLIC "-//W3C//DTD SVG 1.1//EN" "http://www.w3.org/Graphics/SVG/1.1/DTD/svg11.dtd">
<svg version="1.1" id="Capa_1" xmlns="http://www.w3.org/2000/svg" xmlns:xlink="http://www.w3.org/1999/xlink" x="0px" y="0px"
	 width="779.527px" height="357.166px" viewBox="0 0 779.527 357.166" enable-background="new 0 0 779.527 357.166"
	 xml:space="preserve">
<g id="global-estimates">
	<g>
		<rect x="122.532" y="210.812" fill="#199598" width="100.49" height="122.967"/>
		<rect x="122.532" y="85.746" fill="#DD9B2B" width="100.49" height="125.063"/>
	</g>
	<g>
		<path fill="#666565" d="M62.333,39.421c0-1.549,0.312-2.906,0.933-4.071s1.521-2.055,2.688-2.67
			c1.168-0.615,2.533-0.922,4.104-0.922c1.59,0,3.069,0.292,4.442,0.876l-0.672,1.529c-1.35-0.571-2.645-0.856-3.888-0.856
			c-1.813,0-3.229,0.54-4.249,1.62c-1.02,1.08-1.524,2.578-1.524,4.494c0,2.018,0.491,3.548,1.474,4.591
			c0.98,1.043,2.423,1.564,4.325,1.564c1.033,0,2.042-0.12,3.026-0.358v-4.604H69.66v-1.549h5.063v7.255
			c-0.788,0.248-1.591,0.436-2.405,0.563c-0.813,0.127-1.76,0.191-2.833,0.191c-2.255,0-4.012-0.67-5.269-2.012
			C62.961,43.72,62.333,41.84,62.333,39.421z"/>
		<path fill="#666565" d="M78.047,46.87V31.014h1.688V46.87H78.047z"/>
		<path fill="#666565" d="M82.704,41.266c0-1.817,0.454-3.233,1.356-4.247c0.907-1.014,2.167-1.521,3.779-1.521
			c1.559,0,2.795,0.519,3.714,1.556c0.917,1.038,1.376,2.441,1.376,4.211c0,1.824-0.457,3.248-1.372,4.272s-2.179,1.536-3.79,1.536
			c-0.996,0-1.88-0.234-2.647-0.704c-0.771-0.47-1.368-1.144-1.788-2.021S82.704,42.443,82.704,41.266z M84.436,41.266
			c0,1.43,0.286,2.52,0.856,3.269c0.572,0.749,1.412,1.124,2.521,1.124c1.108,0,1.951-0.373,2.525-1.119
			c0.575-0.746,0.862-1.837,0.862-3.273c0-1.423-0.288-2.504-0.862-3.243c-0.573-0.739-1.424-1.108-2.546-1.108
			c-1.108,0-1.945,0.364-2.51,1.093C84.718,38.736,84.436,39.822,84.436,41.266z"/>
		<path fill="#666565" d="M95.931,46.87V31.014h1.69v3.852c0,0.863-0.026,1.637-0.082,2.323h0.082
			c0.788-1.114,1.957-1.671,3.506-1.671c1.46,0,2.596,0.501,3.398,1.503c0.813,1.002,1.217,2.42,1.217,4.254
			s-0.407,3.259-1.227,4.274c-0.813,1.016-1.941,1.523-3.395,1.523c-0.729,0-1.396-0.134-1.992-0.402
			c-0.604-0.268-1.105-0.681-1.514-1.238H97.5l-0.355,1.437L95.931,46.87L95.931,46.87z M97.622,41.276
			c0,1.569,0.262,2.692,0.785,3.368c0.521,0.676,1.357,1.014,2.517,1.014c1.04,0,1.813-0.379,2.323-1.136
			c0.51-0.758,0.766-1.846,0.766-3.266c0-1.454-0.256-2.538-0.766-3.251c-0.514-0.713-1.297-1.07-2.364-1.07
			c-1.154,0-1.986,0.331-2.496,0.994C97.877,38.59,97.622,39.707,97.622,41.276z"/>
		<path fill="#666565" d="M107.884,43.794c0-2.25,1.807-3.429,5.419-3.537l1.897-0.062v-0.702c0-0.887-0.188-1.542-0.563-1.965
			c-0.377-0.423-0.979-0.634-1.807-0.634c-0.934,0-1.979,0.289-3.152,0.866l-0.526-1.298c0.555-0.294,1.153-0.525,1.813-0.692
			c0.66-0.167,1.313-0.251,1.973-0.251c1.33,0,2.314,0.295,2.957,0.887c0.644,0.591,0.962,1.539,0.962,2.843v7.622H115.6
			l-0.336-1.571h-0.082c-0.557,0.693-1.11,1.162-1.663,1.407c-0.553,0.246-1.242,0.368-2.067,0.368c-1.11,0-1.981-0.284-2.614-0.853
			C108.199,45.652,107.884,44.843,107.884,43.794z M109.677,43.814c0,0.615,0.185,1.082,0.554,1.403
			c0.37,0.321,0.892,0.481,1.556,0.481c1.051,0,1.876-0.29,2.478-0.87c0.6-0.581,0.899-1.393,0.899-2.437v-1.014l-1.688,0.071
			c-1.344,0.048-2.312,0.258-2.904,0.63C109.978,42.45,109.677,43.029,109.677,43.814z"/>
		<path fill="#666565" d="M120.326,46.87V31.014h1.688V46.87H120.326z"/>
		<path fill="#666565" d="M130.404,41.377c0-1.8,0.442-3.23,1.326-4.29s2.07-1.589,3.563-1.589c1.396,0,2.498,0.46,3.312,1.38
			c0.813,0.921,1.222,2.135,1.222,3.643v1.07h-7.687c0.033,1.311,0.365,2.306,0.994,2.985c0.63,0.68,1.517,1.019,2.659,1.019
			c1.199,0,2.385-0.251,3.557-0.754v1.508c-0.597,0.258-1.16,0.443-1.689,0.555c-0.53,0.112-1.176,0.168-1.928,0.168
			c-1.646,0-2.941-0.502-3.896-1.508C130.88,44.561,130.404,43.165,130.404,41.377z M132.177,40.216h5.849
			c0-1.066-0.233-1.883-0.714-2.451c-0.478-0.567-1.157-0.851-2.042-0.851c-0.896,0-1.615,0.292-2.146,0.876
			C132.587,38.375,132.272,39.183,132.177,40.216z"/>
		<path fill="#666565" d="M142.021,38.446c0-0.911,0.37-1.63,1.108-2.158c0.74-0.527,1.754-0.791,3.044-0.791
			c1.195,0,2.363,0.244,3.505,0.733l-0.591,1.377c-1.116-0.463-2.13-0.695-3.037-0.695c-0.803,0-1.408,0.126-1.817,0.378
			c-0.403,0.251-0.607,0.599-0.607,1.042c0,0.3,0.076,0.555,0.229,0.766c0.152,0.211,0.399,0.412,0.741,0.603
			c0.34,0.191,0.993,0.467,1.96,0.828c1.323,0.483,2.215,0.97,2.671,1.46c0.457,0.49,0.688,1.104,0.688,1.849
			c0,1.034-0.39,1.832-1.154,2.393c-0.771,0.561-1.854,0.841-3.243,0.841c-1.479,0-2.631-0.23-3.458-0.693V44.82
			c0.536,0.272,1.109,0.487,1.726,0.644c0.612,0.157,1.204,0.235,1.773,0.235c0.885,0,1.564-0.141,2.042-0.424
			c0.479-0.283,0.715-0.713,0.715-1.292c0-0.436-0.188-0.809-0.563-1.119c-0.379-0.31-1.114-0.676-2.212-1.098
			c-1.042-0.388-1.779-0.727-2.221-1.017c-0.437-0.29-0.76-0.618-0.974-0.986C142.127,39.396,142.021,38.957,142.021,38.446z"/>
		<path fill="#666565" d="M151.212,37.016v-0.815l1.601-0.703l0.713-2.385h0.979v2.588h3.24v1.314h-3.24v6.588
			c0,0.674,0.16,1.191,0.479,1.552c0.319,0.361,0.762,0.542,1.313,0.542c0.3,0,0.587-0.022,0.866-0.066
			c0.273-0.044,0.499-0.09,0.662-0.138v1.278c-0.188,0.087-0.453,0.159-0.813,0.216c-0.354,0.057-0.679,0.085-0.964,0.085
			c-2.159,0-3.24-1.138-3.24-3.414v-6.644h-1.6L151.212,37.016L151.212,37.016z"/>
		<path fill="#666565" d="M159.915,32.675c0-0.387,0.087-0.671,0.264-0.851c0.175-0.18,0.395-0.27,0.657-0.27
			c0.293,0,0.545,0.092,0.759,0.275c0.212,0.184,0.317,0.466,0.317,0.846c0,0.38-0.105,0.664-0.317,0.851
			c-0.213,0.187-0.466,0.28-0.759,0.28c-0.268,0-0.481-0.093-0.657-0.28C160.002,33.339,159.915,33.056,159.915,32.675z
			 M160.058,46.87V35.702h1.549V46.87H160.058z"/>
		<path fill="#666565" d="M165.336,46.87V35.702h1.375l0.271,1.509h0.082c0.318-0.537,0.771-0.957,1.354-1.259
			c0.581-0.302,1.229-0.453,1.952-0.453c1.746,0,2.887,0.625,3.424,1.876h0.082c0.333-0.579,0.813-1.036,1.442-1.372
			c0.637-0.336,1.354-0.504,2.161-0.504c1.268,0,2.209,0.324,2.838,0.973c0.633,0.648,0.941,1.687,0.941,3.113v7.286h-1.69V39.59
			c0-0.892-0.188-1.561-0.566-2.006s-0.977-0.669-1.772-0.669c-1.054,0-1.831,0.303-2.333,0.909
			c-0.503,0.605-0.754,1.538-0.754,2.798v6.249h-1.688V39.59c0-0.892-0.189-1.561-0.571-2.006c-0.381-0.445-0.979-0.669-1.782-0.669
			c-1.061,0-1.836,0.318-2.329,0.955c-0.492,0.637-0.736,1.68-0.736,3.13v5.871L165.336,46.87L165.336,46.87z"/>
		<path fill="#666565" d="M183.913,43.794c0-2.25,1.807-3.429,5.418-3.537l1.896-0.062v-0.702c0-0.887-0.188-1.542-0.563-1.965
			c-0.376-0.423-0.979-0.634-1.811-0.634c-0.93,0-1.979,0.289-3.148,0.866l-0.525-1.298c0.55-0.294,1.152-0.525,1.809-0.692
			s1.313-0.251,1.977-0.251c1.33,0,2.313,0.295,2.957,0.887c0.642,0.591,0.962,1.539,0.962,2.843v7.622h-1.253l-0.336-1.571h-0.082
			c-0.561,0.693-1.109,1.162-1.663,1.407c-0.552,0.246-1.241,0.368-2.069,0.368c-1.108,0-1.979-0.284-2.616-0.853
			C184.229,45.652,183.913,44.843,183.913,43.794z M185.707,43.814c0,0.615,0.186,1.082,0.555,1.403
			c0.369,0.321,0.887,0.481,1.551,0.481c1.051,0,1.876-0.29,2.479-0.87c0.601-0.581,0.896-1.393,0.896-2.437v-1.014l-1.688,0.071
			c-1.344,0.048-2.313,0.258-2.903,0.63C186.004,42.45,185.707,43.029,185.707,43.814z"/>
		<path fill="#666565" d="M194.877,37.016v-0.815l1.601-0.703l0.713-2.385h0.979v2.588h3.24v1.314h-3.24v6.588
			c0,0.674,0.16,1.191,0.479,1.552c0.318,0.361,0.757,0.542,1.313,0.542c0.3,0,0.587-0.022,0.866-0.066
			c0.273-0.044,0.499-0.09,0.662-0.138v1.278c-0.188,0.087-0.453,0.159-0.813,0.216c-0.354,0.057-0.679,0.085-0.964,0.085
			c-2.159,0-3.24-1.138-3.24-3.414v-6.644h-1.6L194.877,37.016L194.877,37.016z"/>
		<path fill="#666565" d="M203.101,41.377c0-1.8,0.441-3.23,1.326-4.29c0.884-1.06,2.07-1.589,3.561-1.589
			c1.396,0,2.498,0.46,3.313,1.38c0.813,0.921,1.22,2.135,1.22,3.643v1.07h-7.685c0.034,1.311,0.366,2.306,0.995,2.985
			c0.629,0.68,1.517,1.019,2.654,1.019c1.199,0,2.389-0.251,3.561-0.754v1.508c-0.601,0.258-1.159,0.443-1.691,0.555
			c-0.532,0.112-1.173,0.168-1.925,0.168c-1.646,0-2.946-0.502-3.898-1.508C203.577,44.561,203.101,43.165,203.101,41.377z
			 M204.874,40.216h5.85c0-1.066-0.238-1.883-0.715-2.451c-0.479-0.567-1.156-0.851-2.042-0.851c-0.897,0-1.614,0.292-2.148,0.876
			C205.284,38.375,204.969,39.183,204.874,40.216z"/>
		<path fill="#666565" d="M214.718,38.446c0-0.911,0.37-1.63,1.109-2.158c0.735-0.527,1.754-0.791,3.044-0.791
			c1.19,0,2.358,0.244,3.504,0.733l-0.59,1.377c-1.117-0.463-2.135-0.695-3.037-0.695c-0.808,0-1.409,0.126-1.817,0.378
			c-0.408,0.251-0.612,0.599-0.612,1.042c0,0.3,0.077,0.555,0.229,0.766c0.153,0.211,0.396,0.412,0.741,0.603
			c0.34,0.191,0.994,0.467,1.96,0.828c1.319,0.483,2.215,0.97,2.671,1.46c0.457,0.49,0.686,1.104,0.686,1.849
			c0,1.034-0.385,1.832-1.15,2.393c-0.771,0.561-1.854,0.841-3.243,0.841c-1.479,0-2.631-0.23-3.458-0.693V44.82
			c0.536,0.272,1.105,0.487,1.725,0.644c0.613,0.157,1.206,0.235,1.774,0.235c0.886,0,1.563-0.141,2.042-0.424
			c0.478-0.283,0.716-0.713,0.716-1.292c0-0.436-0.189-0.809-0.567-1.119c-0.378-0.31-1.111-0.676-2.211-1.098
			c-1.042-0.388-1.779-0.727-2.217-1.017c-0.437-0.29-0.761-0.618-0.975-0.986C214.824,39.396,214.718,38.957,214.718,38.446z"/>
	</g>
	<g>
		<path fill="#9A999E" d="M33.949,91.011v-1.199l3.271-3.299c0.995-1.012,1.652-1.734,1.97-2.166
			c0.316-0.432,0.56-0.853,0.713-1.262c0.159-0.409,0.238-0.85,0.238-1.321c0-0.665-0.201-1.192-0.604-1.582
			s-0.96-0.584-1.678-0.584c-0.517,0-1.004,0.085-1.465,0.256c-0.462,0.17-0.977,0.48-1.542,0.93L34.11,79.82
			c1.146-0.935,2.394-1.402,3.736-1.402c1.166,0,2.081,0.297,2.742,0.891c0.663,0.594,0.994,1.393,0.994,2.396
			c0,0.79-0.226,1.572-0.663,2.345c-0.44,0.773-1.271,1.751-2.479,2.934l-2.717,2.669v0.068h6.386v1.291h-8.16L33.949,91.011
			L33.949,91.011z"/>
		<path fill="#9A999E" d="M48.02,88.166v-1.239l5.896-8.399h1.494v8.347h1.855v1.291H55.41v2.845h-1.333v-2.845H48.02z
			 M49.447,86.875h4.633v-4.127c0-0.81,0.023-1.724,0.084-2.743h-0.067c-0.271,0.543-0.526,0.994-0.765,1.35L49.447,86.875z"/>
		<path fill="#9A999E" d="M57.964,88.166v-1.239l5.895-8.399h1.494v8.347h1.859v1.291h-1.859v2.845h-1.333v-2.845H57.964z
			 M59.391,86.875h4.628v-4.127c0-0.81,0.027-1.724,0.084-2.743H64.04c-0.271,0.543-0.525,0.994-0.769,1.35L59.391,86.875z"/>
		<path fill="#9A999E" d="M68.443,87.843c0-1.421,0.871-2.528,2.614-3.32c-0.79-0.441-1.354-0.918-1.7-1.431
			c-0.343-0.513-0.516-1.086-0.516-1.72c0-0.9,0.334-1.618,1.004-2.153c0.669-0.535,1.563-0.802,2.688-0.802
			c1.136,0,2.031,0.263,2.696,0.79c0.665,0.526,0.997,1.254,0.997,2.183c0,0.611-0.188,1.169-0.568,1.673
			c-0.387,0.504-0.991,0.962-1.829,1.375c1.013,0.481,1.729,0.986,2.155,1.516c0.432,0.53,0.645,1.143,0.645,1.839
			c0,1.03-0.36,1.853-1.082,2.467c-0.721,0.614-1.709,0.921-2.964,0.921c-1.329,0-2.354-0.29-3.065-0.871
			C68.801,89.73,68.443,88.908,68.443,87.843z M69.853,87.877c0,0.679,0.235,1.208,0.708,1.588c0.477,0.379,1.135,0.569,1.987,0.569
			c0.843,0,1.498-0.198,1.968-0.594c0.469-0.396,0.704-0.94,0.704-1.631c0-0.549-0.222-1.037-0.661-1.465
			c-0.438-0.427-1.21-0.842-2.307-1.244c-0.842,0.362-1.453,0.763-1.832,1.202C70.042,86.741,69.853,87.266,69.853,87.877z
			 M70.252,81.432c0,0.521,0.167,0.968,0.5,1.341c0.333,0.374,0.949,0.748,1.849,1.121c0.813-0.34,1.38-0.705,1.717-1.095
			c0.336-0.391,0.504-0.847,0.504-1.367c0-0.572-0.2-1.026-0.61-1.363c-0.41-0.336-0.979-0.505-1.69-0.505
			c-0.707,0-1.261,0.17-1.662,0.51C70.453,80.413,70.252,80.866,70.252,81.432z"/>
		<g>
			<path fill="#9A999E" d="M43.734,93.319c0.144-0.542,0.295-1.211,0.468-2.008c0.169-0.797,0.285-1.435,0.354-1.914h1.415
				l0.116,0.18c-0.135,0.521-0.329,1.126-0.583,1.816s-0.521,1.332-0.793,1.926H43.734z"/>
		</g>
	</g>
	<g>
		<path fill="#9A999E" d="M68.426,327.548c0-2.161,0.339-3.765,1.015-4.813c0.681-1.047,1.707-1.569,3.097-1.569
			c1.346,0,2.363,0.546,3.063,1.638c0.698,1.094,1.048,2.674,1.048,4.744c0,2.146-0.338,3.75-1.015,4.811
			c-0.676,1.063-1.709,1.59-3.104,1.59c-1.34,0-2.355-0.543-3.058-1.627C68.775,331.233,68.426,329.646,68.426,327.548z
			 M69.87,327.548c0,1.803,0.212,3.113,0.636,3.936c0.425,0.822,1.1,1.231,2.026,1.231c0.938,0,1.613-0.417,2.034-1.25
			c0.426-0.833,0.637-2.139,0.637-3.918c0-1.776-0.21-3.082-0.637-3.907c-0.421-0.828-1.102-1.242-2.034-1.242
			c-0.932,0-1.604,0.408-2.026,1.229C70.082,324.438,69.87,325.747,69.87,327.548z"/>
	</g>
	<g>
		<path fill="#FFFFFF" d="M154.6,272.294h-3.146v-8.621l0.026-1.417l0.056-1.549c-0.522,0.522-0.892,0.866-1.095,1.028l-1.712,1.375
			l-1.52-1.896l4.801-3.819h2.588L154.6,272.294L154.6,272.294z"/>
		<path fill="#FFFFFF" d="M175.092,272.294h-10.414v-2.189l3.739-3.777c1.104-1.139,1.831-1.924,2.171-2.359
			c0.34-0.438,0.584-0.844,0.729-1.218c0.148-0.374,0.229-0.765,0.229-1.162c0-0.603-0.165-1.042-0.493-1.335
			c-0.33-0.292-0.77-0.438-1.319-0.438c-0.578,0-1.138,0.132-1.683,0.396c-0.543,0.269-1.11,0.646-1.701,1.131l-1.712-2.024
			c0.732-0.625,1.341-1.064,1.823-1.325c0.479-0.259,1.01-0.456,1.58-0.597c0.566-0.142,1.209-0.209,1.916-0.209
			c0.932,0,1.752,0.17,2.466,0.511c0.715,0.342,1.268,0.813,1.661,1.429c0.395,0.609,0.591,1.313,0.591,2.1
			c0,0.688-0.12,1.33-0.36,1.934c-0.242,0.604-0.61,1.219-1.121,1.851c-0.506,0.634-1.396,1.531-2.675,2.701l-1.916,1.804v0.146
			h6.491v2.633H175.092z"/>
		<path fill="#FFFFFF" d="M187.005,272.294H176.59v-2.189l3.74-3.777c1.104-1.139,1.831-1.924,2.171-2.359
			c0.339-0.438,0.584-0.844,0.729-1.218c0.148-0.374,0.229-0.765,0.229-1.162c0-0.603-0.165-1.042-0.494-1.335
			c-0.329-0.292-0.771-0.438-1.318-0.438c-0.578,0-1.139,0.132-1.683,0.396c-0.543,0.269-1.11,0.646-1.701,1.131l-1.713-2.024
			c0.733-0.625,1.342-1.064,1.824-1.325c0.479-0.259,1.009-0.456,1.58-0.597c0.566-0.142,1.209-0.209,1.916-0.209
			c0.931,0,1.752,0.17,2.466,0.511c0.714,0.342,1.268,0.813,1.661,1.429c0.395,0.609,0.591,1.313,0.591,2.1
			c0,0.688-0.121,1.33-0.36,1.934c-0.242,0.604-0.615,1.219-1.121,1.851c-0.506,0.634-1.396,1.531-2.675,2.701l-1.916,1.804v0.146
			h6.49L187.005,272.294L187.005,272.294z"/>
		<path fill="#FFFFFF" d="M198.336,260.729c0,0.935-0.281,1.726-0.846,2.375c-0.564,0.65-1.354,1.104-2.374,1.349v0.063
			c1.197,0.146,2.108,0.518,2.729,1.098c0.62,0.58,0.927,1.363,0.927,2.349c0,1.433-0.521,2.549-1.56,3.347
			c-1.04,0.799-2.523,1.197-4.452,1.197c-1.617,0-3.051-0.268-4.301-0.805v-2.68c0.577,0.291,1.212,0.524,1.905,0.713
			c0.688,0.184,1.379,0.271,2.059,0.271c1.04,0,1.808-0.176,2.304-0.526c0.496-0.354,0.744-0.924,0.744-1.701
			c0-0.7-0.285-1.195-0.854-1.487c-0.571-0.292-1.48-0.438-2.73-0.438h-1.132v-2.416h1.152c1.15,0,1.994-0.15,2.527-0.453
			c0.532-0.306,0.8-0.818,0.8-1.558c0-1.127-0.702-1.688-2.115-1.688c-0.489,0-0.987,0.081-1.493,0.245
			c-0.506,0.162-1.067,0.441-1.688,0.848l-1.457-2.17c1.357-0.979,2.979-1.471,4.859-1.471c1.542,0,2.761,0.313,3.653,0.938
			C197.887,258.747,198.336,259.614,198.336,260.729z"/>
		<g>
			<path fill="#FFFFFF" d="M157.839,274.563c0.142-0.543,0.295-1.211,0.466-2.008c0.169-0.798,0.287-1.437,0.354-1.914h1.415
				l0.114,0.18c-0.135,0.521-0.329,1.129-0.583,1.815c-0.254,0.689-0.519,1.332-0.793,1.927H157.839z"/>
		</g>
	</g>
	<g>
		<path fill="#FFFFFF" d="M154.6,156.528h-3.146v-8.621l0.026-1.417l0.056-1.549c-0.522,0.523-0.892,0.866-1.095,1.029l-1.712,1.375
			l-1.52-1.895l4.801-3.821h2.588L154.6,156.528L154.6,156.528z"/>
		<path fill="#FFFFFF" d="M175.092,156.528h-10.414v-2.191l3.739-3.781c1.104-1.134,1.831-1.92,2.171-2.359s0.584-0.844,0.729-1.218
			c0.148-0.374,0.229-0.761,0.229-1.162c0-0.598-0.165-1.042-0.493-1.335c-0.33-0.292-0.77-0.438-1.319-0.438
			c-0.578,0-1.138,0.132-1.683,0.397c-0.543,0.265-1.11,0.642-1.701,1.131l-1.712-2.028c0.732-0.625,1.341-1.066,1.823-1.325
			c0.479-0.258,1.01-0.457,1.58-0.596c0.566-0.139,1.209-0.209,1.916-0.209c0.932,0,1.752,0.17,2.466,0.51
			c0.715,0.34,1.268,0.815,1.661,1.427c0.395,0.611,0.591,1.311,0.591,2.099c0,0.686-0.12,1.33-0.36,1.931
			c-0.242,0.601-0.61,1.217-1.121,1.849c-0.506,0.632-1.396,1.532-2.675,2.701l-1.916,1.804v0.143h6.491v2.65H175.092z"/>
		<path fill="#FFFFFF" d="M187.005,156.528H176.59v-2.191l3.74-3.781c1.104-1.134,1.831-1.92,2.171-2.359
			c0.339-0.438,0.584-0.844,0.729-1.218c0.148-0.374,0.229-0.761,0.229-1.162c0-0.598-0.165-1.042-0.494-1.335
			c-0.329-0.292-0.771-0.438-1.318-0.438c-0.578,0-1.139,0.132-1.683,0.397c-0.543,0.265-1.11,0.642-1.701,1.131l-1.713-2.028
			c0.733-0.625,1.342-1.066,1.824-1.325c0.479-0.258,1.009-0.457,1.58-0.596c0.566-0.139,1.209-0.209,1.916-0.209
			c0.931,0,1.752,0.17,2.466,0.51c0.714,0.34,1.268,0.815,1.661,1.427c0.395,0.611,0.591,1.311,0.591,2.099
			c0,0.686-0.121,1.33-0.36,1.931c-0.242,0.601-0.615,1.217-1.121,1.849s-1.396,1.532-2.675,2.701l-1.916,1.804v0.143h6.49
			L187.005,156.528L187.005,156.528z"/>
		<path fill="#FFFFFF" d="M193.924,147.011c1.438,0,2.586,0.404,3.438,1.212c0.854,0.809,1.279,1.916,1.279,3.322
			c0,1.665-0.514,2.945-1.539,3.842c-1.021,0.896-2.493,1.345-4.397,1.345c-1.658,0-2.996-0.268-4.02-0.805v-2.721
			c0.537,0.285,1.162,0.518,1.875,0.698c0.713,0.18,1.394,0.27,2.027,0.27c1.922,0,2.885-0.788,2.885-2.364
			c0-1.501-0.995-2.252-2.986-2.252c-0.355,0-0.757,0.036-1.188,0.107c-0.438,0.071-0.789,0.148-1.063,0.229l-1.253-0.672
			l0.563-7.592h8.081v2.669h-5.318l-0.273,2.925l0.355-0.071C192.799,147.058,193.313,147.011,193.924,147.011z"/>
		<g>
			<path fill="#FFFFFF" d="M157.839,158.794c0.142-0.542,0.295-1.211,0.466-2.008c0.169-0.797,0.287-1.435,0.354-1.914h1.415
				l0.114,0.18c-0.135,0.521-0.329,1.126-0.583,1.816c-0.254,0.69-0.519,1.332-0.793,1.926H157.839z"/>
		</g>
	</g>
	<g>
		<path fill="#87868A" d="M61.059,226.451H46.161v-4.208c0-1.979,0.295-3.407,0.885-4.29c0.592-0.886,1.521-1.325,2.8-1.325
			c0.883,0,1.61,0.246,2.186,0.739c0.573,0.491,0.945,1.211,1.115,2.153h0.104c0.389-2.248,1.578-3.373,3.566-3.373
			c1.332,0,2.371,0.449,3.118,1.35c0.748,0.896,1.121,2.152,1.121,3.77L61.059,226.451L61.059,226.451z M52.529,224.719v-2.853
			c0-1.225-0.188-2.104-0.569-2.641c-0.388-0.537-1.027-0.81-1.938-0.81c-0.834,0-1.437,0.299-1.806,0.896
			c-0.368,0.599-0.555,1.553-0.555,2.854v2.547L52.529,224.719L52.529,224.719z M59.581,224.719v-3.106
			c0-1.197-0.231-2.104-0.698-2.715c-0.465-0.604-1.192-0.912-2.188-0.912c-0.924,0-1.604,0.313-2.033,0.937
			c-0.438,0.621-0.652,1.563-0.652,2.838v2.968L59.581,224.719L59.581,224.719z"/>
		<path fill="#87868A" d="M46.864,213.326c-0.388,0-0.671-0.087-0.852-0.265c-0.181-0.18-0.271-0.396-0.271-0.656
			c0-0.295,0.092-0.547,0.271-0.76c0.188-0.211,0.466-0.316,0.847-0.316c0.385,0,0.664,0.105,0.854,0.316
			c0.188,0.213,0.28,0.465,0.28,0.76c0,0.264-0.099,0.479-0.28,0.656C47.528,213.239,47.244,213.326,46.864,213.326z
			 M61.059,213.185H49.891v-1.55h11.168V213.185z"/>
		<path fill="#87868A" d="M61.059,207.905H45.203v-1.691h15.854L61.059,207.905L61.059,207.905z"/>
		<path fill="#87868A" d="M61.059,202.627H45.203v-1.69h15.854L61.059,202.627L61.059,202.627z"/>
		<path fill="#87868A" d="M46.864,197.491c-0.388,0-0.671-0.09-0.852-0.266c-0.181-0.179-0.271-0.396-0.271-0.656
			c0-0.293,0.092-0.547,0.271-0.758c0.188-0.213,0.466-0.317,0.847-0.317c0.385,0,0.664,0.104,0.854,0.317
			c0.188,0.211,0.28,0.465,0.28,0.758c0,0.264-0.099,0.479-0.28,0.656C47.528,197.401,47.244,197.491,46.864,197.491z
			 M61.059,197.351H49.891V195.8h11.168V197.351z"/>
		<path fill="#87868A" d="M55.454,192.69c-1.816,0-3.231-0.455-4.247-1.36c-1.019-0.908-1.521-2.168-1.521-3.78
			c0-1.558,0.521-2.795,1.562-3.713c1.032-0.918,2.438-1.377,4.211-1.377c1.819,0,3.248,0.457,4.271,1.372
			c1.023,0.914,1.536,2.178,1.536,3.789c0,0.996-0.234,1.88-0.704,2.651c-0.471,0.771-1.145,1.367-2.021,1.787
			S56.632,192.69,55.454,192.69z M55.454,190.959c1.43,0,2.521-0.286,3.27-0.856c0.749-0.566,1.124-1.412,1.124-2.521
			s-0.373-1.951-1.119-2.525c-0.745-0.574-1.837-0.861-3.271-0.861c-1.423,0-2.504,0.287-3.243,0.861
			c-0.737,0.574-1.107,1.424-1.107,2.547c0,1.107,0.364,1.944,1.099,2.51C52.925,190.677,54.011,190.959,55.454,190.959z"/>
		<path fill="#87868A" d="M61.059,179.465H49.891v-1.376l1.509-0.275v-0.081c-0.544-0.347-0.966-0.832-1.266-1.457
			c-0.299-0.625-0.447-1.321-0.447-2.089c0-1.346,0.324-2.357,0.979-3.037c0.646-0.68,1.688-1.02,3.107-1.02h7.286v1.692H53.82
			c-0.907,0-1.593,0.207-2.042,0.621c-0.444,0.415-0.675,1.063-0.675,1.946c0,1.169,0.316,2.024,0.95,2.568
			c0.633,0.543,1.678,0.815,3.135,0.815h5.871V179.465z"/>
		<path fill="#87868A" d="M52.635,167.369c-0.91,0-1.63-0.37-2.156-1.109c-0.522-0.74-0.791-1.755-0.791-3.044
			c0-1.195,0.244-2.363,0.732-3.504l1.378,0.59c-0.463,1.117-0.694,2.13-0.694,3.037c0,0.803,0.127,1.409,0.379,1.817
			c0.251,0.408,0.604,0.612,1.041,0.612c0.3,0,0.561-0.076,0.771-0.229c0.211-0.153,0.412-0.399,0.604-0.74
			c0.19-0.341,0.467-0.994,0.827-1.961c0.482-1.324,0.971-2.215,1.461-2.671c0.489-0.457,1.105-0.686,1.852-0.686
			c1.031,0,1.831,0.386,2.396,1.155c0.563,0.771,0.842,1.852,0.842,3.243c0,1.479-0.229,2.631-0.689,3.458H59.02
			c0.271-0.535,0.485-1.11,0.646-1.724c0.152-0.614,0.23-1.206,0.23-1.775c0-0.885-0.142-1.565-0.424-2.043
			c-0.282-0.477-0.714-0.715-1.292-0.715c-0.438,0-0.811,0.189-1.118,0.567c-0.309,0.378-0.676,1.114-1.099,2.211
			c-0.394,1.041-0.729,1.78-1.021,2.217c-0.29,0.436-0.615,0.76-0.981,0.974C53.585,167.263,53.146,167.369,52.635,167.369z"/>
		<path fill="#87868A" d="M59.321,151.736h-1.595c0.252-0.563,0.457-1.214,0.615-1.951c0.16-0.737,0.24-1.408,0.24-2.013h-4.483
			c-0.438,1.393-0.954,2.369-1.538,2.93c-0.585,0.561-1.339,0.841-2.264,0.841c-0.89,0-1.619-0.345-2.189-1.034
			c-0.566-0.689-0.918-1.602-1.04-2.736h-1.854v-1.335h1.834c0.034-1.246,0.286-2.448,0.756-3.607l1.335,0.53
			c-0.401,1.009-0.64,2.035-0.715,3.077h4.424c0.34-1.063,0.671-1.859,0.992-2.389c0.323-0.528,0.693-0.918,1.111-1.169
			c0.417-0.25,0.926-0.376,1.521-0.376c0.924,0,1.688,0.346,2.292,1.037c0.604,0.691,0.983,1.656,1.146,2.896h2.354v1.335H60
			c0,0.761-0.063,1.498-0.185,2.212C59.7,150.697,59.534,151.281,59.321,151.736z M50.288,149.811c0.517,0,0.932-0.152,1.238-0.456
			c0.313-0.304,0.606-0.831,0.892-1.582h-3.943c0.108,0.669,0.32,1.177,0.637,1.521C49.427,149.639,49.819,149.811,50.288,149.811z
			 M58.48,146.438c-0.203-1.467-0.828-2.201-1.875-2.201c-0.484,0-0.885,0.15-1.188,0.452c-0.303,0.301-0.604,0.884-0.901,1.749
			H58.48z"/>
	</g>
	
		<line fill="none" stroke="#666666" stroke-width="0.25" stroke-miterlimit="10" x1="92.317" y1="85.746" x2="92.317" y2="333.776"/>
	
		<line fill="none" stroke="#666666" stroke-width="0.25" stroke-miterlimit="10" x1="223.027" y1="333.776" x2="78.597" y2="333.776"/>
	
		<line fill="none" stroke="#666666" stroke-width="0.25" stroke-miterlimit="10" x1="223.027" y1="85.746" x2="78.597" y2="85.746"/>
</g>
<g id="EU28-estimates">
	<g>
		<rect x="384.259" y="214.99" fill="#199598" width="100.497" height="118.786"/>
		<rect x="384.259" y="85.796" fill="#DD9B2B" width="100.497" height="129.194"/>
	</g>
	<g>
		<path fill="#9A999E" d="M306.778,88.166v-1.239l5.896-8.399h1.495v8.347h1.854v1.291h-1.854v2.845h-1.339v-2.845H306.778z
			 M308.199,86.875h4.629v-4.127c0-0.81,0.027-1.724,0.085-2.743h-0.063c-0.271,0.543-0.526,0.994-0.766,1.35L308.199,86.875z"/>
		<path fill="#9A999E" d="M317.274,82.583c0-1.287,0.361-2.303,1.086-3.048c0.729-0.745,1.677-1.118,2.858-1.118
			c0.846,0,1.586,0.216,2.219,0.649s1.12,1.063,1.461,1.892c0.341,0.828,0.511,1.805,0.511,2.931c0,4.861-1.883,7.292-5.646,7.292
			c-0.659,0-1.187-0.057-1.566-0.17v-1.229c0.454,0.17,0.97,0.255,1.549,0.255c1.356,0,2.385-0.422,3.073-1.266
			c0.692-0.844,1.07-2.138,1.133-3.882h-0.103c-0.313,0.476-0.729,0.838-1.237,1.088c-0.515,0.25-1.094,0.374-1.738,0.374
			c-1.103,0-1.978-0.331-2.625-0.993C317.598,84.694,317.274,83.77,317.274,82.583z M318.684,82.566c0,0.819,0.204,1.463,0.61,1.932
			c0.401,0.469,1.021,0.704,1.854,0.704c0.514,0,0.987-0.105,1.42-0.315c0.438-0.21,0.772-0.498,1.021-0.862
			c0.248-0.364,0.373-0.745,0.373-1.143c0-0.597-0.116-1.148-0.354-1.655c-0.229-0.506-0.556-0.904-0.971-1.194
			s-0.896-0.435-1.429-0.435c-0.813,0-1.438,0.262-1.874,0.785C318.904,80.906,318.684,81.634,318.684,82.566z"/>
		<path fill="#9A999E" d="M327.447,90.5v-1.364c0.396,0.254,0.895,0.453,1.479,0.597s1.169,0.216,1.734,0.216
			c0.996,0,1.771-0.234,2.322-0.703c0.553-0.468,0.828-1.146,0.828-2.031c0-1.727-1.063-2.59-3.188-2.59
			c-0.536,0-1.262,0.082-2.156,0.245l-0.731-0.466l0.479-5.808h6.174v1.291h-4.974l-0.313,3.736c0.651-0.119,1.3-0.178,1.945-0.178
			c1.309,0,2.338,0.322,3.089,0.966c0.75,0.644,1.126,1.525,1.126,2.644c0,1.288-0.409,2.297-1.229,3.029
			c-0.813,0.732-1.94,1.098-3.384,1.098C329.251,91.181,328.183,90.954,327.447,90.5z"/>
	</g>
	<g>
		<path fill="#9A999E" d="M327.184,327.548c0-2.161,0.338-3.765,1.014-4.813c0.676-1.047,1.706-1.569,3.092-1.569
			c1.353,0,2.368,0.546,3.067,1.638c0.698,1.094,1.047,2.674,1.047,4.744c0,2.146-0.338,3.75-1.014,4.811
			c-0.676,1.063-1.709,1.59-3.104,1.59c-1.34,0-2.354-0.543-3.058-1.627C327.531,331.233,327.184,329.646,327.184,327.548z
			 M328.628,327.548c0,1.803,0.212,3.113,0.636,3.936s1.1,1.231,2.021,1.231c0.938,0,1.618-0.417,2.039-1.25
			s0.638-2.139,0.638-3.918c0-1.776-0.217-3.082-0.638-3.907c-0.421-0.828-1.101-1.242-2.039-1.242
			c-0.927,0-1.603,0.408-2.021,1.229C328.84,324.438,328.628,325.747,328.628,327.548z"/>
	</g>
	<g>
		<path fill="#FFFFFF" d="M427.073,272.294h-10.414v-2.189l3.739-3.777c1.107-1.139,1.831-1.924,2.171-2.359
			c0.34-0.435,0.584-0.844,0.733-1.218c0.146-0.374,0.225-0.765,0.225-1.162c0-0.603-0.165-1.042-0.494-1.335
			c-0.329-0.292-0.77-0.438-1.314-0.438c-0.577,0-1.144,0.132-1.687,0.396c-0.544,0.269-1.105,0.646-1.696,1.131l-1.718-2.024
			c0.733-0.625,1.348-1.064,1.824-1.325c0.482-0.259,1.009-0.456,1.579-0.597c0.57-0.142,1.209-0.209,1.916-0.209
			c0.931,0,1.753,0.17,2.466,0.511c0.714,0.342,1.271,0.813,1.661,1.429c0.396,0.609,0.591,1.313,0.591,2.1
			c0,0.688-0.12,1.33-0.355,1.934c-0.241,0.604-0.615,1.219-1.121,1.851c-0.506,0.634-1.397,1.531-2.675,2.701l-1.916,1.804v0.146
			h6.485V272.294L427.073,272.294z"/>
		<path fill="#FFFFFF" d="M438.406,260.729c0,0.935-0.277,1.726-0.846,2.375c-0.563,0.65-1.355,1.104-2.374,1.349v0.063
			c1.202,0.146,2.112,0.518,2.73,1.098c0.612,0.58,0.928,1.363,0.928,2.349c0,1.433-0.521,2.549-1.563,3.347
			c-1.039,0.799-2.521,1.197-4.453,1.197c-1.61,0-3.05-0.268-4.3-0.805v-2.68c0.577,0.291,1.213,0.524,1.905,0.713
			c0.693,0.184,1.379,0.271,2.059,0.271c1.039,0,1.813-0.176,2.309-0.526c0.496-0.354,0.743-0.924,0.743-1.701
			c0-0.7-0.284-1.195-0.854-1.487c-0.571-0.292-1.479-0.438-2.729-0.438h-1.133v-2.416h1.151c1.154,0,1.999-0.15,2.532-0.453
			c0.531-0.306,0.8-0.818,0.8-1.558c0-1.127-0.707-1.688-2.119-1.688c-0.489,0-0.987,0.081-1.493,0.245
			c-0.506,0.162-1.063,0.441-1.687,0.848l-1.457-2.17c1.354-0.979,2.979-1.471,4.854-1.471c1.542,0,2.766,0.313,3.653,0.938
			C437.963,258.745,438.406,259.614,438.406,260.729z"/>
		<path fill="#FFFFFF" d="M445.619,257.202c1.433,0,2.576,0.324,3.449,0.973c0.873,0.649,1.313,1.523,1.313,2.624
			c0,0.763-0.211,1.438-0.633,2.033c-0.427,0.594-1.104,1.126-2.037,1.595c1.108,0.6,1.914,1.223,2.396,1.87
			c0.486,0.647,0.729,1.36,0.729,2.136c0,1.223-0.479,2.207-1.438,2.949c-0.958,0.744-2.218,1.116-3.78,1.116
			c-1.631,0-2.905-0.347-3.842-1.039c-0.931-0.692-1.396-1.675-1.396-2.944c0-0.85,0.227-1.604,0.678-2.263
			c0.452-0.659,1.177-1.24,2.176-1.742c-0.85-0.536-1.461-1.11-1.834-1.722c-0.374-0.612-0.561-1.281-0.561-2.008
			c0-1.066,0.438-1.93,1.321-2.59C443.053,257.532,444.199,257.202,445.619,257.202z M443.302,268.33
			c0,0.584,0.203,1.039,0.605,1.364c0.407,0.326,0.964,0.488,1.671,0.488c0.781,0,1.365-0.168,1.759-0.508
			c0.387-0.336,0.575-0.775,0.575-1.326c0-0.455-0.188-0.885-0.57-1.279c-0.39-0.396-1.012-0.818-1.87-1.271
			C444.024,266.469,443.302,267.312,443.302,268.33z M445.604,259.505c-0.537,0-0.97,0.139-1.3,0.413
			c-0.329,0.274-0.494,0.646-0.494,1.104c0,0.408,0.131,0.771,0.393,1.097c0.268,0.321,0.735,0.653,1.428,0.993
			c0.659-0.313,1.131-0.633,1.396-0.958c0.268-0.326,0.397-0.703,0.397-1.132c0-0.469-0.171-0.84-0.515-1.11
			C446.568,259.642,446.135,259.505,445.604,259.505z"/>
	</g>
	<g>
		<path fill="#FFFFFF" d="M427.073,156.528h-10.414v-2.191l3.739-3.781c1.107-1.134,1.831-1.92,2.171-2.359
			c0.34-0.439,0.584-0.844,0.733-1.218c0.146-0.374,0.225-0.761,0.225-1.162c0-0.598-0.165-1.042-0.494-1.335
			c-0.329-0.292-0.77-0.438-1.314-0.438c-0.577,0-1.144,0.132-1.687,0.397c-0.544,0.265-1.105,0.642-1.696,1.131l-1.718-2.028
			c0.733-0.625,1.348-1.066,1.824-1.325c0.482-0.258,1.009-0.457,1.579-0.596c0.57-0.139,1.209-0.209,1.916-0.209
			c0.931,0,1.753,0.17,2.466,0.51c0.714,0.34,1.271,0.815,1.661,1.427c0.396,0.611,0.591,1.311,0.591,2.099
			c0,0.686-0.12,1.33-0.355,1.931c-0.241,0.601-0.615,1.217-1.121,1.849s-1.397,1.532-2.675,2.701l-1.916,1.804v0.143h6.485V156.528
			L427.073,156.528z"/>
		<path fill="#FFFFFF" d="M433.991,147.011c1.44,0,2.587,0.404,3.439,1.212c0.853,0.809,1.277,1.916,1.277,3.322
			c0,1.665-0.518,2.945-1.537,3.842c-1.026,0.896-2.493,1.345-4.402,1.345c-1.658,0-2.996-0.268-4.016-0.805v-2.721
			c0.533,0.285,1.158,0.518,1.875,0.698c0.714,0.18,1.39,0.27,2.022,0.27c1.925,0,2.886-0.788,2.886-2.364
			c0-1.501-0.991-2.252-2.981-2.252c-0.36,0-0.758,0.036-1.192,0.107c-0.434,0.071-0.788,0.148-1.06,0.229l-1.254-0.672l0.561-7.592
			h8.081v2.669h-5.313l-0.275,2.925l0.354-0.071C432.867,147.058,433.385,147.011,433.991,147.011z"/>
		<path fill="#FFFFFF" d="M441.967,156.528l5.594-12.229h-7.347v-2.649h10.688v1.977l-5.635,12.901H441.967z"/>
	</g>
	<g>
		<path fill="#87868A" d="M323.218,226.451h-14.898v-4.208c0-1.979,0.296-3.407,0.886-4.29c0.597-0.886,1.523-1.325,2.805-1.325
			c0.883,0,1.605,0.246,2.185,0.739c0.574,0.491,0.946,1.211,1.116,2.153h0.103c0.394-2.248,1.578-3.373,3.571-3.373
			c1.332,0,2.371,0.449,3.118,1.35s1.121,2.152,1.121,3.77L323.218,226.451L323.218,226.451z M314.688,224.719v-2.853
			c0-1.225-0.191-2.104-0.574-2.641s-1.023-0.81-1.938-0.81c-0.834,0-1.438,0.299-1.811,0.896c-0.363,0.601-0.555,1.553-0.555,2.854
			v2.547L314.688,224.719L314.688,224.719z M321.739,224.719v-3.106c0-1.197-0.229-2.104-0.692-2.715
			c-0.471-0.605-1.193-0.912-2.188-0.912c-0.924,0-1.604,0.313-2.038,0.937c-0.435,0.621-0.649,1.563-0.649,2.838v2.968
			L321.739,224.719L321.739,224.719z"/>
		<path fill="#87868A" d="M309.021,213.326c-0.387,0-0.671-0.087-0.851-0.265c-0.186-0.18-0.271-0.396-0.271-0.656
			c0-0.295,0.091-0.547,0.274-0.76c0.184-0.211,0.466-0.316,0.846-0.316c0.381,0,0.664,0.105,0.852,0.316
			c0.188,0.213,0.28,0.465,0.28,0.76c0,0.264-0.094,0.479-0.28,0.656C309.686,213.239,309.402,213.326,309.021,213.326z
			 M323.218,213.185h-11.169v-1.55h11.169V213.185z"/>
		<path fill="#87868A" d="M323.218,207.905H307.36v-1.691h15.856L323.218,207.905L323.218,207.905z"/>
		<path fill="#87868A" d="M323.218,202.627H307.36v-1.69h15.856L323.218,202.627L323.218,202.627z"/>
		<path fill="#87868A" d="M309.021,197.491c-0.387,0-0.671-0.09-0.851-0.266c-0.186-0.179-0.271-0.396-0.271-0.656
			c0-0.293,0.091-0.547,0.274-0.758c0.184-0.213,0.466-0.317,0.846-0.317c0.381,0,0.664,0.104,0.852,0.317
			c0.188,0.211,0.28,0.465,0.28,0.758c0,0.264-0.094,0.479-0.28,0.656C309.686,197.401,309.402,197.491,309.021,197.491z
			 M323.218,197.351h-11.169V195.8h11.169V197.351z"/>
		<path fill="#87868A" d="M317.612,192.69c-1.813,0-3.229-0.455-4.247-1.36c-1.014-0.908-1.521-2.168-1.521-3.78
			c0-1.558,0.519-2.795,1.557-3.713c1.037-0.918,2.44-1.377,4.211-1.377c1.824,0,3.248,0.457,4.271,1.372
			c1.021,0.914,1.537,2.178,1.537,3.789c0,0.996-0.235,1.88-0.705,2.651c-0.475,0.771-1.146,1.367-2.021,1.787
			S318.784,192.69,317.612,192.69z M317.612,190.959c1.43,0,2.521-0.286,3.271-0.856c0.749-0.566,1.123-1.412,1.123-2.521
			s-0.372-1.951-1.118-2.525c-0.745-0.574-1.837-0.861-3.273-0.861c-1.423,0-2.504,0.287-3.243,0.861
			c-0.733,0.574-1.104,1.424-1.104,2.547c0,1.107,0.363,1.944,1.093,2.51C315.077,190.677,316.17,190.959,317.612,190.959z"/>
		<path fill="#87868A" d="M323.218,179.465h-11.169v-1.376l1.509-0.275v-0.081c-0.543-0.347-0.965-0.832-1.264-1.457
			c-0.305-0.625-0.448-1.321-0.448-2.089c0-1.346,0.324-2.357,0.973-3.037c0.649-0.68,1.688-1.02,3.113-1.02h7.286v1.692h-7.239
			c-0.913,0-1.594,0.207-2.043,0.621c-0.449,0.415-0.674,1.063-0.674,1.946c0,1.169,0.313,2.024,0.95,2.568
			c0.633,0.543,1.678,0.815,3.135,0.815h5.871V179.465z"/>
		<path fill="#87868A" d="M314.794,167.369c-0.911,0-1.637-0.37-2.158-1.109c-0.526-0.74-0.79-1.755-0.79-3.044
			c0-1.195,0.244-2.363,0.729-3.504l1.377,0.59c-0.463,1.117-0.688,2.13-0.688,3.037c0,0.803,0.126,1.409,0.378,1.817
			c0.252,0.408,0.6,0.612,1.042,0.612c0.3,0,0.555-0.076,0.766-0.229c0.212-0.153,0.412-0.399,0.604-0.74
			c0.188-0.341,0.466-0.994,0.827-1.961c0.479-1.324,0.97-2.215,1.46-2.671c0.485-0.457,1.104-0.686,1.849-0.686
			c1.035,0,1.832,0.386,2.394,1.155c0.563,0.771,0.848,1.852,0.848,3.243c0,1.479-0.231,2.631-0.693,3.458h-1.562
			c0.271-0.535,0.481-1.11,0.645-1.724c0.156-0.614,0.234-1.206,0.234-1.775c0-0.885-0.146-1.565-0.43-2.043
			c-0.276-0.477-0.713-0.715-1.292-0.715c-0.436,0-0.809,0.189-1.112,0.567c-0.313,0.378-0.682,1.114-1.104,2.211
			c-0.388,1.041-0.727,1.78-1.016,2.217c-0.29,0.436-0.618,0.76-0.986,0.974C315.74,167.263,315.304,167.369,314.794,167.369z"/>
		<path fill="#87868A" d="M321.479,151.736h-1.595c0.251-0.563,0.457-1.214,0.616-1.951c0.154-0.737,0.233-1.408,0.233-2.013h-4.479
			c-0.441,1.393-0.954,2.369-1.539,2.93c-0.584,0.561-1.338,0.841-2.268,0.841c-0.89,0-1.616-0.345-2.188-1.034
			c-0.57-0.689-0.917-1.602-1.039-2.736h-1.854v-1.335h1.834c0.034-1.246,0.285-2.448,0.76-3.607l1.335,0.53
			c-0.4,1.009-0.645,2.035-0.719,3.077h4.429c0.339-1.063,0.671-1.859,0.987-2.389c0.322-0.528,0.693-0.918,1.11-1.169
			c0.418-0.25,0.926-0.376,1.523-0.376c0.924,0,1.688,0.346,2.292,1.037c0.604,0.691,0.979,1.656,1.143,2.896h2.354v1.335h-2.267
			c0,0.761-0.061,1.498-0.18,2.212C321.857,150.697,321.691,151.281,321.479,151.736z M312.445,149.811
			c0.521,0,0.938-0.152,1.243-0.456c0.313-0.304,0.608-0.831,0.887-1.582h-3.938c0.104,0.669,0.315,1.177,0.637,1.521
			C311.586,149.639,311.977,149.811,312.445,149.811z M320.639,146.438c-0.204-1.467-0.829-2.201-1.875-2.201
			c-0.489,0-0.885,0.15-1.188,0.452c-0.302,0.301-0.603,0.884-0.896,1.749H320.639z"/>
	</g>
	<g>
		<path fill="#666565" d="M332.814,46.87V31.972h8.306v1.549h-6.567v4.769h6.176v1.549h-6.176v5.482h6.567v1.549H332.814z"/>
		<path fill="#666565" d="M344.269,41.571v-9.599h1.732v9.736c0,1.245,0.34,2.201,1.019,2.868c0.68,0.667,1.678,1,2.996,1
			c1.257,0,2.225-0.335,2.904-1.005c0.68-0.67,1.019-1.631,1.019-2.883v-9.715h1.732v9.64c0,1.699-0.519,3.034-1.538,4.005
			c-1.026,0.972-2.438,1.457-4.229,1.457s-3.181-0.489-4.162-1.467C344.76,44.628,344.269,43.283,344.269,41.571z"/>
		<path fill="#666565" d="M358.586,46.87v-1.438l3.924-3.959c1.189-1.214,1.979-2.08,2.358-2.599
			c0.386-0.518,0.665-1.023,0.855-1.514c0.188-0.491,0.285-1.02,0.285-1.586c0-0.798-0.241-1.431-0.729-1.898
			c-0.479-0.467-1.146-0.701-2.008-0.701c-0.618,0-1.204,0.103-1.758,0.307s-1.17,0.577-1.851,1.115l-0.896-1.156
			c1.372-1.122,2.866-1.683,4.483-1.683c1.396,0,2.497,0.357,3.291,1.07c0.795,0.713,1.188,1.671,1.188,2.875
			c0,0.948-0.265,1.886-0.795,2.814c-0.527,0.928-1.521,2.102-2.976,3.521l-3.265,3.203v0.082h7.662v1.549h-9.79V46.87H358.586z"/>
		<path fill="#666565" d="M370.56,43.069c0-1.705,1.046-3.033,3.137-3.984c-0.946-0.53-1.627-1.103-2.039-1.717
			c-0.412-0.614-0.618-1.303-0.618-2.063c0-1.08,0.401-1.941,1.204-2.583c0.809-0.642,1.877-0.963,3.229-0.963
			c1.357,0,2.438,0.316,3.241,0.948c0.798,0.632,1.19,1.505,1.19,2.619c0,0.733-0.229,1.403-0.688,2.007
			c-0.458,0.605-1.189,1.155-2.194,1.651c1.216,0.578,2.08,1.184,2.593,1.819c0.518,0.635,0.771,1.371,0.771,2.206
			c0,1.237-0.438,2.224-1.298,2.96c-0.865,0.737-2.058,1.105-3.563,1.105c-1.595,0-2.821-0.348-3.68-1.044
			C370.989,45.333,370.56,44.347,370.56,43.069z M372.252,43.11c0,0.815,0.277,1.451,0.85,1.906s1.362,0.683,2.386,0.683
			c1.011,0,1.798-0.238,2.36-0.713c0.563-0.476,0.845-1.127,0.845-1.957c0-0.659-0.265-1.245-0.793-1.758
			c-0.529-0.513-1.452-1.01-2.768-1.493c-1.017,0.435-1.743,0.916-2.198,1.442C372.479,41.746,372.252,42.376,372.252,43.11z
			 M372.73,35.375c0,0.625,0.2,1.162,0.6,1.61c0.4,0.449,1.146,0.897,2.224,1.345c0.97-0.407,1.65-0.846,2.06-1.314
			c0.404-0.468,0.605-1.016,0.605-1.641c0-0.686-0.246-1.231-0.737-1.635c-0.492-0.404-1.169-0.606-2.029-0.606
			c-0.848,0-1.513,0.204-1.992,0.611C372.972,34.152,372.73,34.696,372.73,35.375z"/>
		<path fill="#666565" d="M388.025,41.377c0-1.8,0.441-3.23,1.326-4.29c0.884-1.06,2.07-1.589,3.561-1.589
			c1.396,0,2.498,0.46,3.313,1.38c0.813,0.921,1.219,2.135,1.219,3.643v1.07h-7.684c0.028,1.311,0.359,2.306,0.995,2.985
			c0.63,0.68,1.516,1.019,2.653,1.019c1.198,0,2.39-0.251,3.562-0.754v1.508c-0.603,0.258-1.16,0.443-1.691,0.555
			c-0.532,0.112-1.174,0.168-1.926,0.168c-1.646,0-2.945-0.502-3.897-1.508C388.505,44.558,388.025,43.165,388.025,41.377z
			 M389.8,40.216h5.849c0-1.066-0.238-1.883-0.715-2.451c-0.479-0.567-1.156-0.851-2.041-0.851c-0.898,0-1.614,0.292-2.148,0.876
			C390.203,38.375,389.894,39.183,389.8,40.216z"/>
		<path fill="#666565" d="M399.643,38.446c0-0.911,0.37-1.63,1.109-2.158c0.734-0.527,1.754-0.791,3.044-0.791
			c1.189,0,2.357,0.244,3.504,0.733l-0.59,1.377c-1.117-0.463-2.136-0.695-3.037-0.695c-0.81,0-1.409,0.126-1.817,0.378
			c-0.409,0.251-0.613,0.599-0.613,1.042c0,0.3,0.077,0.555,0.23,0.766c0.152,0.211,0.396,0.412,0.74,0.603
			c0.34,0.191,0.994,0.467,1.961,0.828c1.324,0.483,2.215,0.97,2.671,1.46c0.457,0.49,0.686,1.104,0.686,1.849
			c0,1.034-0.386,1.832-1.149,2.393c-0.771,0.561-1.854,0.841-3.243,0.841c-1.479,0-2.631-0.23-3.459-0.693V44.82
			c0.536,0.272,1.104,0.487,1.725,0.644c0.613,0.157,1.205,0.235,1.775,0.235c0.885,0,1.563-0.141,2.042-0.424
			c0.477-0.283,0.715-0.713,0.715-1.292c0-0.436-0.188-0.809-0.566-1.119c-0.378-0.31-1.109-0.676-2.211-1.098
			c-1.042-0.388-1.775-0.727-2.217-1.017s-0.761-0.618-0.974-0.986C399.744,39.396,399.643,38.957,399.643,38.446z"/>
		<path fill="#666565" d="M408.828,37.016v-0.815l1.604-0.703l0.713-2.385h0.979v2.588h3.235v1.314h-3.235v6.588
			c0,0.674,0.154,1.191,0.479,1.552c0.319,0.361,0.758,0.542,1.314,0.542c0.299,0,0.588-0.022,0.86-0.066
			c0.279-0.044,0.5-0.09,0.663-0.138v1.278c-0.184,0.087-0.454,0.159-0.811,0.216c-0.356,0.057-0.683,0.085-0.964,0.085
			c-2.159,0-3.239-1.138-3.239-3.414v-6.644h-1.604L408.828,37.016L408.828,37.016z"/>
		<path fill="#666565" d="M417.531,32.675c0-0.387,0.088-0.671,0.27-0.851c0.175-0.18,0.395-0.27,0.653-0.27
			c0.297,0,0.55,0.092,0.762,0.275c0.213,0.184,0.313,0.466,0.313,0.846c0,0.38-0.104,0.664-0.313,0.851s-0.465,0.28-0.762,0.28
			c-0.265,0-0.479-0.093-0.653-0.28C417.619,33.339,417.531,33.056,417.531,32.675z M417.68,46.87V35.702h1.549V46.87H417.68z"/>
		<path fill="#666565" d="M422.953,46.87V35.702h1.375l0.275,1.509h0.081c0.319-0.537,0.771-0.957,1.351-1.259
			c0.581-0.302,1.231-0.453,1.951-0.453c1.746,0,2.894,0.625,3.424,1.876h0.082c0.333-0.579,0.815-1.036,1.447-1.372
			s1.354-0.504,2.16-0.504c1.264,0,2.209,0.324,2.838,0.973c0.628,0.648,0.942,1.687,0.942,3.113v7.286h-1.691V39.59
			c0-0.892-0.188-1.561-0.57-2.006c-0.381-0.446-0.972-0.669-1.771-0.669c-1.053,0-1.831,0.303-2.334,0.909
			c-0.503,0.605-0.754,1.538-0.754,2.798v6.249h-1.691V39.59c0-0.892-0.188-1.561-0.57-2.006c-0.381-0.446-0.976-0.669-1.777-0.669
			c-1.063,0-1.836,0.318-2.329,0.955c-0.492,0.637-0.738,1.68-0.738,3.13v5.871L422.953,46.87L422.953,46.87z"/>
		<path fill="#666565" d="M441.531,43.794c0-2.25,1.812-3.429,5.418-3.537l1.898-0.062v-0.702c0-0.887-0.188-1.542-0.564-1.965
			c-0.377-0.423-0.979-0.634-1.806-0.634c-0.929,0-1.979,0.289-3.153,0.866l-0.521-1.298c0.551-0.294,1.147-0.525,1.809-0.692
			c0.655-0.167,1.313-0.251,1.974-0.251c1.328,0,2.314,0.295,2.955,0.887c0.646,0.591,0.968,1.539,0.968,2.843v7.622h-1.257
			l-0.338-1.571h-0.082c-0.556,0.693-1.104,1.162-1.657,1.407c-0.559,0.246-1.242,0.368-2.069,0.368
			c-1.113,0-1.985-0.284-2.616-0.853C441.85,45.652,441.531,44.843,441.531,43.794z M443.323,43.814
			c0,0.615,0.188,1.082,0.561,1.403c0.368,0.321,0.887,0.481,1.551,0.481c1.052,0,1.877-0.29,2.477-0.87
			c0.604-0.581,0.9-1.393,0.9-2.437v-1.014l-1.688,0.071c-1.343,0.048-2.311,0.258-2.897,0.63
			C443.619,42.451,443.323,43.029,443.323,43.814z"/>
		<path fill="#666565" d="M452.493,37.016v-0.815l1.604-0.703l0.713-2.385h0.979v2.588h3.236v1.314h-3.236v6.588
			c0,0.674,0.155,1.191,0.479,1.552c0.319,0.361,0.758,0.542,1.313,0.542c0.301,0,0.59-0.022,0.862-0.066
			c0.279-0.044,0.5-0.09,0.663-0.138v1.278c-0.184,0.087-0.454,0.159-0.811,0.216c-0.356,0.057-0.684,0.085-0.964,0.085
			c-2.159,0-3.239-1.138-3.239-3.414v-6.644h-1.604L452.493,37.016L452.493,37.016z"/>
		<path fill="#666565" d="M460.723,41.377c0-1.8,0.438-3.23,1.326-4.29c0.884-1.06,2.064-1.589,3.561-1.589
			c1.396,0,2.498,0.46,3.313,1.38c0.813,0.921,1.219,2.135,1.219,3.643v1.07h-7.688c0.034,1.311,0.365,2.306,0.995,2.985
			c0.63,0.68,1.521,1.019,2.659,1.019c1.198,0,2.384-0.251,3.556-0.754v1.508c-0.597,0.258-1.154,0.443-1.688,0.555
			c-0.532,0.112-1.174,0.168-1.926,0.168c-1.646,0-2.945-0.502-3.897-1.508S460.723,43.165,460.723,41.377z M462.491,40.216h5.854
			c0-1.066-0.238-1.883-0.715-2.451c-0.479-0.567-1.156-0.851-2.041-0.851c-0.898,0-1.614,0.292-2.148,0.876
			C462.905,38.375,462.592,39.183,462.491,40.216z"/>
		<path fill="#666565" d="M472.34,38.446c0-0.911,0.37-1.63,1.104-2.158c0.74-0.527,1.754-0.791,3.044-0.791
			c1.195,0,2.363,0.244,3.504,0.733l-0.59,1.377c-1.117-0.463-2.13-0.695-3.037-0.695c-0.804,0-1.403,0.126-1.813,0.378
			c-0.409,0.251-0.613,0.599-0.613,1.042c0,0.3,0.077,0.555,0.23,0.766c0.146,0.211,0.396,0.412,0.734,0.603
			c0.34,0.191,0.994,0.467,1.961,0.828c1.324,0.483,2.221,0.97,2.676,1.46c0.452,0.49,0.687,1.104,0.687,1.849
			c0,1.034-0.386,1.832-1.155,2.393c-0.771,0.561-1.852,0.841-3.243,0.841c-1.479,0-2.631-0.23-3.459-0.693V44.82
			c0.536,0.272,1.11,0.487,1.729,0.644c0.607,0.157,1.205,0.235,1.771,0.235c0.891,0,1.565-0.141,2.042-0.424
			c0.479-0.283,0.721-0.713,0.721-1.292c0-0.436-0.188-0.809-0.566-1.119c-0.378-0.31-1.115-0.676-2.211-1.098
			c-1.042-0.388-1.78-0.727-2.217-1.017c-0.438-0.29-0.767-0.618-0.979-0.986C472.445,39.396,472.34,38.957,472.34,38.446z"/>
	</g>
	
		<line fill="none" stroke="#666666" stroke-width="0.25" stroke-miterlimit="10" x1="354.046" y1="85.746" x2="354.046" y2="333.776"/>
	
		<line fill="none" stroke="#666666" stroke-width="0.25" stroke-miterlimit="10" x1="484.757" y1="333.776" x2="340.323" y2="333.776"/>
	
		<line fill="none" stroke="#666666" stroke-width="0.25" stroke-miterlimit="10" x1="484.757" y1="85.746" x2="340.323" y2="85.746"/>
</g>
<g id="legend">
	<g>
		<g>
			<path fill="#5B5B5F" d="M592.471,192.979c0-1.277,0.23-2.396,0.709-3.359c0.473-0.961,1.16-1.702,2.063-2.225
				c0.904-0.521,1.965-0.779,3.189-0.779c1.303,0,2.438,0.236,3.414,0.713l-0.611,1.238c-0.938-0.439-1.881-0.66-2.82-0.66
				c-1.359,0-2.438,0.451-3.229,1.359c-0.789,0.907-1.188,2.15-1.188,3.729c0,1.624,0.387,2.878,1.146,3.763
				c0.76,0.887,1.846,1.328,3.256,1.328c0.865,0,1.855-0.152,2.963-0.467v1.271c-0.855,0.322-1.922,0.484-3.184,0.484
				c-1.828,0-3.236-0.559-4.229-1.666C592.966,196.604,592.471,195.024,592.471,192.979z"/>
			<path fill="#5B5B5F" d="M603.356,194.538c0-1.516,0.379-2.693,1.135-3.538s1.811-1.271,3.15-1.271
				c1.297,0,2.33,0.436,3.094,1.297c0.768,0.865,1.146,2.035,1.146,3.512c0,1.521-0.381,2.707-1.146,3.561
				c-0.762,0.854-1.813,1.279-3.158,1.279c-0.83,0-1.563-0.193-2.211-0.588c-0.643-0.393-1.139-0.953-1.484-1.686
				C603.531,196.376,603.356,195.521,603.356,194.538z M604.802,194.538c0,1.189,0.232,2.102,0.715,2.727
				c0.475,0.621,1.176,0.938,2.1,0.938s1.627-0.313,2.105-0.934c0.479-0.623,0.719-1.529,0.719-2.729
				c0-1.188-0.24-2.086-0.719-2.702c-0.48-0.613-1.189-0.923-2.123-0.923c-0.924,0-1.621,0.303-2.092,0.91
				C605.032,192.433,604.802,193.335,604.802,194.538z"/>
			<path fill="#5B5B5F" d="M613.781,192.188c0-0.76,0.313-1.357,0.927-1.799c0.614-0.438,1.464-0.658,2.534-0.658
				c0.996,0,1.975,0.203,2.92,0.609l-0.486,1.146c-0.936-0.385-1.775-0.577-2.531-0.577c-0.67,0-1.174,0.104-1.516,0.313
				c-0.344,0.211-0.514,0.5-0.514,0.866c0,0.25,0.063,0.463,0.191,0.64c0.127,0.177,0.332,0.345,0.617,0.502
				c0.277,0.16,0.822,0.39,1.633,0.688c1.104,0.402,1.846,0.811,2.227,1.219c0.381,0.406,0.57,0.922,0.57,1.539
				c0,0.861-0.32,1.527-0.963,1.994c-0.646,0.471-1.541,0.701-2.701,0.701c-1.232,0-2.193-0.189-2.883-0.578v-1.299
				c0.441,0.229,0.926,0.404,1.438,0.535c0.516,0.133,1.004,0.195,1.479,0.195c0.732,0,1.305-0.119,1.703-0.354
				c0.395-0.23,0.596-0.594,0.596-1.076c0-0.359-0.158-0.674-0.475-0.932c-0.313-0.26-0.932-0.564-1.846-0.916
				c-0.865-0.324-1.479-0.605-1.848-0.848c-0.365-0.242-0.633-0.517-0.813-0.82C613.87,192.979,613.781,192.614,613.781,192.188z"/>
			<path fill="#5B5B5F" d="M621.444,190.998v-0.683l1.334-0.586l0.594-1.984h0.814v2.154h2.701v1.099h-2.701v5.487
				c0,0.563,0.133,0.994,0.398,1.297c0.268,0.301,0.633,0.449,1.098,0.449c0.248,0,0.488-0.021,0.721-0.058
				c0.232-0.034,0.416-0.073,0.553-0.112v1.063c-0.148,0.072-0.379,0.133-0.676,0.183c-0.297,0.047-0.563,0.069-0.803,0.069
				c-1.799,0-2.699-0.946-2.699-2.846v-5.537L621.444,190.998L621.444,190.998z"/>
			<path fill="#5B5B5F" d="M633.329,199.21v-9.309h1.146l0.229,1.258h0.068c0.287-0.452,0.693-0.805,1.213-1.055
				c0.521-0.25,1.105-0.375,1.742-0.375c1.121,0,1.963,0.271,2.529,0.813c0.563,0.54,0.85,1.405,0.85,2.593v6.072h-1.41v-6.033
				c0-0.759-0.172-1.324-0.518-1.699c-0.348-0.375-0.889-0.563-1.621-0.563c-0.975,0-1.689,0.264-2.141,0.791
				c-0.453,0.526-0.684,1.397-0.684,2.612v4.894h-1.408L633.329,199.21L633.329,199.21z"/>
			<path fill="#5B5B5F" d="M643.489,194.538c0-1.516,0.377-2.693,1.135-3.538c0.76-0.845,1.811-1.271,3.148-1.271
				c1.299,0,2.33,0.436,3.096,1.297c0.77,0.865,1.146,2.035,1.146,3.512c0,1.521-0.381,2.707-1.146,3.561
				c-0.762,0.854-1.813,1.279-3.154,1.279c-0.828,0-1.564-0.193-2.211-0.588c-0.646-0.393-1.143-0.953-1.486-1.686
				C643.659,196.376,643.489,195.521,643.489,194.538z M644.932,194.538c0,1.189,0.238,2.102,0.715,2.727
				c0.477,0.621,1.176,0.938,2.102,0.938c0.928,0,1.625-0.313,2.105-0.934c0.479-0.623,0.719-1.529,0.719-2.729
				c0-1.188-0.234-2.086-0.719-2.702c-0.48-0.613-1.189-0.923-2.123-0.923c-0.924,0-1.621,0.303-2.092,0.91
				C645.167,192.433,644.932,193.335,644.932,194.538z"/>
			<path fill="#5B5B5F" d="M654.512,199.21v-9.309h1.145l0.23,1.258h0.063c0.289-0.452,0.693-0.805,1.219-1.055
				c0.521-0.25,1.102-0.375,1.736-0.375c1.121,0,1.965,0.271,2.531,0.813s0.85,1.405,0.85,2.593v6.072h-1.406v-6.033
				c0-0.759-0.178-1.324-0.521-1.699c-0.346-0.375-0.887-0.563-1.623-0.563c-0.973,0-1.688,0.264-2.139,0.791
				c-0.453,0.526-0.684,1.397-0.684,2.612v4.894h-1.404L654.512,199.21L654.512,199.21z"/>
			<path fill="#5B5B5F" d="M664.403,195.19v-1.291h4.17v1.291H664.403z"/>
			<path fill="#5B5B5F" d="M669.531,190.998v-0.64l1.664-0.508v-0.518c0-2.275,1-3.416,2.998-3.416c0.492,0,1.07,0.1,1.732,0.292
				l-0.365,1.117c-0.543-0.177-1.008-0.265-1.396-0.265c-0.529,0-0.928,0.177-1.182,0.528c-0.256,0.354-0.383,0.923-0.383,1.703
				v0.604h2.369v1.098H672.6v8.21h-1.408v-8.21L669.531,190.998L669.531,190.998z"/>
			<path fill="#5B5B5F" d="M675.979,196.646c0-1.875,1.506-2.856,4.516-2.946l1.582-0.054v-0.584c0-0.737-0.152-1.285-0.471-1.639
				c-0.316-0.352-0.814-0.527-1.504-0.527c-0.773,0-1.65,0.239-2.627,0.724l-0.439-1.082c0.459-0.246,0.961-0.438,1.508-0.577
				c0.551-0.141,1.1-0.209,1.646-0.209c1.107,0,1.93,0.245,2.465,0.739c0.533,0.491,0.801,1.28,0.801,2.368v6.353h-1.045
				l-0.275-1.312h-0.068c-0.463,0.578-0.924,0.97-1.385,1.175c-0.461,0.202-1.035,0.307-1.729,0.307
				c-0.926,0-1.648-0.235-2.18-0.711C676.24,198.192,675.979,197.521,675.979,196.646z M677.475,196.663
				c0,0.512,0.152,0.898,0.461,1.168c0.309,0.271,0.738,0.4,1.293,0.4c0.875,0,1.563-0.24,2.063-0.728
				c0.5-0.485,0.75-1.159,0.75-2.028v-0.847l-1.402,0.062c-1.119,0.041-1.928,0.217-2.42,0.524
				C677.721,195.526,677.475,196.009,677.475,196.663z"/>
			<path fill="#5B5B5F" d="M685.115,190.998v-0.683l1.332-0.586l0.6-1.984h0.813v2.154h2.699v1.099h-2.699v5.487
				c0,0.563,0.133,0.994,0.398,1.297c0.265,0.301,0.631,0.449,1.096,0.449c0.25,0,0.49-0.021,0.723-0.058
				c0.23-0.034,0.416-0.073,0.557-0.112v1.063c-0.152,0.072-0.382,0.133-0.68,0.183c-0.299,0.047-0.563,0.069-0.803,0.069
				c-1.801,0-2.701-0.946-2.701-2.846v-5.537L685.115,190.998L685.115,190.998z"/>
			<path fill="#5B5B5F" d="M691.786,196.646c0-1.875,1.512-2.856,4.521-2.946l1.582-0.054v-0.584c0-0.737-0.158-1.285-0.475-1.639
				c-0.313-0.352-0.813-0.527-1.506-0.527c-0.771,0-1.646,0.239-2.627,0.724l-0.438-1.082c0.459-0.246,0.961-0.438,1.508-0.577
				c0.545-0.141,1.094-0.209,1.643-0.209c1.107,0,1.934,0.245,2.469,0.739c0.529,0.491,0.803,1.28,0.803,2.368v6.353h-1.045
				l-0.281-1.312h-0.068c-0.463,0.578-0.924,0.97-1.385,1.175c-0.461,0.202-1.035,0.307-1.725,0.307
				c-0.928,0-1.654-0.235-2.186-0.711C692.055,198.192,691.786,197.521,691.786,196.646z M693.282,196.663
				c0,0.512,0.152,0.898,0.461,1.168c0.313,0.271,0.738,0.4,1.293,0.4c0.875,0,1.564-0.24,2.064-0.728
				c0.5-0.485,0.75-1.159,0.75-2.028v-0.847l-1.408,0.062c-1.117,0.041-1.926,0.217-2.42,0.524
				C693.529,195.524,693.282,196.009,693.282,196.663z"/>
			<path fill="#5B5B5F" d="M702.156,199.21v-13.212h1.41v13.212H702.156z"/>
			<path fill="#5B5B5F" d="M710.559,194.614c0-1.559,0.371-2.762,1.115-3.608c0.746-0.849,1.811-1.272,3.193-1.272
				c0.447,0,0.896,0.05,1.346,0.146c0.443,0.099,0.799,0.209,1.055,0.34l-0.437,1.197c-0.313-0.125-0.649-0.229-1.021-0.312
				s-0.695-0.123-0.977-0.123c-1.896,0-2.84,1.205-2.84,3.617c0,1.146,0.229,2.021,0.689,2.633c0.461,0.608,1.146,0.916,2.051,0.916
				c0.775,0,1.572-0.166,2.391-0.5v1.248c-0.621,0.321-1.406,0.483-2.354,0.483c-1.348,0-2.389-0.416-3.121-1.244
				C710.925,197.308,710.559,196.132,710.559,194.614z"/>
			<path fill="#5B5B5F" d="M718.656,196.646c0-1.875,1.506-2.856,4.52-2.946l1.582-0.054v-0.584c0-0.737-0.156-1.285-0.475-1.639
				c-0.313-0.352-0.813-0.527-1.506-0.527c-0.77,0-1.646,0.239-2.627,0.724l-0.438-1.082c0.459-0.246,0.961-0.438,1.508-0.577
				s1.094-0.209,1.643-0.209c1.109,0,1.936,0.245,2.465,0.739c0.535,0.491,0.807,1.28,0.807,2.368v6.353h-1.045l-0.279-1.312h-0.068
				c-0.463,0.578-0.926,0.97-1.387,1.175c-0.459,0.202-1.035,0.307-1.725,0.307c-0.932,0-1.654-0.235-2.184-0.711
				C718.923,198.192,718.656,197.521,718.656,196.646z M720.153,196.663c0,0.512,0.154,0.898,0.463,1.168
				c0.313,0.271,0.738,0.4,1.291,0.4c0.877,0,1.564-0.24,2.064-0.728c0.5-0.485,0.75-1.159,0.75-2.028v-0.847l-1.406,0.062
				c-1.119,0.041-1.926,0.217-2.42,0.524C720.401,195.524,720.153,196.009,720.153,196.663z"/>
			<path fill="#5B5B5F" d="M728.434,192.188c0-0.76,0.307-1.357,0.924-1.799c0.617-0.438,1.461-0.658,2.537-0.658
				c0.994,0,1.969,0.203,2.92,0.609l-0.492,1.146c-0.932-0.385-1.771-0.577-2.531-0.577c-0.67,0-1.174,0.104-1.514,0.313
				c-0.342,0.211-0.512,0.5-0.512,0.866c0,0.25,0.063,0.463,0.188,0.64s0.332,0.345,0.617,0.502c0.283,0.16,0.828,0.39,1.633,0.688
				c1.105,0.402,1.852,0.811,2.23,1.219c0.379,0.406,0.568,0.922,0.568,1.539c0,0.861-0.318,1.527-0.967,1.994
				c-0.641,0.471-1.541,0.701-2.697,0.701c-1.23,0-2.191-0.189-2.887-0.578v-1.299c0.447,0.229,0.93,0.404,1.439,0.535
				c0.512,0.133,1.004,0.195,1.479,0.195c0.736,0,1.309-0.119,1.701-0.354c0.398-0.23,0.602-0.594,0.602-1.076
				c0-0.359-0.158-0.674-0.479-0.932c-0.313-0.26-0.928-0.564-1.842-0.916c-0.867-0.324-1.484-0.605-1.848-0.848
				s-0.639-0.517-0.813-0.82C728.522,192.979,728.434,192.614,728.434,192.188z"/>
			<path fill="#5B5B5F" d="M736.807,194.632c0-1.5,0.367-2.689,1.104-3.572c0.736-0.886,1.729-1.326,2.973-1.326
				c1.156,0,2.082,0.386,2.758,1.149c0.678,0.769,1.016,1.778,1.016,3.036v0.895h-6.398c0.023,1.095,0.305,1.922,0.828,2.484
				c0.521,0.566,1.266,0.854,2.219,0.854c0.998,0,1.98-0.209,2.963-0.629v1.258c-0.498,0.216-0.967,0.369-1.41,0.464
				c-0.443,0.094-0.979,0.141-1.604,0.141c-1.369,0-2.451-0.42-3.246-1.258C737.202,197.286,736.807,196.122,736.807,194.632z
				 M738.281,193.663h4.873c0-0.891-0.193-1.568-0.594-2.041c-0.396-0.475-0.965-0.709-1.703-0.709
				c-0.748,0-1.344,0.242-1.789,0.729C738.626,192.131,738.362,192.806,738.281,193.663z"/>
			<path fill="#5B5B5F" d="M746.487,192.188c0-0.76,0.313-1.357,0.924-1.799c0.617-0.438,1.461-0.658,2.537-0.658
				c0.994,0,1.969,0.203,2.92,0.609l-0.492,1.146c-0.932-0.385-1.771-0.577-2.525-0.577c-0.67,0-1.176,0.104-1.52,0.313
				c-0.342,0.211-0.512,0.5-0.512,0.866c0,0.25,0.064,0.463,0.191,0.64c0.129,0.177,0.334,0.345,0.617,0.502
				c0.279,0.16,0.824,0.39,1.635,0.688c1.104,0.402,1.846,0.811,2.227,1.219c0.379,0.406,0.57,0.922,0.57,1.539
				c0,0.861-0.32,1.527-0.963,1.994c-0.646,0.471-1.543,0.701-2.703,0.701c-1.23,0-2.191-0.189-2.881-0.578v-1.299
				c0.441,0.229,0.924,0.404,1.436,0.535c0.512,0.133,1.006,0.195,1.48,0.195c0.732,0,1.305-0.119,1.701-0.354
				c0.396-0.23,0.596-0.594,0.596-1.076c0-0.359-0.156-0.674-0.477-0.932c-0.313-0.26-0.93-0.564-1.842-0.916
				c-0.869-0.324-1.48-0.605-1.848-0.848c-0.365-0.242-0.635-0.517-0.814-0.82C746.573,192.979,746.487,192.614,746.487,192.188z"/>
		</g>
		<rect x="563.448" y="183.751" fill="#DD9B2B" width="17.803" height="17.801"/>
	</g>
	<g>
		<g>
			<path fill="#5B5B5F" d="M592.471,220.67c0-1.274,0.23-2.396,0.709-3.356c0.473-0.961,1.16-1.703,2.063-2.226
				c0.904-0.521,1.965-0.778,3.189-0.778c1.303,0,2.438,0.235,3.414,0.713l-0.611,1.235c-0.938-0.438-1.881-0.659-2.82-0.659
				c-1.359,0-2.438,0.452-3.229,1.36c-0.789,0.907-1.188,2.147-1.188,3.729c0,1.623,0.387,2.877,1.146,3.764
				s1.846,1.328,3.256,1.328c0.865,0,1.855-0.154,2.963-0.467v1.271c-0.855,0.324-1.922,0.483-3.184,0.483
				c-1.828,0-3.236-0.555-4.229-1.664C592.966,224.293,592.471,222.715,592.471,220.67z"/>
			<path fill="#5B5B5F" d="M603.356,222.229c0-1.517,0.379-2.693,1.135-3.539c0.756-0.847,1.811-1.271,3.15-1.271
				c1.297,0,2.33,0.435,3.094,1.297c0.768,0.865,1.146,2.035,1.146,3.511c0,1.521-0.381,2.707-1.146,3.562
				c-0.762,0.854-1.813,1.278-3.158,1.278c-0.83,0-1.563-0.194-2.211-0.586c-0.643-0.394-1.139-0.953-1.484-1.687
				C603.531,224.063,603.356,223.211,603.356,222.229z M604.802,222.229c0,1.188,0.232,2.101,0.715,2.725
				c0.475,0.624,1.176,0.938,2.1,0.938s1.627-0.313,2.105-0.934c0.477-0.621,0.719-1.531,0.719-2.729
				c0-1.188-0.24-2.088-0.719-2.703c-0.48-0.615-1.189-0.924-2.123-0.924c-0.924,0-1.621,0.305-2.092,0.91
				C605.032,220.12,604.802,221.024,604.802,222.229z"/>
			<path fill="#5B5B5F" d="M613.781,219.879c0-0.759,0.313-1.354,0.927-1.797c0.614-0.438,1.464-0.66,2.534-0.66
				c0.996,0,1.975,0.205,2.92,0.611l-0.486,1.146c-0.936-0.387-1.775-0.578-2.531-0.578c-0.67,0-1.174,0.104-1.516,0.314
				c-0.344,0.209-0.514,0.498-0.514,0.866c0,0.25,0.063,0.464,0.191,0.64c0.127,0.176,0.332,0.344,0.617,0.502
				c0.277,0.158,0.822,0.389,1.633,0.688c1.104,0.404,1.846,0.813,2.227,1.221c0.381,0.406,0.57,0.922,0.57,1.539
				c0,0.861-0.32,1.525-0.963,1.995c-0.646,0.468-1.541,0.7-2.701,0.7c-1.232,0-2.193-0.189-2.883-0.578v-1.301
				c0.441,0.229,0.926,0.403,1.438,0.535c0.516,0.131,1.004,0.194,1.479,0.194c0.732,0,1.305-0.119,1.703-0.354
				c0.395-0.232,0.596-0.594,0.596-1.076c0-0.361-0.158-0.674-0.475-0.934c-0.313-0.259-0.932-0.563-1.846-0.914
				c-0.865-0.324-1.479-0.604-1.848-0.849c-0.363-0.24-0.633-0.517-0.813-0.819C613.87,220.672,613.781,220.308,613.781,219.879z"/>
			<path fill="#5B5B5F" d="M621.444,218.688v-0.683l1.334-0.586l0.594-1.985h0.814v2.155h2.701v1.099h-2.701v5.487
				c0,0.563,0.133,0.994,0.398,1.296c0.268,0.301,0.633,0.45,1.098,0.45c0.248,0,0.488-0.021,0.721-0.057
				c0.233-0.036,0.416-0.074,0.553-0.113v1.063c-0.148,0.072-0.379,0.133-0.676,0.183c-0.297,0.047-0.563,0.067-0.803,0.067
				c-1.799,0-2.699-0.944-2.699-2.844v-5.537L621.444,218.688L621.444,218.688z"/>
			<path fill="#5B5B5F" d="M632.085,218.688v-0.64l1.66-0.508v-0.519c0-2.274,1-3.416,2.998-3.416c0.492,0,1.07,0.101,1.732,0.291
				l-0.365,1.117c-0.543-0.178-1.008-0.266-1.393-0.266c-0.533,0-0.932,0.18-1.186,0.529c-0.256,0.354-0.383,0.922-0.383,1.703
				v0.604h2.369v1.1h-2.369v8.211h-1.408v-8.211L632.085,218.688L632.085,218.688z"/>
			<path fill="#5B5B5F" d="M638.53,224.336c0-1.875,1.506-2.854,4.52-2.944l1.582-0.056v-0.584c0-0.735-0.156-1.285-0.475-1.637
				c-0.313-0.354-0.813-0.529-1.506-0.529c-0.771,0-1.646,0.241-2.627,0.726l-0.438-1.082c0.459-0.246,0.961-0.438,1.508-0.576
				c0.547-0.144,1.094-0.209,1.643-0.209c1.109,0,1.93,0.246,2.465,0.738c0.535,0.489,0.807,1.278,0.807,2.366v6.354h-1.045
				l-0.279-1.313h-0.068c-0.463,0.578-0.926,0.972-1.387,1.177c-0.459,0.2-1.035,0.308-1.725,0.308
				c-0.932,0-1.654-0.235-2.184-0.712C638.794,225.885,638.53,225.211,638.53,224.336z M640.024,224.354
				c0,0.513,0.154,0.898,0.463,1.17c0.309,0.267,0.738,0.398,1.291,0.398c0.877,0,1.564-0.24,2.064-0.729
				c0.5-0.483,0.75-1.159,0.75-2.027v-0.848l-1.406,0.063c-1.119,0.041-1.926,0.219-2.42,0.524
				C640.272,223.219,640.024,223.698,640.024,224.354z"/>
			<path fill="#5B5B5F" d="M647.667,218.688v-0.683l1.334-0.586l0.594-1.985h0.813v2.155h2.701v1.099h-2.701v5.487
				c0,0.563,0.135,0.994,0.4,1.296c0.264,0.301,0.631,0.45,1.096,0.45c0.248,0,0.488-0.021,0.725-0.057
				c0.229-0.035,0.416-0.074,0.553-0.113v1.063c-0.152,0.072-0.377,0.133-0.674,0.183c-0.303,0.047-0.566,0.067-0.809,0.067
				c-1.799,0-2.697-0.944-2.697-2.844v-5.537L647.667,218.688L647.667,218.688z"/>
			<path fill="#5B5B5F" d="M654.343,224.336c0-1.875,1.506-2.854,4.516-2.944l1.582-0.056v-0.584c0-0.735-0.158-1.285-0.471-1.637
				c-0.314-0.354-0.816-0.529-1.506-0.529c-0.773,0-1.648,0.241-2.627,0.726l-0.438-1.082c0.459-0.246,0.961-0.438,1.508-0.576
				c0.545-0.144,1.094-0.209,1.646-0.209c1.104,0,1.93,0.246,2.465,0.738c0.535,0.489,0.803,1.278,0.803,2.366v6.354h-1.045
				l-0.281-1.313h-0.063c-0.465,0.578-0.929,0.972-1.391,1.177c-0.461,0.2-1.031,0.308-1.725,0.308c-0.928,0-1.654-0.235-2.18-0.712
				C654.604,225.885,654.343,225.211,654.343,224.336z M655.837,224.354c0,0.513,0.148,0.898,0.463,1.17
				c0.307,0.267,0.732,0.398,1.291,0.398c0.877,0,1.563-0.24,2.063-0.729c0.5-0.483,0.75-1.159,0.75-2.027v-0.848l-1.406,0.063
				c-1.113,0.041-1.926,0.219-2.42,0.524C656.081,223.219,655.837,223.698,655.837,224.354z"/>
			<path fill="#5B5B5F" d="M664.71,226.897v-13.213h1.406v13.213H664.71z"/>
			<path fill="#5B5B5F" d="M673.108,222.308c0-1.561,0.373-2.763,1.117-3.608c0.744-0.849,1.811-1.274,3.197-1.274
				c0.441,0,0.895,0.049,1.342,0.146c0.445,0.098,0.799,0.209,1.053,0.34l-0.434,1.197c-0.313-0.125-0.65-0.229-1.021-0.313
				c-0.369-0.082-0.689-0.123-0.977-0.123c-1.896,0-2.836,1.205-2.836,3.617c0,1.146,0.229,2.021,0.688,2.633
				c0.461,0.61,1.146,0.916,2.051,0.916c0.775,0,1.57-0.166,2.391-0.5v1.248c-0.623,0.322-1.406,0.481-2.355,0.481
				c-1.348,0-2.387-0.412-3.119-1.241C673.475,224.996,673.108,223.822,673.108,222.308z"/>
			<path fill="#5B5B5F" d="M681.21,224.336c0-1.875,1.506-2.854,4.516-2.944l1.582-0.056v-0.584c0-0.735-0.156-1.285-0.471-1.637
				c-0.314-0.354-0.814-0.529-1.51-0.529c-0.77,0-1.646,0.241-2.627,0.726l-0.438-1.082c0.459-0.246,0.961-0.438,1.508-0.576
				c0.547-0.144,1.094-0.209,1.643-0.209c1.109,0,1.936,0.246,2.471,0.738c0.529,0.489,0.801,1.278,0.801,2.366v6.354h-1.045
				l-0.279-1.313h-0.068c-0.463,0.578-0.926,0.972-1.387,1.177c-0.459,0.2-1.035,0.308-1.725,0.308c-0.928,0-1.654-0.235-2.18-0.712
				C681.473,225.885,681.21,225.211,681.21,224.336z M682.7,224.354c0,0.513,0.154,0.898,0.463,1.17
				c0.313,0.267,0.738,0.398,1.291,0.398c0.879,0,1.564-0.24,2.064-0.729c0.5-0.483,0.75-1.159,0.75-2.027v-0.848l-1.406,0.063
				c-1.119,0.041-1.926,0.219-2.42,0.524C682.948,223.219,682.7,223.698,682.7,224.354z"/>
			<path fill="#5B5B5F" d="M690.985,219.879c0-0.759,0.307-1.354,0.924-1.797c0.617-0.438,1.461-0.66,2.537-0.66
				c0.994,0,1.969,0.205,2.92,0.611l-0.492,1.146c-0.932-0.387-1.771-0.578-2.525-0.578c-0.67,0-1.176,0.104-1.52,0.314
				c-0.342,0.209-0.512,0.498-0.512,0.866c0,0.25,0.064,0.464,0.191,0.64c0.129,0.176,0.334,0.344,0.613,0.502
				c0.283,0.158,0.828,0.389,1.639,0.688c1.104,0.404,1.846,0.813,2.227,1.221c0.379,0.406,0.57,0.922,0.57,1.539
				c0,0.861-0.32,1.525-0.963,1.995c-0.646,0.468-1.543,0.7-2.703,0.7c-1.23,0-2.191-0.189-2.881-0.578v-1.301
				c0.441,0.229,0.924,0.403,1.436,0.535c0.512,0.131,1.006,0.194,1.48,0.194c0.732,0,1.305-0.119,1.697-0.354
				c0.396-0.232,0.6-0.594,0.6-1.076c0-0.361-0.156-0.674-0.477-0.934c-0.313-0.259-0.93-0.563-1.842-0.914
				c-0.869-0.324-1.48-0.604-1.848-0.849c-0.365-0.24-0.635-0.517-0.814-0.819C691.073,220.672,690.985,220.308,690.985,219.879z"/>
			<path fill="#5B5B5F" d="M699.356,222.322c0-1.5,0.369-2.691,1.105-3.574c0.73-0.884,1.725-1.326,2.967-1.326
				c1.162,0,2.082,0.388,2.76,1.151c0.676,0.767,1.016,1.777,1.016,3.033v0.896h-6.4c0.023,1.092,0.305,1.922,0.83,2.487
				c0.521,0.563,1.262,0.849,2.215,0.849c1,0,1.986-0.209,2.963-0.627v1.256c-0.496,0.22-0.967,0.371-1.41,0.466
				c-0.441,0.094-0.977,0.142-1.604,0.142c-1.371,0-2.453-0.419-3.248-1.257C699.755,224.978,699.356,223.813,699.356,222.322z
				 M700.835,221.354h4.869c0-0.892-0.193-1.568-0.594-2.043c-0.396-0.474-0.965-0.709-1.703-0.709
				c-0.748,0-1.344,0.241-1.789,0.729C701.177,219.817,700.909,220.493,700.835,221.354z"/>
			<path fill="#5B5B5F" d="M709.034,219.879c0-0.759,0.313-1.354,0.928-1.797c0.613-0.438,1.463-0.66,2.533-0.66
				c0.994,0,1.973,0.205,2.924,0.611l-0.492,1.146c-0.936-0.387-1.773-0.578-2.529-0.578c-0.67,0-1.176,0.104-1.516,0.314
				c-0.346,0.209-0.516,0.498-0.516,0.866c0,0.25,0.064,0.464,0.191,0.64c0.129,0.176,0.334,0.344,0.617,0.502
				c0.279,0.158,0.828,0.389,1.635,0.688c1.104,0.404,1.846,0.813,2.227,1.221c0.38,0.406,0.57,0.922,0.57,1.539
				c0,0.861-0.32,1.525-0.963,1.995c-0.646,0.468-1.543,0.7-2.703,0.7c-1.229,0-2.19-0.189-2.881-0.578v-1.301
				c0.443,0.229,0.924,0.403,1.436,0.535c0.518,0.131,1.008,0.194,1.48,0.194c0.732,0,1.305-0.119,1.701-0.354
				c0.396-0.233,0.596-0.594,0.596-1.076c0-0.361-0.156-0.674-0.473-0.934c-0.314-0.259-0.934-0.563-1.846-0.914
				c-0.865-0.324-1.48-0.604-1.848-0.849c-0.365-0.24-0.635-0.517-0.813-0.819C709.126,220.672,709.034,220.308,709.034,219.879z"/>
		</g>
		<rect x="563.448" y="211.438" fill="#199598" width="17.803" height="17.802"/>
	</g>
</g>
</svg>
