<?xml version="1.0" encoding="utf-8"?>
<!-- Generator: Adobe Illustrator 16.0.0, SVG Export Plug-In . SVG Version: 6.00 Build 0)  -->
<!DOCTYPE svg PUBLIC "-//W3C//DTD SVG 1.1//EN" "http://www.w3.org/Graphics/SVG/1.1/DTD/svg11.dtd">
<svg version="1.1" id="Capa_1" xmlns="http://www.w3.org/2000/svg" xmlns:xlink="http://www.w3.org/1999/xlink" x="0px" y="0px"
	 width="510.236px" height="382.677px" viewBox="134.645 -31.464 510.236 382.677"
	 enable-background="new 134.645 -31.464 510.236 382.677" xml:space="preserve">
<g id="global-estimates">
	<g>
		<rect x="246.448" y="168.331" fill="#449FA2" width="100.491" height="122.967"/>
		<rect x="246.448" y="43.266" fill="#F2C466" width="100.491" height="125.063"/>
	</g>
	<g>
		<path fill="#9A999E" d="M157.865,48.53v-1.199l3.271-3.299c0.991-1.012,1.648-1.734,1.97-2.166
			c0.313-0.432,0.559-0.853,0.713-1.262c0.159-0.409,0.238-0.85,0.238-1.321c0-0.665-0.201-1.192-0.604-1.582
			s-0.96-0.584-1.677-0.584c-0.516,0-1.004,0.085-1.465,0.256c-0.462,0.17-0.979,0.48-1.542,0.93l-0.743-0.964
			c1.146-0.935,2.393-1.402,3.736-1.402c1.166,0,2.081,0.297,2.738,0.891c0.663,0.594,0.994,1.393,0.994,2.396
			c0,0.79-0.225,1.572-0.663,2.345c-0.438,0.773-1.271,1.751-2.479,2.934l-2.717,2.669v0.068h6.386v1.291h-8.16L157.865,48.53
			L157.865,48.53z"/>
		<path fill="#9A999E" d="M172.437,48.53v-1.199l3.271-3.299c0.996-1.012,1.649-1.734,1.975-2.166
			c0.313-0.432,0.555-0.853,0.713-1.262c0.154-0.409,0.233-0.85,0.233-1.321c0-0.665-0.196-1.192-0.604-1.582
			c-0.398-0.39-0.96-0.584-1.673-0.584c-0.521,0-1.004,0.085-1.465,0.256c-0.467,0.17-0.979,0.48-1.542,0.93l-0.747-0.964
			c1.146-0.935,2.389-1.402,3.731-1.402c1.166,0,2.081,0.297,2.743,0.891c0.663,0.594,0.99,1.393,0.99,2.396
			c0,0.79-0.222,1.572-0.659,2.345c-0.441,0.773-1.271,1.751-2.479,2.934l-2.72,2.669v0.068h6.391v1.291h-8.16L172.437,48.53
			L172.437,48.53z"/>
		<path fill="#9A999E" d="M182.398,42.302c0-2.161,0.338-3.765,1.018-4.813c0.676-1.046,1.707-1.57,3.092-1.57
			c1.351,0,2.368,0.546,3.063,1.638c0.699,1.092,1.052,2.673,1.052,4.744c0,2.146-0.342,3.75-1.018,4.81
			c-0.676,1.06-1.709,1.589-3.104,1.589c-1.34,0-2.355-0.542-3.062-1.627C182.747,45.987,182.398,44.397,182.398,42.302z
			 M183.841,42.302c0,1.802,0.217,3.113,0.641,3.935c0.424,0.822,1.103,1.232,2.021,1.232c0.938,0,1.618-0.417,2.039-1.25
			s0.632-2.139,0.632-3.918c0-1.778-0.21-3.082-0.632-3.909c-0.421-0.827-1.104-1.241-2.039-1.241c-0.927,0-1.604,0.408-2.021,1.224
			C184.054,39.191,183.841,40.5,183.841,42.302z"/>
		<path fill="#9A999E" d="M192.47,43.228c0-2.441,0.474-4.267,1.422-5.476c0.943-1.209,2.354-1.814,4.208-1.814
			c0.646,0,1.146,0.054,1.521,0.161v1.231c-0.438-0.164-0.938-0.247-1.5-0.247c-1.331,0-2.351,0.417-3.052,1.249
			c-0.698,0.833-1.087,2.141-1.151,3.924h0.104c0.623-0.963,1.604-1.445,2.955-1.445c1.121,0,2.003,0.336,2.646,1.008
			c0.646,0.672,0.969,1.584,0.969,2.736c0,1.288-0.354,2.301-1.063,3.039c-0.708,0.738-1.665,1.106-2.866,1.106
			c-1.285,0-2.308-0.482-3.061-1.447C192.847,46.288,192.47,44.946,192.47,43.228z M193.912,44.241c0,0.585,0.109,1.13,0.34,1.636
			c0.229,0.506,0.548,0.906,0.964,1.201s0.891,0.442,1.423,0.442c0.804,0,1.428-0.254,1.873-0.762
			c0.439-0.508,0.667-1.242,0.667-2.202c0-0.823-0.207-1.471-0.62-1.942c-0.413-0.472-1.03-0.707-1.854-0.707
			c-0.509,0-0.979,0.105-1.396,0.315s-0.768,0.5-1.02,0.869C194.038,43.459,193.912,43.844,193.912,44.241z"/>
		<g>
			<path fill="#9A999E" d="M167.532,51.177c0.141-0.542,0.295-1.211,0.465-2.008c0.169-0.797,0.288-1.435,0.354-1.914h1.415
				l0.112,0.18c-0.135,0.521-0.324,1.126-0.583,1.816c-0.254,0.69-0.518,1.332-0.793,1.926H167.532z"/>
		</g>
	</g>
	<g>
		<path fill="#9A999E" d="M192.341,285.067c0-2.161,0.343-3.765,1.019-4.813c0.68-1.047,1.707-1.569,3.096-1.569
			c1.347,0,2.364,0.546,3.063,1.638c0.694,1.094,1.048,2.674,1.048,4.744c0,2.146-0.338,3.75-1.019,4.811
			c-0.676,1.063-1.709,1.594-3.104,1.594c-1.34,0-2.356-0.543-3.058-1.628C192.691,288.753,192.341,287.165,192.341,285.067z
			 M193.785,285.067c0,1.803,0.212,3.113,0.636,3.936c0.429,0.822,1.104,1.231,2.026,1.231c0.938,0,1.614-0.417,2.035-1.25
			c0.425-0.833,0.636-2.139,0.636-3.918c0-1.776-0.21-3.082-0.636-3.907c-0.421-0.828-1.104-1.242-2.035-1.242
			s-1.604,0.408-2.026,1.229C193.997,281.958,193.785,283.267,193.785,285.067z"/>
	</g>
	<g>
		<path fill="#FFFFFF" d="M278.516,229.813h-3.146v-8.621l0.027-1.417l0.055-1.549c-0.521,0.522-0.891,0.866-1.094,1.028
			l-1.712,1.375l-1.521-1.896l4.805-3.818h2.588L278.516,229.813L278.516,229.813z"/>
		<path fill="#FFFFFF" d="M296.378,229.813h-3.146v-8.621l0.031-1.417l0.051-1.549c-0.521,0.522-0.892,0.866-1.09,1.028
			l-1.712,1.375l-1.521-1.896l4.8-3.818h2.588L296.378,229.813L296.378,229.813z"/>
		<path fill="#FFFFFF" d="M310.838,222.364c0,2.604-0.426,4.528-1.274,5.778c-0.854,1.25-2.166,1.875-3.938,1.875
			c-1.723,0-3.019-0.646-3.892-1.937s-1.313-3.195-1.313-5.725c0-2.629,0.43-4.563,1.271-5.813c0.852-1.244,2.156-1.868,3.926-1.868
			c1.719,0,3.021,0.646,3.896,1.956C310.399,217.941,310.838,219.852,310.838,222.364z M303.553,222.364
			c0,1.828,0.153,3.139,0.474,3.93c0.313,0.793,0.851,1.188,1.599,1.188c0.729,0,1.269-0.397,1.589-1.203
			c0.326-0.801,0.489-2.104,0.489-3.913c0-1.824-0.165-3.14-0.494-3.938c-0.33-0.801-0.854-1.197-1.584-1.197
			c-0.736,0-1.271,0.396-1.59,1.197C303.712,219.225,303.553,220.538,303.553,222.364z"/>
		<path fill="#FFFFFF" d="M322.832,229.813h-10.415v-2.189l3.74-3.774c1.104-1.142,1.831-1.926,2.171-2.358
			c0.339-0.438,0.584-0.845,0.729-1.219c0.145-0.374,0.228-0.768,0.228-1.162c0-0.604-0.165-1.042-0.494-1.335
			c-0.33-0.292-0.771-0.438-1.314-0.438c-0.578,0-1.143,0.135-1.687,0.396c-0.543,0.271-1.106,0.646-1.702,1.131l-1.712-2.021
			c0.729-0.625,1.346-1.064,1.824-1.325c0.479-0.259,1.009-0.456,1.58-0.597c0.567-0.145,1.209-0.209,1.916-0.209
			c0.931,0,1.752,0.17,2.466,0.511c0.714,0.342,1.271,0.813,1.661,1.429c0.396,0.609,0.591,1.313,0.591,2.1
			c0,0.688-0.121,1.33-0.356,1.937c-0.242,0.604-0.615,1.22-1.121,1.853c-0.506,0.635-1.396,1.529-2.676,2.699l-1.915,1.809v0.146
			h6.486V229.813L322.832,229.813z"/>
		<g>
			<path fill="#FFFFFF" d="M283.491,232.081c0.141-0.543,0.295-1.211,0.465-2.009c0.169-0.797,0.288-1.436,0.354-1.913h1.415
				l0.117,0.18c-0.14,0.521-0.329,1.133-0.583,1.815c-0.259,0.689-0.521,1.332-0.798,1.927H283.491z"/>
		</g>
	</g>
	<g>
		<path fill="#FFFFFF" d="M278.516,114.047h-3.146v-8.621l0.027-1.417l0.055-1.549c-0.521,0.523-0.891,0.866-1.094,1.029
			l-1.712,1.375l-1.521-1.895l4.805-3.821h2.588L278.516,114.047L278.516,114.047z"/>
		<path fill="#FFFFFF" d="M296.378,114.047h-3.146v-8.621l0.031-1.417l0.051-1.549c-0.521,0.523-0.892,0.866-1.09,1.029
			l-1.712,1.375l-1.521-1.895l4.8-3.821h2.588L296.378,114.047L296.378,114.047z"/>
		<path fill="#FFFFFF" d="M310.838,106.599c0,2.602-0.426,4.528-1.274,5.778c-0.854,1.25-2.166,1.875-3.938,1.875
			c-1.723,0-3.019-0.645-3.892-1.936s-1.313-3.196-1.313-5.717c0-2.629,0.43-4.567,1.271-5.813c0.852-1.246,2.156-1.87,3.926-1.87
			c1.719,0,3.021,0.652,3.896,1.957C310.399,102.177,310.838,104.085,310.838,106.599z M303.553,106.599
			c0,1.828,0.153,3.137,0.474,3.929c0.313,0.792,0.851,1.187,1.599,1.187c0.729,0,1.269-0.401,1.589-1.203
			c0.326-0.801,0.489-2.106,0.489-3.913c0-1.827-0.165-3.14-0.494-3.938c-0.33-0.798-0.854-1.197-1.584-1.197
			c-0.736,0-1.271,0.399-1.59,1.197C303.712,103.458,303.553,104.771,303.553,106.599z"/>
		<path fill="#FFFFFF" d="M323.168,110.96h-1.793v3.087h-3.078v-3.087h-6.354v-2.191l6.532-9.62h2.899v9.365h1.793L323.168,110.96
			L323.168,110.96z M318.297,108.515v-2.527c0-0.421,0.021-1.033,0.056-1.834c0.029-0.802,0.063-1.267,0.082-1.396h-0.082
			c-0.251,0.557-0.559,1.101-0.907,1.631l-2.729,4.127L318.297,108.515L318.297,108.515z"/>
		<g>
			<path fill="#FFFFFF" d="M283.491,116.109c0.141-0.542,0.295-1.211,0.465-2.008c0.169-0.797,0.288-1.435,0.354-1.914h1.415
				l0.117,0.18c-0.14,0.521-0.329,1.126-0.583,1.816c-0.259,0.69-0.521,1.332-0.798,1.926H283.491z"/>
		</g>
	</g>
	<g>
		<path fill="#87868A" d="M184.975,183.971h-14.898v-4.208c0-1.979,0.295-3.407,0.885-4.29c0.596-0.886,1.521-1.325,2.804-1.325
			c0.883,0,1.606,0.246,2.186,0.739c0.573,0.491,0.945,1.211,1.115,2.153h0.104c0.393-2.248,1.578-3.373,3.567-3.373
			c1.332,0,2.371,0.449,3.118,1.35c0.748,0.896,1.121,2.152,1.121,3.77L184.975,183.971L184.975,183.971z M176.445,182.238v-2.853
			c0-1.225-0.188-2.104-0.57-2.641c-0.387-0.537-1.023-0.813-1.938-0.813c-0.834,0-1.438,0.299-1.81,0.896
			c-0.364,0.599-0.555,1.551-0.555,2.854v2.547L176.445,182.238L176.445,182.238z M183.496,182.238v-3.106
			c0-1.194-0.229-2.104-0.698-2.715c-0.465-0.604-1.188-0.912-2.188-0.912c-0.924,0-1.604,0.313-2.034,0.938
			c-0.438,0.621-0.652,1.563-0.652,2.838v2.97L183.496,182.238L183.496,182.238z"/>
		<path fill="#87868A" d="M170.78,170.846c-0.388,0-0.671-0.087-0.852-0.265c-0.185-0.183-0.271-0.396-0.271-0.656
			c0-0.295,0.092-0.547,0.271-0.76c0.188-0.211,0.466-0.316,0.847-0.316c0.384,0,0.664,0.105,0.854,0.316
			c0.188,0.213,0.28,0.465,0.28,0.76c0,0.264-0.098,0.479-0.28,0.656C171.444,170.759,171.159,170.846,170.78,170.846z
			 M184.975,170.704h-11.168v-1.55h11.168V170.704z"/>
		<path fill="#87868A" d="M184.975,165.425h-15.856v-1.691h15.854L184.975,165.425L184.975,165.425z"/>
		<path fill="#87868A" d="M184.975,160.146h-15.856v-1.69h15.854L184.975,160.146L184.975,160.146z"/>
		<path fill="#87868A" d="M170.78,155.011c-0.388,0-0.671-0.09-0.852-0.266c-0.185-0.18-0.271-0.396-0.271-0.656
			c0-0.293,0.092-0.547,0.271-0.758c0.188-0.213,0.466-0.317,0.847-0.317c0.384,0,0.664,0.104,0.854,0.317
			c0.188,0.211,0.28,0.465,0.28,0.758c0,0.264-0.098,0.479-0.28,0.656C171.444,154.92,171.159,155.011,170.78,155.011z
			 M184.975,154.871h-11.168v-1.551h11.168V154.871z"/>
		<path fill="#87868A" d="M179.369,150.209c-1.813,0-3.229-0.455-4.247-1.36c-1.018-0.908-1.521-2.168-1.521-3.78
			c0-1.558,0.521-2.795,1.561-3.713c1.033-0.918,2.438-1.377,4.211-1.377c1.82,0,3.248,0.457,4.271,1.372
			c1.021,0.914,1.536,2.178,1.536,3.789c0,0.996-0.234,1.88-0.704,2.651c-0.475,0.771-1.146,1.367-2.021,1.787
			S180.547,150.209,179.369,150.209z M179.369,148.479c1.43,0,2.521-0.286,3.271-0.856c0.749-0.565,1.124-1.412,1.124-2.521
			s-0.373-1.951-1.119-2.524c-0.745-0.574-1.837-0.86-3.271-0.86c-1.423,0-2.504,0.286-3.243,0.86
			c-0.733,0.573-1.104,1.424-1.104,2.547c0,1.106,0.364,1.943,1.098,2.511C176.84,148.196,177.927,148.479,179.369,148.479z"/>
		<path fill="#87868A" d="M184.975,136.984h-11.168v-1.376l1.509-0.275v-0.081c-0.544-0.347-0.966-0.832-1.27-1.457
			c-0.299-0.625-0.443-1.321-0.443-2.089c0-1.346,0.324-2.357,0.978-3.037c0.646-0.68,1.688-1.02,3.108-1.02h7.286v1.692h-7.239
			c-0.908,0-1.593,0.207-2.042,0.621c-0.445,0.415-0.675,1.063-0.675,1.946c0,1.169,0.313,2.024,0.95,2.568
			c0.633,0.543,1.678,0.815,3.135,0.815h5.871V136.984z"/>
		<path fill="#87868A" d="M179.818,119.929h-1.313V118.4l-0.428,0.021h-0.448l-0.813-0.021v1.528h-1.313v-1.652
			c-1.771-0.265-3.15-0.894-4.146-1.885c-0.992-0.992-1.484-2.292-1.484-3.902c0-1.365,0.334-2.608,1.002-3.729l1.42,0.724
			c-0.582,1.128-0.872,2.13-0.872,3.006c0,2.167,1.357,3.519,4.086,4.055v-5.195h1.308v5.319l0.581,0.021h0.647l0.458-0.021v-4.698
			h1.313v4.554c1.229-0.251,2.185-0.721,2.854-1.41c0.674-0.689,1.014-1.611,1.014-2.767c0-1.06-0.229-2.109-0.681-3.148h1.521
			c0.438,0.992,0.653,2.068,0.653,3.23c0,1.609-0.457,2.905-1.371,3.887c-0.913,0.981-2.243,1.628-3.989,1.94L179.818,119.929
			L179.818,119.929z"/>
	</g>
	
		<line fill="none" stroke="#000000" stroke-width="0.25" stroke-miterlimit="10" x1="346.943" y1="291.296" x2="202.513" y2="291.296"/>
	
		<line fill="none" stroke="#000000" stroke-width="0.25" stroke-miterlimit="10" x1="216.233" y1="43.266" x2="216.233" y2="291.296"/>
	
		<line fill="none" stroke="#000000" stroke-width="0.25" stroke-miterlimit="10" x1="346.943" y1="43.266" x2="202.513" y2="43.266"/>
</g>
<g id="EU28-estimates">
	<g>
		<rect x="508.178" y="172.509" fill="#449FA2" width="100.496" height="118.786"/>
		<rect x="508.178" y="43.315" fill="#F2C466" width="100.496" height="129.194"/>
	</g>
	<g>
		<path fill="#9A999E" d="M430.696,45.685v-1.239l5.896-8.399h1.494v8.347h1.854v1.291h-1.854v2.845h-1.342v-2.845H430.696z
			 M432.118,44.394h4.629v-4.127c0-0.81,0.027-1.724,0.084-2.743h-0.063c-0.271,0.543-0.525,0.994-0.766,1.35L432.118,44.394z"/>
		<path fill="#9A999E" d="M440.641,45.685v-1.239l5.893-8.399h1.494v8.347h1.859v1.291h-1.859v2.845h-1.332v-2.845H440.641z
			 M442.065,44.394h4.629v-4.127c0-0.81,0.027-1.724,0.084-2.743h-0.063c-0.271,0.543-0.525,0.994-0.771,1.35L442.065,44.394z"/>
		<path fill="#9A999E" d="M451.229,43.227c0-2.441,0.475-4.267,1.422-5.476c0.949-1.209,2.355-1.814,4.209-1.814
			c0.646,0,1.146,0.054,1.521,0.161v1.231c-0.439-0.164-0.939-0.247-1.5-0.247c-1.33,0-2.355,0.417-3.059,1.249
			c-0.693,0.833-1.086,2.141-1.145,3.924h0.102c0.623-0.963,1.607-1.445,2.955-1.445c1.119,0,2.004,0.336,2.648,1.008
			c0.645,0.672,0.969,1.584,0.969,2.736c0,1.288-0.355,2.301-1.064,3.039c-0.707,0.738-1.664,1.106-2.865,1.106
			c-1.281,0-2.309-0.482-3.061-1.447C451.606,46.287,451.229,44.946,451.229,43.227z M452.677,44.24c0,0.585,0.105,1.13,0.34,1.636
			c0.227,0.505,0.547,0.906,0.963,1.201c0.418,0.295,0.891,0.443,1.424,0.443c0.803,0,1.428-0.254,1.871-0.762
			c0.445-0.508,0.668-1.242,0.668-2.202c0-0.823-0.207-1.471-0.621-1.942c-0.412-0.472-1.029-0.707-1.85-0.707
			c-0.52,0-0.98,0.105-1.402,0.315c-0.424,0.21-0.764,0.5-1.014,0.869C452.803,43.459,452.677,43.843,452.677,44.24z"/>
	</g>
	<g>
		<path fill="#9A999E" d="M451.102,285.066c0-2.161,0.338-3.765,1.014-4.813c0.676-1.047,1.705-1.569,3.092-1.569
			c1.354,0,2.367,0.546,3.066,1.638c0.699,1.094,1.047,2.674,1.047,4.744c0,2.146-0.338,3.75-1.014,4.811
			c-0.676,1.063-1.709,1.594-3.104,1.594c-1.34,0-2.354-0.543-3.059-1.628C451.448,288.752,451.102,287.164,451.102,285.066z
			 M452.55,285.066c0,1.803,0.211,3.113,0.635,3.936c0.424,0.824,1.1,1.231,2.021,1.231c0.938,0,1.617-0.417,2.039-1.25
			c0.42-0.833,0.641-2.139,0.641-3.918c0-1.776-0.221-3.082-0.641-3.907c-0.422-0.828-1.102-1.242-2.039-1.242
			c-0.928,0-1.604,0.408-2.021,1.229C452.76,281.957,452.55,283.266,452.55,285.066z"/>
	</g>
	<g>
		<path fill="#FFFFFF" d="M550.991,229.813h-10.414v-2.189l3.738-3.774c1.107-1.142,1.832-1.926,2.172-2.358
			c0.34-0.434,0.584-0.845,0.732-1.219c0.146-0.374,0.225-0.768,0.225-1.162c0-0.604-0.164-1.042-0.494-1.335
			c-0.328-0.292-0.77-0.438-1.313-0.438c-0.576,0-1.146,0.135-1.688,0.396c-0.545,0.271-1.104,0.646-1.693,1.131l-1.721-2.021
			c0.732-0.625,1.35-1.064,1.824-1.325c0.482-0.259,1.008-0.456,1.578-0.597c0.57-0.145,1.209-0.209,1.916-0.209
			c0.932,0,1.754,0.17,2.467,0.511c0.713,0.342,1.271,0.813,1.66,1.429c0.396,0.609,0.592,1.313,0.592,2.1
			c0,0.688-0.121,1.33-0.354,1.937c-0.242,0.604-0.615,1.22-1.121,1.853c-0.506,0.635-1.398,1.529-2.676,2.699l-1.916,1.809v0.146
			h6.482v2.62H550.991z"/>
		<path fill="#FFFFFF" d="M560.278,229.813h-3.146v-8.621l0.023-1.417l0.059-1.549c-0.523,0.522-0.895,0.866-1.1,1.028l-1.711,1.375
			l-1.518-1.896l4.799-3.818h2.588L560.278,229.813L560.278,229.813z"/>
		<path fill="#FFFFFF" d="M575.155,226.726h-1.793v3.087h-3.076v-3.087h-6.354v-2.19l6.531-9.619h2.896v9.363h1.793L575.155,226.726
			L575.155,226.726z M570.282,224.279v-2.525c0-0.422,0.021-1.026,0.061-1.834c0.023-0.803,0.061-1.269,0.078-1.396h-0.078
			c-0.258,0.56-0.563,1.104-0.908,1.632l-2.73,4.129L570.282,224.279L570.282,224.279z"/>
	</g>
	<g>
		<path fill="#FFFFFF" d="M550.991,114.047h-10.414v-2.191l3.738-3.781c1.107-1.134,1.832-1.92,2.172-2.359
			c0.34-0.439,0.584-0.844,0.732-1.218c0.146-0.374,0.225-0.761,0.225-1.162c0-0.598-0.164-1.042-0.494-1.335
			c-0.328-0.292-0.77-0.438-1.313-0.438c-0.576,0-1.146,0.132-1.688,0.397c-0.545,0.265-1.104,0.642-1.693,1.131l-1.721-2.028
			c0.732-0.625,1.35-1.066,1.824-1.325c0.482-0.258,1.008-0.457,1.578-0.596s1.209-0.209,1.916-0.209c0.932,0,1.754,0.17,2.467,0.51
			c0.713,0.34,1.271,0.815,1.66,1.427c0.396,0.611,0.592,1.311,0.592,2.099c0,0.686-0.121,1.33-0.354,1.931
			c-0.242,0.601-0.615,1.217-1.121,1.849s-1.398,1.532-2.676,2.701l-1.916,1.804v0.143h6.482v2.65H550.991z"/>
		<path fill="#FFFFFF" d="M562.323,102.481c0,0.931-0.273,1.722-0.846,2.375c-0.563,0.652-1.355,1.101-2.373,1.345v0.062
			c1.201,0.149,2.111,0.515,2.73,1.095c0.609,0.581,0.928,1.364,0.928,2.349c0,1.433-0.521,2.549-1.564,3.347
			c-1.039,0.798-2.52,1.197-4.453,1.197c-1.607,0-3.049-0.268-4.299-0.805v-2.68c0.576,0.292,1.213,0.53,1.904,0.713
			c0.693,0.184,1.379,0.275,2.059,0.275c1.039,0,1.814-0.176,2.313-0.53c0.496-0.353,0.742-0.92,0.742-1.702
			c0-0.7-0.283-1.196-0.854-1.488c-0.572-0.292-1.479-0.438-2.729-0.438h-1.137v-2.416h1.152c1.154,0,1.998-0.151,2.531-0.453
			s0.801-0.82,0.801-1.554c0-1.127-0.707-1.691-2.119-1.691c-0.49,0-0.988,0.082-1.494,0.245s-1.063,0.445-1.686,0.846l-1.457-2.17
			c1.354-0.979,2.979-1.468,4.854-1.468c1.541,0,2.768,0.313,3.652,0.938C561.884,100.498,562.323,101.367,562.323,102.481z"/>
		<path fill="#FFFFFF" d="M574.819,114.047h-10.414v-2.191l3.74-3.781c1.107-1.134,1.83-1.92,2.17-2.359
			c0.34-0.439,0.584-0.844,0.734-1.218c0.145-0.374,0.225-0.761,0.225-1.162c0-0.598-0.166-1.042-0.494-1.335
			c-0.33-0.292-0.77-0.438-1.313-0.438c-0.578,0-1.146,0.132-1.689,0.397s-1.104,0.642-1.701,1.131l-1.713-2.028
			c0.734-0.625,1.344-1.066,1.824-1.325c0.482-0.258,1.01-0.457,1.58-0.596s1.209-0.209,1.916-0.209c0.93,0,1.752,0.17,2.465,0.51
			c0.715,0.34,1.271,0.815,1.662,1.427c0.393,0.611,0.59,1.311,0.59,2.099c0,0.686-0.119,1.33-0.354,1.931
			c-0.24,0.601-0.615,1.217-1.121,1.849c-0.514,0.632-1.396,1.532-2.684,2.701l-1.916,1.804v0.143h6.492V114.047L574.819,114.047z"
			/>
	</g>
	<g>
		<path fill="#87868A" d="M447.137,183.97h-14.9v-4.208c0-1.979,0.297-3.407,0.887-4.29c0.6-0.886,1.523-1.325,2.807-1.325
			c0.883,0,1.604,0.246,2.186,0.739c0.574,0.491,0.945,1.211,1.115,2.153h0.104c0.396-2.248,1.578-3.373,3.57-3.373
			c1.332,0,2.371,0.449,3.119,1.35c0.746,0.9,1.121,2.152,1.121,3.77L447.137,183.97L447.137,183.97z M438.606,182.237v-2.853
			c0-1.225-0.191-2.104-0.574-2.641c-0.383-0.537-1.021-0.813-1.938-0.813c-0.834,0-1.439,0.299-1.814,0.896
			c-0.359,0.601-0.555,1.551-0.555,2.854v2.547L438.606,182.237L438.606,182.237z M445.657,182.237v-3.106
			c0-1.194-0.229-2.104-0.689-2.715c-0.475-0.604-1.193-0.912-2.189-0.912c-0.924,0-1.604,0.313-2.037,0.938
			c-0.436,0.621-0.646,1.563-0.646,2.838v2.97L445.657,182.237L445.657,182.237z"/>
		<path fill="#87868A" d="M432.938,170.845c-0.387,0-0.67-0.087-0.85-0.265c-0.189-0.183-0.271-0.396-0.271-0.656
			c0-0.295,0.09-0.547,0.273-0.76c0.184-0.211,0.467-0.316,0.846-0.316c0.381,0,0.664,0.105,0.852,0.316
			c0.189,0.213,0.281,0.465,0.281,0.76c0,0.264-0.094,0.479-0.281,0.656C433.604,170.758,433.319,170.845,432.938,170.845z
			 M447.137,170.704h-11.17v-1.55h11.17V170.704z"/>
		<path fill="#87868A" d="M447.137,165.424h-15.859v-1.691h15.855L447.137,165.424L447.137,165.424z"/>
		<path fill="#87868A" d="M447.137,160.146h-15.859v-1.69h15.855L447.137,160.146L447.137,160.146z"/>
		<path fill="#87868A" d="M432.938,155.01c-0.387,0-0.67-0.09-0.85-0.266c-0.189-0.18-0.271-0.396-0.271-0.656
			c0-0.293,0.09-0.547,0.273-0.758c0.184-0.213,0.467-0.317,0.846-0.317c0.381,0,0.664,0.104,0.852,0.317
			c0.189,0.211,0.281,0.465,0.281,0.758c0,0.264-0.094,0.479-0.281,0.656C433.604,154.92,433.319,155.01,432.938,155.01z
			 M447.137,154.87h-11.17v-1.551h11.17V154.87z"/>
		<path fill="#87868A" d="M441.53,150.209c-1.813,0-3.229-0.455-4.248-1.36c-1.014-0.908-1.52-2.168-1.52-3.78
			c0-1.558,0.518-2.795,1.557-3.713c1.037-0.918,2.439-1.377,4.211-1.377c1.824,0,3.248,0.457,4.271,1.372
			c1.02,0.914,1.537,2.178,1.537,3.789c0,0.996-0.236,1.88-0.705,2.651c-0.479,0.771-1.146,1.367-2.021,1.787
			S442.702,150.209,441.53,150.209z M441.53,148.478c1.43,0,2.521-0.286,3.271-0.856c0.748-0.565,1.123-1.412,1.123-2.521
			s-0.373-1.951-1.119-2.524c-0.744-0.574-1.836-0.86-3.273-0.86c-1.422,0-2.504,0.286-3.242,0.86
			c-0.73,0.573-1.104,1.424-1.104,2.547c0,1.106,0.363,1.943,1.092,2.511C438.995,148.196,440.091,148.478,441.53,148.478z"/>
		<path fill="#87868A" d="M447.137,136.984h-11.17v-1.376l1.51-0.275v-0.081c-0.543-0.347-0.965-0.832-1.264-1.457
			c-0.309-0.625-0.449-1.321-0.449-2.089c0-1.346,0.324-2.357,0.973-3.037c0.65-0.68,1.689-1.02,3.113-1.02h7.287v1.692h-7.24
			c-0.912,0-1.594,0.207-2.043,0.621c-0.449,0.415-0.674,1.063-0.674,1.946c0,1.169,0.313,2.024,0.951,2.568
			c0.633,0.543,1.678,0.815,3.135,0.815h5.871V136.984z"/>
		<path fill="#87868A" d="M441.979,119.928h-1.314V118.4l-0.428,0.021h-0.449l-0.813-0.021v1.528h-1.314v-1.652
			c-1.77-0.265-3.146-0.894-4.145-1.885c-0.992-0.992-1.488-2.292-1.488-3.902c0-1.365,0.334-2.608,1.002-3.729l1.418,0.724
			c-0.58,1.128-0.871,2.13-0.871,3.006c0,2.167,1.361,3.519,4.086,4.055v-5.195h1.314v5.319l0.582,0.021h0.645l0.461-0.021v-4.698
			h1.313v4.554c1.229-0.251,2.182-0.721,2.854-1.41c0.678-0.689,1.014-1.611,1.014-2.767c0-1.06-0.229-2.109-0.686-3.148h1.521
			c0.436,0.992,0.65,2.068,0.65,3.23c0,1.609-0.453,2.905-1.367,3.887c-0.914,0.981-2.244,1.628-3.99,1.94v1.671H441.979z"/>
	</g>
	
		<line fill="none" stroke="#000000" stroke-width="0.25" stroke-miterlimit="10" x1="477.968" y1="43.265" x2="477.968" y2="291.295"/>
	
		<line fill="none" stroke="#000000" stroke-width="0.25" stroke-miterlimit="10" x1="608.678" y1="291.295" x2="464.241" y2="291.295"/>
	
		<line fill="none" stroke="#000000" stroke-width="0.25" stroke-miterlimit="10" x1="608.678" y1="43.265" x2="464.241" y2="43.265"/>
</g>
<g>
	<path fill="#666666" d="M182.524,4.537c0-1.633,0.328-3.063,0.983-4.292c0.655-1.228,1.599-2.166,2.831-2.814
		c1.231-0.648,2.675-0.972,4.329-0.972c1.676,0,3.237,0.308,4.684,0.924l-0.709,1.611c-1.418-0.602-2.782-0.902-4.093-0.902
		c-1.912,0-3.405,0.569-4.479,1.708s-1.611,2.718-1.611,4.737c0,2.127,0.517,3.74,1.552,4.839c1.035,1.1,2.555,1.649,4.56,1.649
		c1.088,0,2.152-0.125,3.19-0.377V5.793h-3.513V4.161h5.339v7.648c-0.831,0.262-1.676,0.459-2.535,0.594
		c-0.859,0.134-1.855,0.201-2.986,0.201c-2.378,0-4.229-0.707-5.554-2.122C183.186,9.068,182.524,7.086,182.524,4.537z"/>
	<path fill="#666666" d="M199.088,12.389V-4.326h1.783v16.715H199.088z"/>
	<path fill="#666666" d="M203.997,6.481c0-1.916,0.479-3.408,1.435-4.477s2.285-1.603,3.984-1.603c1.642,0,2.947,0.547,3.915,1.641
		s1.451,2.574,1.451,4.439c0,1.923-0.482,3.424-1.446,4.503c-0.964,1.08-2.296,1.62-3.995,1.62c-1.05,0-1.981-0.248-2.795-0.743
		c-0.814-0.495-1.442-1.205-1.885-2.13C204.219,8.805,203.997,7.722,203.997,6.481z M205.823,6.481c0,1.507,0.301,2.656,0.904,3.445
		c0.602,0.79,1.488,1.185,2.657,1.185c1.169,0,2.057-0.393,2.663-1.179c0.606-0.786,0.909-1.937,0.909-3.451
		c0-1.5-0.303-2.64-0.909-3.419c-0.606-0.778-1.501-1.168-2.684-1.168c-1.169,0-2.051,0.384-2.646,1.152
		C206.121,3.814,205.823,4.959,205.823,6.481z"/>
	<path fill="#666666" d="M217.941,12.389V-4.326h1.783v4.061c0,0.91-0.029,1.726-0.086,2.449h0.086
		c0.831-1.174,2.063-1.762,3.695-1.762c1.54,0,2.736,0.528,3.588,1.584c0.852,1.057,1.278,2.551,1.278,4.485
		s-0.43,3.436-1.289,4.506c-0.859,1.071-2.052,1.606-3.578,1.606c-0.767,0-1.466-0.142-2.1-0.424s-1.166-0.718-1.595-1.305h-0.129
		l-0.376,1.515H217.941z M219.724,6.492c0,1.654,0.275,2.838,0.827,3.55c0.551,0.713,1.436,1.069,2.653,1.069
		c1.096,0,1.912-0.399,2.449-1.198c0.537-0.798,0.806-1.946,0.806-3.443c0-1.532-0.269-2.675-0.806-3.427s-1.368-1.128-2.492-1.128
		c-1.218,0-2.095,0.349-2.632,1.047S219.724,4.837,219.724,6.492z"/>
	<path fill="#666666" d="M230.541,9.146c0-2.371,1.904-3.614,5.712-3.729l2.001-0.065V4.613c0-0.935-0.198-1.625-0.595-2.071
		s-1.031-0.669-1.903-0.669c-0.979,0-2.087,0.305-3.324,0.914l-0.554-1.369c0.58-0.311,1.215-0.554,1.907-0.73
		c0.691-0.176,1.384-0.265,2.079-0.265c1.402,0,2.441,0.312,3.117,0.935s1.014,1.622,1.014,2.997v8.035h-1.321l-0.354-1.656h-0.086
		c-0.586,0.73-1.17,1.225-1.753,1.483c-0.583,0.259-1.31,0.388-2.182,0.388c-1.173,0-2.092-0.3-2.758-0.899
		C230.874,11.105,230.541,10.252,230.541,9.146z M232.432,9.167c0,0.648,0.195,1.141,0.584,1.479
		c0.389,0.338,0.935,0.507,1.635,0.507c1.108,0,1.979-0.306,2.611-0.917c0.633-0.612,0.949-1.468,0.949-2.569V6.599l-1.78,0.075
		c-1.416,0.05-2.436,0.272-3.062,0.664S232.432,8.34,232.432,9.167z"/>
	<path fill="#666666" d="M243.657,12.389V-4.326h1.783v16.715H243.657z"/>
	<path fill="#666666" d="M254.281,6.599c0-1.897,0.466-3.405,1.397-4.522s2.183-1.676,3.754-1.676c1.47,0,2.633,0.485,3.49,1.456
		c0.856,0.971,1.285,2.25,1.285,3.84v1.128h-8.1c0.036,1.382,0.386,2.432,1.049,3.147c0.664,0.716,1.598,1.074,2.803,1.074
		c1.264,0,2.513-0.265,3.748-0.795v1.59c-0.628,0.272-1.223,0.467-1.783,0.585c-0.561,0.118-1.237,0.177-2.03,0.177
		c-1.735,0-3.105-0.53-4.108-1.59C254.783,9.955,254.281,8.483,254.281,6.599z M256.151,5.375h6.166
		c0-1.124-0.251-1.985-0.753-2.583c-0.502-0.598-1.219-0.897-2.152-0.897c-0.947,0-1.702,0.308-2.266,0.924
		C256.583,3.434,256.251,4.286,256.151,5.375z"/>
	<path fill="#666666" d="M266.528,3.509c0-0.961,0.39-1.719,1.169-2.275s1.849-0.833,3.208-0.833c1.26,0,2.491,0.258,3.694,0.773
		l-0.622,1.452c-1.178-0.488-2.245-0.732-3.202-0.732c-0.847,0-1.485,0.133-1.916,0.398s-0.646,0.632-0.646,1.098
		c0,0.316,0.081,0.585,0.242,0.808s0.422,0.434,0.78,0.635c0.359,0.201,1.048,0.492,2.067,0.872c1.396,0.51,2.334,1.023,2.816,1.54
		c0.481,0.517,0.722,1.167,0.722,1.949c0,1.09-0.406,1.931-1.218,2.522c-0.812,0.592-1.952,0.887-3.418,0.887
		c-1.559,0-2.774-0.243-3.646-0.73v-1.646c0.564,0.287,1.17,0.513,1.817,0.678s1.271,0.248,1.872,0.248
		c0.933,0,1.65-0.149,2.153-0.447c0.502-0.298,0.753-0.752,0.753-1.362c0-0.459-0.199-0.852-0.598-1.179
		c-0.398-0.327-1.175-0.712-2.331-1.158c-1.098-0.409-1.877-0.766-2.336-1.071c-0.46-0.305-0.802-0.651-1.026-1.039
		S266.528,4.047,266.528,3.509z"/>
	<path fill="#666666" d="M276.217,2.001V1.142l1.687-0.741l0.752-2.514h1.031v2.729h3.416v1.386h-3.416v6.945
		c0,0.711,0.168,1.256,0.505,1.637c0.336,0.381,0.798,0.571,1.386,0.571c0.315,0,0.619-0.023,0.913-0.07
		c0.293-0.047,0.526-0.095,0.698-0.146v1.348c-0.193,0.092-0.478,0.167-0.854,0.228c-0.376,0.06-0.714,0.09-1.015,0.09
		c-2.277,0-3.416-1.199-3.416-3.599V2.001H276.217z"/>
	<path fill="#666666" d="M285.391-2.575c0-0.408,0.092-0.707,0.277-0.897c0.185-0.189,0.416-0.285,0.693-0.285
		c0.309,0,0.575,0.097,0.799,0.29c0.224,0.193,0.336,0.491,0.336,0.892c0,0.401-0.112,0.7-0.336,0.897
		c-0.224,0.197-0.49,0.295-0.799,0.295c-0.277,0-0.508-0.098-0.693-0.295C285.483-1.875,285.391-2.173,285.391-2.575z
		 M285.541,12.389V0.616h1.633v11.773H285.541z"/>
	<path fill="#666666" d="M291.106,12.389V0.616h1.45l0.29,1.59h0.086c0.336-0.566,0.811-1.009,1.423-1.327
		c0.612-0.319,1.298-0.478,2.057-0.478c1.84,0,3.043,0.659,3.609,1.978h0.086c0.351-0.609,0.859-1.091,1.525-1.446
		s1.425-0.532,2.277-0.532c1.332,0,2.329,0.342,2.992,1.026c0.662,0.684,0.994,1.778,0.994,3.282v7.681h-1.783V4.714
		c0-0.94-0.201-1.645-0.602-2.115c-0.401-0.47-1.024-0.705-1.869-0.705c-1.11,0-1.93,0.319-2.46,0.958
		c-0.53,0.639-0.795,1.622-0.795,2.949v6.588h-1.783V4.714c0-0.94-0.201-1.645-0.602-2.115c-0.401-0.47-1.028-0.705-1.88-0.705
		c-1.117,0-1.936,0.335-2.455,1.006c-0.52,0.671-0.779,1.771-0.779,3.299v6.189H291.106z"/>
	<path fill="#666666" d="M310.689,9.146c0-2.371,1.904-3.614,5.712-3.729l2.001-0.065V4.613c0-0.935-0.198-1.625-0.595-2.071
		s-1.031-0.669-1.903-0.669c-0.979,0-2.087,0.305-3.324,0.914l-0.554-1.369c0.58-0.311,1.215-0.554,1.907-0.73
		c0.691-0.176,1.384-0.265,2.079-0.265c1.402,0,2.441,0.312,3.117,0.935s1.014,1.622,1.014,2.997v8.035h-1.321l-0.354-1.656h-0.086
		c-0.586,0.73-1.17,1.225-1.753,1.483c-0.583,0.259-1.31,0.388-2.182,0.388c-1.173,0-2.092-0.3-2.758-0.899
		C311.021,11.105,310.689,10.252,310.689,9.146z M312.579,9.167c0,0.648,0.195,1.141,0.584,1.479
		c0.389,0.338,0.935,0.507,1.635,0.507c1.108,0,1.979-0.306,2.611-0.917c0.633-0.612,0.949-1.468,0.949-2.569V6.599l-1.78,0.075
		c-1.416,0.05-2.436,0.272-3.062,0.664S312.579,8.34,312.579,9.167z"/>
	<path fill="#666666" d="M322.247,2.001V1.142l1.687-0.741l0.752-2.514h1.031v2.729h3.416v1.386h-3.416v6.945
		c0,0.711,0.168,1.256,0.505,1.637c0.336,0.381,0.798,0.571,1.386,0.571c0.315,0,0.619-0.023,0.913-0.07
		c0.293-0.047,0.526-0.095,0.698-0.146v1.348c-0.193,0.092-0.478,0.167-0.854,0.228c-0.376,0.06-0.714,0.09-1.015,0.09
		c-2.277,0-3.416-1.199-3.416-3.599V2.001H322.247z"/>
	<path fill="#666666" d="M330.916,6.599c0-1.897,0.466-3.405,1.397-4.522s2.183-1.676,3.754-1.676c1.47,0,2.633,0.485,3.49,1.456
		c0.856,0.971,1.285,2.25,1.285,3.84v1.128h-8.1c0.036,1.382,0.386,2.432,1.049,3.147c0.664,0.716,1.598,1.074,2.803,1.074
		c1.264,0,2.513-0.265,3.748-0.795v1.59c-0.628,0.272-1.223,0.467-1.783,0.585c-0.561,0.118-1.237,0.177-2.03,0.177
		c-1.735,0-3.105-0.53-4.108-1.59C331.418,9.955,330.916,8.483,330.916,6.599z M332.785,5.375h6.166
		c0-1.124-0.251-1.985-0.753-2.583c-0.502-0.598-1.219-0.897-2.152-0.897c-0.947,0-1.702,0.308-2.266,0.924
		C333.218,3.434,332.886,4.286,332.785,5.375z"/>
	<path fill="#666666" d="M343.162,3.509c0-0.961,0.39-1.719,1.169-2.275s1.849-0.833,3.208-0.833c1.26,0,2.491,0.258,3.694,0.773
		l-0.622,1.452c-1.178-0.488-2.245-0.732-3.202-0.732c-0.847,0-1.485,0.133-1.916,0.398s-0.646,0.632-0.646,1.098
		c0,0.316,0.081,0.585,0.242,0.808s0.422,0.434,0.78,0.635c0.359,0.201,1.048,0.492,2.067,0.872c1.396,0.51,2.334,1.023,2.816,1.54
		c0.481,0.517,0.722,1.167,0.722,1.949c0,1.09-0.406,1.931-1.218,2.522c-0.812,0.592-1.952,0.887-3.418,0.887
		c-1.559,0-2.774-0.243-3.646-0.73v-1.646c0.564,0.287,1.17,0.513,1.817,0.678s1.271,0.248,1.872,0.248
		c0.933,0,1.65-0.149,2.153-0.447c0.502-0.298,0.753-0.752,0.753-1.362c0-0.459-0.199-0.852-0.598-1.179
		c-0.398-0.327-1.175-0.712-2.331-1.158c-1.098-0.409-1.877-0.766-2.336-1.071c-0.46-0.305-0.802-0.651-1.026-1.039
		S343.162,4.047,343.162,3.509z"/>
</g>
<g>
	<path fill="#666666" d="M453.349,12.389V-3.316h8.756v1.633h-6.93v5.027h6.51v1.633h-6.51v5.779h6.93v1.633H453.349z"/>
	<path fill="#666666" d="M465.424,6.803V-3.316h1.826V6.948c0,1.313,0.358,2.32,1.074,3.023c0.717,0.703,1.77,1.054,3.158,1.054
		c1.325,0,2.346-0.353,3.063-1.06c0.715-0.707,1.074-1.72,1.074-3.04V-3.316h1.826V6.846c0,1.791-0.541,3.198-1.623,4.222
		c-1.081,1.024-2.566,1.536-4.457,1.536s-3.354-0.516-4.389-1.547S465.424,8.608,465.424,6.803z"/>
	<path fill="#666666" d="M480.517,12.389v-1.516l4.135-4.174c1.261-1.28,2.092-2.193,2.492-2.74
		c0.401-0.546,0.702-1.079,0.902-1.596c0.201-0.518,0.301-1.075,0.301-1.672c0-0.841-0.254-1.508-0.762-2
		c-0.51-0.493-1.215-0.739-2.117-0.739c-0.651,0-1.27,0.108-1.853,0.324c-0.584,0.216-1.233,0.607-1.95,1.176l-0.945-1.219
		c1.447-1.182,3.022-1.773,4.727-1.773c1.476,0,2.633,0.376,3.471,1.127c0.838,0.752,1.256,1.762,1.256,3.03
		c0,1-0.279,1.988-0.838,2.966c-0.559,0.979-1.604,2.215-3.137,3.711l-3.438,3.376v0.086h8.078v1.633H480.517z"/>
	<path fill="#666666" d="M493.138,8.382c0-1.797,1.103-3.197,3.307-4.2c-0.998-0.559-1.715-1.162-2.15-1.81
		c-0.434-0.648-0.65-1.373-0.65-2.175c0-1.139,0.423-2.046,1.27-2.723c0.846-0.677,1.979-1.015,3.397-1.015
		c1.437,0,2.576,0.333,3.417,0.999s1.262,1.586,1.262,2.761c0,0.773-0.242,1.479-0.725,2.116c-0.482,0.638-1.254,1.218-2.313,1.74
		c1.282,0.609,2.192,1.248,2.732,1.917c0.54,0.67,0.81,1.445,0.81,2.326c0,1.304-0.455,2.344-1.368,3.121
		c-0.913,0.777-2.163,1.166-3.75,1.166c-1.681,0-2.974-0.367-3.88-1.101C493.592,10.769,493.138,9.729,493.138,8.382z
		 M494.922,8.425c0,0.859,0.299,1.529,0.896,2.009c0.597,0.48,1.436,0.72,2.515,0.72c1.065,0,1.895-0.25,2.488-0.752
		c0.593-0.501,0.89-1.188,0.89-2.063c0-0.694-0.278-1.312-0.836-1.853c-0.559-0.541-1.53-1.065-2.918-1.574
		c-1.064,0.458-1.837,0.965-2.316,1.52C495.162,6.988,494.922,7.652,494.922,8.425z M495.427,0.272c0,0.659,0.211,1.225,0.633,1.697
		c0.421,0.473,1.2,0.945,2.337,1.418c1.022-0.43,1.745-0.892,2.171-1.386s0.639-1.07,0.639-1.729c0-0.723-0.26-1.298-0.777-1.724
		c-0.52-0.426-1.232-0.639-2.14-0.639c-0.894,0-1.595,0.215-2.102,0.645C495.68-1.017,495.427-0.444,495.427,0.272z"/>
	<path fill="#666666" d="M511.551,6.599c0-1.897,0.467-3.405,1.398-4.522s2.183-1.676,3.754-1.676c1.47,0,2.633,0.485,3.489,1.456
		c0.856,0.971,1.284,2.25,1.284,3.84v1.128h-8.1c0.037,1.382,0.387,2.432,1.05,3.147c0.663,0.716,1.598,1.074,2.804,1.074
		c1.264,0,2.512-0.265,3.748-0.795v1.59c-0.629,0.272-1.224,0.467-1.783,0.585c-0.561,0.118-1.238,0.177-2.03,0.177
		c-1.735,0-3.104-0.53-4.108-1.59C512.052,9.955,511.551,8.483,511.551,6.599z M513.42,5.375h6.166c0-1.124-0.25-1.985-0.753-2.583
		c-0.502-0.598-1.22-0.897-2.151-0.897c-0.947,0-1.703,0.308-2.266,0.924C513.852,3.434,513.521,4.286,513.42,5.375z"/>
	<path fill="#666666" d="M523.797,3.509c0-0.961,0.391-1.719,1.17-2.275s1.85-0.833,3.209-0.833c1.26,0,2.49,0.258,3.693,0.773
		l-0.621,1.452c-1.178-0.488-2.246-0.732-3.202-0.732c-0.847,0-1.485,0.133-1.916,0.398s-0.646,0.632-0.646,1.098
		c0,0.316,0.08,0.585,0.242,0.808c0.161,0.223,0.422,0.434,0.779,0.635c0.359,0.201,1.049,0.492,2.068,0.872
		c1.396,0.51,2.334,1.023,2.815,1.54c0.481,0.517,0.722,1.167,0.722,1.949c0,1.09-0.406,1.931-1.217,2.522
		c-0.813,0.592-1.952,0.887-3.419,0.887c-1.559,0-2.774-0.243-3.646-0.73v-1.646c0.564,0.287,1.17,0.513,1.816,0.678
		c0.647,0.165,1.271,0.248,1.872,0.248c0.933,0,1.65-0.149,2.153-0.447c0.502-0.298,0.754-0.752,0.754-1.362
		c0-0.459-0.199-0.852-0.598-1.179s-1.176-0.712-2.331-1.158c-1.099-0.409-1.877-0.766-2.337-1.071
		c-0.459-0.305-0.801-0.651-1.025-1.039S523.797,4.047,523.797,3.509z"/>
	<path fill="#666666" d="M533.486,2.001V1.142l1.688-0.741l0.752-2.514h1.031v2.729h3.416v1.386h-3.416v6.945
		c0,0.711,0.168,1.256,0.504,1.637c0.337,0.381,0.799,0.571,1.387,0.571c0.314,0,0.619-0.023,0.912-0.07
		c0.294-0.047,0.527-0.095,0.699-0.146v1.348c-0.193,0.092-0.479,0.167-0.854,0.228c-0.376,0.06-0.714,0.09-1.015,0.09
		c-2.277,0-3.416-1.199-3.416-3.599V2.001H533.486z"/>
	<path fill="#666666" d="M542.66-2.575c0-0.408,0.093-0.707,0.277-0.897c0.186-0.189,0.416-0.285,0.693-0.285
		c0.309,0,0.576,0.097,0.799,0.29c0.225,0.193,0.336,0.491,0.336,0.892c0,0.401-0.111,0.7-0.336,0.897
		c-0.223,0.197-0.49,0.295-0.799,0.295c-0.277,0-0.508-0.098-0.693-0.295C542.753-1.875,542.66-2.173,542.66-2.575z M542.81,12.389
		V0.616h1.633v11.773H542.81z"/>
	<path fill="#666666" d="M548.375,12.389V0.616h1.451l0.289,1.59h0.086c0.337-0.566,0.812-1.009,1.424-1.327
		c0.612-0.319,1.298-0.478,2.057-0.478c1.841,0,3.044,0.659,3.609,1.978h0.086c0.352-0.609,0.859-1.091,1.525-1.446
		s1.426-0.532,2.277-0.532c1.332,0,2.33,0.342,2.992,1.026c0.662,0.684,0.994,1.778,0.994,3.282v7.681h-1.783V4.714
		c0-0.94-0.201-1.645-0.602-2.115c-0.402-0.47-1.025-0.705-1.869-0.705c-1.111,0-1.931,0.319-2.461,0.958
		c-0.529,0.639-0.795,1.622-0.795,2.949v6.588h-1.783V4.714c0-0.94-0.2-1.645-0.602-2.115c-0.4-0.47-1.027-0.705-1.879-0.705
		c-1.117,0-1.936,0.335-2.455,1.006c-0.52,0.671-0.779,1.771-0.779,3.299v6.189H548.375z"/>
	<path fill="#666666" d="M567.959,9.146c0-2.371,1.903-3.614,5.711-3.729l2.002-0.065V4.613c0-0.935-0.199-1.625-0.596-2.071
		s-1.031-0.669-1.903-0.669c-0.979,0-2.087,0.305-3.323,0.914l-0.555-1.369c0.58-0.311,1.215-0.554,1.906-0.73
		s1.385-0.265,2.079-0.265c1.402,0,2.44,0.312,3.117,0.935s1.015,1.622,1.015,2.997v8.035h-1.322l-0.354-1.656h-0.086
		c-0.586,0.73-1.171,1.225-1.754,1.483c-0.582,0.259-1.31,0.388-2.182,0.388c-1.173,0-2.092-0.3-2.758-0.899
		C568.291,11.105,567.959,10.252,567.959,9.146z M569.849,9.167c0,0.648,0.194,1.141,0.584,1.479
		c0.389,0.338,0.935,0.507,1.635,0.507c1.107,0,1.979-0.306,2.611-0.917s0.949-1.468,0.949-2.569V6.599l-1.78,0.075
		c-1.415,0.05-2.437,0.272-3.062,0.664S569.849,8.34,569.849,9.167z"/>
	<path fill="#666666" d="M579.517,2.001V1.142l1.686-0.741l0.752-2.514h1.031v2.729h3.416v1.386h-3.416v6.945
		c0,0.711,0.168,1.256,0.506,1.637c0.336,0.381,0.798,0.571,1.385,0.571c0.315,0,0.619-0.023,0.914-0.07
		c0.293-0.047,0.525-0.095,0.697-0.146v1.348c-0.193,0.092-0.478,0.167-0.854,0.228c-0.376,0.06-0.715,0.09-1.016,0.09
		c-2.277,0-3.416-1.199-3.416-3.599V2.001H579.517z"/>
	<path fill="#666666" d="M588.185,6.599c0-1.897,0.467-3.405,1.398-4.522s2.183-1.676,3.754-1.676c1.47,0,2.633,0.485,3.489,1.456
		c0.856,0.971,1.284,2.25,1.284,3.84v1.128h-8.1c0.037,1.382,0.387,2.432,1.05,3.147c0.663,0.716,1.598,1.074,2.804,1.074
		c1.264,0,2.512-0.265,3.748-0.795v1.59c-0.629,0.272-1.224,0.467-1.783,0.585c-0.561,0.118-1.238,0.177-2.03,0.177
		c-1.735,0-3.104-0.53-4.108-1.59C588.687,9.955,588.185,8.483,588.185,6.599z M590.054,5.375h6.166c0-1.124-0.25-1.985-0.753-2.583
		c-0.502-0.598-1.22-0.897-2.151-0.897c-0.947,0-1.703,0.308-2.266,0.924C590.487,3.434,590.156,4.286,590.054,5.375z"/>
	<path fill="#666666" d="M600.431,3.509c0-0.961,0.391-1.719,1.17-2.275s1.85-0.833,3.209-0.833c1.26,0,2.49,0.258,3.693,0.773
		l-0.621,1.452c-1.178-0.488-2.246-0.732-3.202-0.732c-0.847,0-1.485,0.133-1.916,0.398s-0.646,0.632-0.646,1.098
		c0,0.316,0.08,0.585,0.242,0.808c0.161,0.223,0.422,0.434,0.779,0.635c0.359,0.201,1.049,0.492,2.068,0.872
		c1.396,0.51,2.334,1.023,2.815,1.54c0.481,0.517,0.722,1.167,0.722,1.949c0,1.09-0.406,1.931-1.217,2.522
		c-0.813,0.592-1.952,0.887-3.419,0.887c-1.559,0-2.774-0.243-3.646-0.73v-1.646c0.564,0.287,1.17,0.513,1.816,0.678
		c0.647,0.165,1.271,0.248,1.872,0.248c0.933,0,1.65-0.149,2.153-0.447c0.502-0.298,0.754-0.752,0.754-1.362
		c0-0.459-0.199-0.852-0.598-1.179s-1.176-0.712-2.331-1.158c-1.099-0.409-1.877-0.766-2.337-1.071
		c-0.459-0.305-0.801-0.651-1.025-1.039S600.431,4.047,600.431,3.509z"/>
</g>
<rect x="232.671" y="322.646" fill="#F2C466" width="17.803" height="17.801"/>
<g>
	<path fill="#666666" d="M257.31,332.667c0-1.029,0.191-1.932,0.572-2.705c0.381-0.775,0.934-1.371,1.66-1.791
		c0.727-0.418,1.582-0.628,2.566-0.628c1.049,0,1.965,0.191,2.748,0.574l-0.492,0.997c-0.756-0.354-1.512-0.532-2.27-0.532
		c-1.098,0-1.965,0.366-2.6,1.097c-0.637,0.73-0.955,1.73-0.955,3.002c0,1.307,0.307,2.316,0.92,3.029
		c0.613,0.712,1.486,1.068,2.621,1.068c0.697,0,1.492-0.125,2.387-0.375v1.021c-0.693,0.262-1.547,0.393-2.564,0.393
		c-1.471,0-2.605-0.447-3.4-1.341S257.31,334.313,257.31,332.667z"/>
	<path fill="#666666" d="M266.075,333.921c0-1.219,0.305-2.169,0.913-2.85c0.609-0.68,1.454-1.02,2.535-1.02
		c1.046,0,1.876,0.348,2.491,1.044c0.616,0.696,0.924,1.638,0.924,2.825c0,1.224-0.307,2.179-0.92,2.865
		c-0.613,0.688-1.461,1.031-2.542,1.031c-0.669,0-1.262-0.157-1.779-0.473c-0.518-0.314-0.918-0.767-1.199-1.355
		C266.216,335.399,266.075,334.71,266.075,333.921z M267.237,333.921c0,0.959,0.191,1.69,0.575,2.192
		c0.383,0.503,0.947,0.754,1.691,0.754c0.743,0,1.309-0.25,1.694-0.75c0.385-0.501,0.578-1.232,0.578-2.196
		c0-0.955-0.193-1.68-0.578-2.176c-0.386-0.495-0.955-0.743-1.708-0.743c-0.744,0-1.306,0.244-1.685,0.733
		C267.427,332.224,267.237,332.952,267.237,333.921z"/>
	<path fill="#666666" d="M274.469,332.03c0-0.611,0.248-1.094,0.744-1.448c0.496-0.354,1.177-0.53,2.042-0.53
		c0.802,0,1.585,0.164,2.351,0.492l-0.396,0.924c-0.75-0.311-1.429-0.466-2.037-0.466c-0.539,0-0.945,0.085-1.22,0.253
		c-0.274,0.17-0.411,0.402-0.411,0.699c0,0.201,0.052,0.373,0.154,0.514c0.103,0.143,0.269,0.277,0.496,0.404
		c0.229,0.129,0.667,0.313,1.315,0.556c0.889,0.324,1.486,0.651,1.792,0.979c0.307,0.329,0.46,0.742,0.46,1.24
		c0,0.693-0.259,1.229-0.775,1.605s-1.241,0.564-2.175,0.564c-0.992,0-1.766-0.154-2.32-0.465v-1.047
		c0.359,0.182,0.745,0.326,1.156,0.432c0.412,0.105,0.81,0.157,1.191,0.157c0.594,0,1.05-0.095,1.37-0.284
		c0.319-0.189,0.479-0.479,0.479-0.867c0-0.292-0.127-0.542-0.38-0.75c-0.254-0.208-0.748-0.453-1.483-0.736
		c-0.699-0.261-1.194-0.488-1.487-0.682c-0.292-0.194-0.51-0.415-0.653-0.662C274.54,332.667,274.469,332.372,274.469,332.03z"/>
	<path fill="#666666" d="M280.635,331.07v-0.547l1.073-0.472l0.479-1.6h0.656v1.736h2.174v0.882h-2.174v4.419
		c0,0.453,0.107,0.801,0.321,1.042c0.214,0.242,0.508,0.363,0.882,0.363c0.2,0,0.395-0.015,0.581-0.044
		c0.187-0.03,0.335-0.061,0.444-0.094v0.858c-0.123,0.059-0.305,0.106-0.543,0.146c-0.24,0.037-0.455,0.057-0.646,0.057
		c-1.449,0-2.174-0.764-2.174-2.29v-4.457H280.635z"/>
	<path fill="#666666" d="M290.205,337.681v-7.492h0.923l0.185,1.012h0.055c0.232-0.364,0.559-0.646,0.978-0.848
		s0.887-0.301,1.401-0.301c0.902,0,1.581,0.218,2.037,0.652c0.456,0.436,0.684,1.132,0.684,2.089v4.888h-1.135v-4.856
		c0-0.612-0.139-1.069-0.417-1.37s-0.713-0.452-1.306-0.452c-0.784,0-1.358,0.212-1.723,0.638c-0.364,0.424-0.547,1.125-0.547,2.103
		v3.938H290.205z"/>
	<path fill="#666666" d="M298.382,333.921c0-1.219,0.305-2.169,0.913-2.85c0.609-0.68,1.454-1.02,2.535-1.02
		c1.046,0,1.876,0.348,2.491,1.044c0.616,0.696,0.924,1.638,0.924,2.825c0,1.224-0.307,2.179-0.92,2.865
		c-0.613,0.688-1.461,1.031-2.542,1.031c-0.669,0-1.262-0.157-1.779-0.473c-0.518-0.314-0.918-0.767-1.199-1.355
		C298.522,335.399,298.382,334.71,298.382,333.921z M299.544,333.921c0,0.959,0.191,1.69,0.575,2.192
		c0.383,0.503,0.947,0.754,1.691,0.754c0.743,0,1.309-0.25,1.694-0.75c0.385-0.501,0.578-1.232,0.578-2.196
		c0-0.955-0.193-1.68-0.578-2.176c-0.386-0.495-0.955-0.743-1.708-0.743c-0.744,0-1.306,0.244-1.685,0.733
		C299.733,332.224,299.544,332.952,299.544,333.921z"/>
	<path fill="#666666" d="M307.254,337.681v-7.492h0.923l0.185,1.012h0.055c0.232-0.364,0.559-0.646,0.978-0.848
		s0.887-0.301,1.401-0.301c0.902,0,1.581,0.218,2.037,0.652c0.456,0.436,0.684,1.132,0.684,2.089v4.888h-1.135v-4.856
		c0-0.612-0.139-1.069-0.417-1.37s-0.713-0.452-1.306-0.452c-0.784,0-1.358,0.212-1.723,0.638c-0.364,0.424-0.547,1.125-0.547,2.103
		v3.938H307.254z"/>
	<path fill="#666666" d="M315.219,334.447v-1.039h3.356v1.039H315.219z"/>
	<path fill="#666666" d="M319.346,331.07v-0.513l1.34-0.41v-0.415c0-1.833,0.805-2.75,2.413-2.75c0.396,0,0.861,0.079,1.395,0.235
		l-0.294,0.899c-0.438-0.142-0.812-0.212-1.121-0.212c-0.429,0-0.745,0.143-0.95,0.428c-0.205,0.284-0.308,0.741-0.308,1.37v0.485
		h1.907v0.882h-1.907v6.61h-1.135v-6.61H319.346z"/>
	<path fill="#666666" d="M324.535,335.617c0-1.509,1.212-2.3,3.635-2.373l1.273-0.042v-0.471c0-0.594-0.126-1.033-0.379-1.317
		c-0.252-0.284-0.656-0.426-1.211-0.426c-0.623,0-1.328,0.194-2.115,0.581l-0.353-0.871c0.369-0.197,0.773-0.352,1.213-0.465
		c0.44-0.111,0.881-0.168,1.323-0.168c0.893,0,1.554,0.198,1.983,0.595c0.431,0.396,0.646,1.032,0.646,1.907v5.113h-0.841
		l-0.226-1.055h-0.055c-0.373,0.465-0.745,0.779-1.115,0.944c-0.371,0.165-0.834,0.247-1.389,0.247c-0.747,0-1.332-0.19-1.755-0.572
		C324.747,336.864,324.535,336.321,324.535,335.617z M325.738,335.631c0,0.412,0.124,0.726,0.372,0.94
		c0.248,0.216,0.595,0.323,1.04,0.323c0.705,0,1.259-0.194,1.662-0.584c0.402-0.39,0.604-0.935,0.604-1.635v-0.68l-1.133,0.048
		c-0.9,0.032-1.55,0.173-1.948,0.422C325.937,334.716,325.738,335.104,325.738,335.631z"/>
	<path fill="#666666" d="M331.891,331.07v-0.547l1.073-0.472l0.479-1.6h0.656v1.736h2.174v0.882h-2.174v4.419
		c0,0.453,0.107,0.801,0.321,1.042c0.214,0.242,0.508,0.363,0.882,0.363c0.2,0,0.395-0.015,0.581-0.044
		c0.187-0.03,0.335-0.061,0.444-0.094v0.858c-0.123,0.059-0.305,0.106-0.543,0.146c-0.24,0.037-0.455,0.057-0.646,0.057
		c-1.449,0-2.174-0.764-2.174-2.29v-4.457H331.891z"/>
	<path fill="#666666" d="M337.263,335.617c0-1.509,1.212-2.3,3.635-2.373l1.273-0.042v-0.471c0-0.594-0.126-1.033-0.379-1.317
		c-0.252-0.284-0.656-0.426-1.211-0.426c-0.623,0-1.328,0.194-2.115,0.581l-0.353-0.871c0.369-0.197,0.773-0.352,1.213-0.465
		c0.44-0.111,0.881-0.168,1.323-0.168c0.893,0,1.554,0.198,1.983,0.595c0.431,0.396,0.646,1.032,0.646,1.907v5.113h-0.841
		l-0.226-1.055h-0.055c-0.373,0.465-0.745,0.779-1.115,0.944c-0.371,0.165-0.834,0.247-1.389,0.247c-0.747,0-1.332-0.19-1.755-0.572
		C337.475,336.864,337.263,336.321,337.263,335.617z M338.467,335.631c0,0.412,0.124,0.726,0.372,0.94
		c0.248,0.216,0.595,0.323,1.04,0.323c0.705,0,1.259-0.194,1.662-0.584c0.402-0.39,0.604-0.935,0.604-1.635v-0.68l-1.133,0.048
		c-0.9,0.032-1.55,0.173-1.948,0.422C338.666,334.716,338.467,335.104,338.467,335.631z"/>
	<path fill="#666666" d="M345.611,337.681v-10.637h1.135v10.637H345.611z"/>
	<path fill="#666666" d="M352.372,333.982c0-1.253,0.3-2.222,0.899-2.905c0.599-0.684,1.457-1.025,2.573-1.025
		c0.36,0,0.72,0.039,1.08,0.116s0.643,0.169,0.848,0.273l-0.349,0.964c-0.251-0.1-0.524-0.184-0.82-0.25
		c-0.296-0.065-0.559-0.099-0.786-0.099c-1.522,0-2.283,0.971-2.283,2.912c0,0.921,0.186,1.627,0.558,2.119
		c0.371,0.492,0.921,0.738,1.65,0.738c0.624,0,1.265-0.134,1.921-0.403v1.005c-0.501,0.26-1.133,0.39-1.894,0.39
		c-1.085,0-1.922-0.334-2.512-1.002C352.667,336.148,352.372,335.204,352.372,333.982z"/>
	<path fill="#666666" d="M358.892,335.617c0-1.509,1.212-2.3,3.635-2.373l1.273-0.042v-0.471c0-0.594-0.126-1.033-0.379-1.317
		c-0.252-0.284-0.656-0.426-1.211-0.426c-0.623,0-1.328,0.194-2.115,0.581l-0.353-0.871c0.369-0.197,0.773-0.352,1.213-0.465
		c0.44-0.111,0.881-0.168,1.323-0.168c0.893,0,1.554,0.198,1.983,0.595c0.431,0.396,0.646,1.032,0.646,1.907v5.113h-0.841
		l-0.226-1.055h-0.055c-0.373,0.465-0.745,0.779-1.115,0.944c-0.371,0.165-0.834,0.247-1.389,0.247c-0.747,0-1.332-0.19-1.755-0.572
		C359.104,336.864,358.892,336.321,358.892,335.617z M360.095,335.631c0,0.412,0.124,0.726,0.372,0.94
		c0.248,0.216,0.595,0.323,1.04,0.323c0.705,0,1.259-0.194,1.662-0.584c0.402-0.39,0.604-0.935,0.604-1.635v-0.68l-1.133,0.048
		c-0.9,0.032-1.55,0.173-1.948,0.422C360.295,334.716,360.095,335.104,360.095,335.631z"/>
	<path fill="#666666" d="M366.761,332.03c0-0.611,0.248-1.094,0.744-1.448c0.496-0.354,1.177-0.53,2.042-0.53
		c0.802,0,1.585,0.164,2.351,0.492l-0.396,0.924c-0.75-0.311-1.429-0.466-2.037-0.466c-0.539,0-0.945,0.085-1.22,0.253
		c-0.274,0.17-0.411,0.402-0.411,0.699c0,0.201,0.052,0.373,0.154,0.514c0.103,0.143,0.269,0.277,0.496,0.404
		c0.229,0.129,0.667,0.313,1.315,0.556c0.889,0.324,1.486,0.651,1.792,0.979c0.307,0.329,0.46,0.742,0.46,1.24
		c0,0.693-0.259,1.229-0.775,1.605s-1.241,0.564-2.175,0.564c-0.992,0-1.766-0.154-2.32-0.465v-1.047
		c0.359,0.182,0.745,0.326,1.156,0.432c0.412,0.105,0.81,0.157,1.191,0.157c0.594,0,1.05-0.095,1.37-0.284
		c0.319-0.189,0.479-0.479,0.479-0.867c0-0.292-0.127-0.542-0.38-0.75c-0.254-0.208-0.748-0.453-1.483-0.736
		c-0.699-0.261-1.194-0.488-1.487-0.682c-0.292-0.194-0.51-0.415-0.653-0.662C366.833,332.667,366.761,332.372,366.761,332.03z"/>
	<path fill="#666666" d="M373.501,333.996c0-1.208,0.297-2.167,0.89-2.878s1.389-1.066,2.389-1.066c0.936,0,1.676,0.309,2.221,0.926
		c0.545,0.618,0.817,1.433,0.817,2.444v0.718h-5.154c0.022,0.879,0.245,1.547,0.668,2.003c0.422,0.456,1.017,0.684,1.783,0.684
		c0.805,0,1.6-0.169,2.386-0.506v1.012c-0.4,0.173-0.778,0.298-1.135,0.372c-0.357,0.076-0.787,0.113-1.292,0.113
		c-1.104,0-1.976-0.338-2.614-1.012S373.501,335.194,373.501,333.996z M374.69,333.217h3.924c0-0.716-0.16-1.264-0.479-1.644
		c-0.319-0.381-0.776-0.571-1.369-0.571c-0.603,0-1.083,0.196-1.441,0.588S374.754,332.524,374.69,333.217z"/>
	<path fill="#666666" d="M381.295,332.03c0-0.611,0.248-1.094,0.744-1.448c0.496-0.354,1.177-0.53,2.042-0.53
		c0.802,0,1.585,0.164,2.351,0.492l-0.396,0.924c-0.75-0.311-1.429-0.466-2.037-0.466c-0.539,0-0.945,0.085-1.22,0.253
		c-0.274,0.17-0.411,0.402-0.411,0.699c0,0.201,0.052,0.373,0.154,0.514c0.103,0.143,0.269,0.277,0.496,0.404
		c0.229,0.129,0.667,0.313,1.315,0.556c0.889,0.324,1.486,0.651,1.792,0.979c0.307,0.329,0.46,0.742,0.46,1.24
		c0,0.693-0.259,1.229-0.775,1.605s-1.241,0.564-2.175,0.564c-0.992,0-1.766-0.154-2.32-0.465v-1.047
		c0.359,0.182,0.745,0.326,1.156,0.432c0.412,0.105,0.81,0.157,1.191,0.157c0.594,0,1.05-0.095,1.37-0.284
		c0.319-0.189,0.479-0.479,0.479-0.867c0-0.292-0.127-0.542-0.38-0.75c-0.254-0.208-0.748-0.453-1.483-0.736
		c-0.699-0.261-1.194-0.488-1.487-0.682c-0.292-0.194-0.51-0.415-0.653-0.662C381.366,332.667,381.295,332.372,381.295,332.03z"/>
</g>
<rect x="427.215" y="322.562" fill="#449FA2" width="17.803" height="17.803"/>
<g>
	<path fill="#666666" d="M452.689,332.749c0-1.029,0.191-1.932,0.572-2.705c0.381-0.775,0.934-1.371,1.66-1.791
		c0.727-0.418,1.582-0.628,2.566-0.628c1.049,0,1.965,0.191,2.748,0.574l-0.492,0.997c-0.756-0.354-1.512-0.532-2.27-0.532
		c-1.098,0-1.965,0.366-2.6,1.097c-0.637,0.73-0.955,1.73-0.955,3.002c0,1.307,0.307,2.316,0.92,3.029
		c0.613,0.712,1.486,1.068,2.621,1.068c0.697,0,1.492-0.125,2.387-0.375v1.021c-0.693,0.262-1.547,0.393-2.564,0.393
		c-1.471,0-2.605-0.447-3.4-1.341S452.689,334.396,452.689,332.749z"/>
	<path fill="#666666" d="M461.455,334.003c0-1.219,0.305-2.169,0.912-2.85c0.609-0.68,1.455-1.02,2.535-1.02
		c1.047,0,1.877,0.348,2.492,1.044s0.924,1.638,0.924,2.825c0,1.224-0.307,2.179-0.92,2.865c-0.613,0.688-1.461,1.031-2.543,1.031
		c-0.668,0-1.262-0.157-1.779-0.473c-0.518-0.314-0.918-0.767-1.199-1.355C461.595,335.481,461.455,334.792,461.455,334.003z
		 M462.617,334.003c0,0.959,0.191,1.69,0.574,2.192c0.383,0.503,0.947,0.754,1.691,0.754s1.309-0.25,1.695-0.75
		c0.385-0.501,0.578-1.232,0.578-2.196c0-0.955-0.193-1.68-0.578-2.176c-0.387-0.495-0.955-0.743-1.709-0.743
		c-0.744,0-1.305,0.244-1.684,0.733C462.806,332.306,462.617,333.034,462.617,334.003z"/>
	<path fill="#666666" d="M469.847,332.112c0-0.611,0.248-1.094,0.744-1.448c0.496-0.354,1.178-0.53,2.043-0.53
		c0.801,0,1.584,0.164,2.35,0.492l-0.395,0.924c-0.75-0.311-1.43-0.466-2.037-0.466c-0.539,0-0.945,0.085-1.221,0.253
		c-0.273,0.17-0.41,0.402-0.41,0.699c0,0.201,0.051,0.373,0.154,0.514c0.102,0.143,0.268,0.277,0.496,0.404
		c0.229,0.129,0.666,0.313,1.314,0.556c0.889,0.324,1.486,0.651,1.793,0.979c0.307,0.329,0.459,0.742,0.459,1.24
		c0,0.693-0.258,1.229-0.775,1.605c-0.516,0.377-1.24,0.564-2.174,0.564c-0.992,0-1.766-0.154-2.32-0.465v-1.047
		c0.359,0.182,0.744,0.326,1.156,0.432s0.809,0.157,1.191,0.157c0.594,0,1.049-0.095,1.369-0.284s0.48-0.479,0.48-0.867
		c0-0.292-0.127-0.542-0.381-0.75s-0.748-0.453-1.482-0.736c-0.699-0.261-1.195-0.488-1.488-0.682
		c-0.291-0.194-0.51-0.415-0.652-0.662C469.92,332.749,469.847,332.454,469.847,332.112z"/>
	<path fill="#666666" d="M476.015,331.152v-0.547l1.072-0.472l0.479-1.6h0.656v1.736h2.174v0.882h-2.174v4.419
		c0,0.453,0.107,0.801,0.322,1.042c0.213,0.242,0.508,0.363,0.881,0.363c0.201,0,0.395-0.015,0.582-0.044
		c0.186-0.03,0.334-0.061,0.443-0.094v0.858c-0.123,0.059-0.305,0.106-0.543,0.146c-0.24,0.037-0.455,0.057-0.646,0.057
		c-1.449,0-2.174-0.764-2.174-2.29v-4.457H476.015z"/>
	<path fill="#666666" d="M484.58,331.152v-0.513l1.34-0.41v-0.415c0-1.833,0.805-2.75,2.412-2.75c0.396,0,0.861,0.079,1.395,0.235
		l-0.293,0.899c-0.438-0.142-0.813-0.212-1.121-0.212c-0.43,0-0.746,0.143-0.951,0.428c-0.205,0.284-0.307,0.741-0.307,1.37v0.485
		h1.906v0.882h-1.906v6.61h-1.135v-6.61H484.58z"/>
	<path fill="#666666" d="M489.767,335.699c0-1.509,1.213-2.3,3.635-2.373l1.273-0.042v-0.471c0-0.594-0.125-1.033-0.379-1.317
		c-0.252-0.284-0.656-0.426-1.211-0.426c-0.623,0-1.328,0.194-2.115,0.581l-0.352-0.871c0.369-0.197,0.773-0.352,1.213-0.465
		c0.439-0.111,0.881-0.168,1.322-0.168c0.893,0,1.555,0.198,1.984,0.595s0.645,1.032,0.645,1.907v5.113h-0.84l-0.227-1.055h-0.055
		c-0.373,0.465-0.744,0.779-1.115,0.944s-0.834,0.247-1.389,0.247c-0.746,0-1.332-0.19-1.754-0.572
		C489.98,336.946,489.767,336.403,489.767,335.699z M490.97,335.713c0,0.412,0.125,0.726,0.373,0.94
		c0.248,0.216,0.594,0.323,1.039,0.323c0.705,0,1.26-0.194,1.662-0.584s0.604-0.935,0.604-1.635v-0.68l-1.133,0.048
		c-0.9,0.032-1.549,0.173-1.947,0.422C491.17,334.798,490.97,335.187,490.97,335.713z"/>
	<path fill="#666666" d="M497.125,331.152v-0.547l1.072-0.472l0.479-1.6h0.656v1.736h2.174v0.882h-2.174v4.419
		c0,0.453,0.107,0.801,0.322,1.042c0.213,0.242,0.508,0.363,0.881,0.363c0.201,0,0.395-0.015,0.582-0.044
		c0.186-0.03,0.334-0.061,0.443-0.094v0.858c-0.123,0.059-0.305,0.106-0.543,0.146c-0.24,0.037-0.455,0.057-0.646,0.057
		c-1.449,0-2.174-0.764-2.174-2.29v-4.457H497.125z"/>
	<path fill="#666666" d="M502.496,335.699c0-1.509,1.213-2.3,3.635-2.373l1.273-0.042v-0.471c0-0.594-0.125-1.033-0.379-1.317
		c-0.252-0.284-0.656-0.426-1.211-0.426c-0.623,0-1.328,0.194-2.115,0.581l-0.352-0.871c0.369-0.197,0.773-0.352,1.213-0.465
		c0.439-0.111,0.881-0.168,1.322-0.168c0.893,0,1.555,0.198,1.984,0.595s0.645,1.032,0.645,1.907v5.113h-0.84l-0.227-1.055h-0.055
		c-0.373,0.465-0.744,0.779-1.115,0.944s-0.834,0.247-1.389,0.247c-0.746,0-1.332-0.19-1.754-0.572
		C502.709,336.946,502.496,336.403,502.496,335.699z M503.699,335.713c0,0.412,0.125,0.726,0.373,0.94
		c0.248,0.216,0.594,0.323,1.039,0.323c0.705,0,1.26-0.194,1.662-0.584s0.604-0.935,0.604-1.635v-0.68l-1.133,0.048
		c-0.9,0.032-1.549,0.173-1.947,0.422C503.898,334.798,503.699,335.187,503.699,335.713z"/>
	<path fill="#666666" d="M510.844,337.763v-10.637h1.135v10.637H510.844z"/>
	<path fill="#666666" d="M517.605,334.064c0-1.253,0.299-2.222,0.898-2.905s1.457-1.025,2.574-1.025c0.359,0,0.719,0.039,1.08,0.116
		c0.359,0.077,0.643,0.169,0.848,0.273l-0.35,0.964c-0.25-0.1-0.523-0.184-0.82-0.25c-0.295-0.065-0.559-0.099-0.785-0.099
		c-1.523,0-2.283,0.971-2.283,2.912c0,0.921,0.186,1.627,0.557,2.119s0.922,0.738,1.65,0.738c0.625,0,1.266-0.134,1.922-0.403v1.005
		c-0.502,0.26-1.133,0.39-1.895,0.39c-1.084,0-1.922-0.334-2.512-1.002C517.9,336.23,517.605,335.286,517.605,334.064z"/>
	<path fill="#666666" d="M524.125,335.699c0-1.509,1.213-2.3,3.635-2.373l1.273-0.042v-0.471c0-0.594-0.125-1.033-0.379-1.317
		c-0.252-0.284-0.656-0.426-1.211-0.426c-0.623,0-1.328,0.194-2.115,0.581l-0.352-0.871c0.369-0.197,0.773-0.352,1.213-0.465
		c0.439-0.111,0.881-0.168,1.322-0.168c0.893,0,1.555,0.198,1.984,0.595s0.645,1.032,0.645,1.907v5.113h-0.84l-0.227-1.055h-0.055
		c-0.373,0.465-0.744,0.779-1.115,0.944s-0.834,0.247-1.389,0.247c-0.746,0-1.332-0.19-1.754-0.572
		C524.338,336.946,524.125,336.403,524.125,335.699z M525.328,335.713c0,0.412,0.125,0.726,0.373,0.94
		c0.248,0.216,0.594,0.323,1.039,0.323c0.705,0,1.26-0.194,1.662-0.584s0.604-0.935,0.604-1.635v-0.68l-1.133,0.048
		c-0.9,0.032-1.549,0.173-1.947,0.422C525.527,334.798,525.328,335.187,525.328,335.713z"/>
	<path fill="#666666" d="M531.994,332.112c0-0.611,0.248-1.094,0.744-1.448c0.496-0.354,1.178-0.53,2.043-0.53
		c0.801,0,1.584,0.164,2.35,0.492l-0.395,0.924c-0.75-0.311-1.43-0.466-2.037-0.466c-0.539,0-0.945,0.085-1.221,0.253
		c-0.273,0.17-0.41,0.402-0.41,0.699c0,0.201,0.051,0.373,0.154,0.514c0.102,0.143,0.268,0.277,0.496,0.404
		c0.229,0.129,0.666,0.313,1.314,0.556c0.889,0.324,1.486,0.651,1.793,0.979c0.307,0.329,0.459,0.742,0.459,1.24
		c0,0.693-0.258,1.229-0.775,1.605c-0.516,0.377-1.24,0.564-2.174,0.564c-0.992,0-1.766-0.154-2.32-0.465v-1.047
		c0.359,0.182,0.744,0.326,1.156,0.432s0.809,0.157,1.191,0.157c0.594,0,1.049-0.095,1.369-0.284s0.48-0.479,0.48-0.867
		c0-0.292-0.127-0.542-0.381-0.75s-0.748-0.453-1.482-0.736c-0.699-0.261-1.195-0.488-1.488-0.682
		c-0.291-0.194-0.51-0.415-0.652-0.662C532.066,332.749,531.994,332.454,531.994,332.112z"/>
	<path fill="#666666" d="M538.734,334.078c0-1.208,0.297-2.167,0.889-2.878c0.594-0.711,1.389-1.066,2.389-1.066
		c0.936,0,1.676,0.309,2.221,0.926c0.545,0.618,0.818,1.433,0.818,2.444v0.718h-5.154c0.021,0.879,0.244,1.547,0.668,2.003
		c0.422,0.456,1.016,0.684,1.783,0.684c0.805,0,1.6-0.169,2.385-0.506v1.012c-0.4,0.173-0.777,0.298-1.135,0.372
		c-0.357,0.076-0.787,0.113-1.291,0.113c-1.105,0-1.977-0.338-2.615-1.012S538.734,335.276,538.734,334.078z M539.924,333.299h3.924
		c0-0.716-0.16-1.264-0.48-1.644c-0.318-0.381-0.775-0.571-1.369-0.571c-0.602,0-1.082,0.196-1.441,0.588
		C540.199,332.063,539.986,332.606,539.924,333.299z"/>
	<path fill="#666666" d="M546.527,332.112c0-0.611,0.248-1.094,0.744-1.448c0.496-0.354,1.178-0.53,2.043-0.53
		c0.801,0,1.584,0.164,2.35,0.492l-0.395,0.924c-0.75-0.311-1.43-0.466-2.037-0.466c-0.539,0-0.945,0.085-1.221,0.253
		c-0.273,0.17-0.41,0.402-0.41,0.699c0,0.201,0.051,0.373,0.154,0.514c0.102,0.143,0.268,0.277,0.496,0.404
		c0.229,0.129,0.666,0.313,1.314,0.556c0.889,0.324,1.486,0.651,1.793,0.979c0.307,0.329,0.459,0.742,0.459,1.24
		c0,0.693-0.258,1.229-0.775,1.605c-0.516,0.377-1.24,0.564-2.174,0.564c-0.992,0-1.766-0.154-2.32-0.465v-1.047
		c0.359,0.182,0.744,0.326,1.156,0.432s0.809,0.157,1.191,0.157c0.594,0,1.049-0.095,1.369-0.284s0.48-0.479,0.48-0.867
		c0-0.292-0.127-0.542-0.381-0.75s-0.748-0.453-1.482-0.736c-0.699-0.261-1.195-0.488-1.488-0.682
		c-0.291-0.194-0.51-0.415-0.652-0.662C546.599,332.749,546.527,332.454,546.527,332.112z"/>
</g>
</svg>
