<?xml version="1.0" encoding="utf-8"?>
<!-- Generator: Adobe Illustrator 16.0.0, SVG Export Plug-In . SVG Version: 6.00 Build 0)  -->
<!DOCTYPE svg PUBLIC "-//W3C//DTD SVG 1.1//EN" "http://www.w3.org/Graphics/SVG/1.1/DTD/svg11.dtd">
<svg version="1.1" id="Capa_1" xmlns="http://www.w3.org/2000/svg" xmlns:xlink="http://www.w3.org/1999/xlink" x="0px" y="0px"
	 width="779.527px" height="357.166px" viewBox="0 0 779.527 357.166" enable-background="new 0 0 779.527 357.166"
	 xml:space="preserve">
<g id="global-estimates">
	<g>
		<rect x="122.532" y="190.812" fill="#199598" width="100.49" height="122.967"/>
		<rect x="122.532" y="65.746" fill="#DD9B2B" width="100.49" height="125.063"/>
	</g>
	<g>
		<path fill="#666565" d="M62.333,19.421c0-1.549,0.313-2.906,0.936-4.071s1.521-2.055,2.688-2.67
			c1.168-0.615,2.533-0.922,4.104-0.922c1.59,0,3.066,0.292,4.439,0.876l-0.672,1.529c-1.35-0.571-2.645-0.856-3.888-0.856
			c-1.813,0-3.229,0.54-4.249,1.62c-1.021,1.08-1.524,2.578-1.524,4.494c0,2.018,0.491,3.548,1.477,4.591
			c0.979,1.043,2.423,1.564,4.322,1.564c1.033,0,2.042-0.12,3.026-0.358v-4.604H69.66v-1.549h5.063v7.255
			c-0.788,0.248-1.594,0.436-2.405,0.563c-0.813,0.127-1.76,0.191-2.833,0.191c-2.255,0-4.012-0.67-5.271-2.012
			C62.961,23.72,62.333,21.84,62.333,19.421z"/>
		<path fill="#666565" d="M78.047,26.87V11.014h1.688V26.87H78.047z"/>
		<path fill="#666565" d="M82.704,21.266c0-1.817,0.454-3.233,1.356-4.247c0.904-1.014,2.167-1.521,3.776-1.521
			c1.562,0,2.795,0.519,3.717,1.556c0.917,1.038,1.376,2.441,1.376,4.211c0,1.824-0.457,3.248-1.372,4.272s-2.182,1.536-3.79,1.536
			c-0.996,0-1.88-0.234-2.647-0.704c-0.771-0.47-1.368-1.144-1.788-2.021S82.704,22.443,82.704,21.266z M84.436,21.266
			c0,1.43,0.286,2.52,0.854,3.269c0.572,0.749,1.412,1.124,2.521,1.124c1.105,0,1.951-0.373,2.522-1.119
			c0.575-0.746,0.862-1.837,0.862-3.273c0-1.423-0.288-2.504-0.862-3.243c-0.57-0.739-1.424-1.108-2.546-1.108
			c-1.105,0-1.942,0.364-2.51,1.093C84.718,18.736,84.436,19.822,84.436,21.266z"/>
		<path fill="#666565" d="M95.931,26.87V11.014h1.688v3.852c0,0.863-0.023,1.637-0.082,2.323h0.082
			c0.788-1.114,1.957-1.671,3.506-1.671c1.46,0,2.599,0.501,3.398,1.503c0.813,1.002,1.217,2.42,1.217,4.254
			s-0.407,3.259-1.227,4.274c-0.813,1.016-1.941,1.523-3.396,1.523c-0.729,0-1.396-0.134-1.992-0.402
			c-0.604-0.268-1.104-0.681-1.514-1.238H97.5l-0.354,1.437L95.931,26.87L95.931,26.87z M97.622,21.276
			c0,1.569,0.262,2.692,0.785,3.368c0.521,0.676,1.357,1.014,2.517,1.014c1.04,0,1.813-0.379,2.323-1.136
			c0.51-0.758,0.769-1.846,0.769-3.266c0-1.454-0.259-2.538-0.769-3.251c-0.514-0.713-1.297-1.07-2.364-1.07
			c-1.151,0-1.983,0.331-2.493,0.994C97.877,18.59,97.622,19.707,97.622,21.276z"/>
		<path fill="#666565" d="M107.884,23.794c0-2.25,1.81-3.429,5.422-3.537l1.896-0.062v-0.702c0-0.887-0.188-1.542-0.563-1.965
			c-0.38-0.423-0.979-0.634-1.81-0.634c-0.934,0-1.979,0.289-3.149,0.866l-0.526-1.298c0.555-0.294,1.153-0.525,1.813-0.692
			c0.66-0.167,1.313-0.251,1.976-0.251c1.33,0,2.313,0.295,2.957,0.887c0.644,0.591,0.962,1.539,0.962,2.843v7.622h-1.26
			l-0.336-1.571h-0.082c-0.56,0.693-1.11,1.162-1.663,1.407c-0.556,0.246-1.242,0.368-2.067,0.368c-1.11,0-1.979-0.284-2.614-0.853
			C108.199,25.652,107.884,24.843,107.884,23.794z M109.677,23.814c0,0.615,0.185,1.082,0.554,1.403
			c0.37,0.321,0.892,0.481,1.556,0.481c1.051,0,1.876-0.29,2.479-0.87c0.6-0.581,0.896-1.393,0.896-2.437v-1.014l-1.688,0.071
			c-1.347,0.048-2.313,0.258-2.904,0.63C109.978,22.45,109.677,23.029,109.677,23.814z"/>
		<path fill="#666565" d="M120.326,26.87V11.014h1.688V26.87H120.326z"/>
		<path fill="#666565" d="M130.404,21.377c0-1.8,0.442-3.23,1.326-4.29s2.067-1.589,3.563-1.589c1.396,0,2.498,0.46,3.313,1.38
			c0.813,0.921,1.222,2.135,1.222,3.643v1.07h-7.687c0.03,1.311,0.362,2.306,0.991,2.985c0.633,0.68,1.52,1.019,2.659,1.019
			c1.199,0,2.388-0.251,3.56-0.754v1.508c-0.6,0.258-1.16,0.443-1.689,0.555c-0.53,0.112-1.176,0.168-1.928,0.168
			c-1.646,0-2.941-0.502-3.896-1.508C130.88,24.561,130.404,23.165,130.404,21.377z M132.177,20.216h5.849
			c0-1.066-0.233-1.883-0.714-2.451c-0.479-0.567-1.157-0.851-2.042-0.851c-0.896,0-1.615,0.292-2.146,0.876
			C132.587,18.375,132.272,19.183,132.177,20.216z"/>
		<path fill="#666565" d="M142.021,18.446c0-0.911,0.37-1.63,1.105-2.158c0.74-0.527,1.754-0.791,3.044-0.791
			c1.195,0,2.363,0.244,3.508,0.733l-0.594,1.377c-1.113-0.463-2.13-0.695-3.037-0.695c-0.803,0-1.405,0.126-1.814,0.378
			c-0.403,0.251-0.607,0.599-0.607,1.042c0,0.3,0.076,0.555,0.229,0.766c0.149,0.211,0.396,0.412,0.741,0.603
			c0.34,0.191,0.99,0.467,1.96,0.828c1.32,0.483,2.215,0.97,2.671,1.46c0.457,0.49,0.688,1.104,0.688,1.849
			c0,1.034-0.39,1.832-1.151,2.393c-0.771,0.561-1.854,0.841-3.243,0.841c-1.479,0-2.631-0.23-3.458-0.693V24.82
			c0.536,0.272,1.106,0.487,1.726,0.644c0.612,0.157,1.204,0.235,1.773,0.235c0.885,0,1.563-0.141,2.042-0.424
			c0.479-0.283,0.715-0.713,0.715-1.292c0-0.436-0.188-0.809-0.563-1.119c-0.379-0.31-1.111-0.676-2.212-1.098
			c-1.042-0.388-1.776-0.727-2.221-1.017c-0.438-0.29-0.76-0.618-0.974-0.986C142.127,19.396,142.021,18.957,142.021,18.446z"/>
		<path fill="#666565" d="M151.212,17.016v-0.815l1.604-0.703l0.713-2.385h0.979v2.588h3.24v1.314h-3.24v6.588
			c0,0.674,0.16,1.191,0.479,1.552c0.319,0.361,0.762,0.542,1.313,0.542c0.303,0,0.589-0.022,0.866-0.066
			c0.273-0.044,0.499-0.09,0.662-0.138v1.278c-0.188,0.087-0.453,0.159-0.813,0.216c-0.354,0.057-0.682,0.085-0.967,0.085
			c-2.156,0-3.237-1.138-3.237-3.414v-6.644h-1.603L151.212,17.016L151.212,17.016z"/>
		<path fill="#666565" d="M159.915,12.675c0-0.387,0.087-0.671,0.267-0.851c0.175-0.18,0.395-0.27,0.654-0.27
			c0.293,0,0.545,0.092,0.762,0.275c0.212,0.184,0.314,0.466,0.314,0.846c0,0.38-0.104,0.664-0.314,0.851
			c-0.216,0.187-0.469,0.28-0.762,0.28c-0.268,0-0.479-0.093-0.654-0.28C160.002,13.339,159.915,13.056,159.915,12.675z
			 M160.058,26.87V15.702h1.549V26.87H160.058z"/>
		<path fill="#666565" d="M165.336,26.87V15.702h1.375l0.271,1.509h0.082c0.315-0.537,0.771-0.957,1.354-1.259
			c0.581-0.302,1.229-0.453,1.952-0.453c1.746,0,2.887,0.625,3.424,1.876h0.082c0.333-0.579,0.813-1.036,1.442-1.372
			c0.637-0.336,1.354-0.504,2.161-0.504c1.268,0,2.209,0.324,2.838,0.973c0.633,0.648,0.938,1.687,0.938,3.113v7.286h-1.688V19.59
			c0-0.892-0.188-1.561-0.566-2.006s-0.977-0.669-1.771-0.669c-1.057,0-1.831,0.303-2.333,0.909
			c-0.503,0.605-0.754,1.538-0.754,2.798v6.249h-1.688V19.59c0-0.892-0.188-1.561-0.569-2.006c-0.383-0.445-0.979-0.669-1.781-0.669
			c-1.063,0-1.836,0.318-2.329,0.955c-0.492,0.637-0.736,1.68-0.736,3.13v5.871L165.336,26.87L165.336,26.87z"/>
		<path fill="#666565" d="M183.913,23.794c0-2.25,1.81-3.429,5.418-3.537l1.896-0.062v-0.702c0-0.887-0.188-1.542-0.563-1.965
			c-0.376-0.423-0.979-0.634-1.811-0.634c-0.933,0-1.979,0.289-3.148,0.866l-0.522-1.298c0.55-0.294,1.149-0.525,1.809-0.692
			s1.313-0.251,1.977-0.251c1.33,0,2.313,0.295,2.957,0.887c0.645,0.591,0.965,1.539,0.965,2.843v7.622h-1.256l-0.336-1.571h-0.082
			c-0.561,0.693-1.106,1.162-1.661,1.407c-0.554,0.246-1.24,0.368-2.068,0.368c-1.108,0-1.979-0.284-2.616-0.853
			C184.229,25.652,183.913,24.843,183.913,23.794z M185.707,23.814c0,0.615,0.188,1.082,0.558,1.403
			c0.366,0.321,0.887,0.481,1.551,0.481c1.051,0,1.876-0.29,2.479-0.87c0.604-0.581,0.896-1.393,0.896-2.437v-1.014l-1.688,0.071
			c-1.344,0.048-2.313,0.258-2.9,0.63C186.004,22.45,185.707,23.029,185.707,23.814z"/>
		<path fill="#666565" d="M194.877,17.016v-0.815l1.604-0.703l0.713-2.385h0.979v2.588h3.24v1.314h-3.24v6.588
			c0,0.674,0.16,1.191,0.479,1.552c0.315,0.361,0.757,0.542,1.313,0.542c0.303,0,0.587-0.022,0.866-0.066
			c0.273-0.044,0.499-0.09,0.662-0.138v1.278c-0.188,0.087-0.453,0.159-0.813,0.216c-0.354,0.057-0.682,0.085-0.967,0.085
			c-2.156,0-3.237-1.138-3.237-3.414v-6.644h-1.603L194.877,17.016L194.877,17.016z"/>
		<path fill="#666565" d="M203.101,21.377c0-1.8,0.438-3.23,1.326-4.29c0.884-1.06,2.067-1.589,3.561-1.589
			c1.396,0,2.498,0.46,3.313,1.38c0.813,0.921,1.223,2.135,1.223,3.643v1.07h-7.688c0.034,1.311,0.366,2.306,0.995,2.985
			c0.629,0.68,1.52,1.019,2.654,1.019c1.199,0,2.389-0.251,3.561-0.754v1.508c-0.601,0.258-1.156,0.443-1.688,0.555
			c-0.532,0.112-1.173,0.168-1.925,0.168c-1.646,0-2.946-0.502-3.898-1.508C203.577,24.561,203.101,23.165,203.101,21.377z
			 M204.874,20.216h5.853c0-1.066-0.238-1.883-0.718-2.451c-0.479-0.567-1.153-0.851-2.042-0.851c-0.896,0-1.611,0.292-2.146,0.876
			C205.284,18.375,204.969,19.183,204.874,20.216z"/>
		<path fill="#666565" d="M214.718,18.446c0-0.911,0.37-1.63,1.109-2.158c0.735-0.527,1.754-0.791,3.044-0.791
			c1.19,0,2.358,0.244,3.504,0.733l-0.59,1.377c-1.117-0.463-2.135-0.695-3.037-0.695c-0.808,0-1.409,0.126-1.814,0.378
			c-0.408,0.251-0.612,0.599-0.612,1.042c0,0.3,0.077,0.555,0.229,0.766c0.153,0.211,0.396,0.412,0.741,0.603
			c0.34,0.191,0.994,0.467,1.96,0.828c1.319,0.483,2.215,0.97,2.671,1.46c0.457,0.49,0.688,1.104,0.688,1.849
			c0,1.034-0.385,1.832-1.15,2.393c-0.771,0.561-1.854,0.841-3.243,0.841c-1.479,0-2.631-0.23-3.457-0.693V24.82
			c0.535,0.272,1.104,0.487,1.727,0.644c0.613,0.157,1.206,0.235,1.771,0.235c0.889,0,1.563-0.141,2.043-0.424
			c0.479-0.283,0.718-0.713,0.718-1.292c0-0.436-0.189-0.809-0.567-1.119c-0.378-0.31-1.111-0.676-2.211-1.098
			c-1.042-0.388-1.779-0.727-2.217-1.017c-0.438-0.29-0.763-0.618-0.978-0.986C214.824,19.396,214.718,18.957,214.718,18.446z"/>
	</g>
	<g>
		<path fill="#9A999E" d="M33.949,71.011v-1.199l3.271-3.299c0.992-1.012,1.649-1.734,1.97-2.166
			c0.313-0.432,0.56-0.853,0.713-1.262c0.159-0.409,0.238-0.85,0.238-1.321c0-0.665-0.201-1.192-0.604-1.582
			s-0.96-0.584-1.678-0.584c-0.52,0-1.004,0.085-1.465,0.256c-0.462,0.17-0.979,0.48-1.542,0.93L34.11,59.82
			c1.146-0.935,2.394-1.402,3.736-1.402c1.166,0,2.081,0.297,2.739,0.891c0.663,0.594,0.994,1.393,0.994,2.396
			c0,0.79-0.226,1.572-0.663,2.345c-0.438,0.773-1.271,1.751-2.479,2.934l-2.717,2.669v0.068h6.386v1.291h-8.16L33.949,71.011
			L33.949,71.011z"/>
		<path fill="#9A999E" d="M48.02,68.166v-1.239l5.896-8.399h1.494v8.347h1.855v1.291H55.41v2.845h-1.333v-2.845H48.02z
			 M49.447,66.875h4.633v-4.127c0-0.81,0.023-1.724,0.084-2.743h-0.064c-0.271,0.543-0.526,0.994-0.768,1.35L49.447,66.875z"/>
		<path fill="#9A999E" d="M57.964,68.166v-1.239l5.896-8.399h1.494v8.347h1.856v1.291h-1.856v2.845H64.02v-2.845H57.964z
			 M59.391,66.875h4.628v-4.127c0-0.81,0.024-1.724,0.084-2.743H64.04c-0.271,0.543-0.522,0.994-0.769,1.35L59.391,66.875z"/>
		<path fill="#9A999E" d="M68.443,67.843c0-1.421,0.871-2.528,2.614-3.32c-0.79-0.441-1.354-0.918-1.7-1.431
			c-0.343-0.513-0.519-1.086-0.519-1.72c0-0.9,0.334-1.618,1.007-2.153c0.669-0.535,1.563-0.802,2.688-0.802
			c1.136,0,2.031,0.263,2.696,0.79c0.665,0.526,0.997,1.254,0.997,2.183c0,0.611-0.188,1.169-0.568,1.673
			c-0.387,0.504-0.991,0.962-1.829,1.375c1.013,0.481,1.729,0.986,2.155,1.516c0.432,0.53,0.645,1.143,0.645,1.839
			c0,1.03-0.357,1.853-1.082,2.467c-0.721,0.614-1.709,0.921-2.964,0.921c-1.329,0-2.354-0.29-3.063-0.871
			C68.801,69.73,68.443,68.908,68.443,67.843z M69.853,67.877c0,0.679,0.232,1.208,0.708,1.588c0.477,0.379,1.135,0.569,1.984,0.569
			c0.846,0,1.498-0.198,1.971-0.594c0.469-0.396,0.704-0.94,0.704-1.631c0-0.549-0.225-1.037-0.661-1.465
			c-0.438-0.427-1.21-0.842-2.31-1.244c-0.842,0.362-1.453,0.763-1.832,1.202C70.042,66.741,69.853,67.266,69.853,67.877z
			 M70.252,61.432c0,0.521,0.167,0.968,0.5,1.341c0.333,0.374,0.949,0.748,1.852,1.121c0.813-0.34,1.38-0.705,1.717-1.095
			c0.336-0.391,0.504-0.847,0.504-1.367c0-0.572-0.2-1.026-0.61-1.363c-0.408-0.336-0.979-0.505-1.688-0.505
			c-0.707,0-1.261,0.17-1.662,0.51C70.453,60.413,70.252,60.866,70.252,61.432z"/>
		<g>
			<path fill="#9A999E" d="M43.734,73.319c0.144-0.542,0.295-1.211,0.468-2.008c0.169-0.797,0.285-1.435,0.354-1.914h1.415
				l0.113,0.18c-0.135,0.521-0.329,1.126-0.583,1.816s-0.521,1.332-0.793,1.926H43.734z"/>
		</g>
	</g>
	<g>
		<path fill="#9A999E" d="M68.426,307.548c0-2.161,0.342-3.765,1.018-4.813c0.681-1.047,1.707-1.569,3.097-1.569
			c1.347,0,2.363,0.546,3.063,1.638c0.695,1.094,1.048,2.674,1.048,4.744c0,2.146-0.338,3.75-1.018,4.811
			c-0.676,1.063-1.709,1.593-3.104,1.593c-1.34,0-2.355-0.543-3.058-1.628C68.775,311.233,68.426,309.646,68.426,307.548z
			 M69.87,307.548c0,1.803,0.212,3.113,0.636,3.936c0.428,0.822,1.103,1.231,2.026,1.231c0.938,0,1.613-0.417,2.034-1.25
			c0.426-0.833,0.637-2.139,0.637-3.918c0-1.776-0.21-3.082-0.637-3.907c-0.421-0.828-1.104-1.242-2.034-1.242
			s-1.604,0.408-2.026,1.229C70.082,304.438,69.87,305.747,69.87,307.548z"/>
	</g>
	<g>
		<path fill="#FFFFFF" d="M154.6,252.294h-3.146v-8.621l0.026-1.417l0.056-1.549c-0.521,0.522-0.892,0.866-1.095,1.028l-1.712,1.375
			l-1.521-1.896l4.801-3.818h2.591L154.6,252.294L154.6,252.294z"/>
		<path fill="#FFFFFF" d="M175.092,252.294H164.68v-2.189l3.736-3.774c1.104-1.142,1.831-1.925,2.171-2.358
			c0.343-0.438,0.584-0.845,0.729-1.219s0.229-0.768,0.229-1.162c0-0.604-0.165-1.042-0.49-1.335
			c-0.33-0.292-0.771-0.438-1.319-0.438c-0.578,0-1.138,0.134-1.686,0.396c-0.543,0.271-1.107,0.646-1.698,1.133l-1.712-2.023
			c0.729-0.625,1.341-1.064,1.82-1.325c0.479-0.259,1.013-0.456,1.58-0.597c0.566-0.145,1.209-0.209,1.916-0.209
			c0.935,0,1.752,0.17,2.466,0.511c0.718,0.342,1.271,0.813,1.661,1.429c0.396,0.609,0.591,1.313,0.591,2.1
			c0,0.688-0.117,1.33-0.357,1.937c-0.242,0.604-0.61,1.219-1.121,1.853c-0.506,0.635-1.396,1.529-2.675,2.699l-1.916,1.807v0.146
			h6.491v2.634h-0.005V252.294L175.092,252.294z"/>
		<path fill="#FFFFFF" d="M187.005,252.294H176.59v-2.189l3.74-3.774c1.104-1.142,1.831-1.925,2.171-2.358
			c0.339-0.438,0.584-0.845,0.729-1.219s0.229-0.768,0.229-1.162c0-0.604-0.165-1.042-0.494-1.335
			c-0.326-0.292-0.771-0.438-1.315-0.438c-0.578,0-1.142,0.134-1.686,0.396c-0.543,0.271-1.107,0.646-1.698,1.133l-1.716-2.023
			c0.733-0.625,1.345-1.064,1.824-1.325c0.479-0.259,1.009-0.456,1.58-0.597c0.566-0.145,1.209-0.209,1.916-0.209
			c0.934,0,1.752,0.17,2.466,0.511c0.714,0.342,1.271,0.813,1.661,1.429c0.396,0.609,0.591,1.313,0.591,2.1
			c0,0.688-0.121,1.33-0.357,1.937c-0.242,0.604-0.615,1.219-1.121,1.853c-0.506,0.635-1.396,1.529-2.675,2.699l-1.916,1.807v0.146
			h6.487L187.005,252.294L187.005,252.294z"/>
		<path fill="#FFFFFF" d="M198.336,240.729c0,0.935-0.278,1.726-0.846,2.375c-0.564,0.647-1.354,1.104-2.374,1.349v0.063
			c1.197,0.146,2.108,0.518,2.729,1.098c0.617,0.58,0.927,1.363,0.927,2.349c0,1.433-0.521,2.549-1.563,3.347
			c-1.04,0.799-2.521,1.197-4.449,1.197c-1.617,0-3.054-0.268-4.304-0.805v-2.68c0.577,0.291,1.212,0.521,1.905,0.713
			c0.688,0.184,1.379,0.271,2.059,0.271c1.04,0,1.811-0.176,2.307-0.526c0.496-0.354,0.744-0.924,0.744-1.701
			c0-0.697-0.285-1.192-0.854-1.484c-0.571-0.292-1.479-0.438-2.729-0.438h-1.135v-2.416h1.152c1.15,0,1.994-0.149,2.527-0.453
			c0.529-0.307,0.8-0.817,0.8-1.559c0-1.128-0.702-1.688-2.115-1.688c-0.489,0-0.987,0.08-1.493,0.243
			c-0.506,0.162-1.064,0.44-1.688,0.85l-1.457-2.17c1.354-0.979,2.979-1.473,4.856-1.473c1.542,0,2.764,0.313,3.653,0.938
			C197.887,238.747,198.336,239.614,198.336,240.729z"/>
		<g>
			<path fill="#FFFFFF" d="M157.839,254.563c0.145-0.543,0.295-1.211,0.469-2.008c0.169-0.801,0.284-1.438,0.354-1.914h1.415
				l0.114,0.18c-0.135,0.521-0.329,1.129-0.583,1.813c-0.254,0.689-0.521,1.332-0.793,1.93H157.839z"/>
		</g>
	</g>
	<g>
		<path fill="#FFFFFF" d="M154.6,136.528h-3.146v-8.621l0.026-1.417l0.056-1.549c-0.521,0.523-0.892,0.866-1.095,1.029l-1.712,1.375
			l-1.521-1.895l4.801-3.821h2.591L154.6,136.528L154.6,136.528z"/>
		<path fill="#FFFFFF" d="M175.092,136.528H164.68v-2.191l3.736-3.781c1.104-1.134,1.831-1.92,2.171-2.359
			c0.343-0.439,0.584-0.844,0.729-1.218s0.229-0.761,0.229-1.162c0-0.598-0.165-1.042-0.49-1.335
			c-0.33-0.292-0.771-0.438-1.319-0.438c-0.578,0-1.138,0.132-1.686,0.397c-0.543,0.265-1.107,0.642-1.698,1.131l-1.712-2.028
			c0.729-0.625,1.341-1.066,1.82-1.325c0.479-0.258,1.013-0.457,1.58-0.596c0.566-0.139,1.209-0.209,1.916-0.209
			c0.935,0,1.752,0.17,2.466,0.51c0.718,0.34,1.271,0.815,1.661,1.427c0.396,0.611,0.591,1.311,0.591,2.099
			c0,0.686-0.117,1.33-0.357,1.931c-0.242,0.601-0.61,1.217-1.121,1.849c-0.506,0.632-1.396,1.532-2.675,2.701l-1.916,1.804v0.143
			h6.491v2.65H175.092z"/>
		<path fill="#FFFFFF" d="M187.005,136.528H176.59v-2.191l3.74-3.781c1.104-1.134,1.831-1.92,2.171-2.359
			c0.339-0.438,0.584-0.844,0.729-1.218s0.229-0.761,0.229-1.162c0-0.598-0.165-1.042-0.494-1.335
			c-0.326-0.292-0.771-0.438-1.315-0.438c-0.578,0-1.142,0.132-1.686,0.397c-0.543,0.265-1.107,0.642-1.698,1.131l-1.716-2.028
			c0.733-0.625,1.345-1.066,1.824-1.325c0.479-0.258,1.009-0.457,1.58-0.596c0.566-0.139,1.209-0.209,1.916-0.209
			c0.934,0,1.752,0.17,2.466,0.51c0.714,0.34,1.271,0.815,1.661,1.427c0.396,0.611,0.591,1.311,0.591,2.099
			c0,0.686-0.121,1.33-0.357,1.931c-0.242,0.601-0.615,1.217-1.121,1.849s-1.396,1.532-2.675,2.701l-1.916,1.804v0.143h6.487
			L187.005,136.528L187.005,136.528z"/>
		<path fill="#FFFFFF" d="M193.924,127.011c1.438,0,2.586,0.404,3.438,1.212c0.854,0.809,1.279,1.916,1.279,3.322
			c0,1.665-0.517,2.945-1.539,3.842c-1.021,0.896-2.493,1.345-4.397,1.345c-1.658,0-2.996-0.268-4.02-0.805v-2.721
			c0.537,0.285,1.162,0.518,1.875,0.698c0.713,0.18,1.394,0.27,2.024,0.27c1.922,0,2.888-0.788,2.888-2.364
			c0-1.501-0.995-2.252-2.986-2.252c-0.355,0-0.757,0.036-1.188,0.107c-0.438,0.071-0.789,0.148-1.063,0.229l-1.253-0.672
			l0.563-7.592h8.081v2.669h-5.315l-0.273,2.925l0.355-0.071C192.799,127.058,193.313,127.011,193.924,127.011z"/>
		<g>
			<path fill="#FFFFFF" d="M157.839,138.794c0.145-0.542,0.295-1.211,0.469-2.008c0.169-0.797,0.284-1.435,0.354-1.914h1.415
				l0.114,0.18c-0.135,0.521-0.329,1.126-0.583,1.816c-0.254,0.69-0.521,1.332-0.793,1.926H157.839z"/>
		</g>
	</g>
	<g>
		<path fill="#87868A" d="M61.059,206.451H46.161v-4.208c0-1.979,0.295-3.407,0.885-4.29c0.595-0.886,1.521-1.325,2.803-1.325
			c0.883,0,1.607,0.246,2.186,0.739c0.573,0.491,0.945,1.211,1.115,2.153h0.104c0.392-2.248,1.578-3.373,3.566-3.373
			c1.332,0,2.371,0.449,3.118,1.35c0.748,0.896,1.121,2.152,1.121,3.77L61.059,206.451L61.059,206.451z M52.529,204.719v-2.853
			c0-1.225-0.188-2.104-0.569-2.641c-0.388-0.537-1.024-0.813-1.938-0.813c-0.834,0-1.438,0.299-1.809,0.896
			c-0.365,0.6-0.555,1.553-0.555,2.854v2.547L52.529,204.719L52.529,204.719z M59.581,204.719v-3.106
			c0-1.194-0.229-2.104-0.698-2.715c-0.465-0.604-1.189-0.912-2.188-0.912c-0.924,0-1.604,0.313-2.033,0.938
			c-0.438,0.621-0.652,1.563-0.652,2.838v2.97L59.581,204.719L59.581,204.719z"/>
		<path fill="#87868A" d="M46.864,193.326c-0.388,0-0.671-0.087-0.852-0.265c-0.184-0.183-0.271-0.396-0.271-0.656
			c0-0.295,0.092-0.547,0.271-0.76c0.188-0.211,0.466-0.316,0.847-0.316c0.385,0,0.664,0.105,0.854,0.316
			c0.188,0.213,0.28,0.465,0.28,0.76c0,0.264-0.099,0.479-0.28,0.656C47.528,193.239,47.244,193.326,46.864,193.326z
			 M61.059,193.185H49.891v-1.55h11.168V193.185z"/>
		<path fill="#87868A" d="M61.059,187.905H45.203v-1.691h15.854L61.059,187.905L61.059,187.905z"/>
		<path fill="#87868A" d="M61.059,182.627H45.203v-1.69h15.854L61.059,182.627L61.059,182.627z"/>
		<path fill="#87868A" d="M46.864,177.491c-0.388,0-0.671-0.09-0.852-0.266c-0.184-0.182-0.271-0.396-0.271-0.656
			c0-0.293,0.092-0.547,0.271-0.758c0.188-0.213,0.466-0.317,0.847-0.317c0.385,0,0.664,0.104,0.854,0.317
			c0.188,0.211,0.28,0.465,0.28,0.758c0,0.264-0.099,0.479-0.28,0.656C47.528,177.401,47.244,177.491,46.864,177.491z
			 M61.059,177.351H49.891V175.8h11.168V177.351z"/>
		<path fill="#87868A" d="M55.454,172.69c-1.813,0-3.229-0.455-4.247-1.36c-1.019-0.908-1.521-2.168-1.521-3.78
			c0-1.558,0.521-2.795,1.562-3.713c1.032-0.918,2.438-1.377,4.211-1.377c1.819,0,3.248,0.457,4.271,1.372
			c1.021,0.914,1.536,2.178,1.536,3.789c0,0.996-0.234,1.88-0.704,2.651c-0.474,0.771-1.146,1.367-2.021,1.787
			S56.632,172.69,55.454,172.69z M55.454,170.959c1.43,0,2.521-0.286,3.271-0.856c0.749-0.563,1.124-1.412,1.124-2.521
			s-0.373-1.951-1.119-2.524c-0.745-0.574-1.837-0.859-3.271-0.859c-1.423,0-2.504,0.285-3.243,0.859
			c-0.734,0.573-1.104,1.424-1.104,2.547c0,1.106,0.364,1.943,1.099,2.512C52.925,170.677,54.011,170.959,55.454,170.959z"/>
		<path fill="#87868A" d="M61.059,159.465H49.891v-1.376l1.509-0.275v-0.081c-0.544-0.347-0.966-0.832-1.269-1.457
			c-0.299-0.625-0.444-1.321-0.444-2.089c0-1.346,0.324-2.357,0.979-3.037c0.646-0.68,1.688-1.02,3.107-1.02h7.286v1.692H53.82
			c-0.907,0-1.593,0.207-2.042,0.621c-0.444,0.415-0.675,1.063-0.675,1.946c0,1.169,0.313,2.024,0.95,2.568
			c0.633,0.543,1.678,0.815,3.135,0.815h5.871V159.465z"/>
		<path fill="#87868A" d="M59.321,141.736h-1.595c0.252-0.563,0.457-1.214,0.612-1.951c0.16-0.737,0.24-1.408,0.24-2.013h-4.48
			c-0.438,1.393-0.954,2.369-1.538,2.93c-0.585,0.561-1.339,0.841-2.267,0.841c-0.89,0-1.616-0.345-2.188-1.034
			c-0.566-0.689-0.918-1.602-1.04-2.736h-1.854v-1.335h1.834c0.034-1.246,0.286-2.448,0.759-3.607l1.335,0.53
			c-0.401,1.009-0.643,2.035-0.718,3.077h4.427c0.34-1.063,0.671-1.859,0.989-2.389c0.323-0.528,0.693-0.918,1.111-1.169
			c0.417-0.25,0.926-0.376,1.521-0.376c0.924,0,1.688,0.346,2.292,1.037c0.604,0.691,0.98,1.656,1.146,2.896h2.354v1.335H60
			c0,0.761-0.063,1.498-0.185,2.212C59.7,140.697,59.534,141.281,59.321,141.736z M50.288,139.811c0.52,0,0.935-0.152,1.238-0.456
			c0.313-0.304,0.604-0.831,0.892-1.582h-3.94c0.105,0.669,0.317,1.177,0.637,1.521C49.427,139.639,49.819,139.811,50.288,139.811z
			 M58.48,136.438c-0.203-1.467-0.828-2.201-1.875-2.201c-0.484,0-0.885,0.15-1.188,0.452c-0.303,0.301-0.604,0.884-0.898,1.749
			H58.48z"/>
	</g>
	
		<line fill="none" stroke="#666666" stroke-width="0.25" stroke-miterlimit="10" x1="92.317" y1="65.746" x2="92.317" y2="313.776"/>
	
		<line fill="none" stroke="#666666" stroke-width="0.25" stroke-miterlimit="10" x1="223.027" y1="313.776" x2="78.597" y2="313.776"/>
	
		<line fill="none" stroke="#666666" stroke-width="0.25" stroke-miterlimit="10" x1="223.027" y1="65.746" x2="78.597" y2="65.746"/>
</g>
<g id="EU28-estimates">
	<g>
		<rect x="384.26" y="194.99" fill="#199598" width="100.497" height="118.786"/>
		<rect x="384.26" y="65.796" fill="#DD9B2B" width="100.497" height="129.194"/>
	</g>
	<g>
		<path fill="#9A999E" d="M306.778,68.166v-1.239l5.896-8.399h1.495v8.347h1.854v1.291h-1.854v2.845h-1.342v-2.845H306.778z
			 M308.199,66.875h4.629v-4.127c0-0.81,0.027-1.724,0.085-2.743h-0.063c-0.271,0.543-0.526,0.994-0.766,1.35L308.199,66.875z"/>
		<path fill="#9A999E" d="M317.274,62.583c0-1.287,0.361-2.303,1.086-3.048c0.729-0.745,1.677-1.118,2.858-1.118
			c0.846,0,1.586,0.216,2.219,0.649s1.12,1.063,1.461,1.892c0.341,0.828,0.511,1.805,0.511,2.931c0,4.861-1.883,7.292-5.646,7.292
			c-0.659,0-1.188-0.057-1.566-0.17v-1.229c0.454,0.17,0.97,0.255,1.549,0.255c1.356,0,2.388-0.422,3.073-1.266
			c0.692-0.844,1.07-2.138,1.133-3.882h-0.103c-0.313,0.476-0.729,0.838-1.237,1.088c-0.515,0.25-1.094,0.374-1.738,0.374
			c-1.103,0-1.978-0.331-2.625-0.993C317.598,64.694,317.274,63.77,317.274,62.583z M318.684,62.566c0,0.819,0.204,1.463,0.61,1.932
			c0.398,0.469,1.021,0.704,1.854,0.704c0.514,0,0.987-0.105,1.42-0.315c0.438-0.21,0.772-0.498,1.021-0.862
			c0.248-0.364,0.373-0.745,0.373-1.143c0-0.597-0.116-1.148-0.354-1.655c-0.229-0.506-0.556-0.904-0.971-1.194
			s-0.896-0.435-1.432-0.435c-0.813,0-1.438,0.262-1.872,0.785C318.904,60.906,318.684,61.634,318.684,62.566z"/>
		<path fill="#9A999E" d="M327.447,70.5v-1.364c0.396,0.254,0.896,0.453,1.479,0.597s1.169,0.216,1.731,0.216
			c0.996,0,1.771-0.234,2.322-0.703c0.553-0.468,0.828-1.146,0.828-2.031c0-1.727-1.063-2.59-3.188-2.59
			c-0.533,0-1.262,0.082-2.153,0.245l-0.731-0.466l0.479-5.808h6.174v1.291h-4.977l-0.313,3.736c0.651-0.119,1.3-0.178,1.945-0.178
			c1.309,0,2.338,0.322,3.089,0.966c0.75,0.644,1.126,1.525,1.126,2.644c0,1.288-0.409,2.297-1.229,3.029
			c-0.813,0.732-1.938,1.098-3.384,1.098C329.254,71.181,328.183,70.954,327.447,70.5z"/>
	</g>
	<g>
		<path fill="#9A999E" d="M327.184,307.548c0-2.161,0.338-3.765,1.014-4.813c0.676-1.047,1.706-1.569,3.092-1.569
			c1.354,0,2.368,0.546,3.067,1.638c0.698,1.094,1.047,2.674,1.047,4.744c0,2.146-0.338,3.75-1.014,4.811
			c-0.676,1.063-1.709,1.593-3.104,1.593c-1.34,0-2.354-0.543-3.058-1.628C327.531,311.233,327.184,309.646,327.184,307.548z
			 M328.631,307.548c0,1.803,0.212,3.113,0.636,3.936c0.424,0.824,1.1,1.231,2.021,1.231c0.938,0,1.618-0.417,2.039-1.25
			s0.641-2.139,0.641-3.918c0-1.776-0.22-3.082-0.641-3.907c-0.421-0.828-1.101-1.242-2.039-1.242c-0.927,0-1.603,0.408-2.021,1.229
			C328.843,304.438,328.631,305.747,328.631,307.548z"/>
	</g>
	<g>
		<path fill="#FFFFFF" d="M427.073,252.294h-10.414v-2.189l3.739-3.774c1.107-1.142,1.831-1.925,2.171-2.358
			c0.34-0.435,0.584-0.845,0.733-1.219c0.146-0.374,0.225-0.768,0.225-1.162c0-0.604-0.165-1.042-0.494-1.335
			c-0.329-0.292-0.77-0.438-1.313-0.438c-0.577,0-1.146,0.134-1.688,0.396c-0.544,0.271-1.104,0.646-1.693,1.133l-1.721-2.023
			c0.733-0.625,1.351-1.064,1.824-1.325c0.482-0.259,1.009-0.456,1.579-0.597c0.57-0.145,1.209-0.209,1.916-0.209
			c0.931,0,1.753,0.17,2.466,0.511c0.714,0.342,1.271,0.813,1.661,1.429c0.396,0.609,0.591,1.313,0.591,2.1
			c0,0.688-0.12,1.33-0.354,1.937c-0.241,0.604-0.615,1.219-1.121,1.853c-0.506,0.635-1.397,1.529-2.675,2.699l-1.916,1.807v0.146
			h6.482L427.073,252.294L427.073,252.294z"/>
		<path fill="#FFFFFF" d="M438.406,240.729c0,0.935-0.274,1.726-0.846,2.375c-0.563,0.647-1.355,1.104-2.374,1.349v0.063
			c1.202,0.146,2.112,0.518,2.73,1.098c0.609,0.58,0.928,1.363,0.928,2.349c0,1.433-0.521,2.549-1.563,3.347
			c-1.039,0.799-2.521,1.197-4.453,1.197c-1.607,0-3.05-0.268-4.3-0.805v-2.68c0.577,0.291,1.213,0.521,1.905,0.713
			c0.693,0.184,1.379,0.271,2.059,0.271c1.039,0,1.813-0.176,2.312-0.526c0.496-0.354,0.743-0.924,0.743-1.701
			c0-0.697-0.284-1.192-0.854-1.484c-0.571-0.292-1.479-0.438-2.729-0.438h-1.136v-2.416h1.151c1.154,0,1.999-0.149,2.532-0.453
			c0.531-0.307,0.8-0.817,0.8-1.559c0-1.128-0.707-1.688-2.119-1.688c-0.489,0-0.987,0.08-1.493,0.243
			c-0.506,0.162-1.063,0.44-1.687,0.85l-1.457-2.17c1.354-0.979,2.979-1.473,4.854-1.473c1.542,0,2.769,0.313,3.653,0.938
			C437.966,238.745,438.406,239.614,438.406,240.729z"/>
		<path fill="#FFFFFF" d="M445.619,237.202c1.436,0,2.576,0.324,3.449,0.973c0.873,0.649,1.313,1.523,1.313,2.624
			c0,0.763-0.211,1.438-0.636,2.033c-0.427,0.594-1.104,1.126-2.034,1.595c1.105,0.6,1.912,1.223,2.396,1.87
			c0.486,0.647,0.729,1.36,0.729,2.136c0,1.223-0.479,2.207-1.438,2.949c-0.958,0.744-2.218,1.116-3.78,1.116
			c-1.631,0-2.902-0.347-3.842-1.039c-0.931-0.692-1.396-1.675-1.396-2.944c0-0.85,0.227-1.604,0.678-2.263
			c0.452-0.659,1.177-1.24,2.176-1.742c-0.85-0.536-1.461-1.11-1.834-1.722c-0.374-0.612-0.561-1.281-0.561-2.008
			c0-1.066,0.438-1.93,1.318-2.59C443.053,237.532,444.199,237.202,445.619,237.202z M443.302,248.33
			c0,0.584,0.203,1.039,0.604,1.364c0.407,0.326,0.964,0.488,1.671,0.488c0.781,0,1.365-0.168,1.762-0.511
			c0.387-0.336,0.572-0.772,0.572-1.323c0-0.455-0.188-0.888-0.567-1.279c-0.393-0.396-1.015-0.818-1.87-1.271
			C444.024,246.469,443.302,247.312,443.302,248.33z M445.604,239.505c-0.537,0-0.97,0.139-1.3,0.413
			c-0.329,0.274-0.494,0.646-0.494,1.104c0,0.408,0.131,0.771,0.393,1.097c0.271,0.321,0.735,0.653,1.431,0.993
			c0.656-0.313,1.131-0.633,1.396-0.959c0.271-0.325,0.397-0.702,0.397-1.131c0-0.472-0.171-0.84-0.518-1.11
			C446.568,239.642,446.135,239.505,445.604,239.505z"/>
	</g>
	<g>
		<path fill="#FFFFFF" d="M427.073,136.528h-10.414v-2.191l3.739-3.781c1.107-1.134,1.831-1.92,2.171-2.359
			c0.34-0.439,0.584-0.844,0.733-1.218c0.146-0.374,0.225-0.761,0.225-1.162c0-0.598-0.165-1.042-0.494-1.335
			c-0.329-0.292-0.77-0.438-1.313-0.438c-0.577,0-1.146,0.132-1.688,0.397c-0.544,0.265-1.104,0.642-1.693,1.131l-1.721-2.028
			c0.733-0.625,1.351-1.066,1.824-1.325c0.482-0.258,1.009-0.457,1.579-0.596c0.57-0.139,1.209-0.209,1.916-0.209
			c0.931,0,1.753,0.17,2.466,0.51c0.714,0.34,1.271,0.815,1.661,1.427c0.396,0.611,0.591,1.311,0.591,2.099
			c0,0.686-0.12,1.33-0.354,1.931c-0.241,0.601-0.615,1.217-1.121,1.849s-1.397,1.532-2.675,2.701l-1.916,1.804v0.143h6.482
			L427.073,136.528L427.073,136.528z"/>
		<path fill="#FFFFFF" d="M433.991,127.011c1.44,0,2.587,0.404,3.439,1.212c0.853,0.809,1.274,1.916,1.274,3.322
			c0,1.665-0.518,2.945-1.534,3.842c-1.026,0.896-2.493,1.345-4.402,1.345c-1.658,0-2.996-0.268-4.016-0.805v-2.721
			c0.53,0.285,1.155,0.518,1.875,0.698c0.714,0.18,1.39,0.27,2.021,0.27c1.925,0,2.886-0.788,2.886-2.364
			c0-1.501-0.988-2.252-2.979-2.252c-0.36,0-0.758,0.036-1.192,0.107c-0.434,0.071-0.788,0.148-1.06,0.229l-1.254-0.672l0.561-7.592
			h8.081v2.669h-5.313l-0.275,2.925l0.354-0.071C432.867,127.058,433.385,127.011,433.991,127.011z"/>
		<path fill="#FFFFFF" d="M441.969,136.528l5.594-12.229h-7.347v-2.649h10.688v1.977l-5.635,12.901H441.969z"/>
	</g>
	<g>
		<path fill="#87868A" d="M323.219,206.451H308.32v-4.208c0-1.979,0.296-3.407,0.886-4.29c0.6-0.886,1.523-1.325,2.808-1.325
			c0.883,0,1.604,0.246,2.185,0.739c0.574,0.491,0.946,1.211,1.116,2.153h0.103c0.396-2.248,1.578-3.373,3.571-3.373
			c1.332,0,2.371,0.449,3.118,1.35s1.121,2.152,1.121,3.77L323.219,206.451L323.219,206.451z M314.688,204.719v-2.853
			c0-1.225-0.191-2.104-0.574-2.641c-0.383-0.537-1.021-0.813-1.938-0.813c-0.834,0-1.438,0.299-1.813,0.896
			c-0.36,0.602-0.555,1.553-0.555,2.854v2.547L314.688,204.719L314.688,204.719z M321.739,204.719v-3.106
			c0-1.194-0.229-2.104-0.689-2.715c-0.474-0.604-1.193-0.912-2.188-0.912c-0.924,0-1.604,0.313-2.038,0.938
			c-0.435,0.621-0.646,1.563-0.646,2.838v2.97L321.739,204.719L321.739,204.719z"/>
		<path fill="#87868A" d="M309.021,193.326c-0.387,0-0.671-0.087-0.851-0.265c-0.188-0.183-0.271-0.396-0.271-0.656
			c0-0.295,0.091-0.547,0.274-0.76c0.184-0.211,0.466-0.316,0.846-0.316c0.381,0,0.664,0.105,0.852,0.316
			c0.188,0.213,0.28,0.465,0.28,0.76c0,0.264-0.094,0.479-0.28,0.656C309.686,193.239,309.402,193.326,309.021,193.326z
			 M323.219,193.185h-11.169v-1.55h11.169V193.185z"/>
		<path fill="#87868A" d="M323.219,187.905H307.36v-1.691h15.856L323.219,187.905L323.219,187.905z"/>
		<path fill="#87868A" d="M323.219,182.627H307.36v-1.69h15.856L323.219,182.627L323.219,182.627z"/>
		<path fill="#87868A" d="M309.021,177.491c-0.387,0-0.671-0.09-0.851-0.266c-0.188-0.182-0.271-0.396-0.271-0.656
			c0-0.293,0.091-0.547,0.274-0.758c0.184-0.213,0.466-0.317,0.846-0.317c0.381,0,0.664,0.104,0.852,0.317
			c0.188,0.211,0.28,0.465,0.28,0.758c0,0.264-0.094,0.479-0.28,0.656C309.686,177.401,309.402,177.491,309.021,177.491z
			 M323.219,177.351h-11.169V175.8h11.169V177.351z"/>
		<path fill="#87868A" d="M317.612,172.69c-1.813,0-3.229-0.455-4.247-1.36c-1.014-0.908-1.521-2.168-1.521-3.78
			c0-1.558,0.519-2.795,1.557-3.713c1.037-0.918,2.44-1.377,4.211-1.377c1.824,0,3.248,0.457,4.271,1.372
			c1.021,0.914,1.537,2.178,1.537,3.789c0,0.996-0.235,1.88-0.705,2.651c-0.478,0.771-1.146,1.367-2.021,1.787
			S318.784,172.69,317.612,172.69z M317.612,170.959c1.43,0,2.521-0.286,3.271-0.856c0.749-0.563,1.123-1.412,1.123-2.521
			s-0.372-1.951-1.118-2.524c-0.745-0.574-1.837-0.859-3.273-0.859c-1.423,0-2.504,0.285-3.243,0.859
			c-0.73,0.573-1.104,1.424-1.104,2.547c0,1.106,0.363,1.943,1.093,2.512C315.077,170.677,316.173,170.959,317.612,170.959z"/>
		<path fill="#87868A" d="M323.219,159.465h-11.169v-1.376l1.509-0.275v-0.081c-0.543-0.347-0.965-0.832-1.264-1.457
			c-0.308-0.625-0.448-1.321-0.448-2.089c0-1.346,0.324-2.357,0.973-3.037c0.649-0.68,1.688-1.02,3.113-1.02h7.286v1.692h-7.239
			c-0.913,0-1.594,0.207-2.043,0.621c-0.449,0.415-0.674,1.063-0.674,1.946c0,1.169,0.313,2.024,0.95,2.568
			c0.633,0.543,1.678,0.815,3.135,0.815h5.871V159.465z"/>
		<path fill="#87868A" d="M321.479,141.736h-1.595c0.251-0.563,0.457-1.214,0.616-1.951c0.151-0.737,0.23-1.408,0.23-2.013h-4.479
			c-0.441,1.393-0.954,2.369-1.539,2.93c-0.584,0.561-1.34,0.841-2.271,0.841c-0.89,0-1.616-0.345-2.188-1.034
			c-0.57-0.689-0.917-1.602-1.039-2.736h-1.854v-1.335h1.834c0.034-1.246,0.285-2.448,0.762-3.607l1.336,0.53
			c-0.4,1.009-0.646,2.035-0.722,3.077h4.432c0.339-1.063,0.671-1.859,0.984-2.389c0.322-0.528,0.693-0.918,1.11-1.169
			c0.418-0.25,0.926-0.376,1.521-0.376c0.926,0,1.688,0.346,2.291,1.037c0.604,0.691,0.979,1.656,1.146,2.896h2.354v1.335h-2.267
			c0,0.761-0.063,1.498-0.18,2.212C321.857,140.697,321.691,141.281,321.479,141.736z M312.445,139.811
			c0.521,0,0.938-0.152,1.243-0.456c0.313-0.304,0.608-0.831,0.887-1.582h-3.938c0.104,0.669,0.313,1.177,0.637,1.521
			C311.589,139.639,311.977,139.811,312.445,139.811z M320.639,136.438c-0.204-1.467-0.829-2.201-1.875-2.201
			c-0.489,0-0.885,0.15-1.188,0.452c-0.302,0.301-0.603,0.884-0.896,1.749H320.639z"/>
	</g>
	<g>
		<path fill="#666565" d="M332.814,26.87V11.972h8.306v1.549h-6.564v4.769h6.176v1.549h-6.176v5.482h6.564v1.549H332.814z"/>
		<path fill="#666565" d="M344.269,21.571v-9.599h1.732v9.736c0,1.245,0.34,2.201,1.019,2.868c0.68,0.667,1.678,1,2.996,1
			c1.257,0,2.225-0.335,2.904-1.005c0.68-0.67,1.019-1.631,1.019-2.883v-9.715h1.732v9.64c0,1.699-0.521,3.034-1.538,4.005
			c-1.026,0.972-2.438,1.457-4.229,1.457s-3.181-0.489-4.162-1.467C344.76,24.628,344.269,23.283,344.269,21.571z"/>
		<path fill="#666565" d="M358.589,26.87v-1.438l3.924-3.959c1.188-1.214,1.979-2.08,2.355-2.599
			c0.389-0.518,0.665-1.023,0.855-1.514c0.188-0.491,0.285-1.02,0.285-1.586c0-0.798-0.241-1.431-0.729-1.898
			c-0.479-0.467-1.146-0.701-2.008-0.701c-0.618,0-1.204,0.103-1.758,0.307s-1.17,0.577-1.854,1.115l-0.896-1.156
			c1.372-1.122,2.866-1.683,4.48-1.683c1.396,0,2.497,0.357,3.291,1.07c0.797,0.713,1.188,1.671,1.188,2.875
			c0,0.948-0.265,1.886-0.795,2.814c-0.527,0.928-1.521,2.102-2.979,3.521l-3.265,3.203v0.082h7.662v1.549h-9.79V26.87H358.589z"/>
		<path fill="#666565" d="M370.56,23.069c0-1.705,1.046-3.033,3.137-3.984c-0.946-0.53-1.627-1.103-2.039-1.717
			c-0.412-0.614-0.618-1.303-0.618-2.063c0-1.08,0.401-1.941,1.204-2.583c0.812-0.642,1.877-0.963,3.229-0.963
			c1.354,0,2.438,0.316,3.241,0.948c0.798,0.632,1.188,1.505,1.188,2.619c0,0.733-0.229,1.403-0.688,2.007
			c-0.458,0.605-1.189,1.155-2.194,1.651c1.216,0.578,2.08,1.184,2.593,1.819c0.521,0.635,0.771,1.371,0.771,2.206
			c0,1.237-0.438,2.224-1.298,2.96c-0.865,0.737-2.061,1.105-3.563,1.105c-1.595,0-2.821-0.348-3.68-1.044
			C370.989,25.333,370.56,24.347,370.56,23.069z M372.255,23.11c0,0.815,0.274,1.451,0.85,1.906s1.362,0.683,2.386,0.683
			c1.011,0,1.798-0.238,2.36-0.713c0.563-0.476,0.845-1.127,0.845-1.957c0-0.659-0.265-1.245-0.793-1.758
			c-0.529-0.513-1.452-1.01-2.768-1.493c-1.02,0.435-1.743,0.916-2.198,1.442C372.479,21.746,372.255,22.376,372.255,23.11z
			 M372.73,15.375c0,0.625,0.2,1.162,0.6,1.61c0.4,0.449,1.146,0.897,2.227,1.345c0.97-0.407,1.647-0.846,2.06-1.314
			c0.404-0.468,0.605-1.016,0.605-1.641c0-0.686-0.246-1.231-0.737-1.635c-0.492-0.404-1.169-0.606-2.029-0.606
			c-0.848,0-1.513,0.204-1.989,0.611C372.972,14.152,372.73,14.696,372.73,15.375z"/>
		<path fill="#666565" d="M388.025,21.377c0-1.8,0.441-3.23,1.326-4.29c0.884-1.06,2.07-1.589,3.561-1.589
			c1.396,0,2.498,0.46,3.313,1.38c0.813,0.921,1.219,2.135,1.219,3.643v1.07h-7.684c0.025,1.311,0.356,2.306,0.995,2.985
			c0.63,0.68,1.516,1.019,2.65,1.019c1.198,0,2.393-0.251,3.563-0.754v1.508c-0.604,0.258-1.16,0.443-1.691,0.555
			c-0.532,0.112-1.174,0.168-1.926,0.168c-1.646,0-2.945-0.502-3.897-1.508C388.508,24.558,388.025,23.165,388.025,21.377z
			 M389.802,20.216h5.849c0-1.066-0.238-1.883-0.715-2.451c-0.479-0.567-1.156-0.851-2.041-0.851c-0.898,0-1.614,0.292-2.148,0.876
			C390.203,18.375,389.894,19.183,389.802,20.216z"/>
		<path fill="#666565" d="M399.643,18.446c0-0.911,0.37-1.63,1.109-2.158c0.731-0.527,1.754-0.791,3.044-0.791
			c1.188,0,2.354,0.244,3.504,0.733l-0.59,1.377c-1.117-0.463-2.139-0.695-3.037-0.695c-0.813,0-1.409,0.126-1.817,0.378
			c-0.409,0.251-0.613,0.599-0.613,1.042c0,0.3,0.077,0.555,0.23,0.766c0.152,0.211,0.396,0.412,0.74,0.603
			c0.34,0.191,0.994,0.467,1.961,0.828c1.324,0.483,2.215,0.97,2.671,1.46c0.457,0.49,0.686,1.104,0.686,1.849
			c0,1.034-0.386,1.832-1.146,2.393c-0.771,0.561-1.854,0.841-3.243,0.841c-1.479,0-2.631-0.23-3.459-0.693V24.82
			c0.536,0.272,1.104,0.487,1.725,0.644c0.613,0.157,1.205,0.235,1.775,0.235c0.885,0,1.563-0.141,2.042-0.424
			c0.477-0.283,0.715-0.713,0.715-1.292c0-0.436-0.188-0.809-0.566-1.119c-0.378-0.31-1.106-0.676-2.211-1.098
			c-1.042-0.388-1.772-0.727-2.217-1.017s-0.761-0.618-0.974-0.986C399.744,19.396,399.643,18.957,399.643,18.446z"/>
		<path fill="#666565" d="M408.828,17.016v-0.815l1.604-0.703l0.713-2.385h0.979v2.588h3.235v1.314h-3.235v6.588
			c0,0.674,0.154,1.191,0.479,1.552c0.319,0.361,0.758,0.542,1.314,0.542c0.299,0,0.588-0.022,0.857-0.066
			c0.279-0.044,0.5-0.09,0.663-0.138v1.278c-0.184,0.087-0.454,0.159-0.811,0.216c-0.356,0.057-0.686,0.085-0.967,0.085
			c-2.156,0-3.236-1.138-3.236-3.414v-6.644h-1.604L408.828,17.016L408.828,17.016z"/>
		<path fill="#666565" d="M417.531,12.675c0-0.387,0.088-0.671,0.271-0.851c0.175-0.18,0.395-0.27,0.65-0.27
			c0.3,0,0.553,0.092,0.765,0.275c0.213,0.184,0.313,0.466,0.313,0.846c0,0.38-0.104,0.664-0.313,0.851s-0.465,0.28-0.765,0.28
			c-0.265,0-0.479-0.093-0.65-0.28C417.619,13.339,417.531,13.056,417.531,12.675z M417.68,26.87V15.702h1.549V26.87H417.68z"/>
		<path fill="#666565" d="M422.953,26.87V15.702h1.375l0.275,1.509h0.081c0.319-0.537,0.771-0.957,1.351-1.259
			c0.581-0.302,1.231-0.453,1.951-0.453c1.746,0,2.896,0.625,3.424,1.876h0.082c0.333-0.579,0.815-1.036,1.447-1.372
			s1.354-0.504,2.16-0.504c1.264,0,2.209,0.324,2.838,0.973c0.628,0.648,0.942,1.687,0.942,3.113v7.286h-1.691V19.59
			c0-0.892-0.188-1.561-0.57-2.006c-0.381-0.446-0.972-0.669-1.771-0.669c-1.053,0-1.831,0.303-2.334,0.909
			c-0.503,0.605-0.754,1.538-0.754,2.798v6.249h-1.691V19.59c0-0.892-0.188-1.561-0.57-2.006c-0.381-0.446-0.976-0.669-1.774-0.669
			c-1.063,0-1.836,0.318-2.329,0.955c-0.492,0.637-0.738,1.68-0.738,3.13v5.871L422.953,26.87L422.953,26.87z"/>
		<path fill="#666565" d="M441.531,23.794c0-2.25,1.813-3.429,5.418-3.537l1.898-0.062v-0.702c0-0.887-0.188-1.542-0.564-1.965
			c-0.377-0.423-0.979-0.634-1.806-0.634c-0.929,0-1.979,0.289-3.153,0.866l-0.521-1.298c0.551-0.294,1.146-0.525,1.809-0.692
			c0.655-0.167,1.313-0.251,1.977-0.251c1.325,0,2.313,0.295,2.954,0.887c0.646,0.591,0.969,1.539,0.969,2.843v7.622h-1.257
			l-0.341-1.571h-0.08c-0.558,0.693-1.104,1.162-1.656,1.407c-0.562,0.246-1.242,0.368-2.069,0.368
			c-1.113,0-1.984-0.284-2.616-0.853C441.85,25.652,441.531,24.843,441.531,23.794z M443.323,23.814
			c0,0.615,0.188,1.082,0.563,1.403c0.368,0.321,0.887,0.481,1.551,0.481c1.052,0,1.877-0.29,2.477-0.87
			c0.604-0.581,0.9-1.393,0.9-2.437v-1.014l-1.688,0.071c-1.344,0.048-2.312,0.258-2.896,0.63
			C443.619,22.451,443.323,23.029,443.323,23.814z"/>
		<path fill="#666565" d="M452.493,17.016v-0.815l1.604-0.703l0.713-2.385h0.979v2.588h3.236v1.314h-3.236v6.588
			c0,0.674,0.155,1.191,0.479,1.552c0.319,0.361,0.758,0.542,1.313,0.542c0.304,0,0.593-0.022,0.862-0.066
			c0.279-0.044,0.5-0.09,0.663-0.138v1.278c-0.184,0.087-0.454,0.159-0.811,0.216c-0.356,0.057-0.687,0.085-0.967,0.085
			c-2.156,0-3.236-1.138-3.236-3.414v-6.644h-1.604L452.493,17.016L452.493,17.016z"/>
		<path fill="#666565" d="M460.723,21.377c0-1.8,0.438-3.23,1.326-4.29c0.884-1.06,2.063-1.589,3.561-1.589
			c1.396,0,2.498,0.46,3.313,1.38c0.813,0.921,1.219,2.135,1.219,3.643v1.07h-7.688c0.034,1.311,0.365,2.306,0.995,2.985
			c0.63,0.68,1.521,1.019,2.659,1.019c1.198,0,2.384-0.251,3.556-0.754v1.508c-0.597,0.258-1.151,0.443-1.688,0.555
			c-0.532,0.112-1.174,0.168-1.926,0.168c-1.646,0-2.945-0.502-3.897-1.508S460.723,23.165,460.723,21.377z M462.491,20.216h5.854
			c0-1.066-0.238-1.883-0.715-2.451c-0.479-0.567-1.156-0.851-2.041-0.851c-0.898,0-1.614,0.292-2.148,0.876
			C462.905,18.375,462.594,19.183,462.491,20.216z"/>
		<path fill="#666565" d="M472.343,18.446c0-0.911,0.37-1.63,1.104-2.158c0.74-0.527,1.754-0.791,3.044-0.791
			c1.195,0,2.363,0.244,3.504,0.733l-0.59,1.377c-1.117-0.463-2.13-0.695-3.037-0.695c-0.804,0-1.4,0.126-1.813,0.378
			c-0.409,0.251-0.613,0.599-0.613,1.042c0,0.3,0.077,0.555,0.23,0.766c0.146,0.211,0.396,0.412,0.731,0.603
			c0.34,0.191,0.994,0.467,1.961,0.828c1.324,0.483,2.224,0.97,2.676,1.46c0.452,0.49,0.688,1.104,0.688,1.849
			c0,1.034-0.386,1.832-1.155,2.393c-0.771,0.561-1.852,0.841-3.243,0.841c-1.479,0-2.631-0.23-3.459-0.693V24.82
			c0.536,0.272,1.11,0.487,1.729,0.644c0.604,0.157,1.205,0.235,1.771,0.235c0.894,0,1.565-0.141,2.042-0.424
			c0.479-0.283,0.724-0.713,0.724-1.292c0-0.436-0.188-0.809-0.566-1.119c-0.378-0.31-1.115-0.676-2.211-1.098
			c-1.042-0.388-1.78-0.727-2.217-1.017c-0.438-0.29-0.77-0.618-0.979-0.986C472.445,19.396,472.343,18.957,472.343,18.446z"/>
	</g>
	
		<line fill="none" stroke="#666666" stroke-width="0.25" stroke-miterlimit="10" x1="354.049" y1="65.746" x2="354.049" y2="313.776"/>
	
		<line fill="none" stroke="#666666" stroke-width="0.25" stroke-miterlimit="10" x1="484.76" y1="313.776" x2="340.323" y2="313.776"/>
	
		<line fill="none" stroke="#666666" stroke-width="0.25" stroke-miterlimit="10" x1="484.76" y1="65.746" x2="340.323" y2="65.746"/>
</g>
<g id="legend">
	<rect x="563.448" y="184.116" fill="#DD9B2B" width="17.803" height="17.801"/>
	<rect x="563.448" y="211.714" fill="#199598" width="17.803" height="17.803"/>
	<g>
		<path fill="#5B5B5F" d="M594.687,196.817c-0.448,0.225-1.345,0.447-2.493,0.447c-2.661,0-4.665-1.682-4.665-4.775
			c0-2.955,2.004-4.958,4.933-4.958c1.177,0,1.919,0.252,2.239,0.42l-0.294,0.993c-0.462-0.223-1.119-0.393-1.903-0.393
			c-2.214,0-3.686,1.414-3.686,3.896c0,2.312,1.331,3.796,3.628,3.796c0.742,0,1.499-0.153,1.989-0.393L594.687,196.817z"/>
		<path fill="#5B5B5F" d="M602.149,193.681c0,2.508-1.737,3.602-3.376,3.602c-1.835,0-3.25-1.346-3.25-3.488
			c0-2.27,1.484-3.602,3.362-3.602C600.832,190.192,602.149,191.606,602.149,193.681z M596.77,193.75
			c0,1.485,0.854,2.604,2.059,2.604c1.179,0,2.062-1.105,2.062-2.633c0-1.148-0.574-2.604-2.031-2.604S596.77,192.462,596.77,193.75
			z"/>
		<path fill="#5B5B5F" d="M603.532,195.865c0.364,0.237,1.009,0.489,1.625,0.489c0.896,0,1.316-0.447,1.316-1.008
			c0-0.59-0.352-0.91-1.261-1.246c-1.221-0.437-1.794-1.106-1.794-1.92c0-1.094,0.884-1.988,2.341-1.988
			c0.686,0,1.288,0.195,1.667,0.42l-0.311,0.896c-0.267-0.168-0.757-0.392-1.387-0.392c-0.729,0-1.135,0.42-1.135,0.924
			c0,0.561,0.404,0.813,1.289,1.148c1.177,0.446,1.776,1.037,1.776,2.045c0,1.189-0.924,2.031-2.534,2.031
			c-0.741,0-1.43-0.184-1.904-0.464L603.532,195.865z"/>
		<path fill="#5B5B5F" d="M610.729,188.399v1.947h1.765v0.938h-1.765v3.654c0,0.842,0.237,1.316,0.924,1.316
			c0.322,0,0.563-0.042,0.715-0.084l0.058,0.926c-0.238,0.098-0.616,0.168-1.095,0.168c-0.572,0-1.034-0.184-1.328-0.52
			c-0.353-0.364-0.479-0.969-0.479-1.768v-3.695h-1.051v-0.938h1.051v-1.625L610.729,188.399z"/>
		<path fill="#5B5B5F" d="M616.845,192.183c0-0.701-0.016-1.274-0.058-1.836h1.095l0.067,1.12h0.028
			c0.336-0.645,1.12-1.274,2.241-1.274c0.938,0,2.396,0.563,2.396,2.888v4.048h-1.231v-3.908c0-1.093-0.405-2.003-1.568-2.003
			c-0.813,0-1.442,0.574-1.653,1.263c-0.056,0.152-0.084,0.362-0.084,0.572v4.076h-1.23L616.845,192.183L616.845,192.183z"/>
		<path fill="#5B5B5F" d="M630.751,193.681c0,2.508-1.735,3.602-3.375,3.602c-1.836,0-3.25-1.346-3.25-3.488
			c0-2.27,1.483-3.602,3.361-3.602C629.433,190.192,630.751,191.606,630.751,193.681z M625.372,193.75
			c0,1.485,0.854,2.604,2.061,2.604c1.177,0,2.06-1.105,2.06-2.633c0-1.148-0.572-2.604-2.029-2.604S625.372,192.462,625.372,193.75
			z"/>
		<path fill="#5B5B5F" d="M632.302,192.183c0-0.701-0.016-1.274-0.058-1.836h1.095l0.067,1.12h0.028
			c0.336-0.645,1.12-1.274,2.241-1.274c0.938,0,2.396,0.563,2.396,2.888v4.048h-1.231v-3.908c0-1.093-0.406-2.003-1.568-2.003
			c-0.813,0-1.442,0.574-1.653,1.263c-0.056,0.152-0.084,0.362-0.084,0.572v4.076h-1.23L632.302,192.183L632.302,192.183z"/>
		<path fill="#5B5B5F" d="M642.928,192.882v0.91h-3.46v-0.91H642.928z"/>
		<path fill="#5B5B5F" d="M644.495,197.126v-5.841h-0.95v-0.938h0.95v-0.322c0-0.951,0.21-1.819,0.784-2.365
			c0.463-0.448,1.079-0.633,1.653-0.633c0.435,0,0.813,0.101,1.051,0.197l-0.168,0.951c-0.183-0.084-0.435-0.152-0.785-0.152
			c-1.05,0-1.314,0.925-1.314,1.961v0.363h1.639v0.938h-1.639v5.841H644.495L644.495,197.126z"/>
		<path fill="#5B5B5F" d="M652.213,197.126l-0.1-0.854h-0.042c-0.378,0.53-1.104,1.009-2.073,1.009
			c-1.372,0-2.071-0.968-2.071-1.947c0-1.64,1.457-2.535,4.074-2.521v-0.142c0-0.562-0.152-1.567-1.541-1.567
			c-0.63,0-1.286,0.194-1.765,0.504l-0.28-0.813c0.563-0.362,1.373-0.604,2.229-0.604c2.073,0,2.577,1.416,2.577,2.773v2.535
			c0,0.589,0.026,1.163,0.11,1.625h-1.119V197.126z M652.029,193.666c-1.345-0.028-2.872,0.21-2.872,1.526
			c0,0.799,0.532,1.177,1.163,1.177c0.882,0,1.442-0.56,1.641-1.134c0.041-0.127,0.068-0.269,0.068-0.395V193.666z"/>
		<path fill="#5B5B5F" d="M656.635,188.399v1.947h1.765v0.938h-1.765v3.654c0,0.842,0.235,1.316,0.924,1.316
			c0.322,0,0.561-0.042,0.715-0.084l0.057,0.926c-0.237,0.098-0.615,0.168-1.094,0.168c-0.574,0-1.036-0.184-1.33-0.52
			c-0.351-0.364-0.477-0.969-0.477-1.768v-3.695h-1.051v-0.938h1.051v-1.625L656.635,188.399z"/>
		<path fill="#5B5B5F" d="M663.537,197.126l-0.098-0.854h-0.042c-0.378,0.53-1.106,1.009-2.073,1.009
			c-1.373,0-2.073-0.968-2.073-1.947c0-1.64,1.457-2.535,4.076-2.521v-0.142c0-0.562-0.152-1.567-1.541-1.567
			c-0.63,0-1.288,0.194-1.765,0.504l-0.28-0.813c0.563-0.362,1.373-0.604,2.229-0.604c2.071,0,2.577,1.416,2.577,2.773v2.535
			c0,0.589,0.026,1.163,0.11,1.625h-1.121V197.126z M663.355,193.666c-1.345-0.028-2.872,0.21-2.872,1.526
			c0,0.799,0.532,1.177,1.163,1.177c0.882,0,1.442-0.56,1.639-1.134c0.042-0.127,0.07-0.269,0.07-0.395V193.666z"/>
		<path fill="#5B5B5F" d="M666.531,187.181h1.232v9.945h-1.232V187.181z"/>
		<path fill="#5B5B5F" d="M677.635,196.874c-0.322,0.168-1.037,0.393-1.947,0.393c-2.045,0-3.376-1.388-3.376-3.459
			c0-2.089,1.429-3.602,3.642-3.602c0.729,0,1.373,0.184,1.709,0.352l-0.278,0.951c-0.294-0.168-0.756-0.322-1.431-0.322
			c-1.555,0-2.395,1.148-2.395,2.563c0,1.569,1.008,2.535,2.353,2.535c0.701,0,1.163-0.183,1.516-0.336L677.635,196.874z"/>
		<path fill="#5B5B5F" d="M682.828,197.126l-0.098-0.854h-0.042c-0.378,0.53-1.106,1.009-2.073,1.009
			c-1.373,0-2.073-0.968-2.073-1.947c0-1.64,1.457-2.535,4.076-2.521v-0.142c0-0.562-0.152-1.567-1.541-1.567
			c-0.63,0-1.288,0.194-1.765,0.504l-0.28-0.813c0.563-0.362,1.373-0.604,2.229-0.604c2.071,0,2.577,1.416,2.577,2.773v2.535
			c0,0.589,0.026,1.163,0.11,1.625h-1.121V197.126z M682.646,193.666c-1.345-0.028-2.872,0.21-2.872,1.526
			c0,0.799,0.532,1.177,1.163,1.177c0.882,0,1.442-0.56,1.639-1.134c0.042-0.127,0.07-0.269,0.07-0.395V193.666z"/>
		<path fill="#5B5B5F" d="M685.654,195.865c0.364,0.237,1.009,0.489,1.625,0.489c0.896,0,1.316-0.447,1.316-1.008
			c0-0.59-0.352-0.91-1.261-1.246c-1.221-0.437-1.795-1.106-1.795-1.92c0-1.094,0.885-1.988,2.342-1.988
			c0.686,0,1.288,0.195,1.667,0.42l-0.311,0.896c-0.267-0.168-0.757-0.392-1.387-0.392c-0.729,0-1.135,0.42-1.135,0.924
			c0,0.561,0.404,0.813,1.289,1.148c1.177,0.446,1.776,1.037,1.776,2.045c0,1.189-0.924,2.031-2.535,2.031
			c-0.74,0-1.429-0.184-1.903-0.464L685.654,195.865z"/>
		<path fill="#5B5B5F" d="M692.052,193.96c0.026,1.667,1.093,2.354,2.325,2.354c0.883,0,1.414-0.152,1.877-0.351l0.21,0.884
			c-0.436,0.195-1.179,0.42-2.255,0.42c-2.089,0-3.334-1.373-3.334-3.418c0-2.046,1.205-3.656,3.18-3.656
			c2.213,0,2.802,1.947,2.802,3.193c0,0.252-0.028,0.448-0.042,0.574H692.052L692.052,193.96z M695.667,193.078
			c0.016-0.785-0.32-2.004-1.709-2.004c-1.245,0-1.793,1.149-1.892,2.004H695.667z"/>
		<path fill="#5B5B5F" d="M698.214,195.865c0.362,0.237,1.009,0.489,1.625,0.489c0.896,0,1.314-0.447,1.314-1.008
			c0-0.59-0.35-0.91-1.261-1.246c-1.219-0.437-1.793-1.106-1.793-1.92c0-1.094,0.883-1.988,2.34-1.988
			c0.687,0,1.288,0.195,1.667,0.42l-0.309,0.896c-0.269-0.168-0.759-0.392-1.389-0.392c-0.729,0-1.135,0.42-1.135,0.924
			c0,0.561,0.406,0.813,1.289,1.148c1.177,0.446,1.778,1.037,1.778,2.045c0,1.189-0.925,2.031-2.535,2.031
			c-0.742,0-1.43-0.184-1.905-0.464L698.214,195.865z"/>
	</g>
	<g>
		<path fill="#5B5B5F" d="M594.687,224.416c-0.448,0.226-1.345,0.448-2.493,0.448c-2.661,0-4.665-1.682-4.665-4.776
			c0-2.955,2.004-4.958,4.933-4.958c1.177,0,1.919,0.252,2.239,0.42l-0.294,0.994c-0.462-0.225-1.119-0.393-1.903-0.393
			c-2.214,0-3.686,1.414-3.686,3.895c0,2.313,1.331,3.796,3.628,3.796c0.742,0,1.499-0.153,1.989-0.392L594.687,224.416z"/>
		<path fill="#5B5B5F" d="M602.149,221.278c0,2.508-1.737,3.601-3.376,3.601c-1.835,0-3.25-1.345-3.25-3.487
			c0-2.27,1.484-3.601,3.362-3.601C600.832,217.791,602.149,219.206,602.149,221.278z M596.77,221.349
			c0,1.485,0.854,2.605,2.059,2.605c1.179,0,2.062-1.105,2.062-2.635c0-1.147-0.574-2.604-2.031-2.604
			S596.77,220.062,596.77,221.349z"/>
		<path fill="#5B5B5F" d="M603.532,223.464c0.364,0.238,1.009,0.49,1.625,0.49c0.896,0,1.316-0.448,1.316-1.01
			c0-0.588-0.352-0.909-1.261-1.245c-1.221-0.435-1.794-1.106-1.794-1.919c0-1.094,0.884-1.989,2.341-1.989
			c0.686,0,1.288,0.196,1.667,0.42l-0.311,0.896c-0.267-0.168-0.757-0.392-1.387-0.392c-0.729,0-1.135,0.42-1.135,0.925
			c0,0.562,0.404,0.813,1.289,1.147c1.177,0.448,1.776,1.037,1.776,2.046c0,1.189-0.924,2.029-2.534,2.029
			c-0.741,0-1.43-0.182-1.904-0.461L603.532,223.464z"/>
		<path fill="#5B5B5F" d="M610.729,215.998v1.946h1.765v0.938h-1.765v3.655c0,0.841,0.237,1.315,0.924,1.315
			c0.322,0,0.563-0.041,0.715-0.084l0.058,0.924c-0.238,0.101-0.616,0.17-1.095,0.17c-0.572,0-1.034-0.184-1.328-0.52
			c-0.353-0.363-0.479-0.967-0.479-1.766v-3.697h-1.051v-0.938h1.051v-1.625L610.729,215.998z"/>
		<path fill="#5B5B5F" d="M616.971,224.726v-5.842h-0.952v-0.938h0.952v-0.322c0-0.953,0.21-1.821,0.784-2.367
			c0.463-0.447,1.079-0.631,1.651-0.631c0.437,0,0.813,0.1,1.053,0.196l-0.169,0.952c-0.184-0.084-0.436-0.153-0.784-0.153
			c-1.052,0-1.316,0.924-1.316,1.961v0.364h1.639v0.938h-1.639v5.842H616.971L616.971,224.726z"/>
		<path fill="#5B5B5F" d="M624.687,224.726l-0.098-0.854h-0.042c-0.378,0.531-1.106,1.009-2.073,1.009
			c-1.373,0-2.073-0.967-2.073-1.946c0-1.64,1.457-2.535,4.076-2.521v-0.141c0-0.562-0.154-1.568-1.541-1.568
			c-0.63,0-1.288,0.195-1.765,0.505l-0.28-0.813c0.561-0.363,1.373-0.604,2.228-0.604c2.073,0,2.577,1.415,2.577,2.773v2.535
			c0,0.588,0.028,1.161,0.112,1.625H624.687L624.687,224.726z M624.508,221.265c-1.347-0.026-2.872,0.211-2.872,1.527
			c0,0.798,0.531,1.176,1.163,1.176c0.882,0,1.44-0.56,1.639-1.134c0.042-0.126,0.07-0.267,0.07-0.394V221.265z"/>
		<path fill="#5B5B5F" d="M629.11,215.998v1.946h1.766v0.938h-1.766v3.655c0,0.841,0.237,1.315,0.924,1.315
			c0.322,0,0.563-0.041,0.715-0.084l0.058,0.924c-0.238,0.101-0.616,0.17-1.093,0.17c-0.574,0-1.036-0.184-1.33-0.52
			c-0.353-0.363-0.479-0.967-0.479-1.766v-3.697h-1.051v-0.938h1.051v-1.625L629.11,215.998z"/>
		<path fill="#5B5B5F" d="M636.012,224.726l-0.1-0.854h-0.042c-0.379,0.531-1.104,1.009-2.071,1.009
			c-1.373,0-2.073-0.967-2.073-1.946c0-1.64,1.457-2.535,4.076-2.521v-0.141c0-0.562-0.154-1.568-1.541-1.568
			c-0.63,0-1.288,0.195-1.767,0.505l-0.278-0.813c0.561-0.363,1.373-0.604,2.228-0.604c2.073,0,2.577,1.415,2.577,2.773v2.535
			c0,0.588,0.028,1.161,0.112,1.625H636.012L636.012,224.726z M635.831,221.265c-1.345-0.026-2.87,0.211-2.87,1.527
			c0,0.798,0.53,1.176,1.161,1.176c0.884,0,1.442-0.56,1.641-1.134c0.042-0.126,0.068-0.267,0.068-0.394V221.265z"/>
		<path fill="#5B5B5F" d="M639.009,214.778h1.23v9.945h-1.23V214.778z"/>
		<path fill="#5B5B5F" d="M650.112,224.474c-0.322,0.168-1.037,0.393-1.947,0.393c-2.045,0-3.376-1.389-3.376-3.459
			c0-2.09,1.431-3.602,3.644-3.602c0.729,0,1.373,0.184,1.709,0.352l-0.28,0.951c-0.294-0.168-0.756-0.321-1.429-0.321
			c-1.557,0-2.396,1.147-2.396,2.563c0,1.568,1.008,2.534,2.354,2.534c0.701,0,1.163-0.182,1.514-0.336L650.112,224.474z"/>
		<path fill="#5B5B5F" d="M655.304,224.726l-0.1-0.854h-0.042c-0.378,0.531-1.104,1.009-2.071,1.009
			c-1.373,0-2.073-0.967-2.073-1.946c0-1.64,1.457-2.535,4.076-2.521v-0.141c0-0.562-0.154-1.568-1.541-1.568
			c-0.63,0-1.288,0.195-1.767,0.505l-0.278-0.813c0.561-0.363,1.373-0.604,2.228-0.604c2.073,0,2.577,1.415,2.577,2.773v2.535
			c0,0.588,0.028,1.161,0.112,1.625H655.304L655.304,224.726z M655.123,221.265c-1.345-0.026-2.872,0.211-2.872,1.527
			c0,0.798,0.532,1.176,1.163,1.176c0.884,0,1.442-0.56,1.641-1.134c0.042-0.126,0.068-0.267,0.068-0.394V221.265z"/>
		<path fill="#5B5B5F" d="M658.133,223.464c0.362,0.238,1.009,0.49,1.625,0.49c0.896,0,1.314-0.448,1.314-1.01
			c0-0.588-0.35-0.909-1.261-1.245c-1.219-0.435-1.793-1.106-1.793-1.919c0-1.094,0.883-1.989,2.34-1.989
			c0.687,0,1.288,0.196,1.667,0.42l-0.309,0.896c-0.269-0.168-0.759-0.392-1.389-0.392c-0.729,0-1.135,0.42-1.135,0.925
			c0,0.562,0.406,0.813,1.289,1.147c1.177,0.448,1.778,1.037,1.778,2.046c0,1.189-0.925,2.029-2.535,2.029
			c-0.742,0-1.429-0.182-1.905-0.461L658.133,223.464z"/>
		<path fill="#5B5B5F" d="M664.529,221.56c0.028,1.666,1.093,2.354,2.325,2.354c0.883,0,1.415-0.154,1.877-0.353l0.21,0.883
			c-0.434,0.197-1.177,0.422-2.255,0.422c-2.087,0-3.334-1.372-3.334-3.417c0-2.048,1.205-3.656,3.18-3.656
			c2.213,0,2.804,1.947,2.804,3.192c0,0.252-0.028,0.447-0.042,0.574H664.529L664.529,221.56z M668.143,220.677
			c0.014-0.785-0.322-2.004-1.709-2.004c-1.247,0-1.793,1.149-1.893,2.004H668.143z"/>
		<path fill="#5B5B5F" d="M670.688,223.464c0.364,0.238,1.009,0.49,1.625,0.49c0.896,0,1.316-0.448,1.316-1.01
			c0-0.588-0.352-0.909-1.263-1.245c-1.219-0.435-1.793-1.106-1.793-1.919c0-1.094,0.883-1.989,2.34-1.989
			c0.688,0,1.288,0.196,1.667,0.42l-0.309,0.896c-0.268-0.168-0.757-0.392-1.387-0.392c-0.729,0-1.137,0.42-1.137,0.925
			c0,0.562,0.406,0.813,1.289,1.147c1.179,0.448,1.778,1.037,1.778,2.046c0,1.189-0.924,2.029-2.535,2.029
			c-0.742,0-1.429-0.182-1.905-0.461L670.688,223.464z"/>
	</g>
</g>
<g>
	<path fill="#5B5B5F" d="M35.471,334.146l0.198-1.244l2.673,0.759l-0.294-2.7h1.326l-0.294,2.7l2.721-0.759l0.178,1.244
		l-2.604,0.212l1.695,2.229l-1.176,0.643l-1.203-2.475l-1.094,2.475l-1.203-0.643l1.654-2.229L35.471,334.146z"/>
	<path fill="#5B5B5F" d="M42.731,332.642v-1.039h7.492v1.039h-3.165v8.955h-1.162v-8.955H42.731z"/>
	<path fill="#5B5B5F" d="M51.556,341.597V330.96h1.135v3.22c0,0.388-0.019,0.709-0.055,0.964h0.068
		c0.224-0.36,0.541-0.644,0.953-0.852c0.413-0.207,0.884-0.311,1.412-0.311c0.916,0,1.604,0.218,2.061,0.652
		c0.459,0.436,0.688,1.127,0.688,2.075v4.888h-1.135v-4.847c0-0.61-0.139-1.066-0.417-1.367s-0.713-0.451-1.306-0.451
		c-0.788,0-1.363,0.214-1.727,0.643c-0.361,0.429-0.543,1.13-0.543,2.105v3.917H51.556z"/>
	<path fill="#5B5B5F" d="M60.053,332.074c0-0.26,0.059-0.45,0.177-0.571c0.117-0.12,0.265-0.181,0.441-0.181
		c0.196,0,0.365,0.062,0.508,0.185s0.214,0.313,0.214,0.567s-0.071,0.445-0.214,0.571c-0.143,0.125-0.312,0.188-0.508,0.188
		c-0.177,0-0.324-0.063-0.441-0.188C60.112,332.52,60.053,332.329,60.053,332.074z M60.149,341.597v-7.492h1.039v7.492H60.149z"/>
	<path fill="#5B5B5F" d="M63.212,335.945c0-0.611,0.248-1.094,0.744-1.447s1.177-0.53,2.042-0.53c0.802,0,1.585,0.164,2.351,0.492
		l-0.396,0.924c-0.75-0.311-1.429-0.466-2.037-0.466c-0.539,0-0.945,0.085-1.22,0.254s-0.411,0.401-0.411,0.698
		c0,0.201,0.052,0.372,0.154,0.514c0.103,0.143,0.269,0.276,0.496,0.404c0.229,0.129,0.667,0.313,1.315,0.556
		c0.889,0.324,1.486,0.65,1.792,0.979c0.307,0.329,0.46,0.742,0.46,1.24c0,0.694-0.259,1.229-0.775,1.605s-1.241,0.564-2.175,0.564
		c-0.992,0-1.766-0.155-2.32-0.465v-1.047c0.359,0.183,0.745,0.326,1.156,0.432c0.412,0.104,0.81,0.157,1.191,0.157
		c0.594,0,1.05-0.095,1.37-0.284c0.319-0.189,0.479-0.479,0.479-0.867c0-0.292-0.127-0.542-0.38-0.75
		c-0.254-0.208-0.748-0.453-1.483-0.736c-0.699-0.261-1.194-0.488-1.487-0.682c-0.292-0.194-0.51-0.415-0.653-0.662
		C63.283,336.583,63.212,336.288,63.212,335.945z"/>
	<path fill="#5B5B5F" d="M73.589,337.898c0-1.253,0.3-2.222,0.899-2.905c0.599-0.684,1.457-1.025,2.573-1.025
		c0.36,0,0.72,0.039,1.08,0.116s0.643,0.169,0.848,0.273l-0.349,0.964c-0.251-0.101-0.524-0.184-0.82-0.25
		c-0.296-0.065-0.559-0.099-0.786-0.099c-1.522,0-2.283,0.971-2.283,2.912c0,0.921,0.186,1.627,0.558,2.119
		c0.371,0.492,0.921,0.738,1.65,0.738c0.624,0,1.265-0.135,1.921-0.403v1.005c-0.501,0.26-1.133,0.39-1.894,0.39
		c-1.085,0-1.922-0.334-2.512-1.002C73.884,340.064,73.589,339.12,73.589,337.898z"/>
	<path fill="#5B5B5F" d="M80.254,337.837c0-1.219,0.305-2.169,0.913-2.849c0.609-0.681,1.454-1.021,2.535-1.021
		c1.046,0,1.876,0.348,2.491,1.044c0.616,0.696,0.924,1.638,0.924,2.825c0,1.224-0.307,2.179-0.92,2.866
		c-0.613,0.687-1.461,1.03-2.542,1.03c-0.669,0-1.262-0.157-1.779-0.473c-0.518-0.314-0.918-0.767-1.199-1.355
		C80.394,339.316,80.254,338.627,80.254,337.837z M81.416,337.837c0,0.959,0.191,1.69,0.575,2.192
		c0.383,0.503,0.947,0.754,1.691,0.754c0.743,0,1.309-0.25,1.694-0.75c0.385-0.5,0.578-1.232,0.578-2.196
		c0-0.955-0.193-1.68-0.578-2.176c-0.386-0.495-0.955-0.743-1.708-0.743c-0.744,0-1.306,0.244-1.685,0.733
		C81.605,336.14,81.416,336.868,81.416,337.837z"/>
	<path fill="#5B5B5F" d="M88.648,335.945c0-0.611,0.248-1.094,0.744-1.447s1.177-0.53,2.042-0.53c0.802,0,1.585,0.164,2.351,0.492
		l-0.396,0.924c-0.75-0.311-1.429-0.466-2.037-0.466c-0.539,0-0.945,0.085-1.22,0.254s-0.411,0.401-0.411,0.698
		c0,0.201,0.052,0.372,0.154,0.514c0.103,0.143,0.269,0.276,0.496,0.404c0.229,0.129,0.667,0.313,1.315,0.556
		c0.889,0.324,1.486,0.65,1.792,0.979c0.307,0.329,0.46,0.742,0.46,1.24c0,0.694-0.259,1.229-0.775,1.605s-1.241,0.564-2.175,0.564
		c-0.992,0-1.766-0.155-2.32-0.465v-1.047c0.359,0.183,0.745,0.326,1.156,0.432c0.412,0.104,0.81,0.157,1.191,0.157
		c0.594,0,1.05-0.095,1.37-0.284c0.319-0.189,0.479-0.479,0.479-0.867c0-0.292-0.127-0.542-0.38-0.75
		c-0.254-0.208-0.748-0.453-1.483-0.736c-0.699-0.261-1.194-0.488-1.487-0.682c-0.292-0.194-0.51-0.415-0.653-0.662
		C88.719,336.583,88.648,336.288,88.648,335.945z"/>
	<path fill="#5B5B5F" d="M94.814,334.986v-0.547l1.073-0.472l0.479-1.6h0.656v1.736h2.174v0.882h-2.174v4.42
		c0,0.452,0.107,0.799,0.321,1.041s0.508,0.363,0.882,0.363c0.2,0,0.395-0.015,0.581-0.045c0.187-0.029,0.335-0.061,0.444-0.092
		v0.857c-0.123,0.059-0.305,0.106-0.543,0.145c-0.24,0.038-0.455,0.058-0.646,0.058c-1.449,0-2.174-0.764-2.174-2.29v-4.457H94.814z
		"/>
	<path fill="#5B5B5F" d="M104.289,332.074c0-0.26,0.059-0.45,0.177-0.571c0.117-0.12,0.265-0.181,0.441-0.181
		c0.196,0,0.365,0.062,0.508,0.185s0.214,0.313,0.214,0.567s-0.071,0.445-0.214,0.571c-0.143,0.125-0.312,0.188-0.508,0.188
		c-0.177,0-0.324-0.063-0.441-0.188C104.347,332.52,104.289,332.329,104.289,332.074z M104.385,341.597v-7.492h1.039v7.492H104.385z
		"/>
	<path fill="#5B5B5F" d="M107.447,335.945c0-0.611,0.248-1.094,0.744-1.447s1.177-0.53,2.042-0.53c0.802,0,1.585,0.164,2.351,0.492
		l-0.396,0.924c-0.75-0.311-1.429-0.466-2.037-0.466c-0.539,0-0.945,0.085-1.22,0.254s-0.411,0.401-0.411,0.698
		c0,0.201,0.052,0.372,0.154,0.514c0.103,0.143,0.269,0.276,0.496,0.404c0.229,0.129,0.667,0.313,1.315,0.556
		c0.889,0.324,1.486,0.65,1.792,0.979c0.307,0.329,0.46,0.742,0.46,1.24c0,0.694-0.259,1.229-0.775,1.605s-1.241,0.564-2.175,0.564
		c-0.992,0-1.766-0.155-2.32-0.465v-1.047c0.359,0.183,0.745,0.326,1.156,0.432c0.412,0.104,0.81,0.157,1.191,0.157
		c0.594,0,1.05-0.095,1.37-0.284c0.319-0.189,0.479-0.479,0.479-0.867c0-0.292-0.127-0.542-0.38-0.75
		c-0.254-0.208-0.748-0.453-1.483-0.736c-0.699-0.261-1.194-0.488-1.487-0.682c-0.292-0.194-0.51-0.415-0.653-0.662
		C107.518,336.583,107.447,336.288,107.447,335.945z"/>
	<path fill="#5B5B5F" d="M117.824,337.898c0-1.253,0.3-2.222,0.899-2.905c0.599-0.684,1.457-1.025,2.573-1.025
		c0.36,0,0.72,0.039,1.08,0.116s0.643,0.169,0.848,0.273l-0.349,0.964c-0.251-0.101-0.524-0.184-0.82-0.25
		c-0.296-0.065-0.559-0.099-0.786-0.099c-1.522,0-2.283,0.971-2.283,2.912c0,0.921,0.186,1.627,0.558,2.119
		c0.371,0.492,0.921,0.738,1.65,0.738c0.624,0,1.265-0.135,1.921-0.403v1.005c-0.501,0.26-1.133,0.39-1.894,0.39
		c-1.085,0-1.922-0.334-2.512-1.002C118.119,340.064,117.824,339.12,117.824,337.898z"/>
	<path fill="#5B5B5F" d="M124.345,339.533c0-1.51,1.212-2.301,3.635-2.373l1.273-0.042v-0.47c0-0.596-0.126-1.035-0.379-1.318
		c-0.252-0.284-0.656-0.426-1.211-0.426c-0.623,0-1.328,0.193-2.115,0.581l-0.353-0.871c0.369-0.197,0.773-0.353,1.213-0.465
		c0.44-0.111,0.881-0.168,1.323-0.168c0.893,0,1.554,0.198,1.983,0.595c0.431,0.396,0.646,1.032,0.646,1.907v5.113h-0.841
		l-0.226-1.054h-0.055c-0.373,0.464-0.745,0.779-1.115,0.943c-0.371,0.165-0.834,0.247-1.389,0.247c-0.747,0-1.332-0.19-1.755-0.572
		C124.557,340.779,124.345,340.237,124.345,339.533z M125.549,339.547c0,0.412,0.124,0.726,0.372,0.94
		c0.248,0.216,0.595,0.323,1.04,0.323c0.705,0,1.259-0.194,1.662-0.584c0.402-0.389,0.604-0.934,0.604-1.635v-0.68l-1.133,0.048
		c-0.9,0.032-1.55,0.173-1.948,0.423C125.748,338.632,125.549,339.021,125.549,339.547z"/>
	<path fill="#5B5B5F" d="M132.692,341.597V330.96h1.135v10.637H132.692z"/>
	<path fill="#5B5B5F" d="M135.816,337.898c0-1.253,0.3-2.222,0.899-2.905c0.599-0.684,1.457-1.025,2.573-1.025
		c0.36,0,0.72,0.039,1.08,0.116s0.643,0.169,0.848,0.273l-0.349,0.964c-0.251-0.101-0.524-0.184-0.82-0.25
		c-0.296-0.065-0.559-0.099-0.786-0.099c-1.522,0-2.283,0.971-2.283,2.912c0,0.921,0.186,1.627,0.558,2.119
		c0.371,0.492,0.921,0.738,1.65,0.738c0.624,0,1.265-0.135,1.921-0.403v1.005c-0.501,0.26-1.133,0.39-1.894,0.39
		c-1.085,0-1.922-0.334-2.512-1.002C136.111,340.064,135.816,339.12,135.816,337.898z"/>
	<path fill="#5B5B5F" d="M142.816,339.006v-4.901h1.162v4.86c0,0.61,0.139,1.066,0.416,1.367s0.712,0.451,1.304,0.451
		c0.782,0,1.354-0.214,1.716-0.643c0.362-0.429,0.543-1.128,0.543-2.099v-3.938h1.135v7.492h-0.923l-0.176-1.005h-0.063
		c-0.232,0.369-0.554,0.651-0.966,0.848c-0.411,0.196-0.881,0.294-1.409,0.294c-0.915,0-1.601-0.217-2.056-0.649
		S142.816,339.958,142.816,339.006z"/>
	<path fill="#5B5B5F" d="M151.491,341.597V330.96h1.135v10.637H151.491z"/>
	<path fill="#5B5B5F" d="M154.471,339.533c0-1.51,1.212-2.301,3.635-2.373l1.273-0.042v-0.47c0-0.596-0.126-1.035-0.379-1.318
		c-0.252-0.284-0.656-0.426-1.211-0.426c-0.623,0-1.328,0.193-2.115,0.581l-0.353-0.871c0.369-0.197,0.773-0.353,1.213-0.465
		c0.44-0.111,0.881-0.168,1.323-0.168c0.893,0,1.554,0.198,1.983,0.595c0.431,0.396,0.646,1.032,0.646,1.907v5.113h-0.841
		l-0.226-1.054h-0.055c-0.373,0.464-0.745,0.779-1.115,0.943c-0.371,0.165-0.834,0.247-1.389,0.247c-0.747,0-1.332-0.19-1.755-0.572
		C154.683,340.779,154.471,340.237,154.471,339.533z M155.675,339.547c0,0.412,0.124,0.726,0.372,0.94
		c0.248,0.216,0.595,0.323,1.04,0.323c0.705,0,1.259-0.194,1.662-0.584c0.402-0.389,0.604-0.934,0.604-1.635v-0.68l-1.133,0.048
		c-0.9,0.032-1.55,0.173-1.948,0.423C155.874,338.632,155.675,339.021,155.675,339.547z"/>
	<path fill="#5B5B5F" d="M161.827,334.986v-0.547l1.073-0.472l0.479-1.6h0.656v1.736h2.174v0.882h-2.174v4.42
		c0,0.452,0.107,0.799,0.321,1.041s0.508,0.363,0.882,0.363c0.2,0,0.395-0.015,0.581-0.045c0.187-0.029,0.335-0.061,0.444-0.092
		v0.857c-0.123,0.059-0.305,0.106-0.543,0.145c-0.24,0.038-0.455,0.058-0.646,0.058c-1.449,0-2.174-0.764-2.174-2.29v-4.457H161.827
		z"/>
	<path fill="#5B5B5F" d="M167.344,337.912c0-1.208,0.297-2.167,0.89-2.878s1.389-1.066,2.389-1.066c0.936,0,1.676,0.309,2.221,0.926
		c0.545,0.618,0.817,1.433,0.817,2.444v0.718h-5.154c0.022,0.88,0.245,1.547,0.668,2.003c0.422,0.456,1.017,0.684,1.783,0.684
		c0.805,0,1.6-0.169,2.386-0.506v1.012c-0.4,0.173-0.778,0.298-1.135,0.372c-0.357,0.076-0.787,0.113-1.292,0.113
		c-1.104,0-1.976-0.337-2.614-1.012S167.344,339.11,167.344,337.912z M168.533,337.133h3.924c0-0.716-0.16-1.264-0.479-1.644
		c-0.319-0.381-0.776-0.571-1.369-0.571c-0.603,0-1.083,0.196-1.441,0.588S168.596,336.44,168.533,337.133z"/>
	<path fill="#5B5B5F" d="M175.198,337.871c0-1.235,0.272-2.194,0.817-2.878s1.304-1.025,2.275-1.025
		c1.019,0,1.799,0.369,2.342,1.107h0.089l-0.048-0.54l-0.027-0.526v-3.049h1.135v10.637h-0.923l-0.15-1.005h-0.062
		c-0.525,0.761-1.31,1.142-2.355,1.142c-0.977,0-1.736-0.335-2.278-1.005C175.469,340.059,175.198,339.106,175.198,337.871z
		 M176.36,337.885c0,0.957,0.176,1.68,0.527,2.167s0.867,0.731,1.547,0.731c0.776,0,1.339-0.211,1.688-0.632
		c0.349-0.422,0.523-1.103,0.523-2.041v-0.239c0-1.062-0.177-1.819-0.53-2.272c-0.354-0.454-0.919-0.681-1.695-0.681
		c-0.666,0-1.176,0.259-1.53,0.776C176.537,336.211,176.36,336.941,176.36,337.885z"/>
	<path fill="#5B5B5F" d="M187.414,337.837c0-1.219,0.305-2.169,0.913-2.849c0.609-0.681,1.454-1.021,2.535-1.021
		c1.046,0,1.876,0.348,2.491,1.044c0.616,0.696,0.924,1.638,0.924,2.825c0,1.224-0.307,2.179-0.92,2.866
		c-0.613,0.687-1.461,1.03-2.542,1.03c-0.669,0-1.262-0.157-1.779-0.473c-0.518-0.314-0.918-0.767-1.199-1.355
		C187.554,339.316,187.414,338.627,187.414,337.837z M188.576,337.837c0,0.959,0.191,1.69,0.575,2.192
		c0.383,0.503,0.947,0.754,1.691,0.754c0.743,0,1.309-0.25,1.694-0.75c0.385-0.5,0.578-1.232,0.578-2.196
		c0-0.955-0.193-1.68-0.578-2.176c-0.386-0.495-0.955-0.743-1.708-0.743c-0.744,0-1.306,0.244-1.685,0.733
		C188.765,336.14,188.576,336.868,188.576,337.837z"/>
	<path fill="#5B5B5F" d="M196.287,341.597v-7.492h0.923l0.185,1.012h0.055c0.232-0.364,0.559-0.647,0.978-0.848
		s0.887-0.301,1.401-0.301c0.902,0,1.581,0.218,2.037,0.652c0.456,0.436,0.684,1.132,0.684,2.089v4.888h-1.135v-4.856
		c0-0.612-0.139-1.068-0.417-1.37s-0.713-0.452-1.306-0.452c-0.784,0-1.358,0.212-1.723,0.637s-0.547,1.126-0.547,2.104v3.938
		H196.287z"/>
	<path fill="#5B5B5F" d="M207.525,334.986v-0.547l1.073-0.472l0.479-1.6h0.656v1.736h2.174v0.882h-2.174v4.42
		c0,0.452,0.107,0.799,0.321,1.041s0.508,0.363,0.882,0.363c0.2,0,0.395-0.015,0.581-0.045c0.187-0.029,0.335-0.061,0.444-0.092
		v0.857c-0.123,0.059-0.305,0.106-0.543,0.145c-0.24,0.038-0.455,0.058-0.646,0.058c-1.449,0-2.174-0.764-2.174-2.29v-4.457H207.525
		z"/>
	<path fill="#5B5B5F" d="M213.459,341.597V330.96h1.135v3.22c0,0.388-0.019,0.709-0.055,0.964h0.068
		c0.224-0.36,0.541-0.644,0.953-0.852c0.413-0.207,0.884-0.311,1.412-0.311c0.916,0,1.604,0.218,2.061,0.652
		c0.459,0.436,0.688,1.127,0.688,2.075v4.888h-1.135v-4.847c0-0.61-0.139-1.066-0.417-1.367s-0.713-0.451-1.306-0.451
		c-0.788,0-1.363,0.214-1.727,0.643c-0.361,0.429-0.543,1.13-0.543,2.105v3.917H213.459z"/>
	<path fill="#5B5B5F" d="M221.635,337.912c0-1.208,0.297-2.167,0.89-2.878s1.389-1.066,2.389-1.066c0.936,0,1.676,0.309,2.221,0.926
		c0.545,0.618,0.817,1.433,0.817,2.444v0.718h-5.154c0.022,0.88,0.245,1.547,0.668,2.003c0.422,0.456,1.017,0.684,1.783,0.684
		c0.805,0,1.6-0.169,2.386-0.506v1.012c-0.4,0.173-0.778,0.298-1.135,0.372c-0.357,0.076-0.787,0.113-1.292,0.113
		c-1.104,0-1.976-0.337-2.614-1.012S221.635,339.11,221.635,337.912z M222.824,337.133h3.924c0-0.716-0.16-1.264-0.479-1.644
		c-0.319-0.381-0.776-0.571-1.369-0.571c-0.603,0-1.083,0.196-1.441,0.588S222.887,336.44,222.824,337.133z"/>
	<path fill="#5B5B5F" d="M232.34,331.603h1.271l2.639,4.997l2.659-4.997h1.258l-3.336,6.118v3.876h-1.162v-3.821L232.34,331.603z"/>
	<path fill="#5B5B5F" d="M240.269,337.912c0-1.208,0.297-2.167,0.89-2.878s1.389-1.066,2.389-1.066c0.936,0,1.676,0.309,2.221,0.926
		c0.545,0.618,0.817,1.433,0.817,2.444v0.718h-5.154c0.022,0.88,0.245,1.547,0.668,2.003c0.422,0.456,1.017,0.684,1.783,0.684
		c0.805,0,1.6-0.169,2.386-0.506v1.012c-0.4,0.173-0.778,0.298-1.135,0.372c-0.357,0.076-0.787,0.113-1.292,0.113
		c-1.104,0-1.976-0.337-2.614-1.012S240.269,339.11,240.269,337.912z M241.459,337.133h3.924c0-0.716-0.16-1.264-0.479-1.644
		c-0.319-0.381-0.776-0.571-1.369-0.571c-0.603,0-1.083,0.196-1.441,0.588S241.522,336.44,241.459,337.133z"/>
	<path fill="#5B5B5F" d="M247.98,339.533c0-1.51,1.212-2.301,3.635-2.373l1.273-0.042v-0.47c0-0.596-0.126-1.035-0.379-1.318
		c-0.252-0.284-0.656-0.426-1.211-0.426c-0.623,0-1.328,0.193-2.115,0.581l-0.353-0.871c0.369-0.197,0.773-0.353,1.213-0.465
		c0.44-0.111,0.881-0.168,1.323-0.168c0.893,0,1.554,0.198,1.983,0.595c0.431,0.396,0.646,1.032,0.646,1.907v5.113h-0.841
		l-0.226-1.054h-0.055c-0.373,0.464-0.745,0.779-1.115,0.943c-0.371,0.165-0.834,0.247-1.389,0.247c-0.747,0-1.332-0.19-1.755-0.572
		C248.192,340.779,247.98,340.237,247.98,339.533z M249.183,339.547c0,0.412,0.124,0.726,0.372,0.94
		c0.248,0.216,0.595,0.323,1.04,0.323c0.705,0,1.259-0.194,1.662-0.584c0.402-0.389,0.604-0.934,0.604-1.635v-0.68l-1.133,0.048
		c-0.9,0.032-1.55,0.173-1.948,0.423C249.383,338.632,249.183,339.021,249.183,339.547z"/>
	<path fill="#5B5B5F" d="M256.327,341.597v-7.492h0.923l0.139,1.394h0.059c0.278-0.489,0.614-0.866,1.006-1.132
		s0.822-0.398,1.292-0.398c0.333,0,0.631,0.027,0.896,0.083l-0.157,1.059c-0.31-0.068-0.583-0.103-0.82-0.103
		c-0.606,0-1.125,0.246-1.555,0.737c-0.432,0.492-0.646,1.104-0.646,1.837v4.016H256.327z"/>
	<path fill="#5B5B5F" d="M261.563,335.945c0-0.611,0.248-1.094,0.744-1.447s1.177-0.53,2.042-0.53c0.802,0,1.585,0.164,2.351,0.492
		l-0.396,0.924c-0.75-0.311-1.429-0.466-2.037-0.466c-0.539,0-0.945,0.085-1.22,0.254s-0.411,0.401-0.411,0.698
		c0,0.201,0.052,0.372,0.154,0.514c0.103,0.143,0.269,0.276,0.496,0.404c0.229,0.129,0.667,0.313,1.315,0.556
		c0.889,0.324,1.486,0.65,1.792,0.979c0.307,0.329,0.46,0.742,0.46,1.24c0,0.694-0.259,1.229-0.775,1.605s-1.241,0.564-2.175,0.564
		c-0.992,0-1.766-0.155-2.32-0.465v-1.047c0.359,0.183,0.745,0.326,1.156,0.432c0.412,0.104,0.81,0.157,1.191,0.157
		c0.594,0,1.05-0.095,1.37-0.284c0.319-0.189,0.479-0.479,0.479-0.867c0-0.292-0.127-0.542-0.38-0.75
		c-0.254-0.208-0.748-0.453-1.483-0.736c-0.699-0.261-1.194-0.488-1.487-0.682c-0.292-0.194-0.51-0.415-0.653-0.662
		C261.635,336.583,261.563,336.288,261.563,335.945z"/>
	<path fill="#5B5B5F" d="M271.94,337.837c0-1.219,0.305-2.169,0.913-2.849c0.609-0.681,1.454-1.021,2.535-1.021
		c1.046,0,1.876,0.348,2.491,1.044c0.616,0.696,0.924,1.638,0.924,2.825c0,1.224-0.307,2.179-0.92,2.866
		c-0.613,0.687-1.461,1.03-2.542,1.03c-0.669,0-1.262-0.157-1.779-0.473c-0.518-0.314-0.918-0.767-1.199-1.355
		C272.081,339.316,271.94,338.627,271.94,337.837z M273.102,337.837c0,0.959,0.191,1.69,0.575,2.192
		c0.383,0.503,0.947,0.754,1.691,0.754c0.743,0,1.309-0.25,1.694-0.75c0.385-0.5,0.578-1.232,0.578-2.196
		c0-0.955-0.193-1.68-0.578-2.176c-0.386-0.495-0.955-0.743-1.708-0.743c-0.744,0-1.306,0.244-1.685,0.733
		C273.292,336.14,273.102,336.868,273.102,337.837z"/>
	<path fill="#5B5B5F" d="M279.808,334.986v-0.513l1.34-0.41v-0.415c0-1.833,0.805-2.75,2.413-2.75c0.396,0,0.861,0.079,1.395,0.235
		l-0.294,0.899c-0.438-0.142-0.812-0.212-1.121-0.212c-0.429,0-0.745,0.143-0.95,0.428c-0.205,0.284-0.308,0.741-0.308,1.37v0.485
		h1.907v0.882h-1.907v6.61h-1.135v-6.61H279.808z"/>
	<path fill="#5B5B5F" d="M289.194,341.597V330.96h1.135v10.637H289.194z"/>
	<path fill="#5B5B5F" d="M292.639,332.074c0-0.26,0.059-0.45,0.177-0.571c0.117-0.12,0.265-0.181,0.441-0.181
		c0.196,0,0.365,0.062,0.508,0.185s0.214,0.313,0.214,0.567s-0.071,0.445-0.214,0.571c-0.143,0.125-0.312,0.188-0.508,0.188
		c-0.177,0-0.324-0.063-0.441-0.188C292.698,332.52,292.639,332.329,292.639,332.074z M292.735,341.597v-7.492h1.039v7.492H292.735z
		"/>
	<path fill="#5B5B5F" d="M295.271,334.986v-0.513l1.34-0.41v-0.415c0-1.833,0.805-2.75,2.413-2.75c0.396,0,0.861,0.079,1.395,0.235
		l-0.294,0.899c-0.438-0.142-0.812-0.212-1.121-0.212c-0.429,0-0.745,0.143-0.95,0.428c-0.205,0.284-0.308,0.741-0.308,1.37v0.485
		h1.907v0.882h-1.907v6.61h-1.135v-6.61H295.271z"/>
	<path fill="#5B5B5F" d="M300.603,337.912c0-1.208,0.297-2.167,0.89-2.878s1.389-1.066,2.389-1.066c0.936,0,1.676,0.309,2.221,0.926
		c0.545,0.618,0.817,1.433,0.817,2.444v0.718h-5.154c0.022,0.88,0.245,1.547,0.668,2.003c0.422,0.456,1.017,0.684,1.783,0.684
		c0.805,0,1.6-0.169,2.386-0.506v1.012c-0.4,0.173-0.778,0.298-1.135,0.372c-0.357,0.076-0.787,0.113-1.292,0.113
		c-1.104,0-1.976-0.337-2.614-1.012S300.603,339.11,300.603,337.912z M301.793,337.133h3.924c0-0.716-0.16-1.264-0.479-1.644
		c-0.319-0.381-0.776-0.571-1.369-0.571c-0.603,0-1.083,0.196-1.441,0.588S301.856,336.44,301.793,337.133z"/>
	<path fill="#5B5B5F" d="M312.511,341.597V330.96h1.135v10.637H312.511z"/>
	<path fill="#5B5B5F" d="M315.635,337.837c0-1.219,0.305-2.169,0.913-2.849c0.609-0.681,1.454-1.021,2.535-1.021
		c1.046,0,1.876,0.348,2.491,1.044c0.616,0.696,0.924,1.638,0.924,2.825c0,1.224-0.307,2.179-0.92,2.866
		c-0.613,0.687-1.461,1.03-2.542,1.03c-0.669,0-1.262-0.157-1.779-0.473c-0.518-0.314-0.918-0.767-1.199-1.355
		C315.776,339.316,315.635,338.627,315.635,337.837z M316.798,337.837c0,0.959,0.191,1.69,0.575,2.192
		c0.383,0.503,0.947,0.754,1.691,0.754c0.743,0,1.309-0.25,1.694-0.75c0.385-0.5,0.578-1.232,0.578-2.196
		c0-0.955-0.193-1.68-0.578-2.176c-0.386-0.495-0.955-0.743-1.708-0.743c-0.744,0-1.306,0.244-1.685,0.733
		C316.987,336.14,316.798,336.868,316.798,337.837z"/>
	<path fill="#5B5B5F" d="M324.03,335.945c0-0.611,0.248-1.094,0.744-1.447s1.177-0.53,2.042-0.53c0.802,0,1.585,0.164,2.351,0.492
		l-0.396,0.924c-0.75-0.311-1.429-0.466-2.037-0.466c-0.539,0-0.945,0.085-1.22,0.254s-0.411,0.401-0.411,0.698
		c0,0.201,0.052,0.372,0.154,0.514c0.103,0.143,0.269,0.276,0.496,0.404c0.229,0.129,0.667,0.313,1.315,0.556
		c0.889,0.324,1.486,0.65,1.792,0.979c0.307,0.329,0.46,0.742,0.46,1.24c0,0.694-0.259,1.229-0.775,1.605s-1.241,0.564-2.175,0.564
		c-0.992,0-1.766-0.155-2.32-0.465v-1.047c0.359,0.183,0.745,0.326,1.156,0.432c0.412,0.104,0.81,0.157,1.191,0.157
		c0.594,0,1.05-0.095,1.37-0.284c0.319-0.189,0.479-0.479,0.479-0.867c0-0.292-0.127-0.542-0.38-0.75
		c-0.254-0.208-0.748-0.453-1.483-0.736c-0.699-0.261-1.194-0.488-1.487-0.682c-0.292-0.194-0.51-0.415-0.653-0.662
		C324.101,336.583,324.03,336.288,324.03,335.945z"/>
	<path fill="#5B5B5F" d="M330.196,334.986v-0.547l1.073-0.472l0.479-1.6h0.656v1.736h2.174v0.882h-2.174v4.42
		c0,0.452,0.107,0.799,0.321,1.041s0.508,0.363,0.882,0.363c0.2,0,0.395-0.015,0.581-0.045c0.187-0.029,0.335-0.061,0.444-0.092
		v0.857c-0.123,0.059-0.305,0.106-0.543,0.145c-0.24,0.038-0.455,0.058-0.646,0.058c-1.449,0-2.174-0.764-2.174-2.29v-4.457H330.196
		z"/>
	<path fill="#5B5B5F" d="M339.124,337.762c0-1.208,0.179-2.338,0.536-3.391c0.356-1.053,0.869-1.976,1.535-2.769h1.107
		c-0.656,0.88-1.149,1.846-1.479,2.898c-0.331,1.053-0.496,2.135-0.496,3.247c0,1.094,0.169,2.162,0.506,3.206
		s0.822,1.996,1.456,2.857h-1.094c-0.671-0.774-1.184-1.68-1.539-2.714C339.302,340.063,339.124,338.951,339.124,337.762z"/>
	<path fill="#5B5B5F" d="M342.706,331.603h1.271l2.639,4.997l2.659-4.997h1.258l-3.336,6.118v3.876h-1.162v-3.821L342.706,331.603z"
		/>
	<path fill="#5B5B5F" d="M351.921,341.597v-9.994h1.162v8.955h4.409v1.039H351.921z"/>
	<path fill="#5B5B5F" d="M359.187,341.597v-9.994h1.162v8.955h4.409v1.039H359.187z"/>
	<path fill="#5B5B5F" d="M365.497,331.603h1.107c0.671,0.798,1.184,1.724,1.539,2.779c0.354,1.055,0.532,2.182,0.532,3.38
		s-0.179,2.315-0.536,3.35s-0.869,1.935-1.535,2.7h-1.094c0.634-0.856,1.119-1.809,1.456-2.854c0.337-1.047,0.506-2.116,0.506-3.21
		c0-1.112-0.165-2.194-0.496-3.247C366.646,333.448,366.153,332.482,365.497,331.603z"/>
	<path fill="#5B5B5F" d="M373.502,339.533c0-1.51,1.212-2.301,3.635-2.373l1.273-0.042v-0.47c0-0.596-0.126-1.035-0.379-1.318
		c-0.252-0.284-0.656-0.426-1.211-0.426c-0.623,0-1.328,0.193-2.115,0.581l-0.353-0.871c0.369-0.197,0.773-0.353,1.213-0.465
		c0.44-0.111,0.881-0.168,1.323-0.168c0.893,0,1.554,0.198,1.983,0.595c0.431,0.396,0.646,1.032,0.646,1.907v5.113h-0.841
		l-0.226-1.054h-0.055c-0.373,0.464-0.745,0.779-1.115,0.943c-0.371,0.165-0.834,0.247-1.389,0.247c-0.747,0-1.332-0.19-1.755-0.572
		C373.714,340.779,373.502,340.237,373.502,339.533z M374.705,339.547c0,0.412,0.124,0.726,0.372,0.94
		c0.248,0.216,0.595,0.323,1.04,0.323c0.705,0,1.259-0.194,1.662-0.584c0.402-0.389,0.604-0.934,0.604-1.635v-0.68l-1.133,0.048
		c-0.9,0.032-1.55,0.173-1.948,0.423C374.904,338.632,374.705,339.021,374.705,339.547z"/>
	<path fill="#5B5B5F" d="M381.848,341.597v-7.492h0.923l0.185,1.012h0.055c0.232-0.364,0.559-0.647,0.978-0.848
		s0.887-0.301,1.401-0.301c0.902,0,1.581,0.218,2.037,0.652c0.456,0.436,0.684,1.132,0.684,2.089v4.888h-1.135v-4.856
		c0-0.612-0.139-1.068-0.417-1.37s-0.713-0.452-1.306-0.452c-0.784,0-1.358,0.212-1.723,0.637s-0.547,1.126-0.547,2.104v3.938
		H381.848z"/>
	<path fill="#5B5B5F" d="M390.024,337.871c0-1.235,0.272-2.194,0.817-2.878s1.304-1.025,2.275-1.025
		c1.019,0,1.799,0.369,2.342,1.107h0.089l-0.048-0.54l-0.027-0.526v-3.049h1.135v10.637h-0.923l-0.15-1.005h-0.062
		c-0.525,0.761-1.31,1.142-2.355,1.142c-0.977,0-1.736-0.335-2.278-1.005C390.296,340.059,390.024,339.106,390.024,337.871z
		 M391.186,337.885c0,0.957,0.176,1.68,0.527,2.167s0.867,0.731,1.547,0.731c0.776,0,1.339-0.211,1.688-0.632
		c0.349-0.422,0.523-1.103,0.523-2.041v-0.239c0-1.062-0.177-1.819-0.53-2.272c-0.354-0.454-0.919-0.681-1.695-0.681
		c-0.666,0-1.176,0.259-1.53,0.776C391.363,336.211,391.186,336.941,391.186,337.885z"/>
	<path fill="#5B5B5F" d="M401.454,331.603h1.271l2.639,4.997l2.659-4.997h1.258l-3.336,6.118v3.876h-1.162v-3.821L401.454,331.603z"
		/>
	<path fill="#5B5B5F" d="M409.384,337.912c0-1.208,0.297-2.167,0.89-2.878s1.389-1.066,2.389-1.066c0.936,0,1.676,0.309,2.221,0.926
		c0.545,0.618,0.817,1.433,0.817,2.444v0.718h-5.154c0.022,0.88,0.245,1.547,0.668,2.003c0.422,0.456,1.017,0.684,1.783,0.684
		c0.805,0,1.6-0.169,2.386-0.506v1.012c-0.4,0.173-0.778,0.298-1.135,0.372c-0.357,0.076-0.787,0.113-1.292,0.113
		c-1.104,0-1.976-0.337-2.614-1.012S409.384,339.11,409.384,337.912z M410.573,337.133h3.924c0-0.716-0.16-1.264-0.479-1.644
		c-0.319-0.381-0.776-0.571-1.369-0.571c-0.603,0-1.083,0.196-1.441,0.588S410.636,336.44,410.573,337.133z"/>
	<path fill="#5B5B5F" d="M417.094,339.533c0-1.51,1.212-2.301,3.635-2.373l1.273-0.042v-0.47c0-0.596-0.126-1.035-0.379-1.318
		c-0.252-0.284-0.656-0.426-1.211-0.426c-0.623,0-1.328,0.193-2.115,0.581l-0.353-0.871c0.369-0.197,0.773-0.353,1.213-0.465
		c0.44-0.111,0.881-0.168,1.323-0.168c0.893,0,1.554,0.198,1.983,0.595c0.431,0.396,0.646,1.032,0.646,1.907v5.113h-0.841
		l-0.226-1.054h-0.055c-0.373,0.464-0.745,0.779-1.115,0.943c-0.371,0.165-0.834,0.247-1.389,0.247c-0.747,0-1.332-0.19-1.755-0.572
		C417.306,340.779,417.094,340.237,417.094,339.533z M418.298,339.547c0,0.412,0.124,0.726,0.372,0.94
		c0.248,0.216,0.595,0.323,1.04,0.323c0.705,0,1.259-0.194,1.662-0.584c0.402-0.389,0.604-0.934,0.604-1.635v-0.68l-1.133,0.048
		c-0.9,0.032-1.55,0.173-1.948,0.423C418.497,338.632,418.298,339.021,418.298,339.547z"/>
	<path fill="#5B5B5F" d="M425.441,341.597v-7.492h0.923l0.139,1.394h0.059c0.278-0.489,0.614-0.866,1.006-1.132
		s0.822-0.398,1.292-0.398c0.333,0,0.631,0.027,0.896,0.083l-0.157,1.059c-0.31-0.068-0.583-0.103-0.82-0.103
		c-0.606,0-1.125,0.246-1.555,0.737c-0.432,0.492-0.646,1.104-0.646,1.837v4.016H425.441z"/>
	<path fill="#5B5B5F" d="M430.677,335.945c0-0.611,0.248-1.094,0.744-1.447s1.177-0.53,2.042-0.53c0.802,0,1.585,0.164,2.351,0.492
		l-0.396,0.924c-0.75-0.311-1.429-0.466-2.037-0.466c-0.539,0-0.945,0.085-1.22,0.254s-0.411,0.401-0.411,0.698
		c0,0.201,0.052,0.372,0.154,0.514c0.103,0.143,0.269,0.276,0.496,0.404c0.229,0.129,0.667,0.313,1.315,0.556
		c0.889,0.324,1.486,0.65,1.792,0.979c0.307,0.329,0.46,0.742,0.46,1.24c0,0.694-0.259,1.229-0.775,1.605s-1.241,0.564-2.175,0.564
		c-0.992,0-1.766-0.155-2.32-0.465v-1.047c0.359,0.183,0.745,0.326,1.156,0.432c0.412,0.104,0.81,0.157,1.191,0.157
		c0.594,0,1.05-0.095,1.37-0.284c0.319-0.189,0.479-0.479,0.479-0.867c0-0.292-0.127-0.542-0.38-0.75
		c-0.254-0.208-0.748-0.453-1.483-0.736c-0.699-0.261-1.194-0.488-1.487-0.682c-0.292-0.194-0.51-0.415-0.653-0.662
		C430.749,336.583,430.677,336.288,430.677,335.945z"/>
	<path fill="#5B5B5F" d="M441.642,341.597v-9.994h1.162v8.955h4.409v1.039H441.642z"/>
	<path fill="#5B5B5F" d="M448.642,332.074c0-0.26,0.059-0.45,0.177-0.571c0.117-0.12,0.265-0.181,0.441-0.181
		c0.196,0,0.365,0.062,0.508,0.185s0.214,0.313,0.214,0.567s-0.071,0.445-0.214,0.571c-0.143,0.125-0.312,0.188-0.508,0.188
		c-0.177,0-0.324-0.063-0.441-0.188C448.701,332.52,448.642,332.329,448.642,332.074z M448.738,341.597v-7.492h1.039v7.492H448.738z
		"/>
	<path fill="#5B5B5F" d="M451.076,334.104h1.217l1.613,4.443c0.364,1.039,0.579,1.714,0.643,2.023h0.055
		c0.05-0.241,0.209-0.742,0.475-1.5c0.268-0.76,0.865-2.415,1.795-4.967h1.217l-2.844,7.492h-1.326L451.076,334.104z"/>
	<path fill="#5B5B5F" d="M458.876,337.912c0-1.208,0.297-2.167,0.89-2.878s1.389-1.066,2.389-1.066c0.936,0,1.676,0.309,2.221,0.926
		c0.545,0.618,0.817,1.433,0.817,2.444v0.718h-5.154c0.022,0.88,0.245,1.547,0.668,2.003c0.422,0.456,1.017,0.684,1.783,0.684
		c0.805,0,1.6-0.169,2.386-0.506v1.012c-0.4,0.173-0.778,0.298-1.135,0.372c-0.357,0.076-0.787,0.113-1.292,0.113
		c-1.104,0-1.976-0.337-2.614-1.012S458.876,339.11,458.876,337.912z M460.065,337.133h3.924c0-0.716-0.16-1.264-0.479-1.644
		c-0.319-0.381-0.776-0.571-1.369-0.571c-0.603,0-1.083,0.196-1.441,0.588S460.129,336.44,460.065,337.133z"/>
	<path fill="#5B5B5F" d="M466.73,337.871c0-1.235,0.272-2.194,0.817-2.878s1.304-1.025,2.275-1.025c1.019,0,1.799,0.369,2.342,1.107
		h0.089l-0.048-0.54l-0.027-0.526v-3.049h1.135v10.637h-0.923l-0.15-1.005h-0.062c-0.525,0.761-1.31,1.142-2.355,1.142
		c-0.977,0-1.736-0.335-2.278-1.005C467.002,340.059,466.73,339.106,466.73,337.871z M467.892,337.885
		c0,0.957,0.176,1.68,0.527,2.167s0.867,0.731,1.547,0.731c0.776,0,1.339-0.211,1.688-0.632c0.349-0.422,0.523-1.103,0.523-2.041
		v-0.239c0-1.062-0.177-1.819-0.53-2.272c-0.354-0.454-0.919-0.681-1.695-0.681c-0.666,0-1.176,0.259-1.53,0.776
		C468.069,336.211,467.892,336.941,467.892,337.885z"/>
	<path fill="#5B5B5F" d="M478.317,334.104h1.203c0.482,1.88,0.851,3.313,1.104,4.297c0.252,0.984,0.389,1.648,0.41,1.992h0.032
		c0.029-0.273,0.103-0.615,0.22-1.025c0.118-0.41,0.212-0.738,0.282-0.984l1.395-4.279h1.249l1.36,4.3
		c0.259,0.784,0.435,1.442,0.527,1.976h0.056c0.019-0.163,0.071-0.414,0.157-0.752c0.087-0.338,0.56-2.179,1.418-5.523h1.162
		l-2.069,7.492h-1.346l-1.373-4.396c-0.087-0.269-0.248-0.88-0.485-1.832h-0.055c-0.182,0.797-0.341,1.412-0.478,1.845l-1.413,4.383
		h-1.313L478.317,334.104z"/>
	<path fill="#5B5B5F" d="M490.157,332.074c0-0.26,0.059-0.45,0.177-0.571c0.117-0.12,0.265-0.181,0.441-0.181
		c0.196,0,0.365,0.062,0.508,0.185s0.214,0.313,0.214,0.567s-0.071,0.445-0.214,0.571c-0.143,0.125-0.312,0.188-0.508,0.188
		c-0.177,0-0.324-0.063-0.441-0.188C490.216,332.52,490.157,332.329,490.157,332.074z M490.253,341.597v-7.492h1.039v7.492H490.253z
		"/>
	<path fill="#5B5B5F" d="M492.802,334.986v-0.547l1.073-0.472l0.479-1.6h0.656v1.736h2.174v0.882h-2.174v4.42
		c0,0.452,0.107,0.799,0.321,1.041s0.508,0.363,0.882,0.363c0.2,0,0.395-0.015,0.581-0.045c0.187-0.029,0.335-0.061,0.444-0.092
		v0.857c-0.123,0.059-0.305,0.106-0.543,0.145c-0.24,0.038-0.455,0.058-0.646,0.058c-1.449,0-2.174-0.764-2.174-2.29v-4.457H492.802
		z"/>
	<path fill="#5B5B5F" d="M498.736,341.597V330.96h1.135v3.22c0,0.388-0.019,0.709-0.055,0.964h0.068
		c0.224-0.36,0.541-0.644,0.953-0.852c0.413-0.207,0.884-0.311,1.412-0.311c0.916,0,1.604,0.218,2.061,0.652
		c0.459,0.436,0.688,1.127,0.688,2.075v4.888h-1.135v-4.847c0-0.61-0.139-1.066-0.417-1.367s-0.713-0.451-1.306-0.451
		c-0.788,0-1.363,0.214-1.727,0.643c-0.361,0.429-0.543,1.13-0.543,2.105v3.917H498.736z"/>
	<path fill="#5B5B5F" d="M510.549,337.871c0-1.235,0.272-2.194,0.817-2.878s1.304-1.025,2.275-1.025
		c1.019,0,1.799,0.369,2.342,1.107h0.089l-0.048-0.54l-0.027-0.526v-3.049h1.135v10.637h-0.923l-0.15-1.005h-0.062
		c-0.525,0.761-1.31,1.142-2.355,1.142c-0.977,0-1.736-0.335-2.278-1.005C510.82,340.059,510.549,339.106,510.549,337.871z
		 M511.711,337.885c0,0.957,0.176,1.68,0.527,2.167s0.867,0.731,1.547,0.731c0.776,0,1.339-0.211,1.688-0.632
		c0.349-0.422,0.523-1.103,0.523-2.041v-0.239c0-1.062-0.177-1.819-0.53-2.272c-0.354-0.454-0.919-0.681-1.695-0.681
		c-0.666,0-1.176,0.259-1.53,0.776C511.887,336.211,511.711,336.941,511.711,337.885z"/>
	<path fill="#5B5B5F" d="M519.449,332.074c0-0.26,0.059-0.45,0.177-0.571c0.117-0.12,0.265-0.181,0.441-0.181
		c0.196,0,0.365,0.062,0.508,0.185s0.214,0.313,0.214,0.567s-0.071,0.445-0.214,0.571c-0.143,0.125-0.312,0.188-0.508,0.188
		c-0.177,0-0.324-0.063-0.441-0.188C519.508,332.52,519.449,332.329,519.449,332.074z M519.545,341.597v-7.492h1.039v7.492H519.545z
		"/>
	<path fill="#5B5B5F" d="M522.607,335.945c0-0.611,0.248-1.094,0.744-1.447s1.177-0.53,2.042-0.53c0.802,0,1.585,0.164,2.351,0.492
		l-0.396,0.924c-0.75-0.311-1.429-0.466-2.037-0.466c-0.539,0-0.945,0.085-1.22,0.254s-0.411,0.401-0.411,0.698
		c0,0.201,0.052,0.372,0.154,0.514c0.103,0.143,0.269,0.276,0.496,0.404c0.229,0.129,0.667,0.313,1.315,0.556
		c0.889,0.324,1.486,0.65,1.792,0.979c0.307,0.329,0.46,0.742,0.46,1.24c0,0.694-0.259,1.229-0.775,1.605s-1.241,0.564-2.175,0.564
		c-0.992,0-1.766-0.155-2.32-0.465v-1.047c0.359,0.183,0.745,0.326,1.156,0.432c0.412,0.104,0.81,0.157,1.191,0.157
		c0.594,0,1.05-0.095,1.37-0.284c0.319-0.189,0.479-0.479,0.479-0.867c0-0.292-0.127-0.542-0.38-0.75
		c-0.254-0.208-0.748-0.453-1.483-0.736c-0.699-0.261-1.194-0.488-1.487-0.682c-0.292-0.194-0.51-0.415-0.653-0.662
		C522.678,336.583,522.607,336.288,522.607,335.945z"/>
	<path fill="#5B5B5F" d="M529.204,339.533c0-1.51,1.212-2.301,3.635-2.373l1.273-0.042v-0.47c0-0.596-0.126-1.035-0.379-1.318
		c-0.252-0.284-0.656-0.426-1.211-0.426c-0.623,0-1.328,0.193-2.115,0.581l-0.353-0.871c0.369-0.197,0.773-0.353,1.213-0.465
		c0.44-0.111,0.881-0.168,1.323-0.168c0.893,0,1.554,0.198,1.983,0.595c0.431,0.396,0.646,1.032,0.646,1.907v5.113h-0.841
		l-0.226-1.054h-0.055c-0.373,0.464-0.745,0.779-1.115,0.943c-0.371,0.165-0.834,0.247-1.389,0.247c-0.747,0-1.332-0.19-1.755-0.572
		C529.416,340.779,529.204,340.237,529.204,339.533z M530.407,339.547c0,0.412,0.124,0.726,0.372,0.94
		c0.248,0.216,0.595,0.323,1.04,0.323c0.705,0,1.259-0.194,1.662-0.584c0.402-0.389,0.604-0.934,0.604-1.635v-0.68l-1.133,0.048
		c-0.9,0.032-1.55,0.173-1.948,0.423C530.606,338.632,530.407,339.021,530.407,339.547z"/>
	<path fill="#5B5B5F" d="M537.551,341.597V330.96h1.135v2.584c0,0.579-0.019,1.099-0.055,1.559h0.055
		c0.528-0.747,1.313-1.121,2.352-1.121c0.98,0,1.741,0.336,2.283,1.008c0.542,0.673,0.813,1.624,0.813,2.854
		s-0.273,2.187-0.82,2.868c-0.547,0.681-1.306,1.021-2.276,1.021c-0.487,0-0.934-0.09-1.336-0.27
		c-0.404-0.181-0.742-0.457-1.016-0.831h-0.082l-0.239,0.964H537.551z M538.685,337.844c0,1.053,0.176,1.806,0.526,2.259
		c0.351,0.454,0.914,0.681,1.688,0.681c0.697,0,1.217-0.254,1.559-0.763c0.342-0.508,0.513-1.238,0.513-2.19
		c0-0.976-0.171-1.702-0.513-2.181s-0.87-0.718-1.586-0.718c-0.774,0-1.333,0.222-1.675,0.667
		C538.856,336.042,538.685,336.791,538.685,337.844z"/>
	<path fill="#5B5B5F" d="M546.034,332.074c0-0.26,0.059-0.45,0.177-0.571c0.117-0.12,0.265-0.181,0.441-0.181
		c0.196,0,0.365,0.062,0.508,0.185s0.214,0.313,0.214,0.567s-0.071,0.445-0.214,0.571c-0.143,0.125-0.312,0.188-0.508,0.188
		c-0.177,0-0.324-0.063-0.441-0.188C546.093,332.52,546.034,332.329,546.034,332.074z M546.13,341.597v-7.492h1.039v7.492H546.13z"
		/>
	<path fill="#5B5B5F" d="M549.671,341.597V330.96h1.135v10.637H549.671z"/>
	<path fill="#5B5B5F" d="M553.116,332.074c0-0.26,0.059-0.45,0.177-0.571c0.117-0.12,0.265-0.181,0.441-0.181
		c0.196,0,0.365,0.062,0.508,0.185s0.214,0.313,0.214,0.567s-0.071,0.445-0.214,0.571c-0.143,0.125-0.312,0.188-0.508,0.188
		c-0.177,0-0.324-0.063-0.441-0.188C553.175,332.52,553.116,332.329,553.116,332.074z M553.212,341.597v-7.492h1.039v7.492H553.212z
		"/>
	<path fill="#5B5B5F" d="M555.761,334.986v-0.547l1.073-0.472l0.479-1.6h0.656v1.736h2.174v0.882h-2.174v4.42
		c0,0.452,0.107,0.799,0.321,1.041s0.508,0.363,0.882,0.363c0.2,0,0.395-0.015,0.581-0.045c0.187-0.029,0.335-0.061,0.444-0.092
		v0.857c-0.123,0.059-0.305,0.106-0.543,0.145c-0.24,0.038-0.455,0.058-0.646,0.058c-1.449,0-2.174-0.764-2.174-2.29v-4.457H555.761
		z"/>
	<path fill="#5B5B5F" d="M560.506,334.104h1.217l1.641,4.27c0.36,0.975,0.583,1.679,0.67,2.111h0.055
		c0.06-0.232,0.184-0.63,0.373-1.192c0.188-0.563,0.808-2.292,1.855-5.188h1.217l-3.22,8.531c-0.319,0.843-0.691,1.441-1.118,1.795
		c-0.426,0.353-0.948,0.529-1.568,0.529c-0.347,0-0.688-0.039-1.025-0.117v-0.915c0.251,0.055,0.531,0.082,0.841,0.082
		c0.779,0,1.335-0.438,1.668-1.312l0.417-1.065L560.506,334.104z"/>
	<path fill="#5B5B5F" d="M571.744,337.762c0-1.208,0.179-2.338,0.536-3.391c0.356-1.053,0.869-1.976,1.535-2.769h1.107
		c-0.656,0.88-1.149,1.846-1.479,2.898c-0.331,1.053-0.496,2.135-0.496,3.247c0,1.094,0.169,2.162,0.506,3.206
		s0.822,1.996,1.456,2.857h-1.094c-0.671-0.774-1.184-1.68-1.539-2.714C571.922,340.063,571.744,338.951,571.744,337.762z"/>
	<path fill="#5B5B5F" d="M575.326,331.603h1.271l2.639,4.997l2.659-4.997h1.258l-3.336,6.118v3.876h-1.162v-3.821L575.326,331.603z"
		/>
	<path fill="#5B5B5F" d="M584.541,341.597v-9.994h1.162v8.955h4.409v1.039H584.541z"/>
	<path fill="#5B5B5F" d="M591.807,341.597v-9.994h3.063c1.554,0,2.762,0.431,3.623,1.292s1.292,2.064,1.292,3.609
		c0,1.649-0.447,2.911-1.344,3.784c-0.895,0.872-2.184,1.309-3.865,1.309H591.807z M592.969,340.592h1.415
		c1.386,0,2.427-0.341,3.124-1.022c0.697-0.681,1.046-1.689,1.046-3.024c0-1.304-0.327-2.285-0.98-2.946
		c-0.654-0.661-1.626-0.991-2.916-0.991h-1.688V340.592z"/>
	<path fill="#5B5B5F" d="M601.056,331.603h1.107c0.671,0.798,1.184,1.724,1.539,2.779c0.354,1.055,0.532,2.182,0.532,3.38
		s-0.179,2.315-0.536,3.35s-0.869,1.935-1.535,2.7h-1.094c0.634-0.856,1.119-1.809,1.456-2.854c0.337-1.047,0.506-2.116,0.506-3.21
		c0-1.112-0.165-2.194-0.496-3.247C602.206,333.448,601.713,332.482,601.056,331.603z"/>
</g>
</svg>
