<?xml version="1.0" encoding="utf-8"?>
<!-- Generator: Adobe Illustrator 16.0.0, SVG Export Plug-In . SVG Version: 6.00 Build 0)  -->
<!DOCTYPE svg PUBLIC "-//W3C//DTD SVG 1.1//EN" "http://www.w3.org/Graphics/SVG/1.1/DTD/svg11.dtd">
<svg version="1.1" id="Capa_1" xmlns="http://www.w3.org/2000/svg" xmlns:xlink="http://www.w3.org/1999/xlink" x="0px" y="0px"
	 width="291.969px" height="850.394px" viewBox="0 0 291.969 850.394" enable-background="new 0 0 291.969 850.394"
	 xml:space="preserve">
<g>
	<g>
		<rect x="125.494" y="216.192" fill="#449FA2" width="100.489" height="122.966"/>
		<rect x="125.494" y="91.127" fill="#F2C466" width="100.489" height="125.064"/>
	</g>
	<g>
		<path fill="#666565" d="M66.455,44.802c0-1.549,0.313-2.906,0.934-4.071s1.521-2.055,2.688-2.67
			c1.168-0.615,2.537-0.922,4.104-0.922c1.59,0,3.07,0.292,4.443,0.876l-0.672,1.529c-1.353-0.571-2.646-0.856-3.89-0.856
			c-1.813,0-3.229,0.54-4.25,1.62c-1.02,1.08-1.522,2.578-1.522,4.494c0,2.018,0.492,3.548,1.475,4.591
			c0.98,1.043,2.422,1.564,4.324,1.564c1.033,0,2.043-0.12,3.027-0.358v-4.604h-3.332v-1.549h5.063v7.255
			c-0.787,0.248-1.59,0.436-2.399,0.563c-0.814,0.127-1.765,0.191-2.836,0.191c-2.257,0-4.015-0.67-5.271-2.012
			C67.082,49.101,66.455,47.221,66.455,44.802z"/>
		<path fill="#666565" d="M82.168,52.251V36.395h1.688v15.856H82.168z"/>
		<path fill="#666565" d="M86.826,46.647c0-1.817,0.455-3.233,1.354-4.247c0.908-1.014,2.168-1.521,3.779-1.521
			c1.559,0,2.797,0.519,3.715,1.556c0.916,1.038,1.375,2.441,1.375,4.211c0,1.824-0.457,3.248-1.371,4.272
			c-0.916,1.024-2.18,1.536-3.791,1.536c-0.996,0-1.879-0.234-2.646-0.704c-0.771-0.47-1.367-1.144-1.787-2.021
			S86.826,47.824,86.826,46.647z M88.557,46.647c0,1.43,0.285,2.52,0.855,3.269c0.572,0.749,1.412,1.124,2.521,1.124
			c1.109,0,1.951-0.373,2.525-1.119c0.576-0.746,0.863-1.837,0.863-3.273c0-1.423-0.289-2.504-0.863-3.243
			c-0.572-0.739-1.424-1.108-2.545-1.108c-1.109,0-1.945,0.364-2.51,1.093C88.84,44.117,88.557,45.203,88.557,46.647z"/>
		<path fill="#666565" d="M100.052,52.251V36.395h1.691v3.852c0,0.863-0.027,1.637-0.082,2.323h0.082
			c0.787-1.114,1.957-1.671,3.506-1.671c1.459,0,2.596,0.501,3.4,1.503c0.811,1.002,1.215,2.42,1.215,4.254
			s-0.408,3.259-1.229,4.274c-0.813,1.016-1.938,1.523-3.395,1.523c-0.729,0-1.396-0.134-1.992-0.402
			c-0.604-0.268-1.105-0.681-1.514-1.238h-0.119l-0.355,1.437L100.052,52.251L100.052,52.251z M101.744,46.657
			c0,1.569,0.262,2.692,0.785,3.368c0.521,0.676,1.356,1.014,2.518,1.014c1.039,0,1.813-0.379,2.322-1.136
			c0.51-0.758,0.766-1.846,0.766-3.266c0-1.454-0.256-2.538-0.766-3.251c-0.51-0.713-1.297-1.07-2.363-1.07
			c-1.154,0-1.986,0.331-2.498,0.994C101.998,43.971,101.744,45.088,101.744,46.657z"/>
		<path fill="#666565" d="M112.006,49.175c0-2.25,1.807-3.429,5.418-3.537l1.898-0.062v-0.702c0-0.887-0.188-1.542-0.564-1.965
			c-0.376-0.423-0.979-0.634-1.807-0.634c-0.935,0-1.979,0.289-3.152,0.866l-0.525-1.298c0.556-0.294,1.152-0.525,1.813-0.692
			s1.313-0.251,1.973-0.251c1.33,0,2.314,0.295,2.957,0.887c0.646,0.591,0.961,1.539,0.961,2.843v7.622h-1.252l-0.336-1.571h-0.082
			c-0.557,0.693-1.106,1.162-1.664,1.407c-0.553,0.246-1.237,0.368-2.065,0.368c-1.109,0-1.982-0.284-2.613-0.853
			C112.322,51.033,112.006,50.224,112.006,49.175z M113.799,49.195c0,0.615,0.188,1.082,0.555,1.403
			c0.369,0.321,0.894,0.481,1.558,0.481c1.051,0,1.875-0.29,2.477-0.87c0.604-0.581,0.9-1.393,0.9-2.437v-1.014l-1.688,0.071
			c-1.344,0.048-2.313,0.258-2.899,0.63C114.097,47.831,113.799,48.41,113.799,49.195z"/>
		<path fill="#666565" d="M124.449,52.251V36.395h1.688v15.856H124.449z"/>
		<path fill="#666565" d="M134.525,46.758c0-1.8,0.438-3.23,1.321-4.29c0.89-1.06,2.07-1.589,3.563-1.589
			c1.396,0,2.498,0.46,3.313,1.38c0.813,0.921,1.227,2.135,1.227,3.643v1.07h-7.688c0.033,1.311,0.365,2.306,0.994,2.985
			c0.629,0.68,1.521,1.019,2.658,1.019c1.199,0,2.387-0.251,3.559-0.754v1.508c-0.598,0.258-1.155,0.443-1.688,0.555
			c-0.531,0.112-1.175,0.168-1.928,0.168c-1.646,0-2.941-0.502-3.896-1.508C135.002,49.942,134.525,48.546,134.525,46.758z
			 M136.299,45.597h5.849c0-1.066-0.23-1.883-0.715-2.451c-0.479-0.567-1.15-0.851-2.041-0.851c-0.896,0-1.609,0.292-2.146,0.876
			C136.709,43.756,136.393,44.564,136.299,45.597z"/>
		<path fill="#666565" d="M146.141,43.827c0-0.911,0.371-1.63,1.107-2.158c0.74-0.527,1.756-0.791,3.043-0.791
			c1.195,0,2.363,0.244,3.508,0.733l-0.594,1.377c-1.113-0.463-2.129-0.695-3.035-0.695c-0.805,0-1.408,0.126-1.816,0.378
			c-0.4,0.251-0.605,0.599-0.605,1.042c0,0.3,0.076,0.555,0.229,0.766c0.148,0.211,0.396,0.412,0.74,0.603
			c0.34,0.191,0.99,0.467,1.961,0.828c1.318,0.483,2.215,0.97,2.67,1.46c0.457,0.49,0.688,1.104,0.688,1.849
			c0,1.034-0.391,1.832-1.156,2.393c-0.77,0.561-1.852,0.841-3.242,0.841c-1.479,0-2.631-0.23-3.457-0.693v-1.559
			c0.535,0.272,1.109,0.487,1.73,0.644c0.607,0.157,1.203,0.235,1.77,0.235c0.885,0,1.564-0.141,2.043-0.424
			c0.48-0.283,0.715-0.713,0.715-1.292c0-0.438-0.188-0.809-0.563-1.119c-0.379-0.31-1.113-0.676-2.211-1.098
			c-1.043-0.388-1.781-0.727-2.227-1.017c-0.436-0.29-0.76-0.618-0.974-0.986C146.248,44.777,146.141,44.338,146.141,43.827z"/>
		<path fill="#666565" d="M155.334,42.397v-0.815l1.6-0.703l0.713-2.385h0.979v2.588h3.24v1.314h-3.24v6.588
			c0,0.674,0.16,1.191,0.479,1.552c0.318,0.361,0.764,0.542,1.314,0.542c0.303,0,0.59-0.022,0.867-0.066
			c0.27-0.044,0.498-0.09,0.662-0.138v1.278c-0.189,0.087-0.453,0.159-0.814,0.216c-0.354,0.057-0.68,0.085-0.963,0.085
			c-2.16,0-3.24-1.138-3.24-3.414v-6.644h-1.602L155.334,42.397L155.334,42.397z"/>
		<path fill="#666565" d="M164.037,38.056c0-0.387,0.088-0.671,0.264-0.851c0.176-0.18,0.396-0.27,0.658-0.27
			c0.293,0,0.545,0.092,0.758,0.275c0.213,0.184,0.318,0.466,0.318,0.846c0,0.38-0.105,0.664-0.318,0.851
			c-0.213,0.187-0.465,0.28-0.758,0.28c-0.266,0-0.482-0.093-0.658-0.28C164.125,38.72,164.037,38.437,164.037,38.056z
			 M164.18,52.251V41.083h1.549v11.168H164.18z"/>
		<path fill="#666565" d="M169.457,52.251V41.083h1.375l0.27,1.509h0.082c0.318-0.537,0.771-0.957,1.355-1.259
			c0.582-0.302,1.229-0.453,1.953-0.453c1.746,0,2.887,0.625,3.424,1.876h0.082c0.332-0.579,0.813-1.036,1.445-1.372
			c0.631-0.336,1.354-0.504,2.154-0.504c1.271,0,2.209,0.324,2.838,0.973c0.637,0.648,0.943,1.687,0.943,3.113v7.286h-1.688v-7.281
			c0-0.892-0.189-1.561-0.57-2.006c-0.381-0.445-0.977-0.669-1.771-0.669c-1.055,0-1.832,0.303-2.334,0.909
			c-0.502,0.605-0.754,1.538-0.754,2.798v6.249h-1.688v-7.281c0-0.892-0.188-1.561-0.568-2.006
			c-0.383-0.445-0.979-0.669-1.783-0.669c-1.063,0-1.836,0.318-2.328,0.955c-0.486,0.637-0.734,1.68-0.734,3.13v5.871
			L169.457,52.251L169.457,52.251z"/>
		<path fill="#666565" d="M188.035,49.175c0-2.25,1.807-3.429,5.418-3.537l1.895-0.062v-0.702c0-0.887-0.188-1.542-0.563-1.965
			c-0.377-0.423-0.979-0.634-1.813-0.634c-0.928,0-1.979,0.289-3.146,0.866l-0.523-1.298c0.549-0.294,1.15-0.525,1.813-0.692
			c0.65-0.167,1.313-0.251,1.973-0.251c1.33,0,2.314,0.295,2.957,0.887c0.645,0.591,0.965,1.539,0.965,2.843v7.622h-1.256
			l-0.336-1.571h-0.082c-0.557,0.693-1.107,1.162-1.66,1.407c-0.555,0.246-1.242,0.368-2.07,0.368c-1.105,0-1.979-0.284-2.609-0.853
			C188.35,51.033,188.035,50.224,188.035,49.175z M189.83,49.195c0,0.615,0.186,1.082,0.553,1.403
			c0.371,0.321,0.889,0.481,1.553,0.481c1.059,0,1.875-0.29,2.479-0.87c0.602-0.581,0.896-1.393,0.896-2.437v-1.014l-1.688,0.071
			c-1.342,0.048-2.314,0.258-2.902,0.63C190.129,47.831,189.83,48.41,189.83,49.195z"/>
		<path fill="#666565" d="M198.998,42.397v-0.815l1.602-0.703l0.713-2.385h0.979v2.588h3.24v1.314h-3.24v6.588
			c0,0.674,0.16,1.191,0.479,1.552c0.318,0.361,0.764,0.542,1.314,0.542c0.301,0,0.588-0.022,0.865-0.066
			c0.27-0.044,0.5-0.09,0.662-0.138v1.278c-0.189,0.087-0.453,0.159-0.814,0.216c-0.354,0.057-0.68,0.085-0.965,0.085
			c-2.156,0-3.238-1.138-3.238-3.414v-6.644h-1.602L198.998,42.397L198.998,42.397z"/>
		<path fill="#666565" d="M207.223,46.758c0-1.8,0.441-3.23,1.326-4.29c0.885-1.06,2.07-1.589,3.563-1.589
			c1.396,0,2.498,0.46,3.313,1.38c0.814,0.921,1.221,2.135,1.221,3.643v1.07h-7.688c0.035,1.311,0.367,2.306,0.996,2.985
			c0.629,0.68,1.518,1.019,2.656,1.019c1.193,0,2.387-0.251,3.559-0.754v1.508c-0.598,0.258-1.158,0.443-1.689,0.555
			c-0.527,0.112-1.174,0.168-1.926,0.168c-1.645,0-2.939-0.502-3.895-1.508C207.699,49.942,207.223,48.546,207.223,46.758z
			 M208.996,45.597h5.85c0-1.066-0.238-1.883-0.715-2.451c-0.479-0.567-1.156-0.851-2.041-0.851c-0.896,0-1.615,0.292-2.146,0.876
			C209.406,43.756,209.09,44.564,208.996,45.597z"/>
	</g>
	<g>
		<path fill="#9A999E" d="M36.912,96.392v-1.199l3.27-3.299c0.996-1.012,1.652-1.734,1.971-2.166
			c0.316-0.432,0.562-0.853,0.718-1.262c0.153-0.409,0.233-0.85,0.233-1.321c0-0.665-0.201-1.192-0.604-1.582
			c-0.403-0.39-0.961-0.584-1.676-0.584c-0.521,0-1.009,0.085-1.47,0.256c-0.462,0.17-0.976,0.48-1.541,0.93l-0.746-0.964
			c1.146-0.935,2.396-1.402,3.735-1.402c1.166,0,2.081,0.297,2.743,0.891c0.662,0.594,0.994,1.393,0.994,2.396
			c0,0.79-0.228,1.572-0.664,2.345c-0.439,0.773-1.271,1.751-2.479,2.934l-2.717,2.669v0.068h6.387v1.291L36.912,96.392
			L36.912,96.392L36.912,96.392z"/>
		<path fill="#9A999E" d="M50.982,93.547v-1.239l5.896-8.399h1.494v8.347h1.854v1.291h-1.854v2.845H57.04v-2.845H50.982z
			 M52.408,92.256h4.631v-4.127c0-0.81,0.021-1.724,0.084-2.743h-0.068c-0.271,0.543-0.525,0.994-0.764,1.35L52.408,92.256z"/>
		<path fill="#9A999E" d="M60.926,93.547v-1.239l5.895-8.399h1.494v8.347h1.859v1.291h-1.859v2.845H66.98v-2.845H60.926z
			 M62.354,92.256h4.627v-4.127c0-0.81,0.027-1.724,0.084-2.743H67c-0.271,0.543-0.525,0.994-0.771,1.35L62.354,92.256z"/>
		<path fill="#9A999E" d="M71.404,93.224c0-1.421,0.871-2.528,2.615-3.32c-0.791-0.441-1.354-0.918-1.701-1.431
			c-0.342-0.513-0.516-1.086-0.516-1.72c0-0.9,0.334-1.618,1.004-2.153c0.67-0.535,1.564-0.802,2.688-0.802
			c1.137,0,2.03,0.263,2.694,0.79c0.666,0.526,0.998,1.254,0.998,2.183c0,0.611-0.188,1.169-0.567,1.673
			c-0.388,0.504-0.99,0.962-1.828,1.375c1.012,0.481,1.729,0.986,2.158,1.516c0.428,0.53,0.641,1.143,0.641,1.839
			c0,1.03-0.359,1.853-1.082,2.467c-0.721,0.614-1.709,0.921-2.963,0.921c-1.33,0-2.354-0.29-3.066-0.871
			C71.762,95.111,71.404,94.289,71.404,93.224z M72.814,93.258c0,0.679,0.236,1.208,0.709,1.588c0.478,0.379,1.14,0.569,1.986,0.569
			c0.844,0,1.498-0.198,1.969-0.594c0.469-0.396,0.703-0.94,0.703-1.631c0-0.549-0.221-1.037-0.66-1.465
			c-0.438-0.427-1.211-0.842-2.307-1.244c-0.842,0.362-1.453,0.763-1.832,1.202S72.814,92.647,72.814,93.258z M73.213,86.813
			c0,0.521,0.168,0.968,0.5,1.341c0.334,0.374,0.949,0.748,1.85,1.121c0.813-0.34,1.379-0.705,1.717-1.095
			c0.341-0.391,0.509-0.847,0.509-1.367c0-0.572-0.203-1.026-0.613-1.363c-0.41-0.336-0.979-0.505-1.691-0.505
			c-0.707,0-1.26,0.17-1.662,0.51C73.416,85.794,73.213,86.247,73.213,86.813z"/>
		<g>
			<path fill="#9A999E" d="M46.942,99.017c0.146-0.542,0.295-1.211,0.47-2.008c0.169-0.797,0.283-1.435,0.354-1.914h1.415
				l0.117,0.18c-0.135,0.521-0.329,1.126-0.583,1.816c-0.254,0.69-0.521,1.332-0.793,1.926H46.942z"/>
		</g>
	</g>
	<g>
		<path fill="#9A999E" d="M71.387,332.929c0-2.161,0.34-3.765,1.016-4.812c0.683-1.047,1.707-1.57,3.099-1.57
			c1.346,0,2.36,0.546,3.063,1.638c0.697,1.093,1.047,2.673,1.047,4.744c0,2.147-0.338,3.75-1.014,4.81
			c-0.676,1.063-1.709,1.59-3.104,1.59c-1.345,0-2.357-0.543-3.062-1.627C71.736,336.616,71.387,335.026,71.387,332.929z
			 M72.832,332.929c0,1.802,0.213,3.112,0.637,3.936c0.424,0.823,1.1,1.231,2.025,1.231c0.938,0,1.612-0.417,2.032-1.25
			c0.429-0.833,0.64-2.139,0.64-3.918c0-1.777-0.211-3.082-0.64-3.908c-0.42-0.828-1.102-1.242-2.032-1.242
			c-0.932,0-1.604,0.408-2.025,1.227C73.045,329.819,72.832,331.127,72.832,332.929z"/>
	</g>
	<g>
		<path fill="#FFFFFF" d="M157.563,277.675h-3.146v-8.621l0.021-1.417l0.061-1.549c-0.521,0.523-0.896,0.866-1.1,1.029l-1.711,1.375
			l-1.52-1.896l4.799-3.82h2.59L157.563,277.675L157.563,277.675z"/>
		<path fill="#FFFFFF" d="M178.053,277.675h-10.414v-2.19l3.74-3.78c1.104-1.136,1.83-1.921,2.17-2.359
			c0.34-0.438,0.584-0.844,0.729-1.218c0.148-0.374,0.229-0.762,0.229-1.162c0-0.6-0.164-1.042-0.494-1.335
			c-0.328-0.292-0.768-0.438-1.318-0.438c-0.57,0-1.139,0.131-1.682,0.396c-0.543,0.266-1.111,0.643-1.701,1.131l-1.713-2.027
			c0.732-0.625,1.342-1.065,1.824-1.326c0.479-0.258,1.008-0.456,1.58-0.596c0.563-0.139,1.209-0.209,1.916-0.209
			c0.93,0,1.752,0.17,2.465,0.51c0.715,0.342,1.268,0.815,1.662,1.429c0.395,0.61,0.59,1.312,0.59,2.099
			c0,0.688-0.121,1.33-0.359,1.932c-0.234,0.602-0.605,1.218-1.121,1.85c-0.506,0.632-1.396,1.531-2.676,2.701l-1.916,1.804v0.146
			h6.49L178.053,277.675L178.053,277.675z"/>
		<path fill="#FFFFFF" d="M189.967,277.675h-10.416v-2.19l3.74-3.78c1.104-1.136,1.832-1.921,2.172-2.359
			c0.338-0.438,0.584-0.844,0.729-1.218c0.146-0.374,0.229-0.762,0.229-1.162c0-0.6-0.166-1.042-0.494-1.335
			c-0.33-0.292-0.771-0.438-1.318-0.438c-0.578,0-1.139,0.131-1.684,0.396c-0.543,0.266-1.109,0.643-1.701,1.131l-1.713-2.027
			c0.734-0.625,1.342-1.065,1.824-1.326c0.479-0.258,1.01-0.456,1.58-0.596c0.565-0.139,1.209-0.209,1.916-0.209
			c0.932,0,1.752,0.17,2.467,0.51c0.713,0.342,1.268,0.815,1.66,1.429c0.395,0.61,0.592,1.312,0.592,2.099
			c0,0.688-0.121,1.33-0.361,1.932c-0.242,0.602-0.612,1.218-1.121,1.85c-0.506,0.632-1.396,1.531-2.674,2.701l-1.916,1.804v0.146
			h6.49L189.967,277.675L189.967,277.675z"/>
		<path fill="#FFFFFF" d="M201.297,266.11c0,0.932-0.281,1.723-0.846,2.375c-0.564,0.651-1.355,1.102-2.373,1.346v0.062
			c1.194,0.149,2.106,0.517,2.729,1.097c0.618,0.58,0.928,1.363,0.928,2.349c0,1.433-0.521,2.549-1.561,3.347
			c-1.039,0.799-2.523,1.197-4.453,1.197c-1.615,0-3.049-0.268-4.299-0.805v-2.68c0.576,0.291,1.211,0.528,1.904,0.713
			c0.688,0.184,1.379,0.273,2.059,0.273c1.041,0,1.809-0.176,2.305-0.529s0.744-0.921,0.744-1.701c0-0.701-0.285-1.196-0.854-1.488
			c-0.57-0.292-1.479-0.438-2.729-0.438h-1.131v-2.416h1.149c1.146,0,1.996-0.151,2.521-0.453c0.533-0.303,0.809-0.819,0.809-1.555
			c0-1.127-0.705-1.691-2.119-1.691c-0.488,0-0.983,0.082-1.492,0.246c-0.506,0.162-1.065,0.444-1.688,0.847l-1.457-2.17
			c1.356-0.979,2.979-1.47,4.859-1.47c1.541,0,2.76,0.313,3.651,0.938C200.85,264.128,201.297,264.995,201.297,266.11z"/>
		<g>
			<path fill="#FFFFFF" d="M161.154,279.945c0.146-0.542,0.3-1.211,0.47-2.008c0.169-0.797,0.282-1.435,0.354-1.914h1.414
				l0.115,0.18c-0.135,0.521-0.329,1.126-0.583,1.816s-0.521,1.332-0.793,1.926H161.154z"/>
		</g>
	</g>
	<g>
		<path fill="#FFFFFF" d="M157.563,161.909h-3.146v-8.621l0.021-1.417l0.061-1.549c-0.521,0.521-0.896,0.866-1.1,1.029l-1.711,1.375
			l-1.52-1.895l4.799-3.821h2.59L157.563,161.909L157.563,161.909z"/>
		<path fill="#FFFFFF" d="M178.053,161.909h-10.414v-2.191l3.74-3.781c1.104-1.134,1.83-1.92,2.17-2.359
			c0.34-0.438,0.584-0.844,0.729-1.218c0.148-0.374,0.229-0.761,0.229-1.162c0-0.598-0.164-1.042-0.494-1.335
			c-0.328-0.292-0.768-0.438-1.318-0.438c-0.57,0-1.139,0.132-1.682,0.397c-0.543,0.265-1.111,0.642-1.701,1.131l-1.713-2.028
			c0.732-0.625,1.342-1.066,1.824-1.325c0.479-0.258,1.008-0.457,1.58-0.596c0.563-0.139,1.209-0.209,1.916-0.209
			c0.93,0,1.752,0.17,2.465,0.51c0.715,0.34,1.268,0.815,1.662,1.427c0.395,0.611,0.59,1.311,0.59,2.099
			c0,0.686-0.121,1.33-0.359,1.931c-0.234,0.601-0.605,1.217-1.121,1.849c-0.506,0.632-1.396,1.532-2.676,2.701l-1.916,1.804v0.143
			h6.49L178.053,161.909L178.053,161.909z"/>
		<path fill="#FFFFFF" d="M189.967,161.909h-10.416v-2.191l3.74-3.781c1.104-1.134,1.832-1.92,2.172-2.359
			c0.338-0.438,0.584-0.844,0.729-1.218c0.146-0.374,0.229-0.761,0.229-1.162c0-0.598-0.166-1.042-0.494-1.335
			c-0.33-0.292-0.771-0.438-1.318-0.438c-0.578,0-1.139,0.132-1.684,0.397c-0.543,0.265-1.109,0.642-1.701,1.131l-1.713-2.028
			c0.734-0.625,1.342-1.066,1.824-1.325c0.479-0.258,1.01-0.457,1.58-0.596c0.565-0.139,1.209-0.209,1.916-0.209
			c0.932,0,1.752,0.17,2.467,0.51c0.713,0.34,1.268,0.815,1.66,1.427c0.395,0.611,0.592,1.311,0.592,2.099
			c0,0.686-0.121,1.33-0.361,1.931c-0.242,0.601-0.612,1.217-1.121,1.849c-0.506,0.632-1.396,1.532-2.674,2.701l-1.916,1.804v0.143
			h6.49L189.967,161.909L189.967,161.909z"/>
		<path fill="#FFFFFF" d="M196.885,152.392c1.439,0,2.586,0.404,3.439,1.212c0.854,0.809,1.274,1.916,1.274,3.322
			c0,1.665-0.517,2.945-1.539,3.842c-1.021,0.896-2.494,1.345-4.396,1.345c-1.658,0-2.996-0.271-4.021-0.805v-2.721
			c0.537,0.285,1.162,0.518,1.875,0.698c0.713,0.18,1.396,0.27,2.024,0.27c1.925,0,2.888-0.788,2.888-2.364
			c0-1.501-0.994-2.252-2.986-2.252c-0.354,0-0.756,0.036-1.188,0.107c-0.438,0.071-0.789,0.148-1.063,0.229l-1.252-0.672
			l0.563-7.592h8.08v2.669h-5.318l-0.271,2.925l0.354-0.071C195.76,152.439,196.275,152.392,196.885,152.392z"/>
		<g>
			<path fill="#FFFFFF" d="M161.154,164.176c0.146-0.542,0.3-1.211,0.47-2.008c0.169-0.797,0.282-1.435,0.354-1.914h1.414
				l0.115,0.18c-0.135,0.521-0.329,1.126-0.583,1.816s-0.521,1.332-0.793,1.926H161.154L161.154,164.176z"/>
		</g>
	</g>
	<g>
		<path fill="#87868A" d="M64.021,231.832H49.123v-4.208c0-1.978,0.295-3.407,0.885-4.29c0.592-0.885,1.521-1.325,2.801-1.325
			c0.883,0,1.609,0.246,2.188,0.739c0.567,0.492,0.94,1.211,1.11,2.154h0.104c0.389-2.248,1.578-3.373,3.566-3.373
			c1.329,0,2.368,0.449,3.116,1.349c0.748,0.897,1.121,2.153,1.121,3.769L64.021,231.832L64.021,231.832z M55.49,230.1v-2.853
			c0-1.224-0.189-2.103-0.572-2.64c-0.385-0.537-1.027-0.807-1.938-0.807c-0.834,0-1.436,0.299-1.805,0.896
			c-0.369,0.597-0.555,1.55-0.555,2.854v2.547L55.49,230.1L55.49,230.1z M62.543,230.1v-3.107c0-1.2-0.23-2.105-0.697-2.715
			c-0.465-0.607-1.193-0.912-2.188-0.912c-0.929,0-1.605,0.312-2.037,0.934c-0.438,0.621-0.652,1.566-0.652,2.838v2.965
			L62.543,230.1L62.543,230.1z"/>
		<path fill="#87868A" d="M49.826,218.707c-0.394,0-0.677-0.087-0.854-0.264c-0.182-0.177-0.271-0.396-0.271-0.657
			c0-0.294,0.092-0.546,0.271-0.759c0.188-0.211,0.465-0.317,0.846-0.317c0.388,0,0.664,0.106,0.854,0.317
			c0.188,0.213,0.279,0.465,0.279,0.759c0,0.264-0.101,0.48-0.279,0.657C50.49,218.62,50.207,218.707,49.826,218.707z
			 M64.021,218.565H52.854v-1.549h11.168L64.021,218.565L64.021,218.565z"/>
		<path fill="#87868A" d="M64.021,213.286H48.166v-1.691H64.02L64.021,213.286L64.021,213.286z"/>
		<path fill="#87868A" d="M64.021,208.008H48.166v-1.691H64.02L64.021,208.008L64.021,208.008z"/>
		<path fill="#87868A" d="M49.826,202.872c-0.394,0-0.677-0.089-0.854-0.265c-0.182-0.176-0.271-0.396-0.271-0.656
			c0-0.293,0.092-0.547,0.271-0.758c0.188-0.213,0.465-0.318,0.846-0.318c0.388,0,0.664,0.105,0.854,0.318
			c0.188,0.211,0.279,0.465,0.279,0.758c0,0.263-0.101,0.48-0.279,0.656C50.49,202.784,50.207,202.872,49.826,202.872z
			 M64.021,202.731H52.854v-1.55h11.168L64.021,202.731L64.021,202.731z"/>
		<path fill="#87868A" d="M58.416,198.073c-1.816,0-3.23-0.455-4.246-1.361c-1.021-0.908-1.521-2.168-1.521-3.78
			c0-1.558,0.521-2.795,1.563-3.713c1.035-0.918,2.438-1.377,4.211-1.377c1.822,0,3.248,0.457,4.271,1.372
			c1.023,0.914,1.537,2.178,1.537,3.789c0,0.996-0.229,1.88-0.705,2.652c-0.471,0.771-1.145,1.367-2.021,1.787
			C60.623,197.862,59.594,198.073,58.416,198.073z M58.416,196.34c1.43,0,2.521-0.286,3.27-0.857
			c0.75-0.569,1.125-1.412,1.125-2.521s-0.373-1.951-1.119-2.526c-0.746-0.574-1.838-0.861-3.271-0.861
			c-1.424,0-2.504,0.287-3.244,0.861c-0.736,0.575-1.107,1.424-1.107,2.547c0,1.108,0.365,1.945,1.101,2.51
			C55.887,196.058,56.973,196.34,58.416,196.34z"/>
		<path fill="#87868A" d="M64.021,184.846H52.854v-1.376l1.508-0.275v-0.081c-0.543-0.347-0.965-0.832-1.266-1.457
			c-0.299-0.625-0.447-1.321-0.447-2.089c0-1.346,0.324-2.357,0.979-3.037c0.646-0.68,1.688-1.021,3.104-1.021h7.287v1.692h-7.235
			c-0.91,0-1.597,0.207-2.041,0.621c-0.447,0.415-0.681,1.063-0.681,1.946c0,1.169,0.316,2.024,0.951,2.568
			c0.633,0.543,1.678,0.815,3.135,0.815h5.871L64.021,184.846L64.021,184.846z"/>
		<path fill="#87868A" d="M62.283,167.117h-1.601c0.252-0.563,0.457-1.214,0.615-1.951c0.16-0.737,0.24-1.408,0.24-2.013h-4.48
			c-0.438,1.393-0.955,2.369-1.539,2.93s-1.338,0.841-2.264,0.841c-0.889,0-1.619-0.345-2.189-1.034
			c-0.563-0.689-0.918-1.602-1.039-2.736h-1.854v-1.335h1.834c0.035-1.246,0.287-2.448,0.756-3.607l1.334,0.53
			c-0.396,1.009-0.639,2.035-0.713,3.077h4.424c0.34-1.063,0.67-1.859,0.992-2.389c0.322-0.528,0.693-0.918,1.111-1.169
			c0.416-0.25,0.926-0.376,1.521-0.376c0.924,0,1.688,0.346,2.291,1.037c0.604,0.691,0.984,1.656,1.146,2.896h2.354v1.335H62.96
			c0,0.761-0.063,1.498-0.187,2.212C62.662,166.078,62.496,166.662,62.283,167.117z M53.25,165.192c0.518,0,0.932-0.152,1.242-0.456
			c0.313-0.304,0.604-0.831,0.889-1.582h-3.943c0.107,0.669,0.32,1.177,0.642,1.521C52.389,165.02,52.781,165.192,53.25,165.192z
			 M61.441,161.819c-0.203-1.467-0.828-2.201-1.875-2.201c-0.481,0-0.885,0.15-1.188,0.452c-0.303,0.301-0.604,0.884-0.9,1.749
			H61.441z"/>
	</g>
	
		<line fill="none" stroke="#666666" stroke-width="0.25" stroke-miterlimit="10" x1="95.279" y1="91.127" x2="95.279" y2="339.159"/>
	
		<line fill="none" stroke="#666666" stroke-width="0.25" stroke-miterlimit="10" x1="225.988" y1="339.159" x2="81.559" y2="339.159"/>
	
		<line fill="none" stroke="#666666" stroke-width="0.25" stroke-miterlimit="10" x1="225.988" y1="91.127" x2="81.559" y2="91.127"/>
	<g>
		<rect x="125.488" y="587.417" fill="#449FA2" width="100.499" height="118.787"/>
		<rect x="125.488" y="458.224" fill="#F2C466" width="100.499" height="129.193"/>
	</g>
	<g>
		<path fill="#9A999E" d="M68.414,699.974c0-2.156,0.338-3.766,1.014-4.813c0.678-1.047,1.707-1.57,3.094-1.57
			c1.353,0,2.367,0.547,3.066,1.643c0.697,1.094,1.047,2.674,1.047,4.74c0,2.146-0.338,3.75-1.014,4.814
			c-0.681,1.061-1.709,1.59-3.104,1.59c-1.34,0-2.354-0.543-3.059-1.627C68.76,703.662,68.414,702.072,68.414,699.974z
			 M69.857,699.974c0,1.807,0.213,3.113,0.642,3.939c0.424,0.822,1.1,1.229,2.021,1.229c0.938,0,1.617-0.416,2.039-1.25
			c0.422-0.832,0.635-2.139,0.635-3.918c0-1.771-0.213-3.082-0.635-3.902c-0.422-0.828-1.102-1.242-2.039-1.242
			c-0.928,0-1.604,0.408-2.021,1.225C70.07,696.865,69.857,698.173,69.857,699.974z"/>
	</g>
	<g>
		<path fill="#87868A" d="M64.447,598.878H49.549v-4.209c0-1.977,0.297-3.406,0.887-4.289c0.594-0.885,1.523-1.326,2.801-1.326
			c0.888,0,1.609,0.246,2.188,0.74c0.574,0.492,0.945,1.211,1.115,2.154h0.104c0.396-2.248,1.578-3.373,3.57-3.373
			c1.332,0,2.371,0.449,3.119,1.348c0.746,0.9,1.121,2.154,1.121,3.771L64.447,598.878L64.447,598.878z M55.918,597.146v-2.854
			c0-1.225-0.189-2.104-0.574-2.641c-0.383-0.537-1.025-0.814-1.938-0.814c-0.834,0-1.438,0.299-1.807,0.896
			c-0.367,0.598-0.555,1.549-0.555,2.854v2.547L55.918,597.146L55.918,597.146z M62.969,597.146v-3.104
			c0-1.201-0.23-2.104-0.695-2.715c-0.469-0.609-1.188-0.912-2.188-0.912c-0.924,0-1.604,0.313-2.037,0.934
			c-0.438,0.621-0.652,1.566-0.652,2.84v2.967L62.969,597.146L62.969,597.146z"/>
		<path fill="#87868A" d="M50.252,585.753c-0.387,0-0.672-0.088-0.854-0.264c-0.182-0.178-0.271-0.396-0.271-0.658
			c0-0.293,0.092-0.545,0.271-0.758c0.188-0.211,0.47-0.318,0.851-0.318s0.664,0.107,0.852,0.318
			c0.188,0.213,0.279,0.465,0.279,0.758c0,0.264-0.094,0.479-0.279,0.658C50.916,585.666,50.631,585.753,50.252,585.753z
			 M64.447,585.611H53.279v-1.549h11.168V585.611z"/>
		<path fill="#87868A" d="M64.447,580.332H48.59v-1.689h15.854L64.447,580.332L64.447,580.332z"/>
		<path fill="#87868A" d="M64.447,575.054H48.59v-1.688h15.854L64.447,575.054L64.447,575.054z"/>
		<path fill="#87868A" d="M50.252,569.917c-0.387,0-0.672-0.088-0.854-0.264c-0.182-0.184-0.271-0.396-0.271-0.656
			c0-0.293,0.092-0.547,0.271-0.758c0.188-0.213,0.47-0.318,0.851-0.318s0.664,0.105,0.852,0.318
			c0.188,0.211,0.279,0.465,0.279,0.758c0,0.262-0.094,0.479-0.279,0.656C50.917,569.83,50.631,569.917,50.252,569.917z
			 M64.447,569.777H53.279v-1.555h11.168V569.777z"/>
		<path fill="#87868A" d="M58.842,565.119c-1.814,0-3.23-0.455-4.248-1.361c-1.014-0.908-1.52-2.168-1.52-3.77
			c0-1.564,0.518-2.807,1.557-3.725c1.037-0.918,2.438-1.377,4.211-1.377c1.824,0,3.248,0.457,4.271,1.373
			c1.021,0.914,1.537,2.186,1.537,3.789c0,0.996-0.231,1.879-0.705,2.652c-0.473,0.77-1.146,1.367-2.021,1.787
			C61.047,564.908,60.018,565.119,58.842,565.119z M58.842,563.386c1.43,0,2.521-0.283,3.271-0.854
			c0.748-0.568,1.123-1.412,1.123-2.521c0-1.104-0.373-1.945-1.114-2.521c-0.744-0.574-1.837-0.861-3.273-0.861
			c-1.422,0-2.504,0.287-3.242,0.861c-0.731,0.576-1.104,1.424-1.104,2.547c0,1.104,0.358,1.943,1.092,2.51
			C56.311,563.105,57.4,563.386,58.842,563.386z"/>
		<path fill="#87868A" d="M64.447,551.892H53.279v-1.377l1.513-0.271v-0.08c-0.543-0.35-0.97-0.832-1.269-1.457
			c-0.301-0.625-0.442-1.32-0.442-2.09c0-1.35,0.319-2.355,0.973-3.037c0.646-0.68,1.688-1.021,3.113-1.021h7.28v1.691H57.21
			c-0.914,0-1.594,0.207-2.043,0.621s-0.674,1.063-0.674,1.943c0,1.172,0.313,2.023,0.944,2.566c0.637,0.543,1.683,0.814,3.14,0.814
			h5.866L64.447,551.892L64.447,551.892z"/>
		<path fill="#87868A" d="M62.709,534.162h-1.594c0.25-0.563,0.452-1.213,0.61-1.949c0.158-0.729,0.236-1.408,0.236-2.014h-4.48
			c-0.438,1.395-0.948,2.369-1.539,2.93c-0.584,0.564-1.338,0.842-2.264,0.842c-0.891,0-1.617-0.346-2.188-1.021
			c-0.57-0.689-0.916-1.605-1.039-2.736H48.6v-1.336h1.834c0.033-1.246,0.285-2.447,0.756-3.605l1.336,0.529
			c-0.396,1.01-0.643,2.035-0.715,3.076h4.424c0.345-1.064,0.677-1.857,0.992-2.396c0.32-0.52,0.691-0.918,1.109-1.168
			s0.926-0.377,1.521-0.377c0.929,0,1.688,0.354,2.291,1.037c0.604,0.689,0.982,1.654,1.146,2.896h2.354v1.334h-2.266
			c0,0.762-0.063,1.498-0.18,2.213C63.086,533.125,62.92,533.708,62.709,534.162z M53.674,532.238c0.52,0,0.936-0.152,1.244-0.457
			c0.313-0.307,0.604-0.83,0.887-1.582h-3.941c0.105,0.67,0.32,1.178,0.642,1.521C52.816,532.066,53.207,532.238,53.674,532.238z
			 M61.869,528.865c-0.203-1.467-0.828-2.201-1.875-2.201c-0.488,0-0.89,0.15-1.188,0.451c-0.303,0.303-0.604,0.885-0.896,1.75
			H61.869z"/>
	</g>
	<g>
		<path fill="#666565" d="M72.885,419.297v-14.896h8.307v1.549H74.62v4.77h6.181v1.549H74.62v5.48h6.572v1.551h-8.307V419.297z"/>
		<path fill="#666565" d="M84.341,413.999v-9.6h1.729v9.736c0,1.244,0.34,2.201,1.021,2.867c0.68,0.668,1.678,1,2.996,1
			c1.258,0,2.225-0.334,2.899-1.006c0.685-0.67,1.021-1.631,1.021-2.883v-9.715h1.729v9.641c0,1.699-0.516,3.033-1.539,4.006
			c-1.021,0.972-2.438,1.457-4.229,1.457s-3.184-0.489-4.162-1.469C84.831,417.056,84.341,415.711,84.341,413.999z"/>
		<path fill="#666565" d="M98.656,419.297v-1.438l3.929-3.959c1.188-1.214,1.979-2.08,2.356-2.599
			c0.383-0.519,0.666-1.022,0.855-1.515c0.188-0.49,0.285-1.021,0.285-1.586c0-0.799-0.242-1.432-0.729-1.897
			c-0.479-0.468-1.146-0.701-2.01-0.701c-0.617,0-1.203,0.103-1.758,0.308c-0.558,0.203-1.17,0.576-1.854,1.115l-0.89-1.156
			c1.373-1.123,2.867-1.684,4.479-1.684c1.396,0,2.496,0.357,3.291,1.07s1.189,1.671,1.189,2.875c0,0.947-0.27,1.886-0.795,2.813
			c-0.527,0.928-1.521,2.104-2.979,3.521l-3.26,3.203v0.082h7.66v1.549h-9.789v-0.002L98.656,419.297L98.656,419.297z"/>
		<path fill="#666565" d="M110.632,415.497c0-1.705,1.045-3.033,3.137-3.983c-0.945-0.53-1.627-1.104-2.039-1.718
			c-0.412-0.614-0.617-1.303-0.617-2.063c0-1.08,0.4-1.939,1.203-2.582c0.805-0.643,1.877-0.964,3.229-0.964
			c1.356,0,2.438,0.315,3.235,0.948c0.804,0.632,1.193,1.505,1.193,2.619c0,0.732-0.229,1.402-0.688,2.007
			c-0.454,0.604-1.188,1.153-2.188,1.649c1.215,0.578,2.08,1.186,2.592,1.819c0.516,0.636,0.771,1.371,0.771,2.206
			c0,1.236-0.438,2.225-1.304,2.96c-0.86,0.737-2.055,1.104-3.561,1.104c-1.594,0-2.82-0.348-3.68-1.043
			C111.059,417.761,110.632,416.774,110.632,415.497z M112.322,415.538c0,0.814,0.279,1.451,0.854,1.906
			c0.563,0.455,1.356,0.684,2.385,0.684c1.012,0,1.799-0.238,2.361-0.715c0.561-0.476,0.844-1.127,0.844-1.957
			c0-0.657-0.264-1.244-0.793-1.758c-0.527-0.513-1.451-1.01-2.771-1.492c-1.014,0.436-1.737,0.916-2.192,1.441
			C112.55,414.174,112.322,414.804,112.322,415.538z M112.802,407.803c0,0.625,0.199,1.162,0.6,1.609
			c0.4,0.449,1.146,0.896,2.226,1.346c0.969-0.407,1.649-0.848,2.059-1.314c0.404-0.468,0.604-1.016,0.604-1.641
			c0-0.688-0.242-1.23-0.732-1.635c-0.492-0.404-1.17-0.606-2.029-0.606c-0.848,0-1.514,0.204-1.994,0.611
			C113.044,406.579,112.802,407.124,112.802,407.803z"/>
		<path fill="#666565" d="M128.094,413.805c0-1.801,0.438-3.23,1.326-4.29c0.885-1.062,2.065-1.589,3.563-1.589
			c1.396,0,2.496,0.46,3.313,1.38c0.813,0.921,1.219,2.136,1.219,3.644v1.069h-7.684c0.026,1.312,0.358,2.306,0.989,2.985
			c0.636,0.679,1.521,1.019,2.658,1.019c1.197,0,2.385-0.251,3.562-0.754v1.509c-0.603,0.258-1.16,0.442-1.691,0.555
			c-0.531,0.111-1.174,0.168-1.926,0.168c-1.646,0-2.945-0.502-3.896-1.508C128.576,416.987,128.094,415.593,128.094,413.805z
			 M129.869,412.643h5.854c0-1.066-0.238-1.883-0.715-2.451c-0.479-0.566-1.156-0.851-2.041-0.851c-0.898,0-1.615,0.292-2.148,0.876
			C130.278,410.803,129.966,411.61,129.869,412.643z"/>
		<path fill="#666565" d="M139.714,410.874c0-0.91,0.371-1.631,1.104-2.157c0.738-0.527,1.754-0.791,3.045-0.791
			c1.188,0,2.359,0.243,3.504,0.731l-0.59,1.377c-1.113-0.463-2.133-0.693-3.038-0.693c-0.807,0-1.405,0.126-1.813,0.378
			c-0.408,0.251-0.611,0.599-0.611,1.042c0,0.3,0.076,0.555,0.229,0.766c0.148,0.211,0.396,0.412,0.734,0.604
			c0.346,0.191,0.994,0.468,1.961,0.828c1.324,0.482,2.221,0.971,2.678,1.461c0.457,0.488,0.686,1.104,0.686,1.849
			c0,1.034-0.387,1.832-1.152,2.394c-0.771,0.562-1.854,0.842-3.237,0.842c-1.479,0-2.638-0.23-3.459-0.693v-1.561
			c0.53,0.272,1.104,0.488,1.725,0.646c0.613,0.157,1.205,0.235,1.775,0.235c0.885,0,1.563-0.143,2.043-0.426
			c0.479-0.281,0.715-0.713,0.715-1.291c0-0.437-0.188-0.81-0.564-1.119c-0.379-0.311-1.108-0.676-2.211-1.098
			c-1.043-0.389-1.774-0.728-2.219-1.018s-0.762-0.618-0.975-0.986C139.819,411.823,139.714,411.385,139.714,410.874z"/>
		<path fill="#666565" d="M148.903,409.444v-0.814l1.605-0.703l0.713-2.387h0.979v2.59h3.236v1.313h-3.236v6.588
			c0,0.674,0.156,1.191,0.479,1.553c0.313,0.361,0.76,0.543,1.313,0.543c0.307,0,0.588-0.022,0.863-0.066
			c0.279-0.044,0.5-0.09,0.662-0.139v1.277c-0.184,0.088-0.453,0.159-0.814,0.217c-0.354,0.058-0.678,0.086-0.963,0.086
			c-2.154,0-3.234-1.139-3.234-3.414v-6.645h-1.604L148.903,409.444L148.903,409.444z"/>
		<path fill="#666565" d="M157.604,405.102c0-0.387,0.09-0.671,0.271-0.852c0.174-0.18,0.396-0.271,0.648-0.271
			c0.293,0,0.547,0.093,0.758,0.274c0.221,0.185,0.316,0.467,0.316,0.847s-0.104,0.664-0.316,0.851
			c-0.211,0.188-0.465,0.28-0.758,0.28c-0.266,0-0.479-0.093-0.648-0.28C157.694,405.766,157.604,405.483,157.604,405.102z
			 M157.75,419.297v-11.168h1.549v11.168H157.75z"/>
		<path fill="#666565" d="M163.028,419.297v-11.168h1.375l0.273,1.51h0.082c0.314-0.537,0.771-0.957,1.352-1.26
			c0.582-0.303,1.23-0.452,1.949-0.452c1.746,0,2.891,0.625,3.426,1.876h0.082c0.332-0.579,0.814-1.036,1.445-1.372
			c0.633-0.336,1.354-0.504,2.16-0.504c1.264,0,2.209,0.323,2.838,0.974c0.629,0.646,0.939,1.688,0.939,3.112v7.286h-1.688v-7.281
			c0-0.893-0.189-1.563-0.57-2.006c-0.381-0.446-0.973-0.669-1.771-0.669c-1.059,0-1.83,0.303-2.334,0.909
			c-0.502,0.604-0.754,1.537-0.754,2.798v6.249h-1.689v-7.281c0-0.893-0.189-1.563-0.568-2.006
			c-0.383-0.446-0.979-0.669-1.775-0.669c-1.063,0-1.836,0.317-2.33,0.954c-0.492,0.638-0.736,1.681-0.736,3.131v5.871
			L163.028,419.297L163.028,419.297z"/>
		<path fill="#666565" d="M181.602,416.222c0-2.25,1.809-3.429,5.418-3.537l1.898-0.063v-0.701c0-0.887-0.188-1.541-0.563-1.965
			c-0.379-0.424-0.979-0.635-1.811-0.635c-0.938,0-1.979,0.289-3.15,0.866l-0.521-1.298c0.551-0.294,1.146-0.525,1.809-0.691
			c0.654-0.168,1.313-0.252,1.973-0.252c1.33,0,2.314,0.295,2.957,0.889c0.646,0.591,0.963,1.537,0.963,2.843v7.622h-1.254
			l-0.336-1.571h-0.082c-0.557,0.692-1.104,1.162-1.662,1.407c-0.555,0.246-1.234,0.367-2.063,0.367
			c-1.109,0-1.982-0.283-2.617-0.854C181.92,418.079,181.602,417.27,181.602,416.222z M183.395,416.241
			c0,0.615,0.189,1.082,0.559,1.403c0.367,0.321,0.895,0.481,1.559,0.481c1.051,0,1.877-0.291,2.479-0.871
			c0.605-0.58,0.898-1.393,0.898-2.438v-1.014l-1.689,0.07c-1.344,0.049-2.313,0.259-2.895,0.631
			C183.694,414.879,183.395,415.456,183.395,416.241z"/>
		<path fill="#666565" d="M192.567,409.444v-0.814l1.605-0.703l0.713-2.387h0.979v2.59h3.238v1.313h-3.238v6.588
			c0,0.674,0.156,1.191,0.479,1.553c0.316,0.361,0.758,0.543,1.313,0.543c0.305,0,0.588-0.022,0.863-0.066
			c0.277-0.044,0.5-0.09,0.664-0.139v1.277c-0.188,0.088-0.455,0.159-0.814,0.217c-0.354,0.058-0.682,0.086-0.965,0.086
			c-2.152,0-3.232-1.139-3.232-3.414v-6.645L192.567,409.444L192.567,409.444L192.567,409.444z"/>
		<path fill="#666565" d="M200.793,413.805c0-1.801,0.438-3.23,1.322-4.29c0.889-1.062,2.068-1.589,3.563-1.589
			c1.396,0,2.498,0.46,3.313,1.38c0.814,0.921,1.225,2.136,1.225,3.644v1.069h-7.689c0.033,1.312,0.361,2.306,0.994,2.985
			c0.631,0.679,1.521,1.019,2.656,1.019c1.199,0,2.387-0.251,3.559-0.754v1.509c-0.6,0.258-1.158,0.442-1.688,0.555
			c-0.531,0.111-1.174,0.168-1.93,0.168c-1.646,0-2.941-0.502-3.896-1.508C201.272,416.987,200.793,415.593,200.793,413.805z
			 M202.565,412.643h5.855c0-1.066-0.238-1.883-0.723-2.451c-0.479-0.566-1.148-0.851-2.041-0.851c-0.896,0-1.607,0.292-2.146,0.876
			C202.975,410.803,202.662,411.61,202.565,412.643z"/>
	</g>
	
		<line fill="none" stroke="#666666" stroke-width="0.25" stroke-miterlimit="10" x1="95.275" y1="458.173" x2="95.275" y2="706.205"/>
	
		<line fill="none" stroke="#666666" stroke-width="0.25" stroke-miterlimit="10" x1="225.986" y1="706.205" x2="81.553" y2="706.205"/>
	
		<line fill="none" stroke="#666666" stroke-width="0.25" stroke-miterlimit="10" x1="225.986" y1="458.173" x2="81.553" y2="458.173"/>
	<g>
		<g>
			<path fill="#5B5B5F" d="M82.98,765.044c0-1.275,0.234-2.395,0.709-3.355c0.479-0.963,1.16-1.703,2.064-2.225
				c0.896-0.521,1.965-0.781,3.188-0.781c1.308,0,2.438,0.236,3.414,0.715l-0.606,1.236c-0.938-0.438-1.886-0.66-2.818-0.66
				c-1.363,0-2.438,0.453-3.229,1.359c-0.787,0.908-1.188,2.15-1.188,3.729c0,1.625,0.383,2.879,1.146,3.766
				c0.764,0.885,1.85,1.328,3.258,1.328c0.86,0,1.854-0.156,2.965-0.471v1.271c-0.859,0.324-1.924,0.486-3.188,0.486
				c-1.826,0-3.231-0.564-4.227-1.666C83.475,768.667,82.98,767.089,82.98,765.044z"/>
			<path fill="#5B5B5F" d="M93.865,766.603c0-1.518,0.377-2.693,1.135-3.537c0.756-0.848,1.809-1.271,3.146-1.271
				c1.299,0,2.33,0.439,3.101,1.297c0.766,0.865,1.146,2.035,1.146,3.52c0,1.52-0.381,2.707-1.145,3.563
				c-0.769,0.854-1.814,1.279-3.158,1.279c-0.83,0-1.564-0.193-2.211-0.588c-0.646-0.396-1.146-0.953-1.486-1.689
				C94.041,768.441,93.865,767.583,93.865,766.603z M95.311,766.603c0,1.188,0.236,2.102,0.715,2.727
				c0.479,0.623,1.181,0.938,2.104,0.938s1.625-0.313,2.104-0.934c0.479-0.621,0.724-1.529,0.724-2.729
				c0-1.189-0.238-2.088-0.724-2.703c-0.479-0.615-1.188-0.922-2.123-0.922c-0.924,0-1.621,0.303-2.092,0.908
				C95.543,764.496,95.311,765.4,95.311,766.603z"/>
			<path fill="#5B5B5F" d="M104.293,764.253c0-0.758,0.309-1.354,0.924-1.797c0.617-0.439,1.463-0.658,2.537-0.658
				c0.994,0,1.971,0.203,2.92,0.609l-0.49,1.145c-0.934-0.389-1.771-0.578-2.531-0.578c-0.67,0-1.174,0.105-1.516,0.314
				s-0.512,0.498-0.512,0.867c0,0.25,0.063,0.463,0.188,0.641c0.127,0.176,0.332,0.342,0.617,0.502
				c0.281,0.156,0.826,0.393,1.633,0.689c1.105,0.395,1.853,0.811,2.229,1.217c0.379,0.408,0.563,0.922,0.563,1.541
				c0,0.861-0.313,1.527-0.963,1.994c-0.643,0.467-1.541,0.701-2.699,0.701c-1.229,0-2.188-0.191-2.885-0.578v-1.311
				c0.445,0.23,0.929,0.404,1.438,0.535c0.514,0.133,1.006,0.193,1.479,0.193c0.736,0,1.312-0.117,1.703-0.354
				c0.396-0.232,0.598-0.594,0.598-1.074c0-0.363-0.153-0.676-0.475-0.936c-0.313-0.258-0.932-0.563-1.844-0.914
				c-0.867-0.322-1.482-0.604-1.851-0.85c-0.363-0.242-0.637-0.52-0.813-0.818C104.381,765.048,104.293,764.679,104.293,764.253z"/>
			<path fill="#5B5B5F" d="M111.953,763.064v-0.682l1.334-0.588l0.594-1.986h0.813v2.158h2.699v1.096h-2.699v5.49
				c0,0.563,0.138,0.99,0.398,1.293c0.265,0.305,0.631,0.449,1.096,0.449c0.25,0,0.49-0.018,0.728-0.055
				c0.229-0.037,0.416-0.074,0.553-0.115v1.066c-0.15,0.063-0.379,0.133-0.676,0.18c-0.299,0.047-0.563,0.072-0.808,0.072
				c-1.801,0-2.696-0.949-2.696-2.855v-5.537L111.953,763.064L111.953,763.064z"/>
			<path fill="#5B5B5F" d="M123.84,771.275v-9.311h1.146l0.229,1.258h0.068c0.282-0.453,0.688-0.807,1.215-1.057
				c0.52-0.25,1.104-0.375,1.735-0.375c1.121,0,1.968,0.271,2.529,0.813c0.564,0.543,0.854,1.406,0.854,2.596v6.07h-1.408v-6.031
				c0-0.762-0.174-1.326-0.521-1.701c-0.346-0.375-0.887-0.564-1.621-0.564c-0.975,0-1.688,0.271-2.141,0.791
				c-0.453,0.525-0.682,1.396-0.682,2.613v4.896h-1.408L123.84,771.275L123.84,771.275z"/>
			<path fill="#5B5B5F" d="M133.998,766.603c0-1.518,0.377-2.693,1.135-3.537c0.758-0.848,1.807-1.271,3.146-1.271
				c1.304,0,2.33,0.439,3.101,1.297c0.766,0.865,1.145,2.035,1.145,3.52c0,1.52-0.381,2.707-1.145,3.563
				c-0.767,0.854-1.813,1.279-3.156,1.279c-0.83,0-1.565-0.193-2.211-0.588c-0.646-0.396-1.141-0.953-1.488-1.689
				C134.172,768.441,133.998,767.583,133.998,766.603z M135.441,766.603c0,1.188,0.238,2.102,0.715,2.727
				c0.479,0.623,1.181,0.938,2.104,0.938s1.625-0.313,2.104-0.934c0.48-0.621,0.729-1.529,0.729-2.729
				c0-1.189-0.235-2.088-0.729-2.703c-0.479-0.615-1.188-0.922-2.113-0.922c-0.929,0-1.621,0.303-2.097,0.908
				C135.676,764.496,135.441,765.4,135.441,766.603z"/>
			<path fill="#5B5B5F" d="M145.021,771.275v-9.311h1.146l0.229,1.258h0.063c0.287-0.453,0.688-0.807,1.215-1.057
				c0.521-0.25,1.104-0.375,1.74-0.375c1.121,0,1.963,0.271,2.521,0.813c0.566,0.541,0.854,1.406,0.854,2.596v6.07h-1.405v-6.031
				c0-0.762-0.177-1.326-0.521-1.701c-0.352-0.375-0.893-0.564-1.62-0.564c-0.979,0-1.688,0.271-2.146,0.791
				c-0.453,0.525-0.681,1.396-0.681,2.613v4.896h-1.407L145.021,771.275L145.021,771.275z"/>
			<path fill="#5B5B5F" d="M154.912,767.257v-1.291h4.17v1.291H154.912z"/>
			<path fill="#5B5B5F" d="M160.041,763.064v-0.639l1.666-0.512v-0.518c0-2.275,0.998-3.416,2.996-3.416
				c0.487,0,1.065,0.1,1.729,0.295l-0.365,1.105c-0.543-0.176-1.008-0.266-1.396-0.266c-0.53,0-0.928,0.18-1.188,0.531
				c-0.259,0.354-0.386,0.922-0.386,1.701v0.605h2.369v1.096H163.1v8.209H161.7v-8.209L160.041,763.064L160.041,763.064z"/>
			<path fill="#5B5B5F" d="M166.488,768.71c0-1.875,1.511-2.854,4.521-2.945l1.582-0.055v-0.584c0-0.736-0.154-1.283-0.471-1.637
				c-0.317-0.355-0.814-0.529-1.511-0.529c-0.771,0-1.646,0.24-2.627,0.725l-0.438-1.082c0.459-0.244,0.961-0.438,1.509-0.576
				c0.549-0.143,1.096-0.209,1.646-0.209c1.104,0,1.932,0.246,2.467,0.738c0.533,0.492,0.801,1.281,0.801,2.367v6.355h-1.045
				l-0.275-1.314h-0.063c-0.464,0.576-0.932,0.967-1.393,1.172c-0.459,0.205-1.03,0.313-1.729,0.313c-0.928,0-1.65-0.236-2.18-0.711
				C166.75,770.257,166.488,769.585,166.488,768.71z M167.982,768.728c0,0.514,0.154,0.898,0.463,1.17
				c0.313,0.27,0.738,0.396,1.291,0.396c0.877,0,1.563-0.238,2.063-0.725c0.5-0.488,0.75-1.16,0.75-2.031v-0.844l-1.404,0.063
				c-1.117,0.039-1.928,0.215-2.42,0.523C168.23,767.591,167.982,768.074,167.982,768.728z"/>
			<path fill="#5B5B5F" d="M175.625,763.064v-0.682l1.332-0.588l0.596-1.986h0.813v2.158h2.695v1.096h-2.695v5.49
				c0,0.563,0.135,0.99,0.396,1.293c0.266,0.305,0.631,0.449,1.096,0.449c0.248,0,0.488-0.018,0.729-0.055
				c0.229-0.037,0.416-0.074,0.554-0.115v1.066c-0.152,0.063-0.38,0.133-0.677,0.18c-0.299,0.047-0.563,0.072-0.805,0.072
				c-1.805,0-2.699-0.949-2.699-2.855v-5.537L175.625,763.064L175.625,763.064z"/>
			<path fill="#5B5B5F" d="M182.299,768.71c0-1.875,1.508-2.854,4.518-2.945l1.582-0.055v-0.584c0-0.736-0.15-1.283-0.473-1.637
				c-0.313-0.355-0.814-0.529-1.506-0.529c-0.771,0-1.646,0.24-2.627,0.725l-0.438-1.082c0.459-0.244,0.961-0.438,1.508-0.576
				c0.55-0.143,1.099-0.209,1.646-0.209c1.104,0,1.932,0.246,2.467,0.738c0.533,0.492,0.803,1.281,0.803,2.367v6.355h-1.045
				l-0.273-1.314h-0.065c-0.464,0.576-0.927,0.967-1.388,1.172c-0.459,0.205-1.035,0.313-1.729,0.313
				c-0.928,0-1.646-0.236-2.182-0.711C182.564,770.257,182.299,769.585,182.299,768.71z M183.793,768.728
				c0,0.514,0.147,0.898,0.463,1.17c0.309,0.27,0.736,0.396,1.291,0.396c0.877,0,1.563-0.238,2.063-0.725
				c0.5-0.488,0.75-1.16,0.75-2.031v-0.844l-1.401,0.063c-1.119,0.039-1.933,0.215-2.422,0.523
				C184.041,767.591,183.793,768.074,183.793,768.728z"/>
			<path fill="#5B5B5F" d="M192.666,771.275V758.06h1.41v13.215H192.666z"/>
			<path fill="#5B5B5F" d="M201.066,766.679c0-1.559,0.373-2.762,1.117-3.607c0.744-0.848,1.813-1.271,3.192-1.271
				c0.439,0,0.896,0.049,1.347,0.146c0.442,0.098,0.799,0.209,1.053,0.34l-0.437,1.197c-0.313-0.125-0.647-0.229-1.021-0.313
				c-0.363-0.082-0.688-0.123-0.979-0.123c-1.896,0-2.836,1.207-2.836,3.617c0,1.146,0.229,2.021,0.688,2.633
				c0.461,0.609,1.146,0.918,2.058,0.918c0.771,0,1.563-0.168,2.39-0.502v1.25c-0.622,0.32-1.405,0.482-2.354,0.482
				c-1.35,0-2.389-0.416-3.115-1.244C201.434,769.371,201.066,768.197,201.066,766.679z"/>
			<path fill="#5B5B5F" d="M209.166,768.71c0-1.875,1.506-2.854,4.518-2.945l1.582-0.055v-0.584c0-0.736-0.156-1.283-0.473-1.637
				c-0.313-0.355-0.813-0.529-1.504-0.529c-0.771,0-1.648,0.24-2.627,0.725l-0.439-1.082c0.459-0.244,0.961-0.438,1.508-0.576
				c0.547-0.143,1.102-0.209,1.646-0.209c1.104,0,1.934,0.246,2.465,0.738c0.533,0.492,0.805,1.281,0.805,2.367v6.355H215.6
				l-0.279-1.314h-0.063c-0.463,0.576-0.926,0.967-1.387,1.172c-0.459,0.205-1.033,0.313-1.729,0.313
				c-0.929,0-1.654-0.236-2.183-0.711C209.432,770.257,209.166,769.585,209.166,768.71z M210.662,768.728
				c0,0.514,0.147,0.898,0.463,1.17c0.309,0.27,0.731,0.396,1.291,0.396c0.877,0,1.563-0.238,2.063-0.725
				c0.5-0.488,0.75-1.16,0.75-2.031v-0.844l-1.408,0.063c-1.112,0.039-1.926,0.215-2.42,0.523
				C210.908,767.591,210.662,768.074,210.662,768.728z"/>
			<path fill="#5B5B5F" d="M218.941,764.253c0-0.758,0.313-1.354,0.924-1.797c0.617-0.439,1.468-0.658,2.537-0.658
				c0.996,0,1.976,0.203,2.92,0.609l-0.485,1.145c-0.937-0.389-1.773-0.578-2.531-0.578c-0.67,0-1.174,0.105-1.514,0.314
				c-0.347,0.209-0.517,0.498-0.517,0.867c0,0.25,0.063,0.463,0.188,0.641c0.125,0.176,0.332,0.342,0.617,0.502
				c0.274,0.156,0.819,0.393,1.633,0.689c1.104,0.395,1.85,0.811,2.229,1.217c0.381,0.408,0.57,0.922,0.57,1.541
				c0,0.861-0.32,1.527-0.966,1.994c-0.646,0.467-1.541,0.701-2.698,0.701c-1.229,0-2.193-0.191-2.886-0.578v-1.311
				c0.447,0.23,0.929,0.404,1.438,0.535c0.519,0.133,1.006,0.193,1.479,0.193c0.731,0,1.309-0.117,1.701-0.354
				c0.396-0.232,0.6-0.594,0.6-1.074c0-0.363-0.156-0.676-0.477-0.936c-0.313-0.258-0.937-0.563-1.849-0.914
				c-0.86-0.322-1.479-0.604-1.848-0.85c-0.365-0.238-0.638-0.52-0.814-0.818C219.029,765.048,218.941,764.679,218.941,764.253z"/>
			<path fill="#5B5B5F" d="M227.316,766.697c0-1.5,0.367-2.691,1.104-3.576c0.737-0.883,1.729-1.322,2.971-1.322
				c1.16,0,2.082,0.385,2.758,1.148c0.686,0.77,1.021,1.777,1.021,3.037v0.895h-6.399c0.024,1.094,0.31,1.922,0.826,2.484
				c0.522,0.564,1.268,0.854,2.221,0.854c0.998,0,1.981-0.209,2.963-0.629v1.258c-0.493,0.223-0.967,0.369-1.405,0.463
				c-0.443,0.105-0.979,0.146-1.604,0.146c-1.371,0-2.453-0.42-3.248-1.258C227.713,769.351,227.316,768.187,227.316,766.697z
				 M228.791,765.728h4.875c0-0.893-0.197-1.568-0.601-2.041c-0.396-0.477-0.965-0.709-1.698-0.709c-0.746,0-1.349,0.24-1.789,0.729
				C229.135,764.197,228.871,764.869,228.791,765.728z"/>
			<path fill="#5B5B5F" d="M236.996,764.253c0-0.758,0.309-1.354,0.924-1.797c0.617-0.439,1.461-0.658,2.537-0.658
				c0.994,0,1.969,0.203,2.92,0.609l-0.492,1.145c-0.932-0.389-1.773-0.578-2.529-0.578c-0.67,0-1.174,0.105-1.516,0.314
				s-0.512,0.498-0.512,0.867c0,0.25,0.063,0.463,0.188,0.641c0.127,0.176,0.332,0.342,0.617,0.502
				c0.278,0.156,0.823,0.393,1.633,0.689c1.104,0.395,1.846,0.811,2.229,1.217c0.379,0.408,0.563,0.922,0.563,1.541
				c0,0.861-0.313,1.527-0.963,1.994c-0.646,0.467-1.541,0.701-2.701,0.701c-1.229,0-2.188-0.191-2.883-0.578v-1.311
				c0.442,0.23,0.926,0.404,1.438,0.535c0.512,0.133,1.006,0.193,1.479,0.193c0.736,0,1.313-0.117,1.703-0.354
				c0.396-0.232,0.596-0.594,0.596-1.074c0-0.363-0.148-0.676-0.475-0.936c-0.314-0.258-0.931-0.563-1.842-0.914
				c-0.869-0.322-1.482-0.604-1.854-0.85c-0.359-0.24-0.633-0.52-0.813-0.818C237.084,765.048,236.996,764.679,236.996,764.253z"/>
		</g>
		<rect x="53.957" y="755.816" fill="#F2C466" width="17.803" height="17.803"/>
	</g>
	<g>
		<g>
			<path fill="#5B5B5F" d="M82.98,792.734c0-1.275,0.234-2.396,0.709-3.357c0.479-0.961,1.16-1.703,2.064-2.225
				c0.897-0.521,1.965-0.779,3.188-0.779c1.308,0,2.438,0.236,3.414,0.713l-0.606,1.238c-0.938-0.439-1.886-0.662-2.818-0.662
				c-1.363,0-2.438,0.455-3.229,1.361c-0.787,0.906-1.188,2.146-1.188,3.729c0,1.623,0.383,2.877,1.146,3.771
				c0.764,0.889,1.85,1.32,3.258,1.32c0.86,0,1.854-0.145,2.965-0.467v1.271c-0.859,0.32-1.924,0.48-3.188,0.48
				c-1.826,0-3.231-0.555-4.227-1.666C83.475,796.357,82.98,794.781,82.98,792.734z"/>
			<path fill="#5B5B5F" d="M93.865,794.294c0-1.514,0.377-2.691,1.135-3.539c0.756-0.844,1.809-1.27,3.146-1.27
				c1.299,0,2.33,0.436,3.101,1.299c0.766,0.863,1.146,2.033,1.146,3.51c0,1.521-0.381,2.707-1.145,3.563
				c-0.769,0.854-1.814,1.279-3.158,1.279c-0.83,0-1.564-0.195-2.211-0.59c-0.646-0.391-1.146-0.951-1.486-1.686
				C94.041,796.132,93.865,795.275,93.865,794.294z M95.311,794.294c0,1.189,0.236,2.104,0.715,2.727
				c0.479,0.625,1.181,0.938,2.104,0.938s1.625-0.313,2.104-0.932c0.479-0.621,0.724-1.531,0.724-2.73
				c0-1.186-0.238-2.086-0.724-2.703c-0.479-0.604-1.188-0.922-2.123-0.922c-0.924,0-1.621,0.305-2.092,0.91
				C95.543,792.185,95.311,793.089,95.311,794.294z"/>
			<path fill="#5B5B5F" d="M104.293,791.943c0-0.76,0.309-1.355,0.924-1.797c0.617-0.439,1.463-0.66,2.537-0.66
				c0.994,0,1.971,0.205,2.92,0.609l-0.49,1.146c-0.934-0.387-1.771-0.578-2.531-0.578c-0.67,0-1.174,0.104-1.516,0.314
				c-0.342,0.209-0.512,0.49-0.512,0.857c0,0.25,0.063,0.465,0.188,0.646c0.127,0.176,0.332,0.344,0.617,0.502
				c0.281,0.158,0.826,0.391,1.633,0.688c1.105,0.402,1.853,0.814,2.229,1.225c0.379,0.402,0.563,0.922,0.563,1.535
				c0,0.861-0.313,1.523-0.963,1.994c-0.643,0.473-1.541,0.701-2.699,0.701c-1.229,0-2.188-0.188-2.885-0.578v-1.303
				c0.445,0.23,0.929,0.404,1.438,0.535c0.514,0.131,1.006,0.195,1.479,0.195c0.736,0,1.312-0.119,1.703-0.355
				c0.396-0.234,0.598-0.594,0.598-1.076c0-0.355-0.153-0.674-0.475-0.934c-0.313-0.26-0.932-0.564-1.844-0.914
				c-0.867-0.324-1.482-0.605-1.851-0.854c-0.362-0.234-0.637-0.52-0.813-0.814C104.381,792.736,104.293,792.371,104.293,791.943z"
				/>
			<path fill="#5B5B5F" d="M111.953,790.753v-0.68l1.334-0.588l0.594-1.984h0.813v2.156h2.699v1.096h-2.699v5.49
				c0,0.563,0.138,0.994,0.398,1.295c0.265,0.303,0.631,0.451,1.096,0.451c0.25,0,0.49-0.021,0.728-0.064
				c0.229-0.033,0.416-0.068,0.553-0.107v1.063c-0.15,0.07-0.379,0.133-0.676,0.189c-0.299,0.047-0.563,0.063-0.808,0.063
				c-1.801,0-2.696-0.945-2.696-2.848v-5.537L111.953,790.753L111.953,790.753z"/>
			<path fill="#5B5B5F" d="M122.594,790.753v-0.637l1.664-0.51v-0.521c0-2.27,0.998-3.416,2.996-3.416
				c0.492,0,1.07,0.105,1.729,0.295l-0.36,1.115c-0.543-0.178-1.013-0.271-1.396-0.271c-0.533,0-0.928,0.184-1.184,0.529
				c-0.254,0.355-0.381,0.92-0.381,1.701v0.604h2.362v1.1h-2.362v8.211h-1.41v-8.211L122.594,790.753L122.594,790.753z"/>
			<path fill="#5B5B5F" d="M129.039,796.4c0-1.875,1.506-2.854,4.518-2.945l1.582-0.055v-0.584c0-0.736-0.158-1.283-0.473-1.639
				c-0.315-0.354-0.814-0.527-1.506-0.527c-0.771,0-1.646,0.24-2.627,0.725l-0.438-1.082c0.459-0.246,0.961-0.438,1.508-0.574
				c0.545-0.143,1.094-0.209,1.646-0.209c1.104,0,1.93,0.244,2.465,0.736c0.535,0.49,0.805,1.279,0.805,2.369v6.354h-1.045
				l-0.281-1.313h-0.063c-0.465,0.576-0.928,0.969-1.392,1.174c-0.461,0.203-1.03,0.314-1.725,0.314
				c-0.93,0-1.654-0.234-2.182-0.717C129.303,797.951,129.039,797.275,129.039,796.4z M130.533,796.419
				c0,0.514,0.147,0.898,0.463,1.168c0.307,0.271,0.731,0.402,1.291,0.402c0.877,0,1.563-0.242,2.063-0.73
				c0.5-0.484,0.75-1.16,0.75-2.027v-0.848l-1.408,0.064c-1.112,0.041-1.926,0.215-2.42,0.52
				C130.779,795.285,130.533,795.763,130.533,796.419z"/>
			<path fill="#5B5B5F" d="M138.176,790.753v-0.68l1.334-0.588l0.594-1.984h0.814v2.156h2.699v1.096h-2.699v5.49
				c0,0.563,0.133,0.994,0.396,1.295c0.27,0.303,0.631,0.451,1.101,0.451c0.248,0,0.483-0.021,0.723-0.064
				c0.229-0.033,0.416-0.068,0.553-0.107v1.063c-0.146,0.07-0.377,0.133-0.674,0.189c-0.301,0.047-0.564,0.063-0.805,0.063
				c-1.801,0-2.699-0.945-2.699-2.848v-5.537L138.176,790.753L138.176,790.753z"/>
			<path fill="#5B5B5F" d="M144.852,796.4c0-1.875,1.506-2.854,4.521-2.945l1.582-0.055v-0.584c0-0.736-0.156-1.283-0.479-1.639
				c-0.313-0.354-0.813-0.527-1.506-0.527c-0.771,0-1.646,0.24-2.627,0.725l-0.438-1.082c0.46-0.246,0.962-0.438,1.509-0.574
				c0.547-0.143,1.094-0.209,1.645-0.209c1.107,0,1.938,0.244,2.465,0.736c0.535,0.49,0.811,1.279,0.811,2.369v6.354h-1.045
				l-0.279-1.313h-0.063c-0.465,0.576-0.928,0.969-1.392,1.174c-0.459,0.203-1.03,0.314-1.725,0.314
				c-0.936,0-1.654-0.234-2.188-0.717C145.113,797.951,144.852,797.275,144.852,796.4z M146.346,796.419
				c0,0.514,0.152,0.898,0.463,1.168c0.313,0.271,0.736,0.402,1.291,0.402c0.877,0,1.564-0.242,2.064-0.73
				c0.5-0.484,0.75-1.16,0.75-2.027v-0.848l-1.408,0.064c-1.115,0.041-1.926,0.215-2.42,0.52
				C146.592,795.285,146.346,795.763,146.346,796.419z"/>
			<path fill="#5B5B5F" d="M155.219,798.964v-13.213h1.408v13.213H155.219z"/>
			<path fill="#5B5B5F" d="M163.617,794.371c0-1.561,0.366-2.762,1.11-3.607c0.746-0.85,1.813-1.27,3.197-1.27
				c0.442,0,0.896,0.049,1.342,0.145c0.444,0.105,0.799,0.209,1.06,0.346l-0.438,1.191c-0.313-0.125-0.647-0.229-1.021-0.313
				s-0.691-0.123-0.979-0.123c-1.896,0-2.838,1.205-2.838,3.617c0,1.145,0.229,2.02,0.688,2.633
				c0.463,0.607,1.146,0.916,2.053,0.916c0.771,0,1.566-0.166,2.39-0.5v1.248c-0.621,0.318-1.406,0.48-2.354,0.48
				c-1.354,0-2.395-0.414-3.119-1.244C163.984,797.062,163.617,795.888,163.617,794.371z"/>
			<path fill="#5B5B5F" d="M171.719,796.4c0-1.875,1.506-2.854,4.516-2.945l1.582-0.055v-0.584c0-0.736-0.148-1.283-0.471-1.639
				c-0.313-0.354-0.813-0.527-1.506-0.527c-0.771,0-1.648,0.24-2.627,0.725l-0.439-1.082c0.459-0.246,0.961-0.438,1.516-0.574
				c0.547-0.143,1.096-0.209,1.646-0.209c1.105,0,1.935,0.244,2.467,0.736c0.529,0.49,0.806,1.279,0.806,2.369v6.354h-1.048
				l-0.275-1.313h-0.067c-0.464,0.576-0.925,0.969-1.386,1.174c-0.461,0.203-1.034,0.314-1.729,0.314
				c-0.928,0-1.648-0.234-2.182-0.717C171.982,797.951,171.719,797.275,171.719,796.4z M173.213,796.419
				c0,0.514,0.147,0.898,0.461,1.168c0.311,0.271,0.738,0.402,1.293,0.402c0.875,0,1.563-0.242,2.063-0.73
				c0.5-0.484,0.75-1.16,0.75-2.027v-0.848l-1.398,0.064c-1.117,0.041-1.93,0.215-2.42,0.52
				C173.459,795.285,173.213,795.763,173.213,796.419z"/>
			<path fill="#5B5B5F" d="M181.492,791.943c0-0.76,0.309-1.355,0.926-1.797c0.615-0.439,1.461-0.66,2.537-0.66
				c0.994,0,1.969,0.205,2.92,0.609l-0.492,1.146c-0.932-0.387-1.773-0.578-2.529-0.578c-0.67,0-1.174,0.104-1.516,0.314
				c-0.342,0.209-0.512,0.49-0.512,0.857c0,0.25,0.063,0.465,0.188,0.646c0.127,0.176,0.332,0.344,0.612,0.502
				c0.283,0.158,0.828,0.391,1.638,0.688c1.104,0.402,1.846,0.814,2.229,1.225c0.379,0.402,0.563,0.922,0.563,1.535
				c0,0.861-0.313,1.523-0.963,1.994c-0.646,0.473-1.541,0.701-2.701,0.701c-1.229,0-2.188-0.188-2.883-0.578v-1.303
				c0.442,0.23,0.926,0.404,1.438,0.535c0.513,0.131,1.007,0.195,1.479,0.195c0.736,0,1.305-0.119,1.701-0.355
				c0.396-0.234,0.598-0.594,0.598-1.076c0-0.355-0.15-0.674-0.475-0.934c-0.314-0.26-0.932-0.564-1.842-0.914
				c-0.869-0.324-1.482-0.605-1.854-0.854c-0.36-0.234-0.633-0.52-0.813-0.814C181.582,792.736,181.492,792.371,181.492,791.943z"/>
			<path fill="#5B5B5F" d="M189.865,794.388c0-1.5,0.362-2.689,1.104-3.572c0.734-0.887,1.727-1.326,2.969-1.326
				c1.162,0,2.082,0.387,2.758,1.148c0.686,0.77,1.021,1.777,1.021,3.037v0.895h-6.399c0.022,1.092,0.31,1.922,0.83,2.484
				c0.521,0.564,1.267,0.852,2.215,0.852c1,0,1.984-0.209,2.968-0.627v1.256c-0.496,0.217-0.972,0.371-1.41,0.463
				c-0.441,0.098-0.979,0.145-1.604,0.145c-1.371,0-2.453-0.42-3.248-1.26C190.264,797.041,189.865,795.876,189.865,794.388z
				 M191.344,793.419h4.873c0-0.889-0.197-1.566-0.596-2.041c-0.396-0.473-0.97-0.709-1.701-0.709c-0.748,0-1.346,0.242-1.791,0.729
				C191.686,791.886,191.422,792.558,191.344,793.419z"/>
			<path fill="#5B5B5F" d="M199.545,791.943c0-0.76,0.311-1.355,0.926-1.797c0.615-0.439,1.463-0.66,2.535-0.66
				c0.996,0,1.971,0.205,2.922,0.609l-0.492,1.146c-0.932-0.387-1.771-0.578-2.529-0.578c-0.67,0-1.176,0.104-1.516,0.314
				c-0.342,0.209-0.512,0.49-0.512,0.857c0,0.25,0.063,0.465,0.188,0.646c0.129,0.176,0.334,0.344,0.617,0.502
				c0.28,0.158,0.828,0.391,1.635,0.688c1.104,0.402,1.851,0.814,2.229,1.225c0.381,0.402,0.57,0.922,0.57,1.535
				c0,0.861-0.32,1.523-0.968,1.994c-0.646,0.473-1.543,0.701-2.698,0.701c-1.23,0-2.191-0.188-2.886-0.578v-1.303
				c0.445,0.23,0.931,0.404,1.438,0.535c0.514,0.131,1.004,0.195,1.479,0.195c0.736,0,1.313-0.119,1.701-0.355
				c0.396-0.234,0.604-0.594,0.604-1.076c0-0.355-0.156-0.674-0.479-0.934c-0.313-0.26-0.93-0.564-1.844-0.914
				c-0.865-0.324-1.482-0.605-1.848-0.854c-0.363-0.234-0.64-0.52-0.813-0.814C199.635,792.736,199.545,792.371,199.545,791.943z"/>
		</g>
		<rect x="53.957" y="783.505" fill="#449FA2" width="17.803" height="17.801"/>
	</g>
	<g>
		<path fill="#FFFFFF" d="M168.934,529.238h-10.258v-2.158l3.684-3.725c1.09-1.117,1.803-1.892,2.137-2.323
			c0.336-0.432,0.576-0.831,0.723-1.199c0.148-0.368,0.221-0.749,0.221-1.145c0-0.589-0.162-1.026-0.486-1.315
			c-0.324-0.287-0.758-0.432-1.299-0.432c-0.57,0-1.121,0.131-1.656,0.393c-0.535,0.261-1.094,0.632-1.678,1.113l-1.686-1.997
			c0.723-0.615,1.322-1.05,1.797-1.305s0.994-0.45,1.557-0.587c0.561-0.137,1.189-0.206,1.887-0.206
			c0.916,0,1.727,0.167,2.428,0.502c0.703,0.335,1.248,0.803,1.637,1.405c0.389,0.602,0.582,1.291,0.582,2.067
			c0,0.677-0.119,1.31-0.355,1.902c-0.238,0.592-0.605,1.199-1.105,1.821c-0.498,0.623-1.377,1.51-2.635,2.66l-1.887,1.777v0.14
			h6.395V529.238z"/>
		<path fill="#FFFFFF" d="M175.748,519.863c1.418,0,2.549,0.398,3.389,1.194s1.26,1.887,1.26,3.272c0,1.639-0.506,2.9-1.516,3.783
			c-1.012,0.884-2.457,1.325-4.338,1.325c-1.633,0-2.949-0.265-3.953-0.793v-2.68c0.527,0.28,1.145,0.511,1.846,0.688
			c0.703,0.177,1.369,0.266,1.998,0.266c1.893,0,2.84-0.776,2.84-2.329c0-1.479-0.98-2.218-2.939-2.218
			c-0.355,0-0.748,0.035-1.176,0.105s-0.775,0.146-1.043,0.226l-1.234-0.662l0.551-7.478h7.961v2.63h-5.24l-0.271,2.881l0.352-0.07
			C174.641,519.91,175.147,519.863,175.748,519.863z"/>
		<path fill="#FFFFFF" d="M192.34,520.826c0,2.891-0.609,5.049-1.826,6.475c-1.219,1.426-3.063,2.138-5.531,2.138
			c-0.869,0-1.529-0.047-1.977-0.141v-2.489c0.561,0.141,1.15,0.211,1.766,0.211c1.037,0,1.891-0.152,2.561-0.457
			c0.668-0.305,1.18-0.783,1.535-1.436c0.354-0.652,0.559-1.551,0.611-2.694h-0.119c-0.389,0.629-0.838,1.071-1.346,1.325
			s-1.145,0.381-1.906,0.381c-1.279,0-2.285-0.41-3.021-1.229s-1.105-1.958-1.105-3.417c0-1.573,0.447-2.816,1.34-3.729
			c0.895-0.913,2.111-1.37,3.65-1.37c1.084,0,2.031,0.254,2.844,0.763c0.814,0.509,1.438,1.247,1.873,2.214
			S192.34,519.488,192.34,520.826z M187.03,516.881c-0.643,0-1.143,0.221-1.504,0.663c-0.361,0.441-0.543,1.076-0.543,1.906
			c0,0.709,0.164,1.271,0.492,1.687s0.826,0.622,1.496,0.622c0.629,0,1.166-0.205,1.615-0.617c0.447-0.412,0.672-0.885,0.672-1.42
			c0-0.797-0.209-1.469-0.627-2.018S187.68,516.881,187.03,516.881z"/>
	</g>
	<g>
		<path fill="#FFFFFF" d="M168.934,645.597h-10.258v-2.158l3.684-3.723c1.09-1.118,1.803-1.893,2.137-2.324
			c0.336-0.432,0.576-0.831,0.723-1.199c0.148-0.368,0.221-0.75,0.221-1.145c0-0.588-0.162-1.027-0.486-1.314
			c-0.324-0.288-0.758-0.432-1.299-0.432c-0.57,0-1.121,0.131-1.656,0.391c-0.535,0.262-1.094,0.633-1.678,1.115l-1.686-1.998
			c0.723-0.615,1.322-1.051,1.797-1.305s0.994-0.45,1.557-0.588c0.561-0.137,1.189-0.205,1.887-0.205
			c0.916,0,1.727,0.168,2.428,0.502c0.703,0.334,1.248,0.803,1.637,1.405s0.582,1.292,0.582,2.067c0,0.676-0.119,1.311-0.355,1.902
			c-0.238,0.592-0.605,1.199-1.105,1.822c-0.498,0.621-1.377,1.508-2.635,2.659l-1.887,1.776v0.141h6.395V645.597z"/>
		<path fill="#FFFFFF" d="M180.094,634.206c0,0.917-0.277,1.696-0.832,2.339c-0.557,0.643-1.336,1.084-2.34,1.324v0.061
			c1.186,0.147,2.082,0.507,2.691,1.079c0.607,0.571,0.912,1.343,0.912,2.313c0,1.412-0.512,2.512-1.535,3.297
			c-1.023,0.787-2.486,1.18-4.387,1.18c-1.592,0-3.004-0.264-4.234-0.793v-2.64c0.568,0.288,1.193,0.522,1.877,0.702
			c0.682,0.182,1.357,0.271,2.027,0.271c1.023,0,1.779-0.174,2.268-0.521c0.488-0.349,0.732-0.907,0.732-1.677
			c0-0.688-0.281-1.178-0.842-1.466c-0.563-0.287-1.459-0.432-2.691-0.432h-1.113v-2.379h1.135c1.137,0,1.969-0.148,2.494-0.446
			s0.787-0.808,0.787-1.53c0-1.111-0.695-1.666-2.088-1.666c-0.482,0-0.973,0.08-1.471,0.24s-1.053,0.438-1.66,0.834l-1.436-2.139
			c1.338-0.963,2.934-1.445,4.787-1.445c1.52,0,2.719,0.308,3.6,0.924C179.655,632.251,180.094,633.108,180.094,634.206z"/>
		<path fill="#FFFFFF" d="M192.34,637.187c0,2.891-0.609,5.049-1.826,6.474c-1.219,1.425-3.063,2.138-5.531,2.138
			c-0.869,0-1.529-0.047-1.977-0.141v-2.489c0.561,0.141,1.15,0.211,1.766,0.211c1.037,0,1.891-0.152,2.561-0.456
			c0.668-0.305,1.18-0.783,1.535-1.436c0.354-0.652,0.559-1.551,0.611-2.695h-0.119c-0.389,0.629-0.838,1.07-1.346,1.324
			c-0.508,0.255-1.145,0.382-1.906,0.382c-1.279,0-2.285-0.409-3.021-1.229c-0.736-0.819-1.105-1.959-1.105-3.418
			c0-1.572,0.447-2.814,1.34-3.729c0.895-0.914,2.111-1.37,3.65-1.37c1.084,0,2.031,0.255,2.844,0.763
			c0.814,0.509,1.438,1.246,1.873,2.213C192.123,634.696,192.34,635.848,192.34,637.187z M187.03,633.242
			c-0.643,0-1.143,0.221-1.504,0.662s-0.543,1.078-0.543,1.908c0,0.709,0.164,1.271,0.492,1.686s0.826,0.623,1.496,0.623
			c0.629,0,1.166-0.207,1.615-0.618c0.447-0.411,0.672-0.885,0.672-1.42c0-0.796-0.209-1.469-0.627-2.018
			S187.68,633.242,187.03,633.242z"/>
	</g>
	<g>
		<path fill="#9A999E" d="M45.95,460.197v-1.283l6.1-8.693h1.547v8.641h1.925v1.336h-1.925v2.943h-1.38v-2.943H45.95z
			 M47.427,458.861h4.79v-4.271c0-0.838,0.029-1.785,0.088-2.84h-0.07c-0.281,0.563-0.545,1.029-0.791,1.398L47.427,458.861z"/>
		<path fill="#9A999E" d="M56.814,454.418c0-1.332,0.375-2.384,1.124-3.155c0.75-0.771,1.736-1.156,2.959-1.156
			c0.875,0,1.641,0.224,2.296,0.672c0.655,0.447,1.159,1.1,1.512,1.957s0.529,1.869,0.529,3.033c0,5.031-1.949,7.547-5.847,7.547
			c-0.682,0-1.222-0.059-1.621-0.176v-1.273c0.47,0.176,1.004,0.264,1.604,0.264c1.404,0,2.465-0.438,3.181-1.311
			c0.717-0.873,1.107-2.213,1.172-4.018h-0.105c-0.321,0.492-0.749,0.867-1.281,1.126s-1.132,0.388-1.799,0.388
			c-1.141,0-2.047-0.343-2.717-1.027C57.149,456.603,56.814,455.646,56.814,454.418z M58.273,454.401
			c0,0.848,0.211,1.515,0.632,1.999c0.421,0.486,1.062,0.729,1.922,0.729c0.532,0,1.022-0.108,1.47-0.326s0.8-0.516,1.058-0.892
			c0.257-0.377,0.386-0.771,0.386-1.183c0-0.619-0.12-1.189-0.359-1.713c-0.24-0.524-0.575-0.937-1.005-1.236
			c-0.431-0.301-0.923-0.451-1.479-0.451c-0.837,0-1.483,0.271-1.939,0.813C58.501,452.682,58.273,453.435,58.273,454.401z"/>
		<path fill="#9A999E" d="M67.088,459.863c0-1.471,0.901-2.617,2.705-3.438c-0.817-0.457-1.403-0.95-1.759-1.48
			s-0.533-1.123-0.533-1.779c0-0.932,0.347-1.675,1.039-2.229s1.619-0.83,2.78-0.83c1.176,0,2.107,0.271,2.795,0.816
			c0.688,0.545,1.032,1.299,1.032,2.26c0,0.633-0.197,1.209-0.593,1.73c-0.395,0.521-1.025,0.996-1.893,1.424
			c1.049,0.498,1.794,1.021,2.235,1.569c0.442,0.548,0.663,1.183,0.663,1.903c0,1.066-0.373,1.917-1.12,2.553
			c-0.746,0.636-1.769,0.953-3.068,0.953c-1.375,0-2.433-0.3-3.174-0.9C67.458,461.815,67.088,460.964,67.088,459.863z
			 M68.547,459.898c0,0.703,0.244,1.25,0.732,1.643s1.175,0.59,2.059,0.59c0.871,0,1.55-0.205,2.035-0.615s0.729-0.973,0.729-1.688
			c0-0.568-0.229-1.074-0.685-1.517s-1.252-0.872-2.387-1.288c-0.872,0.375-1.504,0.79-1.896,1.244S68.547,459.265,68.547,459.898z
			 M68.96,453.226c0,0.539,0.173,1.002,0.518,1.389s0.982,0.773,1.912,1.16c0.837-0.352,1.429-0.729,1.776-1.133
			c0.349-0.404,0.522-0.877,0.522-1.416c0-0.592-0.212-1.062-0.636-1.41c-0.425-0.349-1.008-0.523-1.75-0.523
			c-0.731,0-1.305,0.176-1.72,0.527C69.167,452.171,68.96,452.64,68.96,453.226z"/>
	</g>
</g>
</svg>
