<?xml version="1.0" encoding="utf-8"?>
<!-- Generator: Adobe Illustrator 16.0.0, SVG Export Plug-In . SVG Version: 6.00 Build 0)  -->
<!DOCTYPE svg PUBLIC "-//W3C//DTD SVG 1.1//EN" "http://www.w3.org/Graphics/SVG/1.1/DTD/svg11.dtd">
<svg version="1.1" xmlns="http://www.w3.org/2000/svg" xmlns:xlink="http://www.w3.org/1999/xlink" x="0px" y="0px" width="278.5px"
	 height="714.5px" viewBox="0 0 278.5 714.5" enable-background="new 0 0 278.5 714.5" xml:space="preserve">
<g id="Capa_1" display="none">
	<g id="global-estimates" display="inline">
		<g>
			<rect x="122.532" y="210.811" fill="#199598" width="100.494" height="122.967"/>
			<rect x="122.532" y="85.746" fill="#DD9B2B" width="100.494" height="125.064"/>
		</g>
		<g>
			<path fill="#666565" d="M62.333,39.421c0-1.549,0.311-2.906,0.932-4.071s1.518-2.055,2.686-2.67
				c1.168-0.615,2.537-0.922,4.106-0.922c1.59,0,3.07,0.292,4.443,0.876l-0.672,1.529c-1.346-0.571-2.641-0.856-3.884-0.856
				c-1.813,0-3.229,0.54-4.249,1.62c-1.019,1.08-1.528,2.578-1.528,4.494c0,2.018,0.491,3.548,1.473,4.591
				c0.981,1.043,2.423,1.564,4.326,1.564c1.033,0,2.042-0.12,3.026-0.358v-4.604H69.66v-1.549h5.063v7.255
				c-0.788,0.248-1.59,0.436-2.405,0.563c-0.814,0.127-1.76,0.191-2.833,0.191c-2.255,0-4.012-0.67-5.268-2.012
				C62.961,43.72,62.333,41.84,62.333,39.421z"/>
			<path fill="#666565" d="M78.047,46.87V31.014h1.69V46.87H78.047z"/>
			<path fill="#666565" d="M82.704,41.266c0-1.817,0.454-3.233,1.36-4.247c0.908-1.014,2.167-1.521,3.78-1.521
				c1.558,0,2.795,0.519,3.713,1.556c0.917,1.038,1.376,2.441,1.376,4.211c0,1.824-0.457,3.248-1.372,4.272s-2.178,1.536-3.79,1.536
				c-0.996,0-1.88-0.234-2.651-0.704c-0.772-0.47-1.368-1.144-1.788-2.021S82.704,42.443,82.704,41.266z M84.436,41.266
				c0,1.43,0.286,2.52,0.857,3.269c0.572,0.749,1.412,1.124,2.521,1.124c1.109,0,1.951-0.373,2.526-1.119s0.862-1.837,0.862-3.273
				c0-1.423-0.288-2.504-0.862-3.243c-0.574-0.739-1.424-1.108-2.546-1.108c-1.109,0-1.946,0.364-2.51,1.093
				C84.718,38.736,84.436,39.822,84.436,41.266z"/>
			<path fill="#666565" d="M95.931,46.87V31.014h1.691v3.852c0,0.863-0.027,1.637-0.082,2.323h0.082
				c0.788-1.114,1.957-1.671,3.506-1.671c1.46,0,2.595,0.501,3.402,1.503c0.81,1.002,1.213,2.42,1.213,4.254
				s-0.407,3.259-1.223,4.274c-0.814,1.016-1.945,1.523-3.394,1.523c-0.728,0-1.392-0.134-1.992-0.402
				c-0.602-0.268-1.106-0.681-1.514-1.238H97.5l-0.356,1.437L95.931,46.87L95.931,46.87z M97.622,41.276
				c0,1.569,0.262,2.692,0.785,3.368c0.522,0.676,1.361,1.014,2.517,1.014c1.04,0,1.813-0.379,2.323-1.136
				c0.51-0.758,0.765-1.846,0.765-3.266c0-1.454-0.255-2.538-0.765-3.251s-1.297-1.07-2.364-1.07c-1.155,0-1.987,0.331-2.497,0.994
				C97.877,38.59,97.622,39.707,97.622,41.276z"/>
			<path fill="#666565" d="M107.884,43.794c0-2.25,1.806-3.429,5.418-3.537l1.898-0.062v-0.702c0-0.887-0.188-1.542-0.564-1.965
				c-0.376-0.423-0.978-0.634-1.806-0.634c-0.93,0-1.98,0.289-3.153,0.866l-0.526-1.298c0.551-0.294,1.153-0.525,1.81-0.692
				s1.313-0.251,1.972-0.251c1.33,0,2.315,0.295,2.957,0.887c0.641,0.591,0.962,1.539,0.962,2.843v7.622h-1.253l-0.336-1.571h-0.082
				c-0.556,0.693-1.11,1.162-1.663,1.407c-0.552,0.246-1.242,0.368-2.07,0.368c-1.111,0-1.983-0.284-2.615-0.853
				C108.199,45.652,107.884,44.843,107.884,43.794z M109.677,43.814c0,0.615,0.185,1.082,0.554,1.403
				c0.37,0.321,0.888,0.481,1.552,0.481c1.051,0,1.876-0.29,2.477-0.87c0.6-0.581,0.9-1.393,0.9-2.437v-1.014l-1.688,0.071
				c-1.343,0.048-2.311,0.258-2.904,0.63C109.974,42.45,109.677,43.029,109.677,43.814z"/>
			<path fill="#666565" d="M120.326,46.87V31.014h1.69V46.87H120.326z"/>
			<path fill="#666565" d="M130.404,41.377c0-1.8,0.442-3.23,1.326-4.29s2.071-1.589,3.562-1.589c1.395,0,2.498,0.46,3.311,1.38
				c0.813,0.921,1.219,2.135,1.219,3.643v1.07h-7.684c0.034,1.311,0.366,2.306,0.995,2.985c0.629,0.68,1.516,1.019,2.659,1.019
				c1.199,0,2.384-0.251,3.556-0.754v1.508c-0.596,0.258-1.16,0.443-1.692,0.555c-0.531,0.112-1.173,0.168-1.925,0.168
				c-1.646,0-2.945-0.502-3.897-1.508C130.88,44.561,130.404,43.165,130.404,41.377z M132.177,40.216h5.849
				c0-1.066-0.237-1.883-0.714-2.451c-0.477-0.567-1.157-0.851-2.042-0.851c-0.897,0-1.615,0.292-2.148,0.876
				C132.587,38.375,132.272,39.183,132.177,40.216z"/>
			<path fill="#666565" d="M142.021,38.446c0-0.911,0.37-1.63,1.109-2.158c0.74-0.527,1.754-0.791,3.044-0.791
				c1.195,0,2.363,0.244,3.504,0.733l-0.59,1.377c-1.117-0.463-2.13-0.695-3.037-0.695c-0.803,0-1.409,0.126-1.818,0.378
				c-0.407,0.251-0.611,0.599-0.611,1.042c0,0.3,0.076,0.555,0.229,0.766c0.153,0.211,0.4,0.412,0.741,0.603
				c0.34,0.191,0.994,0.467,1.96,0.828c1.324,0.483,2.215,0.97,2.671,1.46c0.457,0.49,0.686,1.105,0.686,1.849
				c0,1.034-0.386,1.832-1.155,2.393c-0.771,0.561-1.852,0.841-3.243,0.841c-1.479,0-2.631-0.23-3.458-0.693V44.82
				c0.536,0.272,1.11,0.487,1.724,0.644c0.614,0.157,1.206,0.235,1.775,0.235c0.885,0,1.565-0.141,2.042-0.424
				c0.477-0.283,0.715-0.713,0.715-1.292c0-0.436-0.188-0.809-0.566-1.119c-0.379-0.31-1.115-0.676-2.212-1.098
				c-1.042-0.388-1.78-0.727-2.217-1.017c-0.436-0.29-0.76-0.618-0.974-0.986C142.127,39.396,142.021,38.957,142.021,38.446z"/>
			<path fill="#666565" d="M151.212,37.016v-0.815l1.6-0.703l0.713-2.385h0.979v2.588h3.24v1.314h-3.24v6.588
				c0,0.674,0.16,1.191,0.479,1.552c0.319,0.361,0.758,0.542,1.314,0.542c0.299,0,0.587-0.022,0.866-0.066
				c0.277-0.044,0.499-0.09,0.662-0.138v1.278c-0.184,0.087-0.453,0.159-0.811,0.216c-0.355,0.057-0.678,0.085-0.963,0.085
				c-2.16,0-3.241-1.138-3.241-3.414v-6.644h-1.599V37.016z"/>
			<path fill="#666565" d="M159.915,32.675c0-0.387,0.087-0.671,0.263-0.851c0.175-0.18,0.395-0.27,0.658-0.27
				c0.293,0,0.545,0.092,0.758,0.275c0.212,0.184,0.318,0.466,0.318,0.846c0,0.38-0.106,0.664-0.318,0.851s-0.465,0.28-0.758,0.28
				c-0.264,0-0.482-0.093-0.658-0.28S159.915,33.056,159.915,32.675z M160.058,46.87V35.702h1.549V46.87H160.058z"/>
			<path fill="#666565" d="M165.336,46.87V35.702h1.375l0.274,1.509h0.082c0.319-0.537,0.771-0.957,1.351-1.259
				c0.581-0.302,1.23-0.453,1.952-0.453c1.746,0,2.887,0.625,3.424,1.876h0.082c0.333-0.579,0.814-1.036,1.446-1.372
				c0.633-0.336,1.353-0.504,2.161-0.504c1.264,0,2.209,0.324,2.838,0.973c0.629,0.648,0.942,1.687,0.942,3.113v7.286h-1.691V39.59
				c0-0.892-0.189-1.561-0.57-2.006s-0.973-0.669-1.773-0.669c-1.053,0-1.831,0.303-2.333,0.909
				c-0.503,0.605-0.754,1.538-0.754,2.798v6.249h-1.69V39.59c0-0.892-0.19-1.561-0.571-2.006s-0.976-0.669-1.783-0.669
				c-1.06,0-1.836,0.318-2.329,0.955c-0.492,0.637-0.739,1.68-0.739,3.13v5.871L165.336,46.87L165.336,46.87z"/>
			<path fill="#666565" d="M183.913,43.794c0-2.25,1.806-3.429,5.418-3.537l1.897-0.062v-0.702c0-0.887-0.188-1.542-0.563-1.965
				c-0.376-0.423-0.979-0.634-1.807-0.634c-0.929,0-1.979,0.289-3.152,0.866l-0.526-1.298c0.55-0.294,1.153-0.525,1.809-0.692
				c0.656-0.167,1.313-0.251,1.973-0.251c1.33,0,2.314,0.295,2.957,0.887c0.641,0.591,0.962,1.539,0.962,2.843v7.622h-1.253
				l-0.336-1.571h-0.082c-0.557,0.693-1.11,1.162-1.663,1.407c-0.552,0.246-1.242,0.368-2.07,0.368
				c-1.112,0-1.983-0.284-2.616-0.853C184.229,45.652,183.913,44.843,183.913,43.794z M185.707,43.814
				c0,0.615,0.185,1.082,0.554,1.403c0.37,0.321,0.887,0.481,1.551,0.481c1.051,0,1.876-0.29,2.478-0.87
				c0.6-0.581,0.899-1.393,0.899-2.437v-1.014l-1.688,0.071c-1.343,0.048-2.312,0.258-2.904,0.63S185.707,43.029,185.707,43.814z"/>
			<path fill="#666565" d="M194.877,37.016v-0.815l1.6-0.703l0.713-2.385h0.979v2.588h3.24v1.314h-3.24v6.588
				c0,0.674,0.16,1.191,0.479,1.552c0.319,0.361,0.757,0.542,1.314,0.542c0.299,0,0.587-0.022,0.866-0.066
				c0.277-0.044,0.499-0.09,0.662-0.138v1.278c-0.184,0.087-0.453,0.159-0.811,0.216c-0.355,0.057-0.678,0.085-0.963,0.085
				c-2.16,0-3.241-1.138-3.241-3.414v-6.644h-1.599V37.016z"/>
			<path fill="#666565" d="M203.101,41.377c0-1.8,0.442-3.23,1.326-4.29s2.071-1.589,3.561-1.589c1.396,0,2.498,0.46,3.312,1.38
				c0.812,0.921,1.219,2.135,1.219,3.643v1.07h-7.684c0.034,1.311,0.366,2.306,0.995,2.985c0.629,0.68,1.516,1.019,2.658,1.019
				c1.199,0,2.385-0.251,3.557-0.754v1.508c-0.597,0.258-1.16,0.443-1.692,0.555c-0.532,0.112-1.173,0.168-1.925,0.168
				c-1.646,0-2.946-0.502-3.898-1.508C203.577,44.561,203.101,43.165,203.101,41.377z M204.874,40.216h5.849
				c0-1.066-0.238-1.883-0.714-2.451c-0.478-0.567-1.157-0.851-2.042-0.851c-0.898,0-1.615,0.292-2.149,0.876
				C205.284,38.375,204.969,39.183,204.874,40.216z"/>
			<path fill="#666565" d="M214.718,38.446c0-0.911,0.37-1.63,1.109-2.158c0.739-0.527,1.754-0.791,3.044-0.791
				c1.194,0,2.362,0.244,3.504,0.733l-0.59,1.377c-1.117-0.463-2.131-0.695-3.037-0.695c-0.804,0-1.409,0.126-1.818,0.378
				c-0.408,0.251-0.612,0.599-0.612,1.042c0,0.3,0.077,0.555,0.229,0.766c0.153,0.211,0.399,0.412,0.741,0.603
				c0.34,0.191,0.994,0.467,1.96,0.828c1.323,0.483,2.215,0.97,2.671,1.46c0.457,0.49,0.685,1.105,0.685,1.849
				c0,1.034-0.385,1.832-1.154,2.393c-0.771,0.561-1.852,0.841-3.243,0.841c-1.479,0-2.631-0.23-3.458-0.693V44.82
				c0.536,0.272,1.109,0.487,1.724,0.644c0.614,0.157,1.206,0.235,1.775,0.235c0.885,0,1.564-0.141,2.042-0.424
				c0.477-0.283,0.715-0.713,0.715-1.292c0-0.436-0.189-0.809-0.567-1.119c-0.378-0.31-1.115-0.676-2.211-1.098
				c-1.042-0.388-1.781-0.727-2.217-1.017s-0.76-0.618-0.974-0.986C214.824,39.396,214.718,38.957,214.718,38.446z"/>
		</g>
		<g>
			<path fill="#9A999E" d="M33.949,91.011v-1.199l3.27-3.299c0.996-1.012,1.653-1.734,1.97-2.166
				c0.317-0.432,0.556-0.853,0.713-1.262c0.159-0.409,0.238-0.85,0.238-1.321c0-0.665-0.201-1.192-0.603-1.582
				c-0.402-0.39-0.96-0.584-1.674-0.584c-0.516,0-1.004,0.085-1.465,0.256c-0.462,0.17-0.976,0.48-1.542,0.93L34.11,79.82
				c1.144-0.935,2.39-1.402,3.736-1.402c1.166,0,2.081,0.297,2.743,0.891c0.663,0.594,0.994,1.393,0.994,2.396
				c0,0.79-0.222,1.572-0.663,2.345c-0.441,0.773-1.269,1.751-2.479,2.934l-2.717,2.669v0.068h6.386v1.291h-8.16V91.011z"/>
			<path fill="#9A999E" d="M44.334,90.111c0-0.379,0.086-0.667,0.259-0.862c0.172-0.195,0.42-0.293,0.743-0.293
				c0.328,0,0.584,0.098,0.769,0.293s0.276,0.483,0.276,0.862c0,0.368-0.094,0.651-0.28,0.849c-0.187,0.198-0.44,0.297-0.764,0.297
				c-0.289,0-0.528-0.089-0.718-0.267C44.43,90.811,44.334,90.518,44.334,90.111z"/>
			<path fill="#9A999E" d="M48.521,91.011v-1.199l3.271-3.299c0.996-1.012,1.652-1.734,1.97-2.166
				c0.317-0.432,0.555-0.853,0.713-1.262c0.159-0.409,0.238-0.85,0.238-1.321c0-0.665-0.201-1.192-0.604-1.582
				c-0.401-0.39-0.96-0.584-1.673-0.584c-0.516,0-1.004,0.085-1.465,0.256c-0.462,0.17-0.976,0.48-1.542,0.93l-0.747-0.964
				c1.144-0.935,2.389-1.402,3.736-1.402c1.166,0,2.081,0.297,2.743,0.891c0.663,0.594,0.993,1.393,0.993,2.396
				c0,0.79-0.221,1.572-0.662,2.345c-0.441,0.773-1.269,1.751-2.479,2.934l-2.717,2.669v0.068h6.386v1.291h-8.161V91.011z"/>
			<path fill="#9A999E" d="M58.482,84.782c0-2.161,0.338-3.765,1.015-4.813c0.676-1.046,1.707-1.57,3.092-1.57
				c1.346,0,2.368,0.546,3.065,1.638c0.699,1.092,1.049,2.673,1.049,4.744c0,2.147-0.339,3.75-1.015,4.81
				c-0.676,1.06-1.709,1.589-3.101,1.589c-1.34,0-2.36-0.542-3.059-1.627C58.832,88.468,58.482,86.878,58.482,84.782z
				 M59.926,84.782c0,1.802,0.212,3.113,0.636,3.935c0.424,0.822,1.1,1.232,2.026,1.232c0.938,0,1.618-0.417,2.039-1.25
				s0.632-2.139,0.632-3.918c0-1.778-0.21-3.082-0.632-3.909c-0.421-0.827-1.102-1.241-2.039-1.241
				c-0.927,0-1.604,0.408-2.026,1.224C60.138,81.672,59.926,82.98,59.926,84.782z"/>
			<path fill="#9A999E" d="M68.554,85.708c0-2.441,0.474-4.267,1.422-5.476s2.352-1.814,4.208-1.814
				c0.643,0,1.147,0.054,1.518,0.161v1.231c-0.438-0.164-0.938-0.247-1.5-0.247c-1.331,0-2.348,0.417-3.049,1.249
				c-0.701,0.833-1.087,2.141-1.154,3.924H70.1c0.623-0.963,1.608-1.445,2.955-1.445c1.121,0,2.003,0.336,2.649,1.008
				c0.646,0.672,0.969,1.584,0.969,2.736c0,1.288-0.354,2.301-1.063,3.039c-0.708,0.738-1.665,1.106-2.869,1.106
				c-1.285,0-2.305-0.482-3.058-1.447C68.931,88.768,68.554,87.427,68.554,85.708z M69.997,86.721c0,0.585,0.112,1.13,0.34,1.636
				c0.227,0.506,0.548,0.906,0.964,1.201S72.191,90,72.723,90c0.804,0,1.428-0.254,1.873-0.762c0.444-0.508,0.667-1.242,0.667-2.202
				c0-0.823-0.207-1.471-0.62-1.942c-0.413-0.472-1.03-0.707-1.851-0.707c-0.509,0-0.978,0.105-1.401,0.315s-0.763,0.5-1.015,0.869
				C70.123,85.94,69.997,86.324,69.997,86.721z"/>
		</g>
		<g>
			<path fill="#9A999E" d="M68.426,327.548c0-2.161,0.338-3.765,1.014-4.812c0.677-1.047,1.707-1.57,3.093-1.57
				c1.346,0,2.367,0.546,3.065,1.638c0.699,1.093,1.048,2.673,1.048,4.744c0,2.147-0.338,3.75-1.014,4.81
				c-0.676,1.061-1.709,1.59-3.102,1.59c-1.34,0-2.359-0.543-3.058-1.627C68.775,331.234,68.426,329.645,68.426,327.548z
				 M69.87,327.548c0,1.802,0.212,3.113,0.636,3.935c0.424,0.822,1.099,1.232,2.026,1.232c0.938,0,1.617-0.417,2.038-1.25
				c0.422-0.833,0.633-2.139,0.633-3.918c0-1.777-0.21-3.082-0.633-3.908c-0.421-0.828-1.101-1.242-2.038-1.242
				c-0.928,0-1.604,0.408-2.026,1.225C70.082,324.438,69.87,325.747,69.87,327.548z"/>
		</g>
		<g>
			<path fill="#FFFFFF" d="M154.6,272.294h-3.148v-8.621l0.03-1.417l0.052-1.549c-0.523,0.523-0.888,0.866-1.091,1.029l-1.712,1.375
				l-1.519-1.896l4.8-3.821h2.588V272.294z"/>
			<path fill="#FFFFFF" d="M159.084,270.837c0-0.571,0.152-1.002,0.458-1.294s0.75-0.438,1.335-0.438c0.563,0,1,0.148,1.31,0.447
				s0.463,0.728,0.463,1.284c0,0.537-0.155,0.959-0.469,1.269c-0.313,0.311-0.748,0.463-1.304,0.463
				c-0.571,0-1.012-0.15-1.325-0.452S159.084,271.387,159.084,270.837z"/>
			<path fill="#FFFFFF" d="M172.463,272.294h-3.149v-8.621l0.031-1.417l0.051-1.549c-0.522,0.523-0.887,0.866-1.09,1.029
				l-1.712,1.375l-1.519-1.896l4.8-3.821h2.588V272.294z"/>
			<path fill="#FFFFFF" d="M186.923,264.845c0,2.603-0.426,4.528-1.279,5.778c-0.853,1.25-2.166,1.875-3.938,1.875
				c-1.72,0-3.016-0.645-3.889-1.936s-1.31-3.196-1.31-5.718c0-2.629,0.425-4.567,1.274-5.813c0.849-1.246,2.156-1.87,3.923-1.87
				c1.719,0,3.018,0.652,3.896,1.957C186.483,260.422,186.923,262.332,186.923,264.845z M179.637,264.845
				c0,1.828,0.158,3.138,0.474,3.929c0.316,0.793,0.848,1.188,1.596,1.188c0.732,0,1.264-0.4,1.589-1.203
				c0.326-0.801,0.489-2.105,0.489-3.913c0-1.827-0.165-3.14-0.494-3.938c-0.33-0.798-0.858-1.197-1.584-1.197
				c-0.741,0-1.271,0.399-1.59,1.197C179.797,261.705,179.637,263.018,179.637,264.845z"/>
			<path fill="#FFFFFF" d="M198.917,272.294h-10.415v-2.19l3.74-3.781c1.106-1.135,1.831-1.92,2.171-2.359
				c0.339-0.438,0.584-0.844,0.732-1.218c0.149-0.374,0.225-0.761,0.225-1.162c0-0.599-0.165-1.042-0.494-1.335
				c-0.33-0.292-0.77-0.438-1.319-0.438c-0.578,0-1.138,0.131-1.682,0.396c-0.543,0.266-1.111,0.643-1.702,1.131l-1.712-2.027
				c0.732-0.625,1.341-1.066,1.824-1.326c0.481-0.258,1.009-0.457,1.58-0.596c0.57-0.139,1.209-0.209,1.916-0.209
				c0.931,0,1.752,0.17,2.466,0.51c0.714,0.341,1.267,0.815,1.661,1.428c0.394,0.611,0.591,1.311,0.591,2.099
				c0,0.687-0.121,1.33-0.361,1.931c-0.242,0.602-0.615,1.218-1.121,1.85s-1.397,1.531-2.675,2.701l-1.916,1.804v0.144h6.491
				V272.294L198.917,272.294z"/>
		</g>
		<g>
			<path fill="#FFFFFF" d="M154.6,156.528h-3.148v-8.621l0.03-1.417l0.052-1.549c-0.523,0.523-0.888,0.866-1.091,1.029l-1.712,1.375
				l-1.519-1.895l4.8-3.821h2.588V156.528z"/>
			<path fill="#FFFFFF" d="M159.084,155.071c0-0.571,0.152-1.002,0.458-1.294s0.75-0.438,1.335-0.438c0.563,0,1,0.149,1.31,0.448
				c0.31,0.299,0.463,0.727,0.463,1.284c0,0.537-0.155,0.959-0.469,1.269c-0.313,0.31-0.748,0.463-1.304,0.463
				c-0.571,0-1.012-0.151-1.325-0.453C159.239,156.048,159.084,155.622,159.084,155.071z"/>
			<path fill="#FFFFFF" d="M172.463,156.528h-3.149v-8.621l0.031-1.417l0.051-1.549c-0.522,0.523-0.887,0.866-1.09,1.029
				l-1.712,1.375l-1.519-1.895l4.8-3.821h2.588V156.528z"/>
			<path fill="#FFFFFF" d="M186.923,149.079c0,2.602-0.426,4.528-1.279,5.778c-0.853,1.25-2.166,1.875-3.938,1.875
				c-1.72,0-3.016-0.645-3.889-1.936s-1.31-3.196-1.31-5.717c0-2.629,0.425-4.567,1.274-5.813c0.849-1.246,2.156-1.87,3.923-1.87
				c1.719,0,3.018,0.652,3.896,1.957C186.483,144.657,186.923,146.566,186.923,149.079z M179.637,149.079
				c0,1.828,0.158,3.137,0.474,3.929c0.316,0.792,0.848,1.187,1.596,1.187c0.732,0,1.264-0.401,1.589-1.203
				c0.326-0.801,0.489-2.106,0.489-3.913c0-1.827-0.165-3.14-0.494-3.938c-0.33-0.798-0.858-1.197-1.584-1.197
				c-0.741,0-1.271,0.399-1.59,1.197C179.797,145.939,179.637,147.252,179.637,149.079z"/>
			<path fill="#FFFFFF" d="M199.253,153.441h-1.793v3.087h-3.078v-3.087h-6.359v-2.191l6.532-9.62h2.904v9.365h1.793
				L199.253,153.441L199.253,153.441z M194.382,150.995v-2.527c0-0.421,0.017-1.033,0.051-1.834
				c0.034-0.802,0.063-1.267,0.082-1.396h-0.082c-0.251,0.557-0.554,1.101-0.907,1.631l-2.73,4.127L194.382,150.995L194.382,150.995
				z"/>
		</g>
		<g>
			<path fill="#87868A" d="M61.059,226.451H46.161v-4.208c0-1.978,0.295-3.407,0.885-4.29c0.591-0.885,1.522-1.325,2.799-1.325
				c0.883,0,1.611,0.246,2.186,0.739c0.573,0.492,0.945,1.211,1.115,2.154h0.104c0.388-2.248,1.578-3.373,3.57-3.373
				c1.332,0,2.371,0.449,3.118,1.349c0.748,0.897,1.121,2.153,1.121,3.769V226.451z M52.529,224.719v-2.853
				c0-1.224-0.19-2.103-0.573-2.64c-0.384-0.537-1.028-0.806-1.938-0.806c-0.834,0-1.436,0.299-1.805,0.896
				c-0.369,0.598-0.555,1.55-0.555,2.854v2.547L52.529,224.719L52.529,224.719z M59.581,224.719v-3.107
				c0-1.201-0.232-2.106-0.698-2.715c-0.465-0.608-1.193-0.912-2.187-0.912c-0.924,0-1.604,0.311-2.037,0.933
				c-0.436,0.621-0.652,1.567-0.652,2.838v2.965L59.581,224.719L59.581,224.719z"/>
			<path fill="#87868A" d="M46.864,213.326c-0.388,0-0.671-0.087-0.852-0.264c-0.18-0.176-0.27-0.395-0.27-0.657
				c0-0.294,0.092-0.546,0.273-0.759c0.185-0.211,0.466-0.317,0.847-0.317s0.664,0.106,0.852,0.317
				c0.187,0.213,0.28,0.465,0.28,0.759c0,0.264-0.095,0.481-0.28,0.657C47.528,213.239,47.244,213.326,46.864,213.326z
				 M61.059,213.184H49.891v-1.549h11.168V213.184z"/>
			<path fill="#87868A" d="M61.059,207.905H45.203v-1.691h15.854L61.059,207.905L61.059,207.905z"/>
			<path fill="#87868A" d="M61.059,202.627H45.203v-1.691h15.854L61.059,202.627L61.059,202.627z"/>
			<path fill="#87868A" d="M46.864,197.491c-0.388,0-0.671-0.089-0.852-0.265c-0.18-0.175-0.27-0.395-0.27-0.656
				c0-0.293,0.092-0.547,0.273-0.758c0.185-0.213,0.466-0.318,0.847-0.318s0.664,0.105,0.852,0.318
				c0.187,0.211,0.28,0.465,0.28,0.758c0,0.263-0.095,0.481-0.28,0.656C47.528,197.402,47.244,197.491,46.864,197.491z
				 M61.059,197.35H49.891v-1.55h11.168V197.35z"/>
			<path fill="#87868A" d="M55.454,192.691c-1.817,0-3.232-0.455-4.247-1.361c-1.015-0.908-1.521-2.168-1.521-3.78
				c0-1.558,0.52-2.795,1.558-3.713c1.036-0.918,2.44-1.377,4.211-1.377c1.823,0,3.248,0.457,4.271,1.372
				c1.024,0.914,1.536,2.178,1.536,3.789c0,0.996-0.234,1.88-0.704,2.652c-0.47,0.771-1.144,1.367-2.021,1.787
				S56.632,192.691,55.454,192.691z M55.454,190.959c1.43,0,2.52-0.286,3.269-0.857c0.749-0.57,1.124-1.412,1.124-2.521
				s-0.373-1.951-1.119-2.526c-0.745-0.574-1.837-0.861-3.272-0.861c-1.423,0-2.504,0.287-3.243,0.861
				c-0.738,0.575-1.108,1.424-1.108,2.547c0,1.108,0.364,1.945,1.095,2.51C52.925,190.677,54.011,190.959,55.454,190.959z"/>
			<path fill="#87868A" d="M61.059,179.465H49.891v-1.376l1.509-0.275v-0.081c-0.544-0.347-0.966-0.832-1.265-1.457
				s-0.448-1.321-0.448-2.089c0-1.346,0.324-2.357,0.975-3.037c0.647-0.68,1.687-1.02,3.111-1.02h7.286v1.692H53.82
				c-0.911,0-1.593,0.207-2.042,0.621c-0.448,0.415-0.675,1.063-0.675,1.946c0,1.169,0.317,2.024,0.95,2.568
				c0.633,0.543,1.678,0.815,3.135,0.815h5.871V179.465z"/>
			<path fill="#87868A" d="M52.635,167.369c-0.911,0-1.63-0.37-2.157-1.109c-0.526-0.74-0.791-1.755-0.791-3.044
				c0-1.195,0.244-2.363,0.733-3.504l1.378,0.59c-0.463,1.117-0.695,2.13-0.695,3.037c0,0.803,0.127,1.409,0.379,1.817
				c0.251,0.408,0.6,0.612,1.041,0.612c0.3,0,0.557-0.076,0.768-0.229c0.211-0.153,0.412-0.399,0.603-0.74
				c0.191-0.341,0.467-0.994,0.827-1.961c0.483-1.324,0.971-2.215,1.461-2.671c0.49-0.457,1.106-0.686,1.849-0.686
				c1.034,0,1.832,0.386,2.394,1.155c0.562,0.771,0.842,1.852,0.842,3.243c0,1.479-0.229,2.631-0.693,3.458h-1.561
				c0.272-0.535,0.486-1.11,0.644-1.724c0.156-0.614,0.234-1.206,0.234-1.775c0-0.885-0.141-1.565-0.424-2.043
				c-0.282-0.477-0.713-0.715-1.292-0.715c-0.437,0-0.81,0.189-1.118,0.567s-0.676,1.114-1.098,2.211
				c-0.39,1.041-0.729,1.78-1.018,2.217c-0.29,0.436-0.618,0.76-0.985,0.974C53.585,167.263,53.146,167.369,52.635,167.369z"/>
			<path fill="#87868A" d="M55.902,152.409h-1.313v-1.528l-0.428,0.021h-0.448l-0.815-0.021v1.528h-1.313v-1.652
				c-1.773-0.265-3.155-0.894-4.147-1.885c-0.992-0.992-1.487-2.292-1.487-3.902c0-1.365,0.334-2.608,1.002-3.729l1.42,0.724
				c-0.582,1.128-0.872,2.13-0.872,3.006c0,2.167,1.36,3.519,4.086,4.055v-5.195h1.313v5.319l0.581,0.021h0.652l0.458-0.021v-4.698
				h1.313v4.554c1.229-0.251,2.182-0.721,2.854-1.41s1.009-1.611,1.009-2.767c0-1.06-0.226-2.109-0.676-3.148h1.521
				c0.437,0.992,0.653,2.068,0.653,3.23c0,1.609-0.457,2.905-1.371,3.887c-0.913,0.981-2.243,1.628-3.989,1.94v1.671H55.902z"/>
		</g>
		
			<line fill="none" stroke="#666565" stroke-width="0.25" stroke-miterlimit="10" x1="92.317" y1="85.746" x2="92.317" y2="333.777"/>
		
			<line fill="none" stroke="#666565" stroke-width="0.25" stroke-miterlimit="10" x1="223.027" y1="333.777" x2="78.597" y2="333.777"/>
		
			<line fill="none" stroke="#666565" stroke-width="0.25" stroke-miterlimit="10" x1="223.027" y1="85.746" x2="78.597" y2="85.746"/>
	</g>
	<g id="EU28-estimates" display="inline">
		<g>
			<rect x="384.258" y="214.99" fill="#199598" width="100.497" height="118.787"/>
			<rect x="384.258" y="85.796" fill="#DD9B2B" width="100.497" height="129.194"/>
		</g>
		<g>
			<path fill="#9A999E" d="M306.778,88.166v-1.239l5.894-8.399h1.495v8.347h1.858v1.291h-1.858v2.845h-1.334v-2.845H306.778z
				 M308.203,86.875h4.629v-4.127c0-0.81,0.027-1.724,0.085-2.743h-0.067c-0.271,0.543-0.526,0.994-0.765,1.35L308.203,86.875z"/>
			<path fill="#9A999E" d="M316.723,88.166v-1.239l5.893-8.399h1.495v8.347h1.859v1.291h-1.859v2.845h-1.333v-2.845H316.723z
				 M318.148,86.875h4.629v-4.127c0-0.81,0.027-1.724,0.084-2.743h-0.066c-0.271,0.543-0.526,0.994-0.766,1.35L318.148,86.875z"/>
			<path fill="#9A999E" d="M327.311,85.708c0-2.441,0.475-4.267,1.423-5.476s2.352-1.814,4.208-1.814
				c0.643,0,1.147,0.054,1.518,0.161v1.231c-0.438-0.164-0.938-0.247-1.5-0.247c-1.33,0-2.348,0.417-3.05,1.249
				c-0.702,0.833-1.087,2.141-1.153,3.924h0.102c0.623-0.963,1.607-1.445,2.955-1.445c1.12,0,2.004,0.336,2.649,1.008
				c0.645,0.672,0.968,1.584,0.968,2.736c0,1.288-0.354,2.301-1.063,3.039c-0.708,0.738-1.664,1.106-2.87,1.106
				c-1.284,0-2.304-0.482-3.057-1.447C327.688,88.768,327.311,87.427,327.311,85.708z M328.755,86.721
				c0,0.585,0.112,1.13,0.339,1.636c0.227,0.505,0.548,0.906,0.964,1.201c0.417,0.295,0.891,0.443,1.423,0.443
				c0.804,0,1.428-0.254,1.872-0.762c0.444-0.508,0.667-1.242,0.667-2.202c0-0.823-0.207-1.471-0.62-1.942
				c-0.413-0.472-1.03-0.707-1.851-0.707c-0.511,0-0.978,0.105-1.401,0.315c-0.425,0.21-0.764,0.5-1.015,0.869
				C328.881,85.94,328.755,86.324,328.755,86.721z"/>
		</g>
		<g>
			<path fill="#9A999E" d="M327.184,327.548c0-2.161,0.338-3.765,1.014-4.812s1.706-1.57,3.092-1.57
				c1.348,0,2.368,0.546,3.067,1.638c0.698,1.093,1.047,2.673,1.047,4.744c0,2.147-0.338,3.75-1.014,4.81
				c-0.676,1.061-1.709,1.59-3.102,1.59c-1.34,0-2.358-0.543-3.058-1.627C327.531,331.234,327.184,329.645,327.184,327.548z
				 M328.627,327.548c0,1.802,0.212,3.113,0.636,3.935c0.424,0.822,1.1,1.232,2.025,1.232c0.938,0,1.618-0.417,2.039-1.25
				s0.633-2.139,0.633-3.918c0-1.777-0.212-3.082-0.633-3.908c-0.421-0.828-1.101-1.242-2.039-1.242
				c-0.927,0-1.603,0.408-2.025,1.225C328.839,324.438,328.627,325.747,328.627,327.548z"/>
		</g>
		<g>
			<path fill="#FFFFFF" d="M427.076,272.294h-10.414v-2.19l3.739-3.781c1.107-1.135,1.831-1.92,2.171-2.359
				c0.34-0.438,0.584-0.844,0.733-1.218c0.148-0.374,0.225-0.761,0.225-1.162c0-0.599-0.165-1.042-0.494-1.335
				c-0.329-0.292-0.77-0.438-1.319-0.438c-0.577,0-1.139,0.131-1.682,0.396c-0.544,0.266-1.11,0.643-1.701,1.131l-1.713-2.027
				c0.733-0.625,1.343-1.066,1.824-1.326c0.482-0.258,1.009-0.457,1.579-0.596s1.209-0.209,1.916-0.209
				c0.931,0,1.753,0.17,2.466,0.51c0.714,0.341,1.268,0.815,1.661,1.428c0.395,0.611,0.591,1.311,0.591,2.099
				c0,0.687-0.12,1.33-0.36,1.931c-0.241,0.602-0.615,1.218-1.121,1.85s-1.397,1.531-2.675,2.701l-1.916,1.804v0.144h6.49V272.294
				L427.076,272.294z"/>
			<path fill="#FFFFFF" d="M436.36,272.294h-3.148v-8.621l0.03-1.417l0.052-1.549c-0.523,0.523-0.888,0.866-1.092,1.029
				l-1.712,1.375l-1.518-1.896l4.799-3.821h2.589V272.294z"/>
			<path fill="#FFFFFF" d="M451.238,269.207h-1.793v3.087h-3.077v-3.087h-6.358v-2.191l6.532-9.619h2.903v9.364h1.793V269.207z
				 M446.367,266.761v-2.526c0-0.422,0.018-1.033,0.052-1.834c0.032-0.803,0.061-1.268,0.081-1.396h-0.081
				c-0.253,0.557-0.555,1.102-0.907,1.631l-2.731,4.127L446.367,266.761L446.367,266.761z"/>
		</g>
		<g>
			<path fill="#FFFFFF" d="M427.076,156.528h-10.414v-2.191l3.739-3.781c1.107-1.134,1.831-1.92,2.171-2.359
				s0.584-0.844,0.733-1.218c0.148-0.374,0.225-0.761,0.225-1.162c0-0.598-0.165-1.042-0.494-1.335
				c-0.329-0.292-0.77-0.438-1.319-0.438c-0.577,0-1.139,0.132-1.682,0.397c-0.544,0.265-1.11,0.642-1.701,1.131l-1.713-2.028
				c0.733-0.625,1.343-1.066,1.824-1.325c0.482-0.258,1.009-0.457,1.579-0.596c0.57-0.139,1.209-0.209,1.916-0.209
				c0.931,0,1.753,0.17,2.466,0.51c0.714,0.34,1.268,0.815,1.661,1.427c0.395,0.611,0.591,1.311,0.591,2.099
				c0,0.686-0.12,1.33-0.36,1.931c-0.241,0.601-0.615,1.217-1.121,1.849s-1.397,1.532-2.675,2.701l-1.916,1.804v0.143h6.49V156.528
				L427.076,156.528z"/>
			<path fill="#FFFFFF" d="M438.407,144.962c0,0.931-0.282,1.722-0.846,2.375c-0.563,0.652-1.355,1.101-2.374,1.345v0.062
				c1.202,0.149,2.112,0.515,2.73,1.095c0.617,0.581,0.928,1.364,0.928,2.349c0,1.433-0.521,2.549-1.561,3.347
				c-1.039,0.798-2.522,1.197-4.453,1.197c-1.615,0-3.05-0.268-4.3-0.805v-2.68c0.577,0.292,1.213,0.53,1.905,0.713
				c0.693,0.184,1.379,0.275,2.059,0.275c1.039,0,1.808-0.176,2.304-0.53c0.496-0.353,0.744-0.92,0.744-1.702
				c0-0.7-0.285-1.196-0.855-1.488c-0.571-0.292-1.481-0.438-2.731-0.438h-1.131v-2.416h1.151c1.154,0,1.999-0.151,2.532-0.453
				s0.8-0.82,0.8-1.554c0-1.127-0.707-1.691-2.119-1.691c-0.489,0-0.987,0.082-1.493,0.245s-1.067,0.445-1.687,0.846l-1.457-2.17
				c1.357-0.979,2.979-1.468,4.859-1.468c1.542,0,2.761,0.313,3.653,0.938C437.962,142.979,438.407,143.848,438.407,144.962z"/>
			<path fill="#FFFFFF" d="M450.902,156.528h-10.414v-2.191l3.739-3.781c1.107-1.134,1.831-1.92,2.171-2.359
				s0.584-0.844,0.733-1.218c0.148-0.374,0.225-0.761,0.225-1.162c0-0.598-0.165-1.042-0.494-1.335
				c-0.33-0.292-0.77-0.438-1.319-0.438c-0.577,0-1.139,0.132-1.682,0.397c-0.544,0.265-1.11,0.642-1.702,1.131l-1.712-2.028
				c0.733-0.625,1.342-1.066,1.824-1.325c0.482-0.258,1.009-0.457,1.579-0.596c0.57-0.139,1.209-0.209,1.916-0.209
				c0.931,0,1.753,0.17,2.466,0.51c0.714,0.34,1.267,0.815,1.661,1.427c0.394,0.611,0.591,1.311,0.591,2.099
				c0,0.686-0.12,1.33-0.36,1.931c-0.241,0.601-0.615,1.217-1.121,1.849c-0.507,0.632-1.397,1.532-2.676,2.701l-1.916,1.804v0.143
				h6.491V156.528L450.902,156.528z"/>
		</g>
		<g>
			<path fill="#87868A" d="M323.217,226.451h-14.898v-4.208c0-1.978,0.296-3.407,0.886-4.29c0.592-0.885,1.523-1.325,2.8-1.325
				c0.883,0,1.61,0.246,2.185,0.739c0.574,0.492,0.946,1.211,1.116,2.154h0.103c0.389-2.248,1.578-3.373,3.571-3.373
				c1.332,0,2.371,0.449,3.118,1.349s1.121,2.153,1.121,3.769L323.217,226.451L323.217,226.451z M314.688,224.719v-2.853
				c0-1.224-0.191-2.103-0.574-2.64s-1.028-0.806-1.938-0.806c-0.834,0-1.437,0.299-1.806,0.896
				c-0.368,0.598-0.555,1.55-0.555,2.854v2.547L314.688,224.719L314.688,224.719z M321.739,224.719v-3.107
				c0-1.201-0.231-2.106-0.697-2.715s-1.193-0.912-2.187-0.912c-0.924,0-1.604,0.311-2.038,0.933
				c-0.435,0.621-0.652,1.567-0.652,2.838v2.965L321.739,224.719L321.739,224.719z"/>
			<path fill="#87868A" d="M309.021,213.326c-0.387,0-0.671-0.087-0.851-0.264c-0.181-0.176-0.271-0.395-0.271-0.657
				c0-0.294,0.091-0.546,0.274-0.759c0.184-0.211,0.466-0.317,0.846-0.317c0.381,0,0.664,0.106,0.852,0.317
				c0.188,0.213,0.28,0.465,0.28,0.759c0,0.264-0.094,0.481-0.28,0.657C309.686,213.239,309.402,213.326,309.021,213.326z
				 M323.217,213.184h-11.169v-1.549h11.169V213.184z"/>
			<path fill="#87868A" d="M323.217,207.905H307.36v-1.691h15.856L323.217,207.905L323.217,207.905z"/>
			<path fill="#87868A" d="M323.217,202.627H307.36v-1.691h15.856L323.217,202.627L323.217,202.627z"/>
			<path fill="#87868A" d="M309.021,197.491c-0.387,0-0.671-0.089-0.851-0.265c-0.181-0.175-0.271-0.395-0.271-0.656
				c0-0.293,0.091-0.547,0.274-0.758c0.184-0.213,0.466-0.318,0.846-0.318c0.381,0,0.664,0.105,0.852,0.318
				c0.188,0.211,0.28,0.465,0.28,0.758c0,0.263-0.094,0.481-0.28,0.656C309.686,197.402,309.402,197.491,309.021,197.491z
				 M323.217,197.35h-11.169v-1.55h11.169V197.35z"/>
			<path fill="#87868A" d="M317.612,192.691c-1.816,0-3.232-0.455-4.247-1.361c-1.014-0.908-1.521-2.168-1.521-3.78
				c0-1.558,0.519-2.795,1.557-3.713c1.037-0.918,2.44-1.377,4.211-1.377c1.824,0,3.248,0.457,4.271,1.372
				c1.023,0.914,1.537,2.178,1.537,3.789c0,0.996-0.235,1.88-0.705,2.652c-0.47,0.771-1.144,1.367-2.021,1.787
				S318.788,192.691,317.612,192.691z M317.612,190.959c1.43,0,2.521-0.286,3.27-0.857c0.749-0.57,1.123-1.412,1.123-2.521
				s-0.372-1.951-1.118-2.526c-0.745-0.574-1.837-0.861-3.273-0.861c-1.423,0-2.504,0.287-3.243,0.861
				c-0.738,0.575-1.107,1.424-1.107,2.547c0,1.108,0.363,1.945,1.093,2.51C315.081,190.677,316.169,190.959,317.612,190.959z"/>
			<path fill="#87868A" d="M323.217,179.465h-11.169v-1.376l1.509-0.275v-0.081c-0.543-0.347-0.965-0.832-1.264-1.457
				c-0.3-0.625-0.448-1.321-0.448-2.089c0-1.346,0.324-2.357,0.973-3.037c0.649-0.68,1.688-1.02,3.113-1.02h7.286v1.692h-7.239
				c-0.913,0-1.594,0.207-2.043,0.621c-0.449,0.415-0.674,1.063-0.674,1.946c0,1.169,0.315,2.024,0.95,2.568
				c0.633,0.543,1.678,0.815,3.135,0.815h5.871V179.465z"/>
			<path fill="#87868A" d="M314.793,167.369c-0.911,0-1.632-0.37-2.158-1.109c-0.526-0.74-0.79-1.755-0.79-3.044
				c0-1.195,0.244-2.363,0.732-3.504l1.377,0.59c-0.463,1.117-0.693,2.13-0.693,3.037c0,0.803,0.126,1.409,0.378,1.817
				c0.252,0.408,0.6,0.612,1.042,0.612c0.3,0,0.555-0.076,0.766-0.229c0.212-0.153,0.412-0.399,0.604-0.74
				c0.189-0.341,0.466-0.994,0.827-1.961c0.482-1.324,0.97-2.215,1.46-2.671c0.49-0.457,1.106-0.686,1.849-0.686
				c1.035,0,1.832,0.386,2.394,1.155c0.563,0.771,0.843,1.852,0.843,3.243c0,1.479-0.231,2.631-0.693,3.458h-1.562
				c0.271-0.535,0.486-1.11,0.645-1.724c0.156-0.614,0.234-1.206,0.234-1.775c0-0.885-0.143-1.565-0.425-2.043
				c-0.281-0.477-0.713-0.715-1.292-0.715c-0.436,0-0.809,0.189-1.117,0.567c-0.312,0.378-0.677,1.114-1.1,2.211
				c-0.388,1.041-0.727,1.78-1.016,2.217c-0.29,0.436-0.618,0.76-0.986,0.974C315.742,167.263,315.304,167.369,314.793,167.369z"/>
			<path fill="#87868A" d="M318.061,152.409h-1.314v-1.528l-0.428,0.021h-0.448l-0.814-0.021v1.528h-1.314v-1.652
				c-1.772-0.265-3.155-0.894-4.146-1.885c-0.992-0.992-1.488-2.292-1.488-3.902c0-1.365,0.334-2.608,1.002-3.729l1.419,0.724
				c-0.581,1.128-0.872,2.13-0.872,3.006c0,2.167,1.362,3.519,4.087,4.055v-5.195h1.314v5.319l0.581,0.021h0.65l0.459-0.021v-4.698
				h1.314v4.554c1.229-0.251,2.181-0.721,2.854-1.41c0.672-0.689,1.009-1.611,1.009-2.767c0-1.06-0.227-2.109-0.678-3.148h1.521
				c0.436,0.992,0.653,2.068,0.653,3.23c0,1.609-0.457,2.905-1.371,3.887c-0.913,0.981-2.243,1.628-3.989,1.94L318.061,152.409
				L318.061,152.409z"/>
		</g>
		<g>
			<path fill="#666565" d="M332.814,46.87V31.972h8.306v1.549h-6.572v4.769h6.176v1.549h-6.176v5.482h6.572v1.549H332.814z"/>
			<path fill="#666565" d="M344.269,41.571v-9.599h1.732v9.736c0,1.245,0.34,2.201,1.019,2.868c0.68,0.667,1.678,1,2.996,1
				c1.257,0,2.225-0.335,2.904-1.005c0.68-0.67,1.019-1.631,1.019-2.883v-9.715h1.732v9.64c0,1.699-0.514,3.034-1.538,4.005
				c-1.026,0.972-2.437,1.457-4.229,1.457s-3.181-0.489-4.162-1.467C344.759,44.628,344.269,43.283,344.269,41.571z"/>
			<path fill="#666565" d="M358.585,46.87v-1.438l3.924-3.959c1.194-1.214,1.982-2.08,2.363-2.599
				c0.381-0.518,0.665-1.023,0.855-1.514c0.19-0.491,0.285-1.02,0.285-1.586c0-0.798-0.241-1.431-0.724-1.898
				c-0.481-0.467-1.151-0.701-2.008-0.701c-0.618,0-1.204,0.103-1.758,0.307s-1.17,0.577-1.85,1.115l-0.896-1.156
				c1.372-1.122,2.866-1.683,4.483-1.683c1.398,0,2.497,0.357,3.291,1.07c0.795,0.713,1.191,1.671,1.191,2.875
				c0,0.948-0.265,1.886-0.795,2.814c-0.528,0.928-1.521,2.102-2.976,3.521l-3.261,3.203v0.082h7.663v1.549h-9.79V46.87z"/>
			<path fill="#666565" d="M370.56,43.069c0-1.705,1.046-3.033,3.137-3.984c-0.946-0.53-1.627-1.103-2.039-1.717
				c-0.412-0.614-0.618-1.303-0.618-2.063c0-1.08,0.401-1.941,1.204-2.583c0.804-0.642,1.877-0.963,3.225-0.963
				c1.362,0,2.442,0.316,3.241,0.948c0.798,0.632,1.195,1.505,1.195,2.619c0,0.733-0.229,1.403-0.688,2.007
				c-0.458,0.605-1.189,1.155-2.194,1.651c1.216,0.578,2.08,1.184,2.593,1.819c0.513,0.635,0.769,1.371,0.769,2.206
				c0,1.237-0.434,2.224-1.298,2.96c-0.865,0.737-2.053,1.105-3.559,1.105c-1.595,0-2.821-0.348-3.68-1.044
				C370.989,45.333,370.56,44.347,370.56,43.069z M372.251,43.11c0,0.815,0.282,1.451,0.85,1.906s1.362,0.683,2.386,0.683
				c1.011,0,1.798-0.238,2.36-0.713c0.563-0.476,0.845-1.127,0.845-1.957c0-0.659-0.265-1.245-0.793-1.758
				c-0.529-0.513-1.452-1.01-2.768-1.493c-1.012,0.435-1.743,0.916-2.198,1.442C372.479,41.746,372.251,42.376,372.251,43.11z
				 M372.73,35.375c0,0.625,0.2,1.162,0.6,1.61c0.4,0.449,1.141,0.897,2.219,1.345c0.97-0.407,1.655-0.846,2.06-1.314
				c0.404-0.468,0.605-1.016,0.605-1.641c0-0.686-0.246-1.231-0.737-1.635c-0.492-0.404-1.169-0.606-2.029-0.606
				c-0.848,0-1.513,0.204-1.994,0.611C372.972,34.152,372.73,34.696,372.73,35.375z"/>
			<path fill="#666565" d="M388.025,41.377c0-1.8,0.441-3.23,1.326-4.29c0.884-1.06,2.07-1.589,3.561-1.589
				c1.396,0,2.498,0.46,3.312,1.38c0.813,0.921,1.219,2.135,1.219,3.643v1.07h-7.684c0.033,1.311,0.364,2.306,0.995,2.985
				c0.63,0.68,1.516,1.019,2.658,1.019c1.198,0,2.385-0.251,3.557-0.754v1.508c-0.598,0.258-1.16,0.443-1.691,0.555
				c-0.532,0.112-1.174,0.168-1.926,0.168c-1.646,0-2.945-0.502-3.897-1.508C388.502,44.558,388.025,43.165,388.025,41.377z
				 M389.799,40.216h5.849c0-1.066-0.238-1.883-0.715-2.451c-0.477-0.567-1.156-0.851-2.041-0.851c-0.898,0-1.614,0.292-2.148,0.876
				C390.207,38.375,389.894,39.183,389.799,40.216z"/>
			<path fill="#666565" d="M399.643,38.446c0-0.911,0.37-1.63,1.109-2.158c0.739-0.527,1.754-0.791,3.044-0.791
				c1.194,0,2.362,0.244,3.504,0.733l-0.59,1.377c-1.117-0.463-2.131-0.695-3.037-0.695c-0.805,0-1.409,0.126-1.817,0.378
				c-0.409,0.251-0.613,0.599-0.613,1.042c0,0.3,0.077,0.555,0.23,0.766c0.152,0.211,0.398,0.412,0.74,0.603
				c0.34,0.191,0.994,0.467,1.961,0.828c1.324,0.483,2.215,0.97,2.671,1.46c0.457,0.49,0.686,1.105,0.686,1.849
				c0,1.034-0.386,1.832-1.154,2.393c-0.771,0.561-1.853,0.841-3.243,0.841c-1.479,0-2.631-0.23-3.459-0.693V44.82
				c0.536,0.272,1.109,0.487,1.725,0.644c0.613,0.157,1.205,0.235,1.775,0.235c0.885,0,1.564-0.141,2.042-0.424
				c0.477-0.283,0.715-0.713,0.715-1.292c0-0.436-0.188-0.809-0.566-1.119c-0.378-0.31-1.114-0.676-2.211-1.098
				c-1.042-0.388-1.78-0.727-2.217-1.017s-0.761-0.618-0.974-0.986C399.748,39.396,399.643,38.957,399.643,38.446z"/>
			<path fill="#666565" d="M408.832,37.016v-0.815l1.602-0.703l0.713-2.385h0.979v2.588h3.239v1.314h-3.239v6.588
				c0,0.674,0.158,1.191,0.479,1.552c0.319,0.361,0.758,0.542,1.314,0.542c0.299,0,0.588-0.022,0.865-0.066
				c0.279-0.044,0.5-0.09,0.663-0.138v1.278c-0.184,0.087-0.454,0.159-0.811,0.216c-0.356,0.057-0.678,0.085-0.963,0.085
				c-2.16,0-3.24-1.138-3.24-3.414v-6.644h-1.602V37.016z"/>
			<path fill="#666565" d="M417.535,32.675c0-0.387,0.088-0.671,0.265-0.851c0.175-0.18,0.395-0.27,0.657-0.27
				c0.293,0,0.546,0.092,0.758,0.275c0.213,0.184,0.318,0.466,0.318,0.846c0,0.38-0.105,0.664-0.318,0.851
				c-0.212,0.187-0.465,0.28-0.758,0.28c-0.264,0-0.482-0.093-0.657-0.28C417.623,33.339,417.535,33.056,417.535,32.675z
				 M417.68,46.87V35.702h1.549V46.87H417.68z"/>
			<path fill="#666565" d="M422.957,46.87V35.702h1.375l0.275,1.509h0.081c0.319-0.537,0.771-0.957,1.351-1.259
				c0.581-0.302,1.231-0.453,1.951-0.453c1.746,0,2.889,0.625,3.424,1.876h0.082c0.333-0.579,0.815-1.036,1.447-1.372
				s1.353-0.504,2.16-0.504c1.264,0,2.209,0.324,2.838,0.973c0.628,0.648,0.942,1.687,0.942,3.113v7.286h-1.691V39.59
				c0-0.892-0.189-1.561-0.57-2.006c-0.381-0.446-0.972-0.669-1.772-0.669c-1.053,0-1.831,0.303-2.334,0.909
				c-0.503,0.605-0.754,1.538-0.754,2.798v6.249h-1.691V39.59c0-0.892-0.189-1.561-0.57-2.006c-0.381-0.446-0.976-0.669-1.782-0.669
				c-1.062,0-1.836,0.318-2.329,0.955c-0.492,0.637-0.738,1.68-0.738,3.13v5.871L422.957,46.87L422.957,46.87z"/>
			<path fill="#666565" d="M441.533,43.794c0-2.25,1.807-3.429,5.418-3.537l1.898-0.062v-0.702c0-0.887-0.188-1.542-0.564-1.965
				c-0.377-0.423-0.979-0.634-1.806-0.634c-0.929,0-1.979,0.289-3.153,0.866l-0.524-1.298c0.551-0.294,1.152-0.525,1.809-0.692
				c0.655-0.167,1.313-0.251,1.972-0.251c1.33,0,2.316,0.295,2.957,0.887c0.643,0.591,0.963,1.539,0.963,2.843v7.622h-1.254
				l-0.336-1.571h-0.082c-0.556,0.693-1.109,1.162-1.662,1.407c-0.554,0.246-1.242,0.368-2.069,0.368
				c-1.113,0-1.985-0.284-2.616-0.853C441.85,45.652,441.533,44.843,441.533,43.794z M443.326,43.814
				c0,0.615,0.187,1.082,0.556,1.403c0.368,0.321,0.887,0.481,1.551,0.481c1.052,0,1.877-0.29,2.477-0.87
				c0.602-0.581,0.9-1.393,0.9-2.437v-1.014l-1.688,0.071c-1.343,0.048-2.311,0.258-2.902,0.63
				C443.623,42.451,443.326,43.029,443.326,43.814z"/>
			<path fill="#666565" d="M452.497,37.016v-0.815l1.602-0.703l0.713-2.385h0.979v2.588h3.239v1.314h-3.239v6.588
				c0,0.674,0.158,1.191,0.479,1.552c0.319,0.361,0.758,0.542,1.314,0.542c0.299,0,0.588-0.022,0.865-0.066
				c0.279-0.044,0.5-0.09,0.663-0.138v1.278c-0.184,0.087-0.454,0.159-0.811,0.216c-0.356,0.057-0.679,0.085-0.963,0.085
				c-2.16,0-3.24-1.138-3.24-3.414v-6.644h-1.602V37.016z"/>
			<path fill="#666565" d="M460.723,41.377c0-1.8,0.44-3.23,1.326-4.29c0.884-1.06,2.069-1.589,3.561-1.589
				c1.396,0,2.498,0.46,3.312,1.38c0.813,0.921,1.219,2.135,1.219,3.643v1.07h-7.685c0.034,1.311,0.365,2.306,0.995,2.985
				c0.63,0.68,1.517,1.019,2.659,1.019c1.198,0,2.384-0.251,3.556-0.754v1.508c-0.597,0.258-1.159,0.443-1.69,0.555
				c-0.532,0.112-1.174,0.168-1.926,0.168c-1.646,0-2.945-0.502-3.897-1.508S460.723,43.165,460.723,41.377z M462.495,40.216h5.85
				c0-1.066-0.238-1.883-0.715-2.451c-0.477-0.567-1.156-0.851-2.041-0.851c-0.898,0-1.614,0.292-2.148,0.876
				C462.905,38.375,462.591,39.183,462.495,40.216z"/>
			<path fill="#666565" d="M472.339,38.446c0-0.911,0.37-1.63,1.108-2.158c0.74-0.527,1.754-0.791,3.044-0.791
				c1.195,0,2.363,0.244,3.504,0.733l-0.59,1.377c-1.117-0.463-2.13-0.695-3.037-0.695c-0.804,0-1.408,0.126-1.816,0.378
				c-0.409,0.251-0.613,0.599-0.613,1.042c0,0.3,0.077,0.555,0.23,0.766c0.151,0.211,0.398,0.412,0.739,0.603
				c0.34,0.191,0.994,0.467,1.961,0.828c1.324,0.483,2.216,0.97,2.672,1.46c0.456,0.49,0.686,1.105,0.686,1.849
				c0,1.034-0.386,1.832-1.155,2.393c-0.771,0.561-1.852,0.841-3.243,0.841c-1.479,0-2.631-0.23-3.459-0.693V44.82
				c0.536,0.272,1.11,0.487,1.726,0.644c0.612,0.157,1.205,0.235,1.774,0.235c0.886,0,1.565-0.141,2.042-0.424
				c0.478-0.283,0.716-0.713,0.716-1.292c0-0.436-0.188-0.809-0.566-1.119c-0.378-0.31-1.115-0.676-2.211-1.098
				c-1.042-0.388-1.78-0.727-2.217-1.017s-0.762-0.618-0.975-0.986C472.445,39.396,472.339,38.957,472.339,38.446z"/>
		</g>
		
			<line fill="none" stroke="#666565" stroke-width="0.25" stroke-miterlimit="10" x1="354.045" y1="85.746" x2="354.045" y2="333.777"/>
		
			<line fill="none" stroke="#666565" stroke-width="0.25" stroke-miterlimit="10" x1="484.756" y1="333.777" x2="340.324" y2="333.777"/>
		
			<line fill="none" stroke="#666565" stroke-width="0.25" stroke-miterlimit="10" x1="484.756" y1="85.746" x2="340.324" y2="85.746"/>
	</g>
	<g id="legend" display="inline">
		<g>
			<path fill="#5B5B5F" d="M592.47,179.413c0-1.278,0.235-2.398,0.71-3.36c0.473-0.961,1.16-1.703,2.063-2.223
				c0.902-0.521,1.965-0.781,3.188-0.781c1.303,0,2.439,0.238,3.414,0.713l-0.611,1.239c-0.938-0.441-1.88-0.662-2.819-0.662
				c-1.363,0-2.44,0.454-3.23,1.362c-0.789,0.908-1.186,2.151-1.186,3.729c0,1.624,0.382,2.878,1.144,3.763
				c0.761,0.885,1.847,1.328,3.257,1.328c0.865,0,1.854-0.155,2.963-0.467v1.271c-0.859,0.325-1.922,0.487-3.185,0.487
				c-1.828,0-3.236-0.556-4.226-1.666C592.964,183.036,592.47,181.458,592.47,179.413z"/>
			<path fill="#5B5B5F" d="M603.356,180.971c0-1.515,0.378-2.694,1.135-3.539c0.756-0.845,1.807-1.268,3.149-1.268
				c1.298,0,2.33,0.433,3.095,1.297c0.766,0.864,1.146,2.034,1.146,3.509c0,1.521-0.381,2.707-1.144,3.56
				c-0.762,0.854-1.813,1.281-3.158,1.281c-0.83,0-1.565-0.196-2.21-0.588c-0.644-0.392-1.14-0.953-1.488-1.685
				C603.531,182.809,603.356,181.952,603.356,180.971z M604.8,180.971c0,1.191,0.237,2.1,0.715,2.725
				c0.476,0.623,1.176,0.936,2.101,0.936c0.924,0,1.626-0.311,2.104-0.932c0.479-0.622,0.719-1.531,0.719-2.729
				c0-1.186-0.239-2.087-0.719-2.703c-0.479-0.616-1.188-0.923-2.122-0.923c-0.924,0-1.621,0.303-2.092,0.911
				C605.034,178.863,604.8,179.768,604.8,180.971z"/>
			<path fill="#5B5B5F" d="M613.783,178.622c0-0.759,0.309-1.359,0.924-1.798c0.617-0.439,1.463-0.659,2.537-0.659
				c0.995,0,1.97,0.204,2.92,0.611l-0.491,1.148c-0.932-0.386-1.774-0.579-2.53-0.579c-0.67,0-1.175,0.105-1.516,0.315
				s-0.511,0.499-0.511,0.868c0,0.25,0.063,0.462,0.191,0.638s0.333,0.343,0.617,0.502c0.282,0.159,0.827,0.389,1.634,0.689
				c1.104,0.402,1.846,0.809,2.227,1.217c0.38,0.408,0.57,0.922,0.57,1.541c0,0.861-0.32,1.527-0.963,1.994
				c-0.643,0.468-1.542,0.701-2.702,0.701c-1.231,0-2.192-0.191-2.882-0.578v-1.301c0.445,0.228,0.925,0.406,1.437,0.536
				c0.513,0.132,1.005,0.196,1.479,0.196c0.736,0,1.305-0.118,1.702-0.354c0.396-0.234,0.596-0.594,0.596-1.076
				c0-0.363-0.157-0.674-0.473-0.933c-0.314-0.258-0.93-0.563-1.843-0.915c-0.867-0.324-1.483-0.605-1.848-0.847
				s-0.634-0.515-0.813-0.821C613.872,179.414,613.783,179.047,613.783,178.622z"/>
			<path fill="#5B5B5F" d="M621.444,177.43v-0.68l1.333-0.586l0.594-1.987h0.815v2.157h2.7v1.096h-2.7v5.49
				c0,0.563,0.133,0.993,0.398,1.294c0.267,0.302,0.632,0.451,1.097,0.451c0.249,0,0.489-0.019,0.722-0.056
				c0.231-0.036,0.416-0.074,0.552-0.114v1.065c-0.151,0.072-0.378,0.133-0.675,0.181c-0.298,0.047-0.564,0.071-0.803,0.071
				c-1.8,0-2.7-0.948-2.7-2.846v-5.537H621.444z"/>
			<path fill="#5B5B5F" d="M633.331,185.643v-9.308h1.146l0.229,1.257h0.068c0.288-0.453,0.693-0.804,1.214-1.054
				c0.521-0.249,1.103-0.374,1.741-0.374c1.121,0,1.964,0.271,2.53,0.811c0.565,0.54,0.85,1.405,0.85,2.593v6.072h-1.41v-6.033
				c0-0.759-0.173-1.326-0.518-1.701c-0.346-0.375-0.887-0.563-1.622-0.563c-0.974,0-1.688,0.264-2.14,0.791
				c-0.453,0.528-0.681,1.398-0.681,2.613v4.893h-1.408V185.643z"/>
			<path fill="#5B5B5F" d="M643.488,180.971c0-1.515,0.378-2.694,1.135-3.539c0.757-0.845,1.807-1.268,3.149-1.268
				c1.298,0,2.33,0.433,3.095,1.297c0.766,0.864,1.146,2.034,1.146,3.509c0,1.521-0.381,2.707-1.144,3.56
				c-0.762,0.854-1.813,1.281-3.158,1.281c-0.829,0-1.565-0.196-2.21-0.588c-0.644-0.392-1.14-0.953-1.488-1.685
				C643.662,182.809,643.488,181.952,643.488,180.971z M644.932,180.971c0,1.191,0.238,2.1,0.715,2.725
				c0.477,0.623,1.176,0.936,2.102,0.936c0.924,0,1.625-0.311,2.104-0.932c0.479-0.622,0.719-1.531,0.719-2.729
				c0-1.186-0.238-2.087-0.719-2.703c-0.479-0.616-1.188-0.923-2.122-0.923c-0.924,0-1.621,0.303-2.092,0.911
				C645.166,178.863,644.932,179.768,644.932,180.971z"/>
			<path fill="#5B5B5F" d="M654.511,185.643v-9.308h1.146l0.229,1.257h0.067c0.288-0.453,0.693-0.804,1.215-1.054
				c0.521-0.249,1.102-0.374,1.74-0.374c1.121,0,1.964,0.271,2.53,0.811s0.85,1.405,0.85,2.593v6.072h-1.409v-6.033
				c0-0.759-0.174-1.326-0.519-1.701c-0.346-0.375-0.887-0.563-1.622-0.563c-0.974,0-1.688,0.264-2.14,0.791
				c-0.453,0.528-0.68,1.398-0.68,2.613v4.893h-1.408V185.643z"/>
			<path fill="#5B5B5F" d="M664.403,181.625v-1.291h4.17v1.291H664.403z"/>
			<path fill="#5B5B5F" d="M669.532,177.43v-0.637l1.665-0.509v-0.516c0-2.277,0.999-3.416,2.997-3.416
				c0.492,0,1.07,0.098,1.732,0.292l-0.365,1.117c-0.543-0.176-1.008-0.264-1.393-0.264c-0.532,0-0.927,0.177-1.182,0.531
				s-0.382,0.921-0.382,1.703v0.603h2.369v1.096h-2.369v8.21h-1.409v-8.21H669.532z"/>
			<path fill="#5B5B5F" d="M675.979,183.078c0-1.875,1.506-2.857,4.516-2.948l1.582-0.052v-0.584c0-0.739-0.156-1.285-0.471-1.637
				s-0.815-0.529-1.505-0.529c-0.773,0-1.649,0.241-2.627,0.722l-0.438-1.082c0.459-0.246,0.961-0.438,1.508-0.577
				c0.547-0.14,1.095-0.209,1.644-0.209c1.108,0,1.93,0.246,2.465,0.739c0.534,0.493,0.802,1.282,0.802,2.369v6.353h-1.045
				l-0.279-1.311h-0.068c-0.463,0.578-0.925,0.968-1.386,1.173c-0.46,0.204-1.035,0.308-1.726,0.308
				c-0.927,0-1.653-0.237-2.18-0.711C676.241,184.626,675.979,183.953,675.979,183.078z M677.474,183.095
				c0,0.513,0.153,0.901,0.462,1.169c0.308,0.268,0.738,0.401,1.292,0.401c0.876,0,1.563-0.242,2.063-0.726s0.75-1.16,0.75-2.03
				v-0.845l-1.406,0.061c-1.118,0.04-1.926,0.215-2.42,0.525C677.721,181.96,677.474,182.441,677.474,183.095z"/>
			<path fill="#5B5B5F" d="M685.115,177.43v-0.68l1.333-0.586l0.595-1.987h0.814v2.157h2.7v1.096h-2.7v5.49
				c0,0.563,0.133,0.993,0.399,1.294c0.266,0.302,0.631,0.451,1.096,0.451c0.249,0,0.489-0.019,0.722-0.056
				c0.231-0.036,0.416-0.074,0.553-0.114v1.065c-0.152,0.072-0.379,0.133-0.676,0.181c-0.298,0.047-0.564,0.071-0.803,0.071
				c-1.8,0-2.7-0.948-2.7-2.846v-5.537H685.115z"/>
			<path fill="#5B5B5F" d="M691.789,183.078c0-1.875,1.507-2.857,4.517-2.948l1.582-0.052v-0.584c0-0.739-0.157-1.285-0.472-1.637
				c-0.313-0.352-0.814-0.529-1.505-0.529c-0.772,0-1.648,0.241-2.627,0.722l-0.438-1.082c0.459-0.246,0.961-0.438,1.508-0.577
				c0.546-0.14,1.094-0.209,1.643-0.209c1.108,0,1.931,0.246,2.466,0.739c0.533,0.493,0.802,1.282,0.802,2.369v6.353h-1.045
				l-0.28-1.311h-0.068c-0.463,0.578-0.925,0.968-1.386,1.173c-0.46,0.204-1.035,0.308-1.725,0.308
				c-0.927,0-1.654-0.237-2.181-0.711C692.054,184.626,691.789,183.953,691.789,183.078z M693.284,183.095
				c0,0.513,0.153,0.901,0.462,1.169s0.738,0.401,1.292,0.401c0.876,0,1.564-0.242,2.064-0.726s0.75-1.16,0.75-2.03v-0.845
				l-1.407,0.061c-1.118,0.04-1.926,0.215-2.42,0.525C693.531,181.96,693.284,182.441,693.284,183.095z"/>
			<path fill="#5B5B5F" d="M702.157,185.643v-13.213h1.41v13.213H702.157z"/>
			<path fill="#5B5B5F" d="M710.558,181.047c0-1.557,0.372-2.76,1.116-3.609c0.745-0.849,1.811-1.274,3.196-1.274
				c0.447,0,0.896,0.048,1.343,0.145c0.446,0.097,0.799,0.209,1.054,0.34l-0.435,1.197c-0.312-0.125-0.65-0.228-1.019-0.31
				s-0.694-0.123-0.977-0.123c-1.893,0-2.837,1.206-2.837,3.618c0,1.144,0.229,2.021,0.691,2.632
				c0.461,0.61,1.146,0.917,2.051,0.917c0.775,0,1.571-0.167,2.387-0.501v1.249c-0.622,0.322-1.406,0.484-2.353,0.484
				c-1.348,0-2.388-0.416-3.121-1.244C710.924,183.738,710.558,182.564,710.558,181.047z"/>
			<path fill="#5B5B5F" d="M718.657,183.078c0-1.875,1.506-2.857,4.517-2.948l1.582-0.052v-0.584c0-0.739-0.157-1.285-0.472-1.637
				c-0.313-0.352-0.814-0.529-1.505-0.529c-0.772,0-1.648,0.241-2.627,0.722l-0.438-1.082c0.459-0.246,0.961-0.438,1.508-0.577
				c0.546-0.14,1.094-0.209,1.643-0.209c1.108,0,1.931,0.246,2.465,0.739s0.803,1.282,0.803,2.369v6.353h-1.045l-0.28-1.311h-0.068
				c-0.463,0.578-0.925,0.968-1.386,1.173c-0.46,0.204-1.035,0.308-1.725,0.308c-0.928,0-1.654-0.237-2.181-0.711
				C718.922,184.626,718.657,183.953,718.657,183.078z M720.153,183.095c0,0.513,0.153,0.901,0.462,1.169s0.738,0.401,1.292,0.401
				c0.876,0,1.564-0.242,2.064-0.726s0.75-1.16,0.75-2.03v-0.845l-1.407,0.061c-1.118,0.04-1.926,0.215-2.42,0.525
				C720.4,181.96,720.153,182.441,720.153,183.095z"/>
			<path fill="#5B5B5F" d="M728.433,178.622c0-0.759,0.308-1.359,0.924-1.798c0.617-0.439,1.462-0.659,2.537-0.659
				c0.995,0,1.969,0.204,2.92,0.611l-0.492,1.148c-0.931-0.386-1.773-0.579-2.53-0.579c-0.67,0-1.175,0.105-1.515,0.315
				c-0.341,0.21-0.511,0.499-0.511,0.868c0,0.25,0.063,0.462,0.19,0.638s0.333,0.343,0.617,0.502
				c0.283,0.159,0.828,0.389,1.634,0.689c1.104,0.402,1.847,0.809,2.228,1.217c0.38,0.408,0.569,0.922,0.569,1.541
				c0,0.861-0.319,1.527-0.963,1.994c-0.642,0.468-1.542,0.701-2.701,0.701c-1.231,0-2.192-0.191-2.883-0.578v-1.301
				c0.446,0.228,0.926,0.406,1.438,0.536c0.512,0.132,1.005,0.196,1.479,0.196c0.737,0,1.306-0.118,1.702-0.354
				c0.397-0.234,0.597-0.594,0.597-1.076c0-0.363-0.157-0.674-0.474-0.933c-0.313-0.258-0.929-0.563-1.842-0.915
				c-0.868-0.324-1.484-0.605-1.848-0.847c-0.364-0.241-0.635-0.515-0.813-0.821C728.521,179.414,728.433,179.047,728.433,178.622z"
				/>
			<path fill="#5B5B5F" d="M736.806,181.064c0-1.5,0.368-2.692,1.104-3.575c0.736-0.883,1.727-1.325,2.969-1.325
				c1.161,0,2.082,0.384,2.759,1.151s1.016,1.779,1.016,3.037v0.892h-6.402c0.027,1.093,0.305,1.922,0.829,2.487
				c0.524,0.566,1.264,0.85,2.217,0.85c0.999,0,1.985-0.209,2.963-0.628v1.257c-0.497,0.215-0.967,0.37-1.41,0.463
				c-0.443,0.094-0.979,0.141-1.604,0.141c-1.371,0-2.453-0.42-3.248-1.258S736.806,182.555,736.806,181.064z M738.282,180.096
				h4.874c0-0.889-0.197-1.569-0.595-2.042c-0.396-0.473-0.965-0.709-1.702-0.709c-0.748,0-1.345,0.243-1.79,0.73
				C738.625,178.563,738.362,179.236,738.282,180.096z"/>
			<path fill="#5B5B5F" d="M746.486,178.622c0-0.759,0.309-1.359,0.924-1.798c0.617-0.439,1.462-0.659,2.537-0.659
				c0.995,0,1.97,0.204,2.92,0.611l-0.491,1.148c-0.932-0.386-1.774-0.579-2.53-0.579c-0.67,0-1.175,0.105-1.516,0.315
				s-0.511,0.499-0.511,0.868c0,0.25,0.063,0.462,0.191,0.638s0.333,0.343,0.617,0.502c0.282,0.159,0.827,0.389,1.634,0.689
				c1.104,0.402,1.846,0.809,2.227,1.217c0.38,0.408,0.57,0.922,0.57,1.541c0,0.861-0.32,1.527-0.963,1.994
				c-0.643,0.468-1.542,0.701-2.702,0.701c-1.231,0-2.192-0.191-2.882-0.578v-1.301c0.445,0.228,0.925,0.406,1.437,0.536
				c0.512,0.132,1.005,0.196,1.479,0.196c0.736,0,1.305-0.118,1.702-0.354c0.396-0.234,0.596-0.594,0.596-1.076
				c0-0.363-0.157-0.674-0.474-0.933c-0.313-0.258-0.929-0.563-1.842-0.915c-0.868-0.324-1.483-0.605-1.848-0.847
				s-0.634-0.515-0.813-0.821C746.574,179.414,746.486,179.047,746.486,178.622z"/>
		</g>
		<g>
			<path fill="#5B5B5F" d="M592.47,222.102c0-1.277,0.235-2.397,0.71-3.359c0.473-0.961,1.16-1.703,2.063-2.223
				c0.902-0.521,1.965-0.781,3.188-0.781c1.303,0,2.439,0.238,3.414,0.713l-0.611,1.238c-0.938-0.44-1.88-0.662-2.819-0.662
				c-1.363,0-2.44,0.455-3.23,1.363c-0.789,0.907-1.186,2.15-1.186,3.729c0,1.624,0.382,2.878,1.144,3.763
				c0.761,0.886,1.847,1.328,3.257,1.328c0.865,0,1.854-0.155,2.963-0.466v1.27c-0.859,0.325-1.922,0.487-3.185,0.487
				c-1.828,0-3.236-0.556-4.226-1.666C592.964,225.725,592.47,224.146,592.47,222.102z"/>
			<path fill="#5B5B5F" d="M603.356,223.661c0-1.515,0.378-2.694,1.135-3.539c0.756-0.845,1.807-1.269,3.149-1.269
				c1.298,0,2.33,0.434,3.095,1.297c0.766,0.865,1.146,2.035,1.146,3.51c0,1.52-0.381,2.707-1.144,3.56
				c-0.762,0.854-1.813,1.28-3.158,1.28c-0.83,0-1.565-0.196-2.21-0.587c-0.644-0.392-1.14-0.953-1.488-1.685
				C603.531,225.498,603.356,224.643,603.356,223.661z M604.8,223.661c0,1.19,0.237,2.1,0.715,2.724
				c0.476,0.624,1.176,0.936,2.101,0.936c0.924,0,1.626-0.311,2.104-0.932s0.719-1.531,0.719-2.728c0-1.187-0.239-2.087-0.719-2.703
				s-1.188-0.923-2.122-0.923c-0.924,0-1.621,0.303-2.092,0.91C605.034,221.552,604.8,222.458,604.8,223.661z"/>
			<path fill="#5B5B5F" d="M613.783,221.311c0-0.759,0.309-1.358,0.924-1.797c0.617-0.439,1.463-0.66,2.537-0.66
				c0.995,0,1.97,0.205,2.92,0.611l-0.491,1.148c-0.932-0.387-1.774-0.579-2.53-0.579c-0.67,0-1.175,0.104-1.516,0.315
				c-0.341,0.209-0.511,0.498-0.511,0.867c0,0.25,0.063,0.463,0.191,0.639s0.333,0.343,0.617,0.502
				c0.282,0.158,0.827,0.389,1.634,0.688c1.104,0.403,1.846,0.81,2.227,1.218c0.38,0.408,0.57,0.922,0.57,1.54
				c0,0.862-0.32,1.527-0.963,1.995c-0.643,0.467-1.542,0.701-2.702,0.701c-1.231,0-2.192-0.191-2.882-0.578v-1.301
				c0.445,0.227,0.925,0.406,1.437,0.536c0.513,0.131,1.005,0.196,1.479,0.196c0.736,0,1.305-0.119,1.702-0.354
				c0.396-0.234,0.596-0.594,0.596-1.077c0-0.362-0.157-0.673-0.473-0.932c-0.314-0.259-0.93-0.563-1.843-0.915
				c-0.867-0.324-1.483-0.606-1.848-0.848c-0.364-0.24-0.634-0.515-0.813-0.82C613.872,222.104,613.783,221.736,613.783,221.311z"/>
			<path fill="#5B5B5F" d="M621.444,220.12v-0.681l1.333-0.586l0.594-1.986h0.815v2.156h2.7v1.097h-2.7v5.489
				c0,0.563,0.133,0.994,0.398,1.295c0.267,0.301,0.632,0.451,1.097,0.451c0.249,0,0.489-0.02,0.722-0.056
				c0.231-0.036,0.416-0.075,0.552-0.114v1.065c-0.151,0.072-0.378,0.132-0.675,0.181c-0.298,0.047-0.564,0.07-0.803,0.07
				c-1.8,0-2.7-0.947-2.7-2.845v-5.537H621.444z"/>
			<path fill="#5B5B5F" d="M632.084,220.12v-0.638l1.664-0.508v-0.517c0-2.276,0.999-3.416,2.997-3.416
				c0.492,0,1.07,0.099,1.732,0.292l-0.365,1.117c-0.543-0.176-1.008-0.264-1.393-0.264c-0.532,0-0.927,0.177-1.182,0.53
				c-0.255,0.354-0.382,0.921-0.382,1.703v0.603h2.369v1.097h-2.369v8.211h-1.409v-8.211H632.084z"/>
			<path fill="#5B5B5F" d="M638.529,225.768c0-1.875,1.506-2.856,4.517-2.947l1.582-0.053v-0.584c0-0.738-0.157-1.285-0.472-1.637
				c-0.313-0.352-0.814-0.529-1.505-0.529c-0.773,0-1.648,0.241-2.627,0.723l-0.438-1.082c0.459-0.246,0.961-0.438,1.508-0.577
				c0.546-0.14,1.094-0.209,1.643-0.209c1.108,0,1.93,0.246,2.465,0.739c0.534,0.492,0.803,1.281,0.803,2.369v6.352h-1.045
				l-0.28-1.311h-0.068c-0.463,0.578-0.925,0.969-1.386,1.174c-0.46,0.203-1.035,0.307-1.725,0.307
				c-0.928,0-1.654-0.236-2.181-0.711S638.529,226.643,638.529,225.768z M640.024,225.785c0,0.512,0.153,0.9,0.462,1.169
				c0.308,0.267,0.738,0.401,1.292,0.401c0.876,0,1.564-0.242,2.064-0.726s0.75-1.161,0.75-2.03v-0.845l-1.407,0.06
				c-1.118,0.041-1.926,0.216-2.42,0.525C640.271,224.65,640.024,225.13,640.024,225.785z"/>
			<path fill="#5B5B5F" d="M647.666,220.12v-0.681l1.334-0.586l0.594-1.986h0.814v2.156h2.7v1.097h-2.7v5.489
				c0,0.563,0.133,0.994,0.399,1.295c0.266,0.301,0.631,0.451,1.096,0.451c0.249,0,0.489-0.02,0.722-0.056
				c0.231-0.036,0.416-0.075,0.553-0.114v1.065c-0.152,0.072-0.378,0.132-0.675,0.181c-0.299,0.047-0.565,0.07-0.804,0.07
				c-1.8,0-2.699-0.947-2.699-2.845v-5.537H647.666z"/>
			<path fill="#5B5B5F" d="M654.341,225.768c0-1.875,1.506-2.856,4.516-2.947l1.582-0.053v-0.584c0-0.738-0.157-1.285-0.471-1.637
				c-0.314-0.352-0.815-0.529-1.505-0.529c-0.773,0-1.649,0.241-2.627,0.723l-0.438-1.082c0.459-0.246,0.961-0.438,1.508-0.577
				c0.546-0.14,1.094-0.209,1.644-0.209c1.107,0,1.93,0.246,2.465,0.739c0.534,0.492,0.802,1.281,0.802,2.369v6.352h-1.045
				l-0.28-1.311h-0.067c-0.464,0.578-0.926,0.969-1.387,1.174c-0.46,0.203-1.034,0.307-1.725,0.307c-0.927,0-1.654-0.236-2.18-0.711
				C654.604,227.316,654.341,226.643,654.341,225.768z M655.836,225.785c0,0.512,0.152,0.9,0.462,1.169
				c0.308,0.267,0.737,0.401,1.292,0.401c0.876,0,1.563-0.242,2.063-0.726s0.75-1.161,0.75-2.03v-0.845l-1.407,0.06
				c-1.117,0.041-1.926,0.216-2.42,0.525C656.083,224.65,655.836,225.13,655.836,225.785z"/>
			<path fill="#5B5B5F" d="M664.709,228.331v-13.213h1.409v13.213H664.709z"/>
			<path fill="#5B5B5F" d="M673.108,223.736c0-1.557,0.372-2.76,1.116-3.608c0.745-0.849,1.811-1.274,3.197-1.274
				c0.446,0,0.895,0.049,1.342,0.146c0.446,0.097,0.799,0.209,1.054,0.34l-0.434,1.197c-0.313-0.125-0.651-0.228-1.02-0.31
				s-0.693-0.123-0.977-0.123c-1.893,0-2.837,1.205-2.837,3.617c0,1.145,0.229,2.021,0.691,2.633
				c0.461,0.61,1.146,0.916,2.052,0.916c0.774,0,1.57-0.166,2.386-0.5v1.248c-0.622,0.322-1.406,0.484-2.353,0.484
				c-1.348,0-2.388-0.415-3.12-1.244C673.475,226.428,673.108,225.254,673.108,223.736z"/>
			<path fill="#5B5B5F" d="M681.209,225.768c0-1.875,1.506-2.856,4.516-2.947l1.582-0.053v-0.584c0-0.738-0.157-1.285-0.471-1.637
				c-0.314-0.352-0.815-0.529-1.506-0.529c-0.772,0-1.648,0.241-2.627,0.723l-0.438-1.082c0.459-0.246,0.961-0.438,1.508-0.577
				c0.546-0.14,1.094-0.209,1.643-0.209c1.108,0,1.931,0.246,2.466,0.739c0.533,0.492,0.802,1.281,0.802,2.369v6.352h-1.045
				l-0.28-1.311h-0.068c-0.463,0.578-0.925,0.969-1.386,1.174c-0.46,0.203-1.035,0.307-1.725,0.307c-0.927,0-1.654-0.236-2.18-0.711
				C681.473,227.316,681.209,226.643,681.209,225.768z M682.703,225.785c0,0.512,0.153,0.9,0.462,1.169
				c0.309,0.267,0.738,0.401,1.292,0.401c0.876,0,1.564-0.242,2.064-0.726s0.75-1.161,0.75-2.03v-0.845l-1.407,0.06
				c-1.118,0.041-1.926,0.216-2.42,0.525C682.95,224.65,682.703,225.13,682.703,225.785z"/>
			<path fill="#5B5B5F" d="M690.984,221.311c0-0.759,0.308-1.358,0.924-1.797c0.617-0.439,1.462-0.66,2.537-0.66
				c0.995,0,1.969,0.205,2.92,0.611l-0.492,1.148c-0.931-0.387-1.773-0.579-2.529-0.579c-0.67,0-1.175,0.104-1.516,0.315
				c-0.341,0.209-0.511,0.498-0.511,0.867c0,0.25,0.063,0.463,0.191,0.639s0.333,0.343,0.616,0.502
				c0.283,0.158,0.828,0.389,1.635,0.688c1.104,0.403,1.846,0.81,2.227,1.218c0.38,0.408,0.57,0.922,0.57,1.54
				c0,0.862-0.32,1.527-0.963,1.995c-0.643,0.467-1.542,0.701-2.702,0.701c-1.231,0-2.192-0.191-2.882-0.578v-1.301
				c0.445,0.227,0.925,0.406,1.437,0.536c0.512,0.131,1.005,0.196,1.479,0.196c0.736,0,1.305-0.119,1.701-0.354
				c0.397-0.234,0.597-0.594,0.597-1.077c0-0.362-0.157-0.673-0.474-0.932c-0.313-0.259-0.929-0.563-1.842-0.915
				c-0.868-0.324-1.483-0.606-1.848-0.848c-0.364-0.24-0.634-0.515-0.813-0.82C691.073,222.104,690.984,221.736,690.984,221.311z"/>
			<path fill="#5B5B5F" d="M699.356,223.754c0-1.5,0.368-2.691,1.104-3.574c0.735-0.884,1.726-1.326,2.968-1.326
				c1.162,0,2.082,0.385,2.759,1.151s1.016,1.779,1.016,3.036v0.893H700.8c0.027,1.092,0.305,1.922,0.83,2.487
				c0.523,0.565,1.263,0.849,2.216,0.849c0.999,0,1.986-0.209,2.963-0.627v1.256c-0.497,0.216-0.967,0.371-1.41,0.463
				c-0.443,0.094-0.978,0.141-1.604,0.141c-1.372,0-2.454-0.419-3.248-1.257C699.753,226.406,699.356,225.243,699.356,223.754z
				 M700.834,222.786h4.873c0-0.89-0.197-1.569-0.595-2.042c-0.396-0.473-0.965-0.709-1.702-0.709c-0.748,0-1.345,0.242-1.79,0.73
				C701.176,221.252,700.912,221.925,700.834,222.786z"/>
			<path fill="#5B5B5F" d="M709.036,221.311c0-0.759,0.309-1.358,0.925-1.797c0.616-0.439,1.462-0.66,2.536-0.66
				c0.995,0,1.97,0.205,2.921,0.611l-0.492,1.148c-0.932-0.387-1.774-0.579-2.53-0.579c-0.67,0-1.175,0.104-1.515,0.315
				c-0.342,0.209-0.512,0.498-0.512,0.867c0,0.25,0.063,0.463,0.191,0.639s0.333,0.343,0.617,0.502
				c0.283,0.158,0.828,0.389,1.634,0.688c1.104,0.403,1.846,0.81,2.227,1.218c0.38,0.408,0.57,0.922,0.57,1.54
				c0,0.862-0.32,1.527-0.963,1.995c-0.643,0.467-1.542,0.701-2.702,0.701c-1.231,0-2.192-0.191-2.882-0.578v-1.301
				c0.446,0.227,0.925,0.406,1.437,0.536c0.513,0.131,1.005,0.196,1.479,0.196c0.737,0,1.305-0.119,1.702-0.354
				c0.396-0.234,0.596-0.594,0.596-1.077c0-0.362-0.157-0.673-0.473-0.932c-0.314-0.259-0.93-0.563-1.843-0.915
				c-0.867-0.324-1.483-0.606-1.848-0.848c-0.364-0.24-0.634-0.515-0.812-0.82C709.125,222.104,709.036,221.736,709.036,221.311z"/>
		</g>
		<rect x="563.448" y="171.321" fill="#DD9B2B" width="17.803" height="17.8"/>
		<rect x="563.448" y="214.011" fill="#199598" width="17.803" height="17.8"/>
	</g>
</g>
<g id="Capa_2">
	<g>
		<g>
			<g>
				<path fill="#CAE4E4" d="M139.539,149.916l-83.64-70.183c21.164-25.221,50.716-39.002,83.64-39.002V149.916z"/>
			</g>
		</g>
		<g>
			<g>
				<path fill="#4EA4A6" d="M139.539,149.916V40.73c60.301,0,109.185,48.884,109.185,109.186c0,60.3-48.884,109.184-109.185,109.184
					c-60.301,0-109.185-48.884-109.185-109.184c0-27.317,7.986-49.258,25.544-70.183L139.539,149.916z"/>
			</g>
		</g>
		<g>
			<path d="M64.698,57.206c0,0.768-0.232,1.42-0.697,1.958c-0.465,0.538-1.118,0.908-1.958,1.109v0.051
				c0.992,0.123,1.743,0.424,2.252,0.903s0.765,1.125,0.765,1.937c0,1.182-0.428,2.103-1.286,2.761s-2.082,0.987-3.672,0.987
				c-1.333,0-2.516-0.221-3.547-0.664v-2.21c0.477,0.241,1,0.437,1.572,0.588s1.137,0.227,1.698,0.227
				c0.857,0,1.49-0.146,1.899-0.437c0.409-0.291,0.614-0.759,0.614-1.403c0-0.577-0.235-0.986-0.706-1.227
				c-0.471-0.241-1.221-0.361-2.252-0.361h-0.933v-1.992h0.95c0.952,0,1.648-0.125,2.088-0.374c0.44-0.249,0.66-0.676,0.66-1.281
				c0-0.93-0.583-1.396-1.748-1.396c-0.403,0-0.814,0.067-1.231,0.202c-0.417,0.134-0.881,0.367-1.391,0.697l-1.202-1.79
				c1.121-0.807,2.457-1.21,4.009-1.21c1.271,0,2.276,0.258,3.013,0.773C64.33,55.57,64.698,56.287,64.698,57.206z"/>
			<path d="M70.648,54.298c1.176,0,2.125,0.268,2.845,0.803c0.72,0.535,1.08,1.256,1.08,2.164c0,0.627-0.174,1.186-0.521,1.676
				c-0.347,0.49-0.907,0.929-1.681,1.315c0.919,0.493,1.579,1.007,1.979,1.542c0.401,0.535,0.601,1.122,0.601,1.761
				c0,1.008-0.395,1.819-1.185,2.433c-0.79,0.613-1.829,0.92-3.118,0.92c-1.345,0-2.401-0.286-3.168-0.857
				c-0.768-0.572-1.151-1.381-1.151-2.429c0-0.701,0.187-1.322,0.559-1.866s0.971-1.022,1.794-1.437
				c-0.7-0.443-1.205-0.916-1.513-1.42s-0.462-1.056-0.462-1.656c0-0.879,0.364-1.591,1.092-2.134S69.477,54.298,70.648,54.298z
				 M68.732,63.476c0,0.482,0.168,0.857,0.504,1.126c0.336,0.269,0.795,0.403,1.378,0.403c0.644,0,1.126-0.139,1.445-0.416
				s0.479-0.643,0.479-1.097c0-0.375-0.158-0.727-0.475-1.055s-0.831-0.676-1.542-1.046C69.329,61.94,68.732,62.635,68.732,63.476z
				 M70.631,56.198c-0.442,0-0.8,0.113-1.071,0.34c-0.272,0.227-0.408,0.531-0.408,0.912c0,0.336,0.108,0.638,0.324,0.903
				c0.215,0.267,0.606,0.54,1.172,0.82c0.549-0.258,0.933-0.521,1.151-0.79c0.218-0.269,0.328-0.58,0.328-0.933
				c0-0.386-0.14-0.692-0.42-0.916C71.427,56.31,71.068,56.198,70.631,56.198z"/>
			<path d="M84.759,60.602c0,2.146-0.352,3.734-1.055,4.765c-0.704,1.031-1.786,1.546-3.249,1.546c-1.417,0-2.486-0.532-3.206-1.597
				c-0.72-1.064-1.08-2.636-1.08-4.714c0-2.168,0.35-3.767,1.05-4.795c0.7-1.028,1.779-1.542,3.235-1.542
				c1.417,0,2.489,0.538,3.215,1.614S84.759,58.528,84.759,60.602z M78.75,60.602c0,1.507,0.13,2.587,0.391,3.239
				c0.26,0.653,0.699,0.979,1.315,0.979c0.605,0,1.042-0.331,1.311-0.992c0.269-0.661,0.404-1.737,0.404-3.227
				c0-1.507-0.136-2.59-0.408-3.249c-0.272-0.658-0.708-0.987-1.307-0.987c-0.61,0-1.047,0.329-1.311,0.987
				C78.881,58.012,78.75,59.094,78.75,60.602z"/>
			<path d="M89.229,64.938c-0.292,1.131-0.785,2.473-1.479,4.025h-1.849c0.364-1.491,0.647-2.896,0.849-4.219h2.353L89.229,64.938z"
				/>
			<path d="M95.524,58.896c1.188,0,2.133,0.333,2.836,1c0.703,0.667,1.055,1.58,1.055,2.74c0,1.373-0.423,2.429-1.269,3.168
				c-0.846,0.74-2.056,1.109-3.631,1.109c-1.367,0-2.471-0.221-3.311-0.664v-2.244c0.442,0.235,0.958,0.427,1.546,0.576
				s1.146,0.223,1.672,0.223c1.585,0,2.378-0.65,2.378-1.95c0-1.238-0.821-1.857-2.462-1.857c-0.297,0-0.625,0.03-0.983,0.088
				c-0.358,0.059-0.65,0.122-0.874,0.189l-1.034-0.555l0.462-6.261h6.664v2.202h-4.387l-0.227,2.412l0.294-0.059
				C94.597,58.935,95.02,58.896,95.524,58.896z"/>
			<path d="M109.399,60.602c0,2.146-0.352,3.734-1.055,4.765c-0.704,1.031-1.786,1.546-3.249,1.546
				c-1.417,0-2.486-0.532-3.206-1.597c-0.72-1.064-1.08-2.636-1.08-4.714c0-2.168,0.35-3.767,1.05-4.795
				c0.7-1.028,1.779-1.542,3.235-1.542c1.417,0,2.489,0.538,3.215,1.614S109.399,58.528,109.399,60.602z M103.39,60.602
				c0,1.507,0.13,2.587,0.391,3.239c0.26,0.653,0.699,0.979,1.315,0.979c0.605,0,1.042-0.331,1.311-0.992
				c0.269-0.661,0.404-1.737,0.404-3.227c0-1.507-0.136-2.59-0.408-3.249c-0.272-0.658-0.708-0.987-1.307-0.987
				c-0.61,0-1.047,0.329-1.311,0.987C103.522,58.012,103.39,59.094,103.39,60.602z"/>
			<path d="M119.223,60.602c0,2.146-0.352,3.734-1.055,4.765c-0.704,1.031-1.786,1.546-3.249,1.546
				c-1.417,0-2.486-0.532-3.206-1.597c-0.72-1.064-1.08-2.636-1.08-4.714c0-2.168,0.35-3.767,1.05-4.795
				c0.7-1.028,1.779-1.542,3.235-1.542c1.417,0,2.489,0.538,3.215,1.614S119.223,58.528,119.223,60.602z M113.215,60.602
				c0,1.507,0.13,2.587,0.391,3.239c0.26,0.653,0.699,0.979,1.315,0.979c0.605,0,1.042-0.331,1.311-0.992
				c0.269-0.661,0.404-1.737,0.404-3.227c0-1.507-0.136-2.59-0.408-3.249c-0.272-0.658-0.708-0.987-1.307-0.987
				c-0.61,0-1.047,0.329-1.311,0.987C113.346,58.012,113.215,59.094,113.215,60.602z"/>
		</g>
		<g>
			<path d="M115.049,238.241h-8.589v-1.807l3.084-3.118c0.913-0.936,1.51-1.584,1.79-1.945s0.482-0.696,0.605-1.005
				c0.123-0.308,0.185-0.627,0.185-0.958c0-0.492-0.136-0.859-0.408-1.101c-0.272-0.241-0.634-0.361-1.088-0.361
				c-0.476,0-0.938,0.109-1.387,0.328c-0.448,0.218-0.916,0.529-1.403,0.933l-1.412-1.673c0.605-0.515,1.106-0.879,1.504-1.092
				s0.832-0.377,1.303-0.492c0.471-0.114,0.997-0.172,1.58-0.172c0.768,0,1.445,0.14,2.034,0.42s1.045,0.673,1.37,1.177
				c0.325,0.504,0.488,1.081,0.488,1.731c0,0.565-0.1,1.097-0.298,1.592c-0.199,0.496-0.507,1.005-0.925,1.525
				c-0.417,0.521-1.153,1.264-2.206,2.228l-1.58,1.487v0.118h5.353V238.241z"/>
			<path d="M119.453,236.435c-0.292,1.132-0.785,2.474-1.479,4.025h-1.849c0.364-1.49,0.647-2.896,0.849-4.219h2.353
				L119.453,236.435z"/>
			<path d="M130.143,235.694h-1.479v2.547h-2.538v-2.547h-5.244v-1.807l5.387-7.933h2.395v7.723h1.479V235.694z M126.126,233.678
				v-2.084c0-0.348,0.014-0.852,0.042-1.513c0.028-0.661,0.051-1.045,0.067-1.151h-0.067c-0.207,0.459-0.457,0.907-0.748,1.345
				l-2.252,3.403H126.126z"/>
			<path d="M139.623,232.098c0,2.146-0.352,3.734-1.055,4.766c-0.704,1.03-1.786,1.546-3.249,1.546
				c-1.417,0-2.486-0.532-3.206-1.597c-0.72-1.064-1.08-2.636-1.08-4.715c0-2.168,0.35-3.766,1.05-4.794s1.779-1.542,3.235-1.542
				c1.417,0,2.489,0.537,3.215,1.613C139.26,228.45,139.623,230.025,139.623,232.098z M133.614,232.098
				c0,1.508,0.13,2.587,0.391,3.24c0.26,0.652,0.699,0.979,1.315,0.979c0.605,0,1.042-0.33,1.311-0.991
				c0.269-0.661,0.404-1.737,0.404-3.228c0-1.507-0.136-2.59-0.408-3.248c-0.272-0.658-0.708-0.987-1.307-0.987
				c-0.61,0-1.047,0.329-1.311,0.987C133.745,229.508,133.614,230.591,133.614,232.098z"/>
			<path d="M149.035,228.703c0,0.768-0.232,1.42-0.697,1.958c-0.465,0.537-1.118,0.907-1.958,1.109v0.05
				c0.992,0.124,1.743,0.425,2.252,0.903c0.51,0.479,0.765,1.125,0.765,1.938c0,1.183-0.428,2.103-1.286,2.761
				s-2.082,0.987-3.672,0.987c-1.333,0-2.516-0.221-3.547-0.664v-2.21c0.477,0.241,1,0.437,1.572,0.588s1.137,0.228,1.698,0.228
				c0.857,0,1.49-0.146,1.899-0.438c0.409-0.291,0.614-0.759,0.614-1.403c0-0.577-0.235-0.986-0.706-1.227
				c-0.471-0.241-1.221-0.361-2.252-0.361h-0.933v-1.992h0.95c0.952,0,1.648-0.125,2.088-0.374s0.66-0.677,0.66-1.281
				c0-0.931-0.583-1.396-1.748-1.396c-0.403,0-0.814,0.067-1.231,0.202c-0.417,0.134-0.881,0.367-1.391,0.697l-1.202-1.79
				c1.121-0.807,2.457-1.21,4.009-1.21c1.271,0,2.276,0.258,3.013,0.773C148.667,227.066,149.035,227.784,149.035,228.703z"/>
			<path d="M153.918,236.435c-0.292,1.132-0.785,2.474-1.479,4.025h-1.849c0.364-1.49,0.647-2.896,0.849-4.219h2.353
				L153.918,236.435z"/>
			<path d="M164.28,231.198c0,2.421-0.51,4.228-1.529,5.421c-1.02,1.193-2.563,1.79-4.631,1.79c-0.729,0-1.28-0.039-1.655-0.117
				v-2.085c0.47,0.118,0.963,0.177,1.479,0.177c0.868,0,1.583-0.127,2.143-0.382c0.56-0.255,0.989-0.656,1.286-1.202
				s0.468-1.299,0.513-2.257h-0.101c-0.325,0.527-0.7,0.896-1.126,1.109s-0.958,0.319-1.597,0.319c-1.07,0-1.914-0.343-2.53-1.029
				s-0.924-1.64-0.924-2.861c0-1.316,0.374-2.357,1.122-3.122c0.748-0.765,1.766-1.147,3.055-1.147c0.908,0,1.702,0.213,2.382,0.639
				c0.681,0.426,1.203,1.044,1.567,1.854S164.28,230.078,164.28,231.198z M159.834,227.896c-0.538,0-0.958,0.186-1.26,0.555
				c-0.303,0.37-0.454,0.902-0.454,1.597c0,0.595,0.137,1.065,0.412,1.412c0.275,0.348,0.692,0.521,1.252,0.521
				c0.526,0,0.978-0.173,1.353-0.517c0.375-0.345,0.563-0.741,0.563-1.189c0-0.667-0.175-1.229-0.525-1.689
				C160.824,228.126,160.378,227.896,159.834,227.896z"/>
			<path d="M165.482,233.022c0-2.432,0.514-4.241,1.542-5.429c1.028-1.188,2.568-1.782,4.618-1.782c0.7,0,1.25,0.042,1.647,0.126
				v2.076c-0.499-0.112-0.992-0.168-1.479-0.168c-0.891,0-1.618,0.134-2.181,0.403c-0.563,0.269-0.985,0.667-1.265,1.193
				c-0.28,0.526-0.445,1.274-0.496,2.244h0.109c0.555-0.953,1.442-1.429,2.664-1.429c1.098,0,1.958,0.344,2.58,1.033
				c0.622,0.689,0.933,1.642,0.933,2.857c0,1.312-0.37,2.349-1.109,3.113c-0.739,0.766-1.765,1.147-3.076,1.147
				c-0.908,0-1.699-0.21-2.374-0.63c-0.675-0.421-1.196-1.034-1.563-1.841C165.665,235.132,165.482,234.16,165.482,233.022z
				 M169.919,236.334c0.555,0,0.98-0.187,1.277-0.56c0.297-0.372,0.445-0.903,0.445-1.593c0-0.599-0.139-1.071-0.416-1.416
				c-0.277-0.344-0.696-0.517-1.256-0.517c-0.527,0-0.976,0.171-1.349,0.513c-0.373,0.342-0.559,0.739-0.559,1.193
				c0,0.667,0.175,1.229,0.525,1.689C168.937,236.104,169.381,236.334,169.919,236.334z"/>
			<path d="M179.861,230.392c1.188,0,2.133,0.334,2.836,1c0.703,0.667,1.055,1.58,1.055,2.74c0,1.373-0.423,2.429-1.269,3.168
				c-0.846,0.739-2.056,1.109-3.631,1.109c-1.367,0-2.471-0.221-3.311-0.664v-2.243c0.442,0.235,0.958,0.427,1.546,0.575
				s1.146,0.223,1.672,0.223c1.585,0,2.378-0.649,2.378-1.949c0-1.238-0.821-1.857-2.462-1.857c-0.297,0-0.625,0.029-0.983,0.088
				s-0.65,0.122-0.874,0.189l-1.034-0.555l0.462-6.261h6.664v2.201h-4.387l-0.227,2.412l0.294-0.059
				C178.934,230.432,179.357,230.392,179.861,230.392z"/>
		</g>
	</g>
	<g>
		<g>
			<g>
				<g>
					<g>
						<path fill="#CAE4E4" d="M139.539,445.491l-11.422-108.67c3.962-0.416,7.439-0.6,11.422-0.6V445.491z"/>
					</g>
				</g>
			</g>
			<g>
				<g>
					<path fill="#4EA4A6" d="M139.539,445.491v-109.27c60.35,0,109.269,48.923,109.269,109.27s-48.919,109.27-109.269,109.27
						c-60.347,0-109.269-48.923-109.269-109.27c0-56.304,41.852-102.785,97.847-108.67L139.539,445.491z"/>
				</g>
			</g>
		</g>
		<g>
			<path d="M122.561,352.697c0,0.768-0.232,1.42-0.697,1.958s-1.118,0.907-1.958,1.109v0.051c0.991,0.123,1.742,0.425,2.252,0.903
				s0.765,1.125,0.765,1.938c0,1.182-0.429,2.102-1.285,2.76c-0.857,0.658-2.082,0.988-3.673,0.988
				c-1.334,0-2.516-0.222-3.547-0.664v-2.211c0.477,0.241,1,0.438,1.572,0.589c0.571,0.151,1.137,0.227,1.697,0.227
				c0.857,0,1.49-0.146,1.899-0.437c0.408-0.291,0.613-0.76,0.613-1.404c0-0.576-0.235-0.985-0.706-1.227
				c-0.471-0.24-1.222-0.361-2.252-0.361h-0.933v-1.992h0.949c0.952,0,1.648-0.124,2.088-0.373c0.44-0.25,0.66-0.677,0.66-1.281
				c0-0.931-0.583-1.396-1.748-1.396c-0.403,0-0.813,0.068-1.231,0.203c-0.417,0.134-0.881,0.366-1.391,0.697l-1.202-1.791
				c1.121-0.807,2.457-1.209,4.009-1.209c1.272,0,2.276,0.258,3.013,0.772C122.193,351.062,122.561,351.778,122.561,352.697z"/>
			<path d="M127.444,360.43c-0.291,1.131-0.784,2.473-1.479,4.025h-1.849c0.364-1.491,0.647-2.896,0.849-4.219h2.354L127.444,360.43
				z"/>
			<path d="M137.377,352.697c0,0.768-0.232,1.42-0.697,1.958s-1.118,0.907-1.958,1.109v0.051c0.991,0.123,1.742,0.425,2.252,0.903
				s0.765,1.125,0.765,1.938c0,1.182-0.429,2.102-1.285,2.76c-0.857,0.658-2.082,0.988-3.673,0.988
				c-1.334,0-2.516-0.222-3.547-0.664v-2.211c0.477,0.241,1,0.438,1.572,0.589c0.571,0.151,1.137,0.227,1.697,0.227
				c0.857,0,1.49-0.146,1.899-0.437c0.408-0.291,0.613-0.76,0.613-1.404c0-0.576-0.235-0.985-0.706-1.227
				c-0.471-0.24-1.222-0.361-2.252-0.361h-0.933v-1.992h0.949c0.952,0,1.648-0.124,2.088-0.373c0.44-0.25,0.66-0.677,0.66-1.281
				c0-0.931-0.583-1.396-1.748-1.396c-0.403,0-0.813,0.068-1.231,0.203c-0.417,0.134-0.881,0.366-1.391,0.697l-1.202-1.791
				c1.121-0.807,2.457-1.209,4.009-1.209c1.272,0,2.276,0.258,3.013,0.772C137.009,351.062,137.377,351.778,137.377,352.697z"/>
			<path d="M139.008,357.018c0-2.432,0.514-4.242,1.542-5.43c1.027-1.188,2.567-1.781,4.618-1.781c0.7,0,1.249,0.041,1.646,0.126
				v2.075c-0.498-0.111-0.991-0.168-1.479-0.168c-0.892,0-1.618,0.135-2.181,0.404c-0.563,0.268-0.985,0.666-1.266,1.193
				c-0.28,0.525-0.445,1.273-0.495,2.243h0.108c0.555-0.952,1.443-1.429,2.664-1.429c1.099,0,1.959,0.345,2.58,1.033
				c0.622,0.689,0.934,1.643,0.934,2.857c0,1.312-0.37,2.35-1.109,3.114c-0.74,0.765-1.765,1.147-3.076,1.147
				c-0.907,0-1.699-0.211-2.374-0.631s-1.196-1.033-1.563-1.84S139.008,358.154,139.008,357.018z M143.445,360.328
				c0.555,0,0.98-0.186,1.277-0.559s0.446-0.904,0.446-1.593c0-0.6-0.139-1.071-0.416-1.416s-0.696-0.517-1.257-0.517
				c-0.526,0-0.977,0.17-1.349,0.512c-0.373,0.342-0.559,0.74-0.559,1.193c0,0.668,0.175,1.23,0.524,1.689
				C142.463,360.099,142.907,360.328,143.445,360.328z"/>
			<path d="M157.505,362.236h-8.589v-1.807l3.084-3.119c0.913-0.936,1.51-1.584,1.79-1.945s0.481-0.695,0.605-1.004
				c0.123-0.309,0.185-0.627,0.185-0.958c0-0.493-0.136-0.86-0.407-1.101c-0.272-0.241-0.635-0.361-1.089-0.361
				c-0.477,0-0.938,0.109-1.387,0.327c-0.448,0.219-0.916,0.53-1.403,0.933l-1.412-1.672c0.605-0.516,1.106-0.88,1.505-1.093
				c0.397-0.213,0.832-0.376,1.303-0.491c0.47-0.115,0.997-0.172,1.579-0.172c0.768,0,1.446,0.14,2.034,0.42
				c0.588,0.279,1.045,0.672,1.37,1.176c0.324,0.504,0.487,1.082,0.487,1.731c0,0.565-0.1,1.097-0.299,1.593
				c-0.198,0.496-0.507,1.004-0.924,1.525c-0.418,0.521-1.153,1.264-2.206,2.227l-1.58,1.488v0.117h5.354V362.236z"/>
		</g>
		<g>
			<path d="M127.348,533.732h-8.589v-1.807l3.084-3.118c0.913-0.936,1.51-1.584,1.79-1.945s0.481-0.696,0.605-1.005
				c0.123-0.308,0.185-0.627,0.185-0.958c0-0.492-0.136-0.859-0.407-1.101c-0.272-0.241-0.635-0.361-1.089-0.361
				c-0.477,0-0.938,0.109-1.387,0.328c-0.448,0.218-0.916,0.529-1.403,0.933l-1.412-1.673c0.605-0.515,1.106-0.879,1.505-1.092
				c0.397-0.213,0.832-0.377,1.303-0.492c0.47-0.114,0.997-0.172,1.579-0.172c0.768,0,1.446,0.14,2.034,0.42s1.045,0.673,1.37,1.177
				c0.324,0.504,0.487,1.081,0.487,1.731c0,0.565-0.1,1.097-0.299,1.592c-0.198,0.496-0.507,1.005-0.924,1.525
				c-0.418,0.521-1.153,1.264-2.206,2.228l-1.58,1.487v0.118h5.354V533.732z"/>
			<path d="M137.105,527.589c0,2.146-0.352,3.734-1.055,4.766c-0.703,1.03-1.786,1.546-3.248,1.546
				c-1.418,0-2.486-0.532-3.206-1.597c-0.721-1.064-1.08-2.636-1.08-4.715c0-2.168,0.35-3.766,1.051-4.794
				c0.7-1.028,1.778-1.542,3.235-1.542c1.417,0,2.488,0.537,3.214,1.613C136.741,523.941,137.105,525.517,137.105,527.589z
				 M131.096,527.589c0,1.508,0.13,2.587,0.391,3.24c0.261,0.652,0.699,0.979,1.315,0.979c0.604,0,1.042-0.33,1.311-0.991
				c0.27-0.661,0.403-1.737,0.403-3.228c0-1.507-0.136-2.59-0.407-3.248s-0.707-0.987-1.307-0.987c-0.611,0-1.048,0.329-1.312,0.987
				S131.096,526.082,131.096,527.589z"/>
			<path d="M146.929,527.589c0,2.146-0.352,3.734-1.055,4.766c-0.703,1.03-1.786,1.546-3.248,1.546
				c-1.418,0-2.486-0.532-3.206-1.597c-0.721-1.064-1.08-2.636-1.08-4.715c0-2.168,0.35-3.766,1.051-4.794
				c0.7-1.028,1.778-1.542,3.235-1.542c1.417,0,2.488,0.537,3.214,1.613C146.566,523.941,146.929,525.517,146.929,527.589z
				 M140.92,527.589c0,1.508,0.13,2.587,0.391,3.24c0.261,0.652,0.699,0.979,1.315,0.979c0.604,0,1.042-0.33,1.311-0.991
				c0.27-0.661,0.403-1.737,0.403-3.228c0-1.507-0.136-2.59-0.407-3.248s-0.707-0.987-1.307-0.987c-0.611,0-1.048,0.329-1.312,0.987
				S140.92,526.082,140.92,527.589z"/>
			<path d="M151.4,531.926c-0.291,1.132-0.784,2.474-1.479,4.025h-1.849c0.364-1.49,0.647-2.896,0.849-4.219h2.354L151.4,531.926z"
				/>
			<path d="M161.813,533.732h-8.589v-1.807l3.084-3.118c0.913-0.936,1.51-1.584,1.79-1.945s0.481-0.696,0.605-1.005
				c0.123-0.308,0.185-0.627,0.185-0.958c0-0.492-0.136-0.859-0.407-1.101c-0.272-0.241-0.635-0.361-1.089-0.361
				c-0.477,0-0.938,0.109-1.387,0.328c-0.448,0.218-0.916,0.529-1.403,0.933l-1.412-1.673c0.605-0.515,1.106-0.879,1.505-1.092
				c0.397-0.213,0.832-0.377,1.303-0.492c0.47-0.114,0.997-0.172,1.579-0.172c0.768,0,1.446,0.14,2.034,0.42s1.045,0.673,1.37,1.177
				c0.324,0.504,0.487,1.081,0.487,1.731c0,0.565-0.1,1.097-0.299,1.592c-0.198,0.496-0.507,1.005-0.924,1.525
				c-0.418,0.521-1.153,1.264-2.206,2.228l-1.58,1.487v0.118h5.354V533.732z"/>
			<path d="M171.57,527.589c0,2.146-0.352,3.734-1.055,4.766c-0.703,1.03-1.786,1.546-3.248,1.546c-1.418,0-2.486-0.532-3.206-1.597
				c-0.721-1.064-1.08-2.636-1.08-4.715c0-2.168,0.35-3.766,1.051-4.794c0.7-1.028,1.778-1.542,3.235-1.542
				c1.417,0,2.488,0.537,3.214,1.613C171.206,523.941,171.57,525.517,171.57,527.589z M165.561,527.589
				c0,1.508,0.13,2.587,0.391,3.24c0.261,0.652,0.699,0.979,1.315,0.979c0.604,0,1.042-0.33,1.311-0.991
				c0.27-0.661,0.403-1.737,0.403-3.228c0-1.507-0.136-2.59-0.407-3.248s-0.707-0.987-1.307-0.987c-0.611,0-1.048,0.329-1.312,0.987
				S165.561,526.082,165.561,527.589z"/>
			<path d="M181.41,526.689c0,2.421-0.51,4.228-1.529,5.421s-2.563,1.79-4.631,1.79c-0.729,0-1.28-0.039-1.655-0.117v-2.085
				c0.471,0.118,0.963,0.177,1.479,0.177c0.869,0,1.583-0.127,2.144-0.382c0.56-0.255,0.988-0.656,1.285-1.202
				s0.468-1.299,0.513-2.257h-0.101c-0.325,0.527-0.7,0.896-1.126,1.109s-0.958,0.319-1.597,0.319c-1.07,0-1.913-0.343-2.529-1.029
				c-0.617-0.687-0.925-1.64-0.925-2.861c0-1.316,0.374-2.357,1.122-3.122s1.766-1.147,3.055-1.147c0.907,0,1.702,0.213,2.383,0.639
				s1.203,1.044,1.567,1.854S181.41,525.569,181.41,526.689z M176.965,523.387c-0.538,0-0.958,0.186-1.261,0.555
				c-0.303,0.37-0.454,0.902-0.454,1.597c0,0.595,0.138,1.065,0.412,1.412c0.274,0.348,0.691,0.521,1.252,0.521
				c0.526,0,0.978-0.173,1.354-0.517c0.375-0.345,0.563-0.741,0.563-1.189c0-0.667-0.175-1.229-0.525-1.689
				C177.955,523.617,177.508,523.387,176.965,523.387z"/>
		</g>
	</g>
	<g>
		<rect x="29.516" y="620.513" fill="#CAE4E4" width="17.803" height="17.802"/>
		<rect x="29.516" y="647.578" fill="#4EA4A6" width="17.803" height="17.801"/>
		<g>
			<path fill="#666666" d="M58.099,633.52v-11.422h6.367v1.188h-5.039v4.172h4.734v1.188h-4.734v4.875H58.099z"/>
			<path fill="#666666" d="M65.521,631.161c0-1.725,1.385-2.629,4.154-2.712l1.455-0.047v-0.538c0-0.681-0.145-1.183-0.433-1.507
				c-0.289-0.324-0.75-0.486-1.385-0.486c-0.712,0-1.518,0.222-2.417,0.664l-0.403-0.995c0.422-0.226,0.884-0.403,1.387-0.531
				s1.007-0.192,1.512-0.192c1.021,0,1.775,0.227,2.268,0.68c0.491,0.453,0.737,1.18,0.737,2.18v5.844h-0.961l-0.258-1.205h-0.063
				c-0.426,0.531-0.852,0.891-1.275,1.079s-0.952,0.282-1.587,0.282c-0.853,0-1.521-0.218-2.005-0.654
				C65.763,632.586,65.521,631.966,65.521,631.161z M66.896,631.177c0,0.471,0.142,0.829,0.425,1.075s0.68,0.369,1.189,0.369
				c0.806,0,1.438-0.223,1.898-0.667c0.46-0.445,0.69-1.067,0.69-1.868v-0.777l-1.295,0.055c-1.029,0.037-1.771,0.197-2.226,0.482
				C67.124,630.131,66.896,630.574,66.896,631.177z"/>
			<path fill="#666666" d="M73.927,625.965v-0.625l1.227-0.539l0.547-1.828h0.75v1.984h2.484v1.008h-2.484v5.051
				c0,0.518,0.122,0.914,0.367,1.19s0.581,0.415,1.008,0.415c0.229,0,0.45-0.018,0.664-0.051c0.214-0.034,0.383-0.069,0.508-0.105
				v0.98c-0.141,0.066-0.348,0.121-0.621,0.165s-0.52,0.065-0.738,0.065c-1.656,0-2.484-0.872-2.484-2.617v-5.094H73.927z"/>
			<path fill="#666666" d="M80.068,631.161c0-1.725,1.385-2.629,4.154-2.712l1.455-0.047v-0.538c0-0.681-0.145-1.183-0.433-1.507
				c-0.289-0.324-0.75-0.486-1.385-0.486c-0.712,0-1.518,0.222-2.417,0.664l-0.403-0.995c0.422-0.226,0.884-0.403,1.387-0.531
				s1.007-0.192,1.512-0.192c1.021,0,1.775,0.227,2.268,0.68c0.491,0.453,0.737,1.18,0.737,2.18v5.844h-0.961l-0.258-1.205h-0.063
				c-0.426,0.531-0.852,0.891-1.275,1.079s-0.952,0.282-1.587,0.282c-0.853,0-1.521-0.218-2.005-0.654
				C80.31,632.586,80.068,631.966,80.068,631.161z M81.443,631.177c0,0.471,0.142,0.829,0.425,1.075s0.68,0.369,1.189,0.369
				c0.806,0,1.438-0.223,1.898-0.667c0.46-0.445,0.69-1.067,0.69-1.868v-0.777l-1.295,0.055c-1.029,0.037-1.771,0.197-2.226,0.482
				C81.671,630.131,81.443,630.574,81.443,631.177z"/>
			<path fill="#666666" d="M89.607,633.52v-12.156h1.297v12.156H89.607z"/>
			<path fill="#666666" d="M96.615,624.957h1.375c0.552,2.148,0.972,3.786,1.261,4.91c0.288,1.125,0.445,1.885,0.47,2.277h0.036
				c0.033-0.313,0.117-0.703,0.252-1.172c0.134-0.469,0.241-0.844,0.321-1.125l1.594-4.891h1.428l1.555,4.914
				c0.296,0.896,0.497,1.648,0.603,2.258h0.063c0.021-0.187,0.082-0.473,0.181-0.859s0.64-2.49,1.62-6.313h1.328l-2.365,8.563
				h-1.537l-1.569-5.023c-0.1-0.307-0.284-1.005-0.555-2.094h-0.063c-0.208,0.911-0.391,1.614-0.546,2.108l-1.615,5.009H98.95
				L96.615,624.957z"/>
			<path fill="#666666" d="M109.779,629.223c0-1.394,0.348-2.479,1.044-3.256c0.695-0.777,1.661-1.166,2.897-1.166
				c1.194,0,2.144,0.398,2.847,1.193c0.704,0.795,1.056,1.871,1.056,3.229c0,1.398-0.351,2.49-1.052,3.275s-1.669,1.178-2.905,1.178
				c-0.764,0-1.441-0.18-2.033-0.54s-1.049-0.876-1.371-1.55C109.94,630.913,109.779,630.125,109.779,629.223z M111.107,629.223
				c0,1.096,0.219,1.932,0.657,2.506s1.082,0.861,1.933,0.861s1.496-0.285,1.937-0.857s0.661-1.408,0.661-2.51
				c0-1.091-0.221-1.92-0.661-2.486s-1.092-0.85-1.952-0.85c-0.851,0-1.492,0.279-1.925,0.838S111.107,628.116,111.107,629.223z"/>
			<path fill="#666666" d="M119.92,633.52v-8.563h1.055l0.158,1.594h0.067c0.318-0.561,0.701-0.992,1.149-1.295
				s0.94-0.455,1.477-0.455c0.38,0,0.722,0.031,1.023,0.094l-0.18,1.211c-0.354-0.078-0.667-0.117-0.938-0.117
				c-0.692,0-1.285,0.281-1.777,0.843s-0.738,1.262-0.738,2.1v4.589H119.92z"/>
			<path fill="#666666" d="M126.451,633.52v-12.156h1.297v6.445c0,0.287-0.021,0.729-0.063,1.328h0.063
				c0.224-0.317,0.565-0.734,1.023-1.25l2.766-2.93h1.539l-3.469,3.648l3.711,4.914h-1.57l-3.023-4.047l-0.977,0.844v3.203H126.451z
				"/>
			<path fill="#666666" d="M134.131,629.824v-1.188h3.836v1.188H134.131z"/>
			<path fill="#666666" d="M139.998,633.52v-8.563h1.055l0.158,1.594h0.067c0.318-0.561,0.701-0.992,1.149-1.295
				s0.94-0.455,1.477-0.455c0.38,0,0.722,0.031,1.023,0.094l-0.18,1.211c-0.354-0.078-0.667-0.117-0.938-0.117
				c-0.692,0-1.285,0.281-1.777,0.843s-0.738,1.262-0.738,2.1v4.589H139.998z"/>
			<path fill="#666666" d="M145.732,629.309c0-1.38,0.339-2.477,1.017-3.289s1.587-1.219,2.729-1.219
				c1.069,0,1.916,0.354,2.538,1.059c0.623,0.706,0.935,1.637,0.935,2.793v0.82h-5.891c0.026,1.006,0.28,1.769,0.763,2.289
				c0.483,0.521,1.162,0.781,2.039,0.781c0.919,0,1.827-0.192,2.726-0.578v1.156c-0.457,0.198-0.889,0.34-1.297,0.426
				c-0.407,0.086-0.899,0.129-1.476,0.129c-1.263,0-2.259-0.385-2.988-1.156C146.097,631.749,145.732,630.679,145.732,629.309z
				 M147.092,628.418h4.484c0-0.817-0.183-1.443-0.548-1.879c-0.365-0.435-0.887-0.652-1.565-0.652
				c-0.688,0-1.237,0.225-1.647,0.672C147.406,627.007,147.165,627.627,147.092,628.418z"/>
			<path fill="#666666" d="M155.185,633.52v-12.156h1.297v12.156H155.185z"/>
			<path fill="#666666" d="M158.592,631.161c0-1.725,1.385-2.629,4.154-2.712l1.455-0.047v-0.538c0-0.681-0.145-1.183-0.433-1.507
				c-0.289-0.324-0.75-0.486-1.385-0.486c-0.712,0-1.518,0.222-2.417,0.664l-0.403-0.995c0.422-0.226,0.884-0.403,1.387-0.531
				s1.007-0.192,1.512-0.192c1.021,0,1.775,0.227,2.268,0.68c0.491,0.453,0.737,1.18,0.737,2.18v5.844h-0.961l-0.258-1.205h-0.063
				c-0.426,0.531-0.852,0.891-1.275,1.079s-0.952,0.282-1.587,0.282c-0.853,0-1.521-0.218-2.005-0.654
				C158.834,632.586,158.592,631.966,158.592,631.161z M159.967,631.177c0,0.471,0.142,0.829,0.425,1.075s0.68,0.369,1.189,0.369
				c0.806,0,1.438-0.223,1.898-0.667c0.46-0.445,0.69-1.067,0.69-1.868v-0.777l-1.295,0.055c-1.029,0.037-1.771,0.197-2.226,0.482
				C160.194,630.131,159.967,630.574,159.967,631.177z"/>
			<path fill="#666666" d="M166.998,625.965v-0.625l1.227-0.539l0.547-1.828h0.75v1.984h2.484v1.008h-2.484v5.051
				c0,0.518,0.122,0.914,0.367,1.19s0.581,0.415,1.008,0.415c0.229,0,0.45-0.018,0.664-0.051c0.214-0.034,0.383-0.069,0.508-0.105
				v0.98c-0.141,0.066-0.348,0.121-0.621,0.165s-0.52,0.065-0.738,0.065c-1.656,0-2.484-0.872-2.484-2.617v-5.094H166.998z"/>
			<path fill="#666666" d="M173.302,629.309c0-1.38,0.339-2.477,1.017-3.289s1.587-1.219,2.729-1.219
				c1.069,0,1.916,0.354,2.538,1.059c0.623,0.706,0.935,1.637,0.935,2.793v0.82h-5.891c0.026,1.006,0.28,1.769,0.763,2.289
				c0.483,0.521,1.162,0.781,2.039,0.781c0.919,0,1.827-0.192,2.726-0.578v1.156c-0.457,0.198-0.889,0.34-1.297,0.426
				c-0.407,0.086-0.899,0.129-1.476,0.129c-1.263,0-2.259-0.385-2.988-1.156C173.668,631.749,173.302,630.679,173.302,629.309z
				 M174.662,628.418h4.484c0-0.817-0.183-1.443-0.548-1.879c-0.365-0.435-0.887-0.652-1.565-0.652
				c-0.688,0-1.237,0.225-1.647,0.672C174.976,627.007,174.735,627.627,174.662,628.418z"/>
			<path fill="#666666" d="M182.279,629.262c0-1.411,0.312-2.508,0.935-3.289c0.622-0.781,1.489-1.172,2.601-1.172
				c1.163,0,2.055,0.422,2.676,1.266h0.102l-0.055-0.617l-0.031-0.602v-3.484h1.297v12.156h-1.055l-0.172-1.148h-0.07
				c-0.6,0.87-1.497,1.305-2.691,1.305c-1.116,0-1.984-0.383-2.604-1.148S182.279,630.674,182.279,629.262z M183.607,629.277
				c0,1.094,0.201,1.92,0.603,2.477c0.401,0.558,0.991,0.836,1.769,0.836c0.887,0,1.529-0.24,1.929-0.723
				c0.399-0.481,0.599-1.259,0.599-2.332v-0.273c0-1.213-0.202-2.079-0.606-2.598c-0.404-0.518-1.05-0.777-1.937-0.777
				c-0.762,0-1.345,0.296-1.749,0.887C183.809,627.365,183.607,628.199,183.607,629.277z"/>
			<path fill="#666666" d="M196.607,622.637c0-0.297,0.067-0.514,0.201-0.652c0.135-0.138,0.303-0.207,0.505-0.207
				c0.225,0,0.418,0.07,0.581,0.211s0.244,0.357,0.244,0.648c0,0.292-0.081,0.51-0.244,0.652c-0.163,0.144-0.356,0.215-0.581,0.215
				c-0.202,0-0.37-0.071-0.505-0.215C196.675,623.146,196.607,622.929,196.607,622.637z M196.717,633.52v-8.563h1.188v8.563H196.717
				z"/>
			<path fill="#666666" d="M200.763,633.52v-12.156h1.297v12.156H200.763z"/>
			<path fill="#666666" d="M204.81,633.52v-12.156h1.297v12.156H204.81z"/>
			<path fill="#666666" d="M208.857,633.52v-8.563h1.055l0.211,1.156h0.063c0.266-0.416,0.638-0.74,1.117-0.969
				s1.013-0.344,1.602-0.344c1.031,0,1.808,0.249,2.328,0.746c0.521,0.498,0.781,1.293,0.781,2.387v5.586h-1.297v-5.551
				c0-0.699-0.159-1.221-0.477-1.565s-0.815-0.517-1.492-0.517c-0.896,0-1.552,0.242-1.969,0.729
				c-0.417,0.484-0.625,1.286-0.625,2.402v4.502H208.857z"/>
			<path fill="#666666" d="M218.201,629.309c0-1.38,0.339-2.477,1.017-3.289s1.587-1.219,2.729-1.219
				c1.069,0,1.916,0.354,2.538,1.059c0.623,0.706,0.935,1.637,0.935,2.793v0.82h-5.891c0.026,1.006,0.28,1.769,0.763,2.289
				c0.483,0.521,1.162,0.781,2.039,0.781c0.919,0,1.827-0.192,2.726-0.578v1.156c-0.457,0.198-0.889,0.34-1.297,0.426
				c-0.407,0.086-0.899,0.129-1.476,0.129c-1.263,0-2.259-0.385-2.988-1.156C218.566,631.749,218.201,630.679,218.201,629.309z
				 M219.56,628.418h4.484c0-0.817-0.183-1.443-0.548-1.879c-0.365-0.435-0.887-0.652-1.565-0.652c-0.688,0-1.237,0.225-1.647,0.672
				C219.875,627.007,219.634,627.627,219.56,628.418z"/>
			<path fill="#666666" d="M227.107,627.062c0-0.699,0.283-1.251,0.851-1.654c0.567-0.404,1.345-0.606,2.333-0.606
				c0.917,0,1.813,0.188,2.688,0.563l-0.453,1.056c-0.856-0.354-1.633-0.532-2.328-0.532c-0.616,0-1.08,0.097-1.394,0.29
				c-0.313,0.192-0.47,0.459-0.47,0.798c0,0.23,0.059,0.426,0.176,0.588c0.118,0.162,0.307,0.316,0.568,0.462
				c0.261,0.146,0.762,0.358,1.503,0.634c1.016,0.371,1.698,0.744,2.048,1.12c0.351,0.376,0.525,0.849,0.525,1.417
				c0,0.793-0.295,1.405-0.886,1.836c-0.591,0.43-1.419,0.645-2.486,0.645c-1.134,0-2.017-0.177-2.651-0.531v-1.197
				c0.41,0.209,0.852,0.373,1.322,0.494c0.47,0.119,0.924,0.18,1.36,0.18c0.679,0,1.2-0.108,1.566-0.325
				c0.365-0.216,0.548-0.546,0.548-0.99c0-0.334-0.145-0.62-0.435-0.857s-0.854-0.519-1.695-0.842
				c-0.798-0.298-1.365-0.558-1.699-0.779s-0.583-0.474-0.746-0.756S227.107,627.453,227.107,627.062z"/>
			<path fill="#666666" d="M234.74,627.062c0-0.699,0.283-1.251,0.851-1.654c0.567-0.404,1.345-0.606,2.333-0.606
				c0.917,0,1.813,0.188,2.688,0.563l-0.453,1.056c-0.856-0.354-1.633-0.532-2.328-0.532c-0.616,0-1.08,0.097-1.394,0.29
				c-0.313,0.192-0.47,0.459-0.47,0.798c0,0.23,0.059,0.426,0.176,0.588c0.118,0.162,0.307,0.316,0.568,0.462
				c0.261,0.146,0.762,0.358,1.503,0.634c1.016,0.371,1.698,0.744,2.048,1.12c0.351,0.376,0.525,0.849,0.525,1.417
				c0,0.793-0.295,1.405-0.886,1.836c-0.591,0.43-1.419,0.645-2.486,0.645c-1.134,0-2.017-0.177-2.651-0.531v-1.197
				c0.41,0.209,0.852,0.373,1.322,0.494c0.47,0.119,0.924,0.18,1.36,0.18c0.679,0,1.2-0.108,1.566-0.325
				c0.365-0.216,0.548-0.546,0.548-0.99c0-0.334-0.145-0.62-0.435-0.857s-0.854-0.519-1.695-0.842
				c-0.798-0.298-1.365-0.558-1.699-0.779s-0.583-0.474-0.746-0.756S234.74,627.453,234.74,627.062z"/>
			<path fill="#666666" d="M242.443,629.309c0-1.38,0.339-2.477,1.017-3.289s1.587-1.219,2.729-1.219
				c1.069,0,1.916,0.354,2.538,1.059c0.623,0.706,0.935,1.637,0.935,2.793v0.82h-5.891c0.026,1.006,0.28,1.769,0.763,2.289
				c0.483,0.521,1.162,0.781,2.039,0.781c0.919,0,1.827-0.192,2.726-0.578v1.156c-0.457,0.198-0.889,0.34-1.297,0.426
				c-0.407,0.086-0.899,0.129-1.476,0.129c-1.263,0-2.259-0.385-2.988-1.156C242.808,631.749,242.443,630.679,242.443,629.309z
				 M243.802,628.418h4.484c0-0.817-0.183-1.443-0.548-1.879c-0.365-0.435-0.887-0.652-1.565-0.652
				c-0.688,0-1.237,0.225-1.647,0.672C244.117,627.007,243.876,627.627,243.802,628.418z"/>
			<path fill="#666666" d="M251.349,627.062c0-0.699,0.283-1.251,0.851-1.654c0.567-0.404,1.345-0.606,2.333-0.606
				c0.917,0,1.813,0.188,2.688,0.563l-0.453,1.056c-0.856-0.354-1.633-0.532-2.328-0.532c-0.616,0-1.08,0.097-1.394,0.29
				c-0.313,0.192-0.47,0.459-0.47,0.798c0,0.23,0.059,0.426,0.176,0.588c0.118,0.162,0.307,0.316,0.568,0.462
				c0.261,0.146,0.762,0.358,1.503,0.634c1.016,0.371,1.698,0.744,2.048,1.12c0.351,0.376,0.525,0.849,0.525,1.417
				c0,0.793-0.295,1.405-0.886,1.836c-0.591,0.43-1.419,0.645-2.486,0.645c-1.134,0-2.017-0.177-2.651-0.531v-1.197
				c0.41,0.209,0.852,0.373,1.322,0.494c0.47,0.119,0.924,0.18,1.36,0.18c0.679,0,1.2-0.108,1.566-0.325
				c0.365-0.216,0.548-0.546,0.548-0.99c0-0.334-0.145-0.62-0.435-0.857s-0.854-0.519-1.695-0.842
				c-0.798-0.298-1.365-0.558-1.699-0.779s-0.583-0.474-0.746-0.756S251.349,627.453,251.349,627.062z"/>
		</g>
		<g>
			<path fill="#666666" d="M58.099,659.229v-11.422h6.367v1.188h-5.039v4.172h4.734v1.188h-4.734v4.875H58.099z"/>
			<path fill="#666666" d="M65.521,656.869c0-1.725,1.385-2.629,4.154-2.711l1.455-0.048v-0.538c0-0.68-0.145-1.182-0.433-1.506
				c-0.289-0.324-0.75-0.486-1.385-0.486c-0.712,0-1.518,0.221-2.417,0.664l-0.403-0.996c0.422-0.225,0.884-0.402,1.387-0.531
				c0.503-0.127,1.007-0.191,1.512-0.191c1.021,0,1.775,0.227,2.268,0.68c0.491,0.453,0.737,1.18,0.737,2.18v5.844h-0.961
				l-0.258-1.205h-0.063c-0.426,0.531-0.852,0.891-1.275,1.078c-0.424,0.188-0.952,0.283-1.587,0.283
				c-0.853,0-1.521-0.219-2.005-0.654C65.763,658.295,65.521,657.674,65.521,656.869z M66.896,656.885
				c0,0.471,0.142,0.83,0.425,1.076s0.68,0.369,1.189,0.369c0.806,0,1.438-0.223,1.898-0.668s0.69-1.067,0.69-1.868v-0.776
				l-1.295,0.055c-1.029,0.036-1.771,0.197-2.226,0.482C67.124,655.84,66.896,656.283,66.896,656.885z"/>
			<path fill="#666666" d="M73.927,651.674v-0.625l1.227-0.539l0.547-1.828h0.75v1.984h2.484v1.008h-2.484v5.051
				c0,0.517,0.122,0.914,0.367,1.189c0.245,0.277,0.581,0.416,1.008,0.416c0.229,0,0.45-0.018,0.664-0.051
				c0.214-0.035,0.383-0.07,0.508-0.106v0.98c-0.141,0.067-0.348,0.122-0.621,0.165c-0.273,0.044-0.52,0.066-0.738,0.066
				c-1.656,0-2.484-0.873-2.484-2.617v-5.094H73.927z"/>
			<path fill="#666666" d="M80.068,656.869c0-1.725,1.385-2.629,4.154-2.711l1.455-0.048v-0.538c0-0.68-0.145-1.182-0.433-1.506
				c-0.289-0.324-0.75-0.486-1.385-0.486c-0.712,0-1.518,0.221-2.417,0.664l-0.403-0.996c0.422-0.225,0.884-0.402,1.387-0.531
				c0.503-0.127,1.007-0.191,1.512-0.191c1.021,0,1.775,0.227,2.268,0.68c0.491,0.453,0.737,1.18,0.737,2.18v5.844h-0.961
				l-0.258-1.205h-0.063c-0.426,0.531-0.852,0.891-1.275,1.078c-0.424,0.188-0.952,0.283-1.587,0.283
				c-0.853,0-1.521-0.219-2.005-0.654C80.31,658.295,80.068,657.674,80.068,656.869z M81.443,656.885
				c0,0.471,0.142,0.83,0.425,1.076s0.68,0.369,1.189,0.369c0.806,0,1.438-0.223,1.898-0.668s0.69-1.067,0.69-1.868v-0.776
				l-1.295,0.055c-1.029,0.036-1.771,0.197-2.226,0.482C81.671,655.84,81.443,656.283,81.443,656.885z"/>
			<path fill="#666666" d="M89.607,659.229v-12.156h1.297v12.156H89.607z"/>
			<path fill="#666666" d="M96.615,650.666h1.375c0.552,2.148,0.972,3.785,1.261,4.91c0.288,1.125,0.445,1.884,0.47,2.277h0.036
				c0.033-0.313,0.117-0.703,0.252-1.172c0.134-0.47,0.241-0.845,0.321-1.125l1.594-4.891h1.428l1.555,4.914
				c0.296,0.896,0.497,1.648,0.603,2.258h0.063c0.021-0.188,0.082-0.474,0.181-0.859c0.099-0.387,0.64-2.49,1.62-6.313h1.328
				l-2.365,8.563h-1.537l-1.569-5.023c-0.1-0.308-0.284-1.006-0.555-2.094h-0.063c-0.208,0.91-0.391,1.613-0.546,2.107l-1.615,5.01
				H98.95L96.615,650.666z"/>
			<path fill="#666666" d="M109.779,654.932c0-1.395,0.348-2.479,1.044-3.256c0.695-0.777,1.661-1.166,2.897-1.166
				c1.194,0,2.144,0.397,2.847,1.193c0.704,0.795,1.056,1.871,1.056,3.229c0,1.398-0.351,2.49-1.052,3.275s-1.669,1.178-2.905,1.178
				c-0.764,0-1.441-0.18-2.033-0.541c-0.592-0.359-1.049-0.876-1.371-1.549C109.94,656.621,109.779,655.834,109.779,654.932z
				 M111.107,654.932c0,1.096,0.219,1.932,0.657,2.506s1.082,0.861,1.933,0.861s1.496-0.286,1.937-0.857
				c0.44-0.572,0.661-1.408,0.661-2.51c0-1.092-0.221-1.92-0.661-2.486s-1.092-0.85-1.952-0.85c-0.851,0-1.492,0.279-1.925,0.838
				S111.107,653.824,111.107,654.932z"/>
			<path fill="#666666" d="M119.92,659.229v-8.563h1.055l0.158,1.593h0.067c0.318-0.56,0.701-0.991,1.149-1.294
				c0.448-0.304,0.94-0.455,1.477-0.455c0.38,0,0.722,0.031,1.023,0.094l-0.18,1.211c-0.354-0.078-0.667-0.117-0.938-0.117
				c-0.692,0-1.285,0.281-1.777,0.842c-0.492,0.563-0.738,1.262-0.738,2.1v4.59H119.92z"/>
			<path fill="#666666" d="M126.451,659.229v-12.156h1.297v6.445c0,0.286-0.021,0.729-0.063,1.328h0.063
				c0.224-0.318,0.565-0.734,1.023-1.25l2.766-2.93h1.539l-3.469,3.648l3.711,4.914h-1.57l-3.023-4.047l-0.977,0.844v3.203H126.451z
				"/>
			<path fill="#666666" d="M134.131,655.533v-1.188h3.836v1.188H134.131z"/>
			<path fill="#666666" d="M139.998,659.229v-8.563h1.055l0.158,1.593h0.067c0.318-0.56,0.701-0.991,1.149-1.294
				c0.448-0.304,0.94-0.455,1.477-0.455c0.38,0,0.722,0.031,1.023,0.094l-0.18,1.211c-0.354-0.078-0.667-0.117-0.938-0.117
				c-0.692,0-1.285,0.281-1.777,0.842c-0.492,0.563-0.738,1.262-0.738,2.1v4.59H139.998z"/>
			<path fill="#666666" d="M145.732,655.018c0-1.381,0.339-2.477,1.017-3.289s1.587-1.219,2.729-1.219
				c1.069,0,1.916,0.353,2.538,1.059c0.623,0.705,0.935,1.637,0.935,2.793v0.82h-5.891c0.026,1.005,0.28,1.768,0.763,2.289
				c0.483,0.521,1.162,0.781,2.039,0.781c0.919,0,1.827-0.193,2.726-0.578v1.156c-0.457,0.197-0.889,0.34-1.297,0.426
				c-0.407,0.086-0.899,0.129-1.476,0.129c-1.263,0-2.259-0.386-2.988-1.156C146.097,657.457,145.732,656.387,145.732,655.018z
				 M147.092,654.127h4.484c0-0.818-0.183-1.444-0.548-1.879c-0.365-0.436-0.887-0.652-1.565-0.652
				c-0.688,0-1.237,0.224-1.647,0.672C147.406,652.715,147.165,653.335,147.092,654.127z"/>
			<path fill="#666666" d="M155.185,659.229v-12.156h1.297v12.156H155.185z"/>
			<path fill="#666666" d="M158.592,656.869c0-1.725,1.385-2.629,4.154-2.711l1.455-0.048v-0.538c0-0.68-0.145-1.182-0.433-1.506
				c-0.289-0.324-0.75-0.486-1.385-0.486c-0.712,0-1.518,0.221-2.417,0.664l-0.403-0.996c0.422-0.225,0.884-0.402,1.387-0.531
				c0.503-0.127,1.007-0.191,1.512-0.191c1.021,0,1.775,0.227,2.268,0.68c0.491,0.453,0.737,1.18,0.737,2.18v5.844h-0.961
				l-0.258-1.205h-0.063c-0.426,0.531-0.852,0.891-1.275,1.078c-0.424,0.188-0.952,0.283-1.587,0.283
				c-0.853,0-1.521-0.219-2.005-0.654C158.834,658.295,158.592,657.674,158.592,656.869z M159.967,656.885
				c0,0.471,0.142,0.83,0.425,1.076s0.68,0.369,1.189,0.369c0.806,0,1.438-0.223,1.898-0.668s0.69-1.067,0.69-1.868v-0.776
				l-1.295,0.055c-1.029,0.036-1.771,0.197-2.226,0.482C160.194,655.84,159.967,656.283,159.967,656.885z"/>
			<path fill="#666666" d="M166.998,651.674v-0.625l1.227-0.539l0.547-1.828h0.75v1.984h2.484v1.008h-2.484v5.051
				c0,0.517,0.122,0.914,0.367,1.189c0.245,0.277,0.581,0.416,1.008,0.416c0.229,0,0.45-0.018,0.664-0.051
				c0.214-0.035,0.383-0.07,0.508-0.106v0.98c-0.141,0.067-0.348,0.122-0.621,0.165c-0.273,0.044-0.52,0.066-0.738,0.066
				c-1.656,0-2.484-0.873-2.484-2.617v-5.094H166.998z"/>
			<path fill="#666666" d="M173.302,655.018c0-1.381,0.339-2.477,1.017-3.289s1.587-1.219,2.729-1.219
				c1.069,0,1.916,0.353,2.538,1.059c0.623,0.705,0.935,1.637,0.935,2.793v0.82h-5.891c0.026,1.005,0.28,1.768,0.763,2.289
				c0.483,0.521,1.162,0.781,2.039,0.781c0.919,0,1.827-0.193,2.726-0.578v1.156c-0.457,0.197-0.889,0.34-1.297,0.426
				c-0.407,0.086-0.899,0.129-1.476,0.129c-1.263,0-2.259-0.386-2.988-1.156C173.668,657.457,173.302,656.387,173.302,655.018z
				 M174.662,654.127h4.484c0-0.818-0.183-1.444-0.548-1.879c-0.365-0.436-0.887-0.652-1.565-0.652
				c-0.688,0-1.237,0.224-1.647,0.672C174.976,652.715,174.735,653.335,174.662,654.127z"/>
			<path fill="#666666" d="M182.279,654.971c0-1.412,0.312-2.508,0.935-3.289c0.622-0.781,1.489-1.172,2.601-1.172
				c1.163,0,2.055,0.422,2.676,1.266h0.102l-0.055-0.617l-0.031-0.602v-3.484h1.297v12.156h-1.055l-0.172-1.148h-0.07
				c-0.6,0.869-1.497,1.305-2.691,1.305c-1.116,0-1.984-0.383-2.604-1.148S182.279,656.382,182.279,654.971z M183.607,654.986
				c0,1.094,0.201,1.919,0.603,2.477c0.401,0.557,0.991,0.836,1.769,0.836c0.887,0,1.529-0.241,1.929-0.723
				c0.399-0.482,0.599-1.26,0.599-2.332v-0.273c0-1.214-0.202-2.08-0.606-2.598c-0.404-0.519-1.05-0.777-1.937-0.777
				c-0.762,0-1.345,0.295-1.749,0.887C183.809,653.073,183.607,653.908,183.607,654.986z"/>
			<path fill="#666666" d="M196.607,648.346c0-0.297,0.067-0.515,0.201-0.652c0.135-0.139,0.303-0.207,0.505-0.207
				c0.225,0,0.418,0.07,0.581,0.211s0.244,0.356,0.244,0.648c0,0.291-0.081,0.509-0.244,0.652c-0.163,0.143-0.356,0.215-0.581,0.215
				c-0.202,0-0.37-0.072-0.505-0.215C196.675,648.854,196.607,648.637,196.607,648.346z M196.717,659.229v-8.563h1.188v8.563
				H196.717z"/>
			<path fill="#666666" d="M200.763,659.229v-8.563h1.055l0.211,1.156h0.063c0.266-0.417,0.638-0.74,1.117-0.969
				c0.479-0.229,1.013-0.344,1.602-0.344c1.031,0,1.808,0.248,2.328,0.746c0.521,0.497,0.781,1.293,0.781,2.387v5.586h-1.297v-5.551
				c0-0.699-0.159-1.221-0.477-1.566c-0.317-0.344-0.815-0.516-1.492-0.516c-0.896,0-1.552,0.242-1.969,0.728
				s-0.625,1.286-0.625,2.403v4.502H200.763z"/>
			<path fill="#666666" d="M208.342,661.83c0.359,0.104,0.714,0.156,1.063,0.156c0.406,0,0.704-0.111,0.895-0.332
				c0.19-0.223,0.285-0.561,0.285-1.014v-9.975h1.297v9.875c0,1.688-0.778,2.531-2.336,2.531c-0.495,0-0.896-0.064-1.203-0.194
				V661.83z M210.474,648.346c0-0.297,0.073-0.515,0.219-0.652c0.146-0.139,0.328-0.207,0.547-0.207c0.238,0,0.443,0.07,0.616,0.211
				s0.259,0.356,0.259,0.648c0,0.291-0.086,0.509-0.259,0.652c-0.173,0.143-0.378,0.215-0.616,0.215
				c-0.219,0-0.401-0.072-0.547-0.215C210.548,648.854,210.474,648.637,210.474,648.346z"/>
			<path fill="#666666" d="M214.537,656.268v-5.602h1.328v5.555c0,0.697,0.158,1.219,0.476,1.563s0.813,0.516,1.489,0.516
				c0.895,0,1.549-0.245,1.962-0.734c0.413-0.49,0.62-1.289,0.62-2.398v-4.5h1.297v8.563h-1.055l-0.2-1.148h-0.073
				c-0.266,0.422-0.633,0.744-1.104,0.969c-0.471,0.223-1.008,0.336-1.61,0.336c-1.046,0-1.829-0.248-2.35-0.742
				C214.797,658.147,214.537,657.355,214.537,656.268z"/>
			<path fill="#666666" d="M224.451,659.229v-8.563h1.055l0.158,1.593h0.067c0.318-0.56,0.701-0.991,1.149-1.294
				c0.448-0.304,0.94-0.455,1.477-0.455c0.38,0,0.722,0.031,1.023,0.094l-0.18,1.211c-0.354-0.078-0.667-0.117-0.938-0.117
				c-0.692,0-1.285,0.281-1.777,0.842c-0.492,0.563-0.738,1.262-0.738,2.1v4.59H224.451z"/>
			<path fill="#666666" d="M230.873,648.346c0-0.297,0.067-0.515,0.201-0.652c0.135-0.139,0.303-0.207,0.505-0.207
				c0.225,0,0.418,0.07,0.581,0.211s0.244,0.356,0.244,0.648c0,0.291-0.081,0.509-0.244,0.652c-0.163,0.143-0.356,0.215-0.581,0.215
				c-0.202,0-0.37-0.072-0.505-0.215C230.94,648.854,230.873,648.637,230.873,648.346z M230.982,659.229v-8.563h1.188v8.563H230.982
				z"/>
			<path fill="#666666" d="M234.552,655.018c0-1.381,0.339-2.477,1.017-3.289s1.587-1.219,2.729-1.219
				c1.069,0,1.916,0.353,2.538,1.059c0.623,0.705,0.935,1.637,0.935,2.793v0.82h-5.891c0.026,1.005,0.28,1.768,0.763,2.289
				c0.483,0.521,1.162,0.781,2.039,0.781c0.919,0,1.827-0.193,2.726-0.578v1.156c-0.457,0.197-0.889,0.34-1.297,0.426
				c-0.407,0.086-0.899,0.129-1.476,0.129c-1.263,0-2.259-0.386-2.988-1.156C234.918,657.457,234.552,656.387,234.552,655.018z
				 M235.912,654.127h4.484c0-0.818-0.183-1.444-0.548-1.879c-0.365-0.436-0.887-0.652-1.565-0.652
				c-0.688,0-1.237,0.224-1.647,0.672C236.226,652.715,235.985,653.335,235.912,654.127z"/>
			<path fill="#666666" d="M243.459,652.77c0-0.699,0.283-1.25,0.851-1.654s1.345-0.605,2.333-0.605
				c0.917,0,1.813,0.188,2.688,0.563l-0.453,1.055c-0.856-0.354-1.633-0.531-2.328-0.531c-0.616,0-1.08,0.096-1.394,0.289
				s-0.47,0.459-0.47,0.799c0,0.23,0.059,0.426,0.176,0.588c0.118,0.162,0.307,0.315,0.568,0.461
				c0.261,0.146,0.762,0.358,1.503,0.635c1.016,0.371,1.698,0.744,2.048,1.119c0.351,0.377,0.525,0.85,0.525,1.418
				c0,0.793-0.295,1.404-0.886,1.835s-1.419,0.646-2.486,0.646c-1.134,0-2.017-0.178-2.651-0.531v-1.197
				c0.41,0.209,0.852,0.373,1.322,0.493c0.47,0.12,0.924,0.181,1.36,0.181c0.679,0,1.2-0.109,1.566-0.326
				c0.365-0.216,0.548-0.546,0.548-0.99c0-0.334-0.145-0.619-0.435-0.857c-0.29-0.237-0.854-0.518-1.695-0.842
				c-0.798-0.297-1.365-0.557-1.699-0.779c-0.334-0.221-0.583-0.473-0.746-0.756C243.541,653.498,243.459,653.162,243.459,652.77z"
				/>
		</g>
	</g>
</g>
</svg>
