<?xml version="1.0" encoding="utf-8"?>
<!-- Generator: Adobe Illustrator 16.0.0, SVG Export Plug-In . SVG Version: 6.00 Build 0)  -->
<!DOCTYPE svg PUBLIC "-//W3C//DTD SVG 1.1//EN" "http://www.w3.org/Graphics/SVG/1.1/DTD/svg11.dtd">
<svg version="1.1" id="Capa_1" xmlns="http://www.w3.org/2000/svg" xmlns:xlink="http://www.w3.org/1999/xlink" x="0px" y="0px"
	 width="291.969px" height="850.394px" viewBox="0 0 291.969 850.394" enable-background="new 0 0 291.969 850.394"
	 xml:space="preserve">
<g id="global-estimates">
	<g>
		<rect x="125.891" y="215.738" fill="#199598" width="100.494" height="122.967"/>
		<rect x="125.891" y="90.674" fill="#DD9B2B" width="100.494" height="125.064"/>
	</g>
	<g>
		<path fill="#666565" d="M65.692,44.349c0-1.549,0.313-2.906,0.935-4.071s1.518-2.055,2.686-2.67
			c1.168-0.615,2.537-0.922,4.106-0.922c1.59,0,3.067,0.292,4.44,0.876l-0.672,1.529c-1.346-0.571-2.641-0.856-3.884-0.856
			c-1.813,0-3.229,0.54-4.249,1.62c-1.019,1.08-1.528,2.578-1.528,4.494c0,2.018,0.491,3.548,1.476,4.591
			c0.979,1.043,2.423,1.564,4.326,1.564c1.03,0,2.042-0.12,3.023-0.358v-4.604h-3.332v-1.549h5.063v7.255
			c-0.788,0.248-1.59,0.436-2.405,0.563c-0.814,0.127-1.76,0.191-2.833,0.191c-2.255,0-4.012-0.67-5.268-2.012
			C66.32,48.647,65.692,46.768,65.692,44.349z"/>
		<path fill="#666565" d="M81.406,51.798V35.942h1.69v15.856H81.406z"/>
		<path fill="#666565" d="M86.063,46.194c0-1.817,0.454-3.233,1.36-4.247c0.908-1.014,2.167-1.521,3.78-1.521
			c1.558,0,2.795,0.519,3.713,1.556c0.917,1.038,1.376,2.441,1.376,4.211c0,1.824-0.457,3.248-1.372,4.272
			c-0.915,1.024-2.178,1.536-3.79,1.536c-0.996,0-1.88-0.234-2.651-0.704c-0.771-0.47-1.368-1.144-1.788-2.021
			S86.063,47.371,86.063,46.194z M87.795,46.194c0,1.43,0.286,2.52,0.854,3.269c0.572,0.749,1.412,1.124,2.521,1.124
			c1.107,0,1.951-0.373,2.524-1.119c0.574-0.746,0.861-1.837,0.861-3.273c0-1.423-0.288-2.504-0.861-3.243
			c-0.572-0.739-1.425-1.108-2.547-1.108c-1.106,0-1.943,0.364-2.51,1.093C88.077,43.664,87.795,44.75,87.795,46.194z"/>
		<path fill="#666565" d="M99.29,51.798V35.942h1.688v3.852c0,0.863-0.024,1.637-0.082,2.323h0.082
			c0.788-1.114,1.957-1.671,3.506-1.671c1.46,0,2.598,0.501,3.402,1.503c0.813,1.002,1.213,2.42,1.213,4.254
			s-0.407,3.259-1.223,4.274c-0.814,1.016-1.945,1.523-3.396,1.523c-0.728,0-1.392-0.134-1.989-0.402
			c-0.604-0.268-1.106-0.681-1.517-1.238h-0.121l-0.354,1.437L99.29,51.798L99.29,51.798z M100.981,46.204
			c0,1.569,0.265,2.692,0.785,3.368c0.522,0.676,1.361,1.014,2.52,1.014c1.04,0,1.813-0.379,2.32-1.136
			c0.513-0.758,0.768-1.846,0.768-3.266c0-1.454-0.255-2.538-0.768-3.251c-0.51-0.713-1.297-1.07-2.361-1.07
			c-1.155,0-1.987,0.331-2.497,0.994C101.236,43.518,100.981,44.635,100.981,46.204z"/>
		<path fill="#666565" d="M111.243,48.722c0-2.25,1.806-3.429,5.418-3.537l1.896-0.062v-0.702c0-0.887-0.188-1.542-0.563-1.965
			s-0.979-0.634-1.809-0.634c-0.93,0-1.979,0.289-3.15,0.866l-0.526-1.298c0.551-0.294,1.153-0.525,1.81-0.692
			c0.657-0.167,1.313-0.251,1.975-0.251c1.33,0,2.313,0.295,2.957,0.887c0.641,0.591,0.962,1.539,0.962,2.843v7.622h-1.253
			l-0.336-1.571h-0.082c-0.559,0.693-1.11,1.162-1.663,1.407c-0.552,0.246-1.242,0.368-2.07,0.368c-1.111,0-1.981-0.284-2.615-0.853
			C111.558,50.58,111.243,49.771,111.243,48.722z M113.036,48.742c0,0.615,0.185,1.082,0.554,1.403
			c0.37,0.321,0.888,0.481,1.552,0.481c1.051,0,1.876-0.29,2.479-0.87c0.6-0.581,0.897-1.393,0.897-2.437v-1.014l-1.688,0.071
			c-1.346,0.048-2.313,0.258-2.904,0.63C113.333,47.378,113.036,47.957,113.036,48.742z"/>
		<path fill="#666565" d="M123.685,51.798V35.942h1.69v15.856H123.685z"/>
		<path fill="#666565" d="M133.762,46.305c0-1.8,0.442-3.23,1.326-4.29c0.885-1.06,2.071-1.589,3.563-1.589
			c1.396,0,2.498,0.46,3.313,1.38c0.813,0.921,1.222,2.135,1.222,3.643v1.07h-7.687c0.033,1.311,0.362,2.306,0.995,2.985
			c0.629,0.68,1.516,1.019,2.653,1.019c1.199,0,2.39-0.251,3.562-0.754v1.508c-0.603,0.258-1.16,0.443-1.689,0.555
			c-0.535,0.112-1.178,0.168-1.93,0.168c-1.646,0-2.944-0.502-3.897-1.508C134.239,49.489,133.762,48.093,133.762,46.305z
			 M135.536,45.144h5.849c0-1.066-0.236-1.883-0.714-2.451c-0.479-0.567-1.157-0.851-2.042-0.851c-0.896,0-1.615,0.292-2.148,0.876
			C135.945,43.303,135.631,44.111,135.536,45.144z"/>
		<path fill="#666565" d="M145.38,43.374c0-0.911,0.37-1.63,1.105-2.158c0.74-0.527,1.758-0.791,3.048-0.791
			c1.192,0,2.36,0.244,3.504,0.733l-0.593,1.377c-1.114-0.463-2.131-0.695-3.034-0.695c-0.806,0-1.409,0.126-1.818,0.378
			c-0.406,0.251-0.611,0.599-0.611,1.042c0,0.3,0.076,0.555,0.229,0.766c0.15,0.211,0.396,0.412,0.741,0.603
			c0.34,0.191,0.991,0.467,1.96,0.828c1.32,0.483,2.215,0.97,2.671,1.46c0.457,0.49,0.686,1.105,0.686,1.849
			c0,1.034-0.386,1.832-1.148,2.393C151.341,51.72,150.26,52,148.868,52c-1.479,0-2.635-0.23-3.458-0.693v-1.559
			c0.532,0.272,1.106,0.487,1.724,0.644c0.614,0.157,1.206,0.235,1.775,0.235c0.885,0,1.563-0.141,2.042-0.424
			c0.477-0.283,0.715-0.713,0.715-1.292c0-0.436-0.188-0.809-0.566-1.119c-0.377-0.31-1.115-0.676-2.211-1.098
			c-1.043-0.388-1.781-0.727-2.218-1.017c-0.438-0.29-0.76-0.618-0.977-0.986C145.486,44.324,145.38,43.885,145.38,43.374z"/>
		<path fill="#666565" d="M154.57,41.944v-0.815l1.604-0.703l0.713-2.385h0.979v2.588h3.239v1.314h-3.239v6.588
			c0,0.674,0.159,1.191,0.479,1.552s0.758,0.542,1.313,0.542c0.3,0,0.588-0.022,0.863-0.066c0.274-0.044,0.5-0.09,0.662-0.138v1.278
			c-0.187,0.087-0.453,0.159-0.813,0.216c-0.354,0.057-0.678,0.085-0.96,0.085c-2.16,0-3.241-1.138-3.241-3.414v-6.644h-1.602
			L154.57,41.944L154.57,41.944z"/>
		<path fill="#666565" d="M163.273,37.603c0-0.387,0.088-0.671,0.267-0.851c0.175-0.18,0.395-0.27,0.655-0.27
			c0.293,0,0.548,0.092,0.761,0.275c0.212,0.184,0.315,0.466,0.315,0.846s-0.104,0.664-0.315,0.851s-0.468,0.28-0.761,0.28
			c-0.264,0-0.479-0.093-0.655-0.28C163.361,38.267,163.273,37.984,163.273,37.603z M163.417,51.798V40.63h1.549v11.168H163.417z"/>
		<path fill="#666565" d="M168.695,51.798V40.63h1.375l0.271,1.509h0.082c0.319-0.537,0.771-0.957,1.354-1.259
			c0.58-0.302,1.229-0.453,1.951-0.453c1.746,0,2.891,0.625,3.424,1.876h0.082c0.334-0.579,0.813-1.036,1.447-1.372
			c0.633-0.336,1.354-0.504,2.157-0.504c1.267,0,2.209,0.324,2.841,0.973c0.629,0.648,0.939,1.687,0.939,3.113v7.286h-1.688v-7.281
			c0-0.892-0.188-1.561-0.57-2.006c-0.381-0.445-0.973-0.669-1.771-0.669c-1.053,0-1.831,0.303-2.333,0.909
			c-0.503,0.605-0.754,1.538-0.754,2.798v6.249h-1.69v-7.281c0-0.892-0.188-1.561-0.564-2.006c-0.387-0.445-0.979-0.669-1.783-0.669
			c-1.063,0-1.836,0.318-2.329,0.955c-0.488,0.637-0.736,1.68-0.736,3.13v5.871L168.695,51.798L168.695,51.798z"/>
		<path fill="#666565" d="M187.271,48.722c0-2.25,1.81-3.429,5.418-3.537l1.896-0.062v-0.702c0-0.887-0.188-1.542-0.563-1.965
			s-0.979-0.634-1.808-0.634c-0.929,0-1.979,0.289-3.151,0.866l-0.521-1.298c0.55-0.294,1.147-0.525,1.811-0.692
			c0.655-0.167,1.313-0.251,1.976-0.251c1.327,0,2.313,0.295,2.955,0.887c0.645,0.591,0.966,1.539,0.966,2.843v7.622h-1.255
			l-0.339-1.571h-0.081c-0.558,0.693-1.106,1.162-1.659,1.407c-0.557,0.246-1.242,0.368-2.07,0.368c-1.11,0-1.981-0.284-2.614-0.853
			C187.588,50.58,187.271,49.771,187.271,48.722z M189.066,48.742c0,0.615,0.188,1.082,0.557,1.403
			c0.367,0.321,0.887,0.481,1.551,0.481c1.052,0,1.876-0.29,2.478-0.87c0.604-0.581,0.899-1.393,0.899-2.437v-1.014l-1.688,0.071
			c-1.342,0.048-2.312,0.258-2.897,0.63C189.363,47.378,189.066,47.957,189.066,48.742z"/>
		<path fill="#666565" d="M198.236,41.944v-0.815l1.603-0.703l0.713-2.385h0.979v2.588h3.24v1.314h-3.24v6.588
			c0,0.674,0.16,1.191,0.479,1.552s0.757,0.542,1.313,0.542c0.303,0,0.591-0.022,0.867-0.066c0.273-0.044,0.498-0.09,0.662-0.138
			v1.278c-0.188,0.087-0.453,0.159-0.813,0.216c-0.354,0.057-0.684,0.085-0.963,0.085c-2.16,0-3.241-1.138-3.241-3.414v-6.644
			h-1.604v0.002H198.236z"/>
		<path fill="#666565" d="M206.46,46.305c0-1.8,0.439-3.23,1.326-4.29c0.884-1.06,2.068-1.589,3.562-1.589
			c1.396,0,2.498,0.46,3.313,1.38c0.813,0.921,1.219,2.135,1.219,3.643v1.07h-7.688c0.035,1.311,0.367,2.306,0.996,2.985
			c0.629,0.68,1.521,1.019,2.658,1.019c1.197,0,2.385-0.251,3.557-0.754v1.508c-0.598,0.258-1.155,0.443-1.688,0.555
			C213.18,51.944,212.539,52,211.787,52c-1.646,0-2.946-0.502-3.898-1.508C206.936,49.489,206.46,48.093,206.46,46.305z
			 M208.232,45.144h5.853c0-1.066-0.238-1.883-0.714-2.451c-0.479-0.567-1.157-0.851-2.042-0.851c-0.898,0-1.615,0.292-2.149,0.876
			C208.643,43.303,208.328,44.111,208.232,45.144z"/>
		<path fill="#666565" d="M218.077,43.374c0-0.911,0.367-1.63,1.105-2.158c0.736-0.527,1.754-0.791,3.045-0.791
			c1.19,0,2.358,0.244,3.504,0.733l-0.59,1.377c-1.117-0.463-2.131-0.695-3.037-0.695c-0.805,0-1.41,0.126-1.815,0.378
			c-0.408,0.251-0.611,0.599-0.611,1.042c0,0.3,0.076,0.555,0.229,0.766c0.15,0.211,0.396,0.412,0.736,0.603
			c0.34,0.191,0.994,0.467,1.961,0.828c1.322,0.483,2.217,0.97,2.67,1.46c0.457,0.49,0.688,1.105,0.688,1.849
			c0,1.034-0.385,1.832-1.153,2.393C224.038,51.72,222.957,52,221.564,52c-1.479,0-2.631-0.23-3.457-0.693v-1.559
			c0.535,0.272,1.105,0.487,1.727,0.644c0.611,0.157,1.206,0.235,1.771,0.235c0.889,0,1.563-0.141,2.043-0.424
			c0.479-0.283,0.715-0.713,0.715-1.292c0-0.436-0.188-0.809-0.564-1.119s-1.114-0.676-2.211-1.098
			c-1.042-0.388-1.78-0.727-2.217-1.017c-0.438-0.29-0.764-0.618-0.977-0.986C218.184,44.324,218.077,43.885,218.077,43.374z"/>
	</g>
	<g>
		<path fill="#9A999E" d="M37.308,95.938v-1.199l3.271-3.299c0.996-1.012,1.65-1.734,1.97-2.166s0.556-0.853,0.713-1.262
			c0.159-0.409,0.238-0.85,0.238-1.321c0-0.665-0.201-1.192-0.604-1.582c-0.399-0.39-0.96-0.584-1.674-0.584
			c-0.516,0-1.004,0.085-1.465,0.256c-0.462,0.17-0.979,0.479-1.542,0.93l-0.747-0.964c1.144-0.935,2.39-1.402,3.736-1.402
			c1.166,0,2.081,0.297,2.74,0.891c0.663,0.594,0.994,1.393,0.994,2.396c0,0.79-0.222,1.572-0.663,2.345
			c-0.438,0.773-1.269,1.751-2.479,2.934L39.08,94.58v0.068h6.386v1.291L37.308,95.938L37.308,95.938z"/>
		<path fill="#9A999E" d="M51.88,95.938v-1.199l3.271-3.299c0.996-1.012,1.652-1.734,1.973-2.166
			c0.314-0.432,0.555-0.853,0.713-1.262c0.159-0.409,0.235-0.85,0.235-1.321c0-0.665-0.198-1.192-0.604-1.582
			c-0.401-0.39-0.96-0.584-1.673-0.584c-0.519,0-1.004,0.085-1.465,0.256c-0.462,0.17-0.979,0.479-1.542,0.93l-0.747-0.964
			c1.144-0.935,2.389-1.402,3.733-1.402c1.166,0,2.081,0.297,2.743,0.891c0.663,0.594,0.993,1.393,0.993,2.396
			c0,0.79-0.221,1.572-0.662,2.345c-0.438,0.773-1.269,1.751-2.479,2.934l-2.72,2.669v0.068h6.389v1.291L51.88,95.938L51.88,95.938z
			"/>
		<path fill="#9A999E" d="M61.841,89.71c0-2.161,0.338-3.765,1.015-4.813c0.679-1.046,1.707-1.57,3.095-1.57
			c1.346,0,2.365,0.546,3.063,1.638c0.699,1.092,1.049,2.673,1.049,4.744c0,2.147-0.339,3.75-1.015,4.81s-1.709,1.589-3.104,1.589
			c-1.34,0-2.357-0.542-3.059-1.627C62.191,93.396,61.841,91.806,61.841,89.71z M63.285,89.71c0,1.802,0.212,3.113,0.636,3.935
			s1.1,1.232,2.023,1.232c0.938,0,1.618-0.417,2.039-1.25c0.424-0.833,0.635-2.139,0.635-3.918c0-1.778-0.21-3.082-0.635-3.909
			c-0.421-0.827-1.102-1.241-2.039-1.241c-0.927,0-1.604,0.408-2.023,1.224C63.497,86.6,63.285,87.908,63.285,89.71z"/>
		<path fill="#9A999E" d="M71.913,90.636c0-2.441,0.474-4.267,1.422-5.476s2.352-1.814,4.208-1.814c0.643,0,1.146,0.054,1.518,0.161
			v1.231c-0.438-0.164-0.938-0.247-1.5-0.247c-1.331,0-2.348,0.417-3.049,1.249c-0.701,0.833-1.087,2.141-1.154,3.924h0.104
			c0.623-0.963,1.605-1.445,2.955-1.445c1.121,0,2.003,0.336,2.646,1.008c0.646,0.672,0.972,1.584,0.972,2.736
			c0,1.288-0.354,2.301-1.063,3.039c-0.708,0.738-1.665,1.106-2.869,1.106c-1.285,0-2.305-0.482-3.058-1.447
			C72.29,93.696,71.913,92.354,71.913,90.636z M73.356,91.649c0,0.585,0.112,1.13,0.34,1.636c0.229,0.506,0.551,0.906,0.967,1.201
			c0.416,0.295,0.89,0.442,1.422,0.442c0.804,0,1.428-0.254,1.873-0.762c0.441-0.508,0.667-1.242,0.667-2.202
			c0-0.823-0.207-1.471-0.62-1.942c-0.413-0.472-1.03-0.707-1.854-0.707c-0.509,0-0.978,0.105-1.398,0.315s-0.766,0.5-1.018,0.869
			C73.482,90.868,73.356,91.252,73.356,91.649z"/>
		<g>
			<path fill="#9A999E" d="M47.523,97.486c0.105-0.406,0.225-0.908,0.352-1.506s0.216-1.076,0.267-1.436h1.06l0.087,0.135
				c-0.104,0.391-0.247,0.845-0.438,1.362c-0.188,0.517-0.389,0.999-0.595,1.444L47.523,97.486L47.523,97.486z"/>
		</g>
	</g>
	<g>
		<path fill="#9A999E" d="M71.785,332.476c0-2.161,0.338-3.765,1.014-4.812c0.677-1.047,1.707-1.57,3.093-1.57
			c1.346,0,2.367,0.546,3.065,1.638c0.696,1.093,1.048,2.673,1.048,4.744c0,2.147-0.338,3.75-1.014,4.81
			c-0.679,1.061-1.709,1.59-3.104,1.59c-1.34,0-2.359-0.543-3.058-1.627C72.134,336.162,71.785,334.572,71.785,332.476z
			 M73.229,332.476c0,1.802,0.212,3.113,0.639,3.935c0.424,0.822,1.099,1.232,2.023,1.232c0.938,0,1.617-0.417,2.038-1.25
			c0.422-0.833,0.633-2.139,0.633-3.918c0-1.777-0.21-3.082-0.633-3.908c-0.421-0.828-1.101-1.242-2.038-1.242
			c-0.928,0-1.604,0.408-2.023,1.225C73.441,329.365,73.229,330.675,73.229,332.476z"/>
	</g>
	<g>
		<path fill="#FFFFFF" d="M157.959,277.222h-3.148v-8.621l0.03-1.417l0.052-1.549c-0.521,0.523-0.888,0.866-1.09,1.029l-1.713,1.375
			l-1.521-1.896l4.804-3.821h2.588L157.959,277.222L157.959,277.222z"/>
		<path fill="#FFFFFF" d="M175.822,277.222h-3.146v-8.621l0.031-1.417l0.051-1.549c-0.522,0.523-0.887,0.866-1.09,1.029
			l-1.712,1.375l-1.521-1.896l4.801-3.821h2.588L175.822,277.222L175.822,277.222z"/>
		<path fill="#FFFFFF" d="M190.282,269.772c0,2.603-0.43,4.528-1.279,5.778c-0.854,1.25-2.166,1.875-3.938,1.875
			c-1.719,0-3.016-0.645-3.889-1.936s-1.31-3.196-1.31-5.718c0-2.629,0.425-4.567,1.271-5.813s2.152-1.87,3.922-1.87
			c1.721,0,3.021,0.652,3.896,1.957C189.842,265.35,190.282,267.26,190.282,269.772z M182.996,269.772
			c0,1.828,0.155,3.138,0.475,3.929c0.315,0.793,0.848,1.188,1.596,1.188c0.731,0,1.27-0.4,1.588-1.203
			c0.326-0.801,0.49-2.105,0.49-3.913c0-1.827-0.166-3.14-0.494-3.938c-0.33-0.798-0.854-1.197-1.584-1.197
			c-0.735,0-1.271,0.399-1.59,1.197C183.156,266.633,182.996,267.945,182.996,269.772z"/>
		<path fill="#FFFFFF" d="M202.275,277.222h-10.414v-2.19l3.74-3.781c1.104-1.135,1.83-1.92,2.17-2.359
			c0.34-0.438,0.584-0.844,0.729-1.218c0.145-0.374,0.228-0.761,0.228-1.162c0-0.599-0.164-1.042-0.494-1.335
			c-0.33-0.292-0.771-0.438-1.315-0.438c-0.578,0-1.142,0.131-1.685,0.396c-0.543,0.266-1.108,0.643-1.699,1.131l-1.715-2.027
			c0.729-0.625,1.344-1.066,1.824-1.326c0.479-0.258,1.008-0.457,1.58-0.596c0.566-0.139,1.209-0.209,1.916-0.209
			c0.93,0,1.752,0.17,2.465,0.51c0.715,0.341,1.271,0.815,1.662,1.428c0.396,0.611,0.59,1.311,0.59,2.099
			c0,0.687-0.121,1.33-0.357,1.931c-0.242,0.602-0.615,1.218-1.121,1.85c-0.506,0.632-1.397,1.531-2.675,2.701l-1.916,1.804v0.144
			h6.487V277.222L202.275,277.222z"/>
		<g>
			<path fill="#FFFFFF" d="M163.615,279.285c0.141-0.542,0.295-1.211,0.465-2.008c0.169-0.797,0.287-1.435,0.354-1.914h1.414
				l0.115,0.18c-0.135,0.521-0.328,1.126-0.583,1.816c-0.254,0.69-0.521,1.332-0.793,1.926H163.615z"/>
		</g>
	</g>
	<g>
		<path fill="#FFFFFF" d="M157.959,161.455h-3.148v-8.62l0.03-1.417l0.052-1.549c-0.521,0.523-0.888,0.866-1.09,1.029l-1.713,1.375
			l-1.521-1.895l4.804-3.821h2.588L157.959,161.455L157.959,161.455z"/>
		<path fill="#FFFFFF" d="M175.822,161.455h-3.146v-8.62l0.031-1.417l0.051-1.549c-0.522,0.523-0.887,0.866-1.09,1.029l-1.712,1.375
			l-1.521-1.895l4.801-3.821h2.588L175.822,161.455L175.822,161.455z"/>
		<path fill="#FFFFFF" d="M190.282,154.007c0,2.603-0.43,4.528-1.279,5.778c-0.854,1.25-2.166,1.875-3.938,1.875
			c-1.719,0-3.016-0.646-3.889-1.937s-1.31-3.196-1.31-5.717c0-2.629,0.425-4.567,1.271-5.813c0.848-1.246,2.152-1.87,3.922-1.87
			c1.721,0,3.021,0.652,3.896,1.957C189.842,149.585,190.282,151.494,190.282,154.007z M182.996,154.007
			c0,1.828,0.155,3.137,0.475,3.929c0.315,0.792,0.848,1.188,1.596,1.188c0.731,0,1.27-0.401,1.588-1.203
			c0.326-0.801,0.49-2.106,0.49-3.913c0-1.827-0.166-3.14-0.494-3.938c-0.33-0.798-0.854-1.197-1.584-1.197
			c-0.735,0-1.271,0.399-1.59,1.197C183.156,150.867,182.996,152.18,182.996,154.007z"/>
		<path fill="#FFFFFF" d="M202.611,158.369h-1.793v3.086h-3.074v-3.086h-6.359v-2.191l6.532-9.62h2.901v9.365h1.793V158.369
			L202.611,158.369z M197.741,155.923v-2.527c0-0.421,0.017-1.033,0.051-1.834c0.034-0.802,0.063-1.267,0.082-1.396h-0.082
			c-0.251,0.557-0.557,1.101-0.907,1.631l-2.73,4.127L197.741,155.923L197.741,155.923z"/>
		<g>
			<path fill="#FFFFFF" d="M163.615,163.723c0.141-0.542,0.295-1.211,0.465-2.008c0.169-0.797,0.287-1.435,0.354-1.914h1.414
				l0.115,0.18c-0.135,0.521-0.328,1.126-0.583,1.816c-0.254,0.69-0.521,1.332-0.793,1.926H163.615z"/>
		</g>
	</g>
	<g>
		<path fill="#87868A" d="M64.418,231.379H49.52v-4.208c0-1.978,0.295-3.407,0.885-4.29c0.594-0.885,1.522-1.325,2.802-1.325
			c0.883,0,1.608,0.246,2.186,0.739c0.573,0.492,0.945,1.211,1.115,2.154h0.104c0.391-2.248,1.578-3.373,3.57-3.373
			c1.332,0,2.371,0.449,3.118,1.349c0.748,0.897,1.121,2.153,1.121,3.769L64.418,231.379L64.418,231.379z M55.887,229.646v-2.853
			c0-1.224-0.19-2.103-0.573-2.64c-0.384-0.537-1.025-0.806-1.938-0.806c-0.834,0-1.438,0.299-1.808,0.896
			c-0.366,0.598-0.555,1.55-0.555,2.854v2.547L55.887,229.646L55.887,229.646z M62.94,229.646v-3.107
			c0-1.201-0.229-2.106-0.695-2.715c-0.468-0.608-1.193-0.912-2.188-0.912c-0.924,0-1.604,0.311-2.037,0.933
			c-0.436,0.621-0.649,1.567-0.649,2.838v2.965L62.94,229.646L62.94,229.646z"/>
		<path fill="#87868A" d="M50.222,218.254c-0.388,0-0.671-0.087-0.852-0.264c-0.183-0.176-0.271-0.396-0.271-0.657
			c0-0.294,0.092-0.546,0.273-0.759c0.185-0.211,0.466-0.317,0.847-0.317s0.664,0.106,0.852,0.317
			c0.188,0.213,0.28,0.465,0.28,0.759c0,0.264-0.095,0.481-0.28,0.657C50.886,218.167,50.603,218.254,50.222,218.254z
			 M64.418,218.111H53.25v-1.549h11.168V218.111z"/>
		<path fill="#87868A" d="M64.418,212.833H48.562v-1.691h15.854L64.418,212.833L64.418,212.833z"/>
		<path fill="#87868A" d="M64.418,207.555H48.562v-1.691h15.854L64.418,207.555L64.418,207.555z"/>
		<path fill="#87868A" d="M50.222,202.419c-0.388,0-0.671-0.089-0.852-0.265c-0.183-0.175-0.271-0.395-0.271-0.656
			c0-0.293,0.092-0.547,0.273-0.758c0.185-0.213,0.466-0.318,0.847-0.318s0.664,0.105,0.852,0.318
			c0.188,0.211,0.28,0.465,0.28,0.758c0,0.263-0.095,0.481-0.28,0.656C50.886,202.33,50.603,202.419,50.222,202.419z
			 M64.418,202.277H53.25v-1.55h11.168V202.277z"/>
		<path fill="#87868A" d="M58.813,197.619c-1.814,0-3.229-0.455-4.247-1.361c-1.015-0.908-1.521-2.168-1.521-3.78
			c0-1.558,0.52-2.795,1.558-3.713c1.036-0.918,2.44-1.377,4.211-1.377c1.823,0,3.248,0.457,4.271,1.372
			c1.021,0.914,1.536,2.178,1.536,3.789c0,0.996-0.234,1.88-0.704,2.652c-0.473,0.771-1.146,1.367-2.021,1.787
			C61.019,197.408,59.991,197.619,58.813,197.619z M58.813,195.887c1.433,0,2.521-0.286,3.271-0.854
			c0.749-0.57,1.124-1.412,1.124-2.521c0-1.109-0.373-1.951-1.119-2.526c-0.745-0.574-1.837-0.861-3.272-0.861
			c-1.423,0-2.504,0.287-3.242,0.861c-0.736,0.575-1.106,1.424-1.106,2.547c0,1.108,0.364,1.945,1.095,2.51
			C56.284,195.604,57.37,195.887,58.813,195.887z"/>
		<path fill="#87868A" d="M64.418,184.393H53.25v-1.376l1.509-0.274v-0.082c-0.544-0.347-0.966-0.832-1.265-1.457
			c-0.302-0.625-0.448-1.32-0.448-2.088c0-1.347,0.324-2.357,0.975-3.037c0.647-0.681,1.688-1.021,3.111-1.021h7.286v1.692h-7.239
			c-0.911,0-1.593,0.207-2.042,0.621c-0.448,0.414-0.675,1.063-0.675,1.945c0,1.17,0.314,2.024,0.95,2.568
			c0.633,0.543,1.678,0.814,3.135,0.814h5.871V184.393z"/>
		<path fill="#87868A" d="M59.26,167.337h-1.313v-1.528l-0.428,0.021h-0.448l-0.813-0.021v1.528h-1.313v-1.652
			c-1.771-0.265-3.152-0.894-4.146-1.885c-0.992-0.992-1.487-2.292-1.487-3.902c0-1.365,0.334-2.608,1.002-3.729l1.42,0.724
			c-0.582,1.128-0.872,2.13-0.872,3.006c0,2.167,1.36,3.519,4.086,4.055v-5.195h1.313v5.319l0.581,0.021h0.652l0.458-0.021v-4.698
			h1.313v4.554c1.229-0.251,2.182-0.721,2.854-1.41c0.672-0.689,1.009-1.611,1.009-2.767c0-1.06-0.229-2.109-0.676-3.148h1.521
			c0.438,0.992,0.653,2.068,0.653,3.23c0,1.609-0.457,2.905-1.371,3.887c-0.913,0.981-2.243,1.628-3.989,1.94v1.671H59.26z"/>
	</g>
	
		<line fill="none" stroke="#666565" stroke-width="0.25" stroke-miterlimit="10" x1="95.676" y1="90.674" x2="95.676" y2="338.705"/>
	
		<line fill="none" stroke="#666565" stroke-width="0.25" stroke-miterlimit="10" x1="226.385" y1="338.705" x2="81.956" y2="338.705"/>
	
		<line fill="none" stroke="#666565" stroke-width="0.25" stroke-miterlimit="10" x1="226.385" y1="90.674" x2="81.956" y2="90.674"/>
</g>
<g id="EU28-estimates">
	<g>
		<rect x="125.886" y="586.964" fill="#199598" width="100.497" height="118.787"/>
		<rect x="125.886" y="457.769" fill="#DD9B2B" width="100.497" height="129.195"/>
	</g>
	<g>
		<path fill="#9A999E" d="M48.406,460.14v-1.24l5.896-8.398h1.495v8.348h1.855v1.291h-1.855v2.854h-1.334v-2.854H48.406
			L48.406,460.14z M49.832,458.849h4.629v-4.127c0-0.811,0.024-1.725,0.085-2.744h-0.067c-0.271,0.549-0.523,0.994-0.765,1.355
			L49.832,458.849z"/>
		<path fill="#9A999E" d="M58.351,460.14v-1.24l5.896-8.398h1.492v8.348h1.859v1.291h-1.859v2.854h-1.333v-2.854H58.351
			L58.351,460.14z M59.776,458.849h4.629v-4.127c0-0.811,0.027-1.725,0.084-2.744h-0.063c-0.271,0.549-0.526,0.994-0.766,1.355
			L59.776,458.849z"/>
		<path fill="#9A999E" d="M68.939,457.681c0-2.438,0.478-4.266,1.423-5.475c0.948-1.209,2.354-1.814,4.208-1.814
			c0.646,0,1.147,0.059,1.521,0.16v1.232c-0.438-0.164-0.938-0.248-1.5-0.248c-1.33,0-2.348,0.418-3.05,1.25
			s-1.087,2.141-1.153,3.924h0.102c0.623-0.963,1.607-1.445,2.955-1.445c1.12,0,2.004,0.336,2.649,1.012
			c0.645,0.672,0.968,1.584,0.968,2.732c0,1.287-0.354,2.301-1.063,3.039s-1.664,1.105-2.87,1.105c-1.284,0-2.307-0.482-3.06-1.447
			S68.939,459.4,68.939,457.681z M70.384,458.695c0,0.586,0.112,1.131,0.339,1.637c0.229,0.504,0.548,0.906,0.964,1.201
			c0.417,0.295,0.894,0.438,1.423,0.438c0.807,0,1.431-0.254,1.872-0.762c0.444-0.51,0.667-1.242,0.667-2.203
			c0-0.822-0.207-1.471-0.62-1.938c-0.41-0.475-1.027-0.705-1.851-0.705c-0.511,0-0.978,0.104-1.401,0.313
			c-0.425,0.209-0.764,0.5-1.015,0.869C70.51,457.914,70.384,458.298,70.384,458.695z"/>
	</g>
	<g>
		<path fill="#9A999E" d="M68.812,699.521c0-2.156,0.338-3.766,1.017-4.813c0.676-1.047,1.706-1.57,3.092-1.57
			c1.348,0,2.368,0.547,3.064,1.643c0.698,1.094,1.05,2.674,1.05,4.74c0,2.146-0.341,3.75-1.017,4.813
			c-0.676,1.061-1.709,1.59-3.102,1.59c-1.34,0-2.358-0.543-3.061-1.627C69.16,703.208,68.812,701.619,68.812,699.521z
			 M70.256,699.521c0,1.807,0.212,3.113,0.636,3.938c0.424,0.822,1.103,1.232,2.025,1.232c0.938,0,1.618-0.42,2.039-1.25
			c0.421-0.834,0.633-2.143,0.633-3.92c0-1.775-0.212-3.08-0.633-3.906c-0.421-0.828-1.104-1.242-2.039-1.242
			c-0.927,0-1.604,0.408-2.025,1.225C70.468,696.412,70.256,697.72,70.256,699.521z"/>
	</g>
	<g>
		<path fill="#FFFFFF" d="M168.705,644.267h-10.414v-2.188l3.735-3.781c1.107-1.135,1.832-1.92,2.175-2.354
			c0.34-0.439,0.584-0.854,0.729-1.227c0.146-0.375,0.229-0.762,0.229-1.162c0-0.6-0.165-1.041-0.494-1.336
			c-0.329-0.291-0.771-0.438-1.319-0.438c-0.576,0-1.139,0.131-1.682,0.396c-0.544,0.27-1.109,0.646-1.701,1.135l-1.713-2.027
			c0.729-0.625,1.343-1.066,1.824-1.326c0.479-0.258,1.009-0.457,1.575-0.596c0.57-0.143,1.209-0.209,1.916-0.209
			c0.935,0,1.754,0.17,2.47,0.51c0.714,0.342,1.268,0.816,1.657,1.428c0.396,0.611,0.595,1.314,0.595,2.105
			c0,0.688-0.12,1.328-0.359,1.932c-0.242,0.605-0.615,1.221-1.121,1.854c-0.507,0.633-1.396,1.527-2.676,2.697l-1.916,1.809v0.145
			h6.49V644.267L168.705,644.267z"/>
		<path fill="#FFFFFF" d="M177.988,644.267h-3.146v-8.615l0.03-1.418l0.052-1.553c-0.523,0.523-0.888,0.865-1.092,1.029
			l-1.712,1.375l-1.521-1.896l4.799-3.82h2.59V644.267L177.988,644.267z"/>
		<path fill="#FFFFFF" d="M192.866,641.181h-1.797v3.086h-3.073v-3.086h-6.357v-2.188l6.531-9.619h2.899v9.363h1.797V641.181
			L192.866,641.181z M187.996,638.734v-2.525c0-0.422,0.018-1.033,0.052-1.834c0.032-0.803,0.062-1.268,0.081-1.395h-0.081
			c-0.253,0.561-0.555,1.104-0.907,1.635l-2.729,4.127L187.996,638.734L187.996,638.734z"/>
	</g>
	<g>
		<path fill="#FFFFFF" d="M168.705,528.501h-10.414v-2.191l3.735-3.775c1.107-1.139,1.832-1.92,2.175-2.359
			c0.34-0.438,0.584-0.844,0.729-1.219c0.146-0.373,0.229-0.76,0.229-1.162c0-0.598-0.165-1.041-0.494-1.334
			s-0.771-0.438-1.319-0.438c-0.576,0-1.139,0.135-1.682,0.396c-0.544,0.264-1.109,0.643-1.701,1.131l-1.713-2.027
			c0.729-0.625,1.343-1.064,1.824-1.322c0.479-0.26,1.009-0.457,1.575-0.6c0.57-0.139,1.209-0.209,1.916-0.209
			c0.935,0,1.754,0.17,2.47,0.514c0.714,0.34,1.268,0.813,1.657,1.428c0.396,0.609,0.595,1.313,0.595,2.1
			c0,0.689-0.12,1.33-0.359,1.938c-0.242,0.604-0.615,1.219-1.121,1.852c-0.507,0.631-1.396,1.531-2.676,2.701l-1.916,1.803v0.146
			h6.49V528.501L168.705,528.501z"/>
		<path fill="#FFFFFF" d="M180.036,516.935c0,0.936-0.282,1.727-0.85,2.375c-0.563,0.652-1.354,1.105-2.373,1.35v0.063
			c1.201,0.148,2.111,0.521,2.729,1.104c0.617,0.58,0.93,1.355,0.93,2.35c0,1.434-0.521,2.549-1.563,3.348
			c-1.039,0.799-2.521,1.197-4.453,1.197c-1.613,0-3.051-0.27-4.301-0.807v-2.688c0.573,0.291,1.214,0.529,1.901,0.719
			c0.691,0.188,1.379,0.27,2.063,0.27c1.039,0,1.809-0.176,2.305-0.529c0.495-0.352,0.743-0.92,0.743-1.697
			c0-0.697-0.284-1.193-0.854-1.484c-0.565-0.293-1.479-0.438-2.729-0.438h-1.131v-2.416h1.146c1.153,0,2-0.146,2.533-0.451
			c0.531-0.305,0.799-0.816,0.799-1.557c0-1.127-0.707-1.688-2.119-1.688c-0.483,0-0.981,0.082-1.487,0.244
			c-0.511,0.162-1.067,0.441-1.688,0.85l-1.457-2.17c1.355-0.98,2.979-1.473,4.857-1.473c1.542,0,2.762,0.313,3.647,0.938
			C179.591,514.953,180.036,515.822,180.036,516.935z"/>
		<path fill="#FFFFFF" d="M192.529,528.501h-10.41v-2.191l3.736-3.775c1.104-1.139,1.83-1.92,2.17-2.359
			c0.344-0.438,0.584-0.844,0.73-1.219c0.146-0.373,0.229-0.76,0.229-1.162c0-0.598-0.166-1.041-0.491-1.334
			c-0.33-0.293-0.771-0.438-1.319-0.438c-0.577,0-1.139,0.135-1.686,0.396c-0.543,0.264-1.106,0.643-1.698,1.131l-1.712-2.027
			c0.73-0.625,1.342-1.064,1.82-1.322c0.479-0.26,1.013-0.457,1.58-0.6c0.566-0.139,1.209-0.209,1.916-0.209
			c0.934,0,1.752,0.17,2.465,0.514c0.718,0.34,1.271,0.813,1.662,1.428c0.396,0.609,0.59,1.313,0.59,2.1
			c0,0.689-0.116,1.33-0.356,1.938c-0.24,0.604-0.615,1.219-1.121,1.852c-0.507,0.631-1.396,1.531-2.676,2.701l-1.916,1.803v0.146
			h6.487V528.501L192.529,528.501z"/>
	</g>
	<g>
		<path fill="#87868A" d="M64.845,598.425H49.947v-4.209c0-1.977,0.299-3.406,0.889-4.289c0.592-0.885,1.521-1.326,2.8-1.326
			c0.883,0,1.61,0.246,2.185,0.74c0.574,0.492,0.946,1.211,1.116,2.154h0.104c0.389-2.248,1.578-3.373,3.568-3.373
			c1.332,0,2.371,0.449,3.118,1.348c0.747,0.9,1.121,2.154,1.121,3.771L64.845,598.425L64.845,598.425z M56.316,596.693v-2.855
			c0-1.223-0.188-2.102-0.571-2.639c-0.386-0.537-1.028-0.811-1.938-0.811c-0.834,0-1.437,0.303-1.806,0.896
			c-0.368,0.598-0.558,1.549-0.558,2.854v2.551L56.316,596.693L56.316,596.693z M63.367,596.693v-3.107
			c0-1.201-0.231-2.104-0.697-2.715c-0.466-0.609-1.193-0.912-2.188-0.912c-0.924,0-1.604,0.311-2.038,0.932
			c-0.434,0.621-0.649,1.568-0.649,2.844v2.969L63.367,596.693L63.367,596.693z"/>
		<path fill="#87868A" d="M50.649,585.3c-0.387,0-0.671-0.088-0.851-0.264c-0.181-0.176-0.271-0.396-0.271-0.658
			c0-0.293,0.094-0.545,0.274-0.758c0.184-0.211,0.466-0.318,0.846-0.318c0.381,0,0.664,0.107,0.854,0.318
			c0.188,0.213,0.277,0.465,0.277,0.758c0,0.264-0.094,0.482-0.277,0.658C51.315,585.212,51.03,585.3,50.649,585.3z M64.845,585.158
			H53.677v-1.549h11.169L64.845,585.158L64.845,585.158z"/>
		<path fill="#87868A" d="M64.845,579.878H48.988v-1.688h15.856L64.845,579.878L64.845,579.878z"/>
		<path fill="#87868A" d="M64.845,574.601H48.988v-1.688h15.856L64.845,574.601L64.845,574.601z"/>
		<path fill="#87868A" d="M50.649,569.464c-0.387,0-0.671-0.088-0.851-0.264c-0.181-0.176-0.271-0.396-0.271-0.656
			c0-0.293,0.094-0.547,0.274-0.758c0.184-0.213,0.466-0.318,0.846-0.318c0.381,0,0.664,0.105,0.854,0.318
			c0.188,0.211,0.277,0.465,0.277,0.758c0,0.262-0.094,0.48-0.277,0.656C51.315,569.376,51.03,569.464,50.649,569.464z
			 M64.845,569.324H53.677v-1.551h11.169L64.845,569.324L64.845,569.324z"/>
		<path fill="#87868A" d="M59.24,564.666c-1.816,0-3.232-0.455-4.247-1.361c-1.017-0.904-1.521-2.168-1.521-3.771
			c0-1.564,0.521-2.799,1.557-3.723c1.037-0.918,2.44-1.377,4.214-1.377c1.821,0,3.245,0.457,4.271,1.373
			c1.023,0.914,1.537,2.186,1.537,3.789c0,0.996-0.235,1.879-0.705,2.652c-0.47,0.77-1.144,1.367-2.021,1.787
			C61.447,564.455,60.417,564.666,59.24,564.666z M59.24,562.933c1.43,0,2.521-0.281,3.27-0.854c0.749-0.57,1.123-1.412,1.123-2.521
			c0-1.105-0.372-1.947-1.118-2.521c-0.745-0.574-1.837-0.861-3.271-0.861c-1.426,0-2.507,0.287-3.243,0.861
			c-0.738,0.574-1.107,1.424-1.107,2.547c0,1.105,0.363,1.943,1.093,2.51C56.71,562.65,57.798,562.933,59.24,562.933z"/>
		<path fill="#87868A" d="M64.845,551.439H53.677v-1.381l1.509-0.271v-0.082c-0.543-0.346-0.965-0.832-1.264-1.457
			c-0.3-0.625-0.448-1.32-0.448-2.088c0-1.346,0.324-2.357,0.973-3.037c0.649-0.68,1.688-1.02,3.113-1.02h7.286v1.689h-7.239
			c-0.913,0-1.594,0.207-2.043,0.621c-0.446,0.414-0.674,1.063-0.674,1.945c0,1.17,0.315,2.02,0.95,2.563
			c0.633,0.543,1.678,0.814,3.135,0.814h5.871L64.845,551.439L64.845,551.439z"/>
		<path fill="#87868A" d="M59.689,534.382h-1.313v-1.527l-0.431,0.021H57.5l-0.814-0.021v1.527H55.37v-1.646
			c-1.772-0.27-3.155-0.896-4.146-1.891c-0.992-0.99-1.488-2.291-1.488-3.896c0-1.365,0.334-2.609,1.002-3.729l1.422,0.729
			c-0.581,1.127-0.872,2.131-0.872,3.006c0,2.168,1.359,3.52,4.087,4.055v-5.189h1.313v5.314l0.581,0.021h0.65l0.459-0.021v-4.693
			h1.313v4.557c1.229-0.25,2.184-0.725,2.854-1.41c0.672-0.688,1.009-1.611,1.009-2.77c0-1.064-0.227-2.105-0.678-3.146h1.521
			c0.438,0.99,0.653,2.064,0.653,3.229c0,1.607-0.457,2.904-1.371,3.891c-0.913,0.98-2.243,1.629-3.989,1.939V534.382
			L59.689,534.382z"/>
	</g>
	<g>
		<path fill="#666565" d="M74.442,418.844v-14.896h8.309v1.549h-6.572v4.769h6.176v1.55h-6.176v5.48h6.572v1.55L74.442,418.844
			L74.442,418.844z"/>
		<path fill="#666565" d="M85.897,413.544v-9.598h1.732v9.734c0,1.245,0.34,2.201,1.019,2.868c0.683,0.667,1.681,1,2.996,1
			c1.257,0,2.228-0.335,2.904-1.006c0.68-0.67,1.019-1.631,1.019-2.883v-9.715h1.732v9.641c0,1.699-0.514,3.033-1.538,4.005
			c-1.026,0.973-2.437,1.457-4.229,1.457c-1.795,0-3.184-0.489-4.162-1.468C86.387,416.602,85.897,415.257,85.897,413.544z"/>
		<path fill="#666565" d="M100.214,418.844v-1.438l3.924-3.959c1.194-1.214,1.982-2.08,2.363-2.6
			c0.381-0.519,0.665-1.021,0.854-1.515c0.19-0.49,0.285-1.02,0.285-1.586c0-0.797-0.241-1.431-0.724-1.897
			c-0.481-0.467-1.151-0.7-2.008-0.7c-0.618,0-1.204,0.103-1.761,0.308c-0.554,0.203-1.17,0.576-1.85,1.115l-0.896-1.156
			c1.372-1.123,2.866-1.684,4.483-1.684c1.398,0,2.497,0.356,3.291,1.069c0.795,0.713,1.191,1.671,1.191,2.875
			c0,0.947-0.268,1.887-0.797,2.814c-0.526,0.928-1.521,2.102-2.977,3.521l-3.261,3.203v0.082h7.663v1.549h-9.79v-0.002
			L100.214,418.844L100.214,418.844z"/>
		<path fill="#666565" d="M112.188,415.042c0-1.704,1.046-3.032,3.14-3.983c-0.946-0.529-1.627-1.103-2.039-1.717
			c-0.412-0.614-0.618-1.304-0.618-2.063c0-1.08,0.398-1.94,1.204-2.582c0.804-0.644,1.877-0.964,3.225-0.964
			c1.362,0,2.442,0.315,3.241,0.947c0.798,0.633,1.195,1.505,1.195,2.619c0,0.732-0.229,1.402-0.688,2.007
			c-0.458,0.604-1.188,1.155-2.194,1.651c1.219,0.578,2.08,1.184,2.596,1.818c0.513,0.634,0.769,1.371,0.769,2.206
			c0,1.236-0.434,2.224-1.298,2.96c-0.865,0.736-2.053,1.104-3.559,1.104c-1.598,0-2.821-0.348-3.683-1.044
			C112.617,417.305,112.188,416.321,112.188,415.042z M113.88,415.083c0,0.815,0.282,1.451,0.85,1.906
			c0.568,0.455,1.362,0.684,2.389,0.684c1.011,0,1.798-0.238,2.357-0.713c0.563-0.477,0.845-1.127,0.845-1.957
			c0-0.659-0.265-1.245-0.793-1.758c-0.526-0.514-1.449-1.011-2.768-1.494c-1.012,0.436-1.743,0.916-2.198,1.442
			S113.88,414.35,113.88,415.083z M114.358,407.349c0,0.625,0.2,1.162,0.603,1.609c0.397,0.449,1.141,0.897,2.219,1.346
			c0.97-0.406,1.655-0.846,2.06-1.313c0.404-0.468,0.605-1.017,0.605-1.642c0-0.686-0.246-1.229-0.737-1.635
			c-0.492-0.404-1.169-0.605-2.026-0.605c-0.851,0-1.516,0.204-1.994,0.61C114.6,406.126,114.358,406.669,114.358,407.349z"/>
		<path fill="#666565" d="M129.653,413.351c0-1.8,0.441-3.229,1.326-4.29c0.884-1.06,2.07-1.589,3.563-1.589
			c1.396,0,2.498,0.46,3.312,1.38c0.813,0.922,1.219,2.137,1.219,3.645v1.069h-7.68c0.033,1.312,0.364,2.306,0.995,2.984
			c0.63,0.681,1.516,1.02,2.658,1.02c1.198,0,2.385-0.251,3.561-0.754v1.509c-0.602,0.258-1.163,0.441-1.688,0.555
			c-0.532,0.111-1.174,0.168-1.928,0.168c-1.646,0-2.943-0.502-3.896-1.508C130.131,416.532,129.653,415.139,129.653,413.351z
			 M131.427,412.189h5.848c0-1.065-0.234-1.884-0.715-2.45c-0.477-0.567-1.156-0.853-2.041-0.853c-0.896,0-1.614,0.292-2.146,0.876
			C131.836,410.349,131.522,411.157,131.427,412.189z"/>
		<path fill="#666565" d="M141.271,410.419c0-0.91,0.369-1.629,1.105-2.157c0.736-0.526,1.754-0.791,3.044-0.791
			c1.191,0,2.362,0.244,3.507,0.733l-0.593,1.377c-1.114-0.463-2.131-0.695-3.037-0.695c-0.805,0-1.405,0.126-1.813,0.378
			c-0.406,0.251-0.61,0.6-0.61,1.042c0,0.301,0.073,0.556,0.229,0.767c0.148,0.211,0.396,0.412,0.736,0.604
			c0.344,0.191,0.994,0.467,1.961,0.828c1.324,0.482,2.219,0.97,2.674,1.46c0.457,0.489,0.688,1.105,0.688,1.85
			c0,1.033-0.389,1.831-1.154,2.393c-0.771,0.562-1.854,0.842-3.243,0.842c-1.479,0-2.631-0.229-3.459-0.692v-1.56
			c0.536,0.271,1.109,0.486,1.725,0.645c0.613,0.156,1.205,0.234,1.775,0.234c0.885,0,1.564-0.141,2.043-0.424
			c0.479-0.283,0.715-0.713,0.715-1.293c0-0.436-0.188-0.809-0.563-1.118c-0.378-0.309-1.114-0.677-2.211-1.099
			c-1.042-0.389-1.78-0.728-2.223-1.018c-0.438-0.29-0.762-0.617-0.975-0.984C141.377,411.37,141.271,410.931,141.271,410.419z"/>
		<path fill="#666565" d="M150.461,408.989v-0.814l1.602-0.703l0.713-2.385h0.979v2.588h3.239v1.314h-3.239v6.588
			c0,0.674,0.158,1.189,0.479,1.552c0.318,0.36,0.761,0.542,1.313,0.542c0.301,0,0.59-0.021,0.865-0.065
			c0.274-0.045,0.5-0.091,0.663-0.139v1.278c-0.188,0.086-0.454,0.158-0.813,0.215c-0.354,0.058-0.681,0.086-0.965,0.086
			c-2.158,0-3.238-1.139-3.238-3.414v-6.645h-1.604L150.461,408.989L150.461,408.989z"/>
		<path fill="#666565" d="M159.164,404.648c0-0.388,0.088-0.672,0.266-0.852c0.174-0.18,0.396-0.27,0.656-0.27
			c0.293,0,0.546,0.092,0.758,0.273c0.213,0.186,0.318,0.466,0.318,0.847c0,0.38-0.105,0.663-0.318,0.851
			c-0.212,0.188-0.465,0.281-0.758,0.281c-0.267,0-0.482-0.095-0.656-0.281C159.252,405.313,159.164,405.03,159.164,404.648z
			 M159.309,418.844v-11.168h1.549v11.168H159.309z"/>
		<path fill="#666565" d="M164.586,418.844v-11.168h1.375l0.272,1.509h0.08c0.32-0.536,0.771-0.957,1.354-1.259
			c0.581-0.302,1.229-0.453,1.951-0.453c1.746,0,2.889,0.625,3.424,1.876h0.082c0.333-0.579,0.813-1.035,1.444-1.372
			c0.635-0.336,1.354-0.504,2.16-0.504c1.267,0,2.209,0.324,2.838,0.975c0.627,0.646,0.941,1.687,0.941,3.111v7.286h-1.691v-7.28
			c0-0.893-0.188-1.562-0.566-2.007c-0.381-0.444-0.975-0.669-1.772-0.669c-1.053,0-1.83,0.304-2.334,0.909
			c-0.502,0.605-0.754,1.537-0.754,2.798v6.249h-1.688v-7.281c0-0.892-0.188-1.561-0.57-2.006c-0.381-0.444-0.979-0.669-1.779-0.669
			c-1.063,0-1.836,0.317-2.328,0.955c-0.489,0.637-0.735,1.681-0.735,3.13v5.871L164.586,418.844L164.586,418.844z"/>
		<path fill="#666565" d="M183.162,415.768c0-2.25,1.807-3.429,5.418-3.536l1.896-0.063v-0.702c0-0.888-0.188-1.542-0.563-1.966
			c-0.377-0.422-0.979-0.633-1.81-0.633c-0.928,0-1.979,0.289-3.149,0.865l-0.523-1.299c0.551-0.294,1.151-0.523,1.813-0.691
			c0.648-0.166,1.313-0.25,1.972-0.25c1.33,0,2.313,0.295,2.957,0.887c0.646,0.591,0.963,1.539,0.963,2.843v7.622h-1.254
			l-0.336-1.57h-0.082c-0.562,0.692-1.105,1.161-1.662,1.406c-0.554,0.246-1.238,0.368-2.066,0.368
			c-1.109,0-1.981-0.284-2.612-0.853C183.479,417.626,183.162,416.816,183.162,415.768z M184.955,415.788
			c0,0.615,0.188,1.082,0.557,1.402c0.367,0.32,0.887,0.48,1.551,0.48c1.051,0,1.877-0.29,2.479-0.87
			c0.604-0.581,0.896-1.393,0.896-2.438v-1.015l-1.688,0.071c-1.343,0.048-2.313,0.258-2.9,0.63
			C185.252,414.425,184.955,415.003,184.955,415.788z"/>
		<path fill="#666565" d="M194.126,408.989v-0.814l1.603-0.703l0.713-2.385h0.979v2.588h3.239v1.314h-3.239v6.588
			c0,0.674,0.158,1.189,0.479,1.552c0.32,0.36,0.762,0.542,1.313,0.542c0.301,0,0.59-0.021,0.865-0.065
			c0.274-0.045,0.5-0.091,0.663-0.139v1.278c-0.188,0.086-0.454,0.158-0.813,0.215c-0.354,0.058-0.679,0.086-0.963,0.086
			c-2.16,0-3.24-1.139-3.24-3.414v-6.645h-1.602L194.126,408.989L194.126,408.989z"/>
		<path fill="#666565" d="M202.352,413.351c0-1.8,0.439-3.229,1.326-4.29c0.883-1.06,2.068-1.589,3.561-1.589
			c1.396,0,2.498,0.46,3.314,1.38c0.813,0.922,1.221,2.137,1.221,3.645v1.069h-7.688c0.034,1.312,0.365,2.306,0.995,2.984
			c0.63,0.68,1.519,1.02,2.654,1.02c1.197,0,2.389-0.251,3.561-0.754v1.509c-0.602,0.258-1.157,0.441-1.688,0.555
			c-0.527,0.111-1.174,0.168-1.926,0.168c-1.646,0-2.945-0.502-3.896-1.508C202.829,416.533,202.352,415.139,202.352,413.351z
			 M204.124,412.189h5.851c0-1.065-0.238-1.884-0.716-2.45c-0.479-0.567-1.155-0.853-2.041-0.853c-0.897,0-1.614,0.292-2.147,0.876
			C204.533,410.349,204.219,411.157,204.124,412.189z"/>
		<path fill="#666565" d="M213.968,410.419c0-0.91,0.37-1.629,1.108-2.157c0.737-0.526,1.754-0.791,3.044-0.791
			c1.191,0,2.359,0.244,3.504,0.733l-0.59,1.377c-1.117-0.463-2.133-0.695-3.037-0.695c-0.807,0-1.408,0.126-1.815,0.378
			c-0.41,0.251-0.613,0.6-0.613,1.042c0,0.301,0.076,0.556,0.229,0.767c0.151,0.211,0.396,0.412,0.739,0.604
			c0.34,0.191,0.991,0.467,1.961,0.828c1.321,0.482,2.216,0.97,2.672,1.46c0.456,0.489,0.686,1.105,0.686,1.85
			c0,1.033-0.385,1.831-1.148,2.393c-0.771,0.562-1.854,0.842-3.243,0.842c-1.479,0-2.631-0.229-3.459-0.692v-1.56
			c0.536,0.271,1.104,0.486,1.729,0.645c0.609,0.156,1.205,0.234,1.771,0.234c0.889,0,1.563-0.141,2.042-0.424
			c0.479-0.283,0.716-0.713,0.716-1.293c0-0.436-0.188-0.809-0.563-1.118c-0.382-0.309-1.115-0.677-2.214-1.099
			c-1.043-0.389-1.777-0.728-2.217-1.018c-0.438-0.29-0.766-0.617-0.979-0.984C214.072,411.37,213.968,410.931,213.968,410.419z"/>
	</g>
	
		<line fill="none" stroke="#666565" stroke-width="0.25" stroke-miterlimit="10" x1="95.674" y1="457.72" x2="95.674" y2="705.751"/>
	
		<line fill="none" stroke="#666565" stroke-width="0.25" stroke-miterlimit="10" x1="226.385" y1="705.751" x2="81.953" y2="705.751"/>
	
		<line fill="none" stroke="#666565" stroke-width="0.25" stroke-miterlimit="10" x1="226.385" y1="457.72" x2="81.953" y2="457.72"/>
</g>
<g id="legend">
	<g>
		<g>
			<path fill="#5B5B5F" d="M82.98,765.044c0-1.275,0.234-2.395,0.709-3.355c0.478-0.963,1.16-1.703,2.064-2.225
				c0.897-0.521,1.965-0.781,3.188-0.781c1.306,0,2.438,0.236,3.414,0.715l-0.608,1.236c-0.938-0.438-1.884-0.66-2.818-0.66
				c-1.363,0-2.439,0.453-3.229,1.359c-0.787,0.908-1.187,2.15-1.187,3.729c0,1.625,0.383,2.879,1.146,3.766
				c0.764,0.885,1.85,1.328,3.258,1.328c0.862,0,1.854-0.156,2.965-0.471v1.271c-0.859,0.324-1.924,0.486-3.188,0.486
				c-1.828,0-3.233-0.563-4.227-1.666C83.475,768.667,82.98,767.089,82.98,765.044z"/>
			<path fill="#5B5B5F" d="M93.865,766.603c0-1.518,0.377-2.693,1.135-3.537c0.756-0.848,1.809-1.271,3.146-1.271
				c1.299,0,2.33,0.439,3.099,1.297c0.766,0.865,1.146,2.035,1.146,3.516c0,1.52-0.381,2.707-1.145,3.563
				c-0.767,0.854-1.814,1.279-3.158,1.279c-0.83,0-1.564-0.193-2.211-0.588c-0.646-0.396-1.144-0.953-1.486-1.689
				C94.041,768.441,93.865,767.583,93.865,766.603z M95.311,766.603c0,1.188,0.236,2.102,0.715,2.727
				c0.479,0.623,1.179,0.938,2.104,0.938c0.924,0,1.625-0.313,2.104-0.934c0.479-0.621,0.722-1.529,0.722-2.729
				c0-1.189-0.238-2.088-0.722-2.703c-0.479-0.615-1.188-0.922-2.123-0.922c-0.924,0-1.621,0.303-2.092,0.908
				C95.543,764.496,95.311,765.4,95.311,766.603z"/>
			<path fill="#5B5B5F" d="M104.293,764.253c0-0.758,0.309-1.354,0.924-1.797c0.617-0.439,1.463-0.658,2.537-0.658
				c0.994,0,1.971,0.203,2.92,0.609l-0.49,1.145c-0.934-0.389-1.772-0.578-2.531-0.578c-0.67,0-1.174,0.105-1.516,0.314
				s-0.512,0.498-0.512,0.867c0,0.25,0.063,0.463,0.188,0.641c0.127,0.176,0.332,0.342,0.617,0.502
				c0.281,0.156,0.826,0.393,1.633,0.689c1.105,0.395,1.851,0.811,2.229,1.217c0.379,0.408,0.565,0.922,0.565,1.541
				c0,0.861-0.315,1.527-0.963,1.994c-0.643,0.467-1.541,0.701-2.699,0.701c-1.229,0-2.19-0.191-2.885-0.578v-1.307
				c0.445,0.23,0.929,0.404,1.438,0.535c0.514,0.133,1.006,0.193,1.479,0.193c0.736,0,1.31-0.117,1.703-0.354
				c0.396-0.232,0.598-0.594,0.598-1.074c0-0.363-0.155-0.676-0.475-0.936c-0.313-0.258-0.932-0.563-1.844-0.914
				c-0.867-0.322-1.482-0.604-1.849-0.85c-0.365-0.242-0.637-0.516-0.813-0.818C104.381,765.048,104.293,764.679,104.293,764.253z"
				/>
			<path fill="#5B5B5F" d="M111.953,763.064v-0.682l1.334-0.588l0.594-1.986h0.813v2.158h2.699v1.096h-2.699v5.49
				c0,0.563,0.136,0.99,0.398,1.293c0.265,0.305,0.631,0.449,1.096,0.449c0.25,0,0.49-0.018,0.726-0.055
				c0.229-0.037,0.416-0.074,0.553-0.115v1.066c-0.15,0.064-0.379,0.133-0.676,0.18c-0.299,0.047-0.563,0.072-0.806,0.072
				c-1.801,0-2.698-0.949-2.698-2.854v-5.537L111.953,763.064L111.953,763.064z"/>
			<path fill="#5B5B5F" d="M123.84,771.275v-9.311h1.146l0.229,1.258h0.068c0.284-0.453,0.69-0.807,1.215-1.057
				c0.52-0.25,1.104-0.375,1.737-0.375c1.121,0,1.966,0.271,2.529,0.813c0.564,0.543,0.853,1.406,0.853,2.596v6.07h-1.408v-6.031
				c0-0.762-0.174-1.326-0.521-1.701c-0.346-0.375-0.887-0.564-1.621-0.564c-0.975,0-1.688,0.27-2.141,0.791
				c-0.453,0.525-0.682,1.396-0.682,2.613v4.896h-1.408L123.84,771.275L123.84,771.275z"/>
			<path fill="#5B5B5F" d="M133.998,766.603c0-1.518,0.377-2.693,1.135-3.537c0.758-0.848,1.807-1.271,3.146-1.271
				c1.302,0,2.33,0.439,3.099,1.297c0.766,0.865,1.145,2.035,1.145,3.516c0,1.52-0.381,2.707-1.145,3.563
				c-0.765,0.854-1.813,1.279-3.156,1.279c-0.83,0-1.566-0.193-2.211-0.588c-0.646-0.396-1.141-0.953-1.488-1.689
				C134.172,768.441,133.998,767.583,133.998,766.603z M135.441,766.603c0,1.188,0.238,2.102,0.715,2.727
				c0.479,0.623,1.179,0.938,2.104,0.938s1.625-0.313,2.104-0.934c0.48-0.621,0.727-1.529,0.727-2.729
				c0-1.189-0.235-2.088-0.727-2.703c-0.479-0.615-1.188-0.922-2.115-0.922c-0.927,0-1.621,0.303-2.095,0.908
				C135.676,764.496,135.441,765.4,135.441,766.603z"/>
			<path fill="#5B5B5F" d="M145.021,771.275v-9.311h1.146l0.229,1.258h0.063c0.287-0.453,0.688-0.807,1.215-1.057
				c0.521-0.25,1.104-0.375,1.74-0.375c1.121,0,1.963,0.271,2.523,0.813c0.566,0.541,0.854,1.406,0.854,2.596v6.07h-1.405v-6.031
				c0-0.762-0.177-1.326-0.521-1.701c-0.351-0.375-0.892-0.564-1.621-0.564c-0.979,0-1.688,0.27-2.146,0.791
				c-0.453,0.525-0.681,1.396-0.681,2.613v4.896h-1.407L145.021,771.275L145.021,771.275z"/>
			<path fill="#5B5B5F" d="M154.912,767.257v-1.291h4.17v1.291H154.912z"/>
			<path fill="#5B5B5F" d="M160.041,763.064v-0.639l1.666-0.512v-0.518c0-2.275,0.998-3.416,2.996-3.416
				c0.489,0,1.067,0.1,1.729,0.295l-0.365,1.109c-0.543-0.176-1.008-0.266-1.396-0.266c-0.53,0-0.928,0.18-1.187,0.531
				c-0.259,0.354-0.386,0.922-0.386,1.701v0.605h2.369v1.096H163.1v8.209H161.7v-8.209L160.041,763.064L160.041,763.064z"/>
			<path fill="#5B5B5F" d="M166.488,768.71c0-1.875,1.509-2.854,4.519-2.945l1.582-0.055v-0.584c0-0.736-0.154-1.283-0.471-1.637
				c-0.317-0.355-0.814-0.529-1.509-0.529c-0.771,0-1.646,0.24-2.627,0.725l-0.438-1.082c0.459-0.244,0.961-0.438,1.509-0.576
				c0.549-0.143,1.096-0.209,1.646-0.209c1.104,0,1.932,0.246,2.467,0.738c0.533,0.492,0.801,1.281,0.801,2.367v6.355h-1.045
				l-0.275-1.314h-0.064c-0.464,0.576-0.93,0.967-1.391,1.172c-0.459,0.205-1.032,0.313-1.729,0.313c-0.928,0-1.65-0.236-2.18-0.711
				C166.75,770.257,166.488,769.585,166.488,768.71z M167.982,768.728c0,0.514,0.154,0.898,0.463,1.17
				c0.312,0.27,0.738,0.396,1.291,0.396c0.877,0,1.563-0.238,2.063-0.725c0.5-0.488,0.75-1.16,0.75-2.031v-0.844l-1.404,0.063
				c-1.117,0.039-1.928,0.215-2.42,0.523C168.23,767.591,167.982,768.074,167.982,768.728z"/>
			<path fill="#5B5B5F" d="M175.625,763.064v-0.682l1.332-0.588l0.596-1.986h0.813v2.158h2.697v1.096h-2.697v5.49
				c0,0.563,0.135,0.99,0.396,1.293c0.266,0.305,0.631,0.449,1.096,0.449c0.248,0,0.488-0.018,0.727-0.055
				c0.229-0.037,0.416-0.074,0.554-0.115v1.066c-0.152,0.064-0.38,0.133-0.677,0.18c-0.299,0.047-0.563,0.072-0.805,0.072
				c-1.803,0-2.699-0.949-2.699-2.854v-5.537L175.625,763.064L175.625,763.064z"/>
			<path fill="#5B5B5F" d="M182.299,768.71c0-1.875,1.508-2.854,4.518-2.945l1.582-0.055v-0.584c0-0.736-0.152-1.283-0.473-1.637
				c-0.313-0.355-0.814-0.529-1.506-0.529c-0.771,0-1.646,0.24-2.627,0.725l-0.438-1.082c0.459-0.244,0.961-0.438,1.508-0.576
				c0.548-0.143,1.097-0.209,1.646-0.209c1.104,0,1.932,0.246,2.467,0.738c0.533,0.492,0.803,1.281,0.803,2.367v6.355h-1.045
				l-0.275-1.314h-0.065c-0.464,0.576-0.927,0.967-1.388,1.172c-0.459,0.205-1.035,0.313-1.729,0.313
				c-0.928,0-1.648-0.236-2.182-0.711C182.564,770.257,182.299,769.585,182.299,768.71z M183.793,768.728
				c0,0.514,0.149,0.898,0.463,1.17c0.309,0.27,0.736,0.396,1.291,0.396c0.877,0,1.563-0.238,2.063-0.725
				c0.5-0.488,0.75-1.16,0.75-2.031v-0.844l-1.403,0.063c-1.119,0.039-1.931,0.215-2.422,0.523
				C184.041,767.591,183.793,768.074,183.793,768.728z"/>
			<path fill="#5B5B5F" d="M192.666,771.275V758.06h1.41v13.215H192.666z"/>
			<path fill="#5B5B5F" d="M201.066,766.679c0-1.559,0.373-2.762,1.117-3.607c0.744-0.848,1.813-1.271,3.192-1.271
				c0.441,0,0.896,0.049,1.347,0.146c0.442,0.098,0.799,0.209,1.053,0.34l-0.437,1.197c-0.313-0.125-0.647-0.229-1.021-0.313
				c-0.365-0.082-0.689-0.123-0.979-0.123c-1.896,0-2.836,1.207-2.836,3.617c0,1.146,0.229,2.021,0.688,2.633
				c0.461,0.609,1.146,0.918,2.056,0.918c0.771,0,1.565-0.168,2.39-0.502v1.25c-0.622,0.32-1.405,0.482-2.354,0.482
				c-1.348,0-2.387-0.416-3.115-1.244C201.434,769.371,201.066,768.197,201.066,766.679z"/>
			<path fill="#5B5B5F" d="M209.166,768.71c0-1.875,1.506-2.854,4.518-2.945l1.582-0.055v-0.584c0-0.736-0.156-1.283-0.473-1.637
				c-0.313-0.355-0.813-0.529-1.504-0.529c-0.771,0-1.648,0.24-2.627,0.725l-0.439-1.082c0.459-0.244,0.961-0.438,1.508-0.576
				c0.547-0.143,1.1-0.209,1.646-0.209c1.104,0,1.934,0.246,2.465,0.738c0.533,0.492,0.805,1.281,0.805,2.367v6.355H215.6
				l-0.279-1.314h-0.063c-0.463,0.576-0.926,0.967-1.387,1.172c-0.459,0.205-1.033,0.313-1.729,0.313
				c-0.929,0-1.654-0.236-2.183-0.711C209.432,770.257,209.166,769.585,209.166,768.71z M210.662,768.728
				c0,0.514,0.149,0.898,0.463,1.17c0.309,0.27,0.733,0.396,1.291,0.396c0.877,0,1.563-0.238,2.063-0.725
				c0.5-0.488,0.75-1.16,0.75-2.031v-0.844l-1.408,0.063c-1.114,0.039-1.926,0.215-2.42,0.523
				C210.908,767.591,210.662,768.074,210.662,768.728z"/>
			<path fill="#5B5B5F" d="M218.941,764.253c0-0.758,0.312-1.354,0.924-1.797c0.617-0.439,1.466-0.658,2.537-0.658
				c0.996,0,1.974,0.203,2.92,0.609l-0.487,1.145c-0.935-0.389-1.773-0.578-2.531-0.578c-0.67,0-1.174,0.105-1.514,0.314
				c-0.345,0.209-0.515,0.498-0.515,0.867c0,0.25,0.063,0.463,0.188,0.641c0.125,0.176,0.332,0.342,0.617,0.502
				c0.276,0.156,0.821,0.393,1.633,0.689c1.104,0.395,1.85,0.811,2.229,1.217c0.381,0.408,0.57,0.922,0.57,1.541
				c0,0.861-0.32,1.527-0.966,1.994c-0.646,0.467-1.541,0.701-2.698,0.701c-1.229,0-2.193-0.191-2.886-0.578v-1.307
				c0.447,0.23,0.929,0.404,1.438,0.535c0.517,0.133,1.006,0.193,1.479,0.193c0.733,0,1.309-0.117,1.701-0.354
				c0.396-0.232,0.6-0.594,0.6-1.074c0-0.363-0.156-0.676-0.477-0.936c-0.313-0.258-0.935-0.563-1.847-0.914
				c-0.862-0.322-1.479-0.604-1.848-0.85c-0.365-0.238-0.638-0.516-0.814-0.818C219.029,765.048,218.941,764.679,218.941,764.253z"
				/>
			<path fill="#5B5B5F" d="M227.316,766.697c0-1.5,0.367-2.691,1.104-3.576c0.737-0.883,1.729-1.322,2.971-1.322
				c1.16,0,2.082,0.385,2.758,1.148c0.684,0.77,1.021,1.777,1.021,3.037v0.895h-6.399c0.024,1.094,0.308,1.922,0.826,2.484
				c0.522,0.564,1.268,0.854,2.221,0.854c0.998,0,1.981-0.209,2.963-0.629v1.258c-0.495,0.219-0.967,0.369-1.407,0.463
				c-0.443,0.102-0.979,0.146-1.604,0.146c-1.371,0-2.453-0.42-3.248-1.258C227.713,769.351,227.316,768.187,227.316,766.697z
				 M228.791,765.728h4.875c0-0.893-0.197-1.568-0.599-2.041c-0.396-0.477-0.965-0.709-1.7-0.709c-0.746,0-1.347,0.24-1.789,0.729
				C229.135,764.197,228.871,764.869,228.791,765.728z"/>
			<path fill="#5B5B5F" d="M236.996,764.253c0-0.758,0.309-1.354,0.924-1.797c0.617-0.439,1.461-0.658,2.537-0.658
				c0.994,0,1.969,0.203,2.92,0.609l-0.492,1.145c-0.932-0.389-1.773-0.578-2.529-0.578c-0.67,0-1.174,0.105-1.516,0.314
				s-0.512,0.498-0.512,0.867c0,0.25,0.063,0.463,0.188,0.641c0.127,0.176,0.332,0.342,0.617,0.502
				c0.278,0.156,0.823,0.393,1.633,0.689c1.104,0.395,1.846,0.811,2.229,1.217c0.379,0.408,0.565,0.922,0.565,1.541
				c0,0.861-0.315,1.527-0.963,1.994c-0.646,0.467-1.541,0.701-2.701,0.701c-1.229,0-2.188-0.191-2.883-0.578v-1.307
				c0.442,0.23,0.926,0.404,1.438,0.535c0.512,0.133,1.006,0.193,1.479,0.193c0.736,0,1.311-0.117,1.703-0.354
				c0.396-0.232,0.596-0.594,0.596-1.074c0-0.363-0.15-0.676-0.475-0.936c-0.314-0.258-0.93-0.563-1.842-0.914
				c-0.869-0.322-1.482-0.604-1.853-0.85c-0.36-0.24-0.633-0.516-0.813-0.818C237.084,765.048,236.996,764.679,236.996,764.253z"/>
		</g>
		<rect x="53.957" y="755.816" fill="#DD9B2B" width="17.803" height="17.803"/>
	</g>
	<g>
		<g>
			<path fill="#5B5B5F" d="M82.98,792.734c0-1.275,0.234-2.396,0.709-3.357c0.478-0.961,1.16-1.703,2.064-2.225
				c0.899-0.521,1.965-0.779,3.188-0.779c1.306,0,2.438,0.236,3.414,0.713l-0.608,1.238c-0.938-0.439-1.884-0.662-2.818-0.662
				c-1.363,0-2.439,0.455-3.229,1.361c-0.787,0.906-1.187,2.146-1.187,3.729c0,1.623,0.383,2.877,1.146,3.77
				c0.764,0.889,1.85,1.322,3.258,1.322c0.862,0,1.854-0.146,2.965-0.467v1.271c-0.859,0.322-1.924,0.482-3.188,0.482
				c-1.828,0-3.233-0.555-4.227-1.666C83.475,796.357,82.98,794.781,82.98,792.734z"/>
			<path fill="#5B5B5F" d="M93.865,794.294c0-1.514,0.377-2.691,1.135-3.539c0.756-0.844,1.809-1.27,3.146-1.27
				c1.299,0,2.33,0.436,3.099,1.299c0.766,0.863,1.146,2.033,1.146,3.51c0,1.521-0.381,2.707-1.145,3.563
				c-0.767,0.854-1.814,1.279-3.158,1.279c-0.83,0-1.564-0.195-2.211-0.59c-0.646-0.391-1.144-0.951-1.486-1.686
				C94.041,796.132,93.865,795.275,93.865,794.294z M95.311,794.294c0,1.189,0.236,2.104,0.715,2.727
				c0.479,0.625,1.179,0.938,2.104,0.938c0.924,0,1.625-0.313,2.104-0.932c0.479-0.621,0.722-1.531,0.722-2.73
				c0-1.186-0.238-2.086-0.722-2.703c-0.479-0.607-1.188-0.922-2.123-0.922c-0.924,0-1.621,0.305-2.092,0.91
				C95.543,792.185,95.311,793.089,95.311,794.294z"/>
			<path fill="#5B5B5F" d="M104.293,791.943c0-0.76,0.309-1.355,0.924-1.797c0.617-0.439,1.463-0.66,2.537-0.66
				c0.994,0,1.971,0.205,2.92,0.609l-0.49,1.146c-0.934-0.387-1.772-0.578-2.531-0.578c-0.67,0-1.174,0.104-1.516,0.314
				c-0.342,0.209-0.512,0.494-0.512,0.861c0,0.25,0.063,0.465,0.188,0.645c0.127,0.176,0.332,0.344,0.617,0.502
				c0.281,0.158,0.826,0.391,1.633,0.688c1.105,0.402,1.851,0.814,2.229,1.223c0.379,0.404,0.565,0.922,0.565,1.537
				c0,0.861-0.315,1.523-0.963,1.994c-0.643,0.471-1.541,0.701-2.699,0.701c-1.229,0-2.19-0.188-2.885-0.578v-1.303
				c0.445,0.23,0.929,0.404,1.438,0.535c0.514,0.131,1.006,0.195,1.479,0.195c0.736,0,1.31-0.119,1.703-0.355
				c0.396-0.234,0.598-0.594,0.598-1.076c0-0.357-0.155-0.674-0.475-0.934c-0.313-0.26-0.932-0.564-1.844-0.914
				c-0.867-0.324-1.482-0.605-1.849-0.852c-0.364-0.236-0.637-0.52-0.813-0.816C104.381,792.736,104.293,792.371,104.293,791.943z"
				/>
			<path fill="#5B5B5F" d="M111.953,790.753v-0.68l1.334-0.588l0.594-1.984h0.813v2.156h2.699v1.096h-2.699v5.49
				c0,0.563,0.136,0.994,0.398,1.295c0.265,0.303,0.631,0.451,1.096,0.451c0.25,0,0.49-0.021,0.726-0.064
				c0.229-0.033,0.416-0.068,0.553-0.107v1.063c-0.15,0.07-0.379,0.133-0.676,0.186c-0.299,0.047-0.563,0.066-0.806,0.066
				c-1.801,0-2.698-0.945-2.698-2.848v-5.537L111.953,790.753L111.953,790.753z"/>
			<path fill="#5B5B5F" d="M122.594,790.753v-0.637l1.664-0.51v-0.521c0-2.27,0.998-3.416,2.996-3.416
				c0.492,0,1.07,0.105,1.729,0.295l-0.362,1.115c-0.543-0.178-1.011-0.27-1.396-0.27c-0.533,0-0.928,0.182-1.184,0.529
				c-0.254,0.355-0.381,0.92-0.381,1.701v0.605h2.364v1.098h-2.364v8.211h-1.41v-8.211L122.594,790.753L122.594,790.753z"/>
			<path fill="#5B5B5F" d="M129.039,796.4c0-1.875,1.506-2.854,4.518-2.945l1.582-0.055v-0.584c0-0.736-0.158-1.283-0.473-1.639
				c-0.315-0.354-0.814-0.527-1.506-0.527c-0.771,0-1.646,0.24-2.627,0.725l-0.438-1.082c0.459-0.246,0.961-0.438,1.508-0.574
				c0.545-0.143,1.094-0.209,1.646-0.209c1.104,0,1.93,0.244,2.465,0.736c0.535,0.49,0.805,1.279,0.805,2.369v6.354h-1.045
				l-0.281-1.313h-0.063c-0.465,0.576-0.928,0.969-1.39,1.174c-0.461,0.203-1.032,0.314-1.725,0.314
				c-0.93,0-1.654-0.234-2.182-0.717C129.303,797.951,129.039,797.275,129.039,796.4z M130.533,796.419
				c0,0.514,0.149,0.898,0.463,1.168c0.307,0.271,0.733,0.402,1.291,0.402c0.877,0,1.563-0.242,2.063-0.73
				c0.5-0.484,0.75-1.16,0.75-2.027v-0.848l-1.408,0.064c-1.114,0.041-1.926,0.215-2.42,0.52
				C130.779,795.285,130.533,795.763,130.533,796.419z"/>
			<path fill="#5B5B5F" d="M138.176,790.753v-0.68l1.334-0.588l0.594-1.984h0.814v2.156h2.699v1.096h-2.699v5.49
				c0,0.563,0.133,0.994,0.396,1.295c0.268,0.303,0.631,0.451,1.099,0.451c0.248,0,0.485-0.021,0.723-0.064
				c0.229-0.033,0.416-0.068,0.553-0.107v1.063c-0.146,0.07-0.377,0.133-0.674,0.186c-0.301,0.047-0.566,0.066-0.805,0.066
				c-1.801,0-2.699-0.945-2.699-2.848v-5.537L138.176,790.753L138.176,790.753z"/>
			<path fill="#5B5B5F" d="M144.852,796.4c0-1.875,1.506-2.854,4.521-2.945l1.582-0.055v-0.584c0-0.736-0.156-1.283-0.477-1.639
				c-0.313-0.354-0.813-0.527-1.506-0.527c-0.771,0-1.646,0.24-2.627,0.725l-0.438-1.082c0.459-0.246,0.961-0.438,1.508-0.574
				c0.547-0.143,1.094-0.209,1.645-0.209c1.107,0,1.936,0.244,2.465,0.736c0.535,0.49,0.809,1.279,0.809,2.369v6.354h-1.045
				l-0.279-1.313h-0.063c-0.465,0.576-0.928,0.969-1.392,1.174c-0.459,0.203-1.03,0.314-1.725,0.314
				c-0.934,0-1.654-0.234-2.186-0.717C145.113,797.951,144.852,797.275,144.852,796.4z M146.346,796.419
				c0,0.514,0.152,0.898,0.463,1.168c0.313,0.271,0.736,0.402,1.291,0.402c0.877,0,1.564-0.242,2.064-0.73
				c0.5-0.484,0.75-1.16,0.75-2.027v-0.848l-1.408,0.064c-1.115,0.041-1.926,0.215-2.42,0.52
				C146.592,795.285,146.346,795.763,146.346,796.419z"/>
			<path fill="#5B5B5F" d="M155.219,798.964v-13.213h1.408v13.213H155.219z"/>
			<path fill="#5B5B5F" d="M163.617,794.371c0-1.561,0.368-2.762,1.112-3.607c0.746-0.85,1.813-1.27,3.197-1.27
				c0.442,0,0.896,0.049,1.342,0.145c0.444,0.102,0.799,0.209,1.058,0.342l-0.437,1.195c-0.313-0.125-0.649-0.229-1.021-0.313
				s-0.691-0.123-0.979-0.123c-1.896,0-2.838,1.205-2.838,3.617c0,1.145,0.229,2.02,0.688,2.633
				c0.461,0.607,1.146,0.916,2.051,0.916c0.771,0,1.568-0.166,2.39-0.5v1.248c-0.621,0.318-1.406,0.48-2.354,0.48
				c-1.352,0-2.393-0.414-3.119-1.244C163.984,797.062,163.617,795.888,163.617,794.371z"/>
			<path fill="#5B5B5F" d="M171.719,796.4c0-1.875,1.506-2.854,4.516-2.945l1.582-0.055v-0.584c0-0.736-0.15-1.283-0.471-1.639
				c-0.313-0.354-0.813-0.527-1.506-0.527c-0.771,0-1.648,0.24-2.627,0.725l-0.439-1.082c0.459-0.246,0.961-0.438,1.514-0.574
				c0.547-0.143,1.096-0.209,1.646-0.209c1.105,0,1.933,0.244,2.467,0.736c0.529,0.49,0.804,1.279,0.804,2.369v6.354h-1.048
				l-0.275-1.313h-0.067c-0.464,0.576-0.925,0.969-1.386,1.174c-0.461,0.203-1.034,0.314-1.729,0.314
				c-0.926,0-1.648-0.234-2.18-0.717C171.982,797.951,171.719,797.275,171.719,796.4z M173.213,796.419
				c0,0.514,0.149,0.898,0.461,1.168c0.311,0.271,0.738,0.402,1.293,0.402c0.875,0,1.563-0.242,2.063-0.73
				c0.5-0.484,0.75-1.16,0.75-2.027v-0.848l-1.4,0.064c-1.117,0.041-1.93,0.215-2.42,0.52
				C173.459,795.285,173.213,795.763,173.213,796.419z"/>
			<path fill="#5B5B5F" d="M181.492,791.943c0-0.76,0.309-1.355,0.926-1.797c0.615-0.439,1.461-0.66,2.537-0.66
				c0.994,0,1.969,0.205,2.92,0.609l-0.492,1.146c-0.932-0.387-1.773-0.578-2.529-0.578c-0.67,0-1.174,0.104-1.516,0.314
				c-0.342,0.209-0.512,0.494-0.512,0.861c0,0.25,0.063,0.465,0.188,0.645c0.127,0.176,0.332,0.344,0.612,0.502
				c0.283,0.158,0.828,0.391,1.638,0.688c1.104,0.402,1.846,0.814,2.229,1.223c0.379,0.404,0.565,0.922,0.565,1.537
				c0,0.861-0.315,1.523-0.963,1.994c-0.646,0.471-1.541,0.701-2.701,0.701c-1.229,0-2.188-0.188-2.883-0.578v-1.303
				c0.442,0.23,0.926,0.404,1.438,0.535c0.512,0.131,1.006,0.195,1.479,0.195c0.736,0,1.305-0.119,1.701-0.355
				c0.396-0.234,0.598-0.594,0.598-1.076c0-0.357-0.152-0.674-0.475-0.934c-0.314-0.26-0.93-0.564-1.842-0.914
				c-0.869-0.324-1.482-0.605-1.853-0.852c-0.36-0.236-0.633-0.52-0.813-0.816C181.582,792.736,181.492,792.371,181.492,791.943z"/>
			<path fill="#5B5B5F" d="M189.865,794.388c0-1.5,0.364-2.689,1.104-3.572c0.734-0.887,1.727-1.326,2.969-1.326
				c1.162,0,2.082,0.387,2.758,1.148c0.684,0.77,1.021,1.777,1.021,3.037v0.895h-6.399c0.022,1.092,0.308,1.922,0.83,2.484
				c0.521,0.564,1.265,0.852,2.215,0.852c1,0,1.984-0.209,2.966-0.627v1.256c-0.496,0.217-0.97,0.371-1.41,0.463
				c-0.441,0.098-0.979,0.145-1.604,0.145c-1.371,0-2.453-0.42-3.248-1.26C190.264,797.041,189.865,795.876,189.865,794.388z
				 M191.344,793.419h4.873c0-0.889-0.197-1.566-0.596-2.041c-0.396-0.473-0.968-0.709-1.701-0.709
				c-0.748,0-1.346,0.242-1.791,0.729C191.686,791.886,191.422,792.558,191.344,793.419z"/>
			<path fill="#5B5B5F" d="M199.545,791.943c0-0.76,0.311-1.355,0.926-1.797c0.615-0.439,1.463-0.66,2.535-0.66
				c0.996,0,1.971,0.205,2.922,0.609l-0.492,1.146c-0.932-0.387-1.771-0.578-2.529-0.578c-0.67,0-1.176,0.104-1.516,0.314
				c-0.342,0.209-0.512,0.494-0.512,0.861c0,0.25,0.063,0.465,0.188,0.645c0.129,0.176,0.334,0.344,0.617,0.502
				c0.28,0.158,0.828,0.391,1.635,0.688c1.104,0.402,1.849,0.814,2.229,1.223c0.381,0.404,0.57,0.922,0.57,1.537
				c0,0.861-0.32,1.523-0.966,1.994s-1.543,0.701-2.7,0.701c-1.23,0-2.191-0.188-2.884-0.578v-1.303
				c0.445,0.23,0.929,0.404,1.438,0.535c0.514,0.131,1.004,0.195,1.479,0.195c0.736,0,1.311-0.119,1.701-0.355
				c0.396-0.234,0.602-0.594,0.602-1.076c0-0.357-0.156-0.674-0.479-0.934c-0.313-0.26-0.93-0.564-1.844-0.914
				c-0.865-0.324-1.482-0.605-1.848-0.852c-0.363-0.236-0.638-0.52-0.813-0.816C199.635,792.736,199.545,792.371,199.545,791.943z"
				/>
		</g>
		<rect x="53.957" y="783.505" fill="#199598" width="17.803" height="17.801"/>
	</g>
</g>
</svg>
