<?xml version="1.0" encoding="utf-8"?>
<!-- Generator: Adobe Illustrator 16.0.0, SVG Export Plug-In . SVG Version: 6.00 Build 0)  -->
<!DOCTYPE svg PUBLIC "-//W3C//DTD SVG 1.1//EN" "http://www.w3.org/Graphics/SVG/1.1/DTD/svg11.dtd">
<svg version="1.1" id="Capa_1" xmlns="http://www.w3.org/2000/svg" xmlns:xlink="http://www.w3.org/1999/xlink" x="0px" y="0px"
	 width="510.236px" height="382.676px" viewBox="0 0 510.236 382.676" enable-background="new 0 0 510.236 382.676"
	 xml:space="preserve">
<g>
	<g id="global-estimates">
		<g>
			<rect x="110.315" y="199.79" fill="#449FA2" width="100.49" height="122.967"/>
			<rect x="110.315" y="74.726" fill="#F2C466" width="100.49" height="125.062"/>
		</g>
		<g>
			<path fill="#9A999E" d="M21.732,79.99v-1.199l3.271-3.299c0.991-1.012,1.648-1.734,1.971-2.166
				c0.313-0.432,0.56-0.853,0.713-1.262c0.159-0.409,0.237-0.85,0.237-1.321c0-0.665-0.2-1.192-0.604-1.582
				c-0.403-0.39-0.96-0.584-1.678-0.584c-0.521,0-1.004,0.085-1.466,0.256c-0.462,0.17-0.979,0.48-1.542,0.93l-0.741-0.964
				c1.146-0.935,2.394-1.402,3.735-1.402c1.166,0,2.081,0.297,2.738,0.891c0.663,0.594,0.994,1.393,0.994,2.396
				c0,0.79-0.227,1.572-0.663,2.345c-0.438,0.773-1.271,1.751-2.479,2.934l-2.717,2.669v0.069h6.387v1.291h-8.16L21.732,79.99
				L21.732,79.99z"/>
			<path fill="#9A999E" d="M35.802,77.146v-1.239l5.896-8.399h1.494v8.347h1.854v1.291h-1.854v2.845H41.86v-2.845H35.802z
				 M37.23,75.854h4.633v-4.127c0-0.81,0.022-1.724,0.084-2.743h-0.063c-0.271,0.543-0.525,0.994-0.769,1.35L37.23,75.854z"/>
			<path fill="#9A999E" d="M45.745,77.146v-1.239l5.896-8.399h1.493v8.347h1.855v1.291h-1.855v2.845h-1.334v-2.845H45.745z
				 M47.173,75.854h4.628v-4.127c0-0.81,0.023-1.724,0.084-2.743h-0.063c-0.271,0.543-0.521,0.994-0.769,1.35L47.173,75.854z"/>
			<path fill="#9A999E" d="M56.226,76.821c0-1.421,0.871-2.528,2.613-3.32c-0.79-0.441-1.354-0.918-1.699-1.431
				c-0.344-0.513-0.521-1.086-0.521-1.72c0-0.9,0.334-1.618,1.008-2.153c0.669-0.535,1.563-0.802,2.688-0.802
				c1.136,0,2.031,0.263,2.696,0.79c0.664,0.526,0.996,1.254,0.996,2.183c0,0.611-0.188,1.169-0.567,1.673
				c-0.387,0.504-0.991,0.962-1.829,1.375c1.013,0.481,1.729,0.986,2.155,1.516c0.432,0.53,0.645,1.143,0.645,1.839
				c0,1.03-0.355,1.853-1.082,2.467c-0.721,0.614-1.709,0.921-2.964,0.921c-1.329,0-2.354-0.29-3.063-0.871
				C56.582,78.708,56.226,77.888,56.226,76.821z M57.635,76.855c0,0.679,0.231,1.208,0.708,1.588
				c0.478,0.379,1.136,0.569,1.983,0.569c0.847,0,1.498-0.198,1.972-0.594c0.47-0.396,0.704-0.94,0.704-1.631
				c0-0.549-0.226-1.037-0.661-1.465c-0.438-0.427-1.21-0.842-2.311-1.244c-0.842,0.362-1.453,0.763-1.832,1.202
				C57.823,75.72,57.635,76.246,57.635,76.855z M58.033,70.412c0,0.521,0.167,0.968,0.5,1.341c0.333,0.374,0.949,0.748,1.854,1.121
				c0.813-0.34,1.38-0.705,1.717-1.095c0.336-0.391,0.504-0.847,0.504-1.367c0-0.572-0.2-1.026-0.61-1.363
				c-0.407-0.336-0.979-0.505-1.688-0.505c-0.707,0-1.262,0.17-1.662,0.51C58.236,69.393,58.033,69.845,58.033,70.412z"/>
			<g>
				<path fill="#9A999E" d="M31.517,82.297c0.144-0.542,0.295-1.211,0.468-2.008c0.169-0.797,0.285-1.435,0.354-1.914h1.415
					l0.112,0.18c-0.135,0.521-0.329,1.126-0.583,1.816s-0.521,1.332-0.793,1.926H31.517z"/>
			</g>
		</g>
		<g>
			<path fill="#9A999E" d="M56.207,316.526c0-2.16,0.343-3.766,1.02-4.813c0.681-1.047,1.707-1.569,3.097-1.569
				c1.348,0,2.363,0.546,3.063,1.638c0.693,1.094,1.048,2.674,1.048,4.744c0,2.146-0.338,3.75-1.02,4.811
				c-0.676,1.063-1.709,1.595-3.104,1.595c-1.34,0-2.355-0.543-3.059-1.628C56.558,320.211,56.207,318.624,56.207,316.526z
				 M57.653,316.526c0,1.803,0.212,3.113,0.636,3.936c0.429,0.822,1.104,1.231,2.026,1.231c0.938,0,1.613-0.417,2.034-1.25
				c0.426-0.833,0.637-2.14,0.637-3.918c0-1.776-0.21-3.082-0.637-3.907c-0.421-0.828-1.104-1.242-2.034-1.242
				c-0.931,0-1.604,0.408-2.026,1.229C57.865,313.417,57.653,314.726,57.653,316.526z"/>
		</g>
		<g>
			<path fill="#FFFFFF" d="M142.382,261.272h-3.146v-8.621l0.026-1.417l0.056-1.549c-0.521,0.522-0.893,0.866-1.095,1.028
				l-1.712,1.375l-1.521-1.896l4.801-3.818h2.592L142.382,261.272L142.382,261.272z"/>
			<path fill="#FFFFFF" d="M162.873,261.272h-10.411v-2.189l3.735-3.772c1.104-1.144,1.831-1.925,2.171-2.356
				c0.344-0.438,0.584-0.847,0.729-1.221c0.145-0.374,0.229-0.77,0.229-1.162c0-0.604-0.165-1.042-0.489-1.335
				c-0.33-0.292-0.771-0.438-1.318-0.438c-0.578,0-1.139,0.135-1.688,0.396c-0.543,0.271-1.105,0.646-1.697,1.135l-1.712-2.023
				c0.729-0.625,1.342-1.064,1.819-1.325c0.479-0.259,1.014-0.456,1.58-0.597c0.566-0.146,1.209-0.209,1.916-0.209
				c0.936,0,1.752,0.17,2.466,0.511c0.719,0.342,1.271,0.813,1.661,1.429c0.396,0.609,0.591,1.313,0.591,2.1
				c0,0.688-0.116,1.33-0.355,1.938c-0.242,0.604-0.61,1.22-1.121,1.854c-0.506,0.635-1.396,1.527-2.675,2.699l-1.916,1.807v0.146
				h6.49v2.633h-0.006L162.873,261.272L162.873,261.272z"/>
			<path fill="#FFFFFF" d="M174.786,261.272h-10.415v-2.189l3.74-3.772c1.104-1.144,1.831-1.925,2.171-2.356
				c0.339-0.438,0.584-0.847,0.729-1.221c0.145-0.374,0.229-0.77,0.229-1.162c0-0.604-0.165-1.042-0.494-1.335
				c-0.325-0.292-0.771-0.438-1.313-0.438c-0.578,0-1.144,0.135-1.688,0.396c-0.543,0.271-1.105,0.646-1.697,1.135l-1.717-2.023
				c0.733-0.625,1.347-1.064,1.824-1.325c0.479-0.259,1.009-0.456,1.58-0.597c0.566-0.146,1.209-0.209,1.916-0.209
				c0.935,0,1.752,0.17,2.466,0.511c0.714,0.342,1.271,0.813,1.661,1.429c0.396,0.609,0.591,1.313,0.591,2.1
				c0,0.688-0.121,1.33-0.355,1.938c-0.242,0.604-0.615,1.22-1.121,1.854s-1.396,1.527-2.676,2.699l-1.915,1.807v0.146h6.485
				L174.786,261.272L174.786,261.272z"/>
			<path fill="#FFFFFF" d="M186.117,249.708c0,0.936-0.277,1.727-0.846,2.375c-0.564,0.646-1.354,1.104-2.374,1.35v0.063
				c1.197,0.146,2.107,0.519,2.729,1.098c0.616,0.58,0.928,1.363,0.928,2.35c0,1.434-0.521,2.551-1.563,3.348
				c-1.04,0.799-2.521,1.196-4.448,1.196c-1.617,0-3.055-0.269-4.305-0.805V258c0.577,0.291,1.212,0.521,1.905,0.713
				c0.688,0.185,1.379,0.271,2.059,0.271c1.04,0,1.813-0.176,2.309-0.525c0.495-0.354,0.743-0.924,0.743-1.701
				c0-0.696-0.284-1.191-0.854-1.483c-0.571-0.292-1.479-0.438-2.729-0.438h-1.136v-2.416h1.152c1.149,0,1.994-0.147,2.526-0.451
				c0.528-0.309,0.801-0.817,0.801-1.561c0-1.127-0.702-1.688-2.115-1.688c-0.489,0-0.987,0.08-1.493,0.242
				s-1.063,0.439-1.688,0.851l-1.456-2.17c1.354-0.979,2.979-1.474,4.854-1.474c1.542,0,2.765,0.313,3.653,0.938
				C185.669,247.726,186.117,248.592,186.117,249.708z"/>
			<g>
				<path fill="#FFFFFF" d="M145.62,263.542c0.146-0.543,0.295-1.211,0.47-2.008c0.169-0.802,0.283-1.438,0.354-1.914h1.415
					l0.114,0.18c-0.136,0.521-0.329,1.129-0.583,1.813c-0.254,0.688-0.521,1.332-0.793,1.931h-0.978V263.542z"/>
			</g>
		</g>
		<g>
			<path fill="#FFFFFF" d="M142.382,145.506h-3.146v-8.621l0.026-1.417l0.056-1.549c-0.521,0.523-0.893,0.866-1.095,1.029
				l-1.712,1.375l-1.521-1.896l4.801-3.821h2.592L142.382,145.506L142.382,145.506z"/>
			<path fill="#FFFFFF" d="M162.873,145.506h-10.411v-2.191l3.735-3.781c1.104-1.134,1.831-1.92,2.171-2.359
				c0.344-0.439,0.584-0.844,0.729-1.218c0.145-0.374,0.229-0.761,0.229-1.162c0-0.598-0.165-1.042-0.489-1.335
				c-0.33-0.292-0.771-0.438-1.318-0.438c-0.578,0-1.139,0.132-1.688,0.397c-0.543,0.265-1.105,0.642-1.697,1.131l-1.712-2.028
				c0.729-0.625,1.342-1.066,1.819-1.325c0.479-0.258,1.014-0.457,1.58-0.596s1.209-0.209,1.916-0.209
				c0.936,0,1.752,0.17,2.466,0.51c0.719,0.34,1.271,0.815,1.661,1.427c0.396,0.611,0.591,1.311,0.591,2.099
				c0,0.687-0.116,1.33-0.355,1.931c-0.242,0.601-0.61,1.217-1.121,1.849c-0.506,0.632-1.396,1.532-2.675,2.701l-1.916,1.804v0.143
				h6.49v2.65H162.873z"/>
			<path fill="#FFFFFF" d="M174.786,145.506h-10.415v-2.191l3.74-3.781c1.104-1.134,1.831-1.92,2.171-2.359
				c0.339-0.438,0.584-0.844,0.729-1.218c0.145-0.374,0.229-0.761,0.229-1.162c0-0.598-0.165-1.042-0.494-1.335
				c-0.325-0.292-0.771-0.438-1.313-0.438c-0.578,0-1.144,0.132-1.688,0.397c-0.543,0.265-1.105,0.642-1.697,1.131l-1.717-2.028
				c0.733-0.625,1.347-1.066,1.824-1.325c0.479-0.258,1.009-0.457,1.58-0.596c0.566-0.139,1.209-0.209,1.916-0.209
				c0.935,0,1.752,0.17,2.466,0.51c0.714,0.34,1.271,0.815,1.661,1.427c0.396,0.611,0.591,1.311,0.591,2.099
				c0,0.687-0.121,1.33-0.355,1.931c-0.242,0.601-0.615,1.217-1.121,1.849s-1.396,1.532-2.676,2.701l-1.915,1.804v0.143h6.485
				L174.786,145.506L174.786,145.506z"/>
			<path fill="#FFFFFF" d="M181.705,135.989c1.438,0,2.586,0.404,3.438,1.212c0.854,0.809,1.278,1.916,1.278,3.322
				c0,1.665-0.518,2.945-1.539,3.842c-1.021,0.896-2.492,1.345-4.396,1.345c-1.658,0-2.996-0.268-4.021-0.805v-2.721
				c0.537,0.285,1.162,0.518,1.875,0.698c0.714,0.18,1.395,0.27,2.023,0.27c1.922,0,2.889-0.788,2.889-2.364
				c0-1.501-0.995-2.252-2.985-2.252c-0.355,0-0.758,0.036-1.188,0.107c-0.438,0.071-0.789,0.148-1.063,0.229l-1.253-0.672
				l0.563-7.592h8.081v2.669h-5.314l-0.272,2.925l0.354-0.071C180.58,136.037,181.095,135.989,181.705,135.989z"/>
			<g>
				<path fill="#FFFFFF" d="M145.62,147.772c0.146-0.542,0.295-1.211,0.47-2.008c0.169-0.797,0.283-1.435,0.354-1.914h1.415
					l0.114,0.18c-0.136,0.521-0.329,1.126-0.583,1.816s-0.521,1.332-0.793,1.926H145.62z"/>
			</g>
		</g>
		<g>
			<path fill="#87868A" d="M48.841,215.43H33.944v-4.208c0-1.979,0.295-3.407,0.885-4.29c0.596-0.887,1.521-1.325,2.804-1.325
				c0.884,0,1.606,0.246,2.187,0.739c0.573,0.49,0.945,1.211,1.115,2.152h0.104c0.394-2.248,1.578-3.373,3.566-3.373
				c1.332,0,2.371,0.449,3.118,1.351c0.748,0.896,1.12,2.151,1.12,3.771L48.841,215.43L48.841,215.43z M40.312,213.698v-2.854
				c0-1.225-0.188-2.104-0.569-2.641c-0.388-0.537-1.022-0.813-1.938-0.813c-0.834,0-1.438,0.299-1.811,0.896
				c-0.364,0.602-0.555,1.553-0.555,2.854v2.547L40.312,213.698L40.312,213.698z M47.364,213.698v-3.107
				c0-1.192-0.229-2.104-0.698-2.715c-0.465-0.604-1.188-0.912-2.188-0.912c-0.924,0-1.604,0.313-2.033,0.938
				c-0.438,0.621-0.652,1.563-0.652,2.839v2.969L47.364,213.698L47.364,213.698z"/>
			<path fill="#87868A" d="M34.647,202.305c-0.389,0-0.671-0.088-0.853-0.266c-0.185-0.184-0.271-0.396-0.271-0.656
				c0-0.295,0.092-0.547,0.271-0.76c0.188-0.211,0.466-0.315,0.848-0.315c0.385,0,0.664,0.104,0.854,0.315
				c0.188,0.213,0.28,0.465,0.28,0.76c0,0.265-0.1,0.479-0.28,0.656C35.311,202.217,35.027,202.305,34.647,202.305z M48.841,202.163
				H37.673v-1.55h11.168V202.163z"/>
			<path fill="#87868A" d="M48.841,196.883H32.986v-1.69h15.854L48.841,196.883L48.841,196.883z"/>
			<path fill="#87868A" d="M48.841,191.605H32.986v-1.69h15.854L48.841,191.605L48.841,191.605z"/>
			<path fill="#87868A" d="M34.647,186.47c-0.389,0-0.671-0.09-0.853-0.266c-0.185-0.183-0.271-0.396-0.271-0.656
				c0-0.293,0.092-0.547,0.271-0.758c0.188-0.213,0.466-0.317,0.848-0.317c0.385,0,0.664,0.104,0.854,0.317
				c0.188,0.211,0.28,0.465,0.28,0.758c0,0.264-0.1,0.479-0.28,0.656C35.311,186.38,35.027,186.47,34.647,186.47z M48.841,186.329
				H37.673v-1.551h11.168V186.329z"/>
			<path fill="#87868A" d="M43.237,181.669c-1.813,0-3.229-0.455-4.247-1.36c-1.019-0.908-1.521-2.168-1.521-3.78
				c0-1.558,0.521-2.795,1.563-3.713c1.032-0.918,2.438-1.377,4.211-1.377c1.819,0,3.248,0.457,4.271,1.372
				c1.021,0.914,1.535,2.178,1.535,3.789c0,0.996-0.233,1.88-0.703,2.651c-0.476,0.771-1.146,1.367-2.021,1.787
				S44.413,181.669,43.237,181.669z M43.237,179.938c1.43,0,2.521-0.286,3.271-0.856c0.749-0.563,1.124-1.412,1.124-2.521
				s-0.373-1.951-1.118-2.524c-0.745-0.574-1.838-0.858-3.271-0.858c-1.423,0-2.504,0.284-3.243,0.858
				c-0.732,0.573-1.104,1.424-1.104,2.547c0,1.106,0.363,1.943,1.099,2.513C40.706,179.655,41.793,179.938,43.237,179.938z"/>
			<path fill="#87868A" d="M48.841,168.443H37.673v-1.376l1.51-0.275v-0.081c-0.544-0.347-0.967-0.832-1.271-1.457
				c-0.299-0.625-0.442-1.321-0.442-2.089c0-1.346,0.323-2.357,0.979-3.037c0.646-0.68,1.688-1.02,3.107-1.02h7.285v1.692h-7.238
				c-0.907,0-1.594,0.207-2.042,0.621c-0.444,0.415-0.676,1.063-0.676,1.946c0,1.169,0.313,2.024,0.95,2.568
				c0.633,0.543,1.679,0.815,3.136,0.815h5.87V168.443z"/>
			<path fill="#87868A" d="M47.104,150.714h-1.596c0.252-0.563,0.457-1.214,0.611-1.951c0.16-0.737,0.24-1.408,0.24-2.013H41.88
				c-0.438,1.393-0.954,2.369-1.538,2.93c-0.585,0.561-1.339,0.841-2.268,0.841c-0.89,0-1.615-0.345-2.188-1.034
				c-0.566-0.689-0.919-1.602-1.04-2.736h-1.854v-1.335h1.834c0.034-1.246,0.286-2.448,0.76-3.607l1.335,0.53
				c-0.4,1.009-0.644,2.035-0.719,3.077h4.428c0.341-1.063,0.671-1.859,0.988-2.389c0.323-0.528,0.693-0.918,1.111-1.169
				c0.417-0.25,0.926-0.376,1.521-0.376c0.924,0,1.688,0.346,2.292,1.037c0.604,0.691,0.979,1.656,1.146,2.896h2.354v1.335h-2.262
				c0,0.761-0.063,1.498-0.185,2.212C47.483,149.676,47.317,150.26,47.104,150.714z M38.071,148.79c0.521,0,0.936-0.152,1.238-0.456
				c0.313-0.304,0.604-0.831,0.892-1.582h-3.94c0.104,0.669,0.316,1.177,0.638,1.521C37.208,148.618,37.602,148.79,38.071,148.79z
				 M46.263,145.417c-0.203-1.467-0.828-2.201-1.875-2.201c-0.484,0-0.886,0.15-1.188,0.452c-0.303,0.301-0.604,0.884-0.896,1.749
				H46.263z"/>
		</g>
		<line fill="none" stroke="#000000" stroke-width="0.25" stroke-miterlimit="10" x1="80.1" y1="74.774" x2="80.1" y2="322.629"/>
		
			<line fill="none" stroke="#000000" stroke-width="0.25" stroke-miterlimit="10" x1="210.809" y1="322.754" x2="66.379" y2="322.754"/>
		
			<line fill="none" stroke="#000000" stroke-width="0.25" stroke-miterlimit="10" x1="66.673" y1="74.774" x2="210.809" y2="74.774"/>
	</g>
	<g id="EU28-estimates">
		<g>
			<rect x="372.045" y="203.967" fill="#449FA2" width="100.496" height="118.787"/>
			<rect x="372.045" y="74.773" fill="#F2C466" width="100.496" height="129.194"/>
		</g>
		<g>
			<path fill="#9A999E" d="M294.561,77.145v-1.239l5.896-8.399h1.495v8.347h1.854v1.291h-1.854v2.845h-1.343v-2.845H294.561z
				 M295.982,75.854h4.629v-4.127c0-0.81,0.027-1.724,0.085-2.743h-0.063c-0.271,0.543-0.526,0.994-0.767,1.35L295.982,75.854z"/>
			<path fill="#9A999E" d="M305.057,71.562c0-1.287,0.361-2.303,1.086-3.048c0.729-0.745,1.677-1.118,2.858-1.118
				c0.846,0,1.586,0.216,2.219,0.649s1.12,1.063,1.461,1.892c0.341,0.828,0.511,1.805,0.511,2.931c0,4.861-1.883,7.292-5.646,7.292
				c-0.659,0-1.188-0.057-1.566-0.17V78.76c0.454,0.17,0.97,0.255,1.549,0.255c1.356,0,2.39-0.422,3.073-1.266
				c0.692-0.844,1.07-2.138,1.133-3.882h-0.103c-0.313,0.476-0.729,0.838-1.237,1.088c-0.515,0.25-1.094,0.374-1.738,0.374
				c-1.103,0-1.978-0.331-2.625-0.993C305.383,73.671,305.057,72.749,305.057,71.562z M306.469,71.543
				c0,0.819,0.204,1.463,0.609,1.932c0.397,0.469,1.021,0.704,1.854,0.704c0.514,0,0.987-0.105,1.42-0.315
				c0.438-0.21,0.771-0.498,1.021-0.862c0.248-0.364,0.373-0.745,0.373-1.143c0-0.597-0.115-1.148-0.354-1.655
				c-0.229-0.506-0.556-0.904-0.971-1.194s-0.896-0.435-1.434-0.435c-0.813,0-1.438,0.262-1.872,0.785
				C306.687,69.884,306.469,70.611,306.469,71.543z"/>
			<path fill="#9A999E" d="M315.23,79.479v-1.364c0.396,0.254,0.896,0.453,1.479,0.597s1.169,0.216,1.729,0.216
				c0.996,0,1.771-0.234,2.322-0.703c0.553-0.468,0.828-1.146,0.828-2.031c0-1.727-1.063-2.59-3.188-2.59
				c-0.532,0-1.262,0.082-2.152,0.245l-0.73-0.466l0.479-5.808h6.175v1.291h-4.979l-0.313,3.736c0.649-0.119,1.3-0.178,1.944-0.178
				c1.31,0,2.338,0.322,3.09,0.966c0.75,0.644,1.126,1.525,1.126,2.644c0,1.288-0.409,2.297-1.229,3.029
				c-0.813,0.732-1.938,1.098-3.384,1.098C317.038,80.16,315.968,79.933,315.23,79.479z"/>
		</g>
		<g>
			<path fill="#9A999E" d="M314.969,316.525c0-2.161,0.338-3.765,1.014-4.813c0.676-1.047,1.706-1.568,3.092-1.568
				c1.354,0,2.368,0.546,3.067,1.639c0.698,1.094,1.047,2.674,1.047,4.743c0,2.146-0.338,3.75-1.014,4.812
				c-0.677,1.063-1.709,1.594-3.104,1.594c-1.34,0-2.354-0.543-3.058-1.629C315.314,320.211,314.969,318.624,314.969,316.525z
				 M316.415,316.525c0,1.804,0.213,3.113,0.637,3.937c0.424,0.824,1.1,1.23,2.021,1.23c0.938,0,1.618-0.417,2.039-1.25
				s0.643-2.139,0.643-3.918c0-1.775-0.222-3.082-0.643-3.906c-0.421-0.828-1.101-1.242-2.039-1.242
				c-0.927,0-1.603,0.408-2.021,1.229C316.628,313.417,316.415,314.725,316.415,316.525z"/>
		</g>
		<g>
			<path fill="#FFFFFF" d="M414.855,261.271h-10.413v-2.188l3.738-3.773c1.107-1.143,1.832-1.926,2.172-2.357
				c0.34-0.436,0.584-0.846,0.732-1.22c0.146-0.374,0.225-0.769,0.225-1.162c0-0.604-0.164-1.042-0.494-1.335
				c-0.328-0.292-0.77-0.438-1.313-0.438c-0.576,0-1.146,0.134-1.688,0.396c-0.545,0.271-1.104,0.646-1.691,1.134l-1.723-2.022
				c0.732-0.625,1.352-1.063,1.824-1.325c0.482-0.26,1.008-0.456,1.578-0.598c0.57-0.146,1.209-0.209,1.916-0.209
				c0.932,0,1.754,0.17,2.467,0.512s1.271,0.813,1.66,1.43c0.396,0.608,0.592,1.313,0.592,2.1c0,0.688-0.121,1.33-0.354,1.938
				c-0.242,0.604-0.615,1.219-1.121,1.854c-0.506,0.636-1.398,1.529-2.676,2.699l-1.916,1.807v0.146h6.48L414.855,261.271
				L414.855,261.271z"/>
			<path fill="#FFFFFF" d="M426.188,249.708c0,0.935-0.273,1.726-0.846,2.375c-0.563,0.646-1.355,1.104-2.374,1.349v0.063
				c1.202,0.146,2.111,0.518,2.729,1.098c0.608,0.58,0.929,1.363,0.929,2.349c0,1.433-0.521,2.55-1.563,3.347
				c-1.039,0.799-2.521,1.197-4.453,1.197c-1.605,0-3.05-0.268-4.3-0.805V258c0.577,0.291,1.213,0.521,1.905,0.713
				c0.692,0.184,1.379,0.271,2.059,0.271c1.039,0,1.813-0.176,2.313-0.526c0.496-0.354,0.742-0.924,0.742-1.699
				c0-0.697-0.283-1.192-0.854-1.484c-0.571-0.292-1.479-0.438-2.729-0.438h-1.137v-2.416h1.151c1.154,0,1.999-0.148,2.532-0.453
				c0.53-0.307,0.8-0.816,0.8-1.559c0-1.129-0.707-1.689-2.119-1.689c-0.489,0-0.986,0.08-1.493,0.242
				c-0.506,0.162-1.063,0.44-1.687,0.852l-1.457-2.17c1.354-0.979,2.979-1.475,4.854-1.475c1.542,0,2.771,0.313,3.653,0.938
				C425.75,247.723,426.188,248.592,426.188,249.708z"/>
			<path fill="#FFFFFF" d="M433.401,246.18c1.438,0,2.576,0.324,3.449,0.973s1.313,1.523,1.313,2.624
				c0,0.763-0.211,1.438-0.637,2.033c-0.427,0.594-1.104,1.126-2.033,1.595c1.104,0.6,1.911,1.223,2.396,1.87
				c0.486,0.647,0.729,1.36,0.729,2.136c0,1.225-0.479,2.207-1.438,2.949c-0.958,0.744-2.218,1.116-3.78,1.116
				c-1.631,0-2.9-0.347-3.842-1.039c-0.931-0.692-1.396-1.675-1.396-2.944c0-0.85,0.228-1.604,0.679-2.263
				c0.452-0.659,1.177-1.239,2.176-1.742c-0.85-0.536-1.461-1.11-1.834-1.722c-0.374-0.612-0.562-1.281-0.562-2.008
				c0-1.066,0.438-1.93,1.317-2.59C430.837,246.51,431.981,246.18,433.401,246.18z M431.086,257.308
				c0,0.584,0.202,1.039,0.604,1.364c0.407,0.326,0.964,0.488,1.671,0.488c0.781,0,1.365-0.168,1.763-0.513
				c0.388-0.336,0.571-0.771,0.571-1.321c0-0.455-0.188-0.89-0.565-1.279c-0.395-0.396-1.017-0.818-1.87-1.271
				C431.806,255.446,431.086,256.29,431.086,257.308z M433.386,248.482c-0.537,0-0.971,0.14-1.3,0.413s-0.494,0.646-0.494,1.104
				c0,0.408,0.131,0.771,0.393,1.098c0.271,0.32,0.735,0.652,1.433,0.992c0.654-0.313,1.131-0.633,1.396-0.959
				c0.271-0.324,0.397-0.701,0.397-1.131c0-0.473-0.172-0.84-0.52-1.109C434.35,248.62,433.919,248.482,433.386,248.482z"/>
		</g>
		<g>
			<path fill="#FFFFFF" d="M414.855,145.505h-10.413v-2.191l3.738-3.781c1.107-1.134,1.832-1.92,2.172-2.359
				c0.34-0.439,0.584-0.844,0.732-1.218c0.146-0.374,0.225-0.761,0.225-1.162c0-0.598-0.164-1.042-0.494-1.335
				c-0.328-0.292-0.77-0.438-1.313-0.438c-0.576,0-1.146,0.132-1.688,0.397c-0.545,0.265-1.104,0.642-1.691,1.131l-1.723-2.028
				c0.732-0.625,1.352-1.066,1.824-1.325c0.482-0.258,1.008-0.457,1.578-0.596s1.209-0.209,1.916-0.209
				c0.932,0,1.754,0.17,2.467,0.51c0.713,0.34,1.271,0.815,1.66,1.427c0.396,0.611,0.592,1.311,0.592,2.099
				c0,0.687-0.121,1.33-0.354,1.931c-0.242,0.601-0.615,1.217-1.121,1.849s-1.398,1.532-2.676,2.701l-1.916,1.804v0.143h6.48
				L414.855,145.505L414.855,145.505z"/>
			<path fill="#FFFFFF" d="M421.773,135.988c1.44,0,2.587,0.404,3.439,1.212c0.853,0.809,1.272,1.916,1.272,3.322
				c0,1.665-0.518,2.945-1.533,3.842c-1.025,0.896-2.492,1.345-4.401,1.345c-1.658,0-2.996-0.268-4.017-0.805v-2.721
				c0.529,0.285,1.154,0.518,1.875,0.698c0.714,0.18,1.391,0.27,2.021,0.27c1.925,0,2.886-0.788,2.886-2.364
				c0-1.501-0.987-2.252-2.979-2.252c-0.36,0-0.759,0.036-1.192,0.107s-0.788,0.148-1.06,0.229l-1.255-0.672l0.562-7.592h8.081
				v2.669h-5.313l-0.274,2.925l0.354-0.071C420.649,136.036,421.169,135.988,421.773,135.988z"/>
			<path fill="#FFFFFF" d="M429.753,145.505l5.594-12.229H428v-2.649h10.688v1.977l-5.635,12.901H429.753L429.753,145.505z"/>
		</g>
		<g>
			<path fill="#87868A" d="M311.004,215.429h-14.899v-4.208c0-1.979,0.296-3.407,0.886-4.29c0.601-0.886,1.523-1.325,2.81-1.325
				c0.883,0,1.604,0.246,2.185,0.739c0.574,0.491,0.946,1.211,1.116,2.153h0.104c0.396-2.248,1.577-3.373,3.57-3.373
				c1.332,0,2.371,0.449,3.118,1.35s1.121,2.152,1.121,3.77L311.004,215.429L311.004,215.429z M302.471,213.696v-2.854
				c0-1.225-0.191-2.104-0.574-2.641s-1.021-0.813-1.938-0.813c-0.834,0-1.438,0.299-1.813,0.896
				c-0.359,0.603-0.556,1.553-0.556,2.854v2.547L302.471,213.696L302.471,213.696z M309.522,213.696v-3.105
				c0-1.193-0.229-2.104-0.688-2.715c-0.476-0.604-1.193-0.912-2.188-0.912c-0.924,0-1.604,0.313-2.038,0.938
				c-0.435,0.621-0.646,1.563-0.646,2.838v2.971L309.522,213.696L309.522,213.696z"/>
			<path fill="#87868A" d="M296.804,202.304c-0.388,0-0.672-0.087-0.852-0.265c-0.188-0.185-0.271-0.396-0.271-0.656
				c0-0.295,0.091-0.547,0.273-0.76c0.185-0.211,0.466-0.316,0.846-0.316c0.382,0,0.664,0.105,0.853,0.316
				c0.188,0.213,0.28,0.465,0.28,0.76c0,0.264-0.095,0.479-0.28,0.656C297.469,202.217,297.185,202.304,296.804,202.304z
				 M311.004,202.163h-11.169v-1.551h11.169V202.163z"/>
			<path fill="#87868A" d="M311.004,196.883h-15.859v-1.691h15.856L311.004,196.883L311.004,196.883z"/>
			<path fill="#87868A" d="M311.004,191.604h-15.859v-1.69h15.856L311.004,191.604L311.004,191.604z"/>
			<path fill="#87868A" d="M296.804,186.469c-0.388,0-0.672-0.09-0.852-0.266c-0.188-0.183-0.271-0.396-0.271-0.656
				c0-0.293,0.091-0.547,0.273-0.758c0.185-0.213,0.466-0.317,0.846-0.317c0.382,0,0.664,0.104,0.853,0.317
				c0.188,0.211,0.28,0.465,0.28,0.758c0,0.264-0.095,0.479-0.28,0.656C297.469,186.379,297.185,186.469,296.804,186.469z
				 M311.004,186.328h-11.169v-1.551h11.169V186.328z"/>
			<path fill="#87868A" d="M305.395,181.668c-1.813,0-3.229-0.455-4.247-1.36c-1.014-0.908-1.521-2.168-1.521-3.78
				c0-1.558,0.519-2.795,1.557-3.713c1.037-0.918,2.439-1.377,4.211-1.377c1.824,0,3.248,0.457,4.271,1.372
				c1.021,0.914,1.537,2.178,1.537,3.789c0,0.996-0.234,1.88-0.705,2.651c-0.479,0.771-1.146,1.367-2.021,1.787
				S306.567,181.668,305.395,181.668z M305.395,179.937c1.43,0,2.521-0.286,3.271-0.856c0.749-0.563,1.123-1.412,1.123-2.521
				s-0.372-1.951-1.117-2.524c-0.745-0.574-1.838-0.858-3.273-0.858c-1.423,0-2.504,0.284-3.243,0.858
				c-0.729,0.573-1.104,1.424-1.104,2.547c0,1.106,0.362,1.943,1.093,2.513C302.86,179.654,303.957,179.937,305.395,179.937z"/>
			<path fill="#87868A" d="M311.004,168.442h-11.169v-1.376l1.509-0.275v-0.081c-0.543-0.347-0.965-0.832-1.265-1.457
				c-0.309-0.625-0.447-1.321-0.447-2.089c0-1.346,0.323-2.357,0.973-3.037c0.649-0.68,1.688-1.02,3.113-1.02h7.286v1.692h-7.239
				c-0.913,0-1.594,0.207-2.043,0.621c-0.449,0.415-0.674,1.063-0.674,1.946c0,1.169,0.313,2.024,0.949,2.568
				c0.634,0.543,1.679,0.815,3.136,0.815h5.871V168.442z"/>
			<path fill="#87868A" d="M309.262,150.713h-1.596c0.252-0.563,0.457-1.214,0.616-1.951c0.15-0.737,0.229-1.408,0.229-2.013h-4.479
				c-0.44,1.393-0.954,2.369-1.539,2.93c-0.584,0.562-1.341,0.841-2.271,0.841c-0.891,0-1.616-0.345-2.188-1.034
				c-0.57-0.689-0.917-1.602-1.039-2.736h-1.854v-1.335h1.834c0.034-1.246,0.285-2.448,0.762-3.607l1.337,0.53
				c-0.399,1.009-0.646,2.035-0.723,3.077h4.433c0.339-1.063,0.671-1.859,0.983-2.389c0.322-0.528,0.693-0.918,1.11-1.169
				c0.418-0.25,0.926-0.376,1.521-0.376c0.927,0,1.688,0.346,2.291,1.037c0.604,0.691,0.979,1.656,1.146,2.896h2.354v1.335h-2.267
				c0,0.761-0.063,1.498-0.181,2.212C309.64,149.675,309.474,150.259,309.262,150.713z M300.228,148.789
				c0.521,0,0.938-0.152,1.243-0.456c0.313-0.304,0.607-0.831,0.887-1.582h-3.938c0.104,0.669,0.313,1.177,0.637,1.521
				C299.373,148.617,299.76,148.789,300.228,148.789z M308.424,145.416c-0.204-1.467-0.829-2.201-1.875-2.201
				c-0.489,0-0.886,0.15-1.188,0.452c-0.302,0.301-0.603,0.884-0.896,1.749H308.424z"/>
		</g>
		
			<line fill="none" stroke="#000000" stroke-width="0.25" stroke-miterlimit="10" x1="341.833" y1="74.725" x2="341.833" y2="322.754"/>
		
			<line fill="none" stroke="#000000" stroke-width="0.25" stroke-miterlimit="10" x1="472.544" y1="322.754" x2="328.106" y2="322.754"/>
		
			<line fill="none" stroke="#000000" stroke-width="0.25" stroke-miterlimit="10" x1="472.544" y1="74.725" x2="328.106" y2="74.725"/>
	</g>
	<g>
		<path fill="#666666" d="M46.391,35.996c0-1.633,0.327-3.063,0.982-4.292c0.655-1.228,1.6-2.166,2.831-2.814
			s2.675-0.972,4.329-0.972c1.676,0,3.237,0.308,4.684,0.924l-0.709,1.611c-1.418-0.602-2.781-0.902-4.093-0.902
			c-1.912,0-3.405,0.569-4.479,1.708c-1.074,1.139-1.611,2.718-1.611,4.737c0,2.127,0.517,3.74,1.552,4.839
			c1.035,1.1,2.556,1.649,4.561,1.649c1.088,0,2.151-0.125,3.189-0.377v-4.854h-3.513V35.62h5.339v7.648
			c-0.831,0.262-1.676,0.459-2.535,0.594c-0.858,0.134-1.854,0.201-2.985,0.201c-2.378,0-4.229-0.707-5.555-2.122
			C47.052,40.527,46.391,38.545,46.391,35.996z"/>
		<path fill="#666666" d="M62.954,43.849V27.133h1.783v16.715H62.954z"/>
		<path fill="#666666" d="M67.865,37.939c0-1.916,0.479-3.408,1.435-4.477c0.956-1.069,2.285-1.603,3.984-1.603
			c1.642,0,2.947,0.547,3.915,1.641s1.451,2.574,1.451,4.439c0,1.923-0.482,3.424-1.446,4.503c-0.964,1.08-2.296,1.62-3.995,1.62
			c-1.05,0-1.98-0.248-2.795-0.743c-0.813-0.495-1.441-1.205-1.885-2.13C68.085,40.265,67.865,39.182,67.865,37.939z M69.691,37.939
			c0,1.507,0.301,2.656,0.904,3.445c0.602,0.79,1.487,1.185,2.656,1.185s2.058-0.393,2.663-1.179
			c0.606-0.786,0.909-1.937,0.909-3.451c0-1.5-0.303-2.64-0.909-3.419c-0.605-0.778-1.501-1.168-2.684-1.168
			c-1.169,0-2.051,0.384-2.646,1.152C69.988,35.272,69.691,36.418,69.691,37.939z"/>
		<path fill="#666666" d="M81.808,43.849V27.133h1.782v4.061c0,0.91-0.028,1.726-0.086,2.449h0.086
			c0.831-1.174,2.063-1.762,3.695-1.762c1.54,0,2.736,0.528,3.588,1.584c0.853,1.057,1.278,2.551,1.278,4.485
			c0,1.934-0.43,3.436-1.289,4.506c-0.859,1.071-2.052,1.606-3.578,1.606c-0.767,0-1.466-0.142-2.1-0.424
			c-0.635-0.282-1.166-0.718-1.596-1.305H83.46l-0.376,1.515H81.808z M83.59,37.951c0,1.654,0.275,2.838,0.827,3.55
			c0.551,0.713,1.437,1.069,2.653,1.069c1.096,0,1.912-0.399,2.449-1.198c0.537-0.798,0.806-1.946,0.806-3.443
			c0-1.532-0.269-2.675-0.806-3.427s-1.368-1.128-2.492-1.128c-1.218,0-2.095,0.349-2.632,1.047
			C83.859,35.119,83.59,36.296,83.59,37.951z"/>
		<path fill="#666666" d="M94.407,40.604c0-2.371,1.904-3.614,5.712-3.729l2.001-0.065v-0.739c0-0.935-0.198-1.625-0.595-2.071
			c-0.397-0.446-1.031-0.669-1.903-0.669c-0.979,0-2.087,0.305-3.324,0.914l-0.554-1.369c0.58-0.311,1.215-0.554,1.907-0.73
			c0.69-0.176,1.384-0.265,2.079-0.265c1.401,0,2.44,0.312,3.117,0.935c0.676,0.623,1.014,1.622,1.014,2.997v8.035h-1.321
			l-0.354-1.656h-0.086c-0.586,0.73-1.17,1.225-1.753,1.483c-0.583,0.259-1.311,0.388-2.183,0.388c-1.173,0-2.092-0.3-2.758-0.899
			C94.74,42.564,94.407,41.711,94.407,40.604z M96.298,40.626c0,0.648,0.195,1.141,0.584,1.479c0.39,0.338,0.936,0.507,1.636,0.507
			c1.107,0,1.979-0.306,2.61-0.917c0.634-0.612,0.949-1.468,0.949-2.569v-1.068l-1.78,0.075c-1.416,0.05-2.436,0.272-3.062,0.664
			C96.61,39.189,96.298,39.799,96.298,40.626z"/>
		<path fill="#666666" d="M107.525,43.849V27.133h1.783v16.715H107.525z"/>
		<path fill="#666666" d="M118.149,38.059c0-1.897,0.466-3.405,1.396-4.522c0.932-1.117,2.184-1.676,3.754-1.676
			c1.471,0,2.634,0.485,3.49,1.456s1.285,2.25,1.285,3.84v1.128h-8.1c0.036,1.382,0.386,2.432,1.049,3.147
			c0.664,0.716,1.598,1.074,2.803,1.074c1.264,0,2.513-0.265,3.748-0.795v1.59c-0.628,0.272-1.223,0.467-1.783,0.585
			c-0.561,0.118-1.236,0.177-2.029,0.177c-1.735,0-3.105-0.53-4.108-1.59C118.65,41.414,118.149,39.941,118.149,38.059z
			 M120.018,36.833h6.166c0-1.124-0.251-1.985-0.753-2.583s-1.22-0.897-2.152-0.897c-0.947,0-1.702,0.308-2.266,0.924
			C120.449,34.894,120.117,35.746,120.018,36.833z"/>
		<path fill="#666666" d="M130.395,34.968c0-0.961,0.39-1.719,1.169-2.275c0.778-0.556,1.849-0.833,3.208-0.833
			c1.26,0,2.491,0.258,3.693,0.773l-0.622,1.452c-1.178-0.488-2.244-0.732-3.201-0.732c-0.848,0-1.485,0.133-1.916,0.398
			c-0.432,0.265-0.646,0.632-0.646,1.098c0,0.316,0.081,0.585,0.242,0.808c0.161,0.223,0.422,0.434,0.78,0.635
			s1.048,0.492,2.066,0.872c1.396,0.51,2.334,1.023,2.816,1.54c0.48,0.517,0.722,1.167,0.722,1.949c0,1.09-0.406,1.931-1.218,2.522
			c-0.813,0.592-1.952,0.887-3.418,0.887c-1.559,0-2.774-0.243-3.646-0.73v-1.646c0.564,0.287,1.171,0.513,1.817,0.678
			c0.647,0.165,1.271,0.248,1.872,0.248c0.933,0,1.65-0.149,2.153-0.447c0.502-0.298,0.753-0.752,0.753-1.362
			c0-0.459-0.199-0.852-0.599-1.179c-0.397-0.327-1.175-0.712-2.331-1.158c-1.098-0.409-1.877-0.766-2.336-1.071
			c-0.46-0.305-0.802-0.651-1.025-1.039C130.504,35.968,130.395,35.506,130.395,34.968z"/>
		<path fill="#666666" d="M140.083,33.46v-0.859l1.688-0.741l0.752-2.514h1.031v2.729h3.416v1.386h-3.416v6.945
			c0,0.711,0.168,1.256,0.505,1.637c0.336,0.381,0.798,0.571,1.386,0.571c0.314,0,0.619-0.023,0.913-0.07
			c0.293-0.047,0.525-0.095,0.698-0.146v1.348c-0.193,0.092-0.479,0.167-0.854,0.228c-0.376,0.06-0.714,0.09-1.015,0.09
			c-2.277,0-3.416-1.199-3.416-3.599V33.46H140.083z"/>
		<path fill="#666666" d="M149.257,28.884c0-0.408,0.093-0.707,0.277-0.897c0.186-0.189,0.416-0.285,0.693-0.285
			c0.309,0,0.574,0.097,0.799,0.29c0.224,0.193,0.336,0.491,0.336,0.892c0,0.401-0.112,0.7-0.336,0.897
			c-0.225,0.197-0.49,0.295-0.799,0.295c-0.277,0-0.508-0.098-0.693-0.295C149.35,29.584,149.257,29.286,149.257,28.884z
			 M149.407,43.849V32.075h1.633v11.773L149.407,43.849L149.407,43.849z"/>
		<path fill="#666666" d="M154.973,43.849V32.075h1.449l0.29,1.59h0.086c0.336-0.566,0.812-1.009,1.424-1.327
			c0.611-0.319,1.298-0.478,2.057-0.478c1.839,0,3.042,0.659,3.609,1.978h0.086c0.351-0.609,0.858-1.091,1.524-1.446
			s1.425-0.532,2.277-0.532c1.332,0,2.329,0.342,2.992,1.026c0.662,0.684,0.994,1.778,0.994,3.282v7.681h-1.783v-7.675
			c0-0.94-0.201-1.645-0.603-2.115c-0.4-0.47-1.023-0.705-1.869-0.705c-1.109,0-1.93,0.319-2.46,0.958
			c-0.529,0.639-0.795,1.622-0.795,2.949v6.588h-1.783v-7.675c0-0.94-0.2-1.645-0.602-2.115c-0.401-0.47-1.028-0.705-1.879-0.705
			c-1.117,0-1.937,0.335-2.455,1.006c-0.521,0.671-0.779,1.771-0.779,3.299v6.189L154.973,43.849L154.973,43.849z"/>
		<path fill="#666666" d="M174.555,40.604c0-2.371,1.903-3.614,5.712-3.729l2.001-0.065v-0.739c0-0.935-0.198-1.625-0.596-2.071
			c-0.396-0.446-1.03-0.669-1.902-0.669c-0.979,0-2.087,0.305-3.324,0.914l-0.554-1.369c0.58-0.311,1.215-0.554,1.906-0.73
			c0.691-0.176,1.385-0.265,2.079-0.265c1.402,0,2.441,0.312,3.117,0.935s1.014,1.622,1.014,2.997v8.035h-1.32l-0.354-1.656h-0.086
			c-0.586,0.73-1.17,1.225-1.753,1.483c-0.583,0.259-1.31,0.388-2.182,0.388c-1.173,0-2.092-0.3-2.758-0.899
			C174.887,42.564,174.555,41.711,174.555,40.604z M176.446,40.626c0,0.648,0.195,1.141,0.584,1.479s0.935,0.507,1.635,0.507
			c1.108,0,1.979-0.306,2.611-0.917c0.633-0.612,0.949-1.468,0.949-2.569v-1.068l-1.78,0.075c-1.416,0.05-2.437,0.272-3.063,0.664
			C176.757,39.189,176.446,39.799,176.446,40.626z"/>
		<path fill="#666666" d="M186.114,33.46v-0.859l1.687-0.741l0.753-2.514h1.03v2.729H193v1.386h-3.416v6.945
			c0,0.711,0.168,1.256,0.505,1.637c0.336,0.381,0.799,0.571,1.387,0.571c0.314,0,0.619-0.023,0.913-0.07
			c0.293-0.047,0.525-0.095,0.697-0.146v1.348c-0.192,0.092-0.478,0.167-0.854,0.228c-0.376,0.06-0.714,0.09-1.016,0.09
			c-2.276,0-3.416-1.199-3.416-3.599V33.46H186.114z"/>
		<path fill="#666666" d="M194.782,38.059c0-1.897,0.466-3.405,1.397-4.522c0.931-1.117,2.183-1.676,3.754-1.676
			c1.47,0,2.633,0.485,3.489,1.456s1.285,2.25,1.285,3.84v1.128h-8.1c0.036,1.382,0.386,2.432,1.049,3.147
			c0.664,0.716,1.598,1.074,2.803,1.074c1.265,0,2.514-0.265,3.748-0.795v1.59c-0.628,0.272-1.223,0.467-1.783,0.585
			c-0.561,0.118-1.236,0.177-2.029,0.177c-1.735,0-3.105-0.53-4.108-1.59C195.284,41.414,194.782,39.941,194.782,38.059z
			 M196.652,36.833h6.166c0-1.124-0.251-1.985-0.753-2.583s-1.219-0.897-2.152-0.897c-0.947,0-1.702,0.308-2.266,0.924
			C197.084,34.894,196.752,35.746,196.652,36.833z"/>
		<path fill="#666666" d="M207.029,34.968c0-0.961,0.39-1.719,1.169-2.275c0.779-0.556,1.849-0.833,3.208-0.833
			c1.26,0,2.491,0.258,3.694,0.773l-0.622,1.452c-1.179-0.488-2.245-0.732-3.202-0.732c-0.847,0-1.485,0.133-1.916,0.398
			s-0.646,0.632-0.646,1.098c0,0.316,0.081,0.585,0.242,0.808c0.161,0.223,0.422,0.434,0.78,0.635
			c0.359,0.201,1.048,0.492,2.067,0.872c1.396,0.51,2.334,1.023,2.815,1.54s0.722,1.167,0.722,1.949c0,1.09-0.405,1.931-1.218,2.522
			c-0.812,0.592-1.952,0.887-3.418,0.887c-1.559,0-2.773-0.243-3.646-0.73v-1.646c0.563,0.287,1.17,0.513,1.816,0.678
			c0.647,0.165,1.271,0.248,1.872,0.248c0.934,0,1.65-0.149,2.153-0.447c0.502-0.298,0.753-0.752,0.753-1.362
			c0-0.459-0.199-0.852-0.598-1.179s-1.176-0.712-2.331-1.158c-1.099-0.409-1.877-0.766-2.336-1.071
			c-0.46-0.305-0.803-0.651-1.026-1.039S207.029,35.506,207.029,34.968z"/>
	</g>
	<g>
		<path fill="#666666" d="M317.217,43.849V28.144h8.755v1.633h-6.929v5.027h6.51v1.633h-6.51v5.779h6.929v1.633H317.217z"/>
		<path fill="#666666" d="M329.29,38.263V28.144h1.826v10.264c0,1.313,0.358,2.32,1.074,3.023c0.716,0.703,1.77,1.054,3.158,1.054
			c1.325,0,2.345-0.353,3.062-1.06s1.074-1.72,1.074-3.04V28.144h1.826v10.162c0,1.791-0.541,3.198-1.622,4.222
			c-1.082,1.024-2.567,1.536-4.458,1.536s-3.354-0.516-4.388-1.547C329.807,41.484,329.29,40.066,329.29,38.263z"/>
		<path fill="#666666" d="M344.384,43.849v-1.516l4.136-4.174c1.26-1.28,2.091-2.193,2.492-2.74c0.4-0.546,0.702-1.079,0.901-1.596
			c0.2-0.518,0.302-1.075,0.302-1.672c0-0.841-0.254-1.508-0.764-2c-0.509-0.493-1.214-0.739-2.115-0.739
			c-0.652,0-1.271,0.108-1.854,0.324c-0.584,0.216-1.234,0.607-1.95,1.176l-0.944-1.219c1.445-1.182,3.021-1.773,4.727-1.773
			c1.475,0,2.632,0.376,3.47,1.127c0.838,0.752,1.257,1.762,1.257,3.03c0,1-0.278,1.988-0.838,2.966
			c-0.559,0.979-1.604,2.215-3.137,3.711l-3.438,3.376v0.086h8.077v1.633H344.384z"/>
		<path fill="#666666" d="M357.006,39.841c0-1.797,1.102-3.197,3.307-4.2c-0.999-0.559-1.716-1.162-2.15-1.81
			c-0.434-0.648-0.65-1.373-0.65-2.175c0-1.139,0.423-2.046,1.27-2.723c0.848-0.677,1.979-1.015,3.398-1.015
			c1.437,0,2.576,0.333,3.417,0.999s1.261,1.586,1.261,2.761c0,0.773-0.242,1.479-0.724,2.116c-0.483,0.638-1.254,1.218-2.313,1.74
			c1.282,0.609,2.192,1.248,2.732,1.917c0.54,0.67,0.81,1.445,0.81,2.326c0,1.304-0.456,2.344-1.369,3.121s-2.163,1.166-3.75,1.166
			c-1.681,0-2.974-0.367-3.879-1.101C357.458,42.229,357.006,41.188,357.006,39.841z M358.788,39.884
			c0,0.859,0.299,1.529,0.896,2.009c0.597,0.48,1.436,0.72,2.515,0.72c1.065,0,1.896-0.25,2.488-0.752
			c0.593-0.501,0.89-1.188,0.89-2.063c0-0.694-0.278-1.312-0.836-1.853s-1.529-1.065-2.917-1.574
			c-1.064,0.458-1.837,0.965-2.315,1.52C359.028,38.446,358.788,39.11,358.788,39.884z M359.294,31.73
			c0,0.659,0.211,1.225,0.633,1.697c0.421,0.473,1.201,0.945,2.337,1.418c1.021-0.43,1.746-0.892,2.171-1.386
			s0.638-1.07,0.638-1.729c0-0.723-0.259-1.298-0.776-1.724c-0.52-0.426-1.231-0.639-2.14-0.639c-0.894,0-1.594,0.215-2.102,0.645
			C359.548,30.441,359.294,31.016,359.294,31.73z"/>
		<path fill="#666666" d="M375.417,38.059c0-1.897,0.467-3.405,1.397-4.522c0.931-1.117,2.183-1.676,3.754-1.676
			c1.47,0,2.633,0.485,3.49,1.456c0.855,0.971,1.285,2.25,1.285,3.84v1.128h-8.101c0.036,1.382,0.387,2.432,1.049,3.147
			c0.664,0.716,1.599,1.074,2.804,1.074c1.264,0,2.513-0.265,3.748-0.795v1.59c-0.628,0.272-1.224,0.467-1.783,0.585
			c-0.562,0.118-1.237,0.177-2.03,0.177c-1.734,0-3.104-0.53-4.107-1.59C375.92,41.414,375.417,39.941,375.417,38.059z
			 M377.286,36.833h6.166c0-1.124-0.251-1.985-0.753-2.583s-1.219-0.897-2.151-0.897c-0.947,0-1.702,0.308-2.267,0.924
			C377.719,34.894,377.387,35.746,377.286,36.833z"/>
		<path fill="#666666" d="M387.663,34.968c0-0.961,0.391-1.719,1.169-2.275c0.779-0.556,1.85-0.833,3.208-0.833
			c1.261,0,2.492,0.258,3.695,0.773l-0.623,1.452c-1.178-0.488-2.244-0.732-3.201-0.732c-0.847,0-1.484,0.133-1.916,0.398
			c-0.431,0.265-0.646,0.632-0.646,1.098c0,0.316,0.081,0.585,0.242,0.808c0.161,0.223,0.422,0.434,0.78,0.635
			s1.048,0.492,2.066,0.872c1.396,0.51,2.335,1.023,2.816,1.54c0.48,0.517,0.723,1.167,0.723,1.949c0,1.09-0.406,1.931-1.219,2.522
			c-0.813,0.592-1.951,0.887-3.418,0.887c-1.56,0-2.774-0.243-3.646-0.73v-1.646c0.564,0.287,1.17,0.513,1.817,0.678
			c0.646,0.165,1.271,0.248,1.872,0.248c0.934,0,1.649-0.149,2.152-0.447s0.754-0.752,0.754-1.362c0-0.459-0.199-0.852-0.599-1.179
			c-0.396-0.327-1.175-0.712-2.33-1.158c-1.098-0.409-1.877-0.766-2.336-1.071c-0.46-0.305-0.802-0.651-1.025-1.039
			C387.775,35.968,387.663,35.506,387.663,34.968z"/>
		<path fill="#666666" d="M397.353,33.46v-0.859l1.686-0.741l0.753-2.514h1.03v2.729h3.416v1.386h-3.416v6.945
			c0,0.711,0.168,1.256,0.506,1.637c0.336,0.381,0.799,0.571,1.386,0.571c0.314,0,0.619-0.023,0.914-0.07
			c0.293-0.047,0.524-0.095,0.696-0.146v1.348c-0.192,0.092-0.478,0.167-0.854,0.228c-0.376,0.06-0.715,0.09-1.017,0.09
			c-2.276,0-3.416-1.199-3.416-3.599V33.46H397.353z"/>
		<path fill="#666666" d="M406.526,28.884c0-0.408,0.092-0.707,0.277-0.897c0.186-0.189,0.416-0.285,0.693-0.285
			c0.309,0,0.574,0.097,0.799,0.29c0.225,0.193,0.336,0.491,0.336,0.892c0,0.401-0.111,0.7-0.336,0.897
			c-0.225,0.197-0.49,0.295-0.799,0.295c-0.277,0-0.51-0.098-0.693-0.295C406.618,29.584,406.526,29.286,406.526,28.884z
			 M406.677,43.849V32.075h1.633v11.773L406.677,43.849L406.677,43.849z"/>
		<path fill="#666666" d="M412.241,43.849V32.075h1.449l0.291,1.59h0.086c0.336-0.566,0.812-1.009,1.423-1.327
			c0.612-0.319,1.298-0.478,2.059-0.478c1.84,0,3.043,0.659,3.608,1.978h0.086c0.351-0.609,0.859-1.091,1.525-1.446
			s1.424-0.532,2.277-0.532c1.332,0,2.327,0.342,2.99,1.026c0.662,0.684,0.993,1.778,0.993,3.282v7.681h-1.783v-7.675
			c0-0.94-0.199-1.645-0.602-2.115c-0.4-0.47-1.023-0.705-1.869-0.705c-1.108,0-1.93,0.319-2.459,0.958
			c-0.531,0.639-0.795,1.622-0.795,2.949v6.588h-1.783v-7.675c0-0.94-0.201-1.645-0.602-2.115c-0.402-0.47-1.028-0.705-1.881-0.705
			c-1.117,0-1.937,0.335-2.454,1.006c-0.52,0.671-0.777,1.771-0.777,3.299v6.189L412.241,43.849L412.241,43.849z"/>
		<path fill="#666666" d="M431.823,40.604c0-2.371,1.904-3.614,5.713-3.729l2-0.065v-0.739c0-0.935-0.196-1.625-0.595-2.071
			c-0.397-0.446-1.031-0.669-1.903-0.669c-0.979,0-2.088,0.305-3.323,0.914l-0.555-1.369c0.58-0.311,1.217-0.554,1.907-0.73
			c0.69-0.176,1.383-0.265,2.078-0.265c1.402,0,2.441,0.312,3.117,0.935s1.014,1.622,1.014,2.997v8.035h-1.319l-0.355-1.656h-0.086
			c-0.586,0.73-1.17,1.225-1.752,1.483c-0.584,0.259-1.312,0.388-2.184,0.388c-1.173,0-2.093-0.3-2.758-0.899
			C432.156,42.564,431.823,41.711,431.823,40.604z M433.715,40.626c0,0.648,0.194,1.141,0.585,1.479
			c0.39,0.338,0.935,0.507,1.635,0.507c1.108,0,1.979-0.306,2.61-0.917c0.633-0.612,0.948-1.468,0.948-2.569v-1.068l-1.778,0.075
			c-1.416,0.05-2.437,0.272-3.063,0.664C434.026,39.189,433.715,39.799,433.715,40.626z"/>
		<path fill="#666666" d="M443.383,33.46v-0.859l1.688-0.741l0.752-2.514h1.031v2.729h3.416v1.386h-3.416v6.945
			c0,0.711,0.168,1.256,0.504,1.637c0.337,0.381,0.799,0.571,1.387,0.571c0.314,0,0.619-0.023,0.912-0.07
			c0.294-0.047,0.527-0.095,0.699-0.146v1.348c-0.193,0.092-0.479,0.167-0.854,0.228c-0.377,0.06-0.715,0.09-1.016,0.09
			c-2.277,0-3.416-1.199-3.416-3.599V33.46H443.383z"/>
		<path fill="#666666" d="M452.052,38.059c0-1.897,0.465-3.405,1.396-4.522c0.932-1.117,2.185-1.676,3.754-1.676
			c1.472,0,2.635,0.485,3.49,1.456c0.856,0.971,1.285,2.25,1.285,3.84v1.128h-8.1c0.034,1.382,0.385,2.432,1.049,3.147
			c0.664,0.716,1.598,1.074,2.803,1.074c1.264,0,2.514-0.265,3.748-0.795v1.59c-0.628,0.272-1.223,0.467-1.783,0.585
			c-0.56,0.118-1.236,0.177-2.029,0.177c-1.734,0-3.104-0.53-4.107-1.59C452.552,41.414,452.052,39.941,452.052,38.059z
			 M453.922,36.833h6.166c0-1.124-0.252-1.985-0.754-2.583c-0.503-0.598-1.22-0.897-2.152-0.897c-0.947,0-1.701,0.308-2.267,0.924
			C454.352,34.894,454.02,35.746,453.922,36.833z"/>
		<path fill="#666666" d="M464.299,34.968c0-0.961,0.389-1.719,1.169-2.275c0.779-0.556,1.849-0.833,3.208-0.833
			c1.26,0,2.492,0.258,3.694,0.773l-0.622,1.452c-1.179-0.488-2.244-0.732-3.201-0.732c-0.848,0-1.485,0.133-1.916,0.398
			c-0.432,0.265-0.646,0.632-0.646,1.098c0,0.316,0.081,0.585,0.242,0.808c0.162,0.223,0.422,0.434,0.781,0.635
			c0.357,0.201,1.047,0.492,2.065,0.872c1.396,0.51,2.335,1.023,2.816,1.54s0.723,1.167,0.723,1.949c0,1.09-0.405,1.931-1.219,2.522
			c-0.812,0.592-1.951,0.887-3.418,0.887c-1.559,0-2.773-0.243-3.646-0.73v-1.646c0.563,0.287,1.171,0.513,1.817,0.678
			c0.646,0.165,1.271,0.248,1.871,0.248c0.934,0,1.65-0.149,2.153-0.447c0.502-0.298,0.753-0.752,0.753-1.362
			c0-0.459-0.199-0.852-0.599-1.179c-0.396-0.327-1.175-0.712-2.329-1.158c-1.099-0.409-1.878-0.766-2.337-1.071
			c-0.461-0.305-0.803-0.651-1.026-1.039C464.409,35.968,464.299,35.506,464.299,34.968z"/>
	</g>
	<rect x="96.537" y="354.104" fill="#F2C466" width="17.803" height="17.801"/>
	<g>
		<path fill="#666666" d="M121.178,364.125c0-1.029,0.19-1.932,0.571-2.705c0.381-0.775,0.935-1.371,1.66-1.791
			c0.727-0.418,1.582-0.629,2.566-0.629c1.049,0,1.965,0.191,2.748,0.574l-0.492,0.998c-0.756-0.355-1.512-0.533-2.271-0.533
			c-1.098,0-1.965,0.367-2.6,1.098c-0.637,0.73-0.955,1.73-0.955,3.002c0,1.309,0.307,2.316,0.92,3.029
			c0.613,0.711,1.486,1.068,2.621,1.068c0.697,0,1.492-0.125,2.387-0.377v1.023c-0.692,0.262-1.547,0.393-2.563,0.393
			c-1.472,0-2.605-0.447-3.4-1.342C121.575,367.042,121.178,365.77,121.178,364.125z"/>
		<path fill="#666666" d="M129.942,365.379c0-1.219,0.305-2.17,0.913-2.85s1.454-1.02,2.535-1.02c1.046,0,1.876,0.348,2.49,1.043
			c0.616,0.697,0.925,1.639,0.925,2.826c0,1.223-0.308,2.178-0.921,2.865c-0.612,0.686-1.461,1.029-2.542,1.029
			c-0.669,0-1.262-0.156-1.778-0.473c-0.519-0.314-0.918-0.768-1.199-1.355C130.082,366.858,129.942,366.168,129.942,365.379z
			 M131.104,365.379c0,0.959,0.19,1.689,0.575,2.191c0.383,0.504,0.946,0.754,1.69,0.754c0.743,0,1.31-0.25,1.694-0.75
			s0.578-1.232,0.578-2.195c0-0.955-0.193-1.68-0.578-2.176c-0.387-0.496-0.955-0.744-1.708-0.744c-0.744,0-1.307,0.244-1.686,0.734
			C131.293,363.682,131.104,364.411,131.104,365.379z"/>
		<path fill="#666666" d="M138.335,363.487c0-0.609,0.248-1.094,0.744-1.447s1.177-0.529,2.042-0.529
			c0.802,0,1.585,0.164,2.352,0.492l-0.396,0.924c-0.75-0.311-1.429-0.467-2.037-0.467c-0.539,0-0.944,0.086-1.22,0.254
			c-0.275,0.17-0.411,0.402-0.411,0.699c0,0.201,0.052,0.373,0.154,0.514c0.102,0.143,0.269,0.277,0.496,0.404
			c0.229,0.129,0.667,0.313,1.314,0.555c0.89,0.324,1.486,0.652,1.792,0.98c0.308,0.328,0.46,0.742,0.46,1.24
			c0,0.693-0.259,1.229-0.774,1.605c-0.518,0.375-1.241,0.563-2.175,0.563c-0.992,0-1.767-0.154-2.32-0.465v-1.047
			c0.358,0.182,0.745,0.326,1.156,0.432s0.81,0.156,1.19,0.156c0.594,0,1.05-0.094,1.37-0.283c0.319-0.188,0.479-0.479,0.479-0.865
			c0-0.293-0.128-0.543-0.381-0.75c-0.254-0.209-0.748-0.453-1.482-0.736c-0.699-0.262-1.194-0.488-1.487-0.684
			c-0.292-0.193-0.51-0.414-0.653-0.66C138.406,364.125,138.335,363.831,138.335,363.487z"/>
		<path fill="#666666" d="M144.502,362.528v-0.547l1.073-0.471l0.479-1.6h0.655v1.734h2.174v0.881h-2.174v4.422
			c0,0.451,0.107,0.799,0.321,1.039c0.214,0.242,0.508,0.363,0.882,0.363c0.2,0,0.396-0.014,0.581-0.043
			c0.187-0.031,0.335-0.061,0.444-0.094v0.857c-0.123,0.059-0.306,0.107-0.543,0.146c-0.24,0.037-0.455,0.057-0.646,0.057
			c-1.449,0-2.174-0.764-2.174-2.291v-4.457h-1.073V362.528z"/>
		<path fill="#666666" d="M154.072,369.139v-7.492h0.923l0.186,1.014h0.055c0.231-0.365,0.559-0.648,0.978-0.85
			s0.888-0.301,1.401-0.301c0.902,0,1.581,0.217,2.037,0.652s0.684,1.131,0.684,2.088v4.889h-1.135v-4.855
			c0-0.611-0.139-1.068-0.417-1.369c-0.278-0.303-0.713-0.453-1.306-0.453c-0.784,0-1.358,0.213-1.724,0.637
			c-0.364,0.426-0.547,1.127-0.547,2.104v3.939h-1.135V369.139z"/>
		<path fill="#666666" d="M162.248,365.379c0-1.219,0.306-2.17,0.913-2.85c0.609-0.68,1.454-1.02,2.535-1.02
			c1.046,0,1.876,0.348,2.491,1.043c0.616,0.697,0.924,1.639,0.924,2.826c0,1.223-0.307,2.178-0.92,2.865
			c-0.613,0.686-1.461,1.029-2.542,1.029c-0.669,0-1.262-0.156-1.779-0.473c-0.518-0.314-0.918-0.768-1.199-1.355
			C162.388,366.858,162.248,366.168,162.248,365.379z M163.41,365.379c0,0.959,0.191,1.689,0.575,2.191
			c0.383,0.504,0.947,0.754,1.69,0.754s1.31-0.25,1.694-0.75s0.578-1.232,0.578-2.195c0-0.955-0.193-1.68-0.578-2.176
			c-0.386-0.496-0.955-0.744-1.708-0.744c-0.744,0-1.306,0.244-1.685,0.734C163.599,363.682,163.41,364.411,163.41,365.379z"/>
		<path fill="#666666" d="M171.12,369.139v-7.492h0.923l0.186,1.014h0.055c0.232-0.365,0.559-0.648,0.979-0.85
			c0.419-0.201,0.887-0.301,1.4-0.301c0.902,0,1.581,0.217,2.037,0.652s0.684,1.131,0.684,2.088v4.889h-1.135v-4.855
			c0-0.611-0.139-1.068-0.417-1.369c-0.277-0.303-0.713-0.453-1.306-0.453c-0.784,0-1.358,0.213-1.724,0.637
			c-0.364,0.426-0.547,1.127-0.547,2.104v3.939h-1.135V369.139z"/>
		<path fill="#666666" d="M179.085,365.905v-1.039h3.356v1.039H179.085z"/>
		<path fill="#666666" d="M183.213,362.528v-0.512l1.341-0.41v-0.416c0-1.834,0.805-2.75,2.412-2.75
			c0.396,0,0.861,0.078,1.396,0.236l-0.294,0.898c-0.438-0.143-0.813-0.211-1.121-0.211c-0.429,0-0.745,0.143-0.95,0.426
			c-0.205,0.285-0.308,0.742-0.308,1.371v0.484h1.907v0.881h-1.907v6.611h-1.135v-6.611h-1.341V362.528z"/>
		<path fill="#666666" d="M188.401,367.075c0-1.51,1.212-2.301,3.635-2.373l1.273-0.041v-0.471c0-0.596-0.126-1.033-0.379-1.318
			c-0.252-0.283-0.656-0.426-1.211-0.426c-0.623,0-1.328,0.193-2.115,0.582l-0.354-0.871c0.369-0.197,0.773-0.354,1.213-0.465
			c0.44-0.111,0.882-0.168,1.323-0.168c0.894,0,1.554,0.197,1.983,0.594c0.431,0.396,0.646,1.033,0.646,1.908v5.113h-0.841
			l-0.226-1.055h-0.056c-0.373,0.465-0.745,0.779-1.114,0.941c-0.371,0.166-0.834,0.248-1.39,0.248c-0.747,0-1.332-0.189-1.755-0.57
			C188.613,368.321,188.401,367.778,188.401,367.075z M189.604,367.088c0,0.412,0.124,0.727,0.372,0.941s0.595,0.322,1.04,0.322
			c0.705,0,1.259-0.193,1.662-0.584c0.401-0.389,0.604-0.934,0.604-1.635v-0.68l-1.133,0.049c-0.9,0.031-1.55,0.172-1.948,0.422
			C189.803,366.174,189.604,366.563,189.604,367.088z"/>
		<path fill="#666666" d="M195.758,362.528v-0.547l1.073-0.471l0.479-1.6h0.655v1.734h2.175v0.881h-2.175v4.422
			c0,0.451,0.107,0.799,0.321,1.039c0.214,0.242,0.508,0.363,0.882,0.363c0.2,0,0.396-0.014,0.581-0.043
			c0.187-0.031,0.335-0.061,0.444-0.094v0.857c-0.123,0.059-0.305,0.107-0.543,0.146c-0.24,0.037-0.455,0.057-0.646,0.057
			c-1.448,0-2.174-0.764-2.174-2.291v-4.457h-1.073V362.528z"/>
		<path fill="#666666" d="M201.13,367.075c0-1.51,1.212-2.301,3.636-2.373l1.272-0.041v-0.471c0-0.596-0.126-1.033-0.379-1.318
			c-0.252-0.283-0.656-0.426-1.211-0.426c-0.623,0-1.328,0.193-2.115,0.582l-0.353-0.871c0.369-0.197,0.772-0.354,1.213-0.465
			c0.439-0.111,0.881-0.168,1.323-0.168c0.893,0,1.554,0.197,1.982,0.594c0.432,0.396,0.646,1.033,0.646,1.908v5.113h-0.841
			l-0.227-1.055h-0.055c-0.373,0.465-0.745,0.779-1.115,0.941c-0.371,0.166-0.834,0.248-1.389,0.248
			c-0.747,0-1.332-0.189-1.755-0.57C201.342,368.321,201.13,367.778,201.13,367.075z M202.333,367.088
			c0,0.412,0.124,0.727,0.372,0.941s0.595,0.322,1.04,0.322c0.705,0,1.259-0.193,1.662-0.584c0.402-0.389,0.604-0.934,0.604-1.635
			v-0.68l-1.134,0.049c-0.899,0.031-1.55,0.172-1.947,0.422C202.532,366.174,202.333,366.563,202.333,367.088z"/>
		<path fill="#666666" d="M209.477,369.139v-10.637h1.135v10.637H209.477z"/>
		<path fill="#666666" d="M216.238,365.44c0-1.254,0.3-2.221,0.899-2.904c0.599-0.684,1.457-1.025,2.572-1.025
			c0.36,0,0.721,0.039,1.08,0.115c0.36,0.078,0.644,0.17,0.849,0.273l-0.35,0.965c-0.251-0.102-0.523-0.184-0.819-0.25
			c-0.297-0.066-0.56-0.1-0.786-0.1c-1.522,0-2.283,0.971-2.283,2.912c0,0.92,0.186,1.627,0.558,2.119
			c0.371,0.492,0.921,0.738,1.65,0.738c0.624,0,1.265-0.135,1.921-0.402v1.004c-0.501,0.26-1.133,0.391-1.894,0.391
			c-1.086,0-1.923-0.334-2.513-1.002S216.238,366.663,216.238,365.44z"/>
		<path fill="#666666" d="M222.759,367.075c0-1.51,1.213-2.301,3.636-2.373l1.272-0.041v-0.471c0-0.596-0.126-1.033-0.379-1.318
			c-0.252-0.283-0.656-0.426-1.211-0.426c-0.623,0-1.328,0.193-2.115,0.582l-0.353-0.871c0.369-0.197,0.772-0.354,1.213-0.465
			s0.881-0.168,1.323-0.168c0.893,0,1.554,0.197,1.982,0.594c0.432,0.396,0.646,1.033,0.646,1.908v5.113h-0.841l-0.227-1.055h-0.055
			c-0.373,0.465-0.745,0.779-1.115,0.941c-0.371,0.166-0.834,0.248-1.389,0.248c-0.747,0-1.332-0.189-1.755-0.57
			C222.97,368.321,222.759,367.778,222.759,367.075z M223.962,367.088c0,0.412,0.124,0.727,0.372,0.941s0.596,0.322,1.04,0.322
			c0.705,0,1.259-0.193,1.662-0.584c0.402-0.389,0.604-0.934,0.604-1.635v-0.68l-1.134,0.049c-0.899,0.031-1.55,0.172-1.947,0.422
			C224.161,366.174,223.962,366.563,223.962,367.088z"/>
		<path fill="#666666" d="M230.628,363.487c0-0.609,0.248-1.094,0.744-1.447s1.177-0.529,2.042-0.529
			c0.802,0,1.585,0.164,2.352,0.492l-0.396,0.924c-0.75-0.311-1.429-0.467-2.037-0.467c-0.539,0-0.944,0.086-1.22,0.254
			c-0.275,0.17-0.411,0.402-0.411,0.699c0,0.201,0.052,0.373,0.154,0.514c0.102,0.143,0.269,0.277,0.496,0.404
			c0.229,0.129,0.667,0.313,1.314,0.555c0.89,0.324,1.486,0.652,1.792,0.98c0.308,0.328,0.46,0.742,0.46,1.24
			c0,0.693-0.259,1.229-0.774,1.605c-0.518,0.375-1.241,0.563-2.175,0.563c-0.992,0-1.767-0.154-2.32-0.465v-1.047
			c0.358,0.182,0.745,0.326,1.156,0.432s0.81,0.156,1.19,0.156c0.594,0,1.05-0.094,1.37-0.283c0.319-0.188,0.479-0.479,0.479-0.865
			c0-0.293-0.127-0.543-0.381-0.75c-0.254-0.209-0.748-0.453-1.482-0.736c-0.699-0.262-1.194-0.488-1.487-0.684
			c-0.292-0.193-0.51-0.414-0.653-0.66C230.699,364.125,230.628,363.831,230.628,363.487z"/>
		<path fill="#666666" d="M237.367,365.454c0-1.207,0.297-2.166,0.89-2.877c0.594-0.711,1.39-1.066,2.39-1.066
			c0.936,0,1.676,0.309,2.221,0.926s0.817,1.434,0.817,2.443v0.719h-5.154c0.021,0.879,0.245,1.547,0.668,2.002
			c0.422,0.457,1.017,0.686,1.783,0.686c0.805,0,1.6-0.168,2.386-0.508v1.014c-0.4,0.174-0.778,0.297-1.135,0.373
			c-0.357,0.074-0.787,0.111-1.292,0.111c-1.104,0-1.977-0.338-2.614-1.012C237.686,367.59,237.367,366.653,237.367,365.454z
			 M238.556,364.674h3.924c0-0.715-0.16-1.264-0.479-1.645c-0.318-0.379-0.775-0.57-1.369-0.57c-0.603,0-1.083,0.195-1.44,0.588
			C238.832,363.44,238.62,363.981,238.556,364.674z"/>
		<path fill="#666666" d="M245.161,363.487c0-0.609,0.248-1.094,0.744-1.447s1.177-0.529,2.042-0.529
			c0.802,0,1.585,0.164,2.351,0.492l-0.396,0.924c-0.75-0.311-1.429-0.467-2.037-0.467c-0.539,0-0.945,0.086-1.22,0.254
			c-0.275,0.17-0.411,0.402-0.411,0.699c0,0.201,0.052,0.373,0.154,0.514c0.102,0.143,0.269,0.277,0.495,0.404
			c0.229,0.129,0.668,0.313,1.315,0.555c0.889,0.324,1.486,0.652,1.792,0.98c0.307,0.328,0.46,0.742,0.46,1.24
			c0,0.693-0.259,1.229-0.774,1.605c-0.518,0.375-1.241,0.563-2.176,0.563c-0.991,0-1.766-0.154-2.319-0.465v-1.047
			c0.358,0.182,0.745,0.326,1.155,0.432c0.412,0.105,0.811,0.156,1.191,0.156c0.594,0,1.05-0.094,1.37-0.283
			c0.318-0.188,0.479-0.479,0.479-0.865c0-0.293-0.127-0.543-0.38-0.75c-0.254-0.209-0.748-0.453-1.482-0.736
			c-0.699-0.262-1.194-0.488-1.487-0.684c-0.292-0.193-0.51-0.414-0.653-0.66C245.232,364.125,245.161,363.831,245.161,363.487z"/>
	</g>
	<rect x="291.081" y="354.02" fill="#449FA2" width="17.804" height="17.805"/>
	<g>
		<path fill="#666666" d="M316.556,364.208c0-1.029,0.19-1.932,0.572-2.705c0.381-0.775,0.934-1.371,1.659-1.791
			c0.727-0.418,1.582-0.629,2.566-0.629c1.049,0,1.965,0.191,2.748,0.574l-0.492,0.998c-0.756-0.355-1.512-0.533-2.27-0.533
			c-1.099,0-1.965,0.365-2.601,1.098c-0.637,0.73-0.955,1.73-0.955,3.002c0,1.307,0.308,2.316,0.92,3.029
			c0.613,0.711,1.486,1.068,2.621,1.068c0.697,0,1.492-0.125,2.388-0.377v1.023c-0.693,0.262-1.547,0.393-2.564,0.393
			c-1.471,0-2.604-0.447-3.4-1.342C316.954,367.124,316.556,365.854,316.556,364.208z"/>
		<path fill="#666666" d="M325.321,365.461c0-1.219,0.306-2.17,0.913-2.85c0.609-0.68,1.454-1.02,2.535-1.02
			c1.046,0,1.876,0.348,2.491,1.043c0.616,0.697,0.924,1.639,0.924,2.826c0,1.223-0.307,2.178-0.92,2.865
			c-0.613,0.686-1.461,1.029-2.542,1.029c-0.669,0-1.262-0.156-1.779-0.473c-0.518-0.314-0.918-0.768-1.199-1.355
			C325.462,366.94,325.321,366.25,325.321,365.461z M326.483,365.461c0,0.959,0.191,1.689,0.575,2.191
			c0.383,0.504,0.947,0.754,1.69,0.754s1.31-0.25,1.694-0.75s0.578-1.232,0.578-2.195c0-0.955-0.193-1.68-0.578-2.176
			c-0.386-0.496-0.955-0.744-1.708-0.744c-0.744,0-1.306,0.244-1.685,0.734C326.673,363.764,326.483,364.493,326.483,365.461z"/>
		<path fill="#666666" d="M333.715,363.569c0-0.609,0.248-1.094,0.743-1.447c0.496-0.354,1.178-0.529,2.042-0.529
			c0.803,0,1.585,0.164,2.352,0.492l-0.396,0.924c-0.75-0.311-1.429-0.467-2.036-0.467c-0.539,0-0.945,0.086-1.221,0.254
			c-0.274,0.17-0.411,0.402-0.411,0.699c0,0.201,0.053,0.373,0.154,0.514c0.103,0.143,0.27,0.277,0.496,0.404
			c0.229,0.129,0.667,0.313,1.315,0.555c0.889,0.324,1.485,0.652,1.792,0.98s0.46,0.742,0.46,1.24c0,0.693-0.26,1.229-0.775,1.605
			c-0.517,0.375-1.241,0.563-2.175,0.563c-0.992,0-1.767-0.154-2.32-0.465v-1.047c0.359,0.182,0.745,0.326,1.156,0.432
			c0.412,0.105,0.81,0.156,1.19,0.156c0.595,0,1.051-0.094,1.37-0.283c0.319-0.188,0.479-0.479,0.479-0.865
			c0-0.293-0.127-0.543-0.38-0.75c-0.254-0.209-0.748-0.453-1.483-0.736c-0.699-0.262-1.194-0.488-1.487-0.684
			c-0.292-0.193-0.51-0.414-0.652-0.66S333.715,363.913,333.715,363.569z"/>
		<path fill="#666666" d="M339.882,362.61v-0.547l1.072-0.471l0.479-1.6h0.656v1.734h2.174v0.881h-2.174v4.42
			c0,0.453,0.106,0.801,0.32,1.041c0.214,0.242,0.509,0.363,0.883,0.363c0.199,0,0.395-0.014,0.58-0.043
			c0.187-0.031,0.335-0.061,0.444-0.094v0.857c-0.123,0.059-0.305,0.107-0.543,0.146c-0.24,0.037-0.455,0.057-0.646,0.057
			c-1.449,0-2.175-0.764-2.175-2.291v-4.457h-1.072V362.61z"/>
		<path fill="#666666" d="M348.446,362.61v-0.512l1.34-0.41v-0.416c0-1.834,0.806-2.75,2.413-2.75c0.396,0,0.861,0.078,1.396,0.236
			l-0.294,0.898c-0.438-0.143-0.813-0.213-1.121-0.213c-0.429,0-0.745,0.145-0.95,0.428c-0.205,0.285-0.308,0.74-0.308,1.371v0.484
			h1.906v0.881h-1.906v6.611h-1.136v-6.611h-1.34V362.61z"/>
		<path fill="#666666" d="M353.635,367.157c0-1.51,1.212-2.301,3.635-2.373l1.273-0.041v-0.471c0-0.596-0.126-1.033-0.38-1.318
			c-0.252-0.283-0.655-0.426-1.211-0.426c-0.623,0-1.328,0.193-2.114,0.582l-0.354-0.871c0.369-0.197,0.773-0.354,1.213-0.465
			c0.44-0.111,0.881-0.168,1.323-0.168c0.893,0,1.554,0.197,1.983,0.594c0.431,0.396,0.646,1.033,0.646,1.908v5.113h-0.841
			l-0.226-1.055h-0.056c-0.373,0.465-0.745,0.777-1.115,0.941c-0.37,0.166-0.834,0.248-1.389,0.248c-0.747,0-1.332-0.189-1.755-0.57
			C353.846,368.403,353.635,367.86,353.635,367.157z M354.838,367.17c0,0.412,0.124,0.727,0.372,0.941s0.595,0.322,1.039,0.322
			c0.705,0,1.26-0.193,1.662-0.584c0.402-0.389,0.604-0.934,0.604-1.635v-0.68l-1.133,0.049c-0.9,0.031-1.55,0.172-1.948,0.422
			S354.838,366.645,354.838,367.17z"/>
		<path fill="#666666" d="M360.99,362.61v-0.547l1.073-0.471l0.479-1.6h0.656v1.734h2.174v0.881h-2.174v4.42
			c0,0.453,0.107,0.801,0.321,1.041c0.214,0.242,0.508,0.363,0.882,0.363c0.2,0,0.396-0.014,0.581-0.043
			c0.187-0.031,0.335-0.061,0.444-0.094v0.857c-0.123,0.059-0.306,0.107-0.543,0.146c-0.24,0.037-0.455,0.057-0.646,0.057
			c-1.449,0-2.174-0.764-2.174-2.291v-4.457h-1.073V362.61z"/>
		<path fill="#666666" d="M366.363,367.157c0-1.51,1.212-2.301,3.635-2.373l1.273-0.041v-0.471c0-0.596-0.126-1.033-0.379-1.318
			c-0.252-0.283-0.656-0.426-1.211-0.426c-0.623,0-1.328,0.193-2.115,0.582l-0.353-0.871c0.369-0.197,0.772-0.354,1.213-0.465
			c0.439-0.111,0.881-0.168,1.323-0.168c0.893,0,1.554,0.197,1.982,0.594c0.431,0.396,0.646,1.033,0.646,1.908v5.113h-0.842
			l-0.226-1.055h-0.055c-0.373,0.465-0.745,0.777-1.115,0.941c-0.371,0.166-0.834,0.248-1.389,0.248
			c-0.747,0-1.332-0.189-1.756-0.57C366.574,368.403,366.363,367.86,366.363,367.157z M367.566,367.17
			c0,0.412,0.124,0.727,0.372,0.941s0.595,0.322,1.04,0.322c0.705,0,1.259-0.193,1.662-0.584c0.402-0.389,0.604-0.934,0.604-1.635
			v-0.68l-1.133,0.049c-0.899,0.031-1.55,0.172-1.948,0.422C367.765,366.256,367.566,366.645,367.566,367.17z"/>
		<path fill="#666666" d="M374.711,369.221v-10.637h1.135v10.637H374.711z"/>
		<path fill="#666666" d="M381.471,365.522c0-1.254,0.3-2.221,0.898-2.904c0.6-0.684,1.457-1.025,2.573-1.025
			c0.36,0,0.72,0.039,1.08,0.115c0.36,0.078,0.643,0.17,0.848,0.273l-0.349,0.965c-0.251-0.102-0.524-0.184-0.82-0.25
			s-0.559-0.1-0.786-0.1c-1.521,0-2.282,0.971-2.282,2.912c0,0.92,0.186,1.627,0.558,2.119c0.371,0.492,0.921,0.738,1.65,0.738
			c0.624,0,1.265-0.135,1.921-0.402v1.004c-0.501,0.26-1.133,0.391-1.895,0.391c-1.085,0-1.922-0.334-2.512-1.002
			S381.471,366.745,381.471,365.522z"/>
		<path fill="#666666" d="M387.991,367.157c0-1.51,1.212-2.301,3.636-2.373l1.272-0.041v-0.471c0-0.596-0.127-1.033-0.379-1.318
			c-0.252-0.283-0.656-0.426-1.211-0.426c-0.623,0-1.329,0.193-2.116,0.582l-0.353-0.871c0.369-0.197,0.772-0.354,1.213-0.465
			s0.88-0.168,1.324-0.168c0.893,0,1.553,0.197,1.981,0.594c0.433,0.396,0.646,1.033,0.646,1.908v5.113h-0.843l-0.225-1.055h-0.055
			c-0.373,0.465-0.746,0.777-1.115,0.941c-0.371,0.166-0.834,0.248-1.389,0.248c-0.748,0-1.333-0.189-1.756-0.57
			C388.203,368.403,387.991,367.86,387.991,367.157z M389.195,367.17c0,0.412,0.124,0.727,0.372,0.941s0.595,0.322,1.041,0.322
			c0.705,0,1.258-0.193,1.662-0.584c0.402-0.389,0.604-0.934,0.604-1.635v-0.68l-1.133,0.049c-0.899,0.031-1.55,0.172-1.949,0.422
			C389.394,366.256,389.195,366.645,389.195,367.17z"/>
		<path fill="#666666" d="M395.861,363.569c0-0.609,0.248-1.094,0.744-1.447s1.176-0.529,2.041-0.529
			c0.803,0,1.586,0.164,2.352,0.492l-0.396,0.924c-0.75-0.311-1.428-0.467-2.037-0.467c-0.539,0-0.945,0.086-1.219,0.254
			c-0.275,0.17-0.412,0.402-0.412,0.699c0,0.201,0.053,0.373,0.154,0.514c0.104,0.143,0.27,0.277,0.496,0.404
			c0.229,0.129,0.668,0.313,1.315,0.555c0.889,0.324,1.486,0.652,1.791,0.98c0.307,0.328,0.461,0.742,0.461,1.24
			c0,0.693-0.26,1.229-0.774,1.605c-0.519,0.375-1.242,0.563-2.177,0.563c-0.991,0-1.766-0.154-2.319-0.465v-1.047
			c0.358,0.182,0.746,0.326,1.155,0.432c0.412,0.105,0.812,0.156,1.191,0.156c0.594,0,1.051-0.094,1.371-0.283
			c0.317-0.188,0.479-0.479,0.479-0.865c0-0.293-0.127-0.543-0.379-0.75c-0.254-0.209-0.748-0.453-1.483-0.736
			c-0.699-0.262-1.193-0.488-1.486-0.684s-0.51-0.414-0.654-0.66C395.931,364.208,395.861,363.913,395.861,363.569z"/>
		<path fill="#666666" d="M402.599,365.536c0-1.207,0.297-2.166,0.891-2.877c0.592-0.711,1.39-1.066,2.39-1.066
			c0.936,0,1.676,0.309,2.221,0.926s0.816,1.434,0.816,2.443v0.719h-5.154c0.022,0.879,0.246,1.547,0.668,2.002
			c0.422,0.457,1.018,0.686,1.783,0.686c0.805,0,1.6-0.168,2.387-0.508v1.014c-0.4,0.174-0.779,0.297-1.135,0.373
			c-0.357,0.074-0.787,0.111-1.293,0.111c-1.105,0-1.976-0.338-2.613-1.012C402.921,367.672,402.599,366.735,402.599,365.536z
			 M403.789,364.756h3.925c0-0.715-0.16-1.264-0.48-1.645c-0.32-0.379-0.777-0.57-1.369-0.57c-0.604,0-1.084,0.195-1.439,0.588
			C404.064,363.522,403.853,364.063,403.789,364.756z"/>
		<path fill="#666666" d="M410.393,363.569c0-0.609,0.248-1.094,0.744-1.447s1.176-0.529,2.041-0.529
			c0.803,0,1.586,0.164,2.352,0.492l-0.396,0.924c-0.749-0.311-1.429-0.467-2.036-0.467c-0.539,0-0.945,0.086-1.219,0.254
			c-0.275,0.17-0.412,0.402-0.412,0.699c0,0.201,0.053,0.373,0.152,0.514c0.105,0.143,0.271,0.277,0.496,0.404
			c0.23,0.129,0.668,0.313,1.316,0.555c0.889,0.324,1.486,0.652,1.791,0.98c0.307,0.328,0.461,0.742,0.461,1.24
			c0,0.693-0.26,1.229-0.775,1.605c-0.518,0.375-1.24,0.563-2.176,0.563c-0.992,0-1.766-0.154-2.32-0.465v-1.047
			c0.359,0.182,0.746,0.326,1.156,0.432c0.412,0.105,0.813,0.156,1.191,0.156c0.594,0,1.051-0.094,1.371-0.283
			c0.318-0.188,0.479-0.479,0.479-0.865c0-0.293-0.127-0.543-0.379-0.75c-0.254-0.209-0.748-0.453-1.484-0.736
			c-0.697-0.262-1.191-0.488-1.484-0.684s-0.51-0.414-0.654-0.66C410.466,364.208,410.393,363.913,410.393,363.569z"/>
	</g>
</g>
<g id="more">
	<circle id="more3" fill="none" stroke="#67ABAD" stroke-miterlimit="10" cx="495.515" cy="12.711" r="9.439"/>
	<rect id="more2" x="494.815" y="8.679" fill="#67ABAD" width="1.292" height="8.122"/>
	<rect id="more1" x="491.4" y="12.094" fill="#67ABAD" width="8.122" height="1.292"/>
</g>
</svg>
