<?xml version="1.0" encoding="utf-8"?>
<!-- Generator: Adobe Illustrator 16.0.0, SVG Export Plug-In . SVG Version: 6.00 Build 0)  -->
<!DOCTYPE svg PUBLIC "-//W3C//DTD SVG 1.1//EN" "http://www.w3.org/Graphics/SVG/1.1/DTD/svg11.dtd">
<svg version="1.1" id="Capa_1" xmlns="http://www.w3.org/2000/svg" xmlns:xlink="http://www.w3.org/1999/xlink" x="0px" y="0px"
	 width="725px" height="284px" viewBox="0 0 725 284" enable-background="new 0 0 725 284" xml:space="preserve">
<g>
	<g>
		<path fill="#666565" d="M126.467,182.725c0-1.234,0.193-2.15,0.579-2.748s0.974-0.896,1.766-0.896
			c0.769,0,1.352,0.313,1.751,0.936s0.598,1.527,0.598,2.709c0,1.227-0.193,2.141-0.579,2.746c-0.386,0.605-0.976,0.906-1.771,0.906
			c-0.765,0-1.347-0.309-1.746-0.928S126.467,183.922,126.467,182.725z M127.292,182.725c0,1.029,0.121,1.777,0.363,2.246
			c0.242,0.469,0.628,0.703,1.157,0.703c0.536,0,0.924-0.236,1.164-0.713c0.241-0.475,0.361-1.221,0.361-2.236
			s-0.12-1.76-0.361-2.232c-0.24-0.473-0.628-0.709-1.164-0.709c-0.529,0-0.915,0.234-1.157,0.699
			C127.413,180.949,127.292,181.695,127.292,182.725z"/>
	</g>
	<g>
		<path fill="#666565" d="M166.707,186.281v-0.686l1.867-1.883c0.569-0.578,0.944-0.99,1.125-1.236
			c0.181-0.248,0.316-0.488,0.407-0.721c0.09-0.234,0.136-0.486,0.136-0.754c0-0.381-0.115-0.682-0.344-0.904
			s-0.548-0.334-0.955-0.334c-0.294,0-0.573,0.049-0.836,0.146c-0.264,0.098-0.557,0.275-0.88,0.531l-0.426-0.551
			c0.653-0.533,1.364-0.801,2.133-0.801c0.666,0,1.188,0.17,1.566,0.51c0.378,0.34,0.567,0.795,0.567,1.367
			c0,0.451-0.126,0.898-0.378,1.34c-0.252,0.441-0.724,1-1.416,1.674l-1.552,1.523v0.039h3.646v0.738H166.707z"/>
		<path fill="#666565" d="M172.395,182.725c0-1.234,0.193-2.15,0.579-2.748s0.974-0.896,1.766-0.896
			c0.769,0,1.352,0.313,1.751,0.936s0.598,1.527,0.598,2.709c0,1.227-0.193,2.141-0.579,2.746c-0.386,0.605-0.976,0.906-1.771,0.906
			c-0.765,0-1.347-0.309-1.746-0.928S172.395,183.922,172.395,182.725z M173.219,182.725c0,1.029,0.121,1.777,0.363,2.246
			c0.242,0.469,0.628,0.703,1.157,0.703c0.536,0,0.924-0.236,1.164-0.713c0.241-0.475,0.361-1.221,0.361-2.236
			s-0.12-1.76-0.361-2.232c-0.24-0.473-0.628-0.709-1.164-0.709c-0.529,0-0.915,0.234-1.157,0.699
			C173.34,180.949,173.219,181.695,173.219,182.725z"/>
	</g>
	<g>
		<path fill="#666565" d="M209.509,184.656v-0.707l3.365-4.795h0.854v4.766h1.062v0.736h-1.062v1.625h-0.761v-1.625H209.509z
			 M210.323,183.92h2.643v-2.357c0-0.461,0.016-0.984,0.048-1.566h-0.039c-0.155,0.311-0.301,0.568-0.437,0.771L210.323,183.92z"/>
		<path fill="#666565" d="M215.482,182.725c0-1.234,0.193-2.15,0.579-2.748s0.974-0.896,1.766-0.896
			c0.769,0,1.352,0.313,1.751,0.936s0.598,1.527,0.598,2.709c0,1.227-0.193,2.141-0.579,2.746c-0.386,0.605-0.976,0.906-1.771,0.906
			c-0.765,0-1.347-0.309-1.746-0.928S215.482,183.922,215.482,182.725z M216.307,182.725c0,1.029,0.121,1.777,0.363,2.246
			c0.242,0.469,0.628,0.703,1.157,0.703c0.536,0,0.924-0.236,1.164-0.713c0.241-0.475,0.361-1.221,0.361-2.236
			s-0.12-1.76-0.361-2.232c-0.24-0.473-0.628-0.709-1.164-0.709c-0.529,0-0.915,0.234-1.157,0.699
			C216.428,180.949,216.307,181.695,216.307,182.725z"/>
	</g>
	<g>
		<path fill="#666565" d="M252.966,183.252c0-1.393,0.271-2.436,0.812-3.125c0.542-0.691,1.342-1.037,2.402-1.037
			c0.367,0,0.655,0.031,0.866,0.092v0.703c-0.25-0.094-0.535-0.141-0.856-0.141c-0.76,0-1.34,0.238-1.741,0.713
			c-0.401,0.477-0.621,1.223-0.659,2.242h0.058c0.355-0.551,0.918-0.826,1.688-0.826c0.64,0,1.144,0.191,1.512,0.576
			c0.369,0.383,0.553,0.904,0.553,1.563c0,0.734-0.202,1.314-0.606,1.734c-0.404,0.422-0.95,0.631-1.639,0.631
			c-0.734,0-1.315-0.275-1.746-0.826C253.181,185.002,252.966,184.234,252.966,183.252z M253.79,183.832
			c0,0.334,0.064,0.645,0.194,0.934s0.313,0.518,0.55,0.686c0.238,0.168,0.508,0.252,0.812,0.252c0.459,0,0.815-0.145,1.069-0.434
			c0.253-0.291,0.38-0.711,0.38-1.258c0-0.471-0.118-0.84-0.354-1.109c-0.236-0.27-0.588-0.404-1.057-0.404
			c-0.291,0-0.558,0.061-0.8,0.182c-0.242,0.119-0.436,0.285-0.579,0.496C253.862,183.385,253.79,183.605,253.79,183.832z"/>
		<path fill="#666565" d="M258.571,182.725c0-1.234,0.193-2.15,0.579-2.748s0.974-0.896,1.766-0.896
			c0.769,0,1.352,0.313,1.751,0.936s0.598,1.527,0.598,2.709c0,1.227-0.193,2.141-0.579,2.746c-0.386,0.605-0.976,0.906-1.771,0.906
			c-0.765,0-1.347-0.309-1.746-0.928S258.571,183.922,258.571,182.725z M259.395,182.725c0,1.029,0.121,1.777,0.363,2.246
			c0.242,0.469,0.628,0.703,1.157,0.703c0.536,0,0.924-0.236,1.164-0.713c0.241-0.475,0.361-1.221,0.361-2.236
			s-0.12-1.76-0.361-2.232c-0.24-0.473-0.628-0.709-1.164-0.709c-0.529,0-0.915,0.234-1.157,0.699
			C259.516,180.949,259.395,181.695,259.395,182.725z"/>
	</g>
	<g>
		<path fill="#666565" d="M295.991,184.473c0-0.813,0.498-1.443,1.492-1.896c-0.451-0.252-0.774-0.523-0.97-0.816
			c-0.196-0.293-0.294-0.619-0.294-0.982c0-0.514,0.191-0.924,0.573-1.229c0.382-0.307,0.893-0.459,1.534-0.459
			c0.648,0,1.163,0.15,1.542,0.451c0.38,0.301,0.569,0.717,0.569,1.246c0,0.35-0.109,0.668-0.327,0.955
			c-0.218,0.287-0.566,0.551-1.044,0.785c0.579,0.275,0.99,0.564,1.233,0.865c0.244,0.303,0.366,0.652,0.366,1.051
			c0,0.588-0.206,1.059-0.618,1.408c-0.412,0.352-0.976,0.525-1.693,0.525c-0.759,0-1.342-0.164-1.75-0.496
			C296.195,185.549,295.991,185.08,295.991,184.473z M296.796,184.492c0,0.387,0.135,0.689,0.404,0.906s0.648,0.324,1.135,0.324
			c0.481,0,0.855-0.113,1.123-0.34c0.268-0.225,0.402-0.535,0.402-0.93c0-0.314-0.126-0.592-0.378-0.836
			c-0.251-0.244-0.69-0.482-1.316-0.711c-0.481,0.207-0.83,0.436-1.046,0.686C296.904,183.844,296.796,184.143,296.796,184.492z
			 M297.024,180.813c0,0.297,0.095,0.553,0.286,0.766c0.19,0.213,0.542,0.426,1.055,0.639c0.461-0.193,0.788-0.402,0.98-0.625
			s0.288-0.482,0.288-0.779c0-0.328-0.117-0.586-0.351-0.779c-0.234-0.191-0.556-0.289-0.965-0.289
			c-0.403,0-0.719,0.098-0.949,0.291C297.138,180.23,297.024,180.488,297.024,180.813z"/>
		<path fill="#666565" d="M301.659,182.725c0-1.234,0.193-2.15,0.579-2.748s0.974-0.896,1.766-0.896
			c0.769,0,1.352,0.313,1.751,0.936s0.598,1.527,0.598,2.709c0,1.227-0.193,2.141-0.579,2.746c-0.386,0.605-0.976,0.906-1.771,0.906
			c-0.765,0-1.347-0.309-1.746-0.928S301.659,183.922,301.659,182.725z M302.483,182.725c0,1.029,0.121,1.777,0.363,2.246
			c0.242,0.469,0.628,0.703,1.157,0.703c0.536,0,0.924-0.236,1.164-0.713c0.241-0.475,0.361-1.221,0.361-2.236
			s-0.12-1.76-0.361-2.232c-0.24-0.473-0.628-0.709-1.164-0.709c-0.529,0-0.915,0.234-1.157,0.699
			C302.604,180.949,302.483,181.695,302.483,182.725z"/>
	</g>
</g>
<line fill="none" stroke="#666666" stroke-miterlimit="10" x1="128.812" y1="176.077" x2="301.164" y2="176.077"/>
<g>
	<g>
		<line fill="none" stroke="#666666" stroke-miterlimit="10" x1="128.812" y1="176.077" x2="128.812" y2="172.849"/>
		<line fill="none" stroke="#666666" stroke-miterlimit="10" x1="150.355" y1="176.077" x2="150.355" y2="172.849"/>
		<line fill="none" stroke="#666666" stroke-miterlimit="10" x1="171.9" y1="176.077" x2="171.9" y2="172.849"/>
		<line fill="none" stroke="#666666" stroke-miterlimit="10" x1="193.444" y1="176.077" x2="193.444" y2="172.849"/>
		<line fill="none" stroke="#666666" stroke-miterlimit="10" x1="214.988" y1="176.077" x2="214.988" y2="172.849"/>
		<line fill="none" stroke="#666666" stroke-miterlimit="10" x1="236.532" y1="176.077" x2="236.532" y2="172.849"/>
		<line fill="none" stroke="#666666" stroke-miterlimit="10" x1="258.076" y1="176.077" x2="258.076" y2="172.849"/>
		<line fill="none" stroke="#666666" stroke-miterlimit="10" x1="279.62" y1="176.077" x2="279.62" y2="172.849"/>
		<line fill="none" stroke="#666666" stroke-miterlimit="10" x1="301.164" y1="176.077" x2="301.164" y2="172.849"/>
	</g>
</g>
<line fill="none" stroke="#666666" stroke-miterlimit="10" x1="128.812" y1="176.077" x2="128.812" y2="46.989"/>
<g>
	<g>
		<line fill="none" stroke="#000000" stroke-miterlimit="10" x1="128.812" y1="143.804" x2="133.121" y2="143.804"/>
		<line fill="none" stroke="#000000" stroke-miterlimit="10" x1="128.812" y1="79.261" x2="133.121" y2="79.261"/>
	</g>
</g>
<g>
	<rect x="168.754" y="56.025" fill="#C7DFDF" width="105.07" height="46.472"/>
</g>
<rect x="128.812" y="56.025" fill="#1F9B9C" width="39.943" height="46.472"/>
<rect x="128.812" y="120.569" fill="#E9BF64" width="103.821" height="46.471"/>
<rect x="394.296" y="218.4" fill="#E9BF64" width="18.592" height="18.593"/>
<rect x="94.296" y="218.401" fill="#C7DFDF" width="18.592" height="18.592"/>
<rect x="94.296" y="243.392" fill="#1F9B9C" width="18.592" height="18.594"/>
<g>
	<path fill="#666565" d="M426.199,224.529h1.271l2.639,4.997l2.658-4.997h1.258l-3.336,6.118v3.876h-1.162v-3.821L426.199,224.529z"
		/>
	<path fill="#666565" d="M435.414,234.523v-9.994h1.162v8.955h4.408v1.039H435.414z"/>
	<path fill="#666565" d="M442.68,234.523v-9.994h3.063c1.555,0,2.762,0.431,3.623,1.292s1.293,2.064,1.293,3.609
		c0,1.649-0.447,2.911-1.344,3.784c-0.895,0.872-2.184,1.309-3.865,1.309H442.68z M443.842,233.519h1.416
		c1.385,0,2.426-0.341,3.123-1.022c0.697-0.681,1.047-1.689,1.047-3.024c0-1.304-0.328-2.285-0.98-2.946
		c-0.654-0.661-1.627-0.991-2.916-0.991h-1.689V233.519z"/>
	<path fill="#666565" d="M452.086,231.29v-1.039h3.357v1.039H452.086z"/>
	<path fill="#666565" d="M457.391,234.523v-9.994h1.313l5.447,8.354h0.055c-0.008-0.128-0.029-0.524-0.061-1.189
		c-0.023-0.52-0.033-0.923-0.033-1.21c0-0.082,0-0.155,0-0.219v-5.735h1.072v9.994h-1.313l-5.461-8.388h-0.055
		c0.072,0.984,0.109,1.887,0.109,2.707v5.681H457.391z"/>
	<path fill="#666565" d="M467.357,230.764c0-1.219,0.305-2.169,0.914-2.849c0.609-0.681,1.453-1.021,2.535-1.021
		c1.045,0,1.875,0.348,2.49,1.044c0.617,0.696,0.924,1.638,0.924,2.825c0,1.224-0.307,2.179-0.92,2.866
		c-0.613,0.687-1.461,1.03-2.541,1.03c-0.67,0-1.262-0.157-1.779-0.473c-0.518-0.314-0.918-0.767-1.199-1.355
		C467.498,232.243,467.357,231.554,467.357,230.764z M468.52,230.764c0,0.959,0.191,1.69,0.576,2.192
		c0.383,0.503,0.947,0.754,1.691,0.754c0.742,0,1.309-0.25,1.693-0.75s0.578-1.232,0.578-2.196c0-0.955-0.193-1.68-0.578-2.176
		c-0.385-0.495-0.955-0.743-1.707-0.743c-0.744,0-1.307,0.244-1.686,0.733C468.709,229.066,468.52,229.795,468.52,230.764z"/>
	<path fill="#666565" d="M476.23,234.523v-7.492h0.924l0.184,1.012h0.055c0.232-0.364,0.559-0.647,0.979-0.848
		c0.418-0.2,0.887-0.301,1.4-0.301c0.902,0,1.582,0.218,2.037,0.652c0.457,0.436,0.684,1.132,0.684,2.089v4.888h-1.135v-4.856
		c0-0.612-0.139-1.068-0.416-1.37c-0.279-0.302-0.713-0.452-1.307-0.452c-0.783,0-1.357,0.212-1.723,0.637
		c-0.363,0.425-0.547,1.126-0.547,2.104v3.938H476.23z"/>
	<path fill="#666565" d="M487.455,227.913V227.4l1.34-0.41v-0.415c0-1.833,0.805-2.75,2.414-2.75c0.396,0,0.861,0.079,1.395,0.235
		l-0.295,0.899c-0.438-0.142-0.811-0.212-1.121-0.212c-0.428,0-0.744,0.143-0.949,0.428c-0.205,0.284-0.309,0.741-0.309,1.37v0.485
		h1.908v0.882h-1.908v6.61h-1.135v-6.61H487.455z"/>
	<path fill="#666565" d="M492.645,232.46c0-1.51,1.211-2.301,3.635-2.373l1.273-0.042v-0.47c0-0.596-0.127-1.035-0.379-1.318
		c-0.252-0.284-0.656-0.426-1.211-0.426c-0.623,0-1.328,0.193-2.115,0.581l-0.354-0.871c0.369-0.197,0.773-0.353,1.213-0.465
		c0.441-0.111,0.881-0.168,1.324-0.168c0.893,0,1.553,0.198,1.982,0.595c0.432,0.396,0.646,1.032,0.646,1.907v5.113h-0.842
		l-0.225-1.054h-0.055c-0.373,0.464-0.746,0.779-1.115,0.943c-0.371,0.165-0.834,0.247-1.389,0.247c-0.748,0-1.332-0.19-1.756-0.572
		S492.645,233.164,492.645,232.46z M493.848,232.474c0,0.412,0.123,0.726,0.371,0.94c0.248,0.216,0.596,0.323,1.041,0.323
		c0.705,0,1.258-0.194,1.662-0.584c0.402-0.389,0.604-0.934,0.604-1.635v-0.68l-1.133,0.048c-0.9,0.032-1.551,0.173-1.949,0.423
		C494.047,231.559,493.848,231.947,493.848,232.474z"/>
	<path fill="#666565" d="M500,227.913v-0.547l1.072-0.472l0.479-1.6h0.656v1.736h2.174v0.882h-2.174v4.42
		c0,0.452,0.107,0.799,0.322,1.041c0.213,0.242,0.508,0.363,0.881,0.363c0.201,0,0.395-0.015,0.582-0.045
		c0.186-0.029,0.334-0.061,0.443-0.092v0.857c-0.123,0.059-0.305,0.106-0.543,0.145c-0.24,0.038-0.455,0.058-0.646,0.058
		c-1.449,0-2.174-0.764-2.174-2.29v-4.457H500z"/>
	<path fill="#666565" d="M505.373,232.46c0-1.51,1.211-2.301,3.635-2.373l1.273-0.042v-0.47c0-0.596-0.127-1.035-0.379-1.318
		c-0.252-0.284-0.656-0.426-1.211-0.426c-0.623,0-1.328,0.193-2.115,0.581l-0.354-0.871c0.369-0.197,0.773-0.353,1.213-0.465
		c0.441-0.111,0.881-0.168,1.324-0.168c0.893,0,1.553,0.198,1.982,0.595c0.432,0.396,0.646,1.032,0.646,1.907v5.113h-0.842
		l-0.225-1.054h-0.055c-0.373,0.464-0.746,0.779-1.115,0.943c-0.371,0.165-0.834,0.247-1.389,0.247c-0.748,0-1.332-0.19-1.756-0.572
		S505.373,233.164,505.373,232.46z M506.576,232.474c0,0.412,0.123,0.726,0.371,0.94c0.248,0.216,0.596,0.323,1.041,0.323
		c0.705,0,1.258-0.194,1.662-0.584c0.402-0.389,0.604-0.934,0.604-1.635v-0.68l-1.133,0.048c-0.9,0.032-1.551,0.173-1.949,0.423
		C506.775,231.559,506.576,231.947,506.576,232.474z"/>
	<path fill="#666565" d="M513.719,234.523v-10.637h1.135v10.637H513.719z"/>
	<path fill="#666565" d="M520.801,225.001c0-0.26,0.059-0.45,0.178-0.571c0.117-0.12,0.264-0.181,0.441-0.181
		c0.195,0,0.365,0.062,0.508,0.185s0.213,0.313,0.213,0.567s-0.07,0.445-0.213,0.571c-0.143,0.125-0.313,0.188-0.508,0.188
		c-0.178,0-0.324-0.063-0.441-0.188C520.859,225.446,520.801,225.256,520.801,225.001z M520.896,234.523v-7.492h1.039v7.492H520.896
		z"/>
	<path fill="#666565" d="M524.438,234.523v-7.492h0.924l0.184,1.012h0.055c0.232-0.364,0.559-0.647,0.979-0.848
		c0.418-0.2,0.887-0.301,1.4-0.301c0.902,0,1.582,0.218,2.037,0.652c0.457,0.436,0.684,1.132,0.684,2.089v4.888h-1.135v-4.856
		c0-0.612-0.139-1.068-0.416-1.37c-0.279-0.302-0.713-0.452-1.307-0.452c-0.783,0-1.357,0.212-1.723,0.637
		c-0.363,0.425-0.547,1.126-0.547,2.104v3.938H524.438z"/>
	<path fill="#666565" d="M531.068,236.8c0.314,0.091,0.625,0.137,0.93,0.137c0.355,0,0.617-0.097,0.783-0.291
		c0.166-0.193,0.25-0.489,0.25-0.886v-8.729h1.135v8.641c0,1.477-0.682,2.215-2.045,2.215c-0.432,0-0.783-0.057-1.053-0.17V236.8z
		 M532.936,225.001c0-0.26,0.063-0.45,0.191-0.571c0.127-0.12,0.287-0.181,0.479-0.181c0.207,0,0.387,0.062,0.539,0.185
		c0.15,0.123,0.227,0.313,0.227,0.567s-0.076,0.445-0.227,0.571c-0.152,0.125-0.332,0.188-0.539,0.188
		c-0.191,0-0.352-0.063-0.479-0.188C532.998,225.446,532.936,225.256,532.936,225.001z"/>
	<path fill="#666565" d="M536.49,231.933v-4.901h1.162v4.86c0,0.61,0.139,1.066,0.416,1.367s0.711,0.451,1.303,0.451
		c0.783,0,1.355-0.214,1.717-0.643s0.543-1.128,0.543-2.099v-3.938h1.135v7.492h-0.924l-0.176-1.005h-0.063
		c-0.232,0.369-0.555,0.651-0.967,0.848c-0.41,0.196-0.881,0.294-1.408,0.294c-0.916,0-1.602-0.217-2.057-0.649
		S536.49,232.885,536.49,231.933z"/>
	<path fill="#666565" d="M545.164,234.523v-7.492h0.924l0.139,1.394h0.059c0.277-0.489,0.613-0.866,1.006-1.132
		c0.391-0.266,0.822-0.398,1.291-0.398c0.334,0,0.631,0.027,0.896,0.083l-0.158,1.059c-0.309-0.068-0.582-0.103-0.82-0.103
		c-0.605,0-1.125,0.246-1.555,0.737c-0.432,0.492-0.646,1.104-0.646,1.837v4.016H545.164z"/>
	<path fill="#666565" d="M550.783,225.001c0-0.26,0.059-0.45,0.178-0.571c0.117-0.12,0.264-0.181,0.441-0.181
		c0.195,0,0.365,0.062,0.508,0.185s0.213,0.313,0.213,0.567s-0.07,0.445-0.213,0.571c-0.143,0.125-0.313,0.188-0.508,0.188
		c-0.178,0-0.324-0.063-0.441-0.188C550.842,225.446,550.783,225.256,550.783,225.001z M550.879,234.523v-7.492h1.039v7.492H550.879
		z"/>
	<path fill="#666565" d="M554.004,230.839c0-1.208,0.297-2.167,0.889-2.878c0.594-0.711,1.389-1.066,2.389-1.066
		c0.936,0,1.676,0.309,2.221,0.926c0.545,0.618,0.818,1.433,0.818,2.444v0.718h-5.154c0.021,0.88,0.244,1.547,0.668,2.003
		c0.422,0.456,1.016,0.684,1.783,0.684c0.805,0,1.6-0.169,2.385-0.506v1.012c-0.4,0.173-0.777,0.298-1.135,0.372
		c-0.357,0.076-0.787,0.113-1.291,0.113c-1.105,0-1.977-0.337-2.615-1.012S554.004,232.037,554.004,230.839z M555.193,230.06h3.924
		c0-0.716-0.16-1.264-0.48-1.644c-0.318-0.381-0.775-0.571-1.369-0.571c-0.602,0-1.082,0.196-1.441,0.588
		C555.469,228.824,555.256,229.367,555.193,230.06z"/>
	<path fill="#666565" d="M561.797,228.872c0-0.611,0.248-1.094,0.744-1.447s1.176-0.53,2.041-0.53c0.803,0,1.586,0.164,2.352,0.492
		l-0.396,0.924c-0.75-0.311-1.428-0.466-2.037-0.466c-0.539,0-0.945,0.085-1.219,0.254c-0.275,0.169-0.412,0.401-0.412,0.698
		c0,0.201,0.053,0.372,0.154,0.514c0.104,0.143,0.27,0.276,0.496,0.404c0.229,0.129,0.668,0.313,1.316,0.556
		c0.889,0.324,1.486,0.65,1.791,0.979c0.307,0.329,0.461,0.742,0.461,1.24c0,0.694-0.26,1.229-0.775,1.605
		c-0.518,0.376-1.242,0.564-2.176,0.564c-0.992,0-1.766-0.155-2.32-0.465v-1.047c0.359,0.183,0.746,0.326,1.156,0.432
		c0.412,0.104,0.811,0.157,1.191,0.157c0.594,0,1.051-0.095,1.371-0.284c0.318-0.189,0.479-0.479,0.479-0.867
		c0-0.292-0.127-0.542-0.379-0.75c-0.254-0.208-0.748-0.453-1.484-0.736c-0.699-0.261-1.193-0.488-1.486-0.682
		c-0.293-0.194-0.51-0.415-0.654-0.662C561.867,229.51,561.797,229.215,561.797,228.872z"/>
	<path fill="#666565" d="M572.029,232.46c0-1.51,1.213-2.301,3.635-2.373l1.273-0.042v-0.47c0-0.596-0.125-1.035-0.379-1.318
		c-0.252-0.284-0.656-0.426-1.211-0.426c-0.623,0-1.328,0.193-2.115,0.581l-0.352-0.871c0.369-0.197,0.773-0.353,1.213-0.465
		c0.439-0.111,0.881-0.168,1.322-0.168c0.893,0,1.555,0.198,1.984,0.595s0.645,1.032,0.645,1.907v5.113h-0.84l-0.227-1.054h-0.055
		c-0.373,0.464-0.744,0.779-1.115,0.943c-0.371,0.165-0.834,0.247-1.389,0.247c-0.746,0-1.332-0.19-1.754-0.572
		C572.242,233.706,572.029,233.164,572.029,232.46z M573.232,232.474c0,0.412,0.125,0.726,0.373,0.94
		c0.248,0.216,0.594,0.323,1.039,0.323c0.705,0,1.26-0.194,1.662-0.584c0.402-0.389,0.604-0.934,0.604-1.635v-0.68l-1.133,0.048
		c-0.9,0.032-1.549,0.173-1.947,0.423C573.432,231.559,573.232,231.947,573.232,232.474z"/>
	<path fill="#666565" d="M580.377,234.523v-7.492h0.922l0.186,1.012h0.055c0.232-0.364,0.559-0.647,0.977-0.848
		c0.42-0.2,0.887-0.301,1.402-0.301c0.902,0,1.58,0.218,2.037,0.652c0.455,0.436,0.684,1.132,0.684,2.089v4.888h-1.135v-4.856
		c0-0.612-0.139-1.068-0.418-1.37c-0.277-0.302-0.713-0.452-1.305-0.452c-0.785,0-1.359,0.212-1.723,0.637
		c-0.365,0.425-0.547,1.126-0.547,2.104v3.938H580.377z"/>
	<path fill="#666565" d="M588.553,230.798c0-1.235,0.271-2.194,0.816-2.878s1.305-1.025,2.275-1.025c1.02,0,1.799,0.369,2.342,1.107
		h0.09l-0.049-0.54L594,226.936v-3.049h1.135v10.637h-0.922l-0.15-1.005H594c-0.525,0.761-1.309,1.142-2.355,1.142
		c-0.977,0-1.736-0.335-2.277-1.005C588.824,232.985,588.553,232.033,588.553,230.798z M589.715,230.812
		c0,0.957,0.176,1.68,0.527,2.167s0.867,0.731,1.547,0.731c0.775,0,1.338-0.211,1.688-0.632c0.35-0.422,0.523-1.103,0.523-2.041
		v-0.239c0-1.062-0.176-1.819-0.529-2.272c-0.355-0.454-0.92-0.681-1.695-0.681c-0.666,0-1.176,0.259-1.531,0.776
		C589.891,229.138,589.715,229.868,589.715,230.812z"/>
	<path fill="#666565" d="M601.09,225.001c0-0.26,0.059-0.45,0.176-0.571c0.117-0.12,0.266-0.181,0.441-0.181
		c0.197,0,0.365,0.062,0.508,0.185s0.215,0.313,0.215,0.567s-0.072,0.445-0.215,0.571c-0.143,0.125-0.311,0.188-0.508,0.188
		c-0.176,0-0.324-0.063-0.441-0.188C601.148,225.446,601.09,225.256,601.09,225.001z M601.186,234.523v-7.492h1.039v7.492H601.186z"
		/>
	<path fill="#666565" d="M604.727,234.523v-10.637h1.135v10.637H604.727z"/>
	<path fill="#666565" d="M608.268,234.523v-10.637h1.135v10.637H608.268z"/>
	<path fill="#666565" d="M611.809,234.523v-7.492h0.922l0.186,1.012h0.055c0.232-0.364,0.559-0.647,0.977-0.848
		c0.42-0.2,0.887-0.301,1.402-0.301c0.902,0,1.58,0.218,2.037,0.652c0.455,0.436,0.684,1.132,0.684,2.089v4.888h-1.135v-4.856
		c0-0.612-0.139-1.068-0.418-1.37c-0.277-0.302-0.713-0.452-1.305-0.452c-0.785,0-1.359,0.212-1.723,0.637
		c-0.365,0.425-0.547,1.126-0.547,2.104v3.938H611.809z"/>
	<path fill="#666565" d="M619.984,230.839c0-1.208,0.297-2.167,0.889-2.878c0.594-0.711,1.389-1.066,2.389-1.066
		c0.936,0,1.676,0.309,2.221,0.926c0.545,0.618,0.818,1.433,0.818,2.444v0.718h-5.154c0.021,0.88,0.244,1.547,0.668,2.003
		c0.422,0.456,1.016,0.684,1.783,0.684c0.805,0,1.6-0.169,2.385-0.506v1.012c-0.4,0.173-0.777,0.298-1.135,0.372
		c-0.357,0.076-0.787,0.113-1.291,0.113c-1.105,0-1.977-0.337-2.615-1.012S619.984,232.037,619.984,230.839z M621.174,230.06h3.924
		c0-0.716-0.16-1.264-0.48-1.644c-0.318-0.381-0.775-0.571-1.369-0.571c-0.602,0-1.082,0.196-1.441,0.588
		C621.449,228.824,621.236,229.367,621.174,230.06z"/>
	<path fill="#666565" d="M627.777,228.872c0-0.611,0.248-1.094,0.744-1.447s1.176-0.53,2.041-0.53c0.803,0,1.586,0.164,2.352,0.492
		l-0.396,0.924c-0.75-0.311-1.428-0.466-2.037-0.466c-0.539,0-0.945,0.085-1.219,0.254c-0.275,0.169-0.412,0.401-0.412,0.698
		c0,0.201,0.053,0.372,0.154,0.514c0.104,0.143,0.27,0.276,0.496,0.404c0.229,0.129,0.668,0.313,1.316,0.556
		c0.889,0.324,1.486,0.65,1.791,0.979c0.307,0.329,0.461,0.742,0.461,1.24c0,0.694-0.26,1.229-0.775,1.605
		c-0.518,0.376-1.242,0.564-2.176,0.564c-0.992,0-1.766-0.155-2.32-0.465v-1.047c0.359,0.183,0.746,0.326,1.156,0.432
		c0.412,0.104,0.811,0.157,1.191,0.157c0.594,0,1.051-0.095,1.371-0.284c0.318-0.189,0.479-0.479,0.479-0.867
		c0-0.292-0.127-0.542-0.379-0.75c-0.254-0.208-0.748-0.453-1.484-0.736c-0.699-0.261-1.193-0.488-1.486-0.682
		c-0.293-0.194-0.51-0.415-0.654-0.662C627.848,229.51,627.777,229.215,627.777,228.872z"/>
	<path fill="#666565" d="M634.455,228.872c0-0.611,0.248-1.094,0.744-1.447s1.178-0.53,2.043-0.53c0.801,0,1.584,0.164,2.35,0.492
		l-0.395,0.924c-0.75-0.311-1.43-0.466-2.037-0.466c-0.539,0-0.945,0.085-1.221,0.254c-0.273,0.169-0.41,0.401-0.41,0.698
		c0,0.201,0.051,0.372,0.154,0.514c0.102,0.143,0.268,0.276,0.496,0.404c0.229,0.129,0.666,0.313,1.314,0.556
		c0.889,0.324,1.486,0.65,1.793,0.979s0.459,0.742,0.459,1.24c0,0.694-0.258,1.229-0.775,1.605c-0.516,0.376-1.24,0.564-2.174,0.564
		c-0.992,0-1.766-0.155-2.32-0.465v-1.047c0.359,0.183,0.744,0.326,1.156,0.432c0.412,0.104,0.809,0.157,1.191,0.157
		c0.594,0,1.049-0.095,1.369-0.284s0.48-0.479,0.48-0.867c0-0.292-0.127-0.542-0.381-0.75s-0.748-0.453-1.482-0.736
		c-0.699-0.261-1.195-0.488-1.488-0.682c-0.291-0.194-0.51-0.415-0.652-0.662C634.527,229.51,634.455,229.215,634.455,228.872z"/>
	<path fill="#666565" d="M641.195,230.839c0-1.208,0.297-2.167,0.891-2.878c0.592-0.711,1.389-1.066,2.389-1.066
		c0.936,0,1.676,0.309,2.221,0.926c0.545,0.618,0.816,1.433,0.816,2.444v0.718h-5.154c0.023,0.88,0.246,1.547,0.668,2.003
		s1.018,0.684,1.783,0.684c0.805,0,1.6-0.169,2.387-0.506v1.012c-0.4,0.173-0.779,0.298-1.135,0.372
		c-0.357,0.076-0.787,0.113-1.293,0.113c-1.104,0-1.975-0.337-2.613-1.012S641.195,232.037,641.195,230.839z M642.385,230.06h3.924
		c0-0.716-0.16-1.264-0.479-1.644c-0.32-0.381-0.777-0.571-1.369-0.571c-0.604,0-1.084,0.196-1.441,0.588
		C642.66,228.824,642.449,229.367,642.385,230.06z"/>
	<path fill="#666565" d="M648.988,228.872c0-0.611,0.248-1.094,0.744-1.447s1.178-0.53,2.043-0.53c0.801,0,1.584,0.164,2.35,0.492
		l-0.395,0.924c-0.75-0.311-1.43-0.466-2.037-0.466c-0.539,0-0.945,0.085-1.221,0.254c-0.273,0.169-0.41,0.401-0.41,0.698
		c0,0.201,0.051,0.372,0.154,0.514c0.102,0.143,0.268,0.276,0.496,0.404c0.229,0.129,0.666,0.313,1.314,0.556
		c0.889,0.324,1.486,0.65,1.793,0.979s0.459,0.742,0.459,1.24c0,0.694-0.258,1.229-0.775,1.605c-0.516,0.376-1.24,0.564-2.174,0.564
		c-0.992,0-1.766-0.155-2.32-0.465v-1.047c0.359,0.183,0.744,0.326,1.156,0.432c0.412,0.104,0.809,0.157,1.191,0.157
		c0.594,0,1.049-0.095,1.369-0.284s0.48-0.479,0.48-0.867c0-0.292-0.127-0.542-0.381-0.75s-0.748-0.453-1.482-0.736
		c-0.699-0.261-1.195-0.488-1.488-0.682c-0.291-0.194-0.51-0.415-0.652-0.662C649.061,229.51,648.988,229.215,648.988,228.872z"/>
</g>
<g>
	<path fill="#666565" d="M126.199,223.999h1.271l2.639,4.997l2.659-4.997h1.258l-3.336,6.118v3.876h-1.162v-3.821L126.199,223.999z"
		/>
	<path fill="#666565" d="M134.128,230.309c0-1.208,0.297-2.167,0.89-2.878s1.389-1.066,2.389-1.066c0.936,0,1.676,0.309,2.221,0.926
		c0.545,0.618,0.817,1.433,0.817,2.444v0.718h-5.154c0.022,0.88,0.245,1.547,0.668,2.003c0.422,0.456,1.017,0.684,1.783,0.684
		c0.805,0,1.6-0.169,2.386-0.506v1.012c-0.4,0.173-0.778,0.298-1.135,0.372c-0.357,0.076-0.787,0.113-1.292,0.113
		c-1.104,0-1.976-0.337-2.614-1.012S134.128,231.507,134.128,230.309z M135.318,229.529h3.924c0-0.716-0.16-1.264-0.479-1.644
		c-0.319-0.381-0.776-0.571-1.369-0.571c-0.603,0-1.083,0.196-1.441,0.588S135.381,228.837,135.318,229.529z"/>
	<path fill="#666565" d="M141.839,231.93c0-1.51,1.212-2.301,3.635-2.373l1.273-0.042v-0.47c0-0.596-0.126-1.035-0.379-1.318
		c-0.252-0.284-0.656-0.426-1.211-0.426c-0.623,0-1.328,0.193-2.115,0.581l-0.353-0.871c0.369-0.197,0.773-0.353,1.213-0.465
		c0.44-0.111,0.881-0.168,1.323-0.168c0.893,0,1.554,0.198,1.983,0.595c0.431,0.396,0.646,1.032,0.646,1.907v5.113h-0.841
		l-0.226-1.054h-0.055c-0.373,0.464-0.745,0.779-1.115,0.943c-0.371,0.165-0.834,0.247-1.389,0.247c-0.747,0-1.332-0.19-1.755-0.572
		C142.051,233.176,141.839,232.634,141.839,231.93z M143.042,231.943c0,0.412,0.124,0.726,0.372,0.94
		c0.248,0.216,0.595,0.323,1.04,0.323c0.705,0,1.259-0.194,1.662-0.584c0.402-0.389,0.604-0.934,0.604-1.635v-0.68l-1.133,0.048
		c-0.9,0.032-1.55,0.173-1.948,0.423C143.242,231.028,143.042,231.417,143.042,231.943z"/>
	<path fill="#666565" d="M150.186,233.993v-7.492h0.923l0.139,1.394h0.059c0.278-0.489,0.614-0.866,1.006-1.132
		s0.822-0.398,1.292-0.398c0.333,0,0.631,0.027,0.896,0.083l-0.157,1.059c-0.31-0.068-0.583-0.103-0.82-0.103
		c-0.606,0-1.125,0.246-1.555,0.737c-0.432,0.492-0.646,1.104-0.646,1.837v4.016H150.186z"/>
	<path fill="#666565" d="M155.422,228.342c0-0.611,0.248-1.094,0.744-1.447s1.177-0.53,2.042-0.53c0.802,0,1.585,0.164,2.351,0.492
		l-0.396,0.924c-0.75-0.311-1.429-0.466-2.037-0.466c-0.539,0-0.945,0.085-1.22,0.254s-0.411,0.401-0.411,0.698
		c0,0.201,0.052,0.372,0.154,0.514c0.103,0.143,0.269,0.276,0.496,0.404c0.229,0.129,0.667,0.313,1.315,0.556
		c0.889,0.324,1.486,0.65,1.792,0.979c0.307,0.329,0.46,0.742,0.46,1.24c0,0.694-0.259,1.229-0.775,1.605s-1.241,0.564-2.175,0.564
		c-0.992,0-1.766-0.155-2.32-0.465v-1.047c0.359,0.183,0.745,0.326,1.156,0.432c0.412,0.104,0.81,0.157,1.191,0.157
		c0.594,0,1.05-0.095,1.37-0.284c0.319-0.189,0.479-0.479,0.479-0.867c0-0.292-0.127-0.542-0.38-0.75
		c-0.254-0.208-0.748-0.453-1.483-0.736c-0.699-0.261-1.194-0.488-1.487-0.682c-0.292-0.194-0.51-0.415-0.653-0.662
		C155.494,228.979,155.422,228.685,155.422,228.342z"/>
	<path fill="#666565" d="M165.799,230.233c0-1.219,0.305-2.169,0.913-2.849c0.609-0.681,1.454-1.021,2.535-1.021
		c1.046,0,1.876,0.348,2.491,1.044c0.616,0.696,0.924,1.638,0.924,2.825c0,1.224-0.307,2.179-0.92,2.866
		c-0.613,0.687-1.461,1.03-2.542,1.03c-0.669,0-1.262-0.157-1.779-0.473c-0.518-0.314-0.918-0.767-1.199-1.355
		C165.94,231.713,165.799,231.023,165.799,230.233z M166.961,230.233c0,0.959,0.191,1.69,0.575,2.192
		c0.383,0.503,0.947,0.754,1.691,0.754c0.743,0,1.309-0.25,1.694-0.75c0.385-0.5,0.578-1.232,0.578-2.196
		c0-0.955-0.193-1.68-0.578-2.176c-0.386-0.495-0.955-0.743-1.708-0.743c-0.744,0-1.306,0.244-1.685,0.733
		C167.151,228.536,166.961,229.265,166.961,230.233z"/>
	<path fill="#666565" d="M173.667,227.383v-0.513l1.34-0.41v-0.415c0-1.833,0.805-2.75,2.413-2.75c0.396,0,0.861,0.079,1.395,0.235
		l-0.294,0.899c-0.438-0.142-0.812-0.212-1.121-0.212c-0.429,0-0.745,0.143-0.95,0.428c-0.205,0.284-0.308,0.741-0.308,1.37v0.485
		h1.907v0.882h-1.907v6.61h-1.135v-6.61H173.667z"/>
	<path fill="#666565" d="M183.053,233.993v-10.637h1.135v10.637H183.053z"/>
	<path fill="#666565" d="M186.499,224.471c0-0.26,0.059-0.45,0.177-0.571c0.117-0.12,0.265-0.181,0.441-0.181
		c0.196,0,0.365,0.062,0.508,0.185s0.214,0.313,0.214,0.567s-0.071,0.445-0.214,0.571c-0.143,0.125-0.312,0.188-0.508,0.188
		c-0.177,0-0.324-0.063-0.441-0.188C186.557,224.916,186.499,224.726,186.499,224.471z M186.594,233.993v-7.492h1.039v7.492H186.594
		z"/>
	<path fill="#666565" d="M189.13,227.383v-0.513l1.34-0.41v-0.415c0-1.833,0.805-2.75,2.413-2.75c0.396,0,0.861,0.079,1.395,0.235
		l-0.294,0.899c-0.438-0.142-0.812-0.212-1.121-0.212c-0.429,0-0.745,0.143-0.95,0.428c-0.205,0.284-0.308,0.741-0.308,1.37v0.485
		h1.907v0.882h-1.907v6.61h-1.135v-6.61H189.13z"/>
	<path fill="#666565" d="M194.462,230.309c0-1.208,0.297-2.167,0.89-2.878s1.389-1.066,2.389-1.066c0.936,0,1.676,0.309,2.221,0.926
		c0.545,0.618,0.817,1.433,0.817,2.444v0.718h-5.154c0.022,0.88,0.245,1.547,0.668,2.003c0.422,0.456,1.017,0.684,1.783,0.684
		c0.805,0,1.6-0.169,2.386-0.506v1.012c-0.4,0.173-0.778,0.298-1.135,0.372c-0.357,0.076-0.787,0.113-1.292,0.113
		c-1.104,0-1.976-0.337-2.614-1.012S194.462,231.507,194.462,230.309z M195.652,229.529h3.924c0-0.716-0.16-1.264-0.479-1.644
		c-0.319-0.381-0.776-0.571-1.369-0.571c-0.603,0-1.083,0.196-1.441,0.588S195.715,228.837,195.652,229.529z"/>
	<path fill="#666565" d="M206.371,233.993v-10.637h1.135v10.637H206.371z"/>
	<path fill="#666565" d="M209.495,230.233c0-1.219,0.305-2.169,0.913-2.849c0.609-0.681,1.454-1.021,2.535-1.021
		c1.046,0,1.876,0.348,2.491,1.044c0.616,0.696,0.924,1.638,0.924,2.825c0,1.224-0.307,2.179-0.92,2.866
		c-0.613,0.687-1.461,1.03-2.542,1.03c-0.669,0-1.262-0.157-1.779-0.473c-0.518-0.314-0.918-0.767-1.199-1.355
		C209.635,231.713,209.495,231.023,209.495,230.233z M210.657,230.233c0,0.959,0.191,1.69,0.575,2.192
		c0.383,0.503,0.947,0.754,1.691,0.754c0.743,0,1.309-0.25,1.694-0.75c0.385-0.5,0.578-1.232,0.578-2.196
		c0-0.955-0.193-1.68-0.578-2.176c-0.386-0.495-0.955-0.743-1.708-0.743c-0.744,0-1.306,0.244-1.685,0.733
		C210.846,228.536,210.657,229.265,210.657,230.233z"/>
	<path fill="#666565" d="M217.889,228.342c0-0.611,0.248-1.094,0.744-1.447s1.177-0.53,2.042-0.53c0.802,0,1.585,0.164,2.351,0.492
		l-0.396,0.924c-0.75-0.311-1.429-0.466-2.037-0.466c-0.539,0-0.945,0.085-1.22,0.254s-0.411,0.401-0.411,0.698
		c0,0.201,0.052,0.372,0.154,0.514c0.103,0.143,0.269,0.276,0.496,0.404c0.229,0.129,0.667,0.313,1.315,0.556
		c0.889,0.324,1.486,0.65,1.792,0.979c0.307,0.329,0.46,0.742,0.46,1.24c0,0.694-0.259,1.229-0.775,1.605s-1.241,0.564-2.175,0.564
		c-0.992,0-1.766-0.155-2.32-0.465v-1.047c0.359,0.183,0.745,0.326,1.156,0.432c0.412,0.104,0.81,0.157,1.191,0.157
		c0.594,0,1.05-0.095,1.37-0.284c0.319-0.189,0.479-0.479,0.479-0.867c0-0.292-0.127-0.542-0.38-0.75
		c-0.254-0.208-0.748-0.453-1.483-0.736c-0.699-0.261-1.194-0.488-1.487-0.682c-0.292-0.194-0.51-0.415-0.653-0.662
		C217.96,228.979,217.889,228.685,217.889,228.342z"/>
	<path fill="#666565" d="M224.055,227.383v-0.547l1.073-0.472l0.479-1.6h0.656v1.736h2.174v0.882h-2.174v4.42
		c0,0.452,0.107,0.799,0.321,1.041s0.508,0.363,0.882,0.363c0.2,0,0.395-0.015,0.581-0.045c0.187-0.029,0.335-0.061,0.444-0.092
		v0.857c-0.123,0.059-0.305,0.106-0.543,0.145c-0.24,0.038-0.455,0.058-0.646,0.058c-1.449,0-2.174-0.764-2.174-2.29v-4.457H224.055
		z"/>
	<path fill="#666565" d="M232.983,230.158c0-1.208,0.179-2.338,0.536-3.391c0.356-1.053,0.869-1.976,1.535-2.769h1.107
		c-0.656,0.88-1.149,1.846-1.479,2.898c-0.331,1.053-0.496,2.135-0.496,3.247c0,1.094,0.169,2.162,0.506,3.206
		s0.822,1.996,1.456,2.857h-1.094c-0.671-0.774-1.184-1.68-1.539-2.714C233.161,232.46,232.983,231.348,232.983,230.158z"/>
	<path fill="#666565" d="M236.565,223.999h1.271l2.639,4.997l2.659-4.997h1.258l-3.336,6.118v3.876h-1.162v-3.821L236.565,223.999z"
		/>
	<path fill="#666565" d="M245.78,233.993v-9.994h1.162v8.955h4.409v1.039H245.78z"/>
	<path fill="#666565" d="M253.046,233.993v-9.994h1.162v8.955h4.409v1.039H253.046z"/>
	<path fill="#666565" d="M259.356,223.999h1.107c0.671,0.798,1.184,1.724,1.539,2.779c0.354,1.055,0.532,2.182,0.532,3.38
		s-0.179,2.315-0.536,3.35s-0.869,1.935-1.535,2.7h-1.094c0.634-0.856,1.119-1.809,1.456-2.854c0.337-1.047,0.506-2.116,0.506-3.21
		c0-1.112-0.165-2.194-0.496-3.247C260.505,225.845,260.012,224.879,259.356,223.999z"/>
	<path fill="#666565" d="M267.292,230.76v-1.039h3.356v1.039H267.292z"/>
	<path fill="#666565" d="M276.234,233.993v-9.994h5.571v1.039h-4.409v3.65h4.143v1.039h-4.143v4.266H276.234z"/>
	<path fill="#666565" d="M282.728,231.93c0-1.51,1.212-2.301,3.635-2.373l1.273-0.042v-0.47c0-0.596-0.126-1.035-0.379-1.318
		c-0.252-0.284-0.656-0.426-1.211-0.426c-0.623,0-1.328,0.193-2.115,0.581l-0.353-0.871c0.369-0.197,0.773-0.353,1.213-0.465
		c0.44-0.111,0.881-0.168,1.323-0.168c0.893,0,1.554,0.198,1.983,0.595c0.431,0.396,0.646,1.032,0.646,1.907v5.113h-0.841
		l-0.226-1.054h-0.055c-0.373,0.464-0.745,0.779-1.115,0.943c-0.371,0.165-0.834,0.247-1.389,0.247c-0.747,0-1.332-0.19-1.755-0.572
		C282.94,233.176,282.728,232.634,282.728,231.93z M283.931,231.943c0,0.412,0.124,0.726,0.372,0.94
		c0.248,0.216,0.595,0.323,1.04,0.323c0.705,0,1.259-0.194,1.662-0.584c0.402-0.389,0.604-0.934,0.604-1.635v-0.68l-1.133,0.048
		c-0.9,0.032-1.55,0.173-1.948,0.423C284.13,231.028,283.931,231.417,283.931,231.943z"/>
	<path fill="#666565" d="M290.083,227.383v-0.547l1.073-0.472l0.479-1.6h0.656v1.736h2.174v0.882h-2.174v4.42
		c0,0.452,0.107,0.799,0.321,1.041s0.508,0.363,0.882,0.363c0.2,0,0.395-0.015,0.581-0.045c0.187-0.029,0.335-0.061,0.444-0.092
		v0.857c-0.123,0.059-0.305,0.106-0.543,0.145c-0.24,0.038-0.455,0.058-0.646,0.058c-1.449,0-2.174-0.764-2.174-2.29v-4.457H290.083
		z"/>
	<path fill="#666565" d="M295.457,231.93c0-1.51,1.212-2.301,3.635-2.373l1.273-0.042v-0.47c0-0.596-0.126-1.035-0.379-1.318
		c-0.252-0.284-0.656-0.426-1.211-0.426c-0.623,0-1.328,0.193-2.115,0.581l-0.353-0.871c0.369-0.197,0.773-0.353,1.213-0.465
		c0.44-0.111,0.881-0.168,1.323-0.168c0.893,0,1.554,0.198,1.983,0.595c0.431,0.396,0.646,1.032,0.646,1.907v5.113h-0.841
		l-0.226-1.054h-0.055c-0.373,0.464-0.745,0.779-1.115,0.943c-0.371,0.165-0.834,0.247-1.389,0.247c-0.747,0-1.332-0.19-1.755-0.572
		C295.668,233.176,295.457,232.634,295.457,231.93z M296.66,231.943c0,0.412,0.124,0.726,0.372,0.94
		c0.248,0.216,0.595,0.323,1.04,0.323c0.705,0,1.259-0.194,1.662-0.584c0.402-0.389,0.604-0.934,0.604-1.635v-0.68l-1.133,0.048
		c-0.9,0.032-1.55,0.173-1.948,0.423C296.859,231.028,296.66,231.417,296.66,231.943z"/>
	<path fill="#666565" d="M303.803,233.993v-10.637h1.135v10.637H303.803z"/>
	<path fill="#666565" d="M310.885,224.471c0-0.26,0.059-0.45,0.177-0.571c0.117-0.12,0.265-0.181,0.441-0.181
		c0.196,0,0.365,0.062,0.508,0.185s0.214,0.313,0.214,0.567s-0.071,0.445-0.214,0.571c-0.143,0.125-0.312,0.188-0.508,0.188
		c-0.177,0-0.324-0.063-0.441-0.188C310.944,224.916,310.885,224.726,310.885,224.471z M310.981,233.993v-7.492h1.039v7.492H310.981
		z"/>
	<path fill="#666565" d="M314.522,233.993v-10.637h1.135v10.637H314.522z"/>
	<path fill="#666565" d="M318.063,233.993v-10.637h1.135v10.637H318.063z"/>
	<path fill="#666565" d="M321.604,233.993v-7.492h0.923l0.185,1.012h0.055c0.232-0.364,0.559-0.647,0.978-0.848
		s0.887-0.301,1.401-0.301c0.902,0,1.581,0.218,2.037,0.652c0.456,0.436,0.684,1.132,0.684,2.089v4.888h-1.135v-4.856
		c0-0.612-0.139-1.068-0.417-1.37s-0.713-0.452-1.306-0.452c-0.784,0-1.358,0.212-1.723,0.637s-0.547,1.126-0.547,2.104v3.938
		H321.604z"/>
	<path fill="#666565" d="M329.78,230.309c0-1.208,0.297-2.167,0.89-2.878s1.389-1.066,2.389-1.066c0.936,0,1.676,0.309,2.221,0.926
		c0.545,0.618,0.817,1.433,0.817,2.444v0.718h-5.154c0.022,0.88,0.245,1.547,0.668,2.003c0.422,0.456,1.017,0.684,1.783,0.684
		c0.805,0,1.6-0.169,2.386-0.506v1.012c-0.4,0.173-0.778,0.298-1.135,0.372c-0.357,0.076-0.787,0.113-1.292,0.113
		c-1.104,0-1.976-0.337-2.614-1.012S329.78,231.507,329.78,230.309z M330.969,229.529h3.924c0-0.716-0.16-1.264-0.479-1.644
		c-0.319-0.381-0.776-0.571-1.369-0.571c-0.603,0-1.083,0.196-1.441,0.588S331.033,228.837,330.969,229.529z"/>
	<path fill="#666565" d="M337.573,228.342c0-0.611,0.248-1.094,0.744-1.447s1.177-0.53,2.042-0.53c0.802,0,1.585,0.164,2.351,0.492
		l-0.396,0.924c-0.75-0.311-1.429-0.466-2.037-0.466c-0.539,0-0.945,0.085-1.22,0.254s-0.411,0.401-0.411,0.698
		c0,0.201,0.052,0.372,0.154,0.514c0.103,0.143,0.269,0.276,0.496,0.404c0.229,0.129,0.667,0.313,1.315,0.556
		c0.889,0.324,1.486,0.65,1.792,0.979c0.307,0.329,0.46,0.742,0.46,1.24c0,0.694-0.259,1.229-0.775,1.605s-1.241,0.564-2.175,0.564
		c-0.992,0-1.766-0.155-2.32-0.465v-1.047c0.359,0.183,0.745,0.326,1.156,0.432c0.412,0.104,0.81,0.157,1.191,0.157
		c0.594,0,1.05-0.095,1.37-0.284c0.319-0.189,0.479-0.479,0.479-0.867c0-0.292-0.127-0.542-0.38-0.75
		c-0.254-0.208-0.748-0.453-1.483-0.736c-0.699-0.261-1.194-0.488-1.487-0.682c-0.292-0.194-0.51-0.415-0.653-0.662
		C337.644,228.979,337.573,228.685,337.573,228.342z"/>
	<path fill="#666565" d="M344.251,228.342c0-0.611,0.248-1.094,0.744-1.447s1.177-0.53,2.042-0.53c0.802,0,1.585,0.164,2.351,0.492
		l-0.396,0.924c-0.75-0.311-1.429-0.466-2.037-0.466c-0.539,0-0.945,0.085-1.22,0.254s-0.411,0.401-0.411,0.698
		c0,0.201,0.052,0.372,0.154,0.514c0.103,0.143,0.269,0.276,0.496,0.404c0.229,0.129,0.667,0.313,1.315,0.556
		c0.889,0.324,1.486,0.65,1.792,0.979c0.307,0.329,0.46,0.742,0.46,1.24c0,0.694-0.259,1.229-0.775,1.605s-1.241,0.564-2.175,0.564
		c-0.992,0-1.766-0.155-2.32-0.465v-1.047c0.359,0.183,0.745,0.326,1.156,0.432c0.412,0.104,0.81,0.157,1.191,0.157
		c0.594,0,1.05-0.095,1.37-0.284c0.319-0.189,0.479-0.479,0.479-0.867c0-0.292-0.127-0.542-0.38-0.75
		c-0.254-0.208-0.748-0.453-1.483-0.736c-0.699-0.261-1.194-0.488-1.487-0.682c-0.292-0.194-0.51-0.415-0.653-0.662
		C344.323,228.979,344.251,228.685,344.251,228.342z"/>
	<path fill="#666565" d="M350.992,230.309c0-1.208,0.297-2.167,0.89-2.878s1.389-1.066,2.389-1.066c0.936,0,1.676,0.309,2.221,0.926
		c0.545,0.618,0.817,1.433,0.817,2.444v0.718h-5.154c0.022,0.88,0.245,1.547,0.668,2.003c0.422,0.456,1.017,0.684,1.783,0.684
		c0.805,0,1.6-0.169,2.386-0.506v1.012c-0.4,0.173-0.778,0.298-1.135,0.372c-0.357,0.076-0.787,0.113-1.292,0.113
		c-1.104,0-1.976-0.337-2.614-1.012S350.992,231.507,350.992,230.309z M352.181,229.529h3.924c0-0.716-0.16-1.264-0.479-1.644
		c-0.319-0.381-0.776-0.571-1.369-0.571c-0.603,0-1.083,0.196-1.441,0.588S352.245,228.837,352.181,229.529z"/>
	<path fill="#666565" d="M358.785,228.342c0-0.611,0.248-1.094,0.744-1.447s1.177-0.53,2.042-0.53c0.802,0,1.585,0.164,2.351,0.492
		l-0.396,0.924c-0.75-0.311-1.429-0.466-2.037-0.466c-0.539,0-0.945,0.085-1.22,0.254s-0.411,0.401-0.411,0.698
		c0,0.201,0.052,0.372,0.154,0.514c0.103,0.143,0.269,0.276,0.496,0.404c0.229,0.129,0.667,0.313,1.315,0.556
		c0.889,0.324,1.486,0.65,1.792,0.979c0.307,0.329,0.46,0.742,0.46,1.24c0,0.694-0.259,1.229-0.775,1.605s-1.241,0.564-2.175,0.564
		c-0.992,0-1.766-0.155-2.32-0.465v-1.047c0.359,0.183,0.745,0.326,1.156,0.432c0.412,0.104,0.81,0.157,1.191,0.157
		c0.594,0,1.05-0.095,1.37-0.284c0.319-0.189,0.479-0.479,0.479-0.867c0-0.292-0.127-0.542-0.38-0.75
		c-0.254-0.208-0.748-0.453-1.483-0.736c-0.699-0.261-1.194-0.488-1.487-0.682c-0.292-0.194-0.51-0.415-0.653-0.662
		C358.856,228.979,358.785,228.685,358.785,228.342z"/>
</g>
<g>
	<path fill="#666565" d="M126.199,249.99h1.271l2.639,4.997l2.659-4.997h1.258l-3.336,6.118v3.876h-1.162v-3.821L126.199,249.99z"/>
	<path fill="#666565" d="M134.128,256.3c0-1.208,0.297-2.167,0.89-2.878s1.389-1.066,2.389-1.066c0.936,0,1.676,0.309,2.221,0.926
		c0.545,0.618,0.817,1.433,0.817,2.444v0.718h-5.154c0.022,0.88,0.245,1.547,0.668,2.003c0.422,0.456,1.017,0.684,1.783,0.684
		c0.805,0,1.6-0.169,2.386-0.506v1.012c-0.4,0.173-0.778,0.298-1.135,0.372c-0.357,0.076-0.787,0.113-1.292,0.113
		c-1.104,0-1.976-0.337-2.614-1.012S134.128,257.498,134.128,256.3z M135.318,255.521h3.924c0-0.716-0.16-1.264-0.479-1.644
		c-0.319-0.381-0.776-0.571-1.369-0.571c-0.603,0-1.083,0.196-1.441,0.588S135.381,254.828,135.318,255.521z"/>
	<path fill="#666565" d="M141.839,257.921c0-1.51,1.212-2.301,3.635-2.373l1.273-0.042v-0.47c0-0.596-0.126-1.035-0.379-1.318
		c-0.252-0.284-0.656-0.426-1.211-0.426c-0.623,0-1.328,0.193-2.115,0.581l-0.353-0.871c0.369-0.197,0.773-0.353,1.213-0.465
		c0.44-0.111,0.881-0.168,1.323-0.168c0.893,0,1.554,0.198,1.983,0.595c0.431,0.396,0.646,1.032,0.646,1.907v5.113h-0.841
		l-0.226-1.054h-0.055c-0.373,0.464-0.745,0.779-1.115,0.943c-0.371,0.165-0.834,0.247-1.389,0.247c-0.747,0-1.332-0.19-1.755-0.572
		C142.051,259.167,141.839,258.625,141.839,257.921z M143.042,257.935c0,0.412,0.124,0.726,0.372,0.94
		c0.248,0.216,0.595,0.323,1.04,0.323c0.705,0,1.259-0.194,1.662-0.584c0.402-0.389,0.604-0.934,0.604-1.635v-0.68l-1.133,0.048
		c-0.9,0.032-1.55,0.173-1.948,0.423C143.242,257.02,143.042,257.408,143.042,257.935z"/>
	<path fill="#666565" d="M150.186,259.984v-7.492h0.923l0.139,1.394h0.059c0.278-0.489,0.614-0.866,1.006-1.132
		s0.822-0.398,1.292-0.398c0.333,0,0.631,0.027,0.896,0.083l-0.157,1.059c-0.31-0.068-0.583-0.103-0.82-0.103
		c-0.606,0-1.125,0.246-1.555,0.737c-0.432,0.492-0.646,1.104-0.646,1.837v4.016H150.186z"/>
	<path fill="#666565" d="M155.422,254.333c0-0.611,0.248-1.094,0.744-1.447s1.177-0.53,2.042-0.53c0.802,0,1.585,0.164,2.351,0.492
		l-0.396,0.924c-0.75-0.311-1.429-0.466-2.037-0.466c-0.539,0-0.945,0.085-1.22,0.254s-0.411,0.401-0.411,0.698
		c0,0.201,0.052,0.372,0.154,0.514c0.103,0.143,0.269,0.276,0.496,0.404c0.229,0.129,0.667,0.313,1.315,0.556
		c0.889,0.324,1.486,0.65,1.792,0.979c0.307,0.329,0.46,0.742,0.46,1.24c0,0.694-0.259,1.229-0.775,1.605s-1.241,0.564-2.175,0.564
		c-0.992,0-1.766-0.155-2.32-0.465v-1.047c0.359,0.183,0.745,0.326,1.156,0.432c0.412,0.104,0.81,0.157,1.191,0.157
		c0.594,0,1.05-0.095,1.37-0.284c0.319-0.189,0.479-0.479,0.479-0.867c0-0.292-0.127-0.542-0.38-0.75
		c-0.254-0.208-0.748-0.453-1.483-0.736c-0.699-0.261-1.194-0.488-1.487-0.682c-0.292-0.194-0.51-0.415-0.653-0.662
		C155.494,254.971,155.422,254.676,155.422,254.333z"/>
	<path fill="#666565" d="M165.799,256.225c0-1.219,0.305-2.169,0.913-2.849c0.609-0.681,1.454-1.021,2.535-1.021
		c1.046,0,1.876,0.348,2.491,1.044c0.616,0.696,0.924,1.638,0.924,2.825c0,1.224-0.307,2.179-0.92,2.866
		c-0.613,0.687-1.461,1.03-2.542,1.03c-0.669,0-1.262-0.157-1.779-0.473c-0.518-0.314-0.918-0.767-1.199-1.355
		C165.94,257.704,165.799,257.015,165.799,256.225z M166.961,256.225c0,0.959,0.191,1.69,0.575,2.192
		c0.383,0.503,0.947,0.754,1.691,0.754c0.743,0,1.309-0.25,1.694-0.75c0.385-0.5,0.578-1.232,0.578-2.196
		c0-0.955-0.193-1.68-0.578-2.176c-0.386-0.495-0.955-0.743-1.708-0.743c-0.744,0-1.306,0.244-1.685,0.733
		C167.151,254.527,166.961,255.256,166.961,256.225z"/>
	<path fill="#666565" d="M173.667,253.374v-0.513l1.34-0.41v-0.415c0-1.833,0.805-2.75,2.413-2.75c0.396,0,0.861,0.079,1.395,0.235
		l-0.294,0.899c-0.438-0.142-0.812-0.212-1.121-0.212c-0.429,0-0.745,0.143-0.95,0.428c-0.205,0.284-0.308,0.741-0.308,1.37v0.485
		h1.907v0.882h-1.907v6.61h-1.135v-6.61H173.667z"/>
	<path fill="#666565" d="M183.053,259.984v-10.637h1.135v10.637H183.053z"/>
	<path fill="#666565" d="M186.499,250.462c0-0.26,0.059-0.45,0.177-0.571c0.117-0.12,0.265-0.181,0.441-0.181
		c0.196,0,0.365,0.062,0.508,0.185s0.214,0.313,0.214,0.567s-0.071,0.445-0.214,0.571c-0.143,0.125-0.312,0.188-0.508,0.188
		c-0.177,0-0.324-0.063-0.441-0.188C186.557,250.907,186.499,250.717,186.499,250.462z M186.594,259.984v-7.492h1.039v7.492H186.594
		z"/>
	<path fill="#666565" d="M189.13,253.374v-0.513l1.34-0.41v-0.415c0-1.833,0.805-2.75,2.413-2.75c0.396,0,0.861,0.079,1.395,0.235
		l-0.294,0.899c-0.438-0.142-0.812-0.212-1.121-0.212c-0.429,0-0.745,0.143-0.95,0.428c-0.205,0.284-0.308,0.741-0.308,1.37v0.485
		h1.907v0.882h-1.907v6.61h-1.135v-6.61H189.13z"/>
	<path fill="#666565" d="M194.462,256.3c0-1.208,0.297-2.167,0.89-2.878s1.389-1.066,2.389-1.066c0.936,0,1.676,0.309,2.221,0.926
		c0.545,0.618,0.817,1.433,0.817,2.444v0.718h-5.154c0.022,0.88,0.245,1.547,0.668,2.003c0.422,0.456,1.017,0.684,1.783,0.684
		c0.805,0,1.6-0.169,2.386-0.506v1.012c-0.4,0.173-0.778,0.298-1.135,0.372c-0.357,0.076-0.787,0.113-1.292,0.113
		c-1.104,0-1.976-0.337-2.614-1.012S194.462,257.498,194.462,256.3z M195.652,255.521h3.924c0-0.716-0.16-1.264-0.479-1.644
		c-0.319-0.381-0.776-0.571-1.369-0.571c-0.603,0-1.083,0.196-1.441,0.588S195.715,254.828,195.652,255.521z"/>
	<path fill="#666565" d="M206.371,259.984v-10.637h1.135v10.637H206.371z"/>
	<path fill="#666565" d="M209.495,256.225c0-1.219,0.305-2.169,0.913-2.849c0.609-0.681,1.454-1.021,2.535-1.021
		c1.046,0,1.876,0.348,2.491,1.044c0.616,0.696,0.924,1.638,0.924,2.825c0,1.224-0.307,2.179-0.92,2.866
		c-0.613,0.687-1.461,1.03-2.542,1.03c-0.669,0-1.262-0.157-1.779-0.473c-0.518-0.314-0.918-0.767-1.199-1.355
		C209.635,257.704,209.495,257.015,209.495,256.225z M210.657,256.225c0,0.959,0.191,1.69,0.575,2.192
		c0.383,0.503,0.947,0.754,1.691,0.754c0.743,0,1.309-0.25,1.694-0.75c0.385-0.5,0.578-1.232,0.578-2.196
		c0-0.955-0.193-1.68-0.578-2.176c-0.386-0.495-0.955-0.743-1.708-0.743c-0.744,0-1.306,0.244-1.685,0.733
		C210.846,254.527,210.657,255.256,210.657,256.225z"/>
	<path fill="#666565" d="M217.889,254.333c0-0.611,0.248-1.094,0.744-1.447s1.177-0.53,2.042-0.53c0.802,0,1.585,0.164,2.351,0.492
		l-0.396,0.924c-0.75-0.311-1.429-0.466-2.037-0.466c-0.539,0-0.945,0.085-1.22,0.254s-0.411,0.401-0.411,0.698
		c0,0.201,0.052,0.372,0.154,0.514c0.103,0.143,0.269,0.276,0.496,0.404c0.229,0.129,0.667,0.313,1.315,0.556
		c0.889,0.324,1.486,0.65,1.792,0.979c0.307,0.329,0.46,0.742,0.46,1.24c0,0.694-0.259,1.229-0.775,1.605s-1.241,0.564-2.175,0.564
		c-0.992,0-1.766-0.155-2.32-0.465v-1.047c0.359,0.183,0.745,0.326,1.156,0.432c0.412,0.104,0.81,0.157,1.191,0.157
		c0.594,0,1.05-0.095,1.37-0.284c0.319-0.189,0.479-0.479,0.479-0.867c0-0.292-0.127-0.542-0.38-0.75
		c-0.254-0.208-0.748-0.453-1.483-0.736c-0.699-0.261-1.194-0.488-1.487-0.682c-0.292-0.194-0.51-0.415-0.653-0.662
		C217.96,254.971,217.889,254.676,217.889,254.333z"/>
	<path fill="#666565" d="M224.055,253.374v-0.547l1.073-0.472l0.479-1.6h0.656v1.736h2.174v0.882h-2.174v4.42
		c0,0.452,0.107,0.799,0.321,1.041s0.508,0.363,0.882,0.363c0.2,0,0.395-0.015,0.581-0.045c0.187-0.029,0.335-0.061,0.444-0.092
		v0.857c-0.123,0.059-0.305,0.106-0.543,0.145c-0.24,0.038-0.455,0.058-0.646,0.058c-1.449,0-2.174-0.764-2.174-2.29v-4.457H224.055
		z"/>
	<path fill="#666565" d="M232.983,256.149c0-1.208,0.179-2.338,0.536-3.391c0.356-1.053,0.869-1.976,1.535-2.769h1.107
		c-0.656,0.88-1.149,1.846-1.479,2.898c-0.331,1.053-0.496,2.135-0.496,3.247c0,1.094,0.169,2.162,0.506,3.206
		s0.822,1.996,1.456,2.857h-1.094c-0.671-0.774-1.184-1.68-1.539-2.714C233.161,258.451,232.983,257.339,232.983,256.149z"/>
	<path fill="#666565" d="M236.565,249.99h1.271l2.639,4.997l2.659-4.997h1.258l-3.336,6.118v3.876h-1.162v-3.821L236.565,249.99z"/>
	<path fill="#666565" d="M245.78,259.984v-9.994h1.162v8.955h4.409v1.039H245.78z"/>
	<path fill="#666565" d="M253.046,259.984v-9.994h1.162v8.955h4.409v1.039H253.046z"/>
	<path fill="#666565" d="M259.356,249.99h1.107c0.671,0.798,1.184,1.724,1.539,2.779c0.354,1.055,0.532,2.182,0.532,3.38
		s-0.179,2.315-0.536,3.35s-0.869,1.935-1.535,2.7h-1.094c0.634-0.856,1.119-1.809,1.456-2.854c0.337-1.047,0.506-2.116,0.506-3.21
		c0-1.112-0.165-2.194-0.496-3.247C260.505,251.836,260.012,250.87,259.356,249.99z"/>
	<path fill="#666565" d="M267.292,256.751v-1.039h3.356v1.039H267.292z"/>
	<path fill="#666565" d="M276.234,259.984v-9.994h5.571v1.039h-4.409v3.65h4.143v1.039h-4.143v4.266H276.234z"/>
	<path fill="#666565" d="M282.728,257.921c0-1.51,1.212-2.301,3.635-2.373l1.273-0.042v-0.47c0-0.596-0.126-1.035-0.379-1.318
		c-0.252-0.284-0.656-0.426-1.211-0.426c-0.623,0-1.328,0.193-2.115,0.581l-0.353-0.871c0.369-0.197,0.773-0.353,1.213-0.465
		c0.44-0.111,0.881-0.168,1.323-0.168c0.893,0,1.554,0.198,1.983,0.595c0.431,0.396,0.646,1.032,0.646,1.907v5.113h-0.841
		l-0.226-1.054h-0.055c-0.373,0.464-0.745,0.779-1.115,0.943c-0.371,0.165-0.834,0.247-1.389,0.247c-0.747,0-1.332-0.19-1.755-0.572
		C282.94,259.167,282.728,258.625,282.728,257.921z M283.931,257.935c0,0.412,0.124,0.726,0.372,0.94
		c0.248,0.216,0.595,0.323,1.04,0.323c0.705,0,1.259-0.194,1.662-0.584c0.402-0.389,0.604-0.934,0.604-1.635v-0.68l-1.133,0.048
		c-0.9,0.032-1.55,0.173-1.948,0.423C284.13,257.02,283.931,257.408,283.931,257.935z"/>
	<path fill="#666565" d="M290.083,253.374v-0.547l1.073-0.472l0.479-1.6h0.656v1.736h2.174v0.882h-2.174v4.42
		c0,0.452,0.107,0.799,0.321,1.041s0.508,0.363,0.882,0.363c0.2,0,0.395-0.015,0.581-0.045c0.187-0.029,0.335-0.061,0.444-0.092
		v0.857c-0.123,0.059-0.305,0.106-0.543,0.145c-0.24,0.038-0.455,0.058-0.646,0.058c-1.449,0-2.174-0.764-2.174-2.29v-4.457H290.083
		z"/>
	<path fill="#666565" d="M295.457,257.921c0-1.51,1.212-2.301,3.635-2.373l1.273-0.042v-0.47c0-0.596-0.126-1.035-0.379-1.318
		c-0.252-0.284-0.656-0.426-1.211-0.426c-0.623,0-1.328,0.193-2.115,0.581l-0.353-0.871c0.369-0.197,0.773-0.353,1.213-0.465
		c0.44-0.111,0.881-0.168,1.323-0.168c0.893,0,1.554,0.198,1.983,0.595c0.431,0.396,0.646,1.032,0.646,1.907v5.113h-0.841
		l-0.226-1.054h-0.055c-0.373,0.464-0.745,0.779-1.115,0.943c-0.371,0.165-0.834,0.247-1.389,0.247c-0.747,0-1.332-0.19-1.755-0.572
		C295.668,259.167,295.457,258.625,295.457,257.921z M296.66,257.935c0,0.412,0.124,0.726,0.372,0.94
		c0.248,0.216,0.595,0.323,1.04,0.323c0.705,0,1.259-0.194,1.662-0.584c0.402-0.389,0.604-0.934,0.604-1.635v-0.68l-1.133,0.048
		c-0.9,0.032-1.55,0.173-1.948,0.423C296.859,257.02,296.66,257.408,296.66,257.935z"/>
	<path fill="#666565" d="M303.803,259.984v-10.637h1.135v10.637H303.803z"/>
	<path fill="#666565" d="M310.885,250.462c0-0.26,0.059-0.45,0.177-0.571c0.117-0.12,0.265-0.181,0.441-0.181
		c0.196,0,0.365,0.062,0.508,0.185s0.214,0.313,0.214,0.567s-0.071,0.445-0.214,0.571c-0.143,0.125-0.312,0.188-0.508,0.188
		c-0.177,0-0.324-0.063-0.441-0.188C310.944,250.907,310.885,250.717,310.885,250.462z M310.981,259.984v-7.492h1.039v7.492H310.981
		z"/>
	<path fill="#666565" d="M314.522,259.984v-7.492h0.923l0.185,1.012h0.055c0.232-0.364,0.559-0.647,0.978-0.848
		s0.887-0.301,1.401-0.301c0.902,0,1.581,0.218,2.037,0.652c0.456,0.436,0.684,1.132,0.684,2.089v4.888h-1.135v-4.856
		c0-0.612-0.139-1.068-0.417-1.37s-0.713-0.452-1.306-0.452c-0.784,0-1.358,0.212-1.723,0.637s-0.547,1.126-0.547,2.104v3.938
		H314.522z"/>
	<path fill="#666565" d="M321.153,262.261c0.314,0.091,0.624,0.137,0.93,0.137c0.355,0,0.616-0.097,0.782-0.291
		c0.167-0.193,0.25-0.489,0.25-0.886v-8.729h1.135v8.641c0,1.477-0.682,2.215-2.044,2.215c-0.433,0-0.784-0.057-1.053-0.17V262.261z
		 M323.019,250.462c0-0.26,0.063-0.45,0.191-0.571c0.128-0.12,0.287-0.181,0.479-0.181c0.208,0,0.388,0.062,0.539,0.185
		s0.227,0.313,0.227,0.567s-0.075,0.445-0.227,0.571c-0.151,0.125-0.331,0.188-0.539,0.188c-0.191,0-0.351-0.063-0.479-0.188
		C323.083,250.907,323.019,250.717,323.019,250.462z"/>
	<path fill="#666565" d="M326.574,257.394v-4.901h1.162v4.86c0,0.61,0.139,1.066,0.416,1.367s0.712,0.451,1.304,0.451
		c0.782,0,1.354-0.214,1.716-0.643c0.362-0.429,0.543-1.128,0.543-2.099v-3.938h1.135v7.492h-0.923l-0.176-1.005h-0.063
		c-0.232,0.369-0.554,0.651-0.966,0.848c-0.411,0.196-0.881,0.294-1.409,0.294c-0.915,0-1.601-0.217-2.056-0.649
		S326.574,258.346,326.574,257.394z"/>
	<path fill="#666565" d="M335.249,259.984v-7.492h0.923l0.139,1.394h0.059c0.278-0.489,0.614-0.866,1.006-1.132
		s0.822-0.398,1.292-0.398c0.333,0,0.631,0.027,0.896,0.083l-0.157,1.059c-0.31-0.068-0.583-0.103-0.82-0.103
		c-0.606,0-1.125,0.246-1.555,0.737c-0.432,0.492-0.646,1.104-0.646,1.837v4.016H335.249z"/>
	<path fill="#666565" d="M340.868,250.462c0-0.26,0.059-0.45,0.177-0.571c0.117-0.12,0.265-0.181,0.441-0.181
		c0.196,0,0.365,0.062,0.508,0.185s0.214,0.313,0.214,0.567s-0.071,0.445-0.214,0.571c-0.143,0.125-0.312,0.188-0.508,0.188
		c-0.177,0-0.324-0.063-0.441-0.188C340.926,250.907,340.868,250.717,340.868,250.462z M340.963,259.984v-7.492h1.039v7.492H340.963
		z"/>
	<path fill="#666565" d="M344.087,256.3c0-1.208,0.297-2.167,0.89-2.878s1.389-1.066,2.389-1.066c0.936,0,1.676,0.309,2.221,0.926
		c0.545,0.618,0.817,1.433,0.817,2.444v0.718h-5.154c0.022,0.88,0.245,1.547,0.668,2.003c0.422,0.456,1.017,0.684,1.783,0.684
		c0.805,0,1.6-0.169,2.386-0.506v1.012c-0.4,0.173-0.778,0.298-1.135,0.372c-0.357,0.076-0.787,0.113-1.292,0.113
		c-1.104,0-1.976-0.337-2.614-1.012S344.087,257.498,344.087,256.3z M345.277,255.521h3.924c0-0.716-0.16-1.264-0.479-1.644
		c-0.319-0.381-0.776-0.571-1.369-0.571c-0.603,0-1.083,0.196-1.441,0.588S345.34,254.828,345.277,255.521z"/>
	<path fill="#666565" d="M351.88,254.333c0-0.611,0.248-1.094,0.744-1.447s1.177-0.53,2.042-0.53c0.802,0,1.585,0.164,2.351,0.492
		l-0.396,0.924c-0.75-0.311-1.429-0.466-2.037-0.466c-0.539,0-0.945,0.085-1.22,0.254s-0.411,0.401-0.411,0.698
		c0,0.201,0.052,0.372,0.154,0.514c0.103,0.143,0.269,0.276,0.496,0.404c0.229,0.129,0.667,0.313,1.315,0.556
		c0.889,0.324,1.486,0.65,1.792,0.979c0.307,0.329,0.46,0.742,0.46,1.24c0,0.694-0.259,1.229-0.775,1.605s-1.241,0.564-2.175,0.564
		c-0.992,0-1.766-0.155-2.32-0.465v-1.047c0.359,0.183,0.745,0.326,1.156,0.432c0.412,0.104,0.81,0.157,1.191,0.157
		c0.594,0,1.05-0.095,1.37-0.284c0.319-0.189,0.479-0.479,0.479-0.867c0-0.292-0.127-0.542-0.38-0.75
		c-0.254-0.208-0.748-0.453-1.483-0.736c-0.699-0.261-1.194-0.488-1.487-0.682c-0.292-0.194-0.51-0.415-0.653-0.662
		C351.952,254.971,351.88,254.676,351.88,254.333z"/>
</g>
<g>
	<path fill="#666565" d="M134.407,45.039l2.648-2.044h0.98v9.994h-1.135v-7.123c0-0.592,0.019-1.153,0.056-1.682
		c-0.096,0.096-0.203,0.196-0.321,0.301c-0.119,0.105-0.661,0.549-1.627,1.333L134.407,45.039z"/>
	<path fill="#666565" d="M141.836,50.439c0-1.144,0.702-2.035,2.104-2.673c-0.636-0.355-1.092-0.739-1.369-1.152
		s-0.415-0.874-0.415-1.384c0-0.725,0.269-1.302,0.808-1.733s1.26-0.646,2.163-0.646c0.915,0,1.639,0.212,2.174,0.636
		s0.803,1.009,0.803,1.757c0,0.492-0.154,0.941-0.461,1.347s-0.798,0.775-1.472,1.107c0.815,0.387,1.395,0.794,1.739,1.22
		s0.516,0.919,0.516,1.48c0,0.83-0.291,1.491-0.871,1.986s-1.376,0.742-2.386,0.742c-1.07,0-1.893-0.233-2.469-0.701
		C142.125,51.958,141.836,51.296,141.836,50.439z M142.971,50.467c0,0.547,0.19,0.973,0.57,1.278s0.914,0.458,1.601,0.458
		c0.678,0,1.206-0.16,1.583-0.479c0.377-0.319,0.566-0.756,0.566-1.313c0-0.442-0.178-0.835-0.532-1.179
		c-0.355-0.344-0.974-0.678-1.856-1.001c-0.678,0.292-1.169,0.614-1.475,0.967C143.124,49.552,142.971,49.975,142.971,50.467z
		 M143.292,45.278c0,0.419,0.134,0.779,0.402,1.08c0.269,0.301,0.764,0.602,1.488,0.902c0.65-0.273,1.111-0.567,1.382-0.882
		c0.271-0.314,0.406-0.681,0.406-1.101c0-0.46-0.165-0.826-0.495-1.097c-0.33-0.271-0.784-0.407-1.361-0.407
		c-0.569,0-1.014,0.137-1.337,0.41C143.454,44.458,143.292,44.823,143.292,45.278z"/>
	<path fill="#666565" d="M150.169,52.265c0-0.305,0.069-0.537,0.208-0.694s0.338-0.236,0.598-0.236c0.264,0,0.471,0.079,0.619,0.236
		s0.222,0.389,0.222,0.694c0,0.296-0.075,0.524-0.226,0.684s-0.355,0.239-0.615,0.239c-0.232,0-0.425-0.072-0.578-0.215
		S150.169,52.593,150.169,52.265z"/>
	<path fill="#666565" d="M153.765,52.578V51.48c0.319,0.205,0.715,0.365,1.189,0.48s0.941,0.174,1.401,0.174
		c0.802,0,1.425-0.188,1.87-0.565s0.667-0.922,0.667-1.636c0-1.39-0.855-2.085-2.566-2.085c-0.433,0-1.013,0.066-1.738,0.198
		L154,47.67l0.38-4.675h4.97v1.039h-4.001l-0.253,3.008c0.524-0.096,1.046-0.144,1.566-0.144c1.053,0,1.882,0.259,2.486,0.777
		s0.906,1.228,0.906,2.128c0,1.037-0.329,1.85-0.988,2.438s-1.566,0.883-2.724,0.883C155.217,53.126,154.357,52.943,153.765,52.578z
		"/>
	<path fill="#666565" d="M161.141,50.699v-0.998l4.744-6.761h1.203v6.72h1.497v1.039h-1.497v2.29h-1.073v-2.29H161.141z
		 M162.29,49.66h3.726v-3.322c0-0.652,0.022-1.388,0.068-2.208h-0.055c-0.219,0.438-0.424,0.8-0.615,1.087L162.29,49.66z"/>
</g>
<g>
	<path fill="#666565" d="M208.388,50.699v-0.998l4.744-6.761h1.203v6.72h1.497v1.039h-1.497v2.29h-1.073v-2.29H208.388z
		 M209.536,49.66h3.726v-3.322c0-0.652,0.022-1.388,0.068-2.208h-0.055c-0.219,0.438-0.424,0.8-0.615,1.087L209.536,49.66z"/>
	<path fill="#666565" d="M216.823,50.439c0-1.144,0.702-2.035,2.104-2.673c-0.636-0.355-1.092-0.739-1.369-1.152
		s-0.415-0.874-0.415-1.384c0-0.725,0.269-1.302,0.808-1.733s1.26-0.646,2.163-0.646c0.915,0,1.639,0.212,2.174,0.636
		s0.803,1.009,0.803,1.757c0,0.492-0.154,0.941-0.461,1.347s-0.798,0.775-1.472,1.107c0.815,0.387,1.395,0.794,1.739,1.22
		s0.516,0.919,0.516,1.48c0,0.83-0.291,1.491-0.871,1.986s-1.376,0.742-2.386,0.742c-1.07,0-1.893-0.233-2.469-0.701
		C217.111,51.958,216.823,51.296,216.823,50.439z M217.958,50.467c0,0.547,0.19,0.973,0.57,1.278s0.914,0.458,1.601,0.458
		c0.678,0,1.206-0.16,1.583-0.479c0.377-0.319,0.566-0.756,0.566-1.313c0-0.442-0.178-0.835-0.532-1.179
		c-0.355-0.344-0.974-0.678-1.856-1.001c-0.678,0.292-1.169,0.614-1.475,0.967C218.11,49.552,217.958,49.975,217.958,50.467z
		 M218.279,45.278c0,0.419,0.134,0.779,0.402,1.08c0.269,0.301,0.764,0.602,1.488,0.902c0.65-0.273,1.111-0.567,1.382-0.882
		c0.271-0.314,0.406-0.681,0.406-1.101c0-0.46-0.165-0.826-0.495-1.097c-0.33-0.271-0.784-0.407-1.361-0.407
		c-0.569,0-1.014,0.137-1.337,0.41C218.441,44.458,218.279,44.823,218.279,45.278z"/>
	<path fill="#666565" d="M225.156,52.265c0-0.305,0.069-0.537,0.208-0.694s0.338-0.236,0.598-0.236c0.264,0,0.471,0.079,0.619,0.236
		s0.222,0.389,0.222,0.694c0,0.296-0.075,0.524-0.226,0.684s-0.355,0.239-0.615,0.239c-0.232,0-0.425-0.072-0.578-0.215
		S225.156,52.593,225.156,52.265z"/>
	<path fill="#666565" d="M228.485,44.034v-1.039h6.651v0.903l-4.088,9.091h-1.258l4.143-8.955H228.485z"/>
	<path fill="#666565" d="M236.49,44.034v-1.039h6.651v0.903l-4.088,9.091h-1.258l4.143-8.955H236.49z"/>
</g>
<g>
	<path fill="#666565" d="M161.388,116.257v-0.998l4.744-6.761h1.203v6.72h1.497v1.039h-1.497v2.29h-1.073v-2.29H161.388z
		 M162.536,115.218h3.726v-3.322c0-0.652,0.022-1.388,0.068-2.208h-0.055c-0.219,0.438-0.424,0.8-0.615,1.087L162.536,115.218z"/>
	<path fill="#666565" d="M169.823,115.998c0-1.144,0.702-2.035,2.104-2.673c-0.636-0.355-1.092-0.739-1.369-1.152
		s-0.415-0.874-0.415-1.384c0-0.725,0.269-1.302,0.808-1.733s1.26-0.646,2.163-0.646c0.915,0,1.639,0.212,2.174,0.636
		s0.803,1.009,0.803,1.757c0,0.492-0.154,0.941-0.461,1.347s-0.798,0.775-1.472,1.107c0.815,0.387,1.395,0.794,1.739,1.22
		s0.516,0.919,0.516,1.48c0,0.83-0.291,1.491-0.871,1.986s-1.376,0.742-2.386,0.742c-1.07,0-1.893-0.233-2.469-0.701
		C170.111,117.516,169.823,116.854,169.823,115.998z M170.958,116.025c0,0.547,0.19,0.973,0.57,1.278s0.914,0.458,1.601,0.458
		c0.678,0,1.206-0.16,1.583-0.479c0.377-0.319,0.566-0.756,0.566-1.313c0-0.442-0.178-0.835-0.532-1.179
		c-0.355-0.344-0.974-0.678-1.856-1.001c-0.678,0.292-1.169,0.614-1.475,0.967C171.11,115.11,170.958,115.533,170.958,116.025z
		 M171.279,110.836c0,0.419,0.134,0.779,0.402,1.08c0.269,0.301,0.764,0.602,1.488,0.902c0.65-0.273,1.111-0.567,1.382-0.882
		c0.271-0.314,0.406-0.681,0.406-1.101c0-0.46-0.165-0.826-0.495-1.097c-0.33-0.271-0.784-0.407-1.361-0.407
		c-0.569,0-1.014,0.137-1.337,0.41C171.441,110.016,171.279,110.381,171.279,110.836z"/>
	<path fill="#666565" d="M178.156,117.823c0-0.305,0.069-0.537,0.208-0.694s0.338-0.236,0.598-0.236
		c0.264,0,0.471,0.079,0.619,0.236s0.222,0.389,0.222,0.694c0,0.296-0.075,0.524-0.226,0.684s-0.355,0.239-0.615,0.239
		c-0.232,0-0.425-0.072-0.578-0.215S178.156,118.151,178.156,117.823z"/>
	<path fill="#666565" d="M182.129,110.597l2.648-2.044h0.98v9.994h-1.135v-7.123c0-0.592,0.019-1.153,0.056-1.682
		c-0.096,0.096-0.203,0.196-0.321,0.301c-0.119,0.105-0.661,0.549-1.627,1.333L182.129,110.597z"/>
	<path fill="#666565" d="M189.572,111.763c0-1.036,0.292-1.854,0.875-2.454c0.583-0.6,1.35-0.9,2.301-0.9
		c0.681,0,1.276,0.174,1.786,0.522s0.902,0.856,1.176,1.522c0.274,0.667,0.412,1.454,0.412,2.359c0,3.914-1.516,5.87-4.547,5.87
		c-0.53,0-0.951-0.045-1.261-0.137v-0.991c0.366,0.137,0.782,0.205,1.248,0.205c1.092,0,1.917-0.339,2.474-1.019
		c0.557-0.679,0.861-1.721,0.911-3.125h-0.082c-0.25,0.383-0.583,0.675-0.996,0.875c-0.415,0.201-0.881,0.301-1.399,0.301
		c-0.887,0-1.592-0.266-2.113-0.799C189.833,113.462,189.572,112.719,189.572,111.763z M190.707,111.75
		c0,0.659,0.164,1.178,0.491,1.556c0.328,0.377,0.826,0.566,1.495,0.566c0.414,0,0.795-0.084,1.144-0.254
		c0.348-0.169,0.622-0.401,0.822-0.694s0.3-0.6,0.3-0.92c0-0.481-0.093-0.925-0.28-1.333c-0.187-0.407-0.447-0.728-0.782-0.961
		c-0.334-0.233-0.718-0.35-1.15-0.35c-0.65,0-1.153,0.21-1.508,0.632S190.707,110.999,190.707,111.75z"/>
</g>
<g>
	<g>
		<g>
			<path fill="#666565" d="M385.087,183.521c0-1.232,0.193-2.148,0.579-2.746s0.974-0.896,1.766-0.896
				c0.769,0,1.352,0.311,1.751,0.936c0.399,0.623,0.598,1.525,0.598,2.707c0,1.227-0.193,2.143-0.579,2.746
				c-0.386,0.605-0.976,0.908-1.771,0.908c-0.765,0-1.347-0.311-1.746-0.93S385.087,184.719,385.087,183.521z M385.912,183.521
				c0,1.029,0.121,1.777,0.363,2.248c0.242,0.469,0.628,0.703,1.157,0.703c0.536,0,0.924-0.238,1.164-0.713
				c0.241-0.477,0.361-1.223,0.361-2.238s-0.12-1.76-0.361-2.23c-0.24-0.473-0.628-0.709-1.164-0.709
				c-0.529,0-0.915,0.232-1.157,0.699C386.033,181.746,385.912,182.494,385.912,183.521z"/>
		</g>
		<g>
			<path fill="#666565" d="M445.52,181.439l1.877-1.449h0.696v7.088h-0.806v-5.051c0-0.422,0.014-0.818,0.041-1.193
				c-0.068,0.068-0.145,0.139-0.229,0.213s-0.469,0.391-1.154,0.945L445.52,181.439z"/>
			<path fill="#666565" d="M451.021,186.564c0-0.217,0.049-0.381,0.147-0.492s0.24-0.168,0.425-0.168
				c0.188,0,0.333,0.057,0.438,0.168c0.104,0.111,0.157,0.275,0.157,0.492c0,0.211-0.053,0.371-0.16,0.484
				c-0.106,0.113-0.252,0.17-0.436,0.17c-0.166,0-0.302-0.051-0.41-0.152S451.021,186.797,451.021,186.564z"/>
			<path fill="#666565" d="M453.422,183.521c0-1.232,0.192-2.148,0.578-2.746s0.975-0.896,1.766-0.896
				c0.769,0,1.352,0.311,1.751,0.936c0.399,0.623,0.599,1.525,0.599,2.707c0,1.227-0.193,2.143-0.579,2.746
				c-0.386,0.605-0.976,0.908-1.771,0.908c-0.766,0-1.348-0.311-1.746-0.93S453.422,184.719,453.422,183.521z M454.246,183.521
				c0,1.029,0.121,1.777,0.362,2.248c0.242,0.469,0.628,0.703,1.157,0.703c0.535,0,0.924-0.238,1.164-0.713
				c0.24-0.477,0.361-1.223,0.361-2.238s-0.121-1.76-0.361-2.23c-0.24-0.473-0.629-0.709-1.164-0.709
				c-0.529,0-0.915,0.232-1.157,0.699C454.367,181.746,454.246,182.494,454.246,183.521z"/>
		</g>
		<g>
			<path fill="#666565" d="M509.265,187.078v-0.684l1.867-1.885c0.568-0.576,0.943-0.988,1.125-1.236
				c0.181-0.246,0.316-0.486,0.407-0.721c0.091-0.232,0.136-0.484,0.136-0.754c0-0.379-0.115-0.682-0.345-0.902
				c-0.229-0.223-0.548-0.334-0.955-0.334c-0.294,0-0.572,0.049-0.836,0.146s-0.557,0.273-0.88,0.529l-0.427-0.549
				c0.652-0.535,1.364-0.801,2.133-0.801c0.666,0,1.188,0.17,1.566,0.508c0.378,0.34,0.567,0.797,0.567,1.369
				c0,0.451-0.126,0.896-0.378,1.338c-0.253,0.441-0.725,1-1.416,1.676l-1.552,1.523v0.039h3.646v0.736H509.265z"/>
			<path fill="#666565" d="M515.195,186.564c0-0.217,0.049-0.381,0.147-0.492s0.24-0.168,0.425-0.168
				c0.187,0,0.333,0.057,0.438,0.168c0.104,0.111,0.157,0.275,0.157,0.492c0,0.211-0.053,0.371-0.16,0.484
				c-0.106,0.113-0.252,0.17-0.436,0.17c-0.165,0-0.302-0.051-0.41-0.152S515.195,186.797,515.195,186.564z"/>
			<path fill="#666565" d="M517.595,183.521c0-1.232,0.193-2.148,0.579-2.746s0.975-0.896,1.766-0.896
				c0.769,0,1.353,0.311,1.751,0.936c0.398,0.623,0.598,1.525,0.598,2.707c0,1.227-0.192,2.143-0.578,2.746
				c-0.386,0.605-0.977,0.908-1.771,0.908c-0.766,0-1.348-0.311-1.746-0.93S517.595,184.719,517.595,183.521z M518.419,183.521
				c0,1.029,0.121,1.777,0.363,2.248c0.242,0.469,0.628,0.703,1.157,0.703c0.535,0,0.924-0.238,1.164-0.713
				c0.24-0.477,0.36-1.223,0.36-2.238s-0.12-1.76-0.36-2.23c-0.24-0.473-0.629-0.709-1.164-0.709c-0.529,0-0.915,0.232-1.157,0.699
				C518.54,181.746,518.419,182.494,518.419,183.521z"/>
		</g>
		<g>
			<path fill="#666565" d="M573.412,186.799v-0.764c0.307,0.152,0.634,0.268,0.981,0.348s0.677,0.119,0.986,0.119
				c1.226,0,1.838-0.482,1.838-1.445c0-0.863-0.678-1.295-2.034-1.295h-0.7v-0.703h0.711c0.555,0,0.994-0.121,1.318-0.365
				c0.325-0.246,0.487-0.584,0.487-1.02c0-0.346-0.119-0.617-0.356-0.814c-0.237-0.199-0.561-0.297-0.968-0.297
				c-0.31,0-0.603,0.041-0.877,0.127c-0.275,0.084-0.589,0.238-0.941,0.465l-0.407-0.543c0.291-0.225,0.627-0.402,1.007-0.531
				c0.38-0.127,0.779-0.191,1.199-0.191c0.688,0,1.223,0.156,1.601,0.469s0.567,0.742,0.567,1.289c0,0.453-0.127,0.824-0.381,1.113
				s-0.613,0.482-1.079,0.58v0.039c0.569,0.072,0.991,0.254,1.266,0.547c0.274,0.291,0.412,0.676,0.412,1.15
				c0,0.674-0.232,1.191-0.698,1.555c-0.465,0.363-1.13,0.545-1.992,0.545c-0.375,0-0.719-0.027-1.03-0.084
				C574.009,187.037,573.706,186.938,573.412,186.799z"/>
			<path fill="#666565" d="M579.371,186.564c0-0.217,0.049-0.381,0.147-0.492s0.24-0.168,0.425-0.168
				c0.187,0,0.333,0.057,0.438,0.168c0.104,0.111,0.157,0.275,0.157,0.492c0,0.211-0.053,0.371-0.16,0.484
				c-0.106,0.113-0.252,0.17-0.436,0.17c-0.165,0-0.302-0.051-0.41-0.152S579.371,186.797,579.371,186.564z"/>
			<path fill="#666565" d="M581.771,183.521c0-1.232,0.193-2.148,0.579-2.746s0.975-0.896,1.766-0.896
				c0.769,0,1.353,0.311,1.751,0.936c0.398,0.623,0.598,1.525,0.598,2.707c0,1.227-0.192,2.143-0.578,2.746
				c-0.386,0.605-0.977,0.908-1.771,0.908c-0.766,0-1.348-0.311-1.746-0.93S581.771,184.719,581.771,183.521z M582.595,183.521
				c0,1.029,0.121,1.777,0.363,2.248c0.242,0.469,0.628,0.703,1.157,0.703c0.535,0,0.924-0.238,1.164-0.713
				c0.24-0.477,0.36-1.223,0.36-2.238s-0.12-1.76-0.36-2.23c-0.24-0.473-0.629-0.709-1.164-0.709c-0.529,0-0.915,0.232-1.157,0.699
				C582.716,181.746,582.595,182.494,582.595,183.521z"/>
		</g>
		<g>
			<path fill="#666565" d="M605.499,186.799v-0.764c0.307,0.152,0.634,0.268,0.981,0.348s0.677,0.119,0.986,0.119
				c1.226,0,1.838-0.482,1.838-1.445c0-0.863-0.678-1.295-2.034-1.295h-0.7v-0.703h0.711c0.555,0,0.994-0.121,1.318-0.365
				c0.325-0.246,0.487-0.584,0.487-1.02c0-0.346-0.119-0.617-0.356-0.814c-0.237-0.199-0.561-0.297-0.968-0.297
				c-0.31,0-0.603,0.041-0.877,0.127c-0.275,0.084-0.589,0.238-0.941,0.465l-0.407-0.543c0.291-0.225,0.627-0.402,1.007-0.531
				c0.38-0.127,0.779-0.191,1.199-0.191c0.688,0,1.223,0.156,1.601,0.469s0.567,0.742,0.567,1.289c0,0.453-0.127,0.824-0.381,1.113
				s-0.613,0.482-1.079,0.58v0.039c0.569,0.072,0.991,0.254,1.266,0.547c0.274,0.291,0.412,0.676,0.412,1.15
				c0,0.674-0.232,1.191-0.698,1.555c-0.465,0.363-1.13,0.545-1.992,0.545c-0.375,0-0.719-0.027-1.03-0.084
				C606.096,187.037,605.793,186.938,605.499,186.799z"/>
			<path fill="#666565" d="M611.458,186.564c0-0.217,0.049-0.381,0.147-0.492s0.24-0.168,0.425-0.168
				c0.187,0,0.333,0.057,0.438,0.168c0.104,0.111,0.157,0.275,0.157,0.492c0,0.211-0.053,0.371-0.16,0.484
				c-0.106,0.113-0.252,0.17-0.436,0.17c-0.165,0-0.302-0.051-0.41-0.152S611.458,186.797,611.458,186.564z"/>
			<path fill="#666565" d="M614.008,186.787v-0.779c0.227,0.146,0.508,0.26,0.844,0.342s0.668,0.123,0.994,0.123
				c0.569,0,1.011-0.135,1.326-0.4c0.315-0.268,0.473-0.654,0.473-1.16c0-0.986-0.606-1.48-1.82-1.48
				c-0.307,0-0.718,0.047-1.232,0.141l-0.417-0.266l0.27-3.316h3.525v0.736h-2.838l-0.18,2.133c0.372-0.066,0.742-0.102,1.11-0.102
				c0.747,0,1.335,0.184,1.764,0.553c0.429,0.367,0.643,0.871,0.643,1.51c0,0.734-0.233,1.311-0.7,1.729
				c-0.468,0.418-1.111,0.627-1.933,0.627C615.038,187.176,614.429,187.047,614.008,186.787z"/>
		</g>
	</g>
	<line fill="none" stroke="#666666" stroke-miterlimit="10" x1="387.432" y1="177.103" x2="612.041" y2="177.103"/>
	<g>
		<g>
			<line fill="none" stroke="#666666" stroke-miterlimit="10" x1="387.432" y1="177.103" x2="387.432" y2="173.772"/>
			<line fill="none" stroke="#666666" stroke-miterlimit="10" x1="419.519" y1="177.103" x2="419.519" y2="173.772"/>
			<line fill="none" stroke="#666666" stroke-miterlimit="10" x1="451.606" y1="177.103" x2="451.606" y2="173.772"/>
			<line fill="none" stroke="#666666" stroke-miterlimit="10" x1="483.693" y1="177.103" x2="483.693" y2="173.772"/>
			<line fill="none" stroke="#666666" stroke-miterlimit="10" x1="515.781" y1="177.103" x2="515.781" y2="173.772"/>
			<line fill="none" stroke="#666666" stroke-miterlimit="10" x1="547.867" y1="177.103" x2="547.867" y2="173.772"/>
			<line fill="none" stroke="#666666" stroke-miterlimit="10" x1="579.955" y1="177.103" x2="579.955" y2="173.772"/>
			<line fill="none" stroke="#666666" stroke-miterlimit="10" x1="612.041" y1="177.103" x2="612.041" y2="173.772"/>
		</g>
	</g>
	<g>
		<line fill="none" stroke="#666666" stroke-miterlimit="10" x1="387.432" y1="177.103" x2="387.432" y2="43.926"/>
		<g>
			<g>
				<line fill="none" stroke="#666666" stroke-miterlimit="10" x1="387.432" y1="143.81" x2="393.047" y2="143.81"/>
				<line fill="none" stroke="#666666" stroke-miterlimit="10" x1="387.432" y1="77.22" x2="393.047" y2="77.22"/>
			</g>
		</g>
	</g>
	<g>
		<g>
			<g>
				<rect x="397.058" y="53.248" fill="#1F9B9C" width="209.209" height="47.943"/>
			</g>
		</g>
		<g>
			<g>
				<rect x="387.432" y="53.248" fill="#C7DFDF" width="9.626" height="47.943"/>
				<rect x="387.432" y="119.836" fill="#E9BF64" width="216.91" height="47.944"/>
			</g>
		</g>
	</g>
	<g>
		<path fill="#666565" d="M351.297,65.798h1.453l3.016,5.711l3.039-5.711h1.438l-3.813,6.992v4.43h-1.328v-4.367L351.297,65.798z"/>
		<path fill="#666565" d="M361.828,77.22V65.798h1.328v10.234h5.039v1.188H361.828z"/>
		<path fill="#666565" d="M370.133,77.22V65.798h1.328v10.234h5.039v1.188H370.133z"/>
	</g>
	<g>
		<path fill="#666565" d="M390.937,43.975c0-1.74,0.272-3.031,0.816-3.874c0.544-0.842,1.374-1.264,2.489-1.264
			c1.083,0,1.906,0.439,2.469,1.318c0.562,0.879,0.843,2.152,0.843,3.819c0,1.729-0.272,3.019-0.816,3.872
			c-0.544,0.853-1.376,1.279-2.496,1.279c-1.079,0-1.899-0.437-2.462-1.31C391.218,46.943,390.937,45.663,390.937,43.975z
			 M392.099,43.975c0,1.45,0.17,2.506,0.512,3.167c0.341,0.662,0.885,0.992,1.631,0.992c0.755,0,1.302-0.335,1.642-1.006
			c0.339-0.67,0.508-1.722,0.508-3.154s-0.169-2.481-0.508-3.147c-0.339-0.666-0.886-0.999-1.642-0.999
			c-0.746,0-1.29,0.329-1.631,0.985S392.099,42.525,392.099,43.975z"/>
		<path fill="#666565" d="M399.283,48.265c0-0.305,0.069-0.537,0.208-0.694s0.338-0.236,0.598-0.236
			c0.264,0,0.471,0.079,0.619,0.236s0.222,0.389,0.222,0.694c0,0.296-0.075,0.524-0.226,0.684s-0.355,0.239-0.615,0.239
			c-0.232,0-0.425-0.072-0.578-0.215S399.283,48.593,399.283,48.265z"/>
		<path fill="#666565" d="M403.256,41.039l2.648-2.044h0.98v9.994h-1.135v-7.123c0-0.592,0.019-1.153,0.056-1.682
			c-0.096,0.096-0.203,0.196-0.321,0.301c-0.119,0.105-0.661,0.549-1.627,1.333L403.256,41.039z"/>
		<path fill="#666565" d="M410.884,48.578V47.48c0.319,0.205,0.715,0.365,1.189,0.48s0.941,0.174,1.401,0.174
			c0.802,0,1.425-0.188,1.87-0.565s0.667-0.922,0.667-1.636c0-1.39-0.855-2.085-2.566-2.085c-0.433,0-1.013,0.066-1.738,0.198
			l-0.588-0.376l0.38-4.675h4.97v1.039h-4.001l-0.253,3.008c0.524-0.096,1.046-0.144,1.566-0.144c1.053,0,1.882,0.259,2.486,0.777
			s0.906,1.228,0.906,2.128c0,1.037-0.329,1.85-0.988,2.438s-1.566,0.883-2.724,0.883C412.335,49.126,411.476,48.943,410.884,48.578
			z"/>
	</g>
	<g>
		<path fill="#666565" d="M484.336,116.555v-1.077c0.434,0.215,0.895,0.378,1.385,0.491c0.489,0.112,0.953,0.168,1.391,0.168
			c1.727,0,2.591-0.679,2.591-2.038c0-1.216-0.956-1.825-2.868-1.825h-0.987v-0.991h1.002c0.782,0,1.401-0.172,1.86-0.517
			c0.457-0.345,0.686-0.823,0.686-1.435c0-0.488-0.168-0.872-0.502-1.15c-0.336-0.279-0.79-0.418-1.364-0.418
			c-0.438,0-0.851,0.06-1.237,0.178s-0.83,0.338-1.326,0.657l-0.574-0.767c0.41-0.317,0.883-0.566,1.418-0.747
			c0.536-0.181,1.1-0.271,1.692-0.271c0.971,0,1.723,0.221,2.256,0.662c0.533,0.441,0.8,1.047,0.8,1.816
			c0,0.641-0.179,1.165-0.537,1.572c-0.357,0.407-0.864,0.679-1.521,0.816v0.056c0.802,0.101,1.397,0.357,1.784,0.77
			s0.581,0.954,0.581,1.623c0,0.951-0.328,1.682-0.984,2.193c-0.656,0.512-1.593,0.768-2.81,0.768c-0.529,0-1.013-0.039-1.453-0.118
			C485.178,116.891,484.75,116.753,484.336,116.555z"/>
		<path fill="#666565" d="M492.737,116.226c0-0.305,0.069-0.537,0.208-0.694c0.14-0.157,0.339-0.236,0.599-0.236
			c0.265,0,0.471,0.079,0.618,0.236c0.148,0.157,0.223,0.389,0.223,0.694c0,0.296-0.075,0.524-0.226,0.684s-0.355,0.239-0.615,0.239
			c-0.232,0-0.425-0.072-0.577-0.215C492.813,116.79,492.737,116.554,492.737,116.226z"/>
		<path fill="#666565" d="M496.066,116.555v-1.077c0.434,0.215,0.895,0.378,1.385,0.491c0.489,0.112,0.953,0.168,1.391,0.168
			c1.727,0,2.591-0.679,2.591-2.038c0-1.216-0.956-1.825-2.868-1.825h-0.987v-0.991h1.002c0.782,0,1.401-0.172,1.86-0.517
			c0.457-0.345,0.686-0.823,0.686-1.435c0-0.488-0.168-0.872-0.502-1.15c-0.336-0.279-0.79-0.418-1.364-0.418
			c-0.438,0-0.851,0.06-1.237,0.178s-0.83,0.338-1.326,0.657l-0.574-0.767c0.41-0.317,0.883-0.566,1.418-0.747
			c0.536-0.181,1.1-0.271,1.692-0.271c0.971,0,1.723,0.221,2.256,0.662c0.533,0.441,0.8,1.047,0.8,1.816
			c0,0.641-0.179,1.165-0.537,1.572c-0.357,0.407-0.864,0.679-1.521,0.816v0.056c0.802,0.101,1.397,0.357,1.784,0.77
			s0.581,0.954,0.581,1.623c0,0.951-0.328,1.682-0.984,2.193c-0.656,0.512-1.593,0.768-2.81,0.768c-0.529,0-1.013-0.039-1.453-0.118
			C496.908,116.891,496.48,116.753,496.066,116.555z"/>
		<path fill="#666565" d="M504.14,114.401c0-1.144,0.702-2.035,2.104-2.673c-0.637-0.355-1.092-0.739-1.369-1.152
			c-0.275-0.413-0.414-0.874-0.414-1.384c0-0.725,0.27-1.302,0.808-1.733s1.26-0.646,2.163-0.646c0.914,0,1.639,0.212,2.174,0.636
			s0.803,1.009,0.803,1.757c0,0.492-0.154,0.941-0.461,1.347s-0.798,0.775-1.473,1.107c0.816,0.387,1.396,0.794,1.739,1.22
			s0.516,0.919,0.516,1.48c0,0.83-0.29,1.491-0.871,1.986s-1.376,0.742-2.386,0.742c-1.07,0-1.893-0.233-2.469-0.701
			S504.14,115.258,504.14,114.401z M505.274,114.428c0,0.547,0.19,0.973,0.569,1.278c0.381,0.305,0.914,0.458,1.602,0.458
			c0.678,0,1.205-0.16,1.583-0.479s0.566-0.756,0.566-1.313c0-0.442-0.178-0.835-0.532-1.179c-0.355-0.344-0.974-0.678-1.856-1.001
			c-0.679,0.292-1.169,0.614-1.475,0.967C505.427,113.513,505.274,113.936,505.274,114.428z M505.596,109.24
			c0,0.419,0.135,0.779,0.402,1.08c0.269,0.301,0.764,0.602,1.488,0.902c0.65-0.273,1.11-0.567,1.381-0.882
			c0.271-0.314,0.406-0.681,0.406-1.101c0-0.46-0.165-0.826-0.494-1.097c-0.33-0.271-0.784-0.407-1.361-0.407
			c-0.569,0-1.015,0.137-1.338,0.41C505.758,108.419,505.596,108.784,505.596,109.24z"/>
	</g>
	<g>
		<path fill="#666565" d="M477.117,48.594v-1.077c0.434,0.215,0.895,0.378,1.385,0.491c0.489,0.112,0.953,0.168,1.391,0.168
			c1.727,0,2.591-0.679,2.591-2.038c0-1.216-0.956-1.825-2.868-1.825h-0.987v-0.991h1.002c0.782,0,1.401-0.172,1.86-0.517
			c0.457-0.345,0.686-0.823,0.686-1.435c0-0.488-0.168-0.872-0.502-1.15c-0.336-0.279-0.79-0.418-1.364-0.418
			c-0.438,0-0.851,0.06-1.237,0.178s-0.83,0.338-1.326,0.657l-0.574-0.767c0.41-0.317,0.883-0.566,1.418-0.747
			c0.536-0.181,1.1-0.271,1.692-0.271c0.971,0,1.723,0.221,2.256,0.662c0.533,0.441,0.8,1.047,0.8,1.816
			c0,0.641-0.179,1.165-0.537,1.572c-0.357,0.407-0.864,0.679-1.521,0.816v0.056c0.802,0.101,1.397,0.357,1.784,0.77
			s0.581,0.954,0.581,1.623c0,0.951-0.328,1.682-0.984,2.193c-0.656,0.512-1.593,0.768-2.81,0.768c-0.529,0-1.013-0.039-1.453-0.118
			C477.959,48.93,477.531,48.792,477.117,48.594z"/>
		<path fill="#666565" d="M485.519,48.265c0-0.305,0.069-0.537,0.208-0.694c0.14-0.157,0.339-0.236,0.599-0.236
			c0.265,0,0.471,0.079,0.618,0.236c0.148,0.157,0.223,0.389,0.223,0.694c0,0.296-0.075,0.524-0.226,0.684s-0.355,0.239-0.615,0.239
			c-0.232,0-0.425-0.072-0.577-0.215C485.595,48.829,485.519,48.593,485.519,48.265z"/>
		<path fill="#666565" d="M488.889,48.989v-0.965l2.632-2.656c0.802-0.814,1.331-1.396,1.586-1.743s0.446-0.687,0.574-1.016
			c0.128-0.33,0.191-0.684,0.191-1.064c0-0.536-0.161-0.96-0.485-1.273s-0.772-0.47-1.347-0.47c-0.415,0-0.808,0.069-1.179,0.206
			c-0.372,0.137-0.785,0.387-1.241,0.748l-0.602-0.775c0.921-0.752,1.923-1.129,3.008-1.129c0.938,0,1.675,0.239,2.208,0.718
			c0.533,0.478,0.8,1.121,0.8,1.928c0,0.636-0.178,1.265-0.533,1.888s-1.021,1.41-1.996,2.361l-2.188,2.149v0.055h5.141v1.039
			H488.889z"/>
		<path fill="#666565" d="M497.01,44.72c0-1.965,0.382-3.435,1.145-4.408c0.764-0.974,1.893-1.46,3.388-1.46
			c0.517,0,0.924,0.043,1.222,0.13v0.991c-0.353-0.132-0.756-0.198-1.208-0.198c-1.071,0-1.89,0.335-2.454,1.005
			s-0.875,1.723-0.93,3.159h0.082c0.502-0.775,1.295-1.163,2.379-1.163c0.902,0,1.613,0.271,2.133,0.812s0.779,1.275,0.779,2.203
			c0,1.037-0.285,1.853-0.855,2.446c-0.569,0.594-1.34,0.891-2.31,0.891c-1.034,0-1.854-0.388-2.461-1.165
			S497.01,46.104,497.01,44.72z M498.172,45.536c0,0.471,0.092,0.91,0.273,1.316s0.441,0.729,0.775,0.967
			c0.336,0.238,0.717,0.356,1.146,0.356c0.647,0,1.149-0.205,1.507-0.614c0.358-0.409,0.537-1,0.537-1.772
			c0-0.663-0.166-1.184-0.499-1.563c-0.333-0.38-0.829-0.569-1.49-0.569c-0.41,0-0.786,0.084-1.128,0.254
			c-0.342,0.169-0.614,0.402-0.816,0.699C498.273,44.907,498.172,45.216,498.172,45.536z"/>
	</g>
	<g>
		<path fill="#666565" d="M351.297,143.236h1.453l3.016,5.711l3.039-5.711h1.438l-3.813,6.992v4.43h-1.328v-4.367L351.297,143.236z"
			/>
		<path fill="#666565" d="M361.828,154.658v-11.422h1.328v10.234h5.039v1.188H361.828z"/>
		<path fill="#666565" d="M370.133,154.658v-11.422h3.5c1.776,0,3.156,0.492,4.141,1.477s1.477,2.359,1.477,4.125
			c0,1.885-0.512,3.326-1.535,4.324c-1.023,0.997-2.496,1.496-4.418,1.496H370.133z M371.461,153.51h1.617
			c1.583,0,2.773-0.39,3.57-1.168c0.797-0.779,1.195-1.932,1.195-3.457c0-1.49-0.374-2.612-1.121-3.367
			c-0.748-0.756-1.858-1.133-3.332-1.133h-1.93V153.51z"/>
	</g>
</g>
<g>
	<path fill="#666565" d="M94.297,65.798h1.453l3.016,5.711l3.039-5.711h1.438L99.43,72.79v4.43h-1.328v-4.367L94.297,65.798z"/>
	<path fill="#666565" d="M104.828,77.22V65.798h1.328v10.234h5.039v1.188H104.828z"/>
	<path fill="#666565" d="M113.133,77.22V65.798h1.328v10.234h5.039v1.188H113.133z"/>
</g>
<g>
	<path fill="#666565" d="M94.297,143.236h1.453l3.016,5.711l3.039-5.711h1.438l-3.813,6.992v4.43h-1.328v-4.367L94.297,143.236z"/>
	<path fill="#666565" d="M104.828,154.658v-11.422h1.328v10.234h5.039v1.188H104.828z"/>
	<path fill="#666565" d="M113.133,154.658v-11.422h3.5c1.776,0,3.156,0.492,4.141,1.477s1.477,2.359,1.477,4.125
		c0,1.885-0.512,3.326-1.535,4.324c-1.023,0.997-2.496,1.496-4.418,1.496H113.133z M114.461,153.51h1.617
		c1.583,0,2.773-0.39,3.57-1.168c0.797-0.779,1.195-1.932,1.195-3.457c0-1.49-0.374-2.612-1.121-3.367
		c-0.748-0.756-1.858-1.133-3.332-1.133h-1.93V153.51z"/>
</g>
<g>
</g>
<g>
</g>
<g>
</g>
<g>
</g>
<g>
</g>
<g>
</g>
</svg>
