<?xml version="1.0" encoding="utf-8"?>
<!-- Generator: Adobe Illustrator 16.0.0, SVG Export Plug-In . SVG Version: 6.00 Build 0)  -->
<!DOCTYPE svg PUBLIC "-//W3C//DTD SVG 1.1//EN" "http://www.w3.org/Graphics/SVG/1.1/DTD/svg11.dtd">
<svg version="1.1" id="Capa_1" xmlns="http://www.w3.org/2000/svg" xmlns:xlink="http://www.w3.org/1999/xlink" x="0px" y="0px"
	 width="291.969px" height="850.394px" viewBox="0 0 291.969 850.394" enable-background="new 0 0 291.969 850.394"
	 xml:space="preserve">
<g id="global-estimates">
	<g>
		<rect x="135.891" y="195.738" fill="#199598" width="100.494" height="122.967"/>
		<rect x="135.891" y="70.674" fill="#DD9B2B" width="100.494" height="125.064"/>
	</g>
	<g>
		<path fill="#666565" d="M75.692,24.349c0-1.549,0.313-2.906,0.934-4.071s1.518-2.055,2.686-2.67
			c1.168-0.615,2.537-0.922,4.106-0.922c1.59,0,3.068,0.292,4.441,0.876l-0.672,1.529c-1.346-0.571-2.641-0.856-3.884-0.856
			c-1.813,0-3.229,0.54-4.249,1.62c-1.019,1.08-1.528,2.578-1.528,4.494c0,2.018,0.491,3.548,1.475,4.591
			c0.979,1.043,2.423,1.564,4.326,1.564c1.031,0,2.042-0.12,3.024-0.358v-4.604h-3.332v-1.549h5.063v7.255
			c-0.788,0.248-1.59,0.436-2.405,0.563c-0.814,0.127-1.76,0.191-2.833,0.191c-2.255,0-4.012-0.67-5.268-2.012
			C76.32,28.647,75.692,26.768,75.692,24.349z"/>
		<path fill="#666565" d="M91.406,31.798V15.942h1.69v15.856H91.406z"/>
		<path fill="#666565" d="M96.063,26.194c0-1.817,0.454-3.233,1.36-4.247c0.908-1.014,2.167-1.521,3.78-1.521
			c1.558,0,2.795,0.519,3.713,1.556c0.917,1.038,1.376,2.441,1.376,4.211c0,1.824-0.457,3.248-1.372,4.272
			c-0.915,1.024-2.178,1.536-3.79,1.536c-0.996,0-1.88-0.234-2.651-0.704c-0.771-0.47-1.368-1.144-1.788-2.021
			S96.063,27.371,96.063,26.194z M97.795,26.194c0,1.43,0.286,2.52,0.855,3.269c0.572,0.749,1.412,1.124,2.521,1.124
			c1.108,0,1.951-0.373,2.525-1.119c0.574-0.746,0.861-1.837,0.861-3.273c0-1.423-0.288-2.504-0.861-3.243
			c-0.573-0.739-1.425-1.108-2.547-1.108c-1.107,0-1.944,0.364-2.51,1.093C98.077,23.664,97.795,24.75,97.795,26.194z"/>
		<path fill="#666565" d="M109.29,31.798V15.942h1.689v3.852c0,0.863-0.025,1.637-0.082,2.323h0.082
			c0.788-1.114,1.957-1.671,3.506-1.671c1.46,0,2.597,0.501,3.402,1.503c0.812,1.002,1.213,2.42,1.213,4.254
			s-0.407,3.259-1.223,4.274c-0.814,1.016-1.945,1.523-3.396,1.523c-0.728,0-1.392-0.134-1.99-0.402
			c-0.604-0.268-1.106-0.681-1.516-1.238h-0.121l-0.354,1.437L109.29,31.798L109.29,31.798z M110.981,26.204
			c0,1.569,0.264,2.692,0.785,3.368c0.522,0.676,1.361,1.014,2.519,1.014c1.04,0,1.813-0.379,2.321-1.136
			c0.512-0.758,0.767-1.846,0.767-3.266c0-1.454-0.255-2.538-0.767-3.251c-0.51-0.713-1.297-1.07-2.362-1.07
			c-1.155,0-1.987,0.331-2.497,0.994C111.236,23.518,110.981,24.635,110.981,26.204z"/>
		<path fill="#666565" d="M121.243,28.722c0-2.25,1.806-3.429,5.418-3.537l1.896-0.062v-0.702c0-0.887-0.188-1.542-0.563-1.965
			s-0.979-0.634-1.808-0.634c-0.93,0-1.979,0.289-3.151,0.866l-0.526-1.298c0.551-0.294,1.153-0.525,1.81-0.692
			c0.657-0.167,1.313-0.251,1.974-0.251c1.33,0,2.313,0.295,2.957,0.887c0.641,0.591,0.962,1.539,0.962,2.843v7.622h-1.253
			l-0.336-1.571h-0.082c-0.558,0.693-1.11,1.162-1.663,1.407c-0.552,0.246-1.242,0.368-2.07,0.368c-1.111,0-1.982-0.284-2.615-0.853
			C121.558,30.58,121.243,29.771,121.243,28.722z M123.036,28.742c0,0.615,0.185,1.082,0.554,1.403
			c0.37,0.321,0.888,0.481,1.552,0.481c1.051,0,1.876-0.29,2.479-0.87c0.6-0.581,0.898-1.393,0.898-2.437v-1.014l-1.688,0.071
			c-1.345,0.048-2.313,0.258-2.904,0.63C123.333,27.378,123.036,27.957,123.036,28.742z"/>
		<path fill="#666565" d="M133.685,31.798V15.942h1.69v15.856H133.685z"/>
		<path fill="#666565" d="M143.762,26.305c0-1.8,0.442-3.23,1.326-4.29c0.885-1.06,2.071-1.589,3.563-1.589
			c1.396,0,2.498,0.46,3.313,1.38c0.813,0.921,1.222,2.135,1.222,3.643v1.07h-7.687c0.033,1.311,0.363,2.306,0.995,2.985
			c0.629,0.68,1.516,1.019,2.654,1.019c1.199,0,2.389-0.251,3.561-0.754v1.508c-0.602,0.258-1.16,0.443-1.689,0.555
			c-0.535,0.112-1.178,0.168-1.93,0.168c-1.646,0-2.944-0.502-3.897-1.508C144.239,29.489,143.762,28.093,143.762,26.305z
			 M145.536,25.144h5.849c0-1.066-0.236-1.883-0.714-2.451c-0.479-0.567-1.157-0.851-2.042-0.851c-0.896,0-1.615,0.292-2.148,0.876
			C145.945,23.303,145.631,24.111,145.536,25.144z"/>
		<path fill="#666565" d="M155.38,23.374c0-0.911,0.37-1.63,1.106-2.158c0.74-0.527,1.757-0.791,3.047-0.791
			c1.193,0,2.361,0.244,3.504,0.733l-0.592,1.377c-1.115-0.463-2.131-0.695-3.035-0.695c-0.805,0-1.409,0.126-1.818,0.378
			c-0.406,0.251-0.611,0.599-0.611,1.042c0,0.3,0.076,0.555,0.229,0.766c0.151,0.211,0.397,0.412,0.741,0.603
			c0.34,0.191,0.992,0.467,1.96,0.828c1.321,0.483,2.215,0.97,2.671,1.46c0.457,0.49,0.686,1.105,0.686,1.849
			c0,1.034-0.386,1.832-1.149,2.393C161.341,31.72,160.26,32,158.868,32c-1.479,0-2.634-0.23-3.458-0.693v-1.559
			c0.533,0.272,1.107,0.487,1.724,0.644c0.614,0.157,1.206,0.235,1.775,0.235c0.885,0,1.563-0.141,2.042-0.424
			c0.477-0.283,0.715-0.713,0.715-1.292c0-0.436-0.188-0.809-0.566-1.119c-0.377-0.31-1.115-0.676-2.211-1.098
			c-1.043-0.388-1.781-0.727-2.218-1.017c-0.438-0.29-0.76-0.618-0.976-0.986C155.486,24.324,155.38,23.885,155.38,23.374z"/>
		<path fill="#666565" d="M164.57,21.944v-0.815l1.603-0.703l0.713-2.385h0.979v2.588h3.24v1.314h-3.24v6.588
			c0,0.674,0.16,1.191,0.479,1.552s0.758,0.542,1.313,0.542c0.3,0,0.588-0.022,0.864-0.066c0.274-0.044,0.5-0.09,0.662-0.138v1.278
			c-0.187,0.087-0.453,0.159-0.813,0.216c-0.354,0.057-0.677,0.085-0.96,0.085c-2.16,0-3.241-1.138-3.241-3.414v-6.644h-1.601
			L164.57,21.944L164.57,21.944z"/>
		<path fill="#666565" d="M173.273,17.603c0-0.387,0.088-0.671,0.266-0.851c0.175-0.18,0.395-0.27,0.656-0.27
			c0.293,0,0.547,0.092,0.76,0.275c0.212,0.184,0.316,0.466,0.316,0.846s-0.104,0.664-0.316,0.851s-0.467,0.28-0.76,0.28
			c-0.264,0-0.48-0.093-0.656-0.28C173.361,18.267,173.273,17.984,173.273,17.603z M173.417,31.798V20.63h1.549v11.168H173.417z"/>
		<path fill="#666565" d="M178.695,31.798V20.63h1.375l0.271,1.509h0.082c0.319-0.537,0.771-0.957,1.354-1.259
			c0.58-0.302,1.229-0.453,1.951-0.453c1.746,0,2.89,0.625,3.424,1.876h0.082c0.334-0.579,0.813-1.036,1.447-1.372
			c0.633-0.336,1.354-0.504,2.157-0.504c1.267,0,2.209,0.324,2.841,0.973c0.629,0.648,0.939,1.687,0.939,3.113v7.286h-1.688v-7.281
			c0-0.892-0.188-1.561-0.57-2.006c-0.381-0.445-0.973-0.669-1.771-0.669c-1.053,0-1.831,0.303-2.333,0.909
			c-0.503,0.605-0.754,1.538-0.754,2.798v6.249h-1.69v-7.281c0-0.892-0.188-1.561-0.565-2.006c-0.386-0.445-0.979-0.669-1.783-0.669
			c-1.063,0-1.836,0.318-2.329,0.955c-0.488,0.637-0.736,1.68-0.736,3.13v5.871L178.695,31.798L178.695,31.798z"/>
		<path fill="#666565" d="M197.271,28.722c0-2.25,1.809-3.429,5.418-3.537l1.896-0.062v-0.702c0-0.887-0.188-1.542-0.563-1.965
			s-0.979-0.634-1.808-0.634c-0.929,0-1.979,0.289-3.151,0.866l-0.521-1.298c0.55-0.294,1.148-0.525,1.811-0.692
			c0.655-0.167,1.313-0.251,1.975-0.251c1.328,0,2.313,0.295,2.955,0.887c0.645,0.591,0.966,1.539,0.966,2.843v7.622h-1.255
			l-0.338-1.571h-0.082c-0.557,0.693-1.106,1.162-1.659,1.407c-0.556,0.246-1.242,0.368-2.07,0.368c-1.11,0-1.981-0.284-2.614-0.853
			C197.588,30.58,197.271,29.771,197.271,28.722z M199.066,28.742c0,0.615,0.187,1.082,0.556,1.403
			c0.368,0.321,0.887,0.481,1.551,0.481c1.052,0,1.876-0.29,2.478-0.87c0.604-0.581,0.899-1.393,0.899-2.437v-1.014l-1.688,0.071
			c-1.342,0.048-2.312,0.258-2.898,0.63C199.363,27.378,199.066,27.957,199.066,28.742z"/>
		<path fill="#666565" d="M208.236,21.944v-0.815l1.602-0.703l0.713-2.385h0.979v2.588h3.24v1.314h-3.24v6.588
			c0,0.674,0.16,1.191,0.479,1.552s0.757,0.542,1.313,0.542c0.302,0,0.59-0.022,0.867-0.066c0.273-0.044,0.498-0.09,0.662-0.138
			v1.278c-0.188,0.087-0.453,0.159-0.813,0.216c-0.354,0.057-0.683,0.085-0.963,0.085c-2.16,0-3.241-1.138-3.241-3.414v-6.644
			h-1.604v0.002H208.236z"/>
		<path fill="#666565" d="M216.46,26.305c0-1.8,0.44-3.23,1.326-4.29c0.884-1.06,2.069-1.589,3.562-1.589
			c1.396,0,2.498,0.46,3.313,1.38c0.813,0.921,1.219,2.135,1.219,3.643v1.07h-7.688c0.035,1.311,0.367,2.306,0.996,2.985
			c0.629,0.68,1.52,1.019,2.658,1.019c1.197,0,2.385-0.251,3.557-0.754v1.508c-0.598,0.258-1.156,0.443-1.688,0.555
			C223.18,31.944,222.539,32,221.787,32c-1.646,0-2.946-0.502-3.898-1.508C216.936,29.489,216.46,28.093,216.46,26.305z
			 M218.232,25.144h5.852c0-1.066-0.238-1.883-0.714-2.451c-0.479-0.567-1.157-0.851-2.042-0.851c-0.898,0-1.615,0.292-2.149,0.876
			C218.643,23.303,218.328,24.111,218.232,25.144z"/>
		<path fill="#666565" d="M228.077,23.374c0-0.911,0.368-1.63,1.106-2.158c0.736-0.527,1.754-0.791,3.045-0.791
			c1.19,0,2.358,0.244,3.504,0.733l-0.59,1.377c-1.117-0.463-2.131-0.695-3.037-0.695c-0.805,0-1.41,0.126-1.816,0.378
			c-0.408,0.251-0.611,0.599-0.611,1.042c0,0.3,0.076,0.555,0.229,0.766c0.151,0.211,0.396,0.412,0.737,0.603
			c0.34,0.191,0.994,0.467,1.961,0.828c1.322,0.483,2.217,0.97,2.67,1.46c0.457,0.49,0.688,1.105,0.688,1.849
			c0,1.034-0.385,1.832-1.153,2.393C234.038,31.72,232.957,32,231.564,32c-1.479,0-2.631-0.23-3.457-0.693v-1.559
			c0.535,0.272,1.105,0.487,1.726,0.644c0.612,0.157,1.206,0.235,1.772,0.235c0.888,0,1.563-0.141,2.043-0.424
			c0.479-0.283,0.715-0.713,0.715-1.292c0-0.436-0.188-0.809-0.565-1.119s-1.114-0.676-2.211-1.098
			c-1.042-0.388-1.78-0.727-2.217-1.017c-0.438-0.29-0.763-0.618-0.976-0.986C228.184,24.324,228.077,23.885,228.077,23.374z"/>
	</g>
	<g>
		<path fill="#9A999E" d="M47.308,75.938v-1.199l3.271-3.299c0.996-1.012,1.651-1.734,1.97-2.166s0.556-0.853,0.713-1.262
			c0.159-0.409,0.238-0.85,0.238-1.321c0-0.665-0.201-1.192-0.604-1.582c-0.4-0.39-0.96-0.584-1.674-0.584
			c-0.516,0-1.004,0.085-1.465,0.256c-0.462,0.17-0.978,0.479-1.542,0.93l-0.747-0.964c1.144-0.935,2.39-1.402,3.736-1.402
			c1.166,0,2.081,0.297,2.741,0.891c0.663,0.594,0.994,1.393,0.994,2.396c0,0.79-0.222,1.572-0.663,2.345
			c-0.439,0.773-1.269,1.751-2.479,2.934l-2.717,2.669v0.068h6.386v1.291L47.308,75.938L47.308,75.938z"/>
		<path fill="#9A999E" d="M61.88,75.938v-1.199l3.271-3.299c0.996-1.012,1.652-1.734,1.972-2.166
			c0.315-0.432,0.555-0.853,0.713-1.262c0.159-0.409,0.236-0.85,0.236-1.321c0-0.665-0.199-1.192-0.604-1.582
			c-0.401-0.39-0.96-0.584-1.673-0.584c-0.518,0-1.004,0.085-1.465,0.256c-0.462,0.17-0.978,0.479-1.542,0.93l-0.747-0.964
			c1.144-0.935,2.389-1.402,3.734-1.402c1.166,0,2.081,0.297,2.743,0.891c0.663,0.594,0.993,1.393,0.993,2.396
			c0,0.79-0.221,1.572-0.662,2.345c-0.439,0.773-1.269,1.751-2.479,2.934l-2.719,2.669v0.068h6.388v1.291L61.88,75.938L61.88,75.938
			z"/>
		<path fill="#9A999E" d="M71.841,69.71c0-2.161,0.338-3.765,1.015-4.813c0.678-1.046,1.707-1.57,3.094-1.57
			c1.346,0,2.366,0.546,3.063,1.638c0.699,1.092,1.049,2.673,1.049,4.744c0,2.147-0.339,3.75-1.015,4.81s-1.709,1.589-3.103,1.589
			c-1.34,0-2.358-0.542-3.059-1.627C72.191,73.396,71.841,71.806,71.841,69.71z M73.285,69.71c0,1.802,0.212,3.113,0.636,3.935
			s1.1,1.232,2.024,1.232c0.938,0,1.618-0.417,2.039-1.25c0.423-0.833,0.634-2.139,0.634-3.918c0-1.778-0.21-3.082-0.634-3.909
			c-0.421-0.827-1.102-1.241-2.039-1.241c-0.927,0-1.604,0.408-2.024,1.224C73.497,66.6,73.285,67.908,73.285,69.71z"/>
		<path fill="#9A999E" d="M81.913,70.636c0-2.441,0.474-4.267,1.422-5.476s2.352-1.814,4.208-1.814c0.643,0,1.146,0.054,1.518,0.161
			v1.231c-0.438-0.164-0.938-0.247-1.5-0.247c-1.331,0-2.348,0.417-3.049,1.249c-0.701,0.833-1.087,2.141-1.154,3.924h0.104
			c0.623-0.963,1.606-1.445,2.955-1.445c1.121,0,2.003,0.336,2.647,1.008c0.646,0.672,0.971,1.584,0.971,2.736
			c0,1.288-0.354,2.301-1.063,3.039c-0.708,0.738-1.665,1.106-2.869,1.106c-1.285,0-2.305-0.482-3.058-1.447
			C82.29,73.696,81.913,72.354,81.913,70.636z M83.356,71.649c0,0.585,0.112,1.13,0.34,1.636c0.229,0.506,0.55,0.906,0.966,1.201
			c0.416,0.295,0.89,0.442,1.422,0.442c0.804,0,1.428-0.254,1.873-0.762c0.442-0.508,0.667-1.242,0.667-2.202
			c0-0.823-0.207-1.471-0.62-1.942c-0.413-0.472-1.03-0.707-1.853-0.707c-0.509,0-0.978,0.105-1.399,0.315s-0.765,0.5-1.017,0.869
			C83.482,70.868,83.356,71.252,83.356,71.649z"/>
		<g>
			<path fill="#9A999E" d="M57.523,77.486c0.105-0.406,0.224-0.908,0.351-1.506s0.216-1.076,0.267-1.436H59.2l0.087,0.135
				c-0.103,0.391-0.247,0.845-0.438,1.362c-0.188,0.517-0.389,0.999-0.595,1.444L57.523,77.486L57.523,77.486z"/>
		</g>
	</g>
	<g>
		<path fill="#9A999E" d="M81.785,312.476c0-2.161,0.338-3.765,1.014-4.812c0.677-1.047,1.707-1.57,3.093-1.57
			c1.346,0,2.367,0.546,3.065,1.638c0.697,1.093,1.048,2.673,1.048,4.744c0,2.147-0.338,3.75-1.014,4.81
			c-0.678,1.061-1.709,1.59-3.104,1.59c-1.34,0-2.359-0.543-3.058-1.627C82.134,316.162,81.785,314.572,81.785,312.476z
			 M83.229,312.476c0,1.802,0.212,3.113,0.638,3.935c0.424,0.822,1.099,1.232,2.024,1.232c0.938,0,1.617-0.417,2.038-1.25
			c0.422-0.833,0.633-2.139,0.633-3.918c0-1.777-0.21-3.082-0.633-3.908c-0.421-0.828-1.101-1.242-2.038-1.242
			c-0.928,0-1.604,0.408-2.024,1.225C83.441,309.365,83.229,310.675,83.229,312.476z"/>
	</g>
	<g>
		<path fill="#FFFFFF" d="M167.959,257.222h-3.148v-8.621l0.03-1.417l0.052-1.549c-0.521,0.523-0.888,0.866-1.09,1.029l-1.713,1.375
			l-1.521-1.896l4.803-3.821h2.588V257.222L167.959,257.222z"/>
		<path fill="#FFFFFF" d="M185.822,257.222h-3.147v-8.621l0.031-1.417l0.051-1.549c-0.522,0.523-0.887,0.866-1.09,1.029
			l-1.712,1.375l-1.521-1.896l4.801-3.821h2.588V257.222L185.822,257.222z"/>
		<path fill="#FFFFFF" d="M200.282,249.772c0,2.603-0.429,4.528-1.279,5.778c-0.854,1.25-2.166,1.875-3.938,1.875
			c-1.719,0-3.016-0.645-3.889-1.936s-1.31-3.196-1.31-5.718c0-2.629,0.425-4.567,1.272-5.813s2.152-1.87,3.922-1.87
			c1.721,0,3.021,0.652,3.896,1.957C199.842,245.35,200.282,247.26,200.282,249.772z M192.996,249.772
			c0,1.828,0.156,3.138,0.475,3.929c0.315,0.793,0.848,1.188,1.596,1.188c0.731,0,1.269-0.4,1.588-1.203
			c0.326-0.801,0.49-2.105,0.49-3.913c0-1.827-0.166-3.14-0.494-3.938c-0.33-0.798-0.854-1.197-1.584-1.197
			c-0.736,0-1.271,0.399-1.59,1.197C193.156,246.633,192.996,247.945,192.996,249.772z"/>
		<path fill="#FFFFFF" d="M212.275,257.222h-10.414v-2.19l3.74-3.781c1.104-1.135,1.83-1.92,2.17-2.359
			c0.34-0.438,0.584-0.844,0.729-1.218c0.145-0.374,0.228-0.761,0.228-1.162c0-0.599-0.164-1.042-0.494-1.335
			c-0.33-0.292-0.771-0.438-1.316-0.438c-0.578,0-1.141,0.131-1.684,0.396c-0.543,0.266-1.109,0.643-1.7,1.131l-1.714-2.027
			c0.729-0.625,1.343-1.066,1.824-1.326c0.479-0.258,1.008-0.457,1.58-0.596c0.566-0.139,1.209-0.209,1.916-0.209
			c0.93,0,1.752,0.17,2.465,0.51c0.715,0.341,1.27,0.815,1.662,1.428c0.396,0.611,0.59,1.311,0.59,2.099
			c0,0.687-0.121,1.33-0.358,1.931c-0.242,0.602-0.615,1.218-1.121,1.85c-0.506,0.632-1.397,1.531-2.675,2.701l-1.916,1.804v0.144
			h6.488V257.222L212.275,257.222z"/>
		<g>
			<path fill="#FFFFFF" d="M173.615,259.285c0.141-0.542,0.295-1.211,0.465-2.008c0.169-0.797,0.287-1.435,0.354-1.914h1.414
				l0.115,0.18c-0.135,0.521-0.328,1.126-0.583,1.816c-0.254,0.69-0.521,1.332-0.793,1.926H173.615z"/>
		</g>
	</g>
	<g>
		<path fill="#FFFFFF" d="M167.959,141.455h-3.148v-8.62l0.03-1.417l0.052-1.549c-0.521,0.523-0.888,0.866-1.09,1.029l-1.713,1.375
			l-1.521-1.895l4.803-3.821h2.588V141.455L167.959,141.455z"/>
		<path fill="#FFFFFF" d="M185.822,141.455h-3.147v-8.62l0.031-1.417l0.051-1.549c-0.522,0.523-0.887,0.866-1.09,1.029l-1.712,1.375
			l-1.521-1.895l4.801-3.821h2.588V141.455L185.822,141.455z"/>
		<path fill="#FFFFFF" d="M200.282,134.007c0,2.603-0.429,4.528-1.279,5.778c-0.854,1.25-2.166,1.875-3.938,1.875
			c-1.719,0-3.016-0.646-3.889-1.937s-1.31-3.196-1.31-5.717c0-2.629,0.425-4.567,1.272-5.813c0.848-1.246,2.152-1.87,3.922-1.87
			c1.721,0,3.021,0.652,3.896,1.957C199.842,129.585,200.282,131.494,200.282,134.007z M192.996,134.007
			c0,1.828,0.156,3.137,0.475,3.929c0.315,0.792,0.848,1.188,1.596,1.188c0.731,0,1.269-0.401,1.588-1.203
			c0.326-0.801,0.49-2.106,0.49-3.913c0-1.827-0.166-3.14-0.494-3.938c-0.33-0.798-0.854-1.197-1.584-1.197
			c-0.736,0-1.271,0.399-1.59,1.197C193.156,130.867,192.996,132.18,192.996,134.007z"/>
		<path fill="#FFFFFF" d="M212.611,138.369h-1.793v3.086h-3.075v-3.086h-6.359v-2.191l6.532-9.62h2.902v9.365h1.793V138.369
			L212.611,138.369z M207.741,135.923v-2.527c0-0.421,0.017-1.033,0.051-1.834c0.034-0.802,0.063-1.267,0.082-1.396h-0.082
			c-0.251,0.557-0.556,1.101-0.907,1.631l-2.73,4.127L207.741,135.923L207.741,135.923z"/>
		<g>
			<path fill="#FFFFFF" d="M173.615,143.723c0.141-0.542,0.295-1.211,0.465-2.008c0.169-0.797,0.287-1.435,0.354-1.914h1.414
				l0.115,0.18c-0.135,0.521-0.328,1.126-0.583,1.816c-0.254,0.69-0.521,1.332-0.793,1.926H173.615z"/>
		</g>
	</g>
	<g>
		<path fill="#87868A" d="M74.418,211.379H59.52v-4.208c0-1.978,0.295-3.407,0.885-4.29c0.593-0.885,1.522-1.325,2.801-1.325
			c0.883,0,1.609,0.246,2.186,0.739c0.573,0.492,0.945,1.211,1.115,2.154h0.104c0.39-2.248,1.578-3.373,3.57-3.373
			c1.332,0,2.371,0.449,3.118,1.349c0.748,0.897,1.121,2.153,1.121,3.769L74.418,211.379L74.418,211.379z M65.887,209.646v-2.853
			c0-1.224-0.19-2.103-0.573-2.64c-0.384-0.537-1.026-0.806-1.938-0.806c-0.834,0-1.438,0.299-1.807,0.896
			c-0.367,0.598-0.555,1.55-0.555,2.854v2.547L65.887,209.646L65.887,209.646z M72.94,209.646v-3.107
			c0-1.201-0.23-2.106-0.696-2.715c-0.467-0.608-1.193-0.912-2.188-0.912c-0.924,0-1.604,0.311-2.037,0.933
			c-0.436,0.621-0.65,1.567-0.65,2.838v2.965L72.94,209.646L72.94,209.646z"/>
		<path fill="#87868A" d="M60.222,198.254c-0.388,0-0.671-0.087-0.852-0.264c-0.182-0.176-0.271-0.396-0.271-0.657
			c0-0.294,0.092-0.546,0.273-0.759c0.185-0.211,0.466-0.317,0.847-0.317s0.664,0.106,0.852,0.317
			c0.188,0.213,0.28,0.465,0.28,0.759c0,0.264-0.095,0.481-0.28,0.657C60.886,198.167,60.603,198.254,60.222,198.254z
			 M74.418,198.111H63.25v-1.549h11.168V198.111z"/>
		<path fill="#87868A" d="M74.418,192.833H58.562v-1.691h15.854L74.418,192.833L74.418,192.833z"/>
		<path fill="#87868A" d="M74.418,187.555H58.562v-1.691h15.854L74.418,187.555L74.418,187.555z"/>
		<path fill="#87868A" d="M60.222,182.419c-0.388,0-0.671-0.089-0.852-0.265c-0.182-0.175-0.271-0.395-0.271-0.656
			c0-0.293,0.092-0.547,0.273-0.758c0.185-0.213,0.466-0.318,0.847-0.318s0.664,0.105,0.852,0.318
			c0.188,0.211,0.28,0.465,0.28,0.758c0,0.263-0.095,0.481-0.28,0.656C60.886,182.33,60.603,182.419,60.222,182.419z
			 M74.418,182.277H63.25v-1.55h11.168V182.277z"/>
		<path fill="#87868A" d="M68.813,177.619c-1.815,0-3.23-0.455-4.247-1.361c-1.015-0.908-1.521-2.168-1.521-3.78
			c0-1.558,0.52-2.795,1.558-3.713c1.036-0.918,2.44-1.377,4.211-1.377c1.823,0,3.248,0.457,4.271,1.372
			c1.022,0.914,1.536,2.178,1.536,3.789c0,0.996-0.234,1.88-0.704,2.652c-0.472,0.771-1.146,1.367-2.021,1.787
			C71.019,177.408,69.991,177.619,68.813,177.619z M68.813,175.887c1.432,0,2.521-0.286,3.271-0.854
			c0.749-0.57,1.124-1.412,1.124-2.521c0-1.109-0.373-1.951-1.119-2.526c-0.745-0.574-1.837-0.861-3.272-0.861
			c-1.423,0-2.504,0.287-3.243,0.861c-0.736,0.575-1.106,1.424-1.106,2.547c0,1.108,0.364,1.945,1.095,2.51
			C66.284,175.604,67.37,175.887,68.813,175.887z"/>
		<path fill="#87868A" d="M74.418,164.393H63.25v-1.376l1.509-0.274v-0.082c-0.544-0.347-0.966-0.832-1.265-1.457
			c-0.301-0.625-0.448-1.32-0.448-2.088c0-1.347,0.324-2.357,0.975-3.037c0.647-0.681,1.688-1.021,3.111-1.021h7.286v1.692h-7.239
			c-0.911,0-1.593,0.207-2.042,0.621c-0.448,0.414-0.675,1.063-0.675,1.945c0,1.17,0.315,2.024,0.95,2.568
			c0.633,0.543,1.678,0.814,3.135,0.814h5.871V164.393z"/>
		<path fill="#87868A" d="M69.26,147.337h-1.313v-1.528l-0.428,0.021h-0.448l-0.813-0.021v1.528h-1.313v-1.652
			c-1.771-0.265-3.153-0.894-4.146-1.885c-0.992-0.992-1.487-2.292-1.487-3.902c0-1.365,0.334-2.608,1.002-3.729l1.42,0.724
			c-0.582,1.128-0.872,2.13-0.872,3.006c0,2.167,1.36,3.519,4.086,4.055v-5.195h1.313v5.319l0.581,0.021h0.652l0.458-0.021v-4.698
			h1.313v4.554c1.229-0.251,2.182-0.721,2.854-1.41c0.672-0.689,1.009-1.611,1.009-2.767c0-1.06-0.228-2.109-0.676-3.148h1.521
			c0.438,0.992,0.653,2.068,0.653,3.23c0,1.609-0.457,2.905-1.371,3.887c-0.913,0.981-2.243,1.628-3.989,1.94v1.671H69.26z"/>
	</g>
	
		<line fill="none" stroke="#666565" stroke-width="0.25" stroke-miterlimit="10" x1="105.676" y1="70.674" x2="105.676" y2="318.705"/>
	
		<line fill="none" stroke="#666565" stroke-width="0.25" stroke-miterlimit="10" x1="236.385" y1="318.705" x2="91.956" y2="318.705"/>
	
		<line fill="none" stroke="#666565" stroke-width="0.25" stroke-miterlimit="10" x1="236.385" y1="70.674" x2="91.956" y2="70.674"/>
</g>
<g id="EU28-estimates">
	<g>
		<rect x="135.886" y="566.964" fill="#199598" width="100.497" height="118.787"/>
		<rect x="135.886" y="437.769" fill="#DD9B2B" width="100.497" height="129.195"/>
	</g>
	<g>
		<path fill="#9A999E" d="M58.406,440.14v-1.24l5.896-8.398h1.495v8.348h1.856v1.291h-1.856v2.852h-1.334v-2.852H58.406
			L58.406,440.14z M59.832,438.849h4.629v-4.127c0-0.811,0.025-1.725,0.085-2.744h-0.067c-0.271,0.549-0.524,0.994-0.765,1.355
			L59.832,438.849z"/>
		<path fill="#9A999E" d="M68.351,440.14v-1.24l5.895-8.398h1.493v8.348h1.859v1.291h-1.859v2.852h-1.333v-2.852H68.351
			L68.351,440.14z M69.776,438.849h4.629v-4.127c0-0.811,0.027-1.725,0.084-2.744h-0.064c-0.271,0.549-0.526,0.994-0.766,1.355
			L69.776,438.849z"/>
		<path fill="#9A999E" d="M78.939,437.681c0-2.438,0.477-4.266,1.423-5.475c0.948-1.209,2.354-1.814,4.208-1.814
			c0.645,0,1.147,0.059,1.52,0.16v1.232c-0.438-0.164-0.938-0.248-1.5-0.248c-1.33,0-2.348,0.418-3.05,1.25
			s-1.087,2.141-1.153,3.924h0.102c0.623-0.963,1.607-1.445,2.955-1.445c1.12,0,2.004,0.336,2.649,1.012
			c0.645,0.672,0.968,1.584,0.968,2.732c0,1.287-0.354,2.301-1.063,3.039s-1.664,1.105-2.87,1.105c-1.284,0-2.306-0.482-3.059-1.447
			S78.939,439.4,78.939,437.681z M80.384,438.695c0,0.586,0.112,1.131,0.339,1.637c0.229,0.504,0.548,0.906,0.964,1.201
			c0.417,0.295,0.893,0.438,1.423,0.438c0.806,0,1.43-0.254,1.872-0.762c0.444-0.51,0.667-1.242,0.667-2.203
			c0-0.822-0.207-1.471-0.62-1.938c-0.411-0.475-1.028-0.705-1.851-0.705c-0.511,0-0.978,0.104-1.401,0.313
			c-0.425,0.209-0.764,0.5-1.015,0.869C80.51,437.914,80.384,438.298,80.384,438.695z"/>
	</g>
	<g>
		<path fill="#9A999E" d="M78.812,679.521c0-2.156,0.338-3.766,1.016-4.813c0.676-1.047,1.706-1.57,3.092-1.57
			c1.348,0,2.368,0.547,3.065,1.643c0.698,1.094,1.049,2.674,1.049,4.74c0,2.146-0.34,3.75-1.016,4.813
			c-0.676,1.061-1.709,1.59-3.102,1.59c-1.34,0-2.358-0.543-3.06-1.627C79.16,683.208,78.812,681.619,78.812,679.521z
			 M80.256,679.521c0,1.807,0.212,3.113,0.636,3.938c0.424,0.822,1.102,1.232,2.025,1.232c0.938,0,1.618-0.42,2.039-1.25
			c0.421-0.834,0.633-2.143,0.633-3.92c0-1.775-0.212-3.08-0.633-3.906c-0.421-0.828-1.103-1.242-2.039-1.242
			c-0.927,0-1.604,0.408-2.025,1.225C80.468,676.412,80.256,677.72,80.256,679.521z"/>
	</g>
	<g>
		<path fill="#FFFFFF" d="M178.705,624.267h-10.414v-2.188l3.736-3.781c1.107-1.135,1.832-1.92,2.174-2.354
			c0.34-0.439,0.584-0.852,0.73-1.225c0.146-0.375,0.228-0.762,0.228-1.162c0-0.6-0.165-1.041-0.494-1.336
			c-0.329-0.291-0.771-0.438-1.319-0.438c-0.576,0-1.139,0.131-1.682,0.396c-0.544,0.27-1.109,0.646-1.701,1.135l-1.713-2.027
			c0.73-0.625,1.343-1.066,1.824-1.326c0.48-0.258,1.009-0.457,1.576-0.596c0.57-0.143,1.209-0.209,1.916-0.209
			c0.934,0,1.754,0.17,2.469,0.51c0.714,0.342,1.268,0.816,1.658,1.428c0.396,0.611,0.594,1.314,0.594,2.105
			c0,0.688-0.12,1.328-0.359,1.932c-0.242,0.604-0.615,1.219-1.121,1.852c-0.507,0.633-1.396,1.529-2.676,2.699l-1.916,1.807v0.145
			h6.49V624.267L178.705,624.267z"/>
		<path fill="#FFFFFF" d="M187.988,624.267h-3.146v-8.615l0.03-1.418l0.052-1.553c-0.523,0.523-0.888,0.865-1.092,1.029
			l-1.712,1.375l-1.521-1.896l4.799-3.82h2.59V624.267L187.988,624.267z"/>
		<path fill="#FFFFFF" d="M202.866,621.181h-1.796v3.086h-3.074v-3.086h-6.357v-2.188l6.531-9.619h2.9v9.363h1.796V621.181
			L202.866,621.181z M197.996,618.734v-2.525c0-0.422,0.018-1.033,0.052-1.834c0.032-0.803,0.062-1.268,0.081-1.395h-0.081
			c-0.253,0.561-0.555,1.104-0.907,1.635l-2.729,4.127L197.996,618.734L197.996,618.734z"/>
	</g>
	<g>
		<path fill="#FFFFFF" d="M178.705,508.501h-10.414v-2.191l3.736-3.775c1.107-1.139,1.832-1.92,2.174-2.359
			c0.34-0.438,0.584-0.844,0.73-1.219c0.146-0.373,0.228-0.76,0.228-1.162c0-0.598-0.165-1.041-0.494-1.334
			s-0.771-0.438-1.319-0.438c-0.576,0-1.139,0.135-1.682,0.396c-0.544,0.264-1.109,0.643-1.701,1.131l-1.713-2.027
			c0.73-0.625,1.343-1.064,1.824-1.322c0.48-0.26,1.009-0.457,1.576-0.6c0.57-0.139,1.209-0.209,1.916-0.209
			c0.934,0,1.754,0.17,2.469,0.514c0.714,0.34,1.268,0.813,1.658,1.428c0.396,0.609,0.594,1.311,0.594,2.1
			c0,0.689-0.12,1.33-0.359,1.936c-0.242,0.604-0.615,1.219-1.121,1.852c-0.507,0.631-1.396,1.531-2.676,2.701l-1.916,1.803v0.146
			h6.49V508.501L178.705,508.501z"/>
		<path fill="#FFFFFF" d="M190.036,496.935c0,0.936-0.282,1.727-0.849,2.375c-0.563,0.652-1.354,1.105-2.373,1.35v0.063
			c1.201,0.148,2.111,0.521,2.729,1.102c0.617,0.58,0.93,1.357,0.93,2.35c0,1.434-0.521,2.549-1.563,3.348
			c-1.039,0.799-2.521,1.197-4.453,1.197c-1.613,0-3.05-0.27-4.3-0.807v-2.686c0.573,0.291,1.213,0.529,1.901,0.717
			c0.691,0.188,1.379,0.27,2.063,0.27c1.039,0,1.809-0.176,2.305-0.529c0.495-0.352,0.743-0.92,0.743-1.697
			c0-0.697-0.284-1.193-0.854-1.484c-0.566-0.293-1.479-0.439-2.729-0.439h-1.131v-2.416h1.146c1.153,0,2-0.146,2.533-0.451
			c0.531-0.303,0.799-0.816,0.799-1.555c0-1.127-0.707-1.689-2.119-1.689c-0.484,0-0.982,0.082-1.488,0.244
			c-0.51,0.162-1.067,0.443-1.688,0.85l-1.457-2.17c1.355-0.98,2.979-1.473,4.857-1.473c1.542,0,2.762,0.313,3.648,0.938
			C189.591,494.953,190.036,495.822,190.036,496.935z"/>
		<path fill="#FFFFFF" d="M202.529,508.501h-10.411v-2.191l3.737-3.775c1.104-1.139,1.83-1.92,2.17-2.359
			c0.343-0.438,0.584-0.844,0.73-1.219c0.146-0.373,0.229-0.76,0.229-1.162c0-0.598-0.166-1.041-0.492-1.334
			c-0.33-0.293-0.771-0.438-1.319-0.438c-0.577,0-1.139,0.135-1.685,0.396c-0.543,0.264-1.107,0.643-1.699,1.131l-1.712-2.027
			c0.731-0.625,1.342-1.064,1.821-1.322c0.479-0.26,1.012-0.457,1.58-0.6c0.566-0.139,1.209-0.209,1.916-0.209
			c0.933,0,1.752,0.17,2.465,0.514c0.717,0.34,1.27,0.813,1.662,1.428c0.396,0.609,0.59,1.311,0.59,2.1
			c0,0.689-0.117,1.33-0.357,1.936c-0.24,0.604-0.615,1.219-1.121,1.852c-0.507,0.631-1.396,1.531-2.676,2.701l-1.916,1.803v0.146
			h6.488V508.501L202.529,508.501z"/>
	</g>
	<g>
		<path fill="#87868A" d="M74.845,578.425H59.947v-4.209c0-1.977,0.298-3.406,0.888-4.289c0.592-0.885,1.521-1.326,2.8-1.326
			c0.883,0,1.61,0.246,2.185,0.74c0.574,0.492,0.946,1.211,1.116,2.154h0.104c0.389-2.248,1.578-3.373,3.569-3.373
			c1.332,0,2.371,0.449,3.118,1.348c0.747,0.9,1.121,2.154,1.121,3.771L74.845,578.425L74.845,578.425z M66.316,576.693v-2.855
			c0-1.223-0.189-2.102-0.572-2.639c-0.385-0.537-1.028-0.811-1.938-0.811c-0.834,0-1.437,0.303-1.806,0.896
			c-0.368,0.598-0.557,1.549-0.557,2.854v2.551L66.316,576.693L66.316,576.693z M73.367,576.693v-3.107
			c0-1.201-0.231-2.104-0.697-2.715c-0.466-0.609-1.193-0.912-2.188-0.912c-0.924,0-1.604,0.311-2.038,0.932
			c-0.434,0.621-0.65,1.568-0.65,2.842v2.969L73.367,576.693L73.367,576.693z"/>
		<path fill="#87868A" d="M60.649,565.3c-0.387,0-0.671-0.088-0.851-0.264c-0.181-0.176-0.271-0.396-0.271-0.658
			c0-0.293,0.093-0.545,0.274-0.758c0.184-0.211,0.466-0.318,0.846-0.318c0.381,0,0.664,0.107,0.854,0.318
			c0.188,0.213,0.278,0.465,0.278,0.758c0,0.264-0.094,0.482-0.278,0.658C61.315,565.212,61.03,565.3,60.649,565.3z M74.845,565.158
			H63.677v-1.549h11.169L74.845,565.158L74.845,565.158z"/>
		<path fill="#87868A" d="M74.845,559.878H58.988v-1.688h15.856L74.845,559.878L74.845,559.878z"/>
		<path fill="#87868A" d="M74.845,554.601H58.988v-1.688h15.856L74.845,554.601L74.845,554.601z"/>
		<path fill="#87868A" d="M60.649,549.464c-0.387,0-0.671-0.088-0.851-0.264c-0.181-0.176-0.271-0.396-0.271-0.656
			c0-0.293,0.093-0.547,0.274-0.758c0.184-0.213,0.466-0.318,0.846-0.318c0.381,0,0.664,0.105,0.854,0.318
			c0.188,0.211,0.278,0.465,0.278,0.758c0,0.262-0.094,0.48-0.278,0.656C61.315,549.376,61.03,549.464,60.649,549.464z
			 M74.845,549.324H63.677v-1.551h11.169L74.845,549.324L74.845,549.324z"/>
		<path fill="#87868A" d="M69.24,544.666c-1.816,0-3.232-0.455-4.247-1.361c-1.016-0.906-1.521-2.168-1.521-3.773
			c0-1.564,0.521-2.799,1.557-3.721c1.037-0.918,2.44-1.377,4.213-1.377c1.822,0,3.246,0.457,4.271,1.373
			c1.023,0.914,1.537,2.184,1.537,3.789c0,0.996-0.235,1.879-0.705,2.652c-0.47,0.77-1.144,1.367-2.021,1.787
			S70.417,544.666,69.24,544.666z M69.24,542.933c1.43,0,2.521-0.281,3.27-0.854c0.749-0.57,1.123-1.412,1.123-2.521
			c0-1.105-0.372-1.947-1.118-2.521c-0.745-0.574-1.837-0.861-3.271-0.861c-1.425,0-2.506,0.287-3.243,0.861
			c-0.738,0.574-1.107,1.424-1.107,2.547c0,1.105,0.363,1.943,1.093,2.51C66.71,542.65,67.798,542.933,69.24,542.933z"/>
		<path fill="#87868A" d="M74.845,531.439H63.677v-1.381l1.509-0.271v-0.082c-0.543-0.346-0.965-0.832-1.264-1.457
			c-0.3-0.625-0.448-1.32-0.448-2.088c0-1.346,0.324-2.357,0.973-3.037c0.649-0.68,1.688-1.02,3.113-1.02h7.286v1.689h-7.239
			c-0.913,0-1.594,0.207-2.043,0.621c-0.447,0.414-0.674,1.063-0.674,1.945c0,1.17,0.315,2.02,0.95,2.563
			c0.633,0.543,1.678,0.814,3.135,0.814h5.871L74.845,531.439L74.845,531.439z"/>
		<path fill="#87868A" d="M69.689,514.382h-1.313v-1.527l-0.43,0.021H67.5l-0.814-0.021v1.527H65.37v-1.646
			c-1.772-0.27-3.155-0.896-4.146-1.891c-0.992-0.99-1.488-2.291-1.488-3.896c0-1.365,0.334-2.609,1.002-3.729l1.421,0.729
			c-0.581,1.127-0.872,2.131-0.872,3.006c0,2.168,1.36,3.52,4.087,4.055v-5.191h1.313v5.316l0.581,0.021h0.65l0.459-0.021v-4.695
			h1.313v4.557c1.229-0.25,2.183-0.725,2.854-1.41c0.672-0.688,1.009-1.611,1.009-2.77c0-1.063-0.227-2.105-0.678-3.146h1.521
			c0.438,0.99,0.653,2.064,0.653,3.229c0,1.607-0.457,2.904-1.371,3.891c-0.913,0.979-2.243,1.629-3.989,1.938L69.689,514.382
			L69.689,514.382z"/>
	</g>
	<g>
		<path fill="#666565" d="M84.442,398.844v-14.896h8.308v1.549h-6.572v4.769h6.176v1.55h-6.176v5.48h6.572v1.55L84.442,398.844
			L84.442,398.844z"/>
		<path fill="#666565" d="M95.897,393.544v-9.598h1.732v9.734c0,1.245,0.34,2.201,1.019,2.868c0.682,0.667,1.68,1,2.996,1
			c1.257,0,2.227-0.335,2.904-1.006c0.68-0.67,1.019-1.631,1.019-2.883v-9.715h1.732v9.641c0,1.699-0.514,3.033-1.538,4.005
			c-1.026,0.973-2.437,1.457-4.229,1.457c-1.794,0-3.183-0.489-4.162-1.468C96.387,396.602,95.897,395.257,95.897,393.544z"/>
		<path fill="#666565" d="M110.214,398.844v-1.438l3.924-3.959c1.194-1.214,1.982-2.08,2.363-2.6
			c0.381-0.519,0.665-1.021,0.854-1.515c0.19-0.49,0.285-1.02,0.285-1.586c0-0.797-0.241-1.431-0.724-1.897
			c-0.481-0.467-1.151-0.7-2.008-0.7c-0.618,0-1.204,0.103-1.76,0.308c-0.554,0.203-1.17,0.576-1.85,1.115l-0.896-1.156
			c1.372-1.123,2.866-1.684,4.483-1.684c1.398,0,2.497,0.356,3.291,1.069c0.795,0.713,1.191,1.671,1.191,2.875
			c0,0.947-0.267,1.887-0.796,2.814c-0.527,0.928-1.521,2.102-2.977,3.521l-3.261,3.203v0.082h7.663v1.549h-9.79v-0.002
			L110.214,398.844L110.214,398.844z"/>
		<path fill="#666565" d="M122.188,395.042c0-1.704,1.046-3.032,3.139-3.983c-0.946-0.529-1.627-1.103-2.039-1.717
			c-0.412-0.614-0.618-1.304-0.618-2.063c0-1.08,0.399-1.94,1.204-2.582c0.804-0.644,1.877-0.964,3.225-0.964
			c1.362,0,2.442,0.315,3.241,0.947c0.798,0.633,1.195,1.505,1.195,2.619c0,0.732-0.229,1.402-0.688,2.007
			c-0.458,0.604-1.188,1.155-2.194,1.651c1.218,0.578,2.08,1.184,2.595,1.818c0.513,0.634,0.769,1.371,0.769,2.206
			c0,1.236-0.434,2.224-1.298,2.96c-0.865,0.736-2.053,1.104-3.559,1.104c-1.597,0-2.821-0.348-3.682-1.044
			C122.617,397.305,122.188,396.321,122.188,395.042z M123.88,395.083c0,0.815,0.282,1.451,0.85,1.906
			c0.568,0.455,1.362,0.684,2.388,0.684c1.011,0,1.798-0.238,2.358-0.713c0.563-0.477,0.845-1.127,0.845-1.957
			c0-0.659-0.265-1.245-0.793-1.758c-0.527-0.514-1.45-1.011-2.768-1.494c-1.012,0.436-1.743,0.916-2.198,1.442
			S123.88,394.35,123.88,395.083z M124.358,387.349c0,0.625,0.2,1.162,0.602,1.609c0.398,0.449,1.141,0.897,2.219,1.346
			c0.97-0.406,1.655-0.846,2.06-1.313c0.404-0.468,0.605-1.017,0.605-1.642c0-0.686-0.246-1.229-0.737-1.635
			c-0.492-0.404-1.169-0.605-2.027-0.605c-0.85,0-1.515,0.204-1.994,0.61C124.6,386.126,124.358,386.669,124.358,387.349z"/>
		<path fill="#666565" d="M139.653,393.351c0-1.8,0.441-3.229,1.326-4.29c0.884-1.06,2.07-1.589,3.563-1.589
			c1.396,0,2.498,0.46,3.312,1.38c0.813,0.922,1.219,2.137,1.219,3.645v1.069h-7.68c0.033,1.312,0.364,2.306,0.995,2.984
			c0.63,0.681,1.516,1.02,2.658,1.02c1.198,0,2.385-0.251,3.561-0.754v1.509c-0.602,0.258-1.163,0.441-1.689,0.555
			c-0.532,0.111-1.174,0.168-1.928,0.168c-1.646,0-2.943-0.502-3.896-1.508C140.131,396.532,139.653,395.139,139.653,393.351z
			 M141.427,392.189h5.848c0-1.065-0.235-1.884-0.715-2.45c-0.477-0.567-1.156-0.853-2.041-0.853c-0.896,0-1.614,0.292-2.146,0.876
			C141.836,390.349,141.522,391.157,141.427,392.189z"/>
		<path fill="#666565" d="M151.271,390.419c0-0.91,0.369-1.629,1.105-2.157c0.737-0.526,1.754-0.791,3.044-0.791
			c1.192,0,2.362,0.244,3.507,0.733l-0.593,1.377c-1.114-0.463-2.131-0.695-3.037-0.695c-0.805,0-1.405,0.126-1.813,0.378
			c-0.407,0.251-0.611,0.6-0.611,1.042c0,0.301,0.074,0.556,0.229,0.767c0.148,0.211,0.396,0.412,0.736,0.604
			c0.344,0.191,0.994,0.467,1.961,0.828c1.324,0.482,2.219,0.97,2.674,1.46c0.457,0.489,0.688,1.105,0.688,1.85
			c0,1.033-0.388,1.831-1.154,2.393c-0.771,0.562-1.854,0.842-3.243,0.842c-1.479,0-2.631-0.229-3.459-0.692v-1.56
			c0.536,0.271,1.109,0.486,1.725,0.645c0.613,0.156,1.205,0.234,1.775,0.234c0.885,0,1.564-0.141,2.043-0.424
			c0.478-0.283,0.715-0.713,0.715-1.293c0-0.436-0.188-0.809-0.563-1.118c-0.378-0.309-1.114-0.677-2.211-1.099
			c-1.042-0.389-1.78-0.728-2.222-1.018c-0.438-0.29-0.762-0.617-0.975-0.984C151.377,391.37,151.271,390.931,151.271,390.419z"/>
		<path fill="#666565" d="M160.461,388.989v-0.814l1.602-0.703l0.713-2.385h0.979v2.588h3.239v1.314h-3.239v6.588
			c0,0.674,0.158,1.189,0.479,1.552c0.318,0.36,0.76,0.542,1.313,0.542c0.301,0,0.59-0.021,0.865-0.065
			c0.275-0.045,0.5-0.091,0.663-0.139v1.278c-0.187,0.086-0.454,0.158-0.813,0.215c-0.354,0.058-0.681,0.086-0.965,0.086
			c-2.158,0-3.238-1.139-3.238-3.414v-6.645h-1.604L160.461,388.989L160.461,388.989z"/>
		<path fill="#666565" d="M169.164,384.648c0-0.388,0.088-0.672,0.266-0.852c0.174-0.18,0.396-0.27,0.656-0.27
			c0.293,0,0.546,0.092,0.758,0.273c0.213,0.186,0.318,0.466,0.318,0.847c0,0.38-0.105,0.663-0.318,0.851
			c-0.212,0.188-0.465,0.281-0.758,0.281c-0.266,0-0.482-0.095-0.656-0.281C169.252,385.313,169.164,385.03,169.164,384.648z
			 M169.309,398.844v-11.168h1.549v11.168H169.309z"/>
		<path fill="#666565" d="M174.586,398.844v-11.168h1.375l0.273,1.509h0.08c0.32-0.536,0.771-0.957,1.354-1.259
			c0.581-0.302,1.229-0.453,1.951-0.453c1.746,0,2.889,0.625,3.424,1.876h0.082c0.333-0.579,0.813-1.035,1.445-1.372
			c0.634-0.336,1.354-0.504,2.16-0.504c1.266,0,2.209,0.324,2.838,0.975c0.627,0.646,0.941,1.687,0.941,3.111v7.286h-1.691v-7.28
			c0-0.893-0.188-1.562-0.567-2.007c-0.381-0.444-0.974-0.669-1.772-0.669c-1.053,0-1.83,0.304-2.334,0.909
			c-0.502,0.605-0.754,1.537-0.754,2.798v6.249h-1.688v-7.281c0-0.892-0.188-1.561-0.57-2.006c-0.381-0.444-0.979-0.669-1.779-0.669
			c-1.063,0-1.836,0.317-2.328,0.955c-0.49,0.637-0.736,1.681-0.736,3.13v5.871L174.586,398.844L174.586,398.844z"/>
		<path fill="#666565" d="M193.162,395.768c0-2.25,1.807-3.429,5.418-3.536l1.896-0.063v-0.702c0-0.888-0.188-1.542-0.563-1.966
			c-0.377-0.422-0.979-0.633-1.809-0.633c-0.928,0-1.979,0.289-3.15,0.865l-0.523-1.299c0.551-0.294,1.151-0.523,1.813-0.691
			c0.649-0.166,1.313-0.25,1.972-0.25c1.33,0,2.313,0.295,2.957,0.887c0.646,0.591,0.963,1.539,0.963,2.843v7.622h-1.254
			l-0.336-1.57h-0.082c-0.561,0.692-1.105,1.161-1.662,1.406c-0.554,0.246-1.238,0.368-2.066,0.368c-1.11,0-1.982-0.284-2.613-0.853
			C193.479,397.626,193.162,396.816,193.162,395.768z M194.955,395.788c0,0.615,0.188,1.082,0.557,1.402
			c0.367,0.32,0.887,0.48,1.551,0.48c1.051,0,1.877-0.29,2.479-0.87c0.604-0.581,0.896-1.393,0.896-2.438v-1.015l-1.688,0.071
			c-1.343,0.048-2.313,0.258-2.9,0.63C195.252,394.425,194.955,395.003,194.955,395.788z"/>
		<path fill="#666565" d="M204.126,388.989v-0.814l1.603-0.703l0.713-2.385h0.979v2.588h3.239v1.314h-3.239v6.588
			c0,0.674,0.158,1.189,0.479,1.552c0.32,0.36,0.761,0.542,1.313,0.542c0.301,0,0.59-0.021,0.865-0.065
			c0.275-0.045,0.5-0.091,0.663-0.139v1.278c-0.188,0.086-0.454,0.158-0.813,0.215c-0.354,0.058-0.679,0.086-0.963,0.086
			c-2.16,0-3.24-1.139-3.24-3.414v-6.645h-1.602L204.126,388.989L204.126,388.989z"/>
		<path fill="#666565" d="M212.352,393.351c0-1.8,0.439-3.229,1.326-4.29c0.883-1.06,2.068-1.589,3.561-1.589
			c1.396,0,2.498,0.46,3.314,1.38c0.813,0.922,1.221,2.137,1.221,3.645v1.069h-7.688c0.034,1.312,0.365,2.306,0.995,2.984
			c0.63,0.68,1.519,1.02,2.655,1.02c1.197,0,2.388-0.251,3.56-0.754v1.509c-0.601,0.258-1.157,0.441-1.688,0.555
			c-0.528,0.111-1.174,0.168-1.926,0.168c-1.646,0-2.945-0.502-3.896-1.508C212.829,396.533,212.352,395.139,212.352,393.351z
			 M214.124,392.189h5.851c0-1.065-0.238-1.884-0.716-2.45c-0.479-0.567-1.155-0.853-2.041-0.853c-0.897,0-1.614,0.292-2.147,0.876
			C214.533,390.349,214.219,391.157,214.124,392.189z"/>
		<path fill="#666565" d="M223.968,390.419c0-0.91,0.37-1.629,1.108-2.157c0.738-0.526,1.754-0.791,3.044-0.791
			c1.192,0,2.36,0.244,3.504,0.733l-0.59,1.377c-1.117-0.463-2.132-0.695-3.037-0.695c-0.806,0-1.408,0.126-1.815,0.378
			c-0.41,0.251-0.613,0.6-0.613,1.042c0,0.301,0.076,0.556,0.229,0.767c0.151,0.211,0.396,0.412,0.739,0.604
			c0.34,0.191,0.992,0.467,1.961,0.828c1.322,0.482,2.216,0.97,2.672,1.46c0.456,0.489,0.686,1.105,0.686,1.85
			c0,1.033-0.385,1.831-1.149,2.393c-0.771,0.562-1.854,0.842-3.243,0.842c-1.479,0-2.631-0.229-3.459-0.692v-1.56
			c0.536,0.271,1.105,0.486,1.729,0.645c0.609,0.156,1.205,0.234,1.771,0.234c0.889,0,1.563-0.141,2.042-0.424
			c0.479-0.283,0.716-0.713,0.716-1.293c0-0.436-0.188-0.809-0.563-1.118c-0.381-0.309-1.115-0.677-2.213-1.099
			c-1.043-0.389-1.778-0.728-2.217-1.018c-0.438-0.29-0.766-0.617-0.979-0.984C224.072,391.37,223.968,390.931,223.968,390.419z"/>
	</g>
	
		<line fill="none" stroke="#666565" stroke-width="0.25" stroke-miterlimit="10" x1="105.674" y1="437.72" x2="105.674" y2="685.751"/>
	
		<line fill="none" stroke="#666565" stroke-width="0.25" stroke-miterlimit="10" x1="236.385" y1="685.751" x2="91.953" y2="685.751"/>
	
		<line fill="none" stroke="#666565" stroke-width="0.25" stroke-miterlimit="10" x1="236.385" y1="437.72" x2="91.953" y2="437.72"/>
</g>
<g id="legend">
	<g>
		<path fill="#5B5B5F" d="M93.064,754.236c0-1.277,0.235-2.396,0.71-3.359c0.475-0.961,1.16-1.701,2.063-2.225
			c0.9-0.521,1.965-0.779,3.188-0.779c1.305,0,2.439,0.236,3.414,0.713l-0.609,1.238c-0.938-0.439-1.88-0.662-2.819-0.662
			c-1.363,0-2.44,0.453-3.23,1.361c-0.787,0.906-1.186,2.15-1.186,3.729c0,1.623,0.382,2.879,1.144,3.764
			c0.763,0.889,1.849,1.328,3.259,1.328c0.863,0,1.854-0.15,2.963-0.469v1.271c-0.859,0.322-1.922,0.484-3.187,0.484
			c-1.828,0-3.234-0.559-4.226-1.666C93.558,757.859,93.064,756.281,93.064,754.236z"/>
		<path fill="#5B5B5F" d="M103.95,755.792c0-1.516,0.378-2.689,1.135-3.539c0.756-0.844,1.807-1.268,3.147-1.268
			c1.3,0,2.33,0.434,3.097,1.297c0.766,0.861,1.146,2.033,1.146,3.51c0,1.521-0.381,2.707-1.144,3.563
			c-0.764,0.854-1.813,1.279-3.158,1.279c-0.83,0-1.565-0.193-2.21-0.59c-0.646-0.393-1.14-0.951-1.488-1.686
			C104.125,757.632,103.95,756.775,103.95,755.792z M105.394,755.792c0,1.191,0.237,2.104,0.715,2.729
			c0.478,0.623,1.178,0.938,2.103,0.938c0.924,0,1.626-0.313,2.104-0.934c0.479-0.621,0.721-1.531,0.721-2.729
			c0-1.186-0.239-2.088-0.721-2.701c-0.479-0.613-1.188-0.926-2.122-0.926c-0.924,0-1.621,0.309-2.092,0.912
			C105.63,753.683,105.394,754.589,105.394,755.792z"/>
		<path fill="#5B5B5F" d="M114.378,753.445c0-0.762,0.309-1.359,0.924-1.799c0.617-0.439,1.463-0.658,2.537-0.658
			c0.995,0,1.97,0.203,2.92,0.609l-0.491,1.146c-0.932-0.385-1.772-0.578-2.53-0.578c-0.67,0-1.175,0.104-1.516,0.314
			c-0.341,0.209-0.511,0.5-0.511,0.865c0,0.25,0.063,0.461,0.189,0.641c0.128,0.176,0.333,0.344,0.617,0.502
			c0.282,0.16,0.827,0.391,1.634,0.688c1.104,0.4,1.848,0.811,2.229,1.219c0.38,0.406,0.57,0.922,0.57,1.541
			c0,0.859-0.32,1.525-0.965,1.992c-0.643,0.471-1.542,0.701-2.7,0.701c-1.231,0-2.192-0.189-2.884-0.578v-1.303
			c0.445,0.229,0.927,0.406,1.438,0.535c0.513,0.133,1.005,0.197,1.479,0.197c0.736,0,1.307-0.119,1.702-0.355
			c0.396-0.23,0.598-0.594,0.598-1.074c0-0.361-0.157-0.676-0.475-0.936c-0.313-0.258-0.93-0.564-1.843-0.914
			c-0.867-0.322-1.483-0.605-1.848-0.848c-0.365-0.242-0.636-0.52-0.813-0.82C114.467,754.236,114.378,753.871,114.378,753.445z"/>
		<path fill="#5B5B5F" d="M122.038,752.253v-0.682l1.333-0.586l0.594-1.986h0.813v2.156h2.7v1.098h-2.7v5.49
			c0,0.563,0.135,0.992,0.398,1.293c0.267,0.303,0.632,0.451,1.097,0.451c0.249,0,0.489-0.021,0.724-0.061
			c0.229-0.035,0.416-0.07,0.552-0.109v1.063c-0.151,0.072-0.378,0.135-0.675,0.186c-0.298,0.047-0.564,0.068-0.805,0.068
			c-1.8,0-2.698-0.947-2.698-2.848v-5.537L122.038,752.253L122.038,752.253z"/>
		<path fill="#5B5B5F" d="M133.926,760.464v-9.309h1.146l0.229,1.258h0.068c0.286-0.453,0.691-0.805,1.214-1.055
			c0.521-0.248,1.103-0.373,1.741-0.373c1.119,0,1.964,0.27,2.528,0.811c0.565,0.539,0.852,1.404,0.852,2.596v6.068h-1.41v-6.029
			c0-0.762-0.173-1.326-0.52-1.701c-0.346-0.375-0.887-0.563-1.622-0.563c-0.974,0-1.688,0.266-2.14,0.791
			c-0.453,0.527-0.681,1.395-0.681,2.611v4.895H133.926L133.926,760.464L133.926,760.464z"/>
		<path fill="#5B5B5F" d="M144.082,755.792c0-1.516,0.378-2.689,1.135-3.539c0.757-0.844,1.807-1.268,3.149-1.268
			c1.298,0,2.327,0.434,3.095,1.297c0.766,0.861,1.146,2.033,1.146,3.51c0,1.521-0.381,2.707-1.146,3.563
			c-0.762,0.854-1.813,1.279-3.156,1.279c-0.831,0-1.567-0.193-2.208-0.59c-0.644-0.393-1.14-0.951-1.488-1.686
			C144.257,757.632,144.082,756.775,144.082,755.792z M145.526,755.792c0,1.191,0.238,2.104,0.717,2.729
			c0.477,0.623,1.176,0.938,2.102,0.938c0.925,0,1.625-0.313,2.104-0.934c0.479-0.621,0.72-1.531,0.72-2.729
			c0-1.186-0.238-2.088-0.72-2.701c-0.479-0.613-1.188-0.926-2.121-0.926c-0.926,0-1.621,0.309-2.094,0.912
			C145.76,753.685,145.526,754.589,145.526,755.792z"/>
		<path fill="#5B5B5F" d="M155.105,760.464v-9.309h1.146l0.229,1.258h0.063c0.288-0.453,0.688-0.805,1.218-1.055
			c0.52-0.248,1.102-0.373,1.737-0.373c1.121,0,1.964,0.27,2.526,0.811c0.564,0.539,0.854,1.404,0.854,2.596v6.068h-1.406v-6.029
			c0-0.762-0.177-1.326-0.521-1.701c-0.352-0.375-0.893-0.563-1.622-0.563c-0.979,0-1.688,0.266-2.146,0.791
			c-0.453,0.527-0.68,1.395-0.68,2.611v4.895H155.1v0.004h0.004L155.105,760.464L155.105,760.464L155.105,760.464z"/>
		<path fill="#5B5B5F" d="M164.997,756.447v-1.291h4.17v1.291H164.997z"/>
		<path fill="#5B5B5F" d="M170.127,752.253v-0.639l1.665-0.508v-0.52c0-2.273,0.999-3.416,2.997-3.416
			c0.49,0,1.068,0.102,1.73,0.291l-0.365,1.115c-0.543-0.176-1.008-0.264-1.393-0.264c-0.533,0-0.931,0.178-1.186,0.529
			c-0.258,0.355-0.387,0.92-0.387,1.703v0.604h2.369v1.098h-2.36v8.209h-1.408v-8.209L170.127,752.253L170.127,752.253z"/>
		<path fill="#5B5B5F" d="M176.572,757.9c0-1.875,1.509-2.855,4.519-2.947l1.582-0.053v-0.584c0-0.738-0.155-1.285-0.471-1.639
			c-0.316-0.354-0.815-0.527-1.507-0.527c-0.771,0-1.647,0.24-2.627,0.723l-0.438-1.082c0.459-0.244,0.961-0.438,1.509-0.576
			c0.547-0.141,1.094-0.209,1.646-0.209c1.104,0,1.93,0.246,2.465,0.738c0.534,0.492,0.803,1.281,0.803,2.369v6.354h-1.046
			l-0.276-1.313h-0.065c-0.464,0.578-0.927,0.969-1.388,1.174c-0.461,0.203-1.033,0.313-1.729,0.313
			c-0.927,0-1.649-0.236-2.18-0.713C176.836,759.449,176.572,758.775,176.572,757.9z M178.068,757.917c0,0.516,0.152,0.9,0.461,1.17
			c0.311,0.271,0.738,0.4,1.293,0.4c0.875,0,1.563-0.242,2.063-0.73c0.5-0.48,0.75-1.16,0.75-2.025v-0.85l-1.406,0.064
			c-1.117,0.041-1.926,0.217-2.42,0.521C178.314,756.783,178.068,757.263,178.068,757.917z"/>
		<path fill="#5B5B5F" d="M185.71,752.253v-0.682l1.333-0.586l0.596-1.986h0.813v2.156h2.698v1.098h-2.698v5.49
			c0,0.563,0.133,0.992,0.397,1.293c0.268,0.303,0.631,0.451,1.096,0.451c0.248,0,0.488-0.021,0.724-0.061
			c0.229-0.035,0.416-0.07,0.554-0.109v1.063c-0.152,0.072-0.38,0.135-0.677,0.186c-0.298,0.047-0.563,0.068-0.803,0.068
			c-1.802,0-2.7-0.947-2.7-2.848v-5.537L185.71,752.253L185.71,752.253z"/>
		<path fill="#5B5B5F" d="M192.384,757.9c0-1.875,1.507-2.855,4.517-2.947l1.582-0.053v-0.584c0-0.738-0.151-1.285-0.471-1.639
			c-0.313-0.354-0.813-0.527-1.506-0.527c-0.771,0-1.648,0.24-2.627,0.723l-0.438-1.082c0.459-0.244,0.961-0.438,1.51-0.576
			c0.546-0.141,1.094-0.209,1.643-0.209c1.108,0,1.932,0.246,2.467,0.738c0.532,0.492,0.801,1.281,0.801,2.369v6.354h-1.045
			l-0.274-1.313h-0.067c-0.464,0.578-0.926,0.969-1.387,1.174c-0.46,0.203-1.035,0.313-1.729,0.313
			c-0.926,0-1.648-0.236-2.181-0.713C192.648,759.449,192.384,758.775,192.384,757.9z M193.879,757.917
			c0,0.516,0.153,0.9,0.462,1.17c0.31,0.271,0.738,0.4,1.292,0.4c0.876,0,1.563-0.242,2.063-0.73c0.5-0.48,0.75-1.16,0.75-2.025
			v-0.85l-1.405,0.064c-1.118,0.041-1.929,0.217-2.42,0.521C194.126,756.783,193.879,757.263,193.879,757.917z"/>
		<path fill="#5B5B5F" d="M202.752,760.464v-13.213h1.41v13.213H202.752z"/>
		<path fill="#5B5B5F" d="M211.152,755.871c0-1.561,0.371-2.762,1.115-3.607c0.746-0.852,1.813-1.271,3.193-1.271
			c0.447,0,0.896,0.049,1.346,0.145c0.443,0.1,0.799,0.209,1.055,0.34l-0.438,1.195c-0.313-0.125-0.647-0.229-1.021-0.311
			c-0.366-0.082-0.69-0.123-0.979-0.123c-1.895,0-2.837,1.205-2.837,3.617c0,1.145,0.229,2.02,0.688,2.633
			c0.461,0.607,1.146,0.916,2.054,0.916c0.772,0,1.569-0.166,2.388-0.5v1.248c-0.623,0.32-1.406,0.482-2.354,0.482
			c-1.348,0-2.389-0.416-3.121-1.244C211.518,758.56,211.152,757.386,211.152,755.871z"/>
		<path fill="#5B5B5F" d="M219.252,757.9c0-1.875,1.506-2.855,4.518-2.947l1.582-0.053v-0.584c0-0.738-0.158-1.285-0.473-1.639
			c-0.313-0.354-0.814-0.527-1.505-0.527c-0.772,0-1.647,0.24-2.627,0.723l-0.438-1.082c0.459-0.244,0.961-0.438,1.508-0.576
			c0.547-0.137,1.1-0.209,1.646-0.209c1.104,0,1.934,0.246,2.465,0.738c0.534,0.492,0.807,1.281,0.807,2.369v6.354h-1.045
			l-0.279-1.313h-0.067c-0.463,0.578-0.925,0.969-1.386,1.174c-0.461,0.203-1.035,0.313-1.727,0.313
			c-0.932,0-1.652-0.236-2.185-0.713C219.516,759.449,219.252,758.775,219.252,757.9z M220.747,757.917
			c0,0.516,0.151,0.9,0.462,1.17c0.309,0.271,0.736,0.4,1.292,0.4c0.876,0,1.563-0.242,2.063-0.73c0.5-0.48,0.75-1.16,0.75-2.025
			v-0.85l-1.404,0.064c-1.118,0.041-1.928,0.217-2.422,0.521C220.994,756.783,220.747,757.263,220.747,757.917z"/>
		<path fill="#5B5B5F" d="M229.027,753.445c0-0.762,0.31-1.359,0.926-1.799c0.615-0.439,1.462-0.658,2.535-0.658
			c0.994,0,1.971,0.203,2.922,0.609l-0.492,1.146c-0.934-0.385-1.773-0.578-2.529-0.578c-0.671,0-1.176,0.104-1.516,0.314
			c-0.344,0.211-0.514,0.5-0.514,0.865c0,0.25,0.063,0.461,0.188,0.641c0.127,0.176,0.333,0.344,0.617,0.502
			c0.279,0.16,0.828,0.391,1.634,0.688c1.104,0.4,1.851,0.811,2.229,1.219c0.383,0.406,0.568,0.922,0.568,1.541
			c0,0.859-0.318,1.525-0.965,1.992c-0.645,0.471-1.542,0.701-2.699,0.701c-1.229,0-2.188-0.189-2.885-0.578v-1.303
			c0.446,0.229,0.928,0.406,1.438,0.535c0.516,0.133,1.009,0.197,1.479,0.197c0.737,0,1.308-0.119,1.702-0.355
			c0.396-0.23,0.6-0.594,0.6-1.074c0-0.361-0.158-0.676-0.477-0.936c-0.313-0.258-0.934-0.564-1.846-0.914
			c-0.864-0.322-1.48-0.605-1.848-0.848c-0.365-0.24-0.637-0.52-0.813-0.82C229.115,754.236,229.027,753.871,229.027,753.445z"/>
		<path fill="#5B5B5F" d="M237.4,755.886c0-1.5,0.367-2.689,1.104-3.572c0.737-0.885,1.727-1.326,2.969-1.326
			c1.161,0,2.082,0.385,2.76,1.15c0.682,0.768,1.021,1.777,1.021,3.037v0.893h-6.399c0.024,1.094,0.307,1.922,0.826,2.486
			c0.524,0.564,1.268,0.852,2.221,0.852c0.998,0,1.981-0.209,2.963-0.629v1.258c-0.497,0.215-0.967,0.369-1.408,0.463
			c-0.443,0.096-0.979,0.143-1.604,0.143c-1.371,0-2.453-0.42-3.248-1.258C237.798,758.541,237.4,757.376,237.4,755.886z
			 M238.877,754.917h4.874c0-0.889-0.196-1.564-0.597-2.041c-0.396-0.475-0.965-0.709-1.7-0.709c-0.748,0-1.347,0.242-1.79,0.729
			C239.219,753.386,238.956,754.058,238.877,754.917z"/>
		<path fill="#5B5B5F" d="M247.08,753.445c0-0.762,0.309-1.359,0.924-1.799c0.617-0.439,1.462-0.658,2.537-0.658
			c0.995,0,1.971,0.203,2.92,0.609l-0.49,1.146c-0.933-0.385-1.775-0.578-2.531-0.578c-0.67,0-1.174,0.104-1.516,0.314
			c-0.341,0.211-0.511,0.5-0.511,0.865c0,0.25,0.063,0.461,0.188,0.641c0.129,0.176,0.334,0.344,0.617,0.502
			c0.279,0.16,0.824,0.391,1.635,0.688c1.104,0.4,1.848,0.811,2.229,1.219c0.38,0.406,0.568,0.922,0.568,1.541
			c0,0.859-0.318,1.525-0.963,1.992c-0.646,0.471-1.543,0.701-2.703,0.701c-1.229,0-2.189-0.189-2.881-0.578v-1.303
			c0.441,0.229,0.924,0.406,1.438,0.535c0.513,0.133,1.005,0.197,1.479,0.197c0.732,0,1.307-0.119,1.701-0.355
			c0.396-0.23,0.596-0.594,0.596-1.074c0-0.361-0.154-0.676-0.473-0.936c-0.314-0.258-0.933-0.564-1.846-0.914
			c-0.868-0.322-1.48-0.605-1.854-0.848c-0.359-0.242-0.633-0.52-0.813-0.82C247.169,754.236,247.08,753.871,247.08,753.445z"/>
	</g>
	<g>
		<path fill="#5B5B5F" d="M93.064,782.925c0-1.275,0.235-2.396,0.71-3.357s1.16-1.703,2.063-2.225
			c0.9-0.521,1.965-0.779,3.188-0.779c1.305,0,2.439,0.236,3.414,0.713l-0.609,1.236c-0.938-0.438-1.88-0.66-2.819-0.66
			c-1.363,0-2.44,0.453-3.23,1.359c-0.787,0.908-1.186,2.15-1.186,3.73c0,1.625,0.382,2.879,1.144,3.764
			c0.763,0.887,1.849,1.328,3.259,1.328c0.863,0,1.854-0.156,2.963-0.467v1.27c-0.859,0.326-1.922,0.488-3.187,0.488
			c-1.828,0-3.234-0.561-4.226-1.666C93.558,786.55,93.064,784.97,93.064,782.925z"/>
		<path fill="#5B5B5F" d="M103.95,784.486c0-1.518,0.378-2.693,1.135-3.539c0.756-0.848,1.807-1.271,3.147-1.271
			c1.3,0,2.33,0.438,3.097,1.297c0.766,0.863,1.146,2.035,1.146,3.514c0,1.52-0.381,2.707-1.144,3.561
			c-0.764,0.855-1.813,1.279-3.158,1.279c-0.83,0-1.565-0.195-2.21-0.586c-0.646-0.396-1.14-0.953-1.488-1.689
			C104.125,786.322,103.95,785.466,103.95,784.486z M105.394,784.486c0,1.188,0.237,2.1,0.715,2.725
			c0.478,0.623,1.178,0.939,2.103,0.939c0.924,0,1.626-0.314,2.104-0.938c0.479-0.619,0.721-1.529,0.721-2.729
			c0-1.188-0.239-2.088-0.721-2.703c-0.479-0.615-1.188-0.924-2.122-0.924c-0.924,0-1.621,0.305-2.092,0.908
			C105.629,782.376,105.394,783.283,105.394,784.486z"/>
		<path fill="#5B5B5F" d="M114.378,782.134c0-0.76,0.309-1.355,0.924-1.799c0.617-0.438,1.463-0.658,2.537-0.658
			c0.995,0,1.97,0.205,2.92,0.609l-0.491,1.145c-0.932-0.387-1.772-0.58-2.53-0.58c-0.67,0-1.175,0.105-1.516,0.314
			s-0.511,0.498-0.511,0.867c0,0.25,0.063,0.463,0.189,0.641c0.128,0.176,0.333,0.342,0.617,0.502
			c0.282,0.156,0.827,0.393,1.634,0.689c1.104,0.4,1.848,0.813,2.229,1.219c0.38,0.406,0.57,0.922,0.57,1.539
			c0,0.861-0.32,1.527-0.965,1.994c-0.643,0.469-1.542,0.701-2.7,0.701c-1.231,0-2.192-0.189-2.884-0.578v-1.301
			c0.445,0.229,0.927,0.404,1.438,0.535c0.513,0.133,1.005,0.193,1.479,0.193c0.736,0,1.307-0.117,1.702-0.355
			c0.396-0.232,0.598-0.596,0.598-1.074c0-0.361-0.157-0.676-0.475-0.938c-0.313-0.258-0.93-0.563-1.843-0.914
			c-0.867-0.32-1.483-0.604-1.848-0.85c-0.364-0.238-0.636-0.516-0.813-0.818C114.467,782.927,114.378,782.56,114.378,782.134z"/>
		<path fill="#5B5B5F" d="M122.038,780.945v-0.684l1.333-0.586l0.594-1.984h0.813v2.154h2.7v1.1h-2.7v5.486
			c0,0.564,0.135,0.994,0.398,1.297c0.267,0.301,0.632,0.449,1.097,0.449c0.249,0,0.489-0.02,0.724-0.057
			c0.229-0.037,0.416-0.076,0.552-0.115v1.064c-0.151,0.068-0.378,0.133-0.675,0.182c-0.298,0.049-0.564,0.07-0.805,0.07
			c-1.8,0-2.698-0.947-2.698-2.848v-5.535h-1.333V780.945z"/>
		<path fill="#5B5B5F" d="M132.678,780.945v-0.641l1.664-0.508v-0.52c0-2.275,0.999-3.416,2.997-3.416c0.492,0,1.07,0.1,1.73,0.293
			l-0.363,1.117c-0.543-0.18-1.01-0.268-1.395-0.268c-0.532,0-0.927,0.178-1.182,0.527c-0.255,0.354-0.382,0.922-0.382,1.703v0.604
			h2.369v1.1h-2.369v8.211h-1.409v-8.211h-1.662L132.678,780.945L132.678,780.945z"/>
		<path fill="#5B5B5F" d="M139.123,786.591c0-1.875,1.506-2.854,4.517-2.945l1.582-0.055v-0.584c0-0.736-0.157-1.283-0.472-1.637
			c-0.313-0.355-0.814-0.529-1.505-0.529c-0.773,0-1.648,0.24-2.627,0.727l-0.438-1.082c0.459-0.246,0.961-0.439,1.508-0.576
			c0.546-0.143,1.094-0.209,1.645-0.209c1.106,0,1.93,0.246,2.465,0.736c0.534,0.492,0.803,1.281,0.803,2.369v6.354h-1.045
			l-0.28-1.313h-0.066c-0.463,0.578-0.927,0.971-1.388,1.176c-0.46,0.201-1.033,0.307-1.725,0.307c-0.928,0-1.654-0.234-2.181-0.711
			C139.387,788.14,139.123,787.466,139.123,786.591z M140.618,786.609c0,0.514,0.151,0.898,0.462,1.17
			c0.308,0.268,0.736,0.398,1.292,0.398c0.876,0,1.563-0.242,2.063-0.727c0.5-0.482,0.75-1.162,0.75-2.031v-0.844l-1.407,0.061
			c-1.116,0.041-1.926,0.217-2.42,0.523C140.865,785.474,140.618,785.955,140.618,786.609z"/>
		<path fill="#5B5B5F" d="M148.26,780.945v-0.684l1.334-0.586l0.594-1.984h0.814v2.154h2.7v1.1h-2.7v5.486
			c0,0.564,0.133,0.994,0.396,1.297c0.269,0.301,0.631,0.449,1.099,0.449c0.249,0,0.487-0.02,0.722-0.057
			c0.231-0.037,0.416-0.076,0.553-0.115v1.064c-0.146,0.068-0.377,0.133-0.674,0.182c-0.3,0.049-0.565,0.07-0.805,0.07
			c-1.8,0-2.699-0.947-2.699-2.848v-5.535h-1.334V780.945L148.26,780.945z"/>
		<path fill="#5B5B5F" d="M154.936,786.591c0-1.875,1.506-2.854,4.521-2.945l1.582-0.055v-0.584c0-0.736-0.157-1.283-0.476-1.637
			c-0.313-0.355-0.813-0.529-1.506-0.529c-0.771,0-1.646,0.24-2.627,0.727l-0.438-1.082c0.459-0.246,0.961-0.439,1.508-0.576
			c0.546-0.143,1.094-0.209,1.645-0.209c1.106,0,1.935,0.246,2.465,0.736c0.533,0.492,0.807,1.281,0.807,2.369v6.354h-1.045
			l-0.28-1.313h-0.063c-0.465,0.578-0.928,0.971-1.391,1.176c-0.46,0.201-1.031,0.307-1.725,0.307c-0.932,0-1.654-0.234-2.186-0.711
			C155.197,788.14,154.936,787.466,154.936,786.591z M156.43,786.609c0,0.514,0.152,0.898,0.463,1.17
			c0.313,0.268,0.736,0.398,1.291,0.398c0.877,0,1.563-0.242,2.063-0.727c0.5-0.482,0.75-1.162,0.75-2.031v-0.844l-1.407,0.061
			c-1.117,0.041-1.926,0.217-2.42,0.523C156.678,785.474,156.43,785.955,156.43,786.609z"/>
		<path fill="#5B5B5F" d="M165.303,789.156v-13.213h1.409v13.213H165.303z"/>
		<path fill="#5B5B5F" d="M173.702,784.56c0-1.559,0.372-2.76,1.114-3.605c0.744-0.85,1.813-1.271,3.197-1.271
			c0.442,0,0.896,0.053,1.342,0.146c0.445,0.1,0.799,0.209,1.056,0.342l-0.437,1.195c-0.313-0.125-0.648-0.229-1.021-0.311
			c-0.37-0.082-0.691-0.123-0.979-0.123c-1.895,0-2.838,1.203-2.838,3.615c0,1.146,0.229,2.021,0.69,2.635
			c0.461,0.607,1.146,0.916,2.052,0.916c0.771,0,1.57-0.166,2.387-0.5v1.246c-0.621,0.322-1.406,0.482-2.354,0.482
			c-1.352,0-2.391-0.414-3.12-1.242C174.068,787.253,173.702,786.08,173.702,784.56z"/>
		<path fill="#5B5B5F" d="M181.803,786.591c0-1.875,1.506-2.854,4.516-2.945l1.582-0.055v-0.584c0-0.736-0.151-1.283-0.471-1.637
			c-0.313-0.355-0.813-0.529-1.506-0.529c-0.771,0-1.648,0.24-2.627,0.727l-0.438-1.082c0.459-0.246,0.961-0.439,1.51-0.576
			c0.546-0.143,1.094-0.209,1.643-0.209c1.108,0,1.932,0.246,2.467,0.736c0.532,0.492,0.801,1.281,0.801,2.369v6.354h-1.045
			l-0.274-1.313h-0.065c-0.466,0.578-0.928,0.971-1.389,1.176c-0.46,0.201-1.035,0.307-1.729,0.307c-0.926,0-1.648-0.234-2.18-0.711
			C182.066,788.14,181.803,787.466,181.803,786.591z M183.298,786.609c0,0.514,0.153,0.898,0.462,1.17
			c0.309,0.268,0.738,0.398,1.293,0.398c0.875,0,1.563-0.242,2.063-0.727c0.5-0.482,0.75-1.162,0.75-2.031v-0.844l-1.407,0.061
			c-1.118,0.041-1.926,0.217-2.42,0.523C183.545,785.474,183.298,785.955,183.298,786.609z"/>
		<path fill="#5B5B5F" d="M191.578,782.134c0-0.76,0.309-1.355,0.924-1.799c0.617-0.438,1.462-0.658,2.537-0.658
			c0.995,0,1.969,0.205,2.92,0.609l-0.492,1.145c-0.931-0.387-1.773-0.58-2.529-0.58c-0.67,0-1.174,0.105-1.516,0.314
			c-0.341,0.209-0.511,0.498-0.511,0.867c0,0.25,0.063,0.463,0.188,0.641c0.129,0.176,0.334,0.342,0.613,0.502
			c0.283,0.156,0.828,0.393,1.639,0.689c1.104,0.4,1.848,0.813,2.229,1.219c0.38,0.406,0.568,0.922,0.568,1.539
			c0,0.861-0.318,1.527-0.963,1.994c-0.646,0.469-1.543,0.701-2.703,0.701c-1.229,0-2.189-0.189-2.881-0.578v-1.301
			c0.441,0.229,0.924,0.404,1.438,0.535c0.512,0.133,1.005,0.193,1.479,0.193c0.732,0,1.307-0.117,1.701-0.355
			c0.396-0.232,0.596-0.596,0.596-1.074c0-0.361-0.154-0.676-0.477-0.938c-0.313-0.258-0.929-0.563-1.842-0.914
			c-0.868-0.32-1.48-0.604-1.854-0.85c-0.358-0.238-0.633-0.516-0.813-0.818C191.667,782.927,191.578,782.56,191.578,782.134z"/>
		<path fill="#5B5B5F" d="M199.95,784.58c0-1.5,0.366-2.689,1.104-3.574c0.731-0.885,1.725-1.324,2.967-1.324
			c1.162,0,2.082,0.389,2.76,1.148c0.679,0.768,1.018,1.779,1.018,3.035v0.895h-6.402c0.027,1.096,0.311,1.926,0.83,2.486
			c0.523,0.564,1.265,0.852,2.217,0.852c0.998,0,1.986-0.209,2.963-0.629v1.26c-0.492,0.217-0.967,0.369-1.405,0.465
			c-0.44,0.094-0.979,0.141-1.604,0.141c-1.373,0-2.455-0.42-3.248-1.258C200.348,787.23,199.95,786.068,199.95,784.58z
			 M201.428,783.611h4.873c0-0.893-0.197-1.568-0.595-2.043c-0.396-0.475-0.965-0.709-1.702-0.709c-0.748,0-1.345,0.24-1.79,0.729
			C201.77,782.076,201.507,782.75,201.428,783.611z"/>
		<path fill="#5B5B5F" d="M209.631,782.134c0-0.76,0.309-1.355,0.926-1.799c0.615-0.438,1.461-0.658,2.535-0.658
			c0.995,0,1.971,0.205,2.922,0.609l-0.492,1.145c-0.933-0.387-1.771-0.58-2.525-0.58c-0.676,0-1.18,0.105-1.52,0.314
			c-0.343,0.209-0.513,0.498-0.513,0.867c0,0.25,0.063,0.463,0.188,0.641c0.131,0.176,0.334,0.342,0.617,0.502
			c0.283,0.156,0.828,0.393,1.635,0.689c1.104,0.4,1.848,0.813,2.229,1.219s0.57,0.922,0.57,1.539c0,0.861-0.32,1.527-0.964,1.994
			c-0.644,0.469-1.544,0.701-2.701,0.701c-1.231,0-2.192-0.189-2.884-0.578v-1.301c0.445,0.229,0.927,0.404,1.438,0.535
			c0.512,0.133,1.004,0.193,1.479,0.193c0.734,0,1.307-0.117,1.699-0.355c0.396-0.234,0.601-0.596,0.601-1.074
			c0-0.361-0.157-0.676-0.478-0.938c-0.313-0.258-0.931-0.563-1.842-0.914c-0.867-0.32-1.484-0.604-1.85-0.85
			c-0.364-0.238-0.637-0.516-0.813-0.818C209.719,782.927,209.631,782.56,209.631,782.134z"/>
	</g>
	<rect x="64.042" y="745.007" fill="#DD9B2B" width="17.803" height="17.799"/>
	<rect x="64.042" y="773.695" fill="#199598" width="17.803" height="17.803"/>
</g>
<g>
	<path fill="#5B5B5F" d="M27.388,814.548l0.17-1.066l2.291,0.65l-0.252-2.314h1.137l-0.252,2.314l2.332-0.65l0.152,1.066
		l-2.232,0.182l1.453,1.91l-1.008,0.551l-1.031-2.121l-0.938,2.121l-1.031-0.551l1.418-1.91L27.388,814.548z"/>
	<path fill="#5B5B5F" d="M33.611,813.259v-0.891h6.422v0.891H37.32v7.676h-0.996v-7.676H33.611z"/>
	<path fill="#5B5B5F" d="M41.175,820.935v-9.117h0.973v2.76c0,0.332-0.016,0.607-0.047,0.826h0.059
		c0.191-0.309,0.464-0.553,0.817-0.73s0.757-0.266,1.21-0.266c0.785,0,1.374,0.186,1.767,0.559s0.589,0.967,0.589,1.779v4.189H45.57
		v-4.154c0-0.523-0.119-0.914-0.357-1.172s-0.611-0.387-1.119-0.387c-0.676,0-1.169,0.184-1.479,0.551s-0.466,0.969-0.466,1.805
		v3.357H41.175z"/>
	<path fill="#5B5B5F" d="M48.458,812.773c0-0.223,0.051-0.387,0.151-0.49s0.227-0.154,0.378-0.154c0.169,0,0.313,0.053,0.436,0.158
		s0.184,0.268,0.184,0.486s-0.062,0.381-0.184,0.488s-0.267,0.162-0.436,0.162c-0.151,0-0.277-0.055-0.378-0.162
		S48.458,812.992,48.458,812.773z M48.54,820.935v-6.422h0.891v6.422H48.54z"/>
	<path fill="#5B5B5F" d="M51.165,816.091c0-0.525,0.213-0.938,0.638-1.24c0.426-0.305,1.009-0.455,1.75-0.455
		c0.688,0,1.359,0.141,2.016,0.422l-0.34,0.791c-0.643-0.266-1.225-0.398-1.746-0.398c-0.462,0-0.811,0.072-1.045,0.217
		c-0.235,0.145-0.353,0.344-0.353,0.6c0,0.172,0.044,0.318,0.132,0.439s0.23,0.238,0.426,0.348c0.196,0.109,0.571,0.268,1.128,0.475
		c0.761,0.279,1.273,0.559,1.536,0.84c0.263,0.283,0.394,0.637,0.394,1.063c0,0.596-0.222,1.055-0.664,1.377
		c-0.443,0.322-1.064,0.484-1.865,0.484c-0.85,0-1.513-0.133-1.988-0.398v-0.898c0.308,0.156,0.639,0.279,0.991,0.371
		c0.354,0.09,0.693,0.135,1.021,0.135c0.51,0,0.9-0.082,1.175-0.244s0.411-0.41,0.411-0.742c0-0.252-0.108-0.465-0.326-0.645
		c-0.217-0.178-0.641-0.389-1.271-0.631c-0.599-0.223-1.023-0.418-1.274-0.584c-0.25-0.166-0.437-0.355-0.56-0.566
		C51.227,816.636,51.165,816.384,51.165,816.091z"/>
	<path fill="#5B5B5F" d="M60.06,817.765c0-1.074,0.257-1.904,0.771-2.49s1.249-0.879,2.206-0.879c0.309,0,0.617,0.033,0.926,0.1
		s0.551,0.145,0.727,0.234l-0.299,0.826c-0.215-0.086-0.449-0.158-0.703-0.215s-0.479-0.084-0.674-0.084
		c-1.305,0-1.957,0.832-1.957,2.496c0,0.789,0.159,1.395,0.478,1.816s0.79,0.633,1.415,0.633c0.535,0,1.084-0.115,1.646-0.346v0.861
		c-0.43,0.223-0.971,0.334-1.623,0.334c-0.93,0-1.647-0.287-2.153-0.859S60.06,818.812,60.06,817.765z"/>
	<path fill="#5B5B5F" d="M65.773,817.712c0-1.045,0.261-1.859,0.783-2.443c0.521-0.582,1.246-0.873,2.173-0.873
		c0.896,0,1.607,0.299,2.135,0.895c0.528,0.596,0.792,1.404,0.792,2.422c0,1.049-0.263,1.867-0.789,2.455
		c-0.525,0.59-1.252,0.885-2.179,0.885c-0.572,0-1.081-0.135-1.524-0.406c-0.444-0.27-0.787-0.656-1.028-1.162
		C65.894,818.98,65.773,818.388,65.773,817.712z M66.769,817.712c0,0.822,0.164,1.449,0.493,1.879
		c0.328,0.432,0.812,0.646,1.449,0.646s1.122-0.215,1.452-0.643c0.331-0.43,0.496-1.057,0.496-1.883
		c0-0.818-0.165-1.439-0.496-1.865c-0.33-0.424-0.818-0.637-1.464-0.637c-0.638,0-1.119,0.209-1.443,0.629
		C66.931,816.257,66.769,816.882,66.769,817.712z"/>
	<path fill="#5B5B5F" d="M72.968,816.091c0-0.525,0.213-0.938,0.638-1.24c0.426-0.305,1.009-0.455,1.75-0.455
		c0.688,0,1.359,0.141,2.016,0.422l-0.34,0.791c-0.643-0.266-1.225-0.398-1.746-0.398c-0.462,0-0.811,0.072-1.045,0.217
		c-0.235,0.145-0.353,0.344-0.353,0.6c0,0.172,0.044,0.318,0.132,0.439s0.23,0.238,0.426,0.348c0.196,0.109,0.571,0.268,1.128,0.475
		c0.761,0.279,1.273,0.559,1.536,0.84c0.263,0.283,0.394,0.637,0.394,1.063c0,0.596-0.222,1.055-0.664,1.377
		c-0.443,0.322-1.064,0.484-1.865,0.484c-0.85,0-1.513-0.133-1.988-0.398v-0.898c0.308,0.156,0.639,0.279,0.991,0.371
		c0.354,0.09,0.693,0.135,1.021,0.135c0.51,0,0.9-0.082,1.175-0.244s0.411-0.41,0.411-0.742c0-0.252-0.108-0.465-0.326-0.645
		c-0.217-0.178-0.641-0.389-1.271-0.631c-0.599-0.223-1.023-0.418-1.274-0.584c-0.25-0.166-0.437-0.355-0.56-0.566
		C73.03,816.636,72.968,816.384,72.968,816.091z"/>
	<path fill="#5B5B5F" d="M78.253,815.269V814.8l0.92-0.404l0.41-1.371h0.563v1.488h1.863v0.756h-1.863v3.787
		c0,0.389,0.092,0.686,0.275,0.893c0.184,0.209,0.436,0.313,0.756,0.313c0.172,0,0.338-0.014,0.498-0.039s0.287-0.051,0.381-0.078
		v0.734c-0.105,0.051-0.261,0.092-0.466,0.125c-0.205,0.031-0.39,0.049-0.554,0.049c-1.242,0-1.863-0.654-1.863-1.963v-3.82H78.253z
		"/>
	<path fill="#5B5B5F" d="M86.374,812.773c0-0.223,0.051-0.387,0.151-0.49s0.227-0.154,0.378-0.154c0.169,0,0.313,0.053,0.436,0.158
		s0.184,0.268,0.184,0.486s-0.062,0.381-0.184,0.488s-0.267,0.162-0.436,0.162c-0.151,0-0.277-0.055-0.378-0.162
		S86.374,812.992,86.374,812.773z M86.456,820.935v-6.422h0.891v6.422H86.456z"/>
	<path fill="#5B5B5F" d="M89.081,816.091c0-0.525,0.213-0.938,0.638-1.24c0.426-0.305,1.009-0.455,1.75-0.455
		c0.688,0,1.359,0.141,2.016,0.422l-0.34,0.791c-0.643-0.266-1.225-0.398-1.746-0.398c-0.462,0-0.811,0.072-1.045,0.217
		c-0.235,0.145-0.353,0.344-0.353,0.6c0,0.172,0.044,0.318,0.132,0.439s0.23,0.238,0.426,0.348c0.196,0.109,0.571,0.268,1.128,0.475
		c0.761,0.279,1.273,0.559,1.536,0.84c0.263,0.283,0.394,0.637,0.394,1.063c0,0.596-0.222,1.055-0.664,1.377
		c-0.443,0.322-1.064,0.484-1.865,0.484c-0.85,0-1.513-0.133-1.988-0.398v-0.898c0.308,0.156,0.639,0.279,0.991,0.371
		c0.354,0.09,0.693,0.135,1.021,0.135c0.51,0,0.9-0.082,1.175-0.244s0.411-0.41,0.411-0.742c0-0.252-0.108-0.465-0.326-0.645
		c-0.217-0.178-0.641-0.389-1.271-0.631c-0.599-0.223-1.023-0.418-1.274-0.584c-0.25-0.166-0.437-0.355-0.56-0.566
		C89.143,816.636,89.081,816.384,89.081,816.091z"/>
	<path fill="#5B5B5F" d="M97.976,817.765c0-1.074,0.257-1.904,0.771-2.49s1.249-0.879,2.206-0.879c0.309,0,0.617,0.033,0.926,0.1
		s0.551,0.145,0.727,0.234l-0.299,0.826c-0.215-0.086-0.449-0.158-0.703-0.215s-0.479-0.084-0.674-0.084
		c-1.305,0-1.957,0.832-1.957,2.496c0,0.789,0.159,1.395,0.478,1.816s0.79,0.633,1.415,0.633c0.535,0,1.084-0.115,1.646-0.346v0.861
		c-0.43,0.223-0.971,0.334-1.623,0.334c-0.93,0-1.647-0.287-2.153-0.859S97.976,818.812,97.976,817.765z"/>
	<path fill="#5B5B5F" d="M103.566,819.166c0-1.293,1.038-1.971,3.115-2.033l1.092-0.035v-0.404c0-0.51-0.108-0.887-0.324-1.129
		c-0.217-0.244-0.563-0.365-1.038-0.365c-0.534,0-1.139,0.166-1.813,0.498l-0.303-0.746c0.316-0.17,0.663-0.303,1.04-0.398
		c0.377-0.098,0.755-0.145,1.134-0.145c0.766,0,1.332,0.17,1.701,0.51c0.368,0.34,0.553,0.885,0.553,1.635v4.383h-0.721
		l-0.193-0.904h-0.047c-0.319,0.398-0.639,0.668-0.956,0.809c-0.318,0.143-0.715,0.213-1.19,0.213c-0.64,0-1.142-0.164-1.504-0.49
		C103.747,820.234,103.566,819.769,103.566,819.166z M104.597,819.177c0,0.354,0.106,0.623,0.318,0.807
		c0.213,0.186,0.51,0.277,0.893,0.277c0.604,0,1.079-0.168,1.424-0.5c0.345-0.334,0.518-0.801,0.518-1.402v-0.582l-0.971,0.041
		c-0.772,0.027-1.329,0.148-1.67,0.361C104.768,818.394,104.597,818.726,104.597,819.177z"/>
	<path fill="#5B5B5F" d="M110.72,820.935v-9.117h0.973v9.117H110.72z"/>
	<path fill="#5B5B5F" d="M113.398,817.765c0-1.074,0.257-1.904,0.771-2.49s1.249-0.879,2.206-0.879c0.309,0,0.617,0.033,0.926,0.1
		s0.551,0.145,0.727,0.234l-0.299,0.826c-0.215-0.086-0.449-0.158-0.703-0.215s-0.479-0.084-0.674-0.084
		c-1.305,0-1.957,0.832-1.957,2.496c0,0.789,0.159,1.395,0.478,1.816s0.79,0.633,1.415,0.633c0.535,0,1.084-0.115,1.646-0.346v0.861
		c-0.43,0.223-0.971,0.334-1.623,0.334c-0.93,0-1.647-0.287-2.153-0.859S113.398,818.812,113.398,817.765z"/>
	<path fill="#5B5B5F" d="M119.398,818.714v-4.201h0.996v4.166c0,0.523,0.119,0.914,0.356,1.172c0.238,0.258,0.61,0.387,1.117,0.387
		c0.671,0,1.161-0.184,1.472-0.551c0.31-0.367,0.465-0.967,0.465-1.799v-3.375h0.973v6.422h-0.791l-0.15-0.861h-0.055
		c-0.199,0.316-0.475,0.559-0.828,0.727c-0.353,0.168-0.755,0.252-1.207,0.252c-0.785,0-1.372-0.186-1.763-0.557
		C119.593,820.125,119.398,819.531,119.398,818.714z"/>
	<path fill="#5B5B5F" d="M126.833,820.935v-9.117h0.973v9.117H126.833z"/>
	<path fill="#5B5B5F" d="M129.388,819.166c0-1.293,1.038-1.971,3.115-2.033l1.092-0.035v-0.404c0-0.51-0.108-0.887-0.324-1.129
		c-0.217-0.244-0.563-0.365-1.038-0.365c-0.534,0-1.139,0.166-1.813,0.498l-0.303-0.746c0.316-0.17,0.663-0.303,1.04-0.398
		c0.377-0.098,0.755-0.145,1.134-0.145c0.766,0,1.332,0.17,1.701,0.51c0.368,0.34,0.553,0.885,0.553,1.635v4.383h-0.721
		l-0.193-0.904h-0.047c-0.319,0.398-0.639,0.668-0.956,0.809c-0.318,0.143-0.715,0.213-1.19,0.213c-0.64,0-1.142-0.164-1.504-0.49
		C129.57,820.234,129.388,819.769,129.388,819.166z M130.419,819.177c0,0.354,0.106,0.623,0.318,0.807
		c0.213,0.186,0.51,0.277,0.893,0.277c0.604,0,1.079-0.168,1.424-0.5c0.345-0.334,0.518-0.801,0.518-1.402v-0.582l-0.971,0.041
		c-0.772,0.027-1.329,0.148-1.67,0.361C130.59,818.394,130.419,818.726,130.419,819.177z"/>
	<path fill="#5B5B5F" d="M135.693,815.269V814.8l0.92-0.404l0.41-1.371h0.563v1.488h1.863v0.756h-1.863v3.787
		c0,0.389,0.092,0.686,0.275,0.893c0.184,0.209,0.436,0.313,0.756,0.313c0.172,0,0.338-0.014,0.498-0.039s0.287-0.051,0.381-0.078
		v0.734c-0.105,0.051-0.261,0.092-0.466,0.125c-0.205,0.031-0.39,0.049-0.554,0.049c-1.242,0-1.863-0.654-1.863-1.963v-3.82H135.693
		z"/>
	<path fill="#5B5B5F" d="M140.421,817.777c0-1.035,0.254-1.857,0.763-2.467c0.508-0.609,1.19-0.914,2.047-0.914
		c0.802,0,1.437,0.264,1.903,0.793c0.468,0.529,0.701,1.229,0.701,2.096v0.615h-4.418c0.02,0.754,0.21,1.326,0.572,1.717
		s0.872,0.586,1.529,0.586c0.689,0,1.37-0.145,2.044-0.434v0.867c-0.343,0.148-0.667,0.254-0.973,0.318s-0.675,0.098-1.106,0.098
		c-0.947,0-1.694-0.289-2.241-0.867C140.695,819.607,140.421,818.804,140.421,817.777z M141.441,817.109h3.363
		c0-0.613-0.137-1.084-0.411-1.41c-0.273-0.326-0.665-0.488-1.174-0.488c-0.517,0-0.929,0.168-1.235,0.504
		C141.676,816.05,141.495,816.515,141.441,817.109z"/>
	<path fill="#5B5B5F" d="M147.154,817.742c0-1.059,0.233-1.881,0.701-2.467c0.467-0.586,1.117-0.879,1.95-0.879
		c0.872,0,1.541,0.316,2.007,0.949h0.076l-0.041-0.463l-0.023-0.451v-2.613h0.973v9.117h-0.791l-0.129-0.861h-0.053
		c-0.45,0.652-1.123,0.979-2.019,0.979c-0.837,0-1.488-0.287-1.953-0.861C147.386,819.617,147.154,818.8,147.154,817.742z
		 M148.15,817.753c0,0.82,0.15,1.439,0.452,1.857c0.301,0.418,0.743,0.627,1.326,0.627c0.665,0,1.147-0.182,1.446-0.543
		c0.3-0.361,0.449-0.943,0.449-1.748v-0.205c0-0.91-0.151-1.561-0.455-1.949c-0.303-0.389-0.787-0.582-1.452-0.582
		c-0.571,0-1.009,0.221-1.312,0.664C148.301,816.318,148.15,816.945,148.15,817.753z"/>
	<path fill="#5B5B5F" d="M157.624,817.712c0-1.045,0.261-1.859,0.783-2.443c0.521-0.582,1.246-0.873,2.173-0.873
		c0.896,0,1.607,0.299,2.135,0.895c0.528,0.596,0.792,1.404,0.792,2.422c0,1.049-0.263,1.867-0.789,2.455
		c-0.525,0.59-1.252,0.885-2.179,0.885c-0.572,0-1.081-0.135-1.524-0.406c-0.444-0.27-0.787-0.656-1.028-1.162
		C157.745,818.98,157.624,818.388,157.624,817.712z M158.62,817.712c0,0.822,0.164,1.449,0.493,1.879
		c0.328,0.432,0.812,0.646,1.449,0.646s1.122-0.215,1.452-0.643c0.331-0.43,0.496-1.057,0.496-1.883
		c0-0.818-0.165-1.439-0.496-1.865c-0.33-0.424-0.818-0.637-1.464-0.637c-0.638,0-1.119,0.209-1.443,0.629
		C158.782,816.257,158.62,816.882,158.62,817.712z"/>
	<path fill="#5B5B5F" d="M165.23,820.935v-6.422h0.791l0.158,0.867h0.047c0.199-0.313,0.479-0.555,0.838-0.727
		s0.76-0.258,1.201-0.258c0.773,0,1.355,0.186,1.746,0.559s0.586,0.971,0.586,1.791v4.189h-0.973v-4.164
		c0-0.523-0.119-0.916-0.357-1.174s-0.611-0.387-1.119-0.387c-0.672,0-1.164,0.182-1.477,0.545
		c-0.313,0.365-0.469,0.965-0.469,1.803v3.377H165.23z"/>
	<path fill="#5B5B5F" d="M174.863,815.269V814.8l0.92-0.404l0.41-1.371h0.563v1.488h1.863v0.756h-1.863v3.787
		c0,0.389,0.092,0.686,0.275,0.893c0.184,0.209,0.436,0.313,0.756,0.313c0.172,0,0.338-0.014,0.498-0.039s0.287-0.051,0.381-0.078
		v0.734c-0.105,0.051-0.261,0.092-0.466,0.125c-0.205,0.031-0.39,0.049-0.554,0.049c-1.242,0-1.863-0.654-1.863-1.963v-3.82H174.863
		z"/>
	<path fill="#5B5B5F" d="M179.948,820.935v-9.117h0.973v2.76c0,0.332-0.016,0.607-0.047,0.826h0.059
		c0.191-0.309,0.464-0.553,0.817-0.73s0.757-0.266,1.21-0.266c0.785,0,1.374,0.186,1.767,0.559s0.589,0.967,0.589,1.779v4.189
		h-0.973v-4.154c0-0.523-0.119-0.914-0.357-1.172s-0.611-0.387-1.119-0.387c-0.676,0-1.169,0.184-1.479,0.551
		s-0.466,0.969-0.466,1.805v3.357H179.948z"/>
	<path fill="#5B5B5F" d="M186.956,817.777c0-1.035,0.254-1.857,0.763-2.467c0.508-0.609,1.19-0.914,2.047-0.914
		c0.802,0,1.437,0.264,1.903,0.793c0.468,0.529,0.701,1.229,0.701,2.096v0.615h-4.418c0.02,0.754,0.21,1.326,0.572,1.717
		s0.872,0.586,1.529,0.586c0.689,0,1.37-0.145,2.044-0.434v0.867c-0.343,0.148-0.667,0.254-0.973,0.318s-0.675,0.098-1.106,0.098
		c-0.947,0-1.694-0.289-2.241-0.867C187.23,819.607,186.956,818.804,186.956,817.777z M187.976,817.109h3.363
		c0-0.613-0.137-1.084-0.411-1.41c-0.273-0.326-0.665-0.488-1.174-0.488c-0.517,0-0.929,0.168-1.235,0.504
		C188.211,816.05,188.031,816.515,187.976,817.109z"/>
	<path fill="#5B5B5F" d="M196.132,812.369h1.09l2.262,4.283l2.279-4.283h1.078l-2.859,5.244v3.322h-0.996v-3.275L196.132,812.369z"
		/>
	<path fill="#5B5B5F" d="M202.929,817.777c0-1.035,0.254-1.857,0.763-2.467c0.508-0.609,1.19-0.914,2.047-0.914
		c0.802,0,1.437,0.264,1.903,0.793c0.468,0.529,0.701,1.229,0.701,2.096v0.615h-4.418c0.02,0.754,0.21,1.326,0.572,1.717
		s0.872,0.586,1.529,0.586c0.689,0,1.37-0.145,2.044-0.434v0.867c-0.343,0.148-0.667,0.254-0.973,0.318s-0.675,0.098-1.106,0.098
		c-0.947,0-1.694-0.289-2.241-0.867C203.202,819.607,202.929,818.804,202.929,817.777z M203.948,817.109h3.363
		c0-0.613-0.137-1.084-0.411-1.41c-0.273-0.326-0.665-0.488-1.174-0.488c-0.517,0-0.929,0.168-1.235,0.504
		C204.184,816.05,204.003,816.515,203.948,817.109z"/>
	<path fill="#5B5B5F" d="M209.538,819.166c0-1.293,1.038-1.971,3.115-2.033l1.092-0.035v-0.404c0-0.51-0.108-0.887-0.324-1.129
		c-0.217-0.244-0.563-0.365-1.038-0.365c-0.534,0-1.139,0.166-1.813,0.498l-0.303-0.746c0.316-0.17,0.663-0.303,1.04-0.398
		c0.377-0.098,0.755-0.145,1.134-0.145c0.766,0,1.332,0.17,1.701,0.51c0.368,0.34,0.553,0.885,0.553,1.635v4.383h-0.721
		l-0.193-0.904h-0.047c-0.319,0.398-0.639,0.668-0.956,0.809c-0.318,0.143-0.715,0.213-1.19,0.213c-0.64,0-1.142-0.164-1.504-0.49
		C209.72,820.234,209.538,819.769,209.538,819.166z M210.57,819.177c0,0.354,0.106,0.623,0.318,0.807
		c0.213,0.186,0.51,0.277,0.893,0.277c0.604,0,1.079-0.168,1.424-0.5c0.345-0.334,0.518-0.801,0.518-1.402v-0.582l-0.971,0.041
		c-0.772,0.027-1.329,0.148-1.67,0.361C210.74,818.394,210.57,818.726,210.57,819.177z"/>
	<path fill="#5B5B5F" d="M216.693,820.935v-6.422h0.791l0.119,1.195h0.05c0.239-0.42,0.526-0.744,0.862-0.971
		c0.336-0.229,0.705-0.342,1.107-0.342c0.285,0,0.541,0.023,0.768,0.07l-0.135,0.908c-0.266-0.059-0.5-0.088-0.703-0.088
		c-0.52,0-0.964,0.211-1.333,0.631c-0.369,0.422-0.554,0.947-0.554,1.576v3.441H216.693z"/>
	<path fill="#5B5B5F" d="M221.181,816.091c0-0.525,0.213-0.938,0.638-1.24c0.426-0.305,1.009-0.455,1.75-0.455
		c0.688,0,1.359,0.141,2.016,0.422l-0.34,0.791c-0.643-0.266-1.225-0.398-1.746-0.398c-0.462,0-0.811,0.072-1.045,0.217
		c-0.235,0.145-0.353,0.344-0.353,0.6c0,0.172,0.044,0.318,0.132,0.439s0.23,0.238,0.426,0.348c0.196,0.109,0.571,0.268,1.128,0.475
		c0.761,0.279,1.273,0.559,1.536,0.84c0.263,0.283,0.394,0.637,0.394,1.063c0,0.596-0.222,1.055-0.664,1.377
		c-0.443,0.322-1.064,0.484-1.865,0.484c-0.85,0-1.513-0.133-1.988-0.398v-0.898c0.308,0.156,0.639,0.279,0.991,0.371
		c0.354,0.09,0.693,0.135,1.021,0.135c0.51,0,0.9-0.082,1.175-0.244s0.411-0.41,0.411-0.742c0-0.252-0.108-0.465-0.326-0.645
		c-0.217-0.178-0.641-0.389-1.271-0.631c-0.599-0.223-1.023-0.418-1.274-0.584c-0.25-0.166-0.437-0.355-0.56-0.566
		C221.242,816.636,221.181,816.384,221.181,816.091z"/>
	<path fill="#5B5B5F" d="M230.075,817.712c0-1.045,0.261-1.859,0.783-2.443c0.521-0.582,1.246-0.873,2.173-0.873
		c0.896,0,1.607,0.299,2.135,0.895c0.528,0.596,0.792,1.404,0.792,2.422c0,1.049-0.263,1.867-0.789,2.455
		c-0.525,0.59-1.252,0.885-2.179,0.885c-0.572,0-1.081-0.135-1.524-0.406c-0.444-0.27-0.787-0.656-1.028-1.162
		C230.197,818.98,230.075,818.388,230.075,817.712z M231.072,817.712c0,0.822,0.164,1.449,0.493,1.879
		c0.328,0.432,0.812,0.646,1.449,0.646s1.122-0.215,1.452-0.643c0.331-0.43,0.496-1.057,0.496-1.883
		c0-0.818-0.165-1.439-0.496-1.865c-0.33-0.424-0.818-0.637-1.464-0.637c-0.638,0-1.119,0.209-1.443,0.629
		C231.234,816.257,231.072,816.882,231.072,817.712z"/>
	<path fill="#5B5B5F" d="M236.82,815.269v-0.439l1.148-0.352v-0.355c0-1.572,0.689-2.357,2.068-2.357
		c0.34,0,0.738,0.066,1.195,0.201l-0.252,0.771c-0.375-0.121-0.695-0.182-0.961-0.182c-0.367,0-0.639,0.121-0.814,0.365
		s-0.264,0.637-0.264,1.176v0.416h1.635v0.756h-1.635v5.666h-0.973v-5.666H236.82z"/>
	<path fill="#5B5B5F" d="M244.865,820.935v-9.117h0.973v9.117H244.865z"/>
	<path fill="#5B5B5F" d="M247.818,812.773c0-0.223,0.051-0.387,0.151-0.49s0.227-0.154,0.378-0.154c0.169,0,0.313,0.053,0.436,0.158
		s0.184,0.268,0.184,0.486s-0.062,0.381-0.184,0.488s-0.267,0.162-0.436,0.162c-0.151,0-0.277-0.055-0.378-0.162
		S247.818,812.992,247.818,812.773z M247.9,820.935v-6.422h0.891v6.422H247.9z"/>
	<path fill="#5B5B5F" d="M250.073,815.269v-0.439l1.148-0.352v-0.355c0-1.572,0.689-2.357,2.068-2.357
		c0.34,0,0.738,0.066,1.195,0.201l-0.252,0.771c-0.375-0.121-0.695-0.182-0.961-0.182c-0.367,0-0.639,0.121-0.814,0.365
		s-0.264,0.637-0.264,1.176v0.416h1.635v0.756h-1.635v5.666h-0.973v-5.666H250.073z"/>
	<path fill="#5B5B5F" d="M254.644,817.777c0-1.035,0.254-1.857,0.763-2.467c0.508-0.609,1.19-0.914,2.047-0.914
		c0.802,0,1.437,0.264,1.903,0.793c0.468,0.529,0.701,1.229,0.701,2.096v0.615h-4.418c0.02,0.754,0.21,1.326,0.572,1.717
		s0.872,0.586,1.529,0.586c0.689,0,1.37-0.145,2.044-0.434v0.867c-0.343,0.148-0.667,0.254-0.973,0.318s-0.675,0.098-1.106,0.098
		c-0.947,0-1.694-0.289-2.241-0.867C254.917,819.607,254.644,818.804,254.644,817.777z M255.663,817.109h3.363
		c0-0.613-0.137-1.084-0.411-1.41c-0.273-0.326-0.665-0.488-1.174-0.488c-0.517,0-0.929,0.168-1.235,0.504
		C255.899,816.05,255.718,816.515,255.663,817.109z"/>
	<path fill="#5B5B5F" d="M27.915,835.333v-9.117h0.973v9.117H27.915z"/>
	<path fill="#5B5B5F" d="M30.593,832.111c0-1.045,0.261-1.859,0.783-2.441c0.521-0.584,1.246-0.875,2.173-0.875
		c0.896,0,1.607,0.299,2.135,0.895c0.528,0.598,0.792,1.404,0.792,2.422c0,1.049-0.263,1.867-0.789,2.457
		c-0.525,0.588-1.252,0.883-2.179,0.883c-0.572,0-1.081-0.135-1.524-0.404c-0.444-0.27-0.787-0.658-1.028-1.162
		C30.714,833.378,30.593,832.789,30.593,832.111z M31.589,832.111c0,0.822,0.164,1.449,0.493,1.879
		c0.328,0.432,0.812,0.646,1.449,0.646s1.122-0.213,1.452-0.643c0.331-0.43,0.496-1.057,0.496-1.883
		c0-0.818-0.165-1.439-0.496-1.865c-0.33-0.424-0.818-0.637-1.464-0.637c-0.638,0-1.119,0.209-1.443,0.629
		C31.751,830.656,31.589,831.281,31.589,832.111z"/>
	<path fill="#5B5B5F" d="M37.788,830.49c0-0.523,0.213-0.938,0.638-1.24c0.426-0.303,1.009-0.455,1.75-0.455
		c0.688,0,1.359,0.141,2.016,0.422l-0.34,0.793c-0.643-0.268-1.225-0.4-1.746-0.4c-0.462,0-0.811,0.072-1.045,0.219
		c-0.235,0.145-0.353,0.344-0.353,0.598c0,0.172,0.044,0.32,0.132,0.441s0.23,0.236,0.426,0.346c0.196,0.109,0.571,0.27,1.128,0.477
		c0.761,0.277,1.273,0.557,1.536,0.84c0.263,0.281,0.394,0.635,0.394,1.063c0,0.594-0.222,1.053-0.664,1.377
		c-0.443,0.322-1.064,0.482-1.865,0.482c-0.85,0-1.513-0.133-1.988-0.398v-0.896c0.308,0.156,0.639,0.279,0.991,0.369
		c0.354,0.09,0.693,0.135,1.021,0.135c0.51,0,0.9-0.08,1.175-0.244c0.274-0.162,0.411-0.408,0.411-0.742
		c0-0.25-0.108-0.465-0.326-0.643c-0.217-0.178-0.641-0.389-1.271-0.631c-0.599-0.225-1.023-0.418-1.274-0.586
		c-0.25-0.166-0.437-0.355-0.56-0.566C37.85,831.037,37.788,830.785,37.788,830.49z"/>
	<path fill="#5B5B5F" d="M43.073,829.667v-0.469l0.92-0.404l0.41-1.371h0.563v1.488h1.863v0.756h-1.863v3.789
		c0,0.387,0.092,0.686,0.275,0.893s0.436,0.311,0.756,0.311c0.172,0,0.338-0.012,0.498-0.037s0.287-0.053,0.381-0.08v0.736
		c-0.105,0.049-0.261,0.09-0.466,0.123s-0.39,0.049-0.554,0.049c-1.242,0-1.863-0.654-1.863-1.963v-3.82H43.073z"/>
	<path fill="#5B5B5F" d="M50.726,832.046c0-1.035,0.153-2.004,0.459-2.906c0.307-0.902,0.745-1.693,1.316-2.373h0.949
		c-0.563,0.754-0.985,1.582-1.269,2.484s-0.425,1.83-0.425,2.783c0,0.938,0.145,1.854,0.434,2.748s0.705,1.711,1.248,2.449h-0.938
		c-0.575-0.664-1.015-1.439-1.319-2.326C50.878,834.019,50.726,833.066,50.726,832.046z"/>
	<path fill="#5B5B5F" d="M53.796,826.767h1.09l2.262,4.283l2.279-4.283h1.078l-2.859,5.244v3.322H56.65v-3.275L53.796,826.767z"/>
	<path fill="#5B5B5F" d="M61.695,835.333v-8.566h0.996v7.676h3.779v0.891H61.695z"/>
	<path fill="#5B5B5F" d="M67.923,835.333v-8.566h0.996v7.676h3.779v0.891H67.923z"/>
	<path fill="#5B5B5F" d="M73.331,826.767h0.949c0.575,0.684,1.015,1.479,1.319,2.383c0.304,0.904,0.456,1.869,0.456,2.896
		s-0.153,1.984-0.459,2.871c-0.307,0.887-0.745,1.658-1.316,2.314h-0.938c0.543-0.734,0.959-1.549,1.248-2.445
		s0.434-1.814,0.434-2.752c0-0.953-0.142-1.881-0.425-2.783S73.894,827.521,73.331,826.767z"/>
	<path fill="#5B5B5F" d="M80.193,833.566c0-1.295,1.038-1.973,3.115-2.035l1.092-0.035v-0.402c0-0.512-0.108-0.887-0.324-1.131
		c-0.217-0.242-0.563-0.365-1.038-0.365c-0.534,0-1.139,0.166-1.813,0.498l-0.303-0.746c0.316-0.17,0.663-0.303,1.04-0.398
		s0.755-0.145,1.134-0.145c0.766,0,1.332,0.17,1.701,0.51c0.368,0.34,0.553,0.885,0.553,1.635v4.383h-0.721l-0.193-0.902h-0.047
		c-0.319,0.398-0.639,0.668-0.956,0.809c-0.318,0.141-0.715,0.211-1.19,0.211c-0.64,0-1.142-0.162-1.504-0.49
		C80.374,834.634,80.193,834.169,80.193,833.566z M81.224,833.578c0,0.352,0.106,0.621,0.318,0.807
		c0.213,0.184,0.51,0.275,0.893,0.275c0.604,0,1.079-0.166,1.424-0.5s0.518-0.801,0.518-1.4v-0.584l-0.971,0.041
		c-0.772,0.027-1.329,0.148-1.67,0.363C81.395,832.792,81.224,833.125,81.224,833.578z"/>
	<path fill="#5B5B5F" d="M87.347,835.333v-6.422h0.791l0.158,0.867h0.047c0.199-0.313,0.479-0.555,0.838-0.727
		s0.76-0.258,1.201-0.258c0.773,0,1.355,0.188,1.746,0.561s0.586,0.969,0.586,1.789v4.189h-0.973v-4.162
		c0-0.525-0.119-0.916-0.357-1.174c-0.238-0.26-0.611-0.389-1.119-0.389c-0.672,0-1.164,0.182-1.477,0.547
		c-0.313,0.363-0.469,0.965-0.469,1.803v3.375H87.347z"/>
	<path fill="#5B5B5F" d="M94.355,832.14c0-1.059,0.233-1.881,0.701-2.467c0.467-0.586,1.117-0.879,1.95-0.879
		c0.872,0,1.541,0.316,2.007,0.949h0.076l-0.041-0.463l-0.023-0.451v-2.613h0.973v9.117h-0.791l-0.129-0.861h-0.053
		c-0.45,0.652-1.123,0.979-2.019,0.979c-0.837,0-1.488-0.287-1.953-0.861C94.587,834.015,94.355,833.199,94.355,832.14z
		 M95.351,832.152c0,0.82,0.15,1.439,0.452,1.857c0.301,0.418,0.743,0.627,1.326,0.627c0.665,0,1.147-0.18,1.446-0.541
		c0.3-0.361,0.449-0.945,0.449-1.75v-0.205c0-0.91-0.151-1.559-0.455-1.947c-0.303-0.389-0.787-0.584-1.452-0.584
		c-0.571,0-1.009,0.223-1.312,0.666C95.502,830.718,95.351,831.343,95.351,832.152z"/>
	<path fill="#5B5B5F" d="M104.152,826.767h1.09l2.262,4.283l2.279-4.283h1.078l-2.859,5.244v3.322h-0.996v-3.275L104.152,826.767z"
		/>
	<path fill="#5B5B5F" d="M110.948,832.175c0-1.035,0.254-1.857,0.763-2.467c0.508-0.609,1.19-0.914,2.047-0.914
		c0.802,0,1.437,0.266,1.903,0.795c0.468,0.529,0.701,1.227,0.701,2.094v0.615h-4.418c0.02,0.754,0.21,1.326,0.572,1.717
		s0.872,0.586,1.529,0.586c0.689,0,1.37-0.145,2.044-0.434v0.867c-0.343,0.148-0.667,0.256-0.973,0.32s-0.675,0.096-1.106,0.096
		c-0.947,0-1.694-0.289-2.241-0.867C111.222,834.005,110.948,833.203,110.948,832.175z M111.968,831.507h3.363
		c0-0.613-0.137-1.082-0.411-1.408c-0.273-0.326-0.665-0.49-1.174-0.49c-0.517,0-0.929,0.168-1.235,0.504
		C112.203,830.449,112.023,830.914,111.968,831.507z"/>
	<path fill="#5B5B5F" d="M117.558,833.566c0-1.295,1.038-1.973,3.115-2.035l1.092-0.035v-0.402c0-0.512-0.108-0.887-0.324-1.131
		c-0.217-0.242-0.563-0.365-1.038-0.365c-0.534,0-1.139,0.166-1.813,0.498l-0.303-0.746c0.316-0.17,0.663-0.303,1.04-0.398
		s0.755-0.145,1.134-0.145c0.766,0,1.332,0.17,1.701,0.51c0.368,0.34,0.553,0.885,0.553,1.635v4.383h-0.721l-0.193-0.902h-0.047
		c-0.319,0.398-0.639,0.668-0.956,0.809c-0.318,0.141-0.715,0.211-1.19,0.211c-0.64,0-1.142-0.162-1.504-0.49
		C117.74,834.634,117.558,834.169,117.558,833.566z M118.589,833.578c0,0.352,0.106,0.621,0.318,0.807
		c0.213,0.184,0.51,0.275,0.893,0.275c0.604,0,1.079-0.166,1.424-0.5s0.518-0.801,0.518-1.4v-0.584l-0.971,0.041
		c-0.772,0.027-1.329,0.148-1.67,0.363C118.76,832.792,118.589,833.125,118.589,833.578z"/>
	<path fill="#5B5B5F" d="M124.712,835.333v-6.422h0.791l0.119,1.195h0.05c0.239-0.42,0.526-0.744,0.862-0.971
		s0.705-0.342,1.107-0.342c0.285,0,0.541,0.023,0.768,0.07l-0.135,0.908c-0.266-0.059-0.5-0.088-0.703-0.088
		c-0.52,0-0.964,0.211-1.333,0.633s-0.554,0.945-0.554,1.574v3.441H124.712z"/>
	<path fill="#5B5B5F" d="M129.2,830.49c0-0.523,0.213-0.938,0.638-1.24c0.426-0.303,1.009-0.455,1.75-0.455
		c0.688,0,1.359,0.141,2.016,0.422l-0.34,0.793c-0.643-0.268-1.225-0.4-1.746-0.4c-0.462,0-0.811,0.072-1.045,0.219
		c-0.235,0.145-0.353,0.344-0.353,0.598c0,0.172,0.044,0.32,0.132,0.441s0.23,0.236,0.426,0.346c0.196,0.109,0.571,0.27,1.128,0.477
		c0.761,0.277,1.273,0.557,1.536,0.84c0.263,0.281,0.394,0.635,0.394,1.063c0,0.594-0.222,1.053-0.664,1.377
		c-0.443,0.322-1.064,0.482-1.865,0.482c-0.85,0-1.513-0.133-1.988-0.398v-0.896c0.308,0.156,0.639,0.279,0.991,0.369
		c0.354,0.09,0.693,0.135,1.021,0.135c0.51,0,0.9-0.08,1.175-0.244c0.274-0.162,0.411-0.408,0.411-0.742
		c0-0.25-0.108-0.465-0.326-0.643c-0.217-0.178-0.641-0.389-1.271-0.631c-0.599-0.225-1.023-0.418-1.274-0.586
		c-0.25-0.166-0.437-0.355-0.56-0.566C129.262,831.037,129.2,830.785,129.2,830.49z"/>
	<path fill="#5B5B5F" d="M138.599,835.333v-8.566h0.996v7.676h3.779v0.891H138.599z"/>
	<path fill="#5B5B5F" d="M144.599,827.171c0-0.223,0.051-0.385,0.151-0.488s0.227-0.156,0.378-0.156
		c0.169,0,0.313,0.053,0.436,0.158s0.184,0.268,0.184,0.486s-0.062,0.383-0.184,0.49s-0.267,0.16-0.436,0.16
		c-0.151,0-0.277-0.053-0.378-0.16S144.599,827.39,144.599,827.171z M144.681,835.333v-6.422h0.891v6.422H144.681z"/>
	<path fill="#5B5B5F" d="M146.685,828.912h1.043l1.383,3.809c0.313,0.891,0.496,1.469,0.551,1.734h0.047
		c0.043-0.207,0.179-0.635,0.407-1.285s0.741-2.07,1.538-4.258h1.043l-2.438,6.422h-1.137L146.685,828.912z"/>
	<path fill="#5B5B5F" d="M153.37,832.175c0-1.035,0.254-1.857,0.763-2.467c0.508-0.609,1.19-0.914,2.047-0.914
		c0.802,0,1.437,0.266,1.903,0.795c0.468,0.529,0.701,1.227,0.701,2.094v0.615h-4.418c0.02,0.754,0.21,1.326,0.572,1.717
		s0.872,0.586,1.529,0.586c0.689,0,1.37-0.145,2.044-0.434v0.867c-0.343,0.148-0.667,0.256-0.973,0.32s-0.675,0.096-1.106,0.096
		c-0.947,0-1.694-0.289-2.241-0.867C153.644,834.005,153.37,833.203,153.37,832.175z M154.39,831.507h3.363
		c0-0.613-0.137-1.082-0.411-1.408c-0.273-0.326-0.665-0.49-1.174-0.49c-0.517,0-0.929,0.168-1.235,0.504
		C154.625,830.449,154.445,830.914,154.39,831.507z"/>
	<path fill="#5B5B5F" d="M160.103,832.14c0-1.059,0.233-1.881,0.701-2.467c0.467-0.586,1.117-0.879,1.95-0.879
		c0.872,0,1.541,0.316,2.007,0.949h0.076l-0.041-0.463l-0.023-0.451v-2.613h0.973v9.117h-0.791l-0.129-0.861h-0.053
		c-0.45,0.652-1.123,0.979-2.019,0.979c-0.837,0-1.488-0.287-1.953-0.861C160.335,834.015,160.103,833.199,160.103,832.14z
		 M161.099,832.152c0,0.82,0.15,1.439,0.452,1.857c0.301,0.418,0.743,0.627,1.326,0.627c0.665,0,1.147-0.18,1.446-0.541
		c0.3-0.361,0.449-0.945,0.449-1.75v-0.205c0-0.91-0.151-1.559-0.455-1.947c-0.303-0.389-0.787-0.584-1.452-0.584
		c-0.571,0-1.009,0.223-1.312,0.666C161.25,830.718,161.099,831.343,161.099,832.152z"/>
	<path fill="#5B5B5F" d="M170.034,828.912h1.031c0.414,1.611,0.729,2.84,0.945,3.684s0.334,1.412,0.353,1.707h0.027
		c0.025-0.234,0.088-0.527,0.188-0.879s0.181-0.633,0.241-0.844l1.195-3.668h1.071l1.166,3.686c0.222,0.672,0.372,1.236,0.452,1.693
		h0.047c0.017-0.139,0.062-0.354,0.136-0.645c0.074-0.289,0.479-1.867,1.215-4.734h0.996l-1.773,6.422h-1.153l-1.178-3.768
		c-0.073-0.23-0.212-0.754-0.415-1.57h-0.047c-0.156,0.684-0.293,1.211-0.41,1.582l-1.211,3.756h-1.126L170.034,828.912z"/>
	<path fill="#5B5B5F" d="M180.183,827.171c0-0.223,0.051-0.385,0.151-0.488s0.227-0.156,0.378-0.156
		c0.169,0,0.313,0.053,0.436,0.158s0.184,0.268,0.184,0.486s-0.062,0.383-0.184,0.49s-0.267,0.16-0.436,0.16
		c-0.151,0-0.277-0.053-0.378-0.16S180.183,827.39,180.183,827.171z M180.265,835.333v-6.422h0.891v6.422H180.265z"/>
	<path fill="#5B5B5F" d="M182.45,829.667v-0.469l0.92-0.404l0.41-1.371h0.563v1.488h1.863v0.756h-1.863v3.789
		c0,0.387,0.092,0.686,0.275,0.893s0.436,0.311,0.756,0.311c0.172,0,0.338-0.012,0.498-0.037s0.287-0.053,0.381-0.08v0.736
		c-0.105,0.049-0.261,0.09-0.466,0.123s-0.39,0.049-0.554,0.049c-1.242,0-1.863-0.654-1.863-1.963v-3.82H182.45z"/>
	<path fill="#5B5B5F" d="M187.536,835.333v-9.117h0.973v2.76c0,0.332-0.016,0.607-0.047,0.826h0.059
		c0.191-0.309,0.464-0.551,0.817-0.729s0.757-0.268,1.21-0.268c0.785,0,1.374,0.188,1.767,0.561s0.589,0.965,0.589,1.777v4.189
		h-0.973v-4.154c0-0.523-0.119-0.914-0.357-1.172s-0.611-0.387-1.119-0.387c-0.676,0-1.169,0.184-1.479,0.551
		s-0.466,0.969-0.466,1.805v3.357H187.536z"/>
	<path fill="#5B5B5F" d="M197.661,832.14c0-1.059,0.233-1.881,0.701-2.467c0.467-0.586,1.117-0.879,1.95-0.879
		c0.872,0,1.541,0.316,2.007,0.949h0.076l-0.041-0.463l-0.023-0.451v-2.613h0.973v9.117h-0.791l-0.129-0.861h-0.053
		c-0.45,0.652-1.123,0.979-2.019,0.979c-0.837,0-1.488-0.287-1.953-0.861C197.894,834.015,197.661,833.199,197.661,832.14z
		 M198.657,832.152c0,0.82,0.15,1.439,0.452,1.857c0.301,0.418,0.743,0.627,1.326,0.627c0.665,0,1.147-0.18,1.446-0.541
		c0.3-0.361,0.449-0.945,0.449-1.75v-0.205c0-0.91-0.151-1.559-0.455-1.947c-0.303-0.389-0.787-0.584-1.452-0.584
		c-0.571,0-1.009,0.223-1.312,0.666C198.809,830.718,198.657,831.343,198.657,832.152z"/>
	<path fill="#5B5B5F" d="M205.29,827.171c0-0.223,0.051-0.385,0.151-0.488s0.227-0.156,0.378-0.156c0.169,0,0.313,0.053,0.436,0.158
		s0.184,0.268,0.184,0.486s-0.062,0.383-0.184,0.49s-0.267,0.16-0.436,0.16c-0.151,0-0.277-0.053-0.378-0.16
		S205.29,827.39,205.29,827.171z M205.372,835.333v-6.422h0.891v6.422H205.372z"/>
	<path fill="#5B5B5F" d="M207.997,830.49c0-0.523,0.213-0.938,0.638-1.24c0.426-0.303,1.009-0.455,1.75-0.455
		c0.688,0,1.359,0.141,2.016,0.422l-0.34,0.793c-0.643-0.268-1.225-0.4-1.746-0.4c-0.462,0-0.811,0.072-1.045,0.219
		c-0.235,0.145-0.353,0.344-0.353,0.598c0,0.172,0.044,0.32,0.132,0.441s0.23,0.236,0.426,0.346c0.196,0.109,0.571,0.27,1.128,0.477
		c0.761,0.277,1.273,0.557,1.536,0.84c0.263,0.281,0.394,0.635,0.394,1.063c0,0.594-0.222,1.053-0.664,1.377
		c-0.443,0.322-1.064,0.482-1.865,0.482c-0.85,0-1.513-0.133-1.988-0.398v-0.896c0.308,0.156,0.639,0.279,0.991,0.369
		c0.354,0.09,0.693,0.135,1.021,0.135c0.51,0,0.9-0.08,1.175-0.244c0.274-0.162,0.411-0.408,0.411-0.742
		c0-0.25-0.108-0.465-0.326-0.643c-0.217-0.178-0.641-0.389-1.271-0.631c-0.599-0.225-1.023-0.418-1.274-0.586
		c-0.25-0.166-0.437-0.355-0.56-0.566C208.059,831.037,207.997,830.785,207.997,830.49z"/>
	<path fill="#5B5B5F" d="M213.652,833.566c0-1.295,1.038-1.973,3.115-2.035l1.092-0.035v-0.402c0-0.512-0.108-0.887-0.324-1.131
		c-0.217-0.242-0.563-0.365-1.038-0.365c-0.534,0-1.139,0.166-1.813,0.498l-0.303-0.746c0.316-0.17,0.663-0.303,1.04-0.398
		s0.755-0.145,1.134-0.145c0.766,0,1.332,0.17,1.701,0.51c0.368,0.34,0.553,0.885,0.553,1.635v4.383h-0.721l-0.193-0.902h-0.047
		c-0.319,0.398-0.639,0.668-0.956,0.809c-0.318,0.141-0.715,0.211-1.19,0.211c-0.64,0-1.142-0.162-1.504-0.49
		C213.833,834.634,213.652,834.169,213.652,833.566z M214.683,833.578c0,0.352,0.106,0.621,0.318,0.807
		c0.213,0.184,0.51,0.275,0.893,0.275c0.604,0,1.079-0.166,1.424-0.5s0.518-0.801,0.518-1.4v-0.584l-0.971,0.041
		c-0.772,0.027-1.329,0.148-1.67,0.363C214.854,832.792,214.683,833.125,214.683,833.578z"/>
	<path fill="#5B5B5F" d="M220.806,835.333v-9.117h0.973v2.215c0,0.496-0.016,0.941-0.047,1.336h0.047
		c0.453-0.641,1.125-0.961,2.016-0.961c0.84,0,1.492,0.289,1.957,0.865s0.697,1.391,0.697,2.445s-0.234,1.875-0.703,2.459
		s-1.119,0.875-1.951,0.875c-0.418,0-0.8-0.076-1.146-0.23s-0.636-0.393-0.87-0.713h-0.07l-0.205,0.826H220.806z M221.779,832.117
		c0,0.902,0.15,1.549,0.451,1.938s0.783,0.582,1.447,0.582c0.598,0,1.043-0.217,1.336-0.652s0.439-1.063,0.439-1.879
		c0-0.836-0.146-1.459-0.439-1.869s-0.746-0.615-1.359-0.615c-0.664,0-1.143,0.191-1.436,0.572S221.779,831.214,221.779,832.117z"/>
	<path fill="#5B5B5F" d="M228.077,827.171c0-0.223,0.051-0.385,0.151-0.488s0.227-0.156,0.378-0.156
		c0.169,0,0.313,0.053,0.436,0.158s0.184,0.268,0.184,0.486s-0.062,0.383-0.184,0.49s-0.267,0.16-0.436,0.16
		c-0.151,0-0.277-0.053-0.378-0.16S228.077,827.39,228.077,827.171z M228.159,835.333v-6.422h0.891v6.422H228.159z"/>
	<path fill="#5B5B5F" d="M231.195,835.333v-9.117h0.973v9.117H231.195z"/>
	<path fill="#5B5B5F" d="M234.148,827.171c0-0.223,0.051-0.385,0.151-0.488s0.227-0.156,0.378-0.156
		c0.169,0,0.313,0.053,0.436,0.158s0.184,0.268,0.184,0.486s-0.062,0.383-0.184,0.49s-0.267,0.16-0.436,0.16
		c-0.151,0-0.277-0.053-0.378-0.16S234.148,827.39,234.148,827.171z M234.23,835.333v-6.422h0.891v6.422H234.23z"/>
	<path fill="#5B5B5F" d="M236.415,829.667v-0.469l0.92-0.404l0.41-1.371h0.563v1.488h1.863v0.756h-1.863v3.789
		c0,0.387,0.092,0.686,0.275,0.893s0.436,0.311,0.756,0.311c0.172,0,0.338-0.012,0.498-0.037s0.287-0.053,0.381-0.08v0.736
		c-0.105,0.049-0.261,0.09-0.466,0.123s-0.39,0.049-0.554,0.049c-1.242,0-1.863-0.654-1.863-1.963v-3.82H236.415z"/>
	<path fill="#5B5B5F" d="M240.482,828.912h1.043l1.406,3.66c0.309,0.836,0.5,1.438,0.574,1.809h0.047
		c0.051-0.199,0.157-0.539,0.319-1.021s0.692-1.965,1.591-4.447h1.043l-2.76,7.313c-0.273,0.723-0.593,1.236-0.958,1.539
		s-0.813,0.453-1.345,0.453c-0.297,0-0.59-0.033-0.879-0.1v-0.785c0.215,0.047,0.455,0.07,0.721,0.07
		c0.668,0,1.145-0.375,1.43-1.123l0.357-0.914L240.482,828.912z"/>
	<path fill="#5B5B5F" d="M250.115,832.046c0-1.035,0.153-2.004,0.459-2.906c0.307-0.902,0.745-1.693,1.316-2.373h0.949
		c-0.563,0.754-0.985,1.582-1.269,2.484s-0.425,1.83-0.425,2.783c0,0.938,0.145,1.854,0.434,2.748s0.705,1.711,1.248,2.449h-0.938
		c-0.575-0.664-1.015-1.439-1.319-2.326C250.267,834.019,250.115,833.066,250.115,832.046z"/>
	<path fill="#5B5B5F" d="M253.185,826.767h1.09l2.262,4.283l2.279-4.283h1.078l-2.859,5.244v3.322h-0.996v-3.275L253.185,826.767z"
		/>
	<path fill="#5B5B5F" d="M261.083,835.333v-8.566h0.996v7.676h3.779v0.891H261.083z"/>
	<path fill="#5B5B5F" d="M267.312,835.333v-8.566h2.625c1.332,0,2.367,0.369,3.105,1.107s1.107,1.77,1.107,3.094
		c0,1.414-0.384,2.496-1.151,3.244s-1.872,1.121-3.313,1.121H267.312z M268.308,834.472h1.213c1.188,0,2.08-0.291,2.678-0.875
		s0.896-1.449,0.896-2.594c0-1.117-0.28-1.959-0.841-2.525s-1.394-0.85-2.499-0.85h-1.447V834.472z"/>
	<path fill="#5B5B5F" d="M275.24,826.767h0.949c0.575,0.684,1.015,1.479,1.319,2.383c0.304,0.904,0.456,1.869,0.456,2.896
		s-0.153,1.984-0.459,2.871c-0.307,0.887-0.745,1.658-1.316,2.314h-0.938c0.543-0.734,0.959-1.549,1.248-2.445
		s0.434-1.814,0.434-2.752c0-0.953-0.142-1.881-0.425-2.783S275.802,827.521,275.24,826.767z"/>
</g>
</svg>
