<?xml version="1.0" encoding="utf-8"?>
<!-- Generator: Adobe Illustrator 16.0.0, SVG Export Plug-In . SVG Version: 6.00 Build 0)  -->
<!DOCTYPE svg PUBLIC "-//W3C//DTD SVG 1.1//EN" "http://www.w3.org/Graphics/SVG/1.1/DTD/svg11.dtd">
<svg version="1.1" id="Capa_1" xmlns="http://www.w3.org/2000/svg" xmlns:xlink="http://www.w3.org/1999/xlink" x="0px" y="0px"
	 width="291.969px" height="850.394px" viewBox="0 0 291.969 850.394" enable-background="new 0 0 291.969 850.394"
	 xml:space="preserve">
<g>
	<rect x="125.488" y="595.654" fill="#449FA2" width="100.499" height="111.068"/>
	<rect x="125.488" y="458.742" fill="#F2C466" width="100.499" height="136.912"/>
</g>
<g>
	<rect x="125.494" y="205.267" fill="#449FA2" width="100.488" height="133.312"/>
	<rect x="125.494" y="90.547" fill="#F2C466" width="100.488" height="114.719"/>
</g>
<g>
	<path fill="#666565" d="M68.692,44.349c0-1.549,0.313-2.906,0.938-4.071s1.518-2.055,2.686-2.67
		c1.168-0.615,2.537-0.922,4.106-0.922c1.59,0,3.064,0.292,4.438,0.876l-0.672,1.529c-1.346-0.571-2.641-0.856-3.884-0.856
		c-1.813,0-3.229,0.54-4.249,1.62c-1.019,1.08-1.528,2.578-1.528,4.494c0,2.018,0.491,3.548,1.479,4.591
		c0.979,1.043,2.423,1.564,4.326,1.564c1.027,0,2.042-0.12,3.021-0.358v-4.604h-3.332v-1.549h5.063v7.255
		c-0.788,0.248-1.59,0.436-2.405,0.563c-0.814,0.127-1.76,0.191-2.833,0.191c-2.255,0-4.012-0.67-5.268-2.012
		C69.32,48.647,68.692,46.768,68.692,44.349z"/>
	<path fill="#666565" d="M84.406,51.798V35.942h1.69v15.856H84.406z"/>
	<path fill="#666565" d="M89.063,46.194c0-1.817,0.454-3.233,1.36-4.247c0.908-1.014,2.167-1.521,3.78-1.521
		c1.558,0,2.795,0.519,3.713,1.556c0.917,1.038,1.376,2.441,1.376,4.211c0,1.824-0.457,3.248-1.372,4.272
		c-0.915,1.024-2.178,1.536-3.79,1.536c-0.996,0-1.88-0.234-2.651-0.704c-0.771-0.47-1.368-1.144-1.788-2.021
		S89.063,47.371,89.063,46.194z M90.795,46.194c0,1.43,0.286,2.52,0.854,3.269c0.572,0.749,1.412,1.124,2.521,1.124
		c1.104,0,1.951-0.373,2.521-1.119c0.574-0.746,0.861-1.837,0.861-3.273c0-1.423-0.288-2.504-0.861-3.243
		c-0.569-0.739-1.425-1.108-2.547-1.108c-1.104,0-1.94,0.364-2.51,1.093C91.077,43.664,90.795,44.75,90.795,46.194z"/>
	<path fill="#666565" d="M102.29,51.798V35.942h1.688v3.852c0,0.863-0.021,1.637-0.082,2.323h0.082
		c0.788-1.114,1.957-1.671,3.506-1.671c1.46,0,2.601,0.501,3.402,1.503c0.813,1.002,1.213,2.42,1.213,4.254
		s-0.407,3.259-1.223,4.274C110.062,51.493,108.931,52,107.48,52c-0.728,0-1.392-0.134-1.986-0.402
		c-0.604-0.268-1.106-0.681-1.52-1.238h-0.121l-0.354,1.437L102.29,51.798L102.29,51.798z M103.981,46.204
		c0,1.569,0.268,2.692,0.785,3.368c0.522,0.676,1.361,1.014,2.521,1.014c1.04,0,1.813-0.379,2.317-1.136
		c0.516-0.758,0.771-1.846,0.771-3.266c0-1.454-0.255-2.538-0.771-3.251c-0.51-0.713-1.297-1.07-2.358-1.07
		c-1.155,0-1.987,0.331-2.497,0.994C104.236,43.518,103.981,44.635,103.981,46.204z"/>
	<path fill="#666565" d="M114.243,48.722c0-2.25,1.806-3.429,5.418-3.537l1.896-0.062v-0.702c0-0.887-0.188-1.542-0.563-1.965
		s-0.979-0.634-1.812-0.634c-0.93,0-1.979,0.289-3.147,0.866l-0.526-1.298c0.551-0.294,1.153-0.525,1.81-0.692
		c0.657-0.167,1.313-0.251,1.978-0.251c1.33,0,2.313,0.295,2.957,0.887c0.641,0.591,0.962,1.539,0.962,2.843v7.622h-1.253
		l-0.336-1.571h-0.082c-0.562,0.693-1.11,1.162-1.663,1.407c-0.552,0.246-1.242,0.368-2.07,0.368c-1.109,0-1.979-0.284-2.615-0.853
		C114.558,50.58,114.243,49.771,114.243,48.722z M116.036,48.742c0,0.615,0.185,1.082,0.554,1.403
		c0.37,0.321,0.888,0.481,1.552,0.481c1.051,0,1.876-0.29,2.479-0.87c0.6-0.581,0.896-1.393,0.896-2.437v-1.014l-1.688,0.071
		c-1.349,0.048-2.313,0.258-2.904,0.63C116.333,47.378,116.036,47.957,116.036,48.742z"/>
	<path fill="#666565" d="M126.685,51.798V35.942h1.69v15.856H126.685z"/>
	<path fill="#666565" d="M136.762,46.305c0-1.8,0.442-3.23,1.326-4.29c0.885-1.06,2.071-1.589,3.563-1.589
		c1.396,0,2.498,0.46,3.313,1.38c0.813,0.921,1.222,2.135,1.222,3.643v1.07h-7.687c0.033,1.311,0.359,2.306,0.995,2.985
		c0.629,0.68,1.516,1.019,2.65,1.019c1.199,0,2.393-0.251,3.563-0.754v1.508c-0.604,0.258-1.16,0.443-1.689,0.555
		c-0.535,0.112-1.178,0.168-1.93,0.168c-1.646,0-2.944-0.502-3.897-1.508C137.239,49.489,136.762,48.093,136.762,46.305z
		 M138.536,45.144h5.849c0-1.066-0.236-1.883-0.714-2.451c-0.479-0.567-1.157-0.851-2.042-0.851c-0.896,0-1.615,0.292-2.148,0.876
		C138.945,43.303,138.631,44.111,138.536,45.144z"/>
	<path fill="#666565" d="M148.38,43.374c0-0.911,0.37-1.63,1.104-2.158c0.74-0.527,1.761-0.791,3.051-0.791
		c1.189,0,2.357,0.244,3.504,0.733l-0.596,1.377c-1.111-0.463-2.131-0.695-3.031-0.695c-0.809,0-1.409,0.126-1.818,0.378
		c-0.406,0.251-0.611,0.599-0.611,1.042c0,0.3,0.076,0.555,0.229,0.766c0.147,0.211,0.396,0.412,0.741,0.603
		c0.34,0.191,0.988,0.467,1.96,0.828c1.317,0.483,2.215,0.97,2.671,1.46c0.457,0.49,0.686,1.105,0.686,1.849
		c0,1.034-0.386,1.832-1.146,2.393C154.341,51.72,153.26,52,151.868,52c-1.479,0-2.638-0.23-3.458-0.693v-1.559
		c0.529,0.272,1.104,0.487,1.724,0.644c0.614,0.157,1.206,0.235,1.775,0.235c0.885,0,1.563-0.141,2.042-0.424
		c0.477-0.283,0.715-0.713,0.715-1.292c0-0.436-0.188-0.809-0.566-1.119c-0.377-0.31-1.115-0.676-2.211-1.098
		c-1.043-0.388-1.781-0.727-2.218-1.017c-0.438-0.29-0.76-0.618-0.979-0.986C148.486,44.324,148.38,43.885,148.38,43.374z"/>
	<path fill="#666565" d="M157.57,41.944v-0.815l1.604-0.703l0.713-2.385h0.979v2.588h3.236v1.314h-3.236v6.588
		c0,0.674,0.156,1.191,0.479,1.552s0.758,0.542,1.313,0.542c0.3,0,0.588-0.022,0.86-0.066c0.274-0.044,0.5-0.09,0.662-0.138v1.278
		c-0.187,0.087-0.453,0.159-0.813,0.216c-0.354,0.057-0.681,0.085-0.96,0.085c-2.16,0-3.241-1.138-3.241-3.414v-6.644h-1.604
		L157.57,41.944L157.57,41.944z"/>
	<path fill="#666565" d="M166.273,37.603c0-0.387,0.088-0.671,0.27-0.851c0.175-0.18,0.395-0.27,0.652-0.27
		c0.293,0,0.551,0.092,0.764,0.275c0.212,0.184,0.313,0.466,0.313,0.846s-0.104,0.664-0.313,0.851s-0.471,0.28-0.764,0.28
		c-0.264,0-0.479-0.093-0.652-0.28C166.361,38.267,166.273,37.984,166.273,37.603z M166.417,51.798V40.63h1.549v11.168H166.417z"/>
	<path fill="#666565" d="M171.695,51.798V40.63h1.375l0.271,1.509h0.082c0.319-0.537,0.771-0.957,1.354-1.259
		c0.58-0.302,1.229-0.453,1.951-0.453c1.746,0,2.894,0.625,3.424,1.876h0.082c0.334-0.579,0.813-1.036,1.447-1.372
		c0.633-0.336,1.354-0.504,2.157-0.504c1.267,0,2.209,0.324,2.841,0.973c0.629,0.648,0.939,1.687,0.939,3.113v7.286h-1.688v-7.281
		c0-0.892-0.188-1.561-0.57-2.006c-0.381-0.445-0.973-0.669-1.771-0.669c-1.053,0-1.831,0.303-2.333,0.909
		c-0.503,0.605-0.754,1.538-0.754,2.798v6.249h-1.69v-7.281c0-0.892-0.188-1.561-0.563-2.006c-0.39-0.445-0.979-0.669-1.783-0.669
		c-1.063,0-1.836,0.318-2.329,0.955c-0.488,0.637-0.736,1.68-0.736,3.13v5.871L171.695,51.798L171.695,51.798z"/>
	<path fill="#666565" d="M190.271,48.722c0-2.25,1.813-3.429,5.418-3.537l1.896-0.062v-0.702c0-0.887-0.188-1.542-0.563-1.965
		s-0.979-0.634-1.808-0.634c-0.929,0-1.979,0.289-3.151,0.866l-0.521-1.298c0.55-0.294,1.146-0.525,1.811-0.692
		c0.655-0.167,1.313-0.251,1.979-0.251c1.324,0,2.313,0.295,2.955,0.887c0.645,0.591,0.966,1.539,0.966,2.843v7.622h-1.255
		l-0.342-1.571h-0.078c-0.561,0.693-1.106,1.162-1.659,1.407c-0.56,0.246-1.242,0.368-2.07,0.368c-1.11,0-1.979-0.284-2.614-0.853
		C190.588,50.58,190.271,49.771,190.271,48.722z M192.066,48.742c0,0.615,0.188,1.082,0.56,1.403
		c0.367,0.321,0.887,0.481,1.551,0.481c1.052,0,1.876-0.29,2.478-0.87c0.604-0.581,0.899-1.393,0.899-2.437v-1.014l-1.688,0.071
		c-1.342,0.048-2.312,0.258-2.896,0.63C192.363,47.378,192.066,47.957,192.066,48.742z"/>
	<path fill="#666565" d="M201.236,41.944v-0.815l1.604-0.703l0.713-2.385h0.979v2.588h3.238v1.314h-3.238v6.588
		c0,0.674,0.158,1.191,0.479,1.552s0.757,0.542,1.313,0.542c0.304,0,0.592-0.022,0.865-0.066s0.498-0.09,0.662-0.138v1.278
		c-0.188,0.087-0.453,0.159-0.813,0.216c-0.354,0.057-0.687,0.085-0.963,0.085c-2.16,0-3.241-1.138-3.241-3.414v-6.644h-1.604v0.002
		H201.236z"/>
	<path fill="#666565" d="M209.46,46.305c0-1.8,0.438-3.23,1.326-4.29c0.884-1.06,2.065-1.589,3.562-1.589
		c1.396,0,2.498,0.46,3.313,1.38c0.813,0.921,1.219,2.135,1.219,3.643v1.07h-7.688c0.035,1.311,0.367,2.306,0.996,2.985
		c0.629,0.68,1.521,1.019,2.658,1.019c1.197,0,2.385-0.251,3.557-0.754v1.508c-0.598,0.258-1.152,0.443-1.688,0.555
		C216.18,51.944,215.539,52,214.787,52c-1.646,0-2.946-0.502-3.898-1.508C209.936,49.489,209.46,48.093,209.46,46.305z
		 M211.232,45.144h5.854c0-1.066-0.238-1.883-0.714-2.451c-0.479-0.567-1.157-0.851-2.042-0.851c-0.898,0-1.615,0.292-2.149,0.876
		C211.643,43.303,211.328,44.111,211.232,45.144z"/>
</g>
<g>
	<path fill="#9A999E" d="M71.785,332.476c0-2.161,0.338-3.765,1.014-4.812c0.677-1.047,1.707-1.57,3.093-1.57
		c1.346,0,2.367,0.546,3.065,1.638c0.693,1.093,1.048,2.673,1.048,4.744c0,2.147-0.338,3.75-1.014,4.81
		c-0.682,1.061-1.709,1.59-3.104,1.59c-1.34,0-2.359-0.543-3.058-1.627C72.134,336.162,71.785,334.572,71.785,332.476z
		 M73.229,332.476c0,1.802,0.212,3.113,0.642,3.935c0.424,0.822,1.099,1.232,2.021,1.232c0.938,0,1.617-0.417,2.038-1.25
		c0.422-0.833,0.633-2.139,0.633-3.918c0-1.777-0.21-3.082-0.633-3.908c-0.421-0.828-1.101-1.242-2.038-1.242
		c-0.928,0-1.604,0.408-2.021,1.225C73.441,329.365,73.229,330.675,73.229,332.476z"/>
</g>
<g>
	<path fill="#87868A" d="M64.418,231.379H49.52v-4.208c0-1.978,0.295-3.407,0.885-4.29c0.597-0.885,1.522-1.325,2.805-1.325
		c0.883,0,1.605,0.246,2.186,0.739c0.573,0.492,0.945,1.211,1.115,2.154h0.104c0.394-2.248,1.578-3.373,3.57-3.373
		c1.332,0,2.371,0.449,3.118,1.349c0.748,0.897,1.121,2.153,1.121,3.769L64.418,231.379L64.418,231.379z M55.887,229.646v-2.853
		c0-1.224-0.19-2.103-0.573-2.64c-0.384-0.537-1.022-0.806-1.938-0.806c-0.834,0-1.438,0.299-1.811,0.896
		c-0.363,0.598-0.555,1.55-0.555,2.854v2.547L55.887,229.646L55.887,229.646z M62.94,229.646v-3.107
		c0-1.201-0.229-2.106-0.692-2.715c-0.471-0.608-1.193-0.912-2.188-0.912c-0.924,0-1.604,0.311-2.037,0.933
		c-0.436,0.621-0.646,1.567-0.646,2.838v2.965L62.94,229.646L62.94,229.646z"/>
	<path fill="#87868A" d="M50.222,218.254c-0.388,0-0.671-0.087-0.852-0.264c-0.186-0.176-0.271-0.396-0.271-0.657
		c0-0.294,0.092-0.546,0.273-0.759c0.185-0.211,0.466-0.317,0.847-0.317s0.664,0.106,0.852,0.317c0.188,0.213,0.28,0.465,0.28,0.759
		c0,0.264-0.095,0.481-0.28,0.657C50.886,218.167,50.603,218.254,50.222,218.254z M64.418,218.111H53.25v-1.549h11.168V218.111z"/>
	<path fill="#87868A" d="M64.418,212.833H48.562v-1.691h15.854L64.418,212.833L64.418,212.833z"/>
	<path fill="#87868A" d="M64.418,207.555H48.562v-1.691h15.854L64.418,207.555L64.418,207.555z"/>
	<path fill="#87868A" d="M50.222,202.419c-0.388,0-0.671-0.089-0.852-0.265c-0.186-0.175-0.271-0.395-0.271-0.656
		c0-0.293,0.092-0.547,0.273-0.758c0.185-0.213,0.466-0.318,0.847-0.318s0.664,0.105,0.852,0.318c0.188,0.211,0.28,0.465,0.28,0.758
		c0,0.263-0.095,0.481-0.28,0.656C50.886,202.33,50.603,202.419,50.222,202.419z M64.418,202.277H53.25v-1.55h11.168V202.277z"/>
	<path fill="#87868A" d="M58.813,197.619c-1.813,0-3.229-0.455-4.247-1.361c-1.015-0.908-1.521-2.168-1.521-3.78
		c0-1.558,0.52-2.795,1.558-3.713c1.036-0.918,2.44-1.377,4.211-1.377c1.823,0,3.248,0.457,4.271,1.372
		c1.021,0.914,1.536,2.178,1.536,3.789c0,0.996-0.234,1.88-0.704,2.652c-0.476,0.771-1.146,1.367-2.021,1.787
		C61.019,197.408,59.991,197.619,58.813,197.619z M58.813,195.887c1.436,0,2.521-0.286,3.271-0.854
		c0.749-0.57,1.124-1.412,1.124-2.521c0-1.109-0.373-1.951-1.119-2.526c-0.745-0.574-1.837-0.861-3.272-0.861
		c-1.423,0-2.504,0.287-3.239,0.861c-0.736,0.575-1.106,1.424-1.106,2.547c0,1.108,0.364,1.945,1.095,2.51
		C56.284,195.604,57.37,195.887,58.813,195.887z"/>
	<path fill="#87868A" d="M64.418,184.393H53.25v-1.376l1.509-0.274v-0.082c-0.544-0.347-0.966-0.832-1.265-1.457
		c-0.305-0.625-0.448-1.32-0.448-2.088c0-1.347,0.324-2.357,0.975-3.037c0.647-0.681,1.688-1.021,3.111-1.021h7.286v1.692h-7.239
		c-0.911,0-1.593,0.207-2.042,0.621c-0.448,0.414-0.675,1.063-0.675,1.945c0,1.17,0.313,2.024,0.95,2.568
		c0.633,0.543,1.678,0.814,3.135,0.814h5.871V184.393z"/>
	<path fill="#87868A" d="M59.26,167.337h-1.313v-1.528l-0.428,0.021h-0.448l-0.813-0.021v1.528h-1.313v-1.652
		c-1.771-0.265-3.149-0.894-4.146-1.885c-0.992-0.992-1.487-2.292-1.487-3.902c0-1.365,0.334-2.608,1.002-3.729l1.42,0.724
		c-0.582,1.128-0.872,2.13-0.872,3.006c0,2.167,1.36,3.519,4.086,4.055v-5.195h1.313v5.319l0.581,0.021h0.652l0.458-0.021v-4.698
		h1.313v4.554c1.229-0.251,2.182-0.721,2.854-1.41c0.672-0.689,1.009-1.611,1.009-2.767c0-1.06-0.229-2.109-0.676-3.148h1.521
		c0.438,0.992,0.653,2.068,0.653,3.23c0,1.609-0.457,2.905-1.371,3.887c-0.913,0.981-2.243,1.628-3.989,1.94v1.671H59.26z"/>
</g>
<line fill="none" stroke="#666565" stroke-width="0.25" stroke-miterlimit="10" x1="95.676" y1="90.674" x2="95.676" y2="338.705"/>
<line fill="none" stroke="#666565" stroke-width="0.25" stroke-miterlimit="10" x1="226.385" y1="338.705" x2="81.956" y2="338.705"/>
<line fill="none" stroke="#666565" stroke-width="0.25" stroke-miterlimit="10" x1="226.385" y1="90.674" x2="81.956" y2="90.674"/>
<g>
	<path fill="#666565" d="M77.442,418.844v-14.896h8.312v1.549H79.18v4.769h6.176v1.55H79.18v5.48h6.572v1.55L77.442,418.844
		L77.442,418.844z"/>
	<path fill="#666565" d="M88.897,413.544v-9.598h1.732v9.734c0,1.245,0.34,2.201,1.019,2.868c0.686,0.667,1.684,1,2.996,1
		c1.257,0,2.229-0.335,2.904-1.006c0.68-0.67,1.019-1.631,1.019-2.883v-9.715h1.732v9.641c0,1.699-0.514,3.033-1.538,4.005
		c-1.026,0.973-2.437,1.457-4.229,1.457c-1.798,0-3.187-0.489-4.162-1.468C89.387,416.602,88.897,415.257,88.897,413.544z"/>
	<path fill="#666565" d="M103.214,418.844v-1.438l3.924-3.959c1.194-1.214,1.982-2.08,2.363-2.6
		c0.381-0.519,0.665-1.021,0.854-1.515c0.19-0.49,0.285-1.02,0.285-1.586c0-0.797-0.241-1.431-0.724-1.897
		c-0.481-0.467-1.151-0.7-2.008-0.7c-0.618,0-1.204,0.103-1.764,0.308c-0.554,0.203-1.17,0.576-1.85,1.115l-0.896-1.156
		c1.372-1.123,2.866-1.684,4.483-1.684c1.396,0,2.497,0.356,3.291,1.069c0.795,0.713,1.19,1.671,1.19,2.875
		c0,0.947-0.27,1.887-0.799,2.814c-0.523,0.928-1.521,2.102-2.977,3.521l-3.261,3.203v0.082h7.663v1.549h-9.79v-0.002
		L103.214,418.844L103.214,418.844z"/>
	<path fill="#666565" d="M115.188,415.042c0-1.704,1.046-3.032,3.143-3.983c-0.946-0.529-1.627-1.103-2.039-1.717
		c-0.412-0.614-0.618-1.304-0.618-2.063c0-1.08,0.396-1.94,1.204-2.582c0.804-0.644,1.877-0.964,3.225-0.964
		c1.362,0,2.442,0.315,3.241,0.947c0.798,0.633,1.195,1.505,1.195,2.619c0,0.732-0.229,1.402-0.688,2.007
		c-0.458,0.604-1.188,1.155-2.194,1.651c1.222,0.578,2.08,1.184,2.599,1.818c0.513,0.634,0.769,1.371,0.769,2.206
		c0,1.236-0.434,2.224-1.298,2.96c-0.865,0.736-2.053,1.104-3.559,1.104c-1.601,0-2.821-0.348-3.686-1.044
		C115.617,417.305,115.188,416.321,115.188,415.042z M116.88,415.083c0,0.815,0.282,1.451,0.85,1.906
		c0.568,0.455,1.362,0.684,2.392,0.684c1.011,0,1.798-0.238,2.354-0.713c0.563-0.477,0.845-1.127,0.845-1.957
		c0-0.659-0.265-1.245-0.793-1.758c-0.523-0.514-1.446-1.011-2.768-1.494c-1.012,0.436-1.743,0.916-2.198,1.442
		S116.88,414.35,116.88,415.083z M117.358,407.349c0,0.625,0.2,1.162,0.604,1.609c0.396,0.449,1.141,0.897,2.219,1.346
		c0.97-0.406,1.655-0.846,2.063-1.313c0.401-0.468,0.604-1.017,0.604-1.642c0-0.686-0.246-1.229-0.737-1.635
		c-0.489-0.404-1.169-0.605-2.023-0.605c-0.854,0-1.519,0.204-1.994,0.61C117.6,406.126,117.358,406.669,117.358,407.349z"/>
	<path fill="#666565" d="M132.653,413.351c0-1.8,0.441-3.229,1.326-4.29c0.884-1.06,2.07-1.589,3.563-1.589
		c1.396,0,2.498,0.46,3.312,1.38c0.813,0.922,1.219,2.137,1.219,3.645v1.069h-7.68c0.033,1.312,0.364,2.306,0.995,2.984
		c0.63,0.681,1.516,1.02,2.658,1.02c1.198,0,2.385-0.251,3.561-0.754v1.509c-0.602,0.258-1.163,0.441-1.688,0.555
		c-0.532,0.111-1.174,0.168-1.928,0.168c-1.646,0-2.943-0.502-3.896-1.508C133.131,416.532,132.653,415.139,132.653,413.351z
		 M134.427,412.189h5.848c0-1.065-0.231-1.884-0.715-2.45c-0.477-0.567-1.156-0.853-2.041-0.853c-0.896,0-1.614,0.292-2.146,0.876
		C134.836,410.349,134.522,411.157,134.427,412.189z"/>
	<path fill="#666565" d="M144.271,410.419c0-0.91,0.369-1.629,1.105-2.157c0.733-0.526,1.754-0.791,3.044-0.791
		c1.188,0,2.362,0.244,3.507,0.733l-0.593,1.377c-1.114-0.463-2.131-0.695-3.037-0.695c-0.805,0-1.405,0.126-1.813,0.378
		c-0.403,0.251-0.607,0.6-0.607,1.042c0,0.301,0.07,0.556,0.229,0.767c0.148,0.211,0.396,0.412,0.736,0.604
		c0.344,0.191,0.994,0.467,1.961,0.828c1.324,0.482,2.219,0.97,2.674,1.46c0.457,0.489,0.688,1.105,0.688,1.85
		c0,1.033-0.392,1.831-1.154,2.393c-0.771,0.562-1.854,0.842-3.243,0.842c-1.479,0-2.631-0.229-3.459-0.692v-1.56
		c0.536,0.271,1.109,0.486,1.727,0.645c0.611,0.156,1.203,0.234,1.773,0.234c0.885,0,1.564-0.141,2.043-0.424
		c0.479-0.283,0.715-0.713,0.715-1.293c0-0.436-0.188-0.809-0.563-1.118c-0.378-0.309-1.114-0.677-2.211-1.099
		c-1.042-0.389-1.78-0.728-2.226-1.018c-0.438-0.29-0.762-0.617-0.975-0.984C144.377,411.37,144.271,410.931,144.271,410.419z"/>
	<path fill="#666565" d="M153.461,408.989v-0.814l1.602-0.703l0.713-2.385h0.979v2.588h3.239v1.314h-3.239v6.588
		c0,0.674,0.158,1.189,0.479,1.552c0.318,0.36,0.764,0.542,1.313,0.542c0.301,0,0.59-0.021,0.865-0.065
		c0.271-0.045,0.5-0.091,0.663-0.139v1.278c-0.188,0.086-0.454,0.158-0.813,0.215c-0.354,0.058-0.681,0.086-0.965,0.086
		c-2.158,0-3.238-1.139-3.238-3.414v-6.645h-1.604L153.461,408.989L153.461,408.989z"/>
	<path fill="#666565" d="M162.164,404.648c0-0.388,0.088-0.672,0.266-0.852c0.174-0.18,0.396-0.27,0.656-0.27
		c0.293,0,0.546,0.092,0.758,0.273c0.213,0.186,0.318,0.466,0.318,0.847c0,0.38-0.105,0.663-0.318,0.851
		c-0.212,0.188-0.465,0.281-0.758,0.281c-0.27,0-0.482-0.095-0.656-0.281C162.252,405.313,162.164,405.03,162.164,404.648z
		 M162.309,418.844v-11.168h1.549v11.168H162.309z"/>
	<path fill="#666565" d="M167.586,418.844v-11.168h1.375l0.271,1.509h0.08c0.32-0.536,0.771-0.957,1.354-1.259
		c0.581-0.302,1.229-0.453,1.951-0.453c1.743,0,2.889,0.625,3.424,1.876h0.082c0.333-0.579,0.813-1.035,1.441-1.372
		c0.638-0.336,1.354-0.504,2.16-0.504c1.27,0,2.209,0.324,2.838,0.975c0.627,0.646,0.941,1.687,0.941,3.111v7.286h-1.691v-7.28
		c0-0.893-0.188-1.562-0.563-2.007c-0.381-0.444-0.978-0.669-1.772-0.669c-1.053,0-1.83,0.304-2.334,0.909
		c-0.502,0.605-0.754,1.537-0.754,2.798v6.249h-1.688v-7.281c0-0.892-0.188-1.561-0.57-2.006c-0.381-0.444-0.979-0.669-1.779-0.669
		c-1.063,0-1.836,0.317-2.328,0.955c-0.486,0.637-0.732,1.681-0.732,3.13v5.871L167.586,418.844L167.586,418.844z"/>
	<path fill="#666565" d="M186.162,415.768c0-2.25,1.807-3.429,5.418-3.536l1.896-0.063v-0.702c0-0.888-0.188-1.542-0.563-1.966
		c-0.377-0.422-0.979-0.633-1.813-0.633c-0.928,0-1.979,0.289-3.146,0.865l-0.523-1.299c0.551-0.294,1.151-0.523,1.813-0.691
		c0.646-0.166,1.313-0.25,1.972-0.25c1.33,0,2.313,0.295,2.957,0.887c0.646,0.591,0.963,1.539,0.963,2.843v7.622h-1.254l-0.336-1.57
		h-0.082c-0.563,0.692-1.105,1.161-1.662,1.406c-0.554,0.246-1.238,0.368-2.066,0.368c-1.106,0-1.979-0.284-2.609-0.853
		C186.479,417.626,186.162,416.816,186.162,415.768z M187.955,415.788c0,0.615,0.188,1.082,0.557,1.402
		c0.367,0.32,0.887,0.48,1.551,0.48c1.051,0,1.877-0.29,2.479-0.87c0.604-0.581,0.896-1.393,0.896-2.438v-1.015l-1.688,0.071
		c-1.343,0.048-2.313,0.258-2.9,0.63C188.252,414.425,187.955,415.003,187.955,415.788z"/>
	<path fill="#666565" d="M197.126,408.989v-0.814l1.603-0.703l0.713-2.385h0.979v2.588h3.239v1.314h-3.239v6.588
		c0,0.674,0.158,1.189,0.479,1.552c0.32,0.36,0.765,0.542,1.313,0.542c0.301,0,0.59-0.021,0.865-0.065
		c0.271-0.045,0.5-0.091,0.663-0.139v1.278c-0.188,0.086-0.454,0.158-0.813,0.215c-0.354,0.058-0.679,0.086-0.963,0.086
		c-2.16,0-3.24-1.139-3.24-3.414v-6.645h-1.602L197.126,408.989L197.126,408.989z"/>
	<path fill="#666565" d="M205.352,413.351c0-1.8,0.439-3.229,1.326-4.29c0.883-1.06,2.068-1.589,3.561-1.589
		c1.396,0,2.498,0.46,3.314,1.38c0.813,0.922,1.221,2.137,1.221,3.645v1.069h-7.688c0.034,1.312,0.365,2.306,0.995,2.984
		c0.63,0.68,1.519,1.02,2.651,1.02c1.197,0,2.392-0.251,3.563-0.754v1.509c-0.604,0.258-1.157,0.441-1.688,0.555
		c-0.524,0.111-1.174,0.168-1.926,0.168c-1.646,0-2.945-0.502-3.896-1.508C205.829,416.533,205.352,415.139,205.352,413.351z
		 M207.124,412.189h5.851c0-1.065-0.238-1.884-0.716-2.45c-0.479-0.567-1.155-0.853-2.041-0.853c-0.897,0-1.614,0.292-2.147,0.876
		C207.533,410.349,207.219,411.157,207.124,412.189z"/>
</g>
<g id="legend">
	<g>
		<g>
			<path fill="#5B5B5F" d="M82.98,765.044c0-1.275,0.234-2.395,0.709-3.355c0.479-0.963,1.16-1.703,2.064-2.225
				c0.896-0.521,1.965-0.781,3.188-0.781c1.309,0,2.438,0.236,3.414,0.715l-0.605,1.236c-0.938-0.438-1.887-0.66-2.818-0.66
				c-1.363,0-2.438,0.453-3.229,1.359c-0.787,0.908-1.188,2.15-1.188,3.729c0,1.625,0.383,2.879,1.146,3.766
				c0.764,0.885,1.85,1.328,3.258,1.328c0.859,0,1.854-0.156,2.965-0.471v1.271c-0.859,0.324-1.924,0.486-3.188,0.486
				c-1.825,0-3.23-0.564-4.227-1.666C83.475,768.667,82.98,767.089,82.98,765.044z"/>
			<path fill="#5B5B5F" d="M93.865,766.603c0-1.518,0.377-2.693,1.135-3.537c0.756-0.848,1.809-1.271,3.146-1.271
				c1.299,0,2.33,0.439,3.102,1.297c0.766,0.865,1.146,2.035,1.146,3.521c0,1.52-0.381,2.707-1.145,3.563
				c-0.77,0.854-1.814,1.279-3.158,1.279c-0.83,0-1.564-0.193-2.211-0.588c-0.646-0.396-1.146-0.953-1.486-1.689
				C94.041,768.441,93.865,767.583,93.865,766.603z M95.311,766.603c0,1.188,0.236,2.102,0.715,2.727
				c0.479,0.623,1.182,0.938,2.104,0.938s1.625-0.313,2.104-0.934c0.479-0.621,0.725-1.529,0.725-2.729
				c0-1.189-0.238-2.088-0.725-2.703c-0.479-0.615-1.188-0.922-2.123-0.922c-0.924,0-1.621,0.303-2.092,0.908
				C95.543,764.496,95.311,765.4,95.311,766.603z"/>
			<path fill="#5B5B5F" d="M104.293,764.253c0-0.758,0.309-1.354,0.924-1.797c0.617-0.439,1.463-0.658,2.537-0.658
				c0.994,0,1.971,0.203,2.92,0.609l-0.49,1.145c-0.934-0.389-1.771-0.578-2.531-0.578c-0.67,0-1.174,0.105-1.516,0.314
				s-0.512,0.498-0.512,0.867c0,0.25,0.063,0.463,0.188,0.641c0.127,0.176,0.332,0.342,0.617,0.502
				c0.281,0.156,0.826,0.393,1.633,0.689c1.105,0.395,1.854,0.811,2.229,1.217c0.379,0.408,0.563,0.922,0.563,1.541
				c0,0.861-0.313,1.527-0.963,1.994c-0.643,0.467-1.541,0.701-2.699,0.701c-1.229,0-2.188-0.191-2.885-0.578v-1.313
				c0.445,0.23,0.929,0.404,1.438,0.535c0.514,0.133,1.006,0.193,1.479,0.193c0.736,0,1.313-0.117,1.703-0.354
				c0.396-0.232,0.598-0.594,0.598-1.074c0-0.363-0.152-0.676-0.475-0.936c-0.313-0.258-0.932-0.563-1.844-0.914
				c-0.867-0.322-1.482-0.604-1.852-0.85c-0.362-0.242-0.637-0.521-0.813-0.818C104.381,765.048,104.293,764.679,104.293,764.253z"
				/>
			<path fill="#5B5B5F" d="M111.953,763.064v-0.682l1.334-0.588l0.594-1.986h0.813v2.158h2.699v1.096h-2.699v5.49
				c0,0.563,0.139,0.99,0.398,1.293c0.265,0.305,0.631,0.449,1.096,0.449c0.25,0,0.49-0.018,0.729-0.055
				c0.229-0.037,0.416-0.074,0.553-0.115v1.066c-0.15,0.063-0.379,0.133-0.676,0.18c-0.299,0.047-0.563,0.072-0.809,0.072
				c-1.801,0-2.695-0.949-2.695-2.855v-5.537L111.953,763.064L111.953,763.064z"/>
			<path fill="#5B5B5F" d="M123.84,771.275v-9.311h1.146l0.229,1.258h0.068c0.281-0.453,0.688-0.807,1.215-1.057
				c0.52-0.25,1.104-0.375,1.734-0.375c1.121,0,1.969,0.271,2.529,0.813c0.564,0.543,0.854,1.406,0.854,2.596v6.07h-1.408v-6.031
				c0-0.762-0.174-1.326-0.521-1.701c-0.346-0.375-0.887-0.564-1.621-0.564c-0.975,0-1.688,0.271-2.141,0.791
				c-0.453,0.525-0.682,1.396-0.682,2.613v4.896h-1.408L123.84,771.275L123.84,771.275z"/>
			<path fill="#5B5B5F" d="M133.998,766.603c0-1.518,0.377-2.693,1.135-3.537c0.758-0.848,1.807-1.271,3.146-1.271
				c1.305,0,2.33,0.439,3.102,1.297c0.766,0.865,1.145,2.035,1.145,3.521c0,1.52-0.381,2.707-1.145,3.563
				c-0.768,0.854-1.813,1.279-3.156,1.279c-0.83,0-1.564-0.193-2.211-0.588c-0.646-0.396-1.141-0.953-1.488-1.689
				C134.172,768.441,133.998,767.583,133.998,766.603z M135.441,766.603c0,1.188,0.238,2.102,0.715,2.727
				c0.479,0.623,1.182,0.938,2.104,0.938s1.625-0.313,2.104-0.934c0.48-0.621,0.729-1.529,0.729-2.729
				c0-1.189-0.235-2.088-0.729-2.703c-0.479-0.615-1.188-0.922-2.112-0.922c-0.93,0-1.621,0.303-2.098,0.908
				C135.676,764.496,135.441,765.4,135.441,766.603z"/>
			<path fill="#5B5B5F" d="M145.021,771.275v-9.311h1.146l0.229,1.258h0.063c0.287-0.453,0.688-0.807,1.215-1.057
				c0.521-0.25,1.104-0.375,1.74-0.375c1.121,0,1.963,0.271,2.521,0.813c0.566,0.541,0.854,1.406,0.854,2.596v6.07h-1.405v-6.031
				c0-0.762-0.177-1.326-0.521-1.701c-0.352-0.375-0.893-0.564-1.619-0.564c-0.979,0-1.688,0.271-2.146,0.791
				c-0.453,0.525-0.681,1.396-0.681,2.613v4.896h-1.407L145.021,771.275L145.021,771.275z"/>
			<path fill="#5B5B5F" d="M154.912,767.257v-1.291h4.17v1.291H154.912z"/>
			<path fill="#5B5B5F" d="M160.041,763.064v-0.639l1.666-0.512v-0.518c0-2.275,0.998-3.416,2.996-3.416
				c0.486,0,1.064,0.1,1.729,0.295l-0.365,1.104c-0.543-0.176-1.008-0.266-1.396-0.266c-0.53,0-0.928,0.18-1.188,0.531
				c-0.259,0.354-0.386,0.922-0.386,1.701v0.605h2.369v1.096H163.1v8.209H161.7v-8.209L160.041,763.064L160.041,763.064z"/>
			<path fill="#5B5B5F" d="M166.488,768.71c0-1.875,1.512-2.854,4.521-2.945l1.582-0.055v-0.584c0-0.736-0.154-1.283-0.471-1.637
				c-0.317-0.355-0.814-0.529-1.512-0.529c-0.771,0-1.646,0.24-2.627,0.725l-0.438-1.082c0.459-0.244,0.961-0.438,1.509-0.576
				c0.549-0.143,1.096-0.209,1.646-0.209c1.104,0,1.932,0.246,2.467,0.738c0.533,0.492,0.801,1.281,0.801,2.367v6.355h-1.045
				l-0.275-1.314h-0.063c-0.464,0.576-0.933,0.967-1.394,1.172c-0.459,0.205-1.029,0.313-1.729,0.313
				c-0.928,0-1.65-0.236-2.18-0.711C166.75,770.257,166.488,769.585,166.488,768.71z M167.982,768.728
				c0,0.514,0.154,0.898,0.463,1.17c0.313,0.27,0.738,0.396,1.291,0.396c0.877,0,1.563-0.238,2.063-0.725
				c0.5-0.488,0.75-1.16,0.75-2.031v-0.844l-1.404,0.063c-1.117,0.039-1.928,0.215-2.42,0.523
				C168.23,767.591,167.982,768.074,167.982,768.728z"/>
			<path fill="#5B5B5F" d="M175.625,763.064v-0.682l1.332-0.588l0.596-1.986h0.813v2.158h2.694v1.096h-2.694v5.49
				c0,0.563,0.135,0.99,0.396,1.293c0.266,0.305,0.631,0.449,1.096,0.449c0.248,0,0.488-0.018,0.729-0.055
				c0.229-0.037,0.416-0.074,0.554-0.115v1.066c-0.152,0.063-0.38,0.133-0.677,0.18c-0.299,0.047-0.563,0.072-0.805,0.072
				c-1.806,0-2.699-0.949-2.699-2.855v-5.537L175.625,763.064L175.625,763.064z"/>
			<path fill="#5B5B5F" d="M182.299,768.71c0-1.875,1.508-2.854,4.518-2.945l1.582-0.055v-0.584c0-0.736-0.149-1.283-0.473-1.637
				c-0.313-0.355-0.814-0.529-1.506-0.529c-0.771,0-1.646,0.24-2.627,0.725l-0.438-1.082c0.459-0.244,0.961-0.438,1.508-0.576
				c0.551-0.143,1.1-0.209,1.646-0.209c1.104,0,1.932,0.246,2.467,0.738c0.533,0.492,0.803,1.281,0.803,2.367v6.355h-1.045
				l-0.272-1.314h-0.065c-0.464,0.576-0.927,0.967-1.388,1.172c-0.459,0.205-1.035,0.313-1.729,0.313
				c-0.928,0-1.646-0.236-2.182-0.711C182.564,770.257,182.299,769.585,182.299,768.71z M183.793,768.728
				c0,0.514,0.146,0.898,0.463,1.17c0.309,0.27,0.736,0.396,1.291,0.396c0.877,0,1.563-0.238,2.063-0.725
				c0.5-0.488,0.75-1.16,0.75-2.031v-0.844l-1.4,0.063c-1.119,0.039-1.934,0.215-2.422,0.523
				C184.041,767.591,183.793,768.074,183.793,768.728z"/>
			<path fill="#5B5B5F" d="M192.666,771.275V758.06h1.41v13.215H192.666z"/>
			<path fill="#5B5B5F" d="M201.066,766.679c0-1.559,0.373-2.762,1.117-3.607c0.744-0.848,1.813-1.271,3.192-1.271
				c0.438,0,0.896,0.049,1.347,0.146c0.442,0.098,0.799,0.209,1.053,0.34l-0.437,1.197c-0.313-0.125-0.647-0.229-1.021-0.313
				c-0.362-0.082-0.688-0.123-0.979-0.123c-1.896,0-2.836,1.207-2.836,3.617c0,1.146,0.229,2.021,0.688,2.633
				c0.461,0.609,1.146,0.918,2.059,0.918c0.771,0,1.563-0.168,2.39-0.502v1.25c-0.622,0.32-1.405,0.482-2.354,0.482
				c-1.351,0-2.39-0.416-3.115-1.244C201.434,769.371,201.066,768.197,201.066,766.679z"/>
			<path fill="#5B5B5F" d="M209.166,768.71c0-1.875,1.506-2.854,4.518-2.945l1.582-0.055v-0.584c0-0.736-0.156-1.283-0.473-1.637
				c-0.313-0.355-0.813-0.529-1.504-0.529c-0.771,0-1.648,0.24-2.627,0.725l-0.439-1.082c0.459-0.244,0.961-0.438,1.508-0.576
				c0.547-0.143,1.103-0.209,1.646-0.209c1.104,0,1.934,0.246,2.465,0.738c0.533,0.492,0.805,1.281,0.805,2.367v6.355H215.6
				l-0.279-1.314h-0.063c-0.463,0.576-0.926,0.967-1.387,1.172c-0.459,0.205-1.033,0.313-1.729,0.313
				c-0.929,0-1.654-0.236-2.183-0.711C209.432,770.257,209.166,769.585,209.166,768.71z M210.662,768.728
				c0,0.514,0.146,0.898,0.463,1.17c0.309,0.27,0.73,0.396,1.291,0.396c0.877,0,1.563-0.238,2.063-0.725
				c0.5-0.488,0.75-1.16,0.75-2.031v-0.844l-1.408,0.063c-1.111,0.039-1.926,0.215-2.42,0.523
				C210.908,767.591,210.662,768.074,210.662,768.728z"/>
			<path fill="#5B5B5F" d="M218.941,764.253c0-0.758,0.313-1.354,0.924-1.797c0.617-0.439,1.469-0.658,2.537-0.658
				c0.996,0,1.977,0.203,2.92,0.609l-0.484,1.145c-0.938-0.389-1.773-0.578-2.531-0.578c-0.67,0-1.174,0.105-1.514,0.314
				c-0.348,0.209-0.518,0.498-0.518,0.867c0,0.25,0.063,0.463,0.188,0.641c0.125,0.176,0.332,0.342,0.617,0.502
				c0.273,0.156,0.818,0.393,1.633,0.689c1.104,0.395,1.85,0.811,2.229,1.217c0.381,0.408,0.57,0.922,0.57,1.541
				c0,0.861-0.32,1.527-0.966,1.994c-0.646,0.467-1.541,0.701-2.698,0.701c-1.229,0-2.193-0.191-2.886-0.578v-1.313
				c0.447,0.23,0.929,0.404,1.438,0.535c0.52,0.133,1.006,0.193,1.479,0.193c0.73,0,1.309-0.117,1.701-0.354
				c0.396-0.232,0.6-0.594,0.6-1.074c0-0.363-0.156-0.676-0.477-0.936c-0.313-0.258-0.938-0.563-1.85-0.914
				c-0.859-0.322-1.479-0.604-1.848-0.85c-0.365-0.238-0.638-0.521-0.814-0.818C219.029,765.048,218.941,764.679,218.941,764.253z"
				/>
			<path fill="#5B5B5F" d="M227.316,766.697c0-1.5,0.367-2.691,1.104-3.576c0.737-0.883,1.729-1.322,2.971-1.322
				c1.16,0,2.082,0.385,2.758,1.148c0.687,0.77,1.021,1.777,1.021,3.037v0.895h-6.399c0.024,1.094,0.311,1.922,0.826,2.484
				c0.522,0.564,1.268,0.854,2.221,0.854c0.998,0,1.981-0.209,2.963-0.629v1.258c-0.492,0.225-0.967,0.369-1.404,0.463
				c-0.443,0.105-0.979,0.146-1.604,0.146c-1.371,0-2.453-0.42-3.248-1.258C227.713,769.351,227.316,768.187,227.316,766.697z
				 M228.791,765.728h4.875c0-0.893-0.197-1.568-0.602-2.041c-0.396-0.477-0.965-0.709-1.697-0.709c-0.746,0-1.35,0.24-1.789,0.729
				C229.135,764.197,228.871,764.869,228.791,765.728z"/>
			<path fill="#5B5B5F" d="M236.996,764.253c0-0.758,0.309-1.354,0.924-1.797c0.617-0.439,1.461-0.658,2.537-0.658
				c0.994,0,1.969,0.203,2.92,0.609l-0.492,1.145c-0.932-0.389-1.773-0.578-2.529-0.578c-0.67,0-1.174,0.105-1.516,0.314
				s-0.512,0.498-0.512,0.867c0,0.25,0.063,0.463,0.188,0.641c0.127,0.176,0.332,0.342,0.617,0.502
				c0.278,0.156,0.823,0.393,1.633,0.689c1.104,0.395,1.846,0.811,2.229,1.217c0.379,0.408,0.563,0.922,0.563,1.541
				c0,0.861-0.313,1.527-0.963,1.994c-0.646,0.467-1.541,0.701-2.701,0.701c-1.229,0-2.188-0.191-2.883-0.578v-1.313
				c0.442,0.23,0.926,0.404,1.438,0.535c0.512,0.133,1.006,0.193,1.479,0.193c0.736,0,1.313-0.117,1.703-0.354
				c0.396-0.232,0.596-0.594,0.596-1.074c0-0.363-0.147-0.676-0.475-0.936c-0.314-0.258-0.932-0.563-1.842-0.914
				c-0.869-0.322-1.482-0.604-1.854-0.85c-0.359-0.24-0.633-0.521-0.813-0.818C237.084,765.048,236.996,764.679,236.996,764.253z"/>
		</g>
		<rect x="53.957" y="755.816" fill="#F2C466" width="17.803" height="17.803"/>
	</g>
	<g>
		<g>
			<path fill="#5B5B5F" d="M82.98,792.734c0-1.275,0.234-2.396,0.709-3.357c0.479-0.961,1.16-1.703,2.064-2.225
				c0.896-0.521,1.965-0.779,3.188-0.779c1.309,0,2.438,0.236,3.414,0.713l-0.605,1.238c-0.938-0.439-1.887-0.662-2.818-0.662
				c-1.363,0-2.438,0.455-3.229,1.361c-0.787,0.906-1.188,2.146-1.188,3.729c0,1.623,0.383,2.877,1.146,3.771
				c0.764,0.889,1.85,1.32,3.258,1.32c0.859,0,1.854-0.145,2.965-0.467v1.271c-0.859,0.318-1.924,0.479-3.188,0.479
				c-1.825,0-3.23-0.555-4.227-1.666C83.475,796.357,82.98,794.781,82.98,792.734z"/>
			<path fill="#5B5B5F" d="M93.865,794.294c0-1.514,0.377-2.691,1.135-3.539c0.756-0.844,1.809-1.27,3.146-1.27
				c1.299,0,2.33,0.436,3.102,1.299c0.766,0.863,1.146,2.033,1.146,3.51c0,1.521-0.381,2.707-1.145,3.563
				c-0.77,0.854-1.814,1.279-3.158,1.279c-0.83,0-1.564-0.195-2.211-0.59c-0.646-0.391-1.146-0.951-1.486-1.686
				C94.041,796.132,93.865,795.275,93.865,794.294z M95.311,794.294c0,1.189,0.236,2.104,0.715,2.727
				c0.479,0.625,1.182,0.938,2.104,0.938s1.625-0.313,2.104-0.932c0.479-0.621,0.725-1.531,0.725-2.73
				c0-1.186-0.238-2.086-0.725-2.703c-0.479-0.604-1.188-0.922-2.123-0.922c-0.924,0-1.621,0.305-2.092,0.91
				C95.543,792.185,95.311,793.089,95.311,794.294z"/>
			<path fill="#5B5B5F" d="M104.293,791.943c0-0.76,0.309-1.355,0.924-1.797c0.617-0.439,1.463-0.66,2.537-0.66
				c0.994,0,1.971,0.205,2.92,0.609l-0.49,1.146c-0.934-0.387-1.771-0.578-2.531-0.578c-0.67,0-1.174,0.104-1.516,0.314
				c-0.342,0.209-0.512,0.488-0.512,0.855c0,0.25,0.063,0.465,0.188,0.646c0.127,0.176,0.332,0.344,0.617,0.502
				c0.281,0.158,0.826,0.391,1.633,0.688c1.105,0.402,1.854,0.814,2.229,1.227c0.379,0.4,0.563,0.922,0.563,1.533
				c0,0.861-0.313,1.523-0.963,1.994c-0.643,0.475-1.541,0.701-2.699,0.701c-1.229,0-2.188-0.188-2.885-0.578v-1.303
				c0.445,0.23,0.929,0.404,1.438,0.535c0.514,0.131,1.006,0.195,1.479,0.195c0.736,0,1.313-0.119,1.703-0.355
				c0.396-0.234,0.598-0.594,0.598-1.076c0-0.354-0.152-0.674-0.475-0.934c-0.313-0.26-0.932-0.564-1.844-0.914
				c-0.867-0.324-1.482-0.605-1.852-0.854c-0.361-0.234-0.637-0.52-0.813-0.814C104.381,792.736,104.293,792.371,104.293,791.943z"
				/>
			<path fill="#5B5B5F" d="M111.953,790.753v-0.68l1.334-0.588l0.594-1.984h0.813v2.156h2.699v1.096h-2.699v5.49
				c0,0.563,0.139,0.994,0.398,1.295c0.265,0.303,0.631,0.451,1.096,0.451c0.25,0,0.49-0.021,0.729-0.064
				c0.229-0.033,0.416-0.068,0.553-0.107v1.063c-0.15,0.07-0.379,0.133-0.676,0.189c-0.299,0.047-0.563,0.063-0.809,0.063
				c-1.801,0-2.695-0.945-2.695-2.848v-5.537L111.953,790.753L111.953,790.753z"/>
			<path fill="#5B5B5F" d="M122.594,790.753v-0.637l1.664-0.51v-0.521c0-2.27,0.998-3.416,2.996-3.416
				c0.492,0,1.07,0.105,1.729,0.295l-0.359,1.115c-0.543-0.178-1.014-0.271-1.396-0.271c-0.533,0-0.928,0.184-1.184,0.529
				c-0.254,0.355-0.381,0.92-0.381,1.701v0.604h2.361v1.1h-2.361v8.211h-1.41v-8.211L122.594,790.753L122.594,790.753z"/>
			<path fill="#5B5B5F" d="M129.039,796.4c0-1.875,1.506-2.854,4.518-2.945l1.582-0.055v-0.584c0-0.736-0.158-1.283-0.473-1.639
				c-0.315-0.354-0.814-0.527-1.506-0.527c-0.771,0-1.646,0.24-2.627,0.725l-0.438-1.082c0.459-0.246,0.961-0.438,1.508-0.574
				c0.545-0.143,1.094-0.209,1.646-0.209c1.104,0,1.93,0.244,2.465,0.736c0.535,0.49,0.805,1.279,0.805,2.369v6.354h-1.045
				l-0.281-1.313h-0.063c-0.465,0.576-0.928,0.969-1.393,1.174c-0.461,0.203-1.029,0.314-1.725,0.314
				c-0.93,0-1.654-0.234-2.182-0.717C129.303,797.951,129.039,797.275,129.039,796.4z M130.533,796.419
				c0,0.514,0.146,0.898,0.463,1.168c0.307,0.271,0.73,0.402,1.291,0.402c0.877,0,1.563-0.242,2.063-0.73
				c0.5-0.484,0.75-1.16,0.75-2.027v-0.848l-1.408,0.064c-1.111,0.041-1.926,0.215-2.42,0.52
				C130.779,795.285,130.533,795.763,130.533,796.419z"/>
			<path fill="#5B5B5F" d="M138.176,790.753v-0.68l1.334-0.588l0.594-1.984h0.814v2.156h2.699v1.096h-2.699v5.49
				c0,0.563,0.133,0.994,0.396,1.295c0.271,0.303,0.631,0.451,1.102,0.451c0.248,0,0.482-0.021,0.723-0.064
				c0.229-0.033,0.416-0.068,0.553-0.107v1.063c-0.146,0.07-0.377,0.133-0.674,0.189c-0.301,0.047-0.563,0.063-0.805,0.063
				c-1.801,0-2.699-0.945-2.699-2.848v-5.537L138.176,790.753L138.176,790.753z"/>
			<path fill="#5B5B5F" d="M144.852,796.4c0-1.875,1.506-2.854,4.521-2.945l1.582-0.055v-0.584c0-0.736-0.156-1.283-0.479-1.639
				c-0.313-0.354-0.813-0.527-1.506-0.527c-0.771,0-1.646,0.24-2.627,0.725l-0.438-1.082c0.461-0.246,0.963-0.438,1.51-0.574
				c0.547-0.143,1.094-0.209,1.645-0.209c1.107,0,1.938,0.244,2.465,0.736c0.535,0.49,0.812,1.279,0.812,2.369v6.354h-1.045
				l-0.279-1.313h-0.063c-0.465,0.576-0.928,0.969-1.392,1.174c-0.459,0.203-1.03,0.314-1.725,0.314
				c-0.937,0-1.654-0.234-2.188-0.717C145.113,797.951,144.852,797.275,144.852,796.4z M146.346,796.419
				c0,0.514,0.152,0.898,0.463,1.168c0.313,0.271,0.736,0.402,1.291,0.402c0.877,0,1.564-0.242,2.064-0.73
				c0.5-0.484,0.75-1.16,0.75-2.027v-0.848l-1.408,0.064c-1.115,0.041-1.926,0.215-2.42,0.52
				C146.592,795.285,146.346,795.763,146.346,796.419z"/>
			<path fill="#5B5B5F" d="M155.219,798.964v-13.213h1.408v13.213H155.219z"/>
			<path fill="#5B5B5F" d="M163.617,794.371c0-1.561,0.365-2.762,1.109-3.607c0.746-0.85,1.813-1.27,3.197-1.27
				c0.442,0,0.896,0.049,1.342,0.145c0.444,0.105,0.799,0.209,1.061,0.348l-0.438,1.189c-0.313-0.125-0.646-0.229-1.021-0.313
				s-0.691-0.123-0.979-0.123c-1.896,0-2.838,1.205-2.838,3.617c0,1.145,0.229,2.02,0.688,2.633
				c0.464,0.607,1.146,0.916,2.054,0.916c0.771,0,1.565-0.166,2.39-0.5v1.248c-0.621,0.318-1.406,0.48-2.354,0.48
				c-1.354,0-2.396-0.414-3.119-1.244C163.984,797.062,163.617,795.888,163.617,794.371z"/>
			<path fill="#5B5B5F" d="M171.719,796.4c0-1.875,1.506-2.854,4.516-2.945l1.582-0.055v-0.584c0-0.736-0.147-1.283-0.471-1.639
				c-0.313-0.354-0.813-0.527-1.506-0.527c-0.771,0-1.648,0.24-2.627,0.725l-0.439-1.082c0.459-0.246,0.961-0.438,1.517-0.574
				c0.547-0.143,1.096-0.209,1.646-0.209c1.105,0,1.936,0.244,2.467,0.736c0.529,0.49,0.807,1.279,0.807,2.369v6.354h-1.048
				l-0.275-1.313h-0.067c-0.464,0.576-0.925,0.969-1.386,1.174c-0.461,0.203-1.034,0.314-1.729,0.314
				c-0.929,0-1.648-0.234-2.183-0.717C171.982,797.951,171.719,797.275,171.719,796.4z M173.213,796.419
				c0,0.514,0.146,0.898,0.461,1.168c0.311,0.271,0.738,0.402,1.293,0.402c0.875,0,1.563-0.242,2.063-0.73
				c0.5-0.484,0.75-1.16,0.75-2.027v-0.848l-1.397,0.064c-1.117,0.041-1.93,0.215-2.42,0.52
				C173.459,795.285,173.213,795.763,173.213,796.419z"/>
			<path fill="#5B5B5F" d="M181.492,791.943c0-0.76,0.309-1.355,0.926-1.797c0.615-0.439,1.461-0.66,2.537-0.66
				c0.994,0,1.969,0.205,2.92,0.609l-0.492,1.146c-0.932-0.387-1.773-0.578-2.529-0.578c-0.67,0-1.174,0.104-1.516,0.314
				c-0.342,0.209-0.512,0.488-0.512,0.855c0,0.25,0.063,0.465,0.188,0.646c0.127,0.176,0.332,0.344,0.612,0.502
				c0.283,0.158,0.828,0.391,1.638,0.688c1.104,0.402,1.846,0.814,2.229,1.227c0.379,0.4,0.563,0.922,0.563,1.533
				c0,0.861-0.313,1.523-0.963,1.994c-0.646,0.475-1.541,0.701-2.701,0.701c-1.229,0-2.188-0.188-2.883-0.578v-1.303
				c0.442,0.23,0.926,0.404,1.438,0.535c0.514,0.131,1.008,0.195,1.479,0.195c0.736,0,1.305-0.119,1.701-0.355
				c0.396-0.234,0.598-0.594,0.598-1.076c0-0.354-0.149-0.674-0.475-0.934c-0.314-0.26-0.933-0.564-1.842-0.914
				c-0.869-0.324-1.482-0.605-1.854-0.854c-0.36-0.234-0.633-0.52-0.813-0.814C181.582,792.736,181.492,792.371,181.492,791.943z"/>
			<path fill="#5B5B5F" d="M189.865,794.388c0-1.5,0.361-2.689,1.104-3.572c0.734-0.887,1.727-1.326,2.969-1.326
				c1.162,0,2.082,0.387,2.758,1.148c0.687,0.77,1.021,1.777,1.021,3.037v0.895h-6.399c0.022,1.092,0.311,1.922,0.83,2.484
				c0.521,0.564,1.268,0.852,2.215,0.852c1,0,1.984-0.209,2.969-0.627v1.256c-0.496,0.217-0.973,0.371-1.41,0.463
				c-0.441,0.098-0.979,0.145-1.604,0.145c-1.371,0-2.453-0.42-3.248-1.26C190.264,797.041,189.865,795.876,189.865,794.388z
				 M191.344,793.419h4.873c0-0.889-0.197-1.566-0.596-2.041c-0.396-0.473-0.971-0.709-1.701-0.709
				c-0.748,0-1.346,0.242-1.791,0.729C191.686,791.886,191.422,792.558,191.344,793.419z"/>
			<path fill="#5B5B5F" d="M199.545,791.943c0-0.76,0.311-1.355,0.926-1.797c0.615-0.439,1.463-0.66,2.535-0.66
				c0.996,0,1.971,0.205,2.922,0.609l-0.492,1.146c-0.932-0.387-1.771-0.578-2.529-0.578c-0.67,0-1.176,0.104-1.516,0.314
				c-0.342,0.209-0.512,0.488-0.512,0.855c0,0.25,0.063,0.465,0.188,0.646c0.129,0.176,0.334,0.344,0.617,0.502
				c0.28,0.158,0.828,0.391,1.635,0.688c1.104,0.402,1.852,0.814,2.229,1.227c0.381,0.4,0.57,0.922,0.57,1.533
				c0,0.861-0.32,1.523-0.969,1.994c-0.646,0.475-1.543,0.701-2.697,0.701c-1.23,0-2.191-0.188-2.887-0.578v-1.303
				c0.445,0.23,0.932,0.404,1.438,0.535c0.514,0.131,1.004,0.195,1.479,0.195c0.736,0,1.313-0.119,1.701-0.355
				c0.396-0.234,0.604-0.594,0.604-1.076c0-0.354-0.156-0.674-0.479-0.934c-0.313-0.26-0.93-0.564-1.844-0.914
				c-0.865-0.324-1.482-0.605-1.848-0.854c-0.363-0.234-0.641-0.52-0.813-0.814C199.635,792.736,199.545,792.371,199.545,791.943z"
				/>
		</g>
		<rect x="53.957" y="783.505" fill="#449FA2" width="17.803" height="17.801"/>
	</g>
</g>
<path fill="#87868A" d="M65.587,535.404h-1.314v-1.527l-0.428,0.021h-0.449l-0.813-0.021v1.527h-1.314v-1.652
	c-1.77-0.266-3.146-0.895-4.146-1.885c-0.991-0.992-1.487-2.291-1.487-3.902c0-1.365,0.334-2.605,1.002-3.729l1.418,0.725
	c-0.58,1.127-0.871,2.129-0.871,3.006c0,2.166,1.361,3.52,4.086,4.057v-5.195h1.314v5.318l0.582,0.02h0.645l0.461-0.02v-4.697h1.313
	V532c1.229-0.25,2.182-0.721,2.854-1.408c0.681-0.689,1.017-1.611,1.017-2.768c0-1.063-0.229-2.109-0.688-3.148h1.521
	c0.436,0.992,0.647,2.068,0.647,3.23c0,1.607-0.452,2.902-1.366,3.887c-0.913,0.98-2.242,1.627-3.988,1.939v1.672H65.587
	L65.587,535.404z"/>
<line fill="none" stroke="#000000" stroke-width="0.25" stroke-miterlimit="10" x1="95.577" y1="458.742" x2="95.577" y2="706.771"/>
<line fill="none" stroke="#000000" stroke-width="0.25" stroke-miterlimit="10" x1="226.287" y1="706.771" x2="81.849" y2="706.771"/>
<line fill="none" stroke="#000000" stroke-width="0.25" stroke-miterlimit="10" x1="226.287" y1="458.742" x2="81.849" y2="458.742"/>
<path fill="#9A999E" d="M67.353,700.5c0-2.236,0.352-3.895,1.049-4.979c0.7-1.084,1.77-1.625,3.201-1.625
	c1.395,0,2.451,0.564,3.174,1.695c0.725,1.129,1.084,2.766,1.084,4.908c0,2.223-0.35,3.883-1.049,4.979
	c-0.699,1.098-1.77,1.645-3.209,1.645c-1.387,0-2.44-0.561-3.165-1.684C67.714,704.316,67.353,702.669,67.353,700.5z M68.847,700.5
	c0,1.865,0.22,3.223,0.658,4.072c0.438,0.852,1.139,1.275,2.098,1.275c0.972,0,1.674-0.432,2.11-1.293
	c0.436-0.861,0.652-2.213,0.652-4.057c0-1.84-0.218-3.189-0.652-4.045c-0.438-0.857-1.142-1.285-2.11-1.285
	c-0.959,0-1.658,0.424-2.098,1.268C69.067,697.283,68.847,698.636,68.847,700.5z"/>
<g>
	<path fill="#87868A" d="M70.747,599.447H55.848v-4.209c0-1.98,0.296-3.406,0.886-4.289c0.604-0.889,1.523-1.326,2.813-1.326
		c0.883,0,1.604,0.246,2.185,0.74c0.574,0.488,0.946,1.211,1.116,2.15h0.104c0.396-2.248,1.575-3.373,3.568-3.373
		c1.332,0,2.371,0.449,3.118,1.352c0.747,0.9,1.121,2.15,1.121,3.77L70.747,599.447L70.747,599.447z M62.212,597.71v-2.854
		c0-1.225-0.191-2.105-0.574-2.641c-0.383-0.537-1.021-0.814-1.938-0.814c-0.834,0-1.438,0.299-1.813,0.896
		c-0.359,0.604-0.557,1.553-0.557,2.854v2.547L62.212,597.71L62.212,597.71z M69.263,597.71v-3.104c0-1.193-0.229-2.105-0.688-2.715
		c-0.479-0.605-1.193-0.912-2.188-0.912c-0.924,0-1.604,0.313-2.038,0.938c-0.435,0.621-0.646,1.564-0.646,2.838v2.971
		L69.263,597.71L69.263,597.71z"/>
	<path fill="#87868A" d="M56.545,586.322c-0.392,0-0.673-0.088-0.854-0.268c-0.188-0.186-0.271-0.395-0.271-0.654
		c0-0.295,0.091-0.549,0.271-0.762c0.188-0.211,0.468-0.314,0.849-0.314c0.383,0,0.664,0.104,0.854,0.314
		c0.188,0.213,0.28,0.467,0.28,0.762c0,0.264-0.097,0.479-0.28,0.654C57.21,586.234,56.926,586.322,56.545,586.322z M70.747,586.179
		H59.578v-1.553h11.169V586.179z"/>
	<path fill="#87868A" d="M70.747,580.9H54.888v-1.691h15.855L70.747,580.9L70.747,580.9z"/>
	<path fill="#87868A" d="M70.747,575.621H54.888v-1.689h15.855L70.747,575.621L70.747,575.621z"/>
	<path fill="#87868A" d="M56.545,570.486c-0.392,0-0.673-0.092-0.854-0.268c-0.188-0.182-0.271-0.395-0.271-0.654
		c0-0.295,0.091-0.549,0.271-0.76c0.188-0.213,0.468-0.314,0.849-0.314c0.383,0,0.664,0.104,0.854,0.314
		c0.188,0.211,0.28,0.467,0.28,0.76c0,0.264-0.097,0.479-0.28,0.654C57.21,570.396,56.926,570.486,56.545,570.486z M70.747,570.343
		H59.578v-1.551h11.169V570.343z"/>
	<path fill="#87868A" d="M65.136,565.685c-1.813,0-3.229-0.455-4.247-1.359c-1.014-0.908-1.521-2.168-1.521-3.781
		c0-1.559,0.519-2.795,1.557-3.713c1.037-0.918,2.438-1.377,4.211-1.377c1.824,0,3.248,0.457,4.271,1.373
		c1.021,0.914,1.536,2.178,1.536,3.789c0,0.994-0.23,1.879-0.705,2.65c-0.479,0.771-1.146,1.367-2.021,1.787
		S66.308,565.685,65.136,565.685z M65.136,563.955c1.43,0,2.521-0.287,3.271-0.857c0.748-0.563,1.122-1.412,1.122-2.52
		c0-1.109-0.371-1.951-1.113-2.525c-0.745-0.572-1.839-0.855-3.273-0.855c-1.423,0-2.504,0.283-3.243,0.855
		c-0.729,0.574-1.104,1.424-1.104,2.547c0,1.107,0.358,1.943,1.093,2.516C62.601,563.669,63.698,563.955,65.136,563.955z"/>
	<path fill="#87868A" d="M70.747,552.458H59.578v-1.377l1.509-0.273v-0.082c-0.543-0.346-0.965-0.832-1.269-1.457
		c-0.309-0.625-0.443-1.32-0.443-2.088c0-1.348,0.319-2.357,0.973-3.037c0.649-0.68,1.688-1.021,3.113-1.021h7.286v1.693h-7.239
		c-0.913,0-1.594,0.207-2.043,0.621s-0.674,1.063-0.674,1.943c0,1.17,0.313,2.025,0.945,2.568c0.638,0.543,1.683,0.814,3.14,0.814
		h5.871V552.458L70.747,552.458z"/>
</g>
<g>
	<path fill="#9A999E" d="M33.351,96.087v-1.241l3.384-3.415c1.031-1.047,1.711-1.794,2.039-2.241s0.574-0.882,0.738-1.306
		c0.164-0.423,0.246-0.879,0.246-1.368c0-0.688-0.208-1.234-0.624-1.637c-0.416-0.403-0.993-0.604-1.731-0.604
		c-0.533,0-1.039,0.088-1.516,0.265c-0.478,0.177-1.009,0.498-1.595,0.962l-0.773-0.997c1.184-0.967,2.473-1.451,3.867-1.451
		c1.207,0,2.153,0.308,2.839,0.922c0.686,0.615,1.028,1.442,1.028,2.479c0,0.818-0.229,1.627-0.686,2.427s-1.313,1.812-2.566,3.036
		l-2.813,2.762v0.071h6.609v1.336H33.351z"/>
	<path fill="#9A999E" d="M43.318,98.408c0.158-0.609,0.332-1.362,0.522-2.259s0.324-1.614,0.4-2.153h1.592l0.131,0.202
		c-0.151,0.586-0.37,1.267-0.655,2.043c-0.286,0.776-0.583,1.499-0.893,2.167H43.318z"/>
	<path fill="#9A999E" d="M48.205,90.598c0-2.526,0.49-4.416,1.472-5.667c0.981-1.251,2.434-1.877,4.355-1.877
		c0.664,0,1.188,0.056,1.57,0.167v1.274c-0.453-0.17-0.971-0.255-1.553-0.255c-1.377,0-2.429,0.431-3.155,1.292
		c-0.727,0.862-1.125,2.215-1.195,4.062h0.105c0.645-0.997,1.664-1.495,3.059-1.495c1.159,0,2.073,0.348,2.742,1.043
		c0.668,0.695,1.002,1.64,1.002,2.832c0,1.333-0.366,2.382-1.099,3.145c-0.733,0.763-1.724,1.145-2.971,1.145
		c-1.33,0-2.385-0.499-3.164-1.498C48.594,93.768,48.205,92.378,48.205,90.598z M49.699,91.647c0,0.605,0.117,1.169,0.352,1.693
		c0.234,0.523,0.567,0.937,0.997,1.243c0.432,0.306,0.922,0.458,1.473,0.458c0.832,0,1.478-0.263,1.938-0.789s0.69-1.286,0.69-2.279
		c0-0.852-0.214-1.522-0.642-2.01c-0.428-0.487-1.066-0.731-1.916-0.731c-0.527,0-1.011,0.109-1.45,0.326s-0.79,0.517-1.05,0.899
		C49.829,90.839,49.699,91.236,49.699,91.647z"/>
	<path fill="#9A999E" d="M58.383,92.809c0-1.471,0.901-2.616,2.705-3.437c-0.817-0.457-1.403-0.951-1.759-1.481
		s-0.533-1.124-0.533-1.78c0-0.932,0.347-1.674,1.039-2.228s1.619-0.831,2.78-0.831c1.176,0,2.107,0.272,2.795,0.817
		c0.688,0.545,1.032,1.298,1.032,2.259c0,0.633-0.197,1.21-0.593,1.731c-0.395,0.521-1.025,0.996-1.893,1.424
		c1.049,0.498,1.794,1.021,2.235,1.569c0.442,0.548,0.663,1.182,0.663,1.903c0,1.066-0.373,1.917-1.12,2.553
		c-0.746,0.636-1.769,0.954-3.068,0.954c-1.375,0-2.433-0.3-3.174-0.901C58.753,94.762,58.383,93.911,58.383,92.809z M59.842,92.844
		c0,0.703,0.244,1.251,0.732,1.644s1.175,0.589,2.059,0.589c0.871,0,1.55-0.205,2.035-0.615s0.729-0.973,0.729-1.688
		c0-0.568-0.229-1.074-0.685-1.516s-1.252-0.872-2.387-1.288c-0.872,0.375-1.504,0.79-1.896,1.244S59.842,92.211,59.842,92.844z
		 M60.255,86.173c0,0.539,0.173,1.002,0.518,1.389s0.982,0.773,1.912,1.16c0.837-0.352,1.429-0.729,1.776-1.134
		c0.349-0.404,0.522-0.876,0.522-1.415c0-0.592-0.212-1.062-0.636-1.411c-0.425-0.349-1.008-0.523-1.75-0.523
		c-0.731,0-1.305,0.176-1.72,0.527C60.462,85.119,60.255,85.587,60.255,86.173z"/>
	<path fill="#9A999E" d="M68.657,89.641c0-2.237,0.35-3.897,1.049-4.98c0.699-1.083,1.767-1.625,3.201-1.625
		c1.393,0,2.45,0.565,3.174,1.695c0.723,1.13,1.084,2.767,1.084,4.91c0,2.222-0.35,3.881-1.049,4.978
		c-0.7,1.096-1.77,1.645-3.209,1.645c-1.388,0-2.442-0.562-3.166-1.684C69.018,93.456,68.657,91.81,68.657,89.641z M70.151,89.641
		c0,1.865,0.22,3.222,0.658,4.072c0.438,0.851,1.138,1.276,2.098,1.276c0.971,0,1.674-0.431,2.109-1.293
		c0.437-0.862,0.654-2.214,0.654-4.055c0-1.841-0.218-3.19-0.654-4.046c-0.436-0.856-1.139-1.285-2.109-1.285
		c-0.96,0-1.659,0.422-2.098,1.267C70.371,86.421,70.151,87.776,70.151,89.641z"/>
</g>
<g>
	<path fill="#FFFFFF" d="M156.67,159.958h-3.102v-8.492l0.031-1.395l0.051-1.526c-0.516,0.516-0.875,0.854-1.074,1.014l-1.688,1.355
		l-1.494-1.867l4.727-3.764h2.549V159.958z"/>
	<path fill="#FFFFFF" d="M164.52,157.799c-0.348,1.352-0.938,2.955-1.766,4.808h-2.209c0.436-1.78,0.773-3.459,1.014-5.039h2.811
		L164.52,157.799z"/>
	<path fill="#FFFFFF" d="M176.955,159.958h-10.258v-2.158l3.684-3.724c1.092-1.118,1.803-1.892,2.139-2.324
		c0.334-0.432,0.574-0.831,0.723-1.199c0.146-0.368,0.221-0.75,0.221-1.145c0-0.588-0.162-1.027-0.486-1.315
		c-0.326-0.288-0.758-0.432-1.301-0.432c-0.568,0-1.121,0.131-1.656,0.392c-0.535,0.261-1.094,0.632-1.676,1.114l-1.686-1.998
		c0.723-0.615,1.32-1.05,1.795-1.305c0.477-0.254,0.994-0.45,1.557-0.587c0.563-0.137,1.191-0.206,1.887-0.206
		c0.918,0,1.727,0.167,2.43,0.502s1.248,0.803,1.637,1.405c0.387,0.602,0.582,1.292,0.582,2.067c0,0.676-0.119,1.31-0.357,1.902
		c-0.236,0.592-0.605,1.199-1.104,1.822c-0.498,0.622-1.377,1.509-2.635,2.66l-1.887,1.777v0.14h6.393V159.958z"/>
	<path fill="#FFFFFF" d="M188.61,152.62c0,2.563-0.42,4.46-1.26,5.691c-0.84,1.231-2.133,1.847-3.881,1.847
		c-1.691,0-2.969-0.636-3.828-1.907c-0.859-1.271-1.289-3.148-1.289-5.631c0-2.589,0.418-4.498,1.254-5.726s2.125-1.842,3.863-1.842
		c1.693,0,2.973,0.642,3.84,1.927C188.176,148.264,188.61,150.145,188.61,152.62z M181.432,152.62c0,1.8,0.156,3.09,0.467,3.87
		c0.313,0.779,0.836,1.169,1.57,1.169c0.723,0,1.246-0.395,1.566-1.185c0.322-0.79,0.482-2.074,0.482-3.854
		c0-1.8-0.162-3.093-0.486-3.879c-0.326-0.786-0.846-1.179-1.563-1.179c-0.729,0-1.25,0.393-1.564,1.179
		C181.59,149.527,181.432,150.82,181.432,152.62z"/>
	<path fill="#FFFFFF" d="M191.619,159.958l5.512-12.045h-7.238v-2.609h10.529v1.947l-5.551,12.707H191.619z"/>
</g>
<g>
	<path fill="#FFFFFF" d="M156.67,286.456h-3.102v-8.492l0.031-1.395l0.051-1.526c-0.516,0.516-0.875,0.854-1.074,1.014l-1.688,1.355
		l-1.494-1.867l4.727-3.764h2.549V286.456z"/>
	<path fill="#FFFFFF" d="M164.52,284.297c-0.348,1.352-0.938,2.955-1.766,4.808h-2.209c0.436-1.78,0.773-3.459,1.014-5.039h2.811
		L164.52,284.297z"/>
	<path fill="#FFFFFF" d="M177.287,283.414h-1.768v3.042h-3.031v-3.042h-6.262v-2.158l6.434-9.475h2.859v9.224h1.768V283.414z
		 M172.489,281.005v-2.489c0-0.415,0.018-1.017,0.051-1.807s0.061-1.248,0.08-1.375h-0.08c-0.248,0.548-0.545,1.084-0.893,1.606
		l-2.691,4.065H172.489z"/>
	<path fill="#FFFFFF" d="M179.887,286.456l5.51-12.045h-7.236v-2.609h10.529v1.947l-5.551,12.707H179.887z"/>
	<path fill="#FFFFFF" d="M199.85,275.063c0,0.917-0.277,1.696-0.832,2.338c-0.557,0.643-1.336,1.084-2.34,1.325v0.06
		c1.186,0.147,2.082,0.507,2.691,1.079c0.607,0.572,0.912,1.343,0.912,2.313c0,1.412-0.512,2.511-1.535,3.297
		s-2.486,1.179-4.387,1.179c-1.592,0-3.004-0.264-4.234-0.793v-2.64c0.568,0.288,1.193,0.522,1.877,0.703
		c0.682,0.181,1.357,0.271,2.027,0.271c1.023,0,1.779-0.174,2.268-0.522s0.732-0.907,0.732-1.676c0-0.689-0.281-1.178-0.842-1.465
		c-0.563-0.288-1.459-0.432-2.691-0.432h-1.113v-2.379h1.135c1.137,0,1.969-0.149,2.494-0.447c0.525-0.297,0.787-0.808,0.787-1.531
		c0-1.11-0.695-1.666-2.088-1.666c-0.482,0-0.973,0.08-1.471,0.241s-1.053,0.438-1.66,0.833l-1.436-2.138
		c1.338-0.963,2.934-1.445,4.787-1.445c1.52,0,2.719,0.308,3.6,0.923C199.41,273.109,199.85,273.966,199.85,275.063z"/>
</g>
<g>
	<path fill="#9A999E" d="M47.537,460.331v-1.282l6.1-8.693h1.547v8.64h1.925v1.336h-1.925v2.944h-1.38v-2.944H47.537z
		 M49.013,458.995h4.79v-4.271c0-0.838,0.029-1.784,0.088-2.839h-0.07c-0.281,0.563-0.545,1.028-0.791,1.397L49.013,458.995z"/>
	<path fill="#9A999E" d="M58.295,451.761v-1.336h8.552v1.161l-5.256,11.688h-1.617l5.326-11.514H58.295z"/>
	<path fill="#9A999E" d="M68.789,457.786c0-2.526,0.49-4.415,1.472-5.667s2.434-1.878,4.355-1.878c0.664,0,1.188,0.056,1.57,0.167
		v1.274c-0.453-0.17-0.971-0.255-1.553-0.255c-1.377,0-2.429,0.431-3.155,1.292c-0.727,0.862-1.125,2.216-1.195,4.062h0.105
		c0.645-0.996,1.664-1.495,3.059-1.495c1.159,0,2.073,0.348,2.742,1.044c0.668,0.695,1.002,1.639,1.002,2.832
		c0,1.333-0.366,2.381-1.099,3.145c-0.733,0.764-1.724,1.145-2.971,1.145c-1.33,0-2.385-0.499-3.164-1.498
		C69.178,460.955,68.789,459.566,68.789,457.786z M70.283,458.835c0,0.605,0.117,1.169,0.352,1.692
		c0.234,0.522,0.567,0.937,0.997,1.243c0.432,0.305,0.922,0.458,1.473,0.458c0.832,0,1.478-0.263,1.938-0.789s0.69-1.286,0.69-2.278
		c0-0.853-0.214-1.522-0.642-2.011c-0.428-0.487-1.066-0.731-1.916-0.731c-0.527,0-1.011,0.109-1.45,0.326s-0.79,0.518-1.05,0.899
		C70.413,458.027,70.283,458.423,70.283,458.835z"/>
</g>
<g>
	<path fill="#FFFFFF" d="M168.108,527.145H157.85v-2.158l3.684-3.724c1.092-1.117,1.803-1.893,2.139-2.324
		c0.334-0.432,0.574-0.83,0.723-1.199c0.146-0.367,0.221-0.749,0.221-1.145c0-0.588-0.162-1.026-0.486-1.314
		c-0.326-0.287-0.758-0.432-1.301-0.432c-0.568,0-1.121,0.131-1.656,0.392s-1.094,0.632-1.676,1.114l-1.686-1.998
		c0.723-0.615,1.32-1.05,1.795-1.305c0.477-0.254,0.994-0.449,1.557-0.587c0.563-0.137,1.191-0.206,1.887-0.206
		c0.918,0,1.727,0.168,2.43,0.502c0.703,0.335,1.248,0.803,1.637,1.406c0.387,0.602,0.582,1.291,0.582,2.066
		c0,0.677-0.119,1.311-0.357,1.902c-0.236,0.592-0.605,1.199-1.104,1.822c-0.498,0.622-1.377,1.509-2.635,2.66l-1.887,1.776v0.14
		h6.393V527.145z"/>
	<path fill="#FFFFFF" d="M169.483,520.912c0-2.904,0.615-5.064,1.842-6.484c1.229-1.418,3.066-2.127,5.516-2.127
		c0.836,0,1.492,0.05,1.967,0.15v2.479c-0.594-0.133-1.184-0.2-1.766-0.2c-1.064,0-1.932,0.161-2.605,0.481
		c-0.672,0.321-1.176,0.797-1.51,1.426s-0.531,1.521-0.592,2.68h0.131c0.662-1.138,1.723-1.707,3.182-1.707
		c1.311,0,2.338,0.412,3.08,1.235c0.744,0.823,1.115,1.96,1.115,3.413c0,1.565-0.441,2.805-1.326,3.719
		c-0.883,0.913-2.107,1.369-3.672,1.369c-1.084,0-2.029-0.25-2.836-0.752s-1.43-1.234-1.867-2.198
		C169.701,523.431,169.483,522.271,169.483,520.912z M174.783,524.867c0.662,0,1.17-0.223,1.525-0.668
		c0.354-0.445,0.531-1.078,0.531-1.902c0-0.715-0.166-1.279-0.496-1.69c-0.332-0.411-0.832-0.618-1.5-0.618
		c-0.631,0-1.166,0.205-1.611,0.613s-0.668,0.883-0.668,1.425c0,0.796,0.209,1.47,0.627,2.018
		C173.61,524.592,174.141,524.867,174.783,524.867z"/>
	<path fill="#FFFFFF" d="M191.494,519.808c0,2.563-0.42,4.459-1.26,5.691c-0.84,1.23-2.133,1.846-3.879,1.846
		c-1.693,0-2.969-0.635-3.83-1.906c-0.859-1.271-1.289-3.148-1.289-5.631c0-2.59,0.418-4.498,1.254-5.727
		c0.838-1.229,2.125-1.842,3.865-1.842c1.693,0,2.973,0.643,3.84,1.928C191.061,515.452,191.494,517.332,191.494,519.808z
		 M184.319,519.808c0,1.8,0.154,3.09,0.467,3.869c0.311,0.779,0.834,1.17,1.57,1.17c0.723,0,1.244-0.396,1.566-1.186
		c0.32-0.789,0.48-2.074,0.48-3.854c0-1.801-0.162-3.094-0.486-3.88s-0.844-1.179-1.561-1.179c-0.729,0-1.252,0.393-1.566,1.179
		S184.319,518.007,184.319,519.808z"/>
</g>
<g>
	<path fill="#FFFFFF" d="M168.108,643.643H157.85v-2.158l3.684-3.724c1.092-1.117,1.803-1.893,2.139-2.324
		c0.334-0.432,0.574-0.83,0.723-1.199c0.146-0.367,0.221-0.749,0.221-1.145c0-0.588-0.162-1.026-0.486-1.314
		c-0.326-0.287-0.758-0.432-1.301-0.432c-0.568,0-1.121,0.131-1.656,0.392s-1.094,0.632-1.676,1.114l-1.686-1.998
		c0.723-0.615,1.32-1.05,1.795-1.305c0.477-0.254,0.994-0.449,1.557-0.587c0.563-0.137,1.191-0.206,1.887-0.206
		c0.918,0,1.727,0.168,2.43,0.502c0.703,0.335,1.248,0.803,1.637,1.406c0.387,0.602,0.582,1.291,0.582,2.066
		c0,0.677-0.119,1.311-0.357,1.902c-0.236,0.592-0.605,1.199-1.104,1.822c-0.498,0.622-1.377,1.509-2.635,2.66l-1.887,1.776v0.14
		h6.393V643.643z"/>
	<path fill="#FFFFFF" d="M177.252,643.643h-3.102v-8.491l0.029-1.396l0.051-1.526c-0.516,0.516-0.873,0.854-1.074,1.015
		l-1.686,1.354l-1.496-1.867l4.729-3.764h2.549V643.643z"/>
	<path fill="#FFFFFF" d="M181.217,637.41c0-2.904,0.613-5.064,1.842-6.484c1.227-1.418,3.066-2.127,5.516-2.127
		c0.836,0,1.492,0.05,1.967,0.15v2.479c-0.596-0.133-1.184-0.2-1.768-0.2c-1.063,0-1.932,0.161-2.604,0.481
		c-0.672,0.321-1.176,0.797-1.512,1.426c-0.334,0.629-0.531,1.521-0.592,2.68h0.131c0.662-1.138,1.723-1.707,3.182-1.707
		c1.313,0,2.34,0.412,3.082,1.235s1.113,1.96,1.113,3.413c0,1.565-0.441,2.805-1.324,3.719c-0.883,0.913-2.107,1.369-3.674,1.369
		c-1.084,0-2.029-0.25-2.836-0.752s-1.428-1.234-1.867-2.198C181.436,639.929,181.217,638.769,181.217,637.41z M186.516,641.365
		c0.662,0,1.172-0.223,1.525-0.668c0.355-0.445,0.533-1.078,0.533-1.902c0-0.715-0.166-1.279-0.498-1.69
		c-0.33-0.411-0.83-0.618-1.5-0.618c-0.629,0-1.166,0.205-1.611,0.613s-0.668,0.883-0.668,1.425c0,0.796,0.211,1.47,0.629,2.018
		C185.344,641.09,185.873,641.365,186.516,641.365z"/>
</g>
</svg>
