<?xml version="1.0" encoding="utf-8"?>
<!-- Generator: Adobe Illustrator 23.0.1, SVG Export Plug-In . SVG Version: 6.00 Build 0)  -->
<svg version="1.1" id="Capa_1" xmlns="http://www.w3.org/2000/svg" xmlns:xlink="http://www.w3.org/1999/xlink" x="0px" y="0px"
	 viewBox="0 0 292 850.4" style="enable-background:new 0 0 292 850.4;" xml:space="preserve">
<style type="text/css">
	.st0{fill:#449FA2;}
	.st1{fill:#F2C466;}
	.st2{fill:#666565;}
	.st3{fill:#9A999E;}
	.st4{fill:#87868A;}
	.st5{fill:none;stroke:#666565;stroke-width:0.25;stroke-miterlimit:10;}
	.st6{fill:#5B5B5F;}
	.st7{fill:none;stroke:#000000;stroke-width:0.25;stroke-miterlimit:10;}
	.st8{fill:#FFFFFF;}
	.st9{fill:none;stroke:#67ABAD;stroke-miterlimit:10;}
	.st10{fill:#67ABAD;}
</style>
<g>
	<rect x="125.5" y="595.7" class="st0" width="100.5" height="111.1"/>
	<rect x="125.5" y="458.7" class="st1" width="100.5" height="136.9"/>
</g>
<g>
	<rect x="125.5" y="205.3" class="st0" width="100.5" height="133.3"/>
	<rect x="125.5" y="90.5" class="st1" width="100.5" height="114.7"/>
</g>
<g>
	<path class="st2" d="M68.7,44.3c0-1.5,0.3-2.9,0.9-4.1s1.5-2.1,2.7-2.7c1.2-0.6,2.5-0.9,4.1-0.9c1.6,0,3.1,0.3,4.4,0.9l-0.7,1.5
		c-1.3-0.6-2.6-0.9-3.9-0.9c-1.8,0-3.2,0.5-4.2,1.6c-1,1.1-1.5,2.6-1.5,4.5c0,2,0.5,3.5,1.5,4.6c1,1,2.4,1.6,4.3,1.6
		c1,0,2-0.1,3-0.4v-4.6H76V44h5.1v7.3c-0.8,0.2-1.6,0.4-2.4,0.6c-0.8,0.1-1.8,0.2-2.8,0.2c-2.3,0-4-0.7-5.3-2
		C69.3,48.6,68.7,46.8,68.7,44.3z"/>
	<path class="st2" d="M84.4,51.8V35.9h1.7v15.9H84.4z"/>
	<path class="st2" d="M89.1,46.2c0-1.8,0.5-3.2,1.4-4.2c0.9-1,2.2-1.5,3.8-1.5c1.6,0,2.8,0.5,3.7,1.6c0.9,1,1.4,2.4,1.4,4.2
		c0,1.8-0.5,3.2-1.4,4.3S95.7,52,94.1,52c-1,0-1.9-0.2-2.7-0.7c-0.8-0.5-1.4-1.1-1.8-2S89.1,47.4,89.1,46.2z M90.8,46.2
		c0,1.4,0.3,2.5,0.9,3.3c0.6,0.7,1.4,1.1,2.5,1.1c1.1,0,2-0.4,2.5-1.1c0.6-0.7,0.9-1.8,0.9-3.3c0-1.4-0.3-2.5-0.9-3.2
		c-0.6-0.7-1.4-1.1-2.5-1.1c-1.1,0-1.9,0.4-2.5,1.1C91.1,43.7,90.8,44.7,90.8,46.2z"/>
	<path class="st2" d="M102.3,51.8V35.9h1.7v3.9c0,0.9,0,1.6-0.1,2.3h0.1c0.8-1.1,2-1.7,3.5-1.7c1.5,0,2.6,0.5,3.4,1.5
		c0.8,1,1.2,2.4,1.2,4.3s-0.4,3.3-1.2,4.3c-0.8,1-1.9,1.5-3.4,1.5c-0.7,0-1.4-0.1-2-0.4c-0.6-0.3-1.1-0.7-1.5-1.2h-0.1l-0.4,1.4
		L102.3,51.8L102.3,51.8z M104,46.2c0,1.6,0.3,2.7,0.8,3.4c0.5,0.7,1.4,1,2.5,1c1,0,1.8-0.4,2.3-1.1c0.5-0.8,0.8-1.8,0.8-3.3
		c0-1.5-0.3-2.5-0.8-3.3c-0.5-0.7-1.3-1.1-2.4-1.1c-1.2,0-2,0.3-2.5,1C104.2,43.5,104,44.6,104,46.2z"/>
	<path class="st2" d="M114.2,48.7c0-2.3,1.8-3.4,5.4-3.5l1.9-0.1v-0.7c0-0.9-0.2-1.5-0.6-2s-1-0.6-1.8-0.6c-0.9,0-2,0.3-3.1,0.9
		l-0.5-1.3c0.6-0.3,1.2-0.5,1.8-0.7s1.3-0.3,2-0.3c1.3,0,2.3,0.3,3,0.9c0.6,0.6,1,1.5,1,2.8v7.6H122l-0.3-1.6h-0.1
		c-0.6,0.7-1.1,1.2-1.7,1.4c-0.6,0.2-1.2,0.4-2.1,0.4c-1.1,0-2-0.3-2.6-0.9C114.6,50.6,114.2,49.8,114.2,48.7z M116,48.7
		c0,0.6,0.2,1.1,0.6,1.4c0.4,0.3,0.9,0.5,1.6,0.5c1.1,0,1.9-0.3,2.5-0.9c0.6-0.6,0.9-1.4,0.9-2.4v-1l-1.7,0.1
		c-1.4,0-2.3,0.3-2.9,0.6C116.3,47.4,116,48,116,48.7z"/>
	<path class="st2" d="M126.7,51.8V35.9h1.7v15.9H126.7z"/>
	<path class="st2" d="M136.8,46.3c0-1.8,0.4-3.2,1.3-4.3c0.9-1.1,2.1-1.6,3.6-1.6c1.4,0,2.5,0.5,3.3,1.4c0.8,0.9,1.2,2.1,1.2,3.6
		v1.1h-7.7c0,1.3,0.4,2.3,1,3c0.6,0.7,1.5,1,2.6,1c1.2,0,2.4-0.3,3.6-0.8v1.5c-0.6,0.3-1.2,0.4-1.7,0.6c-0.5,0.1-1.2,0.2-1.9,0.2
		c-1.6,0-2.9-0.5-3.9-1.5C137.2,49.5,136.8,48.1,136.8,46.3z M138.5,45.1h5.8c0-1.1-0.2-1.9-0.7-2.5c-0.5-0.6-1.2-0.9-2-0.9
		c-0.9,0-1.6,0.3-2.1,0.9C138.9,43.3,138.6,44.1,138.5,45.1z"/>
	<path class="st2" d="M148.4,43.4c0-0.9,0.4-1.6,1.1-2.2c0.7-0.5,1.8-0.8,3.1-0.8c1.2,0,2.4,0.2,3.5,0.7l-0.6,1.4
		c-1.1-0.5-2.1-0.7-3-0.7c-0.8,0-1.4,0.1-1.8,0.4c-0.4,0.3-0.6,0.6-0.6,1c0,0.3,0.1,0.6,0.2,0.8c0.1,0.2,0.4,0.4,0.7,0.6
		c0.3,0.2,1,0.5,2,0.8c1.3,0.5,2.2,1,2.7,1.5c0.5,0.5,0.7,1.1,0.7,1.8c0,1-0.4,1.8-1.1,2.4c-0.8,0.6-1.9,0.8-3.3,0.8
		c-1.5,0-2.6-0.2-3.5-0.7v-1.6c0.5,0.3,1.1,0.5,1.7,0.6c0.6,0.2,1.2,0.2,1.8,0.2c0.9,0,1.6-0.1,2-0.4c0.5-0.3,0.7-0.7,0.7-1.3
		c0-0.4-0.2-0.8-0.6-1.1c-0.4-0.3-1.1-0.7-2.2-1.1c-1-0.4-1.8-0.7-2.2-1c-0.4-0.3-0.8-0.6-1-1C148.5,44.3,148.4,43.9,148.4,43.4z"/>
	<path class="st2" d="M157.6,41.9v-0.8l1.6-0.7l0.7-2.4h1v2.6h3.2v1.3h-3.2v6.6c0,0.7,0.2,1.2,0.5,1.6s0.8,0.5,1.3,0.5
		c0.3,0,0.6,0,0.9-0.1c0.3,0,0.5-0.1,0.7-0.1v1.3c-0.2,0.1-0.5,0.2-0.8,0.2c-0.4,0.1-0.7,0.1-1,0.1c-2.2,0-3.2-1.1-3.2-3.4v-6.6
		L157.6,41.9L157.6,41.9L157.6,41.9z"/>
	<path class="st2" d="M166.3,37.6c0-0.4,0.1-0.7,0.3-0.9c0.2-0.2,0.4-0.3,0.6-0.3c0.3,0,0.6,0.1,0.8,0.3c0.2,0.2,0.3,0.5,0.3,0.8
		s-0.1,0.7-0.3,0.9s-0.5,0.3-0.8,0.3c-0.3,0-0.5-0.1-0.6-0.3C166.4,38.3,166.3,38,166.3,37.6z M166.4,51.8V40.6h1.5v11.2H166.4z"/>
	<path class="st2" d="M171.7,51.8V40.6h1.4l0.3,1.5h0.1c0.3-0.5,0.8-1,1.4-1.3c0.6-0.3,1.2-0.5,2-0.5c1.7,0,2.9,0.6,3.4,1.9h0.1
		c0.3-0.6,0.8-1,1.4-1.4c0.6-0.3,1.4-0.5,2.2-0.5c1.3,0,2.2,0.3,2.8,1c0.6,0.6,0.9,1.7,0.9,3.1v7.3h-1.7v-7.3c0-0.9-0.2-1.6-0.6-2
		c-0.4-0.4-1-0.7-1.8-0.7c-1.1,0-1.8,0.3-2.3,0.9c-0.5,0.6-0.8,1.5-0.8,2.8v6.2h-1.7v-7.3c0-0.9-0.2-1.6-0.6-2
		c-0.4-0.4-1-0.7-1.8-0.7c-1.1,0-1.8,0.3-2.3,1c-0.5,0.6-0.7,1.7-0.7,3.1v5.9L171.7,51.8L171.7,51.8z"/>
	<path class="st2" d="M190.3,48.7c0-2.3,1.8-3.4,5.4-3.5l1.9-0.1v-0.7c0-0.9-0.2-1.5-0.6-2s-1-0.6-1.8-0.6c-0.9,0-2,0.3-3.2,0.9
		l-0.5-1.3c0.6-0.3,1.1-0.5,1.8-0.7c0.7-0.2,1.3-0.3,2-0.3c1.3,0,2.3,0.3,3,0.9c0.6,0.6,1,1.5,1,2.8v7.6H198l-0.3-1.6h-0.1
		c-0.6,0.7-1.1,1.2-1.7,1.4c-0.6,0.2-1.2,0.4-2.1,0.4c-1.1,0-2-0.3-2.6-0.9C190.6,50.6,190.3,49.8,190.3,48.7z M192.1,48.7
		c0,0.6,0.2,1.1,0.6,1.4c0.4,0.3,0.9,0.5,1.6,0.5c1.1,0,1.9-0.3,2.5-0.9c0.6-0.6,0.9-1.4,0.9-2.4v-1l-1.7,0.1
		c-1.3,0-2.3,0.3-2.9,0.6C192.4,47.4,192.1,48,192.1,48.7z"/>
	<path class="st2" d="M201.2,41.9v-0.8l1.6-0.7l0.7-2.4h1v2.6h3.2v1.3h-3.2v6.6c0,0.7,0.2,1.2,0.5,1.6s0.8,0.5,1.3,0.5
		c0.3,0,0.6,0,0.9-0.1c0.3,0,0.5-0.1,0.7-0.1v1.3c-0.2,0.1-0.5,0.2-0.8,0.2c-0.4,0.1-0.7,0.1-1,0.1c-2.2,0-3.2-1.1-3.2-3.4v-6.6
		L201.2,41.9L201.2,41.9L201.2,41.9z"/>
	<path class="st2" d="M209.5,46.3c0-1.8,0.4-3.2,1.3-4.3c0.9-1.1,2.1-1.6,3.6-1.6c1.4,0,2.5,0.5,3.3,1.4c0.8,0.9,1.2,2.1,1.2,3.6
		v1.1h-7.7c0,1.3,0.4,2.3,1,3c0.6,0.7,1.5,1,2.7,1c1.2,0,2.4-0.3,3.6-0.8v1.5c-0.6,0.3-1.1,0.4-1.7,0.6c-0.5,0.1-1.2,0.2-1.9,0.2
		c-1.6,0-2.9-0.5-3.9-1.5C209.9,49.5,209.5,48.1,209.5,46.3z M211.2,45.1h5.9c0-1.1-0.2-1.9-0.7-2.5c-0.5-0.6-1.2-0.9-2-0.9
		c-0.9,0-1.6,0.3-2.1,0.9C211.6,43.3,211.3,44.1,211.2,45.1z"/>
</g>
<g>
	<path class="st3" d="M71.8,332.5c0-2.2,0.3-3.8,1-4.8c0.7-1,1.7-1.6,3.1-1.6c1.3,0,2.4,0.5,3.1,1.6c0.7,1.1,1,2.7,1,4.7
		c0,2.1-0.3,3.8-1,4.8c-0.7,1.1-1.7,1.6-3.1,1.6c-1.3,0-2.4-0.5-3.1-1.6C72.1,336.2,71.8,334.6,71.8,332.5z M73.2,332.5
		c0,1.8,0.2,3.1,0.6,3.9c0.4,0.8,1.1,1.2,2,1.2c0.9,0,1.6-0.4,2-1.3c0.4-0.8,0.6-2.1,0.6-3.9c0-1.8-0.2-3.1-0.6-3.9
		c-0.4-0.8-1.1-1.2-2-1.2c-0.9,0-1.6,0.4-2,1.2C73.4,329.4,73.2,330.7,73.2,332.5z"/>
</g>
<g>
	<path class="st4" d="M64.4,231.4H49.5v-4.2c0-2,0.3-3.4,0.9-4.3c0.6-0.9,1.5-1.3,2.8-1.3c0.9,0,1.6,0.2,2.2,0.7
		c0.6,0.5,0.9,1.2,1.1,2.2h0.1c0.4-2.2,1.6-3.4,3.6-3.4c1.3,0,2.4,0.4,3.1,1.3c0.7,0.9,1.1,2.2,1.1,3.8L64.4,231.4L64.4,231.4z
		 M55.9,229.6v-2.9c0-1.2-0.2-2.1-0.6-2.6c-0.4-0.5-1-0.8-1.9-0.8c-0.8,0-1.4,0.3-1.8,0.9c-0.4,0.6-0.6,1.6-0.6,2.9v2.5L55.9,229.6
		L55.9,229.6z M62.9,229.6v-3.1c0-1.2-0.2-2.1-0.7-2.7c-0.5-0.6-1.2-0.9-2.2-0.9c-0.9,0-1.6,0.3-2,0.9c-0.4,0.6-0.6,1.6-0.6,2.8v3
		L62.9,229.6L62.9,229.6z"/>
	<path class="st4" d="M50.2,218.3c-0.4,0-0.7-0.1-0.9-0.3c-0.2-0.2-0.3-0.4-0.3-0.7c0-0.3,0.1-0.5,0.3-0.8c0.2-0.2,0.5-0.3,0.8-0.3
		s0.7,0.1,0.9,0.3c0.2,0.2,0.3,0.5,0.3,0.8c0,0.3-0.1,0.5-0.3,0.7C50.9,218.2,50.6,218.3,50.2,218.3z M64.4,218.1H53.3v-1.5h11.2
		V218.1z"/>
	<path class="st4" d="M64.4,212.8H48.6v-1.7h15.9L64.4,212.8L64.4,212.8z"/>
	<path class="st4" d="M64.4,207.6H48.6v-1.7h15.9L64.4,207.6L64.4,207.6z"/>
	<path class="st4" d="M50.2,202.4c-0.4,0-0.7-0.1-0.9-0.3c-0.2-0.2-0.3-0.4-0.3-0.7c0-0.3,0.1-0.5,0.3-0.8c0.2-0.2,0.5-0.3,0.8-0.3
		s0.7,0.1,0.9,0.3c0.2,0.2,0.3,0.5,0.3,0.8c0,0.3-0.1,0.5-0.3,0.7C50.9,202.3,50.6,202.4,50.2,202.4z M64.4,202.3H53.3v-1.6h11.2
		V202.3z"/>
	<path class="st4" d="M58.8,197.6c-1.8,0-3.2-0.5-4.2-1.4c-1-0.9-1.5-2.2-1.5-3.8c0-1.6,0.5-2.8,1.6-3.7c1-0.9,2.4-1.4,4.2-1.4
		c1.8,0,3.2,0.5,4.3,1.4c1,0.9,1.5,2.2,1.5,3.8c0,1-0.2,1.9-0.7,2.7c-0.5,0.8-1.1,1.4-2,1.8C61,197.4,60,197.6,58.8,197.6z
		 M58.8,195.9c1.4,0,2.5-0.3,3.3-0.9c0.7-0.6,1.1-1.4,1.1-2.5s-0.4-2-1.1-2.5c-0.7-0.6-1.8-0.9-3.3-0.9c-1.4,0-2.5,0.3-3.2,0.9
		c-0.7,0.6-1.1,1.4-1.1,2.5c0,1.1,0.4,1.9,1.1,2.5C56.3,195.6,57.4,195.9,58.8,195.9z"/>
	<path class="st4" d="M64.4,184.4H53.3V183l1.5-0.3v-0.1c-0.5-0.3-1-0.8-1.3-1.5c-0.3-0.6-0.4-1.3-0.4-2.1c0-1.3,0.3-2.4,1-3
		c0.6-0.7,1.7-1,3.1-1h7.3v1.7h-7.2c-0.9,0-1.6,0.2-2,0.6c-0.4,0.4-0.7,1.1-0.7,1.9c0,1.2,0.3,2,1,2.6c0.6,0.5,1.7,0.8,3.1,0.8h5.9
		V184.4z"/>
	<path class="st4" d="M59.3,167.3h-1.3v-1.5l-0.4,0h-0.4l-0.8,0v1.5h-1.3v-1.7c-1.8-0.3-3.1-0.9-4.1-1.9c-1-1-1.5-2.3-1.5-3.9
		c0-1.4,0.3-2.6,1-3.7l1.4,0.7c-0.6,1.1-0.9,2.1-0.9,3c0,2.2,1.4,3.5,4.1,4.1v-5.2h1.3v5.3l0.6,0h0.7l0.5,0v-4.7h1.3v4.6
		c1.2-0.3,2.2-0.7,2.9-1.4c0.7-0.7,1-1.6,1-2.8c0-1.1-0.2-2.1-0.7-3.1H64c0.4,1,0.7,2.1,0.7,3.2c0,1.6-0.5,2.9-1.4,3.9
		c-0.9,1-2.2,1.6-4,1.9L59.3,167.3L59.3,167.3z"/>
</g>
<line class="st5" x1="95.7" y1="90.7" x2="95.7" y2="338.7"/>
<line class="st5" x1="226.4" y1="338.7" x2="82" y2="338.7"/>
<line class="st5" x1="226.4" y1="90.7" x2="82" y2="90.7"/>
<g>
	<path class="st2" d="M77.4,418.8v-14.9h8.3v1.5h-6.6v4.8h6.2v1.5h-6.2v5.5h6.6v1.5L77.4,418.8L77.4,418.8z"/>
	<path class="st2" d="M88.9,413.5v-9.6h1.7v9.7c0,1.2,0.3,2.2,1,2.9c0.7,0.7,1.7,1,3,1c1.3,0,2.2-0.3,2.9-1c0.7-0.7,1-1.6,1-2.9
		v-9.7h1.7v9.6c0,1.7-0.5,3-1.5,4c-1,1-2.4,1.5-4.2,1.5c-1.8,0-3.2-0.5-4.2-1.5C89.4,416.6,88.9,415.3,88.9,413.5z"/>
	<path class="st2" d="M103.2,418.8v-1.4l3.9-4c1.2-1.2,2-2.1,2.4-2.6c0.4-0.5,0.7-1,0.9-1.5c0.2-0.5,0.3-1,0.3-1.6
		c0-0.8-0.2-1.4-0.7-1.9c-0.5-0.5-1.2-0.7-2-0.7c-0.6,0-1.2,0.1-1.8,0.3c-0.6,0.2-1.2,0.6-1.8,1.1l-0.9-1.2c1.4-1.1,2.9-1.7,4.5-1.7
		c1.4,0,2.5,0.4,3.3,1.1c0.8,0.7,1.2,1.7,1.2,2.9c0,0.9-0.3,1.9-0.8,2.8c-0.5,0.9-1.5,2.1-3,3.5l-3.3,3.2v0.1h7.7v1.5L103.2,418.8
		L103.2,418.8L103.2,418.8L103.2,418.8z"/>
	<path class="st2" d="M115.2,415c0-1.7,1-3,3.1-4c-0.9-0.5-1.6-1.1-2-1.7s-0.6-1.3-0.6-2.1c0-1.1,0.4-1.9,1.2-2.6
		c0.8-0.6,1.9-1,3.2-1c1.4,0,2.4,0.3,3.2,0.9c0.8,0.6,1.2,1.5,1.2,2.6c0,0.7-0.2,1.4-0.7,2c-0.5,0.6-1.2,1.2-2.2,1.7
		c1.2,0.6,2.1,1.2,2.6,1.8c0.5,0.6,0.8,1.4,0.8,2.2c0,1.2-0.4,2.2-1.3,3c-0.9,0.7-2.1,1.1-3.6,1.1c-1.6,0-2.8-0.3-3.7-1
		C115.6,417.3,115.2,416.3,115.2,415z M116.9,415.1c0,0.8,0.3,1.5,0.8,1.9c0.6,0.5,1.4,0.7,2.4,0.7c1,0,1.8-0.2,2.4-0.7
		c0.6-0.5,0.8-1.1,0.8-2c0-0.7-0.3-1.2-0.8-1.8c-0.5-0.5-1.4-1-2.8-1.5c-1,0.4-1.7,0.9-2.2,1.4S116.9,414.4,116.9,415.1z
		 M117.4,407.3c0,0.6,0.2,1.2,0.6,1.6c0.4,0.4,1.1,0.9,2.2,1.3c1-0.4,1.7-0.8,2.1-1.3c0.4-0.5,0.6-1,0.6-1.6c0-0.7-0.2-1.2-0.7-1.6
		c-0.5-0.4-1.2-0.6-2-0.6c-0.9,0-1.5,0.2-2,0.6C117.6,406.1,117.4,406.7,117.4,407.3z"/>
	<path class="st2" d="M132.7,413.4c0-1.8,0.4-3.2,1.3-4.3c0.9-1.1,2.1-1.6,3.6-1.6c1.4,0,2.5,0.5,3.3,1.4c0.8,0.9,1.2,2.1,1.2,3.6
		v1.1h-7.7c0,1.3,0.4,2.3,1,3c0.6,0.7,1.5,1,2.7,1c1.2,0,2.4-0.3,3.6-0.8v1.5c-0.6,0.3-1.2,0.4-1.7,0.6c-0.5,0.1-1.2,0.2-1.9,0.2
		c-1.6,0-2.9-0.5-3.9-1.5C133.1,416.5,132.7,415.1,132.7,413.4z M134.4,412.2h5.8c0-1.1-0.2-1.9-0.7-2.5c-0.5-0.6-1.2-0.9-2-0.9
		c-0.9,0-1.6,0.3-2.1,0.9C134.8,410.3,134.5,411.2,134.4,412.2z"/>
	<path class="st2" d="M144.3,410.4c0-0.9,0.4-1.6,1.1-2.2c0.7-0.5,1.8-0.8,3-0.8c1.2,0,2.4,0.2,3.5,0.7l-0.6,1.4
		c-1.1-0.5-2.1-0.7-3-0.7c-0.8,0-1.4,0.1-1.8,0.4c-0.4,0.3-0.6,0.6-0.6,1c0,0.3,0.1,0.6,0.2,0.8c0.1,0.2,0.4,0.4,0.7,0.6
		c0.3,0.2,1,0.5,2,0.8c1.3,0.5,2.2,1,2.7,1.5c0.5,0.5,0.7,1.1,0.7,1.9c0,1-0.4,1.8-1.2,2.4c-0.8,0.6-1.9,0.8-3.2,0.8
		c-1.5,0-2.6-0.2-3.5-0.7v-1.6c0.5,0.3,1.1,0.5,1.7,0.6c0.6,0.2,1.2,0.2,1.8,0.2c0.9,0,1.6-0.1,2-0.4c0.5-0.3,0.7-0.7,0.7-1.3
		c0-0.4-0.2-0.8-0.6-1.1c-0.4-0.3-1.1-0.7-2.2-1.1c-1-0.4-1.8-0.7-2.2-1c-0.4-0.3-0.8-0.6-1-1C144.4,411.4,144.3,410.9,144.3,410.4z
		"/>
	<path class="st2" d="M153.5,409v-0.8l1.6-0.7l0.7-2.4h1v2.6h3.2v1.3h-3.2v6.6c0,0.7,0.2,1.2,0.5,1.6c0.3,0.4,0.8,0.5,1.3,0.5
		c0.3,0,0.6,0,0.9-0.1c0.3,0,0.5-0.1,0.7-0.1v1.3c-0.2,0.1-0.5,0.2-0.8,0.2c-0.4,0.1-0.7,0.1-1,0.1c-2.2,0-3.2-1.1-3.2-3.4V409
		L153.5,409L153.5,409L153.5,409z"/>
	<path class="st2" d="M162.2,404.6c0-0.4,0.1-0.7,0.3-0.9c0.2-0.2,0.4-0.3,0.7-0.3c0.3,0,0.5,0.1,0.8,0.3c0.2,0.2,0.3,0.5,0.3,0.8
		c0,0.4-0.1,0.7-0.3,0.9c-0.2,0.2-0.5,0.3-0.8,0.3c-0.3,0-0.5-0.1-0.7-0.3C162.3,405.3,162.2,405,162.2,404.6z M162.3,418.8v-11.2
		h1.5v11.2H162.3z"/>
	<path class="st2" d="M167.6,418.8v-11.2h1.4l0.3,1.5h0.1c0.3-0.5,0.8-1,1.4-1.3c0.6-0.3,1.2-0.5,2-0.5c1.7,0,2.9,0.6,3.4,1.9h0.1
		c0.3-0.6,0.8-1,1.4-1.4c0.6-0.3,1.4-0.5,2.2-0.5c1.3,0,2.2,0.3,2.8,1c0.6,0.6,0.9,1.7,0.9,3.1v7.3h-1.7v-7.3c0-0.9-0.2-1.6-0.6-2
		c-0.4-0.4-1-0.7-1.8-0.7c-1.1,0-1.8,0.3-2.3,0.9c-0.5,0.6-0.8,1.5-0.8,2.8v6.2h-1.7v-7.3c0-0.9-0.2-1.6-0.6-2
		c-0.4-0.4-1-0.7-1.8-0.7c-1.1,0-1.8,0.3-2.3,1c-0.5,0.6-0.7,1.7-0.7,3.1v5.9L167.6,418.8L167.6,418.8z"/>
	<path class="st2" d="M186.2,415.8c0-2.3,1.8-3.4,5.4-3.5l1.9-0.1v-0.7c0-0.9-0.2-1.5-0.6-2c-0.4-0.4-1-0.6-1.8-0.6
		c-0.9,0-2,0.3-3.1,0.9l-0.5-1.3c0.6-0.3,1.2-0.5,1.8-0.7c0.6-0.2,1.3-0.3,2-0.3c1.3,0,2.3,0.3,3,0.9c0.6,0.6,1,1.5,1,2.8v7.6h-1.3
		l-0.3-1.6h-0.1c-0.6,0.7-1.1,1.2-1.7,1.4c-0.6,0.2-1.2,0.4-2.1,0.4c-1.1,0-2-0.3-2.6-0.9C186.5,417.6,186.2,416.8,186.2,415.8z
		 M188,415.8c0,0.6,0.2,1.1,0.6,1.4c0.4,0.3,0.9,0.5,1.6,0.5c1.1,0,1.9-0.3,2.5-0.9c0.6-0.6,0.9-1.4,0.9-2.4v-1l-1.7,0.1
		c-1.3,0-2.3,0.3-2.9,0.6C188.3,414.4,188,415,188,415.8z"/>
	<path class="st2" d="M197.1,409v-0.8l1.6-0.7l0.7-2.4h1v2.6h3.2v1.3h-3.2v6.6c0,0.7,0.2,1.2,0.5,1.6c0.3,0.4,0.8,0.5,1.3,0.5
		c0.3,0,0.6,0,0.9-0.1c0.3,0,0.5-0.1,0.7-0.1v1.3c-0.2,0.1-0.5,0.2-0.8,0.2c-0.4,0.1-0.7,0.1-1,0.1c-2.2,0-3.2-1.1-3.2-3.4V409
		L197.1,409L197.1,409L197.1,409z"/>
	<path class="st2" d="M205.4,413.4c0-1.8,0.4-3.2,1.3-4.3c0.9-1.1,2.1-1.6,3.6-1.6c1.4,0,2.5,0.5,3.3,1.4c0.8,0.9,1.2,2.1,1.2,3.6
		v1.1h-7.7c0,1.3,0.4,2.3,1,3c0.6,0.7,1.5,1,2.6,1c1.2,0,2.4-0.3,3.6-0.8v1.5c-0.6,0.3-1.2,0.4-1.7,0.6c-0.5,0.1-1.2,0.2-1.9,0.2
		c-1.6,0-2.9-0.5-3.9-1.5C205.8,416.5,205.4,415.1,205.4,413.4z M207.1,412.2h5.9c0-1.1-0.2-1.9-0.7-2.5c-0.5-0.6-1.2-0.9-2-0.9
		c-0.9,0-1.6,0.3-2.1,0.9C207.5,410.3,207.2,411.2,207.1,412.2z"/>
</g>
<g id="legend">
	<g>
		<g>
			<path class="st6" d="M83,765c0-1.3,0.2-2.4,0.7-3.4c0.5-1,1.2-1.7,2.1-2.2c0.9-0.5,2-0.8,3.2-0.8c1.3,0,2.4,0.2,3.4,0.7l-0.6,1.2
				c-0.9-0.4-1.9-0.7-2.8-0.7c-1.4,0-2.4,0.5-3.2,1.4c-0.8,0.9-1.2,2.2-1.2,3.7c0,1.6,0.4,2.9,1.1,3.8c0.8,0.9,1.8,1.3,3.3,1.3
				c0.9,0,1.9-0.2,3-0.5v1.3c-0.9,0.3-1.9,0.5-3.2,0.5c-1.8,0-3.2-0.6-4.2-1.7C83.5,768.7,83,767.1,83,765z"/>
			<path class="st6" d="M93.9,766.6c0-1.5,0.4-2.7,1.1-3.5c0.8-0.8,1.8-1.3,3.1-1.3c1.3,0,2.3,0.4,3.1,1.3c0.8,0.9,1.1,2,1.1,3.5
				c0,1.5-0.4,2.7-1.1,3.6c-0.8,0.9-1.8,1.3-3.2,1.3c-0.8,0-1.6-0.2-2.2-0.6c-0.6-0.4-1.1-1-1.5-1.7C94,768.4,93.9,767.6,93.9,766.6
				z M95.3,766.6c0,1.2,0.2,2.1,0.7,2.7c0.5,0.6,1.2,0.9,2.1,0.9s1.6-0.3,2.1-0.9c0.5-0.6,0.7-1.5,0.7-2.7c0-1.2-0.2-2.1-0.7-2.7
				c-0.5-0.6-1.2-0.9-2.1-0.9c-0.9,0-1.6,0.3-2.1,0.9C95.5,764.5,95.3,765.4,95.3,766.6z"/>
			<path class="st6" d="M104.3,764.3c0-0.8,0.3-1.4,0.9-1.8c0.6-0.4,1.5-0.7,2.5-0.7c1,0,2,0.2,2.9,0.6l-0.5,1.1
				c-0.9-0.4-1.8-0.6-2.5-0.6c-0.7,0-1.2,0.1-1.5,0.3s-0.5,0.5-0.5,0.9c0,0.3,0.1,0.5,0.2,0.6c0.1,0.2,0.3,0.3,0.6,0.5
				c0.3,0.2,0.8,0.4,1.6,0.7c1.1,0.4,1.9,0.8,2.2,1.2c0.4,0.4,0.6,0.9,0.6,1.5c0,0.9-0.3,1.5-1,2c-0.6,0.5-1.5,0.7-2.7,0.7
				c-1.2,0-2.2-0.2-2.9-0.6v-1.3c0.4,0.2,0.9,0.4,1.4,0.5c0.5,0.1,1,0.2,1.5,0.2c0.7,0,1.3-0.1,1.7-0.4c0.4-0.2,0.6-0.6,0.6-1.1
				c0-0.4-0.2-0.7-0.5-0.9c-0.3-0.3-0.9-0.6-1.8-0.9c-0.9-0.3-1.5-0.6-1.9-0.8c-0.4-0.2-0.6-0.5-0.8-0.8
				C104.4,765,104.3,764.7,104.3,764.3z"/>
			<path class="st6" d="M112,763.1v-0.7l1.3-0.6l0.6-2h0.8v2.2h2.7v1.1h-2.7v5.5c0,0.6,0.1,1,0.4,1.3c0.3,0.3,0.6,0.4,1.1,0.4
				c0.3,0,0.5,0,0.7-0.1c0.2,0,0.4-0.1,0.6-0.1v1.1c-0.2,0.1-0.4,0.1-0.7,0.2c-0.3,0-0.6,0.1-0.8,0.1c-1.8,0-2.7-0.9-2.7-2.9v-5.5
				L112,763.1L112,763.1z"/>
			<path class="st6" d="M123.8,771.3V762h1.1l0.2,1.3h0.1c0.3-0.5,0.7-0.8,1.2-1.1c0.5-0.3,1.1-0.4,1.7-0.4c1.1,0,2,0.3,2.5,0.8
				c0.6,0.5,0.9,1.4,0.9,2.6v6.1h-1.4v-6c0-0.8-0.2-1.3-0.5-1.7c-0.3-0.4-0.9-0.6-1.6-0.6c-1,0-1.7,0.3-2.1,0.8
				c-0.5,0.5-0.7,1.4-0.7,2.6v4.9L123.8,771.3L123.8,771.3L123.8,771.3z"/>
			<path class="st6" d="M134,766.6c0-1.5,0.4-2.7,1.1-3.5c0.8-0.8,1.8-1.3,3.1-1.3c1.3,0,2.3,0.4,3.1,1.3c0.8,0.9,1.1,2,1.1,3.5
				c0,1.5-0.4,2.7-1.1,3.6c-0.8,0.9-1.8,1.3-3.2,1.3c-0.8,0-1.6-0.2-2.2-0.6c-0.6-0.4-1.1-1-1.5-1.7
				C134.2,768.4,134,767.6,134,766.6z M135.4,766.6c0,1.2,0.2,2.1,0.7,2.7c0.5,0.6,1.2,0.9,2.1,0.9s1.6-0.3,2.1-0.9
				c0.5-0.6,0.7-1.5,0.7-2.7c0-1.2-0.2-2.1-0.7-2.7c-0.5-0.6-1.2-0.9-2.1-0.9c-0.9,0-1.6,0.3-2.1,0.9
				C135.7,764.5,135.4,765.4,135.4,766.6z"/>
			<path class="st6" d="M145,771.3V762h1.1l0.2,1.3h0.1c0.3-0.5,0.7-0.8,1.2-1.1c0.5-0.3,1.1-0.4,1.7-0.4c1.1,0,2,0.3,2.5,0.8
				c0.6,0.5,0.9,1.4,0.9,2.6v6.1h-1.4v-6c0-0.8-0.2-1.3-0.5-1.7c-0.4-0.4-0.9-0.6-1.6-0.6c-1,0-1.7,0.3-2.1,0.8
				c-0.5,0.5-0.7,1.4-0.7,2.6v4.9L145,771.3L145,771.3L145,771.3z"/>
			<path class="st6" d="M154.9,767.3V766h4.2v1.3H154.9z"/>
			<path class="st6" d="M160,763.1v-0.6l1.7-0.5v-0.5c0-2.3,1-3.4,3-3.4c0.5,0,1.1,0.1,1.7,0.3l-0.4,1.1c-0.5-0.2-1-0.3-1.4-0.3
				c-0.5,0-0.9,0.2-1.2,0.5c-0.3,0.4-0.4,0.9-0.4,1.7v0.6h2.4v1.1h-2.4v8.2h-1.4V763L160,763.1L160,763.1z"/>
			<path class="st6" d="M166.5,768.7c0-1.9,1.5-2.9,4.5-2.9l1.6-0.1v-0.6c0-0.7-0.2-1.3-0.5-1.6c-0.3-0.4-0.8-0.5-1.5-0.5
				c-0.8,0-1.6,0.2-2.6,0.7l-0.4-1.1c0.5-0.2,1-0.4,1.5-0.6c0.5-0.1,1.1-0.2,1.6-0.2c1.1,0,1.9,0.2,2.5,0.7c0.5,0.5,0.8,1.3,0.8,2.4
				v6.4h-1l-0.3-1.3h-0.1c-0.5,0.6-0.9,1-1.4,1.2c-0.5,0.2-1,0.3-1.7,0.3c-0.9,0-1.6-0.2-2.2-0.7
				C166.8,770.3,166.5,769.6,166.5,768.7z M168,768.7c0,0.5,0.2,0.9,0.5,1.2c0.3,0.3,0.7,0.4,1.3,0.4c0.9,0,1.6-0.2,2.1-0.7
				c0.5-0.5,0.8-1.2,0.8-2v-0.8l-1.4,0.1c-1.1,0-1.9,0.2-2.4,0.5C168.2,767.6,168,768.1,168,768.7z"/>
			<path class="st6" d="M175.6,763.1v-0.7l1.3-0.6l0.6-2h0.8v2.2h2.7v1.1h-2.7v5.5c0,0.6,0.1,1,0.4,1.3c0.3,0.3,0.6,0.4,1.1,0.4
				c0.2,0,0.5,0,0.7-0.1c0.2,0,0.4-0.1,0.6-0.1v1.1c-0.2,0.1-0.4,0.1-0.7,0.2c-0.3,0-0.6,0.1-0.8,0.1c-1.8,0-2.7-0.9-2.7-2.9v-5.5
				L175.6,763.1L175.6,763.1z"/>
			<path class="st6" d="M182.3,768.7c0-1.9,1.5-2.9,4.5-2.9l1.6-0.1v-0.6c0-0.7-0.1-1.3-0.5-1.6c-0.3-0.4-0.8-0.5-1.5-0.5
				c-0.8,0-1.6,0.2-2.6,0.7l-0.4-1.1c0.5-0.2,1-0.4,1.5-0.6c0.6-0.1,1.1-0.2,1.6-0.2c1.1,0,1.9,0.2,2.5,0.7c0.5,0.5,0.8,1.3,0.8,2.4
				v6.4h-1l-0.3-1.3h-0.1c-0.5,0.6-0.9,1-1.4,1.2c-0.5,0.2-1,0.3-1.7,0.3c-0.9,0-1.6-0.2-2.2-0.7
				C182.6,770.3,182.3,769.6,182.3,768.7z M183.8,768.7c0,0.5,0.1,0.9,0.5,1.2c0.3,0.3,0.7,0.4,1.3,0.4c0.9,0,1.6-0.2,2.1-0.7
				c0.5-0.5,0.8-1.2,0.8-2v-0.8l-1.4,0.1c-1.1,0-1.9,0.2-2.4,0.5C184,767.6,183.8,768.1,183.8,768.7z"/>
			<path class="st6" d="M192.7,771.3v-13.2h1.4v13.2H192.7z"/>
			<path class="st6" d="M201.1,766.7c0-1.6,0.4-2.8,1.1-3.6c0.7-0.8,1.8-1.3,3.2-1.3c0.4,0,0.9,0,1.3,0.1c0.4,0.1,0.8,0.2,1.1,0.3
				l-0.4,1.2c-0.3-0.1-0.6-0.2-1-0.3c-0.4-0.1-0.7-0.1-1-0.1c-1.9,0-2.8,1.2-2.8,3.6c0,1.1,0.2,2,0.7,2.6c0.5,0.6,1.1,0.9,2.1,0.9
				c0.8,0,1.6-0.2,2.4-0.5v1.3c-0.6,0.3-1.4,0.5-2.4,0.5c-1.4,0-2.4-0.4-3.1-1.2C201.4,769.4,201.1,768.2,201.1,766.7z"/>
			<path class="st6" d="M209.2,768.7c0-1.9,1.5-2.9,4.5-2.9l1.6-0.1v-0.6c0-0.7-0.2-1.3-0.5-1.6c-0.3-0.4-0.8-0.5-1.5-0.5
				c-0.8,0-1.6,0.2-2.6,0.7l-0.4-1.1c0.5-0.2,1-0.4,1.5-0.6c0.5-0.1,1.1-0.2,1.6-0.2c1.1,0,1.9,0.2,2.5,0.7c0.5,0.5,0.8,1.3,0.8,2.4
				v6.4h-1l-0.3-1.3h-0.1c-0.5,0.6-0.9,1-1.4,1.2c-0.5,0.2-1,0.3-1.7,0.3c-0.9,0-1.7-0.2-2.2-0.7
				C209.4,770.3,209.2,769.6,209.2,768.7z M210.7,768.7c0,0.5,0.1,0.9,0.5,1.2c0.3,0.3,0.7,0.4,1.3,0.4c0.9,0,1.6-0.2,2.1-0.7
				c0.5-0.5,0.8-1.2,0.8-2v-0.8l-1.4,0.1c-1.1,0-1.9,0.2-2.4,0.5C210.9,767.6,210.7,768.1,210.7,768.7z"/>
			<path class="st6" d="M218.9,764.3c0-0.8,0.3-1.4,0.9-1.8c0.6-0.4,1.5-0.7,2.5-0.7c1,0,2,0.2,2.9,0.6l-0.5,1.1
				c-0.9-0.4-1.8-0.6-2.5-0.6c-0.7,0-1.2,0.1-1.5,0.3c-0.4,0.2-0.5,0.5-0.5,0.9c0,0.3,0.1,0.5,0.2,0.6c0.1,0.2,0.3,0.3,0.6,0.5
				c0.3,0.2,0.8,0.4,1.6,0.7c1.1,0.4,1.9,0.8,2.2,1.2c0.4,0.4,0.6,0.9,0.6,1.5c0,0.9-0.3,1.5-1,2c-0.6,0.5-1.5,0.7-2.7,0.7
				c-1.2,0-2.2-0.2-2.9-0.6v-1.3c0.4,0.2,0.9,0.4,1.4,0.5c0.5,0.1,1,0.2,1.5,0.2c0.7,0,1.3-0.1,1.7-0.4c0.4-0.2,0.6-0.6,0.6-1.1
				c0-0.4-0.2-0.7-0.5-0.9c-0.3-0.3-0.9-0.6-1.9-0.9c-0.9-0.3-1.5-0.6-1.8-0.8c-0.4-0.2-0.6-0.5-0.8-0.8
				C219,765,218.9,764.7,218.9,764.3z"/>
			<path class="st6" d="M227.3,766.7c0-1.5,0.4-2.7,1.1-3.6c0.7-0.9,1.7-1.3,3-1.3c1.2,0,2.1,0.4,2.8,1.1c0.7,0.8,1,1.8,1,3v0.9
				h-6.4c0,1.1,0.3,1.9,0.8,2.5c0.5,0.6,1.3,0.9,2.2,0.9c1,0,2-0.2,3-0.6v1.3c-0.5,0.2-1,0.4-1.4,0.5c-0.4,0.1-1,0.1-1.6,0.1
				c-1.4,0-2.5-0.4-3.2-1.3C227.7,769.4,227.3,768.2,227.3,766.7z M228.8,765.7h4.9c0-0.9-0.2-1.6-0.6-2c-0.4-0.5-1-0.7-1.7-0.7
				c-0.7,0-1.4,0.2-1.8,0.7C229.1,764.2,228.9,764.9,228.8,765.7z"/>
			<path class="st6" d="M237,764.3c0-0.8,0.3-1.4,0.9-1.8c0.6-0.4,1.5-0.7,2.5-0.7c1,0,2,0.2,2.9,0.6l-0.5,1.1
				c-0.9-0.4-1.8-0.6-2.5-0.6c-0.7,0-1.2,0.1-1.5,0.3s-0.5,0.5-0.5,0.9c0,0.3,0.1,0.5,0.2,0.6c0.1,0.2,0.3,0.3,0.6,0.5
				c0.3,0.2,0.8,0.4,1.6,0.7c1.1,0.4,1.8,0.8,2.2,1.2c0.4,0.4,0.6,0.9,0.6,1.5c0,0.9-0.3,1.5-1,2c-0.6,0.5-1.5,0.7-2.7,0.7
				c-1.2,0-2.2-0.2-2.9-0.6v-1.3c0.4,0.2,0.9,0.4,1.4,0.5c0.5,0.1,1,0.2,1.5,0.2c0.7,0,1.3-0.1,1.7-0.4c0.4-0.2,0.6-0.6,0.6-1.1
				c0-0.4-0.1-0.7-0.5-0.9c-0.3-0.3-0.9-0.6-1.8-0.9c-0.9-0.3-1.5-0.6-1.9-0.8c-0.4-0.2-0.6-0.5-0.8-0.8
				C237.1,765,237,764.7,237,764.3z"/>
		</g>
		<rect x="54" y="755.8" class="st1" width="17.8" height="17.8"/>
	</g>
	<g>
		<g>
			<path class="st6" d="M83,792.7c0-1.3,0.2-2.4,0.7-3.4c0.5-1,1.2-1.7,2.1-2.2c0.9-0.5,2-0.8,3.2-0.8c1.3,0,2.4,0.2,3.4,0.7
				l-0.6,1.2c-0.9-0.4-1.9-0.7-2.8-0.7c-1.4,0-2.4,0.5-3.2,1.4c-0.8,0.9-1.2,2.1-1.2,3.7c0,1.6,0.4,2.9,1.1,3.8
				c0.8,0.9,1.8,1.3,3.3,1.3c0.9,0,1.9-0.1,3-0.5v1.3c-0.9,0.3-1.9,0.5-3.2,0.5c-1.8,0-3.2-0.6-4.2-1.7
				C83.5,796.4,83,794.8,83,792.7z"/>
			<path class="st6" d="M93.9,794.3c0-1.5,0.4-2.7,1.1-3.5c0.8-0.8,1.8-1.3,3.1-1.3c1.3,0,2.3,0.4,3.1,1.3c0.8,0.9,1.1,2,1.1,3.5
				c0,1.5-0.4,2.7-1.1,3.6c-0.8,0.9-1.8,1.3-3.2,1.3c-0.8,0-1.6-0.2-2.2-0.6c-0.6-0.4-1.1-1-1.5-1.7C94,796.1,93.9,795.3,93.9,794.3
				z M95.3,794.3c0,1.2,0.2,2.1,0.7,2.7c0.5,0.6,1.2,0.9,2.1,0.9s1.6-0.3,2.1-0.9c0.5-0.6,0.7-1.5,0.7-2.7c0-1.2-0.2-2.1-0.7-2.7
				c-0.5-0.6-1.2-0.9-2.1-0.9c-0.9,0-1.6,0.3-2.1,0.9C95.5,792.2,95.3,793.1,95.3,794.3z"/>
			<path class="st6" d="M104.3,791.9c0-0.8,0.3-1.4,0.9-1.8c0.6-0.4,1.5-0.7,2.5-0.7c1,0,2,0.2,2.9,0.6l-0.5,1.1
				c-0.9-0.4-1.8-0.6-2.5-0.6c-0.7,0-1.2,0.1-1.5,0.3c-0.3,0.2-0.5,0.5-0.5,0.9c0,0.3,0.1,0.5,0.2,0.6c0.1,0.2,0.3,0.3,0.6,0.5
				c0.3,0.2,0.8,0.4,1.6,0.7c1.1,0.4,1.9,0.8,2.2,1.2c0.4,0.4,0.6,0.9,0.6,1.5c0,0.9-0.3,1.5-1,2c-0.6,0.5-1.5,0.7-2.7,0.7
				c-1.2,0-2.2-0.2-2.9-0.6v-1.3c0.4,0.2,0.9,0.4,1.4,0.5c0.5,0.1,1,0.2,1.5,0.2c0.7,0,1.3-0.1,1.7-0.4c0.4-0.2,0.6-0.6,0.6-1.1
				c0-0.4-0.2-0.7-0.5-0.9c-0.3-0.3-0.9-0.6-1.8-0.9c-0.9-0.3-1.5-0.6-1.9-0.9c-0.4-0.2-0.6-0.5-0.8-0.8
				C104.4,792.7,104.3,792.4,104.3,791.9z"/>
			<path class="st6" d="M112,790.8v-0.7l1.3-0.6l0.6-2h0.8v2.2h2.7v1.1h-2.7v5.5c0,0.6,0.1,1,0.4,1.3c0.3,0.3,0.6,0.5,1.1,0.5
				c0.3,0,0.5,0,0.7-0.1c0.2,0,0.4-0.1,0.6-0.1v1.1c-0.2,0.1-0.4,0.1-0.7,0.2c-0.3,0-0.6,0.1-0.8,0.1c-1.8,0-2.7-0.9-2.7-2.8v-5.5
				L112,790.8L112,790.8z"/>
			<path class="st6" d="M122.6,790.8v-0.6l1.7-0.5v-0.5c0-2.3,1-3.4,3-3.4c0.5,0,1.1,0.1,1.7,0.3l-0.4,1.1c-0.5-0.2-1-0.3-1.4-0.3
				c-0.5,0-0.9,0.2-1.2,0.5c-0.3,0.4-0.4,0.9-0.4,1.7v0.6h2.4v1.1h-2.4v8.2h-1.4v-8.2L122.6,790.8L122.6,790.8z"/>
			<path class="st6" d="M129,796.4c0-1.9,1.5-2.9,4.5-2.9l1.6-0.1v-0.6c0-0.7-0.2-1.3-0.5-1.6c-0.3-0.4-0.8-0.5-1.5-0.5
				c-0.8,0-1.6,0.2-2.6,0.7l-0.4-1.1c0.5-0.2,1-0.4,1.5-0.6c0.5-0.1,1.1-0.2,1.6-0.2c1.1,0,1.9,0.2,2.5,0.7c0.5,0.5,0.8,1.3,0.8,2.4
				v6.4h-1l-0.3-1.3h-0.1c-0.5,0.6-0.9,1-1.4,1.2c-0.5,0.2-1,0.3-1.7,0.3c-0.9,0-1.7-0.2-2.2-0.7C129.3,798,129,797.3,129,796.4z
				 M130.5,796.4c0,0.5,0.1,0.9,0.5,1.2c0.3,0.3,0.7,0.4,1.3,0.4c0.9,0,1.6-0.2,2.1-0.7c0.5-0.5,0.8-1.2,0.8-2v-0.8l-1.4,0.1
				c-1.1,0-1.9,0.2-2.4,0.5C130.8,795.3,130.5,795.8,130.5,796.4z"/>
			<path class="st6" d="M138.2,790.8v-0.7l1.3-0.6l0.6-2h0.8v2.2h2.7v1.1h-2.7v5.5c0,0.6,0.1,1,0.4,1.3c0.3,0.3,0.6,0.5,1.1,0.5
				c0.2,0,0.5,0,0.7-0.1c0.2,0,0.4-0.1,0.6-0.1v1.1c-0.1,0.1-0.4,0.1-0.7,0.2c-0.3,0-0.6,0.1-0.8,0.1c-1.8,0-2.7-0.9-2.7-2.8v-5.5
				L138.2,790.8L138.2,790.8z"/>
			<path class="st6" d="M144.9,796.4c0-1.9,1.5-2.9,4.5-2.9l1.6-0.1v-0.6c0-0.7-0.2-1.3-0.5-1.6c-0.3-0.4-0.8-0.5-1.5-0.5
				c-0.8,0-1.6,0.2-2.6,0.7l-0.4-1.1c0.5-0.2,1-0.4,1.5-0.6c0.5-0.1,1.1-0.2,1.6-0.2c1.1,0,1.9,0.2,2.5,0.7c0.5,0.5,0.8,1.3,0.8,2.4
				v6.4h-1l-0.3-1.3H151c-0.5,0.6-0.9,1-1.4,1.2c-0.5,0.2-1,0.3-1.7,0.3c-0.9,0-1.7-0.2-2.2-0.7C145.1,798,144.9,797.3,144.9,796.4z
				 M146.3,796.4c0,0.5,0.2,0.9,0.5,1.2c0.3,0.3,0.7,0.4,1.3,0.4c0.9,0,1.6-0.2,2.1-0.7c0.5-0.5,0.8-1.2,0.8-2v-0.8l-1.4,0.1
				c-1.1,0-1.9,0.2-2.4,0.5C146.6,795.3,146.3,795.8,146.3,796.4z"/>
			<path class="st6" d="M155.2,799v-13.2h1.4V799H155.2z"/>
			<path class="st6" d="M163.6,794.4c0-1.6,0.4-2.8,1.1-3.6c0.7-0.8,1.8-1.3,3.2-1.3c0.4,0,0.9,0,1.3,0.1c0.4,0.1,0.8,0.2,1.1,0.4
				l-0.4,1.2c-0.3-0.1-0.6-0.2-1-0.3s-0.7-0.1-1-0.1c-1.9,0-2.8,1.2-2.8,3.6c0,1.1,0.2,2,0.7,2.6c0.5,0.6,1.1,0.9,2.1,0.9
				c0.8,0,1.6-0.2,2.4-0.5v1.2c-0.6,0.3-1.4,0.5-2.4,0.5c-1.4,0-2.4-0.4-3.1-1.2C164,797.1,163.6,795.9,163.6,794.4z"/>
			<path class="st6" d="M171.7,796.4c0-1.9,1.5-2.9,4.5-2.9l1.6-0.1v-0.6c0-0.7-0.1-1.3-0.5-1.6c-0.3-0.4-0.8-0.5-1.5-0.5
				c-0.8,0-1.6,0.2-2.6,0.7l-0.4-1.1c0.5-0.2,1-0.4,1.5-0.6c0.5-0.1,1.1-0.2,1.6-0.2c1.1,0,1.9,0.2,2.5,0.7c0.5,0.5,0.8,1.3,0.8,2.4
				v6.4h-1l-0.3-1.3h-0.1c-0.5,0.6-0.9,1-1.4,1.2c-0.5,0.2-1,0.3-1.7,0.3c-0.9,0-1.6-0.2-2.2-0.7C172,798,171.7,797.3,171.7,796.4z
				 M173.2,796.4c0,0.5,0.1,0.9,0.5,1.2c0.3,0.3,0.7,0.4,1.3,0.4c0.9,0,1.6-0.2,2.1-0.7c0.5-0.5,0.8-1.2,0.8-2v-0.8l-1.4,0.1
				c-1.1,0-1.9,0.2-2.4,0.5C173.5,795.3,173.2,795.8,173.2,796.4z"/>
			<path class="st6" d="M181.5,791.9c0-0.8,0.3-1.4,0.9-1.8c0.6-0.4,1.5-0.7,2.5-0.7c1,0,2,0.2,2.9,0.6l-0.5,1.1
				c-0.9-0.4-1.8-0.6-2.5-0.6c-0.7,0-1.2,0.1-1.5,0.3c-0.3,0.2-0.5,0.5-0.5,0.9c0,0.3,0.1,0.5,0.2,0.6c0.1,0.2,0.3,0.3,0.6,0.5
				c0.3,0.2,0.8,0.4,1.6,0.7c1.1,0.4,1.8,0.8,2.2,1.2c0.4,0.4,0.6,0.9,0.6,1.5c0,0.9-0.3,1.5-1,2c-0.6,0.5-1.5,0.7-2.7,0.7
				c-1.2,0-2.2-0.2-2.9-0.6v-1.3c0.4,0.2,0.9,0.4,1.4,0.5c0.5,0.1,1,0.2,1.5,0.2c0.7,0,1.3-0.1,1.7-0.4c0.4-0.2,0.6-0.6,0.6-1.1
				c0-0.4-0.1-0.7-0.5-0.9c-0.3-0.3-0.9-0.6-1.8-0.9c-0.9-0.3-1.5-0.6-1.9-0.9c-0.4-0.2-0.6-0.5-0.8-0.8
				C181.6,792.7,181.5,792.4,181.5,791.9z"/>
			<path class="st6" d="M189.9,794.4c0-1.5,0.4-2.7,1.1-3.6c0.7-0.9,1.7-1.3,3-1.3c1.2,0,2.1,0.4,2.8,1.1c0.7,0.8,1,1.8,1,3v0.9
				h-6.4c0,1.1,0.3,1.9,0.8,2.5c0.5,0.6,1.3,0.9,2.2,0.9c1,0,2-0.2,3-0.6v1.3c-0.5,0.2-1,0.4-1.4,0.5c-0.4,0.1-1,0.1-1.6,0.1
				c-1.4,0-2.5-0.4-3.2-1.3C190.3,797,189.9,795.9,189.9,794.4z M191.3,793.4h4.9c0-0.9-0.2-1.6-0.6-2c-0.4-0.5-1-0.7-1.7-0.7
				c-0.7,0-1.3,0.2-1.8,0.7C191.7,791.9,191.4,792.6,191.3,793.4z"/>
			<path class="st6" d="M199.5,791.9c0-0.8,0.3-1.4,0.9-1.8c0.6-0.4,1.5-0.7,2.5-0.7c1,0,2,0.2,2.9,0.6l-0.5,1.1
				c-0.9-0.4-1.8-0.6-2.5-0.6c-0.7,0-1.2,0.1-1.5,0.3c-0.3,0.2-0.5,0.5-0.5,0.9c0,0.3,0.1,0.5,0.2,0.6c0.1,0.2,0.3,0.3,0.6,0.5
				c0.3,0.2,0.8,0.4,1.6,0.7c1.1,0.4,1.9,0.8,2.2,1.2c0.4,0.4,0.6,0.9,0.6,1.5c0,0.9-0.3,1.5-1,2c-0.6,0.5-1.5,0.7-2.7,0.7
				c-1.2,0-2.2-0.2-2.9-0.6v-1.3c0.4,0.2,0.9,0.4,1.4,0.5c0.5,0.1,1,0.2,1.5,0.2c0.7,0,1.3-0.1,1.7-0.4c0.4-0.2,0.6-0.6,0.6-1.1
				c0-0.4-0.2-0.7-0.5-0.9c-0.3-0.3-0.9-0.6-1.8-0.9c-0.9-0.3-1.5-0.6-1.8-0.9c-0.4-0.2-0.6-0.5-0.8-0.8
				C199.6,792.7,199.5,792.4,199.5,791.9z"/>
		</g>
		<rect x="54" y="783.5" class="st0" width="17.8" height="17.8"/>
	</g>
</g>
<path class="st4" d="M65.6,535.4h-1.3v-1.5l-0.4,0h-0.4l-0.8,0v1.5h-1.3v-1.7c-1.8-0.3-3.1-0.9-4.1-1.9c-1-1-1.5-2.3-1.5-3.9
	c0-1.4,0.3-2.6,1-3.7l1.4,0.7c-0.6,1.1-0.9,2.1-0.9,3c0,2.2,1.4,3.5,4.1,4.1v-5.2h1.3v5.3l0.6,0h0.6l0.5,0v-4.7h1.3v4.5
	c1.2-0.3,2.2-0.7,2.9-1.4c0.7-0.7,1-1.6,1-2.8c0-1.1-0.2-2.1-0.7-3.1h1.5c0.4,1,0.6,2.1,0.6,3.2c0,1.6-0.5,2.9-1.4,3.9
	c-0.9,1-2.2,1.6-4,1.9L65.6,535.4L65.6,535.4L65.6,535.4z"/>
<line class="st7" x1="95.6" y1="458.7" x2="95.6" y2="706.8"/>
<line class="st7" x1="226.3" y1="706.8" x2="81.8" y2="706.8"/>
<line class="st7" x1="226.3" y1="458.7" x2="81.8" y2="458.7"/>
<path class="st3" d="M67.4,700.5c0-2.2,0.4-3.9,1-5c0.7-1.1,1.8-1.6,3.2-1.6c1.4,0,2.5,0.6,3.2,1.7c0.7,1.1,1.1,2.8,1.1,4.9
	c0,2.2-0.3,3.9-1,5c-0.7,1.1-1.8,1.6-3.2,1.6c-1.4,0-2.4-0.6-3.2-1.7C67.7,704.3,67.4,702.7,67.4,700.5z M68.8,700.5
	c0,1.9,0.2,3.2,0.7,4.1c0.4,0.9,1.1,1.3,2.1,1.3c1,0,1.7-0.4,2.1-1.3s0.7-2.2,0.7-4.1c0-1.8-0.2-3.2-0.7-4c-0.4-0.9-1.1-1.3-2.1-1.3
	c-1,0-1.7,0.4-2.1,1.3C69.1,697.3,68.8,698.6,68.8,700.5z"/>
<g>
	<path class="st4" d="M70.7,599.4H55.8v-4.2c0-2,0.3-3.4,0.9-4.3c0.6-0.9,1.5-1.3,2.8-1.3c0.9,0,1.6,0.2,2.2,0.7
		c0.6,0.5,0.9,1.2,1.1,2.2H63c0.4-2.2,1.6-3.4,3.6-3.4c1.3,0,2.4,0.4,3.1,1.4c0.7,0.9,1.1,2.2,1.1,3.8L70.7,599.4L70.7,599.4z
		 M62.2,597.7v-2.9c0-1.2-0.2-2.1-0.6-2.6c-0.4-0.5-1-0.8-1.9-0.8c-0.8,0-1.4,0.3-1.8,0.9c-0.4,0.6-0.6,1.6-0.6,2.9v2.5L62.2,597.7
		L62.2,597.7z M69.3,597.7v-3.1c0-1.2-0.2-2.1-0.7-2.7c-0.5-0.6-1.2-0.9-2.2-0.9c-0.9,0-1.6,0.3-2,0.9c-0.4,0.6-0.6,1.6-0.6,2.8v3
		L69.3,597.7L69.3,597.7z"/>
	<path class="st4" d="M56.5,586.3c-0.4,0-0.7-0.1-0.9-0.3c-0.2-0.2-0.3-0.4-0.3-0.7c0-0.3,0.1-0.5,0.3-0.8c0.2-0.2,0.5-0.3,0.9-0.3
		c0.4,0,0.7,0.1,0.9,0.3c0.2,0.2,0.3,0.5,0.3,0.8c0,0.3-0.1,0.5-0.3,0.7C57.2,586.2,56.9,586.3,56.5,586.3z M70.7,586.2H59.6v-1.6
		h11.2V586.2z"/>
	<path class="st4" d="M70.7,580.9H54.9v-1.7h15.9L70.7,580.9L70.7,580.9z"/>
	<path class="st4" d="M70.7,575.6H54.9v-1.7h15.9L70.7,575.6L70.7,575.6z"/>
	<path class="st4" d="M56.5,570.5c-0.4,0-0.7-0.1-0.9-0.3c-0.2-0.2-0.3-0.4-0.3-0.7c0-0.3,0.1-0.5,0.3-0.8c0.2-0.2,0.5-0.3,0.9-0.3
		c0.4,0,0.7,0.1,0.9,0.3c0.2,0.2,0.3,0.5,0.3,0.8c0,0.3-0.1,0.5-0.3,0.7C57.2,570.4,56.9,570.5,56.5,570.5z M70.7,570.3H59.6v-1.6
		h11.2V570.3z"/>
	<path class="st4" d="M65.1,565.7c-1.8,0-3.2-0.5-4.2-1.4c-1-0.9-1.5-2.2-1.5-3.8c0-1.6,0.5-2.8,1.6-3.7c1-0.9,2.4-1.4,4.2-1.4
		c1.8,0,3.2,0.5,4.3,1.4c1,0.9,1.5,2.2,1.5,3.8c0,1-0.2,1.9-0.7,2.7c-0.5,0.8-1.1,1.4-2,1.8S66.3,565.7,65.1,565.7z M65.1,564
		c1.4,0,2.5-0.3,3.3-0.9c0.7-0.6,1.1-1.4,1.1-2.5c0-1.1-0.4-2-1.1-2.5c-0.7-0.6-1.8-0.9-3.3-0.9c-1.4,0-2.5,0.3-3.2,0.9
		c-0.7,0.6-1.1,1.4-1.1,2.5c0,1.1,0.4,1.9,1.1,2.5C62.6,563.7,63.7,564,65.1,564z"/>
	<path class="st4" d="M70.7,552.5H59.6v-1.4l1.5-0.3v-0.1c-0.5-0.3-1-0.8-1.3-1.5c-0.3-0.6-0.4-1.3-0.4-2.1c0-1.3,0.3-2.4,1-3
		c0.6-0.7,1.7-1,3.1-1h7.3v1.7h-7.2c-0.9,0-1.6,0.2-2,0.6s-0.7,1.1-0.7,1.9c0,1.2,0.3,2,0.9,2.6c0.6,0.5,1.7,0.8,3.1,0.8h5.9V552.5
		L70.7,552.5z"/>
</g>
<g>
	<path class="st3" d="M33.4,96.1v-1.2l3.4-3.4c1-1,1.7-1.8,2-2.2c0.3-0.4,0.6-0.9,0.7-1.3c0.2-0.4,0.2-0.9,0.2-1.4
		c0-0.7-0.2-1.2-0.6-1.6s-1-0.6-1.7-0.6c-0.5,0-1,0.1-1.5,0.3c-0.5,0.2-1,0.5-1.6,1l-0.8-1c1.2-1,2.5-1.5,3.9-1.5
		c1.2,0,2.2,0.3,2.8,0.9c0.7,0.6,1,1.4,1,2.5c0,0.8-0.2,1.6-0.7,2.4c-0.5,0.8-1.3,1.8-2.6,3l-2.8,2.8v0.1h6.6v1.3L33.4,96.1
		L33.4,96.1z"/>
	<path class="st3" d="M43.3,98.4c0.2-0.6,0.3-1.4,0.5-2.3c0.2-0.9,0.3-1.6,0.4-2.2h1.6l0.1,0.2c-0.2,0.6-0.4,1.3-0.7,2
		c-0.3,0.8-0.6,1.5-0.9,2.2H43.3z"/>
	<path class="st3" d="M48.2,90.6c0-2.5,0.5-4.4,1.5-5.7c1-1.3,2.4-1.9,4.4-1.9c0.7,0,1.2,0.1,1.6,0.2v1.3c-0.5-0.2-1-0.3-1.6-0.3
		c-1.4,0-2.4,0.4-3.2,1.3c-0.7,0.9-1.1,2.2-1.2,4.1h0.1c0.6-1,1.7-1.5,3.1-1.5c1.2,0,2.1,0.3,2.7,1c0.7,0.7,1,1.6,1,2.8
		c0,1.3-0.4,2.4-1.1,3.1c-0.7,0.8-1.7,1.1-3,1.1c-1.3,0-2.4-0.5-3.2-1.5C48.6,93.8,48.2,92.4,48.2,90.6z M49.7,91.6
		c0,0.6,0.1,1.2,0.4,1.7c0.2,0.5,0.6,0.9,1,1.2c0.4,0.3,0.9,0.5,1.5,0.5c0.8,0,1.5-0.3,1.9-0.8s0.7-1.3,0.7-2.3c0-0.9-0.2-1.5-0.6-2
		c-0.4-0.5-1.1-0.7-1.9-0.7c-0.5,0-1,0.1-1.5,0.3c-0.4,0.2-0.8,0.5-1,0.9C49.8,90.8,49.7,91.2,49.7,91.6z"/>
	<path class="st3" d="M58.4,92.8c0-1.5,0.9-2.6,2.7-3.4c-0.8-0.5-1.4-1-1.8-1.5c-0.4-0.5-0.5-1.1-0.5-1.8c0-0.9,0.3-1.7,1-2.2
		c0.7-0.6,1.6-0.8,2.8-0.8c1.2,0,2.1,0.3,2.8,0.8c0.7,0.5,1,1.3,1,2.3c0,0.6-0.2,1.2-0.6,1.7c-0.4,0.5-1,1-1.9,1.4
		c1,0.5,1.8,1,2.2,1.6c0.4,0.5,0.7,1.2,0.7,1.9c0,1.1-0.4,1.9-1.1,2.6c-0.7,0.6-1.8,1-3.1,1c-1.4,0-2.4-0.3-3.2-0.9
		C58.8,94.8,58.4,93.9,58.4,92.8z M59.8,92.8c0,0.7,0.2,1.3,0.7,1.6c0.5,0.4,1.2,0.6,2.1,0.6c0.9,0,1.6-0.2,2-0.6
		c0.5-0.4,0.7-1,0.7-1.7c0-0.6-0.2-1.1-0.7-1.5s-1.3-0.9-2.4-1.3c-0.9,0.4-1.5,0.8-1.9,1.2S59.8,92.2,59.8,92.8z M60.3,86.2
		c0,0.5,0.2,1,0.5,1.4c0.3,0.4,1,0.8,1.9,1.2c0.8-0.4,1.4-0.7,1.8-1.1c0.3-0.4,0.5-0.9,0.5-1.4c0-0.6-0.2-1.1-0.6-1.4
		c-0.4-0.3-1-0.5-1.8-0.5c-0.7,0-1.3,0.2-1.7,0.5C60.5,85.1,60.3,85.6,60.3,86.2z"/>
	<path class="st3" d="M68.7,89.6c0-2.2,0.3-3.9,1-5c0.7-1.1,1.8-1.6,3.2-1.6c1.4,0,2.4,0.6,3.2,1.7c0.7,1.1,1.1,2.8,1.1,4.9
		c0,2.2-0.4,3.9-1,5c-0.7,1.1-1.8,1.6-3.2,1.6c-1.4,0-2.4-0.6-3.2-1.7C69,93.5,68.7,91.8,68.7,89.6z M70.2,89.6
		c0,1.9,0.2,3.2,0.7,4.1c0.4,0.9,1.1,1.3,2.1,1.3c1,0,1.7-0.4,2.1-1.3c0.4-0.9,0.7-2.2,0.7-4.1s-0.2-3.2-0.7-4
		c-0.4-0.9-1.1-1.3-2.1-1.3c-1,0-1.7,0.4-2.1,1.3C70.4,86.4,70.2,87.8,70.2,89.6z"/>
</g>
<g>
	<path class="st8" d="M156.7,160h-3.1v-8.5l0-1.4l0.1-1.5c-0.5,0.5-0.9,0.9-1.1,1l-1.7,1.4l-1.5-1.9l4.7-3.8h2.5L156.7,160
		L156.7,160z"/>
	<path class="st8" d="M164.5,157.8c-0.3,1.4-0.9,3-1.8,4.8h-2.2c0.4-1.8,0.8-3.5,1-5h2.8L164.5,157.8z"/>
	<path class="st8" d="M177,160h-10.3v-2.2l3.7-3.7c1.1-1.1,1.8-1.9,2.1-2.3c0.3-0.4,0.6-0.8,0.7-1.2c0.1-0.4,0.2-0.8,0.2-1.1
		c0-0.6-0.2-1-0.5-1.3c-0.3-0.3-0.8-0.4-1.3-0.4c-0.6,0-1.1,0.1-1.7,0.4s-1.1,0.6-1.7,1.1l-1.7-2c0.7-0.6,1.3-1.1,1.8-1.3
		c0.5-0.3,1-0.4,1.6-0.6c0.6-0.1,1.2-0.2,1.9-0.2c0.9,0,1.7,0.2,2.4,0.5c0.7,0.3,1.2,0.8,1.6,1.4c0.4,0.6,0.6,1.3,0.6,2.1
		c0,0.7-0.1,1.3-0.4,1.9c-0.2,0.6-0.6,1.2-1.1,1.8c-0.5,0.6-1.4,1.5-2.6,2.7l-1.9,1.8v0.1h6.4L177,160L177,160L177,160z"/>
	<path class="st8" d="M188.6,152.6c0,2.6-0.4,4.5-1.3,5.7s-2.1,1.8-3.9,1.8c-1.7,0-3-0.6-3.8-1.9c-0.9-1.3-1.3-3.1-1.3-5.6
		c0-2.6,0.4-4.5,1.3-5.7s2.1-1.8,3.9-1.8c1.7,0,3,0.6,3.8,1.9S188.6,150.1,188.6,152.6z M181.4,152.6c0,1.8,0.2,3.1,0.5,3.9
		c0.3,0.8,0.8,1.2,1.6,1.2c0.7,0,1.2-0.4,1.6-1.2s0.5-2.1,0.5-3.9c0-1.8-0.2-3.1-0.5-3.9c-0.3-0.8-0.8-1.2-1.6-1.2
		c-0.7,0-1.3,0.4-1.6,1.2C181.6,149.5,181.4,150.8,181.4,152.6z"/>
	<path class="st8" d="M191.6,160l5.5-12h-7.2v-2.6h10.5v1.9l-5.6,12.7L191.6,160L191.6,160z"/>
</g>
<g>
	<path class="st8" d="M156.7,286.5h-3.1V278l0-1.4l0.1-1.5c-0.5,0.5-0.9,0.9-1.1,1l-1.7,1.4l-1.5-1.9l4.7-3.8h2.5L156.7,286.5
		L156.7,286.5z"/>
	<path class="st8" d="M164.5,284.3c-0.3,1.4-0.9,3-1.8,4.8h-2.2c0.4-1.8,0.8-3.5,1-5h2.8L164.5,284.3z"/>
	<path class="st8" d="M177.3,283.4h-1.8v3h-3v-3h-6.3v-2.2l6.4-9.5h2.9v9.2h1.8V283.4z M172.5,281v-2.5c0-0.4,0-1,0.1-1.8
		c0-0.8,0.1-1.2,0.1-1.4h-0.1c-0.2,0.5-0.5,1.1-0.9,1.6L169,281L172.5,281L172.5,281z"/>
	<path class="st8" d="M179.9,286.5l5.5-12h-7.2v-2.6h10.5v1.9l-5.6,12.7L179.9,286.5L179.9,286.5z"/>
	<path class="st8" d="M199.9,275.1c0,0.9-0.3,1.7-0.8,2.3c-0.6,0.6-1.3,1.1-2.3,1.3v0.1c1.2,0.1,2.1,0.5,2.7,1.1
		c0.6,0.6,0.9,1.3,0.9,2.3c0,1.4-0.5,2.5-1.5,3.3c-1,0.8-2.5,1.2-4.4,1.2c-1.6,0-3-0.3-4.2-0.8v-2.6c0.6,0.3,1.2,0.5,1.9,0.7
		c0.7,0.2,1.4,0.3,2,0.3c1,0,1.8-0.2,2.3-0.5c0.5-0.3,0.7-0.9,0.7-1.7c0-0.7-0.3-1.2-0.8-1.5c-0.6-0.3-1.5-0.4-2.7-0.4h-1.1v-2.4
		h1.1c1.1,0,2-0.1,2.5-0.4c0.5-0.3,0.8-0.8,0.8-1.5c0-1.1-0.7-1.7-2.1-1.7c-0.5,0-1,0.1-1.5,0.2c-0.5,0.2-1.1,0.4-1.7,0.8l-1.4-2.1
		c1.3-1,2.9-1.4,4.8-1.4c1.5,0,2.7,0.3,3.6,0.9C199.4,273.1,199.9,274,199.9,275.1z"/>
</g>
<g>
	<path class="st3" d="M47.5,460.3V459l6.1-8.7h1.5v8.6h1.9v1.3h-1.9v2.9h-1.4v-2.9L47.5,460.3C47.5,460.3,47.5,460.3,47.5,460.3z
		 M49,459h4.8v-4.3c0-0.8,0-1.8,0.1-2.8h-0.1c-0.3,0.6-0.5,1-0.8,1.4L49,459z"/>
	<path class="st3" d="M58.3,451.8v-1.3h8.6v1.2l-5.3,11.7H60l5.3-11.5L58.3,451.8C58.3,451.8,58.3,451.8,58.3,451.8z"/>
	<path class="st3" d="M68.8,457.8c0-2.5,0.5-4.4,1.5-5.7s2.4-1.9,4.4-1.9c0.7,0,1.2,0.1,1.6,0.2v1.3c-0.5-0.2-1-0.3-1.6-0.3
		c-1.4,0-2.4,0.4-3.2,1.3c-0.7,0.9-1.1,2.2-1.2,4.1h0.1c0.6-1,1.7-1.5,3.1-1.5c1.2,0,2.1,0.3,2.7,1c0.7,0.7,1,1.6,1,2.8
		c0,1.3-0.4,2.4-1.1,3.1c-0.7,0.8-1.7,1.1-3,1.1c-1.3,0-2.4-0.5-3.2-1.5C69.2,461,68.8,459.6,68.8,457.8z M70.3,458.8
		c0,0.6,0.1,1.2,0.4,1.7c0.2,0.5,0.6,0.9,1,1.2c0.4,0.3,0.9,0.5,1.5,0.5c0.8,0,1.5-0.3,1.9-0.8c0.5-0.5,0.7-1.3,0.7-2.3
		c0-0.9-0.2-1.5-0.6-2c-0.4-0.5-1.1-0.7-1.9-0.7c-0.5,0-1,0.1-1.4,0.3c-0.4,0.2-0.8,0.5-1.1,0.9C70.4,458,70.3,458.4,70.3,458.8z"/>
</g>
<g>
	<path class="st8" d="M168.1,527.1h-10.3V525l3.7-3.7c1.1-1.1,1.8-1.9,2.1-2.3c0.3-0.4,0.6-0.8,0.7-1.2c0.1-0.4,0.2-0.7,0.2-1.1
		c0-0.6-0.2-1-0.5-1.3c-0.3-0.3-0.8-0.4-1.3-0.4c-0.6,0-1.1,0.1-1.7,0.4c-0.5,0.3-1.1,0.6-1.7,1.1l-1.7-2c0.7-0.6,1.3-1.1,1.8-1.3
		c0.5-0.3,1-0.4,1.6-0.6c0.6-0.1,1.2-0.2,1.9-0.2c0.9,0,1.7,0.2,2.4,0.5s1.2,0.8,1.6,1.4c0.4,0.6,0.6,1.3,0.6,2.1
		c0,0.7-0.1,1.3-0.4,1.9c-0.2,0.6-0.6,1.2-1.1,1.8c-0.5,0.6-1.4,1.5-2.6,2.7l-1.9,1.8v0.1h6.4L168.1,527.1L168.1,527.1L168.1,527.1
		L168.1,527.1z"/>
	<path class="st8" d="M169.5,520.9c0-2.9,0.6-5.1,1.8-6.5c1.2-1.4,3.1-2.1,5.5-2.1c0.8,0,1.5,0.1,2,0.2v2.5
		c-0.6-0.1-1.2-0.2-1.8-0.2c-1.1,0-1.9,0.2-2.6,0.5c-0.7,0.3-1.2,0.8-1.5,1.4s-0.5,1.5-0.6,2.7h0.1c0.7-1.1,1.7-1.7,3.2-1.7
		c1.3,0,2.3,0.4,3.1,1.2c0.7,0.8,1.1,2,1.1,3.4c0,1.6-0.4,2.8-1.3,3.7c-0.9,0.9-2.1,1.4-3.7,1.4c-1.1,0-2-0.3-2.8-0.8
		s-1.4-1.2-1.9-2.2C169.7,523.4,169.5,522.3,169.5,520.9z M174.8,524.9c0.7,0,1.2-0.2,1.5-0.7c0.4-0.4,0.5-1.1,0.5-1.9
		c0-0.7-0.2-1.3-0.5-1.7c-0.3-0.4-0.8-0.6-1.5-0.6c-0.6,0-1.2,0.2-1.6,0.6c-0.4,0.4-0.7,0.9-0.7,1.4c0,0.8,0.2,1.5,0.6,2
		C173.6,524.6,174.1,524.9,174.8,524.9z"/>
	<path class="st8" d="M191.5,519.8c0,2.6-0.4,4.5-1.3,5.7c-0.8,1.2-2.1,1.8-3.9,1.8c-1.7,0-3-0.6-3.8-1.9c-0.9-1.3-1.3-3.1-1.3-5.6
		c0-2.6,0.4-4.5,1.3-5.7c0.8-1.2,2.1-1.8,3.9-1.8c1.7,0,3,0.6,3.8,1.9C191.1,515.5,191.5,517.3,191.5,519.8z M184.3,519.8
		c0,1.8,0.2,3.1,0.5,3.9c0.3,0.8,0.8,1.2,1.6,1.2c0.7,0,1.2-0.4,1.6-1.2c0.3-0.8,0.5-2.1,0.5-3.9c0-1.8-0.2-3.1-0.5-3.9
		c-0.3-0.8-0.8-1.2-1.6-1.2c-0.7,0-1.3,0.4-1.6,1.2C184.5,516.7,184.3,518,184.3,519.8z"/>
</g>
<g>
	<path class="st8" d="M168.1,643.6h-10.3v-2.2l3.7-3.7c1.1-1.1,1.8-1.9,2.1-2.3c0.3-0.4,0.6-0.8,0.7-1.2c0.1-0.4,0.2-0.7,0.2-1.1
		c0-0.6-0.2-1-0.5-1.3c-0.3-0.3-0.8-0.4-1.3-0.4c-0.6,0-1.1,0.1-1.7,0.4c-0.5,0.3-1.1,0.6-1.7,1.1l-1.7-2c0.7-0.6,1.3-1.1,1.8-1.3
		c0.5-0.3,1-0.4,1.6-0.6c0.6-0.1,1.2-0.2,1.9-0.2c0.9,0,1.7,0.2,2.4,0.5s1.2,0.8,1.6,1.4c0.4,0.6,0.6,1.3,0.6,2.1
		c0,0.7-0.1,1.3-0.4,1.9c-0.2,0.6-0.6,1.2-1.1,1.8c-0.5,0.6-1.4,1.5-2.6,2.7l-1.9,1.8v0.1h6.4L168.1,643.6L168.1,643.6L168.1,643.6
		L168.1,643.6z"/>
	<path class="st8" d="M177.3,643.6h-3.1v-8.5l0-1.4l0.1-1.5c-0.5,0.5-0.9,0.9-1.1,1l-1.7,1.4l-1.5-1.9l4.7-3.8h2.5L177.3,643.6
		L177.3,643.6z"/>
	<path class="st8" d="M181.2,637.4c0-2.9,0.6-5.1,1.8-6.5c1.2-1.4,3.1-2.1,5.5-2.1c0.8,0,1.5,0.1,2,0.2v2.5
		c-0.6-0.1-1.2-0.2-1.8-0.2c-1.1,0-1.9,0.2-2.6,0.5c-0.7,0.3-1.2,0.8-1.5,1.4c-0.3,0.6-0.5,1.5-0.6,2.7h0.1c0.7-1.1,1.7-1.7,3.2-1.7
		c1.3,0,2.3,0.4,3.1,1.2c0.7,0.8,1.1,2,1.1,3.4c0,1.6-0.4,2.8-1.3,3.7c-0.9,0.9-2.1,1.4-3.7,1.4c-1.1,0-2-0.3-2.8-0.8
		s-1.4-1.2-1.9-2.2C181.4,639.9,181.2,638.8,181.2,637.4z M186.5,641.4c0.7,0,1.2-0.2,1.5-0.7s0.5-1.1,0.5-1.9
		c0-0.7-0.2-1.3-0.5-1.7c-0.3-0.4-0.8-0.6-1.5-0.6c-0.6,0-1.2,0.2-1.6,0.6c-0.4,0.4-0.7,0.9-0.7,1.4c0,0.8,0.2,1.5,0.6,2
		S185.9,641.4,186.5,641.4z"/>
</g>
<g>
	<circle id="more3_1_" class="st9" cx="269.1" cy="22.3" r="6.5"/>
	<path id="more1_1_" class="st10" d="M280.5,32.1c-2.2,0-6.9-5.5-6.9-5.5l0.8-1c0,0,6.7,3.3,6.9,5.5
		C281.3,31.4,280.8,32.1,280.5,32.1z"/>
	<path class="st9" d="M269.5,19.2V22h2.7v0.7h-2.7v2.8h-0.8v-2.8H266V22h2.7v-2.8C268.7,19.2,269.5,19.2,269.5,19.2z"/>
	<circle class="st9" cx="270.8" cy="23.4" r="18.2"/>
</g>
</svg>
