<?xml version="1.0" encoding="utf-8"?>
<!-- Generator: Adobe Illustrator 16.0.0, SVG Export Plug-In . SVG Version: 6.00 Build 0)  -->
<!DOCTYPE svg PUBLIC "-//W3C//DTD SVG 1.1//EN" "http://www.w3.org/Graphics/SVG/1.1/DTD/svg11.dtd">
<svg version="1.1" id="Capa_1" xmlns="http://www.w3.org/2000/svg" xmlns:xlink="http://www.w3.org/1999/xlink" x="0px" y="0px"
	 width="291.969px" height="850.394px" viewBox="0 0 291.969 850.394" enable-background="new 0 0 291.969 850.394"
	 xml:space="preserve">
<g id="global-estimates">
	<g>
		<rect x="135.494" y="196.192" fill="#199598" width="100.492" height="122.966"/>
		<rect x="135.494" y="71.127" fill="#DD9B2B" width="100.492" height="125.064"/>
	</g>
	<g>
		<path fill="#666565" d="M75.295,24.802c0-1.549,0.313-2.906,0.934-4.071s1.52-2.055,2.688-2.67
			c1.168-0.615,2.537-0.922,4.104-0.922c1.59,0,3.07,0.292,4.443,0.876l-0.672,1.529c-1.35-0.571-2.645-0.856-3.887-0.856
			c-1.813,0-3.229,0.54-4.25,1.62c-1.02,1.08-1.525,2.578-1.525,4.494c0,2.018,0.492,3.548,1.475,4.591
			c0.98,1.043,2.422,1.564,4.324,1.564c1.033,0,2.043-0.12,3.027-0.358v-4.604h-3.332v-1.549h5.063v7.255
			c-0.787,0.248-1.59,0.436-2.402,0.563c-0.814,0.127-1.762,0.191-2.836,0.191c-2.254,0-4.012-0.67-5.268-2.012
			C75.922,29.101,75.295,27.221,75.295,24.802z"/>
		<path fill="#666565" d="M91.008,32.251V16.395h1.688v15.856H91.008z"/>
		<path fill="#666565" d="M95.666,26.647c0-1.817,0.455-3.233,1.357-4.247c0.908-1.014,2.168-1.521,3.779-1.521
			c1.559,0,2.797,0.519,3.715,1.556c0.916,1.038,1.375,2.441,1.375,4.211c0,1.824-0.457,3.248-1.371,4.272
			c-0.916,1.024-2.18,1.536-3.791,1.536c-0.996,0-1.879-0.234-2.648-0.704c-0.771-0.47-1.367-1.144-1.787-2.021
			S95.666,27.824,95.666,26.647z M97.398,26.647c0,1.43,0.285,2.52,0.855,3.269c0.572,0.749,1.412,1.124,2.521,1.124
			c1.109,0,1.951-0.373,2.525-1.119c0.576-0.746,0.863-1.837,0.863-3.273c0-1.423-0.289-2.504-0.863-3.243
			c-0.572-0.739-1.424-1.108-2.545-1.108c-1.109,0-1.945,0.364-2.51,1.093C97.68,24.117,97.398,25.203,97.398,26.647z"/>
		<path fill="#666565" d="M108.893,32.251V16.395h1.691v3.852c0,0.863-0.027,1.637-0.082,2.323h0.082
			c0.787-1.114,1.957-1.671,3.506-1.671c1.459,0,2.596,0.501,3.4,1.503c0.811,1.002,1.215,2.42,1.215,4.254
			s-0.408,3.259-1.227,4.274c-0.813,1.016-1.941,1.523-3.395,1.523c-0.729,0-1.395-0.134-1.992-0.402
			c-0.602-0.268-1.105-0.681-1.514-1.238h-0.119l-0.355,1.437L108.893,32.251L108.893,32.251z M110.584,26.657
			c0,1.569,0.262,2.692,0.785,3.368c0.521,0.676,1.359,1.014,2.518,1.014c1.039,0,1.813-0.379,2.322-1.136
			c0.51-0.758,0.766-1.846,0.766-3.266c0-1.454-0.256-2.538-0.766-3.251c-0.51-0.713-1.297-1.07-2.363-1.07
			c-1.154,0-1.986,0.331-2.498,0.994C110.838,23.971,110.584,25.088,110.584,26.657z"/>
		<path fill="#666565" d="M120.846,29.175c0-2.25,1.807-3.429,5.418-3.537l1.898-0.062v-0.702c0-0.887-0.188-1.542-0.564-1.965
			c-0.376-0.423-0.979-0.634-1.807-0.634c-0.932,0-1.979,0.289-3.152,0.866l-0.525-1.298c0.553-0.294,1.152-0.525,1.813-0.692
			s1.313-0.251,1.973-0.251c1.33,0,2.314,0.295,2.957,0.887c0.643,0.591,0.961,1.539,0.961,2.843v7.622h-1.252l-0.336-1.571h-0.082
			c-0.557,0.693-1.109,1.162-1.664,1.407c-0.553,0.246-1.24,0.368-2.068,0.368c-1.109,0-1.982-0.284-2.613-0.853
			C121.162,31.033,120.846,30.224,120.846,29.175z M122.639,29.195c0,0.615,0.188,1.082,0.555,1.403
			c0.369,0.321,0.891,0.481,1.555,0.481c1.051,0,1.875-0.29,2.477-0.87c0.602-0.581,0.9-1.393,0.9-2.437v-1.014l-1.688,0.071
			c-1.344,0.048-2.313,0.258-2.902,0.63C122.938,27.831,122.639,28.41,122.639,29.195z"/>
		<path fill="#666565" d="M133.289,32.251V16.395h1.688v15.856H133.289z"/>
		<path fill="#666565" d="M143.365,26.758c0-1.8,0.441-3.23,1.324-4.29c0.887-1.06,2.07-1.589,3.563-1.589
			c1.396,0,2.498,0.46,3.313,1.38c0.813,0.921,1.224,2.135,1.224,3.643v1.07h-7.686c0.033,1.311,0.365,2.306,0.994,2.985
			c0.629,0.68,1.518,1.019,2.658,1.019c1.199,0,2.387-0.251,3.559-0.754v1.508c-0.598,0.258-1.158,0.443-1.688,0.555
			c-0.531,0.112-1.175,0.168-1.927,0.168c-1.646,0-2.942-0.502-3.896-1.508C143.842,29.942,143.365,28.546,143.365,26.758z
			 M145.139,25.597h5.849c0-1.066-0.233-1.883-0.715-2.451c-0.479-0.567-1.153-0.851-2.041-0.851c-0.896,0-1.612,0.292-2.146,0.876
			C145.549,23.756,145.234,24.564,145.139,25.597z"/>
		<path fill="#666565" d="M154.982,23.827c0-0.911,0.371-1.63,1.106-2.158c0.74-0.527,1.757-0.791,3.043-0.791
			c1.195,0,2.363,0.244,3.509,0.733l-0.595,1.377c-1.112-0.463-2.129-0.695-3.034-0.695c-0.806,0-1.408,0.126-1.816,0.378
			c-0.404,0.251-0.609,0.599-0.609,1.042c0,0.3,0.076,0.555,0.229,0.766c0.149,0.211,0.396,0.412,0.74,0.603
			c0.34,0.191,0.991,0.467,1.961,0.828c1.319,0.483,2.215,0.97,2.67,1.46c0.457,0.49,0.688,1.104,0.688,1.849
			c0,1.034-0.389,1.832-1.156,2.393c-0.771,0.561-1.852,0.841-3.242,0.841c-1.479,0-2.631-0.23-3.457-0.693v-1.559
			c0.535,0.272,1.109,0.487,1.728,0.644c0.61,0.157,1.203,0.235,1.771,0.235c0.885,0,1.564-0.141,2.043-0.424
			c0.479-0.283,0.715-0.713,0.715-1.292c0-0.438-0.188-0.809-0.563-1.119c-0.379-0.31-1.114-0.676-2.211-1.098
			c-1.043-0.388-1.781-0.727-2.224-1.017c-0.436-0.29-0.76-0.618-0.975-0.986C155.088,24.777,154.982,24.338,154.982,23.827z"/>
		<path fill="#666565" d="M164.174,22.397v-0.815l1.6-0.703l0.713-2.385h0.979v2.588h3.24v1.314h-3.24v6.588
			c0,0.674,0.16,1.191,0.479,1.552c0.318,0.361,0.761,0.542,1.313,0.542c0.303,0,0.59-0.022,0.867-0.066
			c0.271-0.044,0.498-0.09,0.662-0.138v1.278c-0.188,0.087-0.453,0.159-0.813,0.216c-0.354,0.057-0.68,0.085-0.963,0.085
			c-2.16,0-3.24-1.138-3.24-3.414v-6.644h-1.602L164.174,22.397L164.174,22.397z"/>
		<path fill="#666565" d="M172.877,18.056c0-0.387,0.088-0.671,0.264-0.851c0.176-0.18,0.396-0.27,0.658-0.27
			c0.293,0,0.545,0.092,0.758,0.275c0.213,0.184,0.318,0.466,0.318,0.846c0,0.38-0.105,0.664-0.318,0.851
			c-0.213,0.187-0.465,0.28-0.758,0.28c-0.266,0-0.482-0.093-0.658-0.28C172.965,18.72,172.877,18.437,172.877,18.056z
			 M173.02,32.251V21.083h1.549v11.168H173.02z"/>
		<path fill="#666565" d="M178.297,32.251V21.083h1.375l0.271,1.509h0.082c0.318-0.537,0.771-0.957,1.354-1.259
			s1.229-0.453,1.953-0.453c1.746,0,2.887,0.625,3.424,1.876h0.082c0.332-0.579,0.813-1.036,1.445-1.372
			c0.632-0.336,1.354-0.504,2.158-0.504c1.268,0,2.209,0.324,2.838,0.973c0.633,0.648,0.943,1.687,0.943,3.113v7.286h-1.689v-7.281
			c0-0.892-0.189-1.561-0.57-2.006c-0.381-0.445-0.975-0.669-1.771-0.669c-1.055,0-1.832,0.303-2.334,0.909
			c-0.502,0.605-0.754,1.538-0.754,2.798v6.249h-1.688v-7.281c0-0.892-0.188-1.561-0.568-2.006
			c-0.383-0.445-0.979-0.669-1.783-0.669c-1.063,0-1.836,0.318-2.328,0.955c-0.489,0.637-0.737,1.68-0.737,3.13v5.871
			L178.297,32.251L178.297,32.251z"/>
		<path fill="#666565" d="M196.875,29.175c0-2.25,1.807-3.429,5.418-3.537l1.896-0.062v-0.702c0-0.887-0.188-1.542-0.563-1.965
			c-0.377-0.423-0.979-0.634-1.812-0.634c-0.928,0-1.979,0.289-3.147,0.866l-0.524-1.298c0.549-0.294,1.151-0.525,1.813-0.692
			c0.652-0.167,1.313-0.251,1.973-0.251c1.33,0,2.313,0.295,2.957,0.887c0.645,0.591,0.965,1.539,0.965,2.843v7.622h-1.256
			l-0.336-1.571h-0.082c-0.557,0.693-1.107,1.162-1.66,1.407c-0.555,0.246-1.242,0.368-2.07,0.368c-1.108,0-1.979-0.284-2.612-0.853
			C197.191,31.033,196.875,30.224,196.875,29.175z M198.67,29.195c0,0.615,0.186,1.082,0.553,1.403
			c0.371,0.321,0.889,0.481,1.553,0.481c1.056,0,1.875-0.29,2.479-0.87c0.601-0.581,0.896-1.393,0.896-2.437v-1.014l-1.688,0.071
			c-1.342,0.048-2.313,0.258-2.901,0.63C198.969,27.831,198.67,28.41,198.67,29.195z"/>
		<path fill="#666565" d="M207.838,22.397v-0.815l1.602-0.703l0.713-2.385h0.979v2.588h3.24v1.314h-3.24v6.588
			c0,0.674,0.16,1.191,0.479,1.552c0.318,0.361,0.76,0.542,1.313,0.542c0.301,0,0.588-0.022,0.865-0.066
			c0.273-0.044,0.5-0.09,0.662-0.138v1.278c-0.188,0.087-0.453,0.159-0.813,0.216c-0.354,0.057-0.68,0.085-0.965,0.085
			c-2.156,0-3.238-1.138-3.238-3.414v-6.644h-1.602L207.838,22.397L207.838,22.397z"/>
		<path fill="#666565" d="M216.063,26.758c0-1.8,0.441-3.23,1.326-4.29c0.885-1.06,2.07-1.589,3.563-1.589
			c1.396,0,2.498,0.46,3.313,1.38c0.813,0.921,1.221,2.135,1.221,3.643v1.07h-7.688c0.035,1.311,0.367,2.306,0.996,2.985
			c0.629,0.68,1.518,1.019,2.656,1.019c1.195,0,2.387-0.251,3.559-0.754v1.508c-0.598,0.258-1.158,0.443-1.689,0.555
			c-0.53,0.112-1.174,0.168-1.926,0.168c-1.646,0-2.942-0.502-3.896-1.508C216.539,29.942,216.063,28.546,216.063,26.758z
			 M217.836,25.597h5.85c0-1.066-0.238-1.883-0.715-2.451c-0.479-0.567-1.156-0.851-2.041-0.851c-0.896,0-1.615,0.292-2.146,0.876
			C218.246,23.756,217.93,24.564,217.836,25.597z"/>
		<path fill="#666565" d="M227.68,23.827c0-0.911,0.369-1.63,1.109-2.158c0.736-0.527,1.754-0.791,3.043-0.791
			c1.191,0,2.359,0.244,3.504,0.733l-0.59,1.377c-1.117-0.463-2.133-0.695-3.037-0.695c-0.807,0-1.408,0.126-1.816,0.378
			c-0.408,0.251-0.613,0.599-0.613,1.042c0,0.3,0.078,0.555,0.229,0.766c0.154,0.211,0.396,0.412,0.742,0.603
			c0.34,0.191,0.994,0.467,1.959,0.828c1.322,0.483,2.215,0.97,2.672,1.46c0.457,0.49,0.687,1.104,0.687,1.849
			c0,1.034-0.387,1.832-1.15,2.393c-0.771,0.561-1.854,0.841-3.242,0.841c-1.479,0-2.631-0.23-3.459-0.693v-1.559
			c0.537,0.272,1.105,0.487,1.727,0.644c0.611,0.157,1.207,0.235,1.773,0.235c0.887,0,1.563-0.141,2.041-0.424
			c0.479-0.283,0.717-0.713,0.717-1.292c0-0.438-0.188-0.809-0.564-1.119c-0.379-0.31-1.112-0.676-2.213-1.098
			c-1.041-0.388-1.778-0.727-2.217-1.017c-0.438-0.29-0.762-0.618-0.977-0.986C227.787,24.777,227.68,24.338,227.68,23.827z"/>
	</g>
	<g>
		<path fill="#9A999E" d="M46.912,76.392v-1.199l3.27-3.299c0.996-1.012,1.652-1.734,1.971-2.166
			c0.316-0.432,0.559-0.853,0.715-1.262c0.156-0.409,0.236-0.85,0.236-1.321c0-0.665-0.201-1.192-0.604-1.582
			c-0.403-0.39-0.961-0.584-1.676-0.584c-0.518,0-1.006,0.085-1.467,0.256c-0.462,0.17-0.976,0.48-1.541,0.93l-0.746-0.964
			c1.146-0.935,2.393-1.402,3.735-1.402c1.166,0,2.081,0.297,2.743,0.891c0.662,0.594,0.994,1.393,0.994,2.396
			c0,0.79-0.225,1.572-0.664,2.345s-1.271,1.751-2.479,2.934l-2.717,2.669v0.068h6.387v1.291L46.912,76.392L46.912,76.392
			L46.912,76.392z"/>
		<path fill="#9A999E" d="M60.982,73.547v-1.239l5.896-8.399h1.494v8.347h1.857v1.291h-1.857v2.845H67.04v-2.845H60.982z
			 M62.408,72.256h4.631v-4.127c0-0.81,0.023-1.724,0.084-2.743h-0.068c-0.271,0.543-0.525,0.994-0.764,1.35L62.408,72.256z"/>
		<path fill="#9A999E" d="M70.926,73.547v-1.239l5.895-8.399h1.494v8.347h1.859v1.291h-1.859v2.845H76.98v-2.845H70.926z
			 M72.354,72.256h4.627v-4.127c0-0.81,0.027-1.724,0.084-2.743H77c-0.271,0.543-0.525,0.994-0.768,1.35L72.354,72.256z"/>
		<path fill="#9A999E" d="M81.404,73.224c0-1.421,0.871-2.528,2.615-3.32c-0.791-0.441-1.354-0.918-1.701-1.431
			c-0.342-0.513-0.516-1.086-0.516-1.72c0-0.9,0.334-1.618,1.004-2.153c0.67-0.535,1.564-0.802,2.688-0.802
			c1.137,0,2.033,0.263,2.697,0.79c0.666,0.526,0.998,1.254,0.998,2.183c0,0.611-0.188,1.169-0.57,1.673
			c-0.385,0.504-0.99,0.962-1.828,1.375c1.012,0.481,1.729,0.986,2.158,1.516c0.428,0.53,0.641,1.143,0.641,1.839
			c0,1.03-0.359,1.853-1.082,2.467c-0.721,0.614-1.709,0.921-2.963,0.921c-1.33,0-2.354-0.29-3.066-0.871
			C81.762,75.111,81.404,74.289,81.404,73.224z M82.814,73.258c0,0.679,0.236,1.208,0.709,1.588
			c0.475,0.379,1.137,0.569,1.986,0.569c0.844,0,1.498-0.198,1.969-0.594c0.469-0.396,0.703-0.94,0.703-1.631
			c0-0.549-0.221-1.037-0.66-1.465c-0.438-0.427-1.211-0.842-2.307-1.244c-0.842,0.362-1.453,0.763-1.832,1.202
			S82.814,72.647,82.814,73.258z M83.213,66.813c0,0.521,0.168,0.968,0.5,1.341c0.334,0.374,0.949,0.748,1.85,1.121
			c0.811-0.34,1.379-0.705,1.717-1.095c0.338-0.391,0.506-0.847,0.506-1.367c0-0.572-0.203-1.026-0.613-1.363
			c-0.41-0.336-0.979-0.505-1.691-0.505c-0.707,0-1.26,0.17-1.662,0.51C83.416,65.794,83.213,66.247,83.213,66.813z"/>
		<g>
			<path fill="#9A999E" d="M56.942,79.017c0.143-0.542,0.295-1.211,0.467-2.008c0.169-0.797,0.286-1.435,0.354-1.914h1.415
				l0.117,0.18c-0.135,0.521-0.329,1.126-0.583,1.816c-0.254,0.69-0.52,1.332-0.793,1.926H56.942z"/>
		</g>
	</g>
	<g>
		<path fill="#9A999E" d="M81.387,312.929c0-2.161,0.34-3.765,1.016-4.812c0.68-1.047,1.707-1.57,3.096-1.57
			c1.346,0,2.363,0.546,3.063,1.638c0.697,1.093,1.047,2.673,1.047,4.744c0,2.147-0.338,3.75-1.014,4.81
			c-0.676,1.063-1.709,1.59-3.104,1.59c-1.342,0-2.357-0.543-3.059-1.627C81.736,316.616,81.387,315.026,81.387,312.929z
			 M82.832,312.929c0,1.802,0.213,3.112,0.637,3.935c0.424,0.823,1.1,1.232,2.025,1.232c0.938,0,1.615-0.417,2.035-1.25
			c0.426-0.833,0.637-2.139,0.637-3.918c0-1.777-0.211-3.082-0.637-3.908c-0.42-0.828-1.102-1.242-2.035-1.242
			c-0.93,0-1.604,0.408-2.025,1.227C83.045,309.819,82.832,311.127,82.832,312.929z"/>
	</g>
	<g>
		<path fill="#FFFFFF" d="M167.563,257.675h-3.146v-8.621l0.024-1.417l0.058-1.549c-0.521,0.523-0.894,0.866-1.097,1.029
			l-1.711,1.375l-1.52-1.896l4.799-3.82h2.59L167.563,257.675L167.563,257.675z"/>
		<path fill="#FFFFFF" d="M188.053,257.675h-10.414v-2.19l3.74-3.78c1.104-1.136,1.83-1.921,2.17-2.359
			c0.34-0.438,0.584-0.844,0.73-1.218c0.148-0.374,0.227-0.762,0.227-1.162c0-0.6-0.164-1.042-0.494-1.335
			c-0.328-0.292-0.768-0.438-1.318-0.438c-0.573,0-1.139,0.131-1.682,0.396c-0.543,0.266-1.111,0.643-1.701,1.131l-1.713-2.027
			c0.732-0.625,1.342-1.065,1.824-1.326c0.479-0.258,1.008-0.456,1.58-0.596c0.566-0.139,1.209-0.209,1.916-0.209
			c0.93,0,1.752,0.17,2.465,0.51c0.715,0.342,1.268,0.815,1.662,1.429c0.395,0.61,0.59,1.312,0.59,2.099
			c0,0.688-0.121,1.33-0.359,1.932c-0.237,0.602-0.608,1.218-1.121,1.85c-0.506,0.632-1.396,1.531-2.676,2.701l-1.916,1.804v0.146
			h6.49V257.675L188.053,257.675z"/>
		<path fill="#FFFFFF" d="M199.967,257.675h-10.416v-2.19l3.74-3.78c1.104-1.136,1.832-1.921,2.172-2.359
			c0.338-0.438,0.584-0.844,0.729-1.218c0.146-0.374,0.229-0.762,0.229-1.162c0-0.6-0.166-1.042-0.494-1.335
			c-0.33-0.292-0.771-0.438-1.318-0.438c-0.578,0-1.139,0.131-1.684,0.396c-0.543,0.266-1.109,0.643-1.701,1.131l-1.713-2.027
			c0.734-0.625,1.342-1.065,1.824-1.326c0.479-0.258,1.01-0.456,1.58-0.596c0.568-0.139,1.209-0.209,1.916-0.209
			c0.932,0,1.752,0.17,2.467,0.51c0.713,0.342,1.268,0.815,1.66,1.429c0.395,0.61,0.592,1.312,0.592,2.099
			c0,0.688-0.121,1.33-0.361,1.932c-0.242,0.602-0.615,1.218-1.121,1.85c-0.506,0.632-1.396,1.531-2.674,2.701l-1.916,1.804v0.146
			h6.49V257.675L199.967,257.675z"/>
		<path fill="#FFFFFF" d="M211.297,246.11c0,0.932-0.281,1.723-0.846,2.375c-0.564,0.651-1.355,1.102-2.373,1.346v0.062
			c1.197,0.149,2.109,0.517,2.729,1.097c0.618,0.58,0.928,1.363,0.928,2.349c0,1.433-0.521,2.549-1.561,3.347
			c-1.039,0.799-2.523,1.197-4.453,1.197c-1.615,0-3.049-0.268-4.299-0.805v-2.68c0.576,0.291,1.211,0.528,1.904,0.713
			c0.689,0.184,1.379,0.273,2.059,0.273c1.041,0,1.809-0.176,2.305-0.529s0.744-0.921,0.744-1.701c0-0.701-0.285-1.196-0.854-1.488
			c-0.57-0.292-1.479-0.438-2.729-0.438h-1.131v-2.416h1.149c1.147,0,1.996-0.151,2.524-0.453c0.533-0.303,0.806-0.819,0.806-1.555
			c0-1.127-0.705-1.691-2.119-1.691c-0.488,0-0.983,0.082-1.492,0.246c-0.506,0.162-1.065,0.444-1.688,0.847l-1.457-2.17
			c1.356-0.979,2.979-1.47,4.859-1.47c1.541,0,2.76,0.313,3.651,0.938C210.85,244.128,211.297,244.995,211.297,246.11z"/>
		<g>
			<path fill="#FFFFFF" d="M171.154,259.945c0.143-0.542,0.297-1.211,0.467-2.008c0.169-0.797,0.285-1.435,0.354-1.914h1.414
				l0.115,0.18c-0.135,0.521-0.329,1.126-0.583,1.816s-0.521,1.332-0.793,1.926H171.154z"/>
		</g>
	</g>
	<g>
		<path fill="#FFFFFF" d="M167.563,141.909h-3.146v-8.621l0.024-1.417l0.058-1.549c-0.521,0.521-0.894,0.866-1.097,1.029
			l-1.711,1.375l-1.52-1.895l4.799-3.821h2.59L167.563,141.909L167.563,141.909z"/>
		<path fill="#FFFFFF" d="M188.053,141.909h-10.414v-2.191l3.74-3.781c1.104-1.134,1.83-1.92,2.17-2.359
			c0.34-0.438,0.584-0.844,0.73-1.218c0.148-0.374,0.227-0.761,0.227-1.162c0-0.598-0.164-1.042-0.494-1.335
			c-0.328-0.292-0.768-0.438-1.318-0.438c-0.573,0-1.139,0.132-1.682,0.397c-0.543,0.265-1.111,0.642-1.701,1.131l-1.713-2.028
			c0.732-0.625,1.342-1.066,1.824-1.325c0.479-0.258,1.008-0.457,1.58-0.596c0.566-0.139,1.209-0.209,1.916-0.209
			c0.93,0,1.752,0.17,2.465,0.51c0.715,0.34,1.268,0.815,1.662,1.427c0.395,0.611,0.59,1.311,0.59,2.099
			c0,0.686-0.121,1.33-0.359,1.931c-0.237,0.601-0.608,1.217-1.121,1.849c-0.506,0.632-1.396,1.532-2.676,2.701l-1.916,1.804v0.143
			h6.49V141.909L188.053,141.909z"/>
		<path fill="#FFFFFF" d="M199.967,141.909h-10.416v-2.191l3.74-3.781c1.104-1.134,1.832-1.92,2.172-2.359
			c0.338-0.438,0.584-0.844,0.729-1.218c0.146-0.374,0.229-0.761,0.229-1.162c0-0.598-0.166-1.042-0.494-1.335
			c-0.33-0.292-0.771-0.438-1.318-0.438c-0.578,0-1.139,0.132-1.684,0.397c-0.543,0.265-1.109,0.642-1.701,1.131l-1.713-2.028
			c0.734-0.625,1.342-1.066,1.824-1.325c0.479-0.258,1.01-0.457,1.58-0.596c0.568-0.139,1.209-0.209,1.916-0.209
			c0.932,0,1.752,0.17,2.467,0.51c0.713,0.34,1.268,0.815,1.66,1.427c0.395,0.611,0.592,1.311,0.592,2.099
			c0,0.686-0.121,1.33-0.361,1.931c-0.242,0.601-0.615,1.217-1.121,1.849c-0.506,0.632-1.396,1.532-2.674,2.701l-1.916,1.804v0.143
			h6.49V141.909L199.967,141.909z"/>
		<path fill="#FFFFFF" d="M206.885,132.392c1.439,0,2.586,0.404,3.439,1.212c0.854,0.809,1.277,1.916,1.277,3.322
			c0,1.665-0.517,2.945-1.539,3.842c-1.023,0.896-2.494,1.345-4.398,1.345c-1.658,0-2.996-0.271-4.02-0.805v-2.721
			c0.537,0.285,1.162,0.518,1.875,0.698c0.713,0.18,1.393,0.27,2.024,0.27c1.925,0,2.888-0.788,2.888-2.364
			c0-1.501-0.994-2.252-2.986-2.252c-0.355,0-0.756,0.036-1.188,0.107c-0.438,0.071-0.789,0.148-1.063,0.229l-1.252-0.672
			l0.563-7.592h8.08v2.669h-5.318l-0.271,2.925l0.354-0.071C205.76,132.439,206.275,132.392,206.885,132.392z"/>
		<g>
			<path fill="#FFFFFF" d="M171.154,144.176c0.143-0.542,0.297-1.211,0.467-2.008c0.169-0.797,0.285-1.435,0.354-1.914h1.414
				l0.115,0.18c-0.135,0.521-0.329,1.126-0.583,1.816s-0.521,1.332-0.793,1.926H171.154L171.154,144.176z"/>
		</g>
	</g>
	<g>
		<path fill="#87868A" d="M74.021,211.832H59.123v-4.208c0-1.978,0.295-3.407,0.885-4.29c0.592-0.885,1.521-1.325,2.801-1.325
			c0.883,0,1.609,0.246,2.188,0.739c0.57,0.492,0.943,1.211,1.113,2.154h0.104c0.389-2.248,1.578-3.373,3.568-3.373
			c1.33,0,2.369,0.449,3.117,1.349c0.748,0.897,1.121,2.153,1.121,3.769V211.832L74.021,211.832z M65.49,210.1v-2.853
			c0-1.224-0.189-2.103-0.572-2.64c-0.385-0.537-1.027-0.807-1.938-0.807c-0.834,0-1.436,0.299-1.805,0.896
			c-0.369,0.597-0.555,1.55-0.555,2.854v2.547L65.49,210.1L65.49,210.1z M72.543,210.1v-3.107c0-1.2-0.23-2.105-0.697-2.715
			c-0.465-0.607-1.193-0.912-2.188-0.912c-0.926,0-1.605,0.312-2.037,0.934c-0.438,0.621-0.652,1.566-0.652,2.838v2.965
			L72.543,210.1L72.543,210.1z"/>
		<path fill="#87868A" d="M59.826,198.707c-0.391,0-0.674-0.087-0.854-0.264c-0.182-0.177-0.271-0.396-0.271-0.657
			c0-0.294,0.092-0.546,0.271-0.759c0.188-0.211,0.465-0.317,0.846-0.317c0.385,0,0.664,0.106,0.854,0.317
			c0.188,0.213,0.279,0.465,0.279,0.759c0,0.264-0.098,0.48-0.279,0.657C60.49,198.62,60.207,198.707,59.826,198.707z
			 M74.021,198.565H62.854v-1.549h11.168L74.021,198.565L74.021,198.565z"/>
		<path fill="#87868A" d="M74.021,193.286H58.166v-1.691H74.02L74.021,193.286L74.021,193.286z"/>
		<path fill="#87868A" d="M74.021,188.008H58.166v-1.691H74.02L74.021,188.008L74.021,188.008z"/>
		<path fill="#87868A" d="M59.826,182.872c-0.391,0-0.674-0.089-0.854-0.265c-0.182-0.176-0.271-0.396-0.271-0.656
			c0-0.293,0.092-0.547,0.271-0.758c0.188-0.213,0.465-0.318,0.846-0.318c0.385,0,0.664,0.105,0.854,0.318
			c0.188,0.211,0.279,0.465,0.279,0.758c0,0.263-0.098,0.48-0.279,0.656C60.49,182.784,60.207,182.872,59.826,182.872z
			 M74.021,182.731H62.854v-1.55h11.168L74.021,182.731L74.021,182.731z"/>
		<path fill="#87868A" d="M68.416,178.073c-1.816,0-3.23-0.455-4.246-1.361c-1.018-0.908-1.521-2.168-1.521-3.78
			c0-1.558,0.521-2.795,1.561-3.713c1.035-0.918,2.438-1.377,4.211-1.377c1.822,0,3.248,0.457,4.271,1.372
			c1.023,0.914,1.537,2.178,1.537,3.789c0,0.996-0.232,1.88-0.705,2.652c-0.471,0.771-1.145,1.367-2.021,1.787
			C70.623,177.862,69.594,178.073,68.416,178.073z M68.416,176.34c1.43,0,2.521-0.286,3.27-0.857
			c0.75-0.569,1.125-1.412,1.125-2.521s-0.373-1.951-1.119-2.526c-0.746-0.574-1.838-0.861-3.271-0.861
			c-1.424,0-2.504,0.287-3.244,0.861c-0.736,0.575-1.107,1.424-1.107,2.547c0,1.108,0.365,1.945,1.098,2.51
			C65.887,176.058,66.973,176.34,68.416,176.34z"/>
		<path fill="#87868A" d="M74.021,164.846H62.854v-1.376l1.508-0.275v-0.081c-0.543-0.347-0.965-0.832-1.266-1.457
			c-0.299-0.625-0.447-1.321-0.447-2.089c0-1.346,0.324-2.357,0.979-3.037c0.646-0.68,1.688-1.021,3.107-1.021h7.287v1.692h-7.238
			c-0.91,0-1.594,0.207-2.041,0.621c-0.447,0.415-0.678,1.063-0.678,1.946c0,1.169,0.316,2.024,0.951,2.568
			c0.633,0.543,1.678,0.815,3.135,0.815h5.871L74.021,164.846L74.021,164.846z"/>
		<path fill="#87868A" d="M72.283,147.117h-1.598c0.252-0.563,0.457-1.214,0.615-1.951c0.16-0.737,0.24-1.408,0.24-2.013H67.06
			c-0.438,1.393-0.955,2.369-1.539,2.93s-1.338,0.841-2.264,0.841c-0.889,0-1.619-0.345-2.189-1.034
			c-0.566-0.689-0.918-1.602-1.039-2.736h-1.854v-1.335h1.834c0.035-1.246,0.287-2.448,0.756-3.607l1.334,0.53
			c-0.399,1.009-0.639,2.035-0.713,3.077h4.424c0.34-1.063,0.67-1.859,0.992-2.389c0.322-0.528,0.693-0.918,1.111-1.169
			c0.416-0.25,0.926-0.376,1.521-0.376c0.924,0,1.688,0.346,2.291,1.037c0.604,0.691,0.984,1.656,1.146,2.896h2.354v1.335h-2.264
			c0,0.761-0.063,1.498-0.184,2.212C72.662,146.078,72.496,146.662,72.283,147.117z M63.25,145.192c0.518,0,0.932-0.152,1.242-0.456
			c0.313-0.304,0.605-0.831,0.889-1.582h-3.943c0.107,0.669,0.32,1.177,0.639,1.521C62.389,145.02,62.781,145.192,63.25,145.192z
			 M71.441,141.819c-0.203-1.467-0.828-2.201-1.875-2.201c-0.484,0-0.885,0.15-1.188,0.452c-0.303,0.301-0.604,0.884-0.9,1.749
			H71.441z"/>
	</g>
	
		<line fill="none" stroke="#666666" stroke-width="0.25" stroke-miterlimit="10" x1="105.279" y1="71.127" x2="105.279" y2="319.159"/>
	
		<line fill="none" stroke="#666666" stroke-width="0.25" stroke-miterlimit="10" x1="235.988" y1="319.159" x2="91.559" y2="319.159"/>
	
		<line fill="none" stroke="#666666" stroke-width="0.25" stroke-miterlimit="10" x1="235.988" y1="71.127" x2="91.559" y2="71.127"/>
</g>
<g id="EU28-estimates">
	<g>
		<rect x="135.488" y="567.417" fill="#199598" width="100.499" height="118.787"/>
		<rect x="135.488" y="438.224" fill="#DD9B2B" width="100.499" height="129.193"/>
	</g>
	<g>
		<path fill="#9A999E" d="M58.008,440.593v-1.234l5.895-8.4h1.496v8.35h1.855v1.291h-1.855v2.85h-1.336v-2.85h-6.055V440.593z
			 M59.434,439.302h4.629v-4.127c0-0.811,0.025-1.725,0.084-2.742H64.08c-0.271,0.543-0.525,0.994-0.766,1.354L59.434,439.302z"/>
		<path fill="#9A999E" d="M68.504,435.011c0-1.287,0.361-2.305,1.086-3.049c0.727-0.744,1.678-1.117,2.855-1.117
			c0.848,0,1.588,0.215,2.221,0.646c0.633,0.436,1.121,1.063,1.461,1.895c0.342,0.826,0.512,1.809,0.512,2.934
			c0,4.857-1.883,7.293-5.646,7.293c-0.658,0-1.184-0.061-1.566-0.17v-1.23c0.455,0.17,0.971,0.256,1.551,0.256
			c1.355,0,2.381-0.422,3.072-1.268c0.691-0.848,1.07-2.141,1.133-3.881h-0.104c-0.313,0.477-0.727,0.838-1.236,1.088
			c-0.516,0.25-1.094,0.373-1.738,0.373c-1.104,0-1.979-0.33-2.625-0.992C68.828,437.121,68.504,436.197,68.504,435.011z
			 M69.914,434.992c0,0.816,0.205,1.463,0.609,1.934c0.404,0.469,1.023,0.705,1.854,0.705c0.516,0,0.988-0.104,1.42-0.313
			c0.436-0.209,0.771-0.498,1.021-0.861s0.373-0.744,0.373-1.146c0-0.598-0.113-1.145-0.35-1.65
			c-0.229-0.506-0.557-0.902-0.971-1.193c-0.416-0.289-0.895-0.436-1.432-0.436c-0.811,0-1.436,0.262-1.873,0.779
			C70.132,433.333,69.914,434.06,69.914,434.992z"/>
		<path fill="#9A999E" d="M78.676,442.927v-1.359c0.396,0.254,0.893,0.449,1.479,0.596c0.59,0.146,1.17,0.217,1.738,0.217
			c0.996,0,1.771-0.229,2.32-0.701c0.555-0.471,0.828-1.145,0.828-2.025c0-1.73-1.063-2.596-3.188-2.596
			c-0.537,0-1.26,0.082-2.158,0.244l-0.729-0.467l0.475-5.809h6.176v1.291h-4.973l-0.313,3.732c0.65-0.119,1.301-0.18,1.943-0.18
			c1.311,0,2.338,0.322,3.092,0.967c0.75,0.646,1.125,1.525,1.125,2.646c0,1.289-0.408,2.297-1.229,3.023
			c-0.816,0.73-1.943,1.104-3.385,1.104C80.48,443.607,79.414,443.382,78.676,442.927z"/>
	</g>
	<g>
		<path fill="#9A999E" d="M78.414,679.974c0-2.156,0.338-3.766,1.014-4.813c0.678-1.047,1.707-1.57,3.094-1.57
			c1.35,0,2.367,0.547,3.066,1.643c0.697,1.094,1.047,2.674,1.047,4.74c0,2.146-0.338,3.75-1.014,4.814
			c-0.678,1.061-1.709,1.59-3.104,1.59c-1.34,0-2.355-0.543-3.059-1.627C78.76,683.662,78.414,682.072,78.414,679.974z
			 M79.857,679.974c0,1.807,0.213,3.113,0.639,3.939c0.424,0.822,1.1,1.229,2.021,1.229c0.938,0,1.617-0.416,2.039-1.25
			c0.422-0.832,0.635-2.139,0.635-3.918c0-1.771-0.213-3.082-0.635-3.902c-0.422-0.828-1.102-1.242-2.039-1.242
			c-0.928,0-1.604,0.408-2.021,1.225C80.07,676.865,79.857,678.173,79.857,679.974z"/>
	</g>
	<g>
		<path fill="#FFFFFF" d="M178.305,624.72h-10.412v-2.188l3.738-3.779c1.105-1.137,1.83-1.922,2.17-2.355
			c0.342-0.439,0.584-0.848,0.734-1.223c0.146-0.373,0.225-0.762,0.225-1.162c0-0.6-0.166-1.041-0.494-1.334
			s-0.77-0.438-1.318-0.438c-0.571,0-1.139,0.131-1.682,0.395c-0.545,0.271-1.104,0.646-1.701,1.137l-1.713-2.027
			c0.732-0.625,1.344-1.066,1.822-1.326c0.48-0.258,1.01-0.457,1.58-0.596c0.57-0.145,1.209-0.209,1.916-0.209
			c0.932,0,1.752,0.17,2.465,0.51c0.715,0.342,1.27,0.814,1.662,1.428c0.396,0.611,0.59,1.314,0.59,2.105
			c0,0.688-0.119,1.33-0.357,1.932c-0.237,0.605-0.61,1.221-1.116,1.854c-0.511,0.633-1.396,1.527-2.681,2.697l-1.916,1.809v0.145
			h6.49v2.646h-0.002V624.72L178.305,624.72z"/>
		<path fill="#FFFFFF" d="M189.637,613.156c0,0.932-0.281,1.723-0.846,2.375c-0.563,0.646-1.355,1.102-2.375,1.346v0.064
			c1.203,0.145,2.111,0.516,2.729,1.096c0.615,0.58,0.93,1.363,0.93,2.35c0,1.439-0.521,2.551-1.563,3.354
			c-1.037,0.799-2.521,1.189-4.451,1.189c-1.615,0-3.054-0.268-4.304-0.805v-2.68c0.576,0.291,1.216,0.523,1.904,0.713
			c0.688,0.184,1.379,0.27,2.063,0.27c1.037,0,1.811-0.176,2.305-0.523c0.496-0.355,0.744-0.92,0.744-1.701
			c0-0.701-0.285-1.195-0.854-1.488c-0.572-0.291-1.48-0.438-2.73-0.438h-1.133v-2.416h1.152c1.152,0,1.998-0.15,2.529-0.453
			c0.533-0.305,0.803-0.818,0.803-1.559c0-1.129-0.707-1.688-2.119-1.688c-0.49,0-0.986,0.082-1.494,0.246
			c-0.506,0.162-1.064,0.441-1.688,0.848l-1.456-2.17c1.354-0.979,2.979-1.471,4.856-1.471c1.541,0,2.762,0.313,3.649,0.938
			C189.193,611.171,189.637,612.041,189.637,613.156z"/>
		<path fill="#FFFFFF" d="M196.854,609.628c1.433,0,2.574,0.326,3.447,0.979c0.873,0.646,1.313,1.521,1.313,2.621
			c0,0.764-0.211,1.438-0.631,2.031c-0.424,0.598-1.104,1.125-2.039,1.6c1.113,0.598,1.914,1.221,2.396,1.865
			c0.486,0.648,0.729,1.359,0.729,2.139c0,1.223-0.479,2.207-1.438,2.951c-0.957,0.738-2.217,1.111-3.779,1.111
			c-1.631,0-2.908-0.346-3.842-1.039c-0.932-0.689-1.396-1.676-1.396-2.941c0-0.854,0.23-1.604,0.683-2.266
			c0.453-0.654,1.181-1.236,2.177-1.738c-0.851-0.537-1.462-1.111-1.834-1.727c-0.371-0.611-0.563-1.275-0.563-2.008
			c0-1.064,0.438-1.928,1.32-2.588C194.283,609.958,195.434,609.628,196.854,609.628z M194.531,620.757
			c0,0.584,0.203,1.039,0.609,1.365c0.403,0.326,0.965,0.488,1.672,0.488c0.776,0,1.36-0.168,1.754-0.512
			c0.389-0.336,0.58-0.771,0.58-1.322c0-0.455-0.189-0.889-0.574-1.279c-0.387-0.396-1.008-0.82-1.869-1.271
			C195.254,618.896,194.531,619.738,194.531,620.757z M196.834,611.931c-0.537,0-0.969,0.143-1.299,0.412
			c-0.33,0.275-0.494,0.646-0.494,1.105c0,0.408,0.131,0.77,0.393,1.096c0.269,0.322,0.734,0.654,1.424,0.994
			c0.664-0.314,1.131-0.633,1.396-0.959c0.265-0.326,0.396-0.703,0.396-1.131c0-0.469-0.17-0.84-0.51-1.111
			C197.797,612.068,197.365,611.931,196.834,611.931z"/>
	</g>
	<g>
		<path fill="#FFFFFF" d="M178.305,508.955h-10.412v-2.189l3.738-3.775c1.105-1.141,1.83-1.92,2.17-2.359
			c0.342-0.438,0.584-0.844,0.734-1.219c0.146-0.373,0.225-0.76,0.225-1.162c0-0.598-0.166-1.041-0.494-1.334
			s-0.77-0.438-1.318-0.438c-0.571,0-1.139,0.135-1.682,0.395c-0.545,0.268-1.104,0.646-1.701,1.133l-1.713-2.023
			c0.732-0.625,1.344-1.064,1.822-1.324c0.48-0.26,1.01-0.457,1.58-0.602c0.57-0.141,1.209-0.209,1.916-0.209
			c0.932,0,1.752,0.172,2.465,0.516c0.715,0.34,1.27,0.813,1.662,1.428c0.396,0.609,0.59,1.313,0.59,2.1
			c0,0.688-0.119,1.33-0.357,1.936c-0.237,0.6-0.61,1.217-1.116,1.848c-0.511,0.633-1.396,1.533-2.681,2.701l-1.916,1.805v0.146
			h6.49v2.645h-0.002V508.955L178.305,508.955z"/>
		<path fill="#FFFFFF" d="M185.225,499.439c1.439,0,2.588,0.4,3.439,1.213c0.854,0.809,1.275,1.916,1.275,3.318
			c0,1.664-0.519,2.943-1.537,3.846c-1.025,0.895-2.492,1.344-4.4,1.344c-1.658,0-2.996-0.271-4.018-0.807v-2.723
			c0.537,0.285,1.162,0.521,1.875,0.697c0.715,0.182,1.391,0.27,2.025,0.27c1.926,0,2.887-0.787,2.887-2.361
			c0-1.5-0.996-2.252-2.984-2.252c-0.359,0-0.76,0.035-1.191,0.104c-0.433,0.07-0.787,0.146-1.061,0.23l-1.256-0.674l0.563-7.594
			h8.082v2.67h-5.316l-0.271,2.928l0.354-0.07C184.102,499.484,184.615,499.439,185.225,499.439z"/>
		<path fill="#FFFFFF" d="M193.197,508.955l5.596-12.229h-7.35v-2.646h10.688v1.979l-5.635,12.9L193.197,508.955L193.197,508.955z"
			/>
	</g>
	<g>
		<path fill="#87868A" d="M74.447,578.878H59.549v-4.209c0-1.977,0.297-3.406,0.887-4.289c0.594-0.885,1.523-1.326,2.801-1.326
			c0.885,0,1.609,0.246,2.188,0.74c0.574,0.492,0.945,1.211,1.115,2.154h0.104c0.393-2.248,1.578-3.373,3.57-3.373
			c1.332,0,2.371,0.449,3.119,1.348c0.746,0.9,1.121,2.154,1.121,3.771L74.447,578.878L74.447,578.878z M65.918,577.146v-2.854
			c0-1.225-0.189-2.104-0.574-2.641c-0.383-0.537-1.025-0.813-1.938-0.813c-0.834,0-1.438,0.299-1.807,0.896
			c-0.367,0.598-0.555,1.549-0.555,2.854v2.547L65.918,577.146L65.918,577.146z M72.969,577.146v-3.104
			c0-1.201-0.23-2.104-0.695-2.715c-0.469-0.609-1.191-0.912-2.188-0.912c-0.924,0-1.604,0.313-2.037,0.934
			c-0.438,0.621-0.652,1.566-0.652,2.84v2.967L72.969,577.146L72.969,577.146z"/>
		<path fill="#87868A" d="M60.252,565.753c-0.387,0-0.672-0.088-0.854-0.264c-0.182-0.178-0.271-0.396-0.271-0.658
			c0-0.293,0.092-0.545,0.273-0.758c0.186-0.211,0.467-0.318,0.848-0.318s0.664,0.107,0.852,0.318
			c0.188,0.213,0.279,0.465,0.279,0.758c0,0.264-0.094,0.479-0.279,0.658C60.916,565.666,60.631,565.753,60.252,565.753z
			 M74.447,565.611H63.279v-1.549h11.168V565.611z"/>
		<path fill="#87868A" d="M74.447,560.332H58.59v-1.689h15.855L74.447,560.332L74.447,560.332z"/>
		<path fill="#87868A" d="M74.447,555.054H58.59v-1.688h15.855L74.447,555.054L74.447,555.054z"/>
		<path fill="#87868A" d="M60.252,549.917c-0.387,0-0.672-0.088-0.854-0.264c-0.182-0.178-0.271-0.396-0.271-0.656
			c0-0.293,0.092-0.547,0.273-0.758c0.186-0.213,0.467-0.318,0.848-0.318s0.664,0.105,0.852,0.318
			c0.188,0.211,0.279,0.465,0.279,0.758c0,0.262-0.094,0.479-0.279,0.656C60.917,549.83,60.631,549.917,60.252,549.917z
			 M74.447,549.777H63.279v-1.555h11.168V549.777z"/>
		<path fill="#87868A" d="M68.842,545.119c-1.814,0-3.23-0.455-4.248-1.361c-1.014-0.908-1.52-2.168-1.52-3.775
			c0-1.563,0.518-2.801,1.557-3.719c1.037-0.918,2.438-1.377,4.211-1.377c1.824,0,3.248,0.457,4.271,1.373
			c1.021,0.914,1.537,2.18,1.537,3.789c0,0.996-0.234,1.879-0.705,2.652c-0.473,0.77-1.146,1.367-2.021,1.787
			C71.047,544.908,70.018,545.119,68.842,545.119z M68.842,543.386c1.43,0,2.521-0.283,3.271-0.854
			c0.748-0.568,1.123-1.412,1.123-2.521c0-1.104-0.373-1.945-1.117-2.521c-0.744-0.574-1.837-0.861-3.273-0.861
			c-1.422,0-2.504,0.287-3.242,0.861c-0.734,0.576-1.104,1.424-1.104,2.547c0,1.104,0.361,1.943,1.092,2.51
			C66.311,543.105,67.4,543.386,68.842,543.386z"/>
		<path fill="#87868A" d="M74.447,531.892H63.279v-1.377l1.51-0.271v-0.08c-0.543-0.35-0.967-0.832-1.266-1.457
			c-0.301-0.625-0.445-1.32-0.445-2.09c0-1.35,0.322-2.355,0.973-3.037c0.646-0.68,1.688-1.021,3.113-1.021h7.283v1.691H67.21
			c-0.914,0-1.594,0.207-2.043,0.621s-0.674,1.063-0.674,1.943c0,1.172,0.313,2.023,0.947,2.566s1.68,0.814,3.137,0.814h5.869
			V531.892z"/>
		<path fill="#87868A" d="M72.709,514.162h-1.594c0.25-0.563,0.455-1.213,0.613-1.949c0.158-0.732,0.236-1.408,0.236-2.014h-4.48
			c-0.439,1.395-0.951,2.369-1.539,2.93c-0.584,0.564-1.338,0.842-2.264,0.842c-0.891,0-1.617-0.346-2.188-1.027
			c-0.57-0.689-0.916-1.605-1.039-2.736h-1.854v-1.336h1.834c0.033-1.246,0.285-2.447,0.756-3.605l1.336,0.529
			c-0.398,1.01-0.643,2.035-0.715,3.076h4.424c0.342-1.064,0.674-1.857,0.992-2.395c0.32-0.521,0.691-0.918,1.109-1.168
			s0.926-0.377,1.521-0.377c0.926,0,1.688,0.352,2.291,1.037c0.604,0.689,0.982,1.654,1.145,2.896h2.354v1.334h-2.266
			c0,0.762-0.063,1.498-0.18,2.213C73.086,513.125,72.92,513.708,72.709,514.162z M63.674,512.238c0.52,0,0.936-0.152,1.244-0.457
			c0.313-0.307,0.605-0.83,0.887-1.582h-3.941c0.105,0.67,0.32,1.178,0.639,1.521C62.816,512.066,63.207,512.238,63.674,512.238z
			 M71.869,508.865c-0.203-1.467-0.828-2.201-1.875-2.201c-0.488,0-0.887,0.15-1.188,0.451c-0.303,0.303-0.604,0.885-0.896,1.75
			H71.869z"/>
	</g>
	<g>
		<path fill="#666565" d="M84.045,399.297v-14.896h8.307v1.549H85.78v4.77h6.178v1.549H85.78v5.48h6.572v1.551h-8.307V399.297z"/>
		<path fill="#666565" d="M95.5,393.999v-9.6h1.73v9.736c0,1.244,0.34,2.201,1.02,2.867c0.68,0.668,1.678,1,2.996,1
			c1.258,0,2.225-0.334,2.902-1.006c0.682-0.67,1.021-1.631,1.021-2.883v-9.715h1.73v9.641c0,1.699-0.516,3.033-1.539,4.006
			c-1.023,0.972-2.438,1.457-4.229,1.457s-3.182-0.489-4.162-1.469C95.99,397.056,95.5,395.711,95.5,393.999z"/>
		<path fill="#666565" d="M109.816,399.297v-1.438l3.926-3.959c1.191-1.214,1.979-2.08,2.359-2.599
			c0.383-0.519,0.666-1.022,0.855-1.515c0.188-0.49,0.285-1.021,0.285-1.586c0-0.799-0.242-1.432-0.727-1.897
			c-0.479-0.468-1.148-0.701-2.01-0.701c-0.617,0-1.203,0.103-1.758,0.308c-0.555,0.203-1.17,0.576-1.852,1.115L110,385.869
			c1.373-1.123,2.867-1.684,4.482-1.684c1.396,0,2.496,0.357,3.291,1.07s1.189,1.671,1.189,2.875c0,0.947-0.267,1.886-0.795,2.813
			c-0.527,0.928-1.521,2.104-2.979,3.521l-3.26,3.203v0.082h7.66v1.549h-9.789v-0.002L109.816,399.297L109.816,399.297z"/>
		<path fill="#666565" d="M121.791,395.497c0-1.705,1.045-3.033,3.137-3.983c-0.945-0.53-1.627-1.104-2.039-1.718
			c-0.412-0.614-0.617-1.303-0.617-2.063c0-1.08,0.4-1.939,1.203-2.582c0.805-0.643,1.877-0.964,3.229-0.964
			c1.359,0,2.439,0.315,3.238,0.948c0.801,0.632,1.193,1.505,1.193,2.619c0,0.732-0.229,1.402-0.688,2.007
			c-0.457,0.604-1.188,1.153-2.191,1.649c1.215,0.578,2.08,1.186,2.592,1.819c0.516,0.636,0.771,1.371,0.771,2.206
			c0,1.236-0.438,2.225-1.301,2.96c-0.863,0.737-2.055,1.104-3.561,1.104c-1.594,0-2.82-0.348-3.68-1.043
			C122.219,397.761,121.791,396.774,121.791,395.497z M123.482,395.538c0,0.814,0.279,1.451,0.852,1.906
			c0.566,0.455,1.359,0.684,2.385,0.684c1.012,0,1.799-0.238,2.361-0.715c0.561-0.476,0.844-1.127,0.844-1.957
			c0-0.657-0.264-1.244-0.793-1.758c-0.527-0.513-1.451-1.01-2.77-1.492c-1.014,0.436-1.74,0.916-2.195,1.441
			C123.709,394.174,123.482,394.804,123.482,395.538z M123.961,387.803c0,0.625,0.199,1.162,0.6,1.609
			c0.4,0.449,1.145,0.896,2.223,1.346c0.969-0.407,1.652-0.848,2.059-1.314c0.404-0.468,0.604-1.016,0.604-1.641
			c0-0.688-0.244-1.23-0.734-1.635c-0.492-0.404-1.17-0.606-2.029-0.606c-0.848,0-1.514,0.204-1.994,0.611
			C124.203,386.579,123.961,387.124,123.961,387.803z"/>
		<path fill="#666565" d="M139.254,393.805c0-1.801,0.439-3.23,1.326-4.29c0.885-1.062,2.068-1.589,3.563-1.589
			c1.396,0,2.496,0.46,3.313,1.38c0.813,0.921,1.219,2.136,1.219,3.644v1.069h-7.684c0.029,1.312,0.361,2.306,0.992,2.985
			c0.633,0.679,1.518,1.019,2.658,1.019c1.197,0,2.385-0.251,3.559-0.754v1.509c-0.6,0.258-1.16,0.442-1.691,0.555
			c-0.531,0.111-1.174,0.168-1.926,0.168c-1.646,0-2.945-0.502-3.896-1.508C139.736,396.987,139.254,395.593,139.254,393.805z
			 M141.029,392.643h5.852c0-1.066-0.238-1.883-0.715-2.451c-0.479-0.566-1.156-0.851-2.041-0.851c-0.898,0-1.615,0.292-2.148,0.876
			C141.438,390.803,141.125,391.61,141.029,392.643z"/>
		<path fill="#666565" d="M150.873,390.874c0-0.91,0.371-1.631,1.107-2.157c0.738-0.527,1.754-0.791,3.045-0.791
			c1.188,0,2.359,0.243,3.504,0.731l-0.59,1.377c-1.115-0.463-2.133-0.693-3.037-0.693c-0.807,0-1.408,0.126-1.816,0.378
			c-0.408,0.251-0.611,0.599-0.611,1.042c0,0.3,0.076,0.555,0.229,0.766c0.151,0.211,0.396,0.412,0.737,0.604
			c0.343,0.191,0.994,0.468,1.961,0.828c1.324,0.482,2.218,0.971,2.675,1.461c0.457,0.488,0.687,1.104,0.687,1.849
			c0,1.034-0.388,1.832-1.152,2.394c-0.771,0.562-1.854,0.842-3.24,0.842c-1.479,0-2.635-0.23-3.459-0.693v-1.561
			c0.533,0.272,1.104,0.488,1.725,0.646c0.613,0.157,1.205,0.235,1.775,0.235c0.885,0,1.563-0.143,2.043-0.426
			c0.479-0.281,0.715-0.713,0.715-1.291c0-0.437-0.188-0.81-0.564-1.119c-0.379-0.311-1.111-0.676-2.211-1.098
			c-1.043-0.389-1.777-0.728-2.219-1.018s-0.762-0.618-0.975-0.986C150.979,391.823,150.873,391.385,150.873,390.874z"/>
		<path fill="#666565" d="M160.063,389.444v-0.814l1.604-0.703l0.713-2.387h0.979v2.59h3.236v1.313h-3.236v6.588
			c0,0.674,0.156,1.191,0.479,1.553c0.314,0.361,0.76,0.543,1.313,0.543c0.303,0,0.588-0.022,0.863-0.066
			c0.278-0.044,0.5-0.09,0.661-0.139v1.277c-0.184,0.088-0.452,0.159-0.813,0.217c-0.354,0.058-0.678,0.086-0.963,0.086
			c-2.157,0-3.237-1.139-3.237-3.414v-6.645h-1.604L160.063,389.444L160.063,389.444z"/>
		<path fill="#666565" d="M168.764,385.102c0-0.387,0.09-0.671,0.271-0.852c0.174-0.18,0.396-0.271,0.651-0.271
			c0.293,0,0.547,0.093,0.758,0.274c0.218,0.185,0.316,0.467,0.316,0.847s-0.104,0.664-0.316,0.851
			c-0.211,0.188-0.465,0.28-0.758,0.28c-0.266,0-0.479-0.093-0.651-0.28C168.854,385.766,168.764,385.483,168.764,385.102z
			 M168.91,399.297v-11.168h1.549v11.168H168.91z"/>
		<path fill="#666565" d="M174.188,399.297v-11.168h1.375l0.273,1.51h0.082c0.316-0.537,0.771-0.957,1.352-1.26
			c0.582-0.303,1.23-0.452,1.949-0.452c1.746,0,2.891,0.625,3.426,1.876h0.082c0.332-0.579,0.814-1.036,1.445-1.372
			c0.633-0.336,1.354-0.504,2.16-0.504c1.264,0,2.209,0.323,2.838,0.974c0.629,0.646,0.941,1.688,0.941,3.112v7.286h-1.689v-7.281
			c0-0.893-0.188-1.563-0.57-2.006c-0.381-0.446-0.973-0.669-1.771-0.669c-1.056,0-1.83,0.303-2.334,0.909
			c-0.502,0.604-0.754,1.537-0.754,2.798v6.249h-1.69v-7.281c0-0.893-0.189-1.563-0.568-2.006c-0.383-0.446-0.978-0.669-1.777-0.669
			c-1.063,0-1.836,0.317-2.33,0.954c-0.492,0.638-0.736,1.681-0.736,3.131v5.871L174.188,399.297L174.188,399.297z"/>
		<path fill="#666565" d="M192.762,396.222c0-2.25,1.809-3.429,5.418-3.537l1.898-0.063v-0.701c0-0.887-0.188-1.541-0.563-1.965
			c-0.379-0.424-0.979-0.635-1.81-0.635c-0.935,0-1.979,0.289-3.151,0.866l-0.521-1.298c0.551-0.294,1.148-0.525,1.809-0.691
			c0.654-0.168,1.313-0.252,1.973-0.252c1.33,0,2.314,0.295,2.957,0.889c0.646,0.591,0.963,1.537,0.963,2.843v7.622h-1.254
			l-0.336-1.571h-0.082c-0.557,0.692-1.104,1.162-1.662,1.407c-0.555,0.246-1.237,0.367-2.063,0.367
			c-1.11,0-1.983-0.283-2.617-0.854C193.08,398.079,192.762,397.27,192.762,396.222z M194.555,396.241
			c0,0.615,0.189,1.082,0.559,1.403c0.367,0.321,0.892,0.481,1.556,0.481c1.051,0,1.877-0.291,2.479-0.871
			c0.604-0.58,0.897-1.393,0.897-2.438v-1.014l-1.688,0.07c-1.344,0.049-2.313,0.259-2.898,0.631
			C194.854,394.879,194.555,395.456,194.555,396.241z"/>
		<path fill="#666565" d="M203.727,389.444v-0.814l1.604-0.703l0.713-2.387h0.979v2.59h3.238v1.313h-3.238v6.588
			c0,0.674,0.156,1.191,0.479,1.553c0.318,0.361,0.758,0.543,1.313,0.543c0.301,0,0.588-0.022,0.863-0.066
			c0.276-0.044,0.5-0.09,0.664-0.139v1.277c-0.188,0.088-0.455,0.159-0.814,0.217c-0.355,0.058-0.682,0.086-0.965,0.086
			c-2.155,0-3.235-1.139-3.235-3.414v-6.645h-1.604L203.727,389.444L203.727,389.444z"/>
		<path fill="#666565" d="M211.953,393.805c0-1.801,0.438-3.23,1.324-4.29c0.887-1.062,2.068-1.589,3.563-1.589
			c1.396,0,2.498,0.46,3.313,1.38c0.813,0.921,1.221,2.136,1.221,3.644v1.069h-7.688c0.033,1.312,0.36,2.306,0.994,2.985
			c0.631,0.679,1.52,1.019,2.655,1.019c1.199,0,2.388-0.251,3.56-0.754v1.509c-0.601,0.258-1.158,0.442-1.688,0.555
			c-0.531,0.111-1.174,0.168-1.928,0.168c-1.646,0-2.943-0.502-3.896-1.508C212.432,396.987,211.953,395.593,211.953,393.805z
			 M213.725,392.643h5.854c0-1.066-0.238-1.883-0.72-2.451c-0.479-0.566-1.151-0.851-2.041-0.851c-0.896,0-1.61,0.292-2.146,0.876
			C214.135,390.803,213.822,391.61,213.725,392.643z"/>
		<path fill="#666565" d="M223.57,390.874c0-0.91,0.369-1.631,1.104-2.157c0.74-0.527,1.756-0.791,3.047-0.791
			c1.193,0,2.361,0.243,3.504,0.731l-0.592,1.377c-1.115-0.463-2.131-0.693-3.035-0.693c-0.807,0-1.406,0.126-1.813,0.378
			c-0.41,0.251-0.613,0.599-0.613,1.042c0,0.3,0.076,0.555,0.229,0.766c0.146,0.211,0.396,0.412,0.736,0.604
			c0.342,0.191,0.992,0.468,1.963,0.828c1.32,0.482,2.217,0.971,2.672,1.461c0.455,0.488,0.688,1.104,0.688,1.849
			c0,1.034-0.388,1.832-1.153,2.394c-0.771,0.562-1.853,0.842-3.242,0.842c-1.479,0-2.633-0.23-3.459-0.693v-1.561
			c0.535,0.272,1.108,0.488,1.729,0.646c0.607,0.157,1.205,0.235,1.771,0.235c0.889,0,1.563-0.143,2.041-0.426
			c0.479-0.281,0.717-0.713,0.717-1.291c0-0.437-0.188-0.81-0.563-1.119c-0.377-0.311-1.113-0.676-2.211-1.098
			c-1.041-0.389-1.777-0.728-2.217-1.018c-0.44-0.29-0.766-0.618-0.979-0.986C223.674,391.823,223.57,391.385,223.57,390.874z"/>
	</g>
	
		<line fill="none" stroke="#666666" stroke-width="0.25" stroke-miterlimit="10" x1="105.275" y1="438.173" x2="105.275" y2="686.205"/>
	
		<line fill="none" stroke="#666666" stroke-width="0.25" stroke-miterlimit="10" x1="235.986" y1="686.205" x2="91.553" y2="686.205"/>
	
		<line fill="none" stroke="#666666" stroke-width="0.25" stroke-miterlimit="10" x1="235.986" y1="438.173" x2="91.553" y2="438.173"/>
</g>
<g id="legend">
	<g>
		<g>
			<path fill="#5B5B5F" d="M92.98,745.044c0-1.275,0.234-2.395,0.709-3.355c0.477-0.963,1.16-1.703,2.064-2.225
				c0.898-0.521,1.965-0.781,3.188-0.781c1.305,0,2.438,0.236,3.414,0.715l-0.609,1.236c-0.938-0.438-1.883-0.66-2.818-0.66
				c-1.363,0-2.439,0.453-3.23,1.359c-0.787,0.908-1.186,2.15-1.186,3.729c0,1.625,0.383,2.879,1.145,3.766
				c0.764,0.885,1.85,1.328,3.258,1.328c0.863,0,1.854-0.156,2.965-0.471v1.271c-0.859,0.324-1.924,0.486-3.188,0.486
				c-1.828,0-3.234-0.561-4.227-1.666C93.475,748.667,92.98,747.089,92.98,745.044z"/>
			<path fill="#5B5B5F" d="M103.865,746.603c0-1.518,0.377-2.693,1.135-3.537c0.756-0.848,1.809-1.271,3.146-1.271
				c1.299,0,2.33,0.439,3.098,1.297c0.766,0.865,1.146,2.035,1.146,3.514c0,1.52-0.381,2.707-1.145,3.563
				c-0.766,0.854-1.814,1.279-3.158,1.279c-0.83,0-1.564-0.193-2.211-0.588c-0.646-0.396-1.143-0.953-1.486-1.689
				C104.041,748.441,103.865,747.583,103.865,746.603z M105.311,746.603c0,1.188,0.236,2.102,0.715,2.727
				c0.479,0.623,1.178,0.938,2.104,0.938c0.924,0,1.625-0.313,2.104-0.934c0.479-0.621,0.721-1.529,0.721-2.729
				c0-1.189-0.238-2.088-0.721-2.703c-0.479-0.615-1.188-0.922-2.123-0.922c-0.924,0-1.621,0.303-2.092,0.908
				C105.543,744.496,105.311,745.4,105.311,746.603z"/>
			<path fill="#5B5B5F" d="M114.293,744.253c0-0.758,0.309-1.354,0.924-1.797c0.617-0.439,1.463-0.658,2.537-0.658
				c0.994,0,1.971,0.203,2.92,0.609l-0.49,1.145c-0.934-0.389-1.773-0.578-2.531-0.578c-0.67,0-1.174,0.105-1.516,0.314
				s-0.512,0.498-0.512,0.867c0,0.25,0.063,0.463,0.189,0.641c0.127,0.176,0.332,0.342,0.617,0.502
				c0.281,0.156,0.826,0.393,1.633,0.689c1.105,0.396,1.85,0.811,2.229,1.217c0.379,0.408,0.566,0.922,0.566,1.541
				c0,0.861-0.316,1.527-0.963,1.994c-0.643,0.467-1.541,0.701-2.699,0.701c-1.23,0-2.191-0.191-2.885-0.578v-1.305
				c0.445,0.23,0.928,0.404,1.438,0.535c0.514,0.133,1.006,0.193,1.479,0.193c0.736,0,1.309-0.117,1.703-0.354
				c0.396-0.232,0.598-0.594,0.598-1.074c0-0.363-0.156-0.676-0.475-0.936c-0.313-0.258-0.932-0.563-1.844-0.914
				c-0.867-0.322-1.482-0.604-1.848-0.85c-0.366-0.242-0.637-0.516-0.814-0.818C114.381,745.048,114.293,744.679,114.293,744.253z"
				/>
			<path fill="#5B5B5F" d="M121.953,743.064v-0.682l1.334-0.588l0.594-1.986h0.813v2.158h2.699v1.096h-2.699v5.49
				c0,0.563,0.135,0.99,0.398,1.293c0.265,0.305,0.631,0.449,1.096,0.449c0.25,0,0.49-0.018,0.725-0.055
				c0.229-0.037,0.416-0.074,0.553-0.115v1.066c-0.15,0.066-0.379,0.133-0.676,0.18c-0.299,0.047-0.563,0.072-0.805,0.072
				c-1.801,0-2.699-0.949-2.699-2.852v-5.537L121.953,743.064L121.953,743.064z"/>
			<path fill="#5B5B5F" d="M133.84,751.275v-9.311h1.146l0.229,1.258h0.068c0.285-0.453,0.691-0.807,1.215-1.057
				c0.52-0.25,1.104-0.375,1.738-0.375c1.121,0,1.965,0.271,2.529,0.813s0.852,1.406,0.852,2.596v6.07h-1.408v-6.031
				c0-0.762-0.174-1.326-0.521-1.701c-0.346-0.375-0.887-0.564-1.621-0.564c-0.975,0-1.688,0.268-2.141,0.791
				c-0.453,0.525-0.682,1.396-0.682,2.613v4.896h-1.408L133.84,751.275L133.84,751.275z"/>
			<path fill="#5B5B5F" d="M143.998,746.603c0-1.518,0.377-2.693,1.135-3.537c0.758-0.848,1.807-1.271,3.146-1.271
				c1.301,0,2.33,0.439,3.098,1.297c0.766,0.865,1.145,2.035,1.145,3.514c0,1.52-0.381,2.707-1.145,3.563
				c-0.764,0.854-1.813,1.279-3.156,1.279c-0.83,0-1.566-0.193-2.211-0.588c-0.646-0.396-1.141-0.953-1.488-1.689
				C144.172,748.441,143.998,747.583,143.998,746.603z M145.441,746.603c0,1.188,0.238,2.102,0.715,2.727
				c0.479,0.623,1.178,0.938,2.104,0.938s1.625-0.313,2.104-0.934c0.48-0.621,0.726-1.529,0.726-2.729
				c0-1.189-0.235-2.088-0.726-2.703c-0.479-0.615-1.188-0.922-2.116-0.922c-0.926,0-1.621,0.303-2.094,0.908
				C145.676,744.496,145.441,745.4,145.441,746.603z"/>
			<path fill="#5B5B5F" d="M155.021,751.275v-9.311h1.146l0.229,1.258h0.063c0.287-0.453,0.688-0.807,1.215-1.057
				c0.521-0.25,1.104-0.375,1.74-0.375c1.121,0,1.963,0.271,2.524,0.813c0.566,0.541,0.854,1.406,0.854,2.596v6.07h-1.405v-6.031
				c0-0.762-0.177-1.326-0.521-1.701c-0.35-0.375-0.891-0.564-1.621-0.564c-0.979,0-1.688,0.268-2.145,0.791
				c-0.453,0.525-0.681,1.396-0.681,2.613v4.896h-1.407L155.021,751.275L155.021,751.275z"/>
			<path fill="#5B5B5F" d="M164.912,747.257v-1.291h4.17v1.291H164.912z"/>
			<path fill="#5B5B5F" d="M170.041,743.064v-0.639l1.666-0.512v-0.518c0-2.275,0.998-3.416,2.996-3.416
				c0.49,0,1.068,0.1,1.73,0.295l-0.365,1.111c-0.543-0.176-1.008-0.266-1.396-0.266c-0.53,0-0.928,0.18-1.186,0.531
				c-0.259,0.354-0.386,0.922-0.386,1.701v0.605h2.369v1.096h-2.369v8.209H171.7v-8.209L170.041,743.064L170.041,743.064z"/>
			<path fill="#5B5B5F" d="M176.488,748.71c0-1.875,1.508-2.854,4.518-2.945l1.582-0.055v-0.584c0-0.736-0.154-1.283-0.471-1.637
				c-0.317-0.355-0.814-0.529-1.508-0.529c-0.771,0-1.646,0.24-2.627,0.725l-0.438-1.082c0.459-0.244,0.961-0.438,1.509-0.576
				c0.549-0.143,1.096-0.209,1.646-0.209c1.104,0,1.932,0.246,2.467,0.738c0.533,0.492,0.801,1.281,0.801,2.367v6.355h-1.045
				l-0.275-1.314h-0.065c-0.464,0.576-0.929,0.967-1.39,1.172c-0.459,0.205-1.033,0.313-1.729,0.313c-0.928,0-1.65-0.236-2.18-0.711
				C176.75,750.257,176.488,749.585,176.488,748.71z M177.982,748.728c0,0.514,0.154,0.898,0.463,1.17
				c0.311,0.27,0.738,0.396,1.291,0.396c0.877,0,1.563-0.238,2.063-0.725c0.5-0.488,0.75-1.16,0.75-2.031v-0.844l-1.404,0.063
				c-1.117,0.039-1.928,0.215-2.42,0.523C178.23,747.591,177.982,748.074,177.982,748.728z"/>
			<path fill="#5B5B5F" d="M185.625,743.064v-0.682l1.332-0.588l0.596-1.986h0.813v2.158h2.698v1.096h-2.698v5.49
				c0,0.563,0.135,0.99,0.397,1.293c0.266,0.305,0.631,0.449,1.096,0.449c0.248,0,0.488-0.018,0.726-0.055
				c0.229-0.037,0.416-0.074,0.554-0.115v1.066c-0.152,0.066-0.38,0.133-0.677,0.18c-0.299,0.047-0.563,0.072-0.805,0.072
				c-1.802,0-2.699-0.949-2.699-2.852v-5.537L185.625,743.064L185.625,743.064z"/>
			<path fill="#5B5B5F" d="M192.299,748.71c0-1.875,1.508-2.854,4.518-2.945l1.582-0.055v-0.584c0-0.736-0.153-1.283-0.473-1.637
				c-0.313-0.355-0.814-0.529-1.506-0.529c-0.771,0-1.646,0.24-2.627,0.725l-0.438-1.082c0.459-0.244,0.961-0.438,1.508-0.576
				c0.547-0.143,1.096-0.209,1.645-0.209c1.105,0,1.932,0.246,2.467,0.738c0.533,0.492,0.803,1.281,0.803,2.367v6.355h-1.045
				l-0.276-1.314h-0.065c-0.464,0.576-0.927,0.967-1.388,1.172c-0.459,0.205-1.035,0.313-1.729,0.313
				c-0.928,0-1.649-0.236-2.182-0.711C192.564,750.257,192.299,749.585,192.299,748.71z M193.793,748.728
				c0,0.514,0.15,0.898,0.463,1.17c0.309,0.27,0.736,0.396,1.291,0.396c0.877,0,1.563-0.238,2.063-0.725
				c0.5-0.488,0.75-1.16,0.75-2.031v-0.844l-1.404,0.063c-1.119,0.039-1.93,0.215-2.422,0.523
				C194.041,747.591,193.793,748.074,193.793,748.728z"/>
			<path fill="#5B5B5F" d="M202.666,751.275V738.06h1.41v13.215H202.666z"/>
			<path fill="#5B5B5F" d="M211.066,746.679c0-1.559,0.373-2.762,1.117-3.607c0.744-0.848,1.813-1.271,3.192-1.271
				c0.442,0,0.896,0.049,1.347,0.146c0.442,0.098,0.799,0.209,1.053,0.34l-0.437,1.197c-0.313-0.125-0.647-0.229-1.021-0.313
				c-0.366-0.082-0.69-0.123-0.979-0.123c-1.896,0-2.836,1.207-2.836,3.617c0,1.146,0.229,2.021,0.688,2.633
				c0.461,0.609,1.146,0.918,2.055,0.918c0.771,0,1.566-0.168,2.39-0.502v1.25c-0.622,0.32-1.405,0.482-2.354,0.482
				c-1.348,0-2.387-0.416-3.116-1.244C211.434,749.371,211.066,748.197,211.066,746.679z"/>
			<path fill="#5B5B5F" d="M219.166,748.71c0-1.875,1.506-2.854,4.518-2.945l1.582-0.055v-0.584c0-0.736-0.156-1.283-0.473-1.637
				c-0.313-0.355-0.813-0.529-1.504-0.529c-0.771,0-1.648,0.24-2.627,0.725l-0.439-1.082c0.459-0.244,0.961-0.438,1.508-0.576
				c0.547-0.143,1.099-0.209,1.646-0.209c1.104,0,1.934,0.246,2.465,0.738c0.533,0.492,0.805,1.281,0.805,2.367v6.355H225.6
				l-0.279-1.314h-0.064c-0.463,0.576-0.926,0.967-1.387,1.172c-0.459,0.205-1.033,0.313-1.729,0.313
				c-0.929,0-1.654-0.236-2.183-0.711C219.432,750.257,219.166,749.585,219.166,748.71z M220.662,748.728
				c0,0.514,0.15,0.898,0.463,1.17c0.309,0.27,0.734,0.396,1.291,0.396c0.877,0,1.563-0.238,2.063-0.725
				c0.5-0.488,0.75-1.16,0.75-2.031v-0.844l-1.408,0.063c-1.115,0.039-1.926,0.215-2.42,0.523
				C220.908,747.591,220.662,748.074,220.662,748.728z"/>
			<path fill="#5B5B5F" d="M228.941,744.253c0-0.758,0.311-1.354,0.924-1.797c0.617-0.439,1.465-0.658,2.537-0.658
				c0.996,0,1.973,0.203,2.92,0.609l-0.488,1.145c-0.934-0.389-1.773-0.578-2.531-0.578c-0.67,0-1.174,0.105-1.514,0.314
				c-0.344,0.209-0.514,0.498-0.514,0.867c0,0.25,0.063,0.463,0.188,0.641c0.125,0.176,0.332,0.342,0.617,0.502
				c0.277,0.156,0.822,0.393,1.633,0.689c1.104,0.396,1.85,0.811,2.229,1.217c0.381,0.408,0.57,0.922,0.57,1.541
				c0,0.861-0.32,1.527-0.966,1.994s-1.541,0.701-2.698,0.701c-1.229,0-2.193-0.191-2.886-0.578v-1.305
				c0.447,0.23,0.929,0.404,1.438,0.535c0.516,0.133,1.006,0.193,1.479,0.193c0.734,0,1.309-0.117,1.701-0.354
				c0.396-0.232,0.6-0.594,0.6-1.074c0-0.363-0.156-0.676-0.477-0.936c-0.313-0.258-0.934-0.563-1.846-0.914
				c-0.863-0.322-1.48-0.604-1.848-0.85c-0.365-0.238-0.638-0.516-0.814-0.818C229.029,745.048,228.941,744.679,228.941,744.253z"/>
			<path fill="#5B5B5F" d="M237.316,746.697c0-1.5,0.367-2.691,1.104-3.576c0.737-0.883,1.729-1.322,2.971-1.322
				c1.16,0,2.082,0.385,2.758,1.148c0.683,0.77,1.021,1.777,1.021,3.037v0.895h-6.399c0.024,1.094,0.307,1.922,0.826,2.484
				c0.522,0.564,1.268,0.854,2.221,0.854c0.998,0,1.981-0.209,2.963-0.629v1.258c-0.496,0.217-0.967,0.369-1.408,0.463
				c-0.443,0.1-0.979,0.146-1.604,0.146c-1.371,0-2.453-0.42-3.248-1.258C237.713,749.351,237.316,748.187,237.316,746.697z
				 M238.791,745.728h4.875c0-0.893-0.197-1.568-0.598-2.041c-0.396-0.477-0.965-0.709-1.701-0.709c-0.746,0-1.346,0.24-1.789,0.729
				S238.871,744.869,238.791,745.728z"/>
			<path fill="#5B5B5F" d="M246.996,744.253c0-0.758,0.309-1.354,0.924-1.797c0.617-0.439,1.461-0.658,2.537-0.658
				c0.994,0,1.969,0.203,2.92,0.609l-0.492,1.145c-0.932-0.389-1.773-0.578-2.529-0.578c-0.67,0-1.174,0.105-1.516,0.314
				s-0.512,0.498-0.512,0.867c0,0.25,0.063,0.463,0.189,0.641c0.127,0.176,0.332,0.342,0.617,0.502
				c0.278,0.156,0.823,0.393,1.633,0.689c1.104,0.396,1.846,0.811,2.229,1.217c0.379,0.408,0.566,0.922,0.566,1.541
				c0,0.861-0.316,1.527-0.963,1.994c-0.646,0.467-1.541,0.701-2.701,0.701c-1.229,0-2.189-0.191-2.883-0.578v-1.305
				c0.442,0.23,0.926,0.404,1.438,0.535c0.512,0.133,1.006,0.193,1.479,0.193c0.736,0,1.31-0.117,1.703-0.354
				c0.396-0.232,0.596-0.594,0.596-1.074c0-0.363-0.151-0.676-0.475-0.936c-0.314-0.258-0.93-0.563-1.842-0.914
				c-0.869-0.322-1.482-0.604-1.852-0.85c-0.361-0.24-0.633-0.516-0.813-0.818C247.084,745.048,246.996,744.679,246.996,744.253z"/>
		</g>
		<rect x="63.957" y="735.816" fill="#DD9B2B" width="17.803" height="17.803"/>
	</g>
	<g>
		<g>
			<path fill="#5B5B5F" d="M92.98,772.734c0-1.275,0.234-2.396,0.709-3.357c0.477-0.961,1.16-1.703,2.064-2.225
				c0.9-0.521,1.965-0.779,3.188-0.779c1.305,0,2.438,0.236,3.414,0.713l-0.609,1.238c-0.938-0.439-1.883-0.662-2.818-0.662
				c-1.363,0-2.439,0.455-3.23,1.361c-0.787,0.906-1.186,2.146-1.186,3.729c0,1.623,0.383,2.877,1.145,3.768
				c0.764,0.889,1.85,1.324,3.258,1.324c0.863,0,1.854-0.148,2.965-0.467v1.271c-0.859,0.322-1.924,0.482-3.188,0.482
				c-1.828,0-3.234-0.555-4.227-1.666C93.475,776.357,92.98,774.781,92.98,772.734z"/>
			<path fill="#5B5B5F" d="M103.865,774.294c0-1.514,0.377-2.691,1.135-3.539c0.756-0.844,1.809-1.27,3.146-1.27
				c1.299,0,2.33,0.436,3.098,1.299c0.766,0.863,1.146,2.033,1.146,3.51c0,1.521-0.381,2.707-1.145,3.563
				c-0.766,0.854-1.814,1.279-3.158,1.279c-0.83,0-1.564-0.195-2.211-0.59c-0.646-0.391-1.143-0.951-1.486-1.686
				C104.041,776.132,103.865,775.275,103.865,774.294z M105.311,774.294c0,1.189,0.236,2.104,0.715,2.727
				c0.479,0.625,1.178,0.938,2.104,0.938c0.924,0,1.625-0.313,2.104-0.932c0.479-0.621,0.721-1.531,0.721-2.73
				c0-1.186-0.238-2.086-0.721-2.703c-0.479-0.609-1.188-0.922-2.123-0.922c-0.924,0-1.621,0.305-2.092,0.91
				C105.543,772.185,105.311,773.089,105.311,774.294z"/>
			<path fill="#5B5B5F" d="M114.293,771.943c0-0.76,0.309-1.355,0.924-1.797c0.617-0.439,1.463-0.66,2.537-0.66
				c0.994,0,1.971,0.205,2.92,0.609l-0.49,1.146c-0.934-0.387-1.773-0.578-2.531-0.578c-0.67,0-1.174,0.104-1.516,0.314
				c-0.342,0.209-0.512,0.496-0.512,0.863c0,0.25,0.063,0.465,0.189,0.643c0.127,0.176,0.332,0.344,0.617,0.502
				c0.281,0.158,0.826,0.391,1.633,0.688c1.105,0.402,1.85,0.814,2.229,1.223c0.379,0.404,0.566,0.922,0.566,1.537
				c0,0.861-0.316,1.523-0.963,1.994c-0.643,0.471-1.541,0.701-2.699,0.701c-1.23,0-2.191-0.188-2.885-0.578v-1.303
				c0.445,0.23,0.928,0.404,1.438,0.535c0.514,0.131,1.006,0.195,1.479,0.195c0.736,0,1.309-0.119,1.703-0.355
				c0.396-0.234,0.598-0.594,0.598-1.076c0-0.357-0.156-0.674-0.475-0.934c-0.313-0.26-0.932-0.564-1.844-0.914
				c-0.867-0.324-1.482-0.605-1.848-0.85c-0.365-0.238-0.637-0.52-0.814-0.818C114.381,772.736,114.293,772.371,114.293,771.943z"/>
			<path fill="#5B5B5F" d="M121.953,770.753v-0.68l1.334-0.588l0.594-1.984h0.813v2.156h2.699v1.096h-2.699v5.49
				c0,0.563,0.135,0.994,0.398,1.295c0.265,0.303,0.631,0.451,1.096,0.451c0.25,0,0.49-0.021,0.725-0.063
				c0.229-0.033,0.416-0.07,0.553-0.109v1.063c-0.15,0.07-0.379,0.133-0.676,0.186c-0.299,0.047-0.563,0.066-0.805,0.066
				c-1.801,0-2.699-0.945-2.699-2.848v-5.537L121.953,770.753L121.953,770.753z"/>
			<path fill="#5B5B5F" d="M132.594,770.753v-0.637l1.664-0.51v-0.521c0-2.27,0.998-3.416,2.996-3.416
				c0.492,0,1.07,0.105,1.73,0.295l-0.363,1.115c-0.543-0.178-1.01-0.268-1.395-0.268c-0.533,0-0.928,0.18-1.184,0.529
				c-0.254,0.355-0.381,0.92-0.381,1.701v0.605h2.365v1.098h-2.365v8.211h-1.41v-8.211L132.594,770.753L132.594,770.753z"/>
			<path fill="#5B5B5F" d="M139.039,776.4c0-1.875,1.506-2.854,4.518-2.945l1.582-0.055v-0.584c0-0.736-0.158-1.283-0.473-1.639
				c-0.315-0.354-0.814-0.527-1.506-0.527c-0.771,0-1.646,0.24-2.627,0.725l-0.438-1.082c0.459-0.246,0.961-0.438,1.508-0.574
				c0.545-0.143,1.094-0.209,1.645-0.209c1.105,0,1.93,0.244,2.465,0.736c0.535,0.49,0.805,1.279,0.805,2.369v6.354h-1.045
				l-0.281-1.313h-0.064c-0.465,0.576-0.928,0.969-1.389,1.174c-0.461,0.203-1.033,0.313-1.725,0.313
				c-0.93,0-1.654-0.234-2.182-0.715C139.303,777.951,139.039,777.275,139.039,776.4z M140.533,776.419
				c0,0.514,0.15,0.898,0.463,1.168c0.307,0.271,0.734,0.402,1.291,0.402c0.877,0,1.563-0.242,2.063-0.73
				c0.5-0.484,0.75-1.16,0.75-2.027v-0.848l-1.408,0.064c-1.115,0.041-1.926,0.215-2.42,0.52
				C140.779,775.285,140.533,775.763,140.533,776.419z"/>
			<path fill="#5B5B5F" d="M148.176,770.753v-0.68l1.334-0.588l0.594-1.984h0.814v2.156h2.699v1.096h-2.699v5.49
				c0,0.563,0.133,0.994,0.396,1.295c0.267,0.303,0.631,0.451,1.098,0.451c0.248,0,0.486-0.021,0.723-0.063
				c0.229-0.033,0.416-0.07,0.553-0.109v1.063c-0.147,0.07-0.377,0.133-0.674,0.186c-0.301,0.047-0.566,0.066-0.805,0.066
				c-1.801,0-2.699-0.945-2.699-2.848v-5.537L148.176,770.753L148.176,770.753z"/>
			<path fill="#5B5B5F" d="M154.852,776.4c0-1.875,1.506-2.854,4.521-2.945l1.582-0.055v-0.584c0-0.736-0.156-1.283-0.476-1.639
				c-0.313-0.354-0.813-0.527-1.506-0.527c-0.771,0-1.646,0.24-2.627,0.725l-0.438-1.082c0.459-0.246,0.961-0.438,1.508-0.574
				c0.547-0.143,1.094-0.209,1.645-0.209c1.107,0,1.935,0.244,2.465,0.736c0.535,0.49,0.808,1.279,0.808,2.369v6.354h-1.045
				l-0.279-1.313h-0.063c-0.465,0.576-0.928,0.969-1.392,1.174c-0.459,0.203-1.03,0.313-1.725,0.313
				c-0.933,0-1.654-0.234-2.185-0.715C155.113,777.951,154.852,777.275,154.852,776.4z M156.346,776.419
				c0,0.514,0.152,0.898,0.463,1.168c0.312,0.271,0.736,0.402,1.291,0.402c0.877,0,1.564-0.242,2.064-0.73
				c0.5-0.484,0.75-1.16,0.75-2.027v-0.848l-1.408,0.064c-1.115,0.041-1.926,0.215-2.42,0.52
				C156.592,775.285,156.346,775.763,156.346,776.419z"/>
			<path fill="#5B5B5F" d="M165.219,778.964v-13.213h1.408v13.213H165.219z"/>
			<path fill="#5B5B5F" d="M173.617,774.371c0-1.561,0.369-2.762,1.113-3.607c0.746-0.85,1.813-1.27,3.197-1.27
				c0.442,0,0.896,0.049,1.342,0.145c0.444,0.1,0.799,0.209,1.057,0.34l-0.436,1.197c-0.313-0.125-0.65-0.229-1.021-0.313
				s-0.691-0.123-0.979-0.123c-1.896,0-2.838,1.205-2.838,3.617c0,1.145,0.229,2.02,0.688,2.633
				c0.461,0.607,1.146,0.916,2.051,0.916c0.771,0,1.569-0.166,2.39-0.5v1.248c-0.621,0.318-1.406,0.48-2.354,0.48
				c-1.351,0-2.392-0.414-3.119-1.244C173.984,777.062,173.617,775.888,173.617,774.371z"/>
			<path fill="#5B5B5F" d="M181.719,776.4c0-1.875,1.506-2.854,4.516-2.945l1.582-0.055v-0.584c0-0.736-0.151-1.283-0.471-1.639
				c-0.313-0.354-0.813-0.527-1.506-0.527c-0.771,0-1.648,0.24-2.627,0.725l-0.439-1.082c0.459-0.246,0.961-0.438,1.513-0.574
				c0.547-0.143,1.096-0.209,1.646-0.209c1.105,0,1.932,0.244,2.467,0.736c0.529,0.49,0.803,1.279,0.803,2.369v6.354h-1.047
				l-0.276-1.313h-0.067c-0.464,0.576-0.925,0.969-1.386,1.174c-0.461,0.203-1.034,0.313-1.729,0.313
				c-0.926,0-1.649-0.234-2.18-0.715C181.982,777.951,181.719,777.275,181.719,776.4z M183.213,776.419
				c0,0.514,0.15,0.898,0.461,1.168c0.311,0.271,0.738,0.402,1.293,0.402c0.875,0,1.563-0.242,2.063-0.73
				c0.5-0.484,0.75-1.16,0.75-2.027v-0.848l-1.401,0.064c-1.117,0.041-1.93,0.215-2.42,0.52
				C183.459,775.285,183.213,775.763,183.213,776.419z"/>
			<path fill="#5B5B5F" d="M191.492,771.943c0-0.76,0.309-1.355,0.926-1.797c0.615-0.439,1.461-0.66,2.537-0.66
				c0.994,0,1.969,0.205,2.92,0.609l-0.492,1.146c-0.932-0.387-1.773-0.578-2.529-0.578c-0.67,0-1.174,0.104-1.516,0.314
				c-0.342,0.209-0.512,0.496-0.512,0.863c0,0.25,0.063,0.465,0.189,0.643c0.127,0.176,0.332,0.344,0.612,0.502
				c0.283,0.158,0.828,0.391,1.638,0.688c1.104,0.402,1.846,0.814,2.229,1.223c0.379,0.404,0.566,0.922,0.566,1.537
				c0,0.861-0.316,1.523-0.963,1.994c-0.646,0.471-1.541,0.701-2.701,0.701c-1.229,0-2.189-0.188-2.883-0.578v-1.303
				c0.442,0.23,0.926,0.404,1.438,0.535c0.512,0.131,1.006,0.195,1.479,0.195c0.736,0,1.305-0.119,1.701-0.355
				c0.396-0.234,0.598-0.594,0.598-1.076c0-0.357-0.153-0.674-0.475-0.934c-0.314-0.26-0.93-0.564-1.842-0.914
				c-0.869-0.324-1.482-0.605-1.852-0.85c-0.361-0.238-0.633-0.52-0.813-0.818C191.582,772.736,191.492,772.371,191.492,771.943z"/>
			<path fill="#5B5B5F" d="M199.865,774.388c0-1.5,0.365-2.689,1.104-3.572c0.734-0.887,1.727-1.326,2.969-1.326
				c1.162,0,2.082,0.387,2.758,1.148c0.683,0.77,1.021,1.777,1.021,3.037v0.895h-6.399c0.022,1.092,0.307,1.922,0.83,2.484
				c0.521,0.564,1.264,0.852,2.215,0.852c1,0,1.984-0.209,2.965-0.627v1.256c-0.496,0.217-0.969,0.371-1.41,0.463
				c-0.441,0.098-0.979,0.145-1.604,0.145c-1.371,0-2.453-0.42-3.248-1.26C200.264,777.041,199.865,775.876,199.865,774.388z
				 M201.344,773.419h4.873c0-0.889-0.197-1.566-0.596-2.041c-0.396-0.473-0.967-0.709-1.701-0.709
				c-0.748,0-1.346,0.242-1.791,0.729C201.686,771.886,201.422,772.558,201.344,773.419z"/>
			<path fill="#5B5B5F" d="M209.545,771.943c0-0.76,0.311-1.355,0.926-1.797c0.615-0.439,1.463-0.66,2.535-0.66
				c0.996,0,1.971,0.205,2.922,0.609l-0.492,1.146c-0.932-0.387-1.771-0.578-2.529-0.578c-0.67,0-1.176,0.104-1.516,0.314
				c-0.342,0.209-0.512,0.496-0.512,0.863c0,0.25,0.063,0.465,0.188,0.643c0.129,0.176,0.334,0.344,0.617,0.502
				c0.28,0.158,0.828,0.391,1.635,0.688c1.104,0.402,1.848,0.814,2.229,1.223c0.381,0.404,0.57,0.922,0.57,1.537
				c0,0.861-0.32,1.523-0.965,1.994c-0.646,0.471-1.543,0.701-2.701,0.701c-1.23,0-2.191-0.188-2.883-0.578v-1.303
				c0.445,0.23,0.928,0.404,1.438,0.535c0.514,0.131,1.004,0.195,1.479,0.195c0.736,0,1.31-0.119,1.701-0.355
				c0.396-0.234,0.601-0.594,0.601-1.076c0-0.357-0.156-0.674-0.478-0.934c-0.313-0.26-0.93-0.564-1.844-0.914
				c-0.865-0.324-1.482-0.605-1.848-0.85c-0.363-0.238-0.637-0.52-0.813-0.818C209.635,772.736,209.545,772.371,209.545,771.943z"/>
		</g>
		<rect x="63.957" y="763.505" fill="#199598" width="17.803" height="17.801"/>
	</g>
</g>
<g>
	<path fill="#5B5B5F" d="M27.388,814.548l0.17-1.066l2.291,0.65l-0.252-2.314h1.137l-0.252,2.314l2.332-0.65l0.152,1.066
		l-2.232,0.182l1.453,1.91l-1.008,0.551l-1.031-2.121l-0.938,2.121l-1.031-0.551l1.418-1.91L27.388,814.548z"/>
	<path fill="#5B5B5F" d="M33.611,813.259v-0.891h6.422v0.891H37.32v7.676h-0.996v-7.676H33.611z"/>
	<path fill="#5B5B5F" d="M41.175,820.935v-9.117h0.973v2.76c0,0.332-0.016,0.607-0.047,0.826h0.059
		c0.191-0.309,0.464-0.553,0.817-0.73s0.757-0.266,1.21-0.266c0.785,0,1.374,0.186,1.767,0.559s0.589,0.967,0.589,1.779v4.189H45.57
		v-4.154c0-0.523-0.119-0.914-0.357-1.172s-0.611-0.387-1.119-0.387c-0.676,0-1.169,0.184-1.479,0.551s-0.466,0.969-0.466,1.805
		v3.357H41.175z"/>
	<path fill="#5B5B5F" d="M48.458,812.773c0-0.223,0.051-0.387,0.151-0.49s0.227-0.154,0.378-0.154c0.169,0,0.313,0.053,0.436,0.158
		s0.184,0.268,0.184,0.486s-0.062,0.381-0.184,0.488s-0.267,0.162-0.436,0.162c-0.151,0-0.277-0.055-0.378-0.162
		S48.458,812.992,48.458,812.773z M48.54,820.935v-6.422h0.891v6.422H48.54z"/>
	<path fill="#5B5B5F" d="M51.165,816.091c0-0.525,0.213-0.938,0.638-1.24c0.426-0.305,1.009-0.455,1.75-0.455
		c0.688,0,1.359,0.141,2.016,0.422l-0.34,0.791c-0.643-0.266-1.225-0.398-1.746-0.398c-0.462,0-0.811,0.072-1.045,0.217
		c-0.235,0.145-0.353,0.344-0.353,0.6c0,0.172,0.044,0.318,0.132,0.439s0.23,0.238,0.426,0.348c0.196,0.109,0.571,0.268,1.128,0.475
		c0.761,0.279,1.273,0.559,1.536,0.84c0.263,0.283,0.394,0.637,0.394,1.063c0,0.596-0.222,1.055-0.664,1.377
		c-0.443,0.322-1.064,0.484-1.865,0.484c-0.85,0-1.513-0.133-1.988-0.398v-0.898c0.308,0.156,0.639,0.279,0.991,0.371
		c0.354,0.09,0.693,0.135,1.021,0.135c0.51,0,0.9-0.082,1.175-0.244s0.411-0.41,0.411-0.742c0-0.252-0.108-0.465-0.326-0.645
		c-0.217-0.178-0.641-0.389-1.271-0.631c-0.599-0.223-1.023-0.418-1.274-0.584c-0.25-0.166-0.437-0.355-0.56-0.566
		C51.227,816.636,51.165,816.384,51.165,816.091z"/>
	<path fill="#5B5B5F" d="M60.06,817.765c0-1.074,0.257-1.904,0.771-2.49s1.249-0.879,2.206-0.879c0.309,0,0.617,0.033,0.926,0.1
		s0.551,0.145,0.727,0.234l-0.299,0.826c-0.215-0.086-0.449-0.158-0.703-0.215s-0.479-0.084-0.674-0.084
		c-1.305,0-1.957,0.832-1.957,2.496c0,0.789,0.159,1.395,0.478,1.816s0.79,0.633,1.415,0.633c0.535,0,1.084-0.115,1.646-0.346v0.861
		c-0.43,0.223-0.971,0.334-1.623,0.334c-0.93,0-1.647-0.287-2.153-0.859S60.06,818.812,60.06,817.765z"/>
	<path fill="#5B5B5F" d="M65.773,817.712c0-1.045,0.261-1.859,0.783-2.443c0.521-0.582,1.246-0.873,2.173-0.873
		c0.896,0,1.607,0.299,2.135,0.895c0.528,0.596,0.792,1.404,0.792,2.422c0,1.049-0.263,1.867-0.789,2.455
		c-0.525,0.59-1.252,0.885-2.179,0.885c-0.572,0-1.081-0.135-1.524-0.406c-0.444-0.27-0.787-0.656-1.028-1.162
		C65.894,818.98,65.773,818.388,65.773,817.712z M66.769,817.712c0,0.822,0.164,1.449,0.493,1.879
		c0.328,0.432,0.812,0.646,1.449,0.646s1.122-0.215,1.452-0.643c0.331-0.43,0.496-1.057,0.496-1.883
		c0-0.818-0.165-1.439-0.496-1.865c-0.33-0.424-0.818-0.637-1.464-0.637c-0.638,0-1.119,0.209-1.443,0.629
		C66.931,816.257,66.769,816.882,66.769,817.712z"/>
	<path fill="#5B5B5F" d="M72.968,816.091c0-0.525,0.213-0.938,0.638-1.24c0.426-0.305,1.009-0.455,1.75-0.455
		c0.688,0,1.359,0.141,2.016,0.422l-0.34,0.791c-0.643-0.266-1.225-0.398-1.746-0.398c-0.462,0-0.811,0.072-1.045,0.217
		c-0.235,0.145-0.353,0.344-0.353,0.6c0,0.172,0.044,0.318,0.132,0.439s0.23,0.238,0.426,0.348c0.196,0.109,0.571,0.268,1.128,0.475
		c0.761,0.279,1.273,0.559,1.536,0.84c0.263,0.283,0.394,0.637,0.394,1.063c0,0.596-0.222,1.055-0.664,1.377
		c-0.443,0.322-1.064,0.484-1.865,0.484c-0.85,0-1.513-0.133-1.988-0.398v-0.898c0.308,0.156,0.639,0.279,0.991,0.371
		c0.354,0.09,0.693,0.135,1.021,0.135c0.51,0,0.9-0.082,1.175-0.244s0.411-0.41,0.411-0.742c0-0.252-0.108-0.465-0.326-0.645
		c-0.217-0.178-0.641-0.389-1.271-0.631c-0.599-0.223-1.023-0.418-1.274-0.584c-0.25-0.166-0.437-0.355-0.56-0.566
		C73.03,816.636,72.968,816.384,72.968,816.091z"/>
	<path fill="#5B5B5F" d="M78.253,815.269V814.8l0.92-0.404l0.41-1.371h0.563v1.488h1.863v0.756h-1.863v3.787
		c0,0.389,0.092,0.686,0.275,0.893c0.184,0.209,0.436,0.313,0.756,0.313c0.172,0,0.338-0.014,0.498-0.039s0.287-0.051,0.381-0.078
		v0.734c-0.105,0.051-0.261,0.092-0.466,0.125c-0.205,0.031-0.39,0.049-0.554,0.049c-1.242,0-1.863-0.654-1.863-1.963v-3.82H78.253z
		"/>
	<path fill="#5B5B5F" d="M86.374,812.773c0-0.223,0.051-0.387,0.151-0.49s0.227-0.154,0.378-0.154c0.169,0,0.313,0.053,0.436,0.158
		s0.184,0.268,0.184,0.486s-0.062,0.381-0.184,0.488s-0.267,0.162-0.436,0.162c-0.151,0-0.277-0.055-0.378-0.162
		S86.374,812.992,86.374,812.773z M86.456,820.935v-6.422h0.891v6.422H86.456z"/>
	<path fill="#5B5B5F" d="M89.081,816.091c0-0.525,0.213-0.938,0.638-1.24c0.426-0.305,1.009-0.455,1.75-0.455
		c0.688,0,1.359,0.141,2.016,0.422l-0.34,0.791c-0.643-0.266-1.225-0.398-1.746-0.398c-0.462,0-0.811,0.072-1.045,0.217
		c-0.235,0.145-0.353,0.344-0.353,0.6c0,0.172,0.044,0.318,0.132,0.439s0.23,0.238,0.426,0.348c0.196,0.109,0.571,0.268,1.128,0.475
		c0.761,0.279,1.273,0.559,1.536,0.84c0.263,0.283,0.394,0.637,0.394,1.063c0,0.596-0.222,1.055-0.664,1.377
		c-0.443,0.322-1.064,0.484-1.865,0.484c-0.85,0-1.513-0.133-1.988-0.398v-0.898c0.308,0.156,0.639,0.279,0.991,0.371
		c0.354,0.09,0.693,0.135,1.021,0.135c0.51,0,0.9-0.082,1.175-0.244s0.411-0.41,0.411-0.742c0-0.252-0.108-0.465-0.326-0.645
		c-0.217-0.178-0.641-0.389-1.271-0.631c-0.599-0.223-1.023-0.418-1.274-0.584c-0.25-0.166-0.437-0.355-0.56-0.566
		C89.143,816.636,89.081,816.384,89.081,816.091z"/>
	<path fill="#5B5B5F" d="M97.976,817.765c0-1.074,0.257-1.904,0.771-2.49s1.249-0.879,2.206-0.879c0.309,0,0.617,0.033,0.926,0.1
		s0.551,0.145,0.727,0.234l-0.299,0.826c-0.215-0.086-0.449-0.158-0.703-0.215s-0.479-0.084-0.674-0.084
		c-1.305,0-1.957,0.832-1.957,2.496c0,0.789,0.159,1.395,0.478,1.816s0.79,0.633,1.415,0.633c0.535,0,1.084-0.115,1.646-0.346v0.861
		c-0.43,0.223-0.971,0.334-1.623,0.334c-0.93,0-1.647-0.287-2.153-0.859S97.976,818.812,97.976,817.765z"/>
	<path fill="#5B5B5F" d="M103.566,819.166c0-1.293,1.038-1.971,3.115-2.033l1.092-0.035v-0.404c0-0.51-0.108-0.887-0.324-1.129
		c-0.217-0.244-0.563-0.365-1.038-0.365c-0.534,0-1.139,0.166-1.813,0.498l-0.303-0.746c0.316-0.17,0.663-0.303,1.04-0.398
		c0.377-0.098,0.755-0.145,1.134-0.145c0.766,0,1.332,0.17,1.701,0.51c0.368,0.34,0.553,0.885,0.553,1.635v4.383h-0.721
		l-0.193-0.904h-0.047c-0.319,0.398-0.639,0.668-0.956,0.809c-0.318,0.143-0.715,0.213-1.19,0.213c-0.64,0-1.142-0.164-1.504-0.49
		C103.747,820.234,103.566,819.769,103.566,819.166z M104.597,819.177c0,0.354,0.106,0.623,0.318,0.807
		c0.213,0.186,0.51,0.277,0.893,0.277c0.604,0,1.079-0.168,1.424-0.5c0.345-0.334,0.518-0.801,0.518-1.402v-0.582l-0.971,0.041
		c-0.772,0.027-1.329,0.148-1.67,0.361C104.768,818.394,104.597,818.726,104.597,819.177z"/>
	<path fill="#5B5B5F" d="M110.72,820.935v-9.117h0.973v9.117H110.72z"/>
	<path fill="#5B5B5F" d="M113.398,817.765c0-1.074,0.257-1.904,0.771-2.49s1.249-0.879,2.206-0.879c0.309,0,0.617,0.033,0.926,0.1
		s0.551,0.145,0.727,0.234l-0.299,0.826c-0.215-0.086-0.449-0.158-0.703-0.215s-0.479-0.084-0.674-0.084
		c-1.305,0-1.957,0.832-1.957,2.496c0,0.789,0.159,1.395,0.478,1.816s0.79,0.633,1.415,0.633c0.535,0,1.084-0.115,1.646-0.346v0.861
		c-0.43,0.223-0.971,0.334-1.623,0.334c-0.93,0-1.647-0.287-2.153-0.859S113.398,818.812,113.398,817.765z"/>
	<path fill="#5B5B5F" d="M119.398,818.714v-4.201h0.996v4.166c0,0.523,0.119,0.914,0.356,1.172c0.238,0.258,0.61,0.387,1.117,0.387
		c0.671,0,1.161-0.184,1.472-0.551c0.31-0.367,0.465-0.967,0.465-1.799v-3.375h0.973v6.422h-0.791l-0.15-0.861h-0.055
		c-0.199,0.316-0.475,0.559-0.828,0.727c-0.353,0.168-0.755,0.252-1.207,0.252c-0.785,0-1.372-0.186-1.763-0.557
		C119.593,820.125,119.398,819.531,119.398,818.714z"/>
	<path fill="#5B5B5F" d="M126.833,820.935v-9.117h0.973v9.117H126.833z"/>
	<path fill="#5B5B5F" d="M129.388,819.166c0-1.293,1.038-1.971,3.115-2.033l1.092-0.035v-0.404c0-0.51-0.108-0.887-0.324-1.129
		c-0.217-0.244-0.563-0.365-1.038-0.365c-0.534,0-1.139,0.166-1.813,0.498l-0.303-0.746c0.316-0.17,0.663-0.303,1.04-0.398
		c0.377-0.098,0.755-0.145,1.134-0.145c0.766,0,1.332,0.17,1.701,0.51c0.368,0.34,0.553,0.885,0.553,1.635v4.383h-0.721
		l-0.193-0.904h-0.047c-0.319,0.398-0.639,0.668-0.956,0.809c-0.318,0.143-0.715,0.213-1.19,0.213c-0.64,0-1.142-0.164-1.504-0.49
		C129.57,820.234,129.388,819.769,129.388,819.166z M130.419,819.177c0,0.354,0.106,0.623,0.318,0.807
		c0.213,0.186,0.51,0.277,0.893,0.277c0.604,0,1.079-0.168,1.424-0.5c0.345-0.334,0.518-0.801,0.518-1.402v-0.582l-0.971,0.041
		c-0.772,0.027-1.329,0.148-1.67,0.361C130.59,818.394,130.419,818.726,130.419,819.177z"/>
	<path fill="#5B5B5F" d="M135.693,815.269V814.8l0.92-0.404l0.41-1.371h0.563v1.488h1.863v0.756h-1.863v3.787
		c0,0.389,0.092,0.686,0.275,0.893c0.184,0.209,0.436,0.313,0.756,0.313c0.172,0,0.338-0.014,0.498-0.039s0.287-0.051,0.381-0.078
		v0.734c-0.105,0.051-0.261,0.092-0.466,0.125c-0.205,0.031-0.39,0.049-0.554,0.049c-1.242,0-1.863-0.654-1.863-1.963v-3.82H135.693
		z"/>
	<path fill="#5B5B5F" d="M140.421,817.777c0-1.035,0.254-1.857,0.763-2.467c0.508-0.609,1.19-0.914,2.047-0.914
		c0.802,0,1.437,0.264,1.903,0.793c0.468,0.529,0.701,1.229,0.701,2.096v0.615h-4.418c0.02,0.754,0.21,1.326,0.572,1.717
		s0.872,0.586,1.529,0.586c0.689,0,1.37-0.145,2.044-0.434v0.867c-0.343,0.148-0.667,0.254-0.973,0.318s-0.675,0.098-1.106,0.098
		c-0.947,0-1.694-0.289-2.241-0.867C140.695,819.607,140.421,818.804,140.421,817.777z M141.441,817.109h3.363
		c0-0.613-0.137-1.084-0.411-1.41c-0.273-0.326-0.665-0.488-1.174-0.488c-0.517,0-0.929,0.168-1.235,0.504
		C141.676,816.05,141.495,816.515,141.441,817.109z"/>
	<path fill="#5B5B5F" d="M147.154,817.742c0-1.059,0.233-1.881,0.701-2.467c0.467-0.586,1.117-0.879,1.95-0.879
		c0.872,0,1.541,0.316,2.007,0.949h0.076l-0.041-0.463l-0.023-0.451v-2.613h0.973v9.117h-0.791l-0.129-0.861h-0.053
		c-0.45,0.652-1.123,0.979-2.019,0.979c-0.837,0-1.488-0.287-1.953-0.861C147.386,819.617,147.154,818.8,147.154,817.742z
		 M148.15,817.753c0,0.82,0.15,1.439,0.452,1.857c0.301,0.418,0.743,0.627,1.326,0.627c0.665,0,1.147-0.182,1.446-0.543
		c0.3-0.361,0.449-0.943,0.449-1.748v-0.205c0-0.91-0.151-1.561-0.455-1.949c-0.303-0.389-0.787-0.582-1.452-0.582
		c-0.571,0-1.009,0.221-1.312,0.664C148.301,816.318,148.15,816.945,148.15,817.753z"/>
	<path fill="#5B5B5F" d="M157.624,817.712c0-1.045,0.261-1.859,0.783-2.443c0.521-0.582,1.246-0.873,2.173-0.873
		c0.896,0,1.607,0.299,2.135,0.895c0.528,0.596,0.792,1.404,0.792,2.422c0,1.049-0.263,1.867-0.789,2.455
		c-0.525,0.59-1.252,0.885-2.179,0.885c-0.572,0-1.081-0.135-1.524-0.406c-0.444-0.27-0.787-0.656-1.028-1.162
		C157.745,818.98,157.624,818.388,157.624,817.712z M158.62,817.712c0,0.822,0.164,1.449,0.493,1.879
		c0.328,0.432,0.812,0.646,1.449,0.646s1.122-0.215,1.452-0.643c0.331-0.43,0.496-1.057,0.496-1.883
		c0-0.818-0.165-1.439-0.496-1.865c-0.33-0.424-0.818-0.637-1.464-0.637c-0.638,0-1.119,0.209-1.443,0.629
		C158.782,816.257,158.62,816.882,158.62,817.712z"/>
	<path fill="#5B5B5F" d="M165.23,820.935v-6.422h0.791l0.158,0.867h0.047c0.199-0.313,0.479-0.555,0.838-0.727
		s0.76-0.258,1.201-0.258c0.773,0,1.355,0.186,1.746,0.559s0.586,0.971,0.586,1.791v4.189h-0.973v-4.164
		c0-0.523-0.119-0.916-0.357-1.174s-0.611-0.387-1.119-0.387c-0.672,0-1.164,0.182-1.477,0.545
		c-0.313,0.365-0.469,0.965-0.469,1.803v3.377H165.23z"/>
	<path fill="#5B5B5F" d="M174.863,815.269V814.8l0.92-0.404l0.41-1.371h0.563v1.488h1.863v0.756h-1.863v3.787
		c0,0.389,0.092,0.686,0.275,0.893c0.184,0.209,0.436,0.313,0.756,0.313c0.172,0,0.338-0.014,0.498-0.039s0.287-0.051,0.381-0.078
		v0.734c-0.105,0.051-0.261,0.092-0.466,0.125c-0.205,0.031-0.39,0.049-0.554,0.049c-1.242,0-1.863-0.654-1.863-1.963v-3.82H174.863
		z"/>
	<path fill="#5B5B5F" d="M179.948,820.935v-9.117h0.973v2.76c0,0.332-0.016,0.607-0.047,0.826h0.059
		c0.191-0.309,0.464-0.553,0.817-0.73s0.757-0.266,1.21-0.266c0.785,0,1.374,0.186,1.767,0.559s0.589,0.967,0.589,1.779v4.189
		h-0.973v-4.154c0-0.523-0.119-0.914-0.357-1.172s-0.611-0.387-1.119-0.387c-0.676,0-1.169,0.184-1.479,0.551
		s-0.466,0.969-0.466,1.805v3.357H179.948z"/>
	<path fill="#5B5B5F" d="M186.956,817.777c0-1.035,0.254-1.857,0.763-2.467c0.508-0.609,1.19-0.914,2.047-0.914
		c0.802,0,1.437,0.264,1.903,0.793c0.468,0.529,0.701,1.229,0.701,2.096v0.615h-4.418c0.02,0.754,0.21,1.326,0.572,1.717
		s0.872,0.586,1.529,0.586c0.689,0,1.37-0.145,2.044-0.434v0.867c-0.343,0.148-0.667,0.254-0.973,0.318s-0.675,0.098-1.106,0.098
		c-0.947,0-1.694-0.289-2.241-0.867C187.23,819.607,186.956,818.804,186.956,817.777z M187.976,817.109h3.363
		c0-0.613-0.137-1.084-0.411-1.41c-0.273-0.326-0.665-0.488-1.174-0.488c-0.517,0-0.929,0.168-1.235,0.504
		C188.211,816.05,188.031,816.515,187.976,817.109z"/>
	<path fill="#5B5B5F" d="M196.132,812.369h1.09l2.262,4.283l2.279-4.283h1.078l-2.859,5.244v3.322h-0.996v-3.275L196.132,812.369z"
		/>
	<path fill="#5B5B5F" d="M202.929,817.777c0-1.035,0.254-1.857,0.763-2.467c0.508-0.609,1.19-0.914,2.047-0.914
		c0.802,0,1.437,0.264,1.903,0.793c0.468,0.529,0.701,1.229,0.701,2.096v0.615h-4.418c0.02,0.754,0.21,1.326,0.572,1.717
		s0.872,0.586,1.529,0.586c0.689,0,1.37-0.145,2.044-0.434v0.867c-0.343,0.148-0.667,0.254-0.973,0.318s-0.675,0.098-1.106,0.098
		c-0.947,0-1.694-0.289-2.241-0.867C203.202,819.607,202.929,818.804,202.929,817.777z M203.948,817.109h3.363
		c0-0.613-0.137-1.084-0.411-1.41c-0.273-0.326-0.665-0.488-1.174-0.488c-0.517,0-0.929,0.168-1.235,0.504
		C204.184,816.05,204.003,816.515,203.948,817.109z"/>
	<path fill="#5B5B5F" d="M209.538,819.166c0-1.293,1.038-1.971,3.115-2.033l1.092-0.035v-0.404c0-0.51-0.108-0.887-0.324-1.129
		c-0.217-0.244-0.563-0.365-1.038-0.365c-0.534,0-1.139,0.166-1.813,0.498l-0.303-0.746c0.316-0.17,0.663-0.303,1.04-0.398
		c0.377-0.098,0.755-0.145,1.134-0.145c0.766,0,1.332,0.17,1.701,0.51c0.368,0.34,0.553,0.885,0.553,1.635v4.383h-0.721
		l-0.193-0.904h-0.047c-0.319,0.398-0.639,0.668-0.956,0.809c-0.318,0.143-0.715,0.213-1.19,0.213c-0.64,0-1.142-0.164-1.504-0.49
		C209.72,820.234,209.538,819.769,209.538,819.166z M210.57,819.177c0,0.354,0.106,0.623,0.318,0.807
		c0.213,0.186,0.51,0.277,0.893,0.277c0.604,0,1.079-0.168,1.424-0.5c0.345-0.334,0.518-0.801,0.518-1.402v-0.582l-0.971,0.041
		c-0.772,0.027-1.329,0.148-1.67,0.361C210.74,818.394,210.57,818.726,210.57,819.177z"/>
	<path fill="#5B5B5F" d="M216.693,820.935v-6.422h0.791l0.119,1.195h0.05c0.239-0.42,0.526-0.744,0.862-0.971
		c0.336-0.229,0.705-0.342,1.107-0.342c0.285,0,0.541,0.023,0.768,0.07l-0.135,0.908c-0.266-0.059-0.5-0.088-0.703-0.088
		c-0.52,0-0.964,0.211-1.333,0.631c-0.369,0.422-0.554,0.947-0.554,1.576v3.441H216.693z"/>
	<path fill="#5B5B5F" d="M221.181,816.091c0-0.525,0.213-0.938,0.638-1.24c0.426-0.305,1.009-0.455,1.75-0.455
		c0.688,0,1.359,0.141,2.016,0.422l-0.34,0.791c-0.643-0.266-1.225-0.398-1.746-0.398c-0.462,0-0.811,0.072-1.045,0.217
		c-0.235,0.145-0.353,0.344-0.353,0.6c0,0.172,0.044,0.318,0.132,0.439s0.23,0.238,0.426,0.348c0.196,0.109,0.571,0.268,1.128,0.475
		c0.761,0.279,1.273,0.559,1.536,0.84c0.263,0.283,0.394,0.637,0.394,1.063c0,0.596-0.222,1.055-0.664,1.377
		c-0.443,0.322-1.064,0.484-1.865,0.484c-0.85,0-1.513-0.133-1.988-0.398v-0.898c0.308,0.156,0.639,0.279,0.991,0.371
		c0.354,0.09,0.693,0.135,1.021,0.135c0.51,0,0.9-0.082,1.175-0.244s0.411-0.41,0.411-0.742c0-0.252-0.108-0.465-0.326-0.645
		c-0.217-0.178-0.641-0.389-1.271-0.631c-0.599-0.223-1.023-0.418-1.274-0.584c-0.25-0.166-0.437-0.355-0.56-0.566
		C221.242,816.636,221.181,816.384,221.181,816.091z"/>
	<path fill="#5B5B5F" d="M230.075,817.712c0-1.045,0.261-1.859,0.783-2.443c0.521-0.582,1.246-0.873,2.173-0.873
		c0.896,0,1.607,0.299,2.135,0.895c0.528,0.596,0.792,1.404,0.792,2.422c0,1.049-0.263,1.867-0.789,2.455
		c-0.525,0.59-1.252,0.885-2.179,0.885c-0.572,0-1.081-0.135-1.524-0.406c-0.444-0.27-0.787-0.656-1.028-1.162
		C230.197,818.98,230.075,818.388,230.075,817.712z M231.072,817.712c0,0.822,0.164,1.449,0.493,1.879
		c0.328,0.432,0.812,0.646,1.449,0.646s1.122-0.215,1.452-0.643c0.331-0.43,0.496-1.057,0.496-1.883
		c0-0.818-0.165-1.439-0.496-1.865c-0.33-0.424-0.818-0.637-1.464-0.637c-0.638,0-1.119,0.209-1.443,0.629
		C231.234,816.257,231.072,816.882,231.072,817.712z"/>
	<path fill="#5B5B5F" d="M236.82,815.269v-0.439l1.148-0.352v-0.355c0-1.572,0.689-2.357,2.068-2.357
		c0.34,0,0.738,0.066,1.195,0.201l-0.252,0.771c-0.375-0.121-0.695-0.182-0.961-0.182c-0.367,0-0.639,0.121-0.814,0.365
		s-0.264,0.637-0.264,1.176v0.416h1.635v0.756h-1.635v5.666h-0.973v-5.666H236.82z"/>
	<path fill="#5B5B5F" d="M244.865,820.935v-9.117h0.973v9.117H244.865z"/>
	<path fill="#5B5B5F" d="M247.818,812.773c0-0.223,0.051-0.387,0.151-0.49s0.227-0.154,0.378-0.154c0.169,0,0.313,0.053,0.436,0.158
		s0.184,0.268,0.184,0.486s-0.062,0.381-0.184,0.488s-0.267,0.162-0.436,0.162c-0.151,0-0.277-0.055-0.378-0.162
		S247.818,812.992,247.818,812.773z M247.9,820.935v-6.422h0.891v6.422H247.9z"/>
	<path fill="#5B5B5F" d="M250.073,815.269v-0.439l1.148-0.352v-0.355c0-1.572,0.689-2.357,2.068-2.357
		c0.34,0,0.738,0.066,1.195,0.201l-0.252,0.771c-0.375-0.121-0.695-0.182-0.961-0.182c-0.367,0-0.639,0.121-0.814,0.365
		s-0.264,0.637-0.264,1.176v0.416h1.635v0.756h-1.635v5.666h-0.973v-5.666H250.073z"/>
	<path fill="#5B5B5F" d="M254.644,817.777c0-1.035,0.254-1.857,0.763-2.467c0.508-0.609,1.19-0.914,2.047-0.914
		c0.802,0,1.437,0.264,1.903,0.793c0.468,0.529,0.701,1.229,0.701,2.096v0.615h-4.418c0.02,0.754,0.21,1.326,0.572,1.717
		s0.872,0.586,1.529,0.586c0.689,0,1.37-0.145,2.044-0.434v0.867c-0.343,0.148-0.667,0.254-0.973,0.318s-0.675,0.098-1.106,0.098
		c-0.947,0-1.694-0.289-2.241-0.867C254.917,819.607,254.644,818.804,254.644,817.777z M255.663,817.109h3.363
		c0-0.613-0.137-1.084-0.411-1.41c-0.273-0.326-0.665-0.488-1.174-0.488c-0.517,0-0.929,0.168-1.235,0.504
		C255.899,816.05,255.718,816.515,255.663,817.109z"/>
	<path fill="#5B5B5F" d="M27.915,835.333v-9.117h0.973v9.117H27.915z"/>
	<path fill="#5B5B5F" d="M30.593,832.111c0-1.045,0.261-1.859,0.783-2.441c0.521-0.584,1.246-0.875,2.173-0.875
		c0.896,0,1.607,0.299,2.135,0.895c0.528,0.598,0.792,1.404,0.792,2.422c0,1.049-0.263,1.867-0.789,2.457
		c-0.525,0.588-1.252,0.883-2.179,0.883c-0.572,0-1.081-0.135-1.524-0.404c-0.444-0.27-0.787-0.658-1.028-1.162
		C30.714,833.378,30.593,832.789,30.593,832.111z M31.589,832.111c0,0.822,0.164,1.449,0.493,1.879
		c0.328,0.432,0.812,0.646,1.449,0.646s1.122-0.213,1.452-0.643c0.331-0.43,0.496-1.057,0.496-1.883
		c0-0.818-0.165-1.439-0.496-1.865c-0.33-0.424-0.818-0.637-1.464-0.637c-0.638,0-1.119,0.209-1.443,0.629
		C31.751,830.656,31.589,831.281,31.589,832.111z"/>
	<path fill="#5B5B5F" d="M37.788,830.49c0-0.523,0.213-0.938,0.638-1.24c0.426-0.303,1.009-0.455,1.75-0.455
		c0.688,0,1.359,0.141,2.016,0.422l-0.34,0.793c-0.643-0.268-1.225-0.4-1.746-0.4c-0.462,0-0.811,0.072-1.045,0.219
		c-0.235,0.145-0.353,0.344-0.353,0.598c0,0.172,0.044,0.32,0.132,0.441s0.23,0.236,0.426,0.346c0.196,0.109,0.571,0.27,1.128,0.477
		c0.761,0.277,1.273,0.557,1.536,0.84c0.263,0.281,0.394,0.635,0.394,1.063c0,0.594-0.222,1.053-0.664,1.377
		c-0.443,0.322-1.064,0.482-1.865,0.482c-0.85,0-1.513-0.133-1.988-0.398v-0.896c0.308,0.156,0.639,0.279,0.991,0.369
		c0.354,0.09,0.693,0.135,1.021,0.135c0.51,0,0.9-0.08,1.175-0.244c0.274-0.162,0.411-0.408,0.411-0.742
		c0-0.25-0.108-0.465-0.326-0.643c-0.217-0.178-0.641-0.389-1.271-0.631c-0.599-0.225-1.023-0.418-1.274-0.586
		c-0.25-0.166-0.437-0.355-0.56-0.566C37.85,831.037,37.788,830.785,37.788,830.49z"/>
	<path fill="#5B5B5F" d="M43.073,829.667v-0.469l0.92-0.404l0.41-1.371h0.563v1.488h1.863v0.756h-1.863v3.789
		c0,0.387,0.092,0.686,0.275,0.893s0.436,0.311,0.756,0.311c0.172,0,0.338-0.012,0.498-0.037s0.287-0.053,0.381-0.08v0.736
		c-0.105,0.049-0.261,0.09-0.466,0.123s-0.39,0.049-0.554,0.049c-1.242,0-1.863-0.654-1.863-1.963v-3.82H43.073z"/>
	<path fill="#5B5B5F" d="M50.726,832.046c0-1.035,0.153-2.004,0.459-2.906c0.307-0.902,0.745-1.693,1.316-2.373h0.949
		c-0.563,0.754-0.985,1.582-1.269,2.484s-0.425,1.83-0.425,2.783c0,0.938,0.145,1.854,0.434,2.748s0.705,1.711,1.248,2.449h-0.938
		c-0.575-0.664-1.015-1.439-1.319-2.326C50.878,834.019,50.726,833.066,50.726,832.046z"/>
	<path fill="#5B5B5F" d="M53.796,826.767h1.09l2.262,4.283l2.279-4.283h1.078l-2.859,5.244v3.322H56.65v-3.275L53.796,826.767z"/>
	<path fill="#5B5B5F" d="M61.695,835.333v-8.566h0.996v7.676h3.779v0.891H61.695z"/>
	<path fill="#5B5B5F" d="M67.923,835.333v-8.566h0.996v7.676h3.779v0.891H67.923z"/>
	<path fill="#5B5B5F" d="M73.331,826.767h0.949c0.575,0.684,1.015,1.479,1.319,2.383c0.304,0.904,0.456,1.869,0.456,2.896
		s-0.153,1.984-0.459,2.871c-0.307,0.887-0.745,1.658-1.316,2.314h-0.938c0.543-0.734,0.959-1.549,1.248-2.445
		s0.434-1.814,0.434-2.752c0-0.953-0.142-1.881-0.425-2.783S73.894,827.521,73.331,826.767z"/>
	<path fill="#5B5B5F" d="M80.193,833.566c0-1.295,1.038-1.973,3.115-2.035l1.092-0.035v-0.402c0-0.512-0.108-0.887-0.324-1.131
		c-0.217-0.242-0.563-0.365-1.038-0.365c-0.534,0-1.139,0.166-1.813,0.498l-0.303-0.746c0.316-0.17,0.663-0.303,1.04-0.398
		s0.755-0.145,1.134-0.145c0.766,0,1.332,0.17,1.701,0.51c0.368,0.34,0.553,0.885,0.553,1.635v4.383h-0.721l-0.193-0.902h-0.047
		c-0.319,0.398-0.639,0.668-0.956,0.809c-0.318,0.141-0.715,0.211-1.19,0.211c-0.64,0-1.142-0.162-1.504-0.49
		C80.374,834.634,80.193,834.169,80.193,833.566z M81.224,833.578c0,0.352,0.106,0.621,0.318,0.807
		c0.213,0.184,0.51,0.275,0.893,0.275c0.604,0,1.079-0.166,1.424-0.5s0.518-0.801,0.518-1.4v-0.584l-0.971,0.041
		c-0.772,0.027-1.329,0.148-1.67,0.363C81.395,832.792,81.224,833.125,81.224,833.578z"/>
	<path fill="#5B5B5F" d="M87.347,835.333v-6.422h0.791l0.158,0.867h0.047c0.199-0.313,0.479-0.555,0.838-0.727
		s0.76-0.258,1.201-0.258c0.773,0,1.355,0.188,1.746,0.561s0.586,0.969,0.586,1.789v4.189h-0.973v-4.162
		c0-0.525-0.119-0.916-0.357-1.174c-0.238-0.26-0.611-0.389-1.119-0.389c-0.672,0-1.164,0.182-1.477,0.547
		c-0.313,0.363-0.469,0.965-0.469,1.803v3.375H87.347z"/>
	<path fill="#5B5B5F" d="M94.355,832.14c0-1.059,0.233-1.881,0.701-2.467c0.467-0.586,1.117-0.879,1.95-0.879
		c0.872,0,1.541,0.316,2.007,0.949h0.076l-0.041-0.463l-0.023-0.451v-2.613h0.973v9.117h-0.791l-0.129-0.861h-0.053
		c-0.45,0.652-1.123,0.979-2.019,0.979c-0.837,0-1.488-0.287-1.953-0.861C94.587,834.015,94.355,833.199,94.355,832.14z
		 M95.351,832.152c0,0.82,0.15,1.439,0.452,1.857c0.301,0.418,0.743,0.627,1.326,0.627c0.665,0,1.147-0.18,1.446-0.541
		c0.3-0.361,0.449-0.945,0.449-1.75v-0.205c0-0.91-0.151-1.559-0.455-1.947c-0.303-0.389-0.787-0.584-1.452-0.584
		c-0.571,0-1.009,0.223-1.312,0.666C95.502,830.718,95.351,831.343,95.351,832.152z"/>
	<path fill="#5B5B5F" d="M104.152,826.767h1.09l2.262,4.283l2.279-4.283h1.078l-2.859,5.244v3.322h-0.996v-3.275L104.152,826.767z"
		/>
	<path fill="#5B5B5F" d="M110.948,832.175c0-1.035,0.254-1.857,0.763-2.467c0.508-0.609,1.19-0.914,2.047-0.914
		c0.802,0,1.437,0.266,1.903,0.795c0.468,0.529,0.701,1.227,0.701,2.094v0.615h-4.418c0.02,0.754,0.21,1.326,0.572,1.717
		s0.872,0.586,1.529,0.586c0.689,0,1.37-0.145,2.044-0.434v0.867c-0.343,0.148-0.667,0.256-0.973,0.32s-0.675,0.096-1.106,0.096
		c-0.947,0-1.694-0.289-2.241-0.867C111.222,834.005,110.948,833.203,110.948,832.175z M111.968,831.507h3.363
		c0-0.613-0.137-1.082-0.411-1.408c-0.273-0.326-0.665-0.49-1.174-0.49c-0.517,0-0.929,0.168-1.235,0.504
		C112.203,830.449,112.023,830.914,111.968,831.507z"/>
	<path fill="#5B5B5F" d="M117.558,833.566c0-1.295,1.038-1.973,3.115-2.035l1.092-0.035v-0.402c0-0.512-0.108-0.887-0.324-1.131
		c-0.217-0.242-0.563-0.365-1.038-0.365c-0.534,0-1.139,0.166-1.813,0.498l-0.303-0.746c0.316-0.17,0.663-0.303,1.04-0.398
		s0.755-0.145,1.134-0.145c0.766,0,1.332,0.17,1.701,0.51c0.368,0.34,0.553,0.885,0.553,1.635v4.383h-0.721l-0.193-0.902h-0.047
		c-0.319,0.398-0.639,0.668-0.956,0.809c-0.318,0.141-0.715,0.211-1.19,0.211c-0.64,0-1.142-0.162-1.504-0.49
		C117.74,834.634,117.558,834.169,117.558,833.566z M118.589,833.578c0,0.352,0.106,0.621,0.318,0.807
		c0.213,0.184,0.51,0.275,0.893,0.275c0.604,0,1.079-0.166,1.424-0.5s0.518-0.801,0.518-1.4v-0.584l-0.971,0.041
		c-0.772,0.027-1.329,0.148-1.67,0.363C118.76,832.792,118.589,833.125,118.589,833.578z"/>
	<path fill="#5B5B5F" d="M124.712,835.333v-6.422h0.791l0.119,1.195h0.05c0.239-0.42,0.526-0.744,0.862-0.971
		s0.705-0.342,1.107-0.342c0.285,0,0.541,0.023,0.768,0.07l-0.135,0.908c-0.266-0.059-0.5-0.088-0.703-0.088
		c-0.52,0-0.964,0.211-1.333,0.633s-0.554,0.945-0.554,1.574v3.441H124.712z"/>
	<path fill="#5B5B5F" d="M129.2,830.49c0-0.523,0.213-0.938,0.638-1.24c0.426-0.303,1.009-0.455,1.75-0.455
		c0.688,0,1.359,0.141,2.016,0.422l-0.34,0.793c-0.643-0.268-1.225-0.4-1.746-0.4c-0.462,0-0.811,0.072-1.045,0.219
		c-0.235,0.145-0.353,0.344-0.353,0.598c0,0.172,0.044,0.32,0.132,0.441s0.23,0.236,0.426,0.346c0.196,0.109,0.571,0.27,1.128,0.477
		c0.761,0.277,1.273,0.557,1.536,0.84c0.263,0.281,0.394,0.635,0.394,1.063c0,0.594-0.222,1.053-0.664,1.377
		c-0.443,0.322-1.064,0.482-1.865,0.482c-0.85,0-1.513-0.133-1.988-0.398v-0.896c0.308,0.156,0.639,0.279,0.991,0.369
		c0.354,0.09,0.693,0.135,1.021,0.135c0.51,0,0.9-0.08,1.175-0.244c0.274-0.162,0.411-0.408,0.411-0.742
		c0-0.25-0.108-0.465-0.326-0.643c-0.217-0.178-0.641-0.389-1.271-0.631c-0.599-0.225-1.023-0.418-1.274-0.586
		c-0.25-0.166-0.437-0.355-0.56-0.566C129.262,831.037,129.2,830.785,129.2,830.49z"/>
	<path fill="#5B5B5F" d="M138.599,835.333v-8.566h0.996v7.676h3.779v0.891H138.599z"/>
	<path fill="#5B5B5F" d="M144.599,827.171c0-0.223,0.051-0.385,0.151-0.488s0.227-0.156,0.378-0.156
		c0.169,0,0.313,0.053,0.436,0.158s0.184,0.268,0.184,0.486s-0.062,0.383-0.184,0.49s-0.267,0.16-0.436,0.16
		c-0.151,0-0.277-0.053-0.378-0.16S144.599,827.39,144.599,827.171z M144.681,835.333v-6.422h0.891v6.422H144.681z"/>
	<path fill="#5B5B5F" d="M146.685,828.912h1.043l1.383,3.809c0.313,0.891,0.496,1.469,0.551,1.734h0.047
		c0.043-0.207,0.179-0.635,0.407-1.285s0.741-2.07,1.538-4.258h1.043l-2.438,6.422h-1.137L146.685,828.912z"/>
	<path fill="#5B5B5F" d="M153.37,832.175c0-1.035,0.254-1.857,0.763-2.467c0.508-0.609,1.19-0.914,2.047-0.914
		c0.802,0,1.437,0.266,1.903,0.795c0.468,0.529,0.701,1.227,0.701,2.094v0.615h-4.418c0.02,0.754,0.21,1.326,0.572,1.717
		s0.872,0.586,1.529,0.586c0.689,0,1.37-0.145,2.044-0.434v0.867c-0.343,0.148-0.667,0.256-0.973,0.32s-0.675,0.096-1.106,0.096
		c-0.947,0-1.694-0.289-2.241-0.867C153.644,834.005,153.37,833.203,153.37,832.175z M154.39,831.507h3.363
		c0-0.613-0.137-1.082-0.411-1.408c-0.273-0.326-0.665-0.49-1.174-0.49c-0.517,0-0.929,0.168-1.235,0.504
		C154.625,830.449,154.445,830.914,154.39,831.507z"/>
	<path fill="#5B5B5F" d="M160.103,832.14c0-1.059,0.233-1.881,0.701-2.467c0.467-0.586,1.117-0.879,1.95-0.879
		c0.872,0,1.541,0.316,2.007,0.949h0.076l-0.041-0.463l-0.023-0.451v-2.613h0.973v9.117h-0.791l-0.129-0.861h-0.053
		c-0.45,0.652-1.123,0.979-2.019,0.979c-0.837,0-1.488-0.287-1.953-0.861C160.335,834.015,160.103,833.199,160.103,832.14z
		 M161.099,832.152c0,0.82,0.15,1.439,0.452,1.857c0.301,0.418,0.743,0.627,1.326,0.627c0.665,0,1.147-0.18,1.446-0.541
		c0.3-0.361,0.449-0.945,0.449-1.75v-0.205c0-0.91-0.151-1.559-0.455-1.947c-0.303-0.389-0.787-0.584-1.452-0.584
		c-0.571,0-1.009,0.223-1.312,0.666C161.25,830.718,161.099,831.343,161.099,832.152z"/>
	<path fill="#5B5B5F" d="M170.034,828.912h1.031c0.414,1.611,0.729,2.84,0.945,3.684s0.334,1.412,0.353,1.707h0.027
		c0.025-0.234,0.088-0.527,0.188-0.879s0.181-0.633,0.241-0.844l1.195-3.668h1.071l1.166,3.686c0.222,0.672,0.372,1.236,0.452,1.693
		h0.047c0.017-0.139,0.062-0.354,0.136-0.645c0.074-0.289,0.479-1.867,1.215-4.734h0.996l-1.773,6.422h-1.153l-1.178-3.768
		c-0.073-0.23-0.212-0.754-0.415-1.57h-0.047c-0.156,0.684-0.293,1.211-0.41,1.582l-1.211,3.756h-1.126L170.034,828.912z"/>
	<path fill="#5B5B5F" d="M180.183,827.171c0-0.223,0.051-0.385,0.151-0.488s0.227-0.156,0.378-0.156
		c0.169,0,0.313,0.053,0.436,0.158s0.184,0.268,0.184,0.486s-0.062,0.383-0.184,0.49s-0.267,0.16-0.436,0.16
		c-0.151,0-0.277-0.053-0.378-0.16S180.183,827.39,180.183,827.171z M180.265,835.333v-6.422h0.891v6.422H180.265z"/>
	<path fill="#5B5B5F" d="M182.45,829.667v-0.469l0.92-0.404l0.41-1.371h0.563v1.488h1.863v0.756h-1.863v3.789
		c0,0.387,0.092,0.686,0.275,0.893s0.436,0.311,0.756,0.311c0.172,0,0.338-0.012,0.498-0.037s0.287-0.053,0.381-0.08v0.736
		c-0.105,0.049-0.261,0.09-0.466,0.123s-0.39,0.049-0.554,0.049c-1.242,0-1.863-0.654-1.863-1.963v-3.82H182.45z"/>
	<path fill="#5B5B5F" d="M187.536,835.333v-9.117h0.973v2.76c0,0.332-0.016,0.607-0.047,0.826h0.059
		c0.191-0.309,0.464-0.551,0.817-0.729s0.757-0.268,1.21-0.268c0.785,0,1.374,0.188,1.767,0.561s0.589,0.965,0.589,1.777v4.189
		h-0.973v-4.154c0-0.523-0.119-0.914-0.357-1.172s-0.611-0.387-1.119-0.387c-0.676,0-1.169,0.184-1.479,0.551
		s-0.466,0.969-0.466,1.805v3.357H187.536z"/>
	<path fill="#5B5B5F" d="M197.661,832.14c0-1.059,0.233-1.881,0.701-2.467c0.467-0.586,1.117-0.879,1.95-0.879
		c0.872,0,1.541,0.316,2.007,0.949h0.076l-0.041-0.463l-0.023-0.451v-2.613h0.973v9.117h-0.791l-0.129-0.861h-0.053
		c-0.45,0.652-1.123,0.979-2.019,0.979c-0.837,0-1.488-0.287-1.953-0.861C197.894,834.015,197.661,833.199,197.661,832.14z
		 M198.657,832.152c0,0.82,0.15,1.439,0.452,1.857c0.301,0.418,0.743,0.627,1.326,0.627c0.665,0,1.147-0.18,1.446-0.541
		c0.3-0.361,0.449-0.945,0.449-1.75v-0.205c0-0.91-0.151-1.559-0.455-1.947c-0.303-0.389-0.787-0.584-1.452-0.584
		c-0.571,0-1.009,0.223-1.312,0.666C198.809,830.718,198.657,831.343,198.657,832.152z"/>
	<path fill="#5B5B5F" d="M205.29,827.171c0-0.223,0.051-0.385,0.151-0.488s0.227-0.156,0.378-0.156c0.169,0,0.313,0.053,0.436,0.158
		s0.184,0.268,0.184,0.486s-0.062,0.383-0.184,0.49s-0.267,0.16-0.436,0.16c-0.151,0-0.277-0.053-0.378-0.16
		S205.29,827.39,205.29,827.171z M205.372,835.333v-6.422h0.891v6.422H205.372z"/>
	<path fill="#5B5B5F" d="M207.997,830.49c0-0.523,0.213-0.938,0.638-1.24c0.426-0.303,1.009-0.455,1.75-0.455
		c0.688,0,1.359,0.141,2.016,0.422l-0.34,0.793c-0.643-0.268-1.225-0.4-1.746-0.4c-0.462,0-0.811,0.072-1.045,0.219
		c-0.235,0.145-0.353,0.344-0.353,0.598c0,0.172,0.044,0.32,0.132,0.441s0.23,0.236,0.426,0.346c0.196,0.109,0.571,0.27,1.128,0.477
		c0.761,0.277,1.273,0.557,1.536,0.84c0.263,0.281,0.394,0.635,0.394,1.063c0,0.594-0.222,1.053-0.664,1.377
		c-0.443,0.322-1.064,0.482-1.865,0.482c-0.85,0-1.513-0.133-1.988-0.398v-0.896c0.308,0.156,0.639,0.279,0.991,0.369
		c0.354,0.09,0.693,0.135,1.021,0.135c0.51,0,0.9-0.08,1.175-0.244c0.274-0.162,0.411-0.408,0.411-0.742
		c0-0.25-0.108-0.465-0.326-0.643c-0.217-0.178-0.641-0.389-1.271-0.631c-0.599-0.225-1.023-0.418-1.274-0.586
		c-0.25-0.166-0.437-0.355-0.56-0.566C208.059,831.037,207.997,830.785,207.997,830.49z"/>
	<path fill="#5B5B5F" d="M213.652,833.566c0-1.295,1.038-1.973,3.115-2.035l1.092-0.035v-0.402c0-0.512-0.108-0.887-0.324-1.131
		c-0.217-0.242-0.563-0.365-1.038-0.365c-0.534,0-1.139,0.166-1.813,0.498l-0.303-0.746c0.316-0.17,0.663-0.303,1.04-0.398
		s0.755-0.145,1.134-0.145c0.766,0,1.332,0.17,1.701,0.51c0.368,0.34,0.553,0.885,0.553,1.635v4.383h-0.721l-0.193-0.902h-0.047
		c-0.319,0.398-0.639,0.668-0.956,0.809c-0.318,0.141-0.715,0.211-1.19,0.211c-0.64,0-1.142-0.162-1.504-0.49
		C213.833,834.634,213.652,834.169,213.652,833.566z M214.683,833.578c0,0.352,0.106,0.621,0.318,0.807
		c0.213,0.184,0.51,0.275,0.893,0.275c0.604,0,1.079-0.166,1.424-0.5s0.518-0.801,0.518-1.4v-0.584l-0.971,0.041
		c-0.772,0.027-1.329,0.148-1.67,0.363C214.854,832.792,214.683,833.125,214.683,833.578z"/>
	<path fill="#5B5B5F" d="M220.806,835.333v-9.117h0.973v2.215c0,0.496-0.016,0.941-0.047,1.336h0.047
		c0.453-0.641,1.125-0.961,2.016-0.961c0.84,0,1.492,0.289,1.957,0.865s0.697,1.391,0.697,2.445s-0.234,1.875-0.703,2.459
		s-1.119,0.875-1.951,0.875c-0.418,0-0.8-0.076-1.146-0.23s-0.636-0.393-0.87-0.713h-0.07l-0.205,0.826H220.806z M221.779,832.117
		c0,0.902,0.15,1.549,0.451,1.938s0.783,0.582,1.447,0.582c0.598,0,1.043-0.217,1.336-0.652s0.439-1.063,0.439-1.879
		c0-0.836-0.146-1.459-0.439-1.869s-0.746-0.615-1.359-0.615c-0.664,0-1.143,0.191-1.436,0.572S221.779,831.214,221.779,832.117z"/>
	<path fill="#5B5B5F" d="M228.077,827.171c0-0.223,0.051-0.385,0.151-0.488s0.227-0.156,0.378-0.156
		c0.169,0,0.313,0.053,0.436,0.158s0.184,0.268,0.184,0.486s-0.062,0.383-0.184,0.49s-0.267,0.16-0.436,0.16
		c-0.151,0-0.277-0.053-0.378-0.16S228.077,827.39,228.077,827.171z M228.159,835.333v-6.422h0.891v6.422H228.159z"/>
	<path fill="#5B5B5F" d="M231.195,835.333v-9.117h0.973v9.117H231.195z"/>
	<path fill="#5B5B5F" d="M234.148,827.171c0-0.223,0.051-0.385,0.151-0.488s0.227-0.156,0.378-0.156
		c0.169,0,0.313,0.053,0.436,0.158s0.184,0.268,0.184,0.486s-0.062,0.383-0.184,0.49s-0.267,0.16-0.436,0.16
		c-0.151,0-0.277-0.053-0.378-0.16S234.148,827.39,234.148,827.171z M234.23,835.333v-6.422h0.891v6.422H234.23z"/>
	<path fill="#5B5B5F" d="M236.415,829.667v-0.469l0.92-0.404l0.41-1.371h0.563v1.488h1.863v0.756h-1.863v3.789
		c0,0.387,0.092,0.686,0.275,0.893s0.436,0.311,0.756,0.311c0.172,0,0.338-0.012,0.498-0.037s0.287-0.053,0.381-0.08v0.736
		c-0.105,0.049-0.261,0.09-0.466,0.123s-0.39,0.049-0.554,0.049c-1.242,0-1.863-0.654-1.863-1.963v-3.82H236.415z"/>
	<path fill="#5B5B5F" d="M240.482,828.912h1.043l1.406,3.66c0.309,0.836,0.5,1.438,0.574,1.809h0.047
		c0.051-0.199,0.157-0.539,0.319-1.021s0.692-1.965,1.591-4.447h1.043l-2.76,7.313c-0.273,0.723-0.593,1.236-0.958,1.539
		s-0.813,0.453-1.345,0.453c-0.297,0-0.59-0.033-0.879-0.1v-0.785c0.215,0.047,0.455,0.07,0.721,0.07
		c0.668,0,1.145-0.375,1.43-1.123l0.357-0.914L240.482,828.912z"/>
	<path fill="#5B5B5F" d="M250.115,832.046c0-1.035,0.153-2.004,0.459-2.906c0.307-0.902,0.745-1.693,1.316-2.373h0.949
		c-0.563,0.754-0.985,1.582-1.269,2.484s-0.425,1.83-0.425,2.783c0,0.938,0.145,1.854,0.434,2.748s0.705,1.711,1.248,2.449h-0.938
		c-0.575-0.664-1.015-1.439-1.319-2.326C250.267,834.019,250.115,833.066,250.115,832.046z"/>
	<path fill="#5B5B5F" d="M253.185,826.767h1.09l2.262,4.283l2.279-4.283h1.078l-2.859,5.244v3.322h-0.996v-3.275L253.185,826.767z"
		/>
	<path fill="#5B5B5F" d="M261.083,835.333v-8.566h0.996v7.676h3.779v0.891H261.083z"/>
	<path fill="#5B5B5F" d="M267.312,835.333v-8.566h2.625c1.332,0,2.367,0.369,3.105,1.107s1.107,1.77,1.107,3.094
		c0,1.414-0.384,2.496-1.151,3.244s-1.872,1.121-3.313,1.121H267.312z M268.308,834.472h1.213c1.188,0,2.08-0.291,2.678-0.875
		s0.896-1.449,0.896-2.594c0-1.117-0.28-1.959-0.841-2.525s-1.394-0.85-2.499-0.85h-1.447V834.472z"/>
	<path fill="#5B5B5F" d="M275.24,826.767h0.949c0.575,0.684,1.015,1.479,1.319,2.383c0.304,0.904,0.456,1.869,0.456,2.896
		s-0.153,1.984-0.459,2.871c-0.307,0.887-0.745,1.658-1.316,2.314h-0.938c0.543-0.734,0.959-1.549,1.248-2.445
		s0.434-1.814,0.434-2.752c0-0.953-0.142-1.881-0.425-2.783S275.802,827.521,275.24,826.767z"/>
</g>
</svg>
