<?xml version="1.0" encoding="utf-8"?>
<!-- Generator: Adobe Illustrator 16.0.0, SVG Export Plug-In . SVG Version: 6.00 Build 0)  -->
<!DOCTYPE svg PUBLIC "-//W3C//DTD SVG 1.1//EN" "http://www.w3.org/Graphics/SVG/1.1/DTD/svg11.dtd">
<svg version="1.1" id="Capa_1" xmlns="http://www.w3.org/2000/svg" xmlns:xlink="http://www.w3.org/1999/xlink" x="0px" y="0px"
	 width="507.264px" height="420.095px" viewBox="0 -0.006 507.264 420.095" enable-background="new 0 -0.006 507.264 420.095"
	 xml:space="preserve">
<g id="global-estimates">
	<g>
		<rect x="110.314" y="207.79" fill="#199598" width="100.49" height="122.967"/>
		<rect x="110.314" y="82.725" fill="#DD9B2B" width="100.49" height="125.063"/>
	</g>
	<g>
		<path fill="#9A999E" d="M21.731,87.989v-1.199l3.271-3.299c0.991-1.012,1.648-1.734,1.97-2.166
			c0.313-0.432,0.56-0.853,0.713-1.262c0.159-0.409,0.238-0.85,0.238-1.321c0-0.665-0.201-1.192-0.604-1.582
			s-0.96-0.584-1.678-0.584c-0.521,0-1.004,0.085-1.465,0.256c-0.462,0.17-0.979,0.48-1.542,0.93l-0.742-0.964
			c1.146-0.935,2.394-1.402,3.736-1.402c1.166,0,2.081,0.297,2.738,0.891c0.663,0.594,0.994,1.393,0.994,2.396
			c0,0.79-0.226,1.572-0.663,2.345c-0.438,0.773-1.271,1.751-2.479,2.934l-2.717,2.669V86.7h6.386v1.291h-8.16L21.731,87.989
			L21.731,87.989z"/>
		<path fill="#9A999E" d="M35.802,85.145v-1.239l5.896-8.399h1.494v8.347h1.855v1.291h-1.855v2.845h-1.333v-2.845H35.802z
			 M37.229,83.854h4.633v-4.127c0-0.81,0.023-1.724,0.084-2.743h-0.063c-0.271,0.543-0.526,0.994-0.769,1.35L37.229,83.854z"/>
		<path fill="#9A999E" d="M45.745,85.145v-1.239l5.896-8.399h1.494v8.347h1.855v1.291h-1.855v2.845h-1.334v-2.845H45.745z
			 M47.173,83.854h4.628v-4.127c0-0.81,0.023-1.724,0.084-2.743h-0.063c-0.271,0.543-0.521,0.994-0.769,1.35L47.173,83.854z"/>
		<path fill="#9A999E" d="M56.225,84.821c0-1.421,0.871-2.528,2.614-3.32c-0.79-0.441-1.354-0.918-1.7-1.431
			c-0.343-0.513-0.52-1.086-0.52-1.72c0-0.9,0.334-1.618,1.008-2.153c0.669-0.535,1.563-0.802,2.688-0.802
			c1.136,0,2.031,0.263,2.696,0.79c0.665,0.526,0.997,1.254,0.997,2.183c0,0.611-0.188,1.169-0.568,1.673
			c-0.387,0.504-0.991,0.962-1.829,1.375c1.013,0.481,1.729,0.986,2.155,1.516c0.432,0.53,0.645,1.143,0.645,1.839
			c0,1.03-0.356,1.853-1.082,2.467c-0.721,0.614-1.709,0.921-2.964,0.921c-1.329,0-2.354-0.29-3.063-0.871
			C56.582,86.708,56.225,85.887,56.225,84.821z M57.635,84.855c0,0.679,0.231,1.208,0.708,1.588
			c0.477,0.379,1.135,0.569,1.983,0.569c0.847,0,1.498-0.198,1.972-0.594c0.469-0.396,0.704-0.94,0.704-1.631
			c0-0.549-0.226-1.037-0.661-1.465c-0.438-0.427-1.21-0.842-2.311-1.244c-0.842,0.362-1.453,0.763-1.832,1.202
			C57.823,83.72,57.635,84.245,57.635,84.855z M58.033,78.411c0,0.521,0.167,0.968,0.5,1.341c0.333,0.374,0.949,0.748,1.853,1.121
			c0.813-0.34,1.38-0.705,1.717-1.095c0.336-0.391,0.504-0.847,0.504-1.367c0-0.572-0.2-1.026-0.61-1.363
			c-0.407-0.336-0.979-0.505-1.688-0.505c-0.707,0-1.261,0.17-1.662,0.51C58.235,77.392,58.033,77.845,58.033,78.411z"/>
		<g>
			<path fill="#9A999E" d="M31.516,90.297c0.144-0.542,0.295-1.211,0.468-2.008c0.169-0.797,0.285-1.435,0.354-1.914h1.415
				l0.112,0.18c-0.135,0.521-0.329,1.126-0.583,1.816s-0.521,1.332-0.793,1.926H31.516z"/>
		</g>
	</g>
	<g>
		<path fill="#9A999E" d="M56.207,324.526c0-2.161,0.343-3.765,1.019-4.813c0.681-1.047,1.707-1.569,3.097-1.569
			c1.348,0,2.363,0.546,3.063,1.638c0.694,1.094,1.048,2.674,1.048,4.744c0,2.146-0.338,3.75-1.019,4.811
			c-0.676,1.063-1.709,1.594-3.104,1.594c-1.34,0-2.355-0.543-3.058-1.628C56.557,328.212,56.207,326.624,56.207,324.526z
			 M57.652,324.526c0,1.803,0.212,3.113,0.636,3.936c0.429,0.822,1.104,1.231,2.026,1.231c0.938,0,1.613-0.417,2.034-1.25
			c0.426-0.833,0.637-2.139,0.637-3.918c0-1.776-0.21-3.082-0.637-3.907c-0.421-0.828-1.104-1.242-2.034-1.242
			s-1.604,0.408-2.026,1.229C57.864,321.417,57.652,322.726,57.652,324.526z"/>
	</g>
	<g>
		<path fill="#FFFFFF" d="M142.382,269.272h-3.146v-8.621l0.026-1.417l0.056-1.549c-0.521,0.522-0.892,0.866-1.095,1.028
			l-1.712,1.375l-1.521-1.896l4.801-3.818h2.592V269.272L142.382,269.272z"/>
		<path fill="#FFFFFF" d="M162.873,269.272h-10.411v-2.189l3.735-3.773c1.104-1.143,1.831-1.925,2.171-2.357
			c0.344-0.438,0.584-0.846,0.729-1.22c0.145-0.374,0.229-0.769,0.229-1.162c0-0.604-0.165-1.042-0.489-1.335
			c-0.33-0.292-0.771-0.438-1.319-0.438c-0.578,0-1.138,0.134-1.687,0.396c-0.543,0.271-1.106,0.646-1.697,1.134l-1.712-2.023
			c0.729-0.625,1.341-1.064,1.819-1.325c0.479-0.259,1.014-0.456,1.58-0.597c0.566-0.146,1.209-0.209,1.916-0.209
			c0.936,0,1.752,0.17,2.466,0.511c0.719,0.342,1.271,0.813,1.661,1.429c0.396,0.609,0.591,1.313,0.591,2.1
			c0,0.688-0.116,1.33-0.356,1.938c-0.242,0.604-0.61,1.219-1.121,1.854c-0.506,0.635-1.396,1.528-2.675,2.699l-1.916,1.807v0.146
			h6.491v2.634h-0.006L162.873,269.272L162.873,269.272z"/>
		<path fill="#FFFFFF" d="M174.786,269.272h-10.415v-2.189l3.74-3.773c1.104-1.143,1.831-1.925,2.171-2.357
			c0.339-0.438,0.584-0.846,0.729-1.22c0.145-0.374,0.229-0.769,0.229-1.162c0-0.604-0.165-1.042-0.494-1.335
			c-0.325-0.292-0.771-0.438-1.314-0.438c-0.578,0-1.143,0.134-1.687,0.396c-0.543,0.271-1.106,0.646-1.697,1.134l-1.717-2.023
			c0.733-0.625,1.346-1.064,1.824-1.325c0.479-0.259,1.009-0.456,1.58-0.597c0.566-0.146,1.209-0.209,1.916-0.209
			c0.935,0,1.752,0.17,2.466,0.511c0.714,0.342,1.271,0.813,1.661,1.429c0.396,0.609,0.591,1.313,0.591,2.1
			c0,0.688-0.121,1.33-0.356,1.938c-0.242,0.604-0.615,1.219-1.121,1.854s-1.396,1.528-2.675,2.699l-1.916,1.807v0.146h6.486
			L174.786,269.272L174.786,269.272z"/>
		<path fill="#FFFFFF" d="M186.117,257.708c0,0.935-0.277,1.726-0.846,2.375c-0.564,0.646-1.354,1.104-2.374,1.349v0.063
			c1.197,0.146,2.108,0.518,2.729,1.098c0.616,0.58,0.927,1.363,0.927,2.349c0,1.433-0.521,2.55-1.563,3.347
			c-1.04,0.799-2.521,1.197-4.448,1.197c-1.617,0-3.055-0.268-4.305-0.805v-2.68c0.577,0.291,1.212,0.521,1.905,0.713
			c0.688,0.184,1.379,0.271,2.059,0.271c1.04,0,1.812-0.176,2.308-0.526c0.496-0.354,0.744-0.924,0.744-1.7
			c0-0.697-0.285-1.192-0.854-1.484c-0.571-0.292-1.479-0.438-2.729-0.438h-1.136v-2.416h1.152c1.15,0,1.994-0.148,2.527-0.452
			c0.528-0.308,0.8-0.817,0.8-1.56c0-1.128-0.702-1.688-2.115-1.688c-0.489,0-0.987,0.08-1.493,0.242s-1.063,0.44-1.688,0.851
			l-1.457-2.17c1.354-0.979,2.979-1.474,4.855-1.474c1.542,0,2.765,0.313,3.653,0.938
			C185.669,255.726,186.117,256.593,186.117,257.708z"/>
		<g>
			<path fill="#FFFFFF" d="M145.62,271.542c0.146-0.543,0.295-1.211,0.47-2.008c0.169-0.802,0.283-1.438,0.354-1.914h1.415
				l0.114,0.18c-0.135,0.521-0.329,1.129-0.583,1.813c-0.254,0.689-0.521,1.332-0.793,1.93H145.62L145.62,271.542z"/>
		</g>
	</g>
	<g>
		<path fill="#FFFFFF" d="M142.382,153.506h-3.146v-8.621l0.026-1.417l0.056-1.549c-0.521,0.523-0.892,0.866-1.095,1.029
			l-1.712,1.375l-1.521-1.895l4.801-3.821h2.592V153.506L142.382,153.506z"/>
		<path fill="#FFFFFF" d="M162.873,153.506h-10.411v-2.191l3.735-3.781c1.104-1.134,1.831-1.92,2.171-2.359
			c0.344-0.439,0.584-0.844,0.729-1.218c0.145-0.374,0.229-0.761,0.229-1.162c0-0.598-0.165-1.042-0.489-1.335
			c-0.33-0.292-0.771-0.438-1.319-0.438c-0.578,0-1.138,0.132-1.687,0.397c-0.543,0.265-1.106,0.642-1.697,1.131l-1.712-2.028
			c0.729-0.625,1.341-1.066,1.819-1.325c0.479-0.258,1.014-0.457,1.58-0.596s1.209-0.209,1.916-0.209c0.936,0,1.752,0.17,2.466,0.51
			c0.719,0.34,1.271,0.815,1.661,1.427c0.396,0.611,0.591,1.311,0.591,2.099c0,0.686-0.116,1.33-0.356,1.931
			c-0.242,0.601-0.61,1.217-1.121,1.849c-0.506,0.632-1.396,1.532-2.675,2.701l-1.916,1.804v0.143h6.491v2.65H162.873z"/>
		<path fill="#FFFFFF" d="M174.786,153.506h-10.415v-2.191l3.74-3.781c1.104-1.134,1.831-1.92,2.171-2.359
			c0.339-0.438,0.584-0.844,0.729-1.218c0.145-0.374,0.229-0.761,0.229-1.162c0-0.598-0.165-1.042-0.494-1.335
			c-0.325-0.292-0.771-0.438-1.314-0.438c-0.578,0-1.143,0.132-1.687,0.397c-0.543,0.265-1.106,0.642-1.697,1.131l-1.717-2.028
			c0.733-0.625,1.346-1.066,1.824-1.325c0.479-0.258,1.009-0.457,1.58-0.596c0.566-0.139,1.209-0.209,1.916-0.209
			c0.935,0,1.752,0.17,2.466,0.51c0.714,0.34,1.271,0.815,1.661,1.427c0.396,0.611,0.591,1.311,0.591,2.099
			c0,0.686-0.121,1.33-0.356,1.931c-0.242,0.601-0.615,1.217-1.121,1.849s-1.396,1.532-2.675,2.701l-1.916,1.804v0.143h6.486
			L174.786,153.506L174.786,153.506z"/>
		<path fill="#FFFFFF" d="M181.705,143.989c1.438,0,2.586,0.404,3.438,1.212c0.854,0.809,1.279,1.916,1.279,3.322
			c0,1.665-0.518,2.945-1.539,3.842c-1.021,0.896-2.493,1.345-4.397,1.345c-1.658,0-2.996-0.268-4.02-0.805v-2.721
			c0.537,0.285,1.162,0.518,1.875,0.698c0.713,0.18,1.394,0.27,2.023,0.27c1.922,0,2.889-0.788,2.889-2.364
			c0-1.501-0.995-2.252-2.986-2.252c-0.355,0-0.757,0.036-1.188,0.107c-0.438,0.071-0.789,0.148-1.063,0.229l-1.253-0.672
			l0.563-7.592h8.081v2.669h-5.314l-0.273,2.925l0.355-0.071C180.58,144.037,181.095,143.989,181.705,143.989z"/>
		<g>
			<path fill="#FFFFFF" d="M145.62,155.772c0.146-0.542,0.295-1.211,0.47-2.008c0.169-0.797,0.283-1.435,0.354-1.914h1.415
				l0.114,0.18c-0.135,0.521-0.329,1.126-0.583,1.816c-0.254,0.69-0.521,1.332-0.793,1.926H145.62z"/>
		</g>
	</g>
	<g>
		<path fill="#87868A" d="M48.841,223.43H33.943v-4.208c0-1.979,0.295-3.407,0.885-4.29c0.596-0.886,1.521-1.325,2.804-1.325
			c0.883,0,1.606,0.246,2.186,0.739c0.573,0.491,0.945,1.211,1.115,2.153h0.104c0.393-2.248,1.578-3.373,3.566-3.373
			c1.332,0,2.371,0.449,3.118,1.35c0.748,0.896,1.121,2.152,1.121,3.77V223.43L48.841,223.43z M40.311,221.697v-2.853
			c0-1.225-0.188-2.104-0.569-2.641c-0.388-0.537-1.023-0.813-1.938-0.813c-0.834,0-1.438,0.299-1.81,0.896
			c-0.364,0.601-0.555,1.553-0.555,2.854v2.547L40.311,221.697L40.311,221.697z M47.363,221.697v-3.106
			c0-1.193-0.229-2.104-0.698-2.715c-0.465-0.604-1.188-0.912-2.188-0.912c-0.924,0-1.604,0.313-2.033,0.938
			c-0.438,0.621-0.652,1.563-0.652,2.838v2.97L47.363,221.697L47.363,221.697z"/>
		<path fill="#87868A" d="M34.646,210.305c-0.388,0-0.671-0.087-0.852-0.265c-0.185-0.184-0.271-0.396-0.271-0.656
			c0-0.295,0.092-0.547,0.271-0.76c0.188-0.211,0.466-0.316,0.847-0.316c0.385,0,0.664,0.105,0.854,0.316
			c0.188,0.213,0.28,0.465,0.28,0.76c0,0.264-0.099,0.479-0.28,0.656C35.31,210.218,35.026,210.305,34.646,210.305z M48.841,210.163
			H37.673v-1.55h11.168V210.163z"/>
		<path fill="#87868A" d="M48.841,204.884H32.985v-1.691h15.854L48.841,204.884L48.841,204.884z"/>
		<path fill="#87868A" d="M48.841,199.605H32.985v-1.69h15.854L48.841,199.605L48.841,199.605z"/>
		<path fill="#87868A" d="M34.646,194.47c-0.388,0-0.671-0.09-0.852-0.266c-0.185-0.183-0.271-0.396-0.271-0.656
			c0-0.293,0.092-0.547,0.271-0.758c0.188-0.213,0.466-0.317,0.847-0.317c0.385,0,0.664,0.104,0.854,0.317
			c0.188,0.211,0.28,0.465,0.28,0.758c0,0.264-0.099,0.479-0.28,0.656C35.31,194.38,35.026,194.47,34.646,194.47z M48.841,194.329
			H37.673v-1.551h11.168V194.329z"/>
		<path fill="#87868A" d="M43.236,189.669c-1.813,0-3.229-0.455-4.247-1.36c-1.019-0.908-1.521-2.168-1.521-3.78
			c0-1.558,0.521-2.795,1.562-3.713c1.032-0.918,2.438-1.377,4.211-1.377c1.819,0,3.248,0.457,4.271,1.372
			c1.021,0.914,1.536,2.178,1.536,3.789c0,0.996-0.234,1.88-0.704,2.651c-0.475,0.771-1.146,1.367-2.021,1.787
			S44.413,189.669,43.236,189.669z M43.236,187.938c1.43,0,2.521-0.286,3.271-0.856c0.749-0.563,1.124-1.412,1.124-2.521
			s-0.373-1.951-1.119-2.524c-0.745-0.574-1.837-0.858-3.271-0.858c-1.423,0-2.504,0.284-3.243,0.858
			c-0.733,0.573-1.104,1.424-1.104,2.547c0,1.106,0.364,1.943,1.099,2.513C40.706,187.655,41.793,187.938,43.236,187.938z"/>
		<path fill="#87868A" d="M48.841,176.443H37.673v-1.376l1.509-0.275v-0.081c-0.544-0.347-0.966-0.832-1.27-1.457
			c-0.299-0.625-0.443-1.321-0.443-2.089c0-1.346,0.324-2.357,0.979-3.037c0.646-0.68,1.688-1.02,3.107-1.02h7.286v1.692h-7.239
			c-0.907,0-1.593,0.207-2.042,0.621c-0.444,0.415-0.675,1.063-0.675,1.946c0,1.169,0.313,2.024,0.95,2.568
			c0.633,0.543,1.678,0.815,3.135,0.815h5.871V176.443z"/>
		<path fill="#87868A" d="M47.103,158.714h-1.595c0.252-0.563,0.457-1.214,0.611-1.951c0.16-0.737,0.24-1.408,0.24-2.013H41.88
			c-0.438,1.393-0.954,2.369-1.538,2.93c-0.585,0.561-1.339,0.841-2.268,0.841c-0.89,0-1.615-0.345-2.188-1.034
			c-0.566-0.689-0.918-1.602-1.04-2.736h-1.854v-1.335h1.834c0.034-1.246,0.286-2.448,0.76-3.607l1.335,0.53
			c-0.401,1.009-0.644,2.035-0.719,3.077h4.428c0.34-1.063,0.671-1.859,0.988-2.389c0.323-0.528,0.693-0.918,1.111-1.169
			c0.417-0.25,0.926-0.376,1.521-0.376c0.924,0,1.688,0.346,2.292,1.037c0.604,0.691,0.979,1.656,1.146,2.896h2.354v1.335h-2.262
			c0,0.761-0.063,1.498-0.185,2.212C47.482,157.676,47.316,158.26,47.103,158.714z M38.07,156.79c0.521,0,0.936-0.152,1.238-0.456
			c0.313-0.304,0.604-0.831,0.892-1.582H36.26c0.104,0.669,0.316,1.177,0.637,1.521C37.208,156.618,37.601,156.79,38.07,156.79z
			 M46.262,153.417c-0.203-1.467-0.828-2.201-1.875-2.201c-0.484,0-0.885,0.15-1.188,0.452c-0.303,0.301-0.604,0.884-0.897,1.749
			H46.262z"/>
	</g>
	<line fill="none" stroke="#666666" stroke-width="0.5" stroke-miterlimit="10" x1="80.099" y1="82.725" x2="80.099" y2="330.755"/>
	
		<line fill="none" stroke="#666666" stroke-width="0.5" stroke-miterlimit="10" x1="210.809" y1="330.755" x2="66.379" y2="330.755"/>
	<line fill="none" stroke="#666666" stroke-width="0.5" stroke-miterlimit="10" x1="66.673" y1="82.774" x2="210.809" y2="82.774"/>
</g>
<g id="EU28-estimates">
	<g>
		<rect x="372.044" y="211.968" fill="#199598" width="100.497" height="118.786"/>
		<rect x="372.044" y="82.773" fill="#DD9B2B" width="100.497" height="129.194"/>
	</g>
	<g>
		<path fill="#9A999E" d="M294.561,85.144v-1.239l5.896-8.399h1.495v8.347h1.854v1.291h-1.854v2.845h-1.343v-2.845H294.561z
			 M295.982,83.853h4.629v-4.127c0-0.81,0.027-1.724,0.085-2.743h-0.063c-0.271,0.543-0.526,0.994-0.766,1.35L295.982,83.853z"/>
		<path fill="#9A999E" d="M305.057,79.561c0-1.287,0.361-2.303,1.086-3.048c0.729-0.745,1.677-1.118,2.858-1.118
			c0.846,0,1.586,0.216,2.219,0.649s1.12,1.063,1.461,1.892c0.341,0.828,0.511,1.805,0.511,2.931c0,4.861-1.883,7.292-5.646,7.292
			c-0.659,0-1.188-0.057-1.566-0.17V86.76c0.454,0.17,0.97,0.255,1.549,0.255c1.356,0,2.389-0.422,3.073-1.266
			c0.692-0.844,1.07-2.138,1.133-3.882h-0.103c-0.313,0.476-0.729,0.838-1.237,1.088c-0.515,0.25-1.094,0.374-1.738,0.374
			c-1.103,0-1.978-0.331-2.625-0.993C305.382,81.671,305.057,80.748,305.057,79.561z M306.468,79.543
			c0,0.819,0.204,1.463,0.61,1.932c0.397,0.469,1.021,0.704,1.854,0.704c0.514,0,0.987-0.105,1.42-0.315
			c0.438-0.21,0.772-0.498,1.021-0.862c0.248-0.364,0.373-0.745,0.373-1.143c0-0.597-0.116-1.148-0.354-1.655
			c-0.229-0.506-0.556-0.904-0.971-1.194s-0.896-0.435-1.433-0.435c-0.813,0-1.438,0.262-1.872,0.785
			C306.687,77.884,306.468,78.611,306.468,79.543z"/>
		<path fill="#9A999E" d="M315.23,87.478v-1.364c0.396,0.254,0.896,0.453,1.479,0.597s1.169,0.216,1.73,0.216
			c0.996,0,1.771-0.234,2.322-0.703c0.553-0.468,0.828-1.146,0.828-2.031c0-1.727-1.063-2.59-3.188-2.59
			c-0.532,0-1.262,0.082-2.152,0.245l-0.731-0.466l0.479-5.808h6.174v1.291h-4.978l-0.313,3.736c0.65-0.119,1.3-0.178,1.945-0.178
			c1.309,0,2.338,0.322,3.089,0.966c0.75,0.644,1.126,1.525,1.126,2.644c0,1.288-0.409,2.297-1.229,3.029
			c-0.813,0.732-1.938,1.098-3.384,1.098C317.038,88.159,315.967,87.932,315.23,87.478z"/>
	</g>
	<g>
		<path fill="#9A999E" d="M314.968,324.525c0-2.161,0.338-3.765,1.014-4.813c0.676-1.047,1.706-1.569,3.092-1.569
			c1.354,0,2.368,0.546,3.067,1.638c0.698,1.094,1.047,2.674,1.047,4.744c0,2.146-0.338,3.75-1.014,4.811
			c-0.676,1.063-1.709,1.594-3.104,1.594c-1.34,0-2.354-0.543-3.058-1.628C315.314,328.211,314.968,326.623,314.968,324.525z
			 M316.415,324.525c0,1.803,0.212,3.113,0.636,3.936c0.424,0.824,1.1,1.231,2.021,1.231c0.938,0,1.618-0.417,2.039-1.25
			s0.642-2.139,0.642-3.918c0-1.776-0.221-3.082-0.642-3.907c-0.421-0.828-1.101-1.242-2.039-1.242
			c-0.927,0-1.603,0.408-2.021,1.229C316.627,321.416,316.415,322.725,316.415,324.525z"/>
	</g>
	<g>
		<path fill="#FFFFFF" d="M414.856,269.271h-10.414v-2.189l3.739-3.773c1.107-1.143,1.831-1.925,2.171-2.357
			c0.34-0.436,0.584-0.846,0.733-1.22c0.146-0.374,0.225-0.769,0.225-1.162c0-0.604-0.165-1.042-0.494-1.335
			c-0.329-0.292-0.77-0.438-1.313-0.438c-0.577,0-1.146,0.134-1.688,0.396c-0.544,0.271-1.104,0.646-1.692,1.134l-1.722-2.023
			c0.733-0.625,1.352-1.064,1.824-1.325c0.482-0.259,1.009-0.456,1.579-0.597c0.57-0.146,1.209-0.209,1.916-0.209
			c0.931,0,1.753,0.17,2.466,0.511c0.714,0.342,1.271,0.813,1.661,1.429c0.396,0.609,0.591,1.313,0.591,2.1
			c0,0.688-0.12,1.33-0.354,1.938c-0.241,0.604-0.615,1.219-1.121,1.854s-1.397,1.528-2.675,2.699l-1.916,1.807v0.146h6.481
			L414.856,269.271L414.856,269.271z"/>
		<path fill="#FFFFFF" d="M426.189,257.707c0,0.935-0.273,1.726-0.846,2.375c-0.563,0.646-1.355,1.104-2.374,1.349v0.063
			c1.202,0.146,2.112,0.518,2.73,1.098c0.608,0.58,0.928,1.363,0.928,2.349c0,1.433-0.521,2.55-1.563,3.347
			c-1.039,0.799-2.521,1.197-4.453,1.197c-1.606,0-3.05-0.268-4.3-0.805V266c0.577,0.291,1.213,0.521,1.905,0.713
			c0.693,0.184,1.379,0.271,2.059,0.271c1.039,0,1.813-0.176,2.313-0.526c0.496-0.354,0.743-0.924,0.743-1.7
			c0-0.697-0.284-1.192-0.854-1.484c-0.571-0.292-1.479-0.438-2.729-0.438h-1.137v-2.416h1.151c1.154,0,1.999-0.148,2.532-0.452
			c0.531-0.308,0.8-0.817,0.8-1.56c0-1.128-0.707-1.688-2.119-1.688c-0.489,0-0.986,0.08-1.493,0.242
			c-0.506,0.162-1.063,0.44-1.687,0.851l-1.457-2.17c1.354-0.979,2.979-1.474,4.854-1.474c1.542,0,2.77,0.313,3.653,0.938
			C425.75,255.723,426.189,256.592,426.189,257.707z"/>
		<path fill="#FFFFFF" d="M433.402,254.18c1.437,0,2.576,0.324,3.449,0.973c0.873,0.649,1.313,1.523,1.313,2.624
			c0,0.763-0.211,1.438-0.637,2.033c-0.427,0.594-1.104,1.126-2.033,1.595c1.104,0.6,1.911,1.223,2.396,1.87
			c0.486,0.647,0.729,1.36,0.729,2.136c0,1.224-0.479,2.207-1.438,2.949c-0.958,0.744-2.218,1.116-3.78,1.116
			c-1.631,0-2.901-0.347-3.842-1.039c-0.931-0.692-1.396-1.675-1.396-2.944c0-0.85,0.227-1.604,0.678-2.263
			c0.452-0.659,1.177-1.24,2.176-1.742c-0.85-0.536-1.461-1.11-1.834-1.722c-0.374-0.612-0.561-1.281-0.561-2.008
			c0-1.066,0.438-1.93,1.317-2.59C430.837,254.51,431.982,254.18,433.402,254.18z M431.086,265.308c0,0.584,0.203,1.039,0.604,1.364
			c0.407,0.326,0.964,0.488,1.671,0.488c0.781,0,1.365-0.168,1.763-0.512c0.387-0.336,0.571-0.771,0.571-1.322
			c0-0.455-0.188-0.889-0.566-1.279c-0.394-0.396-1.016-0.818-1.87-1.271C431.807,263.446,431.086,264.289,431.086,265.308z
			 M433.387,256.482c-0.537,0-0.97,0.139-1.3,0.413c-0.329,0.274-0.494,0.646-0.494,1.104c0,0.408,0.131,0.771,0.393,1.097
			c0.271,0.321,0.735,0.653,1.432,0.993c0.655-0.313,1.131-0.633,1.396-0.959c0.271-0.325,0.397-0.702,0.397-1.131
			c0-0.473-0.171-0.84-0.519-1.11C434.351,256.619,433.919,256.482,433.387,256.482z"/>
	</g>
	<g>
		<path fill="#FFFFFF" d="M414.856,153.505h-10.414v-2.191l3.739-3.781c1.107-1.134,1.831-1.92,2.171-2.359
			c0.34-0.439,0.584-0.844,0.733-1.218c0.146-0.374,0.225-0.761,0.225-1.162c0-0.598-0.165-1.042-0.494-1.335
			c-0.329-0.292-0.77-0.438-1.313-0.438c-0.577,0-1.146,0.132-1.688,0.397c-0.544,0.265-1.104,0.642-1.692,1.131l-1.722-2.028
			c0.733-0.625,1.352-1.066,1.824-1.325c0.482-0.258,1.009-0.457,1.579-0.596s1.209-0.209,1.916-0.209
			c0.931,0,1.753,0.17,2.466,0.51c0.714,0.34,1.271,0.815,1.661,1.427c0.396,0.611,0.591,1.311,0.591,2.099
			c0,0.686-0.12,1.33-0.354,1.931c-0.241,0.601-0.615,1.217-1.121,1.849s-1.397,1.532-2.675,2.701l-1.916,1.804v0.143h6.481
			L414.856,153.505L414.856,153.505z"/>
		<path fill="#FFFFFF" d="M421.774,143.988c1.44,0,2.587,0.404,3.439,1.212c0.853,0.809,1.273,1.916,1.273,3.322
			c0,1.665-0.518,2.945-1.533,3.842c-1.026,0.896-2.493,1.345-4.402,1.345c-1.658,0-2.996-0.268-4.016-0.805v-2.721
			c0.529,0.285,1.154,0.518,1.875,0.698c0.714,0.18,1.39,0.27,2.021,0.27c1.925,0,2.886-0.788,2.886-2.364
			c0-1.501-0.987-2.252-2.979-2.252c-0.36,0-0.758,0.036-1.192,0.107c-0.434,0.071-0.788,0.148-1.06,0.229l-1.254-0.672l0.561-7.592
			h8.081v2.669h-5.313l-0.275,2.925l0.354-0.071C420.65,144.036,421.169,143.988,421.774,143.988z"/>
		<path fill="#FFFFFF" d="M429.753,153.505l5.594-12.229H428v-2.649h10.688v1.977l-5.635,12.901H429.753L429.753,153.505z"/>
	</g>
	<g>
		<path fill="#87868A" d="M311.003,223.429h-14.899v-4.208c0-1.979,0.296-3.407,0.886-4.29c0.601-0.886,1.523-1.325,2.809-1.325
			c0.883,0,1.604,0.246,2.185,0.739c0.574,0.491,0.946,1.211,1.116,2.153h0.104c0.396-2.248,1.577-3.373,3.57-3.373
			c1.332,0,2.371,0.449,3.118,1.35s1.121,2.152,1.121,3.77L311.003,223.429L311.003,223.429z M302.471,221.696v-2.853
			c0-1.225-0.191-2.104-0.574-2.641c-0.383-0.537-1.021-0.813-1.938-0.813c-0.834,0-1.438,0.299-1.813,0.896
			c-0.359,0.603-0.555,1.553-0.555,2.854v2.547L302.471,221.696L302.471,221.696z M309.522,221.696v-3.106
			c0-1.193-0.229-2.104-0.688-2.715c-0.475-0.604-1.193-0.912-2.188-0.912c-0.924,0-1.604,0.313-2.038,0.938
			c-0.435,0.621-0.646,1.563-0.646,2.838v2.97L309.522,221.696L309.522,221.696z"/>
		<path fill="#87868A" d="M296.804,210.304c-0.387,0-0.671-0.087-0.851-0.265c-0.188-0.184-0.271-0.396-0.271-0.656
			c0-0.295,0.091-0.547,0.274-0.76c0.184-0.211,0.466-0.316,0.846-0.316c0.381,0,0.664,0.105,0.852,0.316
			c0.188,0.213,0.28,0.465,0.28,0.76c0,0.264-0.094,0.479-0.28,0.656C297.469,210.217,297.185,210.304,296.804,210.304z
			 M311.003,210.162h-11.169v-1.55h11.169V210.162z"/>
		<path fill="#87868A" d="M311.003,204.883h-15.859v-1.691H311L311.003,204.883L311.003,204.883z"/>
		<path fill="#87868A" d="M311.003,199.604h-15.859v-1.69H311L311.003,199.604L311.003,199.604z"/>
		<path fill="#87868A" d="M296.804,194.469c-0.387,0-0.671-0.09-0.851-0.266c-0.188-0.183-0.271-0.396-0.271-0.656
			c0-0.293,0.091-0.547,0.274-0.758c0.184-0.213,0.466-0.317,0.846-0.317c0.381,0,0.664,0.104,0.852,0.317
			c0.188,0.211,0.28,0.465,0.28,0.758c0,0.264-0.094,0.479-0.28,0.656C297.469,194.379,297.185,194.469,296.804,194.469z
			 M311.003,194.328h-11.169v-1.551h11.169V194.328z"/>
		<path fill="#87868A" d="M305.395,189.668c-1.813,0-3.229-0.455-4.247-1.36c-1.014-0.908-1.521-2.168-1.521-3.78
			c0-1.558,0.519-2.795,1.557-3.713c1.037-0.918,2.44-1.377,4.211-1.377c1.824,0,3.248,0.457,4.271,1.372
			c1.021,0.914,1.537,2.178,1.537,3.789c0,0.996-0.235,1.88-0.705,2.651c-0.479,0.771-1.146,1.367-2.021,1.787
			S306.567,189.668,305.395,189.668z M305.395,187.937c1.43,0,2.521-0.286,3.271-0.856c0.749-0.563,1.123-1.412,1.123-2.521
			s-0.372-1.951-1.118-2.524c-0.745-0.574-1.837-0.858-3.273-0.858c-1.423,0-2.504,0.284-3.243,0.858
			c-0.729,0.573-1.104,1.424-1.104,2.547c0,1.106,0.363,1.943,1.093,2.513C302.86,187.654,303.957,187.937,305.395,187.937z"/>
		<path fill="#87868A" d="M311.003,176.442h-11.169v-1.376l1.509-0.275v-0.081c-0.543-0.347-0.965-0.832-1.264-1.457
			c-0.309-0.625-0.448-1.321-0.448-2.089c0-1.346,0.324-2.357,0.973-3.037c0.649-0.68,1.688-1.02,3.113-1.02h7.286v1.692h-7.239
			c-0.913,0-1.594,0.207-2.043,0.621c-0.449,0.415-0.674,1.063-0.674,1.946c0,1.169,0.313,2.024,0.95,2.568
			c0.633,0.543,1.678,0.815,3.135,0.815h5.871V176.442z"/>
		<path fill="#87868A" d="M309.262,158.713h-1.595c0.251-0.563,0.457-1.214,0.616-1.951c0.15-0.737,0.229-1.408,0.229-2.013h-4.479
			c-0.441,1.393-0.954,2.369-1.539,2.93c-0.584,0.561-1.341,0.841-2.271,0.841c-0.89,0-1.616-0.345-2.188-1.034
			c-0.57-0.689-0.917-1.602-1.039-2.736h-1.854v-1.335h1.834c0.034-1.246,0.285-2.448,0.762-3.607l1.337,0.53
			c-0.4,1.009-0.646,2.035-0.723,3.077h4.433c0.339-1.063,0.671-1.859,0.983-2.389c0.322-0.528,0.693-0.918,1.11-1.169
			c0.418-0.25,0.926-0.376,1.521-0.376c0.927,0,1.688,0.346,2.291,1.037c0.604,0.691,0.979,1.656,1.146,2.896h2.354v1.335h-2.267
			c0,0.761-0.063,1.498-0.18,2.212C309.64,157.675,309.474,158.259,309.262,158.713z M300.228,156.789
			c0.521,0,0.938-0.152,1.243-0.456c0.313-0.304,0.608-0.831,0.887-1.582h-3.938c0.104,0.669,0.313,1.177,0.637,1.521
			C299.373,156.617,299.76,156.789,300.228,156.789z M308.423,153.416c-0.204-1.467-0.829-2.201-1.875-2.201
			c-0.489,0-0.885,0.15-1.188,0.452c-0.302,0.301-0.603,0.884-0.896,1.749H308.423z"/>
	</g>
	
		<line fill="none" stroke="#666666" stroke-width="0.5" stroke-miterlimit="10" x1="341.833" y1="82.724" x2="341.833" y2="330.754"/>
	
		<line fill="none" stroke="#666666" stroke-width="0.5" stroke-miterlimit="10" x1="472.544" y1="330.754" x2="328.106" y2="330.754"/>
	
		<line fill="none" stroke="#666666" stroke-width="0.5" stroke-miterlimit="10" x1="472.544" y1="82.724" x2="328.106" y2="82.724"/>
</g>
<g>
	<g>
		<rect x="97.476" y="374.145" fill="#DD9B2B" width="17.803" height="17.801"/>
		<g>
			<path fill="#5B5B5F" d="M128.716,386.846c-0.448,0.225-1.345,0.447-2.493,0.447c-2.661,0-4.665-1.683-4.665-4.775
				c0-2.955,2.004-4.958,4.934-4.958c1.177,0,1.919,0.252,2.238,0.42l-0.294,0.993c-0.462-0.223-1.119-0.394-1.902-0.394
				c-2.215,0-3.687,1.414-3.687,3.896c0,2.312,1.331,3.796,3.628,3.796c0.742,0,1.499-0.153,1.989-0.393L128.716,386.846z"/>
			<path fill="#5B5B5F" d="M136.177,383.709c0,2.508-1.737,3.603-3.376,3.603c-1.835,0-3.25-1.347-3.25-3.488
				c0-2.271,1.484-3.603,3.362-3.603C134.86,380.221,136.177,381.635,136.177,383.709z M130.799,383.778
				c0,1.485,0.854,2.604,2.059,2.604c1.18,0,2.063-1.105,2.063-2.633c0-1.148-0.574-2.604-2.031-2.604
				S130.799,382.49,130.799,383.778z"/>
			<path fill="#5B5B5F" d="M137.56,385.894c0.364,0.237,1.009,0.489,1.625,0.489c0.896,0,1.316-0.447,1.316-1.008
				c0-0.591-0.353-0.91-1.261-1.246c-1.222-0.438-1.794-1.106-1.794-1.92c0-1.095,0.884-1.988,2.341-1.988
				c0.686,0,1.288,0.195,1.667,0.42l-0.312,0.896c-0.267-0.168-0.757-0.392-1.387-0.392c-0.729,0-1.135,0.42-1.135,0.924
				c0,0.561,0.403,0.813,1.289,1.148c1.177,0.445,1.775,1.037,1.775,2.045c0,1.188-0.924,2.031-2.534,2.031
				c-0.74,0-1.43-0.185-1.903-0.465L137.56,385.894z"/>
			<path fill="#5B5B5F" d="M144.758,378.428v1.947h1.765v0.938h-1.765v3.654c0,0.842,0.237,1.315,0.924,1.315
				c0.322,0,0.563-0.042,0.715-0.084l0.059,0.927c-0.238,0.098-0.616,0.168-1.096,0.168c-0.571,0-1.033-0.185-1.327-0.521
				c-0.354-0.364-0.479-0.97-0.479-1.769v-3.694h-1.051v-0.938h1.051v-1.625L144.758,378.428z"/>
			<path fill="#5B5B5F" d="M150.874,382.211c0-0.701-0.017-1.273-0.059-1.836h1.096l0.066,1.12h0.028
				c0.336-0.645,1.12-1.274,2.241-1.274c0.938,0,2.396,0.563,2.396,2.889v4.048h-1.23v-3.907c0-1.094-0.405-2.004-1.568-2.004
				c-0.813,0-1.442,0.574-1.653,1.264c-0.056,0.151-0.084,0.361-0.084,0.571v4.076h-1.229L150.874,382.211L150.874,382.211z"/>
			<path fill="#5B5B5F" d="M164.779,383.709c0,2.508-1.734,3.603-3.375,3.603c-1.836,0-3.25-1.347-3.25-3.488
				c0-2.271,1.483-3.603,3.361-3.603C163.462,380.221,164.779,381.635,164.779,383.709z M159.4,383.778
				c0,1.485,0.854,2.604,2.062,2.604c1.177,0,2.06-1.105,2.06-2.633c0-1.148-0.571-2.604-2.028-2.604S159.4,382.49,159.4,383.778z"
				/>
			<path fill="#5B5B5F" d="M166.331,382.211c0-0.701-0.017-1.273-0.059-1.836h1.096l0.066,1.12h0.028
				c0.336-0.645,1.12-1.274,2.241-1.274c0.938,0,2.396,0.563,2.396,2.889v4.048h-1.23v-3.907c0-1.094-0.406-2.004-1.568-2.004
				c-0.813,0-1.442,0.574-1.653,1.264c-0.056,0.151-0.084,0.361-0.084,0.571v4.076h-1.229L166.331,382.211L166.331,382.211z"/>
			<path fill="#5B5B5F" d="M176.957,382.91v0.91h-3.46v-0.91H176.957z"/>
			<path fill="#5B5B5F" d="M178.523,387.154v-5.841h-0.949v-0.938h0.949v-0.322c0-0.95,0.21-1.818,0.784-2.364
				c0.463-0.448,1.079-0.634,1.653-0.634c0.435,0,0.813,0.102,1.051,0.197l-0.168,0.951c-0.183-0.084-0.435-0.152-0.785-0.152
				c-1.05,0-1.313,0.926-1.313,1.961v0.363h1.639v0.938h-1.639v5.841H178.523L178.523,387.154z"/>
			<path fill="#5B5B5F" d="M186.242,387.154l-0.101-0.854h-0.042c-0.378,0.529-1.104,1.009-2.072,1.009
				c-1.372,0-2.071-0.968-2.071-1.947c0-1.64,1.457-2.535,4.074-2.521v-0.143c0-0.563-0.152-1.566-1.541-1.566
				c-0.631,0-1.286,0.193-1.766,0.504l-0.28-0.813c0.563-0.362,1.373-0.604,2.229-0.604c2.073,0,2.577,1.416,2.577,2.773v2.535
				c0,0.589,0.025,1.163,0.109,1.625h-1.118L186.242,387.154L186.242,387.154z M186.057,383.694
				c-1.345-0.028-2.872,0.21-2.872,1.526c0,0.799,0.532,1.177,1.163,1.177c0.882,0,1.442-0.56,1.642-1.134
				c0.041-0.127,0.067-0.27,0.067-0.396V383.694z"/>
			<path fill="#5B5B5F" d="M190.664,378.428v1.947h1.765v0.938h-1.765v3.654c0,0.842,0.234,1.315,0.924,1.315
				c0.322,0,0.561-0.042,0.715-0.084l0.057,0.927c-0.236,0.098-0.614,0.168-1.094,0.168c-0.574,0-1.036-0.185-1.33-0.521
				c-0.351-0.364-0.477-0.97-0.477-1.769v-3.694h-1.051v-0.938h1.051v-1.625L190.664,378.428z"/>
			<path fill="#5B5B5F" d="M197.565,387.154l-0.098-0.854h-0.042c-0.378,0.529-1.106,1.009-2.073,1.009
				c-1.373,0-2.073-0.968-2.073-1.947c0-1.64,1.457-2.535,4.076-2.521v-0.143c0-0.563-0.151-1.566-1.541-1.566
				c-0.63,0-1.288,0.193-1.765,0.504l-0.28-0.813c0.563-0.362,1.373-0.604,2.229-0.604c2.07,0,2.577,1.416,2.577,2.773v2.535
				c0,0.589,0.025,1.163,0.109,1.625h-1.121L197.565,387.154L197.565,387.154z M197.384,383.694
				c-1.345-0.028-2.872,0.21-2.872,1.526c0,0.799,0.532,1.177,1.163,1.177c0.882,0,1.442-0.56,1.639-1.134
				c0.042-0.127,0.07-0.27,0.07-0.396V383.694z"/>
			<path fill="#5B5B5F" d="M200.559,377.209h1.232v9.945h-1.232V377.209z"/>
			<path fill="#5B5B5F" d="M211.664,386.902c-0.322,0.168-1.037,0.393-1.947,0.393c-2.045,0-3.376-1.388-3.376-3.459
				c0-2.089,1.429-3.602,3.642-3.602c0.729,0,1.373,0.184,1.709,0.352l-0.277,0.951c-0.294-0.168-0.756-0.322-1.432-0.322
				c-1.555,0-2.395,1.148-2.395,2.563c0,1.569,1.008,2.535,2.353,2.535c0.701,0,1.163-0.183,1.517-0.336L211.664,386.902z"/>
			<path fill="#5B5B5F" d="M216.856,387.154l-0.098-0.854h-0.042c-0.378,0.529-1.106,1.009-2.073,1.009
				c-1.373,0-2.073-0.968-2.073-1.947c0-1.64,1.457-2.535,4.076-2.521v-0.143c0-0.563-0.151-1.566-1.541-1.566
				c-0.63,0-1.288,0.193-1.765,0.504l-0.28-0.813c0.563-0.362,1.373-0.604,2.229-0.604c2.07,0,2.577,1.416,2.577,2.773v2.535
				c0,0.589,0.025,1.163,0.109,1.625h-1.121L216.856,387.154L216.856,387.154z M216.675,383.694
				c-1.345-0.028-2.872,0.21-2.872,1.526c0,0.799,0.532,1.177,1.163,1.177c0.882,0,1.442-0.56,1.639-1.134
				c0.042-0.127,0.07-0.27,0.07-0.396V383.694z"/>
			<path fill="#5B5B5F" d="M219.682,385.894c0.364,0.237,1.009,0.489,1.625,0.489c0.896,0,1.316-0.447,1.316-1.008
				c0-0.591-0.353-0.91-1.261-1.246c-1.222-0.438-1.796-1.106-1.796-1.92c0-1.095,0.886-1.988,2.343-1.988
				c0.686,0,1.288,0.195,1.667,0.42l-0.312,0.896c-0.267-0.168-0.757-0.392-1.387-0.392c-0.729,0-1.135,0.42-1.135,0.924
				c0,0.561,0.403,0.813,1.289,1.148c1.177,0.445,1.775,1.037,1.775,2.045c0,1.188-0.924,2.031-2.535,2.031
				c-0.739,0-1.429-0.185-1.902-0.465L219.682,385.894z"/>
			<path fill="#5B5B5F" d="M226.081,383.988c0.025,1.667,1.093,2.354,2.325,2.354c0.883,0,1.414-0.151,1.877-0.351l0.21,0.884
				c-0.437,0.195-1.18,0.42-2.255,0.42c-2.09,0-3.334-1.373-3.334-3.418c0-2.046,1.205-3.656,3.18-3.656
				c2.213,0,2.802,1.947,2.802,3.193c0,0.252-0.028,0.448-0.042,0.574H226.081L226.081,383.988z M229.695,383.106
				c0.017-0.785-0.319-2.004-1.709-2.004c-1.244,0-1.793,1.149-1.892,2.004H229.695z"/>
			<path fill="#5B5B5F" d="M232.243,385.894c0.361,0.237,1.009,0.489,1.625,0.489c0.896,0,1.313-0.447,1.313-1.008
				c0-0.591-0.35-0.91-1.261-1.246c-1.219-0.438-1.793-1.106-1.793-1.92c0-1.095,0.883-1.988,2.34-1.988
				c0.688,0,1.288,0.195,1.667,0.42l-0.309,0.896c-0.27-0.168-0.76-0.392-1.39-0.392c-0.729,0-1.135,0.42-1.135,0.924
				c0,0.561,0.406,0.813,1.289,1.148c1.177,0.445,1.778,1.037,1.778,2.045c0,1.188-0.926,2.031-2.535,2.031
				c-0.742,0-1.43-0.185-1.905-0.465L232.243,385.894z"/>
		</g>
	</g>
	<g>
		<rect x="298.421" y="373.979" fill="#199598" width="17.803" height="17.803"/>
		<g>
			<path fill="#5B5B5F" d="M329.66,386.682c-0.448,0.226-1.345,0.448-2.493,0.448c-2.661,0-4.665-1.682-4.665-4.776
				c0-2.955,2.004-4.958,4.934-4.958c1.177,0,1.919,0.252,2.238,0.42l-0.294,0.994c-0.462-0.225-1.119-0.393-1.902-0.393
				c-2.215,0-3.687,1.414-3.687,3.895c0,2.313,1.331,3.796,3.628,3.796c0.742,0,1.499-0.153,1.989-0.392L329.66,386.682z"/>
			<path fill="#5B5B5F" d="M337.122,383.544c0,2.508-1.737,3.601-3.376,3.601c-1.835,0-3.25-1.345-3.25-3.487
				c0-2.27,1.484-3.601,3.362-3.601C335.804,380.057,337.122,381.472,337.122,383.544z M331.743,383.614
				c0,1.485,0.854,2.605,2.059,2.605c1.18,0,2.063-1.105,2.063-2.635c0-1.147-0.574-2.604-2.031-2.604
				S331.743,382.327,331.743,383.614z"/>
			<path fill="#5B5B5F" d="M338.505,385.729c0.364,0.238,1.009,0.49,1.625,0.49c0.896,0,1.316-0.448,1.316-1.01
				c0-0.588-0.353-0.909-1.261-1.245c-1.222-0.435-1.794-1.106-1.794-1.919c0-1.094,0.884-1.989,2.341-1.989
				c0.686,0,1.289,0.196,1.668,0.42l-0.313,0.896c-0.266-0.168-0.757-0.392-1.387-0.392c-0.729,0-1.135,0.42-1.135,0.925
				c0,0.563,0.403,0.813,1.289,1.147c1.178,0.448,1.775,1.037,1.775,2.046c0,1.189-0.924,2.029-2.534,2.029
				c-0.74,0-1.43-0.182-1.903-0.461L338.505,385.729z"/>
			<path fill="#5B5B5F" d="M345.703,378.264v1.946h1.764v0.938h-1.764v3.655c0,0.841,0.236,1.315,0.924,1.315
				c0.322,0,0.563-0.041,0.715-0.084l0.059,0.924c-0.238,0.101-0.617,0.17-1.096,0.17c-0.572,0-1.033-0.185-1.328-0.521
				c-0.354-0.362-0.479-0.967-0.479-1.766v-3.697h-1.051v-0.938h1.051v-1.625L345.703,378.264z"/>
			<path fill="#5B5B5F" d="M351.945,386.991v-5.842h-0.953v-0.938h0.953v-0.322c0-0.953,0.209-1.821,0.783-2.367
				c0.463-0.447,1.08-0.631,1.65-0.631c0.438,0,0.814,0.1,1.055,0.196l-0.17,0.952c-0.184-0.084-0.436-0.153-0.783-0.153
				c-1.053,0-1.316,0.924-1.316,1.961v0.364h1.639v0.938h-1.639v5.842H351.945L351.945,386.991z"/>
			<path fill="#5B5B5F" d="M359.66,386.991l-0.098-0.854h-0.041c-0.379,0.531-1.107,1.009-2.074,1.009
				c-1.373,0-2.072-0.967-2.072-1.946c0-1.64,1.457-2.535,4.076-2.521v-0.142c0-0.562-0.154-1.567-1.541-1.567
				c-0.631,0-1.289,0.194-1.766,0.505l-0.279-0.813c0.561-0.363,1.373-0.604,2.227-0.604c2.074,0,2.578,1.415,2.578,2.772v2.535
				c0,0.588,0.027,1.161,0.111,1.625H359.66L359.66,386.991z M359.482,383.53c-1.348-0.025-2.873,0.211-2.873,1.527
				c0,0.798,0.531,1.176,1.164,1.176c0.881,0,1.439-0.56,1.639-1.134c0.041-0.126,0.07-0.267,0.07-0.394V383.53z"/>
			<path fill="#5B5B5F" d="M364.084,378.264v1.946h1.766v0.938h-1.766v3.655c0,0.841,0.236,1.315,0.924,1.315
				c0.322,0,0.563-0.041,0.715-0.084l0.059,0.924c-0.238,0.101-0.617,0.17-1.094,0.17c-0.574,0-1.035-0.185-1.33-0.521
				c-0.354-0.362-0.479-0.967-0.479-1.766v-3.697h-1.051v-0.938h1.051v-1.625L364.084,378.264z"/>
			<path fill="#5B5B5F" d="M370.986,386.991l-0.102-0.854h-0.041c-0.379,0.531-1.104,1.009-2.07,1.009
				c-1.373,0-2.074-0.967-2.074-1.946c0-1.64,1.457-2.535,4.076-2.521v-0.142c0-0.562-0.154-1.567-1.541-1.567
				c-0.629,0-1.287,0.194-1.768,0.505l-0.277-0.813c0.561-0.363,1.373-0.604,2.229-0.604c2.072,0,2.576,1.415,2.576,2.772v2.535
				c0,0.588,0.029,1.161,0.113,1.625H370.986L370.986,386.991z M370.804,383.53c-1.346-0.025-2.869,0.211-2.869,1.527
				c0,0.798,0.529,1.176,1.16,1.176c0.885,0,1.441-0.56,1.641-1.134c0.043-0.126,0.068-0.267,0.068-0.394V383.53z"/>
			<path fill="#5B5B5F" d="M373.983,377.044h1.229v9.945h-1.229V377.044z"/>
			<path fill="#5B5B5F" d="M385.085,386.739c-0.322,0.168-1.037,0.394-1.947,0.394c-2.045,0-3.375-1.39-3.375-3.459
				c0-2.091,1.432-3.603,3.645-3.603c0.729,0,1.373,0.185,1.709,0.353l-0.281,0.95c-0.293-0.168-0.756-0.32-1.428-0.32
				c-1.559,0-2.396,1.146-2.396,2.563c0,1.568,1.008,2.534,2.354,2.534c0.701,0,1.164-0.182,1.514-0.336L385.085,386.739z"/>
			<path fill="#5B5B5F" d="M390.278,386.991l-0.102-0.854h-0.041c-0.379,0.531-1.104,1.009-2.07,1.009
				c-1.373,0-2.074-0.967-2.074-1.946c0-1.64,1.457-2.535,4.076-2.521v-0.142c0-0.562-0.154-1.567-1.541-1.567
				c-0.629,0-1.287,0.194-1.768,0.505l-0.277-0.813c0.561-0.363,1.373-0.604,2.229-0.604c2.072,0,2.576,1.415,2.576,2.772v2.535
				c0,0.588,0.029,1.161,0.113,1.625H390.278L390.278,386.991z M390.096,383.53c-1.346-0.025-2.873,0.211-2.873,1.527
				c0,0.798,0.533,1.176,1.164,1.176c0.885,0,1.441-0.56,1.641-1.134c0.043-0.126,0.068-0.267,0.068-0.394V383.53z"/>
			<path fill="#5B5B5F" d="M393.106,385.729c0.361,0.238,1.01,0.49,1.625,0.49c0.896,0,1.314-0.448,1.314-1.01
				c0-0.588-0.35-0.909-1.262-1.245c-1.219-0.435-1.793-1.106-1.793-1.919c0-1.094,0.883-1.989,2.34-1.989
				c0.688,0,1.289,0.196,1.668,0.42l-0.309,0.896c-0.27-0.168-0.76-0.392-1.391-0.392c-0.729,0-1.135,0.42-1.135,0.925
				c0,0.563,0.406,0.813,1.289,1.147c1.178,0.448,1.779,1.037,1.779,2.046c0,1.189-0.926,2.029-2.535,2.029
				c-0.742,0-1.43-0.182-1.906-0.461L393.106,385.729z"/>
			<path fill="#5B5B5F" d="M399.503,383.825c0.027,1.666,1.092,2.354,2.324,2.354c0.883,0,1.416-0.154,1.877-0.353l0.211,0.883
				c-0.434,0.197-1.178,0.422-2.256,0.422c-2.086,0-3.334-1.372-3.334-3.417c0-2.048,1.205-3.656,3.18-3.656
				c2.213,0,2.805,1.947,2.805,3.192c0,0.252-0.027,0.447-0.041,0.574H399.503L399.503,383.825z M403.116,382.942
				c0.014-0.785-0.322-2.004-1.709-2.004c-1.246,0-1.793,1.149-1.893,2.004H403.116z"/>
			<path fill="#5B5B5F" d="M405.661,385.729c0.365,0.238,1.01,0.49,1.625,0.49c0.896,0,1.316-0.448,1.316-1.01
				c0-0.588-0.352-0.909-1.264-1.245c-1.219-0.435-1.793-1.106-1.793-1.919c0-1.094,0.883-1.989,2.34-1.989
				c0.689,0,1.289,0.196,1.668,0.42l-0.309,0.896c-0.27-0.168-0.758-0.392-1.387-0.392c-0.73,0-1.139,0.42-1.139,0.925
				c0,0.563,0.406,0.813,1.289,1.147c1.18,0.448,1.779,1.037,1.779,2.046c0,1.189-0.924,2.029-2.535,2.029
				c-0.742,0-1.43-0.182-1.906-0.461L405.661,385.729z"/>
		</g>
	</g>
</g>
<g>
	<path fill="#666565" d="M50.115,36.399c0-1.549,0.313-2.906,0.937-4.071s1.521-2.055,2.688-2.67
		c1.168-0.615,2.533-0.922,4.104-0.922c1.59,0,3.065,0.292,4.438,0.876l-0.672,1.529c-1.35-0.571-2.645-0.856-3.888-0.856
		c-1.813,0-3.229,0.54-4.249,1.62c-1.021,1.08-1.524,2.578-1.524,4.494c0,2.018,0.491,3.548,1.478,4.591
		c0.979,1.043,2.423,1.564,4.321,1.564c1.033,0,2.042-0.12,3.026-0.358v-4.604h-3.332v-1.549h5.063v7.255
		c-0.788,0.248-1.595,0.436-2.405,0.563c-0.813,0.127-1.76,0.191-2.833,0.191c-2.255,0-4.012-0.67-5.271-2.012
		C50.742,40.698,50.115,38.818,50.115,36.399z"/>
	<path fill="#666565" d="M65.828,43.849V27.993h1.688v15.856H65.828z"/>
	<path fill="#666565" d="M70.486,38.245c0-1.817,0.454-3.233,1.356-4.247c0.903-1.014,2.167-1.521,3.775-1.521
		c1.563,0,2.795,0.519,3.718,1.556c0.917,1.038,1.376,2.441,1.376,4.211c0,1.824-0.457,3.248-1.372,4.272s-2.183,1.536-3.79,1.536
		c-0.996,0-1.88-0.234-2.647-0.704c-0.771-0.47-1.368-1.144-1.788-2.021S70.486,39.421,70.486,38.245z M72.218,38.245
		c0,1.43,0.286,2.52,0.854,3.269c0.572,0.749,1.412,1.124,2.521,1.124c1.104,0,1.951-0.373,2.521-1.119
		c0.575-0.746,0.862-1.837,0.862-3.273c0-1.423-0.288-2.504-0.862-3.243c-0.569-0.739-1.424-1.108-2.546-1.108
		c-1.104,0-1.941,0.364-2.51,1.093C72.499,35.714,72.218,36.801,72.218,38.245z"/>
	<path fill="#666565" d="M83.713,43.849V27.993h1.688v3.852c0,0.863-0.022,1.637-0.082,2.323h0.082
		c0.788-1.114,1.957-1.671,3.506-1.671c1.46,0,2.6,0.501,3.398,1.503c0.813,1.002,1.217,2.42,1.217,4.254s-0.407,3.259-1.227,4.274
		c-0.813,1.016-1.941,1.523-3.396,1.523c-0.729,0-1.396-0.134-1.992-0.402c-0.604-0.268-1.104-0.681-1.514-1.238h-0.111
		l-0.354,1.437L83.713,43.849L83.713,43.849z M85.404,38.254c0,1.569,0.262,2.692,0.785,3.368c0.521,0.676,1.357,1.014,2.517,1.014
		c1.04,0,1.813-0.379,2.323-1.136c0.51-0.758,0.77-1.846,0.77-3.266c0-1.454-0.26-2.538-0.77-3.251
		c-0.514-0.713-1.297-1.07-2.364-1.07c-1.15,0-1.982,0.331-2.492,0.994C85.658,35.568,85.404,36.686,85.404,38.254z"/>
	<path fill="#666565" d="M95.665,40.772c0-2.25,1.811-3.429,5.423-3.537l1.896-0.062v-0.702c0-0.887-0.188-1.542-0.563-1.965
		c-0.381-0.423-0.979-0.634-1.811-0.634c-0.934,0-1.979,0.289-3.148,0.866l-0.526-1.298c0.555-0.294,1.153-0.525,1.813-0.692
		c0.66-0.167,1.313-0.251,1.977-0.251c1.33,0,2.313,0.295,2.957,0.887c0.644,0.591,0.962,1.539,0.962,2.843v7.622h-1.26
		l-0.336-1.571h-0.082c-0.561,0.693-1.11,1.162-1.663,1.407c-0.557,0.246-1.242,0.368-2.067,0.368c-1.109,0-1.979-0.284-2.614-0.853
		C95.981,42.63,95.665,41.821,95.665,40.772z M97.459,40.792c0,0.615,0.185,1.082,0.554,1.403c0.37,0.321,0.892,0.481,1.556,0.481
		c1.051,0,1.876-0.29,2.479-0.87c0.6-0.581,0.896-1.393,0.896-2.437v-1.014l-1.688,0.071c-1.348,0.048-2.313,0.258-2.904,0.63
		C97.76,39.429,97.459,40.007,97.459,40.792z"/>
	<path fill="#666565" d="M108.108,43.849V27.993h1.688v15.856H108.108z"/>
	<path fill="#666565" d="M118.186,38.355c0-1.8,0.442-3.23,1.326-4.29s2.066-1.589,3.563-1.589c1.396,0,2.498,0.46,3.313,1.38
		c0.813,0.921,1.222,2.135,1.222,3.643v1.07h-7.687c0.029,1.311,0.361,2.306,0.99,2.985c0.634,0.68,1.521,1.019,2.659,1.019
		c1.199,0,2.389-0.251,3.561-0.754v1.508c-0.601,0.258-1.16,0.443-1.689,0.555c-0.53,0.112-1.176,0.168-1.928,0.168
		c-1.646,0-2.941-0.502-3.896-1.508C118.661,41.54,118.186,40.144,118.186,38.355z M119.959,37.194h5.849
		c0-1.066-0.233-1.883-0.714-2.451c-0.479-0.567-1.157-0.851-2.042-0.851c-0.896,0-1.615,0.292-2.146,0.876
		C120.368,35.354,120.054,36.162,119.959,37.194z"/>
	<path fill="#666565" d="M129.803,35.424c0-0.911,0.37-1.63,1.104-2.158c0.74-0.527,1.754-0.791,3.044-0.791
		c1.195,0,2.363,0.244,3.509,0.733l-0.595,1.377c-1.112-0.463-2.13-0.695-3.037-0.695c-0.803,0-1.404,0.126-1.813,0.378
		c-0.403,0.251-0.607,0.599-0.607,1.042c0,0.3,0.076,0.555,0.229,0.766c0.148,0.211,0.396,0.412,0.741,0.603
		c0.34,0.191,0.989,0.467,1.96,0.828c1.319,0.483,2.215,0.97,2.671,1.46c0.457,0.49,0.688,1.104,0.688,1.849
		c0,1.034-0.39,1.832-1.15,2.393c-0.771,0.561-1.854,0.841-3.243,0.841c-1.479,0-2.631-0.23-3.458-0.693v-1.559
		c0.536,0.272,1.105,0.487,1.726,0.644c0.612,0.157,1.204,0.235,1.773,0.235c0.885,0,1.563-0.141,2.042-0.424
		c0.479-0.283,0.715-0.713,0.715-1.292c0-0.436-0.188-0.809-0.563-1.119c-0.379-0.31-1.11-0.676-2.212-1.098
		c-1.042-0.388-1.775-0.727-2.221-1.017c-0.438-0.29-0.76-0.618-0.974-0.986C129.908,36.375,129.803,35.936,129.803,35.424z"/>
	<path fill="#666565" d="M138.993,33.995V33.18l1.604-0.703l0.713-2.385h0.979v2.588h3.24v1.314h-3.24v6.588
		c0,0.674,0.16,1.191,0.479,1.552c0.319,0.361,0.762,0.542,1.313,0.542c0.304,0,0.59-0.022,0.866-0.066
		c0.273-0.044,0.499-0.09,0.662-0.138v1.278c-0.188,0.087-0.453,0.159-0.813,0.216c-0.354,0.057-0.683,0.085-0.968,0.085
		c-2.155,0-3.236-1.138-3.236-3.414v-6.644h-1.604L138.993,33.995L138.993,33.995z"/>
	<path fill="#666565" d="M147.697,29.653c0-0.387,0.087-0.671,0.268-0.851c0.175-0.18,0.395-0.27,0.653-0.27
		c0.293,0,0.545,0.092,0.763,0.275c0.212,0.184,0.313,0.466,0.313,0.846c0,0.38-0.104,0.664-0.313,0.851
		c-0.217,0.187-0.47,0.28-0.763,0.28c-0.268,0-0.479-0.093-0.653-0.28C147.783,30.317,147.697,30.035,147.697,29.653z
		 M147.84,43.849V32.681h1.549v11.168H147.84z"/>
	<path fill="#666565" d="M153.117,43.849V32.681h1.375l0.271,1.509h0.082c0.314-0.537,0.771-0.957,1.354-1.259
		c0.581-0.302,1.229-0.453,1.952-0.453c1.746,0,2.887,0.625,3.424,1.876h0.082c0.333-0.579,0.813-1.036,1.442-1.372
		c0.637-0.336,1.354-0.504,2.161-0.504c1.268,0,2.209,0.324,2.838,0.973c0.633,0.648,0.938,1.687,0.938,3.113v7.286h-1.688v-7.281
		c0-0.892-0.188-1.561-0.566-2.006s-0.977-0.669-1.771-0.669c-1.058,0-1.831,0.303-2.333,0.909
		c-0.503,0.605-0.754,1.538-0.754,2.798v6.249h-1.688v-7.281c0-0.892-0.188-1.561-0.568-2.006c-0.384-0.445-0.979-0.669-1.781-0.669
		c-1.063,0-1.836,0.318-2.329,0.955c-0.492,0.637-0.736,1.68-0.736,3.13v5.871L153.117,43.849L153.117,43.849z"/>
	<path fill="#666565" d="M171.695,40.772c0-2.25,1.811-3.429,5.418-3.537l1.896-0.062v-0.702c0-0.887-0.188-1.542-0.563-1.965
		c-0.376-0.423-0.979-0.634-1.811-0.634c-0.934,0-1.979,0.289-3.148,0.866l-0.521-1.298c0.55-0.294,1.148-0.525,1.809-0.692
		s1.313-0.251,1.978-0.251c1.329,0,2.313,0.295,2.956,0.887c0.646,0.591,0.966,1.539,0.966,2.843v7.622h-1.257l-0.336-1.571h-0.082
		c-0.561,0.693-1.105,1.162-1.66,1.407c-0.555,0.246-1.24,0.368-2.068,0.368c-1.108,0-1.979-0.284-2.616-0.853
		C172.011,42.63,171.695,41.821,171.695,40.772z M173.489,40.792c0,0.615,0.188,1.082,0.559,1.403
		c0.365,0.321,0.887,0.481,1.551,0.481c1.051,0,1.876-0.29,2.479-0.87c0.604-0.581,0.896-1.393,0.896-2.437v-1.014l-1.688,0.071
		c-1.344,0.048-2.313,0.258-2.899,0.63C173.785,39.429,173.489,40.007,173.489,40.792z"/>
	<path fill="#666565" d="M182.658,33.995V33.18l1.604-0.703l0.713-2.385h0.979v2.588h3.24v1.314h-3.24v6.588
		c0,0.674,0.16,1.191,0.479,1.552c0.314,0.361,0.757,0.542,1.313,0.542c0.304,0,0.588-0.022,0.866-0.066
		c0.273-0.044,0.499-0.09,0.662-0.138v1.278c-0.188,0.087-0.453,0.159-0.813,0.216c-0.354,0.057-0.683,0.085-0.968,0.085
		c-2.155,0-3.236-1.138-3.236-3.414v-6.644h-1.604L182.658,33.995L182.658,33.995z"/>
	<path fill="#666565" d="M190.883,38.355c0-1.8,0.438-3.23,1.326-4.29c0.884-1.06,2.066-1.589,3.561-1.589
		c1.396,0,2.498,0.46,3.313,1.38c0.813,0.921,1.224,2.135,1.224,3.643v1.07h-7.688c0.034,1.311,0.366,2.306,0.995,2.985
		c0.629,0.68,1.521,1.019,2.654,1.019c1.199,0,2.389-0.251,3.561-0.754v1.508c-0.601,0.258-1.155,0.443-1.688,0.555
		c-0.532,0.112-1.173,0.168-1.925,0.168c-1.646,0-2.946-0.502-3.898-1.508C191.359,41.54,190.883,40.144,190.883,38.355z
		 M192.656,37.194h5.854c0-1.066-0.238-1.883-0.719-2.451c-0.479-0.567-1.152-0.851-2.042-0.851c-0.896,0-1.61,0.292-2.146,0.876
		C193.066,35.354,192.751,36.162,192.656,37.194z"/>
	<path fill="#666565" d="M202.499,35.424c0-0.911,0.37-1.63,1.109-2.158c0.735-0.527,1.754-0.791,3.044-0.791
		c1.19,0,2.358,0.244,3.504,0.733l-0.59,1.377c-1.117-0.463-2.135-0.695-3.037-0.695c-0.808,0-1.409,0.126-1.813,0.378
		c-0.408,0.251-0.612,0.599-0.612,1.042c0,0.3,0.077,0.555,0.229,0.766c0.153,0.211,0.396,0.412,0.741,0.603
		c0.34,0.191,0.994,0.467,1.96,0.828c1.319,0.483,2.215,0.97,2.671,1.46c0.457,0.49,0.688,1.104,0.688,1.849
		c0,1.034-0.385,1.832-1.15,2.393c-0.771,0.561-1.854,0.841-3.242,0.841c-1.479,0-2.632-0.23-3.457-0.693v-1.559
		c0.534,0.272,1.104,0.487,1.727,0.644c0.613,0.157,1.206,0.235,1.771,0.235c0.889,0,1.563-0.141,2.043-0.424
		c0.479-0.283,0.718-0.713,0.718-1.292c0-0.436-0.189-0.809-0.567-1.119c-0.378-0.31-1.11-0.676-2.211-1.098
		c-1.042-0.388-1.779-0.727-2.217-1.017c-0.438-0.29-0.763-0.618-0.979-0.986C202.606,36.375,202.499,35.936,202.499,35.424z"/>
</g>
<g>
	<path fill="#666565" d="M320.597,43.848V28.95h8.306v1.549h-6.563v4.769h6.176v1.549h-6.176v5.482h6.563v1.549H320.597z"/>
	<path fill="#666565" d="M332.052,38.548V28.95h1.732v9.736c0,1.245,0.34,2.201,1.019,2.868c0.68,0.667,1.678,1,2.996,1
		c1.257,0,2.225-0.335,2.904-1.005c0.68-0.67,1.019-1.631,1.019-2.883v-9.715h1.732v9.64c0,1.699-0.521,3.034-1.538,4.005
		c-1.026,0.972-2.438,1.457-4.229,1.457s-3.181-0.489-4.162-1.467C332.544,41.605,332.052,40.261,332.052,38.548z"/>
	<path fill="#666565" d="M346.373,43.848V42.41l3.924-3.959c1.188-1.214,1.979-2.08,2.354-2.599c0.39-0.518,0.665-1.023,0.855-1.514
		c0.188-0.491,0.285-1.02,0.285-1.586c0-0.798-0.241-1.431-0.729-1.898c-0.479-0.467-1.146-0.701-2.008-0.701
		c-0.618,0-1.204,0.103-1.758,0.307s-1.17,0.577-1.854,1.115l-0.896-1.156c1.372-1.122,2.866-1.683,4.479-1.683
		c1.396,0,2.497,0.357,3.291,1.07c0.797,0.713,1.188,1.671,1.188,2.875c0,0.948-0.266,1.886-0.795,2.814
		c-0.527,0.928-1.521,2.102-2.979,3.521l-3.265,3.203v0.082h7.662v1.549h-9.79v-0.002H346.373z"/>
	<path fill="#666565" d="M358.344,40.046c0-1.705,1.046-3.033,3.137-3.984c-0.946-0.53-1.627-1.103-2.039-1.717
		c-0.412-0.614-0.618-1.303-0.618-2.063c0-1.08,0.401-1.941,1.204-2.583c0.813-0.642,1.877-0.963,3.229-0.963
		c1.354,0,2.438,0.316,3.241,0.948c0.798,0.632,1.188,1.505,1.188,2.619c0,0.733-0.229,1.403-0.688,2.007
		c-0.458,0.605-1.189,1.155-2.194,1.651c1.216,0.578,2.08,1.184,2.593,1.819c0.521,0.635,0.771,1.371,0.771,2.206
		c0,1.237-0.438,2.224-1.298,2.96c-0.865,0.737-2.062,1.105-3.563,1.105c-1.595,0-2.821-0.348-3.68-1.044
		C358.772,42.311,358.344,41.325,358.344,40.046z M360.039,40.087c0,0.815,0.273,1.451,0.85,1.906s1.362,0.683,2.386,0.683
		c1.012,0,1.798-0.238,2.36-0.713c0.563-0.476,0.845-1.127,0.845-1.957c0-0.659-0.265-1.245-0.793-1.758
		c-0.529-0.513-1.452-1.01-2.768-1.493c-1.021,0.435-1.743,0.916-2.198,1.442C360.262,38.724,360.039,39.354,360.039,40.087z
		 M360.513,32.353c0,0.625,0.2,1.162,0.6,1.61c0.4,0.449,1.146,0.897,2.228,1.345c0.97-0.407,1.646-0.846,2.06-1.314
		c0.404-0.468,0.605-1.016,0.605-1.641c0-0.686-0.246-1.231-0.737-1.635c-0.492-0.404-1.169-0.606-2.029-0.606
		c-0.848,0-1.513,0.204-1.988,0.611C360.756,31.129,360.513,31.673,360.513,32.353z"/>
	<path fill="#666565" d="M375.808,38.354c0-1.8,0.441-3.23,1.326-4.29c0.884-1.06,2.07-1.589,3.561-1.589
		c1.396,0,2.498,0.46,3.313,1.38c0.813,0.921,1.219,2.135,1.219,3.643v1.07h-7.684c0.024,1.311,0.355,2.306,0.995,2.985
		c0.63,0.68,1.516,1.019,2.649,1.019c1.198,0,2.394-0.251,3.563-0.754v1.508c-0.604,0.258-1.16,0.443-1.691,0.555
		c-0.532,0.112-1.174,0.168-1.926,0.168c-1.646,0-2.945-0.502-3.897-1.508C376.292,41.536,375.808,40.143,375.808,38.354z
		 M377.586,37.193h5.849c0-1.066-0.238-1.883-0.715-2.451c-0.479-0.567-1.156-0.851-2.041-0.851c-0.898,0-1.614,0.292-2.148,0.876
		C377.986,35.353,377.677,36.161,377.586,37.193z"/>
	<path fill="#666565" d="M387.427,35.423c0-0.911,0.37-1.63,1.109-2.158c0.73-0.527,1.754-0.791,3.044-0.791
		c1.188,0,2.354,0.244,3.504,0.733l-0.59,1.377c-1.117-0.463-2.14-0.695-3.037-0.695c-0.813,0-1.409,0.126-1.817,0.378
		c-0.409,0.251-0.613,0.599-0.613,1.042c0,0.3,0.077,0.555,0.23,0.766c0.152,0.211,0.396,0.412,0.74,0.603
		c0.34,0.191,0.994,0.467,1.961,0.828c1.324,0.483,2.215,0.97,2.671,1.46c0.457,0.49,0.686,1.104,0.686,1.849
		c0,1.034-0.386,1.832-1.146,2.393c-0.771,0.561-1.854,0.841-3.243,0.841c-1.479,0-2.631-0.23-3.459-0.693v-1.559
		c0.536,0.272,1.104,0.487,1.725,0.644c0.613,0.157,1.205,0.235,1.775,0.235c0.885,0,1.563-0.141,2.042-0.424
		c0.477-0.283,0.715-0.713,0.715-1.292c0-0.436-0.188-0.809-0.566-1.119c-0.378-0.31-1.105-0.676-2.211-1.098
		c-1.042-0.388-1.771-0.727-2.217-1.017s-0.761-0.618-0.974-0.986C387.527,36.374,387.427,35.935,387.427,35.423z"/>
	<path fill="#666565" d="M396.611,33.994v-0.815l1.604-0.703l0.713-2.385h0.979v2.588h3.235v1.314h-3.235v6.588
		c0,0.674,0.154,1.191,0.479,1.552c0.319,0.361,0.758,0.542,1.314,0.542c0.299,0,0.588-0.022,0.856-0.066
		c0.279-0.044,0.5-0.09,0.663-0.138v1.278c-0.184,0.087-0.454,0.159-0.811,0.216c-0.356,0.057-0.687,0.085-0.968,0.085
		c-2.155,0-3.235-1.138-3.235-3.414v-6.644h-1.604L396.611,33.994L396.611,33.994z"/>
	<path fill="#666565" d="M405.314,29.652c0-0.387,0.088-0.671,0.271-0.851c0.175-0.18,0.395-0.27,0.649-0.27
		c0.301,0,0.554,0.092,0.766,0.275c0.213,0.184,0.313,0.466,0.313,0.846c0,0.38-0.104,0.664-0.313,0.851s-0.465,0.28-0.766,0.28
		c-0.265,0-0.479-0.093-0.649-0.28C405.402,30.316,405.314,30.034,405.314,29.652z M405.464,43.848V32.68h1.549v11.168H405.464z"/>
	<path fill="#666565" d="M410.736,43.848V32.68h1.375l0.275,1.509h0.081c0.319-0.537,0.771-0.957,1.351-1.259
		c0.581-0.302,1.231-0.453,1.951-0.453c1.746,0,2.896,0.625,3.424,1.876h0.082c0.333-0.579,0.815-1.036,1.447-1.372
		s1.354-0.504,2.16-0.504c1.264,0,2.209,0.324,2.838,0.973c0.628,0.648,0.942,1.687,0.942,3.113v7.286h-1.691v-7.281
		c0-0.892-0.188-1.561-0.57-2.006c-0.381-0.446-0.972-0.669-1.771-0.669c-1.053,0-1.831,0.303-2.334,0.909
		c-0.503,0.605-0.754,1.538-0.754,2.798v6.249h-1.691v-7.281c0-0.892-0.188-1.561-0.57-2.006c-0.381-0.446-0.976-0.669-1.773-0.669
		c-1.063,0-1.836,0.318-2.329,0.955c-0.492,0.637-0.738,1.68-0.738,3.13v5.871L410.736,43.848L410.736,43.848z"/>
	<path fill="#666565" d="M429.314,40.771c0-2.25,1.813-3.429,5.418-3.537l1.898-0.062v-0.702c0-0.887-0.188-1.542-0.564-1.965
		c-0.377-0.423-0.979-0.634-1.806-0.634c-0.929,0-1.979,0.289-3.153,0.866l-0.521-1.298c0.551-0.294,1.146-0.525,1.809-0.692
		c0.655-0.167,1.313-0.251,1.978-0.251c1.324,0,2.313,0.295,2.954,0.887c0.646,0.591,0.969,1.539,0.969,2.843v7.622h-1.257
		l-0.342-1.571h-0.079c-0.559,0.693-1.104,1.162-1.656,1.407c-0.563,0.246-1.242,0.368-2.069,0.368
		c-1.113,0-1.983-0.284-2.616-0.853C429.634,42.629,429.314,41.82,429.314,40.771z M431.106,40.792c0,0.615,0.188,1.082,0.563,1.403
		c0.368,0.321,0.887,0.481,1.551,0.481c1.052,0,1.877-0.29,2.477-0.87c0.604-0.581,0.9-1.393,0.9-2.437v-1.014l-1.688,0.071
		c-1.344,0.048-2.312,0.258-2.896,0.63C431.402,39.429,431.106,40.006,431.106,40.792z"/>
	<path fill="#666565" d="M440.276,33.994v-0.815l1.604-0.703l0.713-2.385h0.979v2.588h3.236v1.314h-3.236v6.588
		c0,0.674,0.155,1.191,0.479,1.552c0.319,0.361,0.758,0.542,1.313,0.542c0.305,0,0.594-0.022,0.862-0.066
		c0.279-0.044,0.5-0.09,0.663-0.138v1.278c-0.184,0.087-0.454,0.159-0.811,0.216c-0.356,0.057-0.688,0.085-0.968,0.085
		c-2.155,0-3.235-1.138-3.235-3.414v-6.644h-1.604L440.276,33.994L440.276,33.994z"/>
	<path fill="#666565" d="M448.507,38.354c0-1.8,0.438-3.23,1.326-4.29c0.884-1.06,2.063-1.589,3.561-1.589
		c1.396,0,2.498,0.46,3.313,1.38c0.813,0.921,1.219,2.135,1.219,3.643v1.07h-7.688c0.034,1.311,0.365,2.306,0.995,2.985
		c0.63,0.68,1.521,1.019,2.659,1.019c1.198,0,2.384-0.251,3.556-0.754v1.508c-0.597,0.258-1.15,0.443-1.688,0.555
		c-0.532,0.112-1.174,0.168-1.926,0.168c-1.646,0-2.945-0.502-3.897-1.508S448.507,40.143,448.507,38.354z M450.274,37.193h5.854
		c0-1.066-0.238-1.883-0.715-2.451c-0.479-0.567-1.156-0.851-2.041-0.851c-0.898,0-1.614,0.292-2.148,0.876
		C450.688,35.353,450.378,36.161,450.274,37.193z"/>
	<path fill="#666565" d="M460.127,35.423c0-0.911,0.37-1.63,1.104-2.158c0.74-0.527,1.754-0.791,3.044-0.791
		c1.195,0,2.363,0.244,3.504,0.733l-0.59,1.377c-1.117-0.463-2.13-0.695-3.037-0.695c-0.804,0-1.399,0.126-1.813,0.378
		c-0.409,0.251-0.613,0.599-0.613,1.042c0,0.3,0.077,0.555,0.23,0.766c0.146,0.211,0.396,0.412,0.73,0.603
		c0.34,0.191,0.994,0.467,1.961,0.828c1.324,0.483,2.225,0.97,2.676,1.46c0.452,0.49,0.688,1.104,0.688,1.849
		c0,1.034-0.386,1.832-1.155,2.393c-0.771,0.561-1.852,0.841-3.243,0.841c-1.479,0-2.631-0.23-3.459-0.693v-1.559
		c0.536,0.272,1.11,0.487,1.729,0.644c0.604,0.157,1.205,0.235,1.771,0.235c0.895,0,1.565-0.141,2.042-0.424
		c0.479-0.283,0.725-0.713,0.725-1.292c0-0.436-0.188-0.809-0.566-1.119c-0.378-0.31-1.115-0.676-2.211-1.098
		c-1.042-0.388-1.78-0.727-2.217-1.017c-0.438-0.29-0.771-0.618-0.979-0.986C460.228,36.374,460.127,35.935,460.127,35.423z"/>
</g>
</svg>
