<?xml version="1.0" encoding="utf-8"?>
<!-- Generator: Adobe Illustrator 16.0.0, SVG Export Plug-In . SVG Version: 6.00 Build 0)  -->
<!DOCTYPE svg PUBLIC "-//W3C//DTD SVG 1.1//EN" "http://www.w3.org/Graphics/SVG/1.1/DTD/svg11.dtd">
<svg version="1.1" id="Capa_1" xmlns="http://www.w3.org/2000/svg" xmlns:xlink="http://www.w3.org/1999/xlink" x="0px" y="0px"
	 width="317px" height="583px" viewBox="0 0 317 583" enable-background="new 0 0 317 583" xml:space="preserve">
<g>
	<g>
		<path fill="#666565" d="M66.984,198.028c0-1.242,0.194-2.164,0.583-2.767c0.389-0.602,0.981-0.902,1.778-0.902
			c0.774,0,1.362,0.313,1.763,0.941c0.402,0.628,0.604,1.537,0.604,2.728c0,1.235-0.194,2.157-0.583,2.766
			c-0.39,0.609-0.983,0.914-1.783,0.914c-0.771,0-1.357-0.312-1.758-0.936C67.185,200.148,66.984,199.234,66.984,198.028z
			 M67.814,198.028c0,1.036,0.122,1.791,0.366,2.263c0.244,0.473,0.632,0.709,1.165,0.709c0.54,0,0.93-0.239,1.172-0.719
			s0.363-1.229,0.363-2.253c0-1.022-0.121-1.771-0.363-2.247c-0.242-0.476-0.633-0.714-1.172-0.714
			c-0.533,0-0.921,0.234-1.165,0.704C67.936,196.24,67.814,196.993,67.814,198.028z"/>
	</g>
	<g>
		<path fill="#666565" d="M114.192,201.61v-0.689l1.88-1.897c0.573-0.581,0.951-0.996,1.134-1.245
			c0.182-0.248,0.318-0.49,0.41-0.726c0.091-0.236,0.137-0.488,0.137-0.76c0-0.382-0.116-0.686-0.348-0.909
			c-0.23-0.223-0.552-0.336-0.962-0.336c-0.296,0-0.576,0.049-0.842,0.147c-0.265,0.098-0.561,0.276-0.886,0.534l-0.43-0.554
			c0.657-0.538,1.374-0.807,2.147-0.807c0.67,0,1.196,0.171,1.577,0.513c0.381,0.342,0.571,0.801,0.571,1.377
			c0,0.455-0.127,0.904-0.381,1.349c-0.255,0.445-0.729,1.007-1.427,1.687l-1.563,1.535v0.039h3.672v0.742H114.192z"/>
		<path fill="#666565" d="M119.92,198.028c0-1.242,0.193-2.164,0.583-2.767c0.388-0.602,0.98-0.902,1.777-0.902
			c0.774,0,1.362,0.313,1.764,0.941s0.603,1.537,0.603,2.728c0,1.235-0.193,2.157-0.583,2.766c-0.389,0.609-0.982,0.914-1.783,0.914
			c-0.771,0-1.356-0.312-1.758-0.936S119.92,199.234,119.92,198.028z M120.75,198.028c0,1.036,0.122,1.791,0.366,2.263
			c0.243,0.473,0.632,0.709,1.164,0.709c0.54,0,0.931-0.239,1.173-0.719c0.241-0.479,0.362-1.229,0.362-2.253
			c0-1.022-0.121-1.771-0.362-2.247c-0.242-0.476-0.634-0.714-1.173-0.714c-0.532,0-0.921,0.234-1.164,0.704
			C120.872,196.24,120.75,196.993,120.75,198.028z"/>
	</g>
	<g>
		<path fill="#666565" d="M163.98,199.975v-0.713l3.39-4.829h0.858v4.8h1.069v0.742h-1.069v1.636h-0.767v-1.636H163.98
			L163.98,199.975z M164.801,199.232h2.661v-2.373c0-0.466,0.016-0.991,0.049-1.577h-0.039c-0.156,0.313-0.303,0.571-0.438,0.776
			L164.801,199.232z"/>
		<path fill="#666565" d="M169.996,198.028c0-1.242,0.193-2.164,0.583-2.767c0.388-0.602,0.98-0.902,1.777-0.902
			c0.774,0,1.362,0.313,1.764,0.941s0.603,1.537,0.603,2.728c0,1.235-0.194,2.157-0.583,2.766s-0.982,0.914-1.783,0.914
			c-0.771,0-1.356-0.312-1.758-0.936C170.197,200.148,169.996,199.234,169.996,198.028z M170.826,198.028
			c0,1.036,0.121,1.791,0.365,2.263c0.244,0.473,0.633,0.709,1.165,0.709c0.54,0,0.931-0.239,1.172-0.719
			c0.242-0.479,0.363-1.229,0.363-2.253c0-1.022-0.121-1.771-0.363-2.247c-0.241-0.476-0.633-0.714-1.172-0.714
			c-0.532,0-0.921,0.234-1.165,0.704C170.948,196.24,170.826,196.993,170.826,198.028z"/>
	</g>
	<g>
		<path fill="#666565" d="M214.428,198.561c0-1.403,0.272-2.453,0.818-3.148c0.546-0.695,1.352-1.043,2.419-1.043
			c0.369,0,0.66,0.031,0.872,0.093v0.708c-0.251-0.095-0.539-0.142-0.862-0.142c-0.765,0-1.349,0.239-1.753,0.718
			s-0.625,1.23-0.664,2.257h0.059c0.358-0.554,0.925-0.831,1.699-0.831c0.645,0,1.152,0.193,1.523,0.58
			c0.371,0.386,0.557,0.91,0.557,1.573c0,0.74-0.204,1.323-0.61,1.747c-0.406,0.424-0.958,0.636-1.649,0.636
			c-0.739,0-1.325-0.277-1.758-0.832C214.645,200.322,214.428,199.55,214.428,198.561z M215.258,199.144
			c0,0.337,0.064,0.65,0.195,0.94c0.13,0.291,0.314,0.521,0.554,0.69s0.512,0.255,0.818,0.255c0.462,0,0.82-0.146,1.076-0.438
			c0.257-0.292,0.384-0.714,0.384-1.266c0-0.474-0.119-0.846-0.356-1.117c-0.238-0.271-0.592-0.406-1.064-0.406
			c-0.293,0-0.562,0.061-0.806,0.182c-0.244,0.12-0.438,0.287-0.583,0.499C215.331,198.695,215.258,198.915,215.258,199.144z"/>
		<path fill="#666565" d="M220.072,198.028c0-1.242,0.194-2.164,0.583-2.767c0.389-0.602,0.981-0.902,1.778-0.902
			c0.774,0,1.362,0.313,1.763,0.941c0.402,0.628,0.604,1.537,0.604,2.728c0,1.235-0.194,2.157-0.583,2.766s-0.983,0.914-1.783,0.914
			c-0.771,0-1.356-0.312-1.758-0.936C220.273,200.148,220.072,199.234,220.072,198.028z M220.902,198.028
			c0,1.036,0.122,1.791,0.366,2.263c0.244,0.473,0.632,0.709,1.165,0.709c0.54,0,0.93-0.239,1.172-0.719s0.363-1.229,0.363-2.253
			c0-1.022-0.121-1.771-0.363-2.247c-0.242-0.476-0.633-0.714-1.172-0.714c-0.533,0-0.921,0.234-1.165,0.704
			C221.024,196.24,220.902,196.993,220.902,198.028z"/>
	</g>
	<g>
		<path fill="#666565" d="M264.441,199.789c0-0.817,0.501-1.453,1.503-1.909c-0.454-0.254-0.779-0.528-0.977-0.822
			c-0.198-0.295-0.296-0.625-0.296-0.989c0-0.518,0.191-0.931,0.577-1.237c0.385-0.309,0.898-0.462,1.544-0.462
			c0.652,0,1.171,0.151,1.553,0.454c0.382,0.303,0.573,0.721,0.573,1.255c0,0.352-0.11,0.672-0.329,0.962
			c-0.22,0.29-0.57,0.554-1.052,0.791c0.583,0.276,0.997,0.567,1.241,0.871c0.246,0.305,0.368,0.657,0.368,1.058
			c0,0.593-0.208,1.065-0.622,1.419c-0.415,0.353-0.982,0.529-1.705,0.529c-0.764,0-1.352-0.167-1.763-0.5
			C264.647,200.874,264.441,200.401,264.441,199.789z M265.252,199.809c0,0.391,0.136,0.695,0.407,0.913
			c0.271,0.218,0.651,0.327,1.143,0.327c0.484,0,0.861-0.114,1.131-0.342c0.271-0.228,0.405-0.54,0.405-0.938
			c0-0.315-0.127-0.597-0.38-0.843c-0.253-0.245-0.695-0.483-1.326-0.715c-0.484,0.208-0.835,0.438-1.053,0.691
			C265.361,199.155,265.252,199.457,265.252,199.809z M265.481,196.103c0,0.3,0.097,0.557,0.288,0.771
			c0.191,0.215,0.546,0.43,1.063,0.645c0.464-0.195,0.793-0.405,0.986-0.63c0.194-0.225,0.29-0.486,0.29-0.786
			c0-0.329-0.118-0.59-0.354-0.783c-0.235-0.194-0.561-0.291-0.972-0.291c-0.406,0-0.726,0.098-0.955,0.293
			C265.597,195.517,265.481,195.777,265.481,196.103z"/>
		<path fill="#666565" d="M270.149,198.028c0-1.242,0.194-2.164,0.583-2.767c0.389-0.602,0.981-0.902,1.778-0.902
			c0.774,0,1.362,0.313,1.763,0.941c0.402,0.628,0.604,1.537,0.604,2.728c0,1.235-0.194,2.157-0.583,2.766
			c-0.39,0.609-0.983,0.914-1.783,0.914c-0.771,0-1.357-0.312-1.758-0.936C270.35,200.148,270.149,199.234,270.149,198.028z
			 M270.979,198.028c0,1.036,0.122,1.791,0.366,2.263c0.244,0.473,0.632,0.709,1.165,0.709c0.54,0,0.93-0.239,1.172-0.719
			s0.363-1.229,0.363-2.253c0-1.022-0.121-1.771-0.363-2.247c-0.242-0.476-0.633-0.714-1.172-0.714
			c-0.533,0-0.921,0.234-1.165,0.704C271.102,196.24,270.979,196.993,270.979,198.028z"/>
	</g>
</g>
<line fill="none" stroke="#666666" stroke-miterlimit="10" x1="69.344" y1="189.751" x2="269.65" y2="189.751"/>
<g>
	<g>
		<line fill="none" stroke="#666666" stroke-miterlimit="10" x1="69.344" y1="189.751" x2="69.344" y2="186"/>
		<line fill="none" stroke="#666666" stroke-miterlimit="10" x1="94.382" y1="189.751" x2="94.382" y2="186"/>
		<line fill="none" stroke="#666666" stroke-miterlimit="10" x1="119.421" y1="189.751" x2="119.421" y2="186"/>
		<line fill="none" stroke="#666666" stroke-miterlimit="10" x1="144.459" y1="189.751" x2="144.459" y2="186"/>
		<line fill="none" stroke="#666666" stroke-miterlimit="10" x1="169.497" y1="189.751" x2="169.497" y2="186"/>
		<line fill="none" stroke="#666666" stroke-miterlimit="10" x1="194.535" y1="189.751" x2="194.535" y2="186"/>
		<line fill="none" stroke="#666666" stroke-miterlimit="10" x1="219.574" y1="189.751" x2="219.574" y2="186"/>
		<line fill="none" stroke="#666666" stroke-miterlimit="10" x1="244.612" y1="189.751" x2="244.612" y2="186"/>
		<line fill="none" stroke="#666666" stroke-miterlimit="10" x1="269.65" y1="189.751" x2="269.65" y2="186"/>
	</g>
</g>
<line fill="none" stroke="#666666" stroke-miterlimit="10" x1="69.344" y1="189.751" x2="69.344" y2="39.728"/>
<g>
	<g>
		<line fill="none" stroke="#000000" stroke-miterlimit="10" x1="69.344" y1="152.245" x2="74.352" y2="152.245"/>
		<line fill="none" stroke="#000000" stroke-miterlimit="10" x1="69.344" y1="77.234" x2="74.352" y2="77.234"/>
	</g>
</g>
<g>
	<rect x="115.765" y="50.229" fill="#1F9B9C" width="122.111" height="54.009"/>
</g>
<rect x="69.344" y="50.229" fill="#C7DFDF" width="46.421" height="54.009"/>
<rect x="69.344" y="125.241" fill="#E9BF64" width="120.659" height="54.009"/>
<rect x="22.011" y="479.89" fill="#E9BF64" width="18.592" height="18.594"/>
<rect x="22.011" y="503.688" fill="#1F9B9C" width="18.592" height="18.592"/>
<rect x="22.011" y="528.679" fill="#C7DFDF" width="18.592" height="18.595"/>
<g>
	<path fill="#666565" d="M53.914,483.019h1.271l2.64,4.997l2.658-4.997h1.259l-3.337,6.118v3.876h-1.161v-3.82L53.914,483.019z"/>
	<path fill="#666565" d="M63.128,493.013v-9.994h1.162v8.955h4.41v1.039H63.128z"/>
	<path fill="#666565" d="M70.395,493.013v-9.994h3.063c1.554,0,2.762,0.432,3.623,1.292c0.86,0.861,1.292,2.064,1.292,3.609
		c0,1.649-0.447,2.911-1.345,3.784c-0.895,0.872-2.184,1.309-3.864,1.309H70.395z M71.557,492.008h1.415
		c1.386,0,2.427-0.341,3.124-1.021c0.697-0.682,1.046-1.689,1.046-3.024c0-1.304-0.327-2.285-0.979-2.946
		c-0.654-0.661-1.626-0.99-2.916-0.99h-1.688L71.557,492.008L71.557,492.008z"/>
	<path fill="#666565" d="M79.801,489.779v-1.039h3.356v1.039H79.801z"/>
	<path fill="#666565" d="M85.106,493.013v-9.994h1.313l5.447,8.354h0.055c-0.009-0.128-0.029-0.524-0.062-1.189
		c-0.022-0.52-0.033-0.923-0.033-1.21c0-0.082,0-0.154,0-0.219v-5.734h1.072v9.993h-1.313l-5.462-8.388H86.07
		c0.073,0.984,0.109,1.887,0.109,2.707v5.681L85.106,493.013L85.106,493.013z"/>
	<path fill="#666565" d="M95.073,489.253c0-1.219,0.306-2.169,0.913-2.849c0.609-0.682,1.454-1.021,2.535-1.021
		c1.046,0,1.876,0.349,2.491,1.044c0.616,0.696,0.924,1.639,0.924,2.825c0,1.224-0.307,2.179-0.92,2.866
		c-0.613,0.687-1.461,1.03-2.542,1.03c-0.669,0-1.262-0.157-1.779-0.474c-0.518-0.313-0.918-0.767-1.198-1.354
		C95.213,490.732,95.073,490.043,95.073,489.253z M96.235,489.253c0,0.959,0.191,1.69,0.575,2.192
		c0.383,0.503,0.947,0.754,1.691,0.754c0.743,0,1.309-0.25,1.693-0.75c0.386-0.5,0.578-1.232,0.578-2.196
		c0-0.955-0.192-1.68-0.578-2.176c-0.386-0.495-0.954-0.743-1.708-0.743c-0.743,0-1.306,0.244-1.685,0.733
		C96.424,487.556,96.235,488.284,96.235,489.253z"/>
	<path fill="#666565" d="M103.946,493.013v-7.492h0.924l0.185,1.013h0.055c0.232-0.364,0.56-0.647,0.979-0.849
		c0.419-0.2,0.887-0.301,1.4-0.301c0.902,0,1.581,0.218,2.037,0.652c0.456,0.436,0.685,1.132,0.685,2.089v4.888h-1.135v-4.855
		c0-0.612-0.14-1.068-0.417-1.37c-0.278-0.302-0.714-0.452-1.307-0.452c-0.784,0-1.357,0.212-1.723,0.637
		c-0.365,0.426-0.547,1.126-0.547,2.104v3.938L103.946,493.013L103.946,493.013z"/>
	<path fill="#666565" d="M115.17,486.402v-0.514l1.34-0.409v-0.415c0-1.833,0.805-2.75,2.413-2.75c0.396,0,0.861,0.078,1.395,0.234
		l-0.294,0.899c-0.438-0.143-0.812-0.212-1.121-0.212c-0.429,0-0.744,0.143-0.949,0.428c-0.205,0.284-0.309,0.741-0.309,1.37v0.484
		h1.907v0.883h-1.907v6.609h-1.135v-6.609L115.17,486.402L115.17,486.402z"/>
	<path fill="#666565" d="M120.359,490.949c0-1.51,1.212-2.301,3.636-2.373l1.272-0.042v-0.47c0-0.597-0.126-1.035-0.379-1.318
		c-0.252-0.284-0.656-0.426-1.211-0.426c-0.623,0-1.328,0.192-2.115,0.581l-0.353-0.871c0.369-0.197,0.772-0.354,1.213-0.465
		c0.439-0.111,0.881-0.168,1.323-0.168c0.893,0,1.554,0.197,1.982,0.595c0.432,0.396,0.646,1.032,0.646,1.907v5.112h-0.841
		l-0.227-1.054h-0.055c-0.373,0.464-0.745,0.779-1.115,0.943c-0.371,0.165-0.834,0.247-1.389,0.247c-0.747,0-1.332-0.19-1.755-0.572
		C120.571,492.195,120.359,491.653,120.359,490.949z M121.562,490.963c0,0.412,0.124,0.727,0.372,0.94
		c0.248,0.216,0.595,0.322,1.04,0.322c0.705,0,1.259-0.193,1.662-0.584c0.402-0.389,0.604-0.934,0.604-1.635v-0.68l-1.134,0.048
		c-0.899,0.032-1.55,0.173-1.947,0.423C121.761,490.048,121.562,490.437,121.562,490.963z"/>
	<path fill="#666565" d="M127.714,486.402v-0.547l1.073-0.473l0.479-1.6h0.656v1.735h2.174v0.883h-2.174v4.42
		c0,0.452,0.106,0.799,0.321,1.041c0.214,0.241,0.508,0.362,0.882,0.362c0.2,0,0.395-0.015,0.581-0.045
		c0.187-0.028,0.335-0.061,0.443-0.092v0.857c-0.123,0.059-0.305,0.105-0.543,0.145c-0.239,0.038-0.455,0.059-0.646,0.059
		c-1.449,0-2.174-0.765-2.174-2.29v-4.457L127.714,486.402L127.714,486.402z"/>
	<path fill="#666565" d="M133.087,490.949c0-1.51,1.212-2.301,3.635-2.373l1.273-0.042v-0.47c0-0.597-0.126-1.035-0.379-1.318
		c-0.253-0.284-0.656-0.426-1.212-0.426c-0.622,0-1.327,0.192-2.114,0.581l-0.354-0.871c0.369-0.197,0.773-0.354,1.213-0.465
		c0.44-0.111,0.881-0.168,1.323-0.168c0.894,0,1.554,0.197,1.983,0.595c0.431,0.396,0.646,1.032,0.646,1.907v5.112h-0.841
		l-0.226-1.054h-0.056c-0.373,0.464-0.745,0.779-1.115,0.943c-0.37,0.165-0.834,0.247-1.389,0.247c-0.747,0-1.332-0.19-1.755-0.572
		C133.299,492.195,133.087,491.653,133.087,490.949z M134.291,490.963c0,0.412,0.124,0.727,0.372,0.94
		c0.248,0.216,0.595,0.322,1.04,0.322c0.705,0,1.259-0.193,1.661-0.584c0.402-0.389,0.604-0.934,0.604-1.635v-0.68l-1.133,0.048
		c-0.9,0.032-1.55,0.173-1.948,0.423C134.49,490.048,134.291,490.437,134.291,490.963z"/>
	<path fill="#666565" d="M141.434,493.013v-10.637h1.135v10.637H141.434z"/>
	<path fill="#666565" d="M148.516,483.49c0-0.261,0.06-0.45,0.177-0.571c0.117-0.12,0.266-0.181,0.441-0.181
		c0.196,0,0.365,0.062,0.508,0.185c0.144,0.123,0.214,0.313,0.214,0.567s-0.07,0.444-0.214,0.57
		c-0.143,0.125-0.312,0.188-0.508,0.188c-0.177,0-0.324-0.063-0.441-0.188S148.516,483.745,148.516,483.49z M148.612,493.013v-7.492
		h1.039v7.492H148.612z"/>
	<path fill="#666565" d="M152.153,493.013v-7.492h0.924l0.185,1.013h0.055c0.232-0.364,0.56-0.647,0.979-0.849
		c0.419-0.2,0.887-0.301,1.4-0.301c0.902,0,1.581,0.218,2.037,0.652c0.456,0.436,0.685,1.132,0.685,2.089v4.888h-1.136v-4.855
		c0-0.612-0.139-1.068-0.417-1.37c-0.277-0.302-0.713-0.452-1.306-0.452c-0.784,0-1.357,0.212-1.723,0.637
		c-0.365,0.426-0.547,1.126-0.547,2.104v3.938L152.153,493.013L152.153,493.013z"/>
	<path fill="#666565" d="M158.784,495.289c0.313,0.091,0.624,0.137,0.93,0.137c0.354,0,0.616-0.097,0.782-0.291
		c0.167-0.192,0.25-0.489,0.25-0.886v-8.729h1.135v8.641c0,1.477-0.683,2.215-2.044,2.215c-0.434,0-0.784-0.057-1.053-0.17V495.289
		L158.784,495.289z M160.65,483.49c0-0.261,0.063-0.45,0.191-0.571c0.128-0.12,0.287-0.181,0.479-0.181
		c0.208,0,0.389,0.062,0.539,0.185c0.151,0.123,0.228,0.313,0.228,0.567s-0.075,0.444-0.228,0.57
		c-0.15,0.125-0.331,0.188-0.539,0.188c-0.19,0-0.351-0.063-0.479-0.188S160.65,483.745,160.65,483.49z"/>
	<path fill="#666565" d="M164.205,490.422v-4.901h1.162v4.86c0,0.61,0.139,1.066,0.416,1.367c0.276,0.301,0.712,0.451,1.304,0.451
		c0.782,0,1.354-0.214,1.716-0.644c0.362-0.429,0.543-1.128,0.543-2.099v-3.938h1.135v7.492h-0.923l-0.176-1.005h-0.063
		c-0.231,0.369-0.554,0.651-0.966,0.848c-0.411,0.196-0.881,0.295-1.409,0.295c-0.915,0-1.601-0.218-2.056-0.649
		S164.205,491.374,164.205,490.422z"/>
	<path fill="#666565" d="M172.879,493.013v-7.492h0.923l0.139,1.395H174c0.277-0.489,0.613-0.866,1.006-1.132
		c0.392-0.267,0.822-0.398,1.292-0.398c0.333,0,0.631,0.027,0.896,0.083l-0.156,1.06c-0.311-0.068-0.583-0.104-0.82-0.104
		c-0.606,0-1.125,0.246-1.555,0.737c-0.433,0.492-0.646,1.104-0.646,1.837v4.016L172.879,493.013L172.879,493.013z"/>
	<path fill="#666565" d="M178.499,483.49c0-0.261,0.059-0.45,0.177-0.571c0.117-0.12,0.265-0.181,0.441-0.181
		c0.195,0,0.364,0.062,0.508,0.185c0.143,0.123,0.214,0.313,0.214,0.567s-0.071,0.444-0.214,0.57
		c-0.144,0.125-0.313,0.188-0.508,0.188c-0.178,0-0.324-0.063-0.441-0.188C178.557,483.936,178.499,483.745,178.499,483.49z
		 M178.594,493.013v-7.492h1.039v7.492H178.594z"/>
	<path fill="#666565" d="M181.718,489.328c0-1.208,0.297-2.167,0.89-2.878c0.594-0.711,1.39-1.066,2.39-1.066
		c0.936,0,1.676,0.31,2.221,0.926c0.545,0.618,0.817,1.434,0.817,2.444v0.718h-5.154c0.021,0.88,0.245,1.547,0.668,2.003
		c0.422,0.456,1.017,0.685,1.783,0.685c0.805,0,1.6-0.169,2.386-0.506v1.012c-0.4,0.173-0.778,0.298-1.135,0.372
		c-0.357,0.076-0.787,0.113-1.292,0.113c-1.104,0-1.977-0.338-2.614-1.013S181.718,490.526,181.718,489.328z M182.908,488.549h3.924
		c0-0.716-0.16-1.264-0.479-1.644c-0.318-0.381-0.775-0.571-1.369-0.571c-0.603,0-1.083,0.196-1.44,0.588
		C183.185,487.314,182.971,487.856,182.908,488.549z"/>
	<path fill="#666565" d="M189.511,487.361c0-0.611,0.248-1.095,0.744-1.447c0.496-0.354,1.177-0.53,2.042-0.53
		c0.802,0,1.585,0.164,2.351,0.492l-0.396,0.924c-0.75-0.311-1.429-0.466-2.037-0.466c-0.539,0-0.945,0.085-1.22,0.254
		c-0.275,0.169-0.411,0.401-0.411,0.698c0,0.201,0.052,0.372,0.153,0.514c0.104,0.144,0.27,0.276,0.496,0.404
		c0.229,0.129,0.667,0.313,1.315,0.556c0.889,0.324,1.486,0.65,1.792,0.979c0.307,0.329,0.46,0.742,0.46,1.24
		c0,0.693-0.259,1.229-0.775,1.604c-0.516,0.376-1.24,0.564-2.175,0.564c-0.992,0-1.766-0.155-2.319-0.466v-1.047
		c0.358,0.184,0.744,0.326,1.155,0.433c0.412,0.104,0.811,0.156,1.191,0.156c0.594,0,1.05-0.095,1.37-0.283
		c0.318-0.189,0.479-0.479,0.479-0.867c0-0.292-0.127-0.542-0.38-0.75c-0.254-0.208-0.748-0.453-1.482-0.736
		c-0.699-0.261-1.194-0.488-1.487-0.682c-0.292-0.194-0.51-0.415-0.653-0.662C189.583,487.999,189.511,487.704,189.511,487.361z"/>
	<path fill="#666565" d="M199.745,490.949c0-1.51,1.212-2.301,3.635-2.373l1.272-0.042v-0.47c0-0.597-0.126-1.035-0.379-1.318
		c-0.252-0.284-0.655-0.426-1.211-0.426c-0.623,0-1.328,0.192-2.115,0.581l-0.353-0.871c0.369-0.197,0.773-0.354,1.213-0.465
		c0.44-0.111,0.881-0.168,1.323-0.168c0.893,0,1.554,0.197,1.982,0.595c0.432,0.396,0.646,1.032,0.646,1.907v5.112h-0.841
		l-0.227-1.054h-0.055c-0.373,0.464-0.745,0.779-1.115,0.943c-0.371,0.165-0.834,0.247-1.389,0.247c-0.747,0-1.332-0.19-1.755-0.572
		C199.957,492.195,199.745,491.653,199.745,490.949z M200.948,490.963c0,0.412,0.124,0.727,0.372,0.94
		c0.248,0.216,0.596,0.322,1.04,0.322c0.705,0,1.26-0.193,1.662-0.584c0.402-0.389,0.604-0.934,0.604-1.635v-0.68l-1.133,0.048
		c-0.9,0.032-1.551,0.173-1.948,0.423C201.147,490.048,200.948,490.437,200.948,490.963z"/>
	<path fill="#666565" d="M208.091,493.013v-7.492h0.923l0.186,1.013h0.055c0.231-0.364,0.559-0.647,0.978-0.849
		c0.419-0.2,0.888-0.301,1.401-0.301c0.902,0,1.581,0.218,2.037,0.652c0.456,0.436,0.684,1.132,0.684,2.089v4.888h-1.135v-4.855
		c0-0.612-0.139-1.068-0.417-1.37s-0.713-0.452-1.306-0.452c-0.784,0-1.358,0.212-1.724,0.637c-0.364,0.426-0.547,1.126-0.547,2.104
		v3.938L208.091,493.013L208.091,493.013z"/>
	<path fill="#666565" d="M216.267,489.287c0-1.235,0.272-2.194,0.817-2.878c0.545-0.685,1.304-1.025,2.274-1.025
		c1.02,0,1.8,0.369,2.343,1.107h0.089l-0.048-0.54l-0.027-0.526v-3.049h1.135v10.637h-0.923l-0.15-1.005h-0.062
		c-0.525,0.761-1.311,1.143-2.355,1.143c-0.977,0-1.735-0.335-2.277-1.006C216.539,491.475,216.267,490.522,216.267,489.287z
		 M217.429,489.301c0,0.957,0.176,1.681,0.527,2.167c0.351,0.487,0.866,0.731,1.547,0.731c0.775,0,1.339-0.211,1.688-0.632
		c0.35-0.423,0.523-1.104,0.523-2.041v-0.239c0-1.063-0.177-1.819-0.53-2.272c-0.354-0.454-0.919-0.681-1.695-0.681
		c-0.666,0-1.176,0.259-1.529,0.776C217.606,487.627,217.429,488.357,217.429,489.301z"/>
	<path fill="#666565" d="M228.804,483.49c0-0.261,0.059-0.45,0.177-0.571c0.117-0.12,0.266-0.181,0.441-0.181
		c0.196,0,0.365,0.062,0.508,0.185s0.214,0.313,0.214,0.567s-0.071,0.444-0.214,0.57c-0.143,0.125-0.312,0.188-0.508,0.188
		c-0.177,0-0.324-0.063-0.441-0.188C228.863,483.936,228.804,483.745,228.804,483.49z M228.9,493.013v-7.492h1.039v7.492H228.9z"/>
	<path fill="#666565" d="M232.441,493.013v-10.637h1.136v10.637H232.441z"/>
	<path fill="#666565" d="M235.982,493.013v-10.637h1.136v10.637H235.982z"/>
	<path fill="#666565" d="M239.523,493.013v-7.492h0.923l0.186,1.013h0.055c0.232-0.364,0.56-0.647,0.979-0.849
		c0.419-0.2,0.887-0.301,1.4-0.301c0.902,0,1.581,0.218,2.037,0.652c0.456,0.436,0.685,1.132,0.685,2.089v4.888h-1.136v-4.855
		c0-0.612-0.139-1.068-0.417-1.37c-0.277-0.302-0.713-0.452-1.306-0.452c-0.784,0-1.358,0.212-1.723,0.637
		c-0.365,0.426-0.547,1.126-0.547,2.104v3.938L239.523,493.013L239.523,493.013z"/>
	<path fill="#666565" d="M247.699,489.328c0-1.208,0.297-2.167,0.89-2.878s1.389-1.066,2.389-1.066c0.937,0,1.676,0.31,2.222,0.926
		c0.545,0.618,0.816,1.434,0.816,2.444v0.718h-5.154c0.022,0.88,0.245,1.547,0.668,2.003s1.018,0.685,1.783,0.685
		c0.806,0,1.601-0.169,2.387-0.506v1.012c-0.4,0.173-0.778,0.298-1.136,0.372c-0.356,0.076-0.787,0.113-1.292,0.113
		c-1.104,0-1.976-0.338-2.613-1.013C248.02,491.463,247.699,490.526,247.699,489.328z M248.888,488.549h3.924
		c0-0.716-0.16-1.264-0.479-1.644c-0.319-0.381-0.776-0.571-1.369-0.571c-0.604,0-1.083,0.196-1.441,0.588
		C249.165,487.314,248.952,487.856,248.888,488.549z"/>
	<path fill="#666565" d="M255.492,487.361c0-0.611,0.248-1.095,0.743-1.447c0.496-0.354,1.178-0.53,2.042-0.53
		c0.803,0,1.585,0.164,2.352,0.492l-0.396,0.924c-0.75-0.311-1.429-0.466-2.037-0.466c-0.538,0-0.944,0.085-1.22,0.254
		c-0.274,0.169-0.411,0.401-0.411,0.698c0,0.201,0.053,0.372,0.154,0.514c0.103,0.144,0.269,0.276,0.496,0.404
		c0.229,0.129,0.667,0.313,1.314,0.556c0.89,0.324,1.486,0.65,1.792,0.979c0.308,0.329,0.46,0.742,0.46,1.24
		c0,0.693-0.259,1.229-0.774,1.604s-1.241,0.564-2.175,0.564c-0.992,0-1.767-0.155-2.32-0.466v-1.047
		c0.359,0.184,0.745,0.326,1.156,0.433c0.412,0.104,0.81,0.156,1.19,0.156c0.595,0,1.051-0.095,1.37-0.283
		c0.319-0.189,0.479-0.479,0.479-0.867c0-0.292-0.127-0.542-0.38-0.75c-0.254-0.208-0.748-0.453-1.483-0.736
		c-0.699-0.261-1.194-0.488-1.487-0.682c-0.292-0.194-0.51-0.415-0.652-0.662C255.563,487.999,255.492,487.704,255.492,487.361z"/>
	<path fill="#666565" d="M262.17,487.361c0-0.611,0.248-1.095,0.744-1.447c0.496-0.354,1.177-0.53,2.042-0.53
		c0.802,0,1.585,0.164,2.351,0.492l-0.396,0.924c-0.75-0.311-1.43-0.466-2.037-0.466c-0.539,0-0.945,0.085-1.221,0.254
		c-0.274,0.169-0.41,0.401-0.41,0.698c0,0.201,0.052,0.372,0.153,0.514c0.104,0.144,0.27,0.276,0.496,0.404
		c0.229,0.129,0.667,0.313,1.315,0.556c0.889,0.324,1.485,0.65,1.792,0.979s0.46,0.742,0.46,1.24c0,0.693-0.259,1.229-0.775,1.604
		c-0.516,0.376-1.241,0.564-2.175,0.564c-0.992,0-1.766-0.155-2.32-0.466v-1.047c0.359,0.184,0.745,0.326,1.156,0.433
		c0.412,0.104,0.81,0.156,1.191,0.156c0.594,0,1.05-0.095,1.37-0.283c0.318-0.189,0.479-0.479,0.479-0.867
		c0-0.292-0.127-0.542-0.38-0.75c-0.254-0.208-0.748-0.453-1.483-0.736c-0.698-0.261-1.193-0.488-1.486-0.682
		c-0.292-0.194-0.511-0.415-0.653-0.662C262.242,487.999,262.17,487.704,262.17,487.361z"/>
	<path fill="#666565" d="M268.911,489.328c0-1.208,0.297-2.167,0.89-2.878s1.389-1.066,2.389-1.066c0.937,0,1.677,0.31,2.222,0.926
		c0.545,0.618,0.816,1.434,0.816,2.444v0.718h-5.153c0.021,0.88,0.244,1.547,0.668,2.003c0.422,0.456,1.017,0.685,1.782,0.685
		c0.806,0,1.601-0.169,2.387-0.506v1.012c-0.4,0.173-0.778,0.298-1.136,0.372c-0.356,0.076-0.787,0.113-1.292,0.113
		c-1.104,0-1.976-0.338-2.613-1.013C269.232,491.463,268.911,490.526,268.911,489.328z M270.1,488.549h3.924
		c0-0.716-0.16-1.264-0.479-1.644c-0.319-0.381-0.776-0.571-1.369-0.571c-0.603,0-1.083,0.196-1.441,0.588
		C270.377,487.314,270.164,487.856,270.1,488.549z"/>
	<path fill="#666565" d="M276.704,487.361c0-0.611,0.248-1.095,0.743-1.447c0.496-0.354,1.178-0.53,2.042-0.53
		c0.803,0,1.586,0.164,2.352,0.492l-0.396,0.924c-0.75-0.311-1.429-0.466-2.036-0.466c-0.539,0-0.945,0.085-1.221,0.254
		c-0.274,0.169-0.411,0.401-0.411,0.698c0,0.201,0.053,0.372,0.154,0.514c0.104,0.144,0.27,0.276,0.496,0.404
		c0.229,0.129,0.667,0.313,1.315,0.556c0.889,0.324,1.485,0.65,1.792,0.979s0.46,0.742,0.46,1.24c0,0.693-0.26,1.229-0.775,1.604
		s-1.241,0.564-2.175,0.564c-0.992,0-1.767-0.155-2.32-0.466v-1.047c0.359,0.184,0.745,0.326,1.156,0.433
		c0.412,0.104,0.81,0.156,1.19,0.156c0.595,0,1.051-0.095,1.37-0.283c0.319-0.189,0.479-0.479,0.479-0.867
		c0-0.292-0.127-0.542-0.38-0.75c-0.254-0.208-0.748-0.453-1.483-0.736c-0.699-0.261-1.194-0.488-1.487-0.682
		c-0.292-0.194-0.51-0.415-0.652-0.662C276.775,487.999,276.704,487.704,276.704,487.361z"/>
</g>
<g>
	<path fill="#666565" d="M53.914,509.286h1.271l2.64,4.997l2.658-4.997h1.259l-3.337,6.118v3.876h-1.161v-3.821L53.914,509.286z"/>
	<path fill="#666565" d="M61.843,515.596c0-1.208,0.297-2.167,0.89-2.878c0.594-0.711,1.39-1.065,2.39-1.065
		c0.936,0,1.676,0.309,2.221,0.926c0.545,0.618,0.817,1.433,0.817,2.444v0.718h-5.154c0.021,0.88,0.245,1.547,0.668,2.003
		c0.422,0.456,1.017,0.684,1.783,0.684c0.805,0,1.6-0.169,2.386-0.506v1.012c-0.4,0.174-0.778,0.299-1.135,0.372
		c-0.357,0.076-0.787,0.113-1.292,0.113c-1.104,0-1.977-0.337-2.614-1.012S61.843,516.794,61.843,515.596z M63.033,514.816h3.924
		c0-0.717-0.16-1.265-0.479-1.645c-0.318-0.381-0.775-0.571-1.369-0.571c-0.603,0-1.083,0.196-1.44,0.589
		C63.31,513.581,63.096,514.124,63.033,514.816z"/>
	<path fill="#666565" d="M69.554,517.217c0-1.51,1.212-2.301,3.635-2.373l1.273-0.042v-0.47c0-0.596-0.126-1.035-0.379-1.318
		c-0.252-0.283-0.656-0.426-1.211-0.426c-0.623,0-1.328,0.193-2.115,0.581l-0.354-0.871c0.369-0.197,0.773-0.353,1.214-0.465
		c0.439-0.111,0.881-0.168,1.322-0.168c0.894,0,1.555,0.198,1.983,0.595c0.431,0.396,0.646,1.032,0.646,1.907v5.113h-0.841
		l-0.226-1.055h-0.056c-0.372,0.465-0.744,0.779-1.114,0.943c-0.371,0.165-0.834,0.247-1.39,0.247c-0.747,0-1.332-0.19-1.755-0.572
		C69.766,518.463,69.554,517.921,69.554,517.217z M70.757,517.229c0,0.412,0.124,0.727,0.372,0.94
		c0.248,0.216,0.595,0.323,1.04,0.323c0.705,0,1.259-0.194,1.662-0.584c0.401-0.389,0.604-0.935,0.604-1.635v-0.681l-1.133,0.048
		c-0.9,0.032-1.55,0.174-1.948,0.424C70.957,516.315,70.757,516.704,70.757,517.229z"/>
	<path fill="#666565" d="M77.901,519.28v-7.492h0.924l0.139,1.394h0.059c0.278-0.488,0.614-0.865,1.006-1.132
		c0.393-0.266,0.822-0.397,1.292-0.397c0.333,0,0.632,0.026,0.896,0.083l-0.157,1.059c-0.31-0.068-0.583-0.103-0.82-0.103
		c-0.605,0-1.125,0.245-1.555,0.736c-0.432,0.492-0.646,1.104-0.646,1.837v4.017L77.901,519.28L77.901,519.28z"/>
	<path fill="#666565" d="M83.137,513.629c0-0.611,0.248-1.094,0.744-1.447c0.496-0.353,1.177-0.529,2.042-0.529
		c0.802,0,1.585,0.164,2.351,0.491l-0.396,0.925c-0.75-0.312-1.429-0.467-2.037-0.467c-0.539,0-0.945,0.085-1.22,0.255
		c-0.275,0.169-0.411,0.4-0.411,0.697c0,0.201,0.052,0.372,0.153,0.515c0.104,0.143,0.27,0.275,0.496,0.403
		c0.229,0.129,0.667,0.313,1.315,0.557c0.889,0.323,1.486,0.649,1.792,0.979c0.307,0.329,0.46,0.742,0.46,1.24
		c0,0.694-0.259,1.229-0.775,1.604c-0.516,0.376-1.24,0.564-2.175,0.564c-0.992,0-1.766-0.155-2.319-0.465v-1.047
		c0.358,0.183,0.744,0.325,1.155,0.432c0.412,0.104,0.811,0.157,1.191,0.157c0.594,0,1.05-0.095,1.37-0.284
		c0.318-0.189,0.479-0.479,0.479-0.867c0-0.292-0.127-0.542-0.38-0.75c-0.254-0.208-0.748-0.453-1.483-0.735
		c-0.698-0.262-1.193-0.488-1.486-0.683c-0.292-0.194-0.51-0.415-0.653-0.662C83.208,514.267,83.137,513.972,83.137,513.629z"/>
	<path fill="#666565" d="M93.514,515.521c0-1.219,0.305-2.169,0.913-2.849c0.609-0.681,1.454-1.021,2.535-1.021
		c1.046,0,1.876,0.348,2.491,1.044c0.615,0.695,0.924,1.638,0.924,2.825c0,1.224-0.308,2.179-0.92,2.865
		c-0.613,0.688-1.461,1.03-2.542,1.03c-0.669,0-1.263-0.157-1.779-0.473c-0.518-0.314-0.918-0.768-1.199-1.355
		C93.655,517,93.514,516.311,93.514,515.521z M94.676,515.521c0,0.959,0.191,1.69,0.575,2.192c0.383,0.503,0.946,0.754,1.69,0.754
		c0.743,0,1.31-0.25,1.694-0.75s0.578-1.231,0.578-2.195c0-0.955-0.193-1.681-0.578-2.177c-0.386-0.495-0.955-0.742-1.708-0.742
		c-0.744,0-1.306,0.243-1.685,0.732C94.866,513.823,94.676,514.552,94.676,515.521z"/>
	<path fill="#666565" d="M101.382,512.67v-0.513l1.34-0.41v-0.415c0-1.833,0.805-2.75,2.413-2.75c0.396,0,0.861,0.079,1.395,0.235
		l-0.294,0.898c-0.438-0.142-0.812-0.212-1.12-0.212c-0.43,0-0.745,0.143-0.95,0.428c-0.205,0.284-0.309,0.741-0.309,1.37v0.485
		h1.907v0.882h-1.907v6.61h-1.135v-6.61L101.382,512.67L101.382,512.67z"/>
	<path fill="#666565" d="M110.768,519.28v-10.638h1.135v10.638H110.768z"/>
	<path fill="#666565" d="M114.213,509.758c0-0.26,0.059-0.45,0.177-0.571c0.117-0.119,0.265-0.181,0.441-0.181
		c0.195,0,0.364,0.063,0.508,0.186c0.143,0.122,0.214,0.313,0.214,0.566s-0.071,0.445-0.214,0.571
		c-0.144,0.125-0.313,0.188-0.508,0.188c-0.178,0-0.324-0.063-0.441-0.188C114.272,510.203,114.213,510.013,114.213,509.758z
		 M114.309,519.28v-7.492h1.039v7.492H114.309z"/>
	<path fill="#666565" d="M116.845,512.67v-0.513l1.34-0.41v-0.415c0-1.833,0.806-2.75,2.413-2.75c0.396,0,0.861,0.079,1.396,0.235
		l-0.294,0.898c-0.438-0.142-0.813-0.212-1.121-0.212c-0.43,0-0.745,0.143-0.95,0.428c-0.205,0.284-0.309,0.741-0.309,1.37v0.485
		h1.907v0.882h-1.907v6.61h-1.135v-6.61L116.845,512.67L116.845,512.67z"/>
	<path fill="#666565" d="M122.177,515.596c0-1.208,0.297-2.167,0.89-2.878c0.594-0.711,1.39-1.065,2.39-1.065
		c0.936,0,1.676,0.309,2.221,0.926c0.545,0.618,0.817,1.433,0.817,2.444v0.718h-5.154c0.021,0.88,0.245,1.547,0.668,2.003
		c0.422,0.456,1.017,0.684,1.783,0.684c0.805,0,1.6-0.169,2.386-0.506v1.012c-0.4,0.174-0.778,0.299-1.135,0.372
		c-0.357,0.076-0.787,0.113-1.292,0.113c-1.104,0-1.977-0.337-2.614-1.012S122.177,516.794,122.177,515.596z M123.367,514.816h3.924
		c0-0.717-0.16-1.265-0.479-1.645c-0.318-0.381-0.775-0.571-1.369-0.571c-0.603,0-1.083,0.196-1.44,0.589
		C123.644,513.581,123.43,514.124,123.367,514.816z"/>
	<path fill="#666565" d="M134.085,519.28v-10.638h1.135v10.638H134.085z"/>
	<path fill="#666565" d="M137.209,515.521c0-1.219,0.305-2.169,0.913-2.849c0.608-0.681,1.454-1.021,2.535-1.021
		c1.046,0,1.876,0.348,2.49,1.044c0.616,0.695,0.924,1.638,0.924,2.825c0,1.224-0.307,2.179-0.92,2.865
		c-0.612,0.688-1.461,1.03-2.542,1.03c-0.669,0-1.262-0.157-1.778-0.473c-0.519-0.314-0.918-0.768-1.199-1.355
		C137.35,517,137.209,516.311,137.209,515.521z M138.372,515.521c0,0.959,0.19,1.69,0.574,2.192
		c0.384,0.503,0.947,0.754,1.691,0.754c0.743,0,1.309-0.25,1.694-0.75c0.385-0.5,0.578-1.231,0.578-2.195
		c0-0.955-0.193-1.681-0.578-2.177c-0.387-0.495-0.955-0.742-1.708-0.742c-0.744,0-1.307,0.243-1.686,0.732
		C138.561,513.823,138.372,514.552,138.372,515.521z"/>
	<path fill="#666565" d="M145.604,513.629c0-0.611,0.248-1.094,0.744-1.447c0.496-0.353,1.177-0.529,2.042-0.529
		c0.802,0,1.585,0.164,2.352,0.491l-0.396,0.925c-0.75-0.312-1.429-0.467-2.037-0.467c-0.539,0-0.945,0.085-1.22,0.255
		c-0.275,0.169-0.411,0.4-0.411,0.697c0,0.201,0.052,0.372,0.154,0.515s0.269,0.275,0.496,0.403
		c0.229,0.129,0.667,0.313,1.314,0.557c0.89,0.323,1.486,0.649,1.792,0.979c0.308,0.329,0.46,0.742,0.46,1.24
		c0,0.694-0.259,1.229-0.774,1.604c-0.517,0.376-1.241,0.564-2.176,0.564c-0.991,0-1.766-0.155-2.319-0.465v-1.047
		c0.358,0.183,0.745,0.325,1.156,0.432c0.411,0.104,0.81,0.157,1.19,0.157c0.594,0,1.05-0.095,1.37-0.284
		c0.319-0.189,0.479-0.479,0.479-0.867c0-0.292-0.127-0.542-0.38-0.75c-0.254-0.208-0.748-0.453-1.482-0.735
		c-0.699-0.262-1.194-0.488-1.487-0.683c-0.292-0.194-0.51-0.415-0.653-0.662C145.675,514.267,145.604,513.972,145.604,513.629z"/>
	<path fill="#666565" d="M151.77,512.67v-0.547l1.073-0.472l0.479-1.601h0.656v1.736h2.174v0.882h-2.174v4.42
		c0,0.452,0.107,0.799,0.321,1.041s0.508,0.363,0.882,0.363c0.2,0,0.396-0.016,0.581-0.045c0.188-0.029,0.335-0.062,0.444-0.092
		v0.856c-0.123,0.06-0.306,0.106-0.543,0.146c-0.24,0.038-0.455,0.058-0.646,0.058c-1.449,0-2.174-0.764-2.174-2.29v-4.457
		L151.77,512.67L151.77,512.67z"/>
	<path fill="#666565" d="M160.698,515.445c0-1.208,0.18-2.338,0.536-3.392c0.356-1.053,0.869-1.976,1.535-2.769h1.107
		c-0.656,0.88-1.149,1.846-1.479,2.897c-0.331,1.054-0.496,2.136-0.496,3.247c0,1.095,0.169,2.162,0.506,3.206
		c0.338,1.044,0.822,1.996,1.456,2.857h-1.094c-0.671-0.774-1.184-1.68-1.539-2.714
		C160.875,517.747,160.698,516.635,160.698,515.445z"/>
	<path fill="#666565" d="M164.28,509.286h1.271l2.639,4.997l2.659-4.997h1.258l-3.336,6.118v3.876h-1.162v-3.821L164.28,509.286z"/>
	<path fill="#666565" d="M173.495,519.28v-9.994h1.162v8.955h4.408v1.039H173.495z"/>
	<path fill="#666565" d="M180.761,519.28v-9.994h1.162v8.955h4.409v1.039H180.761z"/>
	<path fill="#666565" d="M187.071,509.286h1.107c0.671,0.798,1.184,1.724,1.539,2.779c0.354,1.055,0.532,2.182,0.532,3.38
		c0,1.197-0.18,2.314-0.536,3.35c-0.357,1.035-0.869,1.935-1.535,2.7h-1.094c0.634-0.856,1.119-1.81,1.456-2.854
		c0.337-1.047,0.506-2.115,0.506-3.21c0-1.111-0.165-2.193-0.496-3.247C188.22,511.132,187.727,510.166,187.071,509.286z"/>
	<path fill="#666565" d="M195.007,516.047v-1.039h3.355v1.039H195.007z"/>
	<path fill="#666565" d="M203.949,519.28v-9.994h5.57v1.039h-4.409v3.649h4.144v1.039h-4.144v4.267H203.949z"/>
	<path fill="#666565" d="M210.443,517.217c0-1.51,1.212-2.301,3.636-2.373l1.272-0.042v-0.47c0-0.596-0.126-1.035-0.379-1.318
		c-0.252-0.283-0.656-0.426-1.211-0.426c-0.623,0-1.328,0.193-2.115,0.581l-0.353-0.871c0.369-0.197,0.772-0.353,1.213-0.465
		c0.439-0.111,0.881-0.168,1.323-0.168c0.893,0,1.554,0.198,1.982,0.595c0.432,0.396,0.646,1.032,0.646,1.907v5.113h-0.841
		l-0.227-1.055h-0.055c-0.373,0.465-0.745,0.779-1.115,0.943c-0.371,0.165-0.834,0.247-1.389,0.247c-0.747,0-1.332-0.19-1.755-0.572
		C210.655,518.463,210.443,517.921,210.443,517.217z M211.646,517.229c0,0.412,0.124,0.727,0.372,0.94
		c0.248,0.216,0.595,0.323,1.04,0.323c0.705,0,1.259-0.194,1.662-0.584c0.402-0.389,0.604-0.935,0.604-1.635v-0.681l-1.134,0.048
		c-0.899,0.032-1.55,0.174-1.947,0.424C211.845,516.315,211.646,516.704,211.646,517.229z"/>
	<path fill="#666565" d="M217.798,512.67v-0.547l1.073-0.472l0.479-1.601h0.656v1.736h2.174v0.882h-2.174v4.42
		c0,0.452,0.106,0.799,0.321,1.041c0.214,0.242,0.508,0.363,0.882,0.363c0.2,0,0.395-0.016,0.581-0.045s0.335-0.062,0.443-0.092
		v0.856c-0.123,0.06-0.305,0.106-0.543,0.146c-0.239,0.038-0.455,0.058-0.646,0.058c-1.449,0-2.174-0.764-2.174-2.29v-4.457
		L217.798,512.67L217.798,512.67z"/>
	<path fill="#666565" d="M223.171,517.217c0-1.51,1.212-2.301,3.635-2.373l1.273-0.042v-0.47c0-0.596-0.126-1.035-0.379-1.318
		s-0.656-0.426-1.212-0.426c-0.622,0-1.327,0.193-2.114,0.581l-0.354-0.871c0.369-0.197,0.773-0.353,1.213-0.465
		c0.44-0.111,0.881-0.168,1.323-0.168c0.894,0,1.554,0.198,1.983,0.595c0.431,0.396,0.646,1.032,0.646,1.907v5.113h-0.841
		l-0.226-1.055h-0.056c-0.373,0.465-0.745,0.779-1.114,0.943c-0.371,0.165-0.835,0.247-1.39,0.247c-0.747,0-1.332-0.19-1.755-0.572
		C223.383,518.463,223.171,517.921,223.171,517.217z M224.375,517.229c0,0.412,0.124,0.727,0.372,0.94
		c0.248,0.216,0.595,0.323,1.04,0.323c0.705,0,1.259-0.194,1.662-0.584c0.401-0.389,0.604-0.935,0.604-1.635v-0.681l-1.133,0.048
		c-0.9,0.032-1.55,0.174-1.948,0.424C224.574,516.315,224.375,516.704,224.375,517.229z"/>
	<path fill="#666565" d="M231.518,519.28v-10.638h1.135v10.638H231.518z"/>
	<path fill="#666565" d="M238.6,509.758c0-0.26,0.06-0.45,0.177-0.571c0.117-0.119,0.266-0.181,0.441-0.181
		c0.196,0,0.365,0.063,0.508,0.186c0.144,0.122,0.214,0.313,0.214,0.566s-0.07,0.445-0.214,0.571
		c-0.143,0.125-0.312,0.188-0.508,0.188c-0.177,0-0.324-0.063-0.441-0.188C238.659,510.203,238.6,510.013,238.6,509.758z
		 M238.696,519.28v-7.492h1.039v7.492H238.696z"/>
	<path fill="#666565" d="M242.237,519.28v-10.638h1.136v10.638H242.237z"/>
	<path fill="#666565" d="M245.778,519.28v-10.638h1.136v10.638H245.778z"/>
	<path fill="#666565" d="M249.319,519.28v-7.492h0.924l0.185,1.012h0.055c0.232-0.363,0.56-0.646,0.979-0.848s0.887-0.301,1.4-0.301
		c0.902,0,1.581,0.218,2.037,0.651c0.456,0.437,0.685,1.132,0.685,2.089v4.889h-1.136v-4.856c0-0.612-0.139-1.067-0.417-1.37
		c-0.277-0.302-0.713-0.452-1.306-0.452c-0.784,0-1.357,0.212-1.723,0.638c-0.365,0.425-0.547,1.126-0.547,2.104v3.938
		L249.319,519.28L249.319,519.28z"/>
	<path fill="#666565" d="M257.495,515.596c0-1.208,0.297-2.167,0.89-2.878s1.389-1.065,2.389-1.065c0.937,0,1.677,0.309,2.222,0.926
		c0.545,0.618,0.816,1.433,0.816,2.444v0.718h-5.153c0.021,0.88,0.244,1.547,0.668,2.003c0.422,0.456,1.017,0.684,1.782,0.684
		c0.806,0,1.601-0.169,2.387-0.506v1.012c-0.4,0.174-0.778,0.299-1.136,0.372c-0.356,0.076-0.787,0.113-1.292,0.113
		c-1.104,0-1.976-0.337-2.613-1.012C257.816,517.731,257.495,516.794,257.495,515.596z M258.684,514.816h3.924
		c0-0.717-0.16-1.265-0.479-1.645c-0.319-0.381-0.776-0.571-1.369-0.571c-0.603,0-1.083,0.196-1.441,0.589
		C258.961,513.581,258.748,514.124,258.684,514.816z"/>
	<path fill="#666565" d="M265.288,513.629c0-0.611,0.248-1.094,0.743-1.447c0.496-0.353,1.178-0.529,2.042-0.529
		c0.803,0,1.586,0.164,2.352,0.491l-0.396,0.925c-0.75-0.312-1.429-0.467-2.036-0.467c-0.539,0-0.945,0.085-1.221,0.255
		c-0.274,0.169-0.411,0.4-0.411,0.697c0,0.201,0.053,0.372,0.154,0.515c0.104,0.143,0.27,0.275,0.496,0.403
		c0.229,0.129,0.667,0.313,1.315,0.557c0.889,0.323,1.485,0.649,1.792,0.979s0.46,0.742,0.46,1.24c0,0.694-0.26,1.229-0.775,1.604
		s-1.241,0.564-2.175,0.564c-0.992,0-1.767-0.155-2.32-0.465v-1.047c0.359,0.183,0.745,0.325,1.156,0.432
		c0.412,0.104,0.81,0.157,1.19,0.157c0.595,0,1.051-0.095,1.37-0.284s0.479-0.479,0.479-0.867c0-0.292-0.127-0.542-0.38-0.75
		c-0.254-0.208-0.748-0.453-1.483-0.735c-0.699-0.262-1.194-0.488-1.487-0.683c-0.292-0.194-0.51-0.415-0.652-0.662
		C265.359,514.267,265.288,513.972,265.288,513.629z"/>
	<path fill="#666565" d="M271.966,513.629c0-0.611,0.248-1.094,0.744-1.447c0.496-0.353,1.177-0.529,2.042-0.529
		c0.802,0,1.585,0.164,2.351,0.491l-0.396,0.925c-0.75-0.312-1.43-0.467-2.037-0.467c-0.539,0-0.945,0.085-1.22,0.255
		c-0.275,0.169-0.411,0.4-0.411,0.697c0,0.201,0.052,0.372,0.153,0.515c0.104,0.143,0.27,0.275,0.496,0.403
		c0.229,0.129,0.667,0.313,1.315,0.557c0.889,0.323,1.485,0.649,1.792,0.979s0.46,0.742,0.46,1.24c0,0.694-0.259,1.229-0.775,1.604
		c-0.516,0.376-1.241,0.564-2.175,0.564c-0.992,0-1.766-0.155-2.32-0.465v-1.047c0.359,0.183,0.745,0.325,1.156,0.432
		c0.412,0.104,0.811,0.157,1.191,0.157c0.594,0,1.05-0.095,1.37-0.284c0.318-0.189,0.479-0.479,0.479-0.867
		c0-0.292-0.127-0.542-0.38-0.75c-0.254-0.208-0.748-0.453-1.483-0.735c-0.698-0.262-1.193-0.488-1.486-0.683
		c-0.292-0.194-0.511-0.415-0.653-0.662C272.038,514.267,271.966,513.972,271.966,513.629z"/>
	<path fill="#666565" d="M278.707,515.596c0-1.208,0.297-2.167,0.89-2.878s1.389-1.065,2.389-1.065c0.937,0,1.677,0.309,2.222,0.926
		c0.545,0.618,0.816,1.433,0.816,2.444v0.718h-5.153c0.021,0.88,0.245,1.547,0.668,2.003c0.422,0.456,1.017,0.684,1.782,0.684
		c0.806,0,1.601-0.169,2.387-0.506v1.012c-0.4,0.174-0.778,0.299-1.136,0.372c-0.356,0.076-0.786,0.113-1.292,0.113
		c-1.104,0-1.976-0.337-2.613-1.012C279.028,517.731,278.707,516.794,278.707,515.596z M279.896,514.816h3.924
		c0-0.717-0.159-1.265-0.479-1.645c-0.319-0.381-0.776-0.571-1.369-0.571c-0.603,0-1.083,0.196-1.441,0.589
		C280.173,513.581,279.959,514.124,279.896,514.816z"/>
	<path fill="#666565" d="M286.5,513.629c0-0.611,0.248-1.094,0.744-1.447c0.495-0.353,1.177-0.529,2.042-0.529
		c0.802,0,1.585,0.164,2.351,0.491l-0.396,0.925c-0.75-0.312-1.43-0.467-2.037-0.467c-0.539,0-0.945,0.085-1.221,0.255
		c-0.274,0.169-0.411,0.4-0.411,0.697c0,0.201,0.053,0.372,0.154,0.515c0.104,0.143,0.27,0.275,0.496,0.403
		c0.229,0.129,0.667,0.313,1.315,0.557c0.889,0.323,1.485,0.649,1.792,0.979s0.46,0.742,0.46,1.24c0,0.694-0.26,1.229-0.775,1.604
		s-1.241,0.564-2.175,0.564c-0.992,0-1.766-0.155-2.32-0.465v-1.047c0.359,0.183,0.745,0.325,1.156,0.432
		c0.412,0.104,0.81,0.157,1.191,0.157c0.594,0,1.05-0.095,1.369-0.284s0.479-0.479,0.479-0.867c0-0.292-0.127-0.542-0.38-0.75
		c-0.254-0.208-0.748-0.453-1.483-0.735c-0.699-0.262-1.193-0.488-1.486-0.683c-0.292-0.194-0.511-0.415-0.653-0.662
		C286.571,514.267,286.5,513.972,286.5,513.629z"/>
</g>
<g>
	<path fill="#666565" d="M53.914,535.277h1.271l2.64,4.997l2.658-4.997h1.259l-3.337,6.117v3.876h-1.161v-3.82L53.914,535.277z"/>
	<path fill="#666565" d="M61.843,541.587c0-1.208,0.297-2.167,0.89-2.878c0.594-0.711,1.39-1.066,2.39-1.066
		c0.936,0,1.676,0.31,2.221,0.927s0.817,1.433,0.817,2.443v0.719h-5.154c0.021,0.88,0.245,1.547,0.668,2.003
		c0.422,0.456,1.017,0.684,1.783,0.684c0.805,0,1.6-0.169,2.386-0.506v1.012c-0.4,0.173-0.778,0.298-1.135,0.372
		c-0.357,0.076-0.787,0.113-1.292,0.113c-1.104,0-1.977-0.337-2.614-1.012C62.164,543.722,61.843,542.785,61.843,541.587z
		 M63.033,540.808h3.924c0-0.716-0.16-1.264-0.479-1.644c-0.318-0.381-0.775-0.571-1.369-0.571c-0.603,0-1.083,0.196-1.44,0.588
		C63.31,539.573,63.096,540.115,63.033,540.808z"/>
	<path fill="#666565" d="M69.554,543.208c0-1.51,1.212-2.301,3.635-2.373l1.273-0.042v-0.47c0-0.596-0.126-1.035-0.379-1.318
		c-0.252-0.284-0.656-0.426-1.211-0.426c-0.623,0-1.328,0.193-2.115,0.581l-0.354-0.871c0.369-0.197,0.773-0.353,1.214-0.465
		c0.439-0.111,0.881-0.168,1.322-0.168c0.894,0,1.555,0.198,1.983,0.595c0.431,0.396,0.646,1.032,0.646,1.907v5.112h-0.841
		l-0.226-1.054h-0.056c-0.372,0.464-0.744,0.779-1.114,0.943c-0.371,0.165-0.834,0.247-1.39,0.247c-0.747,0-1.332-0.19-1.755-0.572
		C69.766,544.454,69.554,543.912,69.554,543.208z M70.757,543.222c0,0.412,0.124,0.727,0.372,0.94
		c0.248,0.216,0.595,0.323,1.04,0.323c0.705,0,1.259-0.194,1.662-0.584c0.401-0.39,0.604-0.935,0.604-1.636v-0.68l-1.133,0.048
		c-0.9,0.032-1.55,0.173-1.948,0.423C70.957,542.307,70.757,542.695,70.757,543.222z"/>
	<path fill="#666565" d="M77.901,545.271v-7.491h0.924l0.139,1.394h0.059c0.278-0.489,0.614-0.866,1.006-1.132
		c0.393-0.266,0.822-0.398,1.292-0.398c0.333,0,0.632,0.027,0.896,0.083l-0.157,1.06c-0.31-0.068-0.583-0.104-0.82-0.104
		c-0.605,0-1.125,0.246-1.555,0.737c-0.432,0.492-0.646,1.104-0.646,1.837v4.016L77.901,545.271L77.901,545.271z"/>
	<path fill="#666565" d="M83.137,539.62c0-0.611,0.248-1.094,0.744-1.447c0.496-0.353,1.177-0.53,2.042-0.53
		c0.802,0,1.585,0.164,2.351,0.492l-0.396,0.924c-0.75-0.311-1.429-0.466-2.037-0.466c-0.539,0-0.945,0.085-1.22,0.254
		c-0.275,0.169-0.411,0.401-0.411,0.698c0,0.201,0.052,0.372,0.153,0.514c0.104,0.144,0.27,0.276,0.496,0.404
		c0.229,0.129,0.667,0.313,1.315,0.556c0.889,0.324,1.486,0.65,1.792,0.979c0.307,0.329,0.46,0.742,0.46,1.24
		c0,0.693-0.259,1.229-0.775,1.604c-0.516,0.376-1.24,0.564-2.175,0.564c-0.992,0-1.766-0.155-2.319-0.465v-1.048
		c0.358,0.184,0.744,0.326,1.155,0.433c0.412,0.104,0.811,0.157,1.191,0.157c0.594,0,1.05-0.096,1.37-0.284
		c0.318-0.189,0.479-0.479,0.479-0.867c0-0.292-0.127-0.542-0.38-0.75c-0.254-0.208-0.748-0.453-1.483-0.736
		c-0.698-0.261-1.193-0.487-1.486-0.682c-0.292-0.194-0.51-0.415-0.653-0.662C83.208,540.258,83.137,539.963,83.137,539.62z"/>
	<path fill="#666565" d="M93.514,541.512c0-1.219,0.305-2.169,0.913-2.849c0.609-0.681,1.454-1.021,2.535-1.021
		c1.046,0,1.876,0.349,2.491,1.045c0.615,0.695,0.924,1.638,0.924,2.824c0,1.225-0.308,2.18-0.92,2.866
		c-0.613,0.688-1.461,1.03-2.542,1.03c-0.669,0-1.263-0.157-1.779-0.473c-0.518-0.314-0.918-0.768-1.199-1.355
		C93.655,542.991,93.514,542.302,93.514,541.512z M94.676,541.512c0,0.959,0.191,1.69,0.575,2.192
		c0.383,0.503,0.946,0.754,1.69,0.754c0.743,0,1.31-0.25,1.694-0.75s0.578-1.232,0.578-2.196c0-0.955-0.193-1.68-0.578-2.176
		c-0.386-0.495-0.955-0.743-1.708-0.743c-0.744,0-1.306,0.244-1.685,0.733C94.866,539.814,94.676,540.543,94.676,541.512z"/>
	<path fill="#666565" d="M101.382,538.661v-0.513l1.34-0.41v-0.415c0-1.833,0.805-2.75,2.413-2.75c0.396,0,0.861,0.079,1.395,0.234
		l-0.294,0.899c-0.438-0.142-0.812-0.212-1.12-0.212c-0.43,0-0.745,0.143-0.95,0.428c-0.205,0.284-0.309,0.741-0.309,1.37v0.485
		h1.907v0.882h-1.907v6.61h-1.135v-6.61L101.382,538.661L101.382,538.661z"/>
	<path fill="#666565" d="M110.768,545.271v-10.637h1.135v10.637H110.768z"/>
	<path fill="#666565" d="M114.213,535.749c0-0.26,0.059-0.45,0.177-0.571c0.117-0.12,0.265-0.181,0.441-0.181
		c0.195,0,0.364,0.062,0.508,0.185c0.143,0.123,0.214,0.313,0.214,0.567s-0.071,0.445-0.214,0.571
		c-0.144,0.125-0.313,0.188-0.508,0.188c-0.178,0-0.324-0.063-0.441-0.188C114.272,536.194,114.213,536.004,114.213,535.749z
		 M114.309,545.271v-7.491h1.039v7.491H114.309z"/>
	<path fill="#666565" d="M116.845,538.661v-0.513l1.34-0.41v-0.415c0-1.833,0.806-2.75,2.413-2.75c0.396,0,0.861,0.079,1.396,0.234
		l-0.294,0.899c-0.438-0.142-0.813-0.212-1.121-0.212c-0.43,0-0.745,0.143-0.95,0.428c-0.205,0.284-0.309,0.741-0.309,1.37v0.485
		h1.907v0.882h-1.907v6.61h-1.135v-6.61L116.845,538.661L116.845,538.661z"/>
	<path fill="#666565" d="M122.177,541.587c0-1.208,0.297-2.167,0.89-2.878c0.594-0.711,1.39-1.066,2.39-1.066
		c0.936,0,1.676,0.31,2.221,0.927s0.817,1.433,0.817,2.443v0.719h-5.154c0.021,0.88,0.245,1.547,0.668,2.003
		c0.422,0.456,1.017,0.684,1.783,0.684c0.805,0,1.6-0.169,2.386-0.506v1.012c-0.4,0.173-0.778,0.298-1.135,0.372
		c-0.357,0.076-0.787,0.113-1.292,0.113c-1.104,0-1.977-0.337-2.614-1.012C122.498,543.722,122.177,542.785,122.177,541.587z
		 M123.367,540.808h3.924c0-0.716-0.16-1.264-0.479-1.644c-0.318-0.381-0.775-0.571-1.369-0.571c-0.603,0-1.083,0.196-1.44,0.588
		C123.644,539.573,123.43,540.115,123.367,540.808z"/>
	<path fill="#666565" d="M134.085,545.271v-10.637h1.135v10.637H134.085z"/>
	<path fill="#666565" d="M137.209,541.512c0-1.219,0.305-2.169,0.913-2.849c0.608-0.681,1.454-1.021,2.535-1.021
		c1.046,0,1.876,0.349,2.49,1.045c0.616,0.695,0.924,1.638,0.924,2.824c0,1.225-0.307,2.18-0.92,2.866
		c-0.612,0.688-1.461,1.03-2.542,1.03c-0.669,0-1.262-0.157-1.778-0.473c-0.519-0.314-0.918-0.768-1.199-1.355
		C137.35,542.991,137.209,542.302,137.209,541.512z M138.372,541.512c0,0.959,0.19,1.69,0.574,2.192
		c0.384,0.503,0.947,0.754,1.691,0.754c0.743,0,1.309-0.25,1.694-0.75c0.385-0.5,0.578-1.232,0.578-2.196
		c0-0.955-0.193-1.68-0.578-2.176c-0.387-0.495-0.955-0.743-1.708-0.743c-0.744,0-1.307,0.244-1.686,0.733
		C138.561,539.814,138.372,540.543,138.372,541.512z"/>
	<path fill="#666565" d="M145.604,539.62c0-0.611,0.248-1.094,0.744-1.447c0.496-0.353,1.177-0.53,2.042-0.53
		c0.802,0,1.585,0.164,2.352,0.492l-0.396,0.924c-0.75-0.311-1.429-0.466-2.037-0.466c-0.539,0-0.945,0.085-1.22,0.254
		c-0.275,0.169-0.411,0.401-0.411,0.698c0,0.201,0.052,0.372,0.154,0.514c0.103,0.144,0.269,0.276,0.496,0.404
		c0.229,0.129,0.667,0.313,1.314,0.556c0.89,0.324,1.486,0.65,1.792,0.979c0.308,0.329,0.46,0.742,0.46,1.24
		c0,0.693-0.259,1.229-0.774,1.604c-0.517,0.376-1.241,0.564-2.176,0.564c-0.991,0-1.766-0.155-2.319-0.465v-1.048
		c0.358,0.184,0.745,0.326,1.156,0.433c0.411,0.104,0.81,0.157,1.19,0.157c0.594,0,1.05-0.096,1.37-0.284
		c0.319-0.189,0.479-0.479,0.479-0.867c0-0.292-0.127-0.542-0.38-0.75c-0.254-0.208-0.748-0.453-1.482-0.736
		c-0.699-0.261-1.194-0.487-1.487-0.682c-0.292-0.194-0.51-0.415-0.653-0.662C145.675,540.258,145.604,539.963,145.604,539.62z"/>
	<path fill="#666565" d="M151.77,538.661v-0.547l1.073-0.473l0.479-1.6h0.656v1.736h2.174v0.882h-2.174v4.42
		c0,0.452,0.107,0.799,0.321,1.041s0.508,0.363,0.882,0.363c0.2,0,0.396-0.016,0.581-0.045c0.188-0.029,0.335-0.062,0.444-0.093
		v0.857c-0.123,0.059-0.306,0.106-0.543,0.145c-0.24,0.038-0.455,0.059-0.646,0.059c-1.449,0-2.174-0.764-2.174-2.29v-4.457
		L151.77,538.661L151.77,538.661z"/>
	<path fill="#666565" d="M160.698,541.437c0-1.207,0.18-2.338,0.536-3.391s0.869-1.976,1.535-2.769h1.107
		c-0.656,0.88-1.149,1.846-1.479,2.897c-0.331,1.053-0.496,2.135-0.496,3.247c0,1.094,0.169,2.162,0.506,3.206
		c0.338,1.044,0.822,1.996,1.456,2.857h-1.094c-0.671-0.774-1.184-1.681-1.539-2.714
		C160.875,543.738,160.698,542.626,160.698,541.437z"/>
	<path fill="#666565" d="M164.28,535.277h1.271l2.639,4.997l2.659-4.997h1.258l-3.336,6.117v3.876h-1.162v-3.82L164.28,535.277z"/>
	<path fill="#666565" d="M173.495,545.271v-9.993h1.162v8.955h4.408v1.038H173.495z"/>
	<path fill="#666565" d="M180.761,545.271v-9.993h1.162v8.955h4.409v1.038H180.761z"/>
	<path fill="#666565" d="M187.071,535.277h1.107c0.671,0.798,1.184,1.724,1.539,2.778c0.354,1.056,0.532,2.183,0.532,3.38
		c0,1.198-0.18,2.315-0.536,3.351c-0.357,1.035-0.869,1.935-1.535,2.7h-1.094c0.634-0.856,1.119-1.81,1.456-2.854
		c0.337-1.047,0.506-2.116,0.506-3.21c0-1.112-0.165-2.194-0.496-3.247C188.22,537.123,187.727,536.157,187.071,535.277z"/>
	<path fill="#666565" d="M195.007,542.038v-1.039h3.355v1.039H195.007z"/>
	<path fill="#666565" d="M203.949,545.271v-9.993h5.57v1.039h-4.409v3.649h4.144v1.039h-4.144v4.266H203.949z"/>
	<path fill="#666565" d="M210.443,543.208c0-1.51,1.212-2.301,3.636-2.373l1.272-0.042v-0.47c0-0.596-0.126-1.035-0.379-1.318
		c-0.252-0.284-0.656-0.426-1.211-0.426c-0.623,0-1.328,0.193-2.115,0.581l-0.353-0.871c0.369-0.197,0.772-0.353,1.213-0.465
		c0.439-0.111,0.881-0.168,1.323-0.168c0.893,0,1.554,0.198,1.982,0.595c0.432,0.396,0.646,1.032,0.646,1.907v5.112h-0.841
		l-0.227-1.054h-0.055c-0.373,0.464-0.745,0.779-1.115,0.943c-0.371,0.165-0.834,0.247-1.389,0.247c-0.747,0-1.332-0.19-1.755-0.572
		C210.655,544.454,210.443,543.912,210.443,543.208z M211.646,543.222c0,0.412,0.124,0.727,0.372,0.94
		c0.248,0.216,0.595,0.323,1.04,0.323c0.705,0,1.259-0.194,1.662-0.584c0.402-0.39,0.604-0.935,0.604-1.636v-0.68l-1.134,0.048
		c-0.899,0.032-1.55,0.173-1.947,0.423C211.845,542.307,211.646,542.695,211.646,543.222z"/>
	<path fill="#666565" d="M217.798,538.661v-0.547l1.073-0.473l0.479-1.6h0.656v1.736h2.174v0.882h-2.174v4.42
		c0,0.452,0.106,0.799,0.321,1.041c0.214,0.242,0.508,0.363,0.882,0.363c0.2,0,0.395-0.016,0.581-0.045s0.335-0.062,0.443-0.093
		v0.857c-0.123,0.059-0.305,0.106-0.543,0.145c-0.239,0.038-0.455,0.059-0.646,0.059c-1.449,0-2.174-0.764-2.174-2.29v-4.457
		L217.798,538.661L217.798,538.661z"/>
	<path fill="#666565" d="M223.171,543.208c0-1.51,1.212-2.301,3.635-2.373l1.273-0.042v-0.47c0-0.596-0.126-1.035-0.379-1.318
		c-0.253-0.284-0.656-0.426-1.212-0.426c-0.622,0-1.327,0.193-2.114,0.581l-0.354-0.871c0.369-0.197,0.773-0.353,1.213-0.465
		c0.44-0.111,0.881-0.168,1.323-0.168c0.894,0,1.554,0.198,1.983,0.595c0.431,0.396,0.646,1.032,0.646,1.907v5.112h-0.841
		l-0.226-1.054h-0.056c-0.373,0.464-0.745,0.779-1.114,0.943c-0.371,0.165-0.835,0.247-1.39,0.247c-0.747,0-1.332-0.19-1.755-0.572
		C223.383,544.454,223.171,543.912,223.171,543.208z M224.375,543.222c0,0.412,0.124,0.727,0.372,0.94
		c0.248,0.216,0.595,0.323,1.04,0.323c0.705,0,1.259-0.194,1.662-0.584c0.401-0.39,0.604-0.935,0.604-1.636v-0.68l-1.133,0.048
		c-0.9,0.032-1.55,0.173-1.948,0.423C224.574,542.307,224.375,542.695,224.375,543.222z"/>
	<path fill="#666565" d="M231.518,545.271v-10.637h1.135v10.637H231.518z"/>
	<path fill="#666565" d="M238.6,535.749c0-0.26,0.06-0.45,0.177-0.571c0.117-0.12,0.266-0.181,0.441-0.181
		c0.196,0,0.365,0.062,0.508,0.185c0.144,0.123,0.214,0.313,0.214,0.567s-0.07,0.445-0.214,0.571
		c-0.143,0.125-0.312,0.188-0.508,0.188c-0.177,0-0.324-0.063-0.441-0.188C238.659,536.194,238.6,536.004,238.6,535.749z
		 M238.696,545.271v-7.491h1.039v7.491H238.696z"/>
	<path fill="#666565" d="M242.237,545.271v-7.491h0.924l0.185,1.012h0.055c0.232-0.364,0.56-0.647,0.979-0.848
		c0.419-0.201,0.887-0.302,1.4-0.302c0.902,0,1.581,0.219,2.037,0.652c0.456,0.436,0.685,1.132,0.685,2.089v4.888h-1.135v-4.855
		c0-0.612-0.14-1.068-0.418-1.37c-0.277-0.302-0.713-0.452-1.306-0.452c-0.784,0-1.357,0.212-1.723,0.637
		c-0.365,0.426-0.547,1.126-0.547,2.104v3.938L242.237,545.271L242.237,545.271z"/>
	<path fill="#666565" d="M248.868,547.548c0.313,0.091,0.624,0.137,0.93,0.137c0.354,0,0.616-0.097,0.782-0.291
		c0.167-0.192,0.25-0.488,0.25-0.886v-8.729h1.135v8.641c0,1.478-0.682,2.215-2.044,2.215c-0.434,0-0.784-0.057-1.053-0.17V547.548
		L248.868,547.548z M250.734,535.749c0-0.26,0.063-0.45,0.191-0.571c0.128-0.12,0.287-0.181,0.479-0.181
		c0.208,0,0.389,0.062,0.539,0.185c0.151,0.123,0.228,0.313,0.228,0.567s-0.075,0.445-0.228,0.571
		c-0.15,0.125-0.331,0.188-0.539,0.188c-0.19,0-0.351-0.063-0.479-0.188C250.797,536.194,250.734,536.004,250.734,535.749z"/>
	<path fill="#666565" d="M254.289,542.681v-4.9h1.162v4.859c0,0.61,0.139,1.066,0.416,1.367c0.276,0.301,0.712,0.451,1.304,0.451
		c0.782,0,1.354-0.214,1.716-0.643c0.362-0.43,0.543-1.129,0.543-2.1v-3.938h1.135v7.492h-0.923l-0.176-1.006h-0.063
		c-0.231,0.369-0.554,0.651-0.966,0.849c-0.411,0.195-0.881,0.294-1.409,0.294c-0.915,0-1.601-0.217-2.056-0.649
		C254.517,544.326,254.289,543.633,254.289,542.681z"/>
	<path fill="#666565" d="M262.963,545.271v-7.491h0.923l0.139,1.394h0.06c0.277-0.489,0.614-0.866,1.006-1.132
		s0.822-0.398,1.292-0.398c0.333,0,0.631,0.027,0.896,0.083l-0.156,1.06c-0.311-0.068-0.583-0.104-0.82-0.104
		c-0.606,0-1.125,0.246-1.555,0.737c-0.433,0.492-0.646,1.104-0.646,1.837v4.016L262.963,545.271L262.963,545.271z"/>
	<path fill="#666565" d="M268.583,535.749c0-0.26,0.059-0.45,0.177-0.571c0.117-0.12,0.265-0.181,0.441-0.181
		c0.195,0,0.364,0.062,0.508,0.185c0.143,0.123,0.214,0.313,0.214,0.567s-0.071,0.445-0.214,0.571
		c-0.144,0.125-0.313,0.188-0.508,0.188c-0.178,0-0.324-0.063-0.441-0.188C268.641,536.194,268.583,536.004,268.583,535.749z
		 M268.678,545.271v-7.491h1.039v7.491H268.678z"/>
	<path fill="#666565" d="M271.802,541.587c0-1.208,0.297-2.167,0.89-2.878c0.594-0.711,1.39-1.066,2.39-1.066
		c0.936,0,1.676,0.31,2.221,0.927s0.817,1.433,0.817,2.443v0.719h-5.154c0.021,0.88,0.245,1.547,0.668,2.003
		c0.422,0.456,1.017,0.684,1.783,0.684c0.805,0,1.6-0.169,2.386-0.506v1.012c-0.4,0.173-0.778,0.298-1.135,0.372
		c-0.357,0.076-0.787,0.113-1.292,0.113c-1.104,0-1.977-0.337-2.614-1.012C272.123,543.722,271.802,542.785,271.802,541.587z
		 M272.992,540.808h3.924c0-0.716-0.16-1.264-0.479-1.644c-0.318-0.381-0.775-0.571-1.369-0.571c-0.603,0-1.083,0.196-1.44,0.588
		C273.269,539.573,273.055,540.115,272.992,540.808z"/>
	<path fill="#666565" d="M279.595,539.62c0-0.611,0.248-1.094,0.744-1.447c0.496-0.353,1.177-0.53,2.042-0.53
		c0.802,0,1.585,0.164,2.351,0.492l-0.396,0.924c-0.75-0.311-1.429-0.466-2.037-0.466c-0.539,0-0.945,0.085-1.22,0.254
		c-0.275,0.169-0.411,0.401-0.411,0.698c0,0.201,0.052,0.372,0.153,0.514c0.104,0.144,0.27,0.276,0.496,0.404
		c0.229,0.129,0.667,0.313,1.315,0.556c0.889,0.324,1.486,0.65,1.792,0.979c0.307,0.329,0.46,0.742,0.46,1.24
		c0,0.693-0.259,1.229-0.775,1.604c-0.516,0.376-1.24,0.564-2.175,0.564c-0.992,0-1.766-0.155-2.32-0.465v-1.048
		c0.359,0.184,0.745,0.326,1.156,0.433c0.412,0.104,0.811,0.157,1.191,0.157c0.594,0,1.05-0.096,1.37-0.284
		c0.318-0.189,0.479-0.479,0.479-0.867c0-0.292-0.127-0.542-0.38-0.75c-0.254-0.208-0.748-0.453-1.483-0.736
		c-0.698-0.261-1.193-0.487-1.486-0.682c-0.292-0.194-0.51-0.415-0.653-0.662C279.667,540.258,279.595,539.963,279.595,539.62z"/>
</g>
<g>
	<path fill="#666565" d="M75.64,38.751l2.648-2.044h0.979v9.994h-1.135v-7.123c0-0.592,0.019-1.153,0.056-1.682
		c-0.096,0.096-0.203,0.196-0.32,0.301c-0.119,0.104-0.661,0.549-1.627,1.333L75.64,38.751z"/>
	<path fill="#666565" d="M83.069,44.152c0-1.144,0.702-2.035,2.104-2.673c-0.636-0.355-1.092-0.739-1.369-1.152
		s-0.415-0.874-0.415-1.384c0-0.725,0.27-1.302,0.808-1.733c0.539-0.431,1.261-0.646,2.163-0.646c0.915,0,1.64,0.212,2.175,0.636
		c0.534,0.424,0.803,1.009,0.803,1.757c0,0.492-0.154,0.941-0.461,1.347c-0.308,0.406-0.798,0.775-1.473,1.107
		c0.815,0.387,1.396,0.794,1.739,1.22c0.344,0.426,0.517,0.919,0.517,1.48c0,0.83-0.291,1.491-0.871,1.986
		c-0.58,0.495-1.376,0.742-2.387,0.742c-1.069,0-1.893-0.233-2.469-0.701C83.357,45.67,83.069,45.009,83.069,44.152z M84.204,44.179
		c0,0.547,0.189,0.973,0.569,1.278s0.914,0.458,1.602,0.458c0.678,0,1.206-0.16,1.583-0.479s0.565-0.756,0.565-1.313
		c0-0.442-0.178-0.835-0.531-1.179c-0.355-0.344-0.975-0.678-1.856-1.001c-0.678,0.292-1.169,0.614-1.475,0.967
		C84.356,43.264,84.204,43.687,84.204,44.179z M84.525,38.991c0,0.419,0.135,0.779,0.402,1.08c0.269,0.301,0.764,0.602,1.488,0.902
		c0.649-0.273,1.11-0.567,1.382-0.882c0.271-0.314,0.406-0.681,0.406-1.101c0-0.46-0.165-0.826-0.495-1.097
		s-0.784-0.407-1.361-0.407c-0.569,0-1.014,0.137-1.337,0.41C84.687,38.17,84.525,38.535,84.525,38.991z"/>
	<path fill="#666565" d="M91.402,45.977c0-0.305,0.069-0.537,0.208-0.694c0.14-0.157,0.338-0.236,0.599-0.236
		c0.264,0,0.471,0.079,0.619,0.236c0.147,0.157,0.222,0.389,0.222,0.694c0,0.296-0.075,0.524-0.226,0.684
		c-0.151,0.16-0.355,0.239-0.615,0.239c-0.232,0-0.425-0.072-0.578-0.215S91.402,46.305,91.402,45.977z"/>
	<path fill="#666565" d="M94.998,46.291v-1.098c0.318,0.205,0.715,0.365,1.188,0.48c0.475,0.115,0.941,0.174,1.401,0.174
		c0.802,0,1.425-0.188,1.87-0.565c0.444-0.377,0.667-0.922,0.667-1.636c0-1.39-0.855-2.085-2.566-2.085
		c-0.433,0-1.013,0.066-1.738,0.198l-0.588-0.376l0.38-4.675h4.971v1.039h-4.001l-0.253,3.008c0.523-0.096,1.046-0.144,1.565-0.144
		c1.054,0,1.882,0.259,2.486,0.777c0.604,0.518,0.906,1.228,0.906,2.128c0,1.037-0.329,1.85-0.988,2.438s-1.566,0.883-2.724,0.883
		C96.449,46.838,95.59,46.656,94.998,46.291z"/>
	<path fill="#666565" d="M102.374,44.412v-0.998l4.744-6.761h1.202v6.72h1.497v1.039h-1.497v2.29h-1.072v-2.29H102.374z
		 M103.522,43.373h3.727V40.05c0-0.652,0.021-1.388,0.067-2.208h-0.055c-0.219,0.438-0.424,0.8-0.615,1.087L103.522,43.373z"/>
</g>
<g>
	<path fill="#666565" d="M161.782,44.412v-0.998l4.743-6.761h1.203v6.72h1.497v1.039h-1.497v2.29h-1.073v-2.29H161.782z
		 M162.93,43.373h3.726V40.05c0-0.652,0.022-1.388,0.068-2.208h-0.055c-0.219,0.438-0.424,0.8-0.615,1.087L162.93,43.373z"/>
	<path fill="#666565" d="M170.217,44.152c0-1.144,0.702-2.035,2.104-2.673c-0.636-0.355-1.092-0.739-1.368-1.152
		c-0.277-0.413-0.415-0.874-0.415-1.384c0-0.725,0.269-1.302,0.808-1.733s1.26-0.646,2.163-0.646c0.915,0,1.639,0.212,2.174,0.636
		c0.535,0.424,0.803,1.009,0.803,1.757c0,0.492-0.153,0.941-0.461,1.347c-0.307,0.406-0.798,0.775-1.472,1.107
		c0.815,0.387,1.395,0.794,1.739,1.22c0.344,0.426,0.516,0.919,0.516,1.48c0,0.83-0.291,1.491-0.871,1.986
		c-0.58,0.495-1.376,0.742-2.386,0.742c-1.07,0-1.894-0.233-2.469-0.701C170.505,45.67,170.217,45.009,170.217,44.152z
		 M171.352,44.179c0,0.547,0.19,0.973,0.57,1.278s0.914,0.458,1.601,0.458c0.679,0,1.206-0.16,1.583-0.479s0.566-0.756,0.566-1.313
		c0-0.442-0.178-0.835-0.532-1.179c-0.354-0.344-0.974-0.678-1.855-1.001c-0.679,0.292-1.17,0.614-1.476,0.967
		C171.504,43.264,171.352,43.687,171.352,44.179z M171.673,38.991c0,0.419,0.134,0.779,0.402,1.08
		c0.269,0.301,0.764,0.602,1.487,0.902c0.65-0.273,1.111-0.567,1.382-0.882c0.271-0.314,0.406-0.681,0.406-1.101
		c0-0.46-0.165-0.826-0.495-1.097s-0.784-0.407-1.36-0.407c-0.569,0-1.015,0.137-1.337,0.41
		C171.835,38.17,171.673,38.535,171.673,38.991z"/>
	<path fill="#666565" d="M178.55,45.977c0-0.305,0.069-0.537,0.208-0.694c0.139-0.157,0.338-0.236,0.598-0.236
		c0.265,0,0.472,0.079,0.619,0.236c0.148,0.157,0.222,0.389,0.222,0.694c0,0.296-0.074,0.524-0.226,0.684
		c-0.151,0.16-0.354,0.239-0.615,0.239c-0.231,0-0.425-0.072-0.578-0.215C178.625,46.542,178.55,46.305,178.55,45.977z"/>
	<path fill="#666565" d="M181.879,37.747v-1.039h6.65v0.903l-4.088,9.091h-1.258l4.144-8.955H181.879z"/>
	<path fill="#666565" d="M189.884,37.747v-1.039h6.651v0.903l-4.089,9.091h-1.258l4.144-8.955H189.884z"/>
</g>
<g>
	<path fill="#666565" d="M107.159,120.602v-0.998l4.743-6.761h1.203v6.72h1.497v1.039h-1.497v2.29h-1.072v-2.29H107.159z
		 M108.308,119.563h3.727v-3.322c0-0.652,0.021-1.388,0.067-2.208h-0.055c-0.219,0.438-0.424,0.8-0.615,1.087L108.308,119.563z"/>
	<path fill="#666565" d="M115.595,120.342c0-1.144,0.702-2.035,2.104-2.673c-0.637-0.355-1.093-0.739-1.369-1.152
		c-0.277-0.413-0.415-0.874-0.415-1.384c0-0.725,0.269-1.302,0.808-1.733s1.26-0.646,2.163-0.646c0.915,0,1.639,0.212,2.174,0.636
		c0.535,0.424,0.803,1.009,0.803,1.757c0,0.492-0.153,0.941-0.461,1.347c-0.307,0.406-0.798,0.775-1.472,1.107
		c0.815,0.387,1.396,0.794,1.739,1.22c0.344,0.426,0.516,0.919,0.516,1.48c0,0.83-0.291,1.491-0.871,1.986s-1.376,0.742-2.386,0.742
		c-1.07,0-1.893-0.233-2.469-0.701C115.883,121.861,115.595,121.199,115.595,120.342z M116.729,120.37
		c0,0.547,0.19,0.973,0.57,1.278s0.914,0.458,1.601,0.458c0.679,0,1.206-0.16,1.583-0.479s0.566-0.756,0.566-1.313
		c0-0.442-0.178-0.835-0.532-1.179c-0.354-0.344-0.974-0.678-1.855-1.001c-0.679,0.292-1.169,0.614-1.476,0.967
		C116.882,119.455,116.729,119.877,116.729,120.37z M117.051,115.181c0,0.419,0.134,0.779,0.402,1.08
		c0.269,0.301,0.764,0.602,1.487,0.902c0.65-0.273,1.111-0.567,1.382-0.882c0.271-0.314,0.406-0.681,0.406-1.101
		c0-0.46-0.165-0.826-0.495-1.097s-0.783-0.407-1.36-0.407c-0.569,0-1.015,0.137-1.337,0.41
		C117.212,114.361,117.051,114.726,117.051,115.181z"/>
	<path fill="#666565" d="M123.928,122.167c0-0.305,0.069-0.537,0.208-0.694c0.139-0.157,0.338-0.236,0.598-0.236
		c0.265,0,0.472,0.079,0.619,0.236c0.148,0.157,0.223,0.389,0.223,0.694c0,0.296-0.075,0.524-0.227,0.684
		c-0.15,0.16-0.354,0.239-0.615,0.239c-0.231,0-0.425-0.072-0.578-0.215C124.003,122.732,123.928,122.496,123.928,122.167z"/>
	<path fill="#666565" d="M127.901,114.942l2.648-2.044h0.979v9.994h-1.135v-7.123c0-0.592,0.02-1.153,0.057-1.682
		c-0.097,0.096-0.203,0.196-0.321,0.301c-0.119,0.105-0.661,0.549-1.627,1.333L127.901,114.942z"/>
	<path fill="#666565" d="M135.344,116.108c0-1.036,0.292-1.854,0.875-2.454c0.583-0.6,1.35-0.9,2.301-0.9
		c0.682,0,1.276,0.174,1.786,0.522s0.902,0.856,1.176,1.522c0.274,0.667,0.412,1.454,0.412,2.359c0,3.914-1.516,5.87-4.547,5.87
		c-0.53,0-0.951-0.045-1.261-0.137v-0.991c0.366,0.137,0.782,0.205,1.248,0.205c1.092,0,1.917-0.339,2.474-1.019
		c0.557-0.679,0.861-1.721,0.911-3.125h-0.082c-0.25,0.383-0.583,0.675-0.996,0.875c-0.415,0.201-0.881,0.301-1.398,0.301
		c-0.888,0-1.593-0.266-2.113-0.799C135.604,117.807,135.344,117.063,135.344,116.108z M136.479,116.094
		c0,0.659,0.164,1.178,0.491,1.556c0.328,0.377,0.826,0.566,1.495,0.566c0.414,0,0.795-0.084,1.144-0.254
		c0.349-0.169,0.622-0.401,0.822-0.694s0.3-0.6,0.3-0.92c0-0.481-0.093-0.925-0.279-1.333c-0.188-0.407-0.447-0.728-0.782-0.961
		c-0.334-0.233-0.718-0.35-1.15-0.35c-0.649,0-1.152,0.21-1.508,0.632C136.656,114.758,136.479,115.344,136.479,116.094z"/>
</g>
<g>
	<g>
		<g>
			<path fill="#666565" d="M55.785,407.768c0-1.242,0.193-2.164,0.583-2.768c0.388-0.602,0.98-0.902,1.777-0.902
				c0.774,0,1.362,0.313,1.764,0.941s0.603,1.537,0.603,2.729c0,1.234-0.194,2.156-0.583,2.766s-0.983,0.914-1.783,0.914
				c-0.771,0-1.356-0.313-1.758-0.937C55.986,409.887,55.785,408.973,55.785,407.768z M56.615,407.768
				c0,1.035,0.121,1.791,0.365,2.262c0.244,0.474,0.632,0.71,1.165,0.71c0.54,0,0.931-0.239,1.172-0.72
				c0.242-0.479,0.363-1.229,0.363-2.252c0-1.022-0.121-1.771-0.363-2.248c-0.241-0.476-0.633-0.713-1.172-0.713
				c-0.533,0-0.921,0.233-1.165,0.703C56.737,405.979,56.615,406.73,56.615,407.768z"/>
		</g>
		<g>
			<path fill="#666565" d="M116.19,405.67l1.892-1.46h0.701v7.14h-0.812v-5.088c0-0.424,0.013-0.824,0.04-1.201
				c-0.068,0.067-0.145,0.14-0.229,0.215c-0.084,0.074-0.473,0.393-1.162,0.951L116.19,405.67z"/>
			<path fill="#666565" d="M121.731,410.831c0-0.218,0.05-0.383,0.149-0.496c0.099-0.11,0.242-0.168,0.427-0.168
				c0.189,0,0.336,0.058,0.442,0.168c0.105,0.113,0.159,0.278,0.159,0.496c0,0.212-0.055,0.374-0.161,0.487
				c-0.107,0.115-0.254,0.172-0.439,0.172c-0.166,0-0.304-0.053-0.413-0.153C121.786,411.232,121.731,411.064,121.731,410.831z"/>
			<path fill="#666565" d="M124.148,407.768c0-1.242,0.194-2.164,0.583-2.768c0.389-0.602,0.981-0.902,1.778-0.902
				c0.774,0,1.362,0.313,1.763,0.941c0.402,0.628,0.604,1.537,0.604,2.729c0,1.234-0.194,2.156-0.583,2.766
				c-0.39,0.609-0.983,0.914-1.783,0.914c-0.771,0-1.357-0.313-1.758-0.937C124.349,409.887,124.148,408.973,124.148,407.768z
				 M124.979,407.768c0,1.035,0.122,1.791,0.366,2.262c0.244,0.474,0.632,0.71,1.165,0.71c0.54,0,0.93-0.239,1.172-0.72
				c0.242-0.479,0.363-1.229,0.363-2.252c0-1.022-0.121-1.771-0.363-2.248c-0.242-0.476-0.633-0.713-1.172-0.713
				c-0.533,0-0.921,0.233-1.165,0.703C125.101,405.979,124.979,406.73,124.979,407.768z"/>
		</g>
		<g>
			<path fill="#666565" d="M179.933,411.35v-0.689l1.88-1.896c0.573-0.582,0.95-0.996,1.133-1.246
				c0.184-0.248,0.319-0.49,0.41-0.726s0.138-0.487,0.138-0.76c0-0.382-0.115-0.687-0.348-0.909
				c-0.231-0.223-0.552-0.336-0.962-0.336c-0.296,0-0.577,0.049-0.843,0.146c-0.265,0.099-0.562,0.276-0.886,0.534l-0.431-0.554
				c0.657-0.538,1.374-0.807,2.148-0.807c0.671,0,1.196,0.17,1.577,0.513c0.381,0.342,0.57,0.801,0.57,1.377
				c0,0.455-0.127,0.903-0.381,1.349s-0.729,1.008-1.426,1.688l-1.563,1.535v0.039h3.672v0.742H179.933L179.933,411.35z"/>
			<path fill="#666565" d="M185.905,410.831c0-0.218,0.051-0.383,0.148-0.496c0.1-0.11,0.242-0.168,0.428-0.168
				c0.188,0,0.336,0.058,0.441,0.168c0.105,0.113,0.159,0.278,0.159,0.496c0,0.212-0.055,0.374-0.161,0.487
				c-0.107,0.115-0.254,0.172-0.439,0.172c-0.166,0-0.304-0.053-0.412-0.153C185.959,411.232,185.905,411.064,185.905,410.831z"/>
			<path fill="#666565" d="M188.322,407.768c0-1.242,0.194-2.164,0.583-2.768c0.39-0.602,0.981-0.902,1.778-0.902
				c0.773,0,1.361,0.313,1.763,0.941c0.402,0.628,0.604,1.537,0.604,2.729c0,1.234-0.194,2.156-0.583,2.766
				s-0.982,0.914-1.782,0.914c-0.771,0-1.356-0.313-1.759-0.937S188.322,408.973,188.322,407.768z M189.152,407.768
				c0,1.035,0.122,1.791,0.365,2.262c0.244,0.474,0.633,0.71,1.166,0.71c0.539,0,0.93-0.239,1.172-0.72
				c0.242-0.479,0.363-1.229,0.363-2.252c0-1.022-0.121-1.771-0.363-2.248c-0.242-0.476-0.633-0.713-1.172-0.713
				c-0.533,0-0.922,0.233-1.166,0.703C189.274,405.979,189.152,406.73,189.152,407.768z"/>
		</g>
		<g>
			<path fill="#666565" d="M244.08,411.066v-0.771c0.31,0.154,0.639,0.271,0.987,0.351c0.352,0.08,0.683,0.121,0.994,0.121
				c1.233,0,1.852-0.485,1.852-1.455c0-0.869-0.684-1.305-2.048-1.305h-0.706V407.3h0.716c0.559,0,1.001-0.122,1.328-0.368
				c0.326-0.246,0.489-0.588,0.489-1.025c0-0.35-0.118-0.623-0.358-0.821c-0.238-0.198-0.563-0.299-0.975-0.299
				c-0.313,0-0.606,0.042-0.884,0.127c-0.276,0.085-0.593,0.241-0.947,0.47l-0.409-0.548c0.293-0.228,0.631-0.403,1.014-0.532
				c0.382-0.131,0.785-0.195,1.208-0.195c0.693,0,1.229,0.158,1.611,0.474c0.381,0.315,0.57,0.748,0.57,1.297
				c0,0.458-0.128,0.832-0.383,1.123c-0.256,0.29-0.618,0.485-1.087,0.583v0.04c0.573,0.071,0.998,0.255,1.274,0.55
				c0.275,0.295,0.415,0.682,0.415,1.159c0,0.679-0.234,1.201-0.703,1.565c-0.47,0.365-1.139,0.549-2.007,0.549
				c-0.379,0-0.725-0.028-1.037-0.084C244.681,411.307,244.375,411.207,244.08,411.066z"/>
			<path fill="#666565" d="M250.081,410.831c0-0.218,0.05-0.383,0.147-0.496c0.101-0.11,0.242-0.168,0.428-0.168
				c0.188,0,0.337,0.058,0.441,0.168c0.106,0.113,0.159,0.278,0.159,0.496c0,0.212-0.054,0.374-0.161,0.487
				c-0.107,0.115-0.254,0.172-0.439,0.172c-0.165,0-0.304-0.053-0.411-0.153C250.135,411.232,250.081,411.064,250.081,410.831z"/>
			<path fill="#666565" d="M252.498,407.768c0-1.242,0.193-2.164,0.583-2.768c0.389-0.602,0.98-0.902,1.777-0.902
				c0.773,0,1.361,0.313,1.764,0.941c0.401,0.628,0.603,1.537,0.603,2.729c0,1.234-0.194,2.156-0.583,2.766
				s-0.981,0.914-1.782,0.914c-0.771,0-1.356-0.313-1.759-0.937S252.498,408.973,252.498,407.768z M253.328,407.768
				c0,1.035,0.122,1.791,0.364,2.262c0.244,0.474,0.634,0.71,1.166,0.71c0.539,0,0.931-0.239,1.172-0.72
				c0.242-0.479,0.363-1.229,0.363-2.252c0-1.022-0.121-1.771-0.363-2.248c-0.241-0.476-0.633-0.713-1.172-0.713
				c-0.532,0-0.922,0.233-1.166,0.703C253.45,405.979,253.328,406.73,253.328,407.768z"/>
		</g>
		<g>
			<path fill="#666565" d="M276.167,411.066v-0.771c0.31,0.154,0.639,0.271,0.987,0.351c0.352,0.08,0.683,0.121,0.994,0.121
				c1.233,0,1.852-0.485,1.852-1.455c0-0.869-0.684-1.305-2.048-1.305h-0.706V407.3h0.716c0.559,0,1.001-0.122,1.328-0.368
				s0.489-0.588,0.489-1.025c0-0.35-0.118-0.623-0.358-0.821c-0.238-0.198-0.563-0.299-0.975-0.299
				c-0.313,0-0.606,0.042-0.884,0.127c-0.276,0.085-0.593,0.241-0.946,0.47l-0.41-0.548c0.293-0.228,0.631-0.403,1.014-0.532
				c0.382-0.131,0.785-0.195,1.208-0.195c0.693,0,1.23,0.158,1.611,0.474s0.57,0.748,0.57,1.297c0,0.458-0.128,0.832-0.383,1.123
				c-0.256,0.29-0.618,0.485-1.087,0.583v0.04c0.573,0.071,0.998,0.255,1.274,0.55c0.275,0.295,0.415,0.682,0.415,1.159
				c0,0.679-0.234,1.201-0.703,1.565c-0.469,0.365-1.139,0.549-2.007,0.549c-0.378,0-0.725-0.028-1.037-0.084
				C276.769,411.307,276.463,411.207,276.167,411.066z"/>
			<path fill="#666565" d="M282.168,410.831c0-0.218,0.05-0.383,0.147-0.496c0.101-0.11,0.242-0.168,0.429-0.168
				c0.188,0,0.336,0.058,0.44,0.168c0.106,0.113,0.159,0.278,0.159,0.496c0,0.212-0.054,0.374-0.161,0.487
				c-0.106,0.115-0.254,0.172-0.438,0.172c-0.166,0-0.305-0.053-0.412-0.153C282.223,411.232,282.168,411.064,282.168,410.831z"/>
			<path fill="#666565" d="M284.737,411.055v-0.783c0.229,0.146,0.512,0.261,0.851,0.344c0.339,0.082,0.672,0.123,1.001,0.123
				c0.573,0,1.018-0.135,1.336-0.403c0.316-0.269,0.476-0.658,0.476-1.168c0-0.993-0.61-1.489-1.833-1.489
				c-0.31,0-0.723,0.047-1.24,0.143l-0.421-0.27l0.271-3.34h3.55v0.742h-2.856l-0.183,2.148c0.375-0.068,0.748-0.104,1.119-0.104
				c0.752,0,1.344,0.186,1.775,0.557c0.431,0.369,0.646,0.877,0.646,1.52c0,0.74-0.234,1.32-0.706,1.742
				c-0.47,0.42-1.118,0.631-1.944,0.631C285.774,411.445,285.16,411.314,284.737,411.055z"/>
		</g>
	</g>
	<line fill="none" stroke="#666666" stroke-miterlimit="10" x1="58.146" y1="401.373" x2="282.755" y2="401.373"/>
	<g>
		<g>
			<line fill="none" stroke="#666666" stroke-miterlimit="10" x1="58.146" y1="401.373" x2="58.146" y2="398.043"/>
			<line fill="none" stroke="#666666" stroke-miterlimit="10" x1="90.233" y1="401.373" x2="90.233" y2="398.043"/>
			<line fill="none" stroke="#666666" stroke-miterlimit="10" x1="122.321" y1="401.373" x2="122.321" y2="398.043"/>
			<line fill="none" stroke="#666666" stroke-miterlimit="10" x1="154.408" y1="401.373" x2="154.408" y2="398.043"/>
			<line fill="none" stroke="#666666" stroke-miterlimit="10" x1="186.496" y1="401.373" x2="186.496" y2="398.043"/>
			<line fill="none" stroke="#666666" stroke-miterlimit="10" x1="218.582" y1="401.373" x2="218.582" y2="398.043"/>
			<line fill="none" stroke="#666666" stroke-miterlimit="10" x1="250.669" y1="401.373" x2="250.669" y2="398.043"/>
			<line fill="none" stroke="#666666" stroke-miterlimit="10" x1="282.755" y1="401.373" x2="282.755" y2="398.043"/>
		</g>
	</g>
	<g>
		<line fill="none" stroke="#666666" stroke-miterlimit="10" x1="58.146" y1="401.373" x2="58.146" y2="268.196"/>
		<g>
			<g>
				<line fill="none" stroke="#666666" stroke-miterlimit="10" x1="58.146" y1="368.079" x2="63.761" y2="368.079"/>
				<line fill="none" stroke="#666666" stroke-miterlimit="10" x1="58.146" y1="301.489" x2="63.761" y2="301.489"/>
			</g>
		</g>
	</g>
	<g>
		<g>
			<g>
				<rect x="67.772" y="277.519" fill="#1F9B9C" width="209.209" height="47.943"/>
			</g>
		</g>
		<g>
			<g>
				<rect x="58.146" y="277.519" fill="#C7DFDF" width="9.626" height="47.943"/>
				<rect x="58.146" y="344.105" fill="#E9BF64" width="216.91" height="47.943"/>
			</g>
		</g>
	</g>
	<g>
		<path fill="#666565" d="M22.011,290.068h1.453l3.016,5.711l3.039-5.711h1.438l-3.813,6.993v4.43h-1.328v-4.367L22.011,290.068z"/>
		<path fill="#666565" d="M32.542,301.49v-11.422h1.328v10.234h5.039v1.188H32.542z"/>
		<path fill="#666565" d="M40.847,301.49v-11.422h1.328v10.234h5.039v1.188H40.847z"/>
	</g>
	<g>
		<path fill="#666565" d="M61.651,268.245c0-1.739,0.272-3.03,0.816-3.874c0.544-0.842,1.374-1.264,2.489-1.264
			c1.083,0,1.905,0.439,2.469,1.318c0.562,0.88,0.843,2.152,0.843,3.819c0,1.729-0.271,3.019-0.815,3.872
			c-0.544,0.853-1.376,1.279-2.496,1.279c-1.079,0-1.899-0.438-2.462-1.311C61.932,271.213,61.651,269.933,61.651,268.245z
			 M62.813,268.245c0,1.45,0.17,2.507,0.513,3.167c0.341,0.662,0.885,0.992,1.631,0.992c0.755,0,1.302-0.334,1.642-1.006
			c0.339-0.67,0.508-1.721,0.508-3.153c0-1.432-0.169-2.481-0.508-3.147s-0.886-0.998-1.642-0.998c-0.746,0-1.29,0.328-1.631,0.984
			C62.983,265.741,62.813,266.795,62.813,268.245z"/>
		<path fill="#666565" d="M69.998,272.535c0-0.306,0.068-0.537,0.208-0.694c0.139-0.157,0.338-0.235,0.598-0.235
			c0.264,0,0.471,0.078,0.619,0.235c0.147,0.157,0.222,0.389,0.222,0.694c0,0.296-0.075,0.523-0.226,0.684
			c-0.15,0.159-0.355,0.238-0.615,0.238c-0.232,0-0.425-0.071-0.578-0.215C70.073,273.098,69.998,272.863,69.998,272.535z"/>
		<path fill="#666565" d="M73.971,265.309l2.648-2.043h0.979v9.994h-1.135v-7.123c0-0.593,0.019-1.153,0.056-1.682
			c-0.096,0.096-0.203,0.195-0.32,0.301c-0.119,0.104-0.661,0.549-1.628,1.332L73.971,265.309z"/>
		<path fill="#666565" d="M81.598,272.848v-1.098c0.319,0.205,0.715,0.365,1.189,0.48c0.474,0.116,0.94,0.174,1.4,0.174
			c0.803,0,1.425-0.188,1.87-0.564s0.667-0.923,0.667-1.637c0-1.389-0.854-2.084-2.565-2.084c-0.434,0-1.014,0.065-1.738,0.197
			l-0.588-0.376l0.38-4.675h4.97v1.039h-4.001l-0.253,3.008c0.524-0.096,1.046-0.145,1.566-0.145c1.053,0,1.882,0.26,2.485,0.777
			c0.604,0.519,0.906,1.229,0.906,2.129c0,1.037-0.329,1.85-0.988,2.438c-0.658,0.588-1.565,0.884-2.724,0.884
			C83.05,273.396,82.19,273.213,81.598,272.848z"/>
	</g>
	<g>
		<path fill="#666565" d="M155.05,340.825v-1.077c0.433,0.216,0.895,0.379,1.384,0.491s0.954,0.168,1.392,0.168
			c1.727,0,2.591-0.679,2.591-2.038c0-1.217-0.956-1.824-2.868-1.824h-0.988v-0.99h1.002c0.782,0,1.402-0.174,1.86-0.518
			c0.457-0.346,0.686-0.824,0.686-1.436c0-0.488-0.167-0.873-0.502-1.15c-0.335-0.279-0.79-0.418-1.363-0.418
			c-0.438,0-0.851,0.06-1.237,0.178c-0.387,0.119-0.83,0.338-1.326,0.658l-0.574-0.768c0.41-0.316,0.883-0.566,1.418-0.748
			c0.535-0.181,1.101-0.271,1.692-0.271c0.971,0,1.723,0.222,2.256,0.661c0.533,0.441,0.8,1.047,0.8,1.816
			c0,0.641-0.179,1.164-0.537,1.571c-0.357,0.406-0.864,0.679-1.521,0.816v0.055c0.802,0.103,1.396,0.356,1.784,0.771
			c0.387,0.414,0.581,0.955,0.581,1.623c0,0.951-0.328,1.682-0.984,2.192s-1.593,0.769-2.81,0.769c-0.529,0-1.014-0.039-1.453-0.118
			C155.892,341.161,155.465,341.023,155.05,340.825z"/>
		<path fill="#666565" d="M163.452,340.496c0-0.305,0.068-0.537,0.208-0.693c0.139-0.158,0.338-0.236,0.598-0.236
			c0.264,0,0.471,0.078,0.619,0.236c0.147,0.156,0.222,0.389,0.222,0.693c0,0.297-0.075,0.523-0.226,0.684
			c-0.151,0.161-0.355,0.239-0.615,0.239c-0.232,0-0.425-0.071-0.578-0.216C163.528,341.061,163.452,340.824,163.452,340.496z"/>
		<path fill="#666565" d="M166.781,340.825v-1.077c0.434,0.216,0.896,0.379,1.385,0.491c0.488,0.112,0.954,0.168,1.391,0.168
			c1.728,0,2.591-0.679,2.591-2.038c0-1.217-0.956-1.824-2.868-1.824h-0.987v-0.99h1.002c0.782,0,1.401-0.174,1.859-0.518
			c0.457-0.346,0.687-0.824,0.687-1.436c0-0.488-0.167-0.873-0.502-1.15c-0.335-0.279-0.79-0.418-1.364-0.418
			c-0.438,0-0.85,0.06-1.237,0.178c-0.387,0.119-0.829,0.338-1.325,0.658l-0.574-0.768c0.41-0.316,0.883-0.566,1.418-0.748
			c0.535-0.181,1.1-0.271,1.691-0.271c0.972,0,1.724,0.222,2.257,0.661c0.532,0.441,0.8,1.047,0.8,1.816
			c0,0.641-0.179,1.164-0.537,1.571c-0.358,0.406-0.865,0.679-1.521,0.816v0.055c0.803,0.103,1.397,0.356,1.784,0.771
			c0.388,0.414,0.581,0.955,0.581,1.623c0,0.951-0.328,1.682-0.983,2.192c-0.656,0.511-1.594,0.769-2.811,0.769
			c-0.529,0-1.013-0.039-1.453-0.118C167.623,341.161,167.195,341.023,166.781,340.825z"/>
		<path fill="#666565" d="M174.854,338.671c0-1.144,0.702-2.034,2.104-2.673c-0.637-0.355-1.092-0.739-1.369-1.152
			c-0.276-0.412-0.415-0.873-0.415-1.384c0-0.726,0.269-1.302,0.808-1.733c0.539-0.43,1.261-0.646,2.163-0.646
			c0.915,0,1.64,0.212,2.174,0.636c0.535,0.424,0.804,1.01,0.804,1.758c0,0.491-0.154,0.939-0.461,1.346
			c-0.308,0.408-0.799,0.775-1.473,1.107c0.815,0.387,1.396,0.795,1.739,1.221c0.344,0.427,0.516,0.92,0.516,1.479
			c0,0.829-0.291,1.491-0.871,1.985s-1.376,0.742-2.386,0.742c-1.069,0-1.893-0.233-2.469-0.701
			C175.142,340.189,174.854,339.527,174.854,338.671z M175.989,338.698c0,0.547,0.19,0.974,0.57,1.278
			c0.38,0.304,0.914,0.457,1.602,0.457c0.678,0,1.206-0.158,1.583-0.479c0.377-0.318,0.565-0.757,0.565-1.313
			c0-0.442-0.178-0.836-0.532-1.18c-0.354-0.345-0.974-0.678-1.855-1.002c-0.678,0.291-1.169,0.614-1.476,0.967
			C176.141,337.783,175.989,338.206,175.989,338.698z M176.31,333.51c0,0.42,0.134,0.779,0.402,1.08s0.764,0.602,1.488,0.902
			c0.649-0.273,1.11-0.567,1.382-0.883c0.271-0.313,0.405-0.68,0.405-1.101c0-0.461-0.164-0.825-0.494-1.098
			c-0.33-0.271-0.784-0.406-1.361-0.406c-0.569,0-1.014,0.138-1.337,0.41C176.472,332.689,176.31,333.055,176.31,333.51z"/>
	</g>
	<g>
		<path fill="#666565" d="M147.832,272.863v-1.076c0.433,0.215,0.895,0.379,1.384,0.49c0.49,0.112,0.954,0.168,1.391,0.168
			c1.728,0,2.592-0.679,2.592-2.037c0-1.217-0.956-1.824-2.868-1.824h-0.988v-0.992h1.002c0.782,0,1.402-0.172,1.86-0.517
			c0.457-0.345,0.686-0.823,0.686-1.435c0-0.488-0.167-0.873-0.502-1.15c-0.335-0.279-0.79-0.418-1.364-0.418
			c-0.438,0-0.85,0.059-1.236,0.178c-0.388,0.119-0.83,0.338-1.326,0.657l-0.574-0.767c0.41-0.317,0.883-0.566,1.418-0.748
			c0.536-0.181,1.1-0.271,1.692-0.271c0.971,0,1.723,0.221,2.256,0.662c0.533,0.441,0.8,1.047,0.8,1.816
			c0,0.641-0.179,1.164-0.537,1.571c-0.357,0.407-0.865,0.679-1.521,0.816v0.056c0.802,0.101,1.396,0.357,1.783,0.77
			c0.388,0.413,0.581,0.954,0.581,1.623c0,0.951-0.327,1.682-0.983,2.193c-0.656,0.511-1.593,0.768-2.811,0.768
			c-0.528,0-1.013-0.039-1.453-0.119C148.673,273.199,148.246,273.062,147.832,272.863z"/>
		<path fill="#666565" d="M156.233,272.535c0-0.306,0.069-0.537,0.208-0.694c0.14-0.157,0.338-0.235,0.599-0.235
			c0.264,0,0.471,0.078,0.619,0.235c0.147,0.157,0.222,0.389,0.222,0.694c0,0.296-0.075,0.523-0.227,0.684
			c-0.149,0.159-0.354,0.238-0.614,0.238c-0.232,0-0.426-0.071-0.578-0.215C156.308,273.098,156.233,272.863,156.233,272.535z"/>
		<path fill="#666565" d="M159.603,273.26v-0.965l2.632-2.656c0.803-0.814,1.331-1.396,1.586-1.744
			c0.256-0.348,0.447-0.686,0.574-1.016c0.127-0.329,0.191-0.684,0.191-1.063c0-0.536-0.162-0.96-0.485-1.273
			s-0.771-0.47-1.347-0.47c-0.415,0-0.809,0.068-1.179,0.205c-0.372,0.138-0.785,0.387-1.241,0.748l-0.603-0.775
			c0.92-0.752,1.923-1.129,3.008-1.129c0.939,0,1.676,0.24,2.208,0.719c0.533,0.478,0.801,1.121,0.801,1.928
			c0,0.637-0.179,1.266-0.533,1.888c-0.355,0.622-1.021,1.409-1.996,2.361l-2.188,2.149v0.055h5.142v1.039L159.603,273.26
			L159.603,273.26z"/>
		<path fill="#666565" d="M167.724,268.99c0-1.965,0.382-3.437,1.146-4.408c0.763-0.974,1.893-1.461,3.387-1.461
			c0.517,0,0.924,0.044,1.221,0.131v0.99c-0.352-0.132-0.755-0.197-1.208-0.197c-1.071,0-1.889,0.334-2.454,1.004
			c-0.564,0.67-0.875,1.724-0.93,3.16h0.082c0.501-0.775,1.294-1.164,2.379-1.164c0.902,0,1.613,0.271,2.132,0.813
			c0.521,0.541,0.78,1.275,0.78,2.202c0,1.037-0.285,1.853-0.855,2.446c-0.569,0.593-1.34,0.891-2.31,0.891
			c-1.035,0-1.855-0.389-2.461-1.165C168.026,271.456,167.724,270.375,167.724,268.99z M168.886,269.807
			c0,0.471,0.091,0.909,0.273,1.316c0.182,0.406,0.44,0.729,0.775,0.967c0.335,0.237,0.717,0.355,1.146,0.355
			c0.646,0,1.148-0.204,1.507-0.613c0.357-0.409,0.537-1,0.537-1.772c0-0.663-0.167-1.185-0.499-1.563s-0.83-0.568-1.49-0.568
			c-0.41,0-0.786,0.084-1.128,0.254c-0.342,0.168-0.614,0.401-0.817,0.699C168.988,269.178,168.886,269.486,168.886,269.807z"/>
	</g>
	<g>
		<path fill="#666565" d="M22.011,367.506h1.453l3.016,5.711l3.039-5.711h1.438l-3.813,6.992v4.43h-1.328v-4.367L22.011,367.506z"/>
		<path fill="#666565" d="M32.542,378.928v-11.422h1.328v10.234h5.039v1.188H32.542z"/>
		<path fill="#666565" d="M40.847,378.928v-11.422h3.5c1.776,0,3.156,0.492,4.141,1.477c0.985,0.985,1.478,2.359,1.478,4.125
			c0,1.887-0.512,3.328-1.535,4.324c-1.022,0.998-2.496,1.496-4.418,1.496H40.847z M42.175,377.779h1.617
			c1.583,0,2.772-0.389,3.569-1.168c0.798-0.778,1.195-1.932,1.195-3.457c0-1.489-0.374-2.611-1.121-3.367
			c-0.748-0.755-1.857-1.133-3.332-1.133h-1.93L42.175,377.779L42.175,377.779z"/>
	</g>
</g>
<g>
	<path fill="#666565" d="M29.232,63.44h1.453l3.017,5.711l3.039-5.711h1.438l-3.813,6.992v4.43h-1.328v-4.367L29.232,63.44z"/>
	<path fill="#666565" d="M39.764,74.862V63.44h1.328v10.234h5.039v1.188H39.764z"/>
	<path fill="#666565" d="M48.068,74.862V63.44h1.328v10.234h5.039v1.188H48.068z"/>
</g>
<g>
	<path fill="#666565" d="M29.232,153.438h1.453l3.017,5.711l3.039-5.711h1.438l-3.813,6.992v4.43h-1.328v-4.367L29.232,153.438z"/>
	<path fill="#666565" d="M39.764,164.859v-11.422h1.328v10.234h5.039v1.188H39.764z"/>
	<path fill="#666565" d="M48.068,164.859v-11.422h3.5c1.776,0,3.156,0.492,4.142,1.477c0.984,0.985,1.477,2.359,1.477,4.125
		c0,1.886-0.512,3.327-1.535,4.324c-1.022,0.997-2.496,1.496-4.418,1.496H48.068z M49.396,163.711h1.617
		c1.583,0,2.773-0.39,3.57-1.168s1.194-1.931,1.194-3.457c0-1.489-0.374-2.612-1.12-3.367c-0.748-0.755-1.858-1.133-3.332-1.133
		h-1.931L49.396,163.711L49.396,163.711z"/>
</g>
</svg>
