<?xml version="1.0" encoding="utf-8"?>
<!-- Generator: Adobe Illustrator 16.0.0, SVG Export Plug-In . SVG Version: 6.00 Build 0)  -->
<!DOCTYPE svg PUBLIC "-//W3C//DTD SVG 1.1//EN" "http://www.w3.org/Graphics/SVG/1.1/DTD/svg11.dtd">
<svg version="1.1" id="Capa_1" xmlns="http://www.w3.org/2000/svg" xmlns:xlink="http://www.w3.org/1999/xlink" x="0px" y="0px"
	 width="779.527px" height="357.166px" viewBox="0 0 779.527 357.166" enable-background="new 0 0 779.527 357.166"
	 xml:space="preserve">
<g id="global-estimates">
	<g>
		<rect x="122.532" y="190.812" fill="#199598" width="100.491" height="122.967"/>
		<rect x="122.532" y="65.746" fill="#DD9B2B" width="100.491" height="125.063"/>
	</g>
	<g>
		<path fill="#666565" d="M62.333,19.421c0-1.549,0.313-2.906,0.936-4.071s1.521-2.055,2.688-2.67
			c1.168-0.615,2.534-0.922,4.104-0.922c1.59,0,3.066,0.292,4.439,0.876l-0.672,1.529c-1.349-0.571-2.644-0.856-3.887-0.856
			c-1.813,0-3.229,0.54-4.249,1.62c-1.021,1.08-1.525,2.578-1.525,4.494c0,2.018,0.491,3.548,1.477,4.591
			c0.979,1.043,2.423,1.564,4.322,1.564c1.033,0,2.042-0.12,3.026-0.358v-4.604H69.66v-1.549h5.063v7.255
			c-0.788,0.248-1.594,0.436-2.405,0.563c-0.813,0.127-1.76,0.191-2.833,0.191c-2.255,0-4.012-0.67-5.271-2.012
			C62.961,23.72,62.333,21.84,62.333,19.421z"/>
		<path fill="#666565" d="M78.047,26.87V11.014h1.688V26.87H78.047z"/>
		<path fill="#666565" d="M82.704,21.266c0-1.817,0.454-3.233,1.357-4.247c0.908-1.014,2.167-1.521,3.776-1.521
			c1.562,0,2.799,0.519,3.717,1.556c0.917,1.038,1.376,2.441,1.376,4.211c0,1.824-0.457,3.248-1.372,4.272s-2.182,1.536-3.79,1.536
			c-0.996,0-1.88-0.234-2.648-0.704c-0.771-0.47-1.368-1.144-1.788-2.021S82.704,22.443,82.704,21.266z M84.436,21.266
			c0,1.43,0.286,2.52,0.854,3.269c0.572,0.749,1.412,1.124,2.521,1.124c1.105,0,1.951-0.373,2.522-1.119
			c0.575-0.746,0.862-1.837,0.862-3.273c0-1.423-0.288-2.504-0.862-3.243c-0.57-0.739-1.424-1.108-2.546-1.108
			c-1.105,0-1.942,0.364-2.51,1.093C84.718,18.736,84.436,19.822,84.436,21.266z"/>
		<path fill="#666565" d="M95.931,26.87V11.014h1.688v3.852c0,0.863-0.023,1.637-0.082,2.323h0.082
			c0.788-1.114,1.957-1.671,3.506-1.671c1.46,0,2.599,0.501,3.399,1.503c0.813,1.002,1.216,2.42,1.216,4.254
			s-0.407,3.259-1.226,4.274c-0.813,1.016-1.942,1.523-3.396,1.523c-0.729,0-1.395-0.134-1.992-0.402
			c-0.604-0.268-1.104-0.681-1.514-1.238H97.5l-0.354,1.437L95.931,26.87L95.931,26.87z M97.622,21.276
			c0,1.569,0.262,2.692,0.785,3.368c0.521,0.676,1.358,1.014,2.517,1.014c1.04,0,1.813-0.379,2.323-1.136
			c0.51-0.758,0.769-1.846,0.769-3.266c0-1.454-0.259-2.538-0.769-3.251c-0.513-0.713-1.297-1.07-2.364-1.07
			c-1.151,0-1.983,0.331-2.493,0.994C97.877,18.59,97.622,19.707,97.622,21.276z"/>
		<path fill="#666565" d="M107.884,23.794c0-2.25,1.81-3.429,5.422-3.537l1.896-0.062v-0.702c0-0.887-0.188-1.542-0.563-1.965
			c-0.38-0.423-0.979-0.634-1.81-0.634c-0.933,0-1.979,0.289-3.149,0.866l-0.526-1.298c0.554-0.294,1.153-0.525,1.813-0.692
			c0.66-0.167,1.313-0.251,1.976-0.251c1.33,0,2.313,0.295,2.957,0.887c0.643,0.591,0.962,1.539,0.962,2.843v7.622h-1.26
			l-0.336-1.571h-0.082c-0.56,0.693-1.11,1.162-1.663,1.407c-0.556,0.246-1.242,0.368-2.068,0.368c-1.11,0-1.979-0.284-2.614-0.853
			C108.199,25.652,107.884,24.843,107.884,23.794z M109.677,23.814c0,0.615,0.185,1.082,0.554,1.403
			c0.37,0.321,0.891,0.481,1.555,0.481c1.051,0,1.876-0.29,2.479-0.87c0.6-0.581,0.896-1.393,0.896-2.437v-1.014l-1.688,0.071
			c-1.347,0.048-2.313,0.258-2.904,0.63S109.677,23.029,109.677,23.814z"/>
		<path fill="#666565" d="M120.326,26.87V11.014h1.688V26.87H120.326z"/>
		<path fill="#666565" d="M130.404,21.377c0-1.8,0.442-3.23,1.326-4.29s2.067-1.589,3.563-1.589c1.396,0,2.498,0.46,3.313,1.38
			c0.813,0.921,1.221,2.135,1.221,3.643v1.07h-7.686c0.03,1.311,0.362,2.306,0.991,2.985c0.633,0.68,1.52,1.019,2.659,1.019
			c1.199,0,2.388-0.251,3.56-0.754v1.508c-0.6,0.258-1.16,0.443-1.69,0.555c-0.53,0.112-1.175,0.168-1.927,0.168
			c-1.646,0-2.942-0.502-3.896-1.508C130.88,24.561,130.404,23.165,130.404,21.377z M132.177,20.216h5.849
			c0-1.066-0.234-1.883-0.714-2.451c-0.479-0.567-1.157-0.851-2.042-0.851c-0.896,0-1.615,0.292-2.146,0.876
			C132.587,18.375,132.272,19.183,132.177,20.216z"/>
		<path fill="#666565" d="M142.021,18.446c0-0.911,0.37-1.63,1.105-2.158c0.74-0.527,1.754-0.791,3.044-0.791
			c1.195,0,2.363,0.244,3.508,0.733l-0.594,1.377c-1.113-0.463-2.13-0.695-3.037-0.695c-0.803,0-1.405,0.126-1.814,0.378
			c-0.404,0.251-0.608,0.599-0.608,1.042c0,0.3,0.076,0.555,0.229,0.766c0.149,0.211,0.396,0.412,0.741,0.603
			c0.34,0.191,0.99,0.467,1.96,0.828c1.32,0.483,2.215,0.97,2.671,1.46c0.457,0.49,0.688,1.104,0.688,1.849
			c0,1.034-0.389,1.832-1.155,2.393c-0.771,0.561-1.854,0.841-3.239,0.841c-1.479,0-2.631-0.23-3.458-0.693V24.82
			c0.536,0.272,1.106,0.487,1.725,0.644c0.613,0.157,1.205,0.235,1.774,0.235c0.885,0,1.563-0.141,2.042-0.424
			c0.479-0.283,0.715-0.713,0.715-1.292c0-0.436-0.188-0.809-0.563-1.119c-0.379-0.31-1.111-0.676-2.212-1.098
			c-1.042-0.388-1.776-0.727-2.22-1.017c-0.438-0.29-0.76-0.618-0.974-0.986C142.127,19.396,142.021,18.957,142.021,18.446z"/>
		<path fill="#666565" d="M151.212,17.016v-0.815l1.604-0.703l0.713-2.385h0.979v2.588h3.24v1.314h-3.24v6.588
			c0,0.674,0.16,1.191,0.479,1.552c0.319,0.361,0.761,0.542,1.313,0.542c0.303,0,0.589-0.022,0.866-0.066
			c0.274-0.044,0.499-0.09,0.662-0.138v1.278c-0.187,0.087-0.453,0.159-0.813,0.216c-0.354,0.057-0.682,0.085-0.967,0.085
			c-2.156,0-3.237-1.138-3.237-3.414v-6.644h-1.603L151.212,17.016L151.212,17.016z"/>
		<path fill="#666565" d="M159.915,12.675c0-0.387,0.087-0.671,0.267-0.851c0.175-0.18,0.395-0.27,0.654-0.27
			c0.293,0,0.545,0.092,0.762,0.275c0.212,0.184,0.314,0.466,0.314,0.846c0,0.38-0.104,0.664-0.314,0.851
			c-0.216,0.187-0.469,0.28-0.762,0.28c-0.267,0-0.479-0.093-0.654-0.28C160.002,13.339,159.915,13.056,159.915,12.675z
			 M160.058,26.87V15.702h1.549V26.87H160.058z"/>
		<path fill="#666565" d="M165.336,26.87V15.702h1.375l0.271,1.509h0.082c0.315-0.537,0.771-0.957,1.354-1.259
			c0.581-0.302,1.229-0.453,1.952-0.453c1.746,0,2.887,0.625,3.424,1.876h0.082c0.333-0.579,0.813-1.036,1.443-1.372
			c0.636-0.336,1.354-0.504,2.161-0.504c1.267,0,2.209,0.324,2.838,0.973c0.632,0.648,0.938,1.687,0.938,3.113v7.286h-1.688V19.59
			c0-0.892-0.188-1.561-0.567-2.006s-0.976-0.669-1.771-0.669c-1.057,0-1.831,0.303-2.333,0.909
			c-0.503,0.605-0.754,1.538-0.754,2.798v6.249h-1.688V19.59c0-0.892-0.188-1.561-0.571-2.006c-0.381-0.445-0.979-0.669-1.779-0.669
			c-1.063,0-1.836,0.318-2.329,0.955c-0.492,0.637-0.737,1.68-0.737,3.13v5.871L165.336,26.87L165.336,26.87z"/>
		<path fill="#666565" d="M183.913,23.794c0-2.25,1.81-3.429,5.418-3.537l1.896-0.062v-0.702c0-0.887-0.188-1.542-0.563-1.965
			c-0.376-0.423-0.979-0.634-1.81-0.634c-0.933,0-1.979,0.289-3.149,0.866l-0.522-1.298c0.55-0.294,1.149-0.525,1.809-0.692
			s1.313-0.251,1.976-0.251c1.33,0,2.313,0.295,2.957,0.887c0.645,0.591,0.963,1.539,0.963,2.843v7.622h-1.254l-0.336-1.571h-0.082
			c-0.56,0.693-1.106,1.162-1.662,1.407c-0.553,0.246-1.239,0.368-2.067,0.368c-1.109,0-1.98-0.284-2.616-0.853
			C184.229,25.652,183.913,24.843,183.913,23.794z M185.707,23.814c0,0.615,0.188,1.082,0.558,1.403
			c0.366,0.321,0.887,0.481,1.551,0.481c1.051,0,1.876-0.29,2.479-0.87c0.604-0.581,0.896-1.393,0.896-2.437v-1.014l-1.688,0.071
			c-1.343,0.048-2.313,0.258-2.9,0.63C186.004,22.45,185.707,23.029,185.707,23.814z"/>
		<path fill="#666565" d="M194.877,17.016v-0.815l1.604-0.703l0.713-2.385h0.979v2.588h3.24v1.314h-3.24v6.588
			c0,0.674,0.16,1.191,0.479,1.552c0.315,0.361,0.757,0.542,1.313,0.542c0.303,0,0.587-0.022,0.866-0.066
			c0.274-0.044,0.499-0.09,0.662-0.138v1.278c-0.187,0.087-0.453,0.159-0.813,0.216c-0.354,0.057-0.682,0.085-0.967,0.085
			c-2.156,0-3.237-1.138-3.237-3.414v-6.644h-1.603L194.877,17.016L194.877,17.016z"/>
		<path fill="#666565" d="M203.101,21.377c0-1.8,0.438-3.23,1.326-4.29c0.884-1.06,2.067-1.589,3.561-1.589
			c1.396,0,2.498,0.46,3.313,1.38c0.813,0.921,1.223,2.135,1.223,3.643v1.07h-7.688c0.034,1.311,0.366,2.306,0.995,2.985
			c0.629,0.68,1.52,1.019,2.655,1.019c1.199,0,2.388-0.251,3.56-0.754v1.508c-0.6,0.258-1.156,0.443-1.688,0.555
			c-0.532,0.112-1.173,0.168-1.925,0.168c-1.646,0-2.946-0.502-3.898-1.508C203.577,24.561,203.101,23.165,203.101,21.377z
			 M204.874,20.216h5.853c0-1.066-0.238-1.883-0.718-2.451c-0.479-0.567-1.153-0.851-2.042-0.851c-0.896,0-1.611,0.292-2.146,0.876
			C205.284,18.375,204.969,19.183,204.874,20.216z"/>
		<path fill="#666565" d="M214.718,18.446c0-0.911,0.37-1.63,1.109-2.158c0.736-0.527,1.754-0.791,3.044-0.791
			c1.191,0,2.359,0.244,3.504,0.733l-0.59,1.377c-1.117-0.463-2.134-0.695-3.037-0.695c-0.807,0-1.409,0.126-1.814,0.378
			c-0.408,0.251-0.612,0.599-0.612,1.042c0,0.3,0.077,0.555,0.229,0.766c0.153,0.211,0.396,0.412,0.741,0.603
			c0.34,0.191,0.994,0.467,1.96,0.828c1.32,0.483,2.215,0.97,2.671,1.46c0.457,0.49,0.688,1.104,0.688,1.849
			c0,1.034-0.385,1.832-1.151,2.393c-0.771,0.561-1.854,0.841-3.243,0.841c-1.479,0-2.631-0.23-3.458-0.693V24.82
			c0.536,0.272,1.106,0.487,1.728,0.644c0.613,0.157,1.206,0.235,1.771,0.235c0.889,0,1.563-0.141,2.042-0.424
			c0.479-0.283,0.718-0.713,0.718-1.292c0-0.436-0.188-0.809-0.566-1.119c-0.378-0.31-1.112-0.676-2.211-1.098
			c-1.042-0.388-1.78-0.727-2.217-1.017c-0.438-0.29-0.763-0.618-0.978-0.986C214.824,19.396,214.718,18.957,214.718,18.446z"/>
	</g>
	<g>
		<path fill="#9A999E" d="M33.949,71.011v-1.199l3.271-3.299c0.992-1.012,1.649-1.734,1.97-2.166
			c0.313-0.432,0.559-0.853,0.713-1.262c0.159-0.409,0.238-0.85,0.238-1.321c0-0.665-0.201-1.192-0.604-1.582
			s-0.96-0.584-1.677-0.584c-0.516,0-1.004,0.085-1.465,0.256c-0.462,0.17-0.979,0.48-1.542,0.93L34.11,59.82
			c1.146-0.935,2.393-1.402,3.736-1.402c1.166,0,2.081,0.297,2.739,0.891c0.663,0.594,0.994,1.393,0.994,2.396
			c0,0.79-0.225,1.572-0.663,2.345c-0.438,0.773-1.271,1.751-2.479,2.934l-2.717,2.669v0.068h6.386v1.291h-8.16L33.949,71.011
			L33.949,71.011z"/>
		<path fill="#9A999E" d="M48.521,71.011v-1.199l3.271-3.299c0.996-1.012,1.649-1.734,1.974-2.166
			c0.313-0.432,0.555-0.853,0.713-1.262c0.155-0.409,0.234-0.85,0.234-1.321c0-0.665-0.197-1.192-0.604-1.582
			c-0.398-0.39-0.96-0.584-1.673-0.584c-0.52,0-1.004,0.085-1.465,0.256c-0.466,0.17-0.979,0.48-1.542,0.93l-0.747-0.964
			c1.146-0.935,2.389-1.402,3.732-1.402c1.166,0,2.081,0.297,2.743,0.891c0.663,0.594,0.99,1.393,0.99,2.396
			c0,0.79-0.221,1.572-0.659,2.345c-0.441,0.773-1.271,1.751-2.479,2.934l-2.72,2.669v0.068h6.39v1.291h-8.16L48.521,71.011
			L48.521,71.011z"/>
		<path fill="#9A999E" d="M58.482,64.782c0-2.161,0.338-3.765,1.018-4.813c0.676-1.046,1.707-1.57,3.092-1.57
			c1.35,0,2.368,0.546,3.063,1.638c0.699,1.092,1.052,2.673,1.052,4.744c0,2.146-0.342,3.75-1.018,4.81
			c-0.676,1.06-1.709,1.589-3.104,1.589c-1.34,0-2.356-0.542-3.062-1.627C58.832,68.468,58.482,66.878,58.482,64.782z
			 M59.926,64.782c0,1.802,0.216,3.113,0.64,3.935c0.424,0.822,1.103,1.232,2.022,1.232c0.938,0,1.618-0.417,2.039-1.25
			s0.632-2.139,0.632-3.918c0-1.778-0.21-3.082-0.632-3.909c-0.421-0.827-1.104-1.241-2.039-1.241c-0.927,0-1.604,0.408-2.022,1.224
			C60.138,61.672,59.926,62.98,59.926,64.782z"/>
		<path fill="#9A999E" d="M68.554,65.708c0-2.441,0.474-4.267,1.422-5.476c0.944-1.209,2.354-1.814,4.208-1.814
			c0.646,0,1.146,0.054,1.521,0.161v1.231c-0.438-0.164-0.938-0.247-1.5-0.247c-1.331,0-2.351,0.417-3.052,1.249
			c-0.698,0.833-1.087,2.141-1.151,3.924h0.104c0.623-0.963,1.604-1.445,2.955-1.445c1.121,0,2.003,0.336,2.646,1.008
			c0.646,0.672,0.969,1.584,0.969,2.736c0,1.288-0.354,2.301-1.063,3.039c-0.708,0.738-1.665,1.106-2.866,1.106
			c-1.285,0-2.308-0.482-3.061-1.447C68.931,68.768,68.554,67.427,68.554,65.708z M69.997,66.721c0,0.585,0.109,1.13,0.34,1.636
			c0.229,0.506,0.548,0.906,0.964,1.201S72.191,70,72.723,70c0.804,0,1.428-0.254,1.873-0.762c0.44-0.508,0.667-1.242,0.667-2.202
			c0-0.823-0.207-1.471-0.62-1.942c-0.413-0.472-1.03-0.707-1.854-0.707c-0.509,0-0.979,0.105-1.397,0.315s-0.767,0.5-1.019,0.869
			C70.123,65.94,69.997,66.324,69.997,66.721z"/>
		<g>
			<path fill="#9A999E" d="M43.617,73.657c0.141-0.542,0.295-1.211,0.465-2.008c0.169-0.797,0.288-1.435,0.354-1.914h1.415
				l0.113,0.18c-0.135,0.521-0.325,1.126-0.583,1.816c-0.254,0.69-0.518,1.332-0.793,1.926H43.617z"/>
		</g>
	</g>
	<g>
		<path fill="#9A999E" d="M68.426,307.548c0-2.161,0.342-3.765,1.018-4.813c0.68-1.047,1.707-1.569,3.096-1.569
			c1.346,0,2.364,0.546,3.063,1.638c0.695,1.094,1.048,2.674,1.048,4.744c0,2.146-0.338,3.75-1.018,4.811
			c-0.676,1.063-1.709,1.593-3.104,1.593c-1.34,0-2.356-0.543-3.058-1.628C68.775,311.233,68.426,309.646,68.426,307.548z
			 M69.87,307.548c0,1.803,0.212,3.113,0.636,3.936c0.428,0.822,1.103,1.231,2.026,1.231c0.938,0,1.614-0.417,2.035-1.25
			c0.425-0.833,0.636-2.139,0.636-3.918c0-1.776-0.21-3.082-0.636-3.907c-0.421-0.828-1.104-1.242-2.035-1.242
			s-1.604,0.408-2.026,1.229C70.082,304.438,69.87,305.747,69.87,307.548z"/>
	</g>
	<g>
		<path fill="#FFFFFF" d="M154.6,252.294h-3.146v-8.621l0.027-1.417l0.055-1.549c-0.521,0.522-0.891,0.866-1.094,1.028l-1.712,1.375
			l-1.521-1.896l4.804-3.818h2.588V252.294L154.6,252.294z"/>
		<path fill="#FFFFFF" d="M172.463,252.294h-3.146v-8.621l0.031-1.417l0.051-1.549c-0.521,0.522-0.891,0.866-1.09,1.028
			l-1.712,1.375l-1.521-1.896l4.8-3.818h2.588L172.463,252.294L172.463,252.294z"/>
		<path fill="#FFFFFF" d="M186.923,244.845c0,2.604-0.426,4.528-1.275,5.778c-0.854,1.25-2.166,1.875-3.938,1.875
			c-1.723,0-3.019-0.646-3.892-1.937s-1.313-3.195-1.313-5.724c0-2.629,0.429-4.563,1.271-5.813
			c0.852-1.244,2.156-1.868,3.926-1.868c1.719,0,3.021,0.647,3.896,1.956C186.483,240.422,186.923,242.332,186.923,244.845z
			 M179.637,244.845c0,1.828,0.154,3.139,0.474,3.93c0.313,0.793,0.851,1.188,1.599,1.188c0.729,0,1.268-0.397,1.589-1.203
			c0.326-0.801,0.489-2.104,0.489-3.913c0-1.824-0.165-3.14-0.494-3.938c-0.33-0.801-0.854-1.197-1.584-1.197
			c-0.737,0-1.271,0.396-1.59,1.197C179.797,241.705,179.637,243.019,179.637,244.845z"/>
		<path fill="#FFFFFF" d="M198.917,252.294h-10.415v-2.189l3.74-3.775c1.104-1.141,1.831-1.926,2.171-2.359
			c0.339-0.438,0.584-0.844,0.729-1.218s0.228-0.767,0.228-1.162c0-0.604-0.165-1.042-0.494-1.335
			c-0.33-0.292-0.771-0.438-1.315-0.438c-0.578,0-1.142,0.134-1.686,0.396c-0.543,0.271-1.107,0.646-1.702,1.131l-1.712-2.022
			c0.729-0.625,1.345-1.064,1.824-1.325c0.479-0.259,1.009-0.456,1.58-0.597c0.567-0.144,1.209-0.209,1.916-0.209
			c0.931,0,1.752,0.17,2.466,0.511c0.714,0.342,1.271,0.813,1.661,1.429c0.396,0.609,0.591,1.313,0.591,2.1
			c0,0.688-0.121,1.33-0.357,1.936c-0.242,0.604-0.615,1.219-1.121,1.852c-0.506,0.635-1.396,1.53-2.676,2.7l-1.915,1.808v0.146
			h6.487V252.294L198.917,252.294z"/>
		<g>
			<path fill="#FFFFFF" d="M159.576,254.562c0.141-0.543,0.295-1.211,0.465-2.009c0.169-0.797,0.288-1.436,0.354-1.913h1.415
				l0.117,0.18c-0.139,0.521-0.329,1.132-0.583,1.815c-0.258,0.689-0.521,1.332-0.797,1.927H159.576z"/>
		</g>
	</g>
	<g>
		<path fill="#FFFFFF" d="M154.6,136.528h-3.146v-8.621l0.027-1.417l0.055-1.549c-0.521,0.523-0.891,0.866-1.094,1.029l-1.712,1.375
			l-1.521-1.895l4.804-3.821h2.588V136.528L154.6,136.528z"/>
		<path fill="#FFFFFF" d="M172.463,136.528h-3.146v-8.621l0.031-1.417l0.051-1.549c-0.521,0.523-0.891,0.866-1.09,1.029
			l-1.712,1.375l-1.521-1.895l4.8-3.821h2.588L172.463,136.528L172.463,136.528z"/>
		<path fill="#FFFFFF" d="M186.923,129.079c0,2.602-0.426,4.528-1.275,5.778c-0.854,1.25-2.166,1.875-3.938,1.875
			c-1.723,0-3.019-0.645-3.892-1.936s-1.313-3.196-1.313-5.717c0-2.629,0.429-4.567,1.271-5.813c0.852-1.246,2.156-1.87,3.926-1.87
			c1.719,0,3.021,0.652,3.896,1.957C186.483,124.657,186.923,126.566,186.923,129.079z M179.637,129.079
			c0,1.828,0.154,3.137,0.474,3.929c0.313,0.792,0.851,1.187,1.599,1.187c0.729,0,1.268-0.401,1.589-1.203
			c0.326-0.801,0.489-2.106,0.489-3.913c0-1.827-0.165-3.14-0.494-3.938c-0.33-0.798-0.854-1.197-1.584-1.197
			c-0.737,0-1.271,0.399-1.59,1.197C179.797,125.939,179.637,127.252,179.637,129.079z"/>
		<path fill="#FFFFFF" d="M199.253,133.441h-1.793v3.087h-3.078v-3.087h-6.355v-2.191l6.532-9.62h2.9v9.365h1.793L199.253,133.441
			L199.253,133.441z M194.382,130.995v-2.527c0-0.421,0.021-1.033,0.055-1.834c0.03-0.802,0.063-1.267,0.082-1.396h-0.082
			c-0.251,0.557-0.558,1.101-0.907,1.631l-2.729,4.127L194.382,130.995L194.382,130.995z"/>
		<g>
			<path fill="#FFFFFF" d="M159.576,138.59c0.141-0.542,0.295-1.211,0.465-2.008c0.169-0.797,0.288-1.435,0.354-1.914h1.415
				l0.117,0.18c-0.139,0.521-0.329,1.126-0.583,1.816c-0.258,0.69-0.521,1.332-0.797,1.926H159.576z"/>
		</g>
	</g>
	<g>
		<path fill="#87868A" d="M61.059,206.451H46.161v-4.208c0-1.979,0.295-3.407,0.885-4.29c0.595-0.886,1.521-1.325,2.803-1.325
			c0.883,0,1.607,0.246,2.186,0.739c0.573,0.491,0.945,1.211,1.115,2.153h0.104c0.392-2.248,1.578-3.373,3.567-3.373
			c1.332,0,2.371,0.449,3.118,1.35c0.748,0.896,1.121,2.152,1.121,3.77V206.451L61.059,206.451z M52.529,204.719v-2.853
			c0-1.225-0.188-2.104-0.57-2.641c-0.387-0.537-1.024-0.812-1.938-0.812c-0.834,0-1.438,0.299-1.809,0.896
			c-0.365,0.599-0.555,1.551-0.555,2.854v2.547L52.529,204.719L52.529,204.719z M59.581,204.719v-3.106
			c0-1.195-0.229-2.104-0.698-2.715c-0.465-0.604-1.189-0.912-2.188-0.912c-0.924,0-1.604,0.313-2.034,0.938
			c-0.438,0.621-0.652,1.563-0.652,2.838v2.97L59.581,204.719L59.581,204.719z"/>
		<path fill="#87868A" d="M46.864,193.326c-0.388,0-0.671-0.087-0.852-0.265c-0.184-0.182-0.271-0.396-0.271-0.656
			c0-0.295,0.092-0.547,0.271-0.76c0.188-0.211,0.466-0.316,0.847-0.316c0.384,0,0.664,0.105,0.854,0.316
			c0.188,0.213,0.28,0.465,0.28,0.76c0,0.264-0.098,0.479-0.28,0.656C47.528,193.239,47.244,193.326,46.864,193.326z
			 M61.059,193.185H49.891v-1.55h11.168V193.185z"/>
		<path fill="#87868A" d="M61.059,187.905H45.203v-1.691h15.854L61.059,187.905L61.059,187.905z"/>
		<path fill="#87868A" d="M61.059,182.627H45.203v-1.69h15.854L61.059,182.627L61.059,182.627z"/>
		<path fill="#87868A" d="M46.864,177.491c-0.388,0-0.671-0.09-0.852-0.266c-0.184-0.18-0.271-0.396-0.271-0.656
			c0-0.293,0.092-0.547,0.271-0.758c0.188-0.213,0.466-0.317,0.847-0.317c0.384,0,0.664,0.104,0.854,0.317
			c0.188,0.211,0.28,0.465,0.28,0.758c0,0.264-0.098,0.479-0.28,0.656C47.528,177.401,47.244,177.491,46.864,177.491z
			 M61.059,177.351H49.891V175.8h11.168V177.351z"/>
		<path fill="#87868A" d="M55.454,172.69c-1.813,0-3.229-0.455-4.247-1.36c-1.018-0.908-1.521-2.168-1.521-3.78
			c0-1.558,0.521-2.795,1.561-3.713c1.033-0.918,2.438-1.377,4.211-1.377c1.82,0,3.248,0.457,4.271,1.372
			c1.021,0.914,1.536,2.178,1.536,3.789c0,0.996-0.234,1.88-0.704,2.651c-0.474,0.771-1.146,1.367-2.021,1.787
			S56.632,172.69,55.454,172.69z M55.454,170.959c1.43,0,2.521-0.286,3.271-0.856c0.749-0.565,1.124-1.412,1.124-2.521
			s-0.373-1.951-1.119-2.524c-0.745-0.574-1.837-0.86-3.271-0.86c-1.423,0-2.504,0.286-3.243,0.86
			c-0.734,0.573-1.104,1.424-1.104,2.547c0,1.106,0.364,1.943,1.098,2.511C52.925,170.677,54.011,170.959,55.454,170.959z"/>
		<path fill="#87868A" d="M61.059,159.465H49.891v-1.376l1.509-0.275v-0.081c-0.544-0.347-0.966-0.832-1.269-1.457
			c-0.299-0.625-0.444-1.321-0.444-2.089c0-1.346,0.324-2.357,0.978-3.037c0.646-0.68,1.688-1.02,3.108-1.02h7.286v1.692H53.82
			c-0.908,0-1.593,0.207-2.042,0.621c-0.445,0.415-0.675,1.063-0.675,1.946c0,1.169,0.313,2.024,0.95,2.568
			c0.633,0.543,1.678,0.815,3.135,0.815h5.871V159.465z"/>
		<path fill="#87868A" d="M55.902,142.409h-1.313v-1.528l-0.428,0.021h-0.448l-0.813-0.021v1.528h-1.313v-1.652
			c-1.771-0.265-3.151-0.894-4.146-1.885c-0.992-0.992-1.484-2.292-1.484-3.902c0-1.365,0.334-2.608,1.002-3.729l1.42,0.724
			c-0.582,1.128-0.872,2.13-0.872,3.006c0,2.167,1.357,3.519,4.086,4.055v-5.195H52.9v5.319l0.581,0.021h0.648l0.458-0.021v-4.698
			h1.313v4.554c1.229-0.251,2.185-0.721,2.854-1.41c0.673-0.689,1.013-1.611,1.013-2.767c0-1.06-0.229-2.109-0.68-3.148h1.521
			c0.438,0.992,0.653,2.068,0.653,3.23c0,1.609-0.457,2.905-1.371,3.887c-0.913,0.981-2.243,1.628-3.989,1.94V142.409
			L55.902,142.409z"/>
	</g>
	
		<line fill="none" stroke="#333333" stroke-width="0.25" stroke-miterlimit="10" x1="223.027" y1="313.776" x2="78.597" y2="313.776"/>
	
		<line fill="none" stroke="#333333" stroke-width="0.25" stroke-miterlimit="10" x1="92.317" y1="65.746" x2="92.317" y2="313.776"/>
	
		<line fill="none" stroke="#333333" stroke-width="0.25" stroke-miterlimit="10" x1="223.027" y1="65.746" x2="78.597" y2="65.746"/>
</g>
<g id="EU28-estimates">
	<g>
		<rect x="384.26" y="194.99" fill="#199598" width="100.497" height="118.786"/>
		<rect x="384.26" y="65.796" fill="#DD9B2B" width="100.497" height="129.194"/>
	</g>
	<g>
		<path fill="#9A999E" d="M306.778,68.166v-1.239l5.896-8.399h1.495v8.347h1.854v1.291h-1.854v2.845h-1.341v-2.845H306.778z
			 M308.2,66.875h4.629v-4.127c0-0.81,0.027-1.724,0.085-2.743h-0.063c-0.271,0.543-0.526,0.994-0.766,1.35L308.2,66.875z"/>
		<path fill="#9A999E" d="M316.723,68.166v-1.239l5.893-8.399h1.495v8.347h1.859v1.291h-1.859v2.845h-1.333v-2.845H316.723z
			 M318.148,66.875h4.629v-4.127c0-0.81,0.027-1.724,0.084-2.743h-0.063c-0.271,0.543-0.526,0.994-0.771,1.35L318.148,66.875z"/>
		<path fill="#9A999E" d="M327.311,65.708c0-2.441,0.475-4.267,1.423-5.476s2.354-1.814,4.208-1.814
			c0.646,0,1.147,0.054,1.521,0.161v1.231c-0.438-0.164-0.938-0.247-1.5-0.247c-1.33,0-2.354,0.417-3.057,1.249
			c-0.695,0.833-1.087,2.141-1.146,3.924h0.102c0.623-0.963,1.607-1.445,2.955-1.445c1.12,0,2.004,0.336,2.649,1.008
			c0.645,0.672,0.968,1.584,0.968,2.736c0,1.288-0.354,2.301-1.063,3.039c-0.708,0.738-1.664,1.106-2.867,1.106
			c-1.28,0-2.307-0.482-3.06-1.447C327.688,68.768,327.311,67.427,327.311,65.708z M328.759,66.721c0,0.585,0.105,1.13,0.339,1.636
			c0.227,0.505,0.548,0.906,0.964,1.201c0.417,0.295,0.891,0.443,1.423,0.443c0.804,0,1.428-0.254,1.872-0.762
			c0.444-0.508,0.667-1.242,0.667-2.202c0-0.823-0.207-1.471-0.62-1.942c-0.413-0.472-1.03-0.707-1.851-0.707
			c-0.518,0-0.979,0.105-1.401,0.315c-0.425,0.21-0.764,0.5-1.015,0.869C328.885,65.94,328.759,66.324,328.759,66.721z"/>
	</g>
	<g>
		<path fill="#9A999E" d="M327.184,307.548c0-2.161,0.338-3.765,1.014-4.813c0.676-1.047,1.706-1.569,3.092-1.569
			c1.354,0,2.368,0.546,3.067,1.638c0.698,1.094,1.047,2.674,1.047,4.744c0,2.146-0.338,3.75-1.014,4.811
			c-0.676,1.063-1.709,1.593-3.104,1.593c-1.34,0-2.354-0.543-3.058-1.628C327.531,311.233,327.184,309.646,327.184,307.548z
			 M328.631,307.548c0,1.803,0.212,3.113,0.636,3.936c0.424,0.824,1.1,1.231,2.021,1.231c0.938,0,1.618-0.417,2.039-1.25
			s0.64-2.139,0.64-3.918c0-1.776-0.219-3.082-0.64-3.907c-0.421-0.828-1.101-1.242-2.039-1.242c-0.927,0-1.603,0.408-2.021,1.229
			C328.843,304.438,328.631,305.747,328.631,307.548z"/>
	</g>
	<g>
		<path fill="#FFFFFF" d="M427.073,252.294h-10.414v-2.189l3.739-3.775c1.107-1.141,1.831-1.926,2.171-2.359
			s0.584-0.844,0.733-1.218c0.146-0.374,0.225-0.767,0.225-1.162c0-0.604-0.165-1.042-0.494-1.335
			c-0.329-0.292-0.77-0.438-1.313-0.438c-0.577,0-1.146,0.134-1.688,0.396c-0.544,0.271-1.104,0.646-1.694,1.131l-1.72-2.022
			c0.733-0.625,1.35-1.064,1.824-1.325c0.482-0.259,1.009-0.456,1.579-0.597c0.57-0.144,1.209-0.209,1.916-0.209
			c0.931,0,1.753,0.17,2.466,0.511c0.714,0.342,1.271,0.813,1.661,1.429c0.396,0.609,0.591,1.313,0.591,2.1
			c0,0.688-0.12,1.33-0.354,1.936c-0.241,0.604-0.615,1.219-1.121,1.852c-0.506,0.635-1.397,1.53-2.675,2.7l-1.916,1.808v0.146
			h6.483V252.294L427.073,252.294z"/>
		<path fill="#FFFFFF" d="M436.36,252.294h-3.146v-8.621l0.023-1.417l0.059-1.549c-0.523,0.522-0.895,0.866-1.099,1.028
			l-1.712,1.375l-1.518-1.896l4.799-3.818h2.589L436.36,252.294L436.36,252.294z"/>
		<path fill="#FFFFFF" d="M451.238,249.207h-1.793v3.087h-3.077v-3.087h-6.354v-2.19l6.532-9.619h2.896v9.363h1.793L451.238,249.207
			L451.238,249.207z M446.365,246.761v-2.525c0-0.422,0.021-1.027,0.059-1.834c0.025-0.803,0.061-1.269,0.079-1.396h-0.079
			c-0.257,0.56-0.562,1.104-0.907,1.632l-2.731,4.129L446.365,246.761L446.365,246.761z"/>
	</g>
	<g>
		<path fill="#FFFFFF" d="M427.073,136.528h-10.414v-2.191l3.739-3.781c1.107-1.134,1.831-1.92,2.171-2.359
			c0.34-0.439,0.584-0.844,0.733-1.218c0.146-0.374,0.225-0.761,0.225-1.162c0-0.598-0.165-1.042-0.494-1.335
			c-0.329-0.292-0.77-0.438-1.313-0.438c-0.577,0-1.146,0.132-1.688,0.397c-0.544,0.265-1.104,0.642-1.694,1.131l-1.72-2.028
			c0.733-0.625,1.35-1.066,1.824-1.325c0.482-0.258,1.009-0.457,1.579-0.596s1.209-0.209,1.916-0.209c0.931,0,1.753,0.17,2.466,0.51
			c0.714,0.34,1.271,0.815,1.661,1.427c0.396,0.611,0.591,1.311,0.591,2.099c0,0.686-0.12,1.33-0.354,1.931
			c-0.241,0.601-0.615,1.217-1.121,1.849s-1.397,1.532-2.675,2.701l-1.916,1.804v0.143h6.483V136.528L427.073,136.528z"/>
		<path fill="#FFFFFF" d="M438.406,124.962c0,0.931-0.275,1.722-0.846,2.375c-0.563,0.652-1.355,1.101-2.374,1.345v0.062
			c1.202,0.149,2.112,0.515,2.73,1.095c0.61,0.581,0.928,1.364,0.928,2.349c0,1.433-0.521,2.549-1.563,3.347
			c-1.039,0.798-2.521,1.197-4.453,1.197c-1.608,0-3.05-0.268-4.3-0.805v-2.68c0.577,0.292,1.213,0.53,1.905,0.713
			c0.693,0.184,1.379,0.275,2.059,0.275c1.039,0,1.813-0.176,2.311-0.53c0.496-0.353,0.743-0.92,0.743-1.702
			c0-0.7-0.284-1.196-0.854-1.488c-0.571-0.292-1.479-0.438-2.729-0.438h-1.135v-2.416h1.151c1.154,0,1.999-0.151,2.532-0.453
			s0.8-0.82,0.8-1.554c0-1.127-0.707-1.691-2.119-1.691c-0.489,0-0.987,0.082-1.493,0.245s-1.063,0.445-1.687,0.846l-1.457-2.17
			c1.354-0.979,2.979-1.468,4.854-1.468c1.542,0,2.768,0.313,3.653,0.938C437.966,122.979,438.406,123.848,438.406,124.962z"/>
		<path fill="#FFFFFF" d="M450.902,136.528h-10.414v-2.191l3.739-3.781c1.107-1.134,1.831-1.92,2.171-2.359
			c0.34-0.439,0.584-0.844,0.733-1.218c0.146-0.374,0.225-0.761,0.225-1.162c0-0.598-0.165-1.042-0.494-1.335
			c-0.33-0.292-0.77-0.438-1.313-0.438c-0.577,0-1.146,0.132-1.688,0.397c-0.544,0.265-1.104,0.642-1.702,1.131l-1.712-2.028
			c0.733-0.625,1.343-1.066,1.824-1.325c0.482-0.258,1.009-0.457,1.579-0.596s1.209-0.209,1.916-0.209
			c0.931,0,1.753,0.17,2.466,0.51c0.714,0.34,1.271,0.815,1.661,1.427c0.394,0.611,0.591,1.311,0.591,2.099
			c0,0.686-0.12,1.33-0.354,1.931c-0.241,0.601-0.615,1.217-1.121,1.849c-0.514,0.632-1.397,1.532-2.683,2.701l-1.916,1.804v0.143
			h6.491V136.528L450.902,136.528z"/>
	</g>
	<g>
		<path fill="#87868A" d="M323.219,206.451H308.32v-4.208c0-1.979,0.296-3.407,0.886-4.29c0.599-0.886,1.523-1.325,2.807-1.325
			c0.883,0,1.604,0.246,2.185,0.739c0.574,0.491,0.946,1.211,1.116,2.153h0.103c0.396-2.248,1.578-3.373,3.571-3.373
			c1.332,0,2.371,0.449,3.118,1.35s1.121,2.152,1.121,3.77L323.219,206.451L323.219,206.451z M314.688,204.719v-2.853
			c0-1.225-0.191-2.104-0.574-2.641c-0.383-0.537-1.021-0.812-1.938-0.812c-0.834,0-1.438,0.299-1.813,0.896
			c-0.361,0.601-0.555,1.551-0.555,2.854v2.547L314.688,204.719L314.688,204.719z M321.739,204.719v-3.106
			c0-1.195-0.229-2.104-0.69-2.715c-0.473-0.604-1.193-0.912-2.188-0.912c-0.924,0-1.604,0.313-2.038,0.938
			c-0.435,0.621-0.647,1.563-0.647,2.838v2.97L321.739,204.719L321.739,204.719z"/>
		<path fill="#87868A" d="M309.021,193.326c-0.387,0-0.671-0.087-0.851-0.265c-0.188-0.182-0.271-0.396-0.271-0.656
			c0-0.295,0.091-0.547,0.274-0.76c0.184-0.211,0.466-0.316,0.846-0.316c0.381,0,0.664,0.105,0.852,0.316
			c0.188,0.213,0.28,0.465,0.28,0.76c0,0.264-0.094,0.479-0.28,0.656C309.686,193.239,309.402,193.326,309.021,193.326z
			 M323.219,193.185h-11.169v-1.55h11.169V193.185z"/>
		<path fill="#87868A" d="M323.219,187.905H307.36v-1.691h15.856L323.219,187.905L323.219,187.905z"/>
		<path fill="#87868A" d="M323.219,182.627H307.36v-1.69h15.856L323.219,182.627L323.219,182.627z"/>
		<path fill="#87868A" d="M309.021,177.491c-0.387,0-0.671-0.09-0.851-0.266c-0.188-0.18-0.271-0.396-0.271-0.656
			c0-0.293,0.091-0.547,0.274-0.758c0.184-0.213,0.466-0.317,0.846-0.317c0.381,0,0.664,0.104,0.852,0.317
			c0.188,0.211,0.28,0.465,0.28,0.758c0,0.264-0.094,0.479-0.28,0.656C309.686,177.401,309.402,177.491,309.021,177.491z
			 M323.219,177.351h-11.169V175.8h11.169V177.351z"/>
		<path fill="#87868A" d="M317.612,172.69c-1.813,0-3.229-0.455-4.247-1.36c-1.014-0.908-1.521-2.168-1.521-3.78
			c0-1.558,0.519-2.795,1.557-3.713c1.037-0.918,2.44-1.377,4.211-1.377c1.824,0,3.248,0.457,4.271,1.372
			c1.021,0.914,1.537,2.178,1.537,3.789c0,0.996-0.235,1.88-0.705,2.651c-0.477,0.771-1.146,1.367-2.021,1.787
			S318.785,172.69,317.612,172.69z M317.612,170.959c1.43,0,2.521-0.286,3.271-0.856c0.749-0.565,1.123-1.412,1.123-2.521
			s-0.372-1.951-1.118-2.524c-0.745-0.574-1.837-0.86-3.273-0.86c-1.423,0-2.504,0.286-3.243,0.86
			c-0.731,0.573-1.104,1.424-1.104,2.547c0,1.106,0.363,1.943,1.093,2.511C315.078,170.677,316.173,170.959,317.612,170.959z"/>
		<path fill="#87868A" d="M323.219,159.465h-11.169v-1.376l1.509-0.275v-0.081c-0.543-0.347-0.965-0.832-1.264-1.457
			c-0.307-0.625-0.448-1.321-0.448-2.089c0-1.346,0.324-2.357,0.973-3.037c0.649-0.68,1.688-1.02,3.113-1.02h7.286v1.692h-7.239
			c-0.913,0-1.594,0.207-2.043,0.621c-0.449,0.415-0.674,1.063-0.674,1.946c0,1.169,0.313,2.024,0.95,2.568
			c0.633,0.543,1.678,0.815,3.135,0.815h5.871V159.465z"/>
		<path fill="#87868A" d="M318.061,142.409h-1.314v-1.528l-0.428,0.021h-0.448l-0.813-0.021v1.528h-1.314v-1.652
			c-1.771-0.265-3.148-0.894-4.146-1.885c-0.992-0.992-1.488-2.292-1.488-3.902c0-1.365,0.334-2.608,1.002-3.729l1.419,0.724
			c-0.581,1.128-0.872,2.13-0.872,3.006c0,2.167,1.362,3.519,4.087,4.055v-5.195h1.314v5.319l0.581,0.021h0.646l0.46-0.021v-4.698
			h1.313v4.554c1.229-0.251,2.181-0.721,2.854-1.41c0.676-0.689,1.013-1.611,1.013-2.767c0-1.06-0.229-2.109-0.685-3.148h1.521
			c0.436,0.992,0.651,2.068,0.651,3.23c0,1.609-0.455,2.905-1.369,3.887c-0.913,0.981-2.243,1.628-3.989,1.94v1.671H318.061z"/>
	</g>
	<g>
		<path fill="#666565" d="M332.814,26.87V11.972h8.306v1.549h-6.565v4.769h6.176v1.549h-6.176v5.482h6.565v1.549H332.814z"/>
		<path fill="#666565" d="M344.269,21.571v-9.599h1.732v9.736c0,1.245,0.34,2.201,1.019,2.868c0.68,0.667,1.678,1,2.996,1
			c1.257,0,2.225-0.335,2.904-1.005c0.68-0.67,1.019-1.631,1.019-2.883v-9.715h1.732v9.64c0,1.699-0.521,3.034-1.538,4.005
			c-1.026,0.972-2.438,1.457-4.229,1.457s-3.181-0.489-4.162-1.467C344.76,24.628,344.269,23.283,344.269,21.571z"/>
		<path fill="#666565" d="M358.589,26.87v-1.438l3.924-3.959c1.188-1.214,1.979-2.08,2.356-2.599
			c0.388-0.518,0.665-1.023,0.855-1.514c0.188-0.491,0.285-1.02,0.285-1.586c0-0.798-0.241-1.431-0.729-1.898
			c-0.479-0.467-1.146-0.701-2.008-0.701c-0.618,0-1.204,0.103-1.758,0.307s-1.17,0.577-1.853,1.115l-0.896-1.156
			c1.372-1.122,2.866-1.683,4.483-1.683c1.396,0,2.495,0.357,3.29,1.07c0.796,0.713,1.188,1.671,1.188,2.875
			c0,0.948-0.265,1.886-0.795,2.814c-0.527,0.928-1.521,2.102-2.978,3.521l-3.265,3.203v0.082h7.662v1.549h-9.79V26.87H358.589z"/>
		<path fill="#666565" d="M370.56,23.069c0-1.705,1.046-3.033,3.137-3.984c-0.946-0.53-1.627-1.103-2.039-1.717
			c-0.412-0.614-0.618-1.303-0.618-2.063c0-1.08,0.401-1.941,1.204-2.583c0.811-0.642,1.877-0.963,3.229-0.963
			c1.355,0,2.438,0.316,3.241,0.948c0.798,0.632,1.188,1.505,1.188,2.619c0,0.733-0.229,1.403-0.688,2.007
			c-0.458,0.605-1.189,1.155-2.194,1.651c1.216,0.578,2.08,1.184,2.593,1.819c0.52,0.635,0.771,1.371,0.771,2.206
			c0,1.237-0.438,2.224-1.298,2.96c-0.865,0.737-2.06,1.105-3.563,1.105c-1.595,0-2.821-0.348-3.68-1.044
			C370.989,25.333,370.56,24.347,370.56,23.069z M372.255,23.11c0,0.815,0.275,1.451,0.85,1.906s1.362,0.683,2.386,0.683
			c1.011,0,1.798-0.238,2.36-0.713c0.563-0.476,0.845-1.127,0.845-1.957c0-0.659-0.265-1.245-0.793-1.758
			c-0.529-0.513-1.452-1.01-2.768-1.493c-1.019,0.435-1.743,0.916-2.198,1.442C372.479,21.746,372.255,22.376,372.255,23.11z
			 M372.73,15.375c0,0.625,0.2,1.162,0.6,1.61c0.4,0.449,1.146,0.897,2.226,1.345c0.97-0.407,1.648-0.846,2.06-1.314
			c0.404-0.468,0.605-1.016,0.605-1.641c0-0.686-0.246-1.231-0.737-1.635c-0.492-0.404-1.169-0.606-2.029-0.606
			c-0.848,0-1.513,0.204-1.99,0.611C372.972,14.152,372.73,14.696,372.73,15.375z"/>
		<path fill="#666565" d="M388.025,21.377c0-1.8,0.441-3.23,1.326-4.29c0.884-1.06,2.07-1.589,3.561-1.589
			c1.396,0,2.498,0.46,3.313,1.38c0.813,0.921,1.219,2.135,1.219,3.643v1.07h-7.684c0.026,1.311,0.357,2.306,0.995,2.985
			c0.63,0.68,1.516,1.019,2.651,1.019c1.198,0,2.392-0.251,3.563-0.754v1.508c-0.604,0.258-1.16,0.443-1.691,0.555
			c-0.532,0.112-1.174,0.168-1.926,0.168c-1.646,0-2.945-0.502-3.897-1.508C388.508,24.558,388.025,23.165,388.025,21.377z
			 M389.802,20.216h5.849c0-1.066-0.238-1.883-0.715-2.451c-0.479-0.567-1.156-0.851-2.041-0.851c-0.898,0-1.614,0.292-2.148,0.876
			C390.204,18.375,389.894,19.183,389.802,20.216z"/>
		<path fill="#666565" d="M399.643,18.446c0-0.911,0.37-1.63,1.109-2.158c0.732-0.527,1.754-0.791,3.044-0.791
			c1.188,0,2.355,0.244,3.504,0.733l-0.59,1.377c-1.117-0.463-2.138-0.695-3.037-0.695c-0.812,0-1.409,0.126-1.817,0.378
			c-0.409,0.251-0.613,0.599-0.613,1.042c0,0.3,0.077,0.555,0.23,0.766c0.152,0.211,0.396,0.412,0.74,0.603
			c0.34,0.191,0.994,0.467,1.961,0.828c1.324,0.483,2.215,0.97,2.671,1.46c0.457,0.49,0.686,1.104,0.686,1.849
			c0,1.034-0.386,1.832-1.147,2.393c-0.771,0.561-1.854,0.841-3.243,0.841c-1.479,0-2.631-0.23-3.459-0.693V24.82
			c0.536,0.272,1.104,0.487,1.725,0.644c0.613,0.157,1.205,0.235,1.775,0.235c0.885,0,1.563-0.141,2.042-0.424
			c0.477-0.283,0.715-0.713,0.715-1.292c0-0.436-0.188-0.809-0.566-1.119c-0.378-0.31-1.107-0.676-2.211-1.098
			c-1.042-0.388-1.773-0.727-2.217-1.017s-0.761-0.618-0.974-0.986C399.745,19.396,399.643,18.957,399.643,18.446z"/>
		<path fill="#666565" d="M408.829,17.016v-0.815l1.604-0.703l0.713-2.385h0.979v2.588h3.232v1.314h-3.232v6.588
			c0,0.674,0.151,1.191,0.479,1.552c0.319,0.361,0.758,0.542,1.314,0.542c0.299,0,0.588-0.022,0.858-0.066
			c0.279-0.044,0.5-0.09,0.663-0.138v1.278c-0.184,0.087-0.454,0.159-0.811,0.216c-0.356,0.057-0.685,0.085-0.965,0.085
			c-2.158,0-3.238-1.138-3.238-3.414v-6.644h-1.604L408.829,17.016L408.829,17.016z"/>
		<path fill="#666565" d="M417.532,12.675c0-0.387,0.088-0.671,0.271-0.851c0.175-0.18,0.395-0.27,0.651-0.27
			c0.299,0,0.552,0.092,0.764,0.275c0.213,0.184,0.313,0.466,0.313,0.846c0,0.38-0.104,0.664-0.313,0.851s-0.465,0.28-0.764,0.28
			c-0.265,0-0.479-0.093-0.651-0.28C417.62,13.339,417.532,13.056,417.532,12.675z M417.68,26.87V15.702h1.549V26.87H417.68z"/>
		<path fill="#666565" d="M422.954,26.87V15.702h1.375l0.275,1.509h0.081c0.319-0.537,0.771-0.957,1.351-1.259
			c0.581-0.302,1.231-0.453,1.951-0.453c1.746,0,2.896,0.625,3.424,1.876h0.082c0.333-0.579,0.815-1.036,1.447-1.372
			s1.354-0.504,2.16-0.504c1.264,0,2.209,0.324,2.838,0.973c0.628,0.648,0.942,1.687,0.942,3.113v7.286h-1.691V19.59
			c0-0.892-0.188-1.561-0.57-2.006c-0.381-0.446-0.972-0.669-1.771-0.669c-1.053,0-1.831,0.303-2.334,0.909
			c-0.503,0.605-0.754,1.538-0.754,2.798v6.249h-1.691V19.59c0-0.892-0.188-1.561-0.57-2.006c-0.381-0.446-0.976-0.669-1.775-0.669
			c-1.063,0-1.836,0.318-2.329,0.955c-0.492,0.637-0.738,1.68-0.738,3.13v5.871L422.954,26.87L422.954,26.87z"/>
		<path fill="#666565" d="M441.531,23.794c0-2.25,1.813-3.429,5.418-3.537l1.898-0.062v-0.702c0-0.887-0.188-1.542-0.564-1.965
			c-0.377-0.423-0.979-0.634-1.806-0.634c-0.929,0-1.979,0.289-3.153,0.866l-0.521-1.298c0.551-0.294,1.146-0.525,1.809-0.692
			c0.655-0.167,1.313-0.251,1.976-0.251c1.326,0,2.313,0.295,2.954,0.887c0.646,0.591,0.969,1.539,0.969,2.843v7.622h-1.257
			l-0.34-1.571h-0.081c-0.557,0.693-1.104,1.162-1.656,1.407c-0.561,0.246-1.242,0.368-2.069,0.368
			c-1.113,0-1.985-0.284-2.616-0.853C441.85,25.652,441.531,24.843,441.531,23.794z M443.323,23.814
			c0,0.615,0.188,1.082,0.563,1.403c0.368,0.321,0.887,0.481,1.551,0.481c1.052,0,1.877-0.29,2.477-0.87
			c0.604-0.581,0.9-1.393,0.9-2.437v-1.014l-1.688,0.071c-1.344,0.048-2.312,0.258-2.896,0.63
			C443.62,22.451,443.323,23.029,443.323,23.814z"/>
		<path fill="#666565" d="M452.494,17.016v-0.815l1.604-0.703l0.713-2.385h0.979v2.588h3.236v1.314h-3.236v6.588
			c0,0.674,0.155,1.191,0.479,1.552c0.319,0.361,0.758,0.542,1.313,0.542c0.303,0,0.592-0.022,0.862-0.066
			c0.279-0.044,0.5-0.09,0.663-0.138v1.278c-0.184,0.087-0.454,0.159-0.811,0.216c-0.356,0.057-0.686,0.085-0.966,0.085
			c-2.157,0-3.237-1.138-3.237-3.414v-6.644h-1.604L452.494,17.016L452.494,17.016z"/>
		<path fill="#666565" d="M460.723,21.377c0-1.8,0.438-3.23,1.326-4.29c0.884-1.06,2.063-1.589,3.561-1.589
			c1.396,0,2.498,0.46,3.313,1.38c0.813,0.921,1.219,2.135,1.219,3.643v1.07h-7.688c0.034,1.311,0.365,2.306,0.995,2.985
			c0.63,0.68,1.521,1.019,2.659,1.019c1.198,0,2.384-0.251,3.556-0.754v1.508c-0.597,0.258-1.152,0.443-1.688,0.555
			c-0.532,0.112-1.174,0.168-1.926,0.168c-1.646,0-2.945-0.502-3.897-1.508S460.723,23.165,460.723,21.377z M462.492,20.216h5.854
			c0-1.066-0.238-1.883-0.715-2.451c-0.479-0.567-1.156-0.851-2.041-0.851c-0.898,0-1.614,0.292-2.148,0.876
			C462.905,18.375,462.594,19.183,462.492,20.216z"/>
		<path fill="#666565" d="M472.343,18.446c0-0.911,0.37-1.63,1.104-2.158c0.74-0.527,1.754-0.791,3.044-0.791
			c1.195,0,2.363,0.244,3.504,0.733l-0.59,1.377c-1.117-0.463-2.13-0.695-3.037-0.695c-0.804,0-1.401,0.126-1.813,0.378
			c-0.409,0.251-0.613,0.599-0.613,1.042c0,0.3,0.077,0.555,0.23,0.766c0.146,0.211,0.396,0.412,0.732,0.603
			c0.34,0.191,0.994,0.467,1.961,0.828c1.324,0.483,2.223,0.97,2.679,1.46c0.449,0.49,0.686,1.104,0.686,1.849
			c0,1.034-0.386,1.832-1.155,2.393c-0.771,0.561-1.852,0.841-3.243,0.841c-1.479,0-2.631-0.23-3.459-0.693V24.82
			c0.536,0.272,1.11,0.487,1.729,0.644c0.607,0.157,1.205,0.235,1.771,0.235c0.893,0,1.565-0.141,2.042-0.424
			c0.479-0.283,0.723-0.713,0.723-1.292c0-0.436-0.188-0.809-0.566-1.119c-0.378-0.31-1.115-0.676-2.211-1.098
			c-1.042-0.388-1.78-0.727-2.217-1.017c-0.438-0.29-0.769-0.618-0.979-0.986C472.445,19.396,472.343,18.957,472.343,18.446z"/>
	</g>
	
		<line fill="none" stroke="#333333" stroke-width="0.25" stroke-miterlimit="10" x1="354.049" y1="65.746" x2="354.049" y2="313.776"/>
	
		<line fill="none" stroke="#333333" stroke-width="0.25" stroke-miterlimit="10" x1="484.76" y1="313.776" x2="340.323" y2="313.776"/>
	
		<line fill="none" stroke="#333333" stroke-width="0.25" stroke-miterlimit="10" x1="484.76" y1="65.746" x2="340.323" y2="65.746"/>
</g>
<g id="legend">
	<rect x="563.448" y="184.116" fill="#DD9B2B" width="17.803" height="17.801"/>
	<rect x="563.448" y="211.714" fill="#199598" width="17.803" height="17.803"/>
	<g>
		<path fill="#5B5B5F" d="M594.687,196.817c-0.448,0.225-1.345,0.447-2.493,0.447c-2.661,0-4.665-1.683-4.665-4.775
			c0-2.955,2.004-4.958,4.934-4.958c1.177,0,1.919,0.252,2.238,0.42l-0.294,0.993c-0.462-0.223-1.119-0.394-1.902-0.394
			c-2.215,0-3.687,1.414-3.687,3.896c0,2.312,1.331,3.796,3.628,3.796c0.742,0,1.499-0.153,1.989-0.393L594.687,196.817z"/>
		<path fill="#5B5B5F" d="M602.149,193.681c0,2.508-1.737,3.603-3.376,3.603c-1.835,0-3.25-1.347-3.25-3.488
			c0-2.271,1.484-3.603,3.362-3.603C600.832,190.192,602.149,191.606,602.149,193.681z M596.77,193.75
			c0,1.485,0.854,2.604,2.059,2.604c1.18,0,2.063-1.105,2.063-2.633c0-1.148-0.574-2.604-2.031-2.604S596.77,192.462,596.77,193.75z
			"/>
		<path fill="#5B5B5F" d="M603.532,195.865c0.364,0.237,1.009,0.489,1.625,0.489c0.896,0,1.316-0.447,1.316-1.008
			c0-0.591-0.353-0.91-1.261-1.246c-1.222-0.438-1.794-1.106-1.794-1.92c0-1.095,0.884-1.988,2.341-1.988
			c0.686,0,1.288,0.195,1.667,0.42l-0.312,0.896c-0.267-0.168-0.757-0.392-1.387-0.392c-0.729,0-1.135,0.42-1.135,0.924
			c0,0.561,0.403,0.813,1.289,1.148c1.177,0.445,1.775,1.037,1.775,2.045c0,1.188-0.924,2.031-2.534,2.031
			c-0.74,0-1.43-0.185-1.903-0.465L603.532,195.865z"/>
		<path fill="#5B5B5F" d="M610.729,188.399v1.947h1.765v0.938h-1.765v3.654c0,0.842,0.237,1.315,0.924,1.315
			c0.322,0,0.563-0.042,0.715-0.084l0.059,0.927c-0.238,0.098-0.616,0.168-1.096,0.168c-0.571,0-1.033-0.185-1.327-0.521
			c-0.354-0.364-0.479-0.97-0.479-1.769v-3.694h-1.051v-0.938h1.051v-1.625L610.729,188.399z"/>
		<path fill="#5B5B5F" d="M616.845,192.183c0-0.701-0.017-1.273-0.059-1.836h1.096l0.066,1.12h0.028
			c0.336-0.645,1.12-1.274,2.241-1.274c0.938,0,2.396,0.563,2.396,2.889v4.048h-1.23v-3.907c0-1.094-0.405-2.004-1.568-2.004
			c-0.813,0-1.442,0.574-1.653,1.264c-0.056,0.151-0.084,0.361-0.084,0.571v4.076h-1.229L616.845,192.183L616.845,192.183z"/>
		<path fill="#5B5B5F" d="M630.751,193.681c0,2.508-1.734,3.603-3.375,3.603c-1.836,0-3.25-1.347-3.25-3.488
			c0-2.271,1.483-3.603,3.361-3.603C629.433,190.192,630.751,191.606,630.751,193.681z M625.372,193.75
			c0,1.485,0.854,2.604,2.062,2.604c1.177,0,2.06-1.105,2.06-2.633c0-1.148-0.571-2.604-2.028-2.604S625.372,192.462,625.372,193.75
			z"/>
		<path fill="#5B5B5F" d="M632.302,192.183c0-0.701-0.017-1.273-0.059-1.836h1.096l0.066,1.12h0.028
			c0.336-0.645,1.12-1.274,2.241-1.274c0.938,0,2.396,0.563,2.396,2.889v4.048h-1.23v-3.907c0-1.094-0.406-2.004-1.568-2.004
			c-0.813,0-1.442,0.574-1.653,1.264c-0.056,0.151-0.084,0.361-0.084,0.571v4.076h-1.229L632.302,192.183L632.302,192.183z"/>
		<path fill="#5B5B5F" d="M642.928,192.882v0.91h-3.46v-0.91H642.928z"/>
		<path fill="#5B5B5F" d="M644.495,197.126v-5.841h-0.949v-0.938h0.949v-0.322c0-0.95,0.21-1.818,0.784-2.364
			c0.463-0.448,1.079-0.634,1.653-0.634c0.435,0,0.813,0.102,1.051,0.197l-0.168,0.951c-0.183-0.084-0.435-0.152-0.785-0.152
			c-1.05,0-1.313,0.926-1.313,1.961v0.363h1.639v0.938h-1.639v5.841H644.495L644.495,197.126z"/>
		<path fill="#5B5B5F" d="M652.214,197.126l-0.101-0.854h-0.042c-0.378,0.529-1.104,1.009-2.072,1.009
			c-1.372,0-2.071-0.968-2.071-1.947c0-1.64,1.457-2.535,4.074-2.521v-0.143c0-0.563-0.152-1.566-1.541-1.566
			c-0.631,0-1.286,0.193-1.766,0.504l-0.28-0.813c0.563-0.362,1.373-0.604,2.229-0.604c2.073,0,2.577,1.416,2.577,2.773v2.535
			c0,0.589,0.025,1.163,0.109,1.625h-1.118L652.214,197.126L652.214,197.126z M652.029,193.666c-1.345-0.028-2.872,0.21-2.872,1.526
			c0,0.799,0.532,1.177,1.163,1.177c0.882,0,1.442-0.56,1.642-1.134c0.041-0.127,0.067-0.27,0.067-0.396V193.666z"/>
		<path fill="#5B5B5F" d="M656.635,188.399v1.947h1.765v0.938h-1.765v3.654c0,0.842,0.234,1.315,0.924,1.315
			c0.322,0,0.561-0.042,0.715-0.084l0.057,0.927c-0.236,0.098-0.614,0.168-1.094,0.168c-0.574,0-1.036-0.185-1.33-0.521
			c-0.351-0.364-0.477-0.97-0.477-1.769v-3.694h-1.051v-0.938h1.051v-1.625L656.635,188.399z"/>
		<path fill="#5B5B5F" d="M663.537,197.126l-0.098-0.854h-0.042c-0.378,0.529-1.106,1.009-2.073,1.009
			c-1.373,0-2.073-0.968-2.073-1.947c0-1.64,1.457-2.535,4.076-2.521v-0.143c0-0.563-0.151-1.566-1.541-1.566
			c-0.63,0-1.288,0.193-1.765,0.504l-0.28-0.813c0.563-0.362,1.373-0.604,2.229-0.604c2.07,0,2.577,1.416,2.577,2.773v2.535
			c0,0.589,0.025,1.163,0.109,1.625h-1.121L663.537,197.126L663.537,197.126z M663.355,193.666c-1.345-0.028-2.872,0.21-2.872,1.526
			c0,0.799,0.532,1.177,1.163,1.177c0.882,0,1.442-0.56,1.639-1.134c0.042-0.127,0.07-0.27,0.07-0.396V193.666z"/>
		<path fill="#5B5B5F" d="M666.531,187.181h1.232v9.945h-1.232V187.181z"/>
		<path fill="#5B5B5F" d="M677.635,196.874c-0.322,0.168-1.037,0.393-1.947,0.393c-2.045,0-3.376-1.388-3.376-3.459
			c0-2.089,1.429-3.602,3.642-3.602c0.729,0,1.373,0.184,1.709,0.352l-0.277,0.951c-0.294-0.168-0.756-0.322-1.432-0.322
			c-1.555,0-2.395,1.148-2.395,2.563c0,1.569,1.008,2.535,2.353,2.535c0.701,0,1.163-0.183,1.517-0.336L677.635,196.874z"/>
		<path fill="#5B5B5F" d="M682.828,197.126l-0.098-0.854h-0.042c-0.378,0.529-1.106,1.009-2.073,1.009
			c-1.373,0-2.073-0.968-2.073-1.947c0-1.64,1.457-2.535,4.076-2.521v-0.143c0-0.563-0.151-1.566-1.541-1.566
			c-0.63,0-1.288,0.193-1.765,0.504l-0.28-0.813c0.563-0.362,1.373-0.604,2.229-0.604c2.07,0,2.577,1.416,2.577,2.773v2.535
			c0,0.589,0.025,1.163,0.109,1.625h-1.121L682.828,197.126L682.828,197.126z M682.646,193.666c-1.345-0.028-2.872,0.21-2.872,1.526
			c0,0.799,0.532,1.177,1.163,1.177c0.882,0,1.442-0.56,1.639-1.134c0.042-0.127,0.07-0.27,0.07-0.396V193.666z"/>
		<path fill="#5B5B5F" d="M685.654,195.865c0.364,0.237,1.009,0.489,1.625,0.489c0.896,0,1.316-0.447,1.316-1.008
			c0-0.591-0.353-0.91-1.261-1.246c-1.222-0.438-1.796-1.106-1.796-1.92c0-1.095,0.886-1.988,2.343-1.988
			c0.686,0,1.288,0.195,1.667,0.42l-0.312,0.896c-0.267-0.168-0.757-0.392-1.387-0.392c-0.729,0-1.135,0.42-1.135,0.924
			c0,0.561,0.403,0.813,1.289,1.148c1.177,0.445,1.775,1.037,1.775,2.045c0,1.188-0.924,2.031-2.535,2.031
			c-0.739,0-1.429-0.185-1.902-0.465L685.654,195.865z"/>
		<path fill="#5B5B5F" d="M692.052,193.96c0.025,1.667,1.093,2.354,2.325,2.354c0.883,0,1.414-0.151,1.877-0.351l0.21,0.884
			c-0.437,0.195-1.18,0.42-2.255,0.42c-2.09,0-3.334-1.373-3.334-3.418c0-2.046,1.205-3.656,3.18-3.656
			c2.213,0,2.802,1.947,2.802,3.193c0,0.252-0.028,0.448-0.042,0.574H692.052L692.052,193.96z M695.667,193.078
			c0.017-0.785-0.319-2.004-1.709-2.004c-1.244,0-1.793,1.149-1.892,2.004H695.667z"/>
		<path fill="#5B5B5F" d="M698.215,195.865c0.361,0.237,1.009,0.489,1.625,0.489c0.896,0,1.313-0.447,1.313-1.008
			c0-0.591-0.35-0.91-1.261-1.246c-1.219-0.438-1.793-1.106-1.793-1.92c0-1.095,0.883-1.988,2.34-1.988
			c0.688,0,1.288,0.195,1.667,0.42l-0.309,0.896c-0.27-0.168-0.76-0.392-1.39-0.392c-0.729,0-1.135,0.42-1.135,0.924
			c0,0.561,0.406,0.813,1.289,1.148c1.177,0.445,1.778,1.037,1.778,2.045c0,1.188-0.926,2.031-2.535,2.031
			c-0.742,0-1.43-0.185-1.905-0.465L698.215,195.865z"/>
	</g>
	<g>
		<path fill="#5B5B5F" d="M594.687,224.416c-0.448,0.226-1.345,0.448-2.493,0.448c-2.661,0-4.665-1.682-4.665-4.776
			c0-2.955,2.004-4.958,4.934-4.958c1.177,0,1.919,0.252,2.238,0.42l-0.294,0.994c-0.462-0.225-1.119-0.393-1.902-0.393
			c-2.215,0-3.687,1.414-3.687,3.895c0,2.313,1.331,3.796,3.628,3.796c0.742,0,1.499-0.153,1.989-0.392L594.687,224.416z"/>
		<path fill="#5B5B5F" d="M602.149,221.278c0,2.508-1.737,3.601-3.376,3.601c-1.835,0-3.25-1.345-3.25-3.487
			c0-2.27,1.484-3.601,3.362-3.601C600.832,217.791,602.149,219.206,602.149,221.278z M596.77,221.349
			c0,1.485,0.854,2.605,2.059,2.605c1.18,0,2.063-1.105,2.063-2.635c0-1.147-0.574-2.604-2.031-2.604S596.77,220.062,596.77,221.349
			z"/>
		<path fill="#5B5B5F" d="M603.532,223.464c0.364,0.238,1.009,0.49,1.625,0.49c0.896,0,1.316-0.448,1.316-1.01
			c0-0.588-0.353-0.909-1.261-1.245c-1.222-0.435-1.794-1.106-1.794-1.919c0-1.094,0.884-1.989,2.341-1.989
			c0.686,0,1.288,0.196,1.667,0.42l-0.312,0.896c-0.267-0.168-0.757-0.392-1.387-0.392c-0.729,0-1.135,0.42-1.135,0.925
			c0,0.563,0.403,0.813,1.289,1.147c1.177,0.448,1.775,1.037,1.775,2.046c0,1.189-0.924,2.029-2.534,2.029
			c-0.74,0-1.43-0.182-1.903-0.461L603.532,223.464z"/>
		<path fill="#5B5B5F" d="M610.729,215.998v1.946h1.765v0.938h-1.765v3.655c0,0.841,0.237,1.315,0.924,1.315
			c0.322,0,0.563-0.041,0.715-0.084l0.059,0.924c-0.238,0.101-0.616,0.17-1.096,0.17c-0.571,0-1.033-0.185-1.327-0.521
			c-0.354-0.362-0.479-0.967-0.479-1.766v-3.697h-1.051v-0.938h1.051v-1.625L610.729,215.998z"/>
		<path fill="#5B5B5F" d="M616.971,224.726v-5.842h-0.952v-0.938h0.952v-0.322c0-0.953,0.21-1.821,0.784-2.367
			c0.463-0.447,1.079-0.631,1.65-0.631c0.438,0,0.813,0.1,1.054,0.196l-0.17,0.952c-0.184-0.084-0.436-0.153-0.783-0.153
			c-1.053,0-1.316,0.924-1.316,1.961v0.364h1.639v0.938h-1.639v5.842H616.971L616.971,224.726z"/>
		<path fill="#5B5B5F" d="M624.687,224.726l-0.098-0.854h-0.042c-0.378,0.531-1.106,1.009-2.073,1.009
			c-1.373,0-2.073-0.967-2.073-1.946c0-1.64,1.457-2.535,4.076-2.521v-0.142c0-0.562-0.154-1.567-1.541-1.567
			c-0.63,0-1.288,0.194-1.765,0.505l-0.28-0.813c0.561-0.363,1.373-0.604,2.228-0.604c2.073,0,2.577,1.415,2.577,2.772v2.535
			c0,0.588,0.028,1.161,0.112,1.625H624.687L624.687,224.726z M624.509,221.265c-1.348-0.025-2.872,0.211-2.872,1.527
			c0,0.798,0.53,1.176,1.163,1.176c0.882,0,1.439-0.56,1.639-1.134c0.042-0.126,0.07-0.267,0.07-0.394V221.265z"/>
		<path fill="#5B5B5F" d="M629.11,215.998v1.946h1.766v0.938h-1.766v3.655c0,0.841,0.237,1.315,0.924,1.315
			c0.322,0,0.563-0.041,0.715-0.084l0.059,0.924c-0.238,0.101-0.616,0.17-1.093,0.17c-0.574,0-1.036-0.185-1.33-0.521
			c-0.354-0.362-0.479-0.967-0.479-1.766v-3.697h-1.051v-0.938h1.051v-1.625L629.11,215.998z"/>
		<path fill="#5B5B5F" d="M636.012,224.726l-0.101-0.854h-0.042c-0.379,0.531-1.104,1.009-2.07,1.009
			c-1.373,0-2.073-0.967-2.073-1.946c0-1.64,1.457-2.535,4.076-2.521v-0.142c0-0.562-0.154-1.567-1.541-1.567
			c-0.63,0-1.288,0.194-1.768,0.505l-0.277-0.813c0.561-0.363,1.373-0.604,2.228-0.604c2.073,0,2.577,1.415,2.577,2.772v2.535
			c0,0.588,0.028,1.161,0.112,1.625H636.012L636.012,224.726z M635.831,221.265c-1.345-0.025-2.869,0.211-2.869,1.527
			c0,0.798,0.529,1.176,1.16,1.176c0.885,0,1.442-0.56,1.642-1.134c0.042-0.126,0.067-0.267,0.067-0.394V221.265z"/>
		<path fill="#5B5B5F" d="M639.01,214.778h1.229v9.945h-1.229V214.778z"/>
		<path fill="#5B5B5F" d="M650.112,224.474c-0.322,0.168-1.037,0.394-1.947,0.394c-2.045,0-3.376-1.39-3.376-3.459
			c0-2.091,1.432-3.603,3.645-3.603c0.729,0,1.373,0.185,1.709,0.353l-0.28,0.95c-0.294-0.168-0.756-0.32-1.429-0.32
			c-1.558,0-2.396,1.146-2.396,2.563c0,1.568,1.009,2.534,2.354,2.534c0.701,0,1.163-0.182,1.514-0.336L650.112,224.474z"/>
		<path fill="#5B5B5F" d="M655.304,224.726l-0.101-0.854h-0.042c-0.378,0.531-1.104,1.009-2.07,1.009
			c-1.373,0-2.073-0.967-2.073-1.946c0-1.64,1.457-2.535,4.076-2.521v-0.142c0-0.562-0.154-1.567-1.541-1.567
			c-0.63,0-1.288,0.194-1.768,0.505l-0.277-0.813c0.561-0.363,1.373-0.604,2.228-0.604c2.073,0,2.577,1.415,2.577,2.772v2.535
			c0,0.588,0.028,1.161,0.112,1.625H655.304L655.304,224.726z M655.123,221.265c-1.345-0.025-2.872,0.211-2.872,1.527
			c0,0.798,0.532,1.176,1.163,1.176c0.885,0,1.442-0.56,1.642-1.134c0.042-0.126,0.067-0.267,0.067-0.394V221.265z"/>
		<path fill="#5B5B5F" d="M658.134,223.464c0.361,0.238,1.009,0.49,1.625,0.49c0.896,0,1.313-0.448,1.313-1.01
			c0-0.588-0.35-0.909-1.261-1.245c-1.219-0.435-1.793-1.106-1.793-1.919c0-1.094,0.883-1.989,2.34-1.989
			c0.688,0,1.288,0.196,1.667,0.42l-0.309,0.896c-0.27-0.168-0.759-0.392-1.39-0.392c-0.729,0-1.135,0.42-1.135,0.925
			c0,0.563,0.406,0.813,1.289,1.147c1.177,0.448,1.778,1.037,1.778,2.046c0,1.189-0.925,2.029-2.535,2.029
			c-0.742,0-1.429-0.182-1.905-0.461L658.134,223.464z"/>
		<path fill="#5B5B5F" d="M664.529,221.56c0.028,1.666,1.093,2.354,2.325,2.354c0.883,0,1.415-0.154,1.877-0.353l0.21,0.883
			c-0.434,0.197-1.177,0.422-2.255,0.422c-2.087,0-3.334-1.372-3.334-3.417c0-2.048,1.205-3.656,3.18-3.656
			c2.213,0,2.805,1.947,2.805,3.192c0,0.252-0.028,0.447-0.042,0.574H664.529L664.529,221.56z M668.143,220.677
			c0.014-0.785-0.322-2.004-1.709-2.004c-1.247,0-1.793,1.149-1.893,2.004H668.143z"/>
		<path fill="#5B5B5F" d="M670.688,223.464c0.364,0.238,1.009,0.49,1.625,0.49c0.896,0,1.316-0.448,1.316-1.01
			c0-0.588-0.353-0.909-1.264-1.245c-1.219-0.435-1.793-1.106-1.793-1.919c0-1.094,0.883-1.989,2.34-1.989
			c0.688,0,1.288,0.196,1.667,0.42l-0.309,0.896c-0.269-0.168-0.757-0.392-1.387-0.392c-0.729,0-1.138,0.42-1.138,0.925
			c0,0.563,0.406,0.813,1.289,1.147c1.18,0.448,1.778,1.037,1.778,2.046c0,1.189-0.924,2.029-2.535,2.029
			c-0.742,0-1.429-0.182-1.905-0.461L670.688,223.464z"/>
	</g>
</g>
<g>
	<path fill="#5B5B5F" d="M35.471,334.146l0.197-1.244l2.673,0.76l-0.294-2.7h1.326l-0.294,2.7l2.721-0.76l0.179,1.244l-2.604,0.213
		l1.695,2.229l-1.176,0.643l-1.203-2.475l-1.094,2.475l-1.203-0.643l1.653-2.229L35.471,334.146z"/>
	<path fill="#5B5B5F" d="M42.731,332.642v-1.039h7.492v1.039h-3.165v8.955h-1.162v-8.955H42.731z"/>
	<path fill="#5B5B5F" d="M51.556,341.597V330.96h1.135v3.221c0,0.387-0.02,0.709-0.055,0.963h0.067
		c0.225-0.359,0.541-0.644,0.953-0.852c0.413-0.207,0.884-0.311,1.412-0.311c0.916,0,1.604,0.218,2.061,0.651
		c0.459,0.437,0.688,1.127,0.688,2.075v4.889h-1.135v-4.848c0-0.609-0.14-1.066-0.417-1.367c-0.278-0.301-0.713-0.451-1.307-0.451
		c-0.788,0-1.362,0.215-1.727,0.644c-0.361,0.429-0.543,1.13-0.543,2.104v3.918H51.556L51.556,341.597z"/>
	<path fill="#5B5B5F" d="M60.053,332.074c0-0.261,0.059-0.45,0.177-0.571c0.117-0.12,0.265-0.182,0.44-0.182
		c0.196,0,0.365,0.063,0.509,0.186c0.143,0.123,0.214,0.313,0.214,0.567c0,0.254-0.071,0.444-0.214,0.571
		c-0.144,0.125-0.313,0.188-0.509,0.188c-0.177,0-0.323-0.063-0.44-0.188C60.112,332.521,60.053,332.329,60.053,332.074z
		 M60.149,341.597v-7.492h1.039v7.492H60.149z"/>
	<path fill="#5B5B5F" d="M63.212,335.944c0-0.61,0.248-1.094,0.744-1.446s1.177-0.53,2.042-0.53c0.802,0,1.585,0.164,2.352,0.492
		l-0.396,0.924c-0.75-0.311-1.429-0.466-2.037-0.466c-0.539,0-0.944,0.085-1.22,0.254s-0.411,0.401-0.411,0.698
		c0,0.201,0.052,0.372,0.154,0.514c0.103,0.143,0.269,0.276,0.496,0.404c0.229,0.129,0.667,0.313,1.314,0.557
		c0.89,0.323,1.486,0.649,1.792,0.979c0.308,0.328,0.46,0.742,0.46,1.24c0,0.693-0.259,1.229-0.774,1.604
		c-0.517,0.376-1.241,0.563-2.176,0.563c-0.991,0-1.766-0.154-2.319-0.465v-1.047c0.358,0.184,0.745,0.326,1.156,0.432
		c0.411,0.104,0.81,0.158,1.19,0.158c0.594,0,1.05-0.096,1.37-0.285c0.319-0.188,0.479-0.479,0.479-0.866
		c0-0.292-0.128-0.542-0.381-0.75c-0.254-0.208-0.748-0.453-1.482-0.736c-0.699-0.261-1.194-0.487-1.487-0.682
		c-0.292-0.194-0.51-0.415-0.653-0.662C63.283,336.583,63.212,336.288,63.212,335.944z"/>
	<path fill="#5B5B5F" d="M73.589,337.897c0-1.252,0.301-2.222,0.899-2.904c0.599-0.684,1.457-1.025,2.573-1.025
		c0.359,0,0.72,0.039,1.08,0.116c0.359,0.077,0.643,0.169,0.848,0.272l-0.349,0.965c-0.251-0.102-0.524-0.184-0.82-0.25
		c-0.296-0.065-0.559-0.1-0.786-0.1c-1.521,0-2.283,0.971-2.283,2.912c0,0.922,0.187,1.627,0.559,2.119
		c0.371,0.492,0.921,0.738,1.649,0.738c0.624,0,1.266-0.135,1.921-0.403v1.005c-0.501,0.26-1.133,0.391-1.894,0.391
		c-1.085,0-1.922-0.334-2.512-1.002C73.884,340.063,73.589,339.12,73.589,337.897z"/>
	<path fill="#5B5B5F" d="M80.254,337.837c0-1.219,0.306-2.169,0.913-2.85c0.609-0.68,1.454-1.021,2.535-1.021
		c1.046,0,1.876,0.349,2.491,1.044c0.616,0.696,0.924,1.639,0.924,2.825c0,1.224-0.307,2.179-0.92,2.866s-1.461,1.029-2.542,1.029
		c-0.669,0-1.262-0.156-1.779-0.473c-0.518-0.314-0.918-0.767-1.198-1.355C80.394,339.315,80.254,338.627,80.254,337.837z
		 M81.416,337.837c0,0.959,0.191,1.689,0.575,2.191c0.383,0.504,0.947,0.755,1.691,0.755c0.742,0,1.309-0.25,1.693-0.75
		c0.386-0.5,0.578-1.232,0.578-2.196c0-0.955-0.192-1.68-0.578-2.176c-0.386-0.495-0.955-0.743-1.708-0.743
		c-0.744,0-1.306,0.244-1.685,0.733C81.605,336.14,81.416,336.868,81.416,337.837z"/>
	<path fill="#5B5B5F" d="M88.648,335.944c0-0.61,0.248-1.094,0.744-1.446s1.177-0.53,2.042-0.53c0.802,0,1.585,0.164,2.351,0.492
		l-0.396,0.924c-0.75-0.311-1.43-0.466-2.037-0.466c-0.539,0-0.945,0.085-1.221,0.254c-0.274,0.169-0.41,0.401-0.41,0.698
		c0,0.201,0.052,0.372,0.153,0.514c0.104,0.143,0.27,0.276,0.496,0.404c0.229,0.129,0.667,0.313,1.315,0.557
		c0.889,0.323,1.485,0.649,1.792,0.979c0.307,0.328,0.46,0.742,0.46,1.24c0,0.693-0.259,1.229-0.775,1.604
		c-0.516,0.376-1.241,0.563-2.175,0.563c-0.992,0-1.766-0.154-2.32-0.465v-1.047c0.359,0.184,0.745,0.326,1.156,0.432
		c0.412,0.104,0.81,0.158,1.191,0.158c0.594,0,1.05-0.096,1.369-0.285c0.319-0.188,0.479-0.479,0.479-0.866
		c0-0.292-0.127-0.542-0.38-0.75c-0.254-0.208-0.748-0.453-1.483-0.736c-0.699-0.261-1.193-0.487-1.486-0.682
		c-0.292-0.194-0.511-0.415-0.653-0.662C88.719,336.583,88.648,336.288,88.648,335.944z"/>
	<path fill="#5B5B5F" d="M94.814,334.985v-0.547l1.073-0.472l0.479-1.6h0.656v1.735h2.174v0.883h-2.174v4.42
		c0,0.451,0.106,0.799,0.32,1.041c0.215,0.242,0.509,0.363,0.883,0.363c0.199,0,0.395-0.016,0.581-0.045s0.335-0.062,0.443-0.093
		v0.856c-0.123,0.06-0.305,0.106-0.543,0.146c-0.24,0.038-0.455,0.058-0.646,0.058c-1.449,0-2.174-0.764-2.174-2.289v-4.457H94.814
		L94.814,334.985z"/>
	<path fill="#5B5B5F" d="M104.289,332.074c0-0.261,0.06-0.45,0.177-0.571c0.117-0.12,0.266-0.182,0.441-0.182
		c0.196,0,0.365,0.063,0.508,0.186c0.144,0.123,0.214,0.313,0.214,0.567c0,0.254-0.07,0.444-0.214,0.571
		c-0.143,0.125-0.312,0.188-0.508,0.188c-0.177,0-0.324-0.063-0.441-0.188C104.347,332.521,104.289,332.329,104.289,332.074z
		 M104.385,341.597v-7.492h1.039v7.492H104.385z"/>
	<path fill="#5B5B5F" d="M107.447,335.944c0-0.61,0.248-1.094,0.744-1.446s1.177-0.53,2.042-0.53c0.802,0,1.585,0.164,2.351,0.492
		l-0.396,0.924c-0.75-0.311-1.43-0.466-2.037-0.466c-0.539,0-0.945,0.085-1.22,0.254c-0.275,0.169-0.411,0.401-0.411,0.698
		c0,0.201,0.052,0.372,0.153,0.514c0.104,0.143,0.27,0.276,0.496,0.404c0.229,0.129,0.667,0.313,1.315,0.557
		c0.889,0.323,1.486,0.649,1.792,0.979c0.307,0.328,0.46,0.742,0.46,1.24c0,0.693-0.259,1.229-0.775,1.604
		c-0.516,0.376-1.24,0.563-2.175,0.563c-0.992,0-1.766-0.154-2.32-0.465v-1.047c0.359,0.184,0.745,0.326,1.156,0.432
		c0.412,0.104,0.811,0.158,1.191,0.158c0.594,0,1.05-0.096,1.37-0.285c0.318-0.188,0.479-0.479,0.479-0.866
		c0-0.292-0.127-0.542-0.38-0.75c-0.254-0.208-0.748-0.453-1.483-0.736c-0.698-0.261-1.193-0.487-1.486-0.682
		c-0.292-0.194-0.51-0.415-0.653-0.662C107.518,336.583,107.447,336.288,107.447,335.944z"/>
	<path fill="#5B5B5F" d="M117.824,337.897c0-1.252,0.3-2.222,0.899-2.904c0.599-0.684,1.457-1.025,2.572-1.025
		c0.36,0,0.721,0.039,1.08,0.116c0.36,0.077,0.644,0.169,0.849,0.272l-0.35,0.965c-0.251-0.102-0.523-0.184-0.819-0.25
		c-0.297-0.065-0.56-0.1-0.786-0.1c-1.522,0-2.283,0.971-2.283,2.912c0,0.922,0.186,1.627,0.558,2.119
		c0.371,0.492,0.921,0.738,1.65,0.738c0.624,0,1.265-0.135,1.921-0.403v1.005c-0.501,0.26-1.133,0.391-1.894,0.391
		c-1.085,0-1.923-0.334-2.513-1.002S117.824,339.12,117.824,337.897z"/>
	<path fill="#5B5B5F" d="M124.345,339.533c0-1.511,1.212-2.302,3.635-2.373l1.272-0.042v-0.471c0-0.596-0.126-1.035-0.379-1.317
		c-0.252-0.284-0.656-0.427-1.211-0.427c-0.623,0-1.328,0.193-2.115,0.582l-0.353-0.871c0.369-0.197,0.773-0.354,1.213-0.465
		c0.44-0.111,0.881-0.168,1.323-0.168c0.893,0,1.554,0.197,1.982,0.595c0.432,0.396,0.646,1.032,0.646,1.907v5.113h-0.841
		l-0.227-1.055h-0.055c-0.373,0.464-0.745,0.779-1.115,0.943c-0.371,0.164-0.834,0.246-1.389,0.246
		c-0.747,0-1.332-0.189-1.755-0.571C124.557,340.778,124.345,340.237,124.345,339.533z M125.549,339.547
		c0,0.412,0.124,0.726,0.372,0.94c0.248,0.216,0.596,0.322,1.04,0.322c0.705,0,1.26-0.193,1.662-0.584
		c0.402-0.389,0.604-0.934,0.604-1.635v-0.68l-1.133,0.048c-0.9,0.032-1.551,0.173-1.948,0.423
		C125.748,338.632,125.549,339.021,125.549,339.547z"/>
	<path fill="#5B5B5F" d="M132.692,341.597V330.96h1.135v10.637H132.692z"/>
	<path fill="#5B5B5F" d="M135.816,337.897c0-1.252,0.3-2.222,0.898-2.904c0.6-0.684,1.457-1.025,2.573-1.025
		c0.36,0,0.72,0.039,1.08,0.116s0.644,0.169,0.848,0.272l-0.349,0.965c-0.251-0.102-0.524-0.184-0.82-0.25
		c-0.296-0.065-0.559-0.1-0.785-0.1c-1.522,0-2.283,0.971-2.283,2.912c0,0.922,0.186,1.627,0.558,2.119
		c0.371,0.492,0.921,0.738,1.65,0.738c0.624,0,1.265-0.135,1.921-0.403v1.005c-0.501,0.26-1.133,0.391-1.895,0.391
		c-1.085,0-1.922-0.334-2.512-1.002S135.816,339.12,135.816,337.897z"/>
	<path fill="#5B5B5F" d="M142.816,339.006v-4.901h1.162v4.86c0,0.61,0.139,1.066,0.416,1.367c0.276,0.301,0.712,0.451,1.304,0.451
		c0.782,0,1.354-0.214,1.716-0.644c0.362-0.429,0.543-1.127,0.543-2.099v-3.938h1.135v7.492h-0.923l-0.176-1.005h-0.063
		c-0.232,0.369-0.555,0.651-0.967,0.849c-0.41,0.195-0.881,0.293-1.408,0.293c-0.915,0-1.602-0.217-2.057-0.648
		S142.816,339.958,142.816,339.006z"/>
	<path fill="#5B5B5F" d="M151.491,341.597V330.96h1.135v10.637H151.491z"/>
	<path fill="#5B5B5F" d="M154.471,339.533c0-1.511,1.212-2.302,3.635-2.373l1.272-0.042v-0.471c0-0.596-0.126-1.035-0.379-1.317
		c-0.252-0.284-0.656-0.427-1.211-0.427c-0.623,0-1.328,0.193-2.115,0.582l-0.353-0.871c0.369-0.197,0.772-0.354,1.213-0.465
		s0.881-0.168,1.323-0.168c0.893,0,1.554,0.197,1.982,0.595c0.432,0.396,0.646,1.032,0.646,1.907v5.113h-0.841l-0.227-1.055h-0.055
		c-0.373,0.464-0.745,0.779-1.115,0.943c-0.371,0.164-0.834,0.246-1.389,0.246c-0.747,0-1.332-0.189-1.755-0.571
		C154.683,340.778,154.471,340.237,154.471,339.533z M155.675,339.547c0,0.412,0.124,0.726,0.372,0.94
		c0.248,0.216,0.596,0.322,1.04,0.322c0.705,0,1.26-0.193,1.662-0.584c0.402-0.389,0.604-0.934,0.604-1.635v-0.68l-1.133,0.048
		c-0.9,0.032-1.551,0.173-1.948,0.423C155.874,338.632,155.675,339.021,155.675,339.547z"/>
	<path fill="#5B5B5F" d="M161.827,334.985v-0.547l1.073-0.472l0.479-1.6h0.656v1.735h2.174v0.883h-2.174v4.42
		c0,0.451,0.107,0.799,0.321,1.041s0.508,0.363,0.882,0.363c0.2,0,0.395-0.016,0.581-0.045s0.335-0.062,0.444-0.093v0.856
		c-0.123,0.06-0.306,0.106-0.543,0.146c-0.24,0.038-0.455,0.058-0.646,0.058c-1.449,0-2.174-0.764-2.174-2.289v-4.457H161.827
		L161.827,334.985z"/>
	<path fill="#5B5B5F" d="M167.344,337.912c0-1.208,0.297-2.167,0.89-2.878s1.389-1.066,2.389-1.066c0.937,0,1.676,0.309,2.221,0.926
		c0.546,0.619,0.817,1.434,0.817,2.444v0.718h-5.154c0.022,0.881,0.245,1.547,0.668,2.004c0.423,0.455,1.018,0.684,1.783,0.684
		c0.806,0,1.601-0.17,2.386-0.506v1.012c-0.399,0.173-0.777,0.298-1.135,0.372c-0.356,0.075-0.787,0.112-1.292,0.112
		c-1.104,0-1.976-0.336-2.613-1.012C167.665,340.047,167.344,339.11,167.344,337.912z M168.533,337.133h3.924
		c0-0.716-0.16-1.264-0.479-1.644c-0.319-0.381-0.776-0.571-1.369-0.571c-0.604,0-1.083,0.196-1.441,0.588
		C168.81,335.897,168.596,336.44,168.533,337.133z"/>
	<path fill="#5B5B5F" d="M175.198,337.871c0-1.235,0.272-2.194,0.817-2.878s1.304-1.025,2.274-1.025c1.02,0,1.799,0.369,2.342,1.107
		h0.09l-0.049-0.54l-0.026-0.526v-3.049h1.135v10.637h-0.923l-0.15-1.005h-0.062c-0.525,0.761-1.311,1.142-2.355,1.142
		c-0.977,0-1.735-0.334-2.277-1.004C175.469,340.06,175.198,339.106,175.198,337.871z M176.36,337.885
		c0,0.957,0.176,1.681,0.527,2.167c0.351,0.487,0.866,0.731,1.547,0.731c0.775,0,1.339-0.212,1.688-0.632
		c0.35-0.422,0.523-1.104,0.523-2.041v-0.239c0-1.062-0.178-1.819-0.53-2.272c-0.354-0.453-0.919-0.681-1.695-0.681
		c-0.666,0-1.176,0.259-1.529,0.776C176.537,336.211,176.36,336.94,176.36,337.885z"/>
	<path fill="#5B5B5F" d="M187.414,337.837c0-1.219,0.306-2.169,0.913-2.85c0.609-0.68,1.454-1.021,2.535-1.021
		c1.046,0,1.876,0.349,2.491,1.044c0.616,0.696,0.924,1.639,0.924,2.825c0,1.224-0.307,2.179-0.92,2.866s-1.461,1.029-2.542,1.029
		c-0.669,0-1.262-0.156-1.779-0.473c-0.518-0.314-0.918-0.767-1.199-1.355C187.554,339.315,187.414,338.627,187.414,337.837z
		 M188.576,337.837c0,0.959,0.191,1.689,0.575,2.191c0.383,0.504,0.947,0.755,1.69,0.755s1.31-0.25,1.694-0.75
		s0.578-1.232,0.578-2.196c0-0.955-0.193-1.68-0.578-2.176c-0.386-0.495-0.955-0.743-1.708-0.743c-0.744,0-1.306,0.244-1.685,0.733
		C188.765,336.14,188.576,336.868,188.576,337.837z"/>
	<path fill="#5B5B5F" d="M196.287,341.597v-7.492h0.923l0.186,1.013h0.055c0.232-0.364,0.559-0.647,0.979-0.849
		c0.419-0.201,0.887-0.301,1.4-0.301c0.902,0,1.581,0.219,2.037,0.652c0.456,0.436,0.684,1.132,0.684,2.089v4.888h-1.135v-4.855
		c0-0.612-0.139-1.068-0.417-1.37c-0.277-0.302-0.713-0.452-1.306-0.452c-0.784,0-1.358,0.212-1.723,0.637
		c-0.365,0.426-0.548,1.127-0.548,2.104v3.938h-1.135V341.597z"/>
	<path fill="#5B5B5F" d="M207.525,334.985v-0.547l1.073-0.472l0.479-1.6h0.656v1.735h2.174v0.883h-2.174v4.42
		c0,0.451,0.106,0.799,0.321,1.041c0.214,0.242,0.508,0.363,0.882,0.363c0.2,0,0.395-0.016,0.581-0.045s0.335-0.062,0.443-0.093
		v0.856c-0.123,0.06-0.305,0.106-0.543,0.146c-0.239,0.038-0.455,0.058-0.646,0.058c-1.449,0-2.174-0.764-2.174-2.289v-4.457
		H207.525L207.525,334.985z"/>
	<path fill="#5B5B5F" d="M213.459,341.597V330.96h1.136v3.221c0,0.387-0.02,0.709-0.056,0.963h0.068
		c0.224-0.359,0.541-0.644,0.953-0.852c0.413-0.207,0.884-0.311,1.412-0.311c0.916,0,1.604,0.218,2.061,0.651
		c0.459,0.437,0.688,1.127,0.688,2.075v4.889h-1.136v-4.848c0-0.609-0.139-1.066-0.417-1.367c-0.277-0.301-0.713-0.451-1.306-0.451
		c-0.788,0-1.363,0.215-1.727,0.644c-0.361,0.429-0.544,1.13-0.544,2.104v3.918H213.459L213.459,341.597z"/>
	<path fill="#5B5B5F" d="M221.635,337.912c0-1.208,0.298-2.167,0.891-2.878s1.389-1.066,2.389-1.066
		c0.937,0,1.676,0.309,2.221,0.926c0.546,0.619,0.817,1.434,0.817,2.444v0.718h-5.154c0.022,0.881,0.245,1.547,0.668,2.004
		c0.423,0.455,1.018,0.684,1.783,0.684c0.806,0,1.601-0.17,2.386-0.506v1.012c-0.399,0.173-0.777,0.298-1.135,0.372
		c-0.356,0.075-0.787,0.112-1.292,0.112c-1.104,0-1.976-0.336-2.613-1.012C221.956,340.047,221.635,339.11,221.635,337.912z
		 M222.824,337.133h3.924c0-0.716-0.16-1.264-0.479-1.644c-0.319-0.381-0.776-0.571-1.369-0.571c-0.604,0-1.083,0.196-1.441,0.588
		C223.101,335.897,222.887,336.44,222.824,337.133z"/>
	<path fill="#5B5B5F" d="M232.34,331.603h1.271l2.639,4.998l2.659-4.998h1.258l-3.336,6.119v3.875h-1.162v-3.82L232.34,331.603z"/>
	<path fill="#5B5B5F" d="M240.269,337.912c0-1.208,0.297-2.167,0.89-2.878s1.389-1.066,2.389-1.066c0.937,0,1.677,0.309,2.222,0.926
		c0.545,0.619,0.816,1.434,0.816,2.444v0.718h-5.153c0.021,0.881,0.244,1.547,0.668,2.004c0.422,0.455,1.017,0.684,1.782,0.684
		c0.806,0,1.601-0.17,2.387-0.506v1.012c-0.4,0.173-0.778,0.298-1.136,0.372c-0.356,0.075-0.786,0.112-1.292,0.112
		c-1.104,0-1.976-0.336-2.613-1.012C240.59,340.047,240.269,339.11,240.269,337.912z M241.459,337.133h3.924
		c0-0.716-0.159-1.264-0.479-1.644c-0.319-0.381-0.776-0.571-1.369-0.571c-0.603,0-1.083,0.196-1.44,0.588
		C241.736,335.897,241.522,336.44,241.459,337.133z"/>
	<path fill="#5B5B5F" d="M247.98,339.533c0-1.511,1.212-2.302,3.635-2.373l1.273-0.042v-0.471c0-0.596-0.126-1.035-0.38-1.317
		c-0.252-0.284-0.655-0.427-1.211-0.427c-0.623,0-1.327,0.193-2.114,0.582l-0.354-0.871c0.369-0.197,0.773-0.354,1.213-0.465
		c0.44-0.111,0.881-0.168,1.323-0.168c0.893,0,1.554,0.197,1.983,0.595c0.431,0.396,0.646,1.032,0.646,1.907v5.113h-0.841
		l-0.226-1.055h-0.056c-0.373,0.464-0.745,0.779-1.115,0.943s-0.834,0.246-1.389,0.246c-0.747,0-1.332-0.189-1.755-0.571
		C248.192,340.778,247.98,340.237,247.98,339.533z M249.183,339.547c0,0.412,0.124,0.726,0.372,0.94
		c0.248,0.216,0.595,0.322,1.04,0.322c0.704,0,1.259-0.193,1.661-0.584c0.402-0.389,0.604-0.934,0.604-1.635v-0.68l-1.133,0.048
		c-0.9,0.032-1.55,0.173-1.948,0.423C249.383,338.632,249.183,339.021,249.183,339.547z"/>
	<path fill="#5B5B5F" d="M256.327,341.597v-7.492h0.923l0.14,1.395h0.059c0.278-0.489,0.614-0.866,1.006-1.132
		c0.393-0.267,0.822-0.398,1.292-0.398c0.333,0,0.631,0.027,0.896,0.083l-0.157,1.059c-0.311-0.067-0.583-0.103-0.82-0.103
		c-0.605,0-1.125,0.246-1.555,0.737c-0.432,0.492-0.646,1.104-0.646,1.837v4.017h-1.137V341.597z"/>
	<path fill="#5B5B5F" d="M261.563,335.944c0-0.61,0.248-1.094,0.744-1.446s1.177-0.53,2.042-0.53c0.802,0,1.585,0.164,2.351,0.492
		l-0.396,0.924c-0.75-0.311-1.43-0.466-2.037-0.466c-0.539,0-0.945,0.085-1.221,0.254c-0.274,0.169-0.41,0.401-0.41,0.698
		c0,0.201,0.052,0.372,0.153,0.514c0.104,0.143,0.27,0.276,0.496,0.404c0.229,0.129,0.667,0.313,1.315,0.557
		c0.889,0.323,1.485,0.649,1.792,0.979c0.307,0.328,0.46,0.742,0.46,1.24c0,0.693-0.26,1.229-0.775,1.604s-1.241,0.563-2.175,0.563
		c-0.992,0-1.766-0.154-2.32-0.465v-1.047c0.359,0.184,0.745,0.326,1.156,0.432c0.412,0.104,0.81,0.158,1.191,0.158
		c0.594,0,1.05-0.096,1.369-0.285c0.319-0.188,0.479-0.479,0.479-0.866c0-0.292-0.127-0.542-0.38-0.75
		c-0.254-0.208-0.748-0.453-1.483-0.736c-0.699-0.261-1.193-0.487-1.486-0.682c-0.292-0.194-0.511-0.415-0.653-0.662
		C261.635,336.583,261.563,336.288,261.563,335.944z"/>
	<path fill="#5B5B5F" d="M271.94,337.837c0-1.219,0.305-2.169,0.913-2.85c0.608-0.68,1.454-1.021,2.535-1.021
		c1.046,0,1.876,0.349,2.49,1.044c0.616,0.696,0.925,1.639,0.925,2.825c0,1.224-0.308,2.179-0.921,2.866
		c-0.612,0.688-1.461,1.029-2.542,1.029c-0.669,0-1.262-0.156-1.778-0.473c-0.519-0.314-0.918-0.767-1.199-1.355
		C272.081,339.315,271.94,338.627,271.94,337.837z M273.102,337.837c0,0.959,0.19,1.689,0.575,2.191
		c0.383,0.504,0.946,0.755,1.69,0.755c0.743,0,1.31-0.25,1.694-0.75s0.578-1.232,0.578-2.196c0-0.955-0.193-1.68-0.578-2.176
		c-0.386-0.495-0.955-0.743-1.708-0.743c-0.744,0-1.307,0.244-1.686,0.733C273.292,336.14,273.102,336.868,273.102,337.837z"/>
	<path fill="#5B5B5F" d="M279.808,334.985v-0.512l1.34-0.41v-0.416c0-1.832,0.805-2.75,2.413-2.75c0.396,0,0.86,0.08,1.395,0.235
		l-0.294,0.899c-0.438-0.143-0.812-0.213-1.121-0.213c-0.429,0-0.745,0.144-0.95,0.429c-0.204,0.284-0.308,0.741-0.308,1.37v0.484
		h1.907v0.883h-1.907v6.609h-1.135v-6.609H279.808L279.808,334.985z"/>
	<path fill="#5B5B5F" d="M289.194,341.597V330.96h1.135v10.637H289.194z"/>
	<path fill="#5B5B5F" d="M292.639,332.074c0-0.261,0.059-0.45,0.177-0.571c0.117-0.12,0.265-0.182,0.44-0.182
		c0.196,0,0.365,0.063,0.509,0.186c0.143,0.123,0.214,0.313,0.214,0.567c0,0.254-0.071,0.444-0.214,0.571
		c-0.144,0.125-0.313,0.188-0.509,0.188c-0.177,0-0.323-0.063-0.44-0.188C292.698,332.521,292.639,332.329,292.639,332.074z
		 M292.735,341.597v-7.492h1.039v7.492H292.735z"/>
	<path fill="#5B5B5F" d="M295.271,334.985v-0.512l1.34-0.41v-0.416c0-1.832,0.805-2.75,2.413-2.75c0.396,0,0.861,0.08,1.396,0.235
		l-0.295,0.899c-0.438-0.143-0.812-0.213-1.12-0.213c-0.43,0-0.745,0.144-0.95,0.429c-0.205,0.284-0.309,0.741-0.309,1.37v0.484
		h1.907v0.883h-1.907v6.609h-1.135v-6.609H295.271L295.271,334.985z"/>
	<path fill="#5B5B5F" d="M300.603,337.912c0-1.208,0.297-2.167,0.89-2.878c0.594-0.711,1.39-1.066,2.39-1.066
		c0.936,0,1.676,0.309,2.221,0.926c0.545,0.619,0.817,1.434,0.817,2.444v0.718h-5.154c0.021,0.881,0.245,1.547,0.668,2.004
		c0.422,0.455,1.017,0.684,1.783,0.684c0.805,0,1.6-0.17,2.386-0.506v1.012c-0.4,0.173-0.778,0.298-1.135,0.372
		c-0.357,0.075-0.787,0.112-1.292,0.112c-1.104,0-1.977-0.336-2.614-1.012C300.925,340.047,300.603,339.11,300.603,337.912z
		 M301.794,337.133h3.924c0-0.716-0.16-1.264-0.479-1.644c-0.318-0.381-0.775-0.571-1.369-0.571c-0.603,0-1.083,0.196-1.44,0.588
		C302.07,335.897,301.856,336.44,301.794,337.133z"/>
	<path fill="#5B5B5F" d="M312.511,341.597V330.96h1.135v10.637H312.511z"/>
	<path fill="#5B5B5F" d="M315.635,337.837c0-1.219,0.305-2.169,0.913-2.85c0.608-0.68,1.454-1.021,2.534-1.021
		c1.047,0,1.877,0.349,2.491,1.044c0.616,0.696,0.924,1.639,0.924,2.825c0,1.224-0.307,2.179-0.92,2.866
		c-0.612,0.688-1.461,1.029-2.542,1.029c-0.669,0-1.262-0.156-1.778-0.473c-0.519-0.314-0.918-0.767-1.199-1.355
		C315.776,339.315,315.635,338.627,315.635,337.837z M316.799,337.837c0,0.959,0.19,1.689,0.574,2.191
		c0.384,0.504,0.947,0.755,1.691,0.755c0.743,0,1.309-0.25,1.694-0.75c0.385-0.5,0.578-1.232,0.578-2.196
		c0-0.955-0.193-1.68-0.578-2.176c-0.387-0.495-0.955-0.743-1.708-0.743c-0.744,0-1.307,0.244-1.686,0.733
		C316.987,336.14,316.799,336.868,316.799,337.837z"/>
	<path fill="#5B5B5F" d="M324.03,335.944c0-0.61,0.248-1.094,0.744-1.446s1.177-0.53,2.042-0.53c0.802,0,1.585,0.164,2.351,0.492
		l-0.396,0.924c-0.75-0.311-1.429-0.466-2.037-0.466c-0.539,0-0.945,0.085-1.22,0.254c-0.275,0.169-0.411,0.401-0.411,0.698
		c0,0.201,0.052,0.372,0.154,0.514c0.103,0.143,0.269,0.276,0.496,0.404c0.229,0.129,0.667,0.313,1.314,0.557
		c0.889,0.323,1.486,0.649,1.792,0.979c0.307,0.328,0.46,0.742,0.46,1.24c0,0.693-0.259,1.229-0.774,1.604
		c-0.517,0.376-1.241,0.563-2.176,0.563c-0.991,0-1.766-0.154-2.319-0.465v-1.047c0.358,0.184,0.745,0.326,1.155,0.432
		c0.412,0.104,0.811,0.158,1.191,0.158c0.594,0,1.05-0.096,1.37-0.285c0.319-0.188,0.479-0.479,0.479-0.866
		c0-0.292-0.127-0.542-0.38-0.75c-0.254-0.208-0.748-0.453-1.482-0.736c-0.699-0.261-1.194-0.487-1.487-0.682
		c-0.292-0.194-0.51-0.415-0.653-0.662C324.101,336.583,324.03,336.288,324.03,335.944z"/>
	<path fill="#5B5B5F" d="M330.196,334.985v-0.547l1.073-0.472l0.479-1.6h0.656v1.735h2.174v0.883h-2.174v4.42
		c0,0.451,0.107,0.799,0.321,1.041s0.508,0.363,0.882,0.363c0.2,0,0.396-0.016,0.581-0.045c0.188-0.029,0.335-0.062,0.444-0.093
		v0.856c-0.123,0.06-0.306,0.106-0.543,0.146c-0.24,0.038-0.455,0.058-0.646,0.058c-1.449,0-2.174-0.764-2.174-2.289v-4.457H330.196
		L330.196,334.985z"/>
	<path fill="#5B5B5F" d="M339.124,337.763c0-1.209,0.18-2.339,0.536-3.392c0.356-1.054,0.869-1.976,1.535-2.769h1.107
		c-0.656,0.879-1.149,1.846-1.479,2.897c-0.331,1.054-0.496,2.135-0.496,3.247c0,1.094,0.169,2.162,0.506,3.206
		c0.338,1.044,0.822,1.996,1.456,2.856h-1.094c-0.671-0.773-1.184-1.68-1.539-2.713
		C339.302,340.063,339.124,338.951,339.124,337.763z"/>
	<path fill="#5B5B5F" d="M342.706,331.603h1.271l2.639,4.998l2.659-4.998h1.258l-3.336,6.119v3.875h-1.162v-3.82L342.706,331.603z"
		/>
	<path fill="#5B5B5F" d="M351.922,341.597v-9.994h1.161v8.955h4.409v1.039H351.922z"/>
	<path fill="#5B5B5F" d="M359.187,341.597v-9.994h1.162v8.955h4.409v1.039H359.187z"/>
	<path fill="#5B5B5F" d="M365.497,331.603h1.107c0.671,0.799,1.184,1.725,1.539,2.779c0.354,1.055,0.532,2.182,0.532,3.381
		c0,1.197-0.18,2.314-0.536,3.35c-0.357,1.035-0.869,1.935-1.535,2.699h-1.094c0.634-0.855,1.119-1.809,1.456-2.854
		c0.337-1.047,0.506-2.116,0.506-3.21c0-1.112-0.165-2.194-0.496-3.247C366.646,333.448,366.153,332.481,365.497,331.603z"/>
	<path fill="#5B5B5F" d="M373.503,339.533c0-1.511,1.212-2.302,3.635-2.373l1.272-0.042v-0.471c0-0.596-0.126-1.035-0.379-1.317
		c-0.252-0.284-0.655-0.427-1.211-0.427c-0.623,0-1.328,0.193-2.115,0.582l-0.353-0.871c0.369-0.197,0.773-0.354,1.213-0.465
		c0.44-0.111,0.881-0.168,1.323-0.168c0.893,0,1.554,0.197,1.982,0.595c0.432,0.396,0.646,1.032,0.646,1.907v5.113h-0.841
		l-0.227-1.055h-0.055c-0.373,0.464-0.745,0.779-1.115,0.943c-0.371,0.164-0.834,0.246-1.389,0.246
		c-0.747,0-1.332-0.189-1.755-0.571C373.715,340.778,373.503,340.237,373.503,339.533z M374.705,339.547
		c0,0.412,0.124,0.726,0.372,0.94c0.248,0.216,0.596,0.322,1.04,0.322c0.705,0,1.26-0.193,1.662-0.584
		c0.402-0.389,0.604-0.934,0.604-1.635v-0.68l-1.133,0.048c-0.9,0.032-1.551,0.173-1.948,0.423
		C374.904,338.632,374.705,339.021,374.705,339.547z"/>
	<path fill="#5B5B5F" d="M381.848,341.597v-7.492h0.923l0.185,1.013h0.056c0.231-0.364,0.559-0.647,0.978-0.849
		s0.887-0.301,1.401-0.301c0.901,0,1.581,0.219,2.037,0.652c0.456,0.436,0.684,1.132,0.684,2.089v4.888h-1.135v-4.855
		c0-0.612-0.139-1.068-0.417-1.37s-0.713-0.452-1.306-0.452c-0.784,0-1.358,0.212-1.724,0.637c-0.365,0.426-0.547,1.127-0.547,2.104
		v3.938h-1.135V341.597z"/>
	<path fill="#5B5B5F" d="M390.024,337.871c0-1.235,0.272-2.194,0.817-2.878s1.304-1.025,2.274-1.025c1.02,0,1.799,0.369,2.342,1.107
		h0.09l-0.049-0.54l-0.026-0.526v-3.049h1.135v10.637h-0.923l-0.15-1.005h-0.062c-0.525,0.761-1.311,1.142-2.355,1.142
		c-0.977,0-1.735-0.334-2.277-1.004C390.297,340.06,390.024,339.106,390.024,337.871z M391.186,337.885
		c0,0.957,0.176,1.681,0.527,2.167c0.351,0.487,0.866,0.731,1.547,0.731c0.775,0,1.339-0.212,1.688-0.632
		c0.35-0.422,0.523-1.104,0.523-2.041v-0.239c0-1.062-0.177-1.819-0.53-2.272s-0.919-0.681-1.695-0.681
		c-0.666,0-1.176,0.259-1.529,0.776C391.363,336.211,391.186,336.94,391.186,337.885z"/>
	<path fill="#5B5B5F" d="M401.454,331.603h1.271l2.639,4.998l2.659-4.998h1.258l-3.336,6.119v3.875h-1.162v-3.82L401.454,331.603z"
		/>
	<path fill="#5B5B5F" d="M409.385,337.912c0-1.208,0.297-2.167,0.89-2.878s1.389-1.066,2.389-1.066c0.937,0,1.677,0.309,2.222,0.926
		c0.545,0.619,0.816,1.434,0.816,2.444v0.718h-5.153c0.021,0.881,0.245,1.547,0.668,2.004c0.422,0.455,1.017,0.684,1.782,0.684
		c0.806,0,1.601-0.17,2.387-0.506v1.012c-0.4,0.173-0.778,0.298-1.136,0.372c-0.356,0.075-0.786,0.112-1.292,0.112
		c-1.104,0-1.976-0.336-2.613-1.012C409.705,340.047,409.385,339.11,409.385,337.912z M410.573,337.133h3.924
		c0-0.716-0.159-1.264-0.479-1.644c-0.319-0.381-0.776-0.571-1.369-0.571c-0.603,0-1.083,0.196-1.441,0.588
		C410.85,335.897,410.636,336.44,410.573,337.133z"/>
	<path fill="#5B5B5F" d="M417.094,339.533c0-1.511,1.212-2.302,3.635-2.373l1.273-0.042v-0.471c0-0.596-0.126-1.035-0.38-1.317
		c-0.252-0.284-0.655-0.427-1.211-0.427c-0.623,0-1.327,0.193-2.114,0.582l-0.354-0.871c0.369-0.197,0.773-0.354,1.213-0.465
		c0.44-0.111,0.881-0.168,1.323-0.168c0.894,0,1.554,0.197,1.983,0.595c0.431,0.396,0.646,1.032,0.646,1.907v5.113h-0.841
		l-0.226-1.055h-0.056c-0.373,0.464-0.745,0.779-1.115,0.943s-0.834,0.246-1.389,0.246c-0.747,0-1.332-0.189-1.755-0.571
		C417.306,340.778,417.094,340.237,417.094,339.533z M418.299,339.547c0,0.412,0.124,0.726,0.372,0.94
		c0.248,0.216,0.595,0.322,1.04,0.322c0.704,0,1.259-0.193,1.661-0.584c0.402-0.389,0.604-0.934,0.604-1.635v-0.68l-1.133,0.048
		c-0.9,0.032-1.55,0.173-1.948,0.423S418.299,339.021,418.299,339.547z"/>
	<path fill="#5B5B5F" d="M425.441,341.597v-7.492h0.923l0.14,1.395h0.059c0.278-0.489,0.614-0.866,1.006-1.132
		c0.393-0.267,0.822-0.398,1.292-0.398c0.333,0,0.631,0.027,0.896,0.083l-0.157,1.059c-0.311-0.067-0.583-0.103-0.82-0.103
		c-0.605,0-1.125,0.246-1.555,0.737c-0.433,0.492-0.646,1.104-0.646,1.837v4.017h-1.137V341.597z"/>
	<path fill="#5B5B5F" d="M430.677,335.944c0-0.61,0.248-1.094,0.744-1.446c0.495-0.353,1.177-0.53,2.042-0.53
		c0.802,0,1.585,0.164,2.351,0.492l-0.396,0.924c-0.75-0.311-1.43-0.466-2.037-0.466c-0.539,0-0.945,0.085-1.221,0.254
		c-0.274,0.169-0.41,0.401-0.41,0.698c0,0.201,0.052,0.372,0.153,0.514c0.104,0.143,0.27,0.276,0.496,0.404
		c0.229,0.129,0.667,0.313,1.315,0.557c0.889,0.323,1.485,0.649,1.792,0.979c0.307,0.328,0.46,0.742,0.46,1.24
		c0,0.693-0.26,1.229-0.775,1.604s-1.241,0.563-2.175,0.563c-0.992,0-1.766-0.154-2.32-0.465v-1.047
		c0.359,0.184,0.745,0.326,1.156,0.432c0.412,0.104,0.81,0.158,1.191,0.158c0.594,0,1.05-0.096,1.369-0.285
		c0.319-0.188,0.479-0.479,0.479-0.866c0-0.292-0.127-0.542-0.38-0.75c-0.254-0.208-0.748-0.453-1.483-0.736
		c-0.699-0.261-1.193-0.487-1.486-0.682c-0.292-0.194-0.511-0.415-0.653-0.662C430.749,336.583,430.677,336.288,430.677,335.944z"/>
	<path fill="#5B5B5F" d="M441.642,341.597v-9.994h1.162v8.955h4.409v1.039H441.642z"/>
	<path fill="#5B5B5F" d="M448.642,332.074c0-0.261,0.059-0.45,0.177-0.571c0.117-0.12,0.266-0.182,0.441-0.182
		c0.195,0,0.365,0.063,0.508,0.186s0.214,0.313,0.214,0.567c0,0.254-0.071,0.444-0.214,0.571c-0.143,0.125-0.313,0.188-0.508,0.188
		c-0.178,0-0.324-0.063-0.441-0.188C448.701,332.521,448.642,332.329,448.642,332.074z M448.738,341.597v-7.492h1.039v7.492H448.738
		z"/>
	<path fill="#5B5B5F" d="M451.076,334.104h1.218l1.612,4.442c0.364,1.039,0.579,1.714,0.644,2.022h0.055
		c0.05-0.24,0.209-0.741,0.475-1.5c0.269-0.76,0.865-2.414,1.795-4.967h1.218l-2.845,7.492h-1.325L451.076,334.104z"/>
	<path fill="#5B5B5F" d="M458.877,337.912c0-1.208,0.297-2.167,0.89-2.878s1.389-1.066,2.389-1.066c0.937,0,1.676,0.309,2.222,0.926
		c0.545,0.619,0.816,1.434,0.816,2.444v0.718h-5.154c0.022,0.881,0.245,1.547,0.669,2.004c0.422,0.455,1.017,0.684,1.782,0.684
		c0.806,0,1.601-0.17,2.387-0.506v1.012c-0.4,0.173-0.778,0.298-1.136,0.372c-0.356,0.075-0.787,0.112-1.292,0.112
		c-1.104,0-1.976-0.336-2.613-1.012C459.197,340.047,458.877,339.11,458.877,337.912z M460.065,337.133h3.924
		c0-0.716-0.16-1.264-0.479-1.644c-0.319-0.381-0.776-0.571-1.369-0.571c-0.604,0-1.083,0.196-1.441,0.588
		C460.343,335.897,460.13,336.44,460.065,337.133z"/>
	<path fill="#5B5B5F" d="M466.73,337.871c0-1.235,0.272-2.194,0.817-2.878s1.304-1.025,2.274-1.025c1.02,0,1.799,0.369,2.342,1.107
		h0.09l-0.049-0.54l-0.026-0.526v-3.049h1.135v10.637h-0.923l-0.15-1.005h-0.062c-0.525,0.761-1.311,1.142-2.355,1.142
		c-0.977,0-1.735-0.334-2.277-1.004C467.003,340.06,466.73,339.106,466.73,337.871z M467.892,337.885
		c0,0.957,0.176,1.681,0.527,2.167c0.351,0.487,0.866,0.731,1.547,0.731c0.775,0,1.339-0.212,1.688-0.632
		c0.35-0.422,0.523-1.104,0.523-2.041v-0.239c0-1.062-0.177-1.819-0.53-2.272s-0.919-0.681-1.695-0.681
		c-0.666,0-1.176,0.259-1.529,0.776C468.069,336.211,467.892,336.94,467.892,337.885z"/>
	<path fill="#5B5B5F" d="M478.317,334.104h1.203c0.482,1.879,0.851,3.313,1.104,4.297c0.253,0.983,0.39,1.647,0.41,1.992h0.032
		c0.029-0.273,0.104-0.615,0.22-1.025c0.118-0.41,0.212-0.738,0.282-0.984l1.396-4.279h1.249l1.359,4.301
		c0.259,0.783,0.436,1.441,0.527,1.976h0.056c0.02-0.163,0.071-0.414,0.157-0.752c0.087-0.338,0.56-2.179,1.418-5.522h1.162
		l-2.069,7.492h-1.346l-1.373-4.396c-0.087-0.27-0.248-0.881-0.485-1.832h-0.055c-0.182,0.797-0.341,1.412-0.478,1.845l-1.413,4.384
		h-1.313L478.317,334.104z"/>
	<path fill="#5B5B5F" d="M490.157,332.074c0-0.261,0.06-0.45,0.178-0.571c0.116-0.12,0.265-0.182,0.44-0.182
		c0.196,0,0.365,0.063,0.508,0.186c0.144,0.123,0.214,0.313,0.214,0.567c0,0.254-0.07,0.444-0.214,0.571
		c-0.143,0.125-0.312,0.188-0.508,0.188c-0.177,0-0.324-0.063-0.44-0.188C490.217,332.521,490.157,332.329,490.157,332.074z
		 M490.254,341.597v-7.492h1.038v7.492H490.254z"/>
	<path fill="#5B5B5F" d="M492.802,334.985v-0.547l1.073-0.472l0.479-1.6h0.656v1.735h2.174v0.883h-2.174v4.42
		c0,0.451,0.106,0.799,0.32,1.041c0.215,0.242,0.509,0.363,0.883,0.363c0.199,0,0.395-0.016,0.581-0.045s0.335-0.062,0.443-0.093
		v0.856c-0.123,0.06-0.305,0.106-0.543,0.146c-0.24,0.038-0.455,0.058-0.646,0.058c-1.449,0-2.174-0.764-2.174-2.289v-4.457H492.802
		L492.802,334.985z"/>
	<path fill="#5B5B5F" d="M498.736,341.597V330.96h1.135v3.221c0,0.387-0.019,0.709-0.055,0.963h0.068
		c0.224-0.359,0.541-0.644,0.953-0.852c0.413-0.207,0.884-0.311,1.411-0.311c0.916,0,1.604,0.218,2.062,0.651
		c0.459,0.437,0.688,1.127,0.688,2.075v4.889h-1.135v-4.848c0-0.609-0.139-1.066-0.417-1.367c-0.277-0.301-0.713-0.451-1.306-0.451
		c-0.788,0-1.363,0.215-1.728,0.644c-0.36,0.429-0.543,1.13-0.543,2.104v3.918H498.736L498.736,341.597z"/>
	<path fill="#5B5B5F" d="M510.55,337.871c0-1.235,0.271-2.194,0.816-2.878s1.305-1.025,2.275-1.025c1.019,0,1.799,0.369,2.342,1.107
		h0.089l-0.048-0.54l-0.027-0.526v-3.049h1.136v10.637h-0.923l-0.15-1.005h-0.063c-0.524,0.761-1.31,1.142-2.354,1.142
		c-0.978,0-1.736-0.334-2.278-1.004C510.82,340.06,510.55,339.106,510.55,337.871z M511.712,337.885
		c0,0.957,0.176,1.681,0.526,2.167c0.352,0.487,0.867,0.731,1.547,0.731c0.776,0,1.339-0.212,1.688-0.632
		c0.349-0.422,0.522-1.104,0.522-2.041v-0.239c0-1.062-0.177-1.819-0.529-2.272c-0.354-0.453-0.919-0.681-1.695-0.681
		c-0.666,0-1.176,0.259-1.53,0.776C511.887,336.211,511.712,336.94,511.712,337.885z"/>
	<path fill="#5B5B5F" d="M519.449,332.074c0-0.261,0.06-0.45,0.177-0.571c0.117-0.12,0.266-0.182,0.441-0.182
		c0.196,0,0.365,0.063,0.508,0.186c0.144,0.123,0.214,0.313,0.214,0.567c0,0.254-0.07,0.444-0.214,0.571
		c-0.143,0.125-0.312,0.188-0.508,0.188c-0.177,0-0.324-0.063-0.441-0.188S519.449,332.329,519.449,332.074z M519.546,341.597
		v-7.492h1.039v7.492H519.546z"/>
	<path fill="#5B5B5F" d="M522.607,335.944c0-0.61,0.248-1.094,0.744-1.446s1.177-0.53,2.042-0.53c0.802,0,1.585,0.164,2.351,0.492
		l-0.396,0.924c-0.75-0.311-1.429-0.466-2.037-0.466c-0.539,0-0.945,0.085-1.22,0.254c-0.275,0.169-0.411,0.401-0.411,0.698
		c0,0.201,0.052,0.372,0.154,0.514c0.103,0.143,0.269,0.276,0.495,0.404c0.229,0.129,0.667,0.313,1.315,0.557
		c0.889,0.323,1.486,0.649,1.792,0.979c0.307,0.328,0.46,0.742,0.46,1.24c0,0.693-0.259,1.229-0.775,1.604
		c-0.516,0.376-1.24,0.563-2.175,0.563c-0.992,0-1.766-0.154-2.319-0.465v-1.047c0.358,0.184,0.744,0.326,1.155,0.432
		c0.412,0.104,0.811,0.158,1.191,0.158c0.594,0,1.05-0.096,1.37-0.285c0.318-0.188,0.479-0.479,0.479-0.866
		c0-0.292-0.127-0.542-0.38-0.75c-0.254-0.208-0.748-0.453-1.482-0.736c-0.699-0.261-1.194-0.487-1.487-0.682
		c-0.292-0.194-0.51-0.415-0.653-0.662C522.678,336.583,522.607,336.288,522.607,335.944z"/>
	<path fill="#5B5B5F" d="M529.204,339.533c0-1.511,1.212-2.302,3.636-2.373l1.272-0.042v-0.471c0-0.596-0.126-1.035-0.379-1.317
		c-0.252-0.284-0.656-0.427-1.211-0.427c-0.623,0-1.328,0.193-2.115,0.582l-0.353-0.871c0.369-0.197,0.772-0.354,1.213-0.465
		c0.439-0.111,0.881-0.168,1.323-0.168c0.893,0,1.554,0.197,1.982,0.595c0.432,0.396,0.646,1.032,0.646,1.907v5.113h-0.842
		l-0.226-1.055h-0.055c-0.373,0.464-0.745,0.779-1.115,0.943c-0.371,0.164-0.834,0.246-1.389,0.246
		c-0.747,0-1.332-0.189-1.755-0.571C529.417,340.778,529.204,340.237,529.204,339.533z M530.407,339.547
		c0,0.412,0.124,0.726,0.372,0.94c0.248,0.216,0.595,0.322,1.04,0.322c0.705,0,1.259-0.193,1.662-0.584
		c0.402-0.389,0.604-0.934,0.604-1.635v-0.68l-1.133,0.048c-0.899,0.032-1.55,0.173-1.947,0.423
		C530.606,338.632,530.407,339.021,530.407,339.547z"/>
	<path fill="#5B5B5F" d="M537.552,341.597V330.96h1.135v2.584c0,0.579-0.019,1.1-0.055,1.559h0.055
		c0.528-0.746,1.313-1.121,2.352-1.121c0.98,0,1.741,0.336,2.283,1.009s0.813,1.624,0.813,2.854c0,1.23-0.273,2.188-0.82,2.868
		c-0.547,0.682-1.306,1.021-2.276,1.021c-0.486,0-0.934-0.09-1.336-0.271c-0.403-0.181-0.741-0.457-1.016-0.831h-0.082l-0.239,0.965
		H537.552L537.552,341.597z M538.685,337.844c0,1.054,0.176,1.806,0.526,2.259c0.351,0.455,0.914,0.682,1.688,0.682
		c0.697,0,1.217-0.254,1.559-0.764c0.343-0.508,0.514-1.237,0.514-2.189c0-0.977-0.171-1.702-0.514-2.182
		c-0.342-0.479-0.869-0.717-1.586-0.717c-0.773,0-1.333,0.221-1.675,0.666C538.856,336.042,538.685,336.791,538.685,337.844z"/>
	<path fill="#5B5B5F" d="M546.034,332.074c0-0.261,0.06-0.45,0.178-0.571c0.116-0.12,0.265-0.182,0.44-0.182
		c0.196,0,0.365,0.063,0.508,0.186c0.144,0.123,0.214,0.313,0.214,0.567c0,0.254-0.07,0.444-0.214,0.571
		c-0.143,0.125-0.312,0.188-0.508,0.188c-0.177,0-0.324-0.063-0.44-0.188C546.094,332.521,546.034,332.329,546.034,332.074z
		 M546.131,341.597v-7.492h1.039v7.492H546.131z"/>
	<path fill="#5B5B5F" d="M549.672,341.597V330.96h1.135v10.637H549.672z"/>
	<path fill="#5B5B5F" d="M553.116,332.074c0-0.261,0.06-0.45,0.178-0.571c0.116-0.12,0.265-0.182,0.44-0.182
		c0.196,0,0.365,0.063,0.508,0.186c0.144,0.123,0.214,0.313,0.214,0.567c0,0.254-0.07,0.444-0.214,0.571
		c-0.143,0.125-0.312,0.188-0.508,0.188c-0.177,0-0.324-0.063-0.44-0.188C553.176,332.521,553.116,332.329,553.116,332.074z
		 M553.213,341.597v-7.492h1.038v7.492H553.213z"/>
	<path fill="#5B5B5F" d="M555.761,334.985v-0.547l1.073-0.472l0.479-1.6h0.656v1.735h2.174v0.883h-2.174v4.42
		c0,0.451,0.106,0.799,0.32,1.041c0.215,0.242,0.509,0.363,0.883,0.363c0.199,0,0.395-0.016,0.581-0.045s0.335-0.062,0.443-0.093
		v0.856c-0.123,0.06-0.305,0.106-0.543,0.146c-0.24,0.038-0.455,0.058-0.646,0.058c-1.449,0-2.175-0.764-2.175-2.289v-4.457H555.761
		L555.761,334.985z"/>
	<path fill="#5B5B5F" d="M560.507,334.104h1.217l1.641,4.27c0.36,0.975,0.583,1.679,0.67,2.111h0.056
		c0.06-0.232,0.184-0.631,0.372-1.192c0.188-0.563,0.809-2.292,1.855-5.188h1.217l-3.22,8.531c-0.319,0.844-0.691,1.441-1.118,1.795
		c-0.426,0.354-0.948,0.529-1.568,0.529c-0.347,0-0.688-0.039-1.024-0.117v-0.914c0.251,0.055,0.531,0.081,0.841,0.081
		c0.779,0,1.335-0.438,1.668-1.312l0.417-1.065L560.507,334.104z"/>
	<path fill="#5B5B5F" d="M571.744,337.763c0-1.209,0.18-2.339,0.536-3.392c0.356-1.054,0.869-1.976,1.535-2.769h1.107
		c-0.656,0.879-1.149,1.846-1.479,2.897c-0.331,1.054-0.496,2.135-0.496,3.247c0,1.094,0.169,2.162,0.506,3.206
		s0.822,1.996,1.456,2.856h-1.094c-0.671-0.773-1.184-1.68-1.539-2.713C571.923,340.063,571.744,338.951,571.744,337.763z"/>
	<path fill="#5B5B5F" d="M575.326,331.603h1.271l2.639,4.998l2.659-4.998h1.258l-3.336,6.119v3.875h-1.162v-3.82L575.326,331.603z"
		/>
	<path fill="#5B5B5F" d="M584.542,341.597v-9.994h1.161v8.955h4.409v1.039H584.542z"/>
	<path fill="#5B5B5F" d="M591.807,341.597v-9.994h3.063c1.555,0,2.763,0.432,3.623,1.293c0.861,0.86,1.292,2.063,1.292,3.608
		c0,1.649-0.446,2.911-1.344,3.784c-0.895,0.872-2.184,1.309-3.865,1.309H591.807z M592.969,340.592h1.415
		c1.386,0,2.427-0.341,3.124-1.022c0.696-0.68,1.046-1.688,1.046-3.023c0-1.304-0.327-2.285-0.98-2.945
		c-0.653-0.662-1.626-0.992-2.916-0.992h-1.688L592.969,340.592L592.969,340.592z"/>
	<path fill="#5B5B5F" d="M601.056,331.603h1.106c0.672,0.799,1.185,1.725,1.539,2.779s0.532,2.182,0.532,3.381
		c0,1.197-0.179,2.314-0.536,3.35c-0.356,1.035-0.869,1.935-1.535,2.699h-1.094c0.634-0.855,1.119-1.809,1.456-2.854
		c0.337-1.047,0.506-2.116,0.506-3.21c0-1.112-0.165-2.194-0.496-3.247C602.206,333.448,601.714,332.481,601.056,331.603z"/>
</g>
</svg>
