<?xml version="1.0" encoding="utf-8"?>
<!-- Generator: Adobe Illustrator 16.0.0, SVG Export Plug-In . SVG Version: 6.00 Build 0)  -->
<!DOCTYPE svg PUBLIC "-//W3C//DTD SVG 1.1//EN" "http://www.w3.org/Graphics/SVG/1.1/DTD/svg11.dtd">
<svg version="1.1" id="Capa_1" xmlns="http://www.w3.org/2000/svg" xmlns:xlink="http://www.w3.org/1999/xlink" x="0px" y="0px"
	 width="291.969px" height="850.394px" viewBox="0 0 291.969 850.394" enable-background="new 0 0 291.969 850.394"
	 xml:space="preserve">
<g>
	<rect x="125.494" y="205.846" fill="#449FA2" width="100.488" height="133.312"/>
	<rect x="125.494" y="91.127" fill="#F2C466" width="100.488" height="114.719"/>
</g>
<g>
	<path fill="#666565" d="M66.455,44.802c0-1.549,0.313-2.906,0.934-4.071s1.521-2.055,2.688-2.67
		c1.168-0.615,2.536-0.922,4.104-0.922c1.59,0,3.07,0.292,4.443,0.876l-0.672,1.529c-1.354-0.571-2.646-0.856-3.891-0.856
		c-1.813,0-3.229,0.54-4.25,1.62c-1.02,1.08-1.521,2.578-1.521,4.494c0,2.018,0.492,3.548,1.475,4.591
		c0.98,1.043,2.422,1.564,4.324,1.564c1.033,0,2.043-0.12,3.027-0.358v-4.604h-3.332v-1.549h5.063v7.255
		c-0.787,0.248-1.59,0.436-2.399,0.563c-0.813,0.127-1.765,0.191-2.836,0.191c-2.257,0-4.015-0.67-5.271-2.012
		C67.082,49.101,66.455,47.221,66.455,44.802z"/>
	<path fill="#666565" d="M82.168,52.251V36.395h1.688v15.856H82.168z"/>
	<path fill="#666565" d="M86.826,46.647c0-1.817,0.454-3.233,1.354-4.247c0.908-1.014,2.168-1.521,3.779-1.521
		c1.559,0,2.797,0.519,3.715,1.556c0.916,1.038,1.375,2.441,1.375,4.211c0,1.824-0.457,3.248-1.371,4.272
		c-0.916,1.024-2.18,1.536-3.791,1.536c-0.996,0-1.879-0.234-2.646-0.704c-0.771-0.47-1.367-1.144-1.787-2.021
		S86.826,47.824,86.826,46.647z M88.557,46.647c0,1.43,0.285,2.52,0.855,3.269c0.571,0.749,1.412,1.124,2.521,1.124
		c1.109,0,1.951-0.373,2.525-1.119c0.576-0.746,0.862-1.837,0.862-3.273c0-1.423-0.288-2.504-0.862-3.243
		c-0.572-0.739-1.424-1.108-2.545-1.108c-1.109,0-1.945,0.364-2.511,1.093C88.84,44.117,88.557,45.203,88.557,46.647z"/>
	<path fill="#666565" d="M100.052,52.251V36.395h1.691v3.852c0,0.863-0.027,1.637-0.082,2.323h0.082
		c0.786-1.114,1.957-1.671,3.506-1.671c1.459,0,2.596,0.501,3.399,1.503c0.812,1.002,1.215,2.42,1.215,4.254
		s-0.407,3.259-1.229,4.274c-0.813,1.016-1.938,1.523-3.395,1.523c-0.729,0-1.396-0.134-1.992-0.402
		c-0.604-0.268-1.105-0.681-1.515-1.238h-0.118l-0.355,1.437L100.052,52.251L100.052,52.251z M101.744,46.657
		c0,1.569,0.262,2.692,0.784,3.368c0.521,0.676,1.356,1.014,2.519,1.014c1.039,0,1.813-0.379,2.322-1.136
		c0.51-0.758,0.766-1.846,0.766-3.266c0-1.454-0.256-2.538-0.766-3.251c-0.511-0.713-1.298-1.07-2.363-1.07
		c-1.154,0-1.986,0.331-2.498,0.994C101.998,43.971,101.744,45.088,101.744,46.657z"/>
	<path fill="#666565" d="M112.006,49.175c0-2.25,1.807-3.429,5.418-3.537l1.897-0.062v-0.702c0-0.887-0.188-1.542-0.563-1.965
		c-0.376-0.423-0.979-0.634-1.807-0.634c-0.936,0-1.979,0.289-3.152,0.866l-0.525-1.298c0.557-0.294,1.152-0.525,1.813-0.692
		S116.4,40.9,117.06,40.9c1.33,0,2.314,0.295,2.957,0.887c0.646,0.591,0.961,1.539,0.961,2.843v7.622h-1.252l-0.336-1.571h-0.082
		c-0.557,0.693-1.105,1.162-1.664,1.407c-0.553,0.246-1.236,0.368-2.064,0.368c-1.109,0-1.982-0.284-2.613-0.853
		C112.322,51.033,112.006,50.224,112.006,49.175z M113.799,49.195c0,0.615,0.188,1.082,0.555,1.403
		c0.369,0.321,0.895,0.481,1.559,0.481c1.051,0,1.875-0.29,2.477-0.87c0.604-0.581,0.9-1.393,0.9-2.437v-1.014l-1.688,0.071
		c-1.344,0.048-2.313,0.258-2.898,0.63C114.097,47.831,113.799,48.41,113.799,49.195z"/>
	<path fill="#666565" d="M124.449,52.251V36.395h1.688v15.856H124.449z"/>
	<path fill="#666565" d="M134.525,46.758c0-1.8,0.438-3.23,1.321-4.29c0.89-1.06,2.07-1.589,3.563-1.589
		c1.396,0,2.498,0.46,3.313,1.38c0.813,0.921,1.228,2.135,1.228,3.643v1.07h-7.688c0.033,1.311,0.365,2.306,0.994,2.985
		c0.629,0.68,1.521,1.019,2.658,1.019c1.198,0,2.387-0.251,3.559-0.754v1.508c-0.598,0.258-1.155,0.443-1.688,0.555
		c-0.531,0.112-1.176,0.168-1.929,0.168c-1.646,0-2.94-0.502-3.896-1.508C135.002,49.942,134.525,48.546,134.525,46.758z
		 M136.299,45.597h5.849c0-1.066-0.229-1.883-0.715-2.451c-0.479-0.567-1.149-0.851-2.041-0.851c-0.896,0-1.608,0.292-2.146,0.876
		C136.709,43.756,136.393,44.564,136.299,45.597z"/>
	<path fill="#666565" d="M146.141,43.827c0-0.911,0.371-1.63,1.107-2.158c0.739-0.527,1.756-0.791,3.043-0.791
		c1.194,0,2.362,0.244,3.508,0.733l-0.594,1.377c-1.113-0.463-2.129-0.695-3.035-0.695c-0.805,0-1.408,0.126-1.816,0.378
		c-0.399,0.251-0.604,0.599-0.604,1.042c0,0.3,0.076,0.555,0.229,0.766c0.148,0.211,0.396,0.412,0.74,0.603
		c0.34,0.191,0.99,0.467,1.961,0.828c1.318,0.483,2.215,0.97,2.67,1.46c0.457,0.49,0.688,1.104,0.688,1.849
		c0,1.034-0.392,1.832-1.156,2.393c-0.771,0.561-1.853,0.841-3.242,0.841c-1.479,0-2.631-0.23-3.457-0.693v-1.559
		c0.535,0.272,1.109,0.487,1.73,0.644c0.606,0.157,1.203,0.235,1.77,0.235c0.885,0,1.564-0.141,2.043-0.424
		c0.48-0.283,0.715-0.713,0.715-1.292c0-0.438-0.188-0.809-0.563-1.119c-0.379-0.31-1.113-0.676-2.211-1.098
		c-1.043-0.388-1.781-0.727-2.228-1.017c-0.436-0.29-0.76-0.618-0.974-0.986C146.248,44.777,146.141,44.338,146.141,43.827z"/>
	<path fill="#666565" d="M155.334,42.397v-0.815l1.6-0.703l0.713-2.385h0.979v2.588h3.24v1.314h-3.24v6.588
		c0,0.674,0.16,1.191,0.479,1.552c0.318,0.361,0.765,0.542,1.314,0.542c0.303,0,0.59-0.022,0.867-0.066
		c0.27-0.044,0.498-0.09,0.662-0.138v1.278c-0.189,0.087-0.453,0.159-0.814,0.216c-0.354,0.057-0.68,0.085-0.963,0.085
		c-2.16,0-3.24-1.138-3.24-3.414v-6.644h-1.602L155.334,42.397L155.334,42.397z"/>
	<path fill="#666565" d="M164.037,38.056c0-0.387,0.088-0.671,0.264-0.851c0.176-0.18,0.396-0.27,0.658-0.27
		c0.293,0,0.545,0.092,0.758,0.275c0.213,0.184,0.318,0.466,0.318,0.846c0,0.38-0.105,0.664-0.318,0.851
		c-0.213,0.187-0.465,0.28-0.758,0.28c-0.267,0-0.482-0.093-0.658-0.28C164.125,38.72,164.037,38.437,164.037,38.056z
		 M164.18,52.251V41.083h1.549v11.168H164.18z"/>
	<path fill="#666565" d="M169.457,52.251V41.083h1.375l0.27,1.509h0.082c0.318-0.537,0.771-0.957,1.355-1.259
		c0.582-0.302,1.229-0.453,1.953-0.453c1.745,0,2.887,0.625,3.424,1.876h0.082c0.332-0.579,0.813-1.036,1.444-1.372
		s1.354-0.504,2.154-0.504c1.271,0,2.209,0.324,2.838,0.973c0.637,0.648,0.943,1.687,0.943,3.113v7.286h-1.688v-7.281
		c0-0.892-0.188-1.561-0.569-2.006c-0.382-0.445-0.978-0.669-1.771-0.669c-1.055,0-1.832,0.303-2.334,0.909
		c-0.502,0.605-0.754,1.538-0.754,2.798v6.249h-1.688v-7.281c0-0.892-0.188-1.561-0.567-2.006c-0.383-0.445-0.979-0.669-1.783-0.669
		c-1.063,0-1.836,0.318-2.328,0.955c-0.485,0.637-0.733,1.68-0.733,3.13v5.871L169.457,52.251L169.457,52.251z"/>
	<path fill="#666565" d="M188.035,49.175c0-2.25,1.807-3.429,5.418-3.537l1.895-0.062v-0.702c0-0.887-0.188-1.542-0.563-1.965
		c-0.377-0.423-0.979-0.634-1.813-0.634c-0.928,0-1.979,0.289-3.146,0.866l-0.523-1.298c0.549-0.294,1.15-0.525,1.813-0.692
		c0.649-0.167,1.313-0.251,1.973-0.251c1.33,0,2.313,0.295,2.957,0.887c0.645,0.591,0.965,1.539,0.965,2.843v7.622h-1.256
		l-0.336-1.571h-0.082c-0.558,0.693-1.107,1.162-1.66,1.407c-0.555,0.246-1.242,0.368-2.07,0.368c-1.104,0-1.979-0.284-2.608-0.853
		C188.35,51.033,188.035,50.224,188.035,49.175z M189.83,49.195c0,0.615,0.186,1.082,0.553,1.403
		c0.371,0.321,0.889,0.481,1.553,0.481c1.06,0,1.875-0.29,2.479-0.87c0.602-0.581,0.896-1.393,0.896-2.437v-1.014l-1.688,0.071
		c-1.343,0.048-2.314,0.258-2.902,0.63C190.129,47.831,189.83,48.41,189.83,49.195z"/>
	<path fill="#666565" d="M198.998,42.397v-0.815l1.602-0.703l0.713-2.385h0.979v2.588h3.24v1.314h-3.24v6.588
		c0,0.674,0.16,1.191,0.479,1.552c0.318,0.361,0.765,0.542,1.314,0.542c0.301,0,0.588-0.022,0.865-0.066
		c0.27-0.044,0.5-0.09,0.661-0.138v1.278c-0.188,0.087-0.452,0.159-0.813,0.216c-0.354,0.057-0.68,0.085-0.965,0.085
		c-2.156,0-3.238-1.138-3.238-3.414v-6.644h-1.602L198.998,42.397L198.998,42.397z"/>
	<path fill="#666565" d="M207.223,46.758c0-1.8,0.441-3.23,1.326-4.29c0.885-1.06,2.07-1.589,3.563-1.589
		c1.396,0,2.498,0.46,3.313,1.38c0.813,0.921,1.221,2.135,1.221,3.643v1.07h-7.688c0.035,1.311,0.367,2.306,0.996,2.985
		c0.629,0.68,1.518,1.019,2.655,1.019c1.193,0,2.388-0.251,3.56-0.754v1.508c-0.599,0.258-1.158,0.443-1.689,0.555
		c-0.526,0.112-1.174,0.168-1.926,0.168c-1.645,0-2.938-0.502-3.895-1.508C207.699,49.942,207.223,48.546,207.223,46.758z
		 M208.996,45.597h5.85c0-1.066-0.238-1.883-0.715-2.451c-0.479-0.567-1.156-0.851-2.041-0.851c-0.896,0-1.615,0.292-2.146,0.876
		C209.406,43.756,209.09,44.564,208.996,45.597z"/>
</g>
<g>
	<path fill="#9A999E" d="M71.387,332.929c0-2.161,0.34-3.765,1.016-4.812c0.684-1.047,1.707-1.57,3.1-1.57
		c1.346,0,2.359,0.546,3.063,1.638c0.697,1.093,1.047,2.673,1.047,4.744c0,2.147-0.338,3.75-1.014,4.81
		c-0.676,1.063-1.709,1.59-3.104,1.59c-1.346,0-2.357-0.543-3.063-1.627C71.736,336.616,71.387,335.026,71.387,332.929z
		 M72.832,332.929c0,1.802,0.213,3.112,0.637,3.936c0.424,0.823,1.1,1.231,2.025,1.231c0.938,0,1.611-0.417,2.031-1.25
		c0.43-0.833,0.641-2.139,0.641-3.918c0-1.777-0.211-3.082-0.641-3.908c-0.42-0.828-1.102-1.242-2.031-1.242
		c-0.933,0-1.604,0.408-2.025,1.227C73.045,329.819,72.832,331.127,72.832,332.929z"/>
</g>
<g>
	<path fill="#87868A" d="M64.021,231.832H49.123v-4.208c0-1.978,0.295-3.407,0.885-4.29c0.592-0.885,1.521-1.325,2.801-1.325
		c0.883,0,1.609,0.246,2.188,0.739c0.566,0.492,0.939,1.211,1.109,2.154h0.104c0.389-2.248,1.578-3.373,3.565-3.373
		c1.329,0,2.368,0.449,3.116,1.349c0.748,0.897,1.121,2.153,1.121,3.769L64.021,231.832L64.021,231.832z M55.49,230.1v-2.853
		c0-1.224-0.189-2.103-0.572-2.64c-0.385-0.537-1.027-0.807-1.938-0.807c-0.834,0-1.436,0.299-1.805,0.896
		c-0.369,0.597-0.555,1.55-0.555,2.854v2.547L55.49,230.1L55.49,230.1z M62.543,230.1v-3.107c0-1.2-0.23-2.105-0.697-2.715
		c-0.465-0.607-1.193-0.912-2.188-0.912c-0.93,0-1.605,0.312-2.037,0.934c-0.438,0.621-0.652,1.566-0.652,2.838v2.965L62.543,230.1
		L62.543,230.1z"/>
	<path fill="#87868A" d="M49.826,218.707c-0.395,0-0.678-0.087-0.854-0.264c-0.182-0.177-0.271-0.396-0.271-0.657
		c0-0.294,0.092-0.546,0.271-0.759c0.188-0.211,0.465-0.317,0.846-0.317c0.389,0,0.664,0.106,0.854,0.317
		c0.188,0.213,0.279,0.465,0.279,0.759c0,0.264-0.102,0.48-0.279,0.657C50.49,218.62,50.207,218.707,49.826,218.707z
		 M64.021,218.565H52.854v-1.549h11.168L64.021,218.565L64.021,218.565z"/>
	<path fill="#87868A" d="M64.021,213.286H48.166v-1.691H64.02L64.021,213.286L64.021,213.286z"/>
	<path fill="#87868A" d="M64.021,208.008H48.166v-1.691H64.02L64.021,208.008L64.021,208.008z"/>
	<path fill="#87868A" d="M49.826,202.872c-0.395,0-0.678-0.089-0.854-0.265c-0.182-0.176-0.271-0.396-0.271-0.656
		c0-0.293,0.092-0.547,0.271-0.758c0.188-0.213,0.465-0.318,0.846-0.318c0.389,0,0.664,0.105,0.854,0.318
		c0.188,0.211,0.279,0.465,0.279,0.758c0,0.263-0.102,0.48-0.279,0.656C50.49,202.784,50.207,202.872,49.826,202.872z
		 M64.021,202.731H52.854v-1.55h11.168L64.021,202.731L64.021,202.731z"/>
	<path fill="#87868A" d="M58.416,198.073c-1.816,0-3.23-0.455-4.246-1.361c-1.021-0.908-1.521-2.168-1.521-3.78
		c0-1.558,0.521-2.795,1.563-3.713c1.035-0.918,2.438-1.377,4.211-1.377c1.822,0,3.248,0.457,4.271,1.372
		c1.023,0.914,1.537,2.178,1.537,3.789c0,0.996-0.229,1.88-0.705,2.652c-0.471,0.771-1.145,1.367-2.021,1.787
		C60.623,197.862,59.594,198.073,58.416,198.073z M58.416,196.34c1.43,0,2.521-0.286,3.27-0.857c0.75-0.569,1.125-1.412,1.125-2.521
		s-0.373-1.951-1.119-2.526c-0.746-0.574-1.838-0.861-3.271-0.861c-1.424,0-2.504,0.287-3.244,0.861
		c-0.736,0.575-1.107,1.424-1.107,2.547c0,1.108,0.365,1.945,1.102,2.51C55.887,196.058,56.973,196.34,58.416,196.34z"/>
	<path fill="#87868A" d="M64.021,184.846H52.854v-1.376l1.508-0.275v-0.081c-0.543-0.347-0.965-0.832-1.266-1.457
		c-0.299-0.625-0.447-1.321-0.447-2.089c0-1.346,0.324-2.357,0.979-3.037c0.646-0.68,1.688-1.021,3.104-1.021h7.287v1.692h-7.234
		c-0.91,0-1.598,0.207-2.041,0.621c-0.447,0.415-0.682,1.063-0.682,1.946c0,1.169,0.316,2.024,0.951,2.568
		c0.633,0.543,1.678,0.815,3.135,0.815h5.871L64.021,184.846L64.021,184.846z"/>
	<path fill="#87868A" d="M62.283,167.117h-1.602c0.252-0.563,0.457-1.214,0.615-1.951c0.16-0.737,0.24-1.408,0.24-2.013h-4.48
		c-0.438,1.393-0.955,2.369-1.539,2.93s-1.338,0.841-2.264,0.841c-0.889,0-1.619-0.345-2.189-1.034
		c-0.563-0.689-0.918-1.602-1.039-2.736h-1.854v-1.335h1.834c0.035-1.246,0.287-2.448,0.756-3.607l1.334,0.53
		c-0.396,1.009-0.639,2.035-0.713,3.077h4.424c0.34-1.063,0.67-1.859,0.992-2.389c0.322-0.528,0.693-0.918,1.111-1.169
		c0.416-0.25,0.926-0.376,1.521-0.376c0.924,0,1.688,0.346,2.291,1.037c0.604,0.691,0.984,1.656,1.146,2.896h2.354v1.335H62.96
		c0,0.761-0.063,1.498-0.188,2.212C62.662,166.078,62.496,166.662,62.283,167.117z M53.25,165.192c0.518,0,0.932-0.152,1.242-0.456
		c0.313-0.304,0.604-0.831,0.889-1.582h-3.943c0.107,0.669,0.32,1.177,0.643,1.521C52.389,165.02,52.781,165.192,53.25,165.192z
		 M61.441,161.819c-0.203-1.467-0.828-2.201-1.875-2.201c-0.48,0-0.885,0.15-1.188,0.452c-0.303,0.301-0.604,0.884-0.9,1.749H61.441
		z"/>
</g>
<line fill="none" stroke="#666666" stroke-width="0.25" stroke-miterlimit="10" x1="95.279" y1="91.127" x2="95.279" y2="339.159"/>
<line fill="none" stroke="#666666" stroke-width="0.25" stroke-miterlimit="10" x1="225.988" y1="339.159" x2="81.559" y2="339.159"/>
<line fill="none" stroke="#666666" stroke-width="0.25" stroke-miterlimit="10" x1="225.988" y1="91.127" x2="81.559" y2="91.127"/>
<g>
	<rect x="125.488" y="595.136" fill="#449FA2" width="100.499" height="111.068"/>
	<rect x="125.488" y="458.224" fill="#F2C466" width="100.499" height="136.912"/>
</g>
<g>
	<path fill="#9A999E" d="M68.414,699.974c0-2.156,0.338-3.766,1.014-4.813c0.678-1.047,1.707-1.57,3.094-1.57
		c1.354,0,2.367,0.547,3.066,1.643c0.697,1.094,1.047,2.674,1.047,4.74c0,2.146-0.338,3.75-1.014,4.814
		c-0.682,1.061-1.709,1.59-3.104,1.59c-1.34,0-2.354-0.543-3.059-1.627C68.76,703.662,68.414,702.072,68.414,699.974z
		 M69.857,699.974c0,1.807,0.213,3.113,0.643,3.939c0.424,0.822,1.1,1.229,2.021,1.229c0.938,0,1.617-0.416,2.039-1.25
		c0.422-0.832,0.635-2.139,0.635-3.918c0-1.771-0.213-3.082-0.635-3.902c-0.422-0.828-1.102-1.242-2.039-1.242
		c-0.928,0-1.604,0.408-2.021,1.225C70.07,696.865,69.857,698.173,69.857,699.974z"/>
</g>
<g>
	<path fill="#87868A" d="M64.447,598.878H49.549v-4.209c0-1.977,0.297-3.406,0.887-4.289c0.594-0.885,1.523-1.326,2.801-1.326
		c0.889,0,1.609,0.246,2.188,0.74c0.574,0.492,0.945,1.211,1.115,2.154h0.104c0.396-2.248,1.578-3.373,3.57-3.373
		c1.332,0,2.371,0.449,3.119,1.348c0.746,0.9,1.121,2.154,1.121,3.771L64.447,598.878L64.447,598.878z M55.918,597.146v-2.854
		c0-1.225-0.189-2.104-0.574-2.641c-0.383-0.537-1.025-0.814-1.938-0.814c-0.834,0-1.438,0.299-1.807,0.896
		c-0.367,0.598-0.555,1.549-0.555,2.854v2.547L55.918,597.146L55.918,597.146z M62.969,597.146v-3.104
		c0-1.201-0.23-2.104-0.695-2.715c-0.469-0.609-1.188-0.912-2.188-0.912c-0.924,0-1.604,0.313-2.037,0.934
		c-0.438,0.621-0.652,1.566-0.652,2.84v2.967L62.969,597.146L62.969,597.146z"/>
	<path fill="#87868A" d="M50.252,585.753c-0.387,0-0.672-0.088-0.854-0.264c-0.182-0.178-0.271-0.396-0.271-0.658
		c0-0.293,0.092-0.545,0.271-0.758c0.188-0.211,0.471-0.318,0.852-0.318s0.664,0.107,0.852,0.318
		c0.188,0.213,0.279,0.465,0.279,0.758c0,0.264-0.094,0.479-0.279,0.658C50.916,585.666,50.631,585.753,50.252,585.753z
		 M64.447,585.611H53.279v-1.549h11.168V585.611z"/>
	<path fill="#87868A" d="M64.447,580.332H48.59v-1.689h15.854L64.447,580.332L64.447,580.332z"/>
	<path fill="#87868A" d="M64.447,575.054H48.59v-1.688h15.854L64.447,575.054L64.447,575.054z"/>
	<path fill="#87868A" d="M50.252,569.917c-0.387,0-0.672-0.088-0.854-0.264c-0.182-0.186-0.271-0.396-0.271-0.656
		c0-0.293,0.092-0.547,0.271-0.758c0.188-0.213,0.471-0.318,0.852-0.318s0.664,0.105,0.852,0.318
		c0.188,0.211,0.279,0.465,0.279,0.758c0,0.262-0.094,0.479-0.279,0.656C50.917,569.83,50.631,569.917,50.252,569.917z
		 M64.447,569.777H53.279v-1.555h11.168V569.777z"/>
	<path fill="#87868A" d="M58.842,565.119c-1.814,0-3.23-0.455-4.248-1.361c-1.014-0.908-1.52-2.168-1.52-3.77
		c0-1.564,0.518-2.807,1.557-3.725c1.037-0.918,2.438-1.377,4.211-1.377c1.824,0,3.248,0.457,4.271,1.373
		c1.021,0.914,1.537,2.186,1.537,3.789c0,0.996-0.23,1.879-0.705,2.652c-0.473,0.77-1.146,1.367-2.021,1.787
		C61.047,564.908,60.018,565.119,58.842,565.119z M58.842,563.386c1.43,0,2.521-0.283,3.271-0.854
		c0.748-0.568,1.123-1.412,1.123-2.521c0-1.104-0.373-1.945-1.113-2.521c-0.744-0.574-1.837-0.861-3.273-0.861
		c-1.422,0-2.504,0.287-3.242,0.861c-0.73,0.576-1.104,1.424-1.104,2.547c0,1.104,0.357,1.943,1.092,2.51
		C56.311,563.105,57.4,563.386,58.842,563.386z"/>
	<path fill="#87868A" d="M64.447,551.892H53.279v-1.377l1.514-0.271v-0.08c-0.543-0.35-0.971-0.832-1.27-1.457
		c-0.301-0.625-0.441-1.32-0.441-2.09c0-1.35,0.318-2.355,0.973-3.037c0.646-0.68,1.688-1.021,3.113-1.021h7.279v1.691H57.21
		c-0.914,0-1.594,0.207-2.043,0.621s-0.674,1.063-0.674,1.943c0,1.172,0.313,2.023,0.943,2.566c0.638,0.543,1.684,0.814,3.141,0.814
		h5.865L64.447,551.892L64.447,551.892z"/>
	<path fill="#87868A" d="M62.709,534.162h-1.594c0.25-0.563,0.451-1.213,0.609-1.949c0.158-0.729,0.236-1.408,0.236-2.014h-4.48
		c-0.438,1.395-0.947,2.369-1.539,2.93c-0.584,0.564-1.338,0.842-2.264,0.842c-0.891,0-1.617-0.346-2.188-1.02
		c-0.57-0.689-0.916-1.605-1.039-2.736H48.6v-1.336h1.834c0.033-1.246,0.285-2.447,0.756-3.605l1.336,0.529
		c-0.396,1.01-0.643,2.035-0.715,3.076h4.424c0.346-1.064,0.678-1.857,0.992-2.396c0.32-0.52,0.691-0.918,1.109-1.168
		s0.926-0.377,1.521-0.377c0.93,0,1.688,0.354,2.291,1.037c0.604,0.689,0.982,1.654,1.146,2.896h2.354v1.334h-2.266
		c0,0.762-0.063,1.498-0.18,2.213C63.086,533.125,62.92,533.708,62.709,534.162z M53.674,532.238c0.52,0,0.936-0.152,1.244-0.457
		c0.313-0.307,0.604-0.83,0.887-1.582h-3.941c0.105,0.67,0.32,1.178,0.643,1.521C52.816,532.066,53.207,532.238,53.674,532.238z
		 M61.869,528.865c-0.203-1.467-0.828-2.201-1.875-2.201c-0.488,0-0.891,0.15-1.188,0.451c-0.303,0.303-0.604,0.885-0.896,1.75
		H61.869z"/>
</g>
<g>
	<path fill="#666565" d="M72.885,419.297v-14.896h8.307v1.549H74.62v4.77h6.181v1.549H74.62v5.48h6.571v1.551h-8.307V419.297z"/>
	<path fill="#666565" d="M84.341,413.999v-9.6h1.729v9.736c0,1.244,0.341,2.201,1.021,2.867c0.68,0.668,1.678,1,2.996,1
		c1.258,0,2.225-0.334,2.898-1.006c0.686-0.67,1.021-1.631,1.021-2.883v-9.715h1.729v9.641c0,1.699-0.516,3.033-1.539,4.006
		c-1.021,0.972-2.438,1.457-4.229,1.457s-3.184-0.489-4.162-1.469C84.831,417.056,84.341,415.711,84.341,413.999z"/>
	<path fill="#666565" d="M98.656,419.297v-1.438l3.93-3.959c1.188-1.214,1.979-2.08,2.355-2.599
		c0.384-0.519,0.666-1.022,0.855-1.515c0.188-0.49,0.285-1.021,0.285-1.586c0-0.799-0.242-1.432-0.729-1.897
		c-0.479-0.468-1.146-0.701-2.01-0.701c-0.617,0-1.203,0.103-1.758,0.308c-0.559,0.203-1.17,0.576-1.854,1.115l-0.89-1.156
		c1.373-1.123,2.867-1.684,4.479-1.684c1.396,0,2.496,0.357,3.291,1.07s1.189,1.671,1.189,2.875c0,0.947-0.271,1.886-0.795,2.813
		c-0.527,0.928-1.521,2.104-2.979,3.521l-3.26,3.203v0.082h7.66v1.549h-9.789v-0.002L98.656,419.297L98.656,419.297z"/>
	<path fill="#666565" d="M110.632,415.497c0-1.705,1.045-3.033,3.137-3.983c-0.944-0.53-1.627-1.104-2.039-1.718
		c-0.412-0.614-0.617-1.303-0.617-2.063c0-1.08,0.4-1.939,1.203-2.582c0.806-0.643,1.877-0.964,3.229-0.964
		c1.355,0,2.438,0.315,3.234,0.948c0.805,0.632,1.193,1.505,1.193,2.619c0,0.732-0.229,1.402-0.688,2.007
		c-0.454,0.604-1.188,1.153-2.188,1.649c1.215,0.578,2.08,1.186,2.592,1.819c0.517,0.636,0.771,1.371,0.771,2.206
		c0,1.236-0.438,2.225-1.304,2.96c-0.86,0.737-2.056,1.104-3.562,1.104c-1.594,0-2.82-0.348-3.68-1.043
		C111.059,417.761,110.632,416.774,110.632,415.497z M112.322,415.538c0,0.814,0.279,1.451,0.854,1.906
		c0.563,0.455,1.356,0.684,2.385,0.684c1.012,0,1.799-0.238,2.361-0.715c0.561-0.476,0.844-1.127,0.844-1.957
		c0-0.657-0.264-1.244-0.793-1.758c-0.527-0.513-1.451-1.01-2.771-1.492c-1.015,0.436-1.737,0.916-2.192,1.441
		C112.55,414.174,112.322,414.804,112.322,415.538z M112.802,407.803c0,0.625,0.199,1.162,0.6,1.609
		c0.4,0.449,1.146,0.896,2.227,1.346c0.969-0.407,1.648-0.848,2.059-1.314c0.404-0.468,0.604-1.016,0.604-1.641
		c0-0.688-0.242-1.23-0.732-1.635c-0.492-0.404-1.17-0.606-2.029-0.606c-0.848,0-1.514,0.204-1.993,0.611
		C113.044,406.579,112.802,407.124,112.802,407.803z"/>
	<path fill="#666565" d="M128.094,413.805c0-1.801,0.438-3.23,1.326-4.29c0.885-1.062,2.064-1.589,3.563-1.589
		c1.396,0,2.496,0.46,3.313,1.38c0.813,0.921,1.219,2.136,1.219,3.644v1.069h-7.684c0.025,1.312,0.357,2.306,0.988,2.985
		c0.637,0.679,1.521,1.019,2.658,1.019c1.197,0,2.385-0.251,3.563-0.754v1.509c-0.604,0.258-1.16,0.442-1.691,0.555
		c-0.531,0.111-1.174,0.168-1.926,0.168c-1.646,0-2.945-0.502-3.896-1.508C128.576,416.987,128.094,415.593,128.094,413.805z
		 M129.869,412.643h5.854c0-1.066-0.238-1.883-0.715-2.451c-0.479-0.566-1.156-0.851-2.041-0.851c-0.898,0-1.615,0.292-2.148,0.876
		C130.278,410.803,129.966,411.61,129.869,412.643z"/>
	<path fill="#666565" d="M139.714,410.874c0-0.91,0.371-1.631,1.104-2.157c0.738-0.527,1.754-0.791,3.045-0.791
		c1.188,0,2.359,0.243,3.505,0.731l-0.591,1.377c-1.112-0.463-2.133-0.693-3.038-0.693c-0.807,0-1.404,0.126-1.813,0.378
		c-0.408,0.251-0.611,0.599-0.611,1.042c0,0.3,0.076,0.555,0.229,0.766c0.147,0.211,0.396,0.412,0.733,0.604
		c0.347,0.191,0.994,0.468,1.961,0.828c1.324,0.482,2.222,0.971,2.679,1.461c0.457,0.488,0.686,1.104,0.686,1.849
		c0,1.034-0.387,1.832-1.151,2.394c-0.771,0.562-1.854,0.842-3.237,0.842c-1.479,0-2.638-0.23-3.459-0.693v-1.561
		c0.53,0.272,1.104,0.488,1.725,0.646c0.613,0.157,1.205,0.235,1.775,0.235c0.885,0,1.563-0.143,2.043-0.426
		c0.479-0.281,0.715-0.713,0.715-1.291c0-0.437-0.188-0.81-0.563-1.119c-0.38-0.311-1.108-0.676-2.212-1.098
		c-1.043-0.389-1.773-0.728-2.219-1.018c-0.444-0.29-0.762-0.618-0.975-0.986C139.819,411.823,139.714,411.385,139.714,410.874z"/>
	<path fill="#666565" d="M148.903,409.444v-0.814l1.605-0.703l0.713-2.387h0.979v2.59h3.235v1.313H152.2v6.588
		c0,0.674,0.155,1.191,0.479,1.553c0.313,0.361,0.76,0.543,1.313,0.543c0.307,0,0.588-0.022,0.862-0.066
		c0.279-0.044,0.5-0.09,0.662-0.139v1.277c-0.184,0.088-0.453,0.159-0.813,0.217c-0.354,0.058-0.679,0.086-0.963,0.086
		c-2.154,0-3.234-1.139-3.234-3.414v-6.645L148.903,409.444L148.903,409.444L148.903,409.444z"/>
	<path fill="#666565" d="M157.604,405.102c0-0.387,0.09-0.671,0.271-0.852c0.174-0.18,0.396-0.271,0.647-0.271
		c0.293,0,0.547,0.093,0.758,0.274c0.222,0.185,0.316,0.467,0.316,0.847s-0.104,0.664-0.316,0.851
		c-0.211,0.188-0.465,0.28-0.758,0.28c-0.266,0-0.479-0.093-0.647-0.28C157.694,405.766,157.604,405.483,157.604,405.102z
		 M157.75,419.297v-11.168h1.549v11.168H157.75z"/>
	<path fill="#666565" d="M163.028,419.297v-11.168h1.375l0.273,1.51h0.082c0.313-0.537,0.771-0.957,1.352-1.26
		c0.582-0.303,1.23-0.452,1.949-0.452c1.746,0,2.892,0.625,3.426,1.876h0.082c0.332-0.579,0.814-1.036,1.445-1.372
		c0.633-0.336,1.354-0.504,2.16-0.504c1.264,0,2.209,0.323,2.838,0.974c0.629,0.646,0.939,1.688,0.939,3.112v7.286h-1.688v-7.281
		c0-0.893-0.189-1.563-0.57-2.006c-0.381-0.446-0.973-0.669-1.771-0.669c-1.06,0-1.83,0.303-2.334,0.909
		c-0.502,0.604-0.754,1.537-0.754,2.798v6.249h-1.689v-7.281c0-0.893-0.188-1.563-0.567-2.006c-0.384-0.446-0.979-0.669-1.775-0.669
		c-1.063,0-1.836,0.317-2.33,0.954c-0.492,0.638-0.736,1.681-0.736,3.131v5.871L163.028,419.297L163.028,419.297z"/>
	<path fill="#666565" d="M181.602,416.222c0-2.25,1.81-3.429,5.418-3.537l1.898-0.063v-0.701c0-0.887-0.188-1.541-0.563-1.965
		c-0.379-0.424-0.979-0.635-1.811-0.635c-0.938,0-1.979,0.289-3.15,0.866l-0.521-1.298c0.551-0.294,1.146-0.525,1.809-0.691
		c0.654-0.168,1.313-0.252,1.973-0.252c1.33,0,2.314,0.295,2.957,0.889c0.646,0.591,0.964,1.537,0.964,2.843v7.622h-1.255
		l-0.336-1.571h-0.082c-0.557,0.692-1.104,1.162-1.661,1.407c-0.556,0.246-1.234,0.367-2.063,0.367
		c-1.109,0-1.982-0.283-2.617-0.854C181.92,418.079,181.602,417.27,181.602,416.222z M183.395,416.241
		c0,0.615,0.189,1.082,0.56,1.403c0.366,0.321,0.895,0.481,1.559,0.481c1.051,0,1.877-0.291,2.479-0.871
		c0.604-0.58,0.897-1.393,0.897-2.438v-1.014l-1.688,0.07c-1.345,0.049-2.313,0.259-2.896,0.631
		C183.694,414.879,183.395,415.456,183.395,416.241z"/>
	<path fill="#666565" d="M192.567,409.444v-0.814l1.605-0.703l0.713-2.387h0.979v2.59h3.238v1.313h-3.238v6.588
		c0,0.674,0.156,1.191,0.479,1.553c0.316,0.361,0.758,0.543,1.313,0.543c0.306,0,0.589-0.022,0.863-0.066
		c0.277-0.044,0.5-0.09,0.664-0.139v1.277c-0.188,0.088-0.455,0.159-0.813,0.217c-0.354,0.058-0.683,0.086-0.966,0.086
		c-2.151,0-3.231-1.139-3.231-3.414v-6.645L192.567,409.444L192.567,409.444L192.567,409.444z"/>
	<path fill="#666565" d="M200.793,413.805c0-1.801,0.438-3.23,1.322-4.29c0.889-1.062,2.067-1.589,3.563-1.589
		c1.396,0,2.498,0.46,3.313,1.38c0.813,0.921,1.225,2.136,1.225,3.644v1.069h-7.689c0.033,1.312,0.361,2.306,0.994,2.985
		c0.631,0.679,1.521,1.019,2.656,1.019c1.199,0,2.387-0.251,3.559-0.754v1.509c-0.6,0.258-1.157,0.442-1.688,0.555
		c-0.531,0.111-1.174,0.168-1.93,0.168c-1.646,0-2.941-0.502-3.896-1.508C201.272,416.987,200.793,415.593,200.793,413.805z
		 M202.565,412.643h5.855c0-1.066-0.238-1.883-0.724-2.451c-0.479-0.566-1.147-0.851-2.041-0.851c-0.896,0-1.606,0.292-2.146,0.876
		C202.975,410.803,202.662,411.61,202.565,412.643z"/>
</g>
<line fill="none" stroke="#666666" stroke-width="0.25" stroke-miterlimit="10" x1="95.275" y1="458.173" x2="95.275" y2="706.205"/>
<line fill="none" stroke="#666666" stroke-width="0.25" stroke-miterlimit="10" x1="225.986" y1="706.205" x2="81.553" y2="706.205"/>
<line fill="none" stroke="#666666" stroke-width="0.25" stroke-miterlimit="10" x1="225.986" y1="458.173" x2="81.553" y2="458.173"/>
<g>
	<g>
		<path fill="#5B5B5F" d="M82.98,765.044c0-1.275,0.234-2.395,0.709-3.355c0.479-0.963,1.16-1.703,2.064-2.225
			c0.896-0.521,1.965-0.781,3.188-0.781c1.309,0,2.438,0.236,3.414,0.715l-0.605,1.236c-0.938-0.438-1.887-0.66-2.818-0.66
			c-1.363,0-2.438,0.453-3.229,1.359c-0.787,0.908-1.188,2.15-1.188,3.729c0,1.625,0.383,2.879,1.146,3.766
			c0.764,0.885,1.85,1.328,3.258,1.328c0.859,0,1.854-0.156,2.965-0.471v1.271c-0.859,0.324-1.924,0.486-3.188,0.486
			c-1.825,0-3.23-0.564-4.227-1.666C83.475,768.667,82.98,767.089,82.98,765.044z"/>
		<path fill="#5B5B5F" d="M93.865,766.603c0-1.518,0.377-2.693,1.135-3.537c0.756-0.848,1.809-1.271,3.146-1.271
			c1.299,0,2.33,0.439,3.102,1.297c0.766,0.865,1.146,2.035,1.146,3.521c0,1.52-0.381,2.707-1.145,3.563
			c-0.77,0.854-1.814,1.279-3.158,1.279c-0.83,0-1.564-0.193-2.211-0.588c-0.646-0.396-1.146-0.953-1.486-1.689
			C94.041,768.441,93.865,767.583,93.865,766.603z M95.311,766.603c0,1.188,0.236,2.102,0.715,2.727
			c0.479,0.623,1.182,0.938,2.104,0.938s1.625-0.313,2.104-0.934c0.479-0.621,0.725-1.529,0.725-2.729
			c0-1.189-0.238-2.088-0.725-2.703c-0.479-0.615-1.188-0.922-2.123-0.922c-0.924,0-1.621,0.303-2.092,0.908
			C95.543,764.496,95.311,765.4,95.311,766.603z"/>
		<path fill="#5B5B5F" d="M104.293,764.253c0-0.758,0.309-1.354,0.924-1.797c0.617-0.439,1.463-0.658,2.537-0.658
			c0.994,0,1.971,0.203,2.92,0.609l-0.49,1.145c-0.934-0.389-1.771-0.578-2.531-0.578c-0.67,0-1.174,0.105-1.516,0.314
			s-0.512,0.498-0.512,0.867c0,0.25,0.063,0.463,0.188,0.641c0.127,0.176,0.332,0.342,0.617,0.502
			c0.281,0.156,0.826,0.393,1.633,0.689c1.105,0.395,1.854,0.811,2.229,1.217c0.379,0.408,0.563,0.922,0.563,1.541
			c0,0.861-0.313,1.527-0.963,1.994c-0.643,0.467-1.541,0.701-2.699,0.701c-1.229,0-2.188-0.191-2.885-0.578v-1.313
			c0.445,0.23,0.929,0.404,1.438,0.535c0.514,0.133,1.006,0.193,1.479,0.193c0.736,0,1.313-0.117,1.703-0.354
			c0.396-0.232,0.598-0.594,0.598-1.074c0-0.363-0.152-0.676-0.475-0.936c-0.313-0.258-0.932-0.563-1.844-0.914
			c-0.867-0.322-1.482-0.604-1.852-0.85c-0.362-0.242-0.637-0.521-0.813-0.818C104.381,765.048,104.293,764.679,104.293,764.253z"/>
		<path fill="#5B5B5F" d="M111.953,763.064v-0.682l1.334-0.588l0.594-1.986h0.813v2.158h2.699v1.096h-2.699v5.49
			c0,0.563,0.139,0.99,0.398,1.293c0.265,0.305,0.631,0.449,1.096,0.449c0.25,0,0.49-0.018,0.729-0.055
			c0.229-0.037,0.416-0.074,0.553-0.115v1.066c-0.15,0.063-0.379,0.133-0.676,0.18c-0.299,0.047-0.563,0.072-0.809,0.072
			c-1.801,0-2.695-0.949-2.695-2.855v-5.537L111.953,763.064L111.953,763.064z"/>
		<path fill="#5B5B5F" d="M123.84,771.275v-9.311h1.146l0.229,1.258h0.068c0.281-0.453,0.688-0.807,1.215-1.057
			c0.52-0.25,1.104-0.375,1.734-0.375c1.121,0,1.969,0.271,2.529,0.813c0.564,0.543,0.854,1.406,0.854,2.596v6.07h-1.408v-6.031
			c0-0.762-0.174-1.326-0.521-1.701c-0.346-0.375-0.887-0.564-1.621-0.564c-0.975,0-1.688,0.271-2.141,0.791
			c-0.453,0.525-0.682,1.396-0.682,2.613v4.896h-1.408L123.84,771.275L123.84,771.275z"/>
		<path fill="#5B5B5F" d="M133.998,766.603c0-1.518,0.377-2.693,1.135-3.537c0.758-0.848,1.807-1.271,3.146-1.271
			c1.305,0,2.33,0.439,3.102,1.297c0.766,0.865,1.145,2.035,1.145,3.521c0,1.52-0.381,2.707-1.145,3.563
			c-0.768,0.854-1.813,1.279-3.156,1.279c-0.83,0-1.564-0.193-2.211-0.588c-0.646-0.396-1.141-0.953-1.488-1.689
			C134.172,768.441,133.998,767.583,133.998,766.603z M135.441,766.603c0,1.188,0.238,2.102,0.715,2.727
			c0.479,0.623,1.182,0.938,2.104,0.938s1.625-0.313,2.104-0.934c0.48-0.621,0.729-1.529,0.729-2.729
			c0-1.189-0.235-2.088-0.729-2.703c-0.479-0.615-1.188-0.922-2.112-0.922c-0.93,0-1.621,0.303-2.098,0.908
			C135.676,764.496,135.441,765.4,135.441,766.603z"/>
		<path fill="#5B5B5F" d="M145.021,771.275v-9.311h1.146l0.229,1.258h0.063c0.287-0.453,0.688-0.807,1.215-1.057
			c0.521-0.25,1.104-0.375,1.74-0.375c1.121,0,1.963,0.271,2.521,0.813c0.566,0.541,0.854,1.406,0.854,2.596v6.07h-1.405v-6.031
			c0-0.762-0.177-1.326-0.521-1.701c-0.352-0.375-0.893-0.564-1.619-0.564c-0.979,0-1.688,0.271-2.146,0.791
			c-0.453,0.525-0.681,1.396-0.681,2.613v4.896h-1.407L145.021,771.275L145.021,771.275z"/>
		<path fill="#5B5B5F" d="M154.912,767.257v-1.291h4.17v1.291H154.912z"/>
		<path fill="#5B5B5F" d="M160.041,763.064v-0.639l1.666-0.512v-0.518c0-2.275,0.998-3.416,2.996-3.416
			c0.486,0,1.064,0.1,1.729,0.295l-0.365,1.104c-0.543-0.176-1.008-0.266-1.396-0.266c-0.53,0-0.928,0.18-1.188,0.531
			c-0.259,0.354-0.386,0.922-0.386,1.701v0.605h2.369v1.096H163.1v8.209H161.7v-8.209L160.041,763.064L160.041,763.064z"/>
		<path fill="#5B5B5F" d="M166.488,768.71c0-1.875,1.512-2.854,4.521-2.945l1.582-0.055v-0.584c0-0.736-0.154-1.283-0.471-1.637
			c-0.317-0.355-0.814-0.529-1.512-0.529c-0.771,0-1.646,0.24-2.627,0.725l-0.438-1.082c0.459-0.244,0.961-0.438,1.509-0.576
			c0.549-0.143,1.096-0.209,1.646-0.209c1.104,0,1.932,0.246,2.467,0.738c0.533,0.492,0.801,1.281,0.801,2.367v6.355h-1.045
			l-0.275-1.314h-0.063c-0.464,0.576-0.933,0.967-1.394,1.172c-0.459,0.205-1.029,0.313-1.729,0.313c-0.928,0-1.65-0.236-2.18-0.711
			C166.75,770.257,166.488,769.585,166.488,768.71z M167.982,768.728c0,0.514,0.154,0.898,0.463,1.17
			c0.313,0.27,0.738,0.396,1.291,0.396c0.877,0,1.563-0.238,2.063-0.725c0.5-0.488,0.75-1.16,0.75-2.031v-0.844l-1.404,0.063
			c-1.117,0.039-1.928,0.215-2.42,0.523C168.23,767.591,167.982,768.074,167.982,768.728z"/>
		<path fill="#5B5B5F" d="M175.625,763.064v-0.682l1.332-0.588l0.596-1.986h0.813v2.158h2.694v1.096h-2.694v5.49
			c0,0.563,0.135,0.99,0.396,1.293c0.266,0.305,0.631,0.449,1.096,0.449c0.248,0,0.488-0.018,0.729-0.055
			c0.229-0.037,0.416-0.074,0.554-0.115v1.066c-0.152,0.063-0.38,0.133-0.677,0.18c-0.299,0.047-0.563,0.072-0.805,0.072
			c-1.806,0-2.699-0.949-2.699-2.855v-5.537L175.625,763.064L175.625,763.064z"/>
		<path fill="#5B5B5F" d="M182.299,768.71c0-1.875,1.508-2.854,4.518-2.945l1.582-0.055v-0.584c0-0.736-0.149-1.283-0.473-1.637
			c-0.313-0.355-0.814-0.529-1.506-0.529c-0.771,0-1.646,0.24-2.627,0.725l-0.438-1.082c0.459-0.244,0.961-0.438,1.508-0.576
			c0.551-0.143,1.1-0.209,1.646-0.209c1.104,0,1.932,0.246,2.467,0.738c0.533,0.492,0.803,1.281,0.803,2.367v6.355h-1.045
			l-0.272-1.314h-0.065c-0.464,0.576-0.927,0.967-1.388,1.172c-0.459,0.205-1.035,0.313-1.729,0.313
			c-0.928,0-1.646-0.236-2.182-0.711C182.564,770.257,182.299,769.585,182.299,768.71z M183.793,768.728
			c0,0.514,0.146,0.898,0.463,1.17c0.309,0.27,0.736,0.396,1.291,0.396c0.877,0,1.563-0.238,2.063-0.725
			c0.5-0.488,0.75-1.16,0.75-2.031v-0.844l-1.4,0.063c-1.119,0.039-1.934,0.215-2.422,0.523
			C184.041,767.591,183.793,768.074,183.793,768.728z"/>
		<path fill="#5B5B5F" d="M192.666,771.275V758.06h1.41v13.215H192.666z"/>
		<path fill="#5B5B5F" d="M201.066,766.679c0-1.559,0.373-2.762,1.117-3.607c0.744-0.848,1.813-1.271,3.192-1.271
			c0.438,0,0.896,0.049,1.347,0.146c0.442,0.098,0.799,0.209,1.053,0.34l-0.437,1.197c-0.313-0.125-0.647-0.229-1.021-0.313
			c-0.362-0.082-0.688-0.123-0.979-0.123c-1.896,0-2.836,1.207-2.836,3.617c0,1.146,0.229,2.021,0.688,2.633
			c0.461,0.609,1.146,0.918,2.059,0.918c0.771,0,1.563-0.168,2.39-0.502v1.25c-0.622,0.32-1.405,0.482-2.354,0.482
			c-1.351,0-2.39-0.416-3.115-1.244C201.434,769.371,201.066,768.197,201.066,766.679z"/>
		<path fill="#5B5B5F" d="M209.166,768.71c0-1.875,1.506-2.854,4.518-2.945l1.582-0.055v-0.584c0-0.736-0.156-1.283-0.473-1.637
			c-0.313-0.355-0.813-0.529-1.504-0.529c-0.771,0-1.648,0.24-2.627,0.725l-0.439-1.082c0.459-0.244,0.961-0.438,1.508-0.576
			c0.547-0.143,1.103-0.209,1.646-0.209c1.104,0,1.934,0.246,2.465,0.738c0.533,0.492,0.805,1.281,0.805,2.367v6.355H215.6
			l-0.279-1.314h-0.063c-0.463,0.576-0.926,0.967-1.387,1.172c-0.459,0.205-1.033,0.313-1.729,0.313
			c-0.929,0-1.654-0.236-2.183-0.711C209.432,770.257,209.166,769.585,209.166,768.71z M210.662,768.728
			c0,0.514,0.146,0.898,0.463,1.17c0.309,0.27,0.73,0.396,1.291,0.396c0.877,0,1.563-0.238,2.063-0.725
			c0.5-0.488,0.75-1.16,0.75-2.031v-0.844l-1.408,0.063c-1.111,0.039-1.926,0.215-2.42,0.523
			C210.908,767.591,210.662,768.074,210.662,768.728z"/>
		<path fill="#5B5B5F" d="M218.941,764.253c0-0.758,0.313-1.354,0.924-1.797c0.617-0.439,1.469-0.658,2.537-0.658
			c0.996,0,1.977,0.203,2.92,0.609l-0.484,1.145c-0.938-0.389-1.773-0.578-2.531-0.578c-0.67,0-1.174,0.105-1.514,0.314
			c-0.348,0.209-0.518,0.498-0.518,0.867c0,0.25,0.063,0.463,0.188,0.641c0.125,0.176,0.332,0.342,0.617,0.502
			c0.273,0.156,0.818,0.393,1.633,0.689c1.104,0.395,1.85,0.811,2.229,1.217c0.381,0.408,0.57,0.922,0.57,1.541
			c0,0.861-0.32,1.527-0.966,1.994c-0.646,0.467-1.541,0.701-2.698,0.701c-1.229,0-2.193-0.191-2.886-0.578v-1.313
			c0.447,0.23,0.929,0.404,1.438,0.535c0.52,0.133,1.006,0.193,1.479,0.193c0.73,0,1.309-0.117,1.701-0.354
			c0.396-0.232,0.6-0.594,0.6-1.074c0-0.363-0.156-0.676-0.477-0.936c-0.313-0.258-0.938-0.563-1.85-0.914
			c-0.859-0.322-1.479-0.604-1.848-0.85c-0.365-0.238-0.638-0.521-0.814-0.818C219.029,765.048,218.941,764.679,218.941,764.253z"/>
		<path fill="#5B5B5F" d="M227.316,766.697c0-1.5,0.367-2.691,1.104-3.576c0.737-0.883,1.729-1.322,2.971-1.322
			c1.16,0,2.082,0.385,2.758,1.148c0.687,0.77,1.021,1.777,1.021,3.037v0.895h-6.399c0.024,1.094,0.311,1.922,0.826,2.484
			c0.522,0.564,1.268,0.854,2.221,0.854c0.998,0,1.981-0.209,2.963-0.629v1.258c-0.492,0.225-0.967,0.369-1.404,0.463
			c-0.443,0.105-0.979,0.146-1.604,0.146c-1.371,0-2.453-0.42-3.248-1.258C227.713,769.351,227.316,768.187,227.316,766.697z
			 M228.791,765.728h4.875c0-0.893-0.197-1.568-0.602-2.041c-0.396-0.477-0.965-0.709-1.697-0.709c-0.746,0-1.35,0.24-1.789,0.729
			C229.135,764.197,228.871,764.869,228.791,765.728z"/>
		<path fill="#5B5B5F" d="M236.996,764.253c0-0.758,0.309-1.354,0.924-1.797c0.617-0.439,1.461-0.658,2.537-0.658
			c0.994,0,1.969,0.203,2.92,0.609l-0.492,1.145c-0.932-0.389-1.773-0.578-2.529-0.578c-0.67,0-1.174,0.105-1.516,0.314
			s-0.512,0.498-0.512,0.867c0,0.25,0.063,0.463,0.188,0.641c0.127,0.176,0.332,0.342,0.617,0.502
			c0.278,0.156,0.823,0.393,1.633,0.689c1.104,0.395,1.846,0.811,2.229,1.217c0.379,0.408,0.563,0.922,0.563,1.541
			c0,0.861-0.313,1.527-0.963,1.994c-0.646,0.467-1.541,0.701-2.701,0.701c-1.229,0-2.188-0.191-2.883-0.578v-1.313
			c0.442,0.23,0.926,0.404,1.438,0.535c0.512,0.133,1.006,0.193,1.479,0.193c0.736,0,1.313-0.117,1.703-0.354
			c0.396-0.232,0.596-0.594,0.596-1.074c0-0.363-0.147-0.676-0.475-0.936c-0.314-0.258-0.932-0.563-1.842-0.914
			c-0.869-0.322-1.482-0.604-1.854-0.85c-0.359-0.24-0.633-0.521-0.813-0.818C237.084,765.048,236.996,764.679,236.996,764.253z"/>
	</g>
	<rect x="53.957" y="755.816" fill="#F2C466" width="17.803" height="17.803"/>
</g>
<g>
	<g>
		<path fill="#5B5B5F" d="M82.98,792.734c0-1.275,0.234-2.396,0.709-3.357c0.479-0.961,1.16-1.703,2.064-2.225
			c0.896-0.521,1.965-0.779,3.188-0.779c1.309,0,2.438,0.236,3.414,0.713l-0.605,1.238c-0.938-0.439-1.887-0.662-2.818-0.662
			c-1.363,0-2.438,0.455-3.229,1.361c-0.787,0.906-1.188,2.146-1.188,3.729c0,1.623,0.383,2.877,1.146,3.771
			c0.764,0.889,1.85,1.32,3.258,1.32c0.859,0,1.854-0.145,2.965-0.467v1.271c-0.859,0.318-1.924,0.479-3.188,0.479
			c-1.825,0-3.23-0.555-4.227-1.666C83.475,796.357,82.98,794.781,82.98,792.734z"/>
		<path fill="#5B5B5F" d="M93.865,794.294c0-1.514,0.377-2.691,1.135-3.539c0.756-0.844,1.809-1.27,3.146-1.27
			c1.299,0,2.33,0.436,3.102,1.299c0.766,0.863,1.146,2.033,1.146,3.51c0,1.521-0.381,2.707-1.145,3.563
			c-0.77,0.854-1.814,1.279-3.158,1.279c-0.83,0-1.564-0.195-2.211-0.59c-0.646-0.391-1.146-0.951-1.486-1.686
			C94.041,796.132,93.865,795.275,93.865,794.294z M95.311,794.294c0,1.189,0.236,2.104,0.715,2.727
			c0.479,0.625,1.182,0.938,2.104,0.938s1.625-0.313,2.104-0.932c0.479-0.621,0.725-1.531,0.725-2.73
			c0-1.186-0.238-2.086-0.725-2.703c-0.479-0.604-1.188-0.922-2.123-0.922c-0.924,0-1.621,0.305-2.092,0.91
			C95.543,792.185,95.311,793.089,95.311,794.294z"/>
		<path fill="#5B5B5F" d="M104.293,791.943c0-0.76,0.309-1.355,0.924-1.797c0.617-0.439,1.463-0.66,2.537-0.66
			c0.994,0,1.971,0.205,2.92,0.609l-0.49,1.146c-0.934-0.387-1.771-0.578-2.531-0.578c-0.67,0-1.174,0.104-1.516,0.314
			c-0.342,0.209-0.512,0.488-0.512,0.855c0,0.25,0.063,0.465,0.188,0.646c0.127,0.176,0.332,0.344,0.617,0.502
			c0.281,0.158,0.826,0.391,1.633,0.688c1.105,0.402,1.854,0.814,2.229,1.227c0.379,0.4,0.563,0.922,0.563,1.533
			c0,0.861-0.313,1.523-0.963,1.994c-0.643,0.475-1.541,0.701-2.699,0.701c-1.229,0-2.188-0.188-2.885-0.578v-1.303
			c0.445,0.23,0.929,0.404,1.438,0.535c0.514,0.131,1.006,0.195,1.479,0.195c0.736,0,1.313-0.119,1.703-0.355
			c0.396-0.234,0.598-0.594,0.598-1.076c0-0.354-0.152-0.674-0.475-0.934c-0.313-0.26-0.932-0.564-1.844-0.914
			c-0.867-0.324-1.482-0.605-1.852-0.854c-0.361-0.234-0.637-0.52-0.813-0.814C104.381,792.736,104.293,792.371,104.293,791.943z"/>
		<path fill="#5B5B5F" d="M111.953,790.753v-0.68l1.334-0.588l0.594-1.984h0.813v2.156h2.699v1.096h-2.699v5.49
			c0,0.563,0.139,0.994,0.398,1.295c0.265,0.303,0.631,0.451,1.096,0.451c0.25,0,0.49-0.021,0.729-0.064
			c0.229-0.033,0.416-0.068,0.553-0.107v1.063c-0.15,0.07-0.379,0.133-0.676,0.189c-0.299,0.047-0.563,0.063-0.809,0.063
			c-1.801,0-2.695-0.945-2.695-2.848v-5.537L111.953,790.753L111.953,790.753z"/>
		<path fill="#5B5B5F" d="M122.594,790.753v-0.637l1.664-0.51v-0.521c0-2.27,0.998-3.416,2.996-3.416
			c0.492,0,1.07,0.105,1.729,0.295l-0.359,1.115c-0.543-0.178-1.014-0.271-1.396-0.271c-0.533,0-0.928,0.184-1.184,0.529
			c-0.254,0.355-0.381,0.92-0.381,1.701v0.604h2.361v1.1h-2.361v8.211h-1.41v-8.211L122.594,790.753L122.594,790.753z"/>
		<path fill="#5B5B5F" d="M129.039,796.4c0-1.875,1.506-2.854,4.518-2.945l1.582-0.055v-0.584c0-0.736-0.158-1.283-0.473-1.639
			c-0.315-0.354-0.814-0.527-1.506-0.527c-0.771,0-1.646,0.24-2.627,0.725l-0.438-1.082c0.459-0.246,0.961-0.438,1.508-0.574
			c0.545-0.143,1.094-0.209,1.646-0.209c1.104,0,1.93,0.244,2.465,0.736c0.535,0.49,0.805,1.279,0.805,2.369v6.354h-1.045
			l-0.281-1.313h-0.063c-0.465,0.576-0.928,0.969-1.393,1.174c-0.461,0.203-1.029,0.314-1.725,0.314
			c-0.93,0-1.654-0.234-2.182-0.717C129.303,797.951,129.039,797.275,129.039,796.4z M130.533,796.419
			c0,0.514,0.146,0.898,0.463,1.168c0.307,0.271,0.73,0.402,1.291,0.402c0.877,0,1.563-0.242,2.063-0.73
			c0.5-0.484,0.75-1.16,0.75-2.027v-0.848l-1.408,0.064c-1.111,0.041-1.926,0.215-2.42,0.52
			C130.779,795.285,130.533,795.763,130.533,796.419z"/>
		<path fill="#5B5B5F" d="M138.176,790.753v-0.68l1.334-0.588l0.594-1.984h0.814v2.156h2.699v1.096h-2.699v5.49
			c0,0.563,0.133,0.994,0.396,1.295c0.271,0.303,0.631,0.451,1.102,0.451c0.248,0,0.482-0.021,0.723-0.064
			c0.229-0.033,0.416-0.068,0.553-0.107v1.063c-0.146,0.07-0.377,0.133-0.674,0.189c-0.301,0.047-0.563,0.063-0.805,0.063
			c-1.801,0-2.699-0.945-2.699-2.848v-5.537L138.176,790.753L138.176,790.753z"/>
		<path fill="#5B5B5F" d="M144.852,796.4c0-1.875,1.506-2.854,4.521-2.945l1.582-0.055v-0.584c0-0.736-0.156-1.283-0.479-1.639
			c-0.313-0.354-0.813-0.527-1.506-0.527c-0.771,0-1.646,0.24-2.627,0.725l-0.438-1.082c0.461-0.246,0.963-0.438,1.51-0.574
			c0.547-0.143,1.094-0.209,1.645-0.209c1.107,0,1.938,0.244,2.465,0.736c0.535,0.49,0.812,1.279,0.812,2.369v6.354h-1.045
			l-0.279-1.313h-0.063c-0.465,0.576-0.928,0.969-1.392,1.174c-0.459,0.203-1.03,0.314-1.725,0.314
			c-0.937,0-1.654-0.234-2.188-0.717C145.113,797.951,144.852,797.275,144.852,796.4z M146.346,796.419
			c0,0.514,0.152,0.898,0.463,1.168c0.313,0.271,0.736,0.402,1.291,0.402c0.877,0,1.564-0.242,2.064-0.73
			c0.5-0.484,0.75-1.16,0.75-2.027v-0.848l-1.408,0.064c-1.115,0.041-1.926,0.215-2.42,0.52
			C146.592,795.285,146.346,795.763,146.346,796.419z"/>
		<path fill="#5B5B5F" d="M155.219,798.964v-13.213h1.408v13.213H155.219z"/>
		<path fill="#5B5B5F" d="M163.617,794.371c0-1.561,0.365-2.762,1.109-3.607c0.746-0.85,1.813-1.27,3.197-1.27
			c0.442,0,0.896,0.049,1.342,0.145c0.444,0.105,0.799,0.209,1.061,0.348l-0.438,1.189c-0.313-0.125-0.646-0.229-1.021-0.313
			s-0.691-0.123-0.979-0.123c-1.896,0-2.838,1.205-2.838,3.617c0,1.145,0.229,2.02,0.688,2.633c0.464,0.607,1.146,0.916,2.054,0.916
			c0.771,0,1.565-0.166,2.39-0.5v1.248c-0.621,0.318-1.406,0.48-2.354,0.48c-1.354,0-2.396-0.414-3.119-1.244
			C163.984,797.062,163.617,795.888,163.617,794.371z"/>
		<path fill="#5B5B5F" d="M171.719,796.4c0-1.875,1.506-2.854,4.516-2.945l1.582-0.055v-0.584c0-0.736-0.147-1.283-0.471-1.639
			c-0.313-0.354-0.813-0.527-1.506-0.527c-0.771,0-1.648,0.24-2.627,0.725l-0.439-1.082c0.459-0.246,0.961-0.438,1.517-0.574
			c0.547-0.143,1.096-0.209,1.646-0.209c1.105,0,1.936,0.244,2.467,0.736c0.529,0.49,0.807,1.279,0.807,2.369v6.354h-1.048
			l-0.275-1.313h-0.067c-0.464,0.576-0.925,0.969-1.386,1.174c-0.461,0.203-1.034,0.314-1.729,0.314
			c-0.929,0-1.648-0.234-2.183-0.717C171.982,797.951,171.719,797.275,171.719,796.4z M173.213,796.419
			c0,0.514,0.146,0.898,0.461,1.168c0.311,0.271,0.738,0.402,1.293,0.402c0.875,0,1.563-0.242,2.063-0.73
			c0.5-0.484,0.75-1.16,0.75-2.027v-0.848l-1.397,0.064c-1.117,0.041-1.93,0.215-2.42,0.52
			C173.459,795.285,173.213,795.763,173.213,796.419z"/>
		<path fill="#5B5B5F" d="M181.492,791.943c0-0.76,0.309-1.355,0.926-1.797c0.615-0.439,1.461-0.66,2.537-0.66
			c0.994,0,1.969,0.205,2.92,0.609l-0.492,1.146c-0.932-0.387-1.773-0.578-2.529-0.578c-0.67,0-1.174,0.104-1.516,0.314
			c-0.342,0.209-0.512,0.488-0.512,0.855c0,0.25,0.063,0.465,0.188,0.646c0.127,0.176,0.332,0.344,0.612,0.502
			c0.283,0.158,0.828,0.391,1.638,0.688c1.104,0.402,1.846,0.814,2.229,1.227c0.379,0.4,0.563,0.922,0.563,1.533
			c0,0.861-0.313,1.523-0.963,1.994c-0.646,0.475-1.541,0.701-2.701,0.701c-1.229,0-2.188-0.188-2.883-0.578v-1.303
			c0.442,0.23,0.926,0.404,1.438,0.535c0.514,0.131,1.008,0.195,1.479,0.195c0.736,0,1.305-0.119,1.701-0.355
			c0.396-0.234,0.598-0.594,0.598-1.076c0-0.354-0.149-0.674-0.475-0.934c-0.314-0.26-0.933-0.564-1.842-0.914
			c-0.869-0.324-1.482-0.605-1.854-0.854c-0.36-0.234-0.633-0.52-0.813-0.814C181.582,792.736,181.492,792.371,181.492,791.943z"/>
		<path fill="#5B5B5F" d="M189.865,794.388c0-1.5,0.361-2.689,1.104-3.572c0.734-0.887,1.727-1.326,2.969-1.326
			c1.162,0,2.082,0.387,2.758,1.148c0.687,0.77,1.021,1.777,1.021,3.037v0.895h-6.399c0.022,1.092,0.311,1.922,0.83,2.484
			c0.521,0.564,1.268,0.852,2.215,0.852c1,0,1.984-0.209,2.969-0.627v1.256c-0.496,0.217-0.973,0.371-1.41,0.463
			c-0.441,0.098-0.979,0.145-1.604,0.145c-1.371,0-2.453-0.42-3.248-1.26C190.264,797.041,189.865,795.876,189.865,794.388z
			 M191.344,793.419h4.873c0-0.889-0.197-1.566-0.596-2.041c-0.396-0.473-0.971-0.709-1.701-0.709c-0.748,0-1.346,0.242-1.791,0.729
			C191.686,791.886,191.422,792.558,191.344,793.419z"/>
		<path fill="#5B5B5F" d="M199.545,791.943c0-0.76,0.311-1.355,0.926-1.797c0.615-0.439,1.463-0.66,2.535-0.66
			c0.996,0,1.971,0.205,2.922,0.609l-0.492,1.146c-0.932-0.387-1.771-0.578-2.529-0.578c-0.67,0-1.176,0.104-1.516,0.314
			c-0.342,0.209-0.512,0.488-0.512,0.855c0,0.25,0.063,0.465,0.188,0.646c0.129,0.176,0.334,0.344,0.617,0.502
			c0.28,0.158,0.828,0.391,1.635,0.688c1.104,0.402,1.852,0.814,2.229,1.227c0.381,0.4,0.57,0.922,0.57,1.533
			c0,0.861-0.32,1.523-0.969,1.994c-0.646,0.475-1.543,0.701-2.697,0.701c-1.23,0-2.191-0.188-2.887-0.578v-1.303
			c0.445,0.23,0.932,0.404,1.438,0.535c0.514,0.131,1.004,0.195,1.479,0.195c0.736,0,1.313-0.119,1.701-0.355
			c0.396-0.234,0.604-0.594,0.604-1.076c0-0.354-0.156-0.674-0.479-0.934c-0.313-0.26-0.93-0.564-1.844-0.914
			c-0.865-0.324-1.482-0.605-1.848-0.854c-0.363-0.234-0.641-0.52-0.813-0.814C199.635,792.736,199.545,792.371,199.545,791.943z"/>
	</g>
	<rect x="53.957" y="783.505" fill="#449FA2" width="17.803" height="17.801"/>
</g>
<g>
	<path fill="#9A999E" d="M32.351,96.087v-1.241l3.384-3.415c1.031-1.047,1.711-1.794,2.039-2.241s0.574-0.882,0.738-1.306
		c0.164-0.423,0.246-0.879,0.246-1.368c0-0.688-0.208-1.234-0.624-1.637c-0.416-0.403-0.993-0.604-1.731-0.604
		c-0.533,0-1.039,0.088-1.516,0.265c-0.478,0.177-1.009,0.498-1.595,0.962l-0.773-0.997c1.184-0.967,2.473-1.451,3.867-1.451
		c1.207,0,2.153,0.308,2.839,0.922c0.686,0.615,1.028,1.442,1.028,2.479c0,0.818-0.229,1.627-0.686,2.427s-1.313,1.812-2.566,3.036
		l-2.813,2.762v0.071h6.609v1.336H32.351z"/>
	<path fill="#9A999E" d="M42.318,98.407c0.158-0.609,0.332-1.362,0.522-2.259s0.324-1.614,0.4-2.153h1.592l0.131,0.202
		c-0.151,0.586-0.37,1.267-0.655,2.043c-0.286,0.776-0.583,1.499-0.893,2.167H42.318z"/>
	<path fill="#9A999E" d="M47.108,87.365c0-1.332,0.375-2.384,1.124-3.155c0.75-0.771,1.736-1.157,2.959-1.157
		c0.875,0,1.641,0.224,2.296,0.672c0.655,0.447,1.159,1.1,1.512,1.958s0.529,1.869,0.529,3.033c0,5.032-1.949,7.547-5.847,7.547
		c-0.682,0-1.222-0.059-1.621-0.176v-1.274c0.47,0.176,1.004,0.264,1.604,0.264c1.404,0,2.465-0.437,3.181-1.31
		c0.717-0.873,1.107-2.212,1.172-4.018h-0.105c-0.321,0.493-0.749,0.868-1.281,1.126s-1.132,0.387-1.799,0.387
		c-1.141,0-2.047-0.342-2.717-1.027C47.443,89.549,47.108,88.593,47.108,87.365z M48.567,87.347c0,0.848,0.211,1.514,0.632,2
		c0.421,0.486,1.062,0.729,1.922,0.729c0.532,0,1.022-0.109,1.47-0.327s0.8-0.515,1.058-0.892c0.257-0.377,0.386-0.771,0.386-1.183
		c0-0.618-0.12-1.189-0.359-1.713c-0.24-0.524-0.575-0.936-1.005-1.236c-0.431-0.3-0.923-0.45-1.479-0.45
		c-0.837,0-1.483,0.271-1.939,0.813S48.567,86.382,48.567,87.347z"/>
	<path fill="#9A999E" d="M57.497,90.598c0-2.526,0.49-4.416,1.472-5.667c0.981-1.251,2.434-1.877,4.355-1.877
		c0.664,0,1.188,0.056,1.57,0.167v1.274c-0.453-0.17-0.971-0.255-1.553-0.255c-1.377,0-2.429,0.431-3.155,1.292
		c-0.727,0.862-1.125,2.215-1.195,4.062h0.105c0.645-0.997,1.664-1.495,3.059-1.495c1.159,0,2.073,0.348,2.742,1.043
		c0.668,0.695,1.002,1.64,1.002,2.832c0,1.333-0.366,2.382-1.099,3.145c-0.733,0.763-1.724,1.145-2.971,1.145
		c-1.33,0-2.385-0.499-3.164-1.498C57.886,93.767,57.497,92.378,57.497,90.598z M58.991,91.647c0,0.605,0.117,1.169,0.352,1.693
		c0.234,0.523,0.567,0.937,0.997,1.243c0.432,0.306,0.922,0.458,1.473,0.458c0.832,0,1.478-0.263,1.938-0.789s0.69-1.286,0.69-2.279
		c0-0.852-0.214-1.522-0.642-2.01c-0.428-0.487-1.066-0.731-1.916-0.731c-0.527,0-1.011,0.109-1.45,0.326s-0.79,0.517-1.05,0.899
		C59.121,90.839,58.991,91.236,58.991,91.647z"/>
	<path fill="#9A999E" d="M67.789,90.598c0-2.526,0.49-4.416,1.472-5.667c0.981-1.251,2.434-1.877,4.355-1.877
		c0.664,0,1.188,0.056,1.57,0.167v1.274c-0.453-0.17-0.971-0.255-1.553-0.255c-1.377,0-2.429,0.431-3.155,1.292
		c-0.727,0.862-1.125,2.215-1.195,4.062h0.105c0.645-0.997,1.664-1.495,3.059-1.495c1.159,0,2.073,0.348,2.742,1.043
		c0.668,0.695,1.002,1.64,1.002,2.832c0,1.333-0.366,2.382-1.099,3.145c-0.733,0.763-1.724,1.145-2.971,1.145
		c-1.33,0-2.385-0.499-3.164-1.498C68.178,93.767,67.789,92.378,67.789,90.598z M69.283,91.647c0,0.605,0.117,1.169,0.352,1.693
		c0.234,0.523,0.567,0.937,0.997,1.243c0.432,0.306,0.922,0.458,1.473,0.458c0.832,0,1.478-0.263,1.938-0.789s0.69-1.286,0.69-2.279
		c0-0.852-0.214-1.522-0.642-2.01c-0.428-0.487-1.066-0.731-1.916-0.731c-0.527,0-1.011,0.109-1.45,0.326s-0.79,0.517-1.05,0.899
		C69.413,90.839,69.283,91.236,69.283,91.647z"/>
</g>
<g>
	<path fill="#9A999E" d="M45.577,463.558v-1.41c0.41,0.262,0.92,0.469,1.529,0.617s1.21,0.223,1.802,0.223
		c1.031,0,1.832-0.242,2.404-0.727c0.57-0.484,0.856-1.186,0.856-2.103c0-1.788-1.1-2.681-3.299-2.681
		c-0.558,0-1.302,0.084-2.234,0.254l-0.757-0.483l0.489-6.011h6.39v1.336h-5.144l-0.326,3.866c0.674-0.122,1.345-0.185,2.014-0.185
		c1.354,0,2.42,0.334,3.196,1s1.165,1.578,1.165,2.736c0,1.333-0.424,2.378-1.271,3.135c-0.847,0.758-2.014,1.137-3.502,1.137
		C47.444,464.263,46.339,464.028,45.577,463.558z"/>
	<path fill="#9A999E" d="M55.579,464.087v-1.241l3.384-3.415c1.031-1.047,1.711-1.794,2.039-2.241s0.574-0.882,0.738-1.306
		s0.246-0.88,0.246-1.368c0-0.688-0.208-1.233-0.624-1.638c-0.416-0.402-0.993-0.604-1.731-0.604c-0.533,0-1.039,0.088-1.517,0.264
		c-0.478,0.178-1.009,0.498-1.595,0.963l-0.773-0.998c1.184-0.967,2.473-1.451,3.867-1.451c1.207,0,2.153,0.309,2.839,0.923
		c0.686,0.615,1.028,1.442,1.028,2.479c0,0.818-0.229,1.627-0.686,2.428c-0.457,0.8-1.313,1.812-2.566,3.035l-2.813,2.763v0.071
		h6.609v1.336H55.579z"/>
	<path fill="#9A999E" d="M65.906,460.808c0-1.471,0.901-2.615,2.705-3.436c-0.817-0.457-1.403-0.951-1.759-1.481
		s-0.533-1.124-0.533-1.78c0-0.932,0.347-1.674,1.039-2.228s1.619-0.831,2.78-0.831c1.176,0,2.107,0.273,2.795,0.818
		c0.688,0.545,1.032,1.297,1.032,2.258c0,0.633-0.197,1.211-0.593,1.732c-0.395,0.521-1.025,0.996-1.893,1.424
		c1.049,0.498,1.794,1.021,2.235,1.568c0.442,0.548,0.663,1.182,0.663,1.902c0,1.066-0.373,1.918-1.12,2.554
		c-0.746,0.636-1.769,0.954-3.068,0.954c-1.375,0-2.433-0.301-3.174-0.901C66.277,462.761,65.906,461.91,65.906,460.808z
		 M67.365,460.843c0,0.703,0.244,1.252,0.732,1.645s1.175,0.588,2.059,0.588c0.871,0,1.55-0.205,2.035-0.615
		s0.729-0.973,0.729-1.688c0-0.568-0.229-1.073-0.685-1.516s-1.252-0.871-2.387-1.287c-0.872,0.375-1.504,0.789-1.896,1.243
		S67.365,460.21,67.365,460.843z M67.779,454.173c0,0.539,0.173,1.002,0.518,1.389s0.982,0.773,1.912,1.16
		c0.837-0.352,1.429-0.73,1.776-1.135c0.349-0.404,0.522-0.875,0.522-1.414c0-0.592-0.212-1.063-0.636-1.411
		c-0.425-0.349-1.008-0.522-1.75-0.522c-0.731,0-1.305,0.176-1.72,0.527C67.986,453.119,67.779,453.587,67.779,454.173z"/>
</g>
<g>
	<path fill="#FFFFFF" d="M156.094,159.958h-3.102v-8.492l0.031-1.395l0.051-1.526c-0.516,0.516-0.875,0.854-1.074,1.014
		l-1.688,1.355l-1.494-1.867l4.727-3.764h2.549V159.958z"/>
	<path fill="#FFFFFF" d="M163.944,157.799c-0.348,1.352-0.938,2.955-1.766,4.808h-2.209c0.436-1.78,0.773-3.459,1.014-5.039h2.811
		L163.944,157.799z"/>
	<path fill="#FFFFFF" d="M175.807,148.565c0,0.917-0.277,1.696-0.832,2.338c-0.557,0.643-1.336,1.084-2.34,1.325v0.06
		c1.186,0.147,2.082,0.507,2.691,1.079c0.607,0.572,0.912,1.343,0.912,2.313c0,1.412-0.512,2.511-1.535,3.297
		s-2.486,1.179-4.387,1.179c-1.592,0-3.004-0.264-4.234-0.793v-2.64c0.568,0.288,1.193,0.522,1.877,0.703
		c0.682,0.181,1.357,0.271,2.027,0.271c1.023,0,1.779-0.174,2.268-0.522s0.732-0.907,0.732-1.676c0-0.689-0.281-1.178-0.842-1.465
		c-0.563-0.288-1.459-0.432-2.691-0.432h-1.113v-2.379h1.135c1.137,0,1.969-0.149,2.494-0.447c0.525-0.297,0.787-0.808,0.787-1.531
		c0-1.11-0.695-1.666-2.088-1.666c-0.482,0-0.973,0.08-1.471,0.241s-1.053,0.438-1.66,0.833l-1.436-2.138
		c1.338-0.963,2.934-1.445,4.787-1.445c1.52,0,2.719,0.308,3.6,0.923C175.367,146.611,175.807,147.468,175.807,148.565z"/>
	<path fill="#FFFFFF" d="M187.541,148.565c0,0.917-0.277,1.696-0.832,2.338c-0.557,0.643-1.336,1.084-2.34,1.325v0.06
		c1.186,0.147,2.082,0.507,2.691,1.079c0.607,0.572,0.912,1.343,0.912,2.313c0,1.412-0.512,2.511-1.535,3.297
		s-2.486,1.179-4.387,1.179c-1.592,0-3.004-0.264-4.234-0.793v-2.64c0.568,0.288,1.193,0.522,1.877,0.703
		c0.682,0.181,1.357,0.271,2.027,0.271c1.023,0,1.779-0.174,2.268-0.522s0.732-0.907,0.732-1.676c0-0.689-0.281-1.178-0.842-1.465
		c-0.563-0.288-1.459-0.432-2.691-0.432h-1.113v-2.379h1.135c1.137,0,1.969-0.149,2.494-0.447c0.525-0.297,0.787-0.808,0.787-1.531
		c0-1.11-0.695-1.666-2.088-1.666c-0.482,0-0.973,0.08-1.471,0.241s-1.053,0.438-1.66,0.833l-1.436-2.138
		c1.338-0.963,2.934-1.445,4.787-1.445c1.52,0,2.719,0.308,3.6,0.923C187.102,146.611,187.541,147.468,187.541,148.565z"/>
	<path fill="#FFFFFF" d="M189.489,153.724c0-2.904,0.615-5.065,1.842-6.484c1.229-1.418,3.066-2.128,5.516-2.128
		c0.836,0,1.492,0.05,1.967,0.15v2.479c-0.594-0.134-1.184-0.201-1.766-0.201c-1.064,0-1.932,0.161-2.605,0.481
		c-0.672,0.321-1.176,0.797-1.51,1.425c-0.334,0.629-0.531,1.522-0.592,2.68h0.131c0.662-1.138,1.723-1.707,3.182-1.707
		c1.311,0,2.338,0.412,3.08,1.235c0.744,0.823,1.115,1.96,1.115,3.413c0,1.566-0.441,2.806-1.326,3.719
		c-0.883,0.914-2.107,1.37-3.672,1.37c-1.084,0-2.029-0.251-2.836-0.753c-0.807-0.501-1.43-1.234-1.867-2.198
		C189.707,156.244,189.489,155.083,189.489,153.724z M194.789,157.679c0.662,0,1.17-0.223,1.525-0.667
		c0.354-0.445,0.531-1.079,0.531-1.902c0-0.716-0.166-1.28-0.496-1.691c-0.332-0.412-0.832-0.618-1.5-0.618
		c-0.631,0-1.166,0.205-1.611,0.612c-0.445,0.408-0.668,0.883-0.668,1.425c0,0.796,0.209,1.469,0.627,2.018
		C193.615,157.405,194.147,157.679,194.789,157.679z"/>
</g>
<g>
	<path fill="#FFFFFF" d="M156.094,276.456h-3.102v-8.492l0.031-1.395l0.051-1.526c-0.516,0.516-0.875,0.854-1.074,1.014
		l-1.688,1.355l-1.494-1.867l4.727-3.764h2.549V276.456z"/>
	<path fill="#FFFFFF" d="M163.944,274.297c-0.348,1.352-0.938,2.955-1.766,4.808h-2.209c0.436-1.78,0.773-3.459,1.014-5.039h2.811
		L163.944,274.297z"/>
	<path fill="#FFFFFF" d="M166.022,270.222c0-2.904,0.613-5.065,1.842-6.484c1.227-1.418,3.066-2.128,5.516-2.128
		c0.836,0,1.492,0.05,1.967,0.15v2.479c-0.596-0.134-1.184-0.201-1.768-0.201c-1.063,0-1.932,0.161-2.604,0.481
		c-0.672,0.321-1.176,0.797-1.512,1.425c-0.334,0.629-0.531,1.522-0.592,2.68h0.131c0.662-1.138,1.723-1.707,3.182-1.707
		c1.313,0,2.34,0.412,3.082,1.235s1.113,1.96,1.113,3.413c0,1.566-0.441,2.806-1.324,3.719c-0.883,0.914-2.107,1.37-3.674,1.37
		c-1.084,0-2.029-0.251-2.836-0.753c-0.807-0.501-1.428-1.234-1.867-2.198C166.24,272.742,166.022,271.581,166.022,270.222z
		 M171.321,274.177c0.662,0,1.172-0.223,1.525-0.667c0.355-0.445,0.533-1.079,0.533-1.902c0-0.716-0.166-1.28-0.498-1.691
		c-0.33-0.412-0.83-0.618-1.5-0.618c-0.629,0-1.166,0.205-1.611,0.612c-0.445,0.408-0.668,0.883-0.668,1.425
		c0,0.796,0.211,1.469,0.629,2.018C170.149,273.903,170.678,274.177,171.321,274.177z"/>
	<path fill="#FFFFFF" d="M187.541,265.063c0,0.917-0.277,1.696-0.832,2.338c-0.557,0.643-1.336,1.084-2.34,1.325v0.06
		c1.186,0.147,2.082,0.507,2.691,1.079c0.607,0.572,0.912,1.343,0.912,2.313c0,1.412-0.512,2.511-1.535,3.297
		s-2.486,1.179-4.387,1.179c-1.592,0-3.004-0.264-4.234-0.793v-2.64c0.568,0.288,1.193,0.522,1.877,0.703
		c0.682,0.181,1.357,0.271,2.027,0.271c1.023,0,1.779-0.174,2.268-0.522s0.732-0.907,0.732-1.676c0-0.689-0.281-1.178-0.842-1.465
		c-0.563-0.288-1.459-0.432-2.691-0.432h-1.113v-2.379h1.135c1.137,0,1.969-0.149,2.494-0.447c0.525-0.297,0.787-0.808,0.787-1.531
		c0-1.11-0.695-1.666-2.088-1.666c-0.482,0-0.973,0.08-1.471,0.241s-1.053,0.438-1.66,0.833l-1.436-2.138
		c1.338-0.963,2.934-1.445,4.787-1.445c1.52,0,2.719,0.308,3.6,0.923C187.102,263.109,187.541,263.966,187.541,265.063z"/>
	<path fill="#FFFFFF" d="M199.768,269.118c0,2.563-0.42,4.46-1.26,5.691c-0.84,1.231-2.133,1.847-3.881,1.847
		c-1.691,0-2.969-0.636-3.828-1.907c-0.859-1.271-1.289-3.148-1.289-5.631c0-2.589,0.418-4.498,1.254-5.726s2.125-1.842,3.863-1.842
		c1.693,0,2.973,0.642,3.84,1.927C199.334,264.762,199.768,266.643,199.768,269.118z M192.59,269.118c0,1.8,0.156,3.09,0.467,3.87
		c0.313,0.779,0.836,1.169,1.57,1.169c0.723,0,1.246-0.395,1.566-1.185c0.322-0.79,0.482-2.074,0.482-3.854
		c0-1.8-0.162-3.093-0.486-3.879c-0.326-0.786-0.846-1.179-1.563-1.179c-0.729,0-1.25,0.393-1.564,1.179
		C192.748,266.025,192.59,267.318,192.59,269.118z"/>
</g>
<g>
	<path fill="#FFFFFF" d="M166.41,532.597h-10.258v-2.158l3.684-3.723c1.092-1.118,1.803-1.893,2.139-2.324
		c0.334-0.432,0.574-0.831,0.723-1.199c0.146-0.368,0.221-0.75,0.221-1.145c0-0.588-0.162-1.027-0.486-1.314
		c-0.326-0.288-0.758-0.432-1.301-0.432c-0.568,0-1.121,0.131-1.656,0.391c-0.535,0.262-1.094,0.633-1.676,1.115l-1.686-1.998
		c0.723-0.615,1.32-1.051,1.795-1.305c0.477-0.254,0.994-0.45,1.557-0.588c0.563-0.137,1.191-0.205,1.887-0.205
		c0.918,0,1.727,0.168,2.43,0.502s1.248,0.803,1.637,1.405c0.387,0.603,0.582,1.292,0.582,2.067c0,0.676-0.119,1.311-0.357,1.902
		c-0.236,0.592-0.605,1.199-1.104,1.822c-0.498,0.621-1.377,1.508-2.635,2.659l-1.887,1.776v0.141h6.393V532.597z"/>
	<path fill="#FFFFFF" d="M172.946,517.732c1.404,0,2.537,0.32,3.396,0.959c0.861,0.639,1.291,1.5,1.291,2.584
		c0,0.75-0.209,1.418-0.623,2.003c-0.414,0.586-1.084,1.109-2.008,1.571c1.098,0.589,1.887,1.203,2.365,1.842
		c0.477,0.639,0.717,1.34,0.717,2.103c0,1.204-0.473,2.173-1.416,2.905c-0.943,0.733-2.184,1.1-3.723,1.1
		c-1.605,0-2.867-0.342-3.785-1.023c-0.916-0.683-1.375-1.65-1.375-2.9c0-0.837,0.223-1.58,0.668-2.229
		c0.445-0.649,1.16-1.222,2.143-1.717c-0.836-0.528-1.438-1.094-1.807-1.696c-0.367-0.603-0.551-1.261-0.551-1.978
		c0-1.051,0.434-1.9,1.305-2.549C170.412,518.057,171.547,517.732,172.946,517.732z M170.656,528.693
		c0,0.576,0.201,1.023,0.602,1.346c0.402,0.32,0.951,0.481,1.646,0.481c0.77,0,1.346-0.165,1.727-0.497
		c0.381-0.331,0.572-0.768,0.572-1.31c0-0.448-0.189-0.868-0.566-1.26c-0.379-0.392-0.992-0.808-1.842-1.249
		C171.369,526.86,170.656,527.689,170.656,528.693z M172.924,520.001c-0.527,0-0.955,0.135-1.279,0.406
		c-0.324,0.271-0.486,0.634-0.486,1.089c0,0.401,0.129,0.761,0.387,1.079s0.725,0.645,1.4,0.979
		c0.654-0.308,1.113-0.623,1.375-0.943c0.26-0.321,0.391-0.693,0.391-1.114c0-0.462-0.166-0.827-0.502-1.095
		C173.875,520.134,173.448,520.001,172.924,520.001z"/>
	<path fill="#FFFFFF" d="M189.817,524.187c0,2.891-0.607,5.049-1.826,6.474c-1.217,1.425-3.061,2.138-5.529,2.138
		c-0.871,0-1.529-0.047-1.979-0.141v-2.489c0.563,0.141,1.15,0.211,1.768,0.211c1.037,0,1.889-0.152,2.559-0.456
		c0.67-0.305,1.182-0.783,1.535-1.436c0.355-0.652,0.559-1.551,0.613-2.695h-0.121c-0.389,0.629-0.836,1.07-1.344,1.324
		c-0.51,0.255-1.145,0.382-1.908,0.382c-1.277,0-2.285-0.409-3.021-1.229c-0.736-0.819-1.104-1.959-1.104-3.418
		c0-1.572,0.447-2.814,1.34-3.729s2.109-1.37,3.648-1.37c1.084,0,2.033,0.255,2.846,0.763c0.813,0.509,1.438,1.246,1.871,2.213
		C189.6,521.696,189.817,522.848,189.817,524.187z M184.508,520.242c-0.643,0-1.145,0.221-1.506,0.662s-0.541,1.078-0.541,1.908
		c0,0.709,0.162,1.271,0.49,1.686s0.826,0.623,1.496,0.623c0.629,0,1.168-0.207,1.615-0.618c0.449-0.411,0.674-0.885,0.674-1.42
		c0-0.796-0.209-1.469-0.627-2.018C185.69,520.516,185.156,520.242,184.508,520.242z"/>
</g>
<g>
	<path fill="#FFFFFF" d="M166.41,648.857h-10.258v-2.158l3.684-3.724c1.092-1.118,1.803-1.892,2.139-2.323
		c0.334-0.432,0.574-0.832,0.723-1.199c0.146-0.369,0.221-0.75,0.221-1.145c0-0.589-0.162-1.027-0.486-1.315
		c-0.326-0.288-0.758-0.432-1.301-0.432c-0.568,0-1.121,0.131-1.656,0.392c-0.535,0.262-1.094,0.633-1.676,1.114l-1.686-1.997
		c0.723-0.615,1.32-1.051,1.795-1.305c0.477-0.255,0.994-0.451,1.557-0.588s1.191-0.205,1.887-0.205c0.918,0,1.727,0.167,2.43,0.502
		c0.703,0.334,1.248,0.803,1.637,1.404c0.387,0.603,0.582,1.292,0.582,2.068c0,0.676-0.119,1.31-0.357,1.902
		c-0.236,0.592-0.605,1.199-1.104,1.821s-1.377,1.509-2.635,2.659l-1.887,1.777v0.141h6.393V648.857z"/>
	<path fill="#FFFFFF" d="M177.573,637.464c0,0.917-0.277,1.697-0.834,2.339c-0.555,0.643-1.334,1.084-2.338,1.325v0.061
		c1.184,0.146,2.08,0.506,2.689,1.078s0.914,1.344,0.914,2.314c0,1.412-0.512,2.511-1.535,3.297c-1.025,0.786-2.486,1.18-4.387,1.18
		c-1.594,0-3.006-0.265-4.236-0.793v-2.641c0.568,0.288,1.195,0.522,1.877,0.703c0.684,0.181,1.359,0.271,2.027,0.271
		c1.023,0,1.781-0.174,2.27-0.522s0.732-0.907,0.732-1.677c0-0.688-0.281-1.178-0.844-1.465s-1.459-0.432-2.689-0.432h-1.115v-2.379
		h1.135c1.139,0,1.969-0.148,2.494-0.447c0.525-0.297,0.789-0.808,0.789-1.53c0-1.11-0.697-1.666-2.088-1.666
		c-0.482,0-0.973,0.08-1.471,0.241c-0.498,0.16-1.053,0.438-1.662,0.833l-1.436-2.138c1.34-0.964,2.936-1.445,4.789-1.445
		c1.518,0,2.719,0.307,3.598,0.923C177.133,635.511,177.573,636.367,177.573,637.464z"/>
	<path fill="#FFFFFF" d="M189.817,640.446c0,2.891-0.607,5.049-1.826,6.474c-1.217,1.426-3.061,2.139-5.529,2.139
		c-0.871,0-1.529-0.047-1.979-0.141v-2.49c0.563,0.141,1.15,0.211,1.768,0.211c1.037,0,1.889-0.152,2.559-0.456
		c0.67-0.305,1.182-0.783,1.535-1.436c0.355-0.652,0.559-1.551,0.613-2.694h-0.121c-0.389,0.629-0.836,1.07-1.344,1.324
		c-0.51,0.254-1.145,0.381-1.908,0.381c-1.277,0-2.285-0.409-3.021-1.229c-0.736-0.82-1.104-1.959-1.104-3.418
		c0-1.572,0.447-2.815,1.34-3.729c0.893-0.914,2.109-1.371,3.648-1.371c1.084,0,2.033,0.255,2.846,0.764
		c0.813,0.508,1.438,1.246,1.871,2.213C189.6,637.955,189.817,639.107,189.817,640.446z M184.508,636.501
		c-0.643,0-1.145,0.221-1.506,0.662s-0.541,1.077-0.541,1.907c0,0.709,0.162,1.271,0.49,1.687c0.328,0.414,0.826,0.622,1.496,0.622
		c0.629,0,1.168-0.206,1.615-0.618c0.449-0.411,0.674-0.885,0.674-1.42c0-0.796-0.209-1.469-0.627-2.018
		C185.69,636.775,185.156,636.501,184.508,636.501z"/>
</g>
</svg>
