<?xml version="1.0" encoding="utf-8"?>
<!-- Generator: Adobe Illustrator 16.0.0, SVG Export Plug-In . SVG Version: 6.00 Build 0)  -->
<!DOCTYPE svg PUBLIC "-//W3C//DTD SVG 1.1//EN" "http://www.w3.org/Graphics/SVG/1.1/DTD/svg11.dtd">
<svg version="1.1" id="Capa_1" xmlns="http://www.w3.org/2000/svg" xmlns:xlink="http://www.w3.org/1999/xlink" x="0px" y="0px"
	 width="510.236px" height="382.676px" viewBox="0 0 510.236 382.676" enable-background="new 0 0 510.236 382.676"
	 xml:space="preserve">
<rect x="114.319" y="182.787" fill="#449FA2" width="100.49" height="133.97"/>
<rect x="114.319" y="68.726" fill="#F2C466" width="100.49" height="114.061"/>
<path fill="#87868A" d="M52.841,209.43H37.944v-4.207c0-1.979,0.295-3.408,0.885-4.291c0.596-0.887,1.521-1.324,2.804-1.324
	c0.889,0,1.606,0.246,2.188,0.738c0.573,0.49,0.945,1.211,1.115,2.152h0.104c0.396-2.248,1.578-3.373,3.566-3.373
	c1.332,0,2.371,0.449,3.118,1.352c0.748,0.896,1.115,2.15,1.115,3.771L52.841,209.43L52.841,209.43z M44.312,207.698v-2.854
	c0-1.225-0.188-2.104-0.569-2.641c-0.388-0.537-1.021-0.813-1.938-0.813c-0.834,0-1.438,0.299-1.813,0.896
	c-0.364,0.603-0.555,1.553-0.555,2.854v2.547L44.312,207.698L44.312,207.698z M51.364,207.698v-3.107
	c0-1.192-0.229-2.104-0.698-2.715c-0.465-0.604-1.188-0.912-2.188-0.912c-0.924,0-1.604,0.313-2.033,0.938
	c-0.438,0.621-0.652,1.563-0.652,2.839v2.969L51.364,207.698L51.364,207.698z"/>
<path fill="#87868A" d="M38.647,196.305c-0.394,0-0.671-0.088-0.854-0.266c-0.185-0.184-0.271-0.396-0.271-0.656
	c0-0.295,0.092-0.547,0.271-0.76c0.188-0.211,0.466-0.314,0.853-0.314c0.385,0,0.664,0.104,0.854,0.314
	c0.188,0.213,0.28,0.465,0.28,0.76c0,0.266-0.104,0.479-0.28,0.656C39.311,196.217,39.027,196.305,38.647,196.305z M52.841,196.163
	H41.673v-1.55h11.168V196.163z"/>
<path fill="#87868A" d="M52.841,190.883H36.986v-1.689H52.84L52.841,190.883L52.841,190.883z"/>
<path fill="#87868A" d="M52.841,185.605H36.986v-1.69H52.84L52.841,185.605L52.841,185.605z"/>
<path fill="#87868A" d="M38.647,180.47c-0.394,0-0.671-0.09-0.854-0.266c-0.185-0.183-0.271-0.396-0.271-0.656
	c0-0.293,0.092-0.547,0.271-0.758c0.188-0.213,0.466-0.317,0.853-0.317c0.385,0,0.664,0.104,0.854,0.317
	c0.188,0.211,0.28,0.465,0.28,0.758c0,0.264-0.104,0.479-0.28,0.656C39.311,180.38,39.027,180.47,38.647,180.47z M52.841,180.329
	H41.673v-1.551h11.168V180.329z"/>
<path fill="#87868A" d="M47.237,175.669c-1.813,0-3.229-0.455-4.247-1.36c-1.019-0.908-1.521-2.168-1.521-3.78
	c0-1.558,0.521-2.795,1.563-3.713c1.032-0.918,2.438-1.377,4.211-1.377c1.819,0,3.248,0.457,4.271,1.372
	c1.021,0.914,1.53,2.178,1.53,3.789c0,0.996-0.229,1.88-0.698,2.651c-0.479,0.771-1.146,1.367-2.021,1.787
	S48.413,175.669,47.237,175.669z M47.237,173.938c1.43,0,2.521-0.286,3.271-0.856c0.749-0.563,1.124-1.412,1.124-2.521
	s-0.373-1.951-1.113-2.524c-0.745-0.574-1.843-0.858-3.271-0.858c-1.423,0-2.504,0.284-3.243,0.858
	c-0.729,0.573-1.104,1.424-1.104,2.547c0,1.106,0.358,1.943,1.099,2.513C44.706,173.655,45.793,173.938,47.237,173.938z"/>
<path fill="#87868A" d="M52.841,162.443H41.673v-1.376l1.515-0.275v-0.081c-0.544-0.347-0.972-0.832-1.271-1.457
	c-0.299-0.625-0.438-1.321-0.438-2.089c0-1.346,0.318-2.357,0.979-3.037c0.646-0.68,1.688-1.02,3.107-1.02h7.282v1.692h-7.235
	c-0.907,0-1.596,0.207-2.042,0.621c-0.444,0.415-0.677,1.063-0.677,1.946c0,1.169,0.313,2.024,0.946,2.568
	c0.637,0.543,1.684,0.815,3.141,0.815h5.867L52.841,162.443L52.841,162.443z"/>
<path fill="#87868A" d="M51.104,144.714h-1.601c0.252-0.563,0.457-1.214,0.611-1.951c0.16-0.737,0.24-1.408,0.24-2.013H45.88
	c-0.438,1.393-0.954,2.369-1.538,2.93c-0.585,0.561-1.339,0.841-2.268,0.841c-0.89,0-1.615-0.345-2.188-1.034
	c-0.566-0.689-0.924-1.602-1.04-2.736h-1.854v-1.335h1.834c0.034-1.246,0.286-2.448,0.76-3.607l1.335,0.53
	c-0.396,1.009-0.644,2.035-0.719,3.077h4.428c0.346-1.063,0.671-1.859,0.988-2.389c0.323-0.528,0.693-0.918,1.111-1.169
	c0.417-0.25,0.926-0.376,1.521-0.376c0.924,0,1.688,0.346,2.292,1.037c0.604,0.691,0.979,1.656,1.146,2.896h2.354v1.335H51.78
	c0,0.761-0.063,1.498-0.185,2.212C51.483,143.676,51.317,144.26,51.104,144.714z M42.071,142.79c0.521,0,0.936-0.152,1.238-0.456
	c0.313-0.304,0.604-0.831,0.892-1.582h-3.938c0.104,0.669,0.313,1.177,0.638,1.521C41.208,142.618,41.602,142.79,42.071,142.79z
	 M50.263,139.417c-0.203-1.467-0.828-2.201-1.875-2.201c-0.484,0-0.891,0.15-1.188,0.452c-0.303,0.301-0.604,0.884-0.896,1.749
	H50.263z"/>
<line fill="none" stroke="#000000" stroke-width="0.25" stroke-miterlimit="10" x1="84.1" y1="68.774" x2="84.1" y2="316.629"/>
<line fill="none" stroke="#000000" stroke-width="0.25" stroke-miterlimit="10" x1="214.809" y1="316.754" x2="70.379" y2="316.754"/>
<line fill="none" stroke="#000000" stroke-width="0.25" stroke-miterlimit="10" x1="70.673" y1="68.774" x2="214.809" y2="68.774"/>
<path fill="#9A999E" d="M58.026,310.484c0-2.236,0.35-3.896,1.049-4.979c0.7-1.083,1.767-1.625,3.201-1.625
	c1.393,0,2.451,0.565,3.174,1.695s1.084,2.767,1.084,4.909c0,2.223-0.35,3.882-1.049,4.979c-0.699,1.098-1.771,1.645-3.209,1.645
	c-1.387,0-2.442-0.562-3.165-1.685C58.387,314.301,58.026,312.654,58.026,310.484z M59.52,310.484c0,1.865,0.219,3.223,0.658,4.072
	c0.438,0.852,1.138,1.273,2.097,1.273c0.971,0,1.674-0.434,2.107-1.293c0.438-0.862,0.654-2.214,0.654-4.059
	c0-1.84-0.218-3.188-0.654-4.045c-0.436-0.855-1.139-1.285-2.107-1.285c-0.959,0-1.659,0.425-2.097,1.27
	C59.74,307.266,59.52,308.62,59.52,310.484z"/>
<g>
	<rect x="376.05" y="205.811" fill="#449FA2" width="100.492" height="110.943"/>
	<rect x="376.05" y="68.773" fill="#F2C466" width="100.492" height="137.038"/>
</g>
<path fill="#87868A" d="M321.009,209.43h-14.899v-4.209c0-1.979,0.296-3.406,0.886-4.289c0.604-0.887,1.523-1.326,2.813-1.326
	c0.883,0,1.604,0.246,2.185,0.74c0.574,0.49,0.946,1.211,1.116,2.152h0.104c0.396-2.248,1.574-3.373,3.567-3.373
	c1.332,0,2.371,0.449,3.118,1.35c0.747,0.901,1.121,2.152,1.121,3.771L321.009,209.43L321.009,209.43z M312.471,207.695v-2.854
	c0-1.225-0.191-2.104-0.574-2.641c-0.383-0.537-1.021-0.813-1.938-0.813c-0.834,0-1.438,0.299-1.813,0.896
	c-0.359,0.603-0.557,1.553-0.557,2.854v2.547L312.471,207.695L312.471,207.695z M319.522,207.695v-3.104
	c0-1.192-0.229-2.104-0.688-2.715c-0.479-0.604-1.193-0.912-2.188-0.912c-0.924,0-1.604,0.313-2.038,0.938
	c-0.435,0.621-0.646,1.563-0.646,2.838v2.971L319.522,207.695L319.522,207.695z"/>
<path fill="#87868A" d="M306.804,196.305c-0.393,0-0.673-0.088-0.854-0.266c-0.188-0.186-0.271-0.396-0.271-0.656
	c0-0.295,0.091-0.547,0.271-0.76c0.188-0.211,0.467-0.316,0.85-0.316s0.664,0.105,0.854,0.316c0.188,0.213,0.28,0.465,0.28,0.76
	c0,0.264-0.097,0.479-0.28,0.656S307.185,196.305,306.804,196.305z M321.009,196.163H309.84v-1.552h11.169V196.163z"/>
<path fill="#87868A" d="M321.009,190.883h-15.859v-1.691h15.855L321.009,190.883L321.009,190.883z"/>
<path fill="#87868A" d="M321.009,185.604h-15.859v-1.689h15.855L321.009,185.604L321.009,185.604z"/>
<path fill="#87868A" d="M306.804,180.469c-0.393,0-0.673-0.09-0.854-0.266c-0.188-0.183-0.271-0.396-0.271-0.656
	c0-0.293,0.091-0.547,0.271-0.758c0.188-0.213,0.467-0.317,0.85-0.317s0.664,0.104,0.854,0.317c0.188,0.211,0.28,0.465,0.28,0.758
	c0,0.264-0.097,0.479-0.28,0.656C307.469,180.379,307.185,180.469,306.804,180.469z M321.009,180.328H309.84v-1.551h11.169V180.328z
	"/>
<path fill="#87868A" d="M315.395,175.668c-1.813,0-3.229-0.455-4.247-1.36c-1.014-0.908-1.521-2.168-1.521-3.78
	c0-1.558,0.519-2.795,1.557-3.713c1.037-0.918,2.438-1.377,4.211-1.377c1.824,0,3.248,0.457,4.271,1.372
	c1.021,0.914,1.537,2.178,1.537,3.789c0,0.996-0.229,1.88-0.705,2.651c-0.479,0.771-1.146,1.367-2.021,1.787
	S316.567,175.668,315.395,175.668z M315.395,173.937c1.43,0,2.521-0.286,3.271-0.856c0.749-0.563,1.123-1.412,1.123-2.521
	s-0.372-1.951-1.112-2.524c-0.745-0.574-1.839-0.858-3.273-0.858c-1.423,0-2.504,0.284-3.243,0.858
	c-0.729,0.573-1.104,1.424-1.104,2.547c0,1.106,0.357,1.943,1.093,2.513C312.86,173.654,313.957,173.937,315.395,173.937z"/>
<path fill="#87868A" d="M321.009,162.442H309.84v-1.376l1.509-0.275v-0.081c-0.543-0.347-0.965-0.832-1.27-1.457
	c-0.309-0.625-0.442-1.321-0.442-2.089c0-1.346,0.318-2.357,0.973-3.037c0.649-0.68,1.688-1.02,3.113-1.02h7.286v1.692h-7.239
	c-0.913,0-1.594,0.207-2.043,0.621c-0.449,0.415-0.674,1.063-0.674,1.946c0,1.169,0.313,2.024,0.944,2.568
	c0.639,0.543,1.684,0.815,3.141,0.815h5.871V162.442L321.009,162.442z"/>
<path fill="#87868A" d="M319.262,144.713h-1.601c0.257-0.563,0.457-1.214,0.616-1.951c0.15-0.737,0.229-1.408,0.229-2.013h-4.479
	c-0.438,1.393-0.954,2.369-1.539,2.93c-0.584,0.563-1.341,0.841-2.271,0.841c-0.896,0-1.616-0.345-2.188-1.034
	c-0.566-0.689-0.917-1.602-1.039-2.736h-1.854v-1.335h1.834c0.033-1.246,0.285-2.448,0.762-3.607l1.337,0.53
	c-0.396,1.009-0.646,2.035-0.723,3.077h4.433c0.339-1.063,0.671-1.859,0.983-2.389c0.322-0.528,0.692-0.918,1.108-1.169
	c0.42-0.25,0.928-0.376,1.521-0.376c0.927,0,1.688,0.346,2.291,1.037c0.603,0.691,0.979,1.656,1.146,2.896h2.354v1.335h-2.267
	c0,0.761-0.063,1.498-0.186,2.212C319.64,143.675,319.474,144.259,319.262,144.713z M310.228,142.789
	c0.521,0,0.938-0.152,1.243-0.456c0.313-0.304,0.604-0.831,0.887-1.582h-3.938c0.104,0.669,0.313,1.177,0.637,1.521
	C309.373,142.617,309.76,142.789,310.228,142.789z M318.427,139.416c-0.204-1.467-0.829-2.201-1.875-2.201
	c-0.489,0-0.891,0.15-1.188,0.452c-0.302,0.301-0.603,0.884-0.896,1.749H318.427z"/>
<line fill="none" stroke="#000000" stroke-width="0.25" stroke-miterlimit="10" x1="345.833" y1="68.725" x2="345.833" y2="316.754"/>
<line fill="none" stroke="#000000" stroke-width="0.25" stroke-miterlimit="10" x1="476.549" y1="316.754" x2="332.106" y2="316.754"/>
<line fill="none" stroke="#000000" stroke-width="0.25" stroke-miterlimit="10" x1="476.549" y1="68.725" x2="332.106" y2="68.725"/>
<path fill="#9A999E" d="M317.612,310.484c0-2.236,0.353-3.896,1.049-4.979c0.7-1.083,1.771-1.625,3.201-1.625
	c1.396,0,2.451,0.565,3.174,1.695c0.726,1.13,1.084,2.767,1.084,4.909c0,2.223-0.35,3.882-1.049,4.979
	c-0.699,1.098-1.77,1.645-3.209,1.645c-1.387,0-2.439-0.562-3.165-1.685C317.973,314.301,317.612,312.654,317.612,310.484z
	 M319.106,310.484c0,1.865,0.22,3.223,0.658,4.072c0.438,0.852,1.139,1.273,2.098,1.273c0.971,0,1.674-0.434,2.11-1.293
	c0.436-0.862,0.65-2.214,0.65-4.059c0-1.84-0.217-3.188-0.65-4.045c-0.438-0.855-1.143-1.285-2.11-1.285
	c-0.959,0-1.658,0.425-2.098,1.27C319.326,307.266,319.106,308.62,319.106,310.484z"/>
<path fill="#666666" d="M53.391,29.996c0-1.633,0.322-3.063,0.979-4.292c0.655-1.228,1.604-2.166,2.831-2.814
	c1.231-0.648,2.675-0.972,4.329-0.972c1.676,0,3.237,0.308,4.684,0.924l-0.709,1.611c-1.418-0.602-2.776-0.902-4.093-0.902
	c-1.912,0-3.405,0.569-4.479,1.708c-1.074,1.139-1.611,2.718-1.611,4.737c0,2.127,0.517,3.74,1.552,4.839
	c1.035,1.1,2.561,1.649,4.563,1.649c1.088,0,2.146-0.125,3.188-0.377v-4.854h-3.513V29.62h5.339v7.648
	c-0.831,0.262-1.676,0.459-2.535,0.594c-0.854,0.134-1.854,0.201-2.98,0.201c-2.378,0-4.229-0.707-5.56-2.122
	C54.052,34.527,53.391,32.545,53.391,29.996z"/>
<path fill="#666666" d="M69.954,37.849V21.133h1.783v16.715L69.954,37.849L69.954,37.849z"/>
<path fill="#666666" d="M74.865,31.939c0-1.916,0.479-3.408,1.435-4.477c0.956-1.069,2.285-1.603,3.984-1.603
	c1.642,0,2.947,0.547,3.915,1.641s1.451,2.574,1.451,4.439c0,1.923-0.482,3.424-1.446,4.503c-0.964,1.08-2.296,1.62-3.995,1.62
	c-1.05,0-1.979-0.248-2.795-0.743c-0.813-0.495-1.438-1.205-1.885-2.13C75.085,34.265,74.865,33.182,74.865,31.939z M76.691,31.939
	c0,1.507,0.301,2.656,0.904,3.445c0.602,0.79,1.482,1.185,2.651,1.185s2.063-0.393,2.663-1.179c0.606-0.786,0.909-1.937,0.909-3.451
	c0-1.5-0.303-2.64-0.909-3.419c-0.604-0.778-1.501-1.168-2.684-1.168c-1.169,0-2.053,0.384-2.646,1.152
	C76.988,29.272,76.691,30.418,76.691,31.939z"/>
<path fill="#666666" d="M88.808,37.849V21.133h1.777v4.061c0,0.91-0.023,1.726-0.086,2.449h0.086
	c0.831-1.174,2.063-1.762,3.695-1.762c1.54,0,2.736,0.528,3.588,1.584c0.854,1.057,1.278,2.551,1.278,4.485
	c0,1.934-0.432,3.436-1.289,4.506c-0.859,1.071-2.052,1.606-3.578,1.606c-0.767,0-1.466-0.142-2.1-0.424
	c-0.64-0.282-1.166-0.718-1.601-1.305h-0.12l-0.376,1.515L88.808,37.849L88.808,37.849z M90.59,31.951
	c0,1.654,0.275,2.838,0.827,3.55c0.551,0.713,1.438,1.069,2.653,1.069c1.096,0,1.912-0.399,2.449-1.198
	c0.537-0.798,0.806-1.946,0.806-3.443c0-1.532-0.269-2.675-0.806-3.427s-1.368-1.128-2.492-1.128c-1.218,0-2.095,0.349-2.632,1.047
	C90.859,29.119,90.59,30.296,90.59,31.951z"/>
<path fill="#666666" d="M101.407,34.604c0-2.371,1.904-3.614,5.712-3.729l2.001-0.065v-0.739c0-0.935-0.198-1.625-0.595-2.071
	c-0.397-0.446-1.031-0.669-1.903-0.669c-0.979,0-2.087,0.305-3.324,0.914l-0.554-1.369c0.58-0.311,1.215-0.554,1.907-0.73
	c0.688-0.176,1.384-0.265,2.079-0.265c1.396,0,2.438,0.312,3.117,0.935c0.676,0.623,1.014,1.622,1.014,2.997v8.035h-1.321
	l-0.354-1.656H109.1c-0.586,0.73-1.17,1.225-1.753,1.483c-0.583,0.259-1.313,0.388-2.188,0.388c-1.173,0-2.092-0.3-2.758-0.899
	C101.74,36.564,101.407,35.711,101.407,34.604z M103.298,34.626c0,0.648,0.195,1.141,0.584,1.479
	c0.395,0.338,0.938,0.507,1.641,0.507c1.104,0,1.979-0.306,2.605-0.917c0.639-0.612,0.949-1.468,0.949-2.569v-1.068l-1.78,0.075
	c-1.416,0.05-2.436,0.272-3.062,0.664C103.61,33.189,103.298,33.799,103.298,34.626z"/>
<path fill="#666666" d="M114.525,37.849V21.133h1.783v16.715L114.525,37.849L114.525,37.849z"/>
<path fill="#666666" d="M125.149,32.059c0-1.897,0.466-3.405,1.396-4.522c0.937-1.117,2.188-1.676,3.754-1.676
	c1.476,0,2.639,0.485,3.49,1.456c0.856,0.971,1.285,2.25,1.285,3.84v1.128h-8.1c0.036,1.382,0.386,2.432,1.049,3.147
	c0.664,0.716,1.598,1.074,2.803,1.074c1.264,0,2.513-0.265,3.748-0.795v1.59c-0.628,0.272-1.223,0.467-1.783,0.585
	c-0.561,0.118-1.231,0.177-2.024,0.177c-1.735,0-3.105-0.53-4.108-1.59C125.65,35.414,125.149,33.941,125.149,32.059z
	 M127.018,30.833h6.166c0-1.124-0.251-1.985-0.753-2.583s-1.225-0.897-2.152-0.897c-0.947,0-1.702,0.308-2.266,0.924
	C127.449,28.894,127.117,29.746,127.018,30.833z"/>
<path fill="#666666" d="M137.395,28.968c0-0.961,0.39-1.719,1.169-2.275c0.773-0.556,1.849-0.833,3.208-0.833
	c1.26,0,2.491,0.258,3.688,0.773l-0.622,1.452c-1.178-0.488-2.239-0.732-3.196-0.732c-0.853,0-1.485,0.133-1.916,0.398
	c-0.437,0.265-0.646,0.632-0.646,1.098c0,0.316,0.081,0.585,0.242,0.808c0.161,0.223,0.422,0.434,0.78,0.635
	c0.354,0.201,1.048,0.492,2.063,0.872c1.396,0.51,2.334,1.023,2.816,1.54c0.479,0.517,0.722,1.167,0.722,1.949
	c0,1.09-0.406,1.931-1.218,2.522c-0.813,0.592-1.952,0.887-3.418,0.887c-1.562,0-2.774-0.243-3.646-0.73v-1.646
	c0.564,0.287,1.176,0.513,1.817,0.678c0.647,0.165,1.271,0.248,1.872,0.248c0.933,0,1.649-0.149,2.153-0.447
	c0.502-0.298,0.753-0.752,0.753-1.362c0-0.459-0.199-0.852-0.604-1.179c-0.396-0.327-1.175-0.712-2.331-1.158
	c-1.098-0.409-1.877-0.766-2.336-1.071c-0.46-0.305-0.802-0.651-1.021-1.039C137.504,29.968,137.395,29.506,137.395,28.968z"/>
<path fill="#666666" d="M147.083,27.46v-0.859l1.688-0.741l0.752-2.514h1.031v2.729h3.416v1.386h-3.416v6.945
	c0,0.711,0.168,1.256,0.505,1.637c0.336,0.381,0.798,0.571,1.386,0.571c0.313,0,0.619-0.023,0.913-0.07
	c0.293-0.047,0.521-0.095,0.698-0.146v1.348c-0.193,0.092-0.479,0.167-0.854,0.228c-0.376,0.06-0.714,0.09-1.015,0.09
	c-2.277,0-3.416-1.199-3.416-3.599V27.46H147.083z"/>
<path fill="#666666" d="M156.257,22.884c0-0.408,0.098-0.707,0.277-0.897c0.188-0.189,0.416-0.285,0.693-0.285
	c0.309,0,0.569,0.097,0.799,0.29c0.224,0.193,0.336,0.491,0.336,0.892c0,0.401-0.112,0.7-0.336,0.897
	c-0.229,0.197-0.49,0.295-0.799,0.295c-0.277,0-0.508-0.098-0.693-0.295C156.35,23.584,156.257,23.286,156.257,22.884z
	 M156.407,37.849V26.075h1.633v11.773L156.407,37.849L156.407,37.849z"/>
<path fill="#666666" d="M161.973,37.849V26.075h1.444l0.29,1.59h0.086c0.336-0.566,0.813-1.009,1.429-1.327
	c0.606-0.319,1.298-0.478,2.057-0.478c1.839,0,3.042,0.659,3.609,1.978h0.086c0.351-0.609,0.854-1.091,1.521-1.446
	s1.425-0.532,2.277-0.532c1.332,0,2.329,0.342,2.992,1.026c0.66,0.684,0.99,1.778,0.99,3.282v7.681h-1.779v-7.675
	c0-0.94-0.201-1.645-0.604-2.115c-0.396-0.47-1.021-0.705-1.869-0.705c-1.104,0-1.93,0.319-2.46,0.958
	c-0.524,0.639-0.795,1.622-0.795,2.949v6.588h-1.783v-7.675c0-0.94-0.195-1.645-0.602-2.115c-0.401-0.47-1.028-0.705-1.879-0.705
	c-1.117,0-1.938,0.335-2.455,1.006c-0.521,0.671-0.779,1.771-0.779,3.299v6.189L161.973,37.849L161.973,37.849z"/>
<path fill="#666666" d="M181.555,34.604c0-2.371,1.898-3.614,5.712-3.729l2.001-0.065v-0.739c0-0.935-0.198-1.625-0.601-2.071
	c-0.396-0.446-1.025-0.669-1.897-0.669c-0.979,0-2.087,0.305-3.324,0.914l-0.554-1.369c0.58-0.311,1.215-0.554,1.901-0.73
	c0.691-0.176,1.39-0.265,2.079-0.265c1.402,0,2.441,0.312,3.117,0.935s1.014,1.622,1.014,2.997v8.035h-1.315l-0.354-1.656h-0.086
	c-0.586,0.73-1.17,1.225-1.753,1.483c-0.583,0.259-1.31,0.388-2.182,0.388c-1.173,0-2.092-0.3-2.758-0.899
	C181.887,36.564,181.555,35.711,181.555,34.604z M183.446,34.626c0,0.648,0.195,1.141,0.584,1.479s0.935,0.507,1.635,0.507
	c1.108,0,1.979-0.306,2.611-0.917c0.633-0.612,0.949-1.468,0.949-2.569v-1.068l-1.78,0.075c-1.416,0.05-2.438,0.272-3.063,0.664
	C183.757,33.189,183.446,33.799,183.446,34.626z"/>
<path fill="#666666" d="M193.114,27.46v-0.859l1.687-0.741l0.758-2.514h1.025v2.729H200v1.386h-3.416v6.945
	c0,0.711,0.168,1.256,0.505,1.637c0.336,0.381,0.804,0.571,1.392,0.571c0.313,0,0.619-0.023,0.913-0.07
	c0.293-0.047,0.521-0.095,0.692-0.146v1.348c-0.188,0.092-0.478,0.167-0.854,0.228c-0.376,0.06-0.714,0.09-1.021,0.09
	c-2.271,0-3.416-1.199-3.416-3.599V27.46H193.114z"/>
<path fill="#666666" d="M201.782,32.059c0-1.897,0.466-3.405,1.397-4.522c0.931-1.117,2.183-1.676,3.754-1.676
	c1.47,0,2.633,0.485,3.484,1.456c0.856,0.971,1.285,2.25,1.285,3.84v1.128h-8.1c0.036,1.382,0.386,2.432,1.049,3.147
	c0.664,0.716,1.598,1.074,2.803,1.074c1.27,0,2.519-0.265,3.748-0.795v1.59c-0.628,0.272-1.223,0.467-1.783,0.585
	c-0.561,0.118-1.231,0.177-2.024,0.177c-1.735,0-3.105-0.53-4.108-1.59C202.284,35.414,201.782,33.941,201.782,32.059z
	 M203.652,30.833h6.166c0-1.124-0.251-1.985-0.753-2.583s-1.219-0.897-2.152-0.897c-0.947,0-1.702,0.308-2.266,0.924
	C204.084,28.894,203.752,29.746,203.652,30.833z"/>
<path fill="#666666" d="M328.219,37.849V22.144h8.755v1.633h-6.929v5.027h6.51v1.633h-6.51v5.779h6.929v1.633H328.219z"/>
<path fill="#666666" d="M340.29,32.263V22.144h1.826v10.264c0,1.313,0.358,2.32,1.074,3.023c0.716,0.703,1.771,1.054,3.158,1.054
	c1.325,0,2.345-0.353,3.062-1.06c0.722-0.707,1.074-1.72,1.074-3.04V22.144h1.826v10.162c0,1.791-0.541,3.198-1.622,4.222
	c-1.082,1.024-2.567,1.536-4.458,1.536s-3.354-0.516-4.388-1.547C340.807,35.484,340.29,34.066,340.29,32.263z"/>
<path fill="#666666" d="M355.385,37.849v-1.516l4.136-4.174c1.26-1.28,2.091-2.193,2.492-2.74c0.396-0.546,0.702-1.079,0.896-1.596
	c0.2-0.518,0.307-1.075,0.307-1.672c0-0.841-0.254-1.508-0.769-2c-0.509-0.493-1.214-0.739-2.11-0.739
	c-0.652,0-1.271,0.108-1.854,0.324c-0.584,0.216-1.234,0.607-1.95,1.176l-0.939-1.219c1.44-1.182,3.021-1.773,4.727-1.773
	c1.478,0,2.632,0.376,3.47,1.127c0.84,0.752,1.26,1.762,1.26,3.03c0,1-0.276,1.988-0.84,2.966c-0.56,0.979-1.604,2.215-3.138,3.711
	l-3.438,3.376v0.086h8.072v1.633H355.385z"/>
<path fill="#666666" d="M368.01,33.841c0-1.797,1.102-3.197,3.307-4.2c-0.999-0.559-1.716-1.162-2.148-1.81
	c-0.436-0.648-0.647-1.373-0.647-2.175c0-1.139,0.423-2.046,1.271-2.723c0.852-0.677,1.979-1.015,3.397-1.015
	c1.438,0,2.576,0.333,3.417,0.999s1.261,1.586,1.261,2.761c0,0.773-0.241,1.479-0.724,2.116c-0.483,0.638-1.254,1.218-2.313,1.74
	c1.282,0.609,2.192,1.248,2.732,1.917c0.54,0.67,0.81,1.445,0.81,2.326c0,1.304-0.455,2.344-1.367,3.121
	c-0.91,0.777-2.16,1.166-3.75,1.166c-1.683,0-2.976-0.367-3.881-1.101C368.458,36.229,368.01,35.188,368.01,33.841z M369.788,33.884
	c0,0.859,0.304,1.529,0.896,2.009s1.436,0.72,2.515,0.72c1.065,0,1.896-0.25,2.488-0.752c0.593-0.501,0.89-1.188,0.89-2.063
	c0-0.694-0.273-1.312-0.836-1.853c-0.558-0.541-1.524-1.065-2.917-1.574c-1.063,0.458-1.837,0.965-2.313,1.52
	C370.028,32.446,369.788,33.11,369.788,33.884z M370.299,25.73c0,0.659,0.211,1.225,0.633,1.697
	c0.421,0.473,1.201,0.945,2.337,1.418c1.021-0.43,1.746-0.892,2.171-1.386s0.638-1.07,0.638-1.729c0-0.723-0.259-1.298-0.771-1.724
	c-0.521-0.426-1.231-0.639-2.145-0.639c-0.894,0-1.594,0.215-2.102,0.645C370.552,24.441,370.299,25.016,370.299,25.73z"/>
<path fill="#666666" d="M386.417,32.059c0-1.897,0.472-3.405,1.397-4.522c0.931-1.117,2.183-1.676,3.754-1.676
	c1.47,0,2.633,0.485,3.49,1.456c0.854,0.971,1.285,2.25,1.285,3.84v1.128h-8.104c0.036,1.382,0.392,2.432,1.049,3.147
	c0.664,0.716,1.604,1.074,2.809,1.074c1.264,0,2.513-0.265,3.748-0.795v1.59c-0.628,0.272-1.229,0.467-1.783,0.585
	c-0.563,0.118-1.237,0.177-2.03,0.177c-1.729,0-3.104-0.53-4.104-1.59C386.925,35.414,386.417,33.941,386.417,32.059z
	 M388.286,30.833h6.166c0-1.124-0.251-1.985-0.753-2.583s-1.219-0.897-2.146-0.897c-0.947,0-1.702,0.308-2.271,0.924
	C388.719,28.894,388.387,29.746,388.286,30.833z"/>
<path fill="#666666" d="M398.663,28.968c0-0.961,0.396-1.719,1.169-2.275c0.779-0.556,1.854-0.833,3.208-0.833
	c1.266,0,2.492,0.258,3.695,0.773l-0.623,1.452c-1.178-0.488-2.244-0.732-3.201-0.732c-0.847,0-1.479,0.133-1.916,0.398
	c-0.431,0.265-0.646,0.632-0.646,1.098c0,0.316,0.081,0.585,0.242,0.808c0.161,0.223,0.422,0.434,0.775,0.635
	c0.358,0.201,1.053,0.492,2.066,0.872c1.396,0.51,2.335,1.023,2.816,1.54c0.479,0.517,0.723,1.167,0.723,1.949
	c0,1.09-0.406,1.931-1.219,2.522c-0.813,0.592-1.951,0.887-3.418,0.887c-1.563,0-2.774-0.243-3.646-0.73v-1.646
	c0.564,0.287,1.17,0.513,1.817,0.678c0.646,0.165,1.271,0.248,1.872,0.248c0.934,0,1.646-0.149,2.147-0.447
	c0.504-0.298,0.754-0.752,0.754-1.362c0-0.459-0.194-0.852-0.599-1.179c-0.396-0.327-1.175-0.712-2.33-1.158
	c-1.098-0.409-1.877-0.766-2.336-1.071c-0.46-0.305-0.802-0.651-1.022-1.039C398.775,29.968,398.663,29.506,398.663,28.968z"/>
<path fill="#666666" d="M408.353,27.46v-0.859l1.686-0.741l0.753-2.514h1.03v2.729h3.416v1.386h-3.416v6.945
	c0,0.711,0.168,1.256,0.506,1.637c0.336,0.381,0.804,0.571,1.391,0.571c0.313,0,0.614-0.023,0.914-0.07
	c0.293-0.047,0.521-0.095,0.691-0.146v1.348c-0.188,0.092-0.478,0.167-0.854,0.228c-0.376,0.06-0.715,0.09-1.021,0.09
	c-2.271,0-3.416-1.199-3.416-3.599V27.46H408.353z"/>
<path fill="#666666" d="M417.526,22.884c0-0.408,0.092-0.707,0.277-0.897c0.186-0.189,0.416-0.285,0.688-0.285
	c0.313,0,0.574,0.097,0.804,0.29c0.225,0.193,0.336,0.491,0.336,0.892c0,0.401-0.111,0.7-0.336,0.897
	c-0.229,0.197-0.49,0.295-0.804,0.295c-0.272,0-0.51-0.098-0.688-0.295C417.618,23.584,417.526,23.286,417.526,22.884z
	 M417.677,37.849V26.075h1.633v11.773L417.677,37.849L417.677,37.849z"/>
<path fill="#666666" d="M423.241,37.849V26.075h1.449l0.291,1.59h0.086c0.336-0.566,0.813-1.009,1.423-1.327
	c0.612-0.319,1.298-0.478,2.063-0.478c1.84,0,3.043,0.659,3.604,1.978h0.086c0.354-0.609,0.859-1.091,1.525-1.446
	s1.424-0.532,2.277-0.532c1.332,0,2.322,0.342,2.985,1.026c0.662,0.684,0.993,1.778,0.993,3.282v7.681h-1.783v-7.675
	c0-0.94-0.194-1.645-0.602-2.115c-0.4-0.47-1.023-0.705-1.869-0.705c-1.104,0-1.93,0.319-2.459,0.958
	c-0.531,0.639-0.795,1.622-0.795,2.949v6.588h-1.783v-7.675c0-0.94-0.201-1.645-0.602-2.115c-0.402-0.47-1.028-0.705-1.881-0.705
	c-1.117,0-1.938,0.335-2.454,1.006c-0.521,0.671-0.777,1.771-0.777,3.299v6.189L423.241,37.849L423.241,37.849z"/>
<path fill="#666666" d="M442.823,34.604c0-2.371,1.904-3.614,5.713-3.729l2-0.065v-0.739c0-0.935-0.191-1.625-0.595-2.071
	c-0.396-0.446-1.031-0.669-1.903-0.669c-0.979,0-2.088,0.305-3.318,0.914l-0.56-1.369c0.58-0.311,1.222-0.554,1.907-0.73
	c0.69-0.176,1.383-0.265,2.078-0.265c1.402,0,2.441,0.312,3.117,0.935s1.014,1.622,1.014,2.997v8.035h-1.314l-0.355-1.656h-0.086
	c-0.586,0.73-1.17,1.225-1.752,1.483c-0.584,0.259-1.313,0.388-2.188,0.388c-1.173,0-2.093-0.3-2.758-0.899
	C443.156,36.564,442.823,35.711,442.823,34.604z M444.719,34.626c0,0.648,0.189,1.141,0.585,1.479
	c0.39,0.338,0.935,0.507,1.635,0.507c1.108,0,1.979-0.306,2.61-0.917c0.633-0.612,0.943-1.468,0.943-2.569v-1.068l-1.773,0.075
	c-1.416,0.05-2.438,0.272-3.063,0.664C445.026,33.189,444.719,33.799,444.719,34.626z"/>
<path fill="#666666" d="M454.385,27.46v-0.859l1.688-0.741l0.752-2.514h1.031v2.729h3.416v1.386h-3.416v6.945
	c0,0.711,0.168,1.256,0.504,1.637c0.337,0.381,0.799,0.571,1.387,0.571c0.314,0,0.619-0.023,0.912-0.07
	c0.294-0.047,0.527-0.095,0.699-0.146v1.348c-0.193,0.092-0.479,0.167-0.854,0.228c-0.378,0.06-0.72,0.09-1.021,0.09
	c-2.272,0-3.416-1.199-3.416-3.599V27.46H454.385z"/>
<path fill="#666666" d="M463.052,32.059c0-1.897,0.465-3.405,1.396-4.522c0.937-1.117,2.188-1.676,3.754-1.676
	c1.477,0,2.64,0.485,3.49,1.456c0.856,0.971,1.285,2.25,1.285,3.84v1.128h-8.1c0.029,1.382,0.385,2.432,1.049,3.147
	c0.664,0.716,1.598,1.074,2.803,1.074c1.264,0,2.514-0.265,3.748-0.795v1.59c-0.628,0.272-1.223,0.467-1.783,0.585
	c-0.56,0.118-1.236,0.177-2.029,0.177c-1.729,0-3.104-0.53-4.104-1.59C463.552,35.414,463.052,33.941,463.052,32.059z
	 M464.927,30.833h6.166c0-1.124-0.252-1.985-0.754-2.583c-0.508-0.598-1.225-0.897-2.152-0.897c-0.947,0-1.701,0.308-2.271,0.924
	C465.352,28.894,465.02,29.746,464.927,30.833z"/>
<rect x="100.537" y="348.104" fill="#F2C466" width="17.803" height="17.801"/>
<path fill="#666666" d="M125.178,358.125c0-1.029,0.188-1.932,0.566-2.705c0.381-0.775,0.938-1.371,1.66-1.791
	c0.729-0.418,1.582-0.629,2.566-0.629c1.049,0,1.965,0.191,2.748,0.574l-0.492,0.998c-0.756-0.355-1.516-0.533-2.271-0.533
	c-1.098,0-1.965,0.367-2.6,1.098c-0.637,0.73-0.955,1.73-0.955,3.002c0,1.313,0.307,2.316,0.92,3.029
	c0.613,0.711,1.486,1.068,2.621,1.068c0.697,0,1.492-0.125,2.387-0.377v1.021c-0.688,0.265-1.547,0.396-2.563,0.396
	c-1.477,0-2.605-0.445-3.4-1.342C125.575,361.042,125.178,359.77,125.178,358.125z"/>
<path fill="#666666" d="M133.942,359.379c0-1.219,0.305-2.17,0.913-2.85c0.604-0.68,1.454-1.021,2.535-1.021
	c1.046,0,1.876,0.35,2.485,1.043c0.616,0.697,0.93,1.641,0.93,2.826c0,1.225-0.313,2.18-0.926,2.865
	c-0.607,0.688-1.461,1.027-2.542,1.027c-0.669,0-1.262-0.154-1.773-0.476c-0.521-0.313-0.918-0.771-1.199-1.354
	C134.082,360.857,133.942,360.168,133.942,359.379z M135.104,359.379c0,0.959,0.188,1.689,0.575,2.191
	c0.383,0.504,0.941,0.754,1.688,0.754c0.743,0,1.313-0.25,1.694-0.75s0.578-1.232,0.578-2.195c0-0.955-0.193-1.68-0.578-2.176
	c-0.392-0.496-0.955-0.744-1.708-0.744c-0.744,0-1.312,0.244-1.688,0.734C135.293,357.682,135.104,358.411,135.104,359.379z"/>
<path fill="#666666" d="M142.335,357.486c0-0.608,0.248-1.094,0.744-1.446s1.177-0.528,2.042-0.528c0.802,0,1.585,0.163,2.354,0.491
	l-0.396,0.925c-0.75-0.313-1.429-0.468-2.037-0.468c-0.539,0-0.939,0.086-1.22,0.254c-0.275,0.17-0.411,0.402-0.411,0.699
	c0,0.2,0.052,0.373,0.154,0.515c0.102,0.143,0.269,0.276,0.496,0.403c0.229,0.129,0.667,0.313,1.313,0.556
	c0.895,0.323,1.486,0.651,1.792,0.979c0.313,0.327,0.46,0.741,0.46,1.239c0,0.689-0.259,1.229-0.771,1.604
	c-0.521,0.375-1.241,0.563-2.175,0.563c-0.992,0-1.771-0.15-2.32-0.465v-1.047c0.354,0.182,0.745,0.325,1.156,0.432
	c0.406,0.105,0.81,0.156,1.188,0.156c0.594,0,1.05-0.095,1.37-0.283c0.319-0.188,0.479-0.479,0.479-0.861
	c0-0.293-0.133-0.543-0.386-0.75c-0.254-0.209-0.748-0.453-1.479-0.736c-0.699-0.262-1.194-0.484-1.487-0.684
	c-0.292-0.193-0.51-0.414-0.651-0.66C142.406,358.125,142.335,357.831,142.335,357.486z"/>
<path fill="#666666" d="M148.502,356.527v-0.547l1.073-0.475l0.479-1.6h0.65v1.73h2.174v0.881h-2.174v4.422
	c0,0.451,0.107,0.803,0.321,1.039c0.214,0.242,0.508,0.363,0.882,0.363c0.2,0,0.396-0.015,0.581-0.043
	c0.188-0.031,0.335-0.063,0.444-0.095v0.856c-0.123,0.06-0.311,0.104-0.543,0.146c-0.24,0.037-0.455,0.058-0.646,0.058
	c-1.449,0-2.174-0.765-2.174-2.291v-4.457h-1.07L148.502,356.527L148.502,356.527z"/>
<path fill="#666666" d="M158.072,363.139v-7.492h0.923l0.188,1.019h0.055c0.229-0.365,0.559-0.646,0.978-0.854
	c0.422-0.201,0.893-0.301,1.401-0.301c0.902,0,1.581,0.217,2.037,0.652s0.684,1.131,0.684,2.088v4.889h-1.135v-4.854
	c0-0.611-0.139-1.068-0.417-1.369c-0.278-0.304-0.713-0.453-1.306-0.453c-0.784,0-1.358,0.213-1.729,0.639
	c-0.359,0.426-0.547,1.127-0.547,2.104v3.938h-1.135L158.072,363.139L158.072,363.139z"/>
<path fill="#666666" d="M166.248,359.379c0-1.219,0.311-2.17,0.913-2.85c0.609-0.68,1.454-1.021,2.535-1.021
	c1.046,0,1.876,0.35,2.491,1.043c0.616,0.697,0.924,1.641,0.924,2.826c0,1.225-0.307,2.18-0.92,2.865
	c-0.613,0.685-1.461,1.027-2.542,1.027c-0.669,0-1.262-0.154-1.779-0.476c-0.518-0.313-0.918-0.771-1.199-1.354
	C166.388,360.857,166.248,360.168,166.248,359.379z M167.41,359.379c0,0.959,0.191,1.689,0.575,2.191
	c0.383,0.504,0.947,0.754,1.688,0.754c0.743,0,1.313-0.25,1.694-0.75s0.578-1.232,0.578-2.195c0-0.955-0.193-1.68-0.578-2.176
	c-0.386-0.496-0.955-0.744-1.708-0.744c-0.744,0-1.306,0.244-1.685,0.734C167.599,357.682,167.41,358.411,167.41,359.379z"/>
<path fill="#666666" d="M175.12,363.139v-7.492h0.923l0.188,1.019h0.055c0.232-0.365,0.563-0.646,0.979-0.854
	c0.419-0.201,0.887-0.301,1.396-0.301c0.902,0,1.581,0.217,2.037,0.652s0.684,1.131,0.684,2.088v4.889h-1.135v-4.854
	c0-0.611-0.139-1.068-0.417-1.369c-0.272-0.304-0.713-0.453-1.306-0.453c-0.784,0-1.358,0.213-1.726,0.639
	c-0.362,0.426-0.55,1.127-0.55,2.104v3.938h-1.135L175.12,363.139L175.12,363.139z"/>
<path fill="#666666" d="M183.085,359.904v-1.038h3.356v1.038H183.085z"/>
<path fill="#666666" d="M187.213,356.527v-0.512l1.346-0.41v-0.416c0-1.834,0.805-2.75,2.407-2.75c0.396,0,0.861,0.078,1.396,0.232
	l-0.294,0.898c-0.438-0.146-0.813-0.215-1.121-0.215c-0.429,0-0.745,0.146-0.95,0.43c-0.205,0.285-0.308,0.74-0.308,1.371v0.48
	h1.907v0.881h-1.907v6.611h-1.135v-6.611h-1.346L187.213,356.527L187.213,356.527z"/>
<path fill="#666666" d="M192.401,361.075c0-1.511,1.212-2.302,3.635-2.373l1.273-0.041v-0.472c0-0.596-0.126-1.032-0.379-1.317
	c-0.252-0.283-0.656-0.426-1.211-0.426c-0.623,0-1.328,0.192-2.115,0.581l-0.354-0.87c0.369-0.197,0.773-0.354,1.213-0.466
	c0.44-0.11,0.887-0.168,1.323-0.168c0.896,0,1.554,0.197,1.983,0.595c0.431,0.396,0.646,1.032,0.646,1.907v5.113h-0.841
	l-0.226-1.059h-0.061c-0.373,0.465-0.745,0.777-1.113,0.938c-0.367,0.166-0.835,0.248-1.391,0.248c-0.747,0-1.332-0.188-1.755-0.566
	C192.613,362.32,192.401,361.777,192.401,361.075z M193.604,361.088c0,0.412,0.124,0.727,0.372,0.941
	c0.248,0.214,0.595,0.322,1.04,0.322c0.705,0,1.259-0.193,1.662-0.584c0.396-0.394,0.604-0.938,0.604-1.64v-0.68l-1.133,0.049
	c-0.9,0.03-1.55,0.172-1.948,0.422C193.803,360.174,193.604,360.563,193.604,361.088z"/>
<path fill="#666666" d="M199.758,356.527v-0.547l1.073-0.475l0.479-1.6h0.65v1.73h2.18v0.881h-2.18v4.422
	c0,0.451,0.107,0.803,0.321,1.039c0.214,0.242,0.508,0.363,0.882,0.363c0.2,0,0.396-0.015,0.581-0.043
	c0.188-0.031,0.335-0.063,0.444-0.095v0.856c-0.123,0.06-0.307,0.104-0.543,0.146c-0.24,0.037-0.455,0.058-0.646,0.058
	c-1.443,0-2.174-0.765-2.174-2.291v-4.457h-1.073L199.758,356.527L199.758,356.527z"/>
<path fill="#666666" d="M205.13,361.075c0-1.511,1.212-2.302,3.641-2.373l1.271-0.041v-0.472c0-0.596-0.126-1.032-0.379-1.317
	c-0.252-0.283-0.656-0.426-1.211-0.426c-0.623,0-1.328,0.192-2.115,0.581l-0.353-0.87c0.369-0.197,0.771-0.354,1.213-0.466
	c0.438-0.11,0.881-0.168,1.323-0.168c0.893,0,1.554,0.197,1.979,0.595c0.437,0.396,0.646,1.032,0.646,1.907v5.113H210.3
	l-0.228-1.059h-0.055c-0.373,0.465-0.745,0.777-1.115,0.938c-0.371,0.166-0.834,0.248-1.389,0.248c-0.747,0-1.332-0.188-1.759-0.566
	C205.342,362.32,205.13,361.777,205.13,361.075z M206.333,361.088c0,0.412,0.124,0.727,0.372,0.941
	c0.248,0.214,0.595,0.322,1.04,0.322c0.705,0,1.259-0.193,1.662-0.584c0.402-0.394,0.604-0.938,0.604-1.64v-0.68l-1.139,0.049
	c-0.896,0.03-1.55,0.172-1.942,0.422C206.532,360.174,206.333,360.563,206.333,361.088z"/>
<path fill="#666666" d="M213.477,363.139v-10.637h1.135v10.637H213.477z"/>
<path fill="#666666" d="M220.238,359.439c0-1.254,0.3-2.225,0.899-2.903c0.599-0.685,1.457-1.024,2.567-1.024
	c0.36,0,0.726,0.038,1.08,0.114c0.36,0.078,0.646,0.17,0.854,0.272l-0.354,0.966c-0.251-0.103-0.521-0.185-0.814-0.25
	c-0.302-0.066-0.563-0.101-0.786-0.101c-1.522,0-2.283,0.971-2.283,2.908c0,0.924,0.186,1.627,0.558,2.119
	c0.371,0.492,0.921,0.736,1.65,0.736c0.624,0,1.265-0.137,1.921-0.4v1.004c-0.501,0.264-1.133,0.395-1.895,0.395
	c-1.09,0-1.927-0.334-2.517-1.002S220.238,360.663,220.238,359.439z"/>
<path fill="#666666" d="M226.759,361.075c0-1.511,1.218-2.302,3.641-2.373l1.271-0.041v-0.472c0-0.596-0.126-1.032-0.379-1.317
	c-0.252-0.283-0.656-0.426-1.211-0.426c-0.623,0-1.328,0.192-2.115,0.581l-0.353-0.87c0.369-0.197,0.771-0.354,1.213-0.466
	c0.441-0.11,0.881-0.168,1.323-0.168c0.893,0,1.554,0.197,1.979,0.595c0.437,0.396,0.646,1.032,0.646,1.907v5.113h-0.841
	l-0.229-1.059h-0.055c-0.373,0.465-0.745,0.777-1.115,0.938c-0.371,0.166-0.834,0.248-1.389,0.248c-0.747,0-1.332-0.188-1.755-0.566
	C226.97,362.32,226.759,361.777,226.759,361.075z M227.962,361.088c0,0.412,0.124,0.727,0.372,0.941
	c0.248,0.214,0.601,0.322,1.04,0.322c0.705,0,1.259-0.193,1.662-0.584c0.402-0.394,0.604-0.938,0.604-1.64v-0.68l-1.139,0.049
	c-0.896,0.03-1.55,0.172-1.942,0.422C228.161,360.174,227.962,360.563,227.962,361.088z"/>
<path fill="#666666" d="M234.628,357.486c0-0.608,0.248-1.094,0.744-1.446s1.177-0.528,2.042-0.528c0.802,0,1.585,0.163,2.354,0.491
	l-0.396,0.925c-0.75-0.313-1.429-0.468-2.037-0.468c-0.539,0-0.939,0.086-1.22,0.254c-0.275,0.17-0.411,0.402-0.411,0.699
	c0,0.2,0.052,0.373,0.154,0.515c0.102,0.143,0.269,0.276,0.496,0.403c0.229,0.129,0.667,0.313,1.313,0.556
	c0.895,0.323,1.486,0.651,1.792,0.979c0.313,0.327,0.46,0.741,0.46,1.239c0,0.689-0.259,1.229-0.771,1.604
	c-0.521,0.375-1.241,0.563-2.175,0.563c-0.992,0-1.771-0.15-2.32-0.465v-1.047c0.354,0.182,0.745,0.325,1.156,0.432
	c0.409,0.105,0.81,0.156,1.188,0.156c0.594,0,1.05-0.095,1.37-0.283c0.319-0.188,0.479-0.479,0.479-0.861
	c0-0.293-0.127-0.543-0.386-0.75c-0.254-0.209-0.748-0.453-1.479-0.736c-0.699-0.262-1.194-0.484-1.487-0.684
	c-0.292-0.193-0.51-0.414-0.65-0.66C234.699,358.125,234.628,357.831,234.628,357.486z"/>
<path fill="#666666" d="M241.367,359.454c0-1.207,0.297-2.166,0.89-2.877c0.599-0.711,1.395-1.066,2.395-1.066
	c0.936,0,1.676,0.31,2.221,0.927s0.817,1.438,0.817,2.442v0.72h-5.154c0.021,0.879,0.245,1.547,0.668,2.002
	c0.422,0.457,1.019,0.688,1.783,0.688c0.805,0,1.6-0.168,2.386-0.511v1.017c-0.396,0.175-0.777,0.297-1.135,0.373
	c-0.357,0.074-0.787,0.108-1.292,0.108c-1.104,0-1.979-0.338-2.614-1.012C241.686,361.59,241.367,360.652,241.367,359.454z
	 M242.556,358.674h3.924c0-0.715-0.16-1.264-0.479-1.645c-0.313-0.379-0.771-0.57-1.369-0.57c-0.603,0-1.083,0.195-1.438,0.588
	C242.832,357.439,242.62,357.98,242.556,358.674z"/>
<path fill="#666666" d="M249.161,357.486c0-0.608,0.248-1.094,0.744-1.446s1.177-0.528,2.042-0.528c0.802,0,1.585,0.163,2.351,0.491
	l-0.396,0.925c-0.75-0.313-1.429-0.468-2.037-0.468c-0.539,0-0.945,0.086-1.22,0.254c-0.275,0.17-0.411,0.402-0.411,0.699
	c0,0.2,0.052,0.373,0.154,0.515c0.102,0.143,0.269,0.276,0.49,0.403c0.229,0.129,0.668,0.313,1.315,0.556
	c0.889,0.323,1.486,0.651,1.792,0.979c0.307,0.327,0.46,0.741,0.46,1.239c0,0.689-0.259,1.229-0.771,1.604
	c-0.521,0.375-1.24,0.563-2.18,0.563c-0.987,0-1.766-0.15-2.314-0.465v-1.047c0.354,0.182,0.744,0.325,1.15,0.432
	c0.412,0.104,0.813,0.156,1.191,0.156c0.594,0,1.05-0.095,1.37-0.283c0.313-0.188,0.479-0.479,0.479-0.861
	c0-0.293-0.127-0.543-0.38-0.75c-0.254-0.209-0.748-0.453-1.479-0.736c-0.699-0.262-1.194-0.484-1.487-0.684
	c-0.292-0.193-0.51-0.414-0.653-0.66C249.232,358.125,249.161,357.831,249.161,357.486z"/>
<rect x="295.081" y="348.02" fill="#449FA2" width="17.809" height="17.81"/>
<path fill="#666666" d="M320.556,358.208c0-1.028,0.188-1.933,0.572-2.705c0.381-0.774,0.934-1.371,1.654-1.791
	c0.729-0.418,1.582-0.629,2.566-0.629c1.049,0,1.965,0.19,2.748,0.574l-0.492,0.998c-0.756-0.355-1.512-0.533-2.27-0.533
	c-1.104,0-1.97,0.364-2.604,1.099c-0.637,0.729-0.955,1.729-0.955,3.002c0,1.311,0.313,2.315,0.92,3.028
	c0.613,0.711,1.486,1.067,2.621,1.067c0.697,0,1.492-0.125,2.393-0.377v1.021c-0.693,0.265-1.552,0.396-2.564,0.396
	c-1.471,0-2.604-0.445-3.4-1.342C320.954,361.124,320.556,359.854,320.556,358.208z"/>
<path fill="#666666" d="M329.321,359.461c0-1.219,0.311-2.17,0.913-2.85c0.609-0.68,1.454-1.021,2.535-1.021
	c1.046,0,1.876,0.35,2.491,1.043c0.616,0.697,0.924,1.641,0.924,2.826c0,1.225-0.307,2.18-0.92,2.865
	c-0.613,0.685-1.461,1.027-2.542,1.027c-0.669,0-1.262-0.156-1.779-0.476c-0.518-0.313-0.918-0.771-1.199-1.354
	C329.467,360.939,329.321,360.25,329.321,359.461z M330.483,359.461c0,0.959,0.191,1.689,0.575,2.191
	c0.383,0.504,0.947,0.754,1.688,0.754c0.743,0,1.313-0.25,1.694-0.75s0.578-1.232,0.578-2.195c0-0.955-0.193-1.68-0.578-2.176
	c-0.386-0.496-0.955-0.744-1.708-0.744c-0.744,0-1.306,0.244-1.685,0.734C330.677,357.764,330.483,358.493,330.483,359.461z"/>
<path fill="#666666" d="M337.719,357.568c0-0.608,0.248-1.094,0.738-1.446c0.496-0.354,1.183-0.529,2.047-0.529
	c0.803,0,1.585,0.164,2.352,0.492l-0.396,0.924c-0.75-0.311-1.431-0.467-2.033-0.467c-0.539,0-0.945,0.086-1.226,0.254
	c-0.271,0.17-0.411,0.402-0.411,0.699c0,0.2,0.058,0.373,0.154,0.514c0.104,0.144,0.271,0.277,0.496,0.404
	c0.229,0.129,0.667,0.313,1.315,0.555c0.889,0.324,1.48,0.652,1.792,0.98c0.307,0.327,0.46,0.741,0.46,1.239
	c0,0.689-0.265,1.229-0.775,1.604c-0.517,0.375-1.241,0.563-2.175,0.563c-0.992,0-1.771-0.15-2.32-0.465v-1.048
	c0.359,0.183,0.745,0.326,1.156,0.433c0.412,0.104,0.81,0.156,1.188,0.156c0.6,0,1.056-0.095,1.37-0.283
	c0.319-0.188,0.479-0.479,0.479-0.861c0-0.293-0.127-0.543-0.38-0.75c-0.254-0.209-0.748-0.453-1.483-0.736
	c-0.699-0.262-1.194-0.484-1.487-0.684c-0.292-0.193-0.51-0.414-0.647-0.66C337.786,358.208,337.719,357.913,337.719,357.568z"/>
<path fill="#666666" d="M343.885,356.609v-0.547l1.067-0.475l0.479-1.6h0.656v1.73h2.174v0.881h-2.174v4.42
	c0,0.453,0.104,0.805,0.315,1.041c0.214,0.242,0.514,0.363,0.886,0.363c0.196,0,0.396-0.015,0.577-0.043
	c0.188-0.031,0.335-0.063,0.444-0.095v0.856c-0.123,0.06-0.305,0.104-0.543,0.146c-0.24,0.037-0.455,0.058-0.646,0.058
	c-1.447,0-2.178-0.765-2.178-2.291V356.6h-1.067v0.004h0.004v0.004h0.004L343.885,356.609L343.885,356.609z"/>
<path fill="#666666" d="M352.446,356.609v-0.512l1.34-0.41v-0.416c0-1.834,0.811-2.75,2.413-2.75c0.396,0,0.861,0.078,1.396,0.232
	l-0.294,0.896c-0.438-0.145-0.813-0.215-1.121-0.215c-0.429,0-0.745,0.146-0.95,0.432s-0.308,0.736-0.308,1.371v0.48h1.901v0.881
	h-1.901v6.61h-1.141v-6.61h-1.34L352.446,356.609L352.446,356.609z"/>
<path fill="#666666" d="M357.635,361.157c0-1.511,1.212-2.302,3.635-2.373l1.273-0.041v-0.472c0-0.6-0.126-1.032-0.385-1.317
	c-0.252-0.283-0.65-0.427-1.211-0.427c-0.623,0-1.328,0.193-2.109,0.582l-0.354-0.87c0.369-0.197,0.773-0.354,1.213-0.466
	c0.44-0.11,0.881-0.168,1.323-0.168c0.893,0,1.554,0.197,1.983,0.595c0.431,0.396,0.646,1.032,0.646,1.907v5.113h-0.841
	l-0.229-1.059h-0.056c-0.373,0.465-0.745,0.773-1.115,0.938c-0.365,0.166-0.834,0.248-1.389,0.248c-0.747,0-1.332-0.188-1.755-0.566
	C357.846,362.402,357.635,361.859,357.635,361.157z M358.843,361.17c0,0.412,0.124,0.727,0.372,0.941
	c0.248,0.214,0.595,0.322,1.034,0.322c0.705,0,1.265-0.193,1.662-0.584c0.402-0.394,0.604-0.938,0.604-1.64v-0.681l-1.133,0.05
	c-0.9,0.028-1.554,0.172-1.948,0.422C359.036,360.254,358.843,360.645,358.843,361.17z"/>
<path fill="#666666" d="M364.99,356.609v-0.547l1.073-0.475l0.479-1.6h0.656v1.73h2.174v0.881h-2.174v4.42
	c0,0.453,0.107,0.805,0.321,1.041c0.214,0.242,0.508,0.363,0.882,0.363c0.2,0,0.396-0.015,0.581-0.043
	c0.188-0.031,0.335-0.063,0.444-0.095v0.856c-0.123,0.06-0.311,0.104-0.543,0.146c-0.24,0.037-0.455,0.058-0.646,0.058
	c-1.449,0-2.174-0.765-2.174-2.291V356.6h-1.073V356.609z"/>
<path fill="#666666" d="M370.363,361.157c0-1.511,1.212-2.302,3.635-2.373l1.273-0.041v-0.472c0-0.6-0.126-1.032-0.379-1.317
	c-0.252-0.283-0.656-0.427-1.211-0.427c-0.623,0-1.328,0.193-2.115,0.582l-0.353-0.87c0.369-0.197,0.771-0.354,1.213-0.466
	c0.438-0.11,0.881-0.168,1.323-0.168c0.893,0,1.554,0.197,1.979,0.595c0.431,0.396,0.646,1.032,0.646,1.907v5.113h-0.847
	l-0.226-1.059h-0.056c-0.372,0.465-0.744,0.773-1.114,0.938c-0.371,0.166-0.834,0.248-1.392,0.248c-0.746,0-1.331-0.188-1.758-0.566
	C370.574,362.402,370.363,361.859,370.363,361.157z M371.566,361.17c0,0.412,0.124,0.727,0.372,0.941
	c0.248,0.214,0.595,0.322,1.04,0.322c0.705,0,1.259-0.193,1.662-0.584c0.402-0.394,0.604-0.938,0.604-1.64v-0.681l-1.133,0.05
	c-0.896,0.028-1.55,0.172-1.948,0.422C371.765,360.256,371.566,360.645,371.566,361.17z"/>
<path fill="#666666" d="M378.716,363.221v-10.637h1.135v10.637H378.716z"/>
<path fill="#666666" d="M385.471,359.521c0-1.254,0.3-2.225,0.896-2.903c0.604-0.685,1.457-1.025,2.573-1.025
	c0.36,0,0.72,0.039,1.08,0.115c0.36,0.078,0.643,0.17,0.848,0.272l-0.349,0.965c-0.251-0.104-0.524-0.188-0.82-0.25
	c-0.296-0.065-0.559-0.104-0.786-0.104c-1.521,0-2.277,0.975-2.277,2.912c0,0.92,0.186,1.627,0.558,2.119
	c0.371,0.492,0.921,0.734,1.65,0.734c0.624,0,1.265-0.135,1.921-0.398v1.004c-0.501,0.264-1.133,0.395-1.896,0.395
	c-1.085,0-1.922-0.334-2.512-1.002S385.471,360.745,385.471,359.521z"/>
<path fill="#666666" d="M391.991,361.157c0-1.511,1.212-2.302,3.641-2.373l1.271-0.041v-0.472c0-0.6-0.127-1.032-0.379-1.317
	c-0.252-0.283-0.656-0.427-1.211-0.427c-0.623,0-1.329,0.193-2.116,0.582l-0.353-0.87c0.369-0.197,0.771-0.354,1.213-0.466
	c0.438-0.11,0.88-0.168,1.324-0.168c0.893,0,1.553,0.197,1.979,0.595c0.438,0.396,0.646,1.032,0.646,1.907v5.113h-0.848
	l-0.225-1.059h-0.055c-0.373,0.465-0.746,0.773-1.115,0.938c-0.371,0.166-0.834,0.248-1.392,0.248c-0.745,0-1.33-0.188-1.758-0.566
	C392.203,362.402,391.991,361.859,391.991,361.157z M393.195,361.17c0,0.412,0.124,0.727,0.372,0.941
	c0.248,0.214,0.595,0.322,1.041,0.322c0.705,0,1.258-0.193,1.662-0.584c0.402-0.394,0.604-0.938,0.604-1.64v-0.681l-1.133,0.05
	c-0.896,0.028-1.55,0.172-1.949,0.422C393.394,360.256,393.195,360.645,393.195,361.17z"/>
<path fill="#666666" d="M399.861,357.568c0-0.608,0.248-1.094,0.744-1.446s1.176-0.529,2.041-0.529c0.803,0,1.586,0.164,2.352,0.492
	l-0.396,0.924c-0.75-0.311-1.428-0.467-2.037-0.467c-0.539,0-0.945,0.086-1.219,0.254c-0.275,0.17-0.412,0.402-0.412,0.699
	c0,0.2,0.053,0.373,0.154,0.514c0.104,0.144,0.27,0.277,0.496,0.404c0.229,0.129,0.668,0.313,1.313,0.555
	c0.889,0.324,1.486,0.652,1.791,0.98c0.307,0.327,0.461,0.741,0.461,1.239c0,0.689-0.26,1.229-0.771,1.604
	c-0.521,0.375-1.242,0.563-2.182,0.563c-0.99,0-1.766-0.15-2.314-0.465v-1.048c0.354,0.183,0.746,0.326,1.15,0.433
	c0.412,0.104,0.813,0.156,1.191,0.156c0.594,0,1.051-0.095,1.371-0.283c0.313-0.188,0.479-0.479,0.479-0.861
	c0-0.293-0.127-0.543-0.379-0.75c-0.254-0.209-0.748-0.453-1.479-0.736c-0.699-0.262-1.193-0.484-1.486-0.684
	s-0.51-0.414-0.654-0.66C399.932,358.209,399.861,357.913,399.861,357.568z"/>
<path fill="#666666" d="M406.599,359.536c0-1.207,0.297-2.166,0.891-2.877c0.592-0.711,1.395-1.066,2.395-1.066
	c0.936,0,1.676,0.31,2.221,0.927c0.545,0.616,0.816,1.438,0.816,2.442v0.72h-5.154c0.021,0.879,0.246,1.547,0.668,2.002
	c0.422,0.457,1.018,0.688,1.783,0.688c0.805,0,1.6-0.168,2.387-0.511v1.017c-0.4,0.174-0.779,0.297-1.135,0.373
	c-0.357,0.074-0.787,0.108-1.293,0.108c-1.105,0-1.979-0.338-2.613-1.012C406.926,361.672,406.599,360.734,406.599,359.536z
	 M407.789,358.756h3.93c0-0.715-0.16-1.264-0.48-1.645c-0.319-0.379-0.774-0.57-1.369-0.57c-0.604,0-1.084,0.195-1.438,0.588
	C408.064,357.521,407.853,358.063,407.789,358.756z"/>
<path fill="#666666" d="M414.393,357.568c0-0.608,0.248-1.094,0.744-1.446s1.176-0.529,2.041-0.529c0.803,0,1.586,0.164,2.352,0.492
	l-0.396,0.924c-0.749-0.311-1.434-0.467-2.036-0.467c-0.539,0-0.945,0.086-1.219,0.254c-0.275,0.17-0.412,0.402-0.412,0.699
	c0,0.2,0.053,0.373,0.147,0.514c0.105,0.144,0.271,0.277,0.496,0.404c0.23,0.129,0.668,0.313,1.316,0.555
	c0.889,0.324,1.481,0.652,1.791,0.98c0.307,0.327,0.461,0.741,0.461,1.239c0,0.689-0.26,1.229-0.775,1.604
	c-0.518,0.375-1.235,0.563-2.176,0.563c-0.992,0-1.766-0.15-2.32-0.465v-1.048c0.359,0.183,0.746,0.326,1.156,0.433
	c0.412,0.104,0.813,0.156,1.191,0.156c0.594,0,1.051-0.095,1.371-0.283c0.313-0.188,0.479-0.479,0.479-0.861
	c0-0.293-0.127-0.543-0.379-0.75c-0.254-0.209-0.748-0.453-1.484-0.736c-0.692-0.262-1.188-0.484-1.479-0.684
	s-0.51-0.414-0.654-0.66C414.469,358.208,414.393,357.913,414.393,357.568z"/>
<g enable-background="new    ">
	<path fill="#9A999E" d="M297.662,73.436v-1.411c0.41,0.263,0.92,0.469,1.529,0.617c0.609,0.149,1.21,0.224,1.802,0.224
		c1.031,0,1.832-0.242,2.404-0.728c0.57-0.484,0.856-1.186,0.856-2.103c0-1.787-1.1-2.681-3.299-2.681
		c-0.558,0-1.302,0.085-2.234,0.254l-0.757-0.482l0.489-6.012h6.39v1.336h-5.145l-0.325,3.867c0.674-0.123,1.345-0.185,2.014-0.185
		c1.354,0,2.419,0.333,3.196,0.999c0.777,0.667,1.165,1.579,1.165,2.737c0,1.332-0.423,2.377-1.271,3.135
		c-0.846,0.757-2.014,1.136-3.502,1.136C299.528,74.14,298.424,73.905,297.662,73.436z"/>
	<path fill="#9A999E" d="M307.664,73.964v-1.24l3.384-3.415c1.031-1.047,1.711-1.795,2.039-2.241
		c0.328-0.447,0.574-0.883,0.738-1.307s0.246-0.879,0.246-1.367c0-0.688-0.208-1.234-0.624-1.638s-0.993-0.604-1.731-0.604
		c-0.533,0-1.039,0.088-1.516,0.265c-0.479,0.177-1.01,0.497-1.596,0.962l-0.773-0.997c1.184-0.968,2.473-1.451,3.867-1.451
		c1.207,0,2.153,0.308,2.839,0.923s1.028,1.441,1.028,2.479c0,0.818-0.229,1.627-0.686,2.428c-0.457,0.8-1.313,1.813-2.566,3.036
		l-2.813,2.763v0.07h6.609v1.336H307.664z"/>
	<path fill="#9A999E" d="M317.991,70.686c0-1.471,0.902-2.616,2.705-3.437c-0.816-0.457-1.403-0.95-1.759-1.48
		s-0.533-1.124-0.533-1.78c0-0.932,0.347-1.675,1.038-2.228c0.693-0.555,1.619-0.831,2.781-0.831c1.176,0,2.107,0.272,2.795,0.817
		s1.032,1.298,1.032,2.259c0,0.633-0.198,1.21-0.593,1.731s-1.025,0.996-1.893,1.424c1.049,0.498,1.794,1.021,2.236,1.568
		c0.441,0.549,0.662,1.183,0.662,1.903c0,1.066-0.373,1.918-1.119,2.554c-0.747,0.636-1.77,0.953-3.068,0.953
		c-1.376,0-2.434-0.3-3.174-0.9C318.361,72.639,317.991,71.787,317.991,70.686z M319.45,70.721c0,0.703,0.244,1.251,0.732,1.644
		s1.175,0.589,2.059,0.589c0.871,0,1.55-0.205,2.035-0.615c0.486-0.41,0.729-0.973,0.729-1.688c0-0.568-0.229-1.073-0.685-1.517
		c-0.456-0.441-1.252-0.871-2.387-1.287c-0.872,0.375-1.503,0.79-1.896,1.244S319.45,70.088,319.45,70.721z M319.863,64.05
		c0,0.539,0.173,1.002,0.518,1.389s0.982,0.773,1.913,1.16c0.836-0.352,1.428-0.729,1.775-1.134
		c0.349-0.404,0.522-0.876,0.522-1.415c0-0.592-0.212-1.062-0.636-1.41s-1.008-0.523-1.75-0.523c-0.731,0-1.305,0.176-1.721,0.527
		C320.071,62.995,319.863,63.464,319.863,64.05z"/>
</g>
<g enable-background="new    ">
	<path fill="#9A999E" d="M22.284,73.964v-1.24l3.384-3.415c1.031-1.047,1.711-1.795,2.039-2.241
		c0.328-0.447,0.574-0.883,0.738-1.307s0.246-0.879,0.246-1.367c0-0.688-0.208-1.234-0.624-1.638s-0.993-0.604-1.731-0.604
		c-0.533,0-1.039,0.088-1.516,0.265s-1.009,0.497-1.595,0.962l-0.773-0.997c1.184-0.968,2.473-1.451,3.867-1.451
		c1.207,0,2.153,0.308,2.839,0.923s1.028,1.441,1.028,2.479c0,0.818-0.229,1.627-0.686,2.428c-0.457,0.8-1.313,1.813-2.566,3.036
		l-2.813,2.763v0.07h6.609v1.336H22.284z"/>
	<path fill="#9A999E" d="M32.251,76.284c0.158-0.609,0.333-1.362,0.523-2.259s0.324-1.614,0.4-2.153h1.591l0.131,0.202
		c-0.151,0.586-0.37,1.268-0.656,2.044c-0.286,0.775-0.583,1.498-0.892,2.166H32.251z"/>
	<path fill="#9A999E" d="M37.041,65.241c0-1.332,0.375-2.384,1.124-3.154c0.75-0.771,1.736-1.157,2.958-1.157
		c0.876,0,1.641,0.224,2.296,0.672c0.655,0.447,1.159,1.1,1.512,1.958c0.353,0.857,0.529,1.868,0.529,3.033
		c0,5.031-1.949,7.547-5.847,7.547c-0.682,0-1.222-0.059-1.621-0.176v-1.274c0.47,0.176,1.004,0.264,1.604,0.264
		c1.404,0,2.464-0.437,3.181-1.31c0.716-0.873,1.107-2.213,1.171-4.019h-0.105c-0.322,0.493-0.749,0.868-1.281,1.127
		c-0.532,0.258-1.132,0.387-1.799,0.387c-1.141,0-2.046-0.343-2.717-1.027S37.041,66.47,37.041,65.241z M38.5,65.224
		c0,0.848,0.21,1.515,0.632,2c0.421,0.485,1.062,0.729,1.922,0.729c0.532,0,1.022-0.109,1.47-0.327
		c0.447-0.218,0.8-0.515,1.057-0.892c0.257-0.376,0.386-0.771,0.386-1.183c0-0.618-0.12-1.189-0.36-1.713s-0.575-0.936-1.004-1.236
		c-0.43-0.3-0.923-0.45-1.479-0.45c-0.836,0-1.483,0.271-1.939,0.813C38.728,63.505,38.5,64.259,38.5,65.224z"/>
	<path fill="#9A999E" d="M47.43,68.475c0-2.526,0.491-4.416,1.472-5.667c0.981-1.252,2.433-1.878,4.355-1.878
		c0.665,0,1.188,0.056,1.57,0.167v1.274c-0.453-0.17-0.97-0.255-1.552-0.255c-1.377,0-2.429,0.431-3.155,1.292
		s-1.125,2.216-1.195,4.062h0.105c0.645-0.997,1.664-1.495,3.059-1.495c1.16,0,2.074,0.348,2.742,1.043
		c0.668,0.696,1.002,1.64,1.002,2.832c0,1.334-0.366,2.382-1.099,3.146c-0.732,0.763-1.723,1.145-2.97,1.145
		c-1.33,0-2.385-0.499-3.164-1.497C47.82,71.644,47.43,70.255,47.43,68.475z M48.924,69.523c0,0.605,0.117,1.17,0.352,1.693
		c0.234,0.522,0.567,0.938,0.998,1.243s0.921,0.458,1.472,0.458c0.832,0,1.478-0.263,1.938-0.789c0.46-0.525,0.69-1.285,0.69-2.279
		c0-0.852-0.214-1.521-0.642-2.01c-0.428-0.487-1.066-0.731-1.916-0.731c-0.527,0-1.011,0.108-1.45,0.326s-0.79,0.518-1.05,0.899
		S48.924,69.112,48.924,69.523z"/>
	<path fill="#9A999E" d="M57.722,68.475c0-2.526,0.491-4.416,1.472-5.667c0.981-1.252,2.433-1.878,4.355-1.878
		c0.665,0,1.188,0.056,1.57,0.167v1.274c-0.453-0.17-0.97-0.255-1.552-0.255c-1.377,0-2.429,0.431-3.155,1.292
		s-1.125,2.216-1.195,4.062h0.105c0.645-0.997,1.664-1.495,3.059-1.495c1.16,0,2.074,0.348,2.742,1.043
		c0.668,0.696,1.002,1.64,1.002,2.832c0,1.334-0.366,2.382-1.099,3.146c-0.732,0.763-1.723,1.145-2.97,1.145
		c-1.33,0-2.385-0.499-3.164-1.497C58.112,71.644,57.722,70.255,57.722,68.475z M59.216,69.523c0,0.605,0.117,1.17,0.352,1.693
		c0.234,0.522,0.567,0.938,0.998,1.243s0.921,0.458,1.472,0.458c0.832,0,1.478-0.263,1.938-0.789c0.46-0.525,0.69-1.285,0.69-2.279
		c0-0.852-0.214-1.521-0.642-2.01c-0.428-0.487-1.066-0.731-1.916-0.731c-0.527,0-1.011,0.108-1.45,0.326s-0.79,0.518-1.05,0.899
		S59.216,69.112,59.216,69.523z"/>
</g>
<g enable-background="new    ">
	<path fill="#FFFFFF" d="M418.435,138.775h-10.258v-2.158l3.684-3.724c1.091-1.117,1.804-1.892,2.138-2.323s0.576-0.832,0.723-1.2
		c0.147-0.367,0.221-0.749,0.221-1.144c0-0.589-0.162-1.027-0.486-1.315c-0.324-0.287-0.758-0.432-1.3-0.432
		c-0.569,0-1.121,0.131-1.656,0.392c-0.536,0.261-1.095,0.633-1.677,1.114l-1.686-1.997c0.723-0.616,1.321-1.051,1.797-1.306
		c0.475-0.254,0.993-0.449,1.555-0.587c0.563-0.137,1.191-0.206,1.888-0.206c0.917,0,1.727,0.168,2.429,0.502
		c0.703,0.335,1.248,0.804,1.637,1.405c0.388,0.603,0.582,1.292,0.582,2.068c0,0.676-0.119,1.31-0.356,1.901
		c-0.237,0.593-0.606,1.2-1.104,1.822s-1.377,1.509-2.635,2.66l-1.887,1.776v0.141h6.394V138.775z"/>
	<path fill="#FFFFFF" d="M424.969,123.91c1.405,0,2.537,0.319,3.397,0.959c0.86,0.639,1.29,1.5,1.29,2.584
		c0,0.75-0.207,1.417-0.623,2.003c-0.414,0.585-1.084,1.108-2.007,1.57c1.098,0.589,1.886,1.203,2.364,1.842
		c0.479,0.64,0.717,1.34,0.717,2.104c0,1.204-0.471,2.173-1.415,2.905c-0.943,0.732-2.185,1.1-3.724,1.1
		c-1.605,0-2.867-0.342-3.784-1.024s-1.375-1.649-1.375-2.9c0-0.837,0.223-1.579,0.667-2.229c0.445-0.649,1.16-1.221,2.144-1.717
		c-0.837-0.528-1.438-1.094-1.807-1.696c-0.368-0.602-0.552-1.261-0.552-1.977c0-1.051,0.435-1.9,1.305-2.55
		C422.436,124.234,423.571,123.91,424.969,123.91z M422.68,134.871c0,0.575,0.201,1.023,0.604,1.345
		c0.4,0.321,0.949,0.481,1.646,0.481c0.77,0,1.345-0.165,1.727-0.496c0.382-0.332,0.571-0.769,0.571-1.311
		c0-0.448-0.188-0.868-0.566-1.26c-0.379-0.391-0.992-0.808-1.842-1.249C423.393,133.037,422.68,133.867,422.68,134.871z
		 M424.95,126.179c-0.529,0-0.955,0.136-1.28,0.406c-0.325,0.271-0.487,0.634-0.487,1.089c0,0.401,0.129,0.762,0.387,1.079
		c0.258,0.318,0.725,0.645,1.4,0.979c0.656-0.308,1.114-0.622,1.375-0.943c0.262-0.321,0.392-0.692,0.392-1.114
		c0-0.461-0.167-0.826-0.502-1.094S425.471,126.179,424.95,126.179z"/>
	<path fill="#FFFFFF" d="M441.843,130.364c0,2.891-0.609,5.049-1.826,6.474c-1.219,1.426-3.063,2.139-5.531,2.139
		c-0.87,0-1.529-0.047-1.978-0.141v-2.489c0.563,0.141,1.151,0.211,1.767,0.211c1.037,0,1.891-0.152,2.56-0.457
		s1.181-0.783,1.536-1.436c0.354-0.652,0.559-1.551,0.611-2.695h-0.119c-0.389,0.63-0.838,1.071-1.346,1.325
		c-0.509,0.255-1.145,0.382-1.907,0.382c-1.278,0-2.285-0.41-3.021-1.229c-0.736-0.82-1.104-1.959-1.104-3.418
		c0-1.572,0.446-2.815,1.34-3.729c0.894-0.914,2.109-1.37,3.648-1.37c1.084,0,2.032,0.254,2.846,0.763s1.437,1.246,1.872,2.213
		C441.625,127.873,441.843,129.025,441.843,130.364z M436.533,126.42c-0.643,0-1.145,0.221-1.506,0.662s-0.542,1.077-0.542,1.907
		c0,0.709,0.164,1.271,0.492,1.686c0.328,0.415,0.826,0.623,1.495,0.623c0.629,0,1.168-0.206,1.616-0.617
		c0.448-0.412,0.672-0.885,0.672-1.421c0-0.796-0.209-1.469-0.627-2.018C437.716,126.694,437.182,126.42,436.533,126.42z"/>
</g>
<g enable-background="new    ">
	<path fill="#FFFFFF" d="M418.435,255.035h-10.258v-2.158l3.684-3.724c1.091-1.117,1.804-1.892,2.138-2.323s0.576-0.832,0.723-1.2
		c0.147-0.367,0.221-0.749,0.221-1.144c0-0.589-0.162-1.027-0.486-1.315c-0.324-0.287-0.758-0.432-1.3-0.432
		c-0.569,0-1.121,0.131-1.656,0.392c-0.536,0.261-1.095,0.633-1.677,1.114l-1.686-1.997c0.723-0.616,1.321-1.051,1.797-1.306
		c0.475-0.254,0.993-0.449,1.555-0.587c0.563-0.137,1.191-0.206,1.888-0.206c0.917,0,1.727,0.168,2.429,0.502
		c0.703,0.335,1.248,0.804,1.637,1.405c0.388,0.603,0.582,1.292,0.582,2.068c0,0.676-0.119,1.31-0.356,1.901
		c-0.237,0.593-0.606,1.2-1.104,1.822s-1.377,1.509-2.635,2.66l-1.887,1.776v0.141h6.394V255.035z"/>
	<path fill="#FFFFFF" d="M429.596,243.643c0,0.917-0.277,1.696-0.833,2.339s-1.335,1.084-2.339,1.325v0.06
		c1.185,0.147,2.082,0.508,2.69,1.079c0.608,0.572,0.913,1.344,0.913,2.313c0,1.412-0.512,2.512-1.535,3.298s-2.486,1.18-4.387,1.18
		c-1.593,0-3.004-0.265-4.236-0.793v-2.641c0.569,0.288,1.195,0.522,1.877,0.703c0.684,0.181,1.359,0.271,2.028,0.271
		c1.024,0,1.78-0.174,2.269-0.521s0.732-0.906,0.732-1.677c0-0.688-0.281-1.177-0.844-1.465c-0.562-0.288-1.458-0.432-2.689-0.432
		h-1.113v-2.379h1.133c1.139,0,1.97-0.148,2.495-0.446c0.524-0.298,0.788-0.809,0.788-1.531c0-1.11-0.696-1.666-2.088-1.666
		c-0.482,0-0.973,0.08-1.471,0.241c-0.498,0.16-1.053,0.438-1.661,0.833l-1.435-2.139c1.338-0.963,2.934-1.445,4.787-1.445
		c1.52,0,2.719,0.309,3.598,0.924C429.157,241.689,429.596,242.546,429.596,243.643z"/>
	<path fill="#FFFFFF" d="M441.843,246.624c0,2.891-0.609,5.049-1.826,6.474c-1.219,1.426-3.063,2.139-5.531,2.139
		c-0.87,0-1.529-0.047-1.978-0.141v-2.489c0.563,0.141,1.151,0.211,1.767,0.211c1.037,0,1.891-0.152,2.56-0.457
		s1.181-0.783,1.536-1.436c0.354-0.652,0.559-1.551,0.611-2.695h-0.119c-0.389,0.63-0.838,1.071-1.346,1.325
		c-0.509,0.255-1.145,0.382-1.907,0.382c-1.278,0-2.285-0.41-3.021-1.229c-0.736-0.82-1.104-1.959-1.104-3.418
		c0-1.572,0.446-2.815,1.34-3.729c0.894-0.914,2.109-1.37,3.648-1.37c1.084,0,2.032,0.254,2.846,0.763s1.437,1.246,1.872,2.213
		C441.625,244.133,441.843,245.285,441.843,246.624z M436.533,242.68c-0.643,0-1.145,0.221-1.506,0.662s-0.542,1.077-0.542,1.907
		c0,0.709,0.164,1.271,0.492,1.686c0.328,0.415,0.826,0.623,1.495,0.623c0.629,0,1.168-0.206,1.616-0.617
		c0.448-0.412,0.672-0.885,0.672-1.421c0-0.796-0.209-1.469-0.627-2.018C437.716,242.954,437.182,242.68,436.533,242.68z"/>
</g>
<g enable-background="new    ">
	<path fill="#FFFFFF" d="M144.869,138.775h-3.102v-8.491l0.03-1.396l0.05-1.525c-0.515,0.515-0.873,0.853-1.074,1.014l-1.687,1.354
		l-1.496-1.866l4.728-3.765h2.55V138.775z"/>
	<path fill="#FFFFFF" d="M152.718,136.617c-0.348,1.352-0.937,2.954-1.767,4.808h-2.208c0.435-1.779,0.773-3.459,1.014-5.038h2.811
		L152.718,136.617z"/>
	<path fill="#FFFFFF" d="M164.583,127.383c0,0.917-0.278,1.696-0.833,2.339c-0.555,0.643-1.335,1.084-2.338,1.325v0.06
		c1.184,0.147,2.081,0.508,2.69,1.079c0.609,0.572,0.913,1.344,0.913,2.313c0,1.412-0.512,2.512-1.536,3.298
		c-1.023,0.786-2.486,1.18-4.386,1.18c-1.593,0-3.004-0.265-4.236-0.793v-2.641c0.569,0.288,1.195,0.522,1.877,0.703
		c0.683,0.181,1.358,0.271,2.028,0.271c1.024,0,1.78-0.174,2.269-0.521c0.488-0.348,0.732-0.906,0.732-1.677
		c0-0.688-0.281-1.177-0.843-1.465c-0.562-0.288-1.458-0.432-2.69-0.432h-1.114v-2.379h1.134c1.138,0,1.969-0.148,2.495-0.446
		c0.525-0.298,0.788-0.809,0.788-1.531c0-1.11-0.696-1.666-2.087-1.666c-0.482,0-0.972,0.08-1.471,0.241
		c-0.499,0.16-1.052,0.438-1.661,0.833l-1.435-2.139c1.338-0.963,2.934-1.445,4.788-1.445c1.519,0,2.718,0.309,3.598,0.924
		C164.142,125.43,164.583,126.286,164.583,127.383z"/>
	<path fill="#FFFFFF" d="M176.316,127.383c0,0.917-0.278,1.696-0.833,2.339c-0.555,0.643-1.335,1.084-2.338,1.325v0.06
		c1.184,0.147,2.081,0.508,2.69,1.079c0.609,0.572,0.913,1.344,0.913,2.313c0,1.412-0.512,2.512-1.536,3.298
		c-1.023,0.786-2.486,1.18-4.386,1.18c-1.593,0-3.004-0.265-4.236-0.793v-2.641c0.569,0.288,1.195,0.522,1.877,0.703
		c0.683,0.181,1.358,0.271,2.028,0.271c1.024,0,1.78-0.174,2.269-0.521c0.488-0.348,0.732-0.906,0.732-1.677
		c0-0.688-0.281-1.177-0.843-1.465c-0.562-0.288-1.458-0.432-2.69-0.432h-1.114v-2.379h1.134c1.138,0,1.969-0.148,2.495-0.446
		c0.525-0.298,0.788-0.809,0.788-1.531c0-1.11-0.696-1.666-2.087-1.666c-0.482,0-0.972,0.08-1.471,0.241
		c-0.499,0.16-1.052,0.438-1.661,0.833l-1.435-2.139c1.338-0.963,2.934-1.445,4.788-1.445c1.519,0,2.718,0.309,3.598,0.924
		C175.876,125.43,176.316,126.286,176.316,127.383z"/>
	<path fill="#FFFFFF" d="M178.263,132.542c0-2.904,0.614-5.065,1.842-6.483c1.228-1.419,3.066-2.128,5.516-2.128
		c0.836,0,1.492,0.05,1.967,0.15v2.479c-0.596-0.134-1.185-0.2-1.767-0.2c-1.064,0-1.932,0.16-2.604,0.481
		c-0.673,0.321-1.176,0.797-1.511,1.426c-0.335,0.629-0.532,1.522-0.592,2.68h0.13c0.663-1.138,1.723-1.706,3.182-1.706
		c1.312,0,2.338,0.411,3.082,1.234c0.743,0.823,1.114,1.961,1.114,3.413c0,1.565-0.441,2.805-1.325,3.719
		c-0.883,0.913-2.108,1.37-3.674,1.37c-1.084,0-2.029-0.251-2.835-0.753c-0.807-0.502-1.429-1.235-1.867-2.198
		C178.483,135.062,178.263,133.9,178.263,132.542z M183.563,136.497c0.663,0,1.171-0.223,1.525-0.668
		c0.355-0.444,0.532-1.079,0.532-1.901c0-0.716-0.166-1.28-0.497-1.691c-0.331-0.412-0.832-0.617-1.5-0.617
		c-0.629,0-1.166,0.204-1.611,0.612c-0.445,0.408-0.667,0.883-0.667,1.425c0,0.797,0.209,1.469,0.627,2.018
		C182.39,136.223,182.921,136.497,183.563,136.497z"/>
</g>
<g enable-background="new    ">
	<path fill="#FFFFFF" d="M144.869,255.273h-3.102v-8.491l0.03-1.396l0.05-1.525c-0.515,0.515-0.873,0.853-1.074,1.014l-1.687,1.354
		l-1.496-1.866l4.728-3.765h2.55V255.273z"/>
	<path fill="#FFFFFF" d="M152.718,253.115c-0.348,1.352-0.937,2.954-1.767,4.808h-2.208c0.435-1.779,0.773-3.459,1.014-5.038h2.811
		L152.718,253.115z"/>
	<path fill="#FFFFFF" d="M154.796,249.04c0-2.904,0.614-5.065,1.842-6.483c1.228-1.419,3.066-2.128,5.516-2.128
		c0.836,0,1.492,0.05,1.967,0.15v2.479c-0.596-0.134-1.185-0.2-1.767-0.2c-1.064,0-1.932,0.16-2.604,0.481
		c-0.673,0.321-1.176,0.797-1.511,1.426c-0.335,0.629-0.532,1.522-0.592,2.68h0.13c0.663-1.138,1.723-1.706,3.182-1.706
		c1.312,0,2.338,0.411,3.082,1.234c0.743,0.823,1.114,1.961,1.114,3.413c0,1.565-0.441,2.805-1.325,3.719
		c-0.883,0.913-2.108,1.37-3.674,1.37c-1.084,0-2.029-0.251-2.835-0.753c-0.807-0.502-1.429-1.235-1.867-2.198
		C155.015,251.56,154.796,250.398,154.796,249.04z M160.096,252.995c0.663,0,1.171-0.223,1.525-0.668
		c0.355-0.444,0.532-1.079,0.532-1.901c0-0.716-0.166-1.28-0.497-1.691c-0.331-0.412-0.832-0.617-1.5-0.617
		c-0.629,0-1.166,0.204-1.611,0.612c-0.445,0.408-0.667,0.883-0.667,1.425c0,0.797,0.209,1.469,0.627,2.018
		C158.923,252.721,159.453,252.995,160.096,252.995z"/>
	<path fill="#FFFFFF" d="M176.316,243.881c0,0.917-0.278,1.696-0.833,2.339c-0.555,0.643-1.335,1.084-2.338,1.325v0.06
		c1.184,0.147,2.081,0.508,2.69,1.079c0.609,0.572,0.913,1.344,0.913,2.313c0,1.412-0.512,2.512-1.536,3.298
		c-1.023,0.786-2.486,1.18-4.386,1.18c-1.593,0-3.004-0.265-4.236-0.793v-2.641c0.569,0.288,1.195,0.522,1.877,0.703
		c0.683,0.181,1.358,0.271,2.028,0.271c1.024,0,1.78-0.174,2.269-0.521c0.488-0.348,0.732-0.906,0.732-1.677
		c0-0.688-0.281-1.177-0.843-1.465c-0.562-0.288-1.458-0.432-2.69-0.432h-1.114v-2.379h1.134c1.138,0,1.969-0.148,2.495-0.446
		c0.525-0.298,0.788-0.809,0.788-1.531c0-1.11-0.696-1.666-2.087-1.666c-0.482,0-0.972,0.08-1.471,0.241
		c-0.499,0.16-1.052,0.438-1.661,0.833l-1.435-2.139c1.338-0.963,2.934-1.445,4.788-1.445c1.519,0,2.718,0.309,3.598,0.924
		C175.876,241.928,176.316,242.784,176.316,243.881z"/>
	<path fill="#FFFFFF" d="M188.542,247.937c0,2.563-0.42,4.46-1.26,5.69c-0.84,1.231-2.133,1.848-3.879,1.848
		c-1.693,0-2.97-0.636-3.829-1.907c-0.86-1.271-1.29-3.148-1.29-5.631c0-2.59,0.418-4.499,1.255-5.727
		c0.836-1.228,2.125-1.842,3.864-1.842c1.693,0,2.973,0.643,3.839,1.927C188.108,243.58,188.542,245.46,188.542,247.937z
		 M181.365,247.937c0,1.8,0.156,3.09,0.467,3.869s0.834,1.169,1.571,1.169c0.723,0,1.245-0.395,1.566-1.185
		c0.321-0.789,0.481-2.074,0.481-3.854c0-1.801-0.162-3.094-0.487-3.88c-0.324-0.786-0.845-1.18-1.561-1.18
		c-0.729,0-1.251,0.394-1.566,1.18S181.365,246.136,181.365,247.937z"/>
</g>
</svg>
