<?xml version="1.0" encoding="utf-8"?>
<!-- Generator: Adobe Illustrator 16.0.0, SVG Export Plug-In . SVG Version: 6.00 Build 0)  -->
<!DOCTYPE svg PUBLIC "-//W3C//DTD SVG 1.1//EN" "http://www.w3.org/Graphics/SVG/1.1/DTD/svg11.dtd">
<svg version="1.1" id="Capa_1" xmlns="http://www.w3.org/2000/svg" xmlns:xlink="http://www.w3.org/1999/xlink" x="0px" y="0px"
	 width="294.5px" height="843.988px" viewBox="0 0 294.5 843.988" enable-background="new 0 0 294.5 843.988" xml:space="preserve">
<g id="global-estimates">
	<g>
		<rect x="135.891" y="215.738" fill="#199598" width="100.494" height="122.967"/>
		<rect x="135.891" y="90.674" fill="#DD9B2B" width="100.494" height="125.064"/>
	</g>
	<g>
		<path fill="#666565" d="M75.692,44.349c0-1.549,0.311-2.906,0.932-4.071s1.518-2.055,2.686-2.67
			c1.168-0.615,2.537-0.922,4.106-0.922c1.59,0,3.07,0.292,4.443,0.876l-0.672,1.529c-1.346-0.571-2.641-0.856-3.884-0.856
			c-1.813,0-3.229,0.54-4.249,1.62c-1.019,1.08-1.528,2.578-1.528,4.494c0,2.018,0.491,3.548,1.473,4.591
			c0.981,1.043,2.423,1.564,4.326,1.564c1.033,0,2.042-0.12,3.026-0.358v-4.604h-3.332v-1.549h5.063v7.255
			c-0.788,0.248-1.59,0.436-2.405,0.563c-0.814,0.127-1.76,0.191-2.833,0.191c-2.255,0-4.012-0.67-5.268-2.012
			C76.32,48.647,75.692,46.768,75.692,44.349z"/>
		<path fill="#666565" d="M91.406,51.798V35.942h1.69v15.856H91.406z"/>
		<path fill="#666565" d="M96.063,46.194c0-1.817,0.454-3.233,1.36-4.247c0.908-1.014,2.167-1.521,3.78-1.521
			c1.558,0,2.795,0.519,3.713,1.556c0.917,1.038,1.376,2.441,1.376,4.211c0,1.824-0.457,3.248-1.372,4.272
			c-0.915,1.024-2.178,1.536-3.79,1.536c-0.996,0-1.88-0.234-2.651-0.704c-0.772-0.47-1.368-1.144-1.788-2.021
			S96.063,47.371,96.063,46.194z M97.795,46.194c0,1.43,0.286,2.52,0.857,3.269c0.572,0.749,1.412,1.124,2.521,1.124
			c1.109,0,1.951-0.373,2.526-1.119c0.575-0.746,0.862-1.837,0.862-3.273c0-1.423-0.288-2.504-0.862-3.243
			c-0.574-0.739-1.424-1.108-2.546-1.108c-1.109,0-1.946,0.364-2.51,1.093C98.077,43.664,97.795,44.75,97.795,46.194z"/>
		<path fill="#666565" d="M109.29,51.798V35.942h1.691v3.852c0,0.863-0.027,1.637-0.082,2.323h0.082
			c0.788-1.114,1.957-1.671,3.506-1.671c1.46,0,2.595,0.501,3.402,1.503c0.81,1.002,1.213,2.42,1.213,4.254
			s-0.407,3.259-1.223,4.274c-0.814,1.016-1.945,1.523-3.394,1.523c-0.728,0-1.392-0.134-1.992-0.402
			c-0.602-0.268-1.106-0.681-1.514-1.238h-0.121l-0.356,1.437L109.29,51.798L109.29,51.798z M110.981,46.204
			c0,1.569,0.262,2.692,0.785,3.368c0.522,0.676,1.361,1.014,2.517,1.014c1.04,0,1.813-0.379,2.323-1.136
			c0.51-0.758,0.765-1.846,0.765-3.266c0-1.454-0.255-2.538-0.765-3.251c-0.51-0.713-1.297-1.07-2.364-1.07
			c-1.155,0-1.987,0.331-2.497,0.994C111.236,43.518,110.981,44.635,110.981,46.204z"/>
		<path fill="#666565" d="M121.243,48.722c0-2.25,1.806-3.429,5.418-3.537l1.898-0.062v-0.702c0-0.887-0.188-1.542-0.564-1.965
			s-0.978-0.634-1.806-0.634c-0.93,0-1.98,0.289-3.153,0.866l-0.526-1.298c0.551-0.294,1.153-0.525,1.81-0.692
			c0.657-0.167,1.313-0.251,1.972-0.251c1.33,0,2.315,0.295,2.957,0.887c0.641,0.591,0.962,1.539,0.962,2.843v7.622h-1.253
			l-0.336-1.571h-0.082c-0.556,0.693-1.11,1.162-1.663,1.407c-0.552,0.246-1.242,0.368-2.07,0.368c-1.111,0-1.983-0.284-2.615-0.853
			C121.558,50.58,121.243,49.771,121.243,48.722z M123.036,48.742c0,0.615,0.185,1.082,0.554,1.403
			c0.37,0.321,0.888,0.481,1.552,0.481c1.051,0,1.876-0.29,2.477-0.87c0.6-0.581,0.9-1.393,0.9-2.437v-1.014l-1.688,0.071
			c-1.343,0.048-2.311,0.258-2.904,0.63C123.333,47.378,123.036,47.957,123.036,48.742z"/>
		<path fill="#666565" d="M133.685,51.798V35.942h1.69v15.856H133.685z"/>
		<path fill="#666565" d="M143.762,46.305c0-1.8,0.442-3.23,1.326-4.29c0.885-1.06,2.071-1.589,3.563-1.589
			c1.396,0,2.498,0.46,3.312,1.38c0.813,0.921,1.22,2.135,1.22,3.643v1.07h-7.685c0.033,1.311,0.365,2.306,0.995,2.985
			c0.629,0.68,1.516,1.019,2.658,1.019c1.199,0,2.385-0.251,3.557-0.754v1.508c-0.598,0.258-1.16,0.443-1.691,0.555
			C150.484,51.944,149.842,52,149.09,52c-1.646,0-2.944-0.502-3.897-1.508C144.239,49.489,143.762,48.093,143.762,46.305z
			 M145.536,45.144h5.849c0-1.066-0.236-1.883-0.714-2.451c-0.478-0.567-1.157-0.851-2.042-0.851c-0.896,0-1.615,0.292-2.148,0.876
			C145.945,43.303,145.631,44.111,145.536,45.144z"/>
		<path fill="#666565" d="M155.38,43.374c0-0.911,0.37-1.63,1.108-2.158c0.74-0.527,1.755-0.791,3.045-0.791
			c1.195,0,2.363,0.244,3.504,0.733l-0.59,1.377c-1.117-0.463-2.131-0.695-3.037-0.695c-0.803,0-1.409,0.126-1.818,0.378
			c-0.406,0.251-0.611,0.599-0.611,1.042c0,0.3,0.076,0.555,0.229,0.766s0.399,0.412,0.741,0.603c0.34,0.191,0.994,0.467,1.96,0.828
			c1.323,0.483,2.215,0.97,2.671,1.46c0.457,0.49,0.686,1.105,0.686,1.849c0,1.034-0.386,1.832-1.153,2.393
			C161.341,51.72,160.26,52,158.868,52c-1.479,0-2.632-0.23-3.458-0.693v-1.559c0.535,0.272,1.109,0.487,1.724,0.644
			c0.614,0.157,1.206,0.235,1.775,0.235c0.885,0,1.565-0.141,2.042-0.424c0.477-0.283,0.715-0.713,0.715-1.292
			c0-0.436-0.188-0.809-0.566-1.119c-0.377-0.31-1.115-0.676-2.211-1.098c-1.043-0.388-1.781-0.727-2.218-1.017
			c-0.437-0.29-0.76-0.618-0.974-0.986C155.486,44.324,155.38,43.885,155.38,43.374z"/>
		<path fill="#666565" d="M164.57,41.944v-0.815l1.601-0.703l0.713-2.385h0.979v2.588h3.24v1.314h-3.24v6.588
			c0,0.674,0.16,1.191,0.479,1.552c0.319,0.361,0.758,0.542,1.314,0.542c0.299,0,0.587-0.022,0.865-0.066
			c0.276-0.044,0.5-0.09,0.662-0.138v1.278c-0.185,0.087-0.453,0.159-0.812,0.216C170.018,51.972,169.695,52,169.41,52
			c-2.16,0-3.241-1.138-3.241-3.414v-6.644h-1.599V41.944L164.57,41.944z"/>
		<path fill="#666565" d="M173.273,37.603c0-0.387,0.088-0.671,0.264-0.851c0.175-0.18,0.395-0.27,0.658-0.27
			c0.293,0,0.545,0.092,0.758,0.275c0.212,0.184,0.318,0.466,0.318,0.846s-0.106,0.664-0.318,0.851s-0.465,0.28-0.758,0.28
			c-0.264,0-0.482-0.093-0.658-0.28S173.273,37.984,173.273,37.603z M173.417,51.798V40.63h1.549v11.168H173.417z"/>
		<path fill="#666565" d="M178.695,51.798V40.63h1.375l0.272,1.509h0.082c0.319-0.537,0.771-0.957,1.353-1.259
			c0.58-0.302,1.229-0.453,1.951-0.453c1.746,0,2.888,0.625,3.424,1.876h0.082c0.334-0.579,0.813-1.036,1.447-1.372
			c0.633-0.336,1.353-0.504,2.159-0.504c1.265,0,2.209,0.324,2.839,0.973c0.629,0.648,0.941,1.687,0.941,3.113v7.286h-1.689v-7.281
			c0-0.892-0.189-1.561-0.57-2.006c-0.381-0.445-0.973-0.669-1.773-0.669c-1.053,0-1.831,0.303-2.333,0.909
			c-0.503,0.605-0.754,1.538-0.754,2.798v6.249h-1.69v-7.281c0-0.892-0.188-1.561-0.569-2.006c-0.382-0.445-0.978-0.669-1.783-0.669
			c-1.062,0-1.836,0.318-2.329,0.955c-0.49,0.637-0.738,1.68-0.738,3.13v5.871L178.695,51.798L178.695,51.798z"/>
		<path fill="#666565" d="M197.271,48.722c0-2.25,1.807-3.429,5.418-3.537l1.896-0.062v-0.702c0-0.887-0.188-1.542-0.563-1.965
			s-0.979-0.634-1.808-0.634c-0.929,0-1.979,0.289-3.151,0.866l-0.525-1.298c0.55-0.294,1.152-0.525,1.809-0.692
			c0.657-0.167,1.313-0.251,1.973-0.251c1.33,0,2.314,0.295,2.957,0.887c0.643,0.591,0.964,1.539,0.964,2.843v7.622h-1.255
			l-0.336-1.571h-0.082c-0.557,0.693-1.108,1.162-1.661,1.407c-0.554,0.246-1.242,0.368-2.07,0.368c-1.11,0-1.981-0.284-2.614-0.853
			C197.588,50.58,197.271,49.771,197.271,48.722z M199.066,48.742c0,0.615,0.185,1.082,0.554,1.403
			c0.37,0.321,0.887,0.481,1.551,0.481c1.052,0,1.876-0.29,2.478-0.87c0.602-0.581,0.899-1.393,0.899-2.437v-1.014l-1.688,0.071
			c-1.342,0.048-2.312,0.258-2.902,0.63C199.363,47.378,199.066,47.957,199.066,48.742z"/>
		<path fill="#666565" d="M208.236,41.944v-0.815l1.6-0.703l0.713-2.385h0.979v2.588h3.24v1.314h-3.24v6.588
			c0,0.674,0.16,1.191,0.479,1.552s0.757,0.542,1.313,0.542c0.3,0,0.588-0.022,0.867-0.066c0.275-0.044,0.498-0.09,0.662-0.138
			v1.278c-0.186,0.087-0.453,0.159-0.813,0.216c-0.354,0.057-0.68,0.085-0.963,0.085c-2.16,0-3.241-1.138-3.241-3.414v-6.644h-1.601
			v0.002H208.236z"/>
		<path fill="#666565" d="M216.46,46.305c0-1.8,0.442-3.23,1.326-4.29s2.071-1.589,3.562-1.589c1.396,0,2.498,0.46,3.313,1.38
			c0.813,0.921,1.219,2.135,1.219,3.643v1.07h-7.686c0.035,1.311,0.367,2.306,0.996,2.985c0.629,0.68,1.517,1.019,2.658,1.019
			c1.198,0,2.385-0.251,3.557-0.754v1.508c-0.598,0.258-1.159,0.443-1.691,0.555C223.18,51.944,222.539,52,221.787,52
			c-1.646,0-2.946-0.502-3.898-1.508C216.936,49.489,216.46,48.093,216.46,46.305z M218.232,45.144h5.85
			c0-1.066-0.238-1.883-0.714-2.451c-0.478-0.567-1.157-0.851-2.042-0.851c-0.898,0-1.615,0.292-2.149,0.876
			C218.643,43.303,218.328,44.111,218.232,45.144z"/>
		<path fill="#666565" d="M228.077,43.374c0-0.911,0.37-1.63,1.108-2.158c0.738-0.527,1.754-0.791,3.045-0.791
			c1.192,0,2.36,0.244,3.504,0.733l-0.59,1.377c-1.117-0.463-2.131-0.695-3.037-0.695c-0.805,0-1.41,0.126-1.818,0.378
			c-0.408,0.251-0.611,0.599-0.611,1.042c0,0.3,0.076,0.555,0.229,0.766s0.397,0.412,0.739,0.603
			c0.34,0.191,0.994,0.467,1.961,0.828c1.322,0.483,2.216,0.97,2.67,1.46c0.457,0.49,0.687,1.105,0.687,1.849
			c0,1.034-0.385,1.832-1.153,2.393C234.038,51.72,232.957,52,231.564,52c-1.479,0-2.631-0.23-3.457-0.693v-1.559
			c0.535,0.272,1.107,0.487,1.724,0.644c0.614,0.157,1.206,0.235,1.774,0.235c0.886,0,1.563-0.141,2.043-0.424
			c0.477-0.283,0.715-0.713,0.715-1.292c0-0.436-0.189-0.809-0.567-1.119s-1.114-0.676-2.211-1.098
			c-1.042-0.388-1.78-0.727-2.217-1.017c-0.437-0.29-0.761-0.618-0.974-0.986C228.184,44.324,228.077,43.885,228.077,43.374z"/>
	</g>
	<g>
		<path fill="#9A999E" d="M47.308,95.938v-1.199l3.27-3.299c0.996-1.012,1.653-1.734,1.97-2.166
			c0.317-0.432,0.556-0.853,0.713-1.262c0.159-0.409,0.238-0.85,0.238-1.321c0-0.665-0.201-1.192-0.603-1.582
			s-0.96-0.584-1.674-0.584c-0.516,0-1.004,0.085-1.465,0.256c-0.462,0.17-0.976,0.479-1.542,0.93l-0.747-0.964
			c1.144-0.935,2.39-1.402,3.736-1.402c1.166,0,2.081,0.297,2.743,0.891c0.663,0.594,0.994,1.393,0.994,2.396
			c0,0.79-0.222,1.572-0.663,2.345c-0.441,0.773-1.269,1.751-2.479,2.934l-2.717,2.669v0.068h6.386v1.291L47.308,95.938
			L47.308,95.938z"/>
		<path fill="#9A999E" d="M61.88,95.938v-1.199l3.271-3.299c0.996-1.012,1.652-1.734,1.97-2.166
			c0.317-0.432,0.555-0.853,0.713-1.262c0.159-0.409,0.238-0.85,0.238-1.321c0-0.665-0.201-1.192-0.604-1.582
			c-0.401-0.39-0.96-0.584-1.673-0.584c-0.516,0-1.004,0.085-1.465,0.256c-0.462,0.17-0.976,0.479-1.542,0.93l-0.747-0.964
			c1.144-0.935,2.389-1.402,3.736-1.402c1.166,0,2.081,0.297,2.743,0.891c0.663,0.594,0.993,1.393,0.993,2.396
			c0,0.79-0.221,1.572-0.662,2.345s-1.269,1.751-2.479,2.934l-2.717,2.669v0.068h6.386v1.291L61.88,95.938L61.88,95.938z"/>
		<path fill="#9A999E" d="M71.841,89.71c0-2.161,0.338-3.765,1.015-4.813c0.676-1.046,1.707-1.57,3.092-1.57
			c1.346,0,2.368,0.546,3.065,1.638c0.699,1.092,1.049,2.673,1.049,4.744c0,2.147-0.339,3.75-1.015,4.81
			c-0.676,1.06-1.709,1.589-3.101,1.589c-1.34,0-2.36-0.542-3.059-1.627C72.191,93.396,71.841,91.806,71.841,89.71z M73.285,89.71
			c0,1.802,0.212,3.113,0.636,3.935c0.424,0.822,1.1,1.232,2.026,1.232c0.938,0,1.618-0.417,2.039-1.25
			c0.421-0.833,0.632-2.139,0.632-3.918c0-1.778-0.21-3.082-0.632-3.909c-0.421-0.827-1.102-1.241-2.039-1.241
			c-0.927,0-1.604,0.408-2.026,1.224C73.497,86.6,73.285,87.908,73.285,89.71z"/>
		<path fill="#9A999E" d="M81.913,90.636c0-2.441,0.474-4.267,1.422-5.476c0.948-1.209,2.352-1.814,4.208-1.814
			c0.643,0,1.147,0.054,1.518,0.161v1.231c-0.438-0.164-0.938-0.247-1.5-0.247c-1.331,0-2.348,0.417-3.049,1.249
			c-0.701,0.833-1.087,2.141-1.154,3.924h0.102c0.623-0.963,1.608-1.445,2.955-1.445c1.121,0,2.003,0.336,2.649,1.008
			s0.969,1.584,0.969,2.736c0,1.288-0.354,2.301-1.063,3.039c-0.708,0.738-1.665,1.106-2.869,1.106
			c-1.285,0-2.305-0.482-3.058-1.447C82.29,93.696,81.913,92.354,81.913,90.636z M83.356,91.649c0,0.585,0.112,1.13,0.34,1.636
			c0.227,0.506,0.548,0.906,0.964,1.201c0.416,0.295,0.89,0.442,1.422,0.442c0.804,0,1.428-0.254,1.873-0.762
			c0.444-0.508,0.667-1.242,0.667-2.202c0-0.823-0.207-1.471-0.62-1.942c-0.413-0.472-1.03-0.707-1.851-0.707
			c-0.509,0-0.978,0.105-1.401,0.315s-0.763,0.5-1.015,0.869C83.482,90.868,83.356,91.252,83.356,91.649z"/>
		<g>
			<path fill="#9A999E" d="M57.523,97.486c0.105-0.406,0.222-0.908,0.349-1.506s0.216-1.076,0.267-1.436h1.061l0.087,0.135
				c-0.101,0.391-0.247,0.845-0.437,1.362s-0.389,0.999-0.595,1.444H57.523z"/>
		</g>
	</g>
	<g>
		<path fill="#9A999E" d="M81.785,332.476c0-2.161,0.338-3.765,1.014-4.812c0.677-1.047,1.707-1.57,3.093-1.57
			c1.346,0,2.367,0.546,3.065,1.638c0.699,1.093,1.048,2.673,1.048,4.744c0,2.147-0.338,3.75-1.014,4.81
			c-0.676,1.061-1.709,1.59-3.102,1.59c-1.34,0-2.359-0.543-3.058-1.627C82.134,336.162,81.785,334.572,81.785,332.476z
			 M83.229,332.476c0,1.802,0.212,3.113,0.636,3.935c0.424,0.822,1.099,1.232,2.026,1.232c0.938,0,1.617-0.417,2.038-1.25
			c0.422-0.833,0.633-2.139,0.633-3.918c0-1.777-0.21-3.082-0.633-3.908c-0.421-0.828-1.101-1.242-2.038-1.242
			c-0.928,0-1.604,0.408-2.026,1.225C83.441,329.365,83.229,330.675,83.229,332.476z"/>
	</g>
	<g>
		<path fill="#FFFFFF" d="M167.959,277.222h-3.148v-8.621l0.03-1.417l0.052-1.549c-0.521,0.523-0.888,0.866-1.09,1.029l-1.713,1.375
			l-1.52-1.896l4.801-3.821h2.588V277.222z"/>
		<path fill="#FFFFFF" d="M185.822,277.222h-3.149v-8.621l0.031-1.417l0.051-1.549c-0.522,0.523-0.887,0.866-1.09,1.029
			l-1.712,1.375l-1.52-1.896l4.801-3.821h2.588V277.222L185.822,277.222z"/>
		<path fill="#FFFFFF" d="M200.282,269.772c0,2.603-0.427,4.528-1.279,5.778s-2.166,1.875-3.938,1.875
			c-1.719,0-3.016-0.645-3.889-1.936s-1.31-3.196-1.31-5.718c0-2.629,0.425-4.567,1.274-5.813c0.848-1.246,2.154-1.87,3.922-1.87
			c1.72,0,3.019,0.652,3.896,1.957C199.842,265.35,200.282,267.26,200.282,269.772z M192.996,269.772
			c0,1.828,0.158,3.138,0.475,3.929c0.315,0.793,0.848,1.188,1.596,1.188c0.731,0,1.265-0.4,1.588-1.203
			c0.326-0.801,0.49-2.105,0.49-3.913c0-1.827-0.166-3.14-0.494-3.938c-0.33-0.798-0.857-1.197-1.584-1.197
			c-0.74,0-1.271,0.399-1.59,1.197C193.156,266.633,192.996,267.945,192.996,269.772z"/>
		<path fill="#FFFFFF" d="M212.275,277.222h-10.414v-2.19l3.74-3.781c1.104-1.135,1.83-1.92,2.17-2.359
			c0.34-0.438,0.584-0.844,0.731-1.218s0.226-0.761,0.226-1.162c0-0.599-0.164-1.042-0.494-1.335
			c-0.33-0.292-0.771-0.438-1.318-0.438c-0.578,0-1.139,0.131-1.682,0.396c-0.543,0.266-1.111,0.643-1.702,1.131l-1.712-2.027
			c0.731-0.625,1.341-1.066,1.824-1.326c0.479-0.258,1.008-0.457,1.58-0.596c0.568-0.139,1.209-0.209,1.916-0.209
			c0.93,0,1.752,0.17,2.465,0.51c0.715,0.341,1.268,0.815,1.662,1.428c0.394,0.611,0.59,1.311,0.59,2.099
			c0,0.687-0.121,1.33-0.36,1.931c-0.242,0.602-0.615,1.218-1.121,1.85c-0.506,0.632-1.397,1.531-2.675,2.701l-1.916,1.804v0.144
			h6.49V277.222L212.275,277.222z"/>
		<g>
			<path fill="#FFFFFF" d="M173.615,279.285c0.141-0.542,0.295-1.211,0.465-2.008c0.169-0.797,0.287-1.435,0.355-1.914h1.414
				l0.117,0.18c-0.135,0.521-0.329,1.126-0.583,1.816s-0.519,1.332-0.793,1.926H173.615z"/>
		</g>
	</g>
	<g>
		<path fill="#FFFFFF" d="M167.959,161.455h-3.148v-8.62l0.03-1.417l0.052-1.549c-0.521,0.523-0.888,0.866-1.09,1.029l-1.713,1.375
			l-1.52-1.895l4.801-3.821h2.588V161.455z"/>
		<path fill="#FFFFFF" d="M185.822,161.455h-3.149v-8.62l0.031-1.417l0.051-1.549c-0.522,0.523-0.887,0.866-1.09,1.029l-1.712,1.375
			l-1.52-1.895l4.801-3.821h2.588V161.455L185.822,161.455z"/>
		<path fill="#FFFFFF" d="M200.282,154.007c0,2.603-0.427,4.528-1.279,5.778s-2.166,1.875-3.938,1.875
			c-1.719,0-3.016-0.646-3.889-1.937s-1.31-3.196-1.31-5.717c0-2.629,0.425-4.567,1.274-5.813c0.848-1.246,2.154-1.87,3.922-1.87
			c1.72,0,3.019,0.652,3.896,1.957C199.842,149.585,200.282,151.494,200.282,154.007z M192.996,154.007
			c0,1.828,0.158,3.137,0.475,3.929c0.315,0.792,0.848,1.188,1.596,1.188c0.731,0,1.265-0.401,1.588-1.203
			c0.326-0.801,0.49-2.106,0.49-3.913c0-1.827-0.166-3.14-0.494-3.938c-0.33-0.798-0.857-1.197-1.584-1.197
			c-0.74,0-1.271,0.399-1.59,1.197C193.156,150.867,192.996,152.18,192.996,154.007z"/>
		<path fill="#FFFFFF" d="M212.611,158.369h-1.793v3.086h-3.077v-3.086h-6.359v-2.191l6.532-9.62h2.904v9.365h1.793V158.369
			L212.611,158.369z M207.741,155.923v-2.527c0-0.421,0.017-1.033,0.051-1.834c0.034-0.802,0.063-1.267,0.082-1.396h-0.082
			c-0.251,0.557-0.554,1.101-0.907,1.631l-2.73,4.127L207.741,155.923L207.741,155.923z"/>
		<g>
			<path fill="#FFFFFF" d="M173.615,163.723c0.141-0.542,0.295-1.211,0.465-2.008c0.169-0.797,0.287-1.435,0.355-1.914h1.414
				l0.117,0.18c-0.135,0.521-0.329,1.126-0.583,1.816s-0.519,1.332-0.793,1.926H173.615z"/>
		</g>
	</g>
	<g>
		<path fill="#87868A" d="M74.418,231.379H59.52v-4.208c0-1.978,0.295-3.407,0.885-4.29c0.591-0.885,1.522-1.325,2.799-1.325
			c0.883,0,1.611,0.246,2.186,0.739c0.573,0.492,0.945,1.211,1.115,2.154h0.104c0.388-2.248,1.578-3.373,3.57-3.373
			c1.332,0,2.371,0.449,3.118,1.349c0.748,0.897,1.121,2.153,1.121,3.769V231.379z M65.887,229.646v-2.853
			c0-1.224-0.19-2.103-0.573-2.64c-0.384-0.537-1.028-0.806-1.938-0.806c-0.834,0-1.436,0.299-1.805,0.896
			c-0.369,0.598-0.555,1.55-0.555,2.854v2.547L65.887,229.646L65.887,229.646z M72.94,229.646v-3.107
			c0-1.201-0.232-2.106-0.698-2.715c-0.465-0.608-1.193-0.912-2.187-0.912c-0.924,0-1.604,0.311-2.037,0.933
			c-0.436,0.621-0.652,1.567-0.652,2.838v2.965L72.94,229.646L72.94,229.646z"/>
		<path fill="#87868A" d="M60.222,218.254c-0.388,0-0.671-0.087-0.852-0.264c-0.18-0.176-0.27-0.396-0.27-0.657
			c0-0.294,0.092-0.546,0.273-0.759c0.185-0.211,0.466-0.317,0.847-0.317c0.381,0,0.664,0.106,0.852,0.317
			c0.187,0.213,0.28,0.465,0.28,0.759c0,0.264-0.095,0.481-0.28,0.657C60.886,218.167,60.603,218.254,60.222,218.254z
			 M74.418,218.111H63.25v-1.549h11.168V218.111z"/>
		<path fill="#87868A" d="M74.418,212.833H58.562v-1.691h15.854L74.418,212.833L74.418,212.833z"/>
		<path fill="#87868A" d="M74.418,207.555H58.562v-1.691h15.854L74.418,207.555L74.418,207.555z"/>
		<path fill="#87868A" d="M60.222,202.419c-0.388,0-0.671-0.089-0.852-0.265c-0.18-0.175-0.27-0.395-0.27-0.656
			c0-0.293,0.092-0.547,0.273-0.758c0.185-0.213,0.466-0.318,0.847-0.318c0.381,0,0.664,0.105,0.852,0.318
			c0.187,0.211,0.28,0.465,0.28,0.758c0,0.263-0.095,0.481-0.28,0.656C60.886,202.33,60.603,202.419,60.222,202.419z
			 M74.418,202.277H63.25v-1.55h11.168V202.277z"/>
		<path fill="#87868A" d="M68.813,197.619c-1.817,0-3.232-0.455-4.247-1.361c-1.015-0.908-1.521-2.168-1.521-3.78
			c0-1.558,0.52-2.795,1.558-3.713c1.036-0.918,2.44-1.377,4.211-1.377c1.823,0,3.248,0.457,4.271,1.372
			c1.024,0.914,1.536,2.178,1.536,3.789c0,0.996-0.234,1.88-0.704,2.652c-0.47,0.771-1.144,1.367-2.021,1.787
			C71.019,197.408,69.991,197.619,68.813,197.619z M68.813,195.887c1.43,0,2.52-0.286,3.269-0.855
			c0.749-0.57,1.124-1.412,1.124-2.521c0-1.109-0.373-1.951-1.119-2.526c-0.745-0.574-1.837-0.861-3.272-0.861
			c-1.423,0-2.504,0.287-3.243,0.861c-0.738,0.575-1.108,1.424-1.108,2.547c0,1.108,0.364,1.945,1.095,2.51
			C66.284,195.604,67.37,195.887,68.813,195.887z"/>
		<path fill="#87868A" d="M74.418,184.393H63.25v-1.376l1.509-0.274v-0.082c-0.544-0.347-0.966-0.832-1.265-1.457
			c-0.299-0.625-0.448-1.32-0.448-2.088c0-1.347,0.324-2.357,0.975-3.037c0.647-0.681,1.687-1.021,3.111-1.021h7.286v1.692h-7.239
			c-0.911,0-1.593,0.207-2.042,0.621c-0.448,0.414-0.675,1.063-0.675,1.945c0,1.17,0.317,2.024,0.95,2.568
			c0.633,0.543,1.678,0.814,3.135,0.814h5.871V184.393z"/>
		<path fill="#87868A" d="M65.994,172.297c-0.911,0-1.63-0.37-2.157-1.109c-0.526-0.74-0.791-1.755-0.791-3.044
			c0-1.194,0.244-2.362,0.733-3.504l1.378,0.59c-0.463,1.117-0.695,2.13-0.695,3.037c0,0.804,0.127,1.409,0.379,1.817
			c0.251,0.408,0.6,0.611,1.041,0.611c0.3,0,0.557-0.076,0.768-0.229c0.211-0.153,0.412-0.398,0.603-0.74
			c0.191-0.341,0.467-0.994,0.827-1.961c0.483-1.324,0.971-2.215,1.461-2.671c0.49-0.457,1.106-0.687,1.849-0.687
			c1.034,0,1.832,0.387,2.394,1.155c0.562,0.771,0.842,1.853,0.842,3.243c0,1.479-0.229,2.631-0.693,3.458H72.37
			c0.272-0.535,0.486-1.11,0.644-1.724c0.156-0.614,0.234-1.206,0.234-1.775c0-0.885-0.141-1.564-0.424-2.043
			c-0.282-0.477-0.713-0.715-1.292-0.715c-0.437,0-0.81,0.189-1.118,0.566c-0.309,0.379-0.676,1.114-1.098,2.211
			c-0.39,1.041-0.729,1.781-1.018,2.218c-0.29,0.436-0.618,0.76-0.985,0.974C66.944,172.191,66.505,172.297,65.994,172.297z"/>
		<path fill="#87868A" d="M69.26,157.337h-1.313v-1.528l-0.428,0.021h-0.448l-0.815-0.021v1.528h-1.313v-1.652
			c-1.773-0.265-3.155-0.894-4.147-1.885c-0.992-0.992-1.487-2.292-1.487-3.902c0-1.365,0.334-2.608,1.002-3.729l1.42,0.724
			c-0.582,1.128-0.872,2.13-0.872,3.006c0,2.167,1.36,3.519,4.086,4.055v-5.195h1.313v5.319l0.581,0.021h0.652l0.458-0.021v-4.698
			h1.313v4.554c1.229-0.251,2.182-0.721,2.854-1.41c0.672-0.689,1.009-1.611,1.009-2.767c0-1.06-0.226-2.109-0.676-3.148h1.521
			c0.437,0.992,0.653,2.068,0.653,3.23c0,1.609-0.457,2.905-1.371,3.887c-0.913,0.981-2.243,1.628-3.989,1.94v1.671H69.26z"/>
	</g>
	
		<line fill="none" stroke="#666565" stroke-width="0.25" stroke-miterlimit="10" x1="105.676" y1="90.674" x2="105.676" y2="338.705"/>
	
		<line fill="none" stroke="#666565" stroke-width="0.25" stroke-miterlimit="10" x1="236.385" y1="338.705" x2="91.956" y2="338.705"/>
	
		<line fill="none" stroke="#666565" stroke-width="0.25" stroke-miterlimit="10" x1="236.385" y1="90.674" x2="91.956" y2="90.674"/>
</g>
<g id="EU28-estimates">
	<g>
		<rect x="135.886" y="586.964" fill="#199598" width="100.497" height="118.787"/>
		<rect x="135.886" y="457.77" fill="#DD9B2B" width="100.497" height="129.194"/>
	</g>
	<g>
		<path fill="#9A999E" d="M58.406,460.14V458.9l5.894-8.399h1.495v8.348h1.858v1.291h-1.858v2.847h-1.334v-2.847H58.406
			L58.406,460.14z M59.832,458.849h4.629v-4.127c0-0.811,0.027-1.725,0.085-2.743h-0.067c-0.271,0.545-0.526,0.994-0.765,1.353
			L59.832,458.849z"/>
		<path fill="#9A999E" d="M68.351,460.14V458.9l5.893-8.399h1.495v8.348h1.859v1.291h-1.859v2.847h-1.333v-2.847H68.351
			L68.351,460.14z M69.776,458.849h4.629v-4.127c0-0.811,0.027-1.725,0.084-2.743h-0.066c-0.271,0.545-0.526,0.994-0.766,1.353
			L69.776,458.849z"/>
		<path fill="#9A999E" d="M78.939,457.682c0-2.438,0.475-4.267,1.423-5.476c0.948-1.209,2.352-1.814,4.208-1.814
			c0.643,0,1.147,0.057,1.518,0.161v1.231c-0.438-0.164-0.938-0.248-1.5-0.248c-1.33,0-2.348,0.418-3.05,1.25
			s-1.087,2.141-1.153,3.924h0.102c0.623-0.963,1.607-1.445,2.955-1.445c1.12,0,2.004,0.336,2.649,1.01
			c0.645,0.672,0.968,1.584,0.968,2.734c0,1.288-0.354,2.301-1.063,3.039s-1.664,1.105-2.87,1.105c-1.284,0-2.304-0.481-3.057-1.447
			C79.316,460.741,78.939,459.4,78.939,457.682z M80.384,458.694c0,0.586,0.112,1.131,0.339,1.637
			c0.227,0.504,0.548,0.906,0.964,1.201c0.417,0.295,0.891,0.44,1.423,0.44c0.804,0,1.428-0.254,1.872-0.762
			c0.444-0.509,0.667-1.242,0.667-2.202c0-0.823-0.207-1.471-0.62-1.94c-0.413-0.473-1.03-0.706-1.851-0.706
			c-0.511,0-0.978,0.104-1.401,0.313c-0.425,0.21-0.764,0.5-1.015,0.869C80.51,457.913,80.384,458.298,80.384,458.694z"/>
	</g>
	<g>
		<path fill="#9A999E" d="M78.812,699.521c0-2.159,0.338-3.765,1.014-4.812c0.676-1.047,1.706-1.57,3.092-1.57
			c1.348,0,2.368,0.546,3.067,1.64c0.698,1.093,1.047,2.673,1.047,4.742c0,2.147-0.338,3.75-1.014,4.812
			c-0.676,1.061-1.709,1.59-3.102,1.59c-1.34,0-2.358-0.543-3.058-1.627C79.16,703.208,78.812,701.618,78.812,699.521z
			 M80.256,699.521c0,1.804,0.212,3.113,0.636,3.937c0.424,0.822,1.1,1.231,2.025,1.231c0.938,0,1.618-0.418,2.039-1.25
			c0.421-0.834,0.633-2.14,0.633-3.919c0-1.775-0.212-3.081-0.633-3.906c-0.421-0.828-1.101-1.242-2.039-1.242
			c-0.927,0-1.603,0.408-2.025,1.225C80.468,696.411,80.256,697.721,80.256,699.521z"/>
	</g>
	<g>
		<path fill="#FFFFFF" d="M178.705,644.268h-10.414v-2.188l3.738-3.781c1.107-1.135,1.832-1.92,2.172-2.357
			c0.34-0.438,0.584-0.846,0.732-1.22c0.147-0.374,0.226-0.761,0.226-1.162c0-0.599-0.165-1.042-0.494-1.335
			c-0.329-0.292-0.771-0.438-1.319-0.438c-0.576,0-1.139,0.131-1.682,0.396c-0.544,0.268-1.109,0.645-1.701,1.132l-1.713-2.026
			c0.732-0.625,1.343-1.066,1.824-1.326c0.482-0.258,1.009-0.457,1.578-0.596c0.57-0.141,1.209-0.209,1.916-0.209
			c0.932,0,1.754,0.17,2.467,0.51c0.714,0.341,1.268,0.815,1.66,1.428c0.396,0.611,0.592,1.313,0.592,2.101
			c0,0.687-0.12,1.328-0.359,1.931c-0.242,0.602-0.615,1.218-1.121,1.85c-0.507,0.633-1.396,1.531-2.676,2.701l-1.916,1.804v0.146
			h6.49V644.268L178.705,644.268z"/>
		<path fill="#FFFFFF" d="M187.988,644.268h-3.148v-8.619l0.03-1.417l0.052-1.551c-0.523,0.523-0.888,0.866-1.092,1.029
			l-1.712,1.375l-1.519-1.896l4.799-3.821h2.59V644.268z"/>
		<path fill="#FFFFFF" d="M202.866,641.181h-1.794v3.087h-3.076v-3.087h-6.357v-2.189l6.531-9.619h2.902v9.364h1.794V641.181z
			 M197.996,638.734v-2.526c0-0.422,0.018-1.033,0.052-1.834c0.032-0.803,0.062-1.268,0.081-1.396h-0.081
			c-0.253,0.559-0.555,1.104-0.907,1.633l-2.729,4.127L197.996,638.734L197.996,638.734z"/>
	</g>
	<g>
		<path fill="#FFFFFF" d="M178.705,528.501h-10.414v-2.19l3.738-3.778c1.107-1.137,1.832-1.921,2.172-2.359
			c0.34-0.438,0.584-0.844,0.732-1.219c0.147-0.373,0.226-0.761,0.226-1.162c0-0.598-0.165-1.041-0.494-1.334
			s-0.771-0.438-1.319-0.438c-0.576,0-1.139,0.133-1.682,0.396c-0.544,0.265-1.109,0.642-1.701,1.131l-1.713-2.028
			c0.732-0.625,1.343-1.063,1.824-1.323c0.482-0.26,1.009-0.457,1.578-0.598c0.57-0.139,1.209-0.209,1.916-0.209
			c0.932,0,1.754,0.17,2.467,0.512c0.714,0.34,1.268,0.813,1.66,1.428c0.396,0.609,0.592,1.311,0.592,2.099
			c0,0.688-0.12,1.33-0.359,1.932c-0.242,0.603-0.615,1.218-1.121,1.851c-0.507,0.631-1.396,1.531-2.676,2.701l-1.916,1.803v0.145
			h6.49V528.501L178.705,528.501z"/>
		<path fill="#FFFFFF" d="M190.036,516.936c0,0.933-0.282,1.724-0.847,2.375c-0.563,0.652-1.354,1.103-2.373,1.347v0.063
			c1.201,0.148,2.111,0.517,2.729,1.096c0.617,0.58,0.93,1.363,0.93,2.35c0,1.434-0.521,2.549-1.563,3.348
			c-1.039,0.798-2.521,1.197-4.453,1.197c-1.613,0-3.05-0.27-4.3-0.806v-2.682c0.575,0.292,1.213,0.53,1.903,0.713
			c0.693,0.187,1.379,0.274,2.061,0.274c1.039,0,1.809-0.176,2.305-0.529c0.495-0.353,0.743-0.92,0.743-1.702
			c0-0.698-0.284-1.194-0.854-1.485c-0.57-0.293-1.48-0.438-2.73-0.438h-1.131v-2.416h1.15c1.153,0,2-0.149,2.533-0.453
			c0.531-0.302,0.799-0.817,0.799-1.554c0-1.127-0.707-1.691-2.119-1.691c-0.488,0-0.986,0.082-1.492,0.245
			s-1.067,0.444-1.688,0.849l-1.457-2.171c1.356-0.979,2.979-1.47,4.858-1.47c1.542,0,2.762,0.313,3.651,0.938
			C189.591,514.952,190.036,515.821,190.036,516.936z"/>
		<path fill="#FFFFFF" d="M202.529,528.501h-10.413v-2.19l3.739-3.778c1.105-1.137,1.83-1.921,2.17-2.359
			c0.341-0.438,0.584-0.844,0.732-1.219c0.148-0.373,0.227-0.761,0.227-1.162c0-0.598-0.166-1.041-0.494-1.334
			c-0.33-0.293-0.77-0.438-1.319-0.438c-0.577,0-1.139,0.133-1.683,0.396c-0.543,0.265-1.109,0.642-1.701,1.131l-1.712-2.028
			c0.733-0.625,1.342-1.063,1.823-1.323s1.01-0.457,1.58-0.598c0.568-0.139,1.209-0.209,1.916-0.209c0.931,0,1.752,0.17,2.465,0.512
			c0.715,0.34,1.268,0.813,1.662,1.428c0.394,0.609,0.59,1.311,0.59,2.099c0,0.688-0.119,1.33-0.359,1.932
			c-0.24,0.603-0.615,1.218-1.121,1.851c-0.507,0.631-1.396,1.531-2.676,2.701l-1.916,1.803v0.145h6.49V528.501L202.529,528.501z"/>
	</g>
	<g>
		<path fill="#87868A" d="M74.845,598.425H59.947v-4.208c0-1.978,0.296-3.407,0.886-4.29c0.592-0.885,1.523-1.325,2.8-1.325
			c0.883,0,1.61,0.246,2.185,0.739c0.574,0.492,0.946,1.211,1.116,2.154h0.103c0.389-2.248,1.578-3.373,3.571-3.373
			c1.332,0,2.371,0.449,3.118,1.349c0.747,0.9,1.121,2.153,1.121,3.771L74.845,598.425L74.845,598.425z M66.316,596.692v-2.854
			c0-1.224-0.191-2.103-0.574-2.64c-0.383-0.537-1.028-0.808-1.938-0.808c-0.834,0-1.437,0.301-1.806,0.896
			c-0.368,0.598-0.555,1.55-0.555,2.854v2.548L66.316,596.692L66.316,596.692z M73.367,596.692v-3.107
			c0-1.201-0.231-2.104-0.697-2.715c-0.466-0.609-1.193-0.912-2.187-0.912c-0.924,0-1.604,0.311-2.038,0.933
			c-0.435,0.621-0.652,1.567-0.652,2.839v2.966L73.367,596.692L73.367,596.692z"/>
		<path fill="#87868A" d="M60.649,585.3c-0.387,0-0.671-0.087-0.851-0.264c-0.181-0.176-0.271-0.396-0.271-0.657
			c0-0.294,0.091-0.546,0.274-0.759c0.184-0.211,0.466-0.317,0.846-0.317c0.381,0,0.664,0.106,0.852,0.317
			c0.188,0.213,0.28,0.465,0.28,0.759c0,0.264-0.094,0.481-0.28,0.657C61.314,585.213,61.03,585.3,60.649,585.3z M74.845,585.157
			H63.677v-1.549h11.169L74.845,585.157L74.845,585.157z"/>
		<path fill="#87868A" d="M74.845,579.879H58.988v-1.689h15.856L74.845,579.879L74.845,579.879z"/>
		<path fill="#87868A" d="M74.845,574.601H58.988v-1.689h15.856L74.845,574.601L74.845,574.601z"/>
		<path fill="#87868A" d="M60.649,569.465c-0.387,0-0.671-0.089-0.851-0.265c-0.181-0.175-0.271-0.396-0.271-0.656
			c0-0.293,0.091-0.547,0.274-0.758c0.184-0.213,0.466-0.318,0.846-0.318c0.381,0,0.664,0.105,0.852,0.318
			c0.188,0.211,0.28,0.465,0.28,0.758c0,0.263-0.094,0.481-0.28,0.656C61.314,569.376,61.03,569.465,60.649,569.465z
			 M74.845,569.323H63.677v-1.55h11.169L74.845,569.323L74.845,569.323z"/>
		<path fill="#87868A" d="M69.24,564.665c-1.816,0-3.232-0.455-4.247-1.361c-1.014-0.908-1.521-2.168-1.521-3.778
			c0-1.56,0.519-2.797,1.557-3.715c1.037-0.918,2.44-1.377,4.211-1.377c1.824,0,3.248,0.457,4.271,1.372
			c1.023,0.914,1.537,2.179,1.537,3.789c0,0.996-0.235,1.88-0.705,2.652c-0.47,0.771-1.144,1.367-2.021,1.787
			C71.445,564.454,70.417,564.665,69.24,564.665z M69.24,562.933c1.43,0,2.521-0.284,3.27-0.855c0.749-0.57,1.123-1.412,1.123-2.521
			c0-1.107-0.372-1.949-1.118-2.524c-0.745-0.574-1.837-0.861-3.273-0.861c-1.423,0-2.504,0.287-3.243,0.861
			c-0.738,0.575-1.107,1.424-1.107,2.547c0,1.106,0.363,1.943,1.093,2.51C66.71,562.65,67.798,562.933,69.24,562.933z"/>
		<path fill="#87868A" d="M74.845,551.438H63.677v-1.378l1.509-0.272v-0.082c-0.543-0.347-0.965-0.832-1.264-1.457
			c-0.3-0.625-0.448-1.32-0.448-2.088c0-1.347,0.324-2.357,0.973-3.037c0.649-0.681,1.688-1.021,3.113-1.021h7.286v1.691h-7.239
			c-0.913,0-1.594,0.207-2.043,0.621c-0.449,0.414-0.674,1.063-0.674,1.945c0,1.17,0.315,2.022,0.95,2.566
			c0.633,0.543,1.678,0.814,3.135,0.814h5.871L74.845,551.438L74.845,551.438z"/>
		<path fill="#87868A" d="M66.422,539.343c-0.911,0-1.632-0.37-2.158-1.107c-0.526-0.74-0.79-1.755-0.79-3.044
			c0-1.194,0.244-2.362,0.732-3.505l1.377,0.591c-0.463,1.116-0.693,2.13-0.693,3.037c0,0.804,0.126,1.407,0.378,1.815
			s0.6,0.611,1.042,0.611c0.3,0,0.555-0.076,0.766-0.229c0.212-0.151,0.412-0.396,0.604-0.738c0.189-0.343,0.466-0.994,0.827-1.962
			c0.482-1.323,0.97-2.216,1.46-2.672c0.49-0.457,1.106-0.687,1.849-0.687c1.035,0,1.832,0.387,2.394,1.155
			c0.563,0.771,0.843,1.853,0.843,3.241c0,1.479-0.231,2.633-0.693,3.458h-1.562c0.271-0.533,0.486-1.108,0.645-1.724
			c0.156-0.614,0.234-1.206,0.234-1.775c0-0.885-0.143-1.563-0.425-2.043c-0.281-0.477-0.713-0.715-1.292-0.715
			c-0.436,0-0.809,0.189-1.117,0.566c-0.312,0.379-0.677,1.112-1.1,2.211c-0.388,1.041-0.727,1.781-1.016,2.218
			c-0.29,0.438-0.618,0.76-0.986,0.974C67.371,539.237,66.932,539.343,66.422,539.343z"/>
		<path fill="#87868A" d="M69.689,524.383h-1.314v-1.528l-0.428,0.021h-0.448l-0.814-0.021v1.528H65.37v-1.65
			c-1.772-0.267-3.155-0.896-4.146-1.887c-0.992-0.991-1.488-2.292-1.488-3.899c0-1.365,0.334-2.609,1.002-3.729l1.419,0.726
			c-0.581,1.128-0.872,2.131-0.872,3.006c0,2.168,1.362,3.52,4.087,4.055v-5.194h1.314v5.319l0.581,0.021h0.65l0.459-0.021v-4.698
			h1.314v4.556c1.229-0.251,2.181-0.723,2.854-1.41c0.672-0.688,1.009-1.611,1.009-2.769c0-1.06-0.227-2.107-0.678-3.146h1.521
			c0.436,0.991,0.653,2.065,0.653,3.229c0,1.608-0.457,2.905-1.371,3.889c-0.913,0.979-2.243,1.628-3.989,1.938V524.383
			L69.689,524.383z"/>
	</g>
	<g>
		<path fill="#666565" d="M84.442,418.844v-14.896h8.306v1.549h-6.572v4.769h6.176v1.55h-6.176v5.48h6.572v1.55L84.442,418.844
			L84.442,418.844z"/>
		<path fill="#666565" d="M95.897,413.544v-9.598h1.732v9.734c0,1.245,0.34,2.201,1.019,2.868c0.68,0.667,1.678,1,2.996,1
			c1.257,0,2.225-0.335,2.904-1.006c0.68-0.67,1.019-1.631,1.019-2.883v-9.715h1.732v9.641c0,1.699-0.514,3.033-1.538,4.005
			c-1.026,0.973-2.437,1.457-4.229,1.457s-3.181-0.489-4.162-1.468C96.387,416.602,95.897,415.257,95.897,413.544z"/>
		<path fill="#666565" d="M110.214,418.844v-1.438l3.924-3.959c1.194-1.214,1.982-2.08,2.363-2.6
			c0.381-0.519,0.665-1.021,0.855-1.515c0.19-0.49,0.285-1.02,0.285-1.586c0-0.797-0.241-1.431-0.724-1.897
			c-0.481-0.467-1.151-0.7-2.008-0.7c-0.618,0-1.204,0.103-1.758,0.308c-0.554,0.203-1.17,0.576-1.85,1.115l-0.896-1.156
			c1.372-1.123,2.866-1.684,4.483-1.684c1.398,0,2.497,0.356,3.291,1.069c0.795,0.713,1.191,1.671,1.191,2.875
			c0,0.947-0.265,1.887-0.795,2.814c-0.528,0.928-1.521,2.102-2.976,3.521l-3.261,3.203v0.082h7.663v1.549h-9.79v-0.002
			L110.214,418.844L110.214,418.844z"/>
		<path fill="#666565" d="M122.188,415.042c0-1.704,1.046-3.032,3.137-3.983c-0.946-0.529-1.627-1.103-2.039-1.717
			c-0.412-0.614-0.618-1.304-0.618-2.063c0-1.08,0.401-1.94,1.204-2.582c0.804-0.644,1.877-0.964,3.225-0.964
			c1.362,0,2.442,0.315,3.241,0.947c0.798,0.633,1.195,1.505,1.195,2.619c0,0.732-0.229,1.402-0.688,2.007
			c-0.458,0.604-1.189,1.155-2.194,1.651c1.216,0.578,2.08,1.184,2.593,1.818c0.513,0.634,0.769,1.371,0.769,2.206
			c0,1.236-0.434,2.224-1.298,2.96c-0.865,0.736-2.053,1.104-3.559,1.104c-1.595,0-2.821-0.348-3.68-1.044
			C122.617,417.305,122.188,416.321,122.188,415.042z M123.88,415.083c0,0.815,0.282,1.451,0.85,1.906
			c0.568,0.455,1.362,0.684,2.386,0.684c1.011,0,1.798-0.238,2.36-0.713c0.563-0.477,0.845-1.127,0.845-1.957
			c0-0.659-0.265-1.245-0.793-1.758c-0.529-0.514-1.452-1.011-2.768-1.494c-1.012,0.436-1.743,0.916-2.198,1.442
			S123.88,414.35,123.88,415.083z M124.358,407.349c0,0.625,0.2,1.162,0.6,1.609c0.4,0.449,1.141,0.897,2.219,1.346
			c0.97-0.406,1.655-0.846,2.06-1.313c0.404-0.468,0.605-1.017,0.605-1.642c0-0.686-0.246-1.229-0.737-1.635
			c-0.492-0.404-1.169-0.605-2.029-0.605c-0.848,0-1.513,0.204-1.994,0.61C124.6,406.126,124.358,406.669,124.358,407.349z"/>
		<path fill="#666565" d="M139.653,413.351c0-1.8,0.441-3.229,1.326-4.29c0.884-1.06,2.07-1.589,3.561-1.589
			c1.396,0,2.498,0.46,3.312,1.38c0.813,0.922,1.219,2.137,1.219,3.645v1.069h-7.682c0.033,1.312,0.364,2.306,0.995,2.984
			c0.63,0.681,1.516,1.02,2.658,1.02c1.198,0,2.385-0.251,3.559-0.754v1.509c-0.6,0.258-1.161,0.441-1.691,0.555
			c-0.532,0.111-1.174,0.168-1.926,0.168c-1.646,0-2.945-0.502-3.897-1.508C140.131,416.532,139.653,415.139,139.653,413.351z
			 M141.427,412.189h5.848c0-1.065-0.237-1.884-0.715-2.45c-0.477-0.567-1.156-0.853-2.041-0.853c-0.898,0-1.614,0.292-2.148,0.876
			C141.836,410.349,141.522,411.157,141.427,412.189z"/>
		<path fill="#666565" d="M151.271,410.419c0-0.91,0.369-1.629,1.107-2.157c0.739-0.526,1.754-0.791,3.044-0.791
			c1.194,0,2.362,0.244,3.505,0.733l-0.591,1.377c-1.116-0.463-2.131-0.695-3.037-0.695c-0.805,0-1.407,0.126-1.815,0.378
			c-0.409,0.251-0.613,0.6-0.613,1.042c0,0.301,0.076,0.556,0.23,0.767c0.15,0.211,0.396,0.412,0.738,0.604
			c0.342,0.191,0.994,0.467,1.961,0.828c1.324,0.482,2.217,0.97,2.672,1.46c0.457,0.489,0.687,1.105,0.687,1.85
			c0,1.033-0.386,1.831-1.154,2.393c-0.771,0.562-1.853,0.842-3.243,0.842c-1.479,0-2.631-0.229-3.459-0.692v-1.56
			c0.536,0.271,1.109,0.486,1.725,0.645c0.613,0.156,1.205,0.234,1.775,0.234c0.885,0,1.564-0.141,2.043-0.424
			c0.477-0.283,0.715-0.713,0.715-1.293c0-0.436-0.188-0.809-0.565-1.118c-0.378-0.309-1.114-0.677-2.211-1.099
			c-1.042-0.389-1.78-0.728-2.218-1.018s-0.762-0.617-0.975-0.984C151.377,411.37,151.271,410.931,151.271,410.419z"/>
		<path fill="#666565" d="M160.461,408.989v-0.814l1.602-0.703l0.713-2.385h0.979v2.588h3.239v1.314h-3.239v6.588
			c0,0.674,0.158,1.189,0.479,1.552c0.318,0.36,0.758,0.542,1.313,0.542c0.301,0,0.59-0.021,0.865-0.065
			c0.277-0.045,0.5-0.091,0.663-0.139v1.278c-0.185,0.086-0.454,0.158-0.812,0.215c-0.355,0.058-0.679,0.086-0.963,0.086
			c-2.16,0-3.24-1.139-3.24-3.414v-6.645h-1.603L160.461,408.989L160.461,408.989z"/>
		<path fill="#666565" d="M169.164,404.648c0-0.388,0.088-0.672,0.266-0.852c0.174-0.18,0.396-0.27,0.656-0.27
			c0.293,0,0.546,0.092,0.758,0.273c0.213,0.186,0.318,0.466,0.318,0.847c0,0.38-0.105,0.663-0.318,0.851
			c-0.212,0.188-0.465,0.281-0.758,0.281c-0.264,0-0.482-0.095-0.656-0.281C169.252,405.313,169.164,405.03,169.164,404.648z
			 M169.309,418.844v-11.168h1.549v11.168H169.309z"/>
		<path fill="#666565" d="M174.586,418.844v-11.168h1.375l0.275,1.509h0.08c0.32-0.536,0.771-0.957,1.352-1.259
			c0.581-0.302,1.23-0.453,1.951-0.453c1.746,0,2.889,0.625,3.424,1.876h0.082c0.333-0.579,0.814-1.035,1.447-1.372
			c0.632-0.336,1.353-0.504,2.16-0.504c1.264,0,2.209,0.324,2.838,0.975c0.627,0.646,0.941,1.687,0.941,3.111v7.286h-1.691v-7.28
			c0-0.893-0.188-1.562-0.569-2.007c-0.381-0.444-0.972-0.669-1.772-0.669c-1.053,0-1.83,0.304-2.334,0.909
			c-0.502,0.605-0.754,1.537-0.754,2.798v6.249h-1.689v-7.281c0-0.892-0.188-1.561-0.57-2.006c-0.381-0.444-0.977-0.669-1.781-0.669
			c-1.063,0-1.836,0.317-2.328,0.955c-0.492,0.637-0.738,1.681-0.738,3.13v5.871L174.586,418.844L174.586,418.844z"/>
		<path fill="#666565" d="M193.162,415.768c0-2.25,1.807-3.429,5.418-3.536l1.898-0.063v-0.702c0-0.888-0.188-1.542-0.564-1.966
			c-0.377-0.422-0.979-0.633-1.807-0.633c-0.928,0-1.979,0.289-3.152,0.865l-0.523-1.299c0.551-0.294,1.151-0.523,1.81-0.691
			c0.653-0.166,1.313-0.25,1.972-0.25c1.33,0,2.314,0.295,2.957,0.887c0.645,0.591,0.963,1.539,0.963,2.843v7.622h-1.254
			l-0.336-1.57h-0.082c-0.557,0.692-1.107,1.161-1.662,1.406c-0.554,0.246-1.24,0.368-2.068,0.368c-1.112,0-1.984-0.284-2.615-0.853
			C193.479,417.626,193.162,416.816,193.162,415.768z M194.955,415.788c0,0.615,0.188,1.082,0.557,1.402
			c0.367,0.32,0.887,0.48,1.551,0.48c1.051,0,1.877-0.29,2.478-0.87c0.603-0.581,0.899-1.393,0.899-2.438v-1.015l-1.688,0.071
			c-1.343,0.048-2.313,0.258-2.9,0.63C195.252,414.425,194.955,415.003,194.955,415.788z"/>
		<path fill="#666565" d="M204.126,408.989v-0.814l1.603-0.703l0.713-2.385h0.979v2.588h3.239v1.314h-3.239v6.588
			c0,0.674,0.158,1.189,0.479,1.552c0.32,0.36,0.759,0.542,1.313,0.542c0.3,0,0.589-0.021,0.865-0.065
			c0.278-0.045,0.5-0.091,0.663-0.139v1.278c-0.186,0.086-0.454,0.158-0.813,0.215c-0.354,0.058-0.679,0.086-0.963,0.086
			c-2.16,0-3.24-1.139-3.24-3.414v-6.645h-1.602L204.126,408.989L204.126,408.989z"/>
		<path fill="#666565" d="M212.352,413.351c0-1.8,0.439-3.229,1.326-4.29c0.883-1.06,2.068-1.589,3.561-1.589
			c1.396,0,2.498,0.46,3.313,1.38c0.813,0.922,1.221,2.137,1.221,3.645v1.069h-7.687c0.034,1.312,0.365,2.306,0.995,2.984
			c0.63,0.68,1.518,1.02,2.658,1.02c1.197,0,2.385-0.251,3.557-0.754v1.509c-0.598,0.258-1.158,0.441-1.689,0.555
			c-0.531,0.111-1.174,0.168-1.926,0.168c-1.646,0-2.945-0.502-3.896-1.508C212.829,416.533,212.352,415.139,212.352,413.351z
			 M214.124,412.189h5.851c0-1.065-0.238-1.884-0.716-2.45c-0.478-0.567-1.155-0.853-2.041-0.853c-0.897,0-1.614,0.292-2.147,0.876
			C214.533,410.349,214.219,411.157,214.124,412.189z"/>
		<path fill="#666565" d="M223.968,410.419c0-0.91,0.37-1.629,1.108-2.157c0.74-0.526,1.754-0.791,3.044-0.791
			c1.194,0,2.362,0.244,3.504,0.733l-0.59,1.377c-1.117-0.463-2.13-0.695-3.037-0.695c-0.804,0-1.408,0.126-1.815,0.378
			c-0.41,0.251-0.613,0.6-0.613,1.042c0,0.301,0.076,0.556,0.229,0.767c0.151,0.211,0.397,0.412,0.739,0.604
			c0.34,0.191,0.994,0.467,1.961,0.828c1.324,0.482,2.216,0.97,2.672,1.46c0.456,0.489,0.686,1.105,0.686,1.85
			c0,1.033-0.385,1.831-1.153,2.393c-0.771,0.562-1.853,0.842-3.243,0.842c-1.479,0-2.631-0.229-3.459-0.692v-1.56
			c0.536,0.271,1.109,0.486,1.727,0.645c0.611,0.156,1.205,0.234,1.773,0.234c0.887,0,1.564-0.141,2.042-0.424
			c0.479-0.283,0.716-0.713,0.716-1.293c0-0.436-0.188-0.809-0.564-1.118c-0.379-0.309-1.115-0.677-2.211-1.099
			c-1.043-0.389-1.78-0.728-2.217-1.018c-0.438-0.29-0.764-0.617-0.977-0.984C224.072,411.37,223.968,410.931,223.968,410.419z"/>
	</g>
	
		<line fill="none" stroke="#666565" stroke-width="0.25" stroke-miterlimit="10" x1="105.674" y1="457.72" x2="105.674" y2="705.751"/>
	
		<line fill="none" stroke="#666565" stroke-width="0.25" stroke-miterlimit="10" x1="236.385" y1="705.751" x2="91.953" y2="705.751"/>
	
		<line fill="none" stroke="#666565" stroke-width="0.25" stroke-miterlimit="10" x1="236.385" y1="457.72" x2="91.953" y2="457.72"/>
</g>
<g id="legend">
	<g>
		<path fill="#5B5B5F" d="M93.064,763.668c0-1.278,0.235-2.397,0.71-3.36c0.473-0.961,1.16-1.702,2.063-2.224
			c0.902-0.521,1.965-0.78,3.188-0.78c1.303,0,2.439,0.237,3.414,0.713l-0.611,1.239c-0.938-0.44-1.88-0.662-2.819-0.662
			c-1.363,0-2.44,0.453-3.23,1.361c-0.789,0.908-1.186,2.151-1.186,3.729c0,1.623,0.382,2.878,1.144,3.763
			c0.761,0.885,1.847,1.328,3.257,1.328c0.865,0,1.854-0.154,2.963-0.468v1.271c-0.859,0.324-1.922,0.486-3.185,0.486
			c-1.828,0-3.236-0.557-4.226-1.666C93.558,767.291,93.064,765.713,93.064,763.668z"/>
		<path fill="#5B5B5F" d="M103.95,765.225c0-1.516,0.378-2.692,1.135-3.539c0.756-0.845,1.807-1.268,3.149-1.268
			c1.298,0,2.33,0.433,3.095,1.297c0.766,0.863,1.146,2.033,1.146,3.509c0,1.521-0.381,2.707-1.144,3.561
			c-0.762,0.854-1.813,1.281-3.158,1.281c-0.83,0-1.565-0.195-2.21-0.589c-0.644-0.393-1.14-0.952-1.488-1.686
			C104.125,767.063,103.95,766.207,103.95,765.225z M105.394,765.225c0,1.191,0.237,2.101,0.715,2.726
			c0.476,0.623,1.176,0.937,2.101,0.937c0.924,0,1.626-0.312,2.104-0.933c0.479-0.621,0.719-1.531,0.719-2.729
			c0-1.186-0.239-2.087-0.719-2.702c-0.479-0.615-1.188-0.924-2.122-0.924c-0.924,0-1.621,0.305-2.092,0.911
			C105.629,763.117,105.394,764.021,105.394,765.225z"/>
		<path fill="#5B5B5F" d="M114.378,762.877c0-0.76,0.309-1.359,0.924-1.799c0.617-0.438,1.463-0.658,2.537-0.658
			c0.995,0,1.97,0.203,2.92,0.611l-0.491,1.146c-0.932-0.386-1.774-0.579-2.53-0.579c-0.67,0-1.175,0.105-1.516,0.314
			c-0.341,0.211-0.511,0.5-0.511,0.869c0,0.25,0.063,0.461,0.191,0.637c0.128,0.177,0.333,0.344,0.617,0.502
			c0.282,0.16,0.827,0.391,1.634,0.689c1.104,0.401,1.846,0.809,2.227,1.217c0.38,0.408,0.57,0.922,0.57,1.541
			c0,0.861-0.32,1.527-0.963,1.994c-0.643,0.469-1.542,0.701-2.702,0.701c-1.231,0-2.192-0.191-2.882-0.578v-1.301
			c0.445,0.229,0.925,0.405,1.437,0.535c0.513,0.133,1.005,0.196,1.479,0.196c0.736,0,1.305-0.118,1.702-0.354
			c0.396-0.233,0.596-0.595,0.596-1.075c0-0.363-0.157-0.675-0.473-0.935c-0.314-0.258-0.93-0.563-1.843-0.915
			c-0.867-0.323-1.483-0.604-1.848-0.847c-0.365-0.242-0.634-0.516-0.813-0.821C114.467,763.668,114.378,763.302,114.378,762.877z"
			/>
		<path fill="#5B5B5F" d="M122.038,761.685v-0.681l1.333-0.586l0.594-1.986h0.815v2.156h2.7v1.097h-2.7v5.49
			c0,0.563,0.133,0.993,0.398,1.294c0.267,0.302,0.632,0.451,1.097,0.451c0.249,0,0.489-0.021,0.722-0.057
			c0.231-0.035,0.416-0.074,0.552-0.113v1.063c-0.151,0.072-0.378,0.134-0.675,0.183c-0.298,0.047-0.564,0.07-0.803,0.07
			c-1.8,0-2.7-0.947-2.7-2.847v-5.537L122.038,761.685L122.038,761.685z"/>
		<path fill="#5B5B5F" d="M133.926,769.896v-9.309h1.146l0.229,1.258h0.068c0.288-0.453,0.693-0.805,1.214-1.055
			c0.521-0.248,1.103-0.373,1.741-0.373c1.121,0,1.964,0.271,2.53,0.811c0.565,0.54,0.85,1.405,0.85,2.595v6.07h-1.41v-6.031
			c0-0.761-0.173-1.326-0.518-1.701c-0.346-0.375-0.887-0.563-1.622-0.563c-0.974,0-1.688,0.266-2.14,0.791
			c-0.453,0.528-0.681,1.397-0.681,2.612v4.894h-1.408L133.926,769.896L133.926,769.896z"/>
		<path fill="#5B5B5F" d="M144.082,765.225c0-1.516,0.378-2.692,1.135-3.539c0.757-0.845,1.807-1.268,3.149-1.268
			c1.298,0,2.329,0.433,3.095,1.297c0.766,0.863,1.146,2.033,1.146,3.509c0,1.521-0.381,2.707-1.146,3.561
			c-0.762,0.854-1.813,1.281-3.157,1.281c-0.83,0-1.566-0.195-2.209-0.589c-0.644-0.393-1.14-0.952-1.488-1.686
			C144.257,767.063,144.082,766.207,144.082,765.225z M145.526,765.225c0,1.191,0.238,2.101,0.715,2.726
			c0.477,0.623,1.176,0.937,2.102,0.937c0.925,0,1.625-0.312,2.104-0.933c0.479-0.621,0.719-1.531,0.719-2.729
			c0-1.186-0.238-2.087-0.719-2.702c-0.479-0.615-1.188-0.924-2.122-0.924c-0.924,0-1.621,0.305-2.092,0.911
			C145.76,763.117,145.526,764.021,145.526,765.225z"/>
		<path fill="#5B5B5F" d="M155.105,769.896v-9.309h1.146l0.229,1.258h0.065c0.288-0.453,0.692-0.805,1.216-1.055
			c0.52-0.248,1.102-0.373,1.739-0.373c1.121,0,1.964,0.271,2.53,0.811c0.564,0.54,0.85,1.405,0.85,2.595v6.07h-1.408v-6.031
			c0-0.761-0.175-1.326-0.52-1.701c-0.348-0.375-0.889-0.563-1.622-0.563c-0.976,0-1.688,0.266-2.142,0.791
			c-0.453,0.528-0.68,1.397-0.68,2.612v4.894h-1.408v0.004h0.004V769.896z"/>
		<path fill="#5B5B5F" d="M164.997,765.879v-1.291h4.17v1.291H164.997z"/>
		<path fill="#5B5B5F" d="M170.127,761.685v-0.638l1.665-0.508v-0.517c0-2.276,0.999-3.416,2.997-3.416
			c0.492,0,1.07,0.099,1.732,0.291l-0.365,1.117c-0.543-0.176-1.008-0.264-1.393-0.264c-0.533,0-0.929,0.177-1.184,0.531
			c-0.255,0.354-0.383,0.92-0.383,1.703v0.602h2.369v1.097H173.2v8.21h-1.409v-8.21L170.127,761.685L170.127,761.685z"/>
		<path fill="#5B5B5F" d="M176.572,767.332c0-1.875,1.507-2.856,4.517-2.947l1.582-0.053v-0.584c0-0.738-0.155-1.285-0.471-1.637
			c-0.316-0.353-0.815-0.529-1.505-0.529c-0.773,0-1.649,0.242-2.627,0.723l-0.438-1.082c0.459-0.245,0.961-0.438,1.509-0.577
			c0.547-0.14,1.094-0.209,1.645-0.209c1.107,0,1.93,0.246,2.465,0.739c0.534,0.492,0.802,1.281,0.802,2.369v6.354h-1.045
			l-0.278-1.313h-0.067c-0.464,0.578-0.925,0.969-1.386,1.174c-0.461,0.203-1.035,0.31-1.728,0.31c-0.927,0-1.651-0.238-2.18-0.712
			C176.836,768.881,176.572,768.207,176.572,767.332z M178.068,767.35c0,0.515,0.152,0.9,0.461,1.169
			c0.309,0.27,0.738,0.401,1.293,0.401c0.875,0,1.563-0.242,2.063-0.727c0.5-0.485,0.75-1.16,0.75-2.029v-0.846l-1.406,0.061
			c-1.117,0.041-1.926,0.216-2.42,0.525C178.314,766.215,178.068,766.695,178.068,767.35z"/>
		<path fill="#5B5B5F" d="M185.71,761.685v-0.681l1.333-0.586l0.596-1.986h0.813v2.156h2.7v1.097h-2.7v5.49
			c0,0.563,0.133,0.993,0.399,1.294c0.266,0.302,0.631,0.451,1.096,0.451c0.248,0,0.488-0.021,0.722-0.057
			c0.231-0.035,0.416-0.074,0.554-0.113v1.063c-0.152,0.072-0.38,0.134-0.677,0.183c-0.298,0.047-0.563,0.07-0.803,0.07
			c-1.8,0-2.7-0.947-2.7-2.847v-5.537L185.71,761.685L185.71,761.685z"/>
		<path fill="#5B5B5F" d="M192.384,767.332c0-1.875,1.507-2.856,4.517-2.947l1.582-0.053v-0.584c0-0.738-0.155-1.285-0.471-1.637
			c-0.314-0.353-0.813-0.529-1.506-0.529c-0.771,0-1.648,0.242-2.627,0.723l-0.438-1.082c0.459-0.245,0.961-0.438,1.508-0.577
			c0.546-0.14,1.094-0.209,1.643-0.209c1.108,0,1.932,0.246,2.467,0.739c0.532,0.492,0.801,1.281,0.801,2.369v6.354h-1.045
			l-0.278-1.313h-0.068c-0.463,0.578-0.925,0.969-1.386,1.174c-0.46,0.203-1.035,0.31-1.727,0.31c-0.926,0-1.652-0.238-2.181-0.712
			C192.648,768.881,192.384,768.207,192.384,767.332z M193.879,767.35c0,0.515,0.153,0.9,0.462,1.169
			c0.31,0.27,0.738,0.401,1.292,0.401c0.876,0,1.564-0.242,2.064-0.727c0.5-0.485,0.75-1.16,0.75-2.029v-0.846l-1.407,0.061
			c-1.118,0.041-1.927,0.216-2.42,0.525C194.126,766.215,193.879,766.695,193.879,767.35z"/>
		<path fill="#5B5B5F" d="M202.752,769.896v-13.213h1.41v13.213H202.752z"/>
		<path fill="#5B5B5F" d="M211.152,765.302c0-1.558,0.371-2.761,1.115-3.607c0.746-0.851,1.812-1.275,3.195-1.275
			c0.447,0,0.896,0.049,1.344,0.146c0.445,0.097,0.799,0.209,1.055,0.341l-0.437,1.195c-0.313-0.125-0.649-0.228-1.019-0.31
			s-0.694-0.123-0.979-0.123c-1.893,0-2.837,1.205-2.837,3.617c0,1.145,0.229,2.021,0.69,2.633c0.462,0.609,1.146,0.916,2.052,0.916
			c0.774,0,1.571-0.166,2.388-0.5v1.248c-0.623,0.322-1.406,0.484-2.354,0.484c-1.348,0-2.389-0.416-3.121-1.244
			C211.518,767.992,211.152,766.818,211.152,765.302z"/>
		<path fill="#5B5B5F" d="M219.252,767.332c0-1.875,1.506-2.856,4.518-2.947l1.582-0.053v-0.584c0-0.738-0.158-1.285-0.473-1.637
			c-0.313-0.353-0.814-0.529-1.505-0.529c-0.772,0-1.647,0.242-2.627,0.723l-0.438-1.082c0.459-0.245,0.961-0.438,1.508-0.577
			c0.547-0.139,1.096-0.209,1.645-0.209c1.107,0,1.932,0.246,2.465,0.739c0.534,0.492,0.805,1.281,0.805,2.369v6.354h-1.045
			l-0.281-1.313h-0.067c-0.463,0.578-0.925,0.969-1.386,1.174c-0.461,0.203-1.035,0.31-1.725,0.31c-0.93,0-1.654-0.238-2.183-0.712
			C219.516,768.881,219.252,768.207,219.252,767.332z M220.747,767.35c0,0.515,0.153,0.9,0.462,1.169
			c0.309,0.27,0.738,0.401,1.292,0.401c0.876,0,1.563-0.242,2.063-0.727c0.5-0.485,0.75-1.16,0.75-2.029v-0.846l-1.406,0.061
			c-1.118,0.041-1.926,0.216-2.42,0.525C220.994,766.215,220.747,766.695,220.747,767.35z"/>
		<path fill="#5B5B5F" d="M229.027,762.877c0-0.76,0.308-1.359,0.924-1.799c0.617-0.438,1.462-0.658,2.537-0.658
			c0.994,0,1.969,0.203,2.92,0.611l-0.492,1.146c-0.932-0.386-1.773-0.579-2.529-0.579c-0.671,0-1.176,0.105-1.516,0.314
			c-0.342,0.211-0.512,0.5-0.512,0.869c0,0.25,0.063,0.461,0.189,0.637c0.127,0.177,0.333,0.344,0.617,0.502
			c0.283,0.16,0.828,0.391,1.634,0.689c1.104,0.401,1.849,0.809,2.229,1.217c0.38,0.408,0.568,0.922,0.568,1.541
			c0,0.861-0.318,1.527-0.964,1.994c-0.642,0.469-1.542,0.701-2.7,0.701c-1.23,0-2.191-0.191-2.884-0.578v-1.301
			c0.446,0.229,0.927,0.405,1.438,0.535c0.513,0.133,1.006,0.196,1.479,0.196c0.737,0,1.307-0.118,1.702-0.354
			c0.396-0.233,0.599-0.595,0.599-1.075c0-0.363-0.158-0.675-0.476-0.935c-0.313-0.258-0.931-0.563-1.842-0.915
			c-0.868-0.323-1.484-0.604-1.849-0.847c-0.365-0.241-0.636-0.516-0.813-0.821C229.115,763.668,229.027,763.302,229.027,762.877z"
			/>
		<path fill="#5B5B5F" d="M237.4,765.318c0-1.5,0.367-2.691,1.104-3.574c0.737-0.883,1.727-1.326,2.969-1.326
			c1.161,0,2.082,0.385,2.76,1.152c0.678,0.766,1.017,1.777,1.017,3.036v0.892h-6.401c0.026,1.094,0.305,1.922,0.828,2.488
			c0.524,0.564,1.266,0.85,2.219,0.85c0.998,0,1.983-0.209,2.963-0.629v1.258c-0.498,0.215-0.967,0.369-1.41,0.463
			c-0.443,0.095-0.979,0.142-1.604,0.142c-1.37,0-2.452-0.42-3.247-1.259C237.798,767.973,237.4,766.809,237.4,765.318z
			 M238.877,764.35h4.874c0-0.889-0.196-1.567-0.595-2.042c-0.396-0.474-0.965-0.709-1.702-0.709c-0.748,0-1.345,0.243-1.79,0.729
			C239.219,762.818,238.956,763.49,238.877,764.35z"/>
		<path fill="#5B5B5F" d="M247.08,762.877c0-0.76,0.309-1.359,0.924-1.799c0.617-0.438,1.462-0.658,2.537-0.658
			c0.995,0,1.971,0.203,2.92,0.611l-0.49,1.146c-0.933-0.386-1.775-0.579-2.531-0.579c-0.67,0-1.174,0.105-1.516,0.314
			c-0.341,0.211-0.511,0.5-0.511,0.869c0,0.25,0.063,0.461,0.19,0.637c0.129,0.177,0.334,0.344,0.617,0.502
			c0.281,0.16,0.826,0.391,1.635,0.689c1.104,0.401,1.846,0.809,2.227,1.217c0.38,0.408,0.57,0.922,0.57,1.541
			c0,0.861-0.32,1.527-0.963,1.994c-0.645,0.469-1.543,0.701-2.703,0.701c-1.23,0-2.191-0.191-2.881-0.578v-1.301
			c0.443,0.229,0.924,0.405,1.437,0.535c0.513,0.133,1.005,0.196,1.479,0.196c0.734,0,1.305-0.118,1.701-0.354
			c0.396-0.233,0.596-0.595,0.596-1.075c0-0.363-0.156-0.675-0.473-0.935c-0.314-0.258-0.931-0.563-1.844-0.915
			c-0.868-0.323-1.482-0.604-1.85-0.847c-0.363-0.242-0.633-0.516-0.813-0.821C247.169,763.668,247.08,763.302,247.08,762.877z"/>
	</g>
	<g>
		<path fill="#5B5B5F" d="M93.064,806.354c0-1.276,0.235-2.396,0.71-3.358c0.473-0.961,1.16-1.703,2.063-2.224
			c0.902-0.521,1.965-0.78,3.188-0.78c1.303,0,2.439,0.237,3.414,0.713l-0.611,1.238c-0.938-0.439-1.88-0.662-2.819-0.662
			c-1.363,0-2.44,0.455-3.23,1.362c-0.789,0.907-1.186,2.15-1.186,3.729c0,1.625,0.382,2.879,1.144,3.764
			c0.761,0.886,1.847,1.328,3.257,1.328c0.865,0,1.854-0.155,2.963-0.467v1.271c-0.859,0.325-1.922,0.487-3.185,0.487
			c-1.828,0-3.236-0.557-4.226-1.666C93.558,809.979,93.064,808.4,93.064,806.354z"/>
		<path fill="#5B5B5F" d="M103.95,807.916c0-1.516,0.378-2.694,1.135-3.539c0.756-0.846,1.807-1.27,3.149-1.27
			c1.298,0,2.33,0.434,3.095,1.297c0.766,0.864,1.146,2.034,1.146,3.51c0,1.521-0.381,2.707-1.144,3.561
			c-0.762,0.854-1.813,1.279-3.158,1.279c-0.83,0-1.565-0.195-2.21-0.586c-0.644-0.393-1.14-0.953-1.488-1.686
			C104.125,809.752,103.95,808.896,103.95,807.916z M105.394,807.916c0,1.189,0.237,2.1,0.715,2.724
			c0.476,0.624,1.176,0.938,2.101,0.938c0.924,0,1.626-0.313,2.104-0.934c0.478-0.62,0.719-1.529,0.719-2.728
			c0-1.188-0.239-2.088-0.719-2.703c-0.48-0.616-1.188-0.924-2.122-0.924c-0.924,0-1.621,0.304-2.092,0.91
			C105.629,805.807,105.394,806.713,105.394,807.916z"/>
		<path fill="#5B5B5F" d="M114.378,805.564c0-0.76,0.309-1.357,0.924-1.798c0.617-0.438,1.463-0.659,2.537-0.659
			c0.995,0,1.97,0.205,2.92,0.61l-0.491,1.148c-0.932-0.388-1.774-0.58-2.53-0.58c-0.67,0-1.175,0.104-1.516,0.314
			c-0.341,0.209-0.511,0.498-0.511,0.867c0,0.25,0.063,0.463,0.191,0.641c0.128,0.176,0.333,0.342,0.617,0.502
			c0.282,0.156,0.827,0.389,1.634,0.688c1.104,0.402,1.846,0.812,2.227,1.219c0.38,0.407,0.57,0.922,0.57,1.539
			c0,0.861-0.32,1.527-0.963,1.995c-0.643,0.468-1.542,0.7-2.702,0.7c-1.231,0-2.192-0.189-2.882-0.577v-1.302
			c0.445,0.229,0.925,0.406,1.437,0.537c0.513,0.131,1.005,0.195,1.479,0.195c0.736,0,1.305-0.119,1.702-0.354
			c0.396-0.234,0.596-0.594,0.596-1.077c0-0.361-0.157-0.673-0.473-0.933c-0.314-0.258-0.93-0.563-1.843-0.914
			c-0.867-0.324-1.483-0.606-1.848-0.849c-0.364-0.239-0.634-0.516-0.813-0.819C114.467,806.357,114.378,805.99,114.378,805.564z"/>
		<path fill="#5B5B5F" d="M122.038,804.375v-0.682l1.333-0.586l0.594-1.986h0.815v2.156h2.7v1.098h-2.7v5.488
			c0,0.563,0.133,0.994,0.398,1.295c0.267,0.301,0.632,0.451,1.097,0.451c0.249,0,0.489-0.021,0.722-0.057
			c0.231-0.036,0.416-0.075,0.552-0.114v1.064c-0.151,0.072-0.378,0.133-0.675,0.182c-0.298,0.047-0.564,0.07-0.803,0.07
			c-1.8,0-2.7-0.947-2.7-2.846v-5.537h-1.333V804.375z"/>
		<path fill="#5B5B5F" d="M132.678,804.375v-0.639l1.664-0.509v-0.518c0-2.275,0.999-3.416,2.997-3.416
			c0.492,0,1.07,0.1,1.732,0.293l-0.365,1.117c-0.543-0.176-1.008-0.265-1.393-0.265c-0.532,0-0.927,0.177-1.182,0.529
			c-0.255,0.354-0.382,0.921-0.382,1.703v0.604h2.369v1.096h-2.369v8.211h-1.409v-8.211h-1.662L132.678,804.375L132.678,804.375z"/>
		<path fill="#5B5B5F" d="M139.123,810.021c0-1.875,1.506-2.854,4.517-2.946l1.582-0.054v-0.584c0-0.737-0.157-1.284-0.472-1.637
			c-0.313-0.352-0.814-0.529-1.505-0.529c-0.773,0-1.648,0.241-2.627,0.724l-0.438-1.082c0.459-0.246,0.961-0.438,1.508-0.576
			c0.546-0.141,1.094-0.209,1.643-0.209c1.108,0,1.93,0.246,2.465,0.738c0.534,0.492,0.803,1.281,0.803,2.369v6.352h-1.045
			l-0.28-1.311h-0.068c-0.463,0.578-0.925,0.969-1.386,1.174c-0.46,0.203-1.035,0.307-1.725,0.307c-0.928,0-1.654-0.234-2.181-0.711
			C139.387,811.57,139.123,810.896,139.123,810.021z M140.618,810.039c0,0.513,0.153,0.9,0.462,1.17
			c0.308,0.267,0.738,0.4,1.292,0.4c0.876,0,1.564-0.242,2.064-0.727c0.5-0.483,0.75-1.161,0.75-2.03v-0.845l-1.407,0.061
			c-1.118,0.041-1.926,0.217-2.42,0.524C140.865,808.904,140.618,809.385,140.618,810.039z"/>
		<path fill="#5B5B5F" d="M148.26,804.375v-0.682l1.334-0.586l0.594-1.986h0.814v2.156h2.7v1.098h-2.7v5.488
			c0,0.563,0.133,0.994,0.398,1.295c0.267,0.301,0.631,0.451,1.097,0.451c0.249,0,0.489-0.021,0.722-0.057
			c0.231-0.036,0.416-0.075,0.553-0.114v1.064c-0.15,0.072-0.377,0.133-0.674,0.182c-0.3,0.047-0.566,0.07-0.805,0.07
			c-1.8,0-2.699-0.947-2.699-2.846v-5.537h-1.334V804.375L148.26,804.375z"/>
		<path fill="#5B5B5F" d="M154.936,810.021c0-1.875,1.506-2.854,4.517-2.946l1.582-0.054v-0.584c0-0.737-0.157-1.284-0.472-1.637
			c-0.313-0.352-0.814-0.529-1.506-0.529c-0.771,0-1.647,0.241-2.627,0.724l-0.438-1.082c0.459-0.246,0.961-0.438,1.508-0.576
			c0.546-0.141,1.094-0.209,1.645-0.209c1.106,0,1.931,0.246,2.465,0.738c0.533,0.492,0.803,1.281,0.803,2.369v6.352h-1.045
			l-0.28-1.311h-0.065c-0.465,0.578-0.928,0.969-1.389,1.174c-0.46,0.203-1.033,0.307-1.725,0.307c-0.928,0-1.654-0.234-2.182-0.711
			C155.197,811.57,154.936,810.896,154.936,810.021z M156.43,810.039c0,0.513,0.152,0.9,0.463,1.17c0.309,0.267,0.736,0.4,1.291,0.4
			c0.877,0,1.563-0.242,2.063-0.727c0.5-0.483,0.75-1.161,0.75-2.03v-0.845l-1.407,0.061c-1.117,0.041-1.926,0.217-2.42,0.524
			C156.678,808.904,156.43,809.385,156.43,810.039z"/>
		<path fill="#5B5B5F" d="M165.303,812.586v-13.213h1.409v13.213H165.303z"/>
		<path fill="#5B5B5F" d="M173.702,807.99c0-1.558,0.372-2.761,1.116-3.607c0.744-0.85,1.811-1.272,3.197-1.272
			c0.444,0,0.895,0.049,1.342,0.145c0.445,0.098,0.799,0.209,1.054,0.341l-0.435,1.196c-0.313-0.125-0.65-0.229-1.021-0.31
			c-0.37-0.082-0.692-0.122-0.978-0.122c-1.894,0-2.838,1.203-2.838,3.615c0,1.146,0.229,2.021,0.691,2.635
			c0.461,0.608,1.146,0.915,2.052,0.915c0.774,0,1.57-0.165,2.386-0.5v1.247c-0.621,0.322-1.406,0.483-2.353,0.483
			c-1.349,0-2.388-0.414-3.12-1.243C174.068,810.683,173.702,809.509,173.702,807.99z"/>
		<path fill="#5B5B5F" d="M181.803,810.021c0-1.875,1.506-2.854,4.516-2.946l1.582-0.054v-0.584c0-0.737-0.155-1.284-0.471-1.637
			c-0.313-0.352-0.813-0.529-1.506-0.529c-0.771,0-1.648,0.241-2.627,0.724l-0.438-1.082c0.459-0.246,0.961-0.438,1.508-0.576
			c0.546-0.141,1.094-0.209,1.643-0.209c1.108,0,1.932,0.246,2.467,0.738c0.532,0.492,0.801,1.281,0.801,2.369v6.352h-1.045
			l-0.278-1.311h-0.067c-0.464,0.578-0.926,0.969-1.387,1.174c-0.46,0.203-1.035,0.307-1.727,0.307c-0.926,0-1.652-0.234-2.18-0.711
			C182.066,811.57,181.803,810.896,181.803,810.021z M183.298,810.039c0,0.513,0.153,0.9,0.462,1.17
			c0.309,0.267,0.738,0.4,1.293,0.4c0.875,0,1.563-0.242,2.063-0.727c0.5-0.483,0.75-1.161,0.75-2.03v-0.845l-1.407,0.061
			c-1.118,0.041-1.926,0.217-2.42,0.524C183.545,808.904,183.298,809.385,183.298,810.039z"/>
		<path fill="#5B5B5F" d="M191.578,805.564c0-0.76,0.309-1.357,0.924-1.798c0.617-0.438,1.462-0.659,2.537-0.659
			c0.995,0,1.969,0.205,2.92,0.61l-0.492,1.148c-0.931-0.388-1.773-0.58-2.529-0.58c-0.67,0-1.174,0.104-1.516,0.314
			c-0.341,0.209-0.511,0.498-0.511,0.867c0,0.25,0.063,0.463,0.19,0.641c0.129,0.176,0.334,0.342,0.615,0.502
			c0.283,0.156,0.828,0.389,1.637,0.688c1.104,0.402,1.846,0.812,2.227,1.219c0.38,0.407,0.57,0.922,0.57,1.539
			c0,0.861-0.32,1.527-0.963,1.995c-0.645,0.468-1.543,0.7-2.703,0.7c-1.23,0-2.191-0.189-2.881-0.577v-1.302
			c0.443,0.229,0.924,0.406,1.437,0.537c0.512,0.131,1.005,0.195,1.479,0.195c0.734,0,1.305-0.119,1.701-0.354
			c0.396-0.235,0.596-0.594,0.596-1.077c0-0.361-0.156-0.673-0.475-0.933c-0.313-0.258-0.929-0.563-1.842-0.914
			c-0.868-0.324-1.482-0.606-1.85-0.849c-0.362-0.239-0.633-0.516-0.813-0.819C191.667,806.357,191.578,805.99,191.578,805.564z"/>
		<path fill="#5B5B5F" d="M199.95,808.009c0-1.5,0.368-2.689,1.104-3.574c0.733-0.884,1.725-1.324,2.967-1.324
			c1.162,0,2.082,0.385,2.76,1.149c0.677,0.767,1.016,1.779,1.016,3.035v0.894h-6.402c0.027,1.094,0.307,1.924,0.83,2.487
			c0.523,0.564,1.264,0.85,2.217,0.85c0.998,0,1.986-0.209,2.963-0.628v1.258c-0.496,0.215-0.967,0.37-1.409,0.463
			c-0.442,0.094-0.979,0.141-1.604,0.141c-1.373,0-2.455-0.42-3.248-1.258C200.348,810.66,199.95,809.498,199.95,808.009z
			 M201.428,807.041h4.873c0-0.891-0.197-1.569-0.595-2.043c-0.396-0.473-0.965-0.709-1.702-0.709c-0.748,0-1.345,0.242-1.79,0.729
			C201.77,805.506,201.507,806.18,201.428,807.041z"/>
		<path fill="#5B5B5F" d="M209.631,805.564c0-0.76,0.309-1.357,0.926-1.798c0.615-0.438,1.461-0.659,2.535-0.659
			c0.995,0,1.971,0.205,2.922,0.61l-0.492,1.148c-0.933-0.388-1.773-0.58-2.529-0.58c-0.672,0-1.176,0.104-1.516,0.314
			c-0.343,0.209-0.513,0.498-0.513,0.867c0,0.25,0.063,0.463,0.19,0.641c0.129,0.176,0.334,0.342,0.617,0.502
			c0.283,0.156,0.828,0.389,1.635,0.688c1.104,0.402,1.846,0.812,2.227,1.219s0.57,0.922,0.57,1.539c0,0.861-0.32,1.527-0.963,1.995
			s-1.543,0.7-2.702,0.7c-1.231,0-2.192-0.189-2.882-0.577v-1.302c0.445,0.229,0.925,0.406,1.438,0.537
			c0.512,0.131,1.004,0.195,1.479,0.195c0.735,0,1.305-0.119,1.7-0.354c0.396-0.235,0.598-0.594,0.598-1.077
			c0-0.361-0.157-0.673-0.475-0.933c-0.313-0.258-0.93-0.563-1.842-0.914c-0.867-0.324-1.484-0.606-1.849-0.849
			c-0.364-0.239-0.634-0.516-0.812-0.819C209.719,806.357,209.631,805.99,209.631,805.564z"/>
	</g>
	<rect x="64.042" y="755.576" fill="#DD9B2B" width="17.803" height="17.799"/>
	<rect x="64.042" y="798.266" fill="#199598" width="17.803" height="17.801"/>
</g>
</svg>
