<?xml version="1.0" encoding="utf-8"?>
<!-- Generator: Adobe Illustrator 16.0.0, SVG Export Plug-In . SVG Version: 6.00 Build 0)  -->
<!DOCTYPE svg PUBLIC "-//W3C//DTD SVG 1.1//EN" "http://www.w3.org/Graphics/SVG/1.1/DTD/svg11.dtd">
<svg version="1.1" id="Capa_1" xmlns="http://www.w3.org/2000/svg" xmlns:xlink="http://www.w3.org/1999/xlink" x="0px" y="0px"
	 width="507.26px" height="420.094px" viewBox="136.134 -31.464 507.26 420.094"
	 enable-background="new 136.134 -31.464 507.26 420.094" xml:space="preserve">
<g id="global-estimates">
	<g>
		<rect x="246.448" y="176.331" fill="#199598" width="100.491" height="122.967"/>
		<rect x="246.448" y="51.266" fill="#DD9B2B" width="100.491" height="125.063"/>
	</g>
	<g>
		<path fill="#9A999E" d="M157.865,56.53v-1.199l3.271-3.299c0.991-1.012,1.648-1.734,1.97-2.166
			c0.313-0.432,0.559-0.853,0.713-1.262c0.159-0.409,0.238-0.85,0.238-1.321c0-0.665-0.201-1.192-0.604-1.582
			s-0.96-0.584-1.677-0.584c-0.516,0-1.004,0.085-1.465,0.256c-0.462,0.17-0.979,0.48-1.542,0.93l-0.743-0.964
			c1.146-0.935,2.393-1.402,3.736-1.402c1.166,0,2.081,0.297,2.738,0.891c0.663,0.594,0.994,1.393,0.994,2.396
			c0,0.79-0.225,1.572-0.663,2.345c-0.438,0.773-1.271,1.751-2.479,2.934l-2.717,2.669v0.068h6.386v1.291h-8.16L157.865,56.53
			L157.865,56.53z"/>
		<path fill="#9A999E" d="M172.437,56.53v-1.199l3.271-3.299c0.996-1.012,1.649-1.734,1.975-2.166
			c0.313-0.432,0.555-0.853,0.713-1.262c0.154-0.409,0.233-0.85,0.233-1.321c0-0.665-0.196-1.192-0.604-1.582
			c-0.398-0.39-0.96-0.584-1.673-0.584c-0.521,0-1.004,0.085-1.465,0.256c-0.467,0.17-0.979,0.48-1.542,0.93l-0.747-0.964
			c1.146-0.935,2.389-1.402,3.731-1.402c1.166,0,2.081,0.297,2.743,0.891c0.663,0.594,0.99,1.393,0.99,2.396
			c0,0.79-0.222,1.572-0.659,2.345c-0.441,0.773-1.271,1.751-2.479,2.934l-2.72,2.669v0.068h6.391v1.291h-8.16L172.437,56.53
			L172.437,56.53z"/>
		<path fill="#9A999E" d="M182.398,50.302c0-2.161,0.338-3.765,1.018-4.813c0.676-1.046,1.707-1.57,3.092-1.57
			c1.351,0,2.368,0.546,3.063,1.638c0.699,1.092,1.052,2.673,1.052,4.744c0,2.146-0.342,3.75-1.018,4.81
			c-0.676,1.06-1.709,1.589-3.104,1.589c-1.34,0-2.355-0.542-3.062-1.627C182.747,53.987,182.398,52.397,182.398,50.302z
			 M183.841,50.302c0,1.802,0.217,3.113,0.641,3.935c0.424,0.822,1.103,1.232,2.021,1.232c0.938,0,1.618-0.417,2.039-1.25
			s0.632-2.139,0.632-3.918c0-1.778-0.21-3.082-0.632-3.909c-0.421-0.827-1.104-1.241-2.039-1.241c-0.927,0-1.604,0.408-2.021,1.224
			C184.054,47.191,183.841,48.5,183.841,50.302z"/>
		<path fill="#9A999E" d="M192.47,51.228c0-2.441,0.474-4.267,1.422-5.476c0.943-1.209,2.354-1.814,4.208-1.814
			c0.646,0,1.146,0.054,1.521,0.161v1.231c-0.438-0.164-0.938-0.247-1.5-0.247c-1.331,0-2.351,0.417-3.052,1.249
			c-0.698,0.833-1.087,2.141-1.151,3.924h0.104c0.623-0.963,1.604-1.445,2.955-1.445c1.121,0,2.003,0.336,2.646,1.008
			c0.646,0.672,0.969,1.584,0.969,2.736c0,1.288-0.354,2.301-1.063,3.039c-0.708,0.738-1.665,1.106-2.866,1.106
			c-1.285,0-2.308-0.482-3.061-1.447C192.847,54.288,192.47,52.946,192.47,51.228z M193.912,52.241c0,0.585,0.109,1.13,0.34,1.636
			c0.229,0.506,0.548,0.906,0.964,1.201s0.891,0.442,1.423,0.442c0.804,0,1.428-0.254,1.873-0.762
			c0.439-0.508,0.667-1.242,0.667-2.202c0-0.823-0.207-1.471-0.62-1.942c-0.413-0.472-1.03-0.707-1.854-0.707
			c-0.509,0-0.979,0.105-1.396,0.315s-0.768,0.5-1.02,0.869C194.038,51.459,193.912,51.844,193.912,52.241z"/>
		<g>
			<path fill="#9A999E" d="M167.532,59.177c0.141-0.542,0.295-1.211,0.465-2.008c0.169-0.797,0.288-1.435,0.354-1.914h1.415
				l0.112,0.18c-0.135,0.521-0.324,1.126-0.583,1.816c-0.254,0.69-0.518,1.332-0.793,1.926H167.532z"/>
		</g>
	</g>
	<g>
		<path fill="#9A999E" d="M192.341,293.067c0-2.161,0.343-3.765,1.019-4.813c0.68-1.047,1.707-1.569,3.096-1.569
			c1.347,0,2.364,0.546,3.063,1.638c0.694,1.094,1.048,2.674,1.048,4.744c0,2.146-0.338,3.75-1.019,4.811
			c-0.676,1.063-1.709,1.594-3.104,1.594c-1.34,0-2.356-0.543-3.058-1.628C192.691,296.753,192.341,295.165,192.341,293.067z
			 M193.785,293.067c0,1.803,0.212,3.113,0.636,3.936c0.429,0.822,1.104,1.231,2.026,1.231c0.938,0,1.614-0.417,2.035-1.25
			c0.425-0.833,0.636-2.139,0.636-3.918c0-1.776-0.21-3.082-0.636-3.907c-0.421-0.828-1.104-1.242-2.035-1.242
			s-1.604,0.408-2.026,1.229C193.997,289.958,193.785,291.267,193.785,293.067z"/>
	</g>
	<g>
		<path fill="#FFFFFF" d="M278.516,237.813h-3.146v-8.621l0.027-1.417l0.055-1.549c-0.521,0.522-0.891,0.866-1.094,1.028
			l-1.712,1.375l-1.521-1.896l4.805-3.818h2.588L278.516,237.813L278.516,237.813z"/>
		<path fill="#FFFFFF" d="M296.378,237.813h-3.146v-8.621l0.031-1.417l0.051-1.549c-0.521,0.522-0.892,0.866-1.09,1.028
			l-1.712,1.375l-1.521-1.896l4.8-3.818h2.588L296.378,237.813L296.378,237.813z"/>
		<path fill="#FFFFFF" d="M310.838,230.364c0,2.604-0.426,4.528-1.274,5.778c-0.854,1.25-2.166,1.875-3.938,1.875
			c-1.723,0-3.019-0.646-3.892-1.937s-1.313-3.195-1.313-5.725c0-2.629,0.43-4.563,1.271-5.813c0.852-1.244,2.156-1.868,3.926-1.868
			c1.719,0,3.021,0.646,3.896,1.956C310.399,225.941,310.838,227.852,310.838,230.364z M303.553,230.364
			c0,1.828,0.153,3.139,0.474,3.93c0.313,0.793,0.851,1.188,1.599,1.188c0.729,0,1.269-0.397,1.589-1.203
			c0.326-0.801,0.489-2.104,0.489-3.913c0-1.824-0.165-3.14-0.494-3.938c-0.33-0.801-0.854-1.197-1.584-1.197
			c-0.736,0-1.271,0.396-1.59,1.197C303.712,227.225,303.553,228.538,303.553,230.364z"/>
		<path fill="#FFFFFF" d="M322.832,237.813h-10.415v-2.189l3.74-3.774c1.104-1.142,1.831-1.926,2.171-2.358
			c0.339-0.438,0.584-0.845,0.729-1.219c0.145-0.374,0.228-0.768,0.228-1.162c0-0.604-0.165-1.042-0.494-1.335
			c-0.33-0.292-0.771-0.438-1.314-0.438c-0.578,0-1.143,0.135-1.687,0.396c-0.543,0.271-1.106,0.646-1.702,1.131l-1.712-2.021
			c0.729-0.625,1.346-1.064,1.824-1.325c0.479-0.259,1.009-0.456,1.58-0.597c0.567-0.145,1.209-0.209,1.916-0.209
			c0.931,0,1.752,0.17,2.466,0.511c0.714,0.342,1.271,0.813,1.661,1.429c0.396,0.609,0.591,1.313,0.591,2.1
			c0,0.688-0.121,1.33-0.356,1.937c-0.242,0.604-0.615,1.22-1.121,1.853c-0.506,0.635-1.396,1.529-2.676,2.699l-1.915,1.809v0.146
			h6.486V237.813L322.832,237.813z"/>
		<g>
			<path fill="#FFFFFF" d="M283.491,240.081c0.141-0.543,0.295-1.211,0.465-2.009c0.169-0.797,0.288-1.436,0.354-1.913h1.415
				l0.117,0.18c-0.14,0.521-0.329,1.133-0.583,1.815c-0.259,0.689-0.521,1.332-0.798,1.927H283.491z"/>
		</g>
	</g>
	<g>
		<path fill="#FFFFFF" d="M278.516,122.047h-3.146v-8.621l0.027-1.417l0.055-1.549c-0.521,0.523-0.891,0.866-1.094,1.029
			l-1.712,1.375l-1.521-1.895l4.805-3.821h2.588L278.516,122.047L278.516,122.047z"/>
		<path fill="#FFFFFF" d="M296.378,122.047h-3.146v-8.621l0.031-1.417l0.051-1.549c-0.521,0.523-0.892,0.866-1.09,1.029
			l-1.712,1.375l-1.521-1.895l4.8-3.821h2.588L296.378,122.047L296.378,122.047z"/>
		<path fill="#FFFFFF" d="M310.838,114.599c0,2.602-0.426,4.528-1.274,5.778c-0.854,1.25-2.166,1.875-3.938,1.875
			c-1.723,0-3.019-0.645-3.892-1.936s-1.313-3.196-1.313-5.717c0-2.629,0.43-4.567,1.271-5.813c0.852-1.246,2.156-1.87,3.926-1.87
			c1.719,0,3.021,0.652,3.896,1.957C310.399,110.177,310.838,112.085,310.838,114.599z M303.553,114.599
			c0,1.828,0.153,3.137,0.474,3.929c0.313,0.792,0.851,1.187,1.599,1.187c0.729,0,1.269-0.401,1.589-1.203
			c0.326-0.801,0.489-2.106,0.489-3.913c0-1.827-0.165-3.14-0.494-3.938c-0.33-0.798-0.854-1.197-1.584-1.197
			c-0.736,0-1.271,0.399-1.59,1.197C303.712,111.458,303.553,112.771,303.553,114.599z"/>
		<path fill="#FFFFFF" d="M323.168,118.96h-1.793v3.087h-3.078v-3.087h-6.354v-2.191l6.532-9.62h2.899v9.365h1.793L323.168,118.96
			L323.168,118.96z M318.297,116.515v-2.527c0-0.421,0.021-1.033,0.056-1.834c0.029-0.802,0.063-1.267,0.082-1.396h-0.082
			c-0.251,0.557-0.559,1.101-0.907,1.631l-2.729,4.127L318.297,116.515L318.297,116.515z"/>
		<g>
			<path fill="#FFFFFF" d="M283.491,124.109c0.141-0.542,0.295-1.211,0.465-2.008c0.169-0.797,0.288-1.435,0.354-1.914h1.415
				l0.117,0.18c-0.14,0.521-0.329,1.126-0.583,1.816c-0.259,0.69-0.521,1.332-0.798,1.926H283.491z"/>
		</g>
	</g>
	<g>
		<path fill="#87868A" d="M184.975,191.971h-14.898v-4.208c0-1.979,0.295-3.407,0.885-4.29c0.596-0.886,1.521-1.325,2.804-1.325
			c0.883,0,1.606,0.246,2.186,0.739c0.573,0.491,0.945,1.211,1.115,2.153h0.104c0.393-2.248,1.578-3.373,3.567-3.373
			c1.332,0,2.371,0.449,3.118,1.35c0.748,0.896,1.121,2.152,1.121,3.77L184.975,191.971L184.975,191.971z M176.445,190.238v-2.853
			c0-1.225-0.188-2.104-0.57-2.641c-0.387-0.537-1.023-0.813-1.938-0.813c-0.834,0-1.438,0.299-1.81,0.896
			c-0.364,0.599-0.555,1.551-0.555,2.854v2.547L176.445,190.238L176.445,190.238z M183.496,190.238v-3.106
			c0-1.194-0.229-2.104-0.698-2.715c-0.465-0.604-1.188-0.912-2.188-0.912c-0.924,0-1.604,0.313-2.034,0.938
			c-0.438,0.621-0.652,1.563-0.652,2.838v2.97L183.496,190.238L183.496,190.238z"/>
		<path fill="#87868A" d="M170.78,178.846c-0.388,0-0.671-0.087-0.852-0.265c-0.185-0.183-0.271-0.396-0.271-0.656
			c0-0.295,0.092-0.547,0.271-0.76c0.188-0.211,0.466-0.316,0.847-0.316c0.384,0,0.664,0.105,0.854,0.316
			c0.188,0.213,0.28,0.465,0.28,0.76c0,0.264-0.098,0.479-0.28,0.656C171.444,178.759,171.159,178.846,170.78,178.846z
			 M184.975,178.704h-11.168v-1.55h11.168V178.704z"/>
		<path fill="#87868A" d="M184.975,173.425h-15.856v-1.691h15.854L184.975,173.425L184.975,173.425z"/>
		<path fill="#87868A" d="M184.975,168.146h-15.856v-1.69h15.854L184.975,168.146L184.975,168.146z"/>
		<path fill="#87868A" d="M170.78,163.011c-0.388,0-0.671-0.09-0.852-0.266c-0.185-0.18-0.271-0.396-0.271-0.656
			c0-0.293,0.092-0.547,0.271-0.758c0.188-0.213,0.466-0.317,0.847-0.317c0.384,0,0.664,0.104,0.854,0.317
			c0.188,0.211,0.28,0.465,0.28,0.758c0,0.264-0.098,0.479-0.28,0.656C171.444,162.92,171.159,163.011,170.78,163.011z
			 M184.975,162.871h-11.168v-1.551h11.168V162.871z"/>
		<path fill="#87868A" d="M179.369,158.209c-1.813,0-3.229-0.455-4.247-1.36c-1.018-0.908-1.521-2.168-1.521-3.78
			c0-1.558,0.521-2.795,1.561-3.713c1.033-0.918,2.438-1.377,4.211-1.377c1.82,0,3.248,0.457,4.271,1.372
			c1.021,0.914,1.536,2.178,1.536,3.789c0,0.996-0.234,1.88-0.704,2.651c-0.475,0.771-1.146,1.367-2.021,1.787
			S180.547,158.209,179.369,158.209z M179.369,156.479c1.43,0,2.521-0.286,3.271-0.856c0.749-0.565,1.124-1.412,1.124-2.521
			s-0.373-1.951-1.119-2.524c-0.745-0.574-1.837-0.86-3.271-0.86c-1.423,0-2.504,0.286-3.243,0.86
			c-0.733,0.573-1.104,1.424-1.104,2.547c0,1.106,0.364,1.943,1.098,2.511C176.84,156.196,177.927,156.479,179.369,156.479z"/>
		<path fill="#87868A" d="M184.975,144.984h-11.168v-1.376l1.509-0.275v-0.081c-0.544-0.347-0.966-0.832-1.27-1.457
			c-0.299-0.625-0.443-1.321-0.443-2.089c0-1.346,0.324-2.357,0.978-3.037c0.646-0.68,1.688-1.02,3.108-1.02h7.286v1.692h-7.239
			c-0.908,0-1.593,0.207-2.042,0.621c-0.445,0.415-0.675,1.063-0.675,1.946c0,1.169,0.313,2.024,0.95,2.568
			c0.633,0.543,1.678,0.815,3.135,0.815h5.871V144.984z"/>
		<path fill="#87868A" d="M179.818,127.929h-1.313V126.4l-0.428,0.021h-0.448l-0.813-0.021v1.528h-1.313v-1.652
			c-1.771-0.265-3.15-0.894-4.146-1.885c-0.992-0.992-1.484-2.292-1.484-3.902c0-1.365,0.334-2.608,1.002-3.729l1.42,0.724
			c-0.582,1.128-0.872,2.13-0.872,3.006c0,2.167,1.357,3.519,4.086,4.055v-5.195h1.308v5.319l0.581,0.021h0.647l0.458-0.021v-4.698
			h1.313v4.554c1.229-0.251,2.185-0.721,2.854-1.41c0.674-0.689,1.014-1.611,1.014-2.767c0-1.06-0.229-2.109-0.681-3.148h1.521
			c0.438,0.992,0.653,2.068,0.653,3.23c0,1.609-0.457,2.905-1.371,3.887c-0.913,0.981-2.243,1.628-3.989,1.94L179.818,127.929
			L179.818,127.929z"/>
	</g>
	
		<line fill="none" stroke="#333333" stroke-width="0.25" stroke-miterlimit="10" x1="346.943" y1="299.296" x2="202.513" y2="299.296"/>
	
		<line fill="none" stroke="#333333" stroke-width="0.25" stroke-miterlimit="10" x1="216.233" y1="51.266" x2="216.233" y2="299.296"/>
	
		<line fill="none" stroke="#333333" stroke-width="0.25" stroke-miterlimit="10" x1="346.943" y1="51.266" x2="202.513" y2="51.266"/>
</g>
<g id="EU28-estimates">
	<g>
		<rect x="508.178" y="180.509" fill="#199598" width="100.496" height="118.786"/>
		<rect x="508.178" y="51.315" fill="#DD9B2B" width="100.496" height="129.194"/>
	</g>
	<g>
		<path fill="#9A999E" d="M430.696,53.685v-1.239l5.896-8.399h1.494v8.347h1.854v1.291h-1.854v2.845h-1.342v-2.845H430.696z
			 M432.118,52.394h4.629v-4.127c0-0.81,0.027-1.724,0.084-2.743h-0.063c-0.271,0.543-0.525,0.994-0.766,1.35L432.118,52.394z"/>
		<path fill="#9A999E" d="M440.641,53.685v-1.239l5.893-8.399h1.494v8.347h1.859v1.291h-1.859v2.845h-1.332v-2.845H440.641z
			 M442.065,52.394h4.629v-4.127c0-0.81,0.027-1.724,0.084-2.743h-0.063c-0.271,0.543-0.525,0.994-0.771,1.35L442.065,52.394z"/>
		<path fill="#9A999E" d="M451.229,51.227c0-2.441,0.475-4.267,1.422-5.476c0.949-1.209,2.355-1.814,4.209-1.814
			c0.646,0,1.146,0.054,1.521,0.161v1.231c-0.439-0.164-0.939-0.247-1.5-0.247c-1.33,0-2.355,0.417-3.059,1.249
			c-0.693,0.833-1.086,2.141-1.145,3.924h0.102c0.623-0.963,1.607-1.445,2.955-1.445c1.119,0,2.004,0.336,2.648,1.008
			c0.645,0.672,0.969,1.584,0.969,2.736c0,1.288-0.355,2.301-1.064,3.039c-0.707,0.738-1.664,1.106-2.865,1.106
			c-1.281,0-2.309-0.482-3.061-1.447C451.606,54.287,451.229,52.946,451.229,51.227z M452.677,52.24c0,0.585,0.105,1.13,0.34,1.636
			c0.227,0.505,0.547,0.906,0.963,1.201c0.418,0.295,0.891,0.443,1.424,0.443c0.803,0,1.428-0.254,1.871-0.762
			c0.445-0.508,0.668-1.242,0.668-2.202c0-0.823-0.207-1.471-0.621-1.942c-0.412-0.472-1.029-0.707-1.85-0.707
			c-0.52,0-0.98,0.105-1.402,0.315c-0.424,0.21-0.764,0.5-1.014,0.869C452.803,51.459,452.677,51.843,452.677,52.24z"/>
	</g>
	<g>
		<path fill="#9A999E" d="M451.102,293.066c0-2.161,0.338-3.765,1.014-4.813c0.676-1.047,1.705-1.569,3.092-1.569
			c1.354,0,2.367,0.546,3.066,1.638c0.699,1.094,1.047,2.674,1.047,4.744c0,2.146-0.338,3.75-1.014,4.811
			c-0.676,1.063-1.709,1.594-3.104,1.594c-1.34,0-2.354-0.543-3.059-1.628C451.448,296.752,451.102,295.164,451.102,293.066z
			 M452.55,293.066c0,1.803,0.211,3.113,0.635,3.936c0.424,0.824,1.1,1.231,2.021,1.231c0.938,0,1.617-0.417,2.039-1.25
			c0.42-0.833,0.641-2.139,0.641-3.918c0-1.776-0.221-3.082-0.641-3.907c-0.422-0.828-1.102-1.242-2.039-1.242
			c-0.928,0-1.604,0.408-2.021,1.229C452.76,289.957,452.55,291.266,452.55,293.066z"/>
	</g>
	<g>
		<path fill="#FFFFFF" d="M550.991,237.813h-10.414v-2.189l3.738-3.774c1.107-1.142,1.832-1.926,2.172-2.358
			c0.34-0.434,0.584-0.845,0.732-1.219c0.146-0.374,0.225-0.768,0.225-1.162c0-0.604-0.164-1.042-0.494-1.335
			c-0.328-0.292-0.77-0.438-1.313-0.438c-0.576,0-1.146,0.135-1.688,0.396c-0.545,0.271-1.104,0.646-1.693,1.131l-1.721-2.021
			c0.732-0.625,1.35-1.064,1.824-1.325c0.482-0.259,1.008-0.456,1.578-0.597c0.57-0.145,1.209-0.209,1.916-0.209
			c0.932,0,1.754,0.17,2.467,0.511c0.713,0.342,1.271,0.813,1.66,1.429c0.396,0.609,0.592,1.313,0.592,2.1
			c0,0.688-0.121,1.33-0.354,1.937c-0.242,0.604-0.615,1.22-1.121,1.853c-0.506,0.635-1.398,1.529-2.676,2.699l-1.916,1.809v0.146
			h6.482v2.62H550.991z"/>
		<path fill="#FFFFFF" d="M560.278,237.813h-3.146v-8.621l0.023-1.417l0.059-1.549c-0.523,0.522-0.895,0.866-1.1,1.028l-1.711,1.375
			l-1.518-1.896l4.799-3.818h2.588L560.278,237.813L560.278,237.813z"/>
		<path fill="#FFFFFF" d="M575.155,234.726h-1.793v3.087h-3.076v-3.087h-6.354v-2.19l6.531-9.619h2.896v9.363h1.793L575.155,234.726
			L575.155,234.726z M570.282,232.279v-2.525c0-0.422,0.021-1.026,0.061-1.834c0.023-0.803,0.061-1.269,0.078-1.396h-0.078
			c-0.258,0.56-0.563,1.104-0.908,1.632l-2.73,4.129L570.282,232.279L570.282,232.279z"/>
	</g>
	<g>
		<path fill="#FFFFFF" d="M550.991,122.047h-10.414v-2.191l3.738-3.781c1.107-1.134,1.832-1.92,2.172-2.359
			c0.34-0.439,0.584-0.844,0.732-1.218c0.146-0.374,0.225-0.761,0.225-1.162c0-0.598-0.164-1.042-0.494-1.335
			c-0.328-0.292-0.77-0.438-1.313-0.438c-0.576,0-1.146,0.132-1.688,0.397c-0.545,0.265-1.104,0.642-1.693,1.131l-1.721-2.028
			c0.732-0.625,1.35-1.066,1.824-1.325c0.482-0.258,1.008-0.457,1.578-0.596s1.209-0.209,1.916-0.209c0.932,0,1.754,0.17,2.467,0.51
			c0.713,0.34,1.271,0.815,1.66,1.427c0.396,0.611,0.592,1.311,0.592,2.099c0,0.686-0.121,1.33-0.354,1.931
			c-0.242,0.601-0.615,1.217-1.121,1.849s-1.398,1.532-2.676,2.701l-1.916,1.804v0.143h6.482v2.65H550.991z"/>
		<path fill="#FFFFFF" d="M562.323,110.481c0,0.931-0.273,1.722-0.846,2.375c-0.563,0.652-1.355,1.101-2.373,1.345v0.062
			c1.201,0.149,2.111,0.515,2.73,1.095c0.609,0.581,0.928,1.364,0.928,2.349c0,1.433-0.521,2.549-1.564,3.347
			c-1.039,0.798-2.52,1.197-4.453,1.197c-1.607,0-3.049-0.268-4.299-0.805v-2.68c0.576,0.292,1.213,0.53,1.904,0.713
			c0.693,0.184,1.379,0.275,2.059,0.275c1.039,0,1.814-0.176,2.313-0.53c0.496-0.353,0.742-0.92,0.742-1.702
			c0-0.7-0.283-1.196-0.854-1.488c-0.572-0.292-1.479-0.438-2.729-0.438h-1.137v-2.416h1.152c1.154,0,1.998-0.151,2.531-0.453
			s0.801-0.82,0.801-1.554c0-1.127-0.707-1.691-2.119-1.691c-0.49,0-0.988,0.082-1.494,0.245s-1.063,0.445-1.686,0.846l-1.457-2.17
			c1.354-0.979,2.979-1.468,4.854-1.468c1.541,0,2.768,0.313,3.652,0.938C561.884,108.498,562.323,109.367,562.323,110.481z"/>
		<path fill="#FFFFFF" d="M574.819,122.047h-10.414v-2.191l3.74-3.781c1.107-1.134,1.83-1.92,2.17-2.359
			c0.34-0.439,0.584-0.844,0.734-1.218c0.145-0.374,0.225-0.761,0.225-1.162c0-0.598-0.166-1.042-0.494-1.335
			c-0.33-0.292-0.77-0.438-1.313-0.438c-0.578,0-1.146,0.132-1.689,0.397s-1.104,0.642-1.701,1.131l-1.713-2.028
			c0.734-0.625,1.344-1.066,1.824-1.325c0.482-0.258,1.01-0.457,1.58-0.596s1.209-0.209,1.916-0.209c0.93,0,1.752,0.17,2.465,0.51
			c0.715,0.34,1.271,0.815,1.662,1.427c0.393,0.611,0.59,1.311,0.59,2.099c0,0.686-0.119,1.33-0.354,1.931
			c-0.24,0.601-0.615,1.217-1.121,1.849c-0.514,0.632-1.396,1.532-2.684,2.701l-1.916,1.804v0.143h6.492V122.047L574.819,122.047z"
			/>
	</g>
	<g>
		<path fill="#87868A" d="M447.137,191.97h-14.9v-4.208c0-1.979,0.297-3.407,0.887-4.29c0.6-0.886,1.523-1.325,2.807-1.325
			c0.883,0,1.604,0.246,2.186,0.739c0.574,0.491,0.945,1.211,1.115,2.153h0.104c0.396-2.248,1.578-3.373,3.57-3.373
			c1.332,0,2.371,0.449,3.119,1.35c0.746,0.9,1.121,2.152,1.121,3.77L447.137,191.97L447.137,191.97z M438.606,190.237v-2.853
			c0-1.225-0.191-2.104-0.574-2.641c-0.383-0.537-1.021-0.813-1.938-0.813c-0.834,0-1.439,0.299-1.814,0.896
			c-0.359,0.601-0.555,1.551-0.555,2.854v2.547L438.606,190.237L438.606,190.237z M445.657,190.237v-3.106
			c0-1.194-0.229-2.104-0.689-2.715c-0.475-0.604-1.193-0.912-2.189-0.912c-0.924,0-1.604,0.313-2.037,0.938
			c-0.436,0.621-0.646,1.563-0.646,2.838v2.97L445.657,190.237L445.657,190.237z"/>
		<path fill="#87868A" d="M432.938,178.845c-0.387,0-0.67-0.087-0.85-0.265c-0.189-0.183-0.271-0.396-0.271-0.656
			c0-0.295,0.09-0.547,0.273-0.76c0.184-0.211,0.467-0.316,0.846-0.316c0.381,0,0.664,0.105,0.852,0.316
			c0.189,0.213,0.281,0.465,0.281,0.76c0,0.264-0.094,0.479-0.281,0.656C433.604,178.758,433.319,178.845,432.938,178.845z
			 M447.137,178.704h-11.17v-1.55h11.17V178.704z"/>
		<path fill="#87868A" d="M447.137,173.424h-15.859v-1.691h15.855L447.137,173.424L447.137,173.424z"/>
		<path fill="#87868A" d="M447.137,168.146h-15.859v-1.69h15.855L447.137,168.146L447.137,168.146z"/>
		<path fill="#87868A" d="M432.938,163.01c-0.387,0-0.67-0.09-0.85-0.266c-0.189-0.18-0.271-0.396-0.271-0.656
			c0-0.293,0.09-0.547,0.273-0.758c0.184-0.213,0.467-0.317,0.846-0.317c0.381,0,0.664,0.104,0.852,0.317
			c0.189,0.211,0.281,0.465,0.281,0.758c0,0.264-0.094,0.479-0.281,0.656C433.604,162.92,433.319,163.01,432.938,163.01z
			 M447.137,162.87h-11.17v-1.551h11.17V162.87z"/>
		<path fill="#87868A" d="M441.53,158.209c-1.813,0-3.229-0.455-4.248-1.36c-1.014-0.908-1.52-2.168-1.52-3.78
			c0-1.558,0.518-2.795,1.557-3.713c1.037-0.918,2.439-1.377,4.211-1.377c1.824,0,3.248,0.457,4.271,1.372
			c1.02,0.914,1.537,2.178,1.537,3.789c0,0.996-0.236,1.88-0.705,2.651c-0.479,0.771-1.146,1.367-2.021,1.787
			S442.702,158.209,441.53,158.209z M441.53,156.478c1.43,0,2.521-0.286,3.271-0.856c0.748-0.565,1.123-1.412,1.123-2.521
			s-0.373-1.951-1.119-2.524c-0.744-0.574-1.836-0.86-3.273-0.86c-1.422,0-2.504,0.286-3.242,0.86
			c-0.73,0.573-1.104,1.424-1.104,2.547c0,1.106,0.363,1.943,1.092,2.511C438.995,156.196,440.091,156.478,441.53,156.478z"/>
		<path fill="#87868A" d="M447.137,144.984h-11.17v-1.376l1.51-0.275v-0.081c-0.543-0.347-0.965-0.832-1.264-1.457
			c-0.309-0.625-0.449-1.321-0.449-2.089c0-1.346,0.324-2.357,0.973-3.037c0.65-0.68,1.689-1.02,3.113-1.02h7.287v1.692h-7.24
			c-0.912,0-1.594,0.207-2.043,0.621c-0.449,0.415-0.674,1.063-0.674,1.946c0,1.169,0.313,2.024,0.951,2.568
			c0.633,0.543,1.678,0.815,3.135,0.815h5.871V144.984z"/>
		<path fill="#87868A" d="M441.979,127.928h-1.314V126.4l-0.428,0.021h-0.449l-0.813-0.021v1.528h-1.314v-1.652
			c-1.77-0.265-3.146-0.894-4.145-1.885c-0.992-0.992-1.488-2.292-1.488-3.902c0-1.365,0.334-2.608,1.002-3.729l1.418,0.724
			c-0.58,1.128-0.871,2.13-0.871,3.006c0,2.167,1.361,3.519,4.086,4.055v-5.195h1.314v5.319l0.582,0.021h0.645l0.461-0.021v-4.698
			h1.313v4.554c1.229-0.251,2.182-0.721,2.854-1.41c0.678-0.689,1.014-1.611,1.014-2.767c0-1.06-0.229-2.109-0.686-3.148h1.521
			c0.436,0.992,0.65,2.068,0.65,3.23c0,1.609-0.453,2.905-1.367,3.887c-0.914,0.981-2.244,1.628-3.99,1.94v1.671H441.979z"/>
	</g>
	
		<line fill="none" stroke="#333333" stroke-width="0.25" stroke-miterlimit="10" x1="477.968" y1="51.265" x2="477.968" y2="299.295"/>
	
		<line fill="none" stroke="#333333" stroke-width="0.25" stroke-miterlimit="10" x1="608.678" y1="299.295" x2="464.241" y2="299.295"/>
	
		<line fill="none" stroke="#333333" stroke-width="0.25" stroke-miterlimit="10" x1="608.678" y1="51.265" x2="464.241" y2="51.265"/>
</g>
<g>
	<g>
		<rect x="233.61" y="342.687" fill="#DD9B2B" width="17.803" height="17.801"/>
		<g>
			<path fill="#5B5B5F" d="M264.849,355.388c-0.448,0.225-1.345,0.447-2.493,0.447c-2.661,0-4.665-1.684-4.665-4.775
				c0-2.955,2.004-4.959,4.934-4.959c1.177,0,1.919,0.252,2.238,0.42l-0.294,0.994c-0.462-0.223-1.119-0.395-1.902-0.395
				c-2.215,0-3.687,1.414-3.687,3.896c0,2.313,1.331,3.797,3.628,3.797c0.742,0,1.499-0.154,1.989-0.393L264.849,355.388z"/>
			<path fill="#5B5B5F" d="M272.311,352.251c0,2.508-1.737,3.602-3.376,3.602c-1.835,0-3.25-1.346-3.25-3.488
				c0-2.27,1.484-3.602,3.362-3.602C270.994,348.763,272.311,350.177,272.311,352.251z M266.932,352.319
				c0,1.486,0.854,2.605,2.059,2.605c1.18,0,2.063-1.105,2.063-2.633c0-1.148-0.574-2.605-2.031-2.605
				S266.932,351.032,266.932,352.319z"/>
			<path fill="#5B5B5F" d="M273.694,354.435c0.364,0.238,1.009,0.49,1.625,0.49c0.896,0,1.316-0.447,1.316-1.008
				c0-0.592-0.353-0.91-1.261-1.246c-1.222-0.438-1.794-1.107-1.794-1.92c0-1.096,0.884-1.988,2.341-1.988
				c0.686,0,1.288,0.195,1.667,0.42l-0.312,0.895c-0.267-0.168-0.757-0.391-1.387-0.391c-0.729,0-1.135,0.42-1.135,0.924
				c0,0.561,0.403,0.813,1.289,1.148c1.177,0.445,1.775,1.037,1.775,2.045c0,1.188-0.924,2.031-2.534,2.031
				c-0.74,0-1.43-0.186-1.903-0.465L273.694,354.435z"/>
			<path fill="#5B5B5F" d="M280.891,346.97v1.947h1.765v0.938h-1.765v3.654c0,0.842,0.237,1.314,0.924,1.314
				c0.322,0,0.563-0.041,0.715-0.084l0.059,0.928c-0.238,0.098-0.616,0.168-1.096,0.168c-0.571,0-1.033-0.186-1.327-0.521
				c-0.354-0.363-0.479-0.969-0.479-1.768v-3.695h-1.051v-0.938h1.051v-1.625L280.891,346.97z"/>
			<path fill="#5B5B5F" d="M287.008,350.753c0-0.701-0.017-1.273-0.059-1.836h1.096l0.066,1.119h0.028
				c0.336-0.645,1.12-1.273,2.241-1.273c0.938,0,2.396,0.563,2.396,2.889v4.047h-1.23v-3.906c0-1.094-0.405-2.004-1.568-2.004
				c-0.813,0-1.442,0.574-1.653,1.264c-0.056,0.15-0.084,0.361-0.084,0.57v4.076h-1.229L287.008,350.753L287.008,350.753z"/>
			<path fill="#5B5B5F" d="M300.913,352.251c0,2.508-1.734,3.602-3.375,3.602c-1.836,0-3.25-1.346-3.25-3.488
				c0-2.27,1.483-3.602,3.361-3.602C299.595,348.763,300.913,350.177,300.913,352.251z M295.534,352.319
				c0,1.486,0.854,2.605,2.062,2.605c1.177,0,2.06-1.105,2.06-2.633c0-1.148-0.571-2.605-2.028-2.605
				S295.534,351.032,295.534,352.319z"/>
			<path fill="#5B5B5F" d="M302.465,350.753c0-0.701-0.017-1.273-0.059-1.836h1.096l0.066,1.119h0.028
				c0.336-0.645,1.12-1.273,2.241-1.273c0.938,0,2.396,0.563,2.396,2.889v4.047h-1.23v-3.906c0-1.094-0.406-2.004-1.568-2.004
				c-0.813,0-1.442,0.574-1.653,1.264c-0.056,0.15-0.084,0.361-0.084,0.57v4.076h-1.229L302.465,350.753L302.465,350.753z"/>
			<path fill="#5B5B5F" d="M313.091,351.452v0.91h-3.46v-0.91H313.091z"/>
			<path fill="#5B5B5F" d="M314.657,355.696v-5.842h-0.949v-0.938h0.949v-0.322c0-0.951,0.21-1.818,0.784-2.365
				c0.463-0.447,1.079-0.633,1.653-0.633c0.435,0,0.813,0.102,1.051,0.197l-0.168,0.951c-0.183-0.084-0.435-0.152-0.785-0.152
				c-1.05,0-1.313,0.926-1.313,1.961v0.363h1.639v0.938h-1.639v5.842H314.657L314.657,355.696z"/>
			<path fill="#5B5B5F" d="M322.376,355.696l-0.101-0.854h-0.042c-0.378,0.529-1.104,1.008-2.072,1.008
				c-1.372,0-2.071-0.967-2.071-1.947c0-1.639,1.457-2.535,4.074-2.52v-0.143c0-0.563-0.152-1.566-1.541-1.566
				c-0.631,0-1.286,0.193-1.766,0.504l-0.28-0.814c0.563-0.361,1.373-0.604,2.229-0.604c2.073,0,2.577,1.416,2.577,2.773v2.535
				c0,0.588,0.025,1.162,0.109,1.625h-1.118L322.376,355.696L322.376,355.696z M322.191,352.235
				c-1.345-0.027-2.872,0.211-2.872,1.527c0,0.799,0.532,1.176,1.163,1.176c0.882,0,1.442-0.559,1.642-1.133
				c0.041-0.127,0.067-0.27,0.067-0.396V352.235z"/>
			<path fill="#5B5B5F" d="M326.798,346.97v1.947h1.765v0.938h-1.765v3.654c0,0.842,0.234,1.314,0.924,1.314
				c0.322,0,0.561-0.041,0.715-0.084l0.057,0.928c-0.236,0.098-0.614,0.168-1.094,0.168c-0.574,0-1.036-0.186-1.33-0.521
				c-0.351-0.363-0.477-0.969-0.477-1.768v-3.695h-1.051v-0.938h1.051v-1.625L326.798,346.97z"/>
			<path fill="#5B5B5F" d="M333.699,355.696l-0.098-0.854h-0.042c-0.378,0.529-1.106,1.008-2.073,1.008
				c-1.373,0-2.073-0.967-2.073-1.947c0-1.639,1.457-2.535,4.076-2.52v-0.143c0-0.563-0.151-1.566-1.541-1.566
				c-0.63,0-1.288,0.193-1.765,0.504l-0.28-0.814c0.563-0.361,1.373-0.604,2.229-0.604c2.07,0,2.577,1.416,2.577,2.773v2.535
				c0,0.588,0.025,1.162,0.109,1.625h-1.121L333.699,355.696L333.699,355.696z M333.517,352.235
				c-1.345-0.027-2.872,0.211-2.872,1.527c0,0.799,0.532,1.176,1.163,1.176c0.882,0,1.442-0.559,1.639-1.133
				c0.042-0.127,0.07-0.27,0.07-0.396V352.235z"/>
			<path fill="#5B5B5F" d="M336.693,345.751h1.232v9.945h-1.232V345.751z"/>
			<path fill="#5B5B5F" d="M347.798,355.444c-0.322,0.168-1.037,0.393-1.947,0.393c-2.045,0-3.376-1.389-3.376-3.459
				c0-2.09,1.429-3.602,3.642-3.602c0.729,0,1.373,0.184,1.709,0.352l-0.277,0.951c-0.294-0.168-0.756-0.322-1.432-0.322
				c-1.555,0-2.395,1.148-2.395,2.563c0,1.57,1.008,2.535,2.353,2.535c0.701,0,1.163-0.182,1.517-0.336L347.798,355.444z"/>
			<path fill="#5B5B5F" d="M352.99,355.696l-0.098-0.854h-0.042c-0.378,0.529-1.106,1.008-2.073,1.008
				c-1.373,0-2.073-0.967-2.073-1.947c0-1.639,1.457-2.535,4.076-2.52v-0.143c0-0.563-0.151-1.566-1.541-1.566
				c-0.63,0-1.288,0.193-1.765,0.504l-0.28-0.814c0.563-0.361,1.373-0.604,2.229-0.604c2.07,0,2.577,1.416,2.577,2.773v2.535
				c0,0.588,0.025,1.162,0.109,1.625h-1.121L352.99,355.696L352.99,355.696z M352.808,352.235c-1.345-0.027-2.872,0.211-2.872,1.527
				c0,0.799,0.532,1.176,1.163,1.176c0.882,0,1.442-0.559,1.639-1.133c0.042-0.127,0.07-0.27,0.07-0.396V352.235z"/>
			<path fill="#5B5B5F" d="M355.816,354.435c0.364,0.238,1.009,0.49,1.625,0.49c0.896,0,1.316-0.447,1.316-1.008
				c0-0.592-0.353-0.91-1.261-1.246c-1.222-0.438-1.796-1.107-1.796-1.92c0-1.096,0.886-1.988,2.343-1.988
				c0.686,0,1.288,0.195,1.667,0.42l-0.312,0.895c-0.267-0.168-0.757-0.391-1.387-0.391c-0.729,0-1.135,0.42-1.135,0.924
				c0,0.561,0.403,0.813,1.289,1.148c1.177,0.445,1.775,1.037,1.775,2.045c0,1.188-0.924,2.031-2.535,2.031
				c-0.739,0-1.429-0.186-1.902-0.465L355.816,354.435z"/>
			<path fill="#5B5B5F" d="M362.215,352.53c0.025,1.666,1.093,2.354,2.325,2.354c0.883,0,1.414-0.152,1.877-0.352l0.21,0.885
				c-0.437,0.195-1.18,0.42-2.255,0.42c-2.09,0-3.334-1.373-3.334-3.418c0-2.047,1.205-3.656,3.18-3.656
				c2.213,0,2.802,1.947,2.802,3.193c0,0.252-0.028,0.447-0.042,0.574H362.215L362.215,352.53z M365.829,351.647
				c0.017-0.785-0.319-2.004-1.709-2.004c-1.244,0-1.793,1.15-1.892,2.004H365.829z"/>
			<path fill="#5B5B5F" d="M368.377,354.435c0.361,0.238,1.009,0.49,1.625,0.49c0.896,0,1.313-0.447,1.313-1.008
				c0-0.592-0.35-0.91-1.261-1.246c-1.219-0.438-1.793-1.107-1.793-1.92c0-1.096,0.883-1.988,2.34-1.988
				c0.688,0,1.288,0.195,1.667,0.42l-0.309,0.895c-0.27-0.168-0.76-0.391-1.39-0.391c-0.729,0-1.135,0.42-1.135,0.924
				c0,0.561,0.406,0.813,1.289,1.148c1.177,0.445,1.778,1.037,1.778,2.045c0,1.188-0.926,2.031-2.535,2.031
				c-0.742,0-1.43-0.186-1.905-0.465L368.377,354.435z"/>
		</g>
	</g>
	<g>
		<rect x="434.554" y="342.521" fill="#199598" width="17.803" height="17.803"/>
		<g>
			<path fill="#5B5B5F" d="M465.794,355.224c-0.448,0.225-1.345,0.447-2.493,0.447c-2.661,0-4.665-1.682-4.665-4.775
				c0-2.955,2.004-4.959,4.934-4.959c1.177,0,1.919,0.252,2.238,0.42l-0.294,0.994c-0.462-0.225-1.119-0.393-1.902-0.393
				c-2.215,0-3.687,1.414-3.687,3.895c0,2.313,1.331,3.797,3.628,3.797c0.742,0,1.499-0.154,1.989-0.393L465.794,355.224z"/>
			<path fill="#5B5B5F" d="M473.256,352.085c0,2.508-1.737,3.602-3.376,3.602c-1.835,0-3.25-1.346-3.25-3.488
				c0-2.27,1.484-3.6,3.362-3.6C471.938,348.599,473.256,350.013,473.256,352.085z M467.877,352.155
				c0,1.486,0.854,2.605,2.059,2.605c1.18,0,2.063-1.105,2.063-2.635c0-1.146-0.574-2.604-2.031-2.604
				S467.877,350.868,467.877,352.155z"/>
			<path fill="#5B5B5F" d="M474.638,354.271c0.364,0.238,1.009,0.49,1.625,0.49c0.896,0,1.316-0.447,1.316-1.01
				c0-0.588-0.353-0.908-1.261-1.244c-1.222-0.436-1.794-1.107-1.794-1.92c0-1.094,0.884-1.988,2.341-1.988
				c0.686,0,1.289,0.195,1.668,0.42l-0.313,0.895c-0.266-0.168-0.757-0.391-1.387-0.391c-0.729,0-1.135,0.42-1.135,0.924
				c0,0.563,0.403,0.814,1.289,1.148c1.178,0.447,1.775,1.037,1.775,2.045c0,1.189-0.924,2.029-2.534,2.029
				c-0.74,0-1.43-0.182-1.903-0.461L474.638,354.271z"/>
			<path fill="#5B5B5F" d="M481.837,346.806v1.945h1.764v0.938h-1.764v3.656c0,0.84,0.236,1.314,0.924,1.314
				c0.322,0,0.563-0.041,0.715-0.084l0.059,0.924c-0.238,0.102-0.617,0.17-1.096,0.17c-0.572,0-1.033-0.184-1.328-0.52
				c-0.354-0.363-0.479-0.967-0.479-1.766v-3.697h-1.051v-0.939h1.051v-1.625L481.837,346.806z"/>
			<path fill="#5B5B5F" d="M488.079,355.532v-5.842h-0.953v-0.938h0.953v-0.322c0-0.953,0.209-1.82,0.783-2.367
				c0.463-0.447,1.08-0.631,1.65-0.631c0.438,0,0.814,0.1,1.055,0.197l-0.17,0.951c-0.184-0.084-0.436-0.152-0.783-0.152
				c-1.053,0-1.316,0.924-1.316,1.961v0.363h1.639v0.938h-1.639v5.842H488.079L488.079,355.532z"/>
			<path fill="#5B5B5F" d="M495.794,355.532l-0.098-0.854h-0.041c-0.379,0.531-1.107,1.01-2.074,1.01
				c-1.373,0-2.072-0.967-2.072-1.947c0-1.639,1.457-2.535,4.076-2.52v-0.143c0-0.561-0.154-1.566-1.541-1.566
				c-0.631,0-1.289,0.193-1.766,0.504l-0.279-0.813c0.561-0.363,1.373-0.604,2.227-0.604c2.074,0,2.578,1.414,2.578,2.771v2.535
				c0,0.588,0.027,1.162,0.111,1.625H495.794L495.794,355.532z M495.616,352.071c-1.348-0.025-2.873,0.211-2.873,1.527
				c0,0.799,0.531,1.176,1.164,1.176c0.881,0,1.439-0.559,1.639-1.133c0.041-0.127,0.07-0.268,0.07-0.395V352.071z"/>
			<path fill="#5B5B5F" d="M500.218,346.806v1.945h1.766v0.938h-1.766v3.656c0,0.84,0.236,1.314,0.924,1.314
				c0.322,0,0.563-0.041,0.715-0.084l0.059,0.924c-0.238,0.102-0.617,0.17-1.094,0.17c-0.574,0-1.035-0.184-1.33-0.52
				c-0.354-0.363-0.479-0.967-0.479-1.766v-3.697h-1.051v-0.939h1.051v-1.625L500.218,346.806z"/>
			<path fill="#5B5B5F" d="M507.12,355.532l-0.102-0.854h-0.041c-0.379,0.531-1.104,1.01-2.07,1.01
				c-1.373,0-2.074-0.967-2.074-1.947c0-1.639,1.457-2.535,4.076-2.52v-0.143c0-0.561-0.154-1.566-1.541-1.566
				c-0.629,0-1.287,0.193-1.768,0.504l-0.277-0.813c0.561-0.363,1.373-0.604,2.229-0.604c2.072,0,2.576,1.414,2.576,2.771v2.535
				c0,0.588,0.029,1.162,0.113,1.625H507.12L507.12,355.532z M506.938,352.071c-1.346-0.025-2.869,0.211-2.869,1.527
				c0,0.799,0.529,1.176,1.16,1.176c0.885,0,1.441-0.559,1.641-1.133c0.043-0.127,0.068-0.268,0.068-0.395V352.071z"/>
			<path fill="#5B5B5F" d="M510.117,345.585h1.229v9.945h-1.229V345.585z"/>
			<path fill="#5B5B5F" d="M521.219,355.28c-0.322,0.168-1.037,0.395-1.947,0.395c-2.045,0-3.375-1.391-3.375-3.459
				c0-2.092,1.432-3.604,3.645-3.604c0.729,0,1.373,0.186,1.709,0.354l-0.281,0.949c-0.293-0.168-0.756-0.32-1.428-0.32
				c-1.559,0-2.396,1.146-2.396,2.563c0,1.568,1.008,2.535,2.354,2.535c0.701,0,1.164-0.182,1.514-0.336L521.219,355.28z"/>
			<path fill="#5B5B5F" d="M526.412,355.532l-0.102-0.854h-0.041c-0.379,0.531-1.104,1.01-2.07,1.01
				c-1.373,0-2.074-0.967-2.074-1.947c0-1.639,1.457-2.535,4.076-2.52v-0.143c0-0.561-0.154-1.566-1.541-1.566
				c-0.629,0-1.287,0.193-1.768,0.504l-0.277-0.813c0.561-0.363,1.373-0.604,2.229-0.604c2.072,0,2.576,1.414,2.576,2.771v2.535
				c0,0.588,0.029,1.162,0.113,1.625H526.412L526.412,355.532z M526.23,352.071c-1.346-0.025-2.873,0.211-2.873,1.527
				c0,0.799,0.533,1.176,1.164,1.176c0.885,0,1.441-0.559,1.641-1.133c0.043-0.127,0.068-0.268,0.068-0.395V352.071z"/>
			<path fill="#5B5B5F" d="M529.24,354.271c0.361,0.238,1.01,0.49,1.625,0.49c0.896,0,1.314-0.447,1.314-1.01
				c0-0.588-0.35-0.908-1.262-1.244c-1.219-0.436-1.793-1.107-1.793-1.92c0-1.094,0.883-1.988,2.34-1.988
				c0.688,0,1.289,0.195,1.668,0.42l-0.309,0.895c-0.27-0.168-0.76-0.391-1.391-0.391c-0.729,0-1.135,0.42-1.135,0.924
				c0,0.563,0.406,0.814,1.289,1.148c1.178,0.447,1.779,1.037,1.779,2.045c0,1.189-0.926,2.029-2.535,2.029
				c-0.742,0-1.43-0.182-1.906-0.461L529.24,354.271z"/>
			<path fill="#5B5B5F" d="M535.636,352.366c0.027,1.666,1.092,2.355,2.324,2.355c0.883,0,1.416-0.154,1.877-0.354l0.211,0.883
				c-0.434,0.197-1.178,0.422-2.256,0.422c-2.086,0-3.334-1.371-3.334-3.416c0-2.049,1.205-3.656,3.18-3.656
				c2.213,0,2.805,1.947,2.805,3.191c0,0.252-0.027,0.447-0.041,0.574H535.636L535.636,352.366z M539.25,351.483
				c0.014-0.785-0.322-2.004-1.709-2.004c-1.246,0-1.793,1.15-1.893,2.004H539.25z"/>
			<path fill="#5B5B5F" d="M541.795,354.271c0.365,0.238,1.01,0.49,1.625,0.49c0.896,0,1.316-0.447,1.316-1.01
				c0-0.588-0.352-0.908-1.264-1.244c-1.219-0.436-1.793-1.107-1.793-1.92c0-1.094,0.883-1.988,2.34-1.988
				c0.689,0,1.289,0.195,1.668,0.42l-0.309,0.895c-0.27-0.168-0.758-0.391-1.387-0.391c-0.73,0-1.139,0.42-1.139,0.924
				c0,0.563,0.406,0.814,1.289,1.148c1.18,0.447,1.779,1.037,1.779,2.045c0,1.189-0.924,2.029-2.535,2.029
				c-0.742,0-1.43-0.182-1.906-0.461L541.795,354.271z"/>
		</g>
	</g>
</g>
<g>
	<path fill="#666565" d="M186.248,4.94c0-1.549,0.313-2.906,0.937-4.071s1.521-2.055,2.688-2.67
		c1.168-0.615,2.534-0.922,4.104-0.922c1.59,0,3.065,0.292,4.438,0.876l-0.672,1.529c-1.349-0.571-2.644-0.856-3.887-0.856
		c-1.813,0-3.229,0.54-4.249,1.62c-1.021,1.08-1.525,2.578-1.525,4.494c0,2.018,0.491,3.548,1.478,4.591
		c0.979,1.043,2.423,1.564,4.321,1.564c1.033,0,2.042-0.12,3.026-0.358V6.134h-3.332V4.584h5.063v7.255
		c-0.788,0.248-1.595,0.436-2.405,0.563c-0.813,0.127-1.76,0.191-2.833,0.191c-2.255,0-4.012-0.67-5.271-2.012
		C186.876,9.239,186.248,7.359,186.248,4.94z"/>
	<path fill="#666565" d="M201.962,12.39V-3.466h1.688V12.39H201.962z"/>
	<path fill="#666565" d="M206.619,6.786c0-1.817,0.454-3.233,1.357-4.247c0.908-1.014,2.167-1.521,3.775-1.521
		c1.563,0,2.8,0.519,3.718,1.556c0.917,1.038,1.376,2.441,1.376,4.211c0,1.824-0.457,3.248-1.372,4.272s-2.183,1.536-3.79,1.536
		c-0.996,0-1.88-0.234-2.648-0.704c-0.771-0.47-1.368-1.144-1.788-2.021S206.619,7.962,206.619,6.786z M208.352,6.786
		c0,1.43,0.286,2.52,0.854,3.269c0.572,0.749,1.412,1.124,2.521,1.124c1.104,0,1.951-0.373,2.521-1.119
		c0.575-0.746,0.862-1.837,0.862-3.273c0-1.423-0.288-2.504-0.862-3.243c-0.569-0.739-1.424-1.108-2.546-1.108
		c-1.104,0-1.941,0.364-2.51,1.093C208.633,4.255,208.352,5.342,208.352,6.786z"/>
	<path fill="#666565" d="M219.847,12.39V-3.466h1.688v3.852c0,0.863-0.022,1.637-0.082,2.323h0.082
		c0.788-1.114,1.957-1.671,3.506-1.671c1.46,0,2.6,0.501,3.399,1.503c0.813,1.002,1.216,2.42,1.216,4.254s-0.407,3.259-1.226,4.274
		c-0.813,1.016-1.942,1.523-3.396,1.523c-0.729,0-1.395-0.134-1.992-0.402c-0.604-0.268-1.104-0.681-1.514-1.238h-0.112
		l-0.354,1.437L219.847,12.39L219.847,12.39z M221.537,6.795c0,1.569,0.262,2.692,0.785,3.368c0.521,0.676,1.358,1.014,2.517,1.014
		c1.04,0,1.813-0.379,2.323-1.136c0.51-0.758,0.77-1.846,0.77-3.266c0-1.454-0.26-2.538-0.77-3.251
		c-0.513-0.713-1.297-1.07-2.364-1.07c-1.15,0-1.982,0.331-2.492,0.994C221.792,4.109,221.537,5.227,221.537,6.795z"/>
	<path fill="#666565" d="M231.799,9.313c0-2.25,1.811-3.429,5.423-3.537l1.896-0.062V5.013c0-0.887-0.188-1.542-0.563-1.965
		c-0.381-0.423-0.979-0.634-1.811-0.634c-0.933,0-1.979,0.289-3.148,0.866l-0.526-1.298c0.554-0.294,1.153-0.525,1.813-0.692
		c0.66-0.167,1.313-0.251,1.977-0.251c1.33,0,2.313,0.295,2.957,0.887c0.643,0.591,0.962,1.539,0.962,2.843v7.622h-1.26
		l-0.336-1.571H239.1c-0.561,0.693-1.11,1.162-1.663,1.407c-0.557,0.246-1.242,0.368-2.068,0.368c-1.11,0-1.979-0.284-2.614-0.853
		C232.115,11.171,231.799,10.362,231.799,9.313z M233.593,9.333c0,0.615,0.185,1.082,0.554,1.403
		c0.37,0.321,0.891,0.481,1.555,0.481c1.051,0,1.876-0.29,2.479-0.87c0.6-0.581,0.896-1.393,0.896-2.437V6.896l-1.688,0.071
		c-1.348,0.048-2.313,0.258-2.904,0.63S233.593,8.548,233.593,9.333z"/>
	<path fill="#666565" d="M244.241,12.39V-3.466h1.688V12.39H244.241z"/>
	<path fill="#666565" d="M254.32,6.896c0-1.8,0.442-3.23,1.326-4.29s2.066-1.589,3.563-1.589c1.396,0,2.498,0.46,3.313,1.38
		c0.813,0.921,1.221,2.135,1.221,3.643v1.07h-7.686c0.029,1.311,0.361,2.306,0.99,2.985c0.634,0.68,1.521,1.019,2.659,1.019
		c1.199,0,2.389-0.251,3.561-0.754v1.508c-0.601,0.258-1.16,0.443-1.69,0.555c-0.53,0.112-1.175,0.168-1.927,0.168
		c-1.646,0-2.942-0.502-3.896-1.508C254.795,10.081,254.32,8.685,254.32,6.896z M256.093,5.735h5.849
		c0-1.066-0.234-1.883-0.714-2.451c-0.479-0.567-1.157-0.851-2.042-0.851c-0.896,0-1.615,0.292-2.146,0.876
		C256.502,3.895,256.188,4.703,256.093,5.735z"/>
	<path fill="#666565" d="M265.937,3.965c0-0.911,0.37-1.63,1.104-2.158c0.74-0.527,1.754-0.791,3.044-0.791
		c1.195,0,2.363,0.244,3.509,0.733l-0.595,1.377c-1.112-0.463-2.13-0.695-3.037-0.695c-0.803,0-1.404,0.126-1.813,0.378
		c-0.404,0.251-0.608,0.599-0.608,1.042c0,0.3,0.076,0.555,0.229,0.766c0.148,0.211,0.396,0.412,0.741,0.603
		c0.34,0.191,0.989,0.467,1.96,0.828c1.319,0.483,2.215,0.97,2.671,1.46c0.457,0.49,0.688,1.104,0.688,1.849
		c0,1.034-0.389,1.832-1.155,2.393c-0.771,0.561-1.854,0.841-3.238,0.841c-1.479,0-2.631-0.23-3.458-0.693v-1.559
		c0.536,0.272,1.105,0.487,1.725,0.644c0.613,0.157,1.205,0.235,1.774,0.235c0.885,0,1.563-0.141,2.042-0.424
		c0.479-0.283,0.715-0.713,0.715-1.292c0-0.436-0.188-0.809-0.563-1.119c-0.379-0.31-1.11-0.676-2.212-1.098
		c-1.042-0.388-1.775-0.727-2.22-1.017c-0.438-0.29-0.76-0.618-0.974-0.986C266.042,4.916,265.937,4.477,265.937,3.965z"/>
	<path fill="#666565" d="M275.127,2.536V1.721l1.604-0.703l0.713-2.385h0.979v2.588h3.24v1.314h-3.24v6.588
		c0,0.674,0.16,1.191,0.479,1.552c0.319,0.361,0.761,0.542,1.313,0.542c0.304,0,0.59-0.022,0.866-0.066
		c0.274-0.044,0.499-0.09,0.662-0.138v1.278c-0.187,0.087-0.453,0.159-0.813,0.216c-0.354,0.057-0.683,0.085-0.968,0.085
		c-2.155,0-3.236-1.138-3.236-3.414V2.534h-1.604L275.127,2.536L275.127,2.536z"/>
	<path fill="#666565" d="M283.83-1.806c0-0.387,0.087-0.671,0.268-0.851c0.175-0.18,0.395-0.27,0.653-0.27
		c0.293,0,0.545,0.092,0.763,0.275c0.212,0.184,0.313,0.466,0.313,0.846c0,0.38-0.104,0.664-0.313,0.851
		c-0.217,0.187-0.47,0.28-0.763,0.28c-0.267,0-0.479-0.093-0.653-0.28C283.917-1.142,283.83-1.424,283.83-1.806z M283.974,12.39
		V1.222h1.549V12.39H283.974z"/>
	<path fill="#666565" d="M289.251,12.39V1.222h1.375l0.271,1.509h0.082c0.314-0.537,0.771-0.957,1.354-1.259
		c0.581-0.302,1.229-0.453,1.952-0.453c1.746,0,2.887,0.625,3.424,1.876h0.082c0.333-0.579,0.813-1.036,1.443-1.372
		c0.636-0.336,1.354-0.504,2.161-0.504c1.267,0,2.209,0.324,2.838,0.973c0.632,0.648,0.938,1.687,0.938,3.113v7.286h-1.688V5.109
		c0-0.892-0.188-1.561-0.567-2.006s-0.976-0.669-1.771-0.669c-1.058,0-1.831,0.303-2.333,0.909
		c-0.503,0.605-0.754,1.538-0.754,2.798v6.249h-1.688V5.109c0-0.892-0.188-1.561-0.571-2.006c-0.381-0.445-0.979-0.669-1.778-0.669
		c-1.063,0-1.836,0.318-2.329,0.955c-0.492,0.637-0.737,1.68-0.737,3.13v5.871L289.251,12.39L289.251,12.39z"/>
	<path fill="#666565" d="M307.828,9.313c0-2.25,1.811-3.429,5.418-3.537l1.896-0.062V5.013c0-0.887-0.188-1.542-0.563-1.965
		c-0.376-0.423-0.979-0.634-1.81-0.634c-0.934,0-1.979,0.289-3.149,0.866l-0.521-1.298c0.55-0.294,1.148-0.525,1.809-0.692
		s1.313-0.251,1.976-0.251c1.33,0,2.313,0.295,2.957,0.887c0.646,0.591,0.964,1.539,0.964,2.843v7.622h-1.255l-0.336-1.571h-0.082
		c-0.56,0.693-1.105,1.162-1.661,1.407c-0.554,0.246-1.239,0.368-2.067,0.368c-1.109,0-1.98-0.284-2.616-0.853
		C308.145,11.171,307.828,10.362,307.828,9.313z M309.622,9.333c0,0.615,0.188,1.082,0.559,1.403
		c0.365,0.321,0.887,0.481,1.551,0.481c1.051,0,1.876-0.29,2.479-0.87c0.604-0.581,0.896-1.393,0.896-2.437V6.896l-1.688,0.071
		c-1.343,0.048-2.313,0.258-2.899,0.63C309.919,7.97,309.622,8.548,309.622,9.333z"/>
	<path fill="#666565" d="M318.792,2.536V1.721l1.604-0.703l0.713-2.385h0.979v2.588h3.24v1.314h-3.24v6.588
		c0,0.674,0.16,1.191,0.479,1.552c0.314,0.361,0.757,0.542,1.313,0.542c0.304,0,0.588-0.022,0.866-0.066
		c0.274-0.044,0.499-0.09,0.662-0.138v1.278c-0.187,0.087-0.453,0.159-0.813,0.216c-0.354,0.057-0.683,0.085-0.968,0.085
		c-2.155,0-3.236-1.138-3.236-3.414V2.534h-1.604L318.792,2.536L318.792,2.536z"/>
	<path fill="#666565" d="M327.017,6.896c0-1.8,0.438-3.23,1.326-4.29c0.884-1.06,2.066-1.589,3.561-1.589
		c1.396,0,2.498,0.46,3.313,1.38c0.813,0.921,1.224,2.135,1.224,3.643v1.07h-7.688c0.034,1.311,0.366,2.306,0.995,2.985
		c0.629,0.68,1.521,1.019,2.655,1.019c1.199,0,2.388-0.251,3.56-0.754v1.508c-0.6,0.258-1.155,0.443-1.688,0.555
		c-0.532,0.112-1.173,0.168-1.925,0.168c-1.646,0-2.946-0.502-3.898-1.508C327.492,10.081,327.017,8.685,327.017,6.896z
		 M328.789,5.735h5.854c0-1.066-0.238-1.883-0.719-2.451c-0.479-0.567-1.152-0.851-2.042-0.851c-0.896,0-1.61,0.292-2.146,0.876
		C329.199,3.895,328.885,4.703,328.789,5.735z"/>
	<path fill="#666565" d="M338.633,3.965c0-0.911,0.37-1.63,1.109-2.158c0.736-0.527,1.754-0.791,3.044-0.791
		c1.191,0,2.359,0.244,3.504,0.733l-0.59,1.377c-1.117-0.463-2.134-0.695-3.037-0.695c-0.807,0-1.409,0.126-1.813,0.378
		c-0.408,0.251-0.612,0.599-0.612,1.042c0,0.3,0.077,0.555,0.229,0.766c0.153,0.211,0.396,0.412,0.741,0.603
		c0.34,0.191,0.994,0.467,1.96,0.828c1.32,0.483,2.215,0.97,2.671,1.46c0.457,0.49,0.688,1.104,0.688,1.849
		c0,1.034-0.385,1.832-1.151,2.393c-0.771,0.561-1.854,0.841-3.243,0.841c-1.479,0-2.631-0.23-3.457-0.693v-1.559
		c0.535,0.272,1.105,0.487,1.728,0.644c0.613,0.157,1.206,0.235,1.771,0.235c0.89,0,1.563-0.141,2.042-0.424
		c0.479-0.283,0.719-0.713,0.719-1.292c0-0.436-0.188-0.809-0.566-1.119c-0.378-0.31-1.112-0.676-2.211-1.098
		c-1.042-0.388-1.78-0.727-2.217-1.017c-0.438-0.29-0.763-0.618-0.979-0.986C338.74,4.916,338.633,4.477,338.633,3.965z"/>
</g>
<g>
	<path fill="#666565" d="M456.731,12.389V-2.509h8.307v1.549h-6.564v4.769h6.176v1.549h-6.176v5.482h6.564v1.549H456.731z"/>
	<path fill="#666565" d="M468.186,7.09v-9.599h1.732v9.736c0,1.245,0.34,2.201,1.02,2.868s1.678,1,2.996,1
		c1.256,0,2.225-0.335,2.904-1.005c0.68-0.67,1.018-1.631,1.018-2.883v-9.715h1.732v9.64c0,1.699-0.521,3.034-1.537,4.005
		c-1.027,0.972-2.439,1.457-4.23,1.457s-3.18-0.489-4.162-1.467C468.678,10.147,468.186,8.802,468.186,7.09z"/>
	<path fill="#666565" d="M482.507,12.389v-1.438l3.924-3.959c1.188-1.214,1.979-2.08,2.355-2.599
		c0.389-0.518,0.666-1.023,0.855-1.514c0.188-0.491,0.285-1.02,0.285-1.586c0-0.798-0.24-1.431-0.729-1.898
		c-0.479-0.467-1.146-0.701-2.008-0.701c-0.619,0-1.205,0.103-1.758,0.307c-0.555,0.204-1.17,0.577-1.854,1.115l-0.896-1.156
		c1.373-1.122,2.867-1.683,4.482-1.683c1.396,0,2.496,0.357,3.291,1.07c0.797,0.713,1.188,1.671,1.188,2.875
		c0,0.948-0.264,1.886-0.795,2.814c-0.527,0.928-1.521,2.102-2.979,3.521l-3.264,3.203v0.082h7.662v1.549h-9.791v-0.002H482.507z"/>
	<path fill="#666565" d="M494.477,8.588c0-1.705,1.047-3.033,3.137-3.984c-0.945-0.53-1.627-1.103-2.039-1.717
		c-0.412-0.614-0.617-1.303-0.617-2.063c0-1.08,0.4-1.941,1.203-2.583c0.813-0.642,1.877-0.963,3.23-0.963s2.438,0.316,3.24,0.948
		c0.799,0.632,1.188,1.505,1.188,2.619c0,0.733-0.229,1.403-0.688,2.007c-0.457,0.605-1.189,1.155-2.193,1.651
		c1.215,0.578,2.08,1.184,2.592,1.819c0.521,0.635,0.771,1.371,0.771,2.206c0,1.237-0.438,2.224-1.297,2.96
		c-0.865,0.737-2.061,1.105-3.564,1.105c-1.594,0-2.82-0.348-3.68-1.044C494.907,10.852,494.477,9.866,494.477,8.588z
		 M496.173,8.629c0,0.815,0.275,1.451,0.85,1.906c0.576,0.455,1.363,0.683,2.387,0.683c1.012,0,1.797-0.238,2.359-0.713
		c0.563-0.476,0.846-1.127,0.846-1.957c0-0.659-0.266-1.245-0.793-1.758c-0.529-0.513-1.453-1.01-2.768-1.493
		c-1.02,0.435-1.744,0.916-2.199,1.442C496.397,7.265,496.173,7.895,496.173,8.629z M496.647,0.894c0,0.625,0.201,1.162,0.6,1.61
		c0.4,0.449,1.146,0.897,2.227,1.345c0.971-0.407,1.648-0.846,2.061-1.314c0.404-0.468,0.605-1.016,0.605-1.641
		c0-0.686-0.246-1.231-0.738-1.635c-0.492-0.404-1.168-0.606-2.029-0.606c-0.848,0-1.512,0.204-1.988,0.611
		C496.889-0.329,496.647,0.215,496.647,0.894z"/>
	<path fill="#666565" d="M511.942,6.896c0-1.8,0.441-3.23,1.326-4.29s2.07-1.589,3.561-1.589c1.396,0,2.498,0.46,3.314,1.38
		c0.813,0.921,1.219,2.135,1.219,3.643v1.07h-7.684c0.025,1.311,0.355,2.306,0.994,2.985c0.631,0.68,1.516,1.019,2.65,1.019
		c1.199,0,2.393-0.251,3.564-0.754v1.508c-0.605,0.258-1.16,0.443-1.691,0.555c-0.533,0.112-1.174,0.168-1.926,0.168
		c-1.646,0-2.945-0.502-3.898-1.508C512.427,10.077,511.942,8.684,511.942,6.896z M513.719,5.735h5.85
		c0-1.066-0.238-1.883-0.715-2.451c-0.48-0.567-1.156-0.851-2.041-0.851c-0.898,0-1.615,0.292-2.148,0.876
		C514.122,3.894,513.811,4.702,513.719,5.735z"/>
	<path fill="#666565" d="M523.561,3.965c0-0.911,0.369-1.63,1.109-2.158c0.73-0.527,1.754-0.791,3.043-0.791
		c1.188,0,2.355,0.244,3.504,0.733l-0.59,1.377c-1.117-0.463-2.139-0.695-3.037-0.695c-0.813,0-1.408,0.126-1.816,0.378
		c-0.41,0.251-0.613,0.599-0.613,1.042c0,0.3,0.076,0.555,0.23,0.766c0.152,0.211,0.395,0.412,0.74,0.603
		c0.34,0.191,0.994,0.467,1.961,0.828c1.324,0.483,2.215,0.97,2.67,1.46c0.457,0.49,0.686,1.104,0.686,1.849
		c0,1.034-0.385,1.832-1.146,2.393c-0.771,0.561-1.854,0.841-3.242,0.841c-1.48,0-2.631-0.23-3.459-0.693v-1.559
		c0.535,0.272,1.104,0.487,1.725,0.644c0.613,0.157,1.205,0.235,1.775,0.235c0.885,0,1.563-0.141,2.041-0.424
		c0.477-0.283,0.715-0.713,0.715-1.292c0-0.436-0.188-0.809-0.566-1.119c-0.377-0.31-1.105-0.676-2.211-1.098
		c-1.041-0.388-1.771-0.727-2.217-1.017c-0.443-0.29-0.76-0.618-0.973-0.986C523.663,4.915,523.561,4.476,523.561,3.965z"/>
	<path fill="#666565" d="M532.747,2.535V1.72l1.604-0.703l0.713-2.385h0.98V1.22h3.23v1.314h-3.23v6.588
		c0,0.674,0.15,1.191,0.479,1.552c0.318,0.361,0.758,0.542,1.314,0.542c0.299,0,0.588-0.022,0.857-0.066
		c0.279-0.044,0.5-0.09,0.662-0.138v1.278c-0.184,0.087-0.453,0.159-0.811,0.216c-0.355,0.057-0.686,0.085-0.965,0.085
		c-2.158,0-3.238-1.138-3.238-3.414V2.533h-1.604L532.747,2.535L532.747,2.535z"/>
	<path fill="#666565" d="M541.45-1.806c0-0.387,0.088-0.671,0.271-0.851c0.174-0.18,0.395-0.27,0.65-0.27
		c0.299,0,0.553,0.092,0.764,0.275c0.213,0.184,0.313,0.466,0.313,0.846c0,0.38-0.104,0.664-0.313,0.851s-0.465,0.28-0.764,0.28
		c-0.266,0-0.479-0.093-0.65-0.28C541.538-1.142,541.45-1.425,541.45-1.806z M541.598,12.389V1.221h1.549v11.168H541.598z"/>
	<path fill="#666565" d="M546.872,12.389V1.221h1.375l0.275,1.509h0.08c0.32-0.537,0.771-0.957,1.352-1.259
		c0.58-0.302,1.23-0.453,1.951-0.453c1.746,0,2.896,0.625,3.424,1.876h0.082c0.332-0.579,0.814-1.036,1.447-1.372
		c0.631-0.336,1.354-0.504,2.16-0.504c1.264,0,2.209,0.324,2.838,0.973c0.627,0.648,0.941,1.687,0.941,3.113v7.286h-1.691V5.109
		c0-0.892-0.188-1.561-0.57-2.006c-0.381-0.446-0.971-0.669-1.77-0.669c-1.053,0-1.832,0.303-2.334,0.909
		c-0.504,0.605-0.754,1.538-0.754,2.798v6.249h-1.691V5.109c0-0.892-0.188-1.561-0.57-2.006c-0.381-0.446-0.977-0.669-1.775-0.669
		c-1.063,0-1.836,0.318-2.328,0.955c-0.492,0.637-0.738,1.68-0.738,3.13v5.871L546.872,12.389L546.872,12.389z"/>
	<path fill="#666565" d="M565.448,9.313c0-2.25,1.814-3.429,5.418-3.537l1.898-0.062V5.012c0-0.887-0.188-1.542-0.564-1.965
		c-0.377-0.423-0.979-0.634-1.805-0.634c-0.93,0-1.98,0.289-3.154,0.866l-0.52-1.298c0.551-0.294,1.145-0.525,1.809-0.692
		c0.654-0.167,1.313-0.251,1.977-0.251c1.324,0,2.313,0.295,2.953,0.887c0.646,0.591,0.969,1.539,0.969,2.843v7.622h-1.256
		l-0.342-1.571h-0.08c-0.557,0.693-1.104,1.162-1.656,1.407c-0.561,0.246-1.242,0.368-2.068,0.368c-1.113,0-1.984-0.284-2.617-0.853
		C565.768,11.171,565.448,10.362,565.448,9.313z M567.241,9.333c0,0.615,0.188,1.082,0.563,1.403
		c0.369,0.321,0.887,0.481,1.551,0.481c1.053,0,1.877-0.29,2.477-0.87c0.605-0.581,0.9-1.393,0.9-2.437V6.896l-1.688,0.071
		c-1.344,0.048-2.313,0.258-2.896,0.63C567.538,7.97,567.241,8.548,567.241,9.333z"/>
	<path fill="#666565" d="M576.411,2.535V1.72l1.605-0.703l0.713-2.385h0.979V1.22h3.236v1.314h-3.236v6.588
		c0,0.674,0.154,1.191,0.479,1.552c0.32,0.361,0.758,0.542,1.313,0.542c0.305,0,0.594-0.022,0.863-0.066
		c0.279-0.044,0.5-0.09,0.662-0.138v1.278c-0.184,0.087-0.453,0.159-0.811,0.216c-0.355,0.057-0.686,0.085-0.967,0.085
		c-2.156,0-3.236-1.138-3.236-3.414V2.533h-1.604L576.411,2.535L576.411,2.535z"/>
	<path fill="#666565" d="M584.641,6.896c0-1.8,0.438-3.23,1.326-4.29c0.883-1.06,2.063-1.589,3.561-1.589
		c1.396,0,2.498,0.46,3.313,1.38c0.813,0.921,1.219,2.135,1.219,3.643v1.07h-7.688c0.033,1.311,0.365,2.306,0.994,2.985
		c0.631,0.68,1.521,1.019,2.66,1.019c1.197,0,2.383-0.251,3.555-0.754v1.508c-0.596,0.258-1.15,0.443-1.688,0.555
		c-0.531,0.112-1.174,0.168-1.926,0.168c-1.646,0-2.945-0.502-3.896-1.508C585.118,10.077,584.641,8.684,584.641,6.896z
		 M586.409,5.735h5.855c0-1.066-0.238-1.883-0.715-2.451c-0.48-0.567-1.156-0.851-2.041-0.851c-0.898,0-1.615,0.292-2.148,0.876
		C586.823,3.894,586.512,4.702,586.409,5.735z"/>
	<path fill="#666565" d="M596.26,3.965c0-0.911,0.371-1.63,1.104-2.158c0.74-0.527,1.754-0.791,3.045-0.791
		c1.195,0,2.363,0.244,3.504,0.733l-0.59,1.377c-1.117-0.463-2.131-0.695-3.037-0.695c-0.805,0-1.4,0.126-1.813,0.378
		c-0.41,0.251-0.613,0.599-0.613,1.042c0,0.3,0.076,0.555,0.23,0.766c0.145,0.211,0.395,0.412,0.73,0.603
		c0.34,0.191,0.994,0.467,1.961,0.828c1.324,0.483,2.225,0.97,2.68,1.46c0.449,0.49,0.686,1.104,0.686,1.849
		c0,1.034-0.385,1.832-1.154,2.393c-0.771,0.561-1.852,0.841-3.244,0.841c-1.479,0-2.631-0.23-3.459-0.693v-1.559
		c0.537,0.272,1.111,0.487,1.73,0.644c0.607,0.157,1.205,0.235,1.77,0.235c0.895,0,1.566-0.141,2.043-0.424
		c0.479-0.283,0.723-0.713,0.723-1.292c0-0.436-0.188-0.809-0.566-1.119c-0.377-0.31-1.115-0.676-2.211-1.098
		c-1.041-0.388-1.779-0.727-2.217-1.017s-0.77-0.618-0.979-0.986C596.362,4.915,596.26,4.476,596.26,3.965z"/>
</g>
</svg>
