<?xml version="1.0" encoding="utf-8"?>
<!-- Generator: Adobe Illustrator 16.0.0, SVG Export Plug-In . SVG Version: 6.00 Build 0)  -->
<!DOCTYPE svg PUBLIC "-//W3C//DTD SVG 1.1//EN" "http://www.w3.org/Graphics/SVG/1.1/DTD/svg11.dtd">
<svg version="1.1" id="Capa_1" xmlns="http://www.w3.org/2000/svg" xmlns:xlink="http://www.w3.org/1999/xlink" x="0px" y="0px"
	 width="779.527px" height="357.166px" viewBox="0 0 779.527 357.166" enable-background="new 0 0 779.527 357.166"
	 xml:space="preserve">
<g id="global-estimates">
	<g>
		<rect x="122.532" y="210.812" fill="#199598" width="100.491" height="122.967"/>
		<rect x="122.532" y="85.746" fill="#DD9B2B" width="100.491" height="125.063"/>
	</g>
	<g>
		<path fill="#666565" d="M62.333,39.421c0-1.549,0.312-2.906,0.933-4.071s1.521-2.055,2.688-2.67
			c1.168-0.615,2.534-0.922,4.104-0.922c1.59,0,3.069,0.292,4.442,0.876l-0.672,1.529c-1.349-0.571-2.644-0.856-3.887-0.856
			c-1.813,0-3.229,0.54-4.249,1.62c-1.02,1.08-1.525,2.578-1.525,4.494c0,2.018,0.491,3.548,1.474,4.591
			c0.98,1.043,2.423,1.564,4.325,1.564c1.033,0,2.042-0.12,3.026-0.358v-4.604H69.66v-1.549h5.063v7.255
			c-0.788,0.248-1.591,0.436-2.405,0.563c-0.813,0.127-1.76,0.191-2.833,0.191c-2.255,0-4.012-0.67-5.269-2.012
			C62.961,43.72,62.333,41.84,62.333,39.421z"/>
		<path fill="#666565" d="M78.047,46.87V31.014h1.688V46.87H78.047z"/>
		<path fill="#666565" d="M82.704,41.266c0-1.817,0.454-3.233,1.357-4.247c0.908-1.014,2.167-1.521,3.779-1.521
			c1.559,0,2.796,0.519,3.714,1.556c0.917,1.038,1.376,2.441,1.376,4.211c0,1.824-0.457,3.248-1.372,4.272s-2.179,1.536-3.79,1.536
			c-0.996,0-1.88-0.234-2.648-0.704c-0.771-0.47-1.368-1.144-1.788-2.021S82.704,42.443,82.704,41.266z M84.436,41.266
			c0,1.43,0.286,2.52,0.856,3.269c0.572,0.749,1.412,1.124,2.521,1.124c1.108,0,1.951-0.373,2.525-1.119
			c0.575-0.746,0.862-1.837,0.862-3.273c0-1.423-0.288-2.504-0.862-3.243c-0.573-0.739-1.424-1.108-2.546-1.108
			c-1.108,0-1.945,0.364-2.51,1.093C84.718,38.736,84.436,39.822,84.436,41.266z"/>
		<path fill="#666565" d="M95.931,46.87V31.014h1.69v3.852c0,0.863-0.026,1.637-0.082,2.323h0.082
			c0.788-1.114,1.957-1.671,3.506-1.671c1.46,0,2.596,0.501,3.399,1.503c0.813,1.002,1.216,2.42,1.216,4.254
			s-0.407,3.259-1.226,4.274c-0.813,1.016-1.942,1.523-3.395,1.523c-0.729,0-1.395-0.134-1.992-0.402
			c-0.604-0.268-1.105-0.681-1.514-1.238H97.5l-0.355,1.437L95.931,46.87L95.931,46.87z M97.622,41.276
			c0,1.569,0.262,2.692,0.785,3.368c0.521,0.676,1.358,1.014,2.517,1.014c1.04,0,1.813-0.379,2.323-1.136
			c0.51-0.758,0.766-1.846,0.766-3.266c0-1.454-0.256-2.538-0.766-3.251c-0.513-0.713-1.297-1.07-2.364-1.07
			c-1.154,0-1.986,0.331-2.496,0.994C97.877,38.59,97.622,39.707,97.622,41.276z"/>
		<path fill="#666565" d="M107.884,43.794c0-2.25,1.807-3.429,5.419-3.537l1.897-0.062v-0.702c0-0.887-0.188-1.542-0.563-1.965
			c-0.377-0.423-0.979-0.634-1.807-0.634c-0.933,0-1.979,0.289-3.152,0.866l-0.526-1.298c0.554-0.294,1.153-0.525,1.813-0.692
			c0.66-0.167,1.313-0.251,1.973-0.251c1.33,0,2.314,0.295,2.957,0.887c0.643,0.591,0.962,1.539,0.962,2.843v7.622H115.6
			l-0.336-1.571h-0.082c-0.557,0.693-1.11,1.162-1.663,1.407c-0.553,0.246-1.242,0.368-2.068,0.368c-1.11,0-1.981-0.284-2.614-0.853
			C108.199,45.652,107.884,44.843,107.884,43.794z M109.677,43.814c0,0.615,0.185,1.082,0.554,1.403
			c0.37,0.321,0.891,0.481,1.555,0.481c1.051,0,1.876-0.29,2.478-0.87c0.6-0.581,0.899-1.393,0.899-2.437v-1.014l-1.688,0.071
			c-1.344,0.048-2.312,0.258-2.904,0.63S109.677,43.029,109.677,43.814z"/>
		<path fill="#666565" d="M120.326,46.87V31.014h1.688V46.87H120.326z"/>
		<path fill="#666565" d="M130.404,41.377c0-1.8,0.442-3.23,1.326-4.29s2.07-1.589,3.563-1.589c1.396,0,2.498,0.46,3.312,1.38
			c0.813,0.921,1.221,2.135,1.221,3.643v1.07h-7.686c0.033,1.311,0.365,2.306,0.994,2.985c0.63,0.68,1.517,1.019,2.659,1.019
			c1.199,0,2.385-0.251,3.557-0.754v1.508c-0.597,0.258-1.16,0.443-1.69,0.555c-0.53,0.112-1.175,0.168-1.927,0.168
			c-1.646,0-2.942-0.502-3.896-1.508C130.88,44.561,130.404,43.165,130.404,41.377z M132.177,40.216h5.849
			c0-1.066-0.234-1.883-0.714-2.451c-0.478-0.567-1.157-0.851-2.042-0.851c-0.896,0-1.615,0.292-2.146,0.876
			C132.587,38.375,132.272,39.183,132.177,40.216z"/>
		<path fill="#666565" d="M142.021,38.446c0-0.911,0.37-1.63,1.108-2.158c0.74-0.527,1.754-0.791,3.044-0.791
			c1.195,0,2.363,0.244,3.505,0.733l-0.591,1.377c-1.116-0.463-2.13-0.695-3.037-0.695c-0.803,0-1.408,0.126-1.817,0.378
			c-0.404,0.251-0.608,0.599-0.608,1.042c0,0.3,0.076,0.555,0.229,0.766c0.152,0.211,0.399,0.412,0.741,0.603
			c0.34,0.191,0.993,0.467,1.96,0.828c1.323,0.483,2.215,0.97,2.671,1.46c0.457,0.49,0.688,1.104,0.688,1.849
			c0,1.034-0.389,1.832-1.155,2.393c-0.771,0.561-1.854,0.841-3.242,0.841c-1.479,0-2.631-0.23-3.458-0.693V44.82
			c0.536,0.272,1.109,0.487,1.725,0.644c0.613,0.157,1.205,0.235,1.774,0.235c0.885,0,1.564-0.141,2.042-0.424
			c0.479-0.283,0.715-0.713,0.715-1.292c0-0.436-0.188-0.809-0.563-1.119c-0.379-0.31-1.114-0.676-2.212-1.098
			c-1.042-0.388-1.779-0.727-2.22-1.017c-0.437-0.29-0.76-0.618-0.974-0.986C142.127,39.396,142.021,38.957,142.021,38.446z"/>
		<path fill="#666565" d="M151.212,37.016v-0.815l1.601-0.703l0.713-2.385h0.979v2.588h3.24v1.314h-3.24v6.588
			c0,0.674,0.16,1.191,0.479,1.552c0.319,0.361,0.761,0.542,1.313,0.542c0.3,0,0.587-0.022,0.866-0.066
			c0.274-0.044,0.499-0.09,0.662-0.138v1.278c-0.187,0.087-0.453,0.159-0.813,0.216c-0.354,0.057-0.679,0.085-0.964,0.085
			c-2.159,0-3.24-1.138-3.24-3.414v-6.644h-1.6L151.212,37.016L151.212,37.016z"/>
		<path fill="#666565" d="M159.915,32.675c0-0.387,0.087-0.671,0.264-0.851c0.175-0.18,0.395-0.27,0.657-0.27
			c0.293,0,0.545,0.092,0.759,0.275c0.212,0.184,0.317,0.466,0.317,0.846c0,0.38-0.105,0.664-0.317,0.851
			c-0.213,0.187-0.466,0.28-0.759,0.28c-0.267,0-0.481-0.093-0.657-0.28C160.002,33.339,159.915,33.056,159.915,32.675z
			 M160.058,46.87V35.702h1.549V46.87H160.058z"/>
		<path fill="#666565" d="M165.336,46.87V35.702h1.375l0.271,1.509h0.082c0.318-0.537,0.771-0.957,1.354-1.259
			c0.581-0.302,1.229-0.453,1.952-0.453c1.746,0,2.887,0.625,3.424,1.876h0.082c0.333-0.579,0.813-1.036,1.443-1.372
			c0.636-0.336,1.354-0.504,2.161-0.504c1.267,0,2.209,0.324,2.838,0.973c0.632,0.648,0.941,1.687,0.941,3.113v7.286h-1.69V39.59
			c0-0.892-0.188-1.561-0.567-2.006s-0.976-0.669-1.772-0.669c-1.054,0-1.831,0.303-2.333,0.909
			c-0.503,0.605-0.754,1.538-0.754,2.798v6.249h-1.688V39.59c0-0.892-0.189-1.561-0.571-2.006c-0.381-0.445-0.979-0.669-1.782-0.669
			c-1.061,0-1.836,0.318-2.329,0.955c-0.492,0.637-0.737,1.68-0.737,3.13v5.871L165.336,46.87L165.336,46.87z"/>
		<path fill="#666565" d="M183.913,43.794c0-2.25,1.807-3.429,5.418-3.537l1.896-0.062v-0.702c0-0.887-0.188-1.542-0.563-1.965
			c-0.376-0.423-0.979-0.634-1.81-0.634c-0.93,0-1.979,0.289-3.149,0.866l-0.525-1.298c0.55-0.294,1.152-0.525,1.809-0.692
			s1.313-0.251,1.976-0.251c1.33,0,2.313,0.295,2.957,0.887c0.642,0.591,0.962,1.539,0.962,2.843v7.622h-1.253l-0.336-1.571h-0.082
			c-0.56,0.693-1.109,1.162-1.663,1.407c-0.552,0.246-1.241,0.368-2.069,0.368c-1.109,0-1.98-0.284-2.616-0.853
			C184.229,45.652,183.913,44.843,183.913,43.794z M185.707,43.814c0,0.615,0.186,1.082,0.555,1.403
			c0.369,0.321,0.887,0.481,1.551,0.481c1.051,0,1.876-0.29,2.479-0.87c0.601-0.581,0.896-1.393,0.896-2.437v-1.014l-1.688,0.071
			c-1.343,0.048-2.313,0.258-2.903,0.63C186.004,42.45,185.707,43.029,185.707,43.814z"/>
		<path fill="#666565" d="M194.877,37.016v-0.815l1.601-0.703l0.713-2.385h0.979v2.588h3.24v1.314h-3.24v6.588
			c0,0.674,0.16,1.191,0.479,1.552c0.318,0.361,0.757,0.542,1.313,0.542c0.3,0,0.587-0.022,0.866-0.066
			c0.274-0.044,0.499-0.09,0.662-0.138v1.278c-0.187,0.087-0.453,0.159-0.813,0.216c-0.354,0.057-0.679,0.085-0.964,0.085
			c-2.159,0-3.24-1.138-3.24-3.414v-6.644h-1.6L194.877,37.016L194.877,37.016z"/>
		<path fill="#666565" d="M203.101,41.377c0-1.8,0.441-3.23,1.326-4.29c0.884-1.06,2.07-1.589,3.561-1.589
			c1.396,0,2.498,0.46,3.313,1.38c0.813,0.921,1.22,2.135,1.22,3.643v1.07h-7.685c0.034,1.311,0.366,2.306,0.995,2.985
			c0.629,0.68,1.517,1.019,2.655,1.019c1.199,0,2.388-0.251,3.56-0.754v1.508c-0.6,0.258-1.159,0.443-1.691,0.555
			c-0.532,0.112-1.173,0.168-1.925,0.168c-1.646,0-2.946-0.502-3.898-1.508C203.577,44.561,203.101,43.165,203.101,41.377z
			 M204.874,40.216h5.85c0-1.066-0.238-1.883-0.715-2.451c-0.479-0.567-1.156-0.851-2.042-0.851c-0.897,0-1.614,0.292-2.148,0.876
			C205.284,38.375,204.969,39.183,204.874,40.216z"/>
		<path fill="#666565" d="M214.718,38.446c0-0.911,0.37-1.63,1.109-2.158c0.736-0.527,1.754-0.791,3.044-0.791
			c1.191,0,2.359,0.244,3.504,0.733l-0.59,1.377c-1.117-0.463-2.134-0.695-3.037-0.695c-0.807,0-1.409,0.126-1.817,0.378
			c-0.408,0.251-0.612,0.599-0.612,1.042c0,0.3,0.077,0.555,0.229,0.766c0.153,0.211,0.396,0.412,0.741,0.603
			c0.34,0.191,0.994,0.467,1.96,0.828c1.32,0.483,2.215,0.97,2.671,1.46c0.457,0.49,0.686,1.104,0.686,1.849
			c0,1.034-0.385,1.832-1.151,2.393c-0.771,0.561-1.854,0.841-3.243,0.841c-1.479,0-2.631-0.23-3.458-0.693V44.82
			c0.536,0.272,1.106,0.487,1.725,0.644c0.613,0.157,1.206,0.235,1.774,0.235c0.886,0,1.563-0.141,2.042-0.424
			c0.478-0.283,0.715-0.713,0.715-1.292c0-0.436-0.188-0.809-0.566-1.119c-0.378-0.31-1.112-0.676-2.211-1.098
			c-1.042-0.388-1.78-0.727-2.217-1.017s-0.761-0.618-0.975-0.986C214.824,39.396,214.718,38.957,214.718,38.446z"/>
	</g>
	<g>
		<path fill="#9A999E" d="M33.949,91.011v-1.199l3.271-3.299c0.995-1.012,1.652-1.734,1.97-2.166
			c0.316-0.432,0.559-0.853,0.713-1.262c0.159-0.409,0.238-0.85,0.238-1.321c0-0.665-0.201-1.192-0.604-1.582
			s-0.96-0.584-1.677-0.584c-0.516,0-1.004,0.085-1.465,0.256c-0.462,0.17-0.977,0.48-1.542,0.93L34.11,79.82
			c1.146-0.935,2.393-1.402,3.736-1.402c1.166,0,2.081,0.297,2.742,0.891c0.663,0.594,0.994,1.393,0.994,2.396
			c0,0.79-0.225,1.572-0.663,2.345c-0.44,0.773-1.271,1.751-2.479,2.934l-2.717,2.669v0.068h6.386v1.291h-8.16L33.949,91.011
			L33.949,91.011z"/>
		<path fill="#9A999E" d="M48.521,91.011v-1.199l3.271-3.299c0.996-1.012,1.649-1.734,1.971-2.166
			c0.316-0.432,0.555-0.853,0.713-1.262s0.237-0.85,0.237-1.321c0-0.665-0.2-1.192-0.604-1.582c-0.398-0.39-0.96-0.584-1.673-0.584
			c-0.517,0-1.004,0.085-1.465,0.256c-0.463,0.17-0.977,0.48-1.542,0.93l-0.747-0.964c1.146-0.935,2.389-1.402,3.735-1.402
			c1.166,0,2.081,0.297,2.743,0.891c0.663,0.594,0.99,1.393,0.99,2.396c0,0.79-0.221,1.572-0.659,2.345
			c-0.441,0.773-1.271,1.751-2.479,2.934l-2.718,2.669v0.068h6.387v1.291h-8.161V91.011z"/>
		<path fill="#9A999E" d="M58.482,84.782c0-2.161,0.338-3.765,1.018-4.813c0.676-1.046,1.707-1.57,3.092-1.57
			c1.347,0,2.368,0.546,3.063,1.638c0.699,1.092,1.052,2.673,1.052,4.744c0,2.146-0.342,3.75-1.018,4.81
			c-0.676,1.06-1.709,1.589-3.102,1.589c-1.34,0-2.359-0.542-3.062-1.627C58.832,88.468,58.482,86.878,58.482,84.782z
			 M59.926,84.782c0,1.802,0.213,3.113,0.637,3.935c0.424,0.822,1.103,1.232,2.025,1.232c0.938,0,1.618-0.417,2.039-1.25
			s0.632-2.139,0.632-3.918c0-1.778-0.21-3.082-0.632-3.909c-0.421-0.827-1.104-1.241-2.039-1.241c-0.927,0-1.604,0.408-2.025,1.224
			C60.138,81.672,59.926,82.98,59.926,84.782z"/>
		<path fill="#9A999E" d="M68.554,85.708c0-2.441,0.474-4.267,1.422-5.476c0.947-1.209,2.354-1.814,4.208-1.814
			c0.646,0,1.146,0.054,1.521,0.161v1.231c-0.438-0.164-0.938-0.247-1.5-0.247c-1.331,0-2.351,0.417-3.052,1.249
			c-0.698,0.833-1.087,2.141-1.151,3.924h0.101c0.623-0.963,1.607-1.445,2.955-1.445c1.121,0,2.003,0.336,2.648,1.008
			c0.646,0.672,0.969,1.584,0.969,2.736c0,1.288-0.354,2.301-1.063,3.039c-0.708,0.738-1.665,1.106-2.866,1.106
			c-1.285,0-2.308-0.482-3.061-1.447C68.931,88.768,68.554,87.427,68.554,85.708z M69.997,86.721c0,0.585,0.109,1.13,0.34,1.636
			c0.228,0.506,0.548,0.906,0.964,1.201S72.191,90,72.723,90c0.804,0,1.428-0.254,1.873-0.762c0.443-0.508,0.667-1.242,0.667-2.202
			c0-0.823-0.207-1.471-0.62-1.942c-0.413-0.472-1.03-0.707-1.852-0.707c-0.509,0-0.979,0.105-1.4,0.315s-0.764,0.5-1.016,0.869
			C70.123,85.94,69.997,86.324,69.997,86.721z"/>
		<g>
			<path fill="#9A999E" d="M43.617,93.657c0.141-0.542,0.295-1.211,0.465-2.008c0.169-0.797,0.288-1.435,0.354-1.914h1.415
				l0.116,0.18c-0.135,0.521-0.328,1.126-0.583,1.816c-0.254,0.69-0.518,1.332-0.793,1.926H43.617z"/>
		</g>
	</g>
	<g>
		<path fill="#9A999E" d="M68.426,327.548c0-2.161,0.339-3.765,1.015-4.813c0.68-1.047,1.707-1.569,3.096-1.569
			c1.346,0,2.364,0.546,3.063,1.638c0.698,1.094,1.048,2.674,1.048,4.744c0,2.146-0.338,3.75-1.015,4.811
			c-0.676,1.063-1.709,1.59-3.104,1.59c-1.34,0-2.356-0.543-3.058-1.627C68.775,331.233,68.426,329.646,68.426,327.548z
			 M69.87,327.548c0,1.803,0.212,3.113,0.636,3.936c0.425,0.822,1.1,1.231,2.026,1.231c0.938,0,1.614-0.417,2.035-1.25
			c0.425-0.833,0.636-2.139,0.636-3.918c0-1.776-0.21-3.082-0.636-3.907c-0.421-0.828-1.102-1.242-2.035-1.242
			c-0.931,0-1.604,0.408-2.026,1.228C70.082,324.438,69.87,325.747,69.87,327.548z"/>
	</g>
	<g>
		<path fill="#FFFFFF" d="M154.6,272.294h-3.146v-8.621l0.027-1.417l0.055-1.549c-0.522,0.522-0.891,0.866-1.094,1.028l-1.712,1.375
			l-1.52-1.896l4.801-3.819h2.588L154.6,272.294L154.6,272.294z"/>
		<path fill="#FFFFFF" d="M172.463,272.294h-3.148v-8.621l0.031-1.417l0.051-1.549c-0.521,0.522-0.888,0.866-1.09,1.028
			l-1.712,1.375l-1.52-1.896l4.8-3.819h2.588V272.294z"/>
		<path fill="#FFFFFF" d="M186.923,264.845c0,2.604-0.426,4.528-1.278,5.778c-0.854,1.25-2.166,1.875-3.938,1.875
			c-1.723,0-3.019-0.646-3.892-1.937s-1.311-3.195-1.311-5.721c0-2.629,0.426-4.564,1.271-5.813c0.852-1.246,2.156-1.87,3.926-1.87
			c1.719,0,3.019,0.649,3.896,1.957C186.483,260.422,186.923,262.332,186.923,264.845z M179.637,264.845
			c0,1.828,0.157,3.139,0.474,3.93c0.315,0.793,0.851,1.188,1.599,1.188c0.729,0,1.265-0.398,1.589-1.203
			c0.326-0.801,0.489-2.104,0.489-3.913c0-1.825-0.165-3.14-0.494-3.938c-0.33-0.8-0.857-1.197-1.584-1.197
			c-0.74,0-1.271,0.397-1.59,1.197C179.797,261.705,179.637,263.019,179.637,264.845z"/>
		<path fill="#FFFFFF" d="M198.917,272.294h-10.415v-2.189l3.74-3.778c1.104-1.138,1.831-1.923,2.171-2.359
			c0.339-0.438,0.584-0.844,0.729-1.218c0.148-0.374,0.228-0.764,0.228-1.162c0-0.602-0.165-1.042-0.494-1.335
			c-0.33-0.292-0.771-0.438-1.318-0.438c-0.578,0-1.139,0.133-1.683,0.396c-0.543,0.268-1.11,0.645-1.702,1.131l-1.712-2.025
			c0.729-0.625,1.342-1.064,1.824-1.325c0.479-0.259,1.009-0.456,1.58-0.597c0.567-0.141,1.209-0.209,1.916-0.209
			c0.931,0,1.752,0.17,2.466,0.511c0.714,0.342,1.268,0.813,1.661,1.429c0.395,0.609,0.591,1.313,0.591,2.1
			c0,0.688-0.121,1.329-0.36,1.933c-0.242,0.603-0.615,1.219-1.121,1.851c-0.506,0.633-1.396,1.531-2.676,2.701l-1.915,1.805v0.146
			h6.49V272.294L198.917,272.294z"/>
		<g>
			<path fill="#FFFFFF" d="M159.576,274.562c0.141-0.543,0.295-1.211,0.465-2.009c0.169-0.797,0.288-1.436,0.354-1.913h1.415
				l0.117,0.18c-0.136,0.521-0.329,1.129-0.583,1.815c-0.255,0.689-0.519,1.332-0.794,1.927H159.576z"/>
		</g>
	</g>
	<g>
		<path fill="#FFFFFF" d="M154.6,156.528h-3.146v-8.621l0.027-1.417l0.055-1.549c-0.522,0.523-0.891,0.866-1.094,1.029l-1.712,1.375
			l-1.52-1.895l4.801-3.821h2.588L154.6,156.528L154.6,156.528z"/>
		<path fill="#FFFFFF" d="M172.463,156.528h-3.148v-8.621l0.031-1.417l0.051-1.549c-0.521,0.523-0.888,0.866-1.09,1.029
			l-1.712,1.375l-1.52-1.895l4.8-3.821h2.588V156.528z"/>
		<path fill="#FFFFFF" d="M186.923,149.079c0,2.602-0.426,4.528-1.278,5.778c-0.854,1.25-2.166,1.875-3.938,1.875
			c-1.723,0-3.019-0.645-3.892-1.936s-1.311-3.196-1.311-5.717c0-2.629,0.426-4.567,1.271-5.813c0.852-1.246,2.156-1.87,3.926-1.87
			c1.719,0,3.019,0.652,3.896,1.957C186.483,144.657,186.923,146.566,186.923,149.079z M179.637,149.079
			c0,1.828,0.157,3.137,0.474,3.929c0.315,0.792,0.851,1.187,1.599,1.187c0.729,0,1.265-0.401,1.589-1.203
			c0.326-0.801,0.489-2.106,0.489-3.913c0-1.827-0.165-3.14-0.494-3.938c-0.33-0.798-0.857-1.197-1.584-1.197
			c-0.74,0-1.271,0.399-1.59,1.197C179.797,145.939,179.637,147.252,179.637,149.079z"/>
		<path fill="#FFFFFF" d="M199.253,153.441h-1.793v3.087h-3.078v-3.087h-6.358v-2.191l6.532-9.62h2.903v9.365h1.793L199.253,153.441
			L199.253,153.441z M194.382,150.995v-2.527c0-0.421,0.018-1.033,0.052-1.834c0.033-0.802,0.063-1.267,0.082-1.396h-0.082
			c-0.251,0.557-0.555,1.101-0.907,1.631l-2.729,4.127L194.382,150.995L194.382,150.995z"/>
		<g>
			<path fill="#FFFFFF" d="M159.576,158.59c0.141-0.542,0.295-1.211,0.465-2.008c0.169-0.797,0.288-1.435,0.354-1.914h1.415
				l0.117,0.18c-0.136,0.521-0.329,1.126-0.583,1.816c-0.255,0.69-0.519,1.332-0.794,1.926H159.576z"/>
		</g>
	</g>
	<g>
		<path fill="#87868A" d="M61.059,226.451H46.161v-4.208c0-1.979,0.295-3.407,0.885-4.29c0.592-0.886,1.521-1.325,2.8-1.325
			c0.883,0,1.61,0.246,2.186,0.739c0.573,0.491,0.945,1.211,1.115,2.153h0.104c0.389-2.248,1.578-3.373,3.567-3.373
			c1.332,0,2.371,0.449,3.118,1.35c0.748,0.896,1.121,2.152,1.121,3.77L61.059,226.451L61.059,226.451z M52.529,224.719v-2.853
			c0-1.225-0.188-2.104-0.57-2.641c-0.387-0.537-1.027-0.809-1.938-0.809c-0.834,0-1.437,0.299-1.806,0.896
			c-0.368,0.597-0.555,1.551-0.555,2.854v2.547L52.529,224.719L52.529,224.719z M59.581,224.719v-3.106
			c0-1.198-0.231-2.104-0.698-2.715c-0.465-0.605-1.192-0.912-2.188-0.912c-0.924,0-1.604,0.313-2.034,0.936
			c-0.438,0.621-0.652,1.564-0.652,2.838v2.967L59.581,224.719L59.581,224.719z"/>
		<path fill="#87868A" d="M46.864,213.326c-0.388,0-0.671-0.087-0.852-0.265c-0.181-0.179-0.271-0.396-0.271-0.656
			c0-0.295,0.092-0.547,0.271-0.76c0.188-0.211,0.466-0.316,0.847-0.316c0.384,0,0.664,0.105,0.854,0.316
			c0.188,0.213,0.28,0.465,0.28,0.76c0,0.264-0.098,0.479-0.28,0.656C47.528,213.239,47.244,213.326,46.864,213.326z
			 M61.059,213.185H49.891v-1.55h11.168V213.185z"/>
		<path fill="#87868A" d="M61.059,207.905H45.203v-1.691h15.854L61.059,207.905L61.059,207.905z"/>
		<path fill="#87868A" d="M61.059,202.627H45.203v-1.69h15.854L61.059,202.627L61.059,202.627z"/>
		<path fill="#87868A" d="M46.864,197.491c-0.388,0-0.671-0.09-0.852-0.266c-0.181-0.178-0.271-0.396-0.271-0.656
			c0-0.293,0.092-0.547,0.271-0.758c0.188-0.213,0.466-0.317,0.847-0.317c0.384,0,0.664,0.104,0.854,0.317
			c0.188,0.211,0.28,0.465,0.28,0.758c0,0.264-0.098,0.479-0.28,0.656C47.528,197.401,47.244,197.491,46.864,197.491z
			 M61.059,197.351H49.891V195.8h11.168V197.351z"/>
		<path fill="#87868A" d="M55.454,192.69c-1.816,0-3.231-0.455-4.247-1.36c-1.018-0.908-1.521-2.168-1.521-3.78
			c0-1.558,0.521-2.795,1.561-3.713c1.033-0.918,2.438-1.377,4.211-1.377c1.82,0,3.248,0.457,4.271,1.372
			c1.023,0.914,1.536,2.178,1.536,3.789c0,0.996-0.234,1.88-0.704,2.651c-0.471,0.771-1.145,1.367-2.021,1.787
			S56.632,192.69,55.454,192.69z M55.454,190.959c1.43,0,2.521-0.286,3.27-0.856c0.749-0.567,1.124-1.412,1.124-2.521
			s-0.373-1.951-1.119-2.525c-0.745-0.574-1.837-0.861-3.271-0.861c-1.423,0-2.504,0.287-3.243,0.861
			c-0.737,0.574-1.107,1.424-1.107,2.547c0,1.107,0.364,1.944,1.098,2.51C52.925,190.677,54.011,190.959,55.454,190.959z"/>
		<path fill="#87868A" d="M61.059,179.465H49.891v-1.376l1.509-0.275v-0.081c-0.544-0.347-0.966-0.832-1.266-1.457
			c-0.299-0.625-0.447-1.321-0.447-2.089c0-1.346,0.324-2.357,0.978-3.037c0.646-0.68,1.688-1.02,3.108-1.02h7.286v1.692H53.82
			c-0.908,0-1.593,0.207-2.042,0.621c-0.445,0.415-0.675,1.063-0.675,1.946c0,1.169,0.316,2.024,0.95,2.568
			c0.633,0.543,1.678,0.815,3.135,0.815h5.871V179.465z"/>
		<path fill="#87868A" d="M52.635,167.369c-0.91,0-1.63-0.37-2.156-1.109c-0.523-0.74-0.791-1.755-0.791-3.044
			c0-1.195,0.244-2.363,0.732-3.504l1.378,0.59c-0.463,1.117-0.694,2.13-0.694,3.037c0,0.803,0.127,1.409,0.379,1.817
			c0.251,0.408,0.603,0.612,1.041,0.612c0.3,0,0.56-0.076,0.771-0.229c0.211-0.153,0.412-0.399,0.604-0.74
			c0.19-0.341,0.467-0.994,0.827-1.961c0.482-1.324,0.971-2.215,1.461-2.671c0.489-0.457,1.105-0.686,1.851-0.686
			c1.032,0,1.831,0.386,2.396,1.155c0.563,0.771,0.842,1.852,0.842,3.243c0,1.479-0.229,2.631-0.69,3.458H59.02
			c0.271-0.535,0.485-1.11,0.646-1.724c0.153-0.614,0.231-1.206,0.231-1.775c0-0.885-0.142-1.565-0.424-2.043
			c-0.282-0.477-0.714-0.715-1.292-0.715c-0.438,0-0.811,0.189-1.118,0.567c-0.309,0.378-0.676,1.114-1.099,2.211
			c-0.393,1.041-0.729,1.78-1.021,2.217c-0.29,0.436-0.616,0.76-0.982,0.974C53.585,167.263,53.146,167.369,52.635,167.369z"/>
		<path fill="#87868A" d="M55.902,152.409h-1.313v-1.528l-0.428,0.021h-0.448l-0.814-0.021v1.528h-1.313v-1.652
			c-1.772-0.265-3.154-0.894-4.146-1.885c-0.992-0.992-1.484-2.292-1.484-3.902c0-1.365,0.334-2.608,1.002-3.729l1.42,0.724
			c-0.582,1.128-0.872,2.13-0.872,3.006c0,2.167,1.357,3.519,4.086,4.055v-5.195H52.9v5.319l0.581,0.021h0.651l0.458-0.021v-4.698
			h1.313v4.554c1.229-0.251,2.185-0.721,2.854-1.41c0.67-0.689,1.01-1.611,1.01-2.767c0-1.06-0.227-2.109-0.677-3.148h1.521
			c0.438,0.992,0.653,2.068,0.653,3.23c0,1.609-0.457,2.905-1.371,3.887c-0.913,0.981-2.243,1.628-3.989,1.94v1.671H55.902z"/>
	</g>
	<line fill="none" stroke="#666666" stroke-width="0.5" stroke-miterlimit="10" x1="92.317" y1="85.746" x2="92.317" y2="333.776"/>
	
		<line fill="none" stroke="#666666" stroke-width="0.5" stroke-miterlimit="10" x1="223.027" y1="333.776" x2="78.597" y2="333.776"/>
	<line fill="none" stroke="#666666" stroke-width="0.5" stroke-miterlimit="10" x1="223.027" y1="85.746" x2="78.597" y2="85.746"/>
</g>
<g id="EU28-estimates">
	<g>
		<rect x="384.259" y="214.99" fill="#199598" width="100.497" height="118.786"/>
		<rect x="384.259" y="85.796" fill="#DD9B2B" width="100.497" height="129.194"/>
	</g>
	<g>
		<path fill="#9A999E" d="M306.778,88.166v-1.239l5.896-8.399h1.495v8.347h1.854v1.291h-1.854v2.845h-1.338v-2.845H306.778z
			 M308.2,86.875h4.629v-4.127c0-0.81,0.027-1.724,0.085-2.743h-0.063c-0.271,0.543-0.526,0.994-0.766,1.35L308.2,86.875z"/>
		<path fill="#9A999E" d="M316.723,88.166v-1.239l5.893-8.399h1.495v8.347h1.859v1.291h-1.859v2.845h-1.333v-2.845H316.723z
			 M318.148,86.875h4.629v-4.127c0-0.81,0.027-1.724,0.084-2.743h-0.063c-0.271,0.543-0.526,0.994-0.77,1.35L318.148,86.875z"/>
		<path fill="#9A999E" d="M327.311,85.708c0-2.441,0.475-4.267,1.423-5.476s2.354-1.814,4.208-1.814
			c0.646,0,1.147,0.054,1.521,0.161v1.231c-0.438-0.164-0.938-0.247-1.5-0.247c-1.33,0-2.352,0.417-3.054,1.249
			c-0.698,0.833-1.087,2.141-1.149,3.924h0.102c0.623-0.963,1.607-1.445,2.955-1.445c1.12,0,2.004,0.336,2.649,1.008
			c0.645,0.672,0.968,1.584,0.968,2.736c0,1.288-0.354,2.301-1.063,3.039c-0.708,0.738-1.664,1.106-2.87,1.106
			c-1.28,0-2.304-0.482-3.057-1.447C327.688,88.768,327.311,87.427,327.311,85.708z M328.756,86.721c0,0.585,0.108,1.13,0.339,1.636
			c0.227,0.505,0.548,0.906,0.964,1.201c0.417,0.295,0.891,0.443,1.423,0.443c0.804,0,1.428-0.254,1.872-0.762
			c0.444-0.508,0.667-1.242,0.667-2.202c0-0.823-0.207-1.471-0.62-1.942c-0.413-0.472-1.03-0.707-1.851-0.707
			c-0.515,0-0.979,0.105-1.401,0.315c-0.425,0.21-0.764,0.5-1.015,0.869C328.882,85.94,328.756,86.324,328.756,86.721z"/>
	</g>
	<g>
		<path fill="#9A999E" d="M327.184,327.548c0-2.161,0.338-3.765,1.014-4.813c0.676-1.047,1.706-1.569,3.092-1.569
			c1.352,0,2.368,0.546,3.067,1.638c0.698,1.094,1.047,2.674,1.047,4.744c0,2.146-0.338,3.75-1.014,4.811
			c-0.676,1.063-1.709,1.59-3.104,1.59c-1.34,0-2.354-0.543-3.058-1.627C327.531,331.233,327.184,329.646,327.184,327.548z
			 M328.628,327.548c0,1.803,0.212,3.113,0.636,3.936s1.1,1.231,2.021,1.231c0.938,0,1.618-0.417,2.039-1.25
			s0.637-2.139,0.637-3.918c0-1.776-0.216-3.082-0.637-3.907c-0.421-0.828-1.101-1.242-2.039-1.242
			c-0.927,0-1.603,0.408-2.021,1.228C328.84,324.438,328.628,325.747,328.628,327.548z"/>
	</g>
	<g>
		<path fill="#FFFFFF" d="M427.073,272.294h-10.414v-2.189l3.739-3.778c1.107-1.138,1.831-1.923,2.171-2.359
			c0.34-0.436,0.584-0.844,0.733-1.218c0.146-0.374,0.225-0.764,0.225-1.162c0-0.602-0.165-1.042-0.494-1.335
			c-0.329-0.292-0.77-0.438-1.315-0.438c-0.577,0-1.143,0.133-1.686,0.396c-0.544,0.268-1.106,0.645-1.697,1.131l-1.717-2.025
			c0.733-0.625,1.347-1.064,1.824-1.325c0.482-0.259,1.009-0.456,1.579-0.597s1.209-0.209,1.916-0.209
			c0.931,0,1.753,0.17,2.466,0.511c0.714,0.342,1.271,0.813,1.661,1.429c0.396,0.609,0.591,1.313,0.591,2.1
			c0,0.688-0.12,1.329-0.356,1.933c-0.241,0.603-0.615,1.219-1.121,1.851c-0.506,0.633-1.397,1.531-2.675,2.701l-1.916,1.805v0.146
			h6.486V272.294L427.073,272.294z"/>
		<path fill="#FFFFFF" d="M436.36,272.294h-3.146v-8.621l0.026-1.417l0.056-1.549c-0.523,0.522-0.892,0.866-1.096,1.028
			l-1.712,1.375l-1.518-1.896l4.799-3.819h2.589L436.36,272.294L436.36,272.294z"/>
		<path fill="#FFFFFF" d="M451.238,269.207h-1.793v3.087h-3.077v-3.087h-6.354v-2.19l6.532-9.619h2.899v9.363h1.793V269.207
			L451.238,269.207z M446.365,266.761v-2.525c0-0.422,0.021-1.03,0.056-1.834c0.028-0.803,0.061-1.269,0.079-1.396h-0.079
			c-0.255,0.559-0.559,1.104-0.907,1.631l-2.731,4.129L446.365,266.761L446.365,266.761z"/>
	</g>
	<g>
		<path fill="#FFFFFF" d="M427.073,156.528h-10.414v-2.191l3.739-3.781c1.107-1.134,1.831-1.92,2.171-2.359
			c0.34-0.439,0.584-0.844,0.733-1.218c0.146-0.374,0.225-0.761,0.225-1.162c0-0.598-0.165-1.042-0.494-1.335
			c-0.329-0.292-0.77-0.438-1.315-0.438c-0.577,0-1.143,0.132-1.686,0.397c-0.544,0.265-1.106,0.642-1.697,1.131l-1.717-2.028
			c0.733-0.625,1.347-1.066,1.824-1.325c0.482-0.258,1.009-0.457,1.579-0.596c0.57-0.139,1.209-0.209,1.916-0.209
			c0.931,0,1.753,0.17,2.466,0.51c0.714,0.34,1.271,0.815,1.661,1.427c0.396,0.611,0.591,1.311,0.591,2.099
			c0,0.686-0.12,1.33-0.356,1.931c-0.241,0.601-0.615,1.217-1.121,1.849s-1.397,1.532-2.675,2.701l-1.916,1.804v0.143h6.486V156.528
			L427.073,156.528z"/>
		<path fill="#FFFFFF" d="M438.406,144.962c0,0.931-0.278,1.722-0.846,2.375c-0.563,0.652-1.355,1.101-2.374,1.345v0.062
			c1.202,0.149,2.112,0.515,2.73,1.095c0.613,0.581,0.928,1.364,0.928,2.349c0,1.433-0.521,2.549-1.563,3.347
			c-1.039,0.798-2.521,1.197-4.453,1.197c-1.611,0-3.05-0.268-4.3-0.805v-2.68c0.577,0.292,1.213,0.53,1.905,0.713
			c0.693,0.184,1.379,0.275,2.059,0.275c1.039,0,1.812-0.176,2.308-0.53c0.496-0.353,0.743-0.92,0.743-1.702
			c0-0.7-0.284-1.196-0.854-1.488c-0.571-0.292-1.48-0.438-2.73-0.438h-1.132v-2.416h1.151c1.154,0,1.999-0.151,2.532-0.453
			s0.8-0.82,0.8-1.554c0-1.127-0.707-1.691-2.119-1.691c-0.489,0-0.987,0.082-1.493,0.245s-1.063,0.445-1.687,0.846l-1.457-2.17
			c1.354-0.979,2.979-1.468,4.855-1.468c1.542,0,2.765,0.313,3.653,0.938C437.963,142.979,438.406,143.848,438.406,144.962z"/>
		<path fill="#FFFFFF" d="M450.902,156.528h-10.414v-2.191l3.739-3.781c1.107-1.134,1.831-1.92,2.171-2.359
			c0.34-0.439,0.584-0.844,0.733-1.218c0.146-0.374,0.225-0.761,0.225-1.162c0-0.598-0.165-1.042-0.494-1.335
			c-0.33-0.292-0.77-0.438-1.315-0.438c-0.577,0-1.143,0.132-1.686,0.397c-0.544,0.265-1.106,0.642-1.702,1.131l-1.712-2.028
			c0.733-0.625,1.343-1.066,1.824-1.325c0.482-0.258,1.009-0.457,1.579-0.596c0.57-0.139,1.209-0.209,1.916-0.209
			c0.931,0,1.753,0.17,2.466,0.51c0.714,0.34,1.269,0.815,1.661,1.427c0.394,0.611,0.591,1.311,0.591,2.099
			c0,0.686-0.12,1.33-0.356,1.931c-0.241,0.601-0.615,1.217-1.121,1.849c-0.511,0.632-1.397,1.532-2.68,2.701l-1.916,1.804v0.143
			h6.491V156.528L450.902,156.528z"/>
	</g>
	<g>
		<path fill="#87868A" d="M323.218,226.451h-14.898v-4.208c0-1.979,0.296-3.407,0.886-4.29c0.596-0.886,1.523-1.325,2.804-1.325
			c0.883,0,1.606,0.246,2.185,0.739c0.574,0.491,0.946,1.211,1.116,2.153h0.103c0.393-2.248,1.578-3.373,3.571-3.373
			c1.332,0,2.371,0.449,3.118,1.35s1.121,2.152,1.121,3.77L323.218,226.451L323.218,226.451z M314.688,224.719v-2.853
			c0-1.225-0.191-2.104-0.574-2.641s-1.024-0.809-1.938-0.809c-0.834,0-1.438,0.299-1.81,0.896
			c-0.364,0.599-0.555,1.551-0.555,2.854v2.547L314.688,224.719L314.688,224.719z M321.739,224.719v-3.106
			c0-1.198-0.229-2.104-0.693-2.715c-0.47-0.606-1.193-0.912-2.188-0.912c-0.924,0-1.604,0.313-2.038,0.936
			c-0.435,0.621-0.65,1.564-0.65,2.838v2.967L321.739,224.719L321.739,224.719z"/>
		<path fill="#87868A" d="M309.021,213.326c-0.387,0-0.671-0.087-0.851-0.265c-0.185-0.179-0.271-0.396-0.271-0.656
			c0-0.295,0.091-0.547,0.274-0.76c0.184-0.211,0.466-0.316,0.846-0.316c0.381,0,0.664,0.105,0.852,0.316
			c0.188,0.213,0.28,0.465,0.28,0.76c0,0.264-0.094,0.479-0.28,0.656C309.686,213.239,309.402,213.326,309.021,213.326z
			 M323.218,213.185h-11.169v-1.55h11.169V213.185z"/>
		<path fill="#87868A" d="M323.218,207.905H307.36v-1.691h15.856L323.218,207.905L323.218,207.905z"/>
		<path fill="#87868A" d="M323.218,202.627H307.36v-1.69h15.856L323.218,202.627L323.218,202.627z"/>
		<path fill="#87868A" d="M309.021,197.491c-0.387,0-0.671-0.09-0.851-0.266c-0.185-0.178-0.271-0.396-0.271-0.656
			c0-0.293,0.091-0.547,0.274-0.758c0.184-0.213,0.466-0.317,0.846-0.317c0.381,0,0.664,0.104,0.852,0.317
			c0.188,0.211,0.28,0.465,0.28,0.758c0,0.264-0.094,0.479-0.28,0.656C309.686,197.401,309.402,197.491,309.021,197.491z
			 M323.218,197.351h-11.169V195.8h11.169V197.351z"/>
		<path fill="#87868A" d="M317.612,192.69c-1.813,0-3.229-0.455-4.247-1.36c-1.014-0.908-1.521-2.168-1.521-3.78
			c0-1.558,0.519-2.795,1.557-3.713c1.037-0.918,2.44-1.377,4.211-1.377c1.824,0,3.248,0.457,4.271,1.372
			c1.021,0.914,1.537,2.178,1.537,3.789c0,0.996-0.235,1.88-0.705,2.651c-0.474,0.771-1.146,1.367-2.021,1.787
			S318.785,192.69,317.612,192.69z M317.612,190.959c1.43,0,2.521-0.286,3.271-0.856c0.749-0.567,1.123-1.412,1.123-2.521
			s-0.372-1.951-1.118-2.525c-0.745-0.574-1.837-0.861-3.273-0.861c-1.423,0-2.504,0.287-3.243,0.861
			c-0.734,0.574-1.104,1.424-1.104,2.547c0,1.107,0.363,1.944,1.093,2.51C315.078,190.677,316.17,190.959,317.612,190.959z"/>
		<path fill="#87868A" d="M323.218,179.465h-11.169v-1.376l1.509-0.275v-0.081c-0.543-0.347-0.965-0.832-1.264-1.457
			c-0.304-0.625-0.448-1.321-0.448-2.089c0-1.346,0.324-2.357,0.973-3.037c0.649-0.68,1.688-1.02,3.113-1.02h7.286v1.692h-7.239
			c-0.913,0-1.594,0.207-2.043,0.621c-0.449,0.415-0.674,1.063-0.674,1.946c0,1.169,0.313,2.024,0.95,2.568
			c0.633,0.543,1.678,0.815,3.135,0.815h5.871V179.465z"/>
		<path fill="#87868A" d="M314.794,167.369c-0.911,0-1.636-0.37-2.158-1.109c-0.526-0.74-0.79-1.755-0.79-3.044
			c0-1.195,0.244-2.363,0.729-3.504l1.377,0.59c-0.463,1.117-0.689,2.13-0.689,3.037c0,0.803,0.126,1.409,0.378,1.817
			c0.252,0.408,0.6,0.612,1.042,0.612c0.3,0,0.555-0.076,0.766-0.229c0.212-0.153,0.412-0.399,0.604-0.74
			c0.188-0.341,0.466-0.994,0.827-1.961c0.479-1.324,0.97-2.215,1.46-2.671c0.486-0.457,1.104-0.686,1.849-0.686
			c1.035,0,1.832,0.386,2.394,1.155c0.563,0.771,0.847,1.852,0.847,3.243c0,1.479-0.231,2.631-0.693,3.458h-1.562
			c0.271-0.535,0.482-1.11,0.645-1.724c0.156-0.614,0.234-1.206,0.234-1.775c0-0.885-0.146-1.565-0.429-2.043
			c-0.277-0.477-0.713-0.715-1.292-0.715c-0.436,0-0.809,0.189-1.113,0.567c-0.313,0.378-0.681,1.114-1.104,2.211
			c-0.388,1.041-0.727,1.78-1.016,2.217c-0.29,0.436-0.618,0.76-0.986,0.974C315.74,167.263,315.304,167.369,314.794,167.369z"/>
		<path fill="#87868A" d="M318.061,152.409h-1.314v-1.528l-0.428,0.021h-0.448l-0.813-0.021v1.528h-1.314v-1.652
			c-1.771-0.265-3.151-0.894-4.146-1.885c-0.992-0.992-1.488-2.292-1.488-3.902c0-1.365,0.334-2.608,1.002-3.729l1.419,0.724
			c-0.581,1.128-0.872,2.13-0.872,3.006c0,2.167,1.362,3.519,4.087,4.055v-5.195h1.314v5.319l0.581,0.021h0.646l0.46-0.021v-4.698
			h1.313v4.554c1.229-0.251,2.181-0.721,2.854-1.41s1.01-1.611,1.01-2.767c0-1.06-0.229-2.109-0.682-3.148h1.521
			c0.436,0.992,0.653,2.068,0.653,3.23c0,1.609-0.457,2.905-1.371,3.887c-0.913,0.981-2.243,1.628-3.989,1.94v1.671H318.061z"/>
	</g>
	<g>
		<path fill="#666565" d="M332.814,46.87V31.972h8.306v1.549h-6.568v4.769h6.176v1.549h-6.176v5.482h6.568v1.549H332.814z"/>
		<path fill="#666565" d="M344.269,41.571v-9.599h1.732v9.736c0,1.245,0.34,2.201,1.019,2.868c0.68,0.667,1.678,1,2.996,1
			c1.257,0,2.225-0.335,2.904-1.005c0.68-0.67,1.019-1.631,1.019-2.883v-9.715h1.732v9.64c0,1.699-0.518,3.034-1.538,4.005
			c-1.026,0.972-2.438,1.457-4.229,1.457s-3.181-0.489-4.162-1.467C344.76,44.628,344.269,43.283,344.269,41.571z"/>
		<path fill="#666565" d="M358.586,46.87v-1.438l3.924-3.959c1.19-1.214,1.979-2.08,2.359-2.599
			c0.385-0.518,0.665-1.023,0.855-1.514c0.188-0.491,0.285-1.02,0.285-1.586c0-0.798-0.241-1.431-0.728-1.898
			c-0.479-0.467-1.147-0.701-2.008-0.701c-0.618,0-1.204,0.103-1.758,0.307s-1.17,0.577-1.85,1.115l-0.896-1.156
			c1.372-1.122,2.866-1.683,4.483-1.683c1.396,0,2.497,0.357,3.291,1.07c0.795,0.713,1.188,1.671,1.188,2.875
			c0,0.948-0.265,1.886-0.795,2.814c-0.527,0.928-1.521,2.102-2.976,3.521l-3.264,3.203v0.082h7.662v1.549h-9.79V46.87H358.586z"/>
		<path fill="#666565" d="M370.56,43.069c0-1.705,1.046-3.033,3.137-3.984c-0.946-0.53-1.627-1.103-2.039-1.717
			c-0.412-0.614-0.618-1.303-0.618-2.063c0-1.08,0.401-1.941,1.204-2.583c0.808-0.642,1.877-0.963,3.229-0.963
			c1.358,0,2.438,0.316,3.241,0.948c0.798,0.632,1.191,1.505,1.191,2.619c0,0.733-0.229,1.403-0.688,2.007
			c-0.458,0.605-1.189,1.155-2.194,1.651c1.216,0.578,2.08,1.184,2.593,1.819c0.517,0.635,0.771,1.371,0.771,2.206
			c0,1.237-0.438,2.224-1.298,2.96c-0.865,0.737-2.057,1.105-3.563,1.105c-1.595,0-2.821-0.348-3.68-1.044
			C370.989,45.333,370.56,44.347,370.56,43.069z M372.252,43.11c0,0.815,0.278,1.451,0.85,1.906s1.362,0.683,2.386,0.683
			c1.011,0,1.798-0.238,2.36-0.713c0.563-0.476,0.845-1.127,0.845-1.957c0-0.659-0.265-1.245-0.793-1.758
			c-0.529-0.513-1.452-1.01-2.768-1.493c-1.016,0.435-1.743,0.916-2.198,1.442C372.479,41.746,372.252,42.376,372.252,43.11z
			 M372.73,35.375c0,0.625,0.2,1.162,0.6,1.61c0.4,0.449,1.145,0.897,2.223,1.345c0.97-0.407,1.651-0.846,2.06-1.314
			c0.404-0.468,0.605-1.016,0.605-1.641c0-0.686-0.246-1.231-0.737-1.635c-0.492-0.404-1.169-0.606-2.029-0.606
			c-0.848,0-1.513,0.204-1.993,0.611C372.972,34.152,372.73,34.696,372.73,35.375z"/>
		<path fill="#666565" d="M388.025,41.377c0-1.8,0.441-3.23,1.326-4.29c0.884-1.06,2.07-1.589,3.561-1.589
			c1.396,0,2.498,0.46,3.313,1.38c0.813,0.921,1.219,2.135,1.219,3.643v1.07h-7.684c0.029,1.311,0.36,2.306,0.995,2.985
			c0.63,0.68,1.516,1.019,2.654,1.019c1.198,0,2.389-0.251,3.561-0.754v1.508c-0.602,0.258-1.16,0.443-1.691,0.555
			c-0.532,0.112-1.174,0.168-1.926,0.168c-1.646,0-2.945-0.502-3.897-1.508C388.505,44.558,388.025,43.165,388.025,41.377z
			 M389.8,40.216h5.849c0-1.066-0.238-1.883-0.715-2.451c-0.479-0.567-1.156-0.851-2.041-0.851c-0.898,0-1.614,0.292-2.148,0.876
			C390.204,38.375,389.894,39.183,389.8,40.216z"/>
		<path fill="#666565" d="M399.643,38.446c0-0.911,0.37-1.63,1.109-2.158c0.735-0.527,1.754-0.791,3.044-0.791
			c1.19,0,2.358,0.244,3.504,0.733l-0.59,1.377c-1.117-0.463-2.135-0.695-3.037-0.695c-0.809,0-1.409,0.126-1.817,0.378
			c-0.409,0.251-0.613,0.599-0.613,1.042c0,0.3,0.077,0.555,0.23,0.766c0.152,0.211,0.396,0.412,0.74,0.603
			c0.34,0.191,0.994,0.467,1.961,0.828c1.324,0.483,2.215,0.97,2.671,1.46c0.457,0.49,0.686,1.104,0.686,1.849
			c0,1.034-0.386,1.832-1.15,2.393c-0.771,0.561-1.854,0.841-3.243,0.841c-1.479,0-2.631-0.23-3.459-0.693V44.82
			c0.536,0.272,1.105,0.487,1.725,0.644c0.613,0.157,1.205,0.235,1.775,0.235c0.885,0,1.563-0.141,2.042-0.424
			c0.477-0.283,0.715-0.713,0.715-1.292c0-0.436-0.188-0.809-0.566-1.119c-0.378-0.31-1.11-0.676-2.211-1.098
			c-1.042-0.388-1.776-0.727-2.217-1.017s-0.761-0.618-0.974-0.986C399.745,39.396,399.643,38.957,399.643,38.446z"/>
		<path fill="#666565" d="M408.829,37.016v-0.815l1.604-0.703l0.713-2.385h0.979v2.588h3.235v1.314h-3.235v6.588
			c0,0.674,0.154,1.191,0.479,1.552c0.319,0.361,0.758,0.542,1.314,0.542c0.299,0,0.588-0.022,0.861-0.066
			c0.279-0.044,0.5-0.09,0.663-0.138v1.278c-0.184,0.087-0.454,0.159-0.811,0.216c-0.356,0.057-0.682,0.085-0.963,0.085
			c-2.16,0-3.24-1.138-3.24-3.414v-6.644h-1.604L408.829,37.016L408.829,37.016z"/>
		<path fill="#666565" d="M417.532,32.675c0-0.387,0.088-0.671,0.269-0.851c0.175-0.18,0.395-0.27,0.654-0.27
			c0.296,0,0.549,0.092,0.761,0.275c0.213,0.184,0.314,0.466,0.314,0.846c0,0.38-0.104,0.664-0.314,0.851s-0.465,0.28-0.761,0.28
			c-0.265,0-0.479-0.093-0.654-0.28C417.62,33.339,417.532,33.056,417.532,32.675z M417.68,46.87V35.702h1.549V46.87H417.68z"/>
		<path fill="#666565" d="M422.954,46.87V35.702h1.375l0.275,1.509h0.081c0.319-0.537,0.771-0.957,1.351-1.259
			c0.581-0.302,1.231-0.453,1.951-0.453c1.746,0,2.893,0.625,3.424,1.876h0.082c0.333-0.579,0.815-1.036,1.447-1.372
			s1.354-0.504,2.16-0.504c1.264,0,2.209,0.324,2.838,0.973c0.628,0.648,0.942,1.687,0.942,3.113v7.286h-1.691V39.59
			c0-0.892-0.188-1.561-0.57-2.006c-0.381-0.446-0.972-0.669-1.771-0.669c-1.053,0-1.831,0.303-2.334,0.909
			c-0.503,0.605-0.754,1.538-0.754,2.798v6.249h-1.691V39.59c0-0.892-0.188-1.561-0.57-2.006c-0.381-0.446-0.976-0.669-1.778-0.669
			c-1.063,0-1.836,0.318-2.329,0.955c-0.492,0.637-0.738,1.68-0.738,3.13v5.871L422.954,46.87L422.954,46.87z"/>
		<path fill="#666565" d="M441.531,43.794c0-2.25,1.811-3.429,5.418-3.537l1.898-0.062v-0.702c0-0.887-0.188-1.542-0.564-1.965
			c-0.377-0.423-0.979-0.634-1.806-0.634c-0.929,0-1.979,0.289-3.153,0.866l-0.521-1.298c0.551-0.294,1.148-0.525,1.809-0.692
			c0.655-0.167,1.313-0.251,1.973-0.251c1.329,0,2.315,0.295,2.956,0.887c0.646,0.591,0.967,1.539,0.967,2.843v7.622h-1.257
			l-0.337-1.571h-0.082c-0.556,0.693-1.105,1.162-1.658,1.407c-0.558,0.246-1.242,0.368-2.069,0.368
			c-1.113,0-1.985-0.284-2.616-0.853C441.85,45.652,441.531,44.843,441.531,43.794z M443.323,43.814c0,0.615,0.188,1.082,0.56,1.403
			c0.368,0.321,0.887,0.481,1.551,0.481c1.052,0,1.877-0.29,2.477-0.87c0.604-0.581,0.9-1.393,0.9-2.437v-1.014l-1.688,0.071
			c-1.343,0.048-2.311,0.258-2.898,0.63C443.62,42.451,443.323,43.029,443.323,43.814z"/>
		<path fill="#666565" d="M452.494,37.016v-0.815l1.604-0.703l0.713-2.385h0.979v2.588h3.236v1.314h-3.236v6.588
			c0,0.674,0.155,1.191,0.479,1.552c0.319,0.361,0.758,0.542,1.313,0.542c0.3,0,0.589-0.022,0.862-0.066
			c0.279-0.044,0.5-0.09,0.663-0.138v1.278c-0.184,0.087-0.454,0.159-0.811,0.216c-0.356,0.057-0.683,0.085-0.963,0.085
			c-2.16,0-3.24-1.138-3.24-3.414v-6.644h-1.604L452.494,37.016L452.494,37.016z"/>
		<path fill="#666565" d="M460.723,41.377c0-1.8,0.438-3.23,1.326-4.29c0.884-1.06,2.065-1.589,3.561-1.589
			c1.396,0,2.498,0.46,3.313,1.38c0.813,0.921,1.219,2.135,1.219,3.643v1.07h-7.688c0.034,1.311,0.365,2.306,0.995,2.985
			c0.63,0.68,1.521,1.019,2.659,1.019c1.198,0,2.384-0.251,3.556-0.754v1.508c-0.597,0.258-1.155,0.443-1.688,0.555
			c-0.532,0.112-1.174,0.168-1.926,0.168c-1.646,0-2.945-0.502-3.897-1.508S460.723,43.165,460.723,41.377z M462.492,40.216h5.854
			c0-1.066-0.238-1.883-0.715-2.451c-0.479-0.567-1.156-0.851-2.041-0.851c-0.898,0-1.614,0.292-2.148,0.876
			C462.905,38.375,462.592,39.183,462.492,40.216z"/>
		<path fill="#666565" d="M472.34,38.446c0-0.911,0.37-1.63,1.104-2.158c0.74-0.527,1.754-0.791,3.044-0.791
			c1.195,0,2.363,0.244,3.504,0.733l-0.59,1.377c-1.117-0.463-2.13-0.695-3.037-0.695c-0.804,0-1.404,0.126-1.813,0.378
			c-0.409,0.251-0.613,0.599-0.613,1.042c0,0.3,0.077,0.555,0.23,0.766c0.147,0.211,0.396,0.412,0.735,0.603
			c0.34,0.191,0.994,0.467,1.961,0.828c1.324,0.483,2.22,0.97,2.676,1.46c0.452,0.49,0.686,1.104,0.686,1.849
			c0,1.034-0.386,1.832-1.155,2.393c-0.771,0.561-1.852,0.841-3.243,0.841c-1.479,0-2.631-0.23-3.459-0.693V44.82
			c0.536,0.272,1.11,0.487,1.729,0.644c0.608,0.157,1.205,0.235,1.771,0.235c0.89,0,1.565-0.141,2.042-0.424
			c0.479-0.283,0.72-0.713,0.72-1.292c0-0.436-0.188-0.809-0.566-1.119c-0.378-0.31-1.115-0.676-2.211-1.098
			c-1.042-0.388-1.78-0.727-2.217-1.017c-0.438-0.29-0.766-0.618-0.979-0.986C472.445,39.396,472.34,38.957,472.34,38.446z"/>
	</g>
	
		<line fill="none" stroke="#666666" stroke-width="0.5" stroke-miterlimit="10" x1="354.046" y1="85.746" x2="354.046" y2="333.776"/>
	
		<line fill="none" stroke="#666666" stroke-width="0.5" stroke-miterlimit="10" x1="484.757" y1="333.776" x2="340.323" y2="333.776"/>
	
		<line fill="none" stroke="#666666" stroke-width="0.5" stroke-miterlimit="10" x1="484.757" y1="85.746" x2="340.323" y2="85.746"/>
</g>
<g id="legend">
	<rect x="563.448" y="184.116" fill="#DD9B2B" width="17.803" height="17.801"/>
	<rect x="563.448" y="211.714" fill="#199598" width="17.803" height="17.803"/>
	<g>
		<path fill="#5B5B5F" d="M594.687,196.817c-0.448,0.225-1.345,0.448-2.493,0.448c-2.661,0-4.665-1.681-4.665-4.776
			c0-2.955,2.004-4.958,4.931-4.958c1.177,0,1.919,0.252,2.241,0.42l-0.294,0.994c-0.462-0.224-1.12-0.392-1.905-0.392
			c-2.213,0-3.684,1.414-3.684,3.894c0,2.312,1.331,3.796,3.628,3.796c0.742,0,1.499-0.153,1.989-0.392L594.687,196.817z"/>
		<path fill="#5B5B5F" d="M602.149,193.68c0,2.508-1.737,3.601-3.376,3.601c-1.835,0-3.25-1.345-3.25-3.488
			c0-2.269,1.484-3.6,3.362-3.6C600.832,190.192,602.149,191.607,602.149,193.68z M596.77,193.75c0,1.485,0.854,2.605,2.059,2.605
			c1.177,0,2.06-1.106,2.06-2.634c0-1.148-0.574-2.604-2.031-2.604S596.77,192.462,596.77,193.75z"/>
		<path fill="#5B5B5F" d="M603.532,195.865c0.364,0.238,1.009,0.49,1.625,0.49c0.896,0,1.316-0.448,1.316-1.009
			c0-0.588-0.35-0.91-1.261-1.246c-1.219-0.435-1.793-1.106-1.793-1.919c0-1.093,0.883-1.989,2.34-1.989
			c0.686,0,1.288,0.196,1.667,0.42l-0.309,0.896c-0.267-0.168-0.757-0.392-1.387-0.392c-0.729,0-1.135,0.42-1.135,0.924
			c0,0.561,0.406,0.813,1.289,1.148c1.177,0.448,1.778,1.037,1.778,2.046c0,1.19-0.924,2.03-2.535,2.03
			c-0.742,0-1.429-0.182-1.905-0.462L603.532,195.865z"/>
		<path fill="#5B5B5F" d="M610.729,188.399v1.947h1.765v0.938h-1.765v3.655c0,0.841,0.237,1.317,0.924,1.317
			c0.322,0,0.561-0.042,0.715-0.084l0.056,0.924c-0.238,0.099-0.616,0.168-1.093,0.168c-0.574,0-1.036-0.182-1.33-0.518
			c-0.351-0.364-0.477-0.967-0.477-1.766v-3.697h-1.051v-0.938h1.051v-1.625L610.729,188.399z"/>
		<path fill="#5B5B5F" d="M616.845,192.182c0-0.701-0.014-1.275-0.056-1.835h1.093l0.069,1.12h0.028
			c0.336-0.645,1.12-1.274,2.241-1.274c0.938,0,2.396,0.561,2.396,2.886v4.048h-1.233v-3.908c0-1.093-0.405-2.003-1.568-2.003
			c-0.813,0-1.442,0.574-1.653,1.261c-0.056,0.154-0.084,0.364-0.084,0.574v4.076h-1.232V192.182z"/>
		<path fill="#5B5B5F" d="M630.751,193.68c0,2.508-1.737,3.601-3.376,3.601c-1.835,0-3.25-1.345-3.25-3.488
			c0-2.269,1.484-3.6,3.362-3.6C629.433,190.192,630.751,191.607,630.751,193.68z M625.372,193.75c0,1.485,0.854,2.605,2.059,2.605
			c1.177,0,2.06-1.106,2.06-2.634c0-1.148-0.574-2.604-2.031-2.604S625.372,192.462,625.372,193.75z"/>
		<path fill="#5B5B5F" d="M632.302,192.182c0-0.701-0.014-1.275-0.056-1.835h1.093l0.069,1.12h0.028
			c0.336-0.645,1.12-1.274,2.241-1.274c0.938,0,2.396,0.561,2.396,2.886v4.048h-1.233v-3.908c0-1.093-0.406-2.003-1.568-2.003
			c-0.813,0-1.442,0.574-1.653,1.261c-0.056,0.154-0.084,0.364-0.084,0.574v4.076h-1.232V192.182z"/>
		<path fill="#5B5B5F" d="M642.928,192.882v0.91h-3.46v-0.91H642.928z"/>
		<path fill="#5B5B5F" d="M644.495,197.126v-5.841h-0.952v-0.938h0.952v-0.322c0-0.953,0.21-1.821,0.784-2.367
			c0.463-0.448,1.079-0.631,1.653-0.631c0.435,0,0.813,0.099,1.051,0.196l-0.168,0.952c-0.183-0.084-0.435-0.153-0.785-0.153
			c-1.05,0-1.316,0.924-1.316,1.961v0.364h1.639v0.938h-1.639v5.841H644.495z"/>
		<path fill="#5B5B5F" d="M652.211,197.126l-0.098-0.854h-0.042c-0.378,0.532-1.106,1.009-2.073,1.009
			c-1.373,0-2.073-0.967-2.073-1.947c0-1.639,1.457-2.535,4.076-2.521v-0.14c0-0.561-0.154-1.569-1.541-1.569
			c-0.63,0-1.288,0.196-1.765,0.505l-0.28-0.813c0.561-0.364,1.373-0.603,2.228-0.603c2.073,0,2.577,1.415,2.577,2.773v2.535
			c0,0.589,0.028,1.163,0.112,1.625H652.211z M652.029,193.666c-1.345-0.028-2.872,0.21-2.872,1.527
			c0,0.798,0.532,1.176,1.163,1.176c0.882,0,1.442-0.56,1.639-1.134c0.042-0.126,0.07-0.267,0.07-0.393V193.666z"/>
		<path fill="#5B5B5F" d="M656.635,188.399v1.947h1.765v0.938h-1.765v3.655c0,0.841,0.237,1.317,0.924,1.317
			c0.322,0,0.561-0.042,0.715-0.084l0.056,0.924c-0.238,0.099-0.616,0.168-1.093,0.168c-0.574,0-1.036-0.182-1.33-0.518
			c-0.351-0.364-0.477-0.967-0.477-1.766v-3.697h-1.051v-0.938h1.051v-1.625L656.635,188.399z"/>
		<path fill="#5B5B5F" d="M663.537,197.126l-0.098-0.854h-0.042c-0.378,0.532-1.106,1.009-2.073,1.009
			c-1.373,0-2.073-0.967-2.073-1.947c0-1.639,1.457-2.535,4.076-2.521v-0.14c0-0.561-0.154-1.569-1.541-1.569
			c-0.63,0-1.288,0.196-1.765,0.505l-0.28-0.813c0.561-0.364,1.373-0.603,2.228-0.603c2.073,0,2.577,1.415,2.577,2.773v2.535
			c0,0.589,0.028,1.163,0.112,1.625H663.537z M663.355,193.666c-1.345-0.028-2.872,0.21-2.872,1.527
			c0,0.798,0.532,1.176,1.163,1.176c0.882,0,1.442-0.56,1.639-1.134c0.042-0.126,0.07-0.267,0.07-0.393V193.666z"/>
		<path fill="#5B5B5F" d="M666.531,187.181h1.232v9.945h-1.232V187.181z"/>
		<path fill="#5B5B5F" d="M677.635,196.874c-0.322,0.168-1.037,0.392-1.947,0.392c-2.045,0-3.376-1.387-3.376-3.459
			c0-2.088,1.429-3.601,3.642-3.601c0.729,0,1.373,0.183,1.709,0.351l-0.28,0.952c-0.294-0.168-0.756-0.322-1.429-0.322
			c-1.555,0-2.395,1.148-2.395,2.563c0,1.569,1.008,2.535,2.353,2.535c0.701,0,1.163-0.182,1.514-0.336L677.635,196.874z"/>
		<path fill="#5B5B5F" d="M682.828,197.126l-0.098-0.854h-0.042c-0.378,0.532-1.106,1.009-2.073,1.009
			c-1.373,0-2.073-0.967-2.073-1.947c0-1.639,1.457-2.535,4.076-2.521v-0.14c0-0.561-0.154-1.569-1.541-1.569
			c-0.63,0-1.288,0.196-1.765,0.505l-0.28-0.813c0.561-0.364,1.373-0.603,2.228-0.603c2.073,0,2.577,1.415,2.577,2.773v2.535
			c0,0.589,0.028,1.163,0.112,1.625H682.828z M682.646,193.666c-1.345-0.028-2.872,0.21-2.872,1.527
			c0,0.798,0.532,1.176,1.163,1.176c0.882,0,1.442-0.56,1.639-1.134c0.042-0.126,0.07-0.267,0.07-0.393V193.666z"/>
		<path fill="#5B5B5F" d="M685.654,195.865c0.364,0.238,1.009,0.49,1.625,0.49c0.896,0,1.316-0.448,1.316-1.009
			c0-0.588-0.35-0.91-1.261-1.246c-1.219-0.435-1.793-1.106-1.793-1.919c0-1.093,0.883-1.989,2.34-1.989
			c0.686,0,1.288,0.196,1.667,0.42l-0.309,0.896c-0.267-0.168-0.757-0.392-1.387-0.392c-0.729,0-1.135,0.42-1.135,0.924
			c0,0.561,0.406,0.813,1.289,1.148c1.177,0.448,1.778,1.037,1.778,2.046c0,1.19-0.924,2.03-2.535,2.03
			c-0.742,0-1.429-0.182-1.905-0.462L685.654,195.865z"/>
		<path fill="#5B5B5F" d="M692.052,193.96c0.028,1.667,1.093,2.354,2.325,2.354c0.883,0,1.415-0.154,1.877-0.351l0.21,0.883
			c-0.434,0.196-1.177,0.42-2.255,0.42c-2.087,0-3.334-1.372-3.334-3.417c0-2.046,1.205-3.656,3.18-3.656
			c2.213,0,2.802,1.947,2.802,3.193c0,0.252-0.028,0.448-0.042,0.574H692.052z M695.667,193.078
			c0.014-0.785-0.322-2.004-1.709-2.004c-1.247,0-1.793,1.149-1.892,2.004H695.667z"/>
		<path fill="#5B5B5F" d="M698.212,195.865c0.364,0.238,1.009,0.49,1.625,0.49c0.896,0,1.316-0.448,1.316-1.009
			c0-0.588-0.35-0.91-1.261-1.246c-1.219-0.435-1.793-1.106-1.793-1.919c0-1.093,0.883-1.989,2.34-1.989
			c0.686,0,1.288,0.196,1.667,0.42l-0.309,0.896c-0.267-0.168-0.757-0.392-1.387-0.392c-0.729,0-1.135,0.42-1.135,0.924
			c0,0.561,0.406,0.813,1.289,1.148c1.177,0.448,1.778,1.037,1.778,2.046c0,1.19-0.924,2.03-2.535,2.03
			c-0.742,0-1.429-0.182-1.905-0.462L698.212,195.865z"/>
	</g>
	<g>
		<path fill="#5B5B5F" d="M594.687,224.416c-0.448,0.225-1.345,0.448-2.493,0.448c-2.661,0-4.665-1.681-4.665-4.776
			c0-2.955,2.004-4.958,4.931-4.958c1.177,0,1.919,0.252,2.241,0.42l-0.294,0.994c-0.462-0.224-1.12-0.392-1.905-0.392
			c-2.213,0-3.684,1.414-3.684,3.894c0,2.312,1.331,3.796,3.628,3.796c0.742,0,1.499-0.153,1.989-0.392L594.687,224.416z"/>
		<path fill="#5B5B5F" d="M602.149,221.278c0,2.508-1.737,3.601-3.376,3.601c-1.835,0-3.25-1.345-3.25-3.488
			c0-2.269,1.484-3.6,3.362-3.6C600.832,217.791,602.149,219.206,602.149,221.278z M596.77,221.349c0,1.485,0.854,2.605,2.059,2.605
			c1.177,0,2.06-1.106,2.06-2.634c0-1.148-0.574-2.604-2.031-2.604S596.77,220.061,596.77,221.349z"/>
		<path fill="#5B5B5F" d="M603.532,223.464c0.364,0.238,1.009,0.49,1.625,0.49c0.896,0,1.316-0.448,1.316-1.009
			c0-0.588-0.35-0.91-1.261-1.246c-1.219-0.435-1.793-1.106-1.793-1.919c0-1.093,0.883-1.989,2.34-1.989
			c0.686,0,1.288,0.196,1.667,0.42l-0.309,0.896c-0.267-0.168-0.757-0.392-1.387-0.392c-0.729,0-1.135,0.42-1.135,0.924
			c0,0.561,0.406,0.813,1.289,1.148c1.177,0.448,1.778,1.037,1.778,2.046c0,1.19-0.924,2.03-2.535,2.03
			c-0.742,0-1.429-0.182-1.905-0.462L603.532,223.464z"/>
		<path fill="#5B5B5F" d="M610.729,215.998v1.947h1.765v0.938h-1.765v3.655c0,0.841,0.237,1.317,0.924,1.317
			c0.322,0,0.561-0.042,0.715-0.084l0.056,0.924c-0.238,0.099-0.616,0.168-1.093,0.168c-0.574,0-1.036-0.182-1.33-0.518
			c-0.351-0.364-0.477-0.967-0.477-1.766v-3.697h-1.051v-0.938h1.051v-1.625L610.729,215.998z"/>
		<path fill="#5B5B5F" d="M616.971,224.725v-5.841h-0.952v-0.938h0.952v-0.322c0-0.953,0.21-1.821,0.784-2.367
			c0.463-0.448,1.079-0.631,1.653-0.631c0.435,0,0.813,0.099,1.051,0.196l-0.168,0.952c-0.183-0.084-0.435-0.153-0.785-0.153
			c-1.05,0-1.316,0.924-1.316,1.961v0.364h1.639v0.938h-1.639v5.841H616.971z"/>
		<path fill="#5B5B5F" d="M624.687,224.725l-0.098-0.854h-0.042c-0.378,0.532-1.106,1.009-2.073,1.009
			c-1.373,0-2.073-0.967-2.073-1.947c0-1.639,1.457-2.535,4.076-2.521v-0.14c0-0.561-0.154-1.569-1.541-1.569
			c-0.63,0-1.288,0.196-1.765,0.505l-0.28-0.813c0.561-0.364,1.373-0.603,2.228-0.603c2.073,0,2.577,1.415,2.577,2.773v2.535
			c0,0.589,0.028,1.163,0.112,1.625H624.687z M624.506,221.265c-1.345-0.028-2.872,0.21-2.872,1.527
			c0,0.798,0.532,1.176,1.163,1.176c0.882,0,1.442-0.56,1.639-1.134c0.042-0.126,0.07-0.267,0.07-0.393V221.265z"/>
		<path fill="#5B5B5F" d="M629.11,215.998v1.947h1.765v0.938h-1.765v3.655c0,0.841,0.237,1.317,0.924,1.317
			c0.322,0,0.561-0.042,0.715-0.084l0.056,0.924c-0.238,0.099-0.616,0.168-1.093,0.168c-0.574,0-1.036-0.182-1.33-0.518
			c-0.351-0.364-0.477-0.967-0.477-1.766v-3.697h-1.051v-0.938h1.051v-1.625L629.11,215.998z"/>
		<path fill="#5B5B5F" d="M636.012,224.725l-0.098-0.854h-0.042c-0.379,0.532-1.106,1.009-2.073,1.009
			c-1.373,0-2.073-0.967-2.073-1.947c0-1.639,1.457-2.535,4.076-2.521v-0.14c0-0.561-0.154-1.569-1.541-1.569
			c-0.63,0-1.288,0.196-1.765,0.505l-0.28-0.813c0.561-0.364,1.373-0.603,2.228-0.603c2.073,0,2.577,1.415,2.577,2.773v2.535
			c0,0.589,0.028,1.163,0.112,1.625H636.012z M635.831,221.265c-1.345-0.028-2.872,0.21-2.872,1.527
			c0,0.798,0.532,1.176,1.163,1.176c0.882,0,1.442-0.56,1.639-1.134c0.042-0.126,0.07-0.267,0.07-0.393V221.265z"/>
		<path fill="#5B5B5F" d="M639.007,214.779h1.232v9.945h-1.232V214.779z"/>
		<path fill="#5B5B5F" d="M650.112,224.473c-0.322,0.168-1.037,0.392-1.947,0.392c-2.045,0-3.376-1.387-3.376-3.459
			c0-2.088,1.429-3.601,3.642-3.601c0.729,0,1.373,0.183,1.709,0.351l-0.28,0.952c-0.294-0.168-0.756-0.322-1.429-0.322
			c-1.555,0-2.395,1.148-2.395,2.563c0,1.569,1.008,2.535,2.353,2.535c0.701,0,1.163-0.182,1.514-0.336L650.112,224.473z"/>
		<path fill="#5B5B5F" d="M655.304,224.725l-0.098-0.854h-0.042c-0.378,0.532-1.106,1.009-2.073,1.009
			c-1.373,0-2.073-0.967-2.073-1.947c0-1.639,1.457-2.535,4.076-2.521v-0.14c0-0.561-0.154-1.569-1.541-1.569
			c-0.63,0-1.288,0.196-1.765,0.505l-0.28-0.813c0.561-0.364,1.373-0.603,2.228-0.603c2.073,0,2.577,1.415,2.577,2.773v2.535
			c0,0.589,0.028,1.163,0.112,1.625H655.304z M655.123,221.265c-1.345-0.028-2.872,0.21-2.872,1.527
			c0,0.798,0.532,1.176,1.163,1.176c0.882,0,1.442-0.56,1.639-1.134c0.042-0.126,0.07-0.267,0.07-0.393V221.265z"/>
		<path fill="#5B5B5F" d="M658.131,223.464c0.364,0.238,1.009,0.49,1.625,0.49c0.896,0,1.316-0.448,1.316-1.009
			c0-0.588-0.35-0.91-1.261-1.246c-1.219-0.435-1.793-1.106-1.793-1.919c0-1.093,0.883-1.989,2.34-1.989
			c0.686,0,1.288,0.196,1.667,0.42l-0.309,0.896c-0.267-0.168-0.757-0.392-1.387-0.392c-0.729,0-1.135,0.42-1.135,0.924
			c0,0.561,0.406,0.813,1.289,1.148c1.177,0.448,1.778,1.037,1.778,2.046c0,1.19-0.924,2.03-2.535,2.03
			c-0.742,0-1.429-0.182-1.905-0.462L658.131,223.464z"/>
		<path fill="#5B5B5F" d="M664.529,221.559c0.028,1.667,1.093,2.354,2.325,2.354c0.883,0,1.415-0.154,1.877-0.351l0.21,0.883
			c-0.434,0.196-1.177,0.42-2.255,0.42c-2.087,0-3.334-1.372-3.334-3.417c0-2.046,1.205-3.656,3.18-3.656
			c2.213,0,2.802,1.947,2.802,3.193c0,0.252-0.028,0.448-0.042,0.574H664.529z M668.143,220.677
			c0.014-0.785-0.322-2.004-1.709-2.004c-1.247,0-1.793,1.149-1.892,2.004H668.143z"/>
		<path fill="#5B5B5F" d="M670.688,223.464c0.364,0.238,1.009,0.49,1.625,0.49c0.896,0,1.316-0.448,1.316-1.009
			c0-0.588-0.35-0.91-1.261-1.246c-1.219-0.435-1.793-1.106-1.793-1.919c0-1.093,0.883-1.989,2.34-1.989
			c0.686,0,1.288,0.196,1.667,0.42l-0.309,0.896c-0.267-0.168-0.757-0.392-1.387-0.392c-0.729,0-1.135,0.42-1.135,0.924
			c0,0.561,0.406,0.813,1.289,1.148c1.177,0.448,1.778,1.037,1.778,2.046c0,1.19-0.924,2.03-2.535,2.03
			c-0.742,0-1.429-0.182-1.905-0.462L670.688,223.464z"/>
	</g>
</g>
</svg>
