<?xml version="1.0" encoding="utf-8"?>
<!-- Generator: Adobe Illustrator 16.0.0, SVG Export Plug-In . SVG Version: 6.00 Build 0)  -->
<!DOCTYPE svg PUBLIC "-//W3C//DTD SVG 1.1//EN" "http://www.w3.org/Graphics/SVG/1.1/DTD/svg11.dtd">
<svg version="1.1" id="Capa_1" xmlns="http://www.w3.org/2000/svg" xmlns:xlink="http://www.w3.org/1999/xlink" x="0px" y="0px"
	 width="477px" height="198.425px" viewBox="0 0 477 198.425" enable-background="new 0 0 477 198.425" xml:space="preserve">
<rect x="31.12" y="19.535" fill="#F0F0F0" width="401.177" height="120.001"/>
<g id="Capa_1_1_">
</g>
<g>
	<line fill="none" stroke="#FFFFFF" stroke-width="2" stroke-miterlimit="10" x1="231.331" y1="139.537" x2="231.331" y2="19.539"/>
	<line fill="none" stroke="#FFFFFF" stroke-width="2" stroke-miterlimit="10" x1="131.488" y1="139.537" x2="131.488" y2="19.539"/>
	<line fill="none" stroke="#FFFFFF" stroke-width="2" stroke-miterlimit="10" x1="331.586" y1="139.537" x2="331.586" y2="19.374"/>
</g>
<rect x="31.135" y="39.598" fill="#449FA2" width="104.954" height="87.048"/>
<line fill="none" stroke="#333333" stroke-width="0.5" stroke-miterlimit="10" x1="30.883" y1="139.537" x2="432.43" y2="139.537"/>
<line fill="none" stroke="#333333" stroke-width="0.5" stroke-miterlimit="10" x1="231.094" y1="145.203" x2="231.094" y2="139.537"/>
<line fill="none" stroke="#333333" stroke-width="0.5" stroke-miterlimit="10" x1="331.586" y1="145.203" x2="331.586" y2="139.537"/>
<line fill="none" stroke="#333333" stroke-width="0.5" stroke-miterlimit="10" x1="131.488" y1="145.203" x2="131.488" y2="139.537"/>
<line fill="none" stroke="#333333" stroke-width="0.5" stroke-miterlimit="10" x1="432.344" y1="145.203" x2="432.344" y2="139.537"/>
<g>
	<path fill="#666666" d="M24.314,151.57c0-1.488,0.229-2.598,0.699-3.318c0.466-0.721,1.178-1.082,2.134-1.082
		c0.929,0,1.634,0.377,2.116,1.129c0.479,0.759,0.723,1.851,0.723,3.273c0,1.479-0.232,2.588-0.699,3.316
		c-0.467,0.73-1.18,1.098-2.14,1.098c-0.925,0-1.628-0.375-2.11-1.121C24.556,154.115,24.314,153.018,24.314,151.57z M25.31,151.57
		c0,1.244,0.146,2.148,0.438,2.717c0.293,0.566,0.759,0.854,1.397,0.854c0.646,0,1.116-0.287,1.401-0.86
		c0.291-0.572,0.438-1.48,0.438-2.701c0-1.229-0.146-2.127-0.438-2.697c-0.292-0.568-0.759-0.854-1.401-0.854
		c-0.646,0-1.104,0.279-1.397,0.848C25.457,149.425,25.31,150.328,25.31,151.57z"/>
	<path fill="#666666" d="M31.187,149.854c0-0.886,0.145-1.554,0.433-2.002c0.289-0.446,0.717-0.672,1.281-0.672
		c0.563,0,0.997,0.229,1.3,0.694c0.305,0.465,0.455,1.125,0.455,1.979c0,0.895-0.147,1.564-0.445,2.021
		c-0.298,0.455-0.729,0.685-1.31,0.685c-0.542,0-0.963-0.231-1.264-0.697C31.338,151.396,31.187,150.727,31.187,149.854z
		 M31.978,149.854c0,0.666,0.066,1.164,0.217,1.496c0.146,0.334,0.38,0.5,0.706,0.5c0.644,0,0.964-0.666,0.964-1.996
		c0-1.326-0.32-1.987-0.964-1.987c-0.325,0-0.563,0.164-0.706,0.493C32.052,148.689,31.978,149.188,31.978,149.854z M32.702,155.869
		l4.739-8.566h0.864l-4.739,8.566H32.702z M36.333,153.289c0-0.887,0.146-1.555,0.438-2.002c0.29-0.449,0.718-0.676,1.286-0.676
		c0.552,0,0.979,0.229,1.292,0.688c0.309,0.459,0.463,1.121,0.463,1.988c0,0.887-0.148,1.563-0.446,2.014
		c-0.297,0.455-0.732,0.689-1.309,0.689c-0.558,0-0.979-0.23-1.274-0.693C36.48,154.824,36.333,154.158,36.333,153.289z
		 M37.124,153.289c0,0.668,0.071,1.166,0.217,1.494c0.146,0.328,0.388,0.492,0.711,0.492c0.329,0,0.572-0.16,0.729-0.486
		c0.157-0.324,0.235-0.824,0.235-1.5c0-0.666-0.078-1.162-0.235-1.479c-0.155-0.322-0.398-0.479-0.729-0.479
		c-0.325,0-0.563,0.158-0.711,0.479C37.195,152.126,37.124,152.623,37.124,153.289z"/>
</g>
<g>
	<path fill="#666666" d="M224.13,155.518v-0.938c0.272,0.174,0.612,0.313,1.021,0.412c0.406,0.098,0.808,0.146,1.201,0.146
		c0.688,0,1.222-0.16,1.604-0.48c0.381-0.324,0.57-0.791,0.57-1.402c0-1.188-0.732-1.787-2.199-1.787
		c-0.371,0-0.867,0.06-1.489,0.171l-0.504-0.32l0.325-4.008h4.261v0.896h-3.43l-0.217,2.574c0.449-0.08,0.896-0.121,1.342-0.121
		c0.903,0,1.613,0.225,2.132,0.666c0.521,0.442,0.776,1.055,0.776,1.823c0,0.892-0.282,1.584-0.853,2.091
		c-0.563,0.508-1.343,0.76-2.335,0.76C225.374,155.986,224.637,155.83,224.13,155.518z"/>
	<path fill="#666666" d="M230.809,151.57c0-1.488,0.229-2.598,0.693-3.318c0.472-0.721,1.184-1.082,2.14-1.082
		c0.929,0,1.634,0.377,2.111,1.129c0.48,0.759,0.729,1.851,0.729,3.273c0,1.479-0.232,2.588-0.699,3.316
		c-0.467,0.73-1.18,1.098-2.14,1.098c-0.931,0-1.628-0.375-2.11-1.121C231.05,154.115,230.809,153.018,230.809,151.57z
		 M231.805,151.57c0,1.244,0.146,2.148,0.438,2.717c0.293,0.566,0.76,0.854,1.398,0.854c0.646,0,1.11-0.287,1.401-0.86
		c0.291-0.572,0.438-1.48,0.438-2.701c0-1.229-0.146-2.127-0.438-2.697c-0.292-0.568-0.758-0.854-1.401-0.854
		c-0.645,0-1.105,0.279-1.398,0.848C231.95,149.425,231.805,150.328,231.805,151.57z"/>
	<path fill="#666666" d="M237.682,149.854c0-0.886,0.143-1.554,0.432-2.002c0.289-0.446,0.717-0.672,1.281-0.672
		c0.563,0,0.998,0.229,1.301,0.694c0.305,0.465,0.455,1.125,0.455,1.979c0,0.895-0.148,1.564-0.445,2.021
		c-0.299,0.455-0.729,0.685-1.311,0.685c-0.541,0-0.962-0.231-1.269-0.697C237.833,151.396,237.682,150.727,237.682,149.854z
		 M238.473,149.854c0,0.666,0.066,1.164,0.217,1.496c0.145,0.334,0.378,0.5,0.705,0.5c0.645,0,0.965-0.666,0.965-1.996
		c0-1.326-0.32-1.987-0.965-1.987c-0.324,0-0.563,0.164-0.705,0.493C238.546,148.689,238.473,149.188,238.473,149.854z
		 M239.196,155.869l4.738-8.566h0.859l-4.734,8.566H239.196z M242.826,153.289c0-0.887,0.146-1.555,0.439-2.002
		c0.283-0.449,0.719-0.676,1.279-0.676c0.559,0,0.982,0.229,1.293,0.688c0.313,0.459,0.469,1.121,0.469,1.988
		c0,0.887-0.148,1.563-0.447,2.014c-0.297,0.455-0.73,0.689-1.314,0.689c-0.551,0-0.977-0.23-1.27-0.693
		C242.975,154.824,242.826,154.158,242.826,153.289z M243.617,153.289c0,0.668,0.072,1.166,0.217,1.494
		c0.146,0.328,0.383,0.492,0.711,0.492c0.33,0,0.572-0.16,0.73-0.486c0.158-0.324,0.236-0.824,0.236-1.5
		c0-0.666-0.078-1.162-0.236-1.479c-0.156-0.322-0.396-0.479-0.73-0.479c-0.328,0-0.563,0.158-0.711,0.479
		C243.69,152.126,243.617,152.623,243.617,153.289z"/>
</g>
<g>
	<path fill="#666666" d="M421.01,149.055l2.271-1.753h0.842v8.566h-0.973v-6.104c0-0.509,0.018-0.986,0.047-1.438
		c-0.082,0.082-0.174,0.168-0.273,0.258c-0.102,0.09-0.563,0.471-1.396,1.146L421.01,149.055z"/>
	<path fill="#666666" d="M427.369,151.57c0-1.488,0.234-2.598,0.699-3.318c0.467-0.721,1.178-1.082,2.135-1.082
		c0.93,0,1.635,0.377,2.115,1.129c0.479,0.759,0.725,1.851,0.725,3.273c0,1.479-0.234,2.588-0.699,3.316
		c-0.467,0.73-1.18,1.098-2.141,1.098c-0.926,0-1.629-0.375-2.109-1.121C427.612,154.115,427.369,153.018,427.369,151.57z
		 M428.365,151.57c0,1.244,0.146,2.148,0.438,2.717c0.293,0.567,0.764,0.854,1.396,0.854c0.646,0,1.117-0.287,1.406-0.86
		c0.291-0.572,0.438-1.48,0.438-2.701c0-1.229-0.145-2.127-0.438-2.697c-0.289-0.568-0.764-0.854-1.406-0.854
		s-1.104,0.279-1.396,0.848C428.51,149.425,428.365,150.328,428.365,151.57z"/>
	<path fill="#666666" d="M434.233,151.57c0-1.488,0.229-2.598,0.693-3.318c0.471-0.719,1.184-1.082,2.139-1.082
		c0.93,0,1.635,0.377,2.111,1.129c0.48,0.759,0.729,1.851,0.729,3.273c0,1.479-0.232,2.588-0.699,3.316
		c-0.467,0.73-1.18,1.098-2.141,1.098c-0.93,0-1.627-0.375-2.109-1.121C434.469,154.115,434.233,153.018,434.233,151.57z
		 M435.229,151.57c0,1.244,0.146,2.148,0.438,2.717c0.293,0.566,0.76,0.854,1.398,0.854c0.646,0,1.109-0.287,1.4-0.86
		c0.291-0.572,0.439-1.48,0.439-2.701c0-1.229-0.146-2.127-0.439-2.697c-0.291-0.568-0.76-0.854-1.4-0.854
		c-0.645,0-1.105,0.279-1.398,0.848C435.373,149.425,435.229,150.328,435.229,151.57z"/>
	<path fill="#666666" d="M441.106,149.854c0-0.886,0.145-1.554,0.434-2.002c0.287-0.446,0.715-0.672,1.279-0.672
		c0.563,0,0.998,0.229,1.301,0.694c0.305,0.465,0.455,1.125,0.455,1.979c0,0.895-0.148,1.564-0.445,2.021
		c-0.297,0.455-0.734,0.685-1.311,0.685c-0.543,0-0.963-0.231-1.27-0.697C441.254,151.396,441.106,150.727,441.106,149.854z
		 M441.897,149.854c0,0.666,0.066,1.164,0.217,1.496c0.146,0.334,0.381,0.5,0.705,0.5c0.645,0,0.965-0.666,0.965-1.996
		c0-1.326-0.32-1.987-0.965-1.987c-0.324,0-0.563,0.164-0.705,0.493C441.969,148.689,441.897,149.188,441.897,149.854z
		 M442.619,155.869l4.738-8.566h0.857l-4.732,8.566H442.619z M446.25,153.289c0-0.887,0.145-1.555,0.434-2.002
		c0.289-0.449,0.725-0.676,1.285-0.676c0.559,0,0.982,0.229,1.291,0.688c0.314,0.459,0.465,1.121,0.465,1.988
		c0,0.887-0.145,1.563-0.441,2.014c-0.297,0.455-0.732,0.689-1.313,0.689c-0.551,0-0.977-0.23-1.271-0.693
		C446.399,154.824,446.25,154.158,446.25,153.289z M447.041,153.289c0,0.668,0.07,1.166,0.217,1.494
		c0.148,0.328,0.383,0.492,0.711,0.492c0.33,0,0.572-0.16,0.73-0.486c0.158-0.324,0.23-0.824,0.23-1.5
		c0-0.666-0.072-1.162-0.23-1.479c-0.154-0.322-0.398-0.479-0.73-0.479c-0.33,0-0.563,0.158-0.711,0.479
		C447.112,152.126,447.041,152.623,447.041,153.289z"/>
</g>
<rect x="249" y="39.598" fill="#58585A" width="48.512" height="87.048"/>
<rect x="297.51" y="39.598" fill="#CAE4E4" width="134.832" height="87.048"/>
<g>
	<path fill="#003333" d="M353.524,78.74c0,0.714-0.223,1.32-0.648,1.82c-0.434,0.5-1.039,0.844-1.82,1.031v0.047
		c0.922,0.114,1.619,0.395,2.1,0.84c0.473,0.445,0.711,1.046,0.711,1.801c0,1.099-0.398,1.954-1.195,2.566
		c-0.797,0.612-1.938,0.918-3.414,0.918c-1.24,0-2.34-0.206-3.297-0.617v-2.055c0.439,0.224,0.93,0.406,1.461,0.547
		c0.531,0.141,1.057,0.211,1.578,0.211c0.797,0,1.385-0.136,1.766-0.406c0.379-0.271,0.57-0.706,0.57-1.305
		c0-0.536-0.219-0.917-0.656-1.141c-0.436-0.224-1.137-0.336-2.094-0.336h-0.867v-1.852h0.883c0.891,0,1.531-0.116,1.941-0.348
		c0.408-0.231,0.613-0.629,0.613-1.191c0-0.864-0.543-1.297-1.625-1.297c-0.375,0-0.764,0.063-1.146,0.188
		c-0.389,0.125-0.818,0.341-1.293,0.648l-1.117-1.664c1.041-0.75,2.283-1.125,3.73-1.125c1.182,0,2.113,0.239,2.801,0.719
		C353.176,77.22,353.524,77.886,353.524,78.74z"/>
	<path fill="#003333" d="M363.36,85.24h-1.375v2.367h-2.359V85.24h-4.875v-1.68l5.008-7.375h2.23v7.18h1.375L363.36,85.24
		L363.36,85.24z M359.625,83.365v-1.938c0-0.323,0.012-0.792,0.039-1.406c0.025-0.614,0.047-0.972,0.063-1.07h-0.063
		c-0.193,0.427-0.426,0.844-0.695,1.25l-2.094,3.164H359.625z"/>
	<path fill="#003333" d="M369.531,79.592c0,1.198-0.232,2.098-0.695,2.699c-0.465,0.602-1.145,0.902-2.039,0.902
		c-0.854,0-1.52-0.309-1.992-0.926c-0.469-0.617-0.703-1.509-0.703-2.676c0-2.38,0.898-3.57,2.695-3.57
		c0.879,0,1.555,0.309,2.027,0.926C369.295,77.564,369.531,78.446,369.531,79.592z M366.071,79.607c0,0.661,0.059,1.155,0.176,1.48
		c0.117,0.325,0.305,0.488,0.566,0.488c0.5,0,0.75-0.656,0.75-1.969c0-1.302-0.25-1.953-0.75-1.953c-0.268,0-0.449,0.16-0.566,0.48
		C366.129,78.453,366.071,78.946,366.071,79.607z M374.906,76.186l-6.336,11.422h-1.875l6.336-11.422H374.906z M377.531,84.154
		c0,1.192-0.232,2.09-0.695,2.691c-0.465,0.604-1.145,0.902-2.039,0.902c-0.854,0-1.52-0.309-1.992-0.926
		c-0.469-0.617-0.703-1.507-0.703-2.668c0-2.38,0.898-3.57,2.695-3.57c0.879,0,1.555,0.309,2.027,0.926
		C377.295,82.127,377.531,83.009,377.531,84.154z M374.071,84.17c0,0.661,0.059,1.155,0.176,1.48
		c0.117,0.325,0.305,0.488,0.566,0.488c0.5,0,0.75-0.656,0.75-1.969c0-1.302-0.25-1.953-0.75-1.953c-0.268,0-0.449,0.16-0.566,0.48
		C374.129,83.016,374.071,83.509,374.071,84.17z"/>
</g>
<g>
	<path fill="#FFFFFF" d="M263.987,87.607h-2.414v-6.609l0.023-1.086l0.033-1.188c-0.395,0.401-0.68,0.664-0.836,0.789l-1.313,1.055
		l-1.164-1.453l3.68-2.93h1.984L263.987,87.607L263.987,87.607z"/>
	<path fill="#FFFFFF" d="M275.135,87.607h-7.979v-1.68l2.867-2.898c0.85-0.87,1.398-1.473,1.664-1.809
		c0.262-0.336,0.443-0.646,0.563-0.934c0.115-0.286,0.172-0.583,0.172-0.891c0-0.458-0.125-0.8-0.379-1.023
		c-0.252-0.224-0.59-0.336-1.012-0.336c-0.441,0-0.871,0.102-1.289,0.305c-0.416,0.203-0.854,0.492-1.305,0.867l-1.314-1.555
		c0.564-0.479,1.029-0.817,1.398-1.016c0.371-0.198,0.771-0.351,1.211-0.457c0.438-0.106,0.928-0.16,1.469-0.16
		c0.715,0,1.344,0.13,1.891,0.391c0.553,0.261,0.979,0.625,1.273,1.094c0.303,0.469,0.453,1.005,0.453,1.609
		c0,0.526-0.092,1.02-0.277,1.479c-0.184,0.461-0.471,0.934-0.854,1.418c-0.393,0.484-1.07,1.175-2.057,2.07l-1.469,1.383v0.109
		h4.98v2.034H275.135z"/>
	<path fill="#FFFFFF" d="M281.565,79.592c0,1.198-0.23,2.098-0.695,2.699c-0.463,0.602-1.143,0.902-2.039,0.902
		c-0.854,0-1.52-0.309-1.992-0.926c-0.469-0.617-0.703-1.509-0.703-2.676c0-2.38,0.898-3.57,2.695-3.57
		c0.881,0,1.563,0.309,2.027,0.926C281.33,77.564,281.565,78.446,281.565,79.592z M278.104,79.607c0,0.661,0.059,1.155,0.176,1.48
		c0.117,0.325,0.307,0.488,0.566,0.488c0.5,0,0.75-0.656,0.75-1.969c0-1.302-0.25-1.953-0.75-1.953c-0.266,0-0.449,0.16-0.566,0.48
		C278.162,78.453,278.104,78.946,278.104,79.607z M286.94,76.186l-6.336,11.422h-1.875l6.336-11.422H286.94z M289.565,84.154
		c0,1.192-0.23,2.09-0.695,2.691c-0.463,0.604-1.143,0.902-2.039,0.902c-0.854,0-1.52-0.309-1.992-0.926
		c-0.469-0.617-0.703-1.507-0.703-2.668c0-2.38,0.898-3.57,2.695-3.57c0.881,0,1.563,0.309,2.027,0.926
		C289.33,82.127,289.565,83.009,289.565,84.154z M286.104,84.17c0,0.661,0.059,1.155,0.176,1.48
		c0.117,0.325,0.307,0.488,0.566,0.488c0.5,0,0.75-0.656,0.75-1.969c0-1.302-0.25-1.953-0.75-1.953c-0.266,0-0.449,0.16-0.566,0.48
		C286.162,83.016,286.104,83.509,286.104,84.17z"/>
</g>
<g>
	<rect x="136.089" y="39.598" fill="#F2C466" width="62.075" height="87.048"/>
	<g>
		<path fill="#FFFFFF" d="M158.689,87.607h-2.414v-6.609l0.021-1.086l0.039-1.188c-0.396,0.401-0.68,0.664-0.836,0.789l-1.313,1.055
			l-1.164-1.453l3.68-2.93h1.984L158.689,87.607L158.689,87.607z"/>
		<path fill="#FFFFFF" d="M166.01,80.311c1.104,0,1.98,0.31,2.64,0.93c0.651,0.62,0.979,1.469,0.979,2.547
			c0,1.276-0.394,2.258-1.18,2.945s-1.911,1.031-3.375,1.031c-1.271,0-2.297-0.206-3.078-0.617v-2.086
			c0.411,0.219,0.896,0.397,1.438,0.535c0.547,0.138,1.063,0.207,1.555,0.207c1.474,0,2.211-0.604,2.211-1.813
			c0-1.151-0.763-1.727-2.289-1.727c-0.276,0-0.581,0.027-0.914,0.082c-0.333,0.055-0.604,0.113-0.813,0.176l-0.961-0.516l0.43-5.82
			h6.195v2.047h-4.078l-0.211,2.242l0.271-0.055C165.147,80.347,165.54,80.311,166.01,80.311z"/>
		<path fill="#FFFFFF" d="M176.267,79.592c0,1.198-0.231,2.098-0.695,2.699s-1.144,0.902-2.039,0.902
			c-0.856,0-1.521-0.309-1.992-0.926c-0.469-0.617-0.703-1.509-0.703-2.676c0-2.38,0.898-3.57,2.695-3.57
			c0.88,0,1.556,0.309,2.027,0.926C176.031,77.564,176.267,78.446,176.267,79.592z M172.806,79.607c0,0.661,0.059,1.155,0.176,1.48
			c0.117,0.325,0.306,0.488,0.563,0.488c0.5,0,0.75-0.656,0.75-1.969c0-1.302-0.25-1.953-0.75-1.953c-0.261,0-0.443,0.16-0.563,0.48
			C172.865,78.453,172.806,78.946,172.806,79.607z M181.642,76.186l-6.336,11.422h-1.875l6.336-11.422H181.642z M184.267,84.154
			c0,1.192-0.232,2.09-0.696,2.691c-0.464,0.604-1.146,0.902-2.039,0.902c-0.859,0-1.521-0.309-1.992-0.926
			c-0.469-0.617-0.703-1.507-0.703-2.668c0-2.38,0.898-3.57,2.695-3.57c0.88,0,1.556,0.309,2.027,0.926
			C184.031,82.127,184.267,83.009,184.267,84.154z M180.806,84.17c0,0.661,0.059,1.155,0.176,1.48
			c0.117,0.325,0.306,0.488,0.563,0.488c0.5,0,0.75-0.656,0.75-1.969c0-1.302-0.25-1.953-0.75-1.953c-0.261,0-0.443,0.16-0.563,0.48
			C180.865,83.016,180.806,83.509,180.806,84.17z"/>
	</g>
</g>
<g>
	<rect x="198.164" y="39.598" fill="#F6A400" width="51.088" height="87.048"/>
	<g>
		<path fill="#FFFFFF" d="M213.933,87.607h-2.414v-6.609l0.021-1.086l0.039-1.188c-0.396,0.401-0.68,0.664-0.836,0.789l-1.313,1.055
			l-1.164-1.453l3.68-2.93h1.984L213.933,87.607L213.933,87.607z"/>
		<path fill="#FFFFFF" d="M224.636,78.74c0,0.714-0.222,1.32-0.648,1.82s-1.039,0.844-1.82,1.031v0.047
			c0.925,0.114,1.62,0.395,2.1,0.84c0.474,0.445,0.711,1.046,0.711,1.801c0,1.099-0.398,1.954-1.195,2.566
			c-0.797,0.612-1.935,0.918-3.414,0.918c-1.239,0-2.339-0.206-3.297-0.617v-2.055c0.442,0.224,0.93,0.406,1.461,0.547
			c0.531,0.141,1.059,0.211,1.578,0.211c0.797,0,1.386-0.136,1.766-0.406c0.381-0.27,0.57-0.706,0.57-1.305
			c0-0.536-0.219-0.917-0.656-1.141c-0.437-0.224-1.136-0.336-2.094-0.336h-0.867v-1.852h0.883c0.892,0,1.532-0.116,1.941-0.348
			s0.613-0.629,0.613-1.191c0-0.864-0.542-1.297-1.625-1.297c-0.375,0-0.76,0.063-1.146,0.188s-0.813,0.341-1.293,0.648
			l-1.117-1.664c1.042-0.75,2.284-1.125,3.729-1.125c1.183,0,2.116,0.239,2.801,0.719C224.296,77.219,224.636,77.886,224.636,78.74z
			"/>
		<path fill="#FFFFFF" d="M231.511,79.592c0,1.198-0.231,2.098-0.695,2.699s-1.146,0.902-2.039,0.902
			c-0.859,0-1.521-0.309-1.992-0.926c-0.469-0.617-0.703-1.509-0.703-2.676c0-2.38,0.898-3.57,2.695-3.57
			c0.88,0,1.556,0.309,2.027,0.926C231.275,77.564,231.511,78.446,231.511,79.592z M228.051,79.607c0,0.661,0.062,1.155,0.179,1.48
			c0.117,0.325,0.306,0.488,0.563,0.488c0.5,0,0.75-0.656,0.75-1.969c0-1.302-0.25-1.953-0.75-1.953c-0.261,0-0.443,0.16-0.563,0.48
			C228.109,78.453,228.051,78.946,228.051,79.607z M236.886,76.186l-6.339,11.422h-1.875l6.339-11.422H236.886z M239.512,84.154
			c0,1.192-0.232,2.09-0.696,2.691c-0.464,0.601-1.146,0.902-2.039,0.902c-0.859,0-1.521-0.309-1.992-0.926
			c-0.469-0.617-0.703-1.507-0.703-2.668c0-2.38,0.898-3.57,2.695-3.57c0.88,0,1.556,0.309,2.027,0.926
			C239.276,82.126,239.512,83.009,239.512,84.154z M236.051,84.17c0,0.661,0.062,1.155,0.179,1.48
			c0.117,0.325,0.306,0.488,0.563,0.488c0.5,0,0.75-0.656,0.75-1.969c0-1.302-0.25-1.953-0.75-1.953c-0.261,0-0.443,0.16-0.563,0.48
			C236.109,83.016,236.051,83.509,236.051,84.17z"/>
	</g>
</g>
<g>
	<path fill="#FFFFFF" d="M79.338,87.607h-7.983v-1.68l2.867-2.898c0.849-0.87,1.397-1.473,1.658-1.809
		c0.267-0.336,0.448-0.646,0.563-0.934s0.172-0.583,0.172-0.891c0-0.458-0.126-0.8-0.379-1.023c-0.253-0.223-0.59-0.336-1.012-0.336
		c-0.442,0-0.872,0.102-1.289,0.305c-0.417,0.203-0.854,0.492-1.311,0.867l-1.313-1.555c0.563-0.479,1.026-0.817,1.396-1.016
		c0.369-0.199,0.772-0.351,1.212-0.457c0.438-0.106,0.931-0.16,1.473-0.16c0.714,0,1.344,0.13,1.891,0.391
		c0.547,0.261,0.975,0.625,1.273,1.094c0.301,0.469,0.451,1.005,0.451,1.609c0,0.526-0.097,1.02-0.275,1.479
		c-0.187,0.46-0.473,0.934-0.859,1.418c-0.387,0.484-1.065,1.175-2.051,2.07l-1.468,1.383v0.109h4.977v2.034H79.338z"/>
	<path fill="#FFFFFF" d="M80.408,82.756c0-2.261,0.479-3.942,1.434-5.047c0.956-1.105,2.393-1.656,4.293-1.656
		c0.651,0,1.161,0.039,1.531,0.117v1.93c-0.464-0.104-0.922-0.156-1.375-0.156c-0.828,0-1.504,0.125-2.021,0.375
		c-0.523,0.25-0.915,0.62-1.182,1.109c-0.261,0.489-0.414,1.185-0.461,2.086h0.104c0.516-0.886,1.341-1.328,2.477-1.328
		c1.021,0,1.82,0.32,2.398,0.961s0.867,1.526,0.867,2.656c0,1.219-0.35,2.184-1.031,2.896c-0.688,0.711-1.646,1.066-2.859,1.066
		c-0.844,0-1.579-0.195-2.207-0.586c-0.628-0.391-1.106-0.961-1.453-1.711C80.58,84.717,80.408,83.813,80.408,82.756z
		 M84.533,85.834c0.516,0,0.911-0.173,1.188-0.52c0.271-0.347,0.408-0.84,0.408-1.48c0-0.558-0.129-0.996-0.387-1.316
		s-0.646-0.48-1.168-0.48c-0.489,0-0.907,0.159-1.254,0.477s-0.521,0.688-0.521,1.109c0,0.62,0.159,1.144,0.483,1.57
		C83.619,85.62,84.033,85.834,84.533,85.834z"/>
	<path fill="#FFFFFF" d="M94.901,79.592c0,1.198-0.231,2.098-0.695,2.699s-1.144,0.902-2.039,0.902
		c-0.854,0-1.521-0.309-1.992-0.926c-0.469-0.617-0.697-1.509-0.697-2.676c0-2.38,0.896-3.57,2.689-3.57
		c0.88,0,1.562,0.309,2.027,0.926C94.665,77.564,94.901,78.446,94.901,79.592z M91.44,79.607c0,0.661,0.059,1.155,0.176,1.48
		c0.117,0.325,0.306,0.488,0.566,0.488c0.5,0,0.75-0.656,0.75-1.969c0-1.302-0.25-1.953-0.75-1.953c-0.267,0-0.449,0.16-0.566,0.48
		C91.499,78.453,91.44,78.946,91.44,79.607z M100.276,76.186L93.94,87.608h-1.875l6.336-11.422H100.276z M102.901,84.154
		c0,1.192-0.231,2.09-0.695,2.691c-0.464,0.601-1.144,0.902-2.039,0.902c-0.854,0-1.521-0.309-1.992-0.926
		c-0.469-0.617-0.697-1.507-0.697-2.668c0-2.38,0.896-3.57,2.689-3.57c0.88,0,1.562,0.309,2.027,0.926
		C102.665,82.126,102.901,83.009,102.901,84.154z M99.44,84.17c0,0.661,0.059,1.155,0.176,1.48c0.117,0.325,0.306,0.488,0.566,0.488
		c0.5,0,0.75-0.656,0.75-1.969c0-1.302-0.25-1.953-0.75-1.953c-0.267,0-0.449,0.16-0.566,0.48
		C99.499,83.016,99.44,83.509,99.44,84.17z"/>
</g>
<line fill="none" stroke="#333333" stroke-width="0.5" stroke-miterlimit="10" x1="30.883" y1="145.203" x2="30.883" y2="19.535"/>
<g>
	<g>
		<rect x="22.99" y="175.564" fill="#449FA2" width="14.217" height="14.217"/>
		<g>
			<path fill="#666666" d="M42.717,182.66c0-1.029,0.188-1.932,0.57-2.707c0.381-0.771,0.936-1.369,1.662-1.789
				c0.725-0.418,1.576-0.629,2.563-0.629c1.049,0,1.965,0.191,2.748,0.574l-0.492,0.998c-0.756-0.355-1.516-0.533-2.271-0.533
				c-1.104,0-1.965,0.365-2.604,1.098c-0.635,0.73-0.953,1.73-0.953,3.002c0,1.312,0.313,2.316,0.921,3.027
				c0.612,0.713,1.485,1.07,2.62,1.07c0.697,0,1.492-0.125,2.393-0.377v1.021c-0.691,0.262-1.554,0.396-2.563,0.396
				c-1.475,0-2.604-0.446-3.396-1.343C43.115,185.576,42.717,184.307,42.717,182.66z"/>
			<path fill="#666666" d="M51.336,185.609c0-1.51,1.213-2.301,3.637-2.373l1.271-0.041v-0.471c0-0.598-0.125-1.035-0.379-1.318
				c-0.258-0.283-0.654-0.426-1.217-0.426c-0.623,0-1.322,0.191-2.109,0.582l-0.354-0.871c0.369-0.197,0.771-0.354,1.213-0.465
				c0.438-0.111,0.881-0.168,1.322-0.168c0.896,0,1.555,0.195,1.982,0.594c0.43,0.396,0.646,1.033,0.646,1.908v5.109h-0.84
				l-0.229-1.053h-0.05c-0.373,0.463-0.746,0.774-1.117,0.938c-0.363,0.163-0.832,0.243-1.389,0.243
				c-0.746,0-1.33-0.188-1.754-0.569C51.547,186.855,51.336,186.314,51.336,185.609z M52.541,185.623
				c0,0.412,0.123,0.729,0.371,0.941s0.594,0.32,1.041,0.32c0.705,0,1.258-0.191,1.654-0.584c0.404-0.389,0.604-0.934,0.604-1.635
				v-0.685l-1.133,0.052c-0.898,0.028-1.551,0.174-1.947,0.424C52.74,184.708,52.541,185.098,52.541,185.623z"/>
			<path fill="#666666" d="M59.683,187.673v-7.491h0.924l0.188,1.012h0.057c0.23-0.362,0.563-0.646,0.979-0.849
				c0.42-0.2,0.887-0.301,1.396-0.301c0.9,0,1.582,0.217,2.035,0.648c0.455,0.438,0.688,1.135,0.688,2.092v4.889h-1.14v-4.854
				c0-0.612-0.141-1.067-0.418-1.37c-0.271-0.302-0.713-0.451-1.307-0.451c-0.781,0-1.355,0.211-1.724,0.637
				c-0.364,0.432-0.552,1.125-0.552,2.105v3.938H59.68L59.683,187.673L59.683,187.673z"/>
			<path fill="#666666" d="M67.859,183.977c0-1.254,0.307-2.224,0.898-2.906c0.6-0.685,1.457-1.024,2.574-1.024
				c0.354,0,0.721,0.039,1.08,0.117c0.354,0.076,0.643,0.168,0.848,0.272l-0.35,0.963c-0.25-0.103-0.523-0.185-0.82-0.25
				c-0.295-0.063-0.557-0.101-0.785-0.101c-1.521,0-2.283,0.974-2.283,2.912c0,0.922,0.188,1.627,0.563,2.119
				s0.922,0.734,1.646,0.734c0.623,0,1.27-0.135,1.92-0.398v1.004c-0.502,0.263-1.133,0.392-1.895,0.392
				c-1.084,0-1.922-0.334-2.512-1.002C68.154,186.143,67.859,185.197,67.859,183.977z"/>
			<path fill="#666666" d="M74.525,183.988c0-1.207,0.295-2.166,0.895-2.877c0.594-0.711,1.391-1.066,2.391-1.066
				c0.938,0,1.676,0.313,2.221,0.931c0.548,0.612,0.816,1.438,0.816,2.438v0.719H75.69c0.021,0.886,0.246,1.552,0.668,2.002
				c0.422,0.457,1.021,0.689,1.785,0.689c0.803,0,1.603-0.171,2.385-0.507v1.015c-0.396,0.172-0.773,0.297-1.135,0.371
				c-0.354,0.073-0.787,0.11-1.291,0.11c-1.104,0-1.979-0.336-2.615-1.015C74.845,186.123,74.525,185.188,74.525,183.988z
				 M75.713,183.208h3.926c0-0.715-0.16-1.268-0.479-1.646c-0.318-0.381-0.775-0.568-1.369-0.568c-0.604,0-1.084,0.193-1.439,0.588
				C75.988,181.975,75.777,182.518,75.713,183.208z"/>
			<path fill="#666666" d="M82.795,187.673v-7.491h0.924l0.139,1.396h0.063c0.273-0.49,0.607-0.867,1.006-1.134
				c0.395-0.267,0.822-0.397,1.293-0.397c0.332,0,0.633,0.027,0.896,0.084l-0.155,1.063c-0.313-0.065-0.582-0.104-0.82-0.104
				c-0.604,0-1.123,0.246-1.555,0.738c-0.436,0.489-0.646,1.104-0.646,1.836v4.018L82.795,187.673L82.795,187.673z"/>
		</g>
	</g>
	<g>
		<rect x="181.031" y="175.564" fill="#F6A400" width="14.223" height="14.217"/>
		<g>
			<path fill="#666666" d="M200.453,181.294c0-1.028,0.188-1.936,0.568-2.705c0.381-0.772,0.938-1.371,1.661-1.789
				c0.729-0.42,1.582-0.629,2.565-0.629c1.048,0,1.964,0.188,2.748,0.572l-0.492,0.998c-0.756-0.354-1.519-0.531-2.271-0.531
				c-1.098,0-1.965,0.363-2.602,1.097c-0.636,0.729-0.953,1.729-0.953,3.002c0,1.308,0.307,2.315,0.919,3.028
				s1.486,1.068,2.622,1.068c0.696,0,1.492-0.125,2.386-0.381v1.021c-0.688,0.266-1.547,0.396-2.563,0.396
				c-1.478,0-2.604-0.444-3.4-1.342C200.851,184.21,200.453,182.941,200.453,181.294z"/>
			<path fill="#666666" d="M209.538,176.785c0-0.26,0.063-0.449,0.179-0.57c0.118-0.114,0.266-0.182,0.438-0.182
				c0.197,0,0.366,0.063,0.511,0.186c0.146,0.123,0.217,0.314,0.217,0.566c0,0.254-0.07,0.445-0.217,0.572
				c-0.146,0.125-0.313,0.188-0.511,0.188c-0.176,0-0.319-0.063-0.438-0.188C209.598,177.232,209.538,177.041,209.538,176.785z
				 M209.635,186.309v-7.492h1.039v7.492H209.635z"/>
			<path fill="#666666" d="M213.176,186.309v-7.492h0.924l0.139,1.396h0.063c0.276-0.482,0.611-0.859,1.007-1.133
				c0.395-0.267,0.822-0.396,1.292-0.396c0.333,0,0.631,0.026,0.896,0.082l-0.154,1.06c-0.313-0.066-0.583-0.103-0.819-0.103
				c-0.604,0-1.125,0.245-1.556,0.735c-0.434,0.492-0.646,1.104-0.646,1.838v4.017h-1.138L213.176,186.309L213.176,186.309z"/>
			<path fill="#666666" d="M218.193,182.611c0-1.254,0.303-2.223,0.898-2.906c0.6-0.682,1.457-1.021,2.574-1.021
				c0.354,0,0.72,0.039,1.077,0.112c0.357,0.078,0.646,0.17,0.851,0.271l-0.352,0.965c-0.25-0.102-0.521-0.186-0.817-0.25
				s-0.563-0.1-0.785-0.1c-1.521,0-2.283,0.971-2.283,2.91c0,0.922,0.188,1.629,0.56,2.117c0.371,0.492,0.925,0.736,1.648,0.736
				c0.625,0,1.268-0.138,1.921-0.402v1.01c-0.501,0.26-1.132,0.389-1.895,0.389c-1.084,0-1.922-0.334-2.515-1.002
				C218.488,184.777,218.193,183.832,218.193,182.611z"/>
			<path fill="#666666" d="M225.193,183.718v-4.901h1.162v4.86c0,0.609,0.142,1.064,0.416,1.367
				c0.277,0.302,0.712,0.449,1.307,0.449c0.779,0,1.354-0.213,1.719-0.646c0.355-0.434,0.542-1.127,0.542-2.104v-3.938h1.135v7.492
				h-0.923l-0.178-1.006h-0.063c-0.229,0.369-0.555,0.648-0.967,0.85c-0.412,0.195-0.881,0.293-1.408,0.293
				c-0.916,0-1.604-0.217-2.057-0.648C225.421,185.365,225.193,184.669,225.193,183.718z"/>
			<path fill="#666666" d="M233.867,186.309v-10.638h1.138v10.638H233.867z"/>
			<path fill="#666666" d="M236.849,184.244c0-1.51,1.211-2.301,3.635-2.373l1.272-0.041v-0.471c0-0.596-0.126-1.035-0.379-1.316
				c-0.252-0.285-0.655-0.428-1.211-0.428c-0.623,0-1.328,0.193-2.115,0.582l-0.354-0.871c0.369-0.197,0.773-0.354,1.216-0.465
				c0.438-0.111,0.883-0.168,1.32-0.168c0.896,0,1.556,0.197,1.982,0.594c0.431,0.398,0.646,1.033,0.646,1.908v5.113h-0.841
				l-0.227-1.057h-0.061c-0.373,0.465-0.745,0.779-1.113,0.939c-0.368,0.163-0.833,0.245-1.392,0.245
				c-0.746,0-1.331-0.188-1.755-0.567C237.06,185.49,236.849,184.949,236.849,184.244z M238.052,184.259
				c0,0.412,0.124,0.726,0.372,0.939c0.248,0.215,0.596,0.318,1.041,0.318c0.705,0,1.26-0.189,1.661-0.584
				c0.397-0.395,0.604-0.938,0.604-1.641v-0.68l-1.133,0.049c-0.9,0.031-1.551,0.172-1.948,0.422
				C238.251,183.343,238.052,183.732,238.052,184.259z"/>
			<path fill="#666666" d="M244.203,179.697v-0.547l1.07-0.471l0.479-1.604h0.652v1.731h2.178v0.883h-2.178v4.425
				c0,0.446,0.105,0.799,0.319,1.041c0.214,0.237,0.508,0.358,0.882,0.358c0.201,0,0.396-0.021,0.581-0.046
				c0.188-0.028,0.335-0.063,0.444-0.096v0.855c-0.123,0.061-0.305,0.105-0.543,0.146c-0.239,0.039-0.455,0.058-0.646,0.058
				c-1.443,0-2.174-0.765-2.174-2.289v-4.457h-1.069L244.203,179.697L244.203,179.697z"/>
			<path fill="#666666" d="M249.72,182.548c0-1.219,0.305-2.168,0.913-2.85c0.604-0.684,1.454-1.021,2.536-1.021
				c1.045,0,1.875,0.35,2.488,1.045s0.926,1.639,0.926,2.824c0,1.225-0.313,2.18-0.923,2.865c-0.61,0.688-1.46,1.024-2.542,1.024
				c-0.668,0-1.264-0.151-1.776-0.478c-0.521-0.313-0.918-0.768-1.199-1.354C249.86,184.027,249.72,183.339,249.72,182.548z
				 M250.883,182.548c0,0.959,0.188,1.688,0.575,2.191c0.383,0.504,0.941,0.754,1.688,0.754s1.313-0.25,1.693-0.75
				c0.386-0.5,0.579-1.229,0.579-2.195c0-0.955-0.192-1.68-0.579-2.176c-0.389-0.494-0.954-0.742-1.708-0.742
				c-0.743,0-1.312,0.244-1.688,0.729C251.068,180.85,250.883,181.58,250.883,182.548z"/>
			<path fill="#666666" d="M258.594,186.309v-7.492h0.924l0.142,1.396h0.062c0.276-0.482,0.611-0.859,1.007-1.133
				c0.395-0.267,0.822-0.396,1.291-0.396c0.333,0,0.631,0.026,0.896,0.082l-0.154,1.06c-0.313-0.066-0.583-0.103-0.82-0.103
				c-0.604,0-1.124,0.245-1.555,0.735c-0.434,0.492-0.646,1.104-0.646,1.838v4.017h-1.14v-0.004H258.594z"/>
			<path fill="#666666" d="M263.118,178.816h1.22l1.641,4.271c0.36,0.976,0.583,1.679,0.671,2.104h0.058
				c0.062-0.229,0.187-0.629,0.373-1.188c0.188-0.563,0.811-2.291,1.854-5.188h1.217l-3.22,8.531
				c-0.318,0.842-0.689,1.438-1.118,1.795c-0.426,0.354-0.948,0.526-1.565,0.526c-0.35,0-0.688-0.039-1.022-0.115v-0.916
				c0.25,0.056,0.531,0.082,0.841,0.082c0.779,0,1.335-0.438,1.668-1.313l0.417-1.064L263.118,178.816z"/>
		</g>
	</g>
	<rect x="397.348" y="175.564" fill="#CAE4E4" width="14.217" height="14.217"/>
	<g>
		<path fill="#666666" d="M417.49,182.906c0-1.631,0.402-2.895,1.203-3.789c0.809-0.896,1.941-1.348,3.418-1.348
			c1.438,0,2.563,0.457,3.363,1.369c0.807,0.912,1.211,2.172,1.211,3.777c0,1.6-0.404,2.854-1.213,3.77
			c-0.813,0.916-1.938,1.373-3.375,1.373c-1.471,0-2.607-0.449-3.406-1.35C417.897,185.813,417.49,184.544,417.49,182.906z
			 M418.729,182.919c0,1.354,0.287,2.383,0.863,3.084s1.414,1.054,2.514,1.054c1.105,0,1.943-0.353,2.508-1.05
			c0.566-0.696,0.854-1.729,0.854-3.088c0-1.354-0.279-2.369-0.85-3.063c-0.563-0.694-1.395-1.043-2.498-1.043
			c-1.103,0-1.943,0.351-2.521,1.052C419.016,180.563,418.729,181.582,418.729,182.919z"/>
		<path fill="#666666" d="M427.758,181.313v-0.547l1.066-0.474l0.48-1.604h0.656v1.733h2.174v0.886h-2.174v4.42
			c0,0.45,0.104,0.799,0.314,1.041c0.217,0.239,0.511,0.358,0.883,0.358c0.199,0,0.396-0.015,0.58-0.045
			c0.188-0.024,0.335-0.063,0.443-0.092v0.855c-0.123,0.061-0.303,0.104-0.543,0.146c-0.238,0.039-0.455,0.061-0.646,0.061
			c-1.445,0-2.176-0.766-2.176-2.288v-4.457h-1.066v0.003L427.758,181.313L427.758,181.313z"/>
		<path fill="#666666" d="M433.692,187.923v-10.637h1.135v3.219c0,0.39-0.018,0.709-0.055,0.965h0.068
			c0.223-0.358,0.541-0.645,0.953-0.852c0.406-0.207,0.883-0.313,1.406-0.313c0.916,0,1.604,0.217,2.063,0.649
			c0.459,0.438,0.688,1.127,0.688,2.076v4.887h-1.135v-4.849c0-0.608-0.139-1.063-0.416-1.364c-0.279-0.304-0.715-0.451-1.307-0.451
			c-0.789,0-1.363,0.215-1.729,0.644c-0.355,0.433-0.543,1.131-0.543,2.104v3.916h-1.135L433.692,187.923L433.692,187.923z"/>
		<path fill="#666666" d="M441.865,184.236c0-1.205,0.297-2.166,0.896-2.877c0.594-0.711,1.389-1.064,2.389-1.064
			c0.938,0,1.676,0.313,2.221,0.93c0.546,0.613,0.818,1.438,0.818,2.439v0.719h-5.154c0.023,0.886,0.244,1.551,0.668,2.002
			c0.423,0.457,1.021,0.689,1.783,0.689c0.805,0,1.603-0.171,2.385-0.507v1.015c-0.396,0.172-0.771,0.297-1.135,0.371
			c-0.354,0.073-0.787,0.11-1.291,0.11c-1.104,0-1.977-0.336-2.615-1.015C442.189,186.373,441.865,185.438,441.865,184.236z
			 M443.057,183.458h3.924c0-0.715-0.16-1.27-0.479-1.646c-0.318-0.381-0.775-0.568-1.369-0.568c-0.604,0-1.082,0.193-1.441,0.588
			C443.326,182.225,443.115,182.768,443.057,183.458z"/>
		<path fill="#666666" d="M450.139,187.923v-7.491h0.924l0.139,1.396h0.063c0.271-0.49,0.607-0.867,1.006-1.134
			c0.393-0.267,0.822-0.397,1.293-0.397c0.332,0,0.631,0.027,0.896,0.084l-0.154,1.063c-0.313-0.063-0.584-0.104-0.82-0.104
			c-0.604,0-1.125,0.246-1.555,0.738c-0.438,0.489-0.646,1.104-0.646,1.836v4.016L450.139,187.923L450.139,187.923z"/>
		<path fill="#666666" d="M455.375,182.271c0-0.611,0.242-1.096,0.738-1.447c0.496-0.351,1.184-0.529,2.041-0.529
			c0.809,0,1.586,0.164,2.354,0.492l-0.396,0.924c-0.748-0.311-1.428-0.467-2.037-0.467c-0.539,0-0.938,0.086-1.219,0.254
			c-0.271,0.17-0.41,0.402-0.41,0.699c0,0.201,0.056,0.371,0.154,0.514c0.102,0.146,0.268,0.275,0.496,0.404
			c0.228,0.129,0.666,0.313,1.313,0.555c0.895,0.324,1.486,0.65,1.793,0.98c0.313,0.328,0.459,0.742,0.459,1.24
			c0,0.691-0.258,1.229-0.771,1.604c-0.516,0.377-1.24,0.564-2.174,0.564c-0.992,0-1.771-0.154-2.32-0.467v-1.047
			c0.359,0.186,0.744,0.326,1.156,0.434c0.412,0.104,0.809,0.154,1.188,0.154c0.602,0,1.057-0.094,1.371-0.281
			c0.32-0.189,0.479-0.479,0.479-0.867c0-0.291-0.127-0.541-0.379-0.75c-0.262-0.207-0.748-0.453-1.484-0.736
			c-0.697-0.26-1.193-0.488-1.486-0.682s-0.51-0.414-0.646-0.662C455.448,182.91,455.375,182.615,455.375,182.271z"/>
	</g>
	<g>
		<rect x="103.981" y="175.564" fill="#F2C466" width="14.216" height="14.217"/>
		<g>
			<path fill="#666666" d="M124.65,187.673v-9.993h1.75l3.166,8.243h0.058l3.188-8.243h1.733v9.993h-1.162v-6.438
				c0-0.737,0.033-1.541,0.099-2.405h-0.058l-3.418,8.846h-0.938l-3.392-8.854h-0.057c0.063,0.703,0.098,1.537,0.098,2.504v6.354
				L124.65,187.673L124.65,187.673z"/>
			<path fill="#666666" d="M136.63,187.357v-1.113c0.41,0.174,0.854,0.313,1.343,0.41c0.479,0.1,0.961,0.148,1.438,0.148
				c0.772,0,1.356-0.145,1.752-0.439s0.592-0.703,0.592-1.229c0-0.348-0.067-0.631-0.211-0.854c-0.142-0.221-0.371-0.426-0.695-0.61
				c-0.325-0.188-0.821-0.396-1.489-0.637c-0.933-0.334-1.596-0.73-1.985-1.187c-0.396-0.457-0.592-1.054-0.592-1.787
				c0-0.771,0.286-1.386,0.864-1.843c0.573-0.455,1.34-0.684,2.289-0.684c0.985,0,1.897,0.182,2.729,0.547l-0.354,1.012
				c-0.824-0.346-1.625-0.521-2.399-0.521c-0.617,0-1.101,0.135-1.445,0.396c-0.35,0.268-0.521,0.635-0.521,1.104
				c0,0.348,0.063,0.633,0.188,0.854c0.127,0.226,0.347,0.429,0.646,0.609c0.308,0.186,0.771,0.389,1.396,0.611
				c1.054,0.373,1.771,0.771,2.16,1.205c0.394,0.43,0.584,0.98,0.584,1.67c0,0.877-0.313,1.563-0.955,2.051
				c-0.637,0.49-1.5,0.732-2.59,0.732C138.179,187.811,137.267,187.66,136.63,187.357z"/>
			<path fill="#666666" d="M144.974,187.673v-9.993h3.063c1.555,0,2.764,0.432,3.623,1.293c0.858,0.858,1.291,2.063,1.291,3.606
				c0,1.646-0.445,2.912-1.345,3.785c-0.896,0.867-2.188,1.309-3.864,1.309H144.974L144.974,187.673z M146.136,186.667h1.411
				c1.39,0,2.431-0.34,3.125-1.021c0.697-0.682,1.048-1.688,1.048-3.021c0-1.307-0.326-2.285-0.979-2.947
				c-0.652-0.655-1.625-0.985-2.916-0.985h-1.688L146.136,186.667L146.136,186.667z"/>
		</g>
	</g>
	<g>
		<rect x="301.78" y="175.564" fill="#58585A" width="14.217" height="14.217"/>
		<g>
			<path fill="#666666" d="M322.867,186.128v-9.994h1.162v9.994H322.867z"/>
			<path fill="#666666" d="M326.606,186.128v-7.492h0.924l0.188,1.013h0.057c0.23-0.362,0.557-0.646,0.979-0.849
				c0.422-0.2,0.889-0.301,1.398-0.301c0.902,0,1.582,0.219,2.037,0.648c0.455,0.438,0.684,1.137,0.684,2.094v4.887h-1.135v-4.854
				c0-0.61-0.139-1.067-0.418-1.368c-0.273-0.304-0.713-0.453-1.305-0.453c-0.785,0-1.359,0.213-1.729,0.637
				c-0.359,0.432-0.547,1.127-0.547,2.104v3.938h-1.135L326.606,186.128L326.606,186.128z"/>
			<path fill="#666666" d="M333.237,188.406c0.314,0.09,0.625,0.137,0.93,0.137c0.355,0,0.617-0.098,0.783-0.291
				c0.168-0.188,0.25-0.49,0.25-0.887v-8.729h1.141v8.642c0,1.478-0.686,2.216-2.049,2.216c-0.434,0-0.777-0.058-1.053-0.17v-0.916
				h-0.002V188.406L333.237,188.406z M335.104,176.605c0-0.262,0.063-0.449,0.189-0.57c0.127-0.119,0.281-0.182,0.479-0.182
				c0.207,0,0.387,0.063,0.539,0.186c0.15,0.123,0.227,0.313,0.227,0.566c0,0.252-0.07,0.443-0.227,0.57
				c-0.152,0.125-0.332,0.189-0.539,0.189c-0.191,0-0.352-0.064-0.479-0.189C335.16,177.052,335.104,176.861,335.104,176.605z"/>
			<path fill="#666666" d="M338.656,183.539v-4.897h1.162v4.856c0,0.609,0.145,1.064,0.416,1.367
				c0.277,0.301,0.711,0.449,1.303,0.449c0.783,0,1.355-0.213,1.723-0.645c0.355-0.428,0.543-1.127,0.543-2.102v-3.938h1.135v7.492
				h-0.924l-0.176-1.004h-0.063c-0.23,0.368-0.555,0.646-0.967,0.85c-0.412,0.193-0.881,0.294-1.408,0.294
				c-0.916,0-1.602-0.22-2.057-0.647C338.884,185.184,338.656,184.49,338.656,183.539z"/>
			<path fill="#666666" d="M347.326,186.128v-7.492h0.93l0.139,1.396h0.059c0.279-0.488,0.615-0.865,1.012-1.138
				c0.393-0.271,0.818-0.396,1.293-0.396c0.332,0,0.631,0.024,0.896,0.082l-0.158,1.062c-0.309-0.063-0.582-0.104-0.814-0.104
				c-0.605,0-1.125,0.246-1.561,0.733c-0.43,0.492-0.645,1.104-0.645,1.841v4.016h-1.141H347.326L347.326,186.128z"/>
			<path fill="#666666" d="M352.948,176.605c0-0.262,0.063-0.449,0.182-0.57c0.113-0.119,0.266-0.182,0.438-0.182
				c0.197,0,0.367,0.063,0.508,0.186c0.146,0.123,0.215,0.313,0.215,0.566c0,0.252-0.064,0.443-0.215,0.57
				c-0.143,0.125-0.311,0.189-0.508,0.189c-0.176,0-0.324-0.064-0.438-0.189C353.01,177.052,352.948,176.861,352.948,176.605z
				 M353.049,186.128v-7.492h1.037v7.492H353.049z"/>
			<path fill="#666666" d="M356.172,182.445c0-1.209,0.297-2.168,0.889-2.879c0.594-0.711,1.389-1.066,2.389-1.066
				c0.938,0,1.682,0.313,2.227,0.926c0.547,0.619,0.813,1.439,0.813,2.445v0.717h-5.148c0.021,0.881,0.238,1.547,0.666,2.004
				c0.424,0.455,1.018,0.689,1.779,0.689c0.809,0,1.604-0.171,2.391-0.507v1.017c-0.4,0.174-0.777,0.299-1.141,0.373
				c-0.354,0.069-0.787,0.106-1.291,0.106c-1.104,0-1.977-0.336-2.609-1.017C356.49,184.58,356.172,183.643,356.172,182.445z
				 M357.362,181.666h3.924c0-0.717-0.154-1.266-0.479-1.645c-0.32-0.381-0.777-0.57-1.371-0.57c-0.604,0-1.082,0.195-1.441,0.588
				C357.637,180.43,357.426,180.973,357.362,181.666z"/>
			<path fill="#666666" d="M363.963,180.477c0-0.608,0.248-1.095,0.738-1.444c0.498-0.355,1.184-0.531,2.049-0.531
				c0.803,0,1.584,0.164,2.352,0.492l-0.396,0.924c-0.75-0.312-1.428-0.465-2.031-0.465c-0.539,0-0.945,0.084-1.225,0.254
				c-0.271,0.168-0.412,0.399-0.412,0.696c0,0.201,0.059,0.371,0.154,0.515c0.104,0.146,0.271,0.274,0.498,0.404
				c0.229,0.129,0.666,0.313,1.314,0.557c0.889,0.324,1.48,0.647,1.791,0.979c0.307,0.328,0.461,0.742,0.461,1.24
				c0,0.692-0.266,1.229-0.775,1.604c-0.518,0.375-1.242,0.563-2.176,0.563c-0.992,0-1.771-0.154-2.32-0.467v-1.047
				c0.359,0.186,0.746,0.326,1.158,0.434c0.412,0.105,0.809,0.156,1.188,0.156c0.602,0,1.057-0.096,1.371-0.283
				c0.32-0.188,0.479-0.479,0.479-0.867c0-0.291-0.127-0.541-0.379-0.75c-0.254-0.207-0.748-0.451-1.484-0.734
				c-0.699-0.262-1.195-0.484-1.486-0.684c-0.293-0.193-0.51-0.414-0.646-0.66C364.031,181.115,363.963,180.82,363.963,180.477z"/>
		</g>
	</g>
</g>
<g id="more">
	<circle id="more3" fill="none" stroke="#67ABAD" stroke-miterlimit="10" cx="465.515" cy="12.711" r="9.439"/>
	<rect id="more2" x="464.816" y="8.679" fill="#67ABAD" width="1.292" height="8.122"/>
	<rect id="more1" x="461.401" y="12.094" fill="#67ABAD" width="8.122" height="1.292"/>
</g>
<g>
	<g>
		
			<line fill="none" stroke="#333333" stroke-width="0.5" stroke-miterlimit="10" x1="81.304" y1="139.529" x2="81.304" y2="142.37"/>
	</g>
	<g>
		
			<line fill="none" stroke="#333333" stroke-width="0.5" stroke-miterlimit="10" x1="181.038" y1="139.529" x2="181.038" y2="142.37"/>
	</g>
	<g>
		
			<line fill="none" stroke="#333333" stroke-width="0.5" stroke-miterlimit="10" x1="281.488" y1="139.529" x2="281.488" y2="142.37"/>
	</g>
	<g>
		
			<line fill="none" stroke="#333333" stroke-width="0.5" stroke-miterlimit="10" x1="381.963" y1="139.529" x2="381.963" y2="142.37"/>
	</g>
</g>
</svg>
