<?xml version="1.0" encoding="utf-8"?>
<!-- Generator: Adobe Illustrator 16.0.0, SVG Export Plug-In . SVG Version: 6.00 Build 0)  -->
<!DOCTYPE svg PUBLIC "-//W3C//DTD SVG 1.1//EN" "http://www.w3.org/Graphics/SVG/1.1/DTD/svg11.dtd">
<svg version="1.1" xmlns="http://www.w3.org/2000/svg" xmlns:xlink="http://www.w3.org/1999/xlink" x="0px" y="0px" width="477px"
	 height="220px" viewBox="115 37.5 477 220" enable-background="new 115 37.5 477 220" xml:space="preserve">
<g id="Capa_1">
</g>
<g id="Capa_2">
	
		<line fill="none" stroke="#999999" stroke-width="0.5" stroke-miterlimit="10" x1="151.763" y1="175.775" x2="574.021" y2="175.775"/>
	
		<line fill="none" stroke="#999999" stroke-width="0.5" stroke-miterlimit="10" x1="151.763" y1="181.441" x2="151.763" y2="55.775"/>
	<g>
		
			<line fill="none" stroke="#CCCCCC" stroke-width="0.5" stroke-miterlimit="10" x1="191.507" y1="181.441" x2="191.507" y2="55.775"/>
		
			<line fill="none" stroke="#CCCCCC" stroke-width="0.5" stroke-miterlimit="10" x1="231.974" y1="181.441" x2="231.974" y2="55.775"/>
		
			<line fill="none" stroke="#CCCCCC" stroke-width="0.5" stroke-miterlimit="10" x1="272.724" y1="181.441" x2="272.724" y2="55.775"/>
		
			<line fill="none" stroke="#CCCCCC" stroke-width="0.5" stroke-miterlimit="10" x1="312.724" y1="181.441" x2="312.724" y2="55.775"/>
		
			<line fill="none" stroke="#CCCCCC" stroke-width="0.5" stroke-miterlimit="10" x1="351.974" y1="181.441" x2="351.974" y2="55.775"/>
		
			<line fill="none" stroke="#CCCCCC" stroke-width="0.5" stroke-miterlimit="10" x1="392.724" y1="181.441" x2="392.724" y2="55.775"/>
		
			<line fill="none" stroke="#CCCCCC" stroke-width="0.5" stroke-miterlimit="10" x1="432.724" y1="181.441" x2="432.724" y2="55.775"/>
		
			<line fill="none" stroke="#CCCCCC" stroke-width="0.5" stroke-miterlimit="10" x1="472.974" y1="181.441" x2="472.974" y2="55.775"/>
		
			<line fill="none" stroke="#CCCCCC" stroke-width="0.5" stroke-miterlimit="10" x1="512.224" y1="181.441" x2="512.224" y2="55.775"/>
		
			<line fill="none" stroke="#CCCCCC" stroke-width="0.5" stroke-miterlimit="10" x1="553.224" y1="181.441" x2="553.224" y2="55.775"/>
	</g>
	<g>
		<g>
			<path fill="#666666" d="M152.265,187.811c0-1.491,0.233-2.598,0.699-3.32c0.466-0.722,1.178-1.083,2.134-1.083
				c0.929,0,1.634,0.377,2.116,1.13c0.481,0.754,0.723,1.845,0.723,3.273c0,1.481-0.233,2.588-0.699,3.318
				c-0.467,0.731-1.18,1.097-2.14,1.097c-0.925,0-1.628-0.374-2.11-1.123C152.507,190.354,152.265,189.257,152.265,187.811z
				 M153.261,187.811c0,1.243,0.146,2.148,0.438,2.715c0.293,0.567,0.759,0.851,1.398,0.851c0.647,0,1.116-0.287,1.407-0.862
				c0.291-0.574,0.436-1.476,0.436-2.703s-0.146-2.127-0.436-2.697c-0.291-0.571-0.759-0.856-1.407-0.856
				c-0.64,0-1.105,0.281-1.398,0.845C153.407,185.664,153.261,186.567,153.261,187.811z"/>
			<path fill="#666666" d="M159.138,186.094c0-0.886,0.144-1.553,0.433-2.002c0.289-0.448,0.716-0.673,1.281-0.673
				c0.563,0,0.997,0.232,1.3,0.696c0.304,0.465,0.455,1.124,0.455,1.979c0,0.892-0.148,1.565-0.446,2.021
				c-0.297,0.456-0.733,0.684-1.309,0.684c-0.542,0-0.963-0.232-1.264-0.698C159.288,187.635,159.138,186.966,159.138,186.094z
				 M159.929,186.094c0,0.665,0.072,1.164,0.217,1.496c0.145,0.333,0.38,0.499,0.706,0.499c0.643,0,0.964-0.665,0.964-1.995
				c0-1.326-0.321-1.989-0.964-1.989c-0.325,0-0.561,0.165-0.706,0.494C160.002,184.929,159.929,185.427,159.929,186.094z
				 M160.653,192.108l4.739-8.566h0.864l-4.739,8.566H160.653z M164.283,189.528c0-0.886,0.145-1.554,0.434-2.002
				c0.29-0.449,0.718-0.674,1.286-0.674c0.552,0,0.982,0.229,1.292,0.688c0.309,0.458,0.463,1.121,0.463,1.987
				c0,0.888-0.148,1.559-0.446,2.015c-0.297,0.455-0.733,0.683-1.309,0.683c-0.552,0-0.977-0.232-1.274-0.697
				C164.431,191.063,164.283,190.396,164.283,189.528z M165.074,189.528c0,0.667,0.072,1.165,0.217,1.494s0.382,0.494,0.711,0.494
				s0.572-0.163,0.729-0.488c0.157-0.325,0.235-0.825,0.235-1.5c0-0.667-0.078-1.162-0.235-1.483
				c-0.156-0.322-0.399-0.483-0.729-0.483s-0.566,0.161-0.711,0.483C165.146,188.366,165.074,188.861,165.074,189.528z"/>
		</g>
		<g>
			<path fill="#666666" d="M185.081,185.294l2.27-1.752h0.84v8.566h-0.973v-6.105c0-0.508,0.016-0.988,0.048-1.441
				c-0.082,0.082-0.174,0.168-0.275,0.258s-0.566,0.471-1.395,1.143L185.081,185.294z"/>
			<path fill="#666666" d="M191.437,187.811c0-1.491,0.233-2.598,0.699-3.32c0.466-0.722,1.178-1.083,2.134-1.083
				c0.929,0,1.634,0.377,2.116,1.13c0.481,0.754,0.723,1.845,0.723,3.273c0,1.481-0.233,2.588-0.699,3.318
				c-0.467,0.731-1.18,1.097-2.14,1.097c-0.925,0-1.628-0.374-2.11-1.123C191.678,190.354,191.437,189.257,191.437,187.811z
				 M192.433,187.811c0,1.243,0.146,2.148,0.438,2.715c0.293,0.567,0.759,0.851,1.398,0.851c0.647,0,1.116-0.287,1.407-0.862
				c0.291-0.574,0.436-1.476,0.436-2.703s-0.146-2.127-0.436-2.697c-0.291-0.571-0.759-0.856-1.407-0.856
				c-0.64,0-1.105,0.281-1.398,0.845C192.579,185.664,192.433,186.567,192.433,187.811z"/>
			<path fill="#666666" d="M198.31,186.094c0-0.886,0.144-1.553,0.433-2.002c0.289-0.448,0.716-0.673,1.281-0.673
				c0.563,0,0.997,0.232,1.3,0.696c0.304,0.465,0.455,1.124,0.455,1.979c0,0.892-0.148,1.565-0.446,2.021
				c-0.297,0.456-0.733,0.684-1.309,0.684c-0.542,0-0.963-0.232-1.264-0.698C198.46,187.635,198.31,186.966,198.31,186.094z
				 M199.101,186.094c0,0.665,0.072,1.164,0.217,1.496c0.145,0.333,0.38,0.499,0.706,0.499c0.643,0,0.964-0.665,0.964-1.995
				c0-1.326-0.321-1.989-0.964-1.989c-0.325,0-0.561,0.165-0.706,0.494C199.174,184.929,199.101,185.427,199.101,186.094z
				 M199.824,192.108l4.739-8.566h0.864l-4.739,8.566H199.824z M203.455,189.528c0-0.886,0.145-1.554,0.434-2.002
				c0.29-0.449,0.718-0.674,1.286-0.674c0.552,0,0.982,0.229,1.292,0.688c0.309,0.458,0.463,1.121,0.463,1.987
				c0,0.888-0.148,1.559-0.446,2.015c-0.297,0.455-0.733,0.683-1.309,0.683c-0.552,0-0.977-0.232-1.274-0.697
				C203.603,191.063,203.455,190.396,203.455,189.528z M204.246,189.528c0,0.667,0.072,1.165,0.217,1.494s0.382,0.494,0.711,0.494
				s0.572-0.163,0.729-0.488c0.157-0.325,0.235-0.825,0.235-1.5c0-0.667-0.078-1.162-0.235-1.483
				c-0.156-0.322-0.399-0.483-0.729-0.483s-0.566,0.161-0.711,0.483C204.318,188.366,204.246,188.861,204.246,189.528z"/>
		</g>
		<g>
			<path fill="#666666" d="M223.877,192.108v-0.827l2.256-2.276c0.688-0.698,1.141-1.196,1.359-1.494
				c0.219-0.299,0.383-0.589,0.492-0.871s0.164-0.586,0.164-0.912c0-0.459-0.139-0.822-0.416-1.091s-0.662-0.403-1.154-0.403
				c-0.355,0-0.692,0.059-1.011,0.177c-0.318,0.117-0.673,0.331-1.063,0.641l-0.516-0.664c0.789-0.646,1.648-0.968,2.578-0.968
				c0.805,0,1.436,0.205,1.893,0.615s0.686,0.961,0.686,1.652c0,0.546-0.152,1.085-0.457,1.618
				c-0.305,0.534-0.875,1.208-1.711,2.024l-1.875,1.842v0.047h4.406v0.891H223.877z"/>
			<path fill="#666666" d="M230.75,187.811c0-1.491,0.233-2.598,0.699-3.32c0.466-0.722,1.178-1.083,2.134-1.083
				c0.929,0,1.634,0.377,2.116,1.13c0.481,0.754,0.723,1.845,0.723,3.273c0,1.481-0.233,2.588-0.699,3.318
				c-0.467,0.731-1.18,1.097-2.14,1.097c-0.925,0-1.628-0.374-2.11-1.123C230.991,190.354,230.75,189.257,230.75,187.811z
				 M231.746,187.811c0,1.243,0.146,2.148,0.438,2.715c0.293,0.567,0.759,0.851,1.398,0.851c0.647,0,1.116-0.287,1.407-0.862
				c0.291-0.574,0.436-1.476,0.436-2.703s-0.146-2.127-0.436-2.697c-0.291-0.571-0.759-0.856-1.407-0.856
				c-0.64,0-1.105,0.281-1.398,0.845C231.892,185.664,231.746,186.567,231.746,187.811z"/>
			<path fill="#666666" d="M237.623,186.094c0-0.886,0.144-1.553,0.433-2.002c0.289-0.448,0.716-0.673,1.281-0.673
				c0.563,0,0.997,0.232,1.3,0.696c0.304,0.465,0.455,1.124,0.455,1.979c0,0.892-0.148,1.565-0.446,2.021
				c-0.297,0.456-0.733,0.684-1.309,0.684c-0.542,0-0.963-0.232-1.264-0.698C237.773,187.635,237.623,186.966,237.623,186.094z
				 M238.414,186.094c0,0.665,0.072,1.164,0.217,1.496c0.145,0.333,0.38,0.499,0.706,0.499c0.643,0,0.964-0.665,0.964-1.995
				c0-1.326-0.321-1.989-0.964-1.989c-0.325,0-0.561,0.165-0.706,0.494C238.487,184.929,238.414,185.427,238.414,186.094z
				 M239.137,192.108l4.739-8.566h0.864l-4.739,8.566H239.137z M242.768,189.528c0-0.886,0.145-1.554,0.434-2.002
				c0.29-0.449,0.718-0.674,1.286-0.674c0.552,0,0.982,0.229,1.292,0.688c0.309,0.458,0.463,1.121,0.463,1.987
				c0,0.888-0.148,1.559-0.446,2.015c-0.297,0.455-0.733,0.683-1.309,0.683c-0.552,0-0.977-0.232-1.274-0.697
				C242.916,191.063,242.768,190.396,242.768,189.528z M243.559,189.528c0,0.667,0.072,1.165,0.217,1.494s0.382,0.494,0.711,0.494
				s0.572-0.163,0.729-0.488c0.157-0.325,0.235-0.825,0.235-1.5c0-0.667-0.078-1.162-0.235-1.483
				c-0.156-0.322-0.399-0.483-0.729-0.483s-0.566,0.161-0.711,0.483C243.631,188.366,243.559,188.861,243.559,189.528z"/>
		</g>
		<g>
			<path fill="#666666" d="M266.155,191.77v-0.923c0.371,0.185,0.767,0.324,1.187,0.421c0.42,0.096,0.817,0.144,1.192,0.144
				c1.48,0,2.221-0.582,2.221-1.746c0-1.043-0.819-1.564-2.458-1.564h-0.847v-0.85h0.859c0.67,0,1.202-0.147,1.594-0.443
				c0.392-0.295,0.588-0.705,0.588-1.229c0-0.419-0.144-0.748-0.431-0.986c-0.287-0.239-0.677-0.358-1.169-0.358
				c-0.375,0-0.729,0.051-1.061,0.152c-0.332,0.103-0.711,0.29-1.137,0.563l-0.492-0.657c0.352-0.271,0.757-0.485,1.216-0.641
				s0.942-0.232,1.45-0.232c0.832,0,1.477,0.189,1.934,0.567s0.686,0.896,0.686,1.557c0,0.549-0.153,0.998-0.46,1.347
				s-0.741,0.582-1.304,0.7v0.047c0.688,0.087,1.197,0.307,1.529,0.66c0.332,0.354,0.498,0.817,0.498,1.392
				c0,0.814-0.281,1.441-0.844,1.879c-0.563,0.439-1.365,0.658-2.408,0.658c-0.453,0-0.868-0.033-1.245-0.102
				C266.877,192.058,266.51,191.938,266.155,191.77z"/>
			<path fill="#666666" d="M273.063,187.811c0-1.491,0.233-2.598,0.699-3.32c0.466-0.722,1.178-1.083,2.134-1.083
				c0.929,0,1.634,0.377,2.116,1.13c0.481,0.754,0.723,1.845,0.723,3.273c0,1.481-0.233,2.588-0.699,3.318
				c-0.467,0.731-1.18,1.097-2.14,1.097c-0.925,0-1.628-0.374-2.11-1.123C273.304,190.354,273.063,189.257,273.063,187.811z
				 M274.059,187.811c0,1.243,0.146,2.148,0.438,2.715c0.293,0.567,0.759,0.851,1.398,0.851c0.647,0,1.116-0.287,1.407-0.862
				c0.291-0.574,0.436-1.476,0.436-2.703s-0.146-2.127-0.436-2.697c-0.291-0.571-0.759-0.856-1.407-0.856
				c-0.64,0-1.105,0.281-1.398,0.845C274.205,185.664,274.059,186.567,274.059,187.811z"/>
			<path fill="#666666" d="M279.936,186.094c0-0.886,0.144-1.553,0.433-2.002c0.289-0.448,0.716-0.673,1.281-0.673
				c0.563,0,0.997,0.232,1.3,0.696c0.304,0.465,0.455,1.124,0.455,1.979c0,0.892-0.148,1.565-0.446,2.021
				c-0.297,0.456-0.733,0.684-1.309,0.684c-0.542,0-0.963-0.232-1.264-0.698C280.086,187.635,279.936,186.966,279.936,186.094z
				 M280.727,186.094c0,0.665,0.072,1.164,0.217,1.496c0.145,0.333,0.38,0.499,0.706,0.499c0.643,0,0.964-0.665,0.964-1.995
				c0-1.326-0.321-1.989-0.964-1.989c-0.325,0-0.561,0.165-0.706,0.494C280.8,184.929,280.727,185.427,280.727,186.094z
				 M281.45,192.108l4.739-8.566h0.864l-4.739,8.566H281.45z M285.081,189.528c0-0.886,0.145-1.554,0.434-2.002
				c0.29-0.449,0.718-0.674,1.286-0.674c0.552,0,0.982,0.229,1.292,0.688c0.309,0.458,0.463,1.121,0.463,1.987
				c0,0.888-0.148,1.559-0.446,2.015c-0.297,0.455-0.733,0.683-1.309,0.683c-0.552,0-0.977-0.232-1.274-0.697
				C285.229,191.063,285.081,190.396,285.081,189.528z M285.872,189.528c0,0.667,0.072,1.165,0.217,1.494s0.382,0.494,0.711,0.494
				s0.572-0.163,0.729-0.488c0.157-0.325,0.235-0.825,0.235-1.5c0-0.667-0.078-1.162-0.235-1.483
				c-0.156-0.322-0.399-0.483-0.729-0.483s-0.566,0.161-0.711,0.483C285.944,188.366,285.872,188.861,285.872,189.528z"/>
		</g>
		<g>
			<path fill="#666666" d="M305.157,190.146v-0.855l4.066-5.795h1.031v5.76h1.283v0.891h-1.283v1.963h-0.92v-1.963H305.157z
				 M306.142,189.255h3.193v-2.848c0-0.559,0.02-1.189,0.059-1.893h-0.047c-0.188,0.375-0.363,0.686-0.527,0.932L306.142,189.255z"
				/>
			<path fill="#666666" d="M312.376,187.811c0-1.491,0.233-2.598,0.699-3.32c0.466-0.722,1.178-1.083,2.134-1.083
				c0.929,0,1.634,0.377,2.116,1.13c0.481,0.754,0.723,1.845,0.723,3.273c0,1.481-0.233,2.588-0.699,3.318
				c-0.467,0.731-1.18,1.097-2.14,1.097c-0.925,0-1.628-0.374-2.11-1.123C312.617,190.354,312.376,189.257,312.376,187.811z
				 M313.372,187.811c0,1.243,0.146,2.148,0.438,2.715c0.293,0.567,0.759,0.851,1.398,0.851c0.647,0,1.116-0.287,1.407-0.862
				c0.291-0.574,0.436-1.476,0.436-2.703s-0.146-2.127-0.436-2.697c-0.291-0.571-0.759-0.856-1.407-0.856
				c-0.64,0-1.105,0.281-1.398,0.845C313.518,185.664,313.372,186.567,313.372,187.811z"/>
			<path fill="#666666" d="M319.249,186.094c0-0.886,0.144-1.553,0.433-2.002c0.289-0.448,0.716-0.673,1.281-0.673
				c0.563,0,0.997,0.232,1.3,0.696c0.304,0.465,0.455,1.124,0.455,1.979c0,0.892-0.148,1.565-0.446,2.021
				c-0.297,0.456-0.733,0.684-1.309,0.684c-0.542,0-0.963-0.232-1.264-0.698C319.399,187.635,319.249,186.966,319.249,186.094z
				 M320.04,186.094c0,0.665,0.072,1.164,0.217,1.496c0.145,0.333,0.38,0.499,0.706,0.499c0.643,0,0.964-0.665,0.964-1.995
				c0-1.326-0.321-1.989-0.964-1.989c-0.325,0-0.561,0.165-0.706,0.494C320.113,184.929,320.04,185.427,320.04,186.094z
				 M320.763,192.108l4.739-8.566h0.864l-4.739,8.566H320.763z M324.394,189.528c0-0.886,0.145-1.554,0.434-2.002
				c0.29-0.449,0.718-0.674,1.286-0.674c0.552,0,0.982,0.229,1.292,0.688c0.309,0.458,0.463,1.121,0.463,1.987
				c0,0.888-0.148,1.559-0.446,2.015c-0.297,0.455-0.733,0.683-1.309,0.683c-0.552,0-0.977-0.232-1.274-0.697
				C324.542,191.063,324.394,190.396,324.394,189.528z M325.185,189.528c0,0.667,0.072,1.165,0.217,1.494s0.382,0.494,0.711,0.494
				s0.572-0.163,0.729-0.488c0.157-0.325,0.235-0.825,0.235-1.5c0-0.667-0.078-1.162-0.235-1.483
				c-0.156-0.322-0.399-0.483-0.729-0.483s-0.566,0.161-0.711,0.483C325.257,188.366,325.185,188.861,325.185,189.528z"/>
		</g>
		<g>
			<path fill="#666666" d="M345.01,191.756v-0.94c0.273,0.175,0.613,0.313,1.02,0.412c0.406,0.099,0.807,0.148,1.201,0.148
				c0.688,0,1.222-0.161,1.603-0.484s0.571-0.791,0.571-1.402c0-1.191-0.733-1.787-2.199-1.787c-0.372,0-0.868,0.057-1.49,0.169
				l-0.504-0.321l0.326-4.008h4.26v0.891h-3.429l-0.217,2.578c0.449-0.082,0.897-0.123,1.342-0.123c0.903,0,1.613,0.222,2.131,0.666
				c0.518,0.444,0.777,1.053,0.777,1.825c0,0.888-0.282,1.585-0.847,2.09s-1.343,0.757-2.335,0.757
				C346.254,192.226,345.517,192.069,345.01,191.756z"/>
			<path fill="#666666" d="M351.689,187.811c0-1.491,0.233-2.598,0.699-3.32c0.466-0.722,1.178-1.083,2.134-1.083
				c0.929,0,1.634,0.377,2.116,1.13c0.481,0.754,0.723,1.845,0.723,3.273c0,1.481-0.233,2.588-0.699,3.318
				c-0.467,0.731-1.18,1.097-2.14,1.097c-0.925,0-1.628-0.374-2.11-1.123C351.93,190.354,351.689,189.257,351.689,187.811z
				 M352.685,187.811c0,1.243,0.146,2.148,0.438,2.715c0.293,0.567,0.759,0.851,1.398,0.851c0.647,0,1.116-0.287,1.407-0.862
				c0.291-0.574,0.436-1.476,0.436-2.703s-0.146-2.127-0.436-2.697c-0.291-0.571-0.759-0.856-1.407-0.856
				c-0.64,0-1.105,0.281-1.398,0.845C352.831,185.664,352.685,186.567,352.685,187.811z"/>
			<path fill="#666666" d="M358.562,186.094c0-0.886,0.144-1.553,0.433-2.002c0.289-0.448,0.716-0.673,1.281-0.673
				c0.563,0,0.997,0.232,1.3,0.696c0.304,0.465,0.455,1.124,0.455,1.979c0,0.892-0.148,1.565-0.446,2.021
				c-0.297,0.456-0.733,0.684-1.309,0.684c-0.542,0-0.963-0.232-1.264-0.698C358.712,187.635,358.562,186.966,358.562,186.094z
				 M359.353,186.094c0,0.665,0.072,1.164,0.217,1.496c0.145,0.333,0.38,0.499,0.706,0.499c0.643,0,0.964-0.665,0.964-1.995
				c0-1.326-0.321-1.989-0.964-1.989c-0.325,0-0.561,0.165-0.706,0.494C359.426,184.929,359.353,185.427,359.353,186.094z
				 M360.076,192.108l4.738-8.566h0.865l-4.74,8.566H360.076z M363.707,189.528c0-0.886,0.145-1.554,0.434-2.002
				c0.289-0.449,0.719-0.674,1.285-0.674c0.553,0,0.982,0.229,1.292,0.688c0.31,0.458,0.464,1.121,0.464,1.987
				c0,0.888-0.148,1.559-0.447,2.015c-0.297,0.455-0.732,0.683-1.309,0.683c-0.551,0-0.977-0.232-1.273-0.697
				C363.856,191.063,363.707,190.396,363.707,189.528z M364.498,189.528c0,0.667,0.072,1.165,0.217,1.494s0.383,0.494,0.711,0.494
				c0.33,0,0.572-0.163,0.729-0.488c0.158-0.325,0.236-0.825,0.236-1.5c0-0.667-0.078-1.162-0.236-1.483
				c-0.156-0.322-0.398-0.483-0.729-0.483c-0.328,0-0.566,0.161-0.711,0.483C364.571,188.366,364.498,188.861,364.498,189.528z"/>
		</g>
		<g>
			<path fill="#666666" d="M386.228,188.449c0-1.685,0.327-2.944,0.981-3.778c0.654-0.835,1.622-1.252,2.903-1.252
				c0.442,0,0.792,0.037,1.047,0.111v0.85c-0.302-0.113-0.647-0.17-1.035-0.17c-0.918,0-1.619,0.287-2.104,0.861
				s-0.75,1.477-0.797,2.708h0.07c0.43-0.665,1.109-0.997,2.039-0.997c0.772,0,1.382,0.231,1.827,0.695
				c0.446,0.464,0.669,1.094,0.669,1.889c0,0.889-0.244,1.588-0.733,2.096c-0.488,0.51-1.148,0.764-1.979,0.764
				c-0.887,0-1.59-0.333-2.109-0.998C386.488,190.562,386.228,189.636,386.228,188.449z M387.224,189.148
				c0,0.403,0.078,0.779,0.234,1.129c0.156,0.349,0.378,0.624,0.665,0.828s0.614,0.306,0.981,0.306c0.555,0,0.985-0.176,1.292-0.526
				s0.46-0.856,0.46-1.519c0-0.568-0.143-1.016-0.428-1.34c-0.285-0.326-0.711-0.488-1.277-0.488c-0.352,0-0.674,0.072-0.967,0.218
				c-0.293,0.145-0.526,0.345-0.7,0.6C387.311,188.609,387.224,188.874,387.224,189.148z"/>
			<path fill="#666666" d="M393.001,187.811c0-1.491,0.233-2.598,0.699-3.32c0.466-0.722,1.178-1.083,2.134-1.083
				c0.929,0,1.634,0.377,2.116,1.13c0.481,0.754,0.723,1.845,0.723,3.273c0,1.481-0.233,2.588-0.699,3.318
				c-0.467,0.731-1.18,1.097-2.14,1.097c-0.925,0-1.628-0.374-2.11-1.123C393.242,190.354,393.001,189.257,393.001,187.811z
				 M393.997,187.811c0,1.243,0.146,2.148,0.438,2.715c0.293,0.567,0.759,0.851,1.398,0.851c0.647,0,1.116-0.287,1.406-0.862
				c0.291-0.574,0.437-1.476,0.437-2.703s-0.146-2.127-0.437-2.697c-0.29-0.571-0.759-0.856-1.406-0.856
				c-0.64,0-1.105,0.281-1.398,0.845C394.143,185.664,393.997,186.567,393.997,187.811z"/>
			<path fill="#666666" d="M399.874,186.094c0-0.886,0.144-1.553,0.433-2.002c0.289-0.448,0.716-0.673,1.281-0.673
				c0.563,0,0.997,0.232,1.3,0.696c0.304,0.465,0.455,1.124,0.455,1.979c0,0.892-0.148,1.565-0.446,2.021
				c-0.297,0.456-0.733,0.684-1.309,0.684c-0.543,0-0.963-0.232-1.264-0.698C400.024,187.635,399.874,186.966,399.874,186.094z
				 M400.665,186.094c0,0.665,0.072,1.164,0.218,1.496c0.145,0.333,0.38,0.499,0.705,0.499c0.643,0,0.964-0.665,0.964-1.995
				c0-1.326-0.321-1.989-0.964-1.989c-0.325,0-0.561,0.165-0.705,0.494C400.738,184.929,400.665,185.427,400.665,186.094z
				 M401.389,192.108l4.738-8.566h0.864l-4.739,8.566H401.389z M405.019,189.528c0-0.886,0.145-1.554,0.435-2.002
				c0.289-0.449,0.718-0.674,1.285-0.674c0.552,0,0.982,0.229,1.291,0.688c0.31,0.458,0.464,1.121,0.464,1.987
				c0,0.888-0.148,1.559-0.446,2.015c-0.297,0.455-0.733,0.683-1.309,0.683c-0.552,0-0.977-0.232-1.273-0.697
				C405.167,191.063,405.019,190.396,405.019,189.528z M405.81,189.528c0,0.667,0.072,1.165,0.218,1.494
				c0.145,0.329,0.382,0.494,0.711,0.494s0.572-0.163,0.729-0.488c0.157-0.325,0.235-0.825,0.235-1.5
				c0-0.667-0.078-1.162-0.235-1.483c-0.156-0.322-0.399-0.483-0.729-0.483s-0.566,0.161-0.711,0.483
				C405.882,188.366,405.81,188.861,405.81,189.528z"/>
		</g>
		<g>
			<path fill="#666666" d="M425.406,184.433v-0.891h5.701v0.774l-3.504,7.792h-1.078l3.551-7.676H425.406z"/>
			<path fill="#666666" d="M432.315,187.811c0-1.491,0.232-2.598,0.699-3.32c0.466-0.722,1.178-1.083,2.133-1.083
				c0.93,0,1.635,0.377,2.117,1.13c0.48,0.754,0.723,1.845,0.723,3.273c0,1.481-0.234,2.588-0.699,3.318
				c-0.467,0.731-1.18,1.097-2.141,1.097c-0.924,0-1.627-0.374-2.109-1.123C432.555,190.354,432.315,189.257,432.315,187.811z
				 M433.311,187.811c0,1.243,0.146,2.148,0.438,2.715c0.293,0.567,0.76,0.851,1.398,0.851c0.648,0,1.117-0.287,1.407-0.862
				c0.29-0.574,0.437-1.476,0.437-2.703s-0.146-2.127-0.437-2.697c-0.29-0.571-0.759-0.856-1.407-0.856
				c-0.639,0-1.105,0.281-1.398,0.845C433.456,185.664,433.311,186.567,433.311,187.811z"/>
			<path fill="#666666" d="M439.188,186.094c0-0.886,0.144-1.553,0.432-2.002c0.289-0.448,0.717-0.673,1.281-0.673
				s0.998,0.232,1.301,0.696c0.303,0.465,0.455,1.124,0.455,1.979c0,0.892-0.148,1.565-0.447,2.021
				c-0.297,0.456-0.732,0.684-1.309,0.684c-0.542,0-0.963-0.232-1.264-0.698C439.337,187.635,439.188,186.966,439.188,186.094z
				 M439.979,186.094c0,0.665,0.072,1.164,0.217,1.496c0.145,0.333,0.381,0.499,0.705,0.499c0.643,0,0.965-0.665,0.965-1.995
				c0-1.326-0.322-1.989-0.965-1.989c-0.324,0-0.561,0.165-0.705,0.494C440.051,184.929,439.979,185.427,439.979,186.094z
				 M440.701,192.108l4.738-8.566h0.865l-4.74,8.566H440.701z M444.332,189.528c0-0.886,0.145-1.554,0.434-2.002
				c0.289-0.449,0.719-0.674,1.285-0.674c0.553,0,0.982,0.229,1.292,0.688c0.31,0.458,0.464,1.121,0.464,1.987
				c0,0.888-0.148,1.559-0.447,2.015c-0.297,0.455-0.732,0.683-1.309,0.683c-0.551,0-0.977-0.232-1.273-0.697
				C444.481,191.063,444.332,190.396,444.332,189.528z M445.123,189.528c0,0.667,0.072,1.165,0.217,1.494s0.383,0.494,0.711,0.494
				c0.33,0,0.572-0.163,0.729-0.488c0.158-0.325,0.236-0.825,0.236-1.5c0-0.667-0.078-1.162-0.236-1.483
				c-0.156-0.322-0.398-0.483-0.729-0.483c-0.328,0-0.566,0.161-0.711,0.483C445.196,188.366,445.123,188.861,445.123,189.528z"/>
		</g>
		<g>
			<path fill="#666666" d="M464.779,189.923c0-0.98,0.601-1.744,1.804-2.291c-0.545-0.305-0.936-0.634-1.173-0.987
				s-0.355-0.749-0.355-1.187c0-0.621,0.231-1.116,0.692-1.485s1.08-0.554,1.854-0.554c0.783,0,1.405,0.182,1.863,0.545
				c0.459,0.363,0.688,0.865,0.688,1.506c0,0.422-0.132,0.807-0.396,1.154c-0.263,0.348-0.684,0.664-1.262,0.949
				c0.699,0.332,1.196,0.681,1.49,1.046c0.295,0.365,0.442,0.788,0.442,1.269c0,0.711-0.249,1.278-0.747,1.702
				c-0.497,0.424-1.18,0.636-2.045,0.636c-0.917,0-1.622-0.2-2.116-0.601C465.026,191.225,464.779,190.657,464.779,189.923z
				 M465.751,189.946c0,0.469,0.163,0.834,0.488,1.096s0.783,0.393,1.372,0.393c0.581,0,1.033-0.137,1.357-0.41
				c0.323-0.273,0.485-0.648,0.485-1.125c0-0.379-0.152-0.716-0.456-1.011c-0.305-0.295-0.835-0.581-1.592-0.858
				c-0.581,0.25-1.002,0.526-1.264,0.829C465.882,189.162,465.751,189.524,465.751,189.946z M466.027,185.499
				c0,0.359,0.115,0.668,0.345,0.926c0.23,0.258,0.655,0.516,1.275,0.773c0.558-0.234,0.952-0.486,1.184-0.756
				c0.232-0.27,0.349-0.584,0.349-0.943c0-0.395-0.142-0.708-0.424-0.94c-0.283-0.232-0.672-0.349-1.167-0.349
				c-0.487,0-0.869,0.117-1.146,0.352S466.027,185.108,466.027,185.499z"/>
			<path fill="#666666" d="M471.628,187.811c0-1.491,0.233-2.598,0.699-3.32c0.466-0.722,1.178-1.083,2.134-1.083
				c0.929,0,1.634,0.377,2.116,1.13c0.481,0.754,0.723,1.845,0.723,3.273c0,1.481-0.233,2.588-0.699,3.318
				c-0.467,0.731-1.18,1.097-2.14,1.097c-0.925,0-1.628-0.374-2.11-1.123C471.869,190.354,471.628,189.257,471.628,187.811z
				 M472.624,187.811c0,1.243,0.146,2.148,0.438,2.715c0.293,0.567,0.759,0.851,1.398,0.851c0.647,0,1.116-0.287,1.406-0.862
				c0.291-0.574,0.437-1.476,0.437-2.703s-0.146-2.127-0.437-2.697c-0.29-0.571-0.759-0.856-1.406-0.856
				c-0.64,0-1.105,0.281-1.398,0.845C472.77,185.664,472.624,186.567,472.624,187.811z"/>
			<path fill="#666666" d="M478.501,186.094c0-0.886,0.144-1.553,0.433-2.002c0.289-0.448,0.716-0.673,1.281-0.673
				c0.563,0,0.997,0.232,1.3,0.696c0.304,0.465,0.455,1.124,0.455,1.979c0,0.892-0.148,1.565-0.446,2.021
				c-0.297,0.456-0.733,0.684-1.309,0.684c-0.543,0-0.963-0.232-1.264-0.698C478.651,187.635,478.501,186.966,478.501,186.094z
				 M479.292,186.094c0,0.665,0.072,1.164,0.218,1.496c0.145,0.333,0.38,0.499,0.705,0.499c0.643,0,0.964-0.665,0.964-1.995
				c0-1.326-0.321-1.989-0.964-1.989c-0.325,0-0.561,0.165-0.705,0.494C479.365,184.929,479.292,185.427,479.292,186.094z
				 M480.016,192.108l4.738-8.566h0.864l-4.739,8.566H480.016z M483.646,189.528c0-0.886,0.145-1.554,0.435-2.002
				c0.289-0.449,0.718-0.674,1.285-0.674c0.552,0,0.982,0.229,1.291,0.688c0.31,0.458,0.464,1.121,0.464,1.987
				c0,0.888-0.148,1.559-0.446,2.015c-0.297,0.455-0.733,0.683-1.309,0.683c-0.552,0-0.977-0.232-1.273-0.697
				C483.794,191.063,483.646,190.396,483.646,189.528z M484.437,189.528c0,0.667,0.072,1.165,0.218,1.494
				c0.145,0.329,0.382,0.494,0.711,0.494s0.572-0.163,0.729-0.488c0.157-0.325,0.235-0.825,0.235-1.5
				c0-0.667-0.078-1.162-0.235-1.483c-0.156-0.322-0.399-0.483-0.729-0.483s-0.566,0.161-0.711,0.483
				C484.509,188.366,484.437,188.861,484.437,189.528z"/>
		</g>
		<g>
			<path fill="#666666" d="M505.102,186.294c0-0.889,0.25-1.59,0.75-2.104c0.5-0.515,1.157-0.771,1.973-0.771
				c0.584,0,1.094,0.149,1.531,0.448c0.436,0.298,0.771,0.733,1.008,1.305c0.234,0.571,0.352,1.246,0.352,2.022
				c0,3.354-1.299,5.031-3.896,5.031c-0.455,0-0.815-0.039-1.082-0.117v-0.85c0.313,0.117,0.67,0.176,1.07,0.176
				c0.936,0,1.643-0.291,2.119-0.873c0.479-0.582,0.738-1.476,0.781-2.679h-0.07c-0.214,0.328-0.498,0.578-0.854,0.751
				c-0.355,0.172-0.755,0.258-1.199,0.258c-0.761,0-1.365-0.229-1.812-0.685C505.326,187.75,505.102,187.112,505.102,186.294z
				 M506.074,186.282c0,0.564,0.141,1.009,0.422,1.333c0.281,0.323,0.707,0.485,1.281,0.485c0.354,0,0.682-0.072,0.979-0.218
				s0.533-0.344,0.705-0.595c0.171-0.251,0.257-0.514,0.257-0.788c0-0.412-0.08-0.793-0.239-1.143
				c-0.16-0.349-0.384-0.624-0.67-0.824s-0.615-0.3-0.985-0.3c-0.559,0-0.989,0.181-1.293,0.542
				C506.227,185.136,506.074,185.639,506.074,186.282z"/>
			<path fill="#666666" d="M511.94,187.811c0-1.491,0.233-2.598,0.699-3.32c0.467-0.722,1.178-1.083,2.135-1.083
				c0.928,0,1.633,0.377,2.115,1.13c0.482,0.754,0.723,1.845,0.723,3.273c0,1.481-0.232,2.588-0.699,3.318
				c-0.467,0.731-1.18,1.097-2.139,1.097c-0.926,0-1.629-0.374-2.111-1.123C512.182,190.354,511.94,189.257,511.94,187.811z
				 M512.936,187.811c0,1.243,0.146,2.148,0.439,2.715c0.293,0.567,0.758,0.851,1.398,0.851c0.646,0,1.115-0.287,1.406-0.862
				c0.291-0.574,0.436-1.476,0.436-2.703s-0.145-2.127-0.436-2.697c-0.291-0.571-0.76-0.856-1.406-0.856
				c-0.641,0-1.105,0.281-1.398,0.845C513.082,185.664,512.936,186.567,512.936,187.811z"/>
			<path fill="#666666" d="M518.813,186.094c0-0.886,0.145-1.553,0.434-2.002c0.288-0.448,0.715-0.673,1.281-0.673
				c0.563,0,0.996,0.232,1.299,0.696c0.305,0.465,0.455,1.124,0.455,1.979c0,0.892-0.148,1.565-0.445,2.021
				c-0.297,0.456-0.734,0.684-1.309,0.684c-0.543,0-0.964-0.232-1.264-0.698C518.963,187.635,518.813,186.966,518.813,186.094z
				 M519.604,186.094c0,0.665,0.072,1.164,0.218,1.496c0.146,0.333,0.38,0.499,0.706,0.499c0.643,0,0.963-0.665,0.963-1.995
				c0-1.326-0.32-1.989-0.963-1.989c-0.326,0-0.561,0.165-0.706,0.494C519.676,184.929,519.604,185.427,519.604,186.094z
				 M520.327,192.108l4.739-8.566h0.863l-4.738,8.566H520.327z M523.957,189.528c0-0.886,0.145-1.554,0.435-2.002
				c0.29-0.449,0.718-0.674,1.286-0.674c0.551,0,0.982,0.229,1.291,0.688c0.309,0.458,0.463,1.121,0.463,1.987
				c0,0.888-0.148,1.559-0.445,2.015c-0.297,0.455-0.734,0.683-1.309,0.683c-0.553,0-0.977-0.232-1.274-0.697
				C524.106,191.063,523.957,190.396,523.957,189.528z M524.748,189.528c0,0.667,0.072,1.165,0.218,1.494s0.382,0.494,0.712,0.494
				c0.328,0,0.572-0.163,0.729-0.488s0.234-0.825,0.234-1.5c0-0.667-0.078-1.162-0.234-1.483c-0.156-0.322-0.4-0.483-0.729-0.483
				c-0.33,0-0.566,0.161-0.712,0.483C524.821,188.366,524.748,188.861,524.748,189.528z"/>
		</g>
		<g>
			<path fill="#666666" d="M540.895,185.294l2.27-1.752h0.841v8.566h-0.973v-6.105c0-0.508,0.017-0.988,0.048-1.441
				c-0.082,0.082-0.174,0.168-0.275,0.258s-0.566,0.471-1.395,1.143L540.895,185.294z"/>
			<path fill="#666666" d="M547.251,187.811c0-1.491,0.233-2.598,0.699-3.32c0.466-0.722,1.178-1.083,2.134-1.083
				c0.929,0,1.634,0.377,2.116,1.13c0.481,0.754,0.723,1.845,0.723,3.273c0,1.481-0.233,2.588-0.699,3.318
				c-0.467,0.731-1.18,1.097-2.14,1.097c-0.925,0-1.628-0.374-2.11-1.123C547.492,190.354,547.251,189.257,547.251,187.811z
				 M548.247,187.811c0,1.243,0.146,2.148,0.438,2.715c0.293,0.567,0.759,0.851,1.398,0.851c0.647,0,1.116-0.287,1.406-0.862
				c0.291-0.574,0.437-1.476,0.437-2.703s-0.146-2.127-0.437-2.697c-0.29-0.571-0.759-0.856-1.406-0.856
				c-0.64,0-1.105,0.281-1.398,0.845C548.393,185.664,548.247,186.567,548.247,187.811z"/>
			<path fill="#666666" d="M554.113,187.811c0-1.491,0.233-2.598,0.699-3.32c0.466-0.722,1.178-1.083,2.134-1.083
				c0.929,0,1.634,0.377,2.116,1.13c0.481,0.754,0.723,1.845,0.723,3.273c0,1.481-0.233,2.588-0.699,3.318
				c-0.467,0.731-1.18,1.097-2.14,1.097c-0.925,0-1.628-0.374-2.11-1.123C554.354,190.354,554.113,189.257,554.113,187.811z
				 M555.109,187.811c0,1.243,0.146,2.148,0.438,2.715c0.293,0.567,0.759,0.851,1.398,0.851c0.647,0,1.116-0.287,1.406-0.862
				c0.291-0.574,0.437-1.476,0.437-2.703s-0.146-2.127-0.437-2.697c-0.29-0.571-0.759-0.856-1.406-0.856
				c-0.64,0-1.105,0.281-1.398,0.845C555.254,185.664,555.109,186.567,555.109,187.811z"/>
			<path fill="#666666" d="M560.986,186.094c0-0.886,0.144-1.553,0.433-2.002c0.289-0.448,0.716-0.673,1.281-0.673
				c0.563,0,0.997,0.232,1.3,0.696c0.304,0.465,0.455,1.124,0.455,1.979c0,0.892-0.148,1.565-0.446,2.021
				c-0.297,0.456-0.733,0.684-1.309,0.684c-0.543,0-0.963-0.232-1.264-0.698C561.135,187.635,560.986,186.966,560.986,186.094z
				 M561.777,186.094c0,0.665,0.072,1.164,0.218,1.496c0.145,0.333,0.38,0.499,0.705,0.499c0.643,0,0.964-0.665,0.964-1.995
				c0-1.326-0.321-1.989-0.964-1.989c-0.325,0-0.561,0.165-0.705,0.494C561.849,184.929,561.777,185.427,561.777,186.094z
				 M562.5,192.108l4.738-8.566h0.864l-4.739,8.566H562.5z M566.13,189.528c0-0.886,0.145-1.554,0.435-2.002
				c0.289-0.449,0.718-0.674,1.285-0.674c0.552,0,0.982,0.229,1.291,0.688c0.31,0.458,0.464,1.121,0.464,1.987
				c0,0.888-0.148,1.559-0.446,2.015c-0.297,0.455-0.733,0.683-1.309,0.683c-0.552,0-0.977-0.232-1.273-0.697
				C566.279,191.063,566.13,190.396,566.13,189.528z M566.921,189.528c0,0.667,0.072,1.165,0.218,1.494
				c0.145,0.329,0.382,0.494,0.711,0.494s0.572-0.163,0.729-0.488c0.157-0.325,0.235-0.825,0.235-1.5
				c0-0.667-0.078-1.162-0.235-1.483c-0.156-0.322-0.399-0.483-0.729-0.483s-0.566,0.161-0.711,0.483
				C566.993,188.366,566.921,188.861,566.921,189.528z"/>
		</g>
	</g>
	<g>
		<rect x="418.353" y="220.45" fill="#0FAAAA" width="14.217" height="14.217"/>
		<g>
			<path fill="#666666" d="M438.08,228.326c0-1.029,0.19-1.932,0.571-2.706c0.381-0.773,0.935-1.37,1.661-1.789
				s1.582-0.629,2.566-0.629c1.049,0,1.965,0.191,2.748,0.574l-0.492,0.998c-0.756-0.355-1.514-0.533-2.27-0.533
				c-1.098,0-1.965,0.365-2.602,1.097c-0.635,0.73-0.953,1.731-0.953,3.002c0,1.307,0.307,2.316,0.92,3.028
				c0.612,0.713,1.486,1.069,2.621,1.069c0.697,0,1.492-0.125,2.386-0.376v1.022c-0.692,0.262-1.548,0.393-2.563,0.393
				c-1.473,0-2.605-0.447-3.4-1.341C438.478,231.242,438.08,229.972,438.08,228.326z"/>
			<path fill="#666666" d="M446.7,231.276c0-1.51,1.212-2.301,3.635-2.373l1.273-0.042v-0.47c0-0.596-0.126-1.035-0.379-1.318
				c-0.253-0.284-0.655-0.426-1.211-0.426c-0.623,0-1.328,0.193-2.115,0.581l-0.353-0.871c0.369-0.197,0.773-0.353,1.213-0.465
				c0.439-0.111,0.881-0.168,1.323-0.168c0.892,0,1.554,0.198,1.983,0.595s0.646,1.032,0.646,1.907v5.113h-0.841l-0.226-1.054
				h-0.055c-0.373,0.464-0.745,0.779-1.116,0.943c-0.37,0.165-0.833,0.247-1.389,0.247c-0.746,0-1.33-0.19-1.754-0.572
				S446.7,231.98,446.7,231.276z M447.904,231.29c0,0.412,0.124,0.726,0.372,0.94c0.248,0.216,0.594,0.323,1.041,0.323
				c0.704,0,1.258-0.194,1.66-0.584c0.403-0.389,0.604-0.934,0.604-1.635v-0.68l-1.133,0.048c-0.9,0.032-1.55,0.173-1.948,0.423
				C448.103,230.375,447.904,230.764,447.904,231.29z"/>
			<path fill="#666666" d="M455.047,233.34v-7.492h0.923l0.185,1.012h0.055c0.232-0.364,0.559-0.647,0.978-0.848
				s0.886-0.301,1.401-0.301c0.902,0,1.582,0.218,2.037,0.652c0.455,0.436,0.684,1.132,0.684,2.089v4.888h-1.135v-4.856
				c0-0.612-0.139-1.068-0.417-1.37s-0.714-0.452-1.306-0.452c-0.783,0-1.357,0.212-1.723,0.637s-0.547,1.126-0.547,2.104v3.938
				H455.047z"/>
			<path fill="#666666" d="M463.223,229.642c0-1.253,0.3-2.222,0.898-2.905c0.6-0.684,1.457-1.025,2.574-1.025
				c0.359,0,0.721,0.039,1.08,0.116s0.643,0.169,0.848,0.273l-0.349,0.964c-0.251-0.101-0.524-0.184-0.82-0.25
				c-0.296-0.065-0.558-0.099-0.786-0.099c-1.521,0-2.283,0.971-2.283,2.912c0,0.921,0.186,1.627,0.557,2.119
				c0.372,0.492,0.922,0.738,1.651,0.738c0.624,0,1.265-0.135,1.921-0.403v1.005c-0.502,0.26-1.133,0.39-1.894,0.39
				c-1.085,0-1.922-0.334-2.513-1.002C463.518,231.808,463.223,230.863,463.223,229.642z"/>
			<path fill="#666666" d="M469.888,229.655c0-1.208,0.296-2.167,0.89-2.878c0.593-0.711,1.389-1.066,2.389-1.066
				c0.936,0,1.676,0.309,2.221,0.926c0.545,0.618,0.817,1.433,0.817,2.444v0.718h-5.154c0.022,0.88,0.245,1.547,0.667,2.003
				c0.423,0.456,1.018,0.684,1.785,0.684c0.804,0,1.599-0.169,2.385-0.506v1.012c-0.4,0.173-0.778,0.298-1.135,0.372
				c-0.357,0.076-0.787,0.113-1.291,0.113c-1.105,0-1.977-0.337-2.615-1.012S469.888,230.854,469.888,229.655z M471.077,228.876
				h3.924c0-0.716-0.159-1.264-0.479-1.644c-0.319-0.381-0.775-0.571-1.369-0.571c-0.604,0-1.084,0.196-1.441,0.588
				C471.352,227.641,471.141,228.184,471.077,228.876z"/>
			<path fill="#666666" d="M478.159,233.34v-7.492h0.923l0.139,1.394h0.059c0.279-0.489,0.613-0.866,1.006-1.132
				s0.822-0.398,1.292-0.398c0.333,0,0.632,0.027,0.896,0.083l-0.157,1.059c-0.31-0.068-0.583-0.103-0.82-0.103
				c-0.606,0-1.124,0.246-1.556,0.737c-0.43,0.492-0.646,1.104-0.646,1.837v4.016H478.159z"/>
		</g>
	</g>
	<g>
		<rect x="218.134" y="220.45" fill="#DC2F82" width="14.217" height="14.217"/>
		<g>
			<path fill="#666666" d="M237.557,228.326c0-1.029,0.19-1.932,0.571-2.706c0.381-0.773,0.935-1.37,1.661-1.789
				s1.582-0.629,2.566-0.629c1.048,0,1.964,0.191,2.748,0.574l-0.492,0.998c-0.756-0.355-1.513-0.533-2.27-0.533
				c-1.098,0-1.965,0.365-2.601,1.097c-0.636,0.73-0.954,1.731-0.954,3.002c0,1.307,0.307,2.316,0.919,3.028
				c0.613,0.713,1.487,1.069,2.622,1.069c0.697,0,1.493-0.125,2.386-0.376v1.022c-0.693,0.262-1.547,0.393-2.563,0.393
				c-1.472,0-2.605-0.447-3.401-1.341S237.557,229.972,237.557,228.326z"/>
			<path fill="#666666" d="M246.642,223.817c0-0.26,0.059-0.45,0.176-0.571c0.118-0.12,0.265-0.181,0.441-0.181
				c0.197,0,0.366,0.062,0.508,0.185s0.214,0.313,0.214,0.567s-0.071,0.445-0.214,0.571c-0.143,0.125-0.312,0.188-0.508,0.188
				c-0.176,0-0.324-0.063-0.441-0.188C246.7,224.263,246.642,224.072,246.642,223.817z M246.738,233.34v-7.492h1.039v7.492H246.738z
				"/>
			<path fill="#666666" d="M250.279,233.34v-7.492h0.923l0.139,1.394h0.059c0.279-0.489,0.614-0.866,1.006-1.132
				s0.823-0.398,1.292-0.398c0.333,0,0.631,0.027,0.896,0.083l-0.157,1.059c-0.31-0.068-0.583-0.103-0.82-0.103
				c-0.606,0-1.125,0.246-1.555,0.737c-0.431,0.492-0.646,1.104-0.646,1.837v4.016H250.279z"/>
			<path fill="#666666" d="M255.296,229.642c0-1.253,0.3-2.222,0.899-2.905s1.457-1.025,2.574-1.025c0.36,0,0.72,0.039,1.08,0.116
				s0.643,0.169,0.848,0.273l-0.349,0.964c-0.25-0.101-0.524-0.184-0.82-0.25c-0.296-0.065-0.558-0.099-0.786-0.099
				c-1.522,0-2.283,0.971-2.283,2.912c0,0.921,0.186,1.627,0.557,2.119s0.922,0.738,1.651,0.738c0.625,0,1.265-0.135,1.921-0.403
				v1.005c-0.501,0.26-1.132,0.39-1.894,0.39c-1.084,0-1.922-0.334-2.512-1.002C255.591,231.808,255.296,230.863,255.296,229.642z"
				/>
			<path fill="#666666" d="M262.296,230.749v-4.901h1.162v4.86c0,0.61,0.139,1.066,0.416,1.367c0.278,0.301,0.712,0.451,1.304,0.451
				c0.782,0,1.354-0.214,1.716-0.643c0.361-0.429,0.542-1.128,0.542-2.099v-3.938h1.135v7.492h-0.923l-0.175-1.005h-0.064
				c-0.232,0.369-0.554,0.651-0.966,0.848c-0.412,0.196-0.881,0.294-1.409,0.294c-0.916,0-1.601-0.217-2.056-0.649
				C262.524,232.395,262.296,231.701,262.296,230.749z"/>
			<path fill="#666666" d="M270.971,233.34v-10.637h1.135v10.637H270.971z"/>
			<path fill="#666666" d="M273.951,231.276c0-1.51,1.211-2.301,3.635-2.373l1.273-0.042v-0.47c0-0.596-0.126-1.035-0.379-1.318
				c-0.252-0.284-0.656-0.426-1.211-0.426c-0.623,0-1.328,0.193-2.115,0.581l-0.353-0.871c0.369-0.197,0.773-0.353,1.213-0.465
				c0.439-0.111,0.88-0.168,1.323-0.168c0.892,0,1.553,0.198,1.983,0.595s0.646,1.032,0.646,1.907v5.113h-0.841l-0.226-1.054h-0.055
				c-0.373,0.464-0.745,0.779-1.116,0.943c-0.371,0.165-0.833,0.247-1.389,0.247c-0.746,0-1.331-0.19-1.755-0.572
				C274.163,232.522,273.951,231.98,273.951,231.276z M275.155,231.29c0,0.412,0.124,0.726,0.372,0.94
				c0.248,0.216,0.595,0.323,1.041,0.323c0.705,0,1.259-0.194,1.661-0.584c0.403-0.389,0.604-0.934,0.604-1.635v-0.68l-1.133,0.048
				c-0.9,0.032-1.55,0.173-1.948,0.423C275.354,230.375,275.155,230.764,275.155,231.29z"/>
			<path fill="#666666" d="M281.307,226.729v-0.547l1.073-0.472l0.479-1.6h0.656v1.736h2.174v0.882h-2.174v4.42
				c0,0.452,0.107,0.799,0.321,1.041s0.508,0.363,0.882,0.363c0.201,0,0.394-0.015,0.581-0.045c0.187-0.029,0.335-0.061,0.444-0.092
				v0.857c-0.123,0.059-0.304,0.106-0.543,0.145s-0.455,0.058-0.646,0.058c-1.449,0-2.174-0.764-2.174-2.29v-4.457H281.307z"/>
			<path fill="#666666" d="M286.823,229.58c0-1.219,0.304-2.169,0.913-2.849c0.609-0.681,1.454-1.021,2.536-1.021
				c1.045,0,1.875,0.348,2.491,1.044s0.923,1.638,0.923,2.825c0,1.224-0.307,2.179-0.92,2.866c-0.613,0.687-1.46,1.03-2.542,1.03
				c-0.668,0-1.261-0.157-1.779-0.473c-0.518-0.314-0.918-0.767-1.2-1.355S286.823,230.37,286.823,229.58z M287.986,229.58
				c0,0.959,0.191,1.69,0.575,2.192c0.383,0.503,0.947,0.754,1.691,0.754s1.309-0.25,1.694-0.75s0.579-1.232,0.579-2.196
				c0-0.955-0.193-1.68-0.579-2.176c-0.386-0.495-0.955-0.743-1.708-0.743c-0.744,0-1.306,0.244-1.684,0.733
				C288.175,227.883,287.986,228.611,287.986,229.58z"/>
			<path fill="#666666" d="M295.697,233.34v-7.492h0.923l0.139,1.394h0.059c0.279-0.489,0.614-0.866,1.006-1.132
				s0.823-0.398,1.292-0.398c0.333,0,0.631,0.027,0.896,0.083l-0.157,1.059c-0.31-0.068-0.583-0.103-0.82-0.103
				c-0.606,0-1.125,0.246-1.555,0.737c-0.431,0.492-0.646,1.104-0.646,1.837v4.016H295.697z"/>
			<path fill="#666666" d="M300.222,225.848h1.217l1.641,4.27c0.36,0.975,0.583,1.679,0.67,2.111h0.055
				c0.059-0.232,0.184-0.63,0.373-1.192s0.808-2.292,1.856-5.188h1.217l-3.22,8.531c-0.319,0.843-0.691,1.441-1.118,1.795
				c-0.426,0.353-0.949,0.529-1.569,0.529c-0.346,0-0.688-0.039-1.025-0.117v-0.915c0.25,0.055,0.531,0.082,0.841,0.082
				c0.779,0,1.335-0.438,1.668-1.312l0.417-1.065L300.222,225.848z"/>
		</g>
	</g>
	<g>
		<rect x="512.428" y="220.45" fill="#CAE4E4" width="14.216" height="14.217"/>
		<g>
			<path fill="#666666" d="M532.577,228.322c0-1.629,0.401-2.892,1.203-3.789c0.802-0.896,1.941-1.345,3.418-1.345
				c1.436,0,2.557,0.456,3.363,1.369c0.807,0.912,1.21,2.172,1.21,3.778c0,1.598-0.404,2.854-1.213,3.769
				c-0.81,0.915-1.934,1.372-3.374,1.372c-1.472,0-2.608-0.449-3.407-1.349C532.977,231.229,532.577,229.961,532.577,228.322z
				 M533.808,228.336c0,1.355,0.288,2.384,0.864,3.085c0.577,0.7,1.414,1.051,2.513,1.051c1.107,0,1.944-0.35,2.509-1.048
				s0.848-1.728,0.848-3.088c0-1.347-0.281-2.368-0.844-3.064c-0.563-0.696-1.396-1.044-2.499-1.044
				c-1.107,0-1.949,0.351-2.526,1.051C534.096,225.979,533.808,226.998,533.808,228.336z"/>
			<path fill="#666666" d="M542.838,226.729v-0.547l1.073-0.472l0.479-1.6h0.656v1.736h2.174v0.882h-2.174v4.42
				c0,0.452,0.106,0.799,0.321,1.041s0.508,0.363,0.882,0.363c0.2,0,0.394-0.015,0.581-0.045c0.188-0.029,0.335-0.061,0.444-0.092
				v0.857c-0.123,0.059-0.304,0.106-0.544,0.145c-0.238,0.038-0.454,0.058-0.646,0.058c-1.449,0-2.174-0.764-2.174-2.29v-4.457
				H542.838z"/>
			<path fill="#666666" d="M548.772,233.34v-10.637h1.135v3.22c0,0.388-0.018,0.709-0.055,0.964h0.068
				c0.223-0.36,0.541-0.644,0.953-0.852c0.413-0.207,0.883-0.311,1.412-0.311c0.916,0,1.604,0.218,2.061,0.652
				c0.459,0.436,0.688,1.127,0.688,2.075v4.888h-1.135v-4.847c0-0.61-0.139-1.066-0.417-1.367s-0.714-0.451-1.306-0.451
				c-0.789,0-1.363,0.214-1.727,0.643c-0.361,0.429-0.543,1.13-0.543,2.105v3.917H548.772z"/>
			<path fill="#666666" d="M556.948,229.655c0-1.208,0.297-2.167,0.889-2.878c0.594-0.711,1.39-1.066,2.389-1.066
				c0.936,0,1.677,0.309,2.222,0.926c0.545,0.618,0.817,1.433,0.817,2.444v0.718h-5.154c0.023,0.88,0.245,1.547,0.668,2.003
				c0.422,0.456,1.017,0.684,1.783,0.684c0.805,0,1.6-0.169,2.385-0.506v1.012c-0.399,0.173-0.777,0.298-1.135,0.372
				c-0.355,0.076-0.787,0.113-1.291,0.113c-1.104,0-1.977-0.337-2.614-1.012C557.267,231.79,556.948,230.854,556.948,229.655z
				 M558.137,228.876h3.924c0-0.716-0.16-1.264-0.479-1.644c-0.319-0.381-0.776-0.571-1.37-0.571c-0.602,0-1.082,0.196-1.441,0.588
				C558.412,227.641,558.201,228.184,558.137,228.876z"/>
			<path fill="#666666" d="M565.219,233.34v-7.492h0.923l0.139,1.394h0.059c0.278-0.489,0.614-0.866,1.006-1.132
				s0.823-0.398,1.292-0.398c0.332,0,0.631,0.027,0.896,0.083l-0.157,1.059c-0.311-0.068-0.584-0.103-0.82-0.103
				c-0.605,0-1.125,0.246-1.555,0.737c-0.432,0.492-0.646,1.104-0.646,1.837v4.016H565.219z"/>
			<path fill="#666666" d="M570.455,227.688c0-0.611,0.248-1.094,0.744-1.447s1.177-0.53,2.042-0.53
				c0.802,0,1.585,0.164,2.351,0.492l-0.396,0.924c-0.749-0.311-1.428-0.466-2.037-0.466c-0.539,0-0.945,0.085-1.219,0.254
				c-0.274,0.169-0.411,0.401-0.411,0.698c0,0.201,0.052,0.372,0.154,0.514c0.103,0.143,0.269,0.276,0.497,0.404
				c0.229,0.129,0.666,0.313,1.314,0.556c0.889,0.324,1.486,0.65,1.793,0.979c0.306,0.329,0.459,0.742,0.459,1.24
				c0,0.694-0.258,1.229-0.775,1.605c-0.516,0.376-1.241,0.564-2.175,0.564c-0.992,0-1.765-0.155-2.32-0.465v-1.047
				c0.359,0.183,0.745,0.326,1.157,0.432c0.411,0.104,0.809,0.157,1.19,0.157c0.594,0,1.05-0.095,1.37-0.284
				s0.479-0.479,0.479-0.867c0-0.292-0.127-0.542-0.38-0.75c-0.254-0.208-0.748-0.453-1.483-0.736
				c-0.698-0.261-1.194-0.488-1.487-0.682c-0.293-0.194-0.51-0.415-0.652-0.662C570.527,228.326,570.455,228.031,570.455,227.688z"
				/>
		</g>
	</g>
	<g>
		<rect x="331.693" y="220.45" fill="#F3C564" width="14.216" height="14.217"/>
		<g>
			<path fill="#666666" d="M352.362,233.34v-9.994h1.75l3.165,8.244h0.055l3.192-8.244h1.736v9.994h-1.162V226.9
				c0-0.738,0.032-1.54,0.096-2.406h-0.055l-3.418,8.846h-0.937l-3.391-8.859h-0.055c0.064,0.702,0.096,1.536,0.096,2.502v6.357
				H352.362z"/>
			<path fill="#666666" d="M364.341,233.024v-1.114c0.41,0.174,0.856,0.311,1.34,0.411s0.962,0.15,1.436,0.15
				c0.776,0,1.36-0.147,1.753-0.441c0.393-0.295,0.59-0.704,0.59-1.229c0-0.347-0.07-0.631-0.209-0.853
				c-0.14-0.221-0.373-0.426-0.699-0.612c-0.326-0.188-0.822-0.399-1.489-0.637c-0.931-0.334-1.595-0.729-1.988-1.185
				c-0.394-0.457-0.591-1.053-0.591-1.787c0-0.771,0.288-1.385,0.865-1.841c0.576-0.456,1.34-0.685,2.289-0.685
				c0.99,0,1.902,0.183,2.734,0.547l-0.358,1.013c-0.824-0.347-1.625-0.521-2.403-0.521c-0.616,0-1.098,0.133-1.445,0.397
				c-0.347,0.265-0.52,0.632-0.52,1.103c0,0.347,0.063,0.631,0.191,0.853c0.127,0.221,0.344,0.424,0.646,0.609
				c0.305,0.185,0.769,0.389,1.395,0.612c1.05,0.374,1.77,0.776,2.159,1.205c0.39,0.43,0.585,0.986,0.585,1.671
				c0,0.876-0.318,1.56-0.955,2.05s-1.5,0.735-2.591,0.735C365.891,233.477,364.979,233.326,364.341,233.024z"/>
			<path fill="#666666" d="M372.686,233.34v-9.994h3.063c1.554,0,2.762,0.431,3.623,1.292s1.291,2.064,1.291,3.609
				c0,1.649-0.447,2.911-1.343,3.784c-0.896,0.872-2.185,1.309-3.866,1.309H372.686z M373.848,232.335h1.414
				c1.386,0,2.428-0.341,3.125-1.022c0.697-0.681,1.045-1.689,1.045-3.024c0-1.304-0.326-2.285-0.98-2.946s-1.626-0.991-2.916-0.991
				h-1.688V232.335z"/>
		</g>
	</g>
	<g>
		<rect x="134.722" y="220.45" fill="#58585A" width="14.217" height="14.217"/>
		<g>
			<path fill="#666666" d="M155.816,233.34v-9.994h1.162v9.994H155.816z"/>
			<path fill="#666666" d="M159.548,233.34v-7.492h0.923l0.185,1.012h0.055c0.232-0.364,0.558-0.647,0.978-0.848
				s0.886-0.301,1.401-0.301c0.902,0,1.582,0.218,2.037,0.652c0.456,0.436,0.684,1.132,0.684,2.089v4.888h-1.135v-4.856
				c0-0.612-0.139-1.068-0.417-1.37s-0.713-0.452-1.306-0.452c-0.784,0-1.358,0.212-1.723,0.637s-0.547,1.126-0.547,2.104v3.938
				H159.548z"/>
			<path fill="#666666" d="M166.179,235.616c0.314,0.091,0.625,0.137,0.93,0.137c0.355,0,0.616-0.097,0.783-0.291
				c0.167-0.193,0.25-0.489,0.25-0.886v-8.729h1.135v8.641c0,1.477-0.681,2.215-2.044,2.215c-0.433,0-0.784-0.057-1.053-0.17
				V235.616z M168.045,223.817c0-0.26,0.064-0.45,0.191-0.571c0.127-0.12,0.287-0.181,0.479-0.181c0.208,0,0.388,0.062,0.539,0.185
				s0.227,0.313,0.227,0.567s-0.076,0.445-0.227,0.571c-0.151,0.125-0.331,0.188-0.539,0.188c-0.191,0-0.351-0.063-0.479-0.188
				C168.109,224.263,168.045,224.072,168.045,223.817z"/>
			<path fill="#666666" d="M171.6,230.749v-4.901h1.162v4.86c0,0.61,0.139,1.066,0.416,1.367c0.278,0.301,0.712,0.451,1.304,0.451
				c0.782,0,1.354-0.214,1.716-0.643c0.361-0.429,0.542-1.128,0.542-2.099v-3.938h1.135v7.492h-0.923l-0.175-1.005h-0.064
				c-0.232,0.369-0.554,0.651-0.966,0.848c-0.412,0.196-0.881,0.294-1.409,0.294c-0.916,0-1.601-0.217-2.056-0.649
				C171.827,232.395,171.6,231.701,171.6,230.749z"/>
			<path fill="#666666" d="M180.275,233.34v-7.492h0.923l0.139,1.394h0.059c0.279-0.489,0.614-0.866,1.006-1.132
				s0.823-0.398,1.292-0.398c0.333,0,0.631,0.027,0.896,0.083l-0.157,1.059c-0.31-0.068-0.583-0.103-0.82-0.103
				c-0.606,0-1.125,0.246-1.555,0.737c-0.431,0.492-0.646,1.104-0.646,1.837v4.016H180.275z"/>
			<path fill="#666666" d="M185.894,223.817c0-0.26,0.059-0.45,0.176-0.571c0.118-0.12,0.265-0.181,0.441-0.181
				c0.197,0,0.366,0.062,0.508,0.185s0.214,0.313,0.214,0.567s-0.071,0.445-0.214,0.571c-0.143,0.125-0.312,0.188-0.508,0.188
				c-0.176,0-0.324-0.063-0.441-0.188C185.952,224.263,185.894,224.072,185.894,223.817z M185.99,233.34v-7.492h1.039v7.492H185.99z
				"/>
			<path fill="#666666" d="M189.114,229.655c0-1.208,0.296-2.167,0.889-2.878c0.593-0.711,1.389-1.066,2.389-1.066
				c0.936,0,1.676,0.309,2.221,0.926c0.545,0.618,0.817,1.433,0.817,2.444v0.718h-5.154c0.023,0.88,0.245,1.547,0.667,2.003
				s1.017,0.684,1.784,0.684c0.804,0,1.599-0.169,2.385-0.506v1.012c-0.4,0.173-0.778,0.298-1.135,0.372
				c-0.356,0.076-0.787,0.113-1.291,0.113c-1.105,0-1.977-0.337-2.615-1.012C189.433,231.79,189.114,230.854,189.114,229.655z
				 M190.303,228.876h3.924c0-0.716-0.16-1.264-0.479-1.644c-0.319-0.381-0.776-0.571-1.37-0.571c-0.603,0-1.083,0.196-1.441,0.588
				S190.367,228.184,190.303,228.876z"/>
			<path fill="#666666" d="M196.906,227.688c0-0.611,0.248-1.094,0.744-1.447c0.497-0.354,1.177-0.53,2.042-0.53
				c0.802,0,1.585,0.164,2.351,0.492l-0.396,0.924c-0.75-0.311-1.428-0.466-2.037-0.466c-0.539,0-0.945,0.085-1.219,0.254
				c-0.274,0.169-0.411,0.401-0.411,0.698c0,0.201,0.051,0.372,0.154,0.514c0.103,0.143,0.268,0.276,0.497,0.404
				c0.229,0.129,0.667,0.313,1.315,0.556c0.888,0.324,1.486,0.65,1.792,0.979s0.459,0.742,0.459,1.24
				c0,0.694-0.258,1.229-0.775,1.605s-1.242,0.564-2.175,0.564c-0.992,0-1.765-0.155-2.32-0.465v-1.047
				c0.359,0.183,0.745,0.326,1.157,0.432c0.412,0.104,0.809,0.157,1.191,0.157c0.594,0,1.05-0.095,1.37-0.284
				s0.479-0.479,0.479-0.867c0-0.292-0.127-0.542-0.38-0.75s-0.748-0.453-1.483-0.736c-0.699-0.261-1.195-0.488-1.487-0.682
				c-0.292-0.194-0.51-0.415-0.653-0.662C196.978,228.326,196.906,228.031,196.906,227.688z"/>
		</g>
	</g>
	<rect x="151.763" y="75.837" fill="#58585A" width="48.513" height="87.049"/>
	<rect x="200.276" y="75.837" fill="#DC2F82" width="51.088" height="87.049"/>
	<rect x="251.364" y="75.837" fill="#F3C564" width="62.075" height="87.049"/>
	<rect x="313.439" y="75.837" fill="#0FAAAA" width="104.954" height="87.049"/>
	<rect x="418.393" y="75.837" fill="#CAE4E4" width="134.831" height="87.049"/>
	<g>
		<g>
			<path fill="#525858" d="M480.154,115.741c0,0.714-0.216,1.32-0.648,1.82s-1.039,0.844-1.82,1.031v0.047
				c0.922,0.115,1.62,0.395,2.094,0.84s0.711,1.046,0.711,1.801c0,1.099-0.398,1.955-1.195,2.566
				c-0.797,0.612-1.935,0.918-3.414,0.918c-1.239,0-2.339-0.206-3.297-0.617v-2.055c0.442,0.224,0.93,0.406,1.461,0.547
				s1.058,0.211,1.578,0.211c0.797,0,1.386-0.135,1.766-0.406c0.38-0.271,0.57-0.706,0.57-1.305c0-0.536-0.219-0.917-0.656-1.141
				c-0.438-0.224-1.136-0.336-2.094-0.336h-0.867v-1.852h0.883c0.886,0,1.532-0.116,1.941-0.348
				c0.409-0.231,0.613-0.629,0.613-1.191c0-0.864-0.542-1.297-1.625-1.297c-0.375,0-0.757,0.063-1.145,0.188
				s-0.819,0.341-1.293,0.648l-1.117-1.664c1.042-0.75,2.284-1.125,3.727-1.125c1.183,0,2.116,0.24,2.801,0.719
				C479.811,114.221,480.154,114.887,480.154,115.741z"/>
			<path fill="#525858" d="M489.99,122.241h-1.375v2.367h-2.359v-2.367h-4.875v-1.68l5.008-7.375h2.227v7.18h1.375V122.241z
				 M486.255,120.366v-1.938c0-0.323,0.013-0.792,0.039-1.406c0.026-0.614,0.047-0.971,0.063-1.07h-0.063
				c-0.192,0.427-0.425,0.844-0.695,1.25l-2.094,3.164H486.255z"/>
			<path fill="#525858" d="M496.161,116.593c0,1.198-0.231,2.098-0.695,2.699s-1.144,0.902-2.039,0.902
				c-0.859,0-1.523-0.309-1.992-0.926s-0.703-1.509-0.703-2.676c0-2.38,0.898-3.57,2.695-3.57c0.88,0,1.556,0.309,2.027,0.926
				S496.161,115.447,496.161,116.593z M492.7,116.608c0,0.662,0.059,1.155,0.176,1.48c0.117,0.326,0.306,0.488,0.566,0.488
				c0.5,0,0.75-0.656,0.75-1.969c0-1.302-0.25-1.953-0.75-1.953c-0.261,0-0.449,0.16-0.566,0.48S492.7,115.947,492.7,116.608z
				 M501.536,113.187l-6.336,11.422h-1.875l6.336-11.422H501.536z M504.161,121.155c0,1.193-0.231,2.09-0.695,2.691
				s-1.144,0.902-2.039,0.902c-0.859,0-1.523-0.309-1.992-0.926s-0.703-1.506-0.703-2.668c0-2.38,0.898-3.57,2.695-3.57
				c0.88,0,1.556,0.309,2.027,0.926S504.161,120.01,504.161,121.155z M500.7,121.171c0,0.662,0.059,1.155,0.176,1.48
				c0.117,0.326,0.306,0.488,0.566,0.488c0.5,0,0.75-0.656,0.75-1.969c0-1.302-0.25-1.953-0.75-1.953
				c-0.261,0-0.449,0.16-0.566,0.48S500.7,120.51,500.7,121.171z"/>
		</g>
	</g>
</g>
</svg>
