<?xml version="1.0" encoding="utf-8"?>
<!-- Generator: Adobe Illustrator 16.0.0, SVG Export Plug-In . SVG Version: 6.00 Build 0)  -->
<!DOCTYPE svg PUBLIC "-//W3C//DTD SVG 1.1//EN" "http://www.w3.org/Graphics/SVG/1.1/DTD/svg11.dtd">
<svg version="1.1" id="Capa_1" xmlns="http://www.w3.org/2000/svg" xmlns:xlink="http://www.w3.org/1999/xlink" x="0px" y="0px"
	 width="477px" height="220px" viewBox="0 0 477 220" enable-background="new 0 0 477 220" xml:space="preserve">
<g id="Capa_1_1_">
</g>
<g id="Capa_2">
	<g>
		<g>
			<rect x="247.851" y="184.211" fill="#58585A" width="14.217" height="14.217"/>
			<g>
				<path fill="#666666" d="M268.944,197.101v-9.994h1.162v9.994H268.944z"/>
				<path fill="#666666" d="M272.675,197.101v-7.492h0.925l0.184,1.012h0.055c0.232-0.363,0.56-0.646,0.979-0.848
					c0.419-0.199,0.886-0.301,1.399-0.301c0.902,0,1.582,0.218,2.037,0.652c0.456,0.436,0.685,1.132,0.685,2.089v4.888h-1.136
					v-4.855c0-0.612-0.139-1.068-0.416-1.37s-0.714-0.452-1.307-0.452c-0.783,0-1.357,0.212-1.723,0.637
					c-0.364,0.426-0.547,1.126-0.547,2.104v3.938L272.675,197.101L272.675,197.101z"/>
				<path fill="#666666" d="M279.306,199.377c0.314,0.091,0.625,0.137,0.931,0.137c0.354,0,0.617-0.097,0.783-0.291
					c0.166-0.192,0.25-0.489,0.25-0.886v-8.729h1.135v8.641c0,1.477-0.683,2.215-2.045,2.215c-0.434,0-0.783-0.057-1.054-0.17
					V199.377L279.306,199.377z M281.173,187.577c0-0.26,0.063-0.449,0.191-0.57c0.127-0.12,0.287-0.182,0.479-0.182
					c0.208,0,0.389,0.063,0.539,0.186s0.228,0.313,0.228,0.566s-0.076,0.445-0.228,0.572c-0.15,0.125-0.331,0.188-0.539,0.188
					c-0.19,0-0.352-0.063-0.479-0.188S281.173,187.833,281.173,187.577z"/>
				<path fill="#666666" d="M284.729,194.51v-4.901h1.162v4.86c0,0.61,0.139,1.065,0.416,1.367c0.276,0.301,0.712,0.45,1.303,0.45
					c0.783,0,1.354-0.213,1.717-0.643c0.362-0.429,0.543-1.128,0.543-2.099v-3.938h1.135v7.492h-0.924l-0.175-1.005h-0.063
					c-0.231,0.369-0.555,0.651-0.967,0.849c-0.411,0.195-0.881,0.293-1.408,0.293c-0.916,0-1.601-0.217-2.057-0.648
					C284.955,196.155,284.729,195.462,284.729,194.51z"/>
				<path fill="#666666" d="M293.403,197.101v-7.492h0.924l0.139,1.395h0.06c0.277-0.489,0.612-0.866,1.006-1.133
					c0.392-0.266,0.822-0.397,1.291-0.397c0.333,0,0.632,0.027,0.896,0.083l-0.157,1.059c-0.311-0.067-0.583-0.103-0.82-0.103
					c-0.605,0-1.124,0.246-1.555,0.737c-0.432,0.492-0.646,1.104-0.646,1.837v4.016L293.403,197.101L293.403,197.101z"/>
				<path fill="#666666" d="M299.022,187.577c0-0.26,0.059-0.449,0.177-0.57c0.118-0.12,0.265-0.182,0.44-0.182
					c0.196,0,0.366,0.063,0.51,0.186c0.143,0.123,0.213,0.313,0.213,0.566s-0.07,0.445-0.213,0.572
					c-0.144,0.125-0.313,0.188-0.51,0.188c-0.177,0-0.322-0.063-0.44-0.188S299.022,187.833,299.022,187.577z M299.117,197.101
					v-7.492h1.039v7.492H299.117z"/>
				<path fill="#666666" d="M302.242,193.416c0-1.208,0.296-2.167,0.889-2.878c0.594-0.711,1.39-1.066,2.39-1.066
					c0.936,0,1.676,0.309,2.221,0.926c0.545,0.618,0.817,1.434,0.817,2.444v0.718h-5.153c0.021,0.881,0.244,1.547,0.667,2.003
					s1.017,0.685,1.784,0.685c0.805,0,1.6-0.17,2.385-0.506v1.012c-0.4,0.173-0.777,0.298-1.135,0.372
					c-0.356,0.075-0.787,0.112-1.291,0.112c-1.105,0-1.978-0.336-2.615-1.012C302.563,195.551,302.242,194.614,302.242,193.416z
					 M303.432,192.637h3.924c0-0.716-0.16-1.265-0.48-1.644c-0.317-0.381-0.774-0.571-1.369-0.571c-0.603,0-1.083,0.196-1.44,0.588
					C303.707,191.401,303.495,191.944,303.432,192.637z"/>
				<path fill="#666666" d="M310.035,191.448c0-0.61,0.248-1.094,0.744-1.446s1.176-0.53,2.041-0.53
					c0.803,0,1.586,0.164,2.352,0.492l-0.396,0.924c-0.75-0.311-1.428-0.466-2.037-0.466c-0.539,0-0.945,0.085-1.219,0.254
					c-0.275,0.169-0.412,0.401-0.412,0.698c0,0.201,0.052,0.371,0.153,0.514c0.104,0.143,0.27,0.275,0.497,0.404
					c0.229,0.129,0.667,0.313,1.315,0.556c0.889,0.324,1.486,0.649,1.792,0.979c0.306,0.328,0.46,0.742,0.46,1.24
					c0,0.693-0.259,1.229-0.775,1.604c-0.516,0.376-1.241,0.563-2.176,0.563c-0.992,0-1.765-0.154-2.32-0.465v-1.047
					c0.359,0.184,0.746,0.326,1.157,0.432c0.411,0.104,0.81,0.157,1.19,0.157c0.594,0,1.051-0.095,1.371-0.284
					c0.318-0.188,0.479-0.479,0.479-0.867c0-0.291-0.127-0.541-0.38-0.75c-0.253-0.207-0.747-0.452-1.483-0.735
					c-0.697-0.261-1.193-0.488-1.485-0.683c-0.293-0.193-0.51-0.414-0.653-0.661C310.106,192.087,310.035,191.792,310.035,191.448z"
					/>
			</g>
		</g>
		<g>
			<rect x="355.675" y="184.211" fill="#CAE4E4" width="14.216" height="14.217"/>
			<g>
				<path fill="#666666" d="M375.824,192.083c0-1.629,0.399-2.893,1.202-3.789c0.804-0.896,1.941-1.346,3.418-1.346
					c1.437,0,2.558,0.457,3.363,1.369c0.808,0.912,1.21,2.172,1.21,3.778c0,1.599-0.403,2.854-1.214,3.769
					c-0.809,0.916-1.934,1.373-3.373,1.373c-1.473,0-2.606-0.449-3.408-1.35C376.225,194.989,375.824,193.722,375.824,192.083z
					 M377.055,192.097c0,1.355,0.288,2.384,0.865,3.085c0.576,0.7,1.414,1.052,2.512,1.052c1.107,0,1.943-0.351,2.509-1.049
					c0.566-0.697,0.849-1.729,0.849-3.088c0-1.347-0.281-2.368-0.846-3.064c-0.563-0.695-1.395-1.043-2.498-1.043
					c-1.106,0-1.948,0.351-2.524,1.051C377.343,189.739,377.055,190.759,377.055,192.097z"/>
				<path fill="#666666" d="M386.085,190.489v-0.547l1.073-0.472l0.479-1.601h0.656v1.736h2.174v0.883h-2.174v4.42
					c0,0.451,0.106,0.799,0.321,1.041c0.214,0.242,0.509,0.362,0.882,0.362c0.201,0,0.395-0.015,0.581-0.045
					c0.187-0.028,0.335-0.062,0.443-0.092v0.856c-0.123,0.06-0.305,0.106-0.543,0.146c-0.239,0.038-0.455,0.058-0.646,0.058
					c-1.449,0-2.174-0.764-2.174-2.289v-4.457H386.085L386.085,190.489z"/>
				<path fill="#666666" d="M392.019,197.101v-10.637h1.135v3.22c0,0.388-0.019,0.709-0.055,0.964h0.068
					c0.224-0.359,0.541-0.644,0.954-0.852c0.412-0.207,0.883-0.311,1.411-0.311c0.916,0,1.603,0.217,2.062,0.651
					c0.457,0.437,0.688,1.127,0.688,2.075v4.888h-1.136v-4.847c0-0.61-0.14-1.066-0.417-1.367c-0.276-0.301-0.713-0.451-1.306-0.451
					c-0.788,0-1.364,0.215-1.726,0.643c-0.363,0.43-0.545,1.131-0.545,2.105v3.917L392.019,197.101L392.019,197.101z"/>
				<path fill="#666666" d="M400.194,193.416c0-1.208,0.297-2.167,0.891-2.878c0.593-0.711,1.389-1.066,2.389-1.066
					c0.937,0,1.676,0.309,2.221,0.926c0.546,0.618,0.817,1.434,0.817,2.444v0.718h-5.154c0.022,0.881,0.245,1.547,0.667,2.003
					c0.424,0.456,1.019,0.685,1.785,0.685c0.805,0,1.6-0.17,2.385-0.506v1.012c-0.399,0.173-0.777,0.298-1.135,0.372
					c-0.356,0.075-0.787,0.112-1.291,0.112c-1.104,0-1.977-0.336-2.615-1.012C400.515,195.551,400.194,194.614,400.194,193.416z
					 M401.384,192.637h3.924c0-0.716-0.159-1.265-0.479-1.644c-0.319-0.381-0.775-0.571-1.369-0.571
					c-0.604,0-1.084,0.196-1.441,0.588C401.658,191.401,401.448,191.944,401.384,192.637z"/>
				<path fill="#666666" d="M408.466,197.101v-7.492h0.923l0.139,1.395h0.06c0.279-0.489,0.613-0.866,1.006-1.133
					c0.393-0.266,0.822-0.397,1.292-0.397c0.333,0,0.632,0.027,0.896,0.083l-0.157,1.059c-0.311-0.067-0.583-0.103-0.82-0.103
					c-0.605,0-1.124,0.246-1.556,0.737c-0.431,0.492-0.646,1.104-0.646,1.837v4.016L408.466,197.101L408.466,197.101z"/>
				<path fill="#666666" d="M413.702,191.448c0-0.61,0.248-1.094,0.743-1.446c0.497-0.354,1.178-0.53,2.042-0.53
					c0.803,0,1.585,0.164,2.352,0.492l-0.396,0.924c-0.75-0.311-1.429-0.466-2.036-0.466c-0.539,0-0.945,0.085-1.221,0.254
					c-0.274,0.169-0.411,0.401-0.411,0.698c0,0.201,0.052,0.371,0.154,0.514c0.104,0.143,0.269,0.275,0.496,0.404
					c0.229,0.129,0.667,0.313,1.316,0.556c0.888,0.324,1.484,0.649,1.791,0.979c0.307,0.328,0.46,0.742,0.46,1.24
					c0,0.693-0.26,1.229-0.774,1.604c-0.518,0.376-1.242,0.563-2.176,0.563c-0.992,0-1.767-0.154-2.32-0.465v-1.047
					c0.359,0.184,0.745,0.326,1.156,0.432c0.412,0.104,0.809,0.157,1.19,0.157c0.595,0,1.052-0.095,1.37-0.284
					c0.319-0.188,0.479-0.479,0.479-0.867c0-0.291-0.127-0.541-0.381-0.75c-0.253-0.207-0.747-0.452-1.482-0.735
					c-0.699-0.261-1.195-0.488-1.487-0.683c-0.292-0.193-0.51-0.414-0.652-0.661C413.773,192.087,413.702,191.792,413.702,191.448z"
					/>
			</g>
		</g>
		
			<line fill="none" stroke="#666666" stroke-width="0.5" stroke-miterlimit="10" x1="27.371" y1="139.536" x2="449.629" y2="139.536"/>
		<g>
			
				<line fill="none" stroke="#CCCCCC" stroke-width="0.5" stroke-miterlimit="10" x1="227.582" y1="145.202" x2="227.582" y2="19.535"/>
			
				<line fill="none" stroke="#CCCCCC" stroke-width="0.5" stroke-miterlimit="10" x1="428.832" y1="145.202" x2="428.832" y2="19.535"/>
		</g>
		<g>
			<path fill="#666666" d="M19.873,151.571c0-1.49,0.233-2.598,0.699-3.319s1.178-1.083,2.134-1.083c0.929,0,1.634,0.377,2.116,1.13
				c0.48,0.754,0.723,1.845,0.723,3.272c0,1.481-0.232,2.588-0.699,3.318s-1.18,1.098-2.14,1.098c-0.925,0-1.628-0.375-2.11-1.123
				C20.115,154.114,19.873,153.018,19.873,151.571z M20.869,151.571c0,1.244,0.146,2.148,0.438,2.715
				c0.293,0.567,0.759,0.852,1.397,0.852c0.647,0,1.116-0.287,1.407-0.861s0.436-1.477,0.436-2.703c0-1.228-0.146-2.127-0.436-2.697
				c-0.291-0.571-0.759-0.856-1.407-0.856c-0.64,0-1.104,0.281-1.397,0.845C21.016,149.425,20.869,150.327,20.869,151.571z"/>
			<path fill="#666666" d="M26.746,149.854c0-0.886,0.145-1.553,0.433-2.002c0.289-0.447,0.717-0.673,1.281-0.673
				c0.563,0,0.997,0.231,1.3,0.696c0.305,0.465,0.455,1.124,0.455,1.979c0,0.893-0.147,1.565-0.445,2.021
				c-0.298,0.455-0.733,0.684-1.31,0.684c-0.542,0-0.963-0.232-1.264-0.697C26.897,151.396,26.746,150.727,26.746,149.854z
				 M27.537,149.854c0,0.665,0.072,1.164,0.217,1.496c0.146,0.333,0.38,0.499,0.706,0.499c0.644,0,0.964-0.665,0.964-1.995
				c0-1.326-0.32-1.988-0.964-1.988c-0.325,0-0.561,0.164-0.706,0.494C27.611,148.69,27.537,149.188,27.537,149.854z
				 M28.261,155.868L33,147.303h0.864l-4.739,8.565H28.261z M31.892,153.288c0-0.885,0.145-1.553,0.434-2.002
				c0.29-0.448,0.718-0.674,1.286-0.674c0.552,0,0.981,0.229,1.292,0.688c0.309,0.458,0.463,1.121,0.463,1.987
				c0,0.888-0.148,1.559-0.446,2.015c-0.297,0.455-0.732,0.683-1.309,0.683c-0.552,0-0.978-0.231-1.274-0.697
				C32.039,154.823,31.892,154.157,31.892,153.288z M32.683,153.288c0,0.668,0.071,1.166,0.217,1.494
				c0.145,0.33,0.382,0.494,0.711,0.494s0.572-0.162,0.729-0.488c0.157-0.324,0.235-0.824,0.235-1.5
				c0-0.666-0.078-1.161-0.235-1.482c-0.155-0.322-0.398-0.482-0.729-0.482s-0.566,0.16-0.711,0.482
				C32.754,152.127,32.683,152.622,32.683,153.288z"/>
		</g>
		<g>
			<path fill="#666666" d="M218.618,155.517v-0.939c0.272,0.175,0.612,0.313,1.02,0.412c0.406,0.099,0.808,0.147,1.201,0.147
				c0.688,0,1.222-0.161,1.604-0.483c0.381-0.324,0.57-0.791,0.57-1.402c0-1.191-0.732-1.787-2.199-1.787
				c-0.371,0-0.867,0.057-1.489,0.169l-0.504-0.321l0.325-4.008h4.261v0.891h-3.43l-0.217,2.578
				c0.449-0.082,0.897-0.123,1.342-0.123c0.903,0,1.613,0.223,2.132,0.666c0.518,0.444,0.776,1.053,0.776,1.825
				c0,0.888-0.282,1.585-0.847,2.091c-0.565,0.504-1.343,0.756-2.335,0.756C219.863,155.987,219.125,155.829,218.618,155.517z"/>
			<path fill="#666666" d="M225.297,151.571c0-1.49,0.233-2.598,0.699-3.319s1.178-1.083,2.134-1.083
				c0.929,0,1.634,0.377,2.116,1.13c0.48,0.754,0.723,1.845,0.723,3.272c0,1.481-0.232,2.588-0.699,3.318s-1.18,1.098-2.14,1.098
				c-0.925,0-1.628-0.375-2.11-1.123C225.538,154.114,225.297,153.018,225.297,151.571z M226.293,151.571
				c0,1.244,0.146,2.148,0.438,2.715c0.293,0.567,0.76,0.852,1.398,0.852c0.647,0,1.116-0.287,1.407-0.861s0.436-1.477,0.436-2.703
				c0-1.228-0.146-2.127-0.436-2.697c-0.291-0.571-0.759-0.856-1.407-0.856c-0.64,0-1.105,0.281-1.398,0.845
				C226.439,149.425,226.293,150.327,226.293,151.571z"/>
			<path fill="#666666" d="M232.17,149.854c0-0.886,0.144-1.553,0.433-2.002c0.289-0.447,0.717-0.673,1.281-0.673
				c0.563,0,0.997,0.231,1.3,0.696c0.305,0.465,0.455,1.124,0.455,1.979c0,0.893-0.147,1.565-0.445,2.021
				c-0.298,0.455-0.733,0.684-1.31,0.684c-0.542,0-0.963-0.232-1.264-0.697C232.321,151.396,232.17,150.727,232.17,149.854z
				 M232.961,149.854c0,0.665,0.072,1.164,0.217,1.496c0.146,0.333,0.38,0.499,0.706,0.499c0.644,0,0.964-0.665,0.964-1.995
				c0-1.326-0.32-1.988-0.964-1.988c-0.325,0-0.561,0.164-0.706,0.494C233.034,148.69,232.961,149.188,232.961,149.854z
				 M233.684,155.868l4.738-8.565h0.865l-4.74,8.565H233.684z M237.315,153.288c0-0.885,0.146-1.553,0.435-2.002
				c0.289-0.448,0.719-0.674,1.285-0.674c0.553,0,0.981,0.229,1.292,0.688c0.31,0.458,0.464,1.121,0.464,1.987
				c0,0.888-0.148,1.559-0.447,2.015c-0.297,0.455-0.731,0.683-1.309,0.683c-0.551,0-0.978-0.231-1.273-0.697
				C237.464,154.823,237.315,154.157,237.315,153.288z M238.106,153.288c0,0.668,0.072,1.166,0.218,1.494
				c0.145,0.33,0.383,0.494,0.711,0.494c0.33,0,0.571-0.162,0.729-0.488c0.158-0.324,0.236-0.824,0.236-1.5
				c0-0.666-0.078-1.161-0.236-1.482c-0.156-0.322-0.397-0.482-0.729-0.482c-0.328,0-0.566,0.16-0.711,0.482
				C238.179,152.127,238.106,152.622,238.106,153.288z"/>
		</g>
		<g>
			<path fill="#666666" d="M417.503,149.055l2.27-1.752h0.842v8.565h-0.974v-6.104c0-0.508,0.018-0.987,0.048-1.44
				c-0.082,0.082-0.174,0.168-0.274,0.258c-0.102,0.09-0.566,0.471-1.396,1.143L417.503,149.055z"/>
			<path fill="#666666" d="M423.859,151.571c0-1.49,0.233-2.598,0.699-3.319s1.178-1.083,2.134-1.083c0.93,0,1.635,0.377,2.116,1.13
				c0.481,0.754,0.724,1.845,0.724,3.272c0,1.481-0.233,2.588-0.699,3.318c-0.467,0.73-1.18,1.098-2.14,1.098
				c-0.926,0-1.629-0.375-2.11-1.123C424.1,154.114,423.859,153.018,423.859,151.571z M424.855,151.571
				c0,1.244,0.146,2.148,0.438,2.715c0.293,0.567,0.759,0.852,1.397,0.852c0.647,0,1.116-0.287,1.406-0.861
				c0.291-0.574,0.438-1.477,0.438-2.703c0-1.228-0.146-2.127-0.438-2.697c-0.29-0.571-0.759-0.856-1.406-0.856
				c-0.64,0-1.104,0.281-1.397,0.845C425.001,149.425,424.855,150.327,424.855,151.571z"/>
			<path fill="#666666" d="M430.721,151.571c0-1.49,0.233-2.598,0.699-3.319s1.178-1.083,2.134-1.083
				c0.929,0,1.634,0.377,2.116,1.13c0.481,0.754,0.723,1.845,0.723,3.272c0,1.481-0.232,2.588-0.698,3.318
				c-0.468,0.73-1.181,1.098-2.141,1.098c-0.925,0-1.628-0.375-2.109-1.123C430.962,154.114,430.721,153.018,430.721,151.571z
				 M431.717,151.571c0,1.244,0.146,2.148,0.438,2.715c0.293,0.567,0.759,0.852,1.397,0.852c0.647,0,1.116-0.287,1.406-0.861
				c0.291-0.574,0.437-1.477,0.437-2.703c0-1.228-0.146-2.127-0.437-2.697c-0.29-0.571-0.759-0.856-1.406-0.856
				c-0.64,0-1.104,0.281-1.397,0.845C431.863,149.425,431.717,150.327,431.717,151.571z"/>
			<path fill="#666666" d="M437.594,149.854c0-0.886,0.145-1.553,0.434-2.002c0.288-0.447,0.716-0.673,1.28-0.673
				c0.563,0,0.997,0.231,1.301,0.696s0.454,1.124,0.454,1.979c0,0.893-0.147,1.565-0.445,2.021c-0.297,0.455-0.733,0.684-1.31,0.684
				c-0.543,0-0.963-0.232-1.264-0.697C437.743,151.396,437.594,150.727,437.594,149.854z M438.385,149.854
				c0,0.665,0.072,1.164,0.218,1.496c0.146,0.333,0.381,0.499,0.705,0.499c0.644,0,0.964-0.665,0.964-1.995
				c0-1.326-0.32-1.988-0.964-1.988c-0.324,0-0.561,0.164-0.705,0.494C438.457,148.69,438.385,149.188,438.385,149.854z
				 M439.109,155.868l4.737-8.565h0.864l-4.739,8.565H439.109z M442.739,153.288c0-0.885,0.145-1.553,0.435-2.002
				c0.289-0.448,0.718-0.674,1.285-0.674c0.552,0,0.981,0.229,1.291,0.688c0.31,0.458,0.464,1.121,0.464,1.987
				c0,0.888-0.148,1.559-0.446,2.015c-0.297,0.455-0.732,0.683-1.309,0.683c-0.552,0-0.978-0.231-1.273-0.697
				C442.887,154.823,442.739,154.157,442.739,153.288z M443.53,153.288c0,0.668,0.071,1.166,0.218,1.494
				c0.145,0.33,0.382,0.494,0.711,0.494s0.572-0.162,0.729-0.488c0.157-0.324,0.235-0.824,0.235-1.5
				c0-0.666-0.078-1.161-0.235-1.482c-0.155-0.322-0.398-0.482-0.729-0.482s-0.566,0.16-0.711,0.482
				C443.601,152.127,443.53,152.622,443.53,153.288z"/>
		</g>
		<rect x="29.671" y="184.211" fill="#0FAAAA" width="14.217" height="14.217"/>
		<g>
			<path fill="#666666" d="M49.399,192.087c0-1.029,0.189-1.932,0.57-2.706c0.382-0.772,0.936-1.37,1.661-1.789
				c0.727-0.419,1.582-0.629,2.566-0.629c1.048,0,1.964,0.19,2.748,0.573l-0.492,0.998c-0.756-0.354-1.513-0.532-2.271-0.532
				c-1.098,0-1.965,0.364-2.601,1.097c-0.636,0.73-0.954,1.73-0.954,3.002c0,1.307,0.308,2.316,0.919,3.028
				c0.613,0.713,1.487,1.069,2.622,1.069c0.697,0,1.493-0.125,2.386-0.377v1.022c-0.692,0.262-1.547,0.394-2.563,0.394
				c-1.472,0-2.605-0.447-3.401-1.342C49.794,195.002,49.399,193.733,49.399,192.087z"/>
			<path fill="#666666" d="M58.019,195.036c0-1.51,1.211-2.301,3.635-2.373l1.272-0.041v-0.471c0-0.596-0.126-1.035-0.379-1.317
				c-0.252-0.284-0.655-0.427-1.211-0.427c-0.623,0-1.328,0.193-2.115,0.582l-0.353-0.871c0.369-0.197,0.773-0.354,1.213-0.465
				s0.88-0.168,1.323-0.168c0.892,0,1.553,0.197,1.982,0.594c0.431,0.397,0.646,1.033,0.646,1.908v5.112h-0.841l-0.227-1.054h-0.055
				c-0.373,0.464-0.745,0.779-1.116,0.943s-0.833,0.246-1.389,0.246c-0.746,0-1.331-0.189-1.755-0.572
				C58.231,196.282,58.019,195.741,58.019,195.036z M59.221,195.051c0,0.412,0.124,0.726,0.372,0.94s0.596,0.322,1.041,0.322
				c0.705,0,1.26-0.193,1.661-0.584c0.403-0.389,0.604-0.934,0.604-1.635v-0.68l-1.133,0.048c-0.9,0.032-1.551,0.173-1.948,0.423
				C59.42,194.136,59.221,194.524,59.221,195.051z"/>
			<path fill="#666666" d="M66.365,197.101v-7.492h0.923l0.186,1.012h0.055c0.231-0.363,0.558-0.646,0.978-0.848
				s0.887-0.301,1.401-0.301c0.902,0,1.582,0.218,2.037,0.652c0.456,0.436,0.684,1.132,0.684,2.089v4.888h-1.135v-4.855
				c0-0.612-0.139-1.068-0.417-1.37s-0.713-0.452-1.306-0.452c-0.784,0-1.358,0.212-1.724,0.637
				c-0.364,0.426-0.547,1.126-0.547,2.104v3.938L66.365,197.101L66.365,197.101z"/>
			<path fill="#666666" d="M74.54,193.403c0-1.254,0.3-2.223,0.899-2.906c0.599-0.682,1.457-1.024,2.573-1.024
				c0.36,0,0.721,0.039,1.08,0.116c0.36,0.077,0.644,0.169,0.849,0.273l-0.35,0.963c-0.25-0.101-0.523-0.184-0.819-0.25
				c-0.296-0.064-0.559-0.099-0.786-0.099c-1.522,0-2.283,0.972-2.283,2.912c0,0.921,0.187,1.627,0.557,2.119
				c0.371,0.492,0.923,0.737,1.651,0.737c0.625,0,1.265-0.135,1.921-0.402v1.005c-0.501,0.261-1.132,0.39-1.894,0.39
				c-1.084,0-1.922-0.334-2.513-1.002C74.835,195.569,74.54,194.624,74.54,193.403z"/>
			<path fill="#666666" d="M81.205,193.416c0-1.208,0.296-2.167,0.889-2.878c0.594-0.711,1.39-1.066,2.39-1.066
				c0.936,0,1.676,0.309,2.221,0.926c0.545,0.618,0.817,1.434,0.817,2.444v0.718h-5.154c0.022,0.881,0.245,1.547,0.667,2.003
				s1.017,0.685,1.784,0.685c0.804,0,1.599-0.17,2.385-0.506v1.012c-0.4,0.173-0.778,0.298-1.135,0.372
				c-0.356,0.075-0.787,0.112-1.291,0.112c-1.105,0-1.978-0.336-2.615-1.012C81.526,195.551,81.205,194.614,81.205,193.416z
				 M82.396,192.637h3.924c0-0.716-0.16-1.265-0.479-1.644c-0.318-0.381-0.775-0.571-1.37-0.571c-0.603,0-1.083,0.196-1.44,0.588
				C82.671,191.401,82.459,191.944,82.396,192.637z"/>
			<path fill="#666666" d="M89.478,197.101v-7.492h0.923l0.139,1.395h0.06c0.278-0.489,0.613-0.866,1.006-1.133
				c0.392-0.266,0.822-0.397,1.292-0.397c0.333,0,0.631,0.027,0.896,0.083l-0.157,1.059c-0.31-0.067-0.583-0.103-0.819-0.103
				c-0.606,0-1.125,0.246-1.556,0.737c-0.431,0.492-0.646,1.104-0.646,1.837v4.016L89.478,197.101L89.478,197.101z"/>
		</g>
		<g>
			<rect x="126.326" y="184.211" fill="#DC2F82" width="14.217" height="14.217"/>
			<g>
				<path fill="#666666" d="M145.749,192.087c0-1.029,0.19-1.932,0.571-2.706c0.381-0.772,0.935-1.37,1.661-1.789
					c0.726-0.419,1.582-0.629,2.565-0.629c1.048,0,1.964,0.19,2.748,0.573l-0.492,0.998c-0.756-0.354-1.513-0.532-2.27-0.532
					c-1.098,0-1.965,0.364-2.601,1.097c-0.637,0.73-0.954,1.73-0.954,3.002c0,1.307,0.307,2.316,0.919,3.028
					c0.612,0.713,1.486,1.069,2.622,1.069c0.696,0,1.492-0.125,2.386-0.377v1.022c-0.693,0.262-1.547,0.394-2.563,0.394
					c-1.472,0-2.604-0.447-3.4-1.342C146.146,195.002,145.749,193.733,145.749,192.087z"/>
				<path fill="#666666" d="M154.834,187.577c0-0.26,0.06-0.449,0.176-0.57c0.118-0.12,0.266-0.182,0.441-0.182
					c0.197,0,0.366,0.063,0.508,0.186c0.143,0.123,0.214,0.313,0.214,0.566s-0.07,0.445-0.214,0.572
					c-0.143,0.125-0.312,0.188-0.508,0.188c-0.176,0-0.324-0.063-0.441-0.188S154.834,187.833,154.834,187.577z M154.93,197.101
					v-7.492h1.039v7.492H154.93z"/>
				<path fill="#666666" d="M158.471,197.101v-7.492h0.924l0.139,1.395h0.059c0.279-0.489,0.614-0.866,1.007-1.133
					c0.392-0.266,0.822-0.397,1.292-0.397c0.333,0,0.631,0.027,0.896,0.083l-0.157,1.059c-0.31-0.067-0.583-0.103-0.819-0.103
					c-0.606,0-1.125,0.246-1.556,0.737c-0.431,0.492-0.646,1.104-0.646,1.837v4.016L158.471,197.101L158.471,197.101z"/>
				<path fill="#666666" d="M163.489,193.403c0-1.254,0.3-2.223,0.898-2.906c0.6-0.682,1.457-1.024,2.574-1.024
					c0.36,0,0.72,0.039,1.08,0.116s0.644,0.169,0.848,0.273l-0.349,0.963c-0.25-0.101-0.523-0.184-0.82-0.25
					c-0.296-0.064-0.558-0.099-0.785-0.099c-1.522,0-2.283,0.972-2.283,2.912c0,0.921,0.186,1.627,0.557,2.119
					s0.922,0.737,1.651,0.737c0.625,0,1.265-0.135,1.921-0.402v1.005c-0.501,0.261-1.132,0.39-1.895,0.39
					c-1.084,0-1.922-0.334-2.512-1.002C163.783,195.569,163.489,194.624,163.489,193.403z"/>
				<path fill="#666666" d="M170.489,194.51v-4.901h1.162v4.86c0,0.61,0.139,1.065,0.416,1.367c0.277,0.301,0.712,0.45,1.304,0.45
					c0.782,0,1.354-0.213,1.716-0.643c0.361-0.429,0.542-1.128,0.542-2.099v-3.938h1.135v7.492h-0.923l-0.175-1.005h-0.064
					c-0.231,0.369-0.554,0.651-0.966,0.849c-0.412,0.195-0.881,0.293-1.408,0.293c-0.916,0-1.602-0.217-2.057-0.648
					C170.716,196.155,170.489,195.462,170.489,194.51z"/>
				<path fill="#666666" d="M179.163,197.101v-10.637h1.135v10.637H179.163z"/>
				<path fill="#666666" d="M182.143,195.036c0-1.51,1.211-2.301,3.636-2.373l1.272-0.041v-0.471c0-0.596-0.126-1.035-0.379-1.317
					c-0.252-0.284-0.656-0.427-1.211-0.427c-0.623,0-1.328,0.193-2.115,0.582l-0.353-0.871c0.369-0.197,0.772-0.354,1.213-0.465
					c0.438-0.111,0.88-0.168,1.323-0.168c0.892,0,1.553,0.197,1.982,0.594c0.431,0.397,0.646,1.033,0.646,1.908v5.112h-0.841
					l-0.227-1.054h-0.055c-0.373,0.464-0.745,0.779-1.116,0.943s-0.833,0.246-1.389,0.246c-0.746,0-1.331-0.189-1.755-0.572
					C182.355,196.282,182.143,195.741,182.143,195.036z M183.347,195.051c0,0.412,0.124,0.726,0.372,0.94s0.595,0.322,1.041,0.322
					c0.705,0,1.259-0.193,1.661-0.584c0.403-0.389,0.604-0.934,0.604-1.635v-0.68l-1.134,0.048c-0.899,0.032-1.55,0.173-1.947,0.423
					C183.546,194.136,183.347,194.524,183.347,195.051z"/>
				<path fill="#666666" d="M189.499,190.489v-0.547l1.073-0.472l0.479-1.601h0.656v1.736h2.174v0.883h-2.174v4.42
					c0,0.451,0.106,0.799,0.321,1.041c0.214,0.242,0.508,0.362,0.882,0.362c0.201,0,0.394-0.015,0.581-0.045
					c0.187-0.028,0.335-0.062,0.443-0.092v0.856c-0.123,0.06-0.304,0.106-0.543,0.146c-0.238,0.039-0.455,0.058-0.646,0.058
					c-1.449,0-2.174-0.764-2.174-2.289v-4.457H189.499L189.499,190.489z"/>
				<path fill="#666666" d="M195.015,193.341c0-1.219,0.305-2.169,0.913-2.85c0.609-0.681,1.454-1.021,2.536-1.021
					c1.045,0,1.875,0.349,2.491,1.044c0.616,0.696,0.923,1.639,0.923,2.825c0,1.224-0.307,2.179-0.92,2.866
					c-0.613,0.687-1.46,1.029-2.542,1.029c-0.668,0-1.261-0.156-1.779-0.473c-0.518-0.314-0.918-0.768-1.2-1.355
					C195.156,194.819,195.015,194.131,195.015,193.341z M196.178,193.341c0,0.959,0.191,1.689,0.575,2.191
					c0.383,0.504,0.947,0.754,1.691,0.754c0.743,0,1.309-0.25,1.693-0.75s0.579-1.231,0.579-2.195c0-0.955-0.192-1.68-0.579-2.176
					c-0.386-0.495-0.955-0.743-1.708-0.743c-0.744,0-1.306,0.244-1.684,0.733C196.367,191.644,196.178,192.372,196.178,193.341z"/>
				<path fill="#666666" d="M203.889,197.101v-7.492h0.923l0.14,1.395h0.059c0.279-0.489,0.614-0.866,1.006-1.133
					c0.393-0.266,0.823-0.397,1.292-0.397c0.333,0,0.631,0.027,0.896,0.083l-0.157,1.059c-0.31-0.067-0.583-0.103-0.82-0.103
					c-0.605,0-1.125,0.246-1.555,0.737c-0.431,0.492-0.646,1.104-0.646,1.837v4.016L203.889,197.101L203.889,197.101z"/>
				<path fill="#666666" d="M208.414,189.608h1.217l1.641,4.271c0.36,0.975,0.583,1.679,0.671,2.11h0.055
					c0.059-0.231,0.184-0.629,0.373-1.191c0.188-0.563,0.808-2.292,1.855-5.188h1.218l-3.221,8.53
					c-0.318,0.843-0.69,1.44-1.118,1.795c-0.426,0.353-0.948,0.529-1.568,0.529c-0.347,0-0.688-0.039-1.025-0.117v-0.915
					c0.25,0.055,0.531,0.082,0.841,0.082c0.779,0,1.335-0.438,1.668-1.313l0.417-1.064L208.414,189.608z"/>
			</g>
		</g>
		<rect x="27.371" y="39.598" fill="#0FAAAA" width="210.864" height="87.049"/>
		<rect x="238.236" y="39.598" fill="#DC2F82" width="95.097" height="87.049"/>
		<rect x="339.961" y="39.598" fill="#CAE4E4" width="88.871" height="87.049"/>
		<rect x="333.332" y="39.598" fill="#58585A" width="6.629" height="87.049"/>
		
			<line fill="none" stroke="#666666" stroke-width="0.5" stroke-miterlimit="10" x1="27.371" y1="145.202" x2="27.371" y2="19.535"/>
	</g>
	<g>
		<path fill="#FFFFFF" d="M276.957,88.368h-7.984v-1.68l2.867-2.898c0.85-0.87,1.404-1.473,1.664-1.809
			c0.262-0.336,0.449-0.647,0.563-0.934c0.115-0.286,0.172-0.583,0.172-0.891c0-0.458-0.125-0.8-0.379-1.023
			c-0.252-0.224-0.59-0.336-1.012-0.336c-0.441,0-0.871,0.102-1.289,0.305c-0.416,0.203-0.852,0.492-1.305,0.867l-1.313-1.555
			c0.563-0.479,1.029-0.817,1.398-1.016c0.371-0.198,0.773-0.351,1.211-0.457s0.928-0.16,1.469-0.16c0.715,0,1.344,0.13,1.891,0.391
			s0.973,0.625,1.273,1.094c0.303,0.469,0.453,1.005,0.453,1.609c0,0.526-0.092,1.02-0.277,1.48
			c-0.184,0.461-0.471,0.934-0.859,1.418c-0.387,0.484-1.07,1.175-2.051,2.07l-1.469,1.383v0.109h4.977V88.368z"/>
		<path fill="#FFFFFF" d="M286.348,86.001h-1.375v2.367h-2.359v-2.367h-4.875v-1.68l5.008-7.375h2.227v7.18h1.375V86.001z
			 M282.614,84.126v-1.938c0-0.323,0.014-0.792,0.039-1.406c0.027-0.614,0.047-0.972,0.063-1.07h-0.063
			c-0.191,0.427-0.424,0.844-0.695,1.25l-2.094,3.164H282.614z"/>
		<path fill="#FFFFFF" d="M292.52,80.353c0,1.198-0.23,2.098-0.695,2.699c-0.463,0.602-1.143,0.902-2.039,0.902
			c-0.859,0-1.523-0.309-1.992-0.926s-0.703-1.509-0.703-2.676c0-2.38,0.898-3.57,2.695-3.57c0.881,0,1.557,0.309,2.027,0.926
			C292.285,78.325,292.52,79.207,292.52,80.353z M289.059,80.368c0,0.661,0.059,1.155,0.176,1.48s0.307,0.488,0.566,0.488
			c0.5,0,0.75-0.656,0.75-1.969c0-1.302-0.25-1.953-0.75-1.953c-0.26,0-0.449,0.16-0.566,0.48S289.059,79.707,289.059,80.368z
			 M297.895,76.946l-6.336,11.422h-1.875l6.336-11.422H297.895z M300.52,84.915c0,1.192-0.23,2.09-0.695,2.691
			c-0.463,0.602-1.143,0.902-2.039,0.902c-0.859,0-1.523-0.309-1.992-0.926s-0.703-1.507-0.703-2.668c0-2.38,0.898-3.57,2.695-3.57
			c0.881,0,1.557,0.309,2.027,0.926C300.285,82.888,300.52,83.77,300.52,84.915z M297.059,84.931c0,0.661,0.059,1.155,0.176,1.48
			s0.307,0.488,0.566,0.488c0.5,0,0.75-0.656,0.75-1.969c0-1.302-0.25-1.953-0.75-1.953c-0.26,0-0.449,0.16-0.566,0.48
			S297.059,84.27,297.059,84.931z"/>
	</g>
	<g>
		<path fill="#003333" d="M381.119,88.368h-7.984v-1.68l2.867-2.898c0.85-0.87,1.404-1.473,1.664-1.809
			c0.262-0.336,0.449-0.647,0.563-0.934c0.115-0.286,0.172-0.583,0.172-0.891c0-0.458-0.125-0.8-0.379-1.023
			c-0.252-0.224-0.59-0.336-1.012-0.336c-0.441,0-0.871,0.102-1.289,0.305c-0.416,0.203-0.852,0.492-1.305,0.867l-1.313-1.555
			c0.563-0.479,1.029-0.817,1.398-1.016c0.371-0.198,0.773-0.351,1.211-0.457s0.928-0.16,1.469-0.16c0.715,0,1.344,0.13,1.891,0.391
			s0.973,0.625,1.273,1.094c0.303,0.469,0.453,1.005,0.453,1.609c0,0.526-0.092,1.02-0.277,1.48
			c-0.184,0.461-0.471,0.934-0.859,1.418c-0.387,0.484-1.07,1.175-2.051,2.07l-1.469,1.383v0.109h4.977V88.368z"/>
		<path fill="#003333" d="M390.252,88.368h-7.984v-1.68l2.867-2.898c0.85-0.87,1.404-1.473,1.664-1.809
			c0.262-0.336,0.449-0.647,0.563-0.934c0.115-0.286,0.172-0.583,0.172-0.891c0-0.458-0.125-0.8-0.379-1.023
			c-0.252-0.224-0.59-0.336-1.012-0.336c-0.441,0-0.871,0.102-1.289,0.305c-0.416,0.203-0.852,0.492-1.305,0.867l-1.313-1.555
			c0.563-0.479,1.029-0.817,1.398-1.016c0.371-0.198,0.773-0.351,1.211-0.457s0.928-0.16,1.469-0.16c0.715,0,1.344,0.13,1.891,0.391
			s0.973,0.625,1.273,1.094c0.303,0.469,0.453,1.005,0.453,1.609c0,0.526-0.092,1.02-0.277,1.48
			c-0.184,0.461-0.471,0.934-0.859,1.418c-0.387,0.484-1.07,1.175-2.051,2.07l-1.469,1.383v0.109h4.977V88.368z"/>
		<path fill="#003333" d="M396.682,80.353c0,1.198-0.23,2.098-0.695,2.699c-0.463,0.602-1.143,0.902-2.039,0.902
			c-0.859,0-1.523-0.309-1.992-0.926s-0.703-1.509-0.703-2.676c0-2.38,0.898-3.57,2.695-3.57c0.881,0,1.557,0.309,2.027,0.926
			C396.448,78.325,396.682,79.207,396.682,80.353z M393.221,80.368c0,0.661,0.059,1.155,0.176,1.48s0.307,0.488,0.566,0.488
			c0.5,0,0.75-0.656,0.75-1.969c0-1.302-0.25-1.953-0.75-1.953c-0.26,0-0.449,0.16-0.566,0.48S393.221,79.707,393.221,80.368z
			 M402.057,76.946l-6.336,11.422h-1.875l6.336-11.422H402.057z M404.682,84.915c0,1.192-0.23,2.09-0.695,2.691
			c-0.463,0.602-1.143,0.902-2.039,0.902c-0.859,0-1.523-0.309-1.992-0.926s-0.703-1.507-0.703-2.668c0-2.38,0.898-3.57,2.695-3.57
			c0.881,0,1.557,0.309,2.027,0.926C404.448,82.888,404.682,83.77,404.682,84.915z M401.221,84.931c0,0.661,0.059,1.155,0.176,1.48
			s0.307,0.488,0.566,0.488c0.5,0,0.75-0.656,0.75-1.969c0-1.302-0.25-1.953-0.75-1.953c-0.26,0-0.449,0.16-0.566,0.48
			S401.221,84.27,401.221,84.931z"/>
	</g>
	<g>
		<path fill="#FFFFFF" d="M332.039,88.368h-7.984v-1.68l2.867-2.898c0.85-0.87,1.404-1.473,1.664-1.809
			c0.262-0.336,0.449-0.647,0.563-0.934c0.115-0.286,0.172-0.583,0.172-0.891c0-0.458-0.125-0.8-0.379-1.023
			c-0.252-0.224-0.59-0.336-1.012-0.336c-0.441,0-0.871,0.102-1.289,0.305c-0.416,0.203-0.852,0.492-1.305,0.867l-1.313-1.555
			c0.563-0.479,1.029-0.817,1.398-1.016c0.371-0.198,0.773-0.351,1.211-0.457s0.928-0.16,1.469-0.16c0.715,0,1.344,0.13,1.891,0.391
			s0.973,0.625,1.273,1.094c0.303,0.469,0.453,1.005,0.453,1.609c0,0.526-0.092,1.02-0.277,1.48
			c-0.184,0.461-0.471,0.934-0.859,1.418c-0.387,0.484-1.07,1.175-2.051,2.07l-1.469,1.383v0.109h4.977V88.368z"/>
		<path fill="#FFFFFF" d="M338.469,80.353c0,1.198-0.23,2.098-0.695,2.699c-0.463,0.602-1.143,0.902-2.039,0.902
			c-0.859,0-1.523-0.309-1.992-0.926s-0.703-1.509-0.703-2.676c0-2.38,0.898-3.57,2.695-3.57c0.881,0,1.557,0.309,2.027,0.926
			C338.235,78.325,338.469,79.207,338.469,80.353z M335.008,80.368c0,0.661,0.059,1.155,0.176,1.48s0.307,0.488,0.566,0.488
			c0.5,0,0.75-0.656,0.75-1.969c0-1.302-0.25-1.953-0.75-1.953c-0.26,0-0.449,0.16-0.566,0.48S335.008,79.707,335.008,80.368z
			 M343.844,76.946l-6.336,11.422h-1.875l6.336-11.422H343.844z M346.469,84.915c0,1.192-0.23,2.09-0.695,2.691
			c-0.463,0.602-1.143,0.902-2.039,0.902c-0.859,0-1.523-0.309-1.992-0.926s-0.703-1.507-0.703-2.668c0-2.38,0.898-3.57,2.695-3.57
			c0.881,0,1.557,0.309,2.027,0.926C346.235,82.888,346.469,83.77,346.469,84.915z M343.008,84.931c0,0.661,0.059,1.155,0.176,1.48
			s0.307,0.488,0.566,0.488c0.5,0,0.75-0.656,0.75-1.969c0-1.302-0.25-1.953-0.75-1.953c-0.26,0-0.449,0.16-0.566,0.48
			S343.008,84.27,343.008,84.931z"/>
	</g>
	<g>
		<path fill="#FFFFFF" d="M131.123,81.071c1.104,0,1.983,0.31,2.637,0.93s0.98,1.469,0.98,2.547c0,1.276-0.394,2.258-1.18,2.945
			s-1.911,1.031-3.375,1.031c-1.271,0-2.297-0.206-3.078-0.617v-2.086c0.411,0.219,0.891,0.397,1.438,0.535s1.065,0.207,1.555,0.207
			c1.474,0,2.211-0.604,2.211-1.813c0-1.151-0.763-1.727-2.289-1.727c-0.276,0-0.581,0.027-0.914,0.082s-0.604,0.113-0.813,0.176
			l-0.961-0.516l0.43-5.82h6.195v2.047h-4.078l-0.211,2.242l0.273-0.055C130.261,81.107,130.655,81.071,131.123,81.071z"/>
		<path fill="#FFFFFF" d="M144.084,88.368H136.1v-1.68l2.867-2.898c0.849-0.87,1.403-1.473,1.664-1.809s0.448-0.647,0.563-0.934
			s0.172-0.583,0.172-0.891c0-0.458-0.126-0.8-0.379-1.023s-0.59-0.336-1.012-0.336c-0.442,0-0.872,0.102-1.289,0.305
			s-0.852,0.492-1.305,0.867l-1.313-1.555c0.563-0.479,1.028-0.817,1.398-1.016s0.773-0.351,1.211-0.457s0.927-0.16,1.469-0.16
			c0.714,0,1.344,0.13,1.891,0.391s0.972,0.625,1.273,1.094s0.453,1.005,0.453,1.609c0,0.526-0.093,1.02-0.277,1.48
			s-0.472,0.934-0.859,1.418s-1.071,1.175-2.051,2.07l-1.469,1.383v0.109h4.977V88.368z"/>
		<path fill="#FFFFFF" d="M150.514,80.353c0,1.198-0.231,2.098-0.695,2.699s-1.144,0.902-2.039,0.902
			c-0.859,0-1.523-0.309-1.992-0.926s-0.703-1.509-0.703-2.676c0-2.38,0.898-3.57,2.695-3.57c0.88,0,1.556,0.309,2.027,0.926
			S150.514,79.207,150.514,80.353z M147.053,80.368c0,0.661,0.059,1.155,0.176,1.48s0.306,0.488,0.566,0.488
			c0.5,0,0.75-0.656,0.75-1.969c0-1.302-0.25-1.953-0.75-1.953c-0.261,0-0.449,0.16-0.566,0.48S147.053,79.707,147.053,80.368z
			 M155.889,76.946l-6.336,11.422h-1.875l6.336-11.422H155.889z M158.514,84.915c0,1.192-0.231,2.09-0.695,2.691
			s-1.144,0.902-2.039,0.902c-0.859,0-1.523-0.309-1.992-0.926s-0.703-1.507-0.703-2.668c0-2.38,0.898-3.57,2.695-3.57
			c0.88,0,1.556,0.309,2.027,0.926S158.514,83.77,158.514,84.915z M155.053,84.931c0,0.661,0.059,1.155,0.176,1.48
			s0.306,0.488,0.566,0.488c0.5,0,0.75-0.656,0.75-1.969c0-1.302-0.25-1.953-0.75-1.953c-0.261,0-0.449,0.16-0.566,0.48
			S155.053,84.27,155.053,84.931z"/>
	</g>
</g>
</svg>
