<?xml version="1.0" encoding="utf-8"?>
<!-- Generator: Adobe Illustrator 16.0.0, SVG Export Plug-In . SVG Version: 6.00 Build 0)  -->
<!DOCTYPE svg PUBLIC "-//W3C//DTD SVG 1.1//EN" "http://www.w3.org/Graphics/SVG/1.1/DTD/svg11.dtd">
<svg version="1.1" id="Capa_1" xmlns="http://www.w3.org/2000/svg" xmlns:xlink="http://www.w3.org/1999/xlink" x="0px" y="0px"
	 width="477px" height="198.425px" viewBox="0 0 477 198.425" enable-background="new 0 0 477 198.425" xml:space="preserve">
<g id="Capa_1_1_">
</g>
<g>
	
		<line fill="none" stroke="#666666" stroke-width="0.5" stroke-miterlimit="10" x1="31.12" y1="139.536" x2="453.378" y2="139.536"/>
	<g>
		
			<line fill="none" stroke="#CCCCCC" stroke-width="0.5" stroke-miterlimit="10" x1="231.331" y1="145.202" x2="231.331" y2="19.535"/>
		
			<line fill="none" stroke="#CCCCCC" stroke-width="0.5" stroke-miterlimit="10" x1="432.58" y1="145.202" x2="432.58" y2="19.535"/>
	</g>
	<g>
		<path fill="#666666" d="M23.622,151.57c0-1.489,0.232-2.598,0.698-3.318c0.467-0.721,1.179-1.083,2.135-1.083
			c0.929,0,1.634,0.377,2.115,1.13c0.48,0.754,0.724,1.846,0.724,3.272c0,1.48-0.232,2.588-0.699,3.317
			c-0.467,0.73-1.18,1.098-2.14,1.098c-0.926,0-1.628-0.375-2.11-1.122C23.865,154.114,23.622,153.018,23.622,151.57z
			 M24.618,151.57c0,1.244,0.146,2.148,0.438,2.716c0.293,0.567,0.759,0.853,1.397,0.853c0.646,0,1.115-0.287,1.406-0.861
			s0.437-1.478,0.437-2.703c0-1.229-0.146-2.127-0.437-2.697c-0.291-0.57-0.759-0.855-1.406-0.855c-0.641,0-1.104,0.28-1.397,0.845
			C24.765,149.425,24.618,150.327,24.618,151.57z"/>
		<path fill="#666666" d="M30.495,149.854c0-0.886,0.145-1.553,0.433-2.002c0.289-0.446,0.717-0.672,1.281-0.672
			c0.563,0,0.997,0.23,1.3,0.695c0.305,0.465,0.455,1.124,0.455,1.979c0,0.894-0.147,1.565-0.445,2.021
			c-0.298,0.455-0.732,0.684-1.31,0.684c-0.542,0-0.963-0.231-1.265-0.697C30.646,151.396,30.495,150.727,30.495,149.854z
			 M31.286,149.854c0,0.666,0.071,1.164,0.217,1.496c0.146,0.334,0.38,0.5,0.706,0.5c0.644,0,0.964-0.666,0.964-1.996
			c0-1.326-0.32-1.987-0.964-1.987c-0.325,0-0.562,0.164-0.706,0.493C31.36,148.689,31.286,149.188,31.286,149.854z M32.01,155.868
			l4.739-8.565h0.863l-4.738,8.565H32.01z M35.641,153.288c0-0.886,0.146-1.554,0.435-2.002c0.29-0.448,0.718-0.675,1.285-0.675
			c0.553,0,0.981,0.229,1.292,0.688c0.31,0.458,0.464,1.121,0.464,1.987c0,0.888-0.148,1.559-0.446,2.015
			c-0.297,0.455-0.732,0.683-1.31,0.683c-0.552,0-0.978-0.23-1.273-0.696C35.788,154.823,35.641,154.157,35.641,153.288z
			 M36.432,153.288c0,0.668,0.071,1.166,0.217,1.494c0.146,0.329,0.383,0.493,0.711,0.493c0.329,0,0.572-0.161,0.729-0.487
			c0.157-0.324,0.235-0.824,0.235-1.5c0-0.666-0.078-1.161-0.235-1.481c-0.155-0.322-0.398-0.482-0.729-0.482
			s-0.565,0.16-0.711,0.482C36.503,152.127,36.432,152.622,36.432,153.288z"/>
	</g>
	<g>
		<path fill="#666666" d="M222.367,155.518v-0.939c0.271,0.175,0.611,0.313,1.02,0.412c0.406,0.099,0.808,0.146,1.201,0.146
			c0.688,0,1.222-0.16,1.604-0.482c0.382-0.324,0.57-0.791,0.57-1.402c0-1.191-0.731-1.787-2.199-1.787
			c-0.371,0-0.867,0.057-1.488,0.169l-0.505-0.321l0.325-4.008h4.262v0.892h-3.431l-0.217,2.577
			c0.449-0.082,0.897-0.123,1.342-0.123c0.903,0,1.613,0.224,2.132,0.666c0.519,0.445,0.776,1.054,0.776,1.826
			c0,0.888-0.282,1.584-0.847,2.09c-0.565,0.505-1.344,0.757-2.335,0.757C223.612,155.986,222.874,155.829,222.367,155.518z"/>
		<path fill="#666666" d="M229.046,151.57c0-1.489,0.232-2.598,0.699-3.318c0.466-0.721,1.178-1.083,2.134-1.083
			c0.929,0,1.634,0.377,2.116,1.13c0.479,0.754,0.723,1.846,0.723,3.272c0,1.48-0.232,2.588-0.699,3.317
			c-0.467,0.73-1.18,1.098-2.14,1.098c-0.925,0-1.628-0.375-2.11-1.122C229.287,154.114,229.046,153.018,229.046,151.57z
			 M230.042,151.57c0,1.244,0.146,2.148,0.438,2.716c0.293,0.567,0.761,0.853,1.398,0.853c0.646,0,1.116-0.287,1.407-0.861
			s0.436-1.478,0.436-2.703c0-1.229-0.146-2.127-0.436-2.697c-0.291-0.57-0.76-0.855-1.407-0.855c-0.641,0-1.105,0.28-1.398,0.845
			C230.188,149.425,230.042,150.327,230.042,151.57z"/>
		<path fill="#666666" d="M235.919,149.854c0-0.886,0.144-1.553,0.433-2.002c0.289-0.446,0.717-0.672,1.281-0.672
			c0.563,0,0.997,0.23,1.3,0.695c0.305,0.465,0.455,1.124,0.455,1.979c0,0.894-0.146,1.565-0.445,2.021
			c-0.298,0.455-0.732,0.684-1.31,0.684c-0.542,0-0.963-0.231-1.264-0.697C236.07,151.396,235.919,150.727,235.919,149.854z
			 M236.71,149.854c0,0.666,0.072,1.164,0.217,1.496c0.146,0.334,0.38,0.5,0.706,0.5c0.644,0,0.964-0.666,0.964-1.996
			c0-1.326-0.32-1.987-0.964-1.987c-0.325,0-0.562,0.164-0.706,0.493C236.783,148.689,236.71,149.188,236.71,149.854z
			 M237.433,155.868l4.738-8.565h0.865l-4.74,8.565H237.433z M241.064,153.288c0-0.886,0.146-1.554,0.436-2.002
			s0.719-0.675,1.285-0.675c0.553,0,0.98,0.229,1.292,0.688c0.31,0.458,0.464,1.121,0.464,1.987c0,0.888-0.148,1.559-0.447,2.015
			c-0.297,0.455-0.731,0.683-1.309,0.683c-0.552,0-0.979-0.23-1.273-0.696C241.213,154.823,241.064,154.157,241.064,153.288z
			 M241.855,153.288c0,0.668,0.072,1.166,0.219,1.494c0.145,0.329,0.383,0.493,0.711,0.493c0.33,0,0.57-0.161,0.729-0.487
			c0.158-0.324,0.236-0.824,0.236-1.5c0-0.666-0.078-1.161-0.236-1.481c-0.156-0.322-0.396-0.482-0.729-0.482
			c-0.328,0-0.566,0.16-0.711,0.482C241.928,152.127,241.855,152.622,241.855,153.288z"/>
	</g>
	<g>
		<path fill="#666666" d="M421.252,149.055l2.27-1.752h0.842v8.565h-0.974v-6.104c0-0.508,0.018-0.986,0.048-1.439
			c-0.082,0.082-0.174,0.168-0.274,0.258c-0.102,0.09-0.565,0.471-1.396,1.143L421.252,149.055z"/>
		<path fill="#666666" d="M427.608,151.57c0-1.489,0.233-2.598,0.699-3.318s1.178-1.083,2.134-1.083c0.93,0,1.635,0.377,2.116,1.13
			c0.48,0.754,0.724,1.846,0.724,3.272c0,1.48-0.232,2.588-0.699,3.317c-0.467,0.73-1.18,1.098-2.14,1.098
			c-0.926,0-1.629-0.375-2.11-1.122C427.849,154.114,427.608,153.018,427.608,151.57z M428.604,151.57
			c0,1.244,0.146,2.148,0.438,2.716c0.293,0.567,0.759,0.853,1.396,0.853c0.647,0,1.116-0.287,1.406-0.861
			c0.291-0.574,0.438-1.478,0.438-2.703c0-1.229-0.146-2.127-0.438-2.697c-0.29-0.57-0.759-0.855-1.406-0.855
			c-0.64,0-1.104,0.28-1.396,0.845C428.75,149.425,428.604,150.327,428.604,151.57z"/>
		<path fill="#666666" d="M434.47,151.57c0-1.489,0.232-2.598,0.699-3.318c0.466-0.721,1.178-1.083,2.134-1.083
			c0.929,0,1.634,0.377,2.116,1.13c0.48,0.754,0.723,1.846,0.723,3.272c0,1.48-0.232,2.588-0.698,3.317
			c-0.468,0.73-1.181,1.098-2.141,1.098c-0.925,0-1.628-0.375-2.109-1.122C434.711,154.114,434.47,153.018,434.47,151.57z
			 M435.466,151.57c0,1.244,0.146,2.148,0.438,2.716c0.293,0.567,0.759,0.853,1.397,0.853c0.646,0,1.116-0.287,1.405-0.861
			c0.291-0.574,0.438-1.478,0.438-2.703c0-1.229-0.146-2.127-0.438-2.697c-0.289-0.57-0.759-0.855-1.405-0.855
			c-0.641,0-1.104,0.28-1.397,0.845C435.612,149.425,435.466,150.327,435.466,151.57z"/>
		<path fill="#666666" d="M441.343,149.854c0-0.886,0.145-1.553,0.434-2.002c0.288-0.446,0.716-0.672,1.28-0.672
			c0.563,0,0.997,0.23,1.301,0.695s0.454,1.124,0.454,1.979c0,0.894-0.147,1.565-0.445,2.021c-0.297,0.455-0.732,0.684-1.31,0.684
			c-0.543,0-0.963-0.231-1.264-0.697C441.491,151.396,441.343,150.727,441.343,149.854z M442.134,149.854
			c0,0.666,0.071,1.164,0.218,1.496c0.146,0.334,0.381,0.5,0.705,0.5c0.644,0,0.964-0.666,0.964-1.996
			c0-1.326-0.32-1.987-0.964-1.987c-0.324,0-0.562,0.164-0.705,0.493C442.205,148.689,442.134,149.188,442.134,149.854z
			 M442.858,155.868l4.737-8.565h0.864l-4.739,8.565H442.858z M446.488,153.288c0-0.886,0.146-1.554,0.436-2.002
			c0.289-0.448,0.718-0.675,1.285-0.675c0.552,0,0.98,0.229,1.291,0.688c0.31,0.458,0.464,1.121,0.464,1.987
			c0,0.888-0.148,1.559-0.446,2.015c-0.297,0.455-0.732,0.683-1.309,0.683c-0.553,0-0.979-0.23-1.273-0.696
			C446.636,154.823,446.488,154.157,446.488,153.288z M447.279,153.288c0,0.668,0.071,1.166,0.218,1.494
			c0.146,0.329,0.383,0.493,0.712,0.493c0.328,0,0.571-0.161,0.729-0.487c0.157-0.324,0.235-0.824,0.235-1.5
			c0-0.666-0.078-1.161-0.235-1.481c-0.155-0.322-0.398-0.482-0.729-0.482c-0.331,0-0.566,0.16-0.712,0.482
			C447.35,152.127,447.279,152.622,447.279,153.288z"/>
	</g>
	<rect x="31.12" y="39.598" fill="#0FAAAA" width="210.863" height="87.048"/>
	<rect x="241.985" y="39.598" fill="#DC2F82" width="95.097" height="87.048"/>
	<rect x="343.71" y="39.598" fill="#CAE4E4" width="88.87" height="87.048"/>
	<rect x="337.08" y="39.598" fill="#58585A" width="6.63" height="87.048"/>
	<line fill="none" stroke="#666666" stroke-width="0.5" stroke-miterlimit="10" x1="31.12" y1="145.202" x2="31.12" y2="19.535"/>
	<path fill="#FFFFFF" d="M280.706,88.368h-7.984v-1.68l2.867-2.898c0.85-0.87,1.404-1.473,1.664-1.809
		c0.262-0.336,0.449-0.647,0.563-0.934c0.115-0.286,0.172-0.583,0.172-0.891c0-0.458-0.125-0.8-0.379-1.023
		c-0.252-0.224-0.59-0.336-1.012-0.336c-0.441,0-0.871,0.102-1.289,0.305c-0.416,0.203-0.852,0.492-1.305,0.867l-1.313-1.555
		c0.563-0.479,1.029-0.817,1.398-1.016c0.371-0.198,0.772-0.351,1.211-0.457c0.438-0.106,0.928-0.16,1.469-0.16
		c0.715,0,1.344,0.13,1.892,0.391c0.547,0.261,0.973,0.625,1.272,1.094c0.303,0.469,0.453,1.005,0.453,1.609
		c0,0.526-0.092,1.02-0.277,1.48c-0.184,0.461-0.471,0.934-0.858,1.418s-1.07,1.175-2.051,2.07l-1.47,1.383v0.109h4.978V88.368z"/>
	<path fill="#FFFFFF" d="M290.097,86.001h-1.375v2.367h-2.359v-2.367h-4.875v-1.68l5.009-7.375h2.227v7.18h1.375L290.097,86.001
		L290.097,86.001z M286.363,84.126v-1.938c0-0.323,0.015-0.792,0.039-1.406c0.027-0.614,0.048-0.972,0.063-1.07h-0.063
		c-0.19,0.427-0.424,0.844-0.694,1.25l-2.095,3.164H286.363z"/>
	<path fill="#FFFFFF" d="M296.269,80.353c0,1.198-0.229,2.098-0.694,2.699c-0.464,0.602-1.144,0.902-2.039,0.902
		c-0.859,0-1.523-0.309-1.992-0.926c-0.469-0.617-0.703-1.509-0.703-2.676c0-2.38,0.897-3.57,2.695-3.57
		c0.881,0,1.557,0.309,2.026,0.926C296.034,78.325,296.269,79.207,296.269,80.353z M292.808,80.368c0,0.661,0.06,1.155,0.176,1.48
		c0.117,0.325,0.308,0.488,0.566,0.488c0.5,0,0.75-0.656,0.75-1.969c0-1.302-0.25-1.953-0.75-1.953c-0.26,0-0.449,0.16-0.566,0.48
		C292.867,79.214,292.808,79.707,292.808,80.368z M301.644,76.946l-6.336,11.422h-1.875l6.336-11.422H301.644z M304.269,84.915
		c0,1.192-0.23,2.09-0.695,2.691c-0.463,0.602-1.143,0.902-2.038,0.902c-0.859,0-1.523-0.309-1.992-0.926s-0.703-1.507-0.703-2.668
		c0-2.38,0.897-3.57,2.695-3.57c0.88,0,1.557,0.309,2.026,0.926C304.033,82.888,304.269,83.77,304.269,84.915z M300.808,84.931
		c0,0.661,0.06,1.155,0.176,1.48c0.117,0.325,0.308,0.488,0.566,0.488c0.5,0,0.75-0.656,0.75-1.969c0-1.302-0.25-1.953-0.75-1.953
		c-0.26,0-0.449,0.16-0.566,0.48C300.867,83.777,300.808,84.27,300.808,84.931z"/>
	<path fill="#003333" d="M384.867,88.368h-7.983v-1.68l2.867-2.898c0.85-0.87,1.403-1.473,1.663-1.809
		c0.263-0.336,0.449-0.647,0.563-0.934c0.115-0.286,0.172-0.583,0.172-0.891c0-0.458-0.125-0.8-0.379-1.023
		c-0.252-0.224-0.59-0.336-1.012-0.336c-0.441,0-0.871,0.102-1.289,0.305c-0.416,0.203-0.853,0.492-1.306,0.867l-1.313-1.555
		c0.563-0.479,1.029-0.817,1.398-1.016c0.37-0.198,0.772-0.351,1.211-0.457c0.438-0.106,0.928-0.16,1.469-0.16
		c0.715,0,1.344,0.13,1.891,0.391c0.547,0.261,0.974,0.625,1.273,1.094c0.303,0.469,0.453,1.005,0.453,1.609
		c0,0.526-0.093,1.02-0.277,1.48c-0.184,0.461-0.471,0.934-0.859,1.418c-0.387,0.484-1.069,1.175-2.051,2.07l-1.469,1.383v0.109
		h4.977V88.368z"/>
	<path fill="#003333" d="M394.001,88.368h-7.984v-1.68l2.867-2.898c0.85-0.87,1.403-1.473,1.664-1.809
		c0.262-0.336,0.448-0.647,0.563-0.934c0.115-0.286,0.172-0.583,0.172-0.891c0-0.458-0.125-0.8-0.379-1.023
		c-0.252-0.224-0.59-0.336-1.012-0.336c-0.441,0-0.871,0.102-1.289,0.305c-0.416,0.203-0.852,0.492-1.305,0.867l-1.313-1.555
		c0.563-0.479,1.029-0.817,1.398-1.016c0.371-0.198,0.772-0.351,1.211-0.457c0.438-0.106,0.928-0.16,1.469-0.16
		c0.715,0,1.344,0.13,1.891,0.391c0.548,0.261,0.974,0.625,1.273,1.094c0.303,0.469,0.453,1.005,0.453,1.609
		c0,0.526-0.092,1.02-0.277,1.48c-0.184,0.461-0.471,0.934-0.858,1.418s-1.07,1.175-2.052,2.07l-1.469,1.383v0.109h4.978V88.368z"/>
	<path fill="#003333" d="M400.431,80.353c0,1.198-0.23,2.098-0.695,2.699c-0.463,0.602-1.143,0.902-2.039,0.902
		c-0.858,0-1.522-0.309-1.992-0.926c-0.469-0.617-0.702-1.509-0.702-2.676c0-2.38,0.897-3.57,2.694-3.57
		c0.881,0,1.558,0.309,2.027,0.926C400.197,78.325,400.431,79.207,400.431,80.353z M396.97,80.368c0,0.661,0.059,1.155,0.176,1.48
		c0.117,0.325,0.307,0.488,0.566,0.488c0.5,0,0.75-0.656,0.75-1.969c0-1.302-0.25-1.953-0.75-1.953c-0.261,0-0.449,0.16-0.566,0.48
		S396.97,79.707,396.97,80.368z M405.806,76.946l-6.336,11.422h-1.875l6.336-11.422H405.806z M408.431,84.915
		c0,1.192-0.23,2.09-0.695,2.691c-0.463,0.602-1.143,0.902-2.039,0.902c-0.858,0-1.522-0.309-1.992-0.926
		c-0.469-0.617-0.702-1.507-0.702-2.668c0-2.38,0.897-3.57,2.694-3.57c0.881,0,1.558,0.309,2.027,0.926
		C408.197,82.888,408.431,83.77,408.431,84.915z M404.97,84.931c0,0.661,0.059,1.155,0.176,1.48
		c0.117,0.325,0.307,0.488,0.566,0.488c0.5,0,0.75-0.656,0.75-1.969c0-1.302-0.25-1.953-0.75-1.953c-0.261,0-0.449,0.16-0.566,0.48
		S404.97,84.27,404.97,84.931z"/>
	<path fill="#FFFFFF" d="M335.787,88.368h-7.983v-1.68l2.867-2.898c0.85-0.87,1.403-1.473,1.664-1.809
		c0.262-0.336,0.448-0.647,0.563-0.934c0.115-0.286,0.172-0.583,0.172-0.891c0-0.458-0.125-0.8-0.379-1.023
		c-0.252-0.224-0.59-0.336-1.012-0.336c-0.441,0-0.871,0.102-1.289,0.305c-0.416,0.203-0.853,0.492-1.305,0.867l-1.313-1.555
		c0.563-0.479,1.029-0.817,1.398-1.016c0.371-0.198,0.772-0.351,1.211-0.457c0.438-0.106,0.928-0.16,1.469-0.16
		c0.715,0,1.344,0.13,1.891,0.391c0.547,0.261,0.974,0.625,1.273,1.094c0.303,0.469,0.453,1.005,0.453,1.609
		c0,0.526-0.092,1.02-0.277,1.48c-0.184,0.461-0.471,0.934-0.859,1.418c-0.387,0.484-1.069,1.175-2.051,2.07l-1.469,1.383v0.109
		h4.977V88.368z"/>
	<path fill="#FFFFFF" d="M342.218,80.353c0,1.198-0.23,2.098-0.695,2.699c-0.463,0.602-1.143,0.902-2.039,0.902
		c-0.859,0-1.522-0.309-1.992-0.926c-0.469-0.617-0.703-1.509-0.703-2.676c0-2.38,0.898-3.57,2.695-3.57
		c0.881,0,1.557,0.309,2.027,0.926C341.984,78.325,342.218,79.207,342.218,80.353z M338.757,80.368c0,0.661,0.059,1.155,0.176,1.48
		c0.117,0.325,0.307,0.488,0.566,0.488c0.5,0,0.75-0.656,0.75-1.969c0-1.302-0.25-1.953-0.75-1.953c-0.261,0-0.449,0.16-0.566,0.48
		S338.757,79.707,338.757,80.368z M347.593,76.946l-6.336,11.422h-1.875l6.336-11.422H347.593z M350.218,84.915
		c0,1.192-0.23,2.09-0.695,2.691c-0.463,0.602-1.143,0.902-2.039,0.902c-0.859,0-1.522-0.309-1.992-0.926
		c-0.469-0.617-0.703-1.507-0.703-2.668c0-2.38,0.898-3.57,2.695-3.57c0.881,0,1.557,0.309,2.027,0.926
		C349.984,82.888,350.218,83.77,350.218,84.915z M346.757,84.931c0,0.661,0.059,1.155,0.176,1.48
		c0.117,0.325,0.307,0.488,0.566,0.488c0.5,0,0.75-0.656,0.75-1.969c0-1.302-0.25-1.953-0.75-1.953c-0.261,0-0.449,0.16-0.566,0.48
		S346.757,84.27,346.757,84.931z"/>
	<path fill="#FFFFFF" d="M134.872,81.071c1.104,0,1.982,0.31,2.637,0.93s0.979,1.469,0.979,2.547c0,1.276-0.394,2.258-1.18,2.945
		s-1.911,1.031-3.375,1.031c-1.271,0-2.297-0.206-3.078-0.617v-2.086c0.411,0.219,0.892,0.397,1.438,0.535s1.064,0.207,1.555,0.207
		c1.475,0,2.211-0.604,2.211-1.813c0-1.151-0.763-1.727-2.289-1.727c-0.275,0-0.581,0.027-0.914,0.082s-0.604,0.113-0.813,0.176
		l-0.961-0.516l0.43-5.82h6.195v2.047h-4.078l-0.211,2.242l0.272-0.055C134.01,81.107,134.404,81.071,134.872,81.071z"/>
	<path fill="#FFFFFF" d="M147.833,88.368h-7.984v-1.68l2.867-2.898c0.849-0.87,1.403-1.473,1.664-1.809s0.448-0.647,0.563-0.934
		c0.115-0.287,0.173-0.583,0.173-0.891c0-0.458-0.126-0.8-0.38-1.023c-0.253-0.223-0.59-0.336-1.012-0.336
		c-0.441,0-0.872,0.102-1.289,0.305s-0.852,0.492-1.305,0.867l-1.313-1.555c0.563-0.479,1.028-0.817,1.398-1.016
		c0.37-0.199,0.772-0.351,1.211-0.457s0.927-0.16,1.469-0.16c0.714,0,1.345,0.13,1.892,0.391c0.547,0.261,0.972,0.625,1.272,1.094
		c0.301,0.469,0.453,1.005,0.453,1.609c0,0.526-0.093,1.02-0.277,1.48c-0.184,0.46-0.472,0.934-0.858,1.418s-1.071,1.175-2.051,2.07
		l-1.47,1.383v0.109h4.978V88.368L147.833,88.368z"/>
	<path fill="#FFFFFF" d="M154.263,80.353c0,1.198-0.23,2.098-0.695,2.699c-0.464,0.601-1.144,0.902-2.039,0.902
		c-0.858,0-1.522-0.309-1.991-0.926c-0.47-0.617-0.703-1.509-0.703-2.676c0-2.38,0.897-3.57,2.694-3.57
		c0.881,0,1.557,0.309,2.027,0.926S154.263,79.207,154.263,80.353z M150.802,80.368c0,0.661,0.059,1.155,0.176,1.48
		c0.117,0.325,0.307,0.488,0.566,0.488c0.5,0,0.75-0.656,0.75-1.969c0-1.302-0.25-1.953-0.75-1.953c-0.261,0-0.449,0.16-0.566,0.48
		S150.802,79.707,150.802,80.368z M159.638,76.946l-6.336,11.422h-1.875l6.336-11.422H159.638z M162.263,84.915
		c0,1.192-0.23,2.09-0.695,2.691c-0.464,0.601-1.144,0.902-2.039,0.902c-0.858,0-1.522-0.309-1.991-0.926
		c-0.47-0.617-0.703-1.507-0.703-2.668c0-2.38,0.897-3.57,2.694-3.57c0.881,0,1.557,0.309,2.027,0.926S162.263,83.77,162.263,84.915
		z M158.802,84.931c0,0.661,0.059,1.155,0.176,1.48c0.117,0.325,0.307,0.488,0.566,0.488c0.5,0,0.75-0.656,0.75-1.969
		c0-1.302-0.25-1.953-0.75-1.953c-0.261,0-0.449,0.16-0.566,0.48S158.802,84.27,158.802,84.931z"/>
</g>
<g>
	<g>
		<rect x="267.221" y="174.211" fill="#58585A" width="14.217" height="14.217"/>
		<g>
			<path fill="#666666" d="M288.313,187.102v-9.994h1.162v9.994H288.313z"/>
			<path fill="#666666" d="M292.045,187.102v-7.492h0.924l0.186,1.012h0.055c0.23-0.363,0.559-0.646,0.979-0.848
				c0.418-0.199,0.887-0.301,1.398-0.301c0.902,0,1.582,0.217,2.037,0.651c0.457,0.437,0.686,1.132,0.686,2.089v4.889h-1.137v-4.855
				c0-0.612-0.139-1.068-0.416-1.37s-0.713-0.452-1.307-0.452c-0.783,0-1.357,0.212-1.723,0.637
				c-0.363,0.426-0.547,1.127-0.547,2.104v3.938L292.045,187.102L292.045,187.102z"/>
			<path fill="#666666" d="M298.676,189.377c0.314,0.091,0.625,0.137,0.93,0.137c0.355,0,0.617-0.097,0.783-0.291
				c0.166-0.191,0.25-0.488,0.25-0.886v-8.729h1.135v8.642c0,1.478-0.682,2.215-2.045,2.215c-0.434,0-0.781-0.057-1.053-0.17
				V189.377L298.676,189.377z M300.543,177.577c0-0.261,0.063-0.449,0.189-0.57c0.129-0.12,0.287-0.182,0.48-0.182
				c0.207,0,0.389,0.063,0.539,0.186c0.15,0.123,0.227,0.313,0.227,0.566s-0.074,0.444-0.227,0.571
				c-0.15,0.125-0.332,0.188-0.539,0.188c-0.191,0-0.352-0.063-0.48-0.188C300.606,178.023,300.543,177.833,300.543,177.577z"/>
			<path fill="#666666" d="M304.098,184.51v-4.9h1.162v4.859c0,0.61,0.139,1.065,0.416,1.367c0.277,0.301,0.713,0.45,1.303,0.45
				c0.783,0,1.355-0.213,1.719-0.644c0.361-0.429,0.543-1.127,0.543-2.099v-3.938h1.135v7.492h-0.924l-0.176-1.005h-0.063
				c-0.232,0.369-0.555,0.651-0.967,0.849c-0.412,0.195-0.881,0.293-1.408,0.293c-0.916,0-1.602-0.217-2.057-0.647
				C304.324,186.155,304.098,185.462,304.098,184.51z"/>
			<path fill="#666666" d="M312.772,187.102v-7.492h0.926l0.139,1.395h0.059c0.277-0.488,0.613-0.865,1.008-1.133
				c0.391-0.266,0.82-0.396,1.291-0.396c0.332,0,0.631,0.026,0.895,0.082l-0.156,1.06c-0.311-0.067-0.584-0.103-0.82-0.103
				c-0.605,0-1.123,0.245-1.555,0.736c-0.432,0.492-0.646,1.104-0.646,1.837v4.017L312.772,187.102L312.772,187.102z"/>
			<path fill="#666666" d="M318.391,177.577c0-0.261,0.059-0.449,0.178-0.57c0.117-0.12,0.266-0.182,0.439-0.182
				c0.197,0,0.367,0.063,0.51,0.186c0.145,0.123,0.213,0.313,0.213,0.566s-0.068,0.444-0.213,0.571
				c-0.143,0.125-0.313,0.188-0.51,0.188c-0.176,0-0.322-0.063-0.439-0.188C318.449,178.023,318.391,177.833,318.391,177.577z
				 M318.487,187.102v-7.492h1.039v7.492H318.487z"/>
			<path fill="#666666" d="M321.612,183.416c0-1.208,0.295-2.167,0.889-2.878s1.391-1.065,2.391-1.065
				c0.936,0,1.676,0.309,2.221,0.926s0.816,1.434,0.816,2.443v0.719h-5.152c0.021,0.881,0.244,1.547,0.666,2.002
				c0.424,0.457,1.018,0.686,1.785,0.686c0.805,0,1.6-0.17,2.385-0.506v1.012c-0.4,0.173-0.777,0.298-1.135,0.372
				c-0.355,0.075-0.787,0.112-1.291,0.112c-1.105,0-1.979-0.336-2.615-1.012C321.932,185.551,321.612,184.614,321.612,183.416z
				 M322.801,182.637h3.924c0-0.716-0.16-1.265-0.479-1.644c-0.318-0.382-0.775-0.571-1.369-0.571c-0.604,0-1.084,0.196-1.441,0.588
				C323.076,181.4,322.864,181.943,322.801,182.637z"/>
			<path fill="#666666" d="M329.405,181.448c0-0.61,0.248-1.095,0.744-1.446s1.176-0.529,2.041-0.529
				c0.803,0,1.586,0.163,2.352,0.491l-0.396,0.925c-0.75-0.312-1.428-0.467-2.037-0.467c-0.539,0-0.943,0.085-1.219,0.254
				s-0.412,0.401-0.412,0.698c0,0.201,0.053,0.371,0.154,0.515c0.104,0.143,0.27,0.274,0.496,0.403
				c0.229,0.129,0.668,0.313,1.314,0.556c0.891,0.324,1.486,0.649,1.793,0.979c0.307,0.328,0.459,0.741,0.459,1.239
				c0,0.693-0.258,1.229-0.773,1.604c-0.518,0.376-1.242,0.563-2.178,0.563c-0.99,0-1.764-0.154-2.318-0.465v-1.047
				c0.357,0.184,0.746,0.325,1.156,0.432c0.41,0.104,0.811,0.156,1.189,0.156c0.594,0,1.051-0.095,1.371-0.283
				c0.318-0.188,0.48-0.479,0.48-0.867c0-0.291-0.129-0.541-0.381-0.75c-0.254-0.207-0.748-0.452-1.482-0.735
				c-0.697-0.261-1.193-0.487-1.486-0.683c-0.293-0.193-0.51-0.414-0.652-0.661C329.475,182.087,329.405,181.792,329.405,181.448z"
				/>
		</g>
	</g>
	<g>
		<rect x="8.907" y="174.211" fill="#0FAAAA" width="14.217" height="14.217"/>
		<g>
			<path fill="#666666" d="M28.635,182.087c0-1.028,0.189-1.932,0.57-2.706c0.382-0.771,0.936-1.37,1.661-1.789
				c0.727-0.419,1.582-0.629,2.565-0.629c1.049,0,1.965,0.189,2.748,0.573l-0.491,0.998c-0.757-0.354-1.514-0.532-2.271-0.532
				c-1.098,0-1.965,0.364-2.601,1.098c-0.637,0.729-0.954,1.729-0.954,3.002c0,1.307,0.308,2.315,0.919,3.027
				c0.613,0.713,1.487,1.069,2.622,1.069c0.696,0,1.493-0.125,2.386-0.377v1.021c-0.692,0.263-1.547,0.394-2.563,0.394
				c-1.473,0-2.605-0.446-3.401-1.342C29.031,185.002,28.635,183.732,28.635,182.087z"/>
			<path fill="#666666" d="M37.255,185.036c0-1.511,1.211-2.302,3.635-2.373l1.272-0.041v-0.472c0-0.596-0.126-1.034-0.379-1.316
				c-0.252-0.284-0.655-0.427-1.211-0.427c-0.623,0-1.328,0.192-2.115,0.582l-0.353-0.871c0.368-0.197,0.772-0.354,1.213-0.466
				c0.439-0.11,0.88-0.168,1.322-0.168c0.893,0,1.554,0.197,1.982,0.595c0.431,0.397,0.646,1.032,0.646,1.907v5.113h-0.842
				l-0.227-1.055h-0.055c-0.373,0.464-0.745,0.779-1.116,0.943s-0.833,0.246-1.39,0.246c-0.745,0-1.331-0.189-1.755-0.572
				C37.467,186.282,37.255,185.741,37.255,185.036z M38.457,185.051c0,0.412,0.124,0.727,0.372,0.94s0.596,0.321,1.041,0.321
				c0.705,0,1.26-0.192,1.661-0.584c0.403-0.389,0.604-0.934,0.604-1.635v-0.68l-1.133,0.048c-0.899,0.032-1.551,0.173-1.948,0.423
				C38.656,184.136,38.457,184.523,38.457,185.051z"/>
			<path fill="#666666" d="M45.602,187.102v-7.492h0.923l0.186,1.012h0.055c0.231-0.363,0.559-0.646,0.979-0.848
				c0.42-0.203,0.887-0.301,1.401-0.301c0.901,0,1.581,0.217,2.036,0.651c0.456,0.437,0.685,1.132,0.685,2.089v4.889h-1.135v-4.855
				c0-0.612-0.14-1.068-0.417-1.37c-0.278-0.302-0.714-0.452-1.307-0.452c-0.784,0-1.357,0.212-1.724,0.637
				c-0.364,0.426-0.547,1.127-0.547,2.104v3.938L45.602,187.102L45.602,187.102z"/>
			<path fill="#666666" d="M53.777,183.402c0-1.254,0.3-2.223,0.898-2.905c0.6-0.683,1.457-1.024,2.573-1.024
				c0.36,0,0.721,0.039,1.08,0.116c0.36,0.077,0.644,0.169,0.849,0.272l-0.35,0.964c-0.25-0.101-0.523-0.185-0.819-0.25
				c-0.296-0.064-0.559-0.099-0.786-0.099c-1.521,0-2.282,0.972-2.282,2.912c0,0.92,0.187,1.627,0.557,2.118
				c0.371,0.492,0.923,0.737,1.651,0.737c0.625,0,1.265-0.135,1.921-0.402v1.006c-0.501,0.26-1.132,0.389-1.895,0.389
				c-1.084,0-1.922-0.334-2.513-1.002C54.072,185.568,53.777,184.624,53.777,183.402z"/>
			<path fill="#666666" d="M60.442,183.416c0-1.208,0.296-2.167,0.889-2.878c0.594-0.711,1.39-1.065,2.39-1.065
				c0.937,0,1.677,0.309,2.222,0.926s0.816,1.434,0.816,2.443v0.719h-5.153c0.021,0.881,0.244,1.547,0.667,2.002
				c0.422,0.457,1.017,0.686,1.783,0.686c0.805,0,1.6-0.17,2.386-0.506v1.012c-0.4,0.173-0.778,0.298-1.136,0.372
				c-0.355,0.075-0.786,0.112-1.291,0.112c-1.104,0-1.978-0.336-2.614-1.012C60.762,185.551,60.442,184.614,60.442,183.416z
				 M61.632,182.637h3.924c0-0.716-0.159-1.265-0.479-1.644c-0.318-0.382-0.775-0.571-1.37-0.571c-0.603,0-1.083,0.196-1.44,0.588
				C61.907,181.4,61.696,181.943,61.632,182.637z"/>
			<path fill="#666666" d="M68.714,187.102v-7.492h0.923l0.14,1.395h0.06c0.278-0.488,0.613-0.865,1.006-1.133
				c0.393-0.266,0.822-0.396,1.292-0.396c0.333,0,0.631,0.026,0.896,0.082l-0.157,1.06c-0.31-0.067-0.583-0.103-0.819-0.103
				c-0.605,0-1.125,0.245-1.556,0.736c-0.431,0.492-0.646,1.104-0.646,1.837v4.017L68.714,187.102L68.714,187.102z"/>
		</g>
	</g>
	<g>
		<rect x="126.405" y="174.211" fill="#DC2F82" width="14.217" height="14.217"/>
		<g>
			<path fill="#666666" d="M145.827,182.087c0-1.028,0.189-1.932,0.57-2.706c0.382-0.771,0.936-1.37,1.661-1.789
				c0.727-0.419,1.582-0.629,2.565-0.629c1.048,0,1.964,0.189,2.748,0.573l-0.492,0.998c-0.756-0.354-1.513-0.532-2.271-0.532
				c-1.098,0-1.965,0.364-2.601,1.098c-0.637,0.729-0.954,1.729-0.954,3.002c0,1.307,0.308,2.315,0.919,3.027
				c0.612,0.713,1.486,1.069,2.622,1.069c0.696,0,1.492-0.125,2.386-0.377v1.021c-0.692,0.263-1.547,0.394-2.563,0.394
				c-1.472,0-2.604-0.446-3.4-1.342C146.224,185.002,145.827,183.732,145.827,182.087z"/>
			<path fill="#666666" d="M154.912,177.577c0-0.261,0.06-0.449,0.176-0.57c0.118-0.12,0.266-0.182,0.441-0.182
				c0.196,0,0.365,0.063,0.508,0.186c0.143,0.123,0.214,0.313,0.214,0.566s-0.07,0.444-0.214,0.571
				c-0.144,0.125-0.313,0.188-0.508,0.188c-0.177,0-0.324-0.063-0.441-0.188S154.912,177.833,154.912,177.577z M155.008,187.102
				v-7.492h1.039v7.492H155.008z"/>
			<path fill="#666666" d="M158.549,187.102v-7.492h0.924l0.14,1.395h0.059c0.279-0.488,0.614-0.865,1.007-1.133
				c0.393-0.266,0.822-0.396,1.292-0.396c0.333,0,0.631,0.026,0.896,0.082l-0.157,1.06c-0.311-0.067-0.583-0.103-0.819-0.103
				c-0.605,0-1.125,0.245-1.556,0.736c-0.431,0.492-0.646,1.104-0.646,1.837v4.017L158.549,187.102L158.549,187.102z"/>
			<path fill="#666666" d="M163.567,183.402c0-1.254,0.301-2.223,0.898-2.905c0.6-0.683,1.457-1.024,2.574-1.024
				c0.359,0,0.72,0.039,1.08,0.116c0.359,0.077,0.644,0.169,0.848,0.272l-0.349,0.964c-0.25-0.101-0.523-0.185-0.82-0.25
				c-0.296-0.064-0.558-0.099-0.785-0.099c-1.521,0-2.283,0.972-2.283,2.912c0,0.92,0.187,1.627,0.558,2.118
				c0.371,0.492,0.922,0.737,1.65,0.737c0.625,0,1.266-0.135,1.921-0.402v1.006c-0.501,0.26-1.132,0.389-1.895,0.389
				c-1.084,0-1.922-0.334-2.512-1.002C163.862,185.568,163.567,184.624,163.567,183.402z"/>
			<path fill="#666666" d="M170.567,184.51v-4.9h1.162v4.859c0,0.61,0.14,1.065,0.416,1.367c0.277,0.301,0.712,0.45,1.305,0.45
				c0.781,0,1.354-0.213,1.716-0.644c0.36-0.429,0.542-1.127,0.542-2.099v-3.938h1.135v7.492h-0.923l-0.175-1.005h-0.064
				c-0.23,0.369-0.554,0.651-0.966,0.849c-0.412,0.195-0.881,0.293-1.408,0.293c-0.916,0-1.602-0.217-2.057-0.647
				C170.794,186.155,170.567,185.462,170.567,184.51z"/>
			<path fill="#666666" d="M179.241,187.102v-10.638h1.135v10.638H179.241z"/>
			<path fill="#666666" d="M182.221,185.036c0-1.511,1.211-2.302,3.636-2.373l1.272-0.041v-0.472c0-0.596-0.126-1.034-0.379-1.316
				c-0.252-0.284-0.656-0.427-1.211-0.427c-0.623,0-1.328,0.192-2.115,0.582l-0.353-0.871c0.368-0.197,0.771-0.354,1.213-0.466
				c0.438-0.11,0.88-0.168,1.322-0.168c0.893,0,1.554,0.197,1.982,0.595c0.431,0.397,0.646,1.032,0.646,1.907v5.113h-0.842
				l-0.227-1.055h-0.055c-0.373,0.464-0.745,0.779-1.116,0.943s-0.833,0.246-1.39,0.246c-0.745,0-1.331-0.189-1.755-0.572
				C182.433,186.282,182.221,185.741,182.221,185.036z M183.425,185.051c0,0.412,0.124,0.727,0.372,0.94s0.595,0.321,1.041,0.321
				c0.705,0,1.259-0.192,1.661-0.584c0.403-0.389,0.604-0.934,0.604-1.635v-0.68l-1.134,0.048c-0.898,0.032-1.55,0.173-1.947,0.423
				C183.624,184.136,183.425,184.523,183.425,185.051z"/>
			<path fill="#666666" d="M189.577,180.489v-0.548l1.072-0.472l0.479-1.601h0.656v1.736h2.174v0.883h-2.174v4.42
				c0,0.451,0.105,0.799,0.32,1.041s0.509,0.361,0.883,0.361c0.2,0,0.394-0.015,0.581-0.045c0.187-0.027,0.335-0.062,0.442-0.092
				v0.856c-0.123,0.06-0.304,0.105-0.543,0.146c-0.238,0.039-0.455,0.059-0.646,0.059c-1.449,0-2.175-0.765-2.175-2.289v-4.457
				L189.577,180.489L189.577,180.489z"/>
			<path fill="#666666" d="M195.093,183.341c0-1.219,0.305-2.169,0.913-2.85c0.609-0.681,1.454-1.021,2.536-1.021
				c1.045,0,1.875,0.349,2.491,1.044c0.615,0.696,0.923,1.639,0.923,2.825c0,1.224-0.308,2.179-0.92,2.866
				c-0.613,0.688-1.46,1.029-2.542,1.029c-0.668,0-1.262-0.156-1.779-0.474c-0.518-0.313-0.918-0.768-1.2-1.354
				C195.234,184.818,195.093,184.131,195.093,183.341z M196.256,183.341c0,0.959,0.191,1.689,0.575,2.191
				c0.383,0.504,0.947,0.754,1.69,0.754s1.31-0.25,1.693-0.75s0.579-1.231,0.579-2.195c0-0.955-0.192-1.68-0.579-2.176
				c-0.386-0.495-0.955-0.743-1.708-0.743c-0.744,0-1.306,0.244-1.684,0.733S196.256,182.372,196.256,183.341z"/>
			<path fill="#666666" d="M203.967,187.102v-7.492h0.923l0.141,1.395h0.059c0.279-0.488,0.614-0.865,1.006-1.133
				c0.394-0.266,0.823-0.396,1.292-0.396c0.333,0,0.631,0.026,0.896,0.082l-0.157,1.06c-0.311-0.067-0.583-0.103-0.82-0.103
				c-0.604,0-1.125,0.245-1.555,0.736c-0.431,0.492-0.646,1.104-0.646,1.837v4.017L203.967,187.102L203.967,187.102z"/>
			<path fill="#666666" d="M208.492,179.607h1.217l1.641,4.271c0.36,0.975,0.583,1.68,0.671,2.11h0.056
				c0.059-0.231,0.184-0.63,0.373-1.191c0.188-0.563,0.808-2.292,1.854-5.188h1.218l-3.221,8.531
				c-0.318,0.842-0.689,1.439-1.118,1.795c-0.426,0.353-0.947,0.528-1.567,0.528c-0.348,0-0.688-0.039-1.025-0.116v-0.916
				c0.25,0.055,0.531,0.082,0.841,0.082c0.779,0,1.335-0.438,1.668-1.313l0.417-1.064L208.492,179.607z"/>
		</g>
	</g>
	<g>
		<g>
			<rect x="396.422" y="174.211" fill="#CAE4E4" width="14.216" height="14.217"/>
			<g>
				<path fill="#666666" d="M416.571,182.083c0-1.629,0.399-2.894,1.202-3.789c0.804-0.896,1.941-1.346,3.418-1.346
					c1.438,0,2.559,0.457,3.363,1.368c0.808,0.912,1.21,2.173,1.21,3.778c0,1.599-0.403,2.854-1.214,3.77
					c-0.81,0.916-1.935,1.372-3.373,1.372c-1.473,0-2.606-0.448-3.408-1.35C416.972,184.989,416.571,183.723,416.571,182.083z
					 M417.802,182.098c0,1.354,0.288,2.383,0.865,3.084c0.575,0.7,1.414,1.053,2.512,1.053c1.106,0,1.942-0.352,2.509-1.049
					s0.849-1.729,0.849-3.088c0-1.348-0.28-2.369-0.846-3.064c-0.563-0.695-1.395-1.043-2.498-1.043
					c-1.105,0-1.948,0.351-2.523,1.051C418.09,179.739,417.802,180.759,417.802,182.098z"/>
				<path fill="#666666" d="M426.832,180.489v-0.548l1.072-0.472l0.479-1.601h0.656v1.736h2.174v0.883h-2.174v4.42
					c0,0.451,0.105,0.799,0.32,1.041c0.214,0.242,0.509,0.361,0.882,0.361c0.201,0,0.396-0.015,0.581-0.045
					c0.188-0.027,0.335-0.062,0.443-0.092v0.856c-0.123,0.06-0.305,0.105-0.543,0.146c-0.239,0.038-0.455,0.059-0.646,0.059
					c-1.448,0-2.174-0.765-2.174-2.289v-4.457L426.832,180.489L426.832,180.489z"/>
				<path fill="#666666" d="M432.766,187.102v-10.638h1.135v3.22c0,0.389-0.019,0.709-0.055,0.965h0.068
					c0.224-0.359,0.54-0.645,0.953-0.853c0.412-0.207,0.884-0.312,1.411-0.312c0.916,0,1.604,0.218,2.063,0.651
					c0.457,0.438,0.688,1.128,0.688,2.075v4.889h-1.136v-4.848c0-0.609-0.14-1.066-0.417-1.367
					c-0.276-0.301-0.713-0.451-1.306-0.451c-0.788,0-1.364,0.215-1.727,0.644c-0.362,0.43-0.545,1.131-0.545,2.104v3.918
					L432.766,187.102L432.766,187.102z"/>
				<path fill="#666666" d="M440.941,183.416c0-1.208,0.297-2.167,0.892-2.878c0.593-0.711,1.389-1.065,2.389-1.065
					c0.937,0,1.676,0.309,2.221,0.926c0.546,0.617,0.817,1.434,0.817,2.443v0.719h-5.154c0.022,0.881,0.245,1.547,0.667,2.002
					c0.424,0.457,1.02,0.686,1.785,0.686c0.805,0,1.6-0.17,2.385-0.506v1.012c-0.398,0.173-0.776,0.298-1.135,0.372
					c-0.356,0.075-0.787,0.112-1.291,0.112c-1.104,0-1.977-0.336-2.615-1.012S440.941,184.614,440.941,183.416z M442.131,182.637
					h3.924c0-0.716-0.159-1.265-0.479-1.644c-0.318-0.382-0.774-0.571-1.368-0.571c-0.604,0-1.084,0.196-1.441,0.588
					C442.405,181.4,442.195,181.943,442.131,182.637z"/>
				<path fill="#666666" d="M449.213,187.102v-7.492h0.923l0.139,1.395h0.061c0.278-0.488,0.612-0.865,1.006-1.133
					c0.393-0.266,0.822-0.396,1.292-0.396c0.333,0,0.632,0.026,0.896,0.082l-0.156,1.06c-0.312-0.067-0.584-0.103-0.82-0.103
					c-0.605,0-1.124,0.245-1.557,0.736c-0.431,0.492-0.646,1.104-0.646,1.837v4.017L449.213,187.102L449.213,187.102z"/>
				<path fill="#666666" d="M454.448,181.448c0-0.61,0.248-1.095,0.743-1.446c0.497-0.354,1.178-0.529,2.042-0.529
					c0.803,0,1.585,0.163,2.353,0.491l-0.396,0.925c-0.75-0.312-1.429-0.467-2.036-0.467c-0.539,0-0.944,0.085-1.221,0.254
					c-0.274,0.169-0.411,0.401-0.411,0.698c0,0.201,0.052,0.371,0.154,0.515c0.104,0.143,0.269,0.274,0.496,0.403
					c0.229,0.129,0.667,0.313,1.315,0.556c0.889,0.324,1.484,0.649,1.791,0.979c0.308,0.328,0.46,0.741,0.46,1.239
					c0,0.693-0.26,1.229-0.773,1.604c-0.519,0.376-1.242,0.563-2.177,0.563c-0.991,0-1.767-0.154-2.319-0.465v-1.047
					c0.358,0.184,0.745,0.325,1.156,0.432c0.411,0.104,0.809,0.156,1.189,0.156c0.595,0,1.052-0.095,1.37-0.283
					c0.319-0.188,0.479-0.479,0.479-0.867c0-0.291-0.127-0.541-0.381-0.75c-0.253-0.207-0.747-0.452-1.481-0.735
					c-0.699-0.261-1.195-0.487-1.487-0.683c-0.292-0.193-0.51-0.414-0.652-0.661C454.52,182.087,454.448,181.792,454.448,181.448z"
					/>
			</g>
		</g>
		<g>
			<path fill="#666666" d="M464.81,175.548l-1.14,1.499v0.024l1.811-0.24v0.815l-1.811-0.216v0.024l1.151,1.438l-0.756,0.433
				l-0.72-1.68h-0.023l-0.78,1.691l-0.684-0.432l1.14-1.464v-0.023l-1.775,0.228v-0.815l1.764,0.228v-0.023l-1.128-1.464
				l0.731-0.419l0.744,1.667h0.023l0.732-1.68L464.81,175.548z"/>
		</g>
	</g>
</g>
</svg>
