<?xml version="1.0" encoding="utf-8"?>
<!-- Generator: Adobe Illustrator 16.0.0, SVG Export Plug-In . SVG Version: 6.00 Build 0)  -->
<!DOCTYPE svg PUBLIC "-//W3C//DTD SVG 1.1//EN" "http://www.w3.org/Graphics/SVG/1.1/DTD/svg11.dtd">
<svg version="1.1" id="Capa_1" xmlns="http://www.w3.org/2000/svg" xmlns:xlink="http://www.w3.org/1999/xlink" x="0px" y="0px"
	 width="477px" height="198.425px" viewBox="0 0 477 198.425" enable-background="new 0 0 477 198.425" xml:space="preserve">
<g id="Capa_1_1_">
</g>
<g>
	
		<line fill="none" stroke="#666666" stroke-width="0.5" stroke-miterlimit="10" x1="31.12" y1="139.537" x2="453.378" y2="139.537"/>
	<g>
		
			<line fill="none" stroke="#CCCCCC" stroke-width="0.5" stroke-miterlimit="10" x1="231.331" y1="145.203" x2="231.331" y2="19.535"/>
		
			<line fill="none" stroke="#CCCCCC" stroke-width="0.5" stroke-miterlimit="10" x1="432.578" y1="145.203" x2="432.578" y2="19.535"/>
	</g>
	<g>
		<path fill="#666666" d="M23.622,151.57c0-1.488,0.23-2.598,0.696-3.318c0.469-0.721,1.181-1.082,2.137-1.082
			c0.929,0,1.634,0.377,2.113,1.129c0.48,0.756,0.726,1.848,0.726,3.273c0,1.479-0.232,2.588-0.699,3.316
			c-0.467,0.73-1.18,1.098-2.14,1.098c-0.928,0-1.628-0.375-2.11-1.121C23.865,154.115,23.622,153.018,23.622,151.57z
			 M24.618,151.57c0,1.244,0.146,2.148,0.438,2.717c0.293,0.566,0.759,0.854,1.397,0.854c0.646,0,1.113-0.287,1.404-0.861
			c0.291-0.572,0.438-1.479,0.438-2.701c0-1.229-0.146-2.127-0.438-2.697s-0.759-0.855-1.404-0.855
			c-0.643,0-1.104,0.279-1.397,0.846C24.765,149.425,24.618,150.328,24.618,151.57z"/>
		<path fill="#666666" d="M30.495,149.854c0-0.886,0.145-1.554,0.433-2.002c0.289-0.446,0.717-0.672,1.281-0.672
			c0.563,0,0.997,0.229,1.3,0.694c0.305,0.465,0.455,1.125,0.455,1.979c0,0.895-0.147,1.564-0.445,2.021
			c-0.298,0.455-0.73,0.685-1.31,0.685c-0.542,0-0.963-0.231-1.267-0.697C30.646,151.396,30.495,150.727,30.495,149.854z
			 M31.286,149.854c0,0.666,0.069,1.164,0.217,1.496c0.146,0.334,0.38,0.5,0.706,0.5c0.644,0,0.964-0.666,0.964-1.996
			c0-1.326-0.32-1.987-0.964-1.987c-0.325,0-0.563,0.164-0.706,0.493C31.36,148.689,31.286,149.188,31.286,149.854z M32.01,155.869
			l4.739-8.566h0.861l-4.736,8.566H32.01z M35.641,153.289c0-0.887,0.146-1.555,0.437-2.002c0.29-0.449,0.718-0.676,1.283-0.676
			c0.555,0,0.981,0.229,1.292,0.688c0.312,0.459,0.466,1.121,0.466,1.988c0,0.887-0.148,1.56-0.446,2.014
			c-0.297,0.455-0.732,0.685-1.312,0.685c-0.552,0-0.978-0.229-1.271-0.694C35.788,154.824,35.641,154.158,35.641,153.289z
			 M36.432,153.289c0,0.668,0.071,1.166,0.217,1.494c0.146,0.328,0.385,0.492,0.711,0.492c0.329,0,0.572-0.16,0.729-0.486
			c0.157-0.324,0.235-0.824,0.235-1.5c0-0.666-0.078-1.162-0.235-1.48c-0.155-0.322-0.398-0.48-0.729-0.48s-0.563,0.158-0.711,0.48
			C36.503,152.126,36.432,152.623,36.432,153.289z"/>
	</g>
	<g>
		<path fill="#666666" d="M222.367,155.518v-0.938c0.271,0.174,0.609,0.313,1.02,0.412c0.406,0.098,0.808,0.146,1.201,0.146
			c0.688,0,1.222-0.16,1.604-0.48c0.384-0.324,0.57-0.791,0.57-1.402c0-1.191-0.729-1.787-2.199-1.787
			c-0.371,0-0.867,0.057-1.486,0.168l-0.507-0.32l0.325-4.008h4.264v0.893h-3.433l-0.217,2.576c0.449-0.082,0.896-0.123,1.342-0.123
			c0.903,0,1.613,0.225,2.132,0.666c0.521,0.445,0.776,1.055,0.776,1.826c0,0.889-0.282,1.584-0.847,2.09
			c-0.565,0.506-1.346,0.758-2.335,0.758C223.612,155.986,222.874,155.83,222.367,155.518z"/>
		<path fill="#666666" d="M229.046,151.57c0-1.488,0.23-2.598,0.699-3.318c0.466-0.721,1.178-1.082,2.134-1.082
			c0.929,0,1.634,0.377,2.116,1.129c0.479,0.756,0.723,1.848,0.723,3.273c0,1.479-0.232,2.588-0.699,3.316
			c-0.467,0.73-1.18,1.098-2.14,1.098c-0.925,0-1.628-0.375-2.11-1.121C229.287,154.115,229.046,153.018,229.046,151.57z
			 M230.042,151.57c0,1.244,0.146,2.148,0.438,2.717c0.293,0.566,0.763,0.854,1.398,0.854c0.646,0,1.116-0.287,1.407-0.861
			c0.291-0.572,0.436-1.479,0.436-2.701c0-1.229-0.146-2.127-0.436-2.697c-0.291-0.57-0.762-0.855-1.407-0.855
			c-0.643,0-1.105,0.279-1.398,0.846C230.188,149.425,230.042,150.328,230.042,151.57z"/>
		<path fill="#666666" d="M235.919,149.854c0-0.886,0.144-1.554,0.433-2.002c0.289-0.446,0.717-0.672,1.281-0.672
			c0.563,0,0.997,0.229,1.3,0.694c0.305,0.465,0.455,1.125,0.455,1.979c0,0.895-0.146,1.564-0.445,2.021
			c-0.298,0.455-0.73,0.685-1.31,0.685c-0.542,0-0.963-0.231-1.264-0.697C236.07,151.396,235.919,150.727,235.919,149.854z
			 M236.71,149.854c0,0.666,0.072,1.164,0.217,1.496c0.146,0.334,0.38,0.5,0.706,0.5c0.644,0,0.964-0.666,0.964-1.996
			c0-1.326-0.32-1.987-0.964-1.987c-0.325,0-0.563,0.164-0.706,0.493S236.71,149.188,236.71,149.854z M237.433,155.869l4.738-8.566
			h0.865l-4.74,8.566H237.433z M241.064,153.289c0-0.887,0.146-1.555,0.438-2.002c0.29-0.449,0.719-0.676,1.285-0.676
			c0.553,0,0.979,0.229,1.292,0.688c0.31,0.459,0.464,1.121,0.464,1.988c0,0.887-0.148,1.56-0.447,2.014
			c-0.297,0.455-0.731,0.685-1.309,0.685c-0.554,0-0.979-0.229-1.273-0.694C241.213,154.824,241.064,154.158,241.064,153.289z
			 M241.855,153.289c0,0.668,0.072,1.166,0.221,1.494c0.145,0.328,0.383,0.492,0.711,0.492s0.568-0.16,0.729-0.486
			c0.158-0.324,0.236-0.824,0.236-1.5c0-0.666-0.078-1.162-0.236-1.48c-0.156-0.322-0.396-0.48-0.729-0.48
			c-0.328,0-0.566,0.158-0.711,0.48C241.928,152.126,241.855,152.623,241.855,153.289z"/>
	</g>
	<g>
		<path fill="#666666" d="M421.252,149.055l2.27-1.753h0.842v8.566h-0.974v-6.104c0-0.509,0.018-0.986,0.048-1.438
			c-0.082,0.082-0.174,0.168-0.274,0.258c-0.102,0.09-0.563,0.471-1.396,1.144L421.252,149.055z"/>
		<path fill="#666666" d="M427.608,151.57c0-1.488,0.233-2.598,0.699-3.318c0.466-0.719,1.178-1.082,2.134-1.082
			c0.93,0,1.635,0.377,2.116,1.129c0.479,0.756,0.724,1.848,0.724,3.273c0,1.479-0.23,2.588-0.699,3.316
			c-0.467,0.73-1.18,1.098-2.14,1.098c-0.926,0-1.629-0.375-2.11-1.121C427.849,154.115,427.608,153.018,427.608,151.57z
			 M428.604,151.57c0,1.244,0.146,2.148,0.438,2.717c0.295,0.566,0.761,0.854,1.396,0.854c0.647,0,1.116-0.287,1.406-0.861
			c0.291-0.572,0.438-1.479,0.438-2.701c0-1.229-0.146-2.127-0.438-2.697c-0.29-0.57-0.759-0.855-1.406-0.855
			c-0.64,0-1.104,0.279-1.396,0.846C428.75,149.425,428.604,150.328,428.604,151.57z"/>
		<path fill="#666666" d="M434.47,151.57c0-1.488,0.23-2.598,0.699-3.318c0.466-0.721,1.178-1.082,2.134-1.082
			c0.929,0,1.634,0.377,2.116,1.129c0.479,0.756,0.723,1.848,0.723,3.273c0,1.479-0.232,2.588-0.698,3.316
			c-0.468,0.73-1.181,1.098-2.141,1.098c-0.925,0-1.628-0.375-2.109-1.121C434.711,154.115,434.47,153.018,434.47,151.57z
			 M435.466,151.57c0,1.244,0.146,2.148,0.438,2.717c0.293,0.566,0.759,0.854,1.397,0.854c0.646,0,1.114-0.287,1.403-0.861
			c0.291-0.572,0.438-1.479,0.438-2.701c0-1.229-0.146-2.127-0.438-2.697c-0.289-0.57-0.759-0.855-1.403-0.855
			c-0.643,0-1.104,0.279-1.397,0.846C435.612,149.425,435.466,150.328,435.466,151.57z"/>
		<path fill="#666666" d="M441.343,149.854c0-0.886,0.145-1.554,0.434-2.002c0.288-0.446,0.716-0.672,1.28-0.672
			c0.563,0,0.997,0.229,1.301,0.694s0.454,1.125,0.454,1.979c0,0.895-0.147,1.564-0.445,2.021c-0.297,0.455-0.73,0.685-1.31,0.685
			c-0.543,0-0.963-0.231-1.264-0.697C441.49,151.396,441.343,150.727,441.343,149.854z M442.134,149.854
			c0,0.666,0.069,1.164,0.218,1.496c0.146,0.334,0.381,0.5,0.705,0.5c0.644,0,0.964-0.666,0.964-1.996
			c0-1.326-0.32-1.987-0.964-1.987c-0.324,0-0.563,0.164-0.705,0.493C442.203,148.689,442.134,149.188,442.134,149.854z
			 M442.858,155.869l4.737-8.566h0.864l-4.739,8.566H442.858z M446.488,153.289c0-0.887,0.146-1.555,0.438-2.002
			c0.289-0.449,0.718-0.676,1.285-0.676c0.552,0,0.979,0.229,1.291,0.688c0.31,0.459,0.464,1.121,0.464,1.988
			c0,0.887-0.148,1.56-0.446,2.014c-0.297,0.455-0.732,0.685-1.309,0.685c-0.555,0-0.979-0.229-1.273-0.694
			C446.636,154.824,446.488,154.158,446.488,153.289z M447.279,153.289c0,0.668,0.071,1.166,0.218,1.494
			c0.147,0.328,0.385,0.492,0.714,0.492c0.326,0,0.569-0.16,0.729-0.486c0.157-0.324,0.235-0.824,0.235-1.5
			c0-0.666-0.078-1.162-0.235-1.48c-0.155-0.322-0.398-0.48-0.729-0.48c-0.331,0-0.566,0.158-0.714,0.48
			C447.35,152.126,447.279,152.623,447.279,153.289z"/>
	</g>
	<rect x="31.12" y="39.598" fill="#449FA2" width="210.861" height="87.048"/>
	<rect x="241.985" y="39.598" fill="#DC2F82" width="95.097" height="87.048"/>
	<rect x="343.71" y="39.598" fill="#CAE4E4" width="88.868" height="87.048"/>
	<rect x="337.078" y="39.598" fill="#58585A" width="6.632" height="87.048"/>
	<line fill="none" stroke="#666666" stroke-width="0.5" stroke-miterlimit="10" x1="31.12" y1="145.203" x2="31.12" y2="19.535"/>
	<path fill="#FFFFFF" d="M280.706,88.368h-7.984v-1.68l2.867-2.898c0.85-0.87,1.404-1.473,1.664-1.809
		c0.262-0.336,0.449-0.647,0.563-0.934c0.115-0.286,0.172-0.583,0.172-0.891c0-0.458-0.125-0.8-0.379-1.023
		c-0.252-0.224-0.59-0.336-1.012-0.336c-0.441,0-0.871,0.102-1.289,0.305c-0.416,0.203-0.852,0.492-1.305,0.867l-1.313-1.555
		c0.563-0.479,1.029-0.817,1.398-1.016c0.371-0.198,0.771-0.351,1.211-0.457c0.438-0.106,0.928-0.16,1.469-0.16
		c0.715,0,1.344,0.13,1.894,0.391c0.547,0.261,0.973,0.625,1.271,1.094c0.303,0.469,0.453,1.005,0.453,1.609
		c0,0.526-0.092,1.02-0.277,1.48c-0.184,0.461-0.471,0.934-0.856,1.418c-0.389,0.484-1.07,1.175-2.051,2.07l-1.472,1.383v0.109
		h4.979L280.706,88.368L280.706,88.368z"/>
	<path fill="#FFFFFF" d="M290.097,86.001h-1.375v2.367h-2.359v-2.367h-4.875v-1.68l5.011-7.375h2.227v7.18h1.375L290.097,86.001
		L290.097,86.001z M286.363,84.126v-1.938c0-0.323,0.017-0.792,0.039-1.406c0.027-0.614,0.05-0.972,0.063-1.07h-0.063
		c-0.188,0.427-0.424,0.844-0.692,1.25l-2.097,3.164H286.363z"/>
	<path fill="#FFFFFF" d="M296.269,80.353c0,1.198-0.229,2.098-0.692,2.699c-0.466,0.602-1.146,0.902-2.039,0.902
		c-0.859,0-1.523-0.309-1.992-0.926c-0.469-0.617-0.703-1.509-0.703-2.676c0-2.38,0.896-3.57,2.695-3.57
		c0.881,0,1.557,0.309,2.024,0.926C296.034,78.325,296.269,79.207,296.269,80.353z M292.808,80.368c0,0.661,0.062,1.155,0.176,1.48
		c0.117,0.325,0.31,0.488,0.566,0.488c0.5,0,0.75-0.656,0.75-1.969c0-1.302-0.25-1.953-0.75-1.953c-0.26,0-0.449,0.16-0.566,0.48
		C292.867,79.214,292.808,79.707,292.808,80.368z M301.644,76.946l-6.336,11.422h-1.875l6.336-11.422H301.644z M304.269,84.915
		c0,1.192-0.23,2.09-0.695,2.691c-0.463,0.602-1.143,0.902-2.038,0.902c-0.857,0-1.521-0.309-1.99-0.926
		c-0.471-0.617-0.703-1.507-0.703-2.668c0-2.38,0.896-3.57,2.693-3.57c0.882,0,1.559,0.309,2.026,0.926
		C304.031,82.888,304.269,83.77,304.269,84.915z M300.808,84.931c0,0.661,0.06,1.155,0.176,1.48c0.117,0.325,0.31,0.488,0.566,0.488
		c0.5,0,0.75-0.656,0.75-1.969c0-1.302-0.25-1.953-0.75-1.953c-0.262,0-0.449,0.16-0.566,0.48S300.808,84.27,300.808,84.931z"/>
	<path fill="#003333" d="M384.865,88.368h-7.981v-1.68l2.867-2.898c0.85-0.87,1.401-1.473,1.661-1.809
		c0.265-0.336,0.449-0.647,0.563-0.934c0.115-0.286,0.172-0.583,0.172-0.891c0-0.458-0.125-0.8-0.379-1.023
		c-0.252-0.224-0.59-0.336-1.012-0.336c-0.441,0-0.871,0.102-1.289,0.305c-0.416,0.203-0.854,0.492-1.308,0.867l-1.313-1.555
		c0.563-0.479,1.029-0.817,1.396-1.016c0.37-0.198,0.772-0.351,1.212-0.457c0.438-0.106,0.929-0.16,1.47-0.16
		c0.715,0,1.344,0.13,1.891,0.391c0.547,0.261,0.975,0.625,1.273,1.094c0.303,0.469,0.453,1.005,0.453,1.609
		c0,0.526-0.095,1.02-0.277,1.48c-0.185,0.461-0.471,0.934-0.859,1.418c-0.387,0.484-1.067,1.175-2.051,2.07l-1.469,1.383v0.109
		h4.977L384.865,88.368L384.865,88.368z"/>
	<path fill="#003333" d="M394.001,88.368h-7.984v-1.68l2.867-2.898c0.85-0.87,1.401-1.473,1.664-1.809
		c0.262-0.336,0.446-0.647,0.563-0.934c0.115-0.286,0.172-0.583,0.172-0.891c0-0.458-0.125-0.8-0.379-1.023
		c-0.252-0.224-0.59-0.336-1.012-0.336c-0.441,0-0.871,0.102-1.289,0.305c-0.416,0.203-0.852,0.492-1.305,0.867l-1.313-1.555
		c0.563-0.479,1.029-0.817,1.398-1.016c0.371-0.198,0.771-0.351,1.211-0.457c0.438-0.106,0.928-0.16,1.469-0.16
		c0.715,0,1.344,0.13,1.891,0.391c0.55,0.261,0.976,0.625,1.273,1.094c0.303,0.469,0.453,1.005,0.453,1.609
		c0,0.526-0.092,1.02-0.277,1.48c-0.184,0.461-0.471,0.934-0.856,1.418c-0.389,0.484-1.07,1.175-2.054,2.07l-1.469,1.383v0.109
		h4.979L394.001,88.368L394.001,88.368z"/>
	<path fill="#003333" d="M400.431,80.353c0,1.198-0.23,2.098-0.695,2.699c-0.463,0.602-1.143,0.902-2.039,0.902
		c-0.856,0-1.521-0.309-1.992-0.926c-0.469-0.617-0.7-1.509-0.7-2.676c0-2.38,0.896-3.57,2.692-3.57c0.881,0,1.56,0.309,2.027,0.926
		C400.197,78.325,400.431,79.207,400.431,80.353z M396.97,80.368c0,0.661,0.059,1.155,0.176,1.48
		c0.117,0.325,0.307,0.488,0.566,0.488c0.5,0,0.75-0.656,0.75-1.969c0-1.302-0.25-1.953-0.75-1.953c-0.263,0-0.449,0.16-0.566,0.48
		S396.97,79.707,396.97,80.368z M405.806,76.946l-6.336,11.422h-1.875l6.336-11.422H405.806z M408.431,84.915
		c0,1.192-0.23,2.09-0.695,2.691c-0.463,0.602-1.143,0.902-2.039,0.902c-0.856,0-1.521-0.309-1.992-0.926
		c-0.469-0.617-0.7-1.507-0.7-2.668c0-2.38,0.896-3.57,2.692-3.57c0.881,0,1.56,0.309,2.027,0.926
		C408.197,82.888,408.431,83.77,408.431,84.915z M404.97,84.931c0,0.661,0.059,1.155,0.176,1.48
		c0.117,0.325,0.307,0.488,0.566,0.488c0.5,0,0.75-0.656,0.75-1.969c0-1.302-0.25-1.953-0.75-1.953c-0.263,0-0.449,0.16-0.566,0.48
		S404.97,84.27,404.97,84.931z"/>
	<path fill="#FFFFFF" d="M335.785,88.368h-7.981v-1.68l2.867-2.898c0.85-0.87,1.401-1.473,1.664-1.809
		c0.262-0.336,0.446-0.647,0.563-0.934c0.115-0.286,0.172-0.583,0.172-0.891c0-0.458-0.125-0.8-0.379-1.023
		c-0.252-0.224-0.59-0.336-1.012-0.336c-0.441,0-0.871,0.102-1.289,0.305c-0.416,0.203-0.854,0.492-1.305,0.867l-1.313-1.555
		c0.563-0.479,1.029-0.817,1.398-1.016c0.371-0.198,0.771-0.351,1.211-0.457c0.438-0.106,0.928-0.16,1.469-0.16
		c0.715,0,1.344,0.13,1.891,0.391c0.547,0.261,0.976,0.625,1.273,1.094c0.303,0.469,0.453,1.005,0.453,1.609
		c0,0.526-0.092,1.02-0.277,1.48c-0.184,0.461-0.471,0.934-0.859,1.418c-0.387,0.484-1.067,1.175-2.051,2.07l-1.469,1.383v0.109
		h4.977L335.785,88.368L335.785,88.368z"/>
	<path fill="#FFFFFF" d="M342.218,80.353c0,1.198-0.23,2.098-0.695,2.699c-0.463,0.602-1.143,0.902-2.039,0.902
		c-0.859,0-1.521-0.309-1.992-0.926c-0.469-0.617-0.703-1.509-0.703-2.676c0-2.38,0.898-3.57,2.695-3.57
		c0.881,0,1.557,0.309,2.027,0.926C341.984,78.325,342.218,79.207,342.218,80.353z M338.757,80.368c0,0.661,0.059,1.155,0.176,1.48
		c0.117,0.325,0.307,0.488,0.564,0.488c0.5,0,0.75-0.656,0.75-1.969c0-1.302-0.25-1.953-0.75-1.953c-0.261,0-0.447,0.16-0.564,0.48
		S338.757,79.707,338.757,80.368z M347.593,76.946l-6.336,11.422h-1.875l6.336-11.422H347.593z M350.218,84.915
		c0,1.192-0.23,2.09-0.695,2.691c-0.463,0.602-1.143,0.902-2.039,0.902c-0.859,0-1.521-0.309-1.992-0.926
		c-0.469-0.617-0.703-1.507-0.703-2.668c0-2.38,0.898-3.57,2.695-3.57c0.881,0,1.557,0.309,2.027,0.926
		C349.984,82.888,350.218,83.77,350.218,84.915z M346.757,84.931c0,0.661,0.059,1.155,0.176,1.48
		c0.117,0.325,0.307,0.488,0.564,0.488c0.5,0,0.75-0.656,0.75-1.969c0-1.302-0.25-1.953-0.75-1.953c-0.261,0-0.447,0.16-0.564,0.48
		S346.757,84.27,346.757,84.931z"/>
	<path fill="#FFFFFF" d="M134.872,81.071c1.104,0,1.98,0.31,2.637,0.93s0.979,1.469,0.979,2.547c0,1.276-0.394,2.258-1.18,2.945
		s-1.911,1.031-3.375,1.031c-1.271,0-2.297-0.206-3.078-0.617v-2.086c0.411,0.219,0.894,0.397,1.438,0.535s1.063,0.207,1.555,0.207
		c1.475,0,2.211-0.604,2.211-1.813c0-1.151-0.763-1.727-2.289-1.727c-0.273,0-0.581,0.027-0.914,0.082s-0.604,0.113-0.813,0.176
		l-0.961-0.516l0.43-5.82h6.195v2.047h-4.078l-0.211,2.242l0.271-0.055C134.01,81.107,134.404,81.071,134.872,81.071z"/>
	<path fill="#FFFFFF" d="M147.833,88.368h-7.984v-1.68l2.867-2.898c0.849-0.87,1.403-1.473,1.664-1.809s0.448-0.647,0.563-0.934
		c0.115-0.287,0.175-0.583,0.175-0.891c0-0.458-0.126-0.8-0.382-1.023c-0.253-0.223-0.59-0.336-1.012-0.336
		c-0.439,0-0.872,0.102-1.289,0.305s-0.852,0.492-1.305,0.867l-1.313-1.555c0.563-0.479,1.028-0.817,1.398-1.016
		c0.37-0.199,0.771-0.351,1.211-0.457s0.927-0.16,1.469-0.16c0.714,0,1.347,0.13,1.894,0.391c0.547,0.261,0.972,0.625,1.271,1.094
		c0.301,0.469,0.453,1.005,0.453,1.609c0,0.526-0.093,1.02-0.277,1.48c-0.184,0.46-0.472,0.934-0.856,1.418s-1.071,1.175-2.051,2.07
		l-1.472,1.383v0.109h4.979L147.833,88.368L147.833,88.368z"/>
	<path fill="#FFFFFF" d="M154.263,80.353c0,1.198-0.229,2.098-0.695,2.699c-0.464,0.601-1.144,0.902-2.039,0.902
		c-0.856,0-1.521-0.309-1.989-0.926c-0.472-0.617-0.703-1.509-0.703-2.676c0-2.38,0.896-3.57,2.692-3.57
		c0.883,0,1.559,0.309,2.027,0.926S154.263,79.207,154.263,80.353z M150.802,80.368c0,0.661,0.059,1.155,0.176,1.48
		c0.117,0.325,0.309,0.488,0.566,0.488c0.5,0,0.75-0.656,0.75-1.969c0-1.302-0.25-1.953-0.75-1.953c-0.261,0-0.449,0.16-0.566,0.48
		S150.802,79.707,150.802,80.368z M159.638,76.946l-6.336,11.422h-1.875l6.336-11.422H159.638z M162.263,84.915
		c0,1.192-0.229,2.09-0.695,2.691c-0.464,0.601-1.144,0.902-2.039,0.902c-0.856,0-1.521-0.309-1.989-0.926
		c-0.472-0.617-0.703-1.507-0.703-2.668c0-2.38,0.896-3.57,2.692-3.57c0.883,0,1.559,0.309,2.027,0.926
		S162.263,83.77,162.263,84.915z M158.802,84.931c0,0.661,0.059,1.155,0.176,1.48c0.117,0.325,0.309,0.488,0.566,0.488
		c0.5,0,0.75-0.656,0.75-1.969c0-1.302-0.25-1.953-0.75-1.953c-0.261,0-0.449,0.16-0.566,0.48S158.802,84.27,158.802,84.931z"/>
</g>
<g>
	<g>
		<rect x="267.221" y="174.21" fill="#58585A" width="14.217" height="14.217"/>
		<g>
			<path fill="#666666" d="M288.313,187.102v-9.994h1.162v9.994H288.313z"/>
			<path fill="#666666" d="M292.045,187.102v-7.492h0.924l0.186,1.013h0.057c0.229-0.363,0.559-0.646,0.979-0.849
				c0.418-0.198,0.889-0.301,1.398-0.301c0.902,0,1.582,0.217,2.037,0.651c0.455,0.437,0.686,1.131,0.686,2.088v4.89h-1.137v-4.854
				c0-0.613-0.139-1.067-0.416-1.371c-0.277-0.301-0.713-0.451-1.307-0.451c-0.783,0-1.357,0.213-1.725,0.638
				c-0.361,0.427-0.547,1.127-0.547,2.104v3.938L292.045,187.102L292.045,187.102z"/>
			<path fill="#666666" d="M298.676,189.376c0.313,0.092,0.625,0.138,0.93,0.138c0.355,0,0.617-0.097,0.783-0.291
				c0.166-0.19,0.25-0.488,0.25-0.886v-8.729h1.135v8.642c0,1.479-0.682,2.215-2.045,2.215c-0.434,0-0.781-0.057-1.053-0.17V189.376
				L298.676,189.376z M300.543,177.578c0-0.262,0.063-0.449,0.188-0.57c0.129-0.121,0.287-0.182,0.48-0.182
				c0.207,0,0.389,0.063,0.539,0.186c0.148,0.123,0.227,0.314,0.227,0.566s-0.074,0.443-0.227,0.57
				c-0.15,0.125-0.332,0.188-0.539,0.188c-0.191,0-0.354-0.063-0.48-0.188C300.606,178.023,300.543,177.833,300.543,177.578z"/>
			<path fill="#666666" d="M304.098,184.509v-4.899h1.162v4.858c0,0.611,0.139,1.066,0.416,1.367
				c0.275,0.301,0.713,0.451,1.303,0.451c0.783,0,1.355-0.213,1.719-0.646c0.361-0.431,0.543-1.127,0.543-2.101v-3.938h1.135v7.492
				h-0.924l-0.176-1.006h-0.063c-0.232,0.369-0.557,0.652-0.969,0.85c-0.41,0.195-0.881,0.293-1.406,0.293
				c-0.916,0-1.604-0.217-2.059-0.646C304.323,186.156,304.098,185.462,304.098,184.509z"/>
			<path fill="#666666" d="M312.772,187.102v-7.492h0.926l0.141,1.396h0.059c0.277-0.487,0.613-0.864,1.008-1.133
				c0.393-0.267,0.82-0.396,1.291-0.396c0.332,0,0.631,0.024,0.896,0.082l-0.156,1.062c-0.313-0.068-0.584-0.104-0.82-0.104
				c-0.604,0-1.123,0.243-1.555,0.735s-0.646,1.104-0.646,1.836v4.019L312.772,187.102L312.772,187.102z"/>
			<path fill="#666666" d="M318.391,177.578c0-0.262,0.059-0.449,0.178-0.57c0.117-0.121,0.268-0.182,0.439-0.182
				c0.195,0,0.367,0.063,0.51,0.186c0.145,0.123,0.213,0.314,0.213,0.566s-0.068,0.443-0.213,0.57
				c-0.143,0.125-0.313,0.188-0.51,0.188c-0.178,0-0.322-0.063-0.439-0.188C318.448,178.023,318.391,177.833,318.391,177.578z
				 M318.487,187.102v-7.492h1.039v7.492H318.487z"/>
			<path fill="#666666" d="M321.612,183.416c0-1.207,0.295-2.166,0.891-2.877c0.594-0.711,1.391-1.064,2.391-1.064
				c0.936,0,1.676,0.311,2.221,0.926c0.545,0.617,0.816,1.436,0.816,2.441v0.721h-5.152c0.021,0.881,0.244,1.547,0.666,2.002
				c0.424,0.457,1.02,0.688,1.785,0.688c0.805,0,1.6-0.17,2.385-0.506v1.012c-0.398,0.172-0.775,0.297-1.135,0.371
				c-0.355,0.076-0.787,0.111-1.291,0.111c-1.105,0-1.979-0.336-2.615-1.012C321.932,185.55,321.612,184.615,321.612,183.416z
				 M322.801,182.636h3.924c0-0.715-0.16-1.264-0.479-1.643c-0.316-0.384-0.773-0.572-1.367-0.572c-0.604,0-1.084,0.197-1.441,0.588
				C323.074,181.4,322.864,181.943,322.801,182.636z"/>
			<path fill="#666666" d="M329.405,181.449c0-0.611,0.248-1.096,0.744-1.447c0.496-0.351,1.176-0.527,2.041-0.527
				c0.803,0,1.586,0.162,2.352,0.49l-0.396,0.926c-0.75-0.313-1.428-0.469-2.037-0.469c-0.539,0-0.943,0.086-1.219,0.254
				c-0.276,0.171-0.412,0.402-0.412,0.699c0,0.201,0.053,0.371,0.154,0.516c0.104,0.145,0.27,0.273,0.496,0.402
				c0.229,0.129,0.668,0.313,1.313,0.557c0.891,0.322,1.486,0.648,1.793,0.979c0.307,0.328,0.459,0.74,0.459,1.238
				c0,0.693-0.258,1.229-0.771,1.604c-0.52,0.377-1.242,0.563-2.18,0.563c-0.988,0-1.764-0.153-2.316-0.465v-1.047
				c0.355,0.185,0.746,0.325,1.154,0.432c0.41,0.104,0.813,0.156,1.189,0.156c0.594,0,1.051-0.095,1.371-0.283
				c0.317-0.188,0.479-0.479,0.479-0.866c0-0.291-0.129-0.541-0.381-0.75c-0.254-0.207-0.748-0.453-1.48-0.736
				c-0.697-0.26-1.193-0.485-1.486-0.682c-0.293-0.193-0.51-0.414-0.652-0.662C329.475,182.087,329.405,181.792,329.405,181.449z"/>
		</g>
	</g>
	<g>
		<rect x="8.907" y="174.21" fill="#449FA2" width="14.217" height="14.217"/>
		<g>
			<path fill="#666666" d="M28.635,182.087c0-1.028,0.189-1.932,0.57-2.707c0.382-0.771,0.936-1.369,1.661-1.789
				c0.727-0.418,1.58-0.629,2.563-0.629c1.049,0,1.965,0.188,2.748,0.574l-0.491,0.998c-0.757-0.354-1.514-0.533-2.271-0.533
				c-1.1,0-1.965,0.365-2.603,1.099c-0.637,0.729-0.954,1.729-0.954,3.002c0,1.308,0.31,2.315,0.919,3.026
				c0.613,0.713,1.487,1.07,2.622,1.07c0.696,0,1.493-0.125,2.388-0.377v1.02c-0.692,0.264-1.547,0.395-2.563,0.395
				c-1.473,0-2.604-0.445-3.399-1.342C29.031,185.001,28.635,183.732,28.635,182.087z"/>
			<path fill="#666666" d="M37.255,185.037c0-1.512,1.211-2.303,3.635-2.373l1.272-0.041v-0.473c0-0.596-0.126-1.033-0.379-1.316
				c-0.254-0.283-0.655-0.426-1.213-0.426c-0.621,0-1.326,0.191-2.113,0.582l-0.354-0.871c0.368-0.197,0.772-0.354,1.213-0.467
				c0.439-0.109,0.88-0.168,1.322-0.168c0.895,0,1.554,0.197,1.982,0.596c0.431,0.396,0.646,1.031,0.646,1.906v5.113h-0.842
				l-0.229-1.055h-0.055c-0.373,0.463-0.745,0.779-1.116,0.941c-0.371,0.164-0.833,0.246-1.39,0.246
				c-0.745,0-1.331-0.188-1.755-0.57C37.467,186.283,37.255,185.742,37.255,185.037z M38.457,185.05
				c0,0.412,0.124,0.728,0.372,0.941c0.248,0.213,0.596,0.319,1.041,0.319c0.705,0,1.26-0.19,1.659-0.584
				c0.403-0.39,0.604-0.935,0.604-1.636v-0.68l-1.133,0.047c-0.899,0.033-1.551,0.174-1.948,0.424
				C38.656,184.136,38.457,184.523,38.457,185.05z"/>
			<path fill="#666666" d="M45.602,187.102v-7.492h0.923l0.188,1.013h0.055c0.231-0.363,0.561-0.646,0.979-0.849
				c0.42-0.203,0.887-0.301,1.399-0.301c0.901,0,1.581,0.217,2.036,0.651c0.456,0.437,0.687,1.131,0.687,2.088v4.89h-1.137v-4.854
				c0-0.613-0.14-1.067-0.417-1.371c-0.276-0.301-0.714-0.451-1.307-0.451c-0.784,0-1.357,0.213-1.724,0.638
				c-0.364,0.427-0.549,1.127-0.549,2.104v3.938L45.602,187.102L45.602,187.102z"/>
			<path fill="#666666" d="M53.777,183.402c0-1.254,0.302-2.223,0.898-2.904c0.6-0.684,1.457-1.023,2.573-1.023
				c0.358,0,0.721,0.037,1.08,0.115c0.358,0.076,0.644,0.168,0.849,0.271l-0.35,0.965c-0.25-0.102-0.523-0.186-0.819-0.25
				s-0.559-0.1-0.786-0.1c-1.521,0-2.282,0.973-2.282,2.912c0,0.92,0.188,1.627,0.559,2.117c0.371,0.492,0.923,0.738,1.649,0.738
				c0.625,0,1.267-0.137,1.921-0.402v1.006c-0.501,0.26-1.132,0.389-1.895,0.389c-1.084,0-1.922-0.334-2.513-1.002
				C54.072,185.568,53.777,184.625,53.777,183.402z"/>
			<path fill="#666666" d="M60.442,183.416c0-1.207,0.296-2.166,0.891-2.877c0.594-0.711,1.39-1.064,2.39-1.064
				c0.938,0,1.677,0.311,2.222,0.926c0.545,0.617,0.816,1.436,0.816,2.441v0.721h-5.153c0.021,0.881,0.244,1.547,0.667,2.002
				c0.422,0.457,1.019,0.688,1.783,0.688c0.805,0,1.601-0.17,2.386-0.506v1.012c-0.398,0.172-0.776,0.297-1.136,0.371
				c-0.354,0.076-0.786,0.111-1.291,0.111c-1.104,0-1.978-0.336-2.614-1.012C60.762,185.55,60.442,184.615,60.442,183.416z
				 M61.632,182.636h3.924c0-0.715-0.159-1.264-0.479-1.643c-0.318-0.384-0.775-0.572-1.37-0.572c-0.604,0-1.083,0.197-1.44,0.588
				C61.907,181.4,61.696,181.943,61.632,182.636z"/>
			<path fill="#666666" d="M68.714,187.102v-7.492h0.923l0.14,1.396h0.062c0.276-0.487,0.613-0.864,1.006-1.133
				c0.393-0.267,0.822-0.396,1.292-0.396c0.333,0,0.631,0.024,0.896,0.082l-0.156,1.062c-0.312-0.068-0.583-0.104-0.819-0.104
				c-0.604,0-1.125,0.243-1.556,0.735c-0.433,0.492-0.646,1.104-0.646,1.836v4.019L68.714,187.102L68.714,187.102z"/>
		</g>
	</g>
	<g>
		<rect x="126.405" y="174.21" fill="#DC2F82" width="14.219" height="14.217"/>
		<g>
			<path fill="#666666" d="M145.827,182.087c0-1.028,0.188-1.932,0.568-2.707c0.382-0.771,0.938-1.369,1.661-1.789
				c0.729-0.418,1.582-0.629,2.565-0.629c1.048,0,1.964,0.188,2.748,0.574l-0.492,0.998c-0.756-0.354-1.514-0.533-2.271-0.533
				c-1.098,0-1.965,0.365-2.601,1.099c-0.637,0.729-0.954,1.729-0.954,3.002c0,1.308,0.308,2.315,0.919,3.026
				c0.612,0.713,1.486,1.07,2.622,1.07c0.696,0,1.492-0.125,2.386-0.377v1.02c-0.69,0.264-1.547,0.395-2.563,0.395
				c-1.474,0-2.604-0.445-3.4-1.342C146.224,185.001,145.827,183.732,145.827,182.087z"/>
			<path fill="#666666" d="M154.912,177.578c0-0.262,0.06-0.449,0.176-0.57c0.118-0.121,0.266-0.182,0.439-0.182
				c0.196,0,0.365,0.063,0.51,0.186c0.143,0.123,0.214,0.314,0.214,0.566s-0.07,0.443-0.214,0.57
				c-0.146,0.125-0.313,0.188-0.51,0.188c-0.177,0-0.322-0.063-0.439-0.188S154.912,177.833,154.912,177.578z M155.008,187.102
				v-7.492h1.039v7.492H155.008z"/>
			<path fill="#666666" d="M158.549,187.102v-7.492h0.924l0.14,1.396h0.061c0.279-0.487,0.614-0.864,1.007-1.133
				c0.393-0.267,0.822-0.396,1.292-0.396c0.333,0,0.631,0.024,0.896,0.082l-0.157,1.062c-0.313-0.068-0.583-0.104-0.819-0.104
				c-0.604,0-1.125,0.243-1.556,0.735c-0.433,0.492-0.646,1.104-0.646,1.836v4.019L158.549,187.102L158.549,187.102z"/>
			<path fill="#666666" d="M163.567,183.402c0-1.254,0.303-2.223,0.898-2.904c0.6-0.684,1.457-1.023,2.574-1.023
				c0.357,0,0.72,0.037,1.08,0.115c0.357,0.076,0.644,0.168,0.848,0.271l-0.349,0.965c-0.25-0.102-0.523-0.186-0.82-0.25
				c-0.296-0.064-0.558-0.1-0.785-0.1c-1.521,0-2.283,0.973-2.283,2.912c0,0.92,0.188,1.627,0.56,2.117
				c0.371,0.492,0.922,0.738,1.648,0.738c0.625,0,1.268-0.137,1.921-0.402v1.006c-0.501,0.26-1.132,0.389-1.895,0.389
				c-1.084,0-1.922-0.334-2.512-1.002C163.862,185.568,163.567,184.625,163.567,183.402z"/>
			<path fill="#666666" d="M170.567,184.509v-4.899h1.162v4.858c0,0.611,0.142,1.066,0.416,1.367
				c0.277,0.301,0.712,0.451,1.307,0.451c0.779,0,1.354-0.213,1.716-0.646c0.358-0.431,0.542-1.127,0.542-2.101v-3.938h1.135v7.492
				h-0.923l-0.175-1.006h-0.064c-0.229,0.369-0.554,0.652-0.966,0.85c-0.412,0.195-0.881,0.293-1.408,0.293
				c-0.916,0-1.602-0.217-2.057-0.646C170.794,186.156,170.567,185.462,170.567,184.509z"/>
			<path fill="#666666" d="M179.241,187.102v-10.638h1.135v10.638H179.241z"/>
			<path fill="#666666" d="M182.221,185.037c0-1.512,1.211-2.303,3.636-2.373l1.272-0.041v-0.473c0-0.596-0.126-1.033-0.379-1.316
				c-0.252-0.283-0.656-0.426-1.211-0.426c-0.623,0-1.328,0.191-2.115,0.582l-0.354-0.871c0.368-0.197,0.771-0.354,1.215-0.467
				c0.438-0.109,0.88-0.168,1.32-0.168c0.895,0,1.556,0.197,1.982,0.596c0.431,0.396,0.646,1.031,0.646,1.906v5.113h-0.842
				l-0.227-1.055h-0.057c-0.373,0.463-0.744,0.779-1.114,0.941c-0.371,0.164-0.833,0.246-1.392,0.246
				c-0.745,0-1.331-0.188-1.755-0.57C182.433,186.283,182.221,185.742,182.221,185.037z M183.425,185.05
				c0,0.412,0.124,0.728,0.372,0.941c0.248,0.213,0.595,0.319,1.041,0.319c0.705,0,1.259-0.19,1.661-0.584
				c0.401-0.39,0.604-0.935,0.604-1.636v-0.68l-1.134,0.047c-0.898,0.033-1.55,0.174-1.947,0.424
				C183.624,184.136,183.425,184.523,183.425,185.05z"/>
			<path fill="#666666" d="M189.577,180.49v-0.549l1.07-0.473l0.479-1.6h0.656v1.734h2.174v0.883h-2.174v4.422
				c0,0.449,0.104,0.799,0.318,1.041c0.215,0.24,0.509,0.359,0.883,0.359c0.2,0,0.396-0.016,0.581-0.045
				c0.188-0.027,0.335-0.063,0.442-0.094v0.856c-0.123,0.06-0.304,0.104-0.543,0.146c-0.238,0.039-0.455,0.061-0.646,0.061
				c-1.447,0-2.175-0.766-2.175-2.289v-4.457L189.577,180.49L189.577,180.49z"/>
			<path fill="#666666" d="M195.093,183.341c0-1.219,0.305-2.17,0.913-2.85c0.607-0.683,1.454-1.021,2.536-1.021
				c1.045,0,1.875,0.349,2.491,1.044c0.613,0.696,0.923,1.639,0.923,2.825c0,1.224-0.31,2.179-0.92,2.865
				c-0.613,0.688-1.46,1.028-2.542,1.028c-0.668,0-1.264-0.155-1.779-0.476c-0.52-0.313-0.918-0.768-1.2-1.354
				C195.234,184.818,195.093,184.13,195.093,183.341z M196.256,183.341c0,0.959,0.189,1.689,0.575,2.191
				c0.383,0.504,0.945,0.754,1.688,0.754s1.312-0.25,1.693-0.75s0.579-1.231,0.579-2.195c0-0.955-0.192-1.68-0.579-2.176
				c-0.386-0.496-0.955-0.744-1.708-0.744c-0.744,0-1.306,0.244-1.686,0.733C196.444,181.644,196.256,182.373,196.256,183.341z"/>
			<path fill="#666666" d="M203.967,187.102v-7.492h0.923l0.141,1.396h0.061c0.279-0.487,0.614-0.864,1.006-1.133
				c0.396-0.267,0.823-0.396,1.292-0.396c0.333,0,0.631,0.024,0.896,0.082l-0.157,1.062c-0.313-0.068-0.583-0.104-0.82-0.104
				c-0.604,0-1.125,0.243-1.555,0.735c-0.433,0.492-0.646,1.104-0.646,1.836v4.019L203.967,187.102L203.967,187.102z"/>
			<path fill="#666666" d="M208.492,179.607h1.217l1.641,4.271c0.36,0.975,0.583,1.68,0.671,2.108h0.058
				c0.059-0.229,0.184-0.63,0.373-1.19c0.188-0.563,0.808-2.291,1.854-5.188h1.218l-3.221,8.531
				c-0.318,0.842-0.689,1.438-1.118,1.795c-0.426,0.354-0.947,0.526-1.565,0.526c-0.35,0-0.688-0.039-1.025-0.115v-0.915
				c0.25,0.055,0.531,0.081,0.841,0.081c0.779,0,1.335-0.438,1.668-1.313l0.417-1.064L208.492,179.607z"/>
		</g>
	</g>
	<g>
		<g>
			<rect x="396.422" y="174.21" fill="#CAE4E4" width="14.216" height="14.217"/>
			<g>
				<path fill="#666666" d="M416.571,182.083c0-1.629,0.399-2.896,1.202-3.789c0.804-0.896,1.941-1.346,3.418-1.346
					c1.438,0,2.561,0.457,3.363,1.366c0.808,0.912,1.21,2.175,1.21,3.776c0,1.601-0.403,2.855-1.214,3.771
					c-0.812,0.916-1.937,1.371-3.373,1.371c-1.475,0-2.606-0.447-3.408-1.35C416.972,184.99,416.571,183.723,416.571,182.083z
					 M417.802,182.098c0,1.354,0.288,2.383,0.864,3.084c0.574,0.7,1.413,1.053,2.513,1.053c1.104,0,1.94-0.353,2.509-1.049
					s0.849-1.729,0.849-3.088c0-1.349-0.278-2.369-0.846-3.063c-0.563-0.695-1.395-1.043-2.498-1.043s-1.948,0.35-2.521,1.051
					C418.09,179.74,417.802,180.759,417.802,182.098z"/>
				<path fill="#666666" d="M426.83,180.49v-0.549l1.072-0.473l0.479-1.6h0.654v1.734h2.176v0.883h-2.176v4.422
					c0,0.449,0.105,0.799,0.32,1.041c0.214,0.24,0.509,0.359,0.882,0.359c0.201,0,0.396-0.016,0.581-0.045
					c0.188-0.027,0.335-0.063,0.443-0.094v0.856c-0.123,0.06-0.306,0.104-0.543,0.146c-0.239,0.039-0.455,0.061-0.646,0.061
					c-1.446,0-2.174-0.766-2.174-2.289v-4.457L426.83,180.49L426.83,180.49z"/>
				<path fill="#666666" d="M432.766,187.102v-10.638h1.135v3.22c0,0.39-0.019,0.709-0.055,0.965h0.066
					c0.226-0.358,0.54-0.646,0.953-0.853c0.412-0.207,0.886-0.313,1.411-0.313c0.916,0,1.604,0.22,2.063,0.649
					c0.457,0.439,0.688,1.129,0.688,2.076v4.89h-1.136v-4.849c0-0.608-0.14-1.065-0.417-1.367c-0.276-0.301-0.713-0.45-1.306-0.45
					c-0.788,0-1.364,0.215-1.729,0.646c-0.362,0.43-0.545,1.131-0.545,2.104v3.918L432.766,187.102L432.766,187.102z"/>
				<path fill="#666666" d="M440.941,183.416c0-1.207,0.297-2.166,0.892-2.877s1.391-1.064,2.391-1.064
					c0.937,0,1.676,0.311,2.221,0.926c0.546,0.617,0.817,1.436,0.817,2.441v0.721h-5.154c0.022,0.881,0.245,1.547,0.667,2.002
					c0.424,0.457,1.021,0.688,1.785,0.688c0.805,0,1.6-0.17,2.385-0.506v1.012c-0.396,0.172-0.774,0.297-1.135,0.371
					c-0.356,0.076-0.787,0.111-1.291,0.111c-1.104,0-1.979-0.336-2.615-1.012C441.264,185.55,440.941,184.615,440.941,183.416z
					 M442.131,182.636h3.924c0-0.715-0.159-1.264-0.479-1.643c-0.316-0.384-0.772-0.572-1.368-0.572
					c-0.604,0-1.084,0.197-1.439,0.588C442.405,181.4,442.195,181.943,442.131,182.636z"/>
				<path fill="#666666" d="M449.213,187.102v-7.492h0.923l0.139,1.396h0.063c0.276-0.487,0.61-0.864,1.006-1.133
					c0.393-0.267,0.821-0.396,1.292-0.396c0.333,0,0.632,0.024,0.896,0.082l-0.155,1.062c-0.313-0.068-0.584-0.104-0.819-0.104
					c-0.605,0-1.124,0.243-1.559,0.735c-0.431,0.492-0.646,1.104-0.646,1.836v4.019L449.213,187.102L449.213,187.102z"/>
				<path fill="#666666" d="M454.448,181.449c0-0.611,0.248-1.096,0.743-1.447c0.497-0.354,1.178-0.527,2.042-0.527
					c0.803,0,1.585,0.162,2.354,0.49l-0.396,0.926c-0.75-0.313-1.429-0.469-2.036-0.469c-0.539,0-0.942,0.086-1.221,0.254
					c-0.274,0.171-0.411,0.402-0.411,0.699c0,0.201,0.052,0.371,0.154,0.516c0.104,0.145,0.269,0.273,0.496,0.402
					c0.229,0.129,0.667,0.313,1.313,0.557c0.889,0.322,1.484,0.648,1.791,0.979c0.31,0.328,0.46,0.74,0.46,1.238
					c0,0.693-0.26,1.229-0.771,1.604c-0.521,0.377-1.242,0.563-2.179,0.563c-0.989,0-1.767-0.153-2.317-0.465v-1.047
					c0.356,0.185,0.745,0.325,1.154,0.432c0.411,0.104,0.811,0.156,1.189,0.156c0.595,0,1.052-0.095,1.37-0.283
					c0.317-0.188,0.479-0.479,0.479-0.866c0-0.291-0.127-0.541-0.381-0.75c-0.253-0.207-0.747-0.453-1.479-0.736
					c-0.699-0.26-1.195-0.485-1.487-0.682c-0.292-0.193-0.51-0.414-0.652-0.662C454.52,182.087,454.448,181.792,454.448,181.449z"/>
			</g>
		</g>
		<g>
			<path fill="#666666" d="M464.81,175.548l-1.14,1.498v0.023l1.811-0.238v0.813l-1.811-0.216v0.023l1.149,1.438l-0.756,0.435
				l-0.72-1.682h-0.023l-0.78,1.689l-0.684-0.432l1.14-1.464v-0.022l-1.773,0.229v-0.814l1.764,0.229v-0.023l-1.128-1.464
				l0.731-0.419l0.744,1.667h0.021l0.732-1.68L464.81,175.548z"/>
		</g>
	</g>
</g>
<g id="more">
	<circle id="more3" fill="none" stroke="#67ABAD" stroke-miterlimit="10" cx="465.515" cy="12.711" r="9.439"/>
	<rect id="more2" x="464.816" y="8.679" fill="#67ABAD" width="1.292" height="8.122"/>
	<rect id="more1" x="461.401" y="12.094" fill="#67ABAD" width="8.122" height="1.292"/>
</g>
</svg>
