<?xml version="1.0" encoding="utf-8"?>
<!-- Generator: Adobe Illustrator 16.0.0, SVG Export Plug-In . SVG Version: 6.00 Build 0)  -->
<!DOCTYPE svg PUBLIC "-//W3C//DTD SVG 1.1//EN" "http://www.w3.org/Graphics/SVG/1.1/DTD/svg11.dtd">
<svg version="1.1" id="Capa_1" xmlns="http://www.w3.org/2000/svg" xmlns:xlink="http://www.w3.org/1999/xlink" x="0px" y="0px"
	 width="477px" height="198.425px" viewBox="0 0 477 198.425" enable-background="new 0 0 477 198.425" xml:space="preserve">
<g id="Capa_1_1_">
</g>
<rect x="35.281" y="39.598" fill="#449FA2" width="104.954" height="87.048"/>
<line fill="none" stroke="#666666" stroke-width="0.5" stroke-miterlimit="10" x1="35.029" y1="139.537" x2="457.283" y2="139.537"/>
<g>
	<line fill="none" stroke="#CCCCCC" stroke-width="0.5" stroke-miterlimit="10" x1="235.24" y1="145.203" x2="235.24" y2="19.535"/>
	<line fill="none" stroke="#CCCCCC" stroke-width="0.5" stroke-miterlimit="10" x1="436.49" y1="145.203" x2="436.49" y2="19.535"/>
</g>
<g>
	<path fill="#666666" d="M28.46,151.57c0-1.488,0.229-2.598,0.699-3.318c0.466-0.721,1.178-1.082,2.134-1.082
		c0.929,0,1.634,0.377,2.116,1.129c0.479,0.757,0.723,1.849,0.723,3.273c0,1.479-0.232,2.588-0.699,3.316
		c-0.467,0.73-1.18,1.098-2.14,1.098c-0.925,0-1.628-0.375-2.11-1.121C28.702,154.115,28.46,153.018,28.46,151.57z M29.456,151.57
		c0,1.244,0.146,2.148,0.438,2.717c0.293,0.566,0.759,0.854,1.397,0.854c0.646,0,1.116-0.287,1.403-0.86
		c0.291-0.572,0.438-1.48,0.438-2.701c0-1.229-0.146-2.127-0.438-2.697s-0.759-0.855-1.403-0.855c-0.644,0-1.104,0.279-1.397,0.846
		C29.603,149.425,29.456,150.328,29.456,151.57z"/>
	<path fill="#666666" d="M35.333,149.854c0-0.886,0.145-1.554,0.433-2.002c0.289-0.446,0.717-0.672,1.281-0.672
		c0.563,0,0.997,0.229,1.3,0.694c0.305,0.465,0.455,1.125,0.455,1.979c0,0.895-0.147,1.564-0.445,2.021
		c-0.298,0.455-0.729,0.685-1.31,0.685c-0.542,0-0.963-0.231-1.264-0.697C35.484,151.396,35.333,150.727,35.333,149.854z
		 M36.124,149.854c0,0.666,0.068,1.164,0.217,1.496c0.146,0.334,0.38,0.5,0.706,0.5c0.644,0,0.964-0.666,0.964-1.996
		c0-1.326-0.32-1.987-0.964-1.987c-0.325,0-0.563,0.164-0.706,0.493C36.198,148.689,36.124,149.188,36.124,149.854z M36.848,155.869
		l4.739-8.566h0.864l-4.739,8.566H36.848z M40.479,153.289c0-0.887,0.146-1.555,0.438-2.002c0.29-0.449,0.718-0.676,1.286-0.676
		c0.552,0,0.979,0.229,1.292,0.688c0.309,0.459,0.463,1.121,0.463,1.988c0,0.887-0.148,1.561-0.446,2.014
		c-0.297,0.455-0.732,0.686-1.309,0.686c-0.556,0-0.979-0.229-1.274-0.693C40.626,154.824,40.479,154.158,40.479,153.289z
		 M41.27,153.289c0,0.668,0.071,1.166,0.217,1.494c0.146,0.328,0.386,0.492,0.711,0.492c0.329,0,0.572-0.16,0.729-0.486
		c0.157-0.324,0.235-0.824,0.235-1.5c0-0.666-0.078-1.162-0.235-1.479c-0.155-0.322-0.398-0.479-0.729-0.479
		c-0.327,0-0.563,0.158-0.711,0.479C41.341,152.126,41.27,152.623,41.27,153.289z"/>
</g>
<g>
	<path fill="#666666" d="M228.276,155.518v-0.938c0.272,0.174,0.612,0.313,1.021,0.412c0.406,0.098,0.808,0.146,1.201,0.146
		c0.688,0,1.222-0.16,1.604-0.48c0.381-0.324,0.57-0.791,0.57-1.402c0-1.19-0.732-1.787-2.199-1.787
		c-0.371,0-0.867,0.058-1.489,0.169l-0.504-0.32l0.325-4.008h4.261v0.894h-3.43l-0.217,2.575c0.449-0.081,0.896-0.122,1.342-0.122
		c0.903,0,1.613,0.225,2.132,0.666c0.521,0.444,0.776,1.055,0.776,1.825c0,0.89-0.282,1.584-0.851,2.09
		c-0.563,0.507-1.343,0.759-2.335,0.759C229.52,155.986,228.783,155.83,228.276,155.518z"/>
	<path fill="#666666" d="M234.955,151.57c0-1.488,0.229-2.598,0.695-3.318c0.47-0.721,1.182-1.082,2.138-1.082
		c0.929,0,1.634,0.377,2.113,1.129c0.48,0.757,0.727,1.849,0.727,3.273c0,1.479-0.232,2.588-0.699,3.316
		c-0.467,0.73-1.18,1.098-2.14,1.098c-0.929,0-1.628-0.375-2.11-1.121C235.196,154.115,234.955,153.018,234.955,151.57z
		 M235.951,151.57c0,1.244,0.146,2.148,0.438,2.717c0.293,0.566,0.76,0.854,1.398,0.854c0.646,0,1.112-0.287,1.403-0.86
		c0.291-0.572,0.438-1.48,0.438-2.701c0-1.229-0.146-2.127-0.438-2.697s-0.758-0.855-1.403-0.855c-0.644,0-1.105,0.279-1.398,0.846
		C236.096,149.425,235.951,150.328,235.951,151.57z"/>
	<path fill="#666666" d="M241.828,149.854c0-0.886,0.143-1.554,0.432-2.002c0.289-0.446,0.717-0.672,1.281-0.672
		c0.563,0,0.998,0.229,1.301,0.694c0.305,0.465,0.455,1.125,0.455,1.979c0,0.895-0.148,1.564-0.445,2.021
		c-0.299,0.455-0.73,0.685-1.311,0.685c-0.541,0-0.963-0.231-1.268-0.697C241.979,151.396,241.828,150.727,241.828,149.854z
		 M242.619,149.854c0,0.666,0.068,1.164,0.217,1.496c0.145,0.334,0.379,0.5,0.705,0.5c0.645,0,0.965-0.666,0.965-1.996
		c0-1.326-0.32-1.987-0.965-1.987c-0.324,0-0.563,0.164-0.705,0.493C242.692,148.689,242.619,149.188,242.619,149.854z
		 M243.342,155.869l4.738-8.566h0.861l-4.736,8.566H243.342z M246.973,153.289c0-0.887,0.146-1.555,0.438-2.002
		c0.285-0.449,0.719-0.676,1.281-0.676c0.557,0,0.982,0.229,1.293,0.688c0.313,0.459,0.467,1.121,0.467,1.988
		c0,0.887-0.148,1.561-0.447,2.014c-0.297,0.455-0.73,0.686-1.313,0.686c-0.551,0-0.977-0.229-1.271-0.693
		C247.121,154.824,246.973,154.158,246.973,153.289z M247.764,153.289c0,0.668,0.072,1.166,0.217,1.494
		c0.146,0.328,0.383,0.492,0.711,0.492c0.33,0,0.572-0.16,0.729-0.486c0.158-0.324,0.236-0.824,0.236-1.5
		c0-0.666-0.078-1.162-0.236-1.479c-0.156-0.322-0.396-0.479-0.729-0.479c-0.328,0-0.563,0.158-0.711,0.479
		C247.836,152.126,247.764,152.623,247.764,153.289z"/>
</g>
<g>
	<path fill="#666666" d="M425.156,149.055l2.271-1.753h0.842v8.566h-0.973v-6.104c0-0.509,0.018-0.986,0.047-1.438
		c-0.082,0.082-0.174,0.168-0.273,0.258c-0.102,0.09-0.563,0.471-1.396,1.145L425.156,149.055z"/>
	<path fill="#666666" d="M431.516,151.57c0-1.488,0.234-2.598,0.699-3.318c0.467-0.721,1.178-1.082,2.135-1.082
		c0.93,0,1.635,0.377,2.115,1.129c0.479,0.757,0.725,1.849,0.725,3.273c0,1.479-0.234,2.588-0.699,3.316
		c-0.467,0.73-1.18,1.098-2.141,1.098c-0.926,0-1.629-0.375-2.109-1.121C431.758,154.115,431.516,153.018,431.516,151.57z
		 M432.512,151.57c0,1.244,0.146,2.148,0.438,2.717c0.292,0.567,0.762,0.854,1.396,0.854c0.646,0,1.117-0.287,1.406-0.86
		c0.291-0.572,0.438-1.48,0.438-2.701c0-1.229-0.146-2.127-0.438-2.697c-0.289-0.57-0.762-0.855-1.406-0.855
		c-0.643,0-1.104,0.279-1.396,0.846C432.656,149.425,432.512,150.328,432.512,151.57z"/>
	<path fill="#666666" d="M438.379,151.57c0-1.488,0.229-2.598,0.695-3.318c0.469-0.719,1.182-1.082,2.137-1.082
		c0.93,0,1.635,0.377,2.113,1.129c0.48,0.757,0.727,1.849,0.727,3.273c0,1.479-0.232,2.588-0.699,3.316
		c-0.467,0.73-1.18,1.098-2.141,1.098c-0.928,0-1.627-0.375-2.109-1.121C438.615,154.115,438.379,153.018,438.379,151.57z
		 M439.375,151.57c0,1.244,0.146,2.148,0.438,2.717c0.293,0.566,0.76,0.854,1.398,0.854c0.646,0,1.111-0.287,1.402-0.86
		c0.291-0.572,0.438-1.48,0.438-2.701c0-1.229-0.146-2.127-0.438-2.697s-0.76-0.855-1.402-0.855c-0.644,0-1.105,0.279-1.398,0.846
		C439.52,149.425,439.375,150.328,439.375,151.57z"/>
	<path fill="#666666" d="M445.252,149.854c0-0.886,0.145-1.554,0.434-2.002c0.287-0.446,0.715-0.672,1.279-0.672
		c0.563,0,0.998,0.229,1.301,0.694c0.305,0.465,0.455,1.125,0.455,1.979c0,0.895-0.148,1.564-0.445,2.021
		c-0.297,0.455-0.734,0.685-1.311,0.685c-0.543,0-0.963-0.231-1.268-0.697C445.401,151.396,445.252,150.727,445.252,149.854z
		 M446.043,149.854c0,0.666,0.068,1.164,0.217,1.496c0.146,0.334,0.381,0.5,0.705,0.5c0.645,0,0.965-0.666,0.965-1.996
		c0-1.326-0.32-1.987-0.965-1.987c-0.324,0-0.563,0.164-0.705,0.493C446.115,148.689,446.043,149.188,446.043,149.854z
		 M446.766,155.869l4.738-8.566h0.859l-4.734,8.566H446.766z M450.397,153.289c0-0.887,0.145-1.555,0.434-2.002
		c0.289-0.449,0.723-0.676,1.285-0.676c0.557,0,0.982,0.229,1.291,0.688c0.313,0.459,0.465,1.121,0.465,1.988
		c0,0.887-0.146,1.561-0.443,2.014c-0.297,0.455-0.732,0.686-1.313,0.686c-0.551,0-0.977-0.229-1.271-0.693
		C450.545,154.824,450.397,154.158,450.397,153.289z M451.188,153.289c0,0.668,0.07,1.166,0.217,1.494
		c0.147,0.328,0.383,0.492,0.711,0.492c0.33,0,0.572-0.16,0.729-0.486c0.158-0.324,0.232-0.824,0.232-1.5
		c0-0.666-0.074-1.162-0.232-1.479c-0.154-0.322-0.398-0.479-0.729-0.479s-0.563,0.158-0.711,0.479
		C451.258,152.126,451.188,152.623,451.188,153.289z"/>
</g>
<rect x="253.147" y="39.598" fill="#58585A" width="48.512" height="87.048"/>
<rect x="301.656" y="39.598" fill="#CAE4E4" width="134.832" height="87.048"/>
<g>
	<path fill="#003333" d="M357.67,78.74c0,0.714-0.221,1.32-0.648,1.82c-0.434,0.5-1.039,0.844-1.82,1.031v0.047
		c0.922,0.114,1.619,0.395,2.098,0.84c0.473,0.445,0.711,1.046,0.711,1.801c0,1.099-0.398,1.954-1.195,2.566
		c-0.797,0.612-1.938,0.918-3.414,0.918c-1.24,0-2.34-0.206-3.297-0.617v-2.055c0.438,0.224,0.93,0.406,1.461,0.547
		c0.531,0.141,1.057,0.211,1.578,0.211c0.797,0,1.385-0.136,1.766-0.406c0.379-0.271,0.57-0.706,0.57-1.305
		c0-0.536-0.219-0.917-0.656-1.141c-0.437-0.224-1.137-0.336-2.094-0.336h-0.867v-1.852h0.883c0.889,0,1.531-0.116,1.941-0.348
		c0.408-0.231,0.613-0.629,0.613-1.191c0-0.864-0.543-1.297-1.625-1.297c-0.375,0-0.762,0.063-1.146,0.188
		c-0.389,0.125-0.82,0.341-1.293,0.648l-1.117-1.664c1.041-0.75,2.283-1.125,3.729-1.125c1.182,0,2.113,0.239,2.801,0.719
		C357.323,77.22,357.67,77.886,357.67,78.74z"/>
	<path fill="#003333" d="M367.506,85.24h-1.375v2.367h-2.359V85.24h-4.875v-1.68l5.008-7.375h2.229v7.18h1.375L367.506,85.24
		L367.506,85.24z M363.772,83.365v-1.938c0-0.323,0.012-0.792,0.039-1.406c0.025-0.614,0.047-0.972,0.063-1.07h-0.063
		c-0.193,0.427-0.426,0.844-0.695,1.25l-2.094,3.164H363.772z"/>
	<path fill="#003333" d="M373.678,79.592c0,1.198-0.232,2.098-0.695,2.699c-0.465,0.602-1.145,0.902-2.039,0.902
		c-0.855,0-1.521-0.309-1.992-0.926c-0.469-0.617-0.703-1.509-0.703-2.676c0-2.38,0.898-3.57,2.695-3.57
		c0.879,0,1.555,0.309,2.027,0.926C373.442,77.564,373.678,78.446,373.678,79.592z M370.217,79.607c0,0.661,0.059,1.155,0.176,1.48
		c0.117,0.325,0.305,0.488,0.566,0.488c0.5,0,0.75-0.656,0.75-1.969c0-1.302-0.25-1.953-0.75-1.953c-0.266,0-0.449,0.16-0.566,0.48
		C370.276,78.453,370.217,78.946,370.217,79.607z M379.053,76.186l-6.336,11.422h-1.875l6.336-11.422H379.053z M381.678,84.154
		c0,1.192-0.232,2.09-0.695,2.691c-0.465,0.604-1.145,0.902-2.039,0.902c-0.855,0-1.521-0.309-1.992-0.926
		c-0.469-0.617-0.703-1.507-0.703-2.668c0-2.38,0.898-3.57,2.695-3.57c0.879,0,1.555,0.309,2.027,0.926
		C381.442,82.127,381.678,83.009,381.678,84.154z M378.217,84.17c0,0.661,0.059,1.155,0.176,1.48
		c0.117,0.325,0.305,0.488,0.566,0.488c0.5,0,0.75-0.656,0.75-1.969c0-1.302-0.25-1.953-0.75-1.953c-0.266,0-0.449,0.16-0.566,0.48
		C378.276,83.016,378.217,83.509,378.217,84.17z"/>
</g>
<g>
	<path fill="#FFFFFF" d="M268.133,87.607h-2.414v-6.609l0.023-1.086l0.035-1.188c-0.396,0.401-0.68,0.664-0.836,0.789l-1.313,1.055
		l-1.164-1.453l3.68-2.93h1.984L268.133,87.607L268.133,87.607z"/>
	<path fill="#FFFFFF" d="M279.281,87.607h-7.98v-1.68l2.867-2.898c0.85-0.87,1.4-1.473,1.664-1.809
		c0.262-0.336,0.445-0.646,0.563-0.934c0.115-0.286,0.172-0.583,0.172-0.891c0-0.458-0.125-0.8-0.379-1.023
		c-0.252-0.224-0.59-0.336-1.012-0.336c-0.441,0-0.871,0.102-1.289,0.305c-0.416,0.203-0.854,0.492-1.305,0.867l-1.313-1.555
		c0.563-0.479,1.029-0.817,1.398-1.016c0.371-0.198,0.771-0.351,1.211-0.457c0.438-0.106,0.928-0.16,1.469-0.16
		c0.715,0,1.344,0.13,1.891,0.391c0.55,0.261,0.977,0.625,1.273,1.094c0.303,0.469,0.453,1.005,0.453,1.609
		c0,0.526-0.092,1.02-0.277,1.479c-0.184,0.461-0.471,0.934-0.855,1.418c-0.391,0.484-1.07,1.175-2.055,2.07l-1.469,1.383v0.109
		h4.979v2.034H279.281z"/>
	<path fill="#FFFFFF" d="M285.711,79.592c0,1.198-0.23,2.098-0.695,2.699c-0.463,0.602-1.143,0.902-2.039,0.902
		c-0.855,0-1.521-0.309-1.992-0.926c-0.469-0.617-0.703-1.509-0.703-2.676c0-2.38,0.898-3.57,2.695-3.57
		c0.881,0,1.561,0.309,2.027,0.926C285.477,77.564,285.711,78.446,285.711,79.592z M282.25,79.607c0,0.661,0.059,1.155,0.176,1.48
		c0.117,0.325,0.307,0.488,0.566,0.488c0.5,0,0.75-0.656,0.75-1.969c0-1.302-0.25-1.953-0.75-1.953c-0.264,0-0.449,0.16-0.566,0.48
		C282.309,78.453,282.25,78.946,282.25,79.607z M291.086,76.186l-6.336,11.422h-1.875l6.336-11.422H291.086z M293.711,84.154
		c0,1.192-0.23,2.09-0.695,2.691c-0.463,0.604-1.143,0.902-2.039,0.902c-0.855,0-1.521-0.309-1.992-0.926
		c-0.469-0.617-0.703-1.507-0.703-2.668c0-2.38,0.898-3.57,2.695-3.57c0.881,0,1.561,0.309,2.027,0.926
		C293.477,82.127,293.711,83.009,293.711,84.154z M290.25,84.17c0,0.661,0.059,1.155,0.176,1.48
		c0.117,0.325,0.307,0.488,0.566,0.488c0.5,0,0.75-0.656,0.75-1.969c0-1.302-0.25-1.953-0.75-1.953c-0.264,0-0.449,0.16-0.566,0.48
		C290.309,83.016,290.25,83.509,290.25,84.17z"/>
</g>
<g>
	<rect x="140.235" y="39.598" fill="#F2C466" width="62.075" height="87.048"/>
	<g>
		<path fill="#FFFFFF" d="M162.835,87.607h-2.414v-6.609l0.021-1.086l0.039-1.188c-0.397,0.401-0.68,0.664-0.836,0.789l-1.313,1.055
			l-1.164-1.453l3.68-2.93h1.984L162.835,87.607L162.835,87.607z"/>
		<path fill="#FFFFFF" d="M170.156,80.311c1.104,0,1.98,0.31,2.638,0.93c0.653,0.62,0.979,1.469,0.979,2.547
			c0,1.276-0.394,2.258-1.18,2.945s-1.911,1.031-3.375,1.031c-1.271,0-2.297-0.206-3.078-0.617v-2.086
			c0.411,0.219,0.895,0.397,1.438,0.535c0.547,0.138,1.063,0.207,1.555,0.207c1.474,0,2.211-0.604,2.211-1.813
			c0-1.151-0.763-1.727-2.289-1.727c-0.276,0-0.581,0.027-0.914,0.082c-0.333,0.055-0.604,0.113-0.813,0.176l-0.961-0.516l0.43-5.82
			h6.195v2.047h-4.078l-0.211,2.242l0.271-0.055C169.293,80.347,169.686,80.311,170.156,80.311z"/>
		<path fill="#FFFFFF" d="M180.413,79.592c0,1.198-0.231,2.098-0.695,2.699s-1.144,0.902-2.039,0.902
			c-0.856,0-1.521-0.309-1.992-0.926c-0.469-0.617-0.703-1.509-0.703-2.676c0-2.38,0.898-3.57,2.695-3.57
			c0.88,0,1.556,0.309,2.027,0.926C180.177,77.564,180.413,78.446,180.413,79.592z M176.952,79.607c0,0.661,0.059,1.155,0.176,1.48
			c0.117,0.325,0.306,0.488,0.563,0.488c0.5,0,0.75-0.656,0.75-1.969c0-1.302-0.25-1.953-0.75-1.953c-0.261,0-0.445,0.16-0.563,0.48
			C177.011,78.453,176.952,78.946,176.952,79.607z M185.788,76.186l-6.336,11.422h-1.875l6.336-11.422H185.788z M188.413,84.154
			c0,1.192-0.232,2.09-0.696,2.691c-0.464,0.604-1.145,0.902-2.039,0.902c-0.859,0-1.521-0.309-1.992-0.926
			c-0.469-0.617-0.703-1.507-0.703-2.668c0-2.38,0.898-3.57,2.695-3.57c0.88,0,1.556,0.309,2.027,0.926
			C188.177,82.127,188.413,83.009,188.413,84.154z M184.952,84.17c0,0.661,0.059,1.155,0.176,1.48
			c0.117,0.325,0.306,0.488,0.563,0.488c0.5,0,0.75-0.656,0.75-1.969c0-1.302-0.25-1.953-0.75-1.953c-0.261,0-0.445,0.16-0.563,0.48
			C185.011,83.016,184.952,83.509,184.952,84.17z"/>
	</g>
</g>
<g>
	<rect x="202.31" y="39.598" fill="#DC2F82" width="51.088" height="87.048"/>
	<g>
		<path fill="#FFFFFF" d="M218.079,87.607h-2.414v-6.609l0.021-1.086l0.039-1.188c-0.397,0.401-0.68,0.664-0.836,0.789l-1.313,1.055
			l-1.164-1.453l3.68-2.93h1.984L218.079,87.607L218.079,87.607z"/>
		<path fill="#FFFFFF" d="M228.782,78.74c0,0.714-0.22,1.32-0.648,1.82s-1.039,0.844-1.82,1.031v0.047
			c0.925,0.114,1.62,0.395,2.098,0.84c0.474,0.445,0.711,1.046,0.711,1.801c0,1.099-0.398,1.954-1.195,2.566
			c-0.797,0.612-1.935,0.918-3.414,0.918c-1.239,0-2.339-0.206-3.297-0.617v-2.055c0.442,0.224,0.93,0.406,1.461,0.547
			c0.531,0.141,1.059,0.211,1.578,0.211c0.797,0,1.386-0.136,1.766-0.406c0.381-0.27,0.57-0.706,0.57-1.305
			c0-0.536-0.219-0.917-0.656-1.141c-0.437-0.224-1.136-0.336-2.094-0.336h-0.867v-1.852h0.883c0.89,0,1.532-0.116,1.941-0.348
			s0.613-0.629,0.613-1.191c0-0.864-0.542-1.297-1.625-1.297c-0.375,0-0.758,0.063-1.146,0.188
			c-0.388,0.125-0.815,0.341-1.293,0.648l-1.117-1.664c1.042-0.75,2.284-1.125,3.729-1.125c1.183,0,2.116,0.239,2.801,0.719
			C228.442,77.219,228.782,77.886,228.782,78.74z"/>
		<path fill="#FFFFFF" d="M235.657,79.592c0,1.198-0.231,2.098-0.695,2.699s-1.145,0.902-2.039,0.902
			c-0.859,0-1.521-0.309-1.992-0.926c-0.469-0.617-0.703-1.509-0.703-2.676c0-2.38,0.898-3.57,2.695-3.57
			c0.88,0,1.556,0.309,2.027,0.926C235.421,77.564,235.657,78.446,235.657,79.592z M232.197,79.607c0,0.661,0.06,1.155,0.177,1.48
			c0.117,0.325,0.306,0.488,0.563,0.488c0.5,0,0.75-0.656,0.75-1.969c0-1.302-0.25-1.953-0.75-1.953c-0.261,0-0.445,0.16-0.563,0.48
			C232.255,78.453,232.197,78.946,232.197,79.607z M241.032,76.186l-6.337,11.422h-1.875l6.337-11.422H241.032z M243.657,84.154
			c0,1.192-0.231,2.09-0.695,2.691c-0.464,0.601-1.145,0.902-2.039,0.902c-0.859,0-1.521-0.309-1.992-0.926
			c-0.469-0.617-0.703-1.507-0.703-2.668c0-2.38,0.898-3.57,2.695-3.57c0.88,0,1.556,0.309,2.027,0.926
			C243.421,82.126,243.657,83.009,243.657,84.154z M240.197,84.17c0,0.661,0.06,1.155,0.177,1.48
			c0.117,0.325,0.306,0.488,0.563,0.488c0.5,0,0.75-0.656,0.75-1.969c0-1.302-0.25-1.953-0.75-1.953c-0.261,0-0.445,0.16-0.563,0.48
			C240.255,83.016,240.197,83.509,240.197,84.17z"/>
	</g>
</g>
<g>
	<path fill="#FFFFFF" d="M83.484,87.607H75.5v-1.68l2.867-2.898c0.849-0.87,1.399-1.473,1.66-1.809
		c0.265-0.336,0.448-0.646,0.563-0.934s0.172-0.583,0.172-0.891c0-0.458-0.126-0.8-0.379-1.023c-0.253-0.223-0.59-0.336-1.012-0.336
		c-0.442,0-0.872,0.102-1.289,0.305c-0.417,0.203-0.854,0.492-1.309,0.867l-1.313-1.555c0.563-0.479,1.028-0.817,1.396-1.016
		c0.369-0.199,0.772-0.351,1.212-0.457c0.438-0.106,0.929-0.16,1.471-0.16c0.714,0,1.344,0.13,1.891,0.391
		c0.547,0.261,0.975,0.625,1.273,1.094c0.301,0.469,0.453,1.005,0.453,1.609c0,0.526-0.097,1.02-0.277,1.479
		c-0.185,0.46-0.472,0.934-0.859,1.418c-0.387,0.484-1.067,1.175-2.051,2.07l-1.469,1.383v0.109h4.977v2.034H83.484z"/>
	<path fill="#FFFFFF" d="M84.554,82.756c0-2.261,0.479-3.942,1.434-5.047c0.956-1.105,2.391-1.656,4.293-1.656
		c0.651,0,1.161,0.039,1.531,0.117v1.93c-0.464-0.104-0.922-0.156-1.375-0.156c-0.828,0-1.504,0.125-2.023,0.375
		c-0.523,0.25-0.915,0.62-1.18,1.109c-0.261,0.489-0.414,1.185-0.461,2.086h0.104c0.516-0.886,1.341-1.328,2.477-1.328
		c1.021,0,1.82,0.32,2.398,0.961s0.867,1.526,0.867,2.656c0,1.219-0.348,2.184-1.031,2.896c-0.688,0.711-1.645,1.066-2.859,1.066
		c-0.844,0-1.579-0.195-2.207-0.586c-0.628-0.391-1.108-0.961-1.453-1.711C84.726,84.717,84.554,83.813,84.554,82.756z
		 M88.679,85.834c0.516,0,0.911-0.173,1.188-0.52c0.273-0.347,0.41-0.84,0.41-1.48c0-0.558-0.129-0.996-0.387-1.316
		s-0.646-0.48-1.168-0.48c-0.489,0-0.907,0.159-1.254,0.477s-0.52,0.688-0.52,1.109c0,0.62,0.16,1.144,0.484,1.57
		C87.765,85.62,88.179,85.834,88.679,85.834z"/>
	<path fill="#FFFFFF" d="M99.047,79.592c0,1.198-0.231,2.098-0.695,2.699s-1.144,0.902-2.039,0.902
		c-0.855,0-1.521-0.309-1.992-0.926c-0.469-0.617-0.699-1.509-0.699-2.676c0-2.38,0.896-3.57,2.691-3.57
		c0.88,0,1.56,0.309,2.027,0.926C98.811,77.564,99.047,78.446,99.047,79.592z M95.586,79.607c0,0.661,0.059,1.155,0.176,1.48
		c0.117,0.325,0.306,0.488,0.566,0.488c0.5,0,0.75-0.656,0.75-1.969c0-1.302-0.25-1.953-0.75-1.953c-0.265,0-0.449,0.16-0.566,0.48
		C95.645,78.453,95.586,78.946,95.586,79.607z M104.422,76.186l-6.336,11.422h-1.875l6.336-11.422H104.422z M107.047,84.154
		c0,1.192-0.231,2.09-0.695,2.691c-0.464,0.601-1.144,0.902-2.039,0.902c-0.855,0-1.521-0.309-1.992-0.926
		c-0.469-0.617-0.699-1.507-0.699-2.668c0-2.38,0.896-3.57,2.691-3.57c0.88,0,1.56,0.309,2.027,0.926
		C106.811,82.126,107.047,83.009,107.047,84.154z M103.586,84.17c0,0.661,0.059,1.155,0.176,1.48
		c0.117,0.325,0.306,0.488,0.566,0.488c0.5,0,0.75-0.656,0.75-1.969c0-1.302-0.25-1.953-0.75-1.953c-0.265,0-0.449,0.16-0.566,0.48
		C103.645,83.016,103.586,83.509,103.586,84.17z"/>
</g>
<line fill="none" stroke="#666666" stroke-width="0.5" stroke-miterlimit="10" x1="35.029" y1="145.203" x2="35.029" y2="19.535"/>
<g>
	<g>
		<rect x="22.99" y="175.564" fill="#449FA2" width="14.217" height="14.217"/>
		<g>
			<path fill="#666666" d="M42.717,182.66c0-1.029,0.188-1.932,0.57-2.707c0.381-0.771,0.936-1.369,1.662-1.789
				c0.725-0.418,1.578-0.629,2.563-0.629c1.049,0,1.965,0.191,2.748,0.574l-0.492,0.998c-0.756-0.355-1.516-0.533-2.271-0.533
				c-1.102,0-1.965,0.365-2.604,1.098c-0.635,0.73-0.953,1.73-0.953,3.002c0,1.31,0.311,2.316,0.921,3.027
				c0.612,0.713,1.485,1.07,2.62,1.07c0.697,0,1.492-0.125,2.391-0.377v1.021c-0.691,0.262-1.552,0.396-2.563,0.396
				c-1.475,0-2.604-0.446-3.396-1.343C43.115,185.576,42.717,184.307,42.717,182.66z"/>
			<path fill="#666666" d="M51.336,185.609c0-1.51,1.213-2.301,3.637-2.373l1.271-0.041v-0.471c0-0.598-0.125-1.035-0.379-1.318
				c-0.256-0.283-0.654-0.426-1.215-0.426c-0.623,0-1.324,0.191-2.111,0.582l-0.354-0.871c0.369-0.197,0.771-0.354,1.213-0.465
				c0.438-0.111,0.881-0.168,1.322-0.168c0.896,0,1.555,0.195,1.982,0.594c0.43,0.396,0.646,1.033,0.646,1.908v5.109h-0.84
				l-0.229-1.053h-0.05c-0.373,0.463-0.746,0.776-1.117,0.94c-0.365,0.164-0.832,0.245-1.389,0.245c-0.746,0-1.33-0.188-1.754-0.571
				C51.547,186.855,51.336,186.314,51.336,185.609z M52.541,185.623c0,0.412,0.123,0.729,0.371,0.941s0.594,0.32,1.041,0.32
				c0.705,0,1.258-0.191,1.656-0.584c0.404-0.389,0.604-0.934,0.604-1.635v-0.683l-1.133,0.05c-0.898,0.03-1.549,0.174-1.947,0.424
				C52.74,184.708,52.541,185.098,52.541,185.623z"/>
			<path fill="#666666" d="M59.683,187.673v-7.491h0.924l0.188,1.012h0.057c0.23-0.362,0.563-0.646,0.979-0.849
				c0.42-0.2,0.887-0.301,1.398-0.301c0.9,0,1.582,0.217,2.035,0.65c0.455,0.438,0.688,1.133,0.688,2.09v4.889h-1.138v-4.854
				c0-0.612-0.141-1.067-0.418-1.37c-0.273-0.302-0.713-0.451-1.307-0.451c-0.781,0-1.355,0.211-1.723,0.637
				c-0.365,0.43-0.551,1.125-0.551,2.105v3.938h-1.135L59.683,187.673L59.683,187.673z"/>
			<path fill="#666666" d="M67.859,183.977c0-1.254,0.305-2.224,0.898-2.906c0.6-0.685,1.457-1.024,2.574-1.024
				c0.355,0,0.721,0.039,1.08,0.117c0.355,0.076,0.643,0.168,0.848,0.272l-0.35,0.963c-0.25-0.103-0.523-0.185-0.82-0.25
				c-0.295-0.063-0.557-0.101-0.785-0.101c-1.521,0-2.283,0.974-2.283,2.912c0,0.922,0.188,1.627,0.561,2.119
				c0.373,0.492,0.922,0.736,1.648,0.736c0.623,0,1.268-0.135,1.92-0.4v1.004c-0.502,0.263-1.133,0.392-1.895,0.392
				c-1.084,0-1.922-0.334-2.512-1.002C68.154,186.143,67.859,185.197,67.859,183.977z"/>
			<path fill="#666666" d="M74.525,183.988c0-1.207,0.295-2.166,0.893-2.877c0.594-0.711,1.391-1.066,2.391-1.066
				c0.938,0,1.676,0.312,2.221,0.929c0.546,0.614,0.816,1.437,0.816,2.44v0.719H75.69c0.021,0.884,0.246,1.55,0.668,2.002
				c0.422,0.457,1.021,0.689,1.785,0.689c0.803,0,1.601-0.171,2.385-0.507v1.015c-0.396,0.172-0.775,0.297-1.135,0.371
				c-0.354,0.073-0.787,0.11-1.291,0.11c-1.104,0-1.979-0.336-2.615-1.015C74.845,186.123,74.525,185.188,74.525,183.988z
				 M75.713,183.208h3.926c0-0.715-0.16-1.266-0.479-1.645c-0.318-0.381-0.775-0.57-1.369-0.57c-0.604,0-1.084,0.195-1.439,0.588
				C75.988,181.975,75.777,182.518,75.713,183.208z"/>
			<path fill="#666666" d="M82.795,187.673v-7.491h0.924l0.139,1.396h0.063c0.275-0.49,0.609-0.867,1.006-1.134
				c0.395-0.267,0.822-0.397,1.293-0.397c0.332,0,0.633,0.027,0.896,0.084l-0.155,1.063c-0.313-0.066-0.582-0.104-0.82-0.104
				c-0.604,0-1.123,0.246-1.555,0.738c-0.434,0.489-0.646,1.104-0.646,1.836v4.016L82.795,187.673L82.795,187.673z"/>
		</g>
	</g>
	<g>
		<rect x="181.031" y="175.564" fill="#DC2F82" width="14.221" height="14.217"/>
		<g>
			<path fill="#666666" d="M200.453,181.294c0-1.028,0.189-1.934,0.57-2.705c0.381-0.772,0.938-1.371,1.661-1.789
				c0.727-0.42,1.582-0.629,2.565-0.629c1.048,0,1.964,0.188,2.748,0.572l-0.492,0.998c-0.756-0.354-1.517-0.531-2.271-0.531
				c-1.098,0-1.965,0.363-2.602,1.097c-0.636,0.729-0.953,1.729-0.953,3.002c0,1.308,0.307,2.315,0.919,3.028
				s1.486,1.068,2.622,1.068c0.696,0,1.492-0.125,2.386-0.379v1.021c-0.689,0.265-1.547,0.396-2.563,0.396
				c-1.476,0-2.604-0.446-3.4-1.342C200.851,184.21,200.453,182.941,200.453,181.294z"/>
			<path fill="#666666" d="M209.538,176.785c0-0.26,0.063-0.449,0.179-0.57c0.118-0.116,0.266-0.182,0.438-0.182
				c0.197,0,0.366,0.063,0.509,0.186c0.146,0.123,0.217,0.314,0.217,0.566c0,0.254-0.07,0.445-0.217,0.572
				c-0.144,0.125-0.313,0.188-0.509,0.188c-0.176,0-0.321-0.063-0.438-0.188C209.598,177.232,209.538,177.041,209.538,176.785z
				 M209.635,186.309v-7.492h1.039v7.492H209.635z"/>
			<path fill="#666666" d="M213.176,186.309v-7.492h0.924l0.139,1.396h0.063c0.276-0.484,0.611-0.861,1.007-1.133
				c0.393-0.267,0.822-0.396,1.292-0.396c0.333,0,0.631,0.026,0.896,0.082l-0.154,1.06c-0.313-0.066-0.583-0.103-0.819-0.103
				c-0.604,0-1.125,0.245-1.556,0.735c-0.434,0.492-0.646,1.104-0.646,1.838v4.017h-1.138L213.176,186.309L213.176,186.309z"/>
			<path fill="#666666" d="M218.193,182.611c0-1.254,0.301-2.223,0.898-2.906c0.6-0.682,1.457-1.021,2.574-1.021
				c0.356,0,0.72,0.039,1.077,0.112c0.359,0.078,0.646,0.17,0.851,0.273l-0.352,0.963c-0.25-0.1-0.521-0.184-0.817-0.25
				c-0.296-0.064-0.562-0.098-0.785-0.098c-1.521,0-2.283,0.971-2.283,2.912c0,0.92,0.188,1.627,0.558,2.117
				c0.371,0.492,0.925,0.736,1.65,0.736c0.625,0,1.266-0.138,1.921-0.402v1.008c-0.501,0.26-1.132,0.389-1.895,0.389
				c-1.084,0-1.922-0.334-2.515-1.002C218.488,184.777,218.193,183.832,218.193,182.611z"/>
			<path fill="#666666" d="M225.193,183.718v-4.901h1.162v4.86c0,0.609,0.14,1.064,0.416,1.367c0.277,0.302,0.712,0.449,1.305,0.449
				c0.781,0,1.354-0.213,1.719-0.645c0.357-0.432,0.542-1.127,0.542-2.102v-3.938h1.135v7.492h-0.923l-0.178-1.006h-0.063
				c-0.231,0.369-0.555,0.65-0.967,0.85c-0.412,0.195-0.881,0.293-1.408,0.293c-0.916,0-1.604-0.217-2.057-0.648
				C225.421,185.365,225.193,184.669,225.193,183.718z"/>
			<path fill="#666666" d="M233.867,186.309v-10.638h1.138v10.638H233.867z"/>
			<path fill="#666666" d="M236.849,184.244c0-1.51,1.211-2.301,3.635-2.373l1.272-0.041v-0.471c0-0.596-0.126-1.035-0.379-1.316
				c-0.252-0.285-0.655-0.428-1.211-0.428c-0.623,0-1.328,0.193-2.115,0.582l-0.354-0.871c0.369-0.197,0.773-0.354,1.214-0.465
				c0.439-0.111,0.883-0.168,1.322-0.168c0.896,0,1.554,0.197,1.982,0.594c0.431,0.398,0.646,1.033,0.646,1.908v5.113h-0.841
				l-0.227-1.057h-0.059c-0.373,0.465-0.745,0.779-1.115,0.941c-0.368,0.163-0.833,0.245-1.39,0.245
				c-0.746,0-1.331-0.188-1.755-0.569C237.06,185.49,236.849,184.949,236.849,184.244z M238.052,184.259
				c0,0.412,0.124,0.726,0.372,0.939c0.248,0.215,0.596,0.32,1.041,0.32c0.705,0,1.26-0.191,1.661-0.584
				c0.399-0.393,0.604-0.938,0.604-1.639v-0.68l-1.133,0.049c-0.9,0.031-1.551,0.172-1.948,0.422
				C238.251,183.343,238.052,183.732,238.052,184.259z"/>
			<path fill="#666666" d="M244.203,179.697v-0.547l1.072-0.471l0.479-1.604h0.653v1.733h2.177v0.883h-2.177v4.423
				c0,0.448,0.106,0.799,0.32,1.041c0.214,0.239,0.508,0.36,0.882,0.36c0.201,0,0.396-0.019,0.581-0.045
				c0.188-0.029,0.335-0.063,0.444-0.095v0.855c-0.123,0.061-0.305,0.105-0.543,0.146c-0.239,0.039-0.455,0.058-0.646,0.058
				c-1.445,0-2.174-0.765-2.174-2.289v-4.457H244.2L244.203,179.697L244.203,179.697z"/>
			<path fill="#666666" d="M249.72,182.548c0-1.219,0.305-2.168,0.913-2.85c0.605-0.682,1.454-1.021,2.536-1.021
				c1.045,0,1.875,0.35,2.488,1.045c0.615,0.695,0.926,1.639,0.926,2.824c0,1.225-0.311,2.18-0.923,2.865
				c-0.61,0.688-1.46,1.026-2.542,1.026c-0.668,0-1.262-0.153-1.776-0.476c-0.521-0.313-0.918-0.768-1.199-1.354
				C249.86,184.027,249.72,183.339,249.72,182.548z M250.883,182.548c0,0.959,0.188,1.688,0.575,2.191
				c0.383,0.504,0.943,0.754,1.688,0.754s1.313-0.25,1.693-0.75c0.386-0.5,0.579-1.229,0.579-2.195c0-0.955-0.192-1.68-0.579-2.176
				c-0.389-0.494-0.954-0.742-1.708-0.742c-0.743,0-1.31,0.244-1.688,0.73C251.068,180.85,250.883,181.58,250.883,182.548z"/>
			<path fill="#666666" d="M258.594,186.309v-7.492h0.924l0.14,1.396h0.062c0.276-0.484,0.611-0.861,1.007-1.133
				c0.393-0.267,0.822-0.396,1.291-0.396c0.333,0,0.631,0.026,0.896,0.082l-0.154,1.06c-0.313-0.066-0.583-0.103-0.82-0.103
				c-0.604,0-1.124,0.245-1.555,0.735c-0.434,0.492-0.646,1.104-0.646,1.838v4.017H258.6v-0.004H258.594z"/>
			<path fill="#666666" d="M263.118,178.816h1.22l1.641,4.271c0.36,0.976,0.583,1.679,0.671,2.105h0.056
				c0.062-0.229,0.187-0.629,0.373-1.188c0.188-0.563,0.811-2.291,1.854-5.188h1.217l-3.22,8.531
				c-0.318,0.842-0.69,1.438-1.118,1.795c-0.426,0.353-0.948,0.528-1.567,0.528c-0.348,0-0.688-0.039-1.022-0.116v-0.916
				c0.25,0.055,0.531,0.082,0.841,0.082c0.779,0,1.335-0.438,1.668-1.313l0.417-1.064L263.118,178.816z"/>
		</g>
	</g>
	<rect x="397.348" y="175.564" fill="#CAE4E4" width="14.217" height="14.217"/>
	<g>
		<path fill="#666666" d="M417.492,182.906c0-1.631,0.402-2.895,1.203-3.789c0.807-0.896,1.941-1.348,3.418-1.348
			c1.438,0,2.563,0.457,3.363,1.369c0.807,0.912,1.211,2.172,1.211,3.777c0,1.6-0.404,2.854-1.213,3.77
			c-0.813,0.916-1.938,1.373-3.375,1.373c-1.471,0-2.607-0.449-3.406-1.35C417.897,185.813,417.492,184.544,417.492,182.906z
			 M418.729,182.919c0,1.354,0.287,2.383,0.863,3.084s1.414,1.054,2.514,1.054c1.105,0,1.943-0.353,2.508-1.05
			c0.566-0.696,0.852-1.729,0.852-3.088c0-1.352-0.279-2.369-0.848-3.063c-0.563-0.694-1.395-1.043-2.498-1.043
			s-1.945,0.351-2.521,1.052C419.016,180.563,418.729,181.582,418.729,182.919z"/>
		<path fill="#666666" d="M427.758,181.313v-0.547l1.068-0.474l0.48-1.604h0.656v1.734h2.174v0.885h-2.174v4.42
			c0,0.451,0.104,0.799,0.316,1.041c0.217,0.24,0.511,0.359,0.883,0.359c0.199,0,0.396-0.014,0.58-0.045
			c0.188-0.025,0.335-0.062,0.443-0.092v0.856c-0.123,0.06-0.303,0.104-0.543,0.146c-0.238,0.039-0.455,0.061-0.646,0.061
			c-1.447,0-2.176-0.766-2.176-2.289v-4.457h-1.067v0.003L427.758,181.313L427.758,181.313z"/>
		<path fill="#666666" d="M433.692,187.923v-10.637h1.135v3.219c0,0.39-0.018,0.709-0.055,0.965h0.068
			c0.223-0.358,0.541-0.645,0.953-0.852c0.408-0.207,0.883-0.313,1.408-0.313c0.916,0,1.604,0.217,2.063,0.649
			c0.459,0.438,0.688,1.127,0.688,2.076v4.887h-1.135v-4.847c0-0.61-0.139-1.065-0.416-1.366c-0.279-0.302-0.715-0.451-1.307-0.451
			c-0.789,0-1.363,0.215-1.729,0.644c-0.357,0.433-0.543,1.131-0.543,2.104v3.916h-1.135L433.692,187.923L433.692,187.923z"/>
		<path fill="#666666" d="M441.865,184.236c0-1.205,0.297-2.166,0.895-2.877c0.594-0.711,1.389-1.064,2.389-1.064
			c0.937,0,1.676,0.312,2.221,0.928c0.545,0.615,0.818,1.436,0.818,2.441v0.719h-5.154c0.023,0.884,0.244,1.549,0.668,2.002
			c0.422,0.457,1.021,0.689,1.783,0.689c0.805,0,1.601-0.171,2.385-0.507v1.015c-0.396,0.172-0.773,0.297-1.135,0.371
			c-0.354,0.073-0.787,0.11-1.291,0.11c-1.104,0-1.977-0.336-2.615-1.015C442.189,186.373,441.865,185.438,441.865,184.236z
			 M443.057,183.458h3.924c0-0.715-0.16-1.268-0.479-1.646c-0.318-0.381-0.775-0.568-1.369-0.568c-0.604,0-1.082,0.193-1.441,0.588
			C443.328,182.225,443.117,182.768,443.057,183.458z"/>
		<path fill="#666666" d="M450.139,187.923v-7.491h0.924l0.139,1.396h0.063c0.273-0.49,0.609-0.867,1.006-1.134
			c0.393-0.267,0.822-0.397,1.293-0.397c0.332,0,0.631,0.027,0.896,0.084l-0.154,1.061c-0.313-0.064-0.584-0.104-0.82-0.104
			c-0.604,0-1.125,0.246-1.555,0.738c-0.436,0.49-0.646,1.104-0.646,1.836v4.016L450.139,187.923L450.139,187.923z"/>
		<path fill="#666666" d="M455.375,182.271c0-0.611,0.244-1.096,0.74-1.447c0.496-0.351,1.182-0.529,2.041-0.529
			c0.807,0,1.586,0.164,2.354,0.492l-0.396,0.924c-0.748-0.311-1.428-0.467-2.037-0.467c-0.539,0-0.939,0.086-1.219,0.254
			c-0.271,0.17-0.41,0.402-0.41,0.699c0,0.201,0.054,0.371,0.154,0.514c0.102,0.146,0.268,0.275,0.496,0.404
			c0.228,0.129,0.666,0.313,1.313,0.555c0.893,0.324,1.486,0.65,1.793,0.98c0.311,0.328,0.459,0.742,0.459,1.24
			c0,0.691-0.258,1.229-0.771,1.604c-0.516,0.377-1.24,0.564-2.174,0.564c-0.992,0-1.77-0.154-2.32-0.467v-1.047
			c0.359,0.186,0.744,0.326,1.156,0.434c0.412,0.104,0.809,0.154,1.188,0.154c0.6,0,1.055-0.094,1.371-0.281
			c0.32-0.189,0.479-0.479,0.479-0.867c0-0.291-0.127-0.541-0.379-0.75c-0.26-0.207-0.748-0.453-1.484-0.736
			c-0.697-0.26-1.193-0.488-1.486-0.682s-0.51-0.414-0.648-0.662C455.448,182.91,455.375,182.615,455.375,182.271z"/>
	</g>
	<g>
		<rect x="103.981" y="175.564" fill="#F2C466" width="14.216" height="14.217"/>
		<g>
			<path fill="#666666" d="M124.65,187.673v-9.993h1.75l3.166,8.243h0.056l3.19-8.243h1.733v9.993h-1.162v-6.438
				c0-0.737,0.033-1.541,0.099-2.405h-0.058l-3.418,8.846h-0.938l-3.392-8.855h-0.057c0.063,0.703,0.098,1.537,0.098,2.502v6.354
				L124.65,187.673L124.65,187.673z"/>
			<path fill="#666666" d="M136.63,187.357v-1.113c0.41,0.174,0.854,0.313,1.343,0.41c0.479,0.1,0.961,0.148,1.437,0.148
				c0.774,0,1.358-0.145,1.752-0.439c0.396-0.295,0.592-0.703,0.592-1.229c0-0.348-0.067-0.631-0.211-0.854
				c-0.14-0.221-0.371-0.426-0.695-0.61c-0.325-0.188-0.821-0.396-1.489-0.637c-0.933-0.334-1.596-0.73-1.987-1.187
				c-0.394-0.457-0.591-1.054-0.591-1.787c0-0.771,0.287-1.386,0.865-1.843c0.573-0.455,1.34-0.684,2.289-0.684
				c0.985,0,1.897,0.182,2.729,0.547l-0.354,1.012c-0.824-0.346-1.625-0.521-2.401-0.521c-0.617,0-1.099,0.135-1.445,0.396
				c-0.349,0.268-0.521,0.635-0.521,1.104c0,0.348,0.063,0.633,0.188,0.854c0.127,0.224,0.347,0.427,0.646,0.609
				c0.306,0.186,0.771,0.389,1.396,0.611c1.054,0.373,1.771,0.771,2.16,1.205c0.394,0.43,0.584,0.98,0.584,1.67
				c0,0.877-0.313,1.563-0.955,2.051c-0.637,0.49-1.5,0.732-2.59,0.732C138.179,187.811,137.267,187.66,136.63,187.357z"/>
			<path fill="#666666" d="M144.974,187.673v-9.993h3.063c1.555,0,2.764,0.432,3.623,1.293c0.86,0.858,1.291,2.063,1.291,3.606
				c0,1.648-0.445,2.912-1.343,3.785c-0.896,0.869-2.188,1.309-3.866,1.309H144.974L144.974,187.673z M146.136,186.667h1.411
				c1.39,0,2.431-0.34,3.125-1.021c0.697-0.682,1.048-1.688,1.048-3.021c0-1.307-0.326-2.285-0.979-2.947
				c-0.652-0.657-1.625-0.987-2.916-0.987h-1.688V186.667L146.136,186.667z"/>
		</g>
	</g>
	<g>
		<rect x="301.78" y="175.564" fill="#58585A" width="14.217" height="14.217"/>
		<g>
			<path fill="#666666" d="M322.869,186.128v-9.994h1.162v9.994H322.869z"/>
			<path fill="#666666" d="M326.606,186.128v-7.492h0.924l0.188,1.013h0.057c0.23-0.362,0.557-0.646,0.979-0.849
				c0.422-0.2,0.889-0.301,1.4-0.301c0.902,0,1.582,0.219,2.037,0.65c0.455,0.438,0.684,1.135,0.684,2.092v4.887h-1.135v-4.854
				c0-0.61-0.139-1.067-0.418-1.368c-0.275-0.304-0.713-0.453-1.305-0.453c-0.785,0-1.359,0.213-1.729,0.637
				c-0.361,0.43-0.547,1.127-0.547,2.104v3.938h-1.135V186.128L326.606,186.128z"/>
			<path fill="#666666" d="M333.237,188.406c0.314,0.09,0.625,0.137,0.93,0.137c0.355,0,0.617-0.098,0.783-0.291
				c0.168-0.19,0.25-0.49,0.25-0.887v-8.729h1.139v8.642c0,1.478-0.684,2.216-2.047,2.216c-0.434,0-0.779-0.058-1.053-0.17v-0.916
				h-0.002V188.406L333.237,188.406z M335.104,176.605c0-0.262,0.063-0.449,0.189-0.57c0.127-0.119,0.283-0.182,0.479-0.182
				c0.207,0,0.387,0.063,0.539,0.186c0.15,0.123,0.227,0.313,0.227,0.566c0,0.252-0.072,0.443-0.227,0.57
				c-0.152,0.125-0.332,0.189-0.539,0.189c-0.191,0-0.352-0.064-0.479-0.189C335.162,177.052,335.104,176.861,335.104,176.605z"/>
			<path fill="#666666" d="M338.656,183.539v-4.899h1.162v4.858c0,0.609,0.143,1.064,0.416,1.367
				c0.277,0.301,0.711,0.449,1.303,0.449c0.783,0,1.355-0.213,1.721-0.645c0.357-0.428,0.543-1.127,0.543-2.1v-3.938h1.135v7.492
				h-0.924l-0.176-1.004h-0.063c-0.232,0.369-0.555,0.647-0.967,0.85c-0.412,0.193-0.881,0.293-1.408,0.293
				c-0.916,0-1.602-0.219-2.057-0.648C338.884,185.184,338.656,184.49,338.656,183.539z"/>
			<path fill="#666666" d="M347.328,186.128v-7.492h0.928l0.139,1.396h0.059c0.279-0.488,0.615-0.865,1.01-1.136
				c0.393-0.269,0.82-0.396,1.293-0.396c0.332,0,0.631,0.025,0.896,0.082l-0.158,1.061c-0.309-0.064-0.582-0.104-0.816-0.104
				c-0.605,0-1.125,0.246-1.559,0.733c-0.43,0.492-0.645,1.104-0.645,1.841v4.016h-1.141L347.328,186.128L347.328,186.128z"/>
			<path fill="#666666" d="M352.948,176.605c0-0.262,0.063-0.449,0.18-0.57c0.115-0.119,0.266-0.182,0.438-0.182
				c0.197,0,0.367,0.063,0.508,0.186c0.146,0.123,0.215,0.313,0.215,0.566c0,0.252-0.066,0.443-0.215,0.57
				c-0.143,0.125-0.311,0.189-0.508,0.189c-0.176,0-0.324-0.064-0.438-0.189C353.01,177.052,352.948,176.861,352.948,176.605z
				 M353.049,186.128v-7.492h1.037v7.492H353.049z"/>
			<path fill="#666666" d="M356.172,182.445c0-1.209,0.297-2.168,0.889-2.879c0.594-0.711,1.389-1.066,2.389-1.066
				c0.938,0,1.68,0.312,2.225,0.926c0.547,0.619,0.814,1.437,0.814,2.445v0.717h-5.15c0.021,0.881,0.24,1.547,0.666,2.004
				c0.424,0.455,1.018,0.687,1.781,0.687c0.807,0,1.604-0.17,2.389-0.506v1.015c-0.4,0.174-0.777,0.299-1.139,0.373
				c-0.354,0.071-0.787,0.108-1.291,0.108c-1.104,0-1.977-0.336-2.611-1.015C356.49,184.58,356.172,183.643,356.172,182.445z
				 M357.362,181.666h3.924c0-0.717-0.156-1.266-0.479-1.645c-0.32-0.381-0.777-0.57-1.371-0.57c-0.604,0-1.082,0.195-1.441,0.588
				C357.637,180.43,357.426,180.973,357.362,181.666z"/>
			<path fill="#666666" d="M363.963,180.477c0-0.608,0.248-1.095,0.74-1.444c0.498-0.355,1.182-0.531,2.047-0.531
				c0.803,0,1.584,0.164,2.352,0.492l-0.396,0.924c-0.75-0.312-1.428-0.465-2.033-0.465c-0.539,0-0.945,0.084-1.223,0.254
				c-0.271,0.168-0.412,0.399-0.412,0.696c0,0.201,0.057,0.371,0.154,0.515c0.104,0.146,0.271,0.274,0.498,0.404
				c0.229,0.129,0.666,0.313,1.314,0.557c0.889,0.324,1.482,0.647,1.791,0.979c0.307,0.328,0.461,0.742,0.461,1.24
				c0,0.692-0.264,1.229-0.775,1.604c-0.518,0.375-1.242,0.563-2.176,0.563c-0.992,0-1.77-0.154-2.32-0.467v-1.047
				c0.359,0.186,0.746,0.326,1.158,0.434c0.412,0.105,0.809,0.156,1.188,0.156c0.6,0,1.055-0.096,1.371-0.283
				c0.32-0.188,0.479-0.479,0.479-0.867c0-0.291-0.127-0.541-0.379-0.75c-0.254-0.207-0.748-0.451-1.484-0.734
				c-0.699-0.262-1.195-0.486-1.486-0.684c-0.293-0.193-0.51-0.414-0.648-0.66C364.031,181.115,363.963,180.82,363.963,180.477z"/>
		</g>
	</g>
</g>
</svg>
